<?xml version="1.0" encoding="UTF-8"?><svg id="Capa_2" xmlns="http://www.w3.org/2000/svg" xmlns:xlink="http://www.w3.org/1999/xlink" viewBox="0 0 829.92 444.57"><defs><style>.cls-1{fill:none;stroke:#909090;stroke-linecap:round;stroke-linejoin:round;stroke-width:2.51px;}.cls-2,.cls-3{fill:#f6a02e;}.cls-4,.cls-5{fill:#fff;}.cls-6{fill:#1e5fa1;}.cls-7{fill:#5d5d62;}.cls-5{filter:url(#drop-shadow-1);}.cls-3{filter:url(#drop-shadow-2);}</style><filter id="drop-shadow-1" filterUnits="userSpaceOnUse"><feOffset dx="12.19" dy="12.19"/><feGaussianBlur result="blur" stdDeviation="12.19"/><feFlood flood-color="#b9b9b9" flood-opacity=".75"/><feComposite in2="blur" operator="in"/><feComposite in="SourceGraphic"/></filter><filter id="drop-shadow-2" filterUnits="userSpaceOnUse"><feOffset dx="9.74" dy="9.74"/><feGaussianBlur result="blur-2" stdDeviation="9.74"/><feFlood flood-color="#b9b9b9" flood-opacity=".75"/><feComposite in2="blur-2" operator="in"/><feComposite in="SourceGraphic"/></filter></defs><g id="Capa_1-2"><g><path class="cls-5" d="M66.62,48.08H738.83c23.28,0,42.18,18.9,42.18,42.18V353.44c0,23.28-18.9,42.18-42.18,42.18H66.62c-23.28,0-42.18-18.9-42.18-42.18V90.26c0-23.28,18.9-42.18,42.18-42.18Z"/><rect class="cls-3" x="75.79" y="19.62" width="265.22" height="62" rx="21.74" ry="21.74"/><line class="cls-1" x1="75.79" y1="106.83" x2="495.56" y2="106.83"/><g><path class="cls-4" d="M102.01,57.63v-16.71h8.79c3.18,0,4.81,2.03,4.81,4.26,0,2.1-1.3,3.51-2.88,3.83,1.78,.28,3.21,2,3.21,4.11,0,2.5-1.68,4.51-4.86,4.51h-9.07Zm3.56-10h4.46c1.2,0,1.95-.78,1.95-1.85s-.75-1.83-1.95-1.83h-4.46v3.68Zm0,6.96h4.58c1.35,0,2.16-.78,2.16-1.98,0-1.05-.75-1.96-2.16-1.96h-4.58v3.93Z"/><path class="cls-4" d="M118.54,57.63v-16.71h3.18v16.71h-3.18Z"/><path class="cls-4" d="M133.05,57.63v-1.53c-.83,.93-2.28,1.83-4.26,1.83-2.66,0-3.91-1.45-3.91-3.81v-8.59h3.18v7.34c0,1.68,.88,2.23,2.23,2.23,1.23,0,2.21-.68,2.76-1.38v-8.19h3.18v12.1h-3.18Z"/><path class="cls-4" d="M144.87,45.23c3.61,0,6.06,2.71,6.06,6.67v.7h-8.99c.2,1.53,1.43,2.81,3.48,2.81,1.13,0,2.46-.45,3.23-1.2l1.4,2.05c-1.23,1.13-3.11,1.68-4.99,1.68-3.68,0-6.46-2.48-6.46-6.36,0-3.51,2.58-6.34,6.26-6.34Zm-2.98,5.21h5.96c-.08-1.15-.88-2.68-2.98-2.68-1.98,0-2.83,1.48-2.98,2.68Z"/><path class="cls-4" d="M165.28,45.23c2.48,0,3.98,1.08,4.79,2.21l-2.08,1.93c-.58-.83-1.45-1.3-2.56-1.3-1.93,0-3.28,1.4-3.28,3.51s1.35,3.53,3.28,3.53c1.1,0,1.98-.5,2.56-1.3l2.08,1.93c-.8,1.13-2.31,2.21-4.79,2.21-3.73,0-6.41-2.63-6.41-6.36s2.68-6.34,6.41-6.34Z"/><path class="cls-4" d="M179.41,57.63v-1.25c-.83,.98-2.25,1.55-3.83,1.55-1.93,0-4.21-1.3-4.21-4.01s2.28-3.86,4.21-3.86c1.6,0,3.03,.5,3.83,1.48v-1.68c0-1.23-1.05-2.03-2.66-2.03-1.3,0-2.5,.48-3.53,1.43l-1.2-2.13c1.48-1.3,3.38-1.9,5.29-1.9,2.76,0,5.29,1.1,5.29,4.58v7.82h-3.18Zm0-4.41c-.53-.7-1.53-1.05-2.56-1.05-1.25,0-2.28,.68-2.28,1.83s1.03,1.78,2.28,1.78c1.03,0,2.03-.35,2.56-1.05v-1.5Z"/><path class="cls-4" d="M185.75,57.63v-12.1h3.18v1.65c.85-1.08,2.36-1.93,3.86-1.93v3.11c-.23-.05-.53-.08-.88-.08-1.05,0-2.46,.58-2.98,1.35v7.99h-3.18Z"/><path class="cls-4" d="M194.77,57.63v-16.71h3.18v6.16c.95-1.23,2.31-1.85,3.73-1.85,3.08,0,5.36,2.41,5.36,6.36s-2.3,6.34-5.36,6.34c-1.45,0-2.78-.65-3.73-1.83v1.53h-3.18Zm3.18-3.88c.53,.78,1.7,1.35,2.73,1.35,1.85,0,3.08-1.4,3.08-3.51s-1.23-3.53-3.08-3.53c-1.03,0-2.21,.6-2.73,1.4v4.28Z"/><path class="cls-4" d="M208.67,51.57c0-3.43,2.41-6.34,6.39-6.34s6.41,2.91,6.41,6.34-2.41,6.36-6.41,6.36-6.39-2.91-6.39-6.36Zm9.5,0c0-1.88-1.13-3.51-3.11-3.51s-3.08,1.63-3.08,3.51,1.1,3.53,3.08,3.53,3.11-1.63,3.11-3.53Z"/><path class="cls-4" d="M231.99,57.63v-7.32c0-1.68-.88-2.26-2.23-2.26-1.25,0-2.23,.7-2.76,1.43v8.14h-3.18v-12.1h3.18v1.58c.78-.93,2.25-1.88,4.23-1.88,2.66,0,3.93,1.5,3.93,3.86v8.54h-3.18Z"/></g><path class="cls-6" d="M309.25,14.08l-5.45,5.45,5.45,5.45c.58,.58,.58,1.52,0,2.1-.29,.29-.67,.44-1.05,.44s-.76-.15-1.05-.44l-5.45-5.45-5.45,5.45c-.29,.29-.67,.44-1.05,.44s-.76-.15-1.05-.44c-.58-.58-.58-1.52,0-2.1l5.45-5.45-5.45-5.45c-.58-.58-.58-1.52,0-2.1,.58-.58,1.52-.58,2.1,0l5.45,5.45,5.45-5.45c.58-.58,1.52-.58,2.1,0,.58,.58,.58,1.52,0,2.1Zm5.93-7.89c-3.59-3.59-8.37-5.57-13.45-5.57s-9.86,1.98-13.45,5.57c-3.59,3.59-5.57,8.37-5.57,13.45s1.98,9.86,5.57,13.45c3.59,3.59,8.37,5.57,13.45,5.57,3.48,0,6.88-.95,9.84-2.74,.7-.43,.93-1.34,.5-2.04-.43-.7-1.34-.93-2.04-.5-2.5,1.51-5.37,2.31-8.3,2.31-8.85,0-16.05-7.2-16.05-16.05s7.2-16.05,16.05-16.05,16.05,7.2,16.05,16.05c0,3.16-.94,6.24-2.72,8.91-.46,.68-.27,1.6,.41,2.06,.68,.46,1.6,.27,2.06-.41,2.11-3.15,3.22-6.8,3.22-10.56,0-5.08-1.98-9.86-5.57-13.45Z"/></g><g><path class="cls-7" d="M77.67,201.65c0-4.1,3.02-6.9,6.8-6.9,2.42,0,4.06,1.14,5.12,2.64l-1.4,.78c-.76-1.12-2.14-1.94-3.72-1.94-2.86,0-5.08,2.24-5.08,5.42s2.22,5.42,5.08,5.42c1.58,0,2.96-.8,3.72-1.94l1.42,.78c-1.12,1.52-2.72,2.64-5.14,2.64-3.78,0-6.8-2.8-6.8-6.9Z"/><path class="cls-7" d="M91.67,208.31v-13.34h1.5v13.34h-1.5Z"/><path class="cls-7" d="M95.91,196.01c0-.56,.46-1,1-1s1.02,.44,1.02,1-.46,1.02-1.02,1.02-1-.46-1-1.02Zm.26,12.3v-9.66h1.5v9.66h-1.5Z"/><path class="cls-7" d="M104.93,198.41c1.76,0,2.8,.72,3.54,1.68l-1,.92c-.64-.88-1.46-1.26-2.46-1.26-2.06,0-3.34,1.58-3.34,3.72s1.28,3.74,3.34,3.74c1,0,1.82-.4,2.46-1.26l1,.92c-.74,.96-1.78,1.68-3.54,1.68-2.88,0-4.82-2.2-4.82-5.08s1.94-5.06,4.82-5.06Z"/><path class="cls-7" d="M117.15,208.31l-3.48-4.34-1.6,1.58v2.76h-1.5v-13.34h1.5v8.82l5.08-5.14h1.9l-4.28,4.38,4.3,5.28h-1.92Z"/><path class="cls-7" d="M132.55,208.31v-6.36c0-1.7-.88-2.2-2.18-2.2-1.16,0-2.28,.72-2.86,1.5v7.06h-1.5v-13.34h1.5v5.08c.68-.8,2-1.64,3.46-1.64,2.02,0,3.08,.98,3.08,3.08v6.82h-1.5Z"/><path class="cls-7" d="M141.25,198.41c2.92,0,4.64,2.28,4.64,5.18v.38h-7.82c.12,1.82,1.4,3.34,3.48,3.34,1.1,0,2.22-.44,2.98-1.22l.72,.98c-.96,.96-2.26,1.48-3.84,1.48-2.86,0-4.92-2.06-4.92-5.08,0-2.8,2-5.06,4.76-5.06Zm-3.18,4.46h6.34c-.02-1.44-.98-3.22-3.18-3.22-2.06,0-3.08,1.74-3.16,3.22Z"/><path class="cls-7" d="M148.31,208.31v-9.66h1.5v1.56c.78-1.02,1.9-1.76,3.22-1.76v1.54c-.18-.04-.36-.06-.6-.06-.92,0-2.18,.76-2.62,1.54v6.84h-1.5Z"/><path class="cls-7" d="M159.11,198.41c2.92,0,4.64,2.28,4.64,5.18v.38h-7.82c.12,1.82,1.4,3.34,3.48,3.34,1.1,0,2.22-.44,2.98-1.22l.72,.98c-.96,.96-2.26,1.48-3.84,1.48-2.86,0-4.92-2.06-4.92-5.08,0-2.8,2-5.06,4.76-5.06Zm-3.18,4.46h6.34c-.02-1.44-.98-3.22-3.18-3.22-2.06,0-3.08,1.74-3.16,3.22Z"/></g><g><path class="cls-7" d="M674.77,205.31c.78,1.04,2.14,1.76,3.72,1.76,1.94,0,3.12-.96,3.12-2.5,0-1.66-1.36-2.36-3.32-2.36-.56,0-1.18,0-1.38,.02v-1.52c.22,.02,.84,.02,1.38,.02,1.68,0,3.1-.66,3.1-2.2s-1.36-2.28-2.98-2.28c-1.46,0-2.54,.56-3.52,1.62l-.92-1.04c.96-1.16,2.5-2.06,4.56-2.06,2.56,0,4.52,1.3,4.52,3.56,0,1.92-1.62,2.88-2.88,3.1,1.22,.1,3.08,1.14,3.08,3.28s-1.78,3.84-4.72,3.84c-2.26,0-3.92-1-4.74-2.2l.98-1.04Z"/><path class="cls-7" d="M702.67,208.31v-6.56c0-1.22-.54-2-1.78-2-1,0-2.06,.72-2.56,1.48v7.08h-1.5v-6.56c0-1.22-.52-2-1.78-2-.98,0-2.02,.72-2.54,1.5v7.06h-1.5v-9.66h1.5v1.4c.4-.62,1.7-1.64,3.12-1.64s2.32,.8,2.6,1.8c.54-.88,1.84-1.8,3.24-1.8,1.76,0,2.7,.98,2.7,2.92v6.98h-1.5Z"/><path class="cls-7" d="M706.91,196.01c0-.56,.46-1,1-1s1.02,.44,1.02,1-.46,1.02-1.02,1.02-1-.46-1-1.02Zm.26,12.3v-9.66h1.5v9.66h-1.5Z"/><path class="cls-7" d="M718.19,208.31v-6.32c0-1.7-.86-2.24-2.16-2.24-1.18,0-2.3,.72-2.86,1.5v7.06h-1.5v-9.66h1.5v1.4c.68-.8,2-1.64,3.44-1.64,2.02,0,3.08,1.02,3.08,3.12v6.78h-1.5Z"/><path class="cls-7" d="M729.21,208.31v-1.36c-.74,.84-2,1.6-3.44,1.6-2.02,0-3.08-.98-3.08-3.08v-6.82h1.5v6.36c0,1.7,.86,2.2,2.16,2.2,1.18,0,2.3-.68,2.86-1.46v-7.1h1.5v9.66h-1.5Z"/><path class="cls-7" d="M734.01,206.29v-6.32h-1.6v-1.32h1.6v-2.64h1.5v2.64h1.96v1.32h-1.96v6c0,.72,.32,1.24,.98,1.24,.42,0,.82-.18,1.02-.4l.44,1.12c-.38,.36-.92,.62-1.8,.62-1.42,0-2.14-.82-2.14-2.26Z"/><path class="cls-7" d="M743.79,198.41c2.92,0,4.64,2.28,4.64,5.18v.38h-7.82c.12,1.82,1.4,3.34,3.48,3.34,1.1,0,2.22-.44,2.98-1.22l.72,.98c-.96,.96-2.26,1.48-3.84,1.48-2.86,0-4.92-2.06-4.92-5.08,0-2.8,2-5.06,4.76-5.06Zm-3.18,4.46h6.34c-.02-1.44-.98-3.22-3.18-3.22-2.06,0-3.08,1.74-3.16,3.22Z"/><path class="cls-7" d="M750.79,205.95c.64,.74,1.86,1.38,3.18,1.38,1.48,0,2.28-.66,2.28-1.6,0-1.06-1.18-1.4-2.48-1.72-1.64-.38-3.5-.82-3.5-2.82,0-1.5,1.3-2.78,3.6-2.78,1.64,0,2.8,.62,3.58,1.4l-.7,1.04c-.58-.7-1.64-1.22-2.88-1.22-1.32,0-2.14,.6-2.14,1.46,0,.94,1.1,1.24,2.36,1.54,1.68,.38,3.62,.86,3.62,3,0,1.62-1.3,2.92-3.8,2.92-1.58,0-2.92-.48-3.9-1.52l.78-1.08Z"/></g><g><path class="cls-7" d="M673.67,312.31v-1.32c4.8-3.78,7.4-6,7.4-8.3,0-1.7-1.4-2.44-2.78-2.44-1.6,0-2.84,.68-3.62,1.68l-1.02-1.06c1.02-1.34,2.76-2.1,4.64-2.1,2.22,0,4.48,1.26,4.48,3.92s-2.76,5.2-6.48,8.14h6.54v1.48h-9.16Z"/><path class="cls-7" d="M702.67,312.31v-6.56c0-1.22-.54-2-1.78-2-1,0-2.06,.72-2.56,1.48v7.08h-1.5v-6.56c0-1.22-.52-2-1.78-2-.98,0-2.02,.72-2.54,1.5v7.06h-1.5v-9.66h1.5v1.4c.4-.62,1.7-1.64,3.12-1.64s2.32,.8,2.6,1.8c.54-.88,1.84-1.8,3.24-1.8,1.76,0,2.7,.98,2.7,2.92v6.98h-1.5Z"/><path class="cls-7" d="M706.91,300.01c0-.56,.46-1,1-1s1.02,.44,1.02,1-.46,1.02-1.02,1.02-1-.46-1-1.02Zm.26,12.3v-9.66h1.5v9.66h-1.5Z"/><path class="cls-7" d="M718.19,312.31v-6.32c0-1.7-.86-2.24-2.16-2.24-1.18,0-2.3,.72-2.86,1.5v7.06h-1.5v-9.66h1.5v1.4c.68-.8,2-1.64,3.44-1.64,2.02,0,3.08,1.02,3.08,3.12v6.78h-1.5Z"/><path class="cls-7" d="M729.21,312.31v-1.36c-.74,.84-2,1.6-3.44,1.6-2.02,0-3.08-.98-3.08-3.08v-6.82h1.5v6.36c0,1.7,.86,2.2,2.16,2.2,1.18,0,2.3-.68,2.86-1.46v-7.1h1.5v9.66h-1.5Z"/><path class="cls-7" d="M734.01,310.29v-6.32h-1.6v-1.32h1.6v-2.64h1.5v2.64h1.96v1.32h-1.96v6c0,.72,.32,1.24,.98,1.24,.42,0,.82-.18,1.02-.4l.44,1.12c-.38,.36-.92,.62-1.8,.62-1.42,0-2.14-.82-2.14-2.26Z"/><path class="cls-7" d="M743.79,302.41c2.92,0,4.64,2.28,4.64,5.18v.38h-7.82c.12,1.82,1.4,3.34,3.48,3.34,1.1,0,2.22-.44,2.98-1.22l.72,.98c-.96,.96-2.26,1.48-3.84,1.48-2.86,0-4.92-2.06-4.92-5.08,0-2.8,2-5.06,4.76-5.06Zm-3.18,4.46h6.34c-.02-1.44-.98-3.22-3.18-3.22-2.06,0-3.08,1.74-3.16,3.22Z"/><path class="cls-7" d="M750.79,309.95c.64,.74,1.86,1.38,3.18,1.38,1.48,0,2.28-.66,2.28-1.6,0-1.06-1.18-1.4-2.48-1.72-1.64-.38-3.5-.82-3.5-2.82,0-1.5,1.3-2.78,3.6-2.78,1.64,0,2.8,.62,3.58,1.4l-.7,1.04c-.58-.7-1.64-1.22-2.88-1.22-1.32,0-2.14,.6-2.14,1.46,0,.94,1.1,1.24,2.36,1.54,1.68,.38,3.62,.86,3.62,3,0,1.62-1.3,2.92-3.8,2.92-1.58,0-2.92-.48-3.9-1.52l.78-1.08Z"/></g><g><path class="cls-2" d="M96.79,172.43l-3.89-15.23-3.86,15.23h-5.02l-6.35-22.19h5.29l3.89,16.03,4.22-16.03h3.69l4.19,16.03,3.86-16.03h5.32l-6.32,22.19h-5.02Z"/><path class="cls-2" d="M121.13,172.43v-9.78c0-2.23-1.16-2.93-2.99-2.93-1.63,0-2.93,.93-3.66,1.9v10.81h-4.22v-22.19h4.22v8.22c1.03-1.23,3.03-2.5,5.65-2.5,3.53,0,5.22,1.93,5.22,5.06v11.41h-4.22Z"/><path class="cls-2" d="M139.19,172.43v-1.66c-1.1,1.3-2.99,2.06-5.09,2.06-2.56,0-5.59-1.73-5.59-5.32s3.03-5.12,5.59-5.12c2.13,0,4.02,.67,5.09,1.96v-2.23c0-1.63-1.4-2.69-3.53-2.69-1.73,0-3.33,.63-4.69,1.9l-1.6-2.83c1.96-1.73,4.49-2.53,7.02-2.53,3.66,0,7.02,1.46,7.02,6.09v10.38h-4.22Zm0-5.85c-.7-.93-2.03-1.4-3.39-1.4-1.66,0-3.03,.9-3.03,2.43s1.36,2.36,3.03,2.36c1.36,0,2.69-.47,3.39-1.4v-2Z"/><path class="cls-2" d="M148.44,168.43v-8.38h-2.66v-3.69h2.66v-4.39h4.26v4.39h3.26v3.69h-3.26v7.25c0,1,.53,1.76,1.46,1.76,.63,0,1.23-.23,1.46-.47l.9,3.19c-.63,.57-1.76,1.03-3.53,1.03-2.96,0-4.56-1.53-4.56-4.39Z"/><path class="cls-2" d="M166.33,164.38c0-4.56,3.19-8.42,8.48-8.42s8.52,3.86,8.52,8.42-3.19,8.45-8.52,8.45-8.48-3.86-8.48-8.45Zm12.61,0c0-2.5-1.5-4.66-4.12-4.66s-4.09,2.16-4.09,4.66,1.46,4.69,4.09,4.69,4.12-2.16,4.12-4.69Z"/><path class="cls-2" d="M197.29,172.43v-9.71c0-2.23-1.17-2.99-2.96-2.99-1.66,0-2.96,.93-3.66,1.9v10.81h-4.22v-16.07h4.22v2.1c1.03-1.23,2.99-2.5,5.62-2.5,3.53,0,5.22,2,5.22,5.12v11.34h-4.22Z"/><path class="cls-2" d="M214.32,172.43v-22.19h15.7v4.06h-10.98v4.82h10.74v4.06h-10.74v5.16h10.98v4.09h-15.7Z"/><path class="cls-2" d="M243.26,172.43v-1.66c-1.1,1.3-2.99,2.06-5.09,2.06-2.56,0-5.59-1.73-5.59-5.32s3.03-5.12,5.59-5.12c2.13,0,4.02,.67,5.09,1.96v-2.23c0-1.63-1.4-2.69-3.53-2.69-1.73,0-3.33,.63-4.69,1.9l-1.6-2.83c1.96-1.73,4.49-2.53,7.02-2.53,3.66,0,7.02,1.46,7.02,6.09v10.38h-4.22Zm0-5.85c-.7-.93-2.03-1.4-3.39-1.4-1.66,0-3.03,.9-3.03,2.43s1.36,2.36,3.03,2.36c1.36,0,2.69-.47,3.39-1.4v-2Z"/><path class="cls-2" d="M251.67,172.43v-16.07h4.22v2.2c1.13-1.43,3.13-2.56,5.12-2.56v4.12c-.3-.07-.7-.1-1.16-.1-1.4,0-3.26,.77-3.96,1.8v10.61h-4.22Z"/><path class="cls-2" d="M264.47,168.43v-8.38h-2.66v-3.69h2.66v-4.39h4.26v4.39h3.26v3.69h-3.26v7.25c0,1,.53,1.76,1.46,1.76,.63,0,1.23-.23,1.46-.47l.9,3.19c-.63,.57-1.76,1.03-3.53,1.03-2.96,0-4.56-1.53-4.56-4.39Z"/><path class="cls-2" d="M285.76,172.43v-9.78c0-2.23-1.16-2.93-2.99-2.93-1.63,0-2.93,.93-3.66,1.9v10.81h-4.22v-22.19h4.22v8.22c1.03-1.23,3.03-2.5,5.65-2.5,3.53,0,5.22,1.93,5.22,5.06v11.41h-4.22Z"/><path class="cls-2" d="M302.25,151.47c0-1.4,1.16-2.53,2.53-2.53s2.53,1.13,2.53,2.53-1.13,2.53-2.53,2.53-2.53-1.13-2.53-2.53Zm.43,20.96v-16.07h4.22v16.07h-4.22Z"/><path class="cls-2" d="M311.53,167.37c1.17,1.1,3.56,2.2,5.56,2.2,1.83,0,2.69-.63,2.69-1.63,0-1.13-1.4-1.53-3.23-1.9-2.76-.53-6.32-1.2-6.32-5.02,0-2.69,2.36-5.06,6.59-5.06,2.73,0,4.89,.93,6.45,2.2l-1.66,2.89c-.96-1.03-2.79-1.86-4.76-1.86-1.53,0-2.53,.57-2.53,1.5,0,1,1.26,1.36,3.06,1.73,2.76,.53,6.45,1.26,6.45,5.26,0,2.96-2.49,5.16-6.95,5.16-2.79,0-5.49-.93-7.18-2.5l1.83-2.96Z"/><path class="cls-2" d="M335.58,172.43v-22.19h11.68c4.22,0,6.39,2.7,6.39,5.66,0,2.79-1.73,4.66-3.83,5.09,2.36,.37,4.26,2.66,4.26,5.46,0,3.33-2.23,5.99-6.45,5.99h-12.04Zm4.72-13.27h5.92c1.6,0,2.59-1.03,2.59-2.46s-1-2.43-2.59-2.43h-5.92v4.89Zm0,9.25h6.09c1.8,0,2.86-1.03,2.86-2.63,0-1.4-1-2.6-2.86-2.6h-6.09v5.22Z"/><path class="cls-2" d="M357.53,172.43v-22.19h4.22v22.19h-4.22Z"/><path class="cls-2" d="M376.79,172.43v-2.03c-1.1,1.23-3.03,2.43-5.66,2.43-3.53,0-5.19-1.93-5.19-5.06v-11.41h4.22v9.75c0,2.23,1.16,2.96,2.96,2.96,1.63,0,2.93-.9,3.66-1.83v-10.88h4.22v16.07h-4.22Z"/><path class="cls-2" d="M392.48,155.96c4.79,0,8.05,3.59,8.05,8.85v.93h-11.94c.27,2.03,1.9,3.72,4.62,3.72,1.5,0,3.26-.6,4.29-1.6l1.86,2.73c-1.63,1.5-4.12,2.23-6.62,2.23-4.89,0-8.58-3.29-8.58-8.45,0-4.66,3.43-8.42,8.32-8.42Zm-3.96,6.92h7.92c-.1-1.53-1.16-3.56-3.96-3.56-2.63,0-3.76,1.96-3.96,3.56Z"/><path class="cls-2" d="M411.14,161.35c0-6.82,5.16-11.48,11.64-11.48,5.06,0,7.88,2.66,9.45,5.42l-4.06,2c-.93-1.8-2.93-3.23-5.39-3.23-3.86,0-6.79,3.09-6.79,7.28s2.93,7.29,6.79,7.29c2.46,0,4.46-1.4,5.39-3.23l4.06,1.96c-1.6,2.76-4.39,5.46-9.45,5.46-6.49,0-11.64-4.66-11.64-11.48Z"/><path class="cls-2" d="M444.6,172.43v-1.66c-1.1,1.3-2.99,2.06-5.09,2.06-2.56,0-5.59-1.73-5.59-5.32s3.03-5.12,5.59-5.12c2.13,0,4.03,.67,5.09,1.96v-2.23c0-1.63-1.4-2.69-3.53-2.69-1.73,0-3.33,.63-4.69,1.9l-1.6-2.83c1.96-1.73,4.49-2.53,7.02-2.53,3.66,0,7.02,1.46,7.02,6.09v10.38h-4.22Zm0-5.85c-.7-.93-2.03-1.4-3.39-1.4-1.66,0-3.03,.9-3.03,2.43s1.36,2.36,3.03,2.36c1.36,0,2.69-.47,3.39-1.4v-2Z"/><path class="cls-2" d="M453.01,172.43v-16.07h4.22v2.2c1.13-1.43,3.13-2.56,5.12-2.56v4.12c-.3-.07-.7-.1-1.16-.1-1.4,0-3.26,.77-3.96,1.8v10.61h-4.22Z"/><path class="cls-2" d="M464.98,172.43v-22.19h4.22v8.18c1.26-1.63,3.06-2.46,4.96-2.46,4.09,0,7.12,3.19,7.12,8.45s-3.06,8.42-7.12,8.42c-1.93,0-3.69-.87-4.96-2.43v2.03h-4.22Zm4.22-5.16c.7,1.03,2.26,1.8,3.63,1.8,2.46,0,4.09-1.86,4.09-4.66s-1.63-4.69-4.09-4.69c-1.36,0-2.93,.8-3.63,1.86v5.69Z"/><path class="cls-2" d="M483.44,164.38c0-4.56,3.19-8.42,8.48-8.42s8.52,3.86,8.52,8.42-3.19,8.45-8.52,8.45-8.48-3.86-8.48-8.45Zm12.61,0c0-2.5-1.5-4.66-4.12-4.66s-4.09,2.16-4.09,4.66,1.46,4.69,4.09,4.69,4.12-2.16,4.12-4.69Z"/><path class="cls-2" d="M514.41,172.43v-9.71c0-2.23-1.16-2.99-2.96-2.99-1.66,0-2.96,.93-3.66,1.9v10.81h-4.22v-16.07h4.22v2.1c1.03-1.23,2.99-2.5,5.62-2.5,3.53,0,5.22,2,5.22,5.12v11.34h-4.22Z"/><path class="cls-2" d="M527.05,158.36c1.03-.73,1.93-1.36,1.93-2.36s-.77-1.9-2.59-1.9c-1.66,0-3.06,.83-4.09,2.06l-2.69-3.03c1.76-2.06,4.42-3.23,7.29-3.23,4.29,0,6.92,2.16,6.92,5.26,0,2.76-1.8,4.09-3.36,5.19-1.16,.86-2.2,1.6-2.2,2.83,0,.53,.27,1.1,.6,1.4l-3.63,1.06c-.7-.76-1.1-1.76-1.1-2.93,0-2.29,1.6-3.39,2.93-4.36Zm-.23,9.05c1.46,0,2.69,1.23,2.69,2.7s-1.23,2.69-2.69,2.69-2.7-1.23-2.7-2.69,1.23-2.7,2.7-2.7Z"/></g><g><path class="cls-7" d="M77.67,308.65c0-4.1,3.02-6.9,6.8-6.9,2.42,0,4.06,1.14,5.12,2.64l-1.4,.78c-.76-1.12-2.14-1.94-3.72-1.94-2.86,0-5.08,2.24-5.08,5.42s2.22,5.42,5.08,5.42c1.58,0,2.96-.8,3.72-1.94l1.42,.78c-1.12,1.52-2.72,2.64-5.14,2.64-3.78,0-6.8-2.8-6.8-6.9Z"/><path class="cls-7" d="M91.67,315.31v-13.34h1.5v13.34h-1.5Z"/><path class="cls-7" d="M95.91,303.01c0-.56,.46-1,1-1s1.02,.44,1.02,1-.46,1.02-1.02,1.02-1-.46-1-1.02Zm.26,12.3v-9.66h1.5v9.66h-1.5Z"/><path class="cls-7" d="M104.93,305.41c1.76,0,2.8,.72,3.54,1.68l-1,.92c-.64-.88-1.46-1.26-2.46-1.26-2.06,0-3.34,1.58-3.34,3.72s1.28,3.74,3.34,3.74c1,0,1.82-.4,2.46-1.26l1,.92c-.74,.96-1.78,1.68-3.54,1.68-2.88,0-4.82-2.2-4.82-5.08s1.94-5.06,4.82-5.06Z"/><path class="cls-7" d="M117.15,315.31l-3.48-4.34-1.6,1.58v2.76h-1.5v-13.34h1.5v8.82l5.08-5.14h1.9l-4.28,4.38,4.3,5.28h-1.92Z"/><path class="cls-7" d="M132.55,315.31v-6.36c0-1.7-.88-2.2-2.18-2.2-1.16,0-2.28,.72-2.86,1.5v7.06h-1.5v-13.34h1.5v5.08c.68-.8,2-1.64,3.46-1.64,2.02,0,3.08,.98,3.08,3.08v6.82h-1.5Z"/><path class="cls-7" d="M141.25,305.41c2.92,0,4.64,2.28,4.64,5.18v.38h-7.82c.12,1.82,1.4,3.34,3.48,3.34,1.1,0,2.22-.44,2.98-1.22l.72,.98c-.96,.96-2.26,1.48-3.84,1.48-2.86,0-4.92-2.06-4.92-5.08,0-2.8,2-5.06,4.76-5.06Zm-3.18,4.46h6.34c-.02-1.44-.98-3.22-3.18-3.22-2.06,0-3.08,1.74-3.16,3.22Z"/><path class="cls-7" d="M148.31,315.31v-9.66h1.5v1.56c.78-1.02,1.9-1.76,3.22-1.76v1.54c-.18-.04-.36-.06-.6-.06-.92,0-2.18,.76-2.62,1.54v6.84h-1.5Z"/><path class="cls-7" d="M159.11,305.41c2.92,0,4.64,2.28,4.64,5.18v.38h-7.82c.12,1.82,1.4,3.34,3.48,3.34,1.1,0,2.22-.44,2.98-1.22l.72,.98c-.96,.96-2.26,1.48-3.84,1.48-2.86,0-4.92-2.06-4.92-5.08,0-2.8,2-5.06,4.76-5.06Zm-3.18,4.46h6.34c-.02-1.44-.98-3.22-3.18-3.22-2.06,0-3.08,1.74-3.16,3.22Z"/></g><g><path class="cls-2" d="M96.79,279.43l-3.89-15.23-3.86,15.23h-5.02l-6.35-22.19h5.29l3.89,16.03,4.22-16.03h3.69l4.19,16.03,3.86-16.03h5.32l-6.32,22.19h-5.02Z"/><path class="cls-2" d="M121.13,279.43v-9.78c0-2.23-1.16-2.93-2.99-2.93-1.63,0-2.93,.93-3.66,1.9v10.81h-4.22v-22.19h4.22v8.22c1.03-1.23,3.03-2.5,5.65-2.5,3.53,0,5.22,1.93,5.22,5.06v11.41h-4.22Z"/><path class="cls-2" d="M139.19,279.43v-1.66c-1.1,1.3-2.99,2.06-5.09,2.06-2.56,0-5.59-1.73-5.59-5.32s3.03-5.12,5.59-5.12c2.13,0,4.02,.67,5.09,1.96v-2.23c0-1.63-1.4-2.69-3.53-2.69-1.73,0-3.33,.63-4.69,1.9l-1.6-2.83c1.96-1.73,4.49-2.53,7.02-2.53,3.66,0,7.02,1.46,7.02,6.09v10.38h-4.22Zm0-5.85c-.7-.93-2.03-1.4-3.39-1.4-1.66,0-3.03,.9-3.03,2.43s1.36,2.36,3.03,2.36c1.36,0,2.69-.47,3.39-1.4v-2Z"/><path class="cls-2" d="M148.44,275.43v-8.38h-2.66v-3.69h2.66v-4.39h4.26v4.39h3.26v3.69h-3.26v7.25c0,1,.53,1.76,1.46,1.76,.63,0,1.23-.23,1.46-.47l.9,3.19c-.63,.57-1.76,1.03-3.53,1.03-2.96,0-4.56-1.53-4.56-4.39Z"/><path class="cls-2" d="M166.93,258.47c0-1.4,1.17-2.53,2.53-2.53s2.53,1.13,2.53,2.53-1.13,2.53-2.53,2.53-2.53-1.13-2.53-2.53Zm.43,20.96v-16.07h4.22v16.07h-4.22Z"/><path class="cls-2" d="M176.21,274.37c1.16,1.1,3.56,2.2,5.56,2.2,1.83,0,2.69-.63,2.69-1.63,0-1.13-1.4-1.53-3.23-1.9-2.76-.53-6.32-1.2-6.32-5.02,0-2.69,2.36-5.06,6.59-5.06,2.73,0,4.89,.93,6.45,2.2l-1.66,2.89c-.96-1.03-2.79-1.86-4.76-1.86-1.53,0-2.53,.57-2.53,1.5,0,1,1.26,1.36,3.06,1.73,2.76,.53,6.45,1.26,6.45,5.26,0,2.96-2.49,5.16-6.95,5.16-2.79,0-5.49-.93-7.18-2.5l1.83-2.96Z"/><path class="cls-2" d="M200.98,275.43v-8.38h-2.66v-3.69h2.66v-4.39h4.26v4.39h3.26v3.69h-3.26v7.25c0,1,.53,1.76,1.46,1.76,.63,0,1.23-.23,1.46-.47l.9,3.19c-.63,.57-1.76,1.03-3.53,1.03-2.96,0-4.56-1.53-4.56-4.39Z"/><path class="cls-2" d="M222.27,279.43v-9.78c0-2.23-1.17-2.93-2.99-2.93-1.63,0-2.93,.93-3.66,1.9v10.81h-4.22v-22.19h4.22v8.22c1.03-1.23,3.03-2.5,5.66-2.5,3.53,0,5.22,1.93,5.22,5.06v11.41h-4.22Z"/><path class="cls-2" d="M237.97,262.96c4.79,0,8.05,3.59,8.05,8.85v.93h-11.94c.27,2.03,1.9,3.72,4.62,3.72,1.5,0,3.26-.6,4.29-1.6l1.86,2.73c-1.63,1.5-4.12,2.23-6.62,2.23-4.89,0-8.58-3.29-8.58-8.45,0-4.66,3.43-8.42,8.32-8.42Zm-3.96,6.92h7.92c-.1-1.53-1.16-3.56-3.96-3.56-2.63,0-3.76,1.96-3.96,3.56Z"/><path class="cls-2" d="M268.43,256.87c4.59,0,7.48,2.23,9.18,4.86l-3.93,2.13c-1.03-1.56-2.93-2.79-5.26-2.79-4.02,0-6.95,3.09-6.95,7.28s2.93,7.29,6.95,7.29c2.03,0,3.83-.83,4.79-1.7v-2.7h-5.92v-4.06h10.58v8.48c-2.26,2.53-5.42,4.19-9.45,4.19-6.49,0-11.81-4.52-11.81-11.51s5.32-11.48,11.81-11.48Z"/><path class="cls-2" d="M281.53,279.43v-22.19h4.22v22.19h-4.22Z"/><path class="cls-2" d="M288.92,271.38c0-4.56,3.19-8.42,8.48-8.42s8.52,3.86,8.52,8.42-3.19,8.45-8.52,8.45-8.48-3.86-8.48-8.45Zm12.61,0c0-2.5-1.5-4.66-4.12-4.66s-4.09,2.16-4.09,4.66,1.46,4.69,4.09,4.69,4.12-2.16,4.12-4.69Z"/><path class="cls-2" d="M309.04,279.43v-22.19h4.22v8.18c1.26-1.63,3.06-2.46,4.96-2.46,4.09,0,7.12,3.19,7.12,8.45s-3.06,8.42-7.12,8.42c-1.93,0-3.69-.87-4.96-2.43v2.03h-4.22Zm4.22-5.16c.7,1.03,2.26,1.8,3.63,1.8,2.46,0,4.09-1.86,4.09-4.66s-1.63-4.69-4.09-4.69c-1.36,0-2.93,.8-3.63,1.86v5.69Z"/><path class="cls-2" d="M338.17,279.43v-1.66c-1.1,1.3-2.99,2.06-5.09,2.06-2.56,0-5.59-1.73-5.59-5.32s3.03-5.12,5.59-5.12c2.13,0,4.03,.67,5.09,1.96v-2.23c0-1.63-1.4-2.69-3.53-2.69-1.73,0-3.33,.63-4.69,1.9l-1.6-2.83c1.96-1.73,4.49-2.53,7.02-2.53,3.66,0,7.02,1.46,7.02,6.09v10.38h-4.22Zm0-5.85c-.7-.93-2.03-1.4-3.39-1.4-1.66,0-3.03,.9-3.03,2.43s1.36,2.36,3.03,2.36c1.36,0,2.69-.47,3.39-1.4v-2Z"/><path class="cls-2" d="M346.59,279.43v-22.19h4.22v22.19h-4.22Z"/><path class="cls-2" d="M380.58,279.43l-3.89-15.23-3.86,15.23h-5.02l-6.35-22.19h5.29l3.89,16.03,4.22-16.03h3.69l4.19,16.03,3.86-16.03h5.32l-6.32,22.19h-5.02Z"/><path class="cls-2" d="M400,262.96c4.79,0,8.05,3.59,8.05,8.85v.93h-11.94c.27,2.03,1.9,3.72,4.62,3.72,1.5,0,3.26-.6,4.29-1.6l1.86,2.73c-1.63,1.5-4.12,2.23-6.62,2.23-4.89,0-8.58-3.29-8.58-8.45,0-4.66,3.43-8.42,8.32-8.42Zm-3.96,6.92h7.92c-.1-1.53-1.16-3.56-3.96-3.56-2.63,0-3.76,1.96-3.96,3.56Z"/><path class="cls-2" d="M411.94,275.43v-8.38h-2.66v-3.69h2.66v-4.39h4.26v4.39h3.26v3.69h-3.26v7.25c0,1,.53,1.76,1.46,1.76,.63,0,1.23-.23,1.46-.47l.9,3.19c-.63,.57-1.76,1.03-3.53,1.03-2.96,0-4.56-1.53-4.56-4.39Z"/><path class="cls-2" d="M422.35,279.43v-22.19h4.22v22.19h-4.22Z"/><path class="cls-2" d="M440.41,279.43v-1.66c-1.1,1.3-2.99,2.06-5.09,2.06-2.56,0-5.59-1.73-5.59-5.32s3.03-5.12,5.59-5.12c2.13,0,4.03,.67,5.09,1.96v-2.23c0-1.63-1.4-2.69-3.53-2.69-1.73,0-3.33,.63-4.69,1.9l-1.6-2.83c1.96-1.73,4.49-2.53,7.02-2.53,3.66,0,7.02,1.46,7.02,6.09v10.38h-4.22Zm0-5.85c-.7-.93-2.03-1.4-3.39-1.4-1.66,0-3.03,.9-3.03,2.43s1.36,2.36,3.03,2.36c1.36,0,2.7-.47,3.39-1.4v-2Z"/><path class="cls-2" d="M459.67,279.43v-9.71c0-2.23-1.16-2.99-2.96-2.99-1.66,0-2.96,.93-3.66,1.9v10.81h-4.22v-16.07h4.22v2.1c1.03-1.23,2.99-2.5,5.62-2.5,3.53,0,5.22,2,5.22,5.12v11.34h-4.22Z"/><path class="cls-2" d="M479.12,279.43v-2.03c-1.26,1.56-3.03,2.43-4.96,2.43-4.06,0-7.12-3.06-7.12-8.42s3.03-8.45,7.12-8.45c1.9,0,3.69,.83,4.96,2.46v-8.18h4.26v22.19h-4.26Zm0-10.88c-.73-1.06-2.23-1.83-3.66-1.83-2.4,0-4.06,1.9-4.06,4.69s1.66,4.66,4.06,4.66c1.43,0,2.93-.77,3.66-1.83v-5.69Z"/><path class="cls-2" d="M488,274.37c1.16,1.1,3.56,2.2,5.55,2.2,1.83,0,2.69-.63,2.69-1.63,0-1.13-1.4-1.53-3.23-1.9-2.76-.53-6.32-1.2-6.32-5.02,0-2.69,2.36-5.06,6.59-5.06,2.73,0,4.89,.93,6.45,2.2l-1.66,2.89c-.96-1.03-2.79-1.86-4.76-1.86-1.53,0-2.53,.57-2.53,1.5,0,1,1.26,1.36,3.06,1.73,2.76,.53,6.45,1.26,6.45,5.26,0,2.96-2.5,5.16-6.95,5.16-2.79,0-5.49-.93-7.19-2.5l1.83-2.96Z"/><path class="cls-2" d="M531.34,279.43v-15.97l-6.25,15.97h-2.06l-6.25-15.97v15.97h-4.72v-22.19h6.62l5.39,13.84,5.39-13.84h6.65v22.19h-4.76Z"/><path class="cls-2" d="M550.03,279.43v-1.66c-1.1,1.3-2.99,2.06-5.09,2.06-2.56,0-5.59-1.73-5.59-5.32s3.03-5.12,5.59-5.12c2.13,0,4.02,.67,5.09,1.96v-2.23c0-1.63-1.4-2.69-3.53-2.69-1.73,0-3.33,.63-4.69,1.9l-1.6-2.83c1.96-1.73,4.49-2.53,7.02-2.53,3.66,0,7.02,1.46,7.02,6.09v10.38h-4.22Zm0-5.85c-.7-.93-2.03-1.4-3.39-1.4-1.66,0-3.03,.9-3.03,2.43s1.36,2.36,3.03,2.36c1.36,0,2.69-.47,3.39-1.4v-2Z"/><path class="cls-2" d="M562.67,285.55h-4.22v-22.19h4.22v2.03c1.23-1.56,2.99-2.43,4.96-2.43,4.12,0,7.12,3.06,7.12,8.42s-2.99,8.45-7.12,8.45c-1.9,0-3.66-.8-4.96-2.46v8.18Zm3.63-18.83c-1.36,0-2.93,.8-3.63,1.83v5.69c.7,1,2.26,1.83,3.63,1.83,2.43,0,4.06-1.9,4.06-4.69s-1.63-4.66-4.06-4.66Z"/><path class="cls-2" d="M581.79,265.36c1.03-.73,1.93-1.36,1.93-2.36s-.76-1.9-2.59-1.9c-1.66,0-3.06,.83-4.09,2.06l-2.69-3.03c1.76-2.06,4.42-3.23,7.28-3.23,4.29,0,6.92,2.16,6.92,5.26,0,2.76-1.8,4.09-3.36,5.19-1.16,.86-2.2,1.6-2.2,2.83,0,.53,.27,1.1,.6,1.4l-3.63,1.06c-.7-.76-1.1-1.76-1.1-2.93,0-2.29,1.6-3.39,2.93-4.36Zm-.23,9.05c1.46,0,2.69,1.23,2.69,2.7s-1.23,2.69-2.69,2.69-2.69-1.23-2.69-2.69,1.23-2.7,2.69-2.7Z"/></g><g><path class="cls-2" d="M718.71,161.7c-.13-11.04,9.11-20.15,20.2-20.13,10.9,.01,20.18,9.13,20.1,20.27-.07,11.06-9.19,20.07-20.23,20.05-11.02-.02-20.27-9.23-20.07-20.19Zm20.16-18.41c-10.21,.17-18.41,8.01-18.44,18.41-.03,10.24,8.08,18.42,18.39,18.43,10.28,0,18.41-8.01,18.43-18.37,.02-10.27-8.04-18.26-18.38-18.47Z"/><path class="cls-2" d="M738.76,177.9c-7.77,.15-15.16-5.77-16.07-14.39-1.01-9.62,5.96-16.74,13.78-17.83,3.67-.51,7.13,.11,10.36,1.91,.27,.15,.54,.33,.76,.54,.26,.26,.29,.61,.1,.94-.21,.35-.52,.52-.92,.42-.22-.05-.43-.18-.64-.29-8.98-5.1-20.12,.22-21.61,10.41-1.21,8.28,4.54,15.38,12.33,16.46,7.89,1.09,15.03-4.22,16.33-12.07,.56-3.34-.1-6.49-1.73-9.45-.13-.23-.27-.45-.35-.7-.12-.39,.03-.72,.37-.95,.35-.23,.71-.2,1.01,.09,.2,.2,.36,.45,.5,.7,2.13,3.86,2.68,7.93,1.57,12.19-1.69,6.5-7.29,11.29-13.98,12-.59,.06-1.2,0-1.8,0Z"/><path class="cls-2" d="M733.62,161.63c0-1.49-.01-2.97,0-4.46,.02-2.17,2.03-3.36,3.87-2.23,2.45,1.5,4.86,3.05,7.24,4.65,1.52,1.02,1.56,3.06,.04,4.09-2.46,1.66-4.97,3.27-7.52,4.8-1.6,.96-3.6-.28-3.63-2.15-.03-1.56,0-3.13,0-4.7Zm2.24-5.32c-.36,.04-.45,.45-.45,.93,0,2.92,0,5.84,0,8.77,0,.98,.53,1.26,1.37,.72,2.25-1.43,4.49-2.86,6.73-4.3,.8-.51,.82-1.05,.03-1.56-2.26-1.46-4.53-2.89-6.8-4.34-.2-.13-.4-.26-.88-.22Z"/><path class="cls-2" d="M749.7,151.73c-.53-.09-.85-.37-.83-.88,.02-.55,.39-.85,.93-.82,.48,.02,.77,.35,.76,.82-.01,.54-.35,.83-.86,.89Z"/></g><g><path class="cls-2" d="M718.71,269.7c-.13-11.04,9.11-20.15,20.2-20.13,10.9,.01,20.18,9.13,20.1,20.27-.07,11.06-9.19,20.07-20.23,20.05-11.02-.02-20.27-9.23-20.07-20.19Zm20.16-18.41c-10.21,.17-18.41,8.01-18.44,18.41-.03,10.24,8.08,18.42,18.39,18.43,10.28,0,18.41-8.01,18.43-18.37,.02-10.27-8.04-18.26-18.38-18.47Z"/><path class="cls-2" d="M738.76,285.9c-7.77,.15-15.16-5.77-16.07-14.39-1.01-9.62,5.96-16.74,13.78-17.83,3.67-.51,7.13,.11,10.36,1.91,.27,.15,.54,.33,.76,.54,.26,.26,.29,.61,.1,.94-.21,.35-.52,.52-.92,.42-.22-.05-.43-.18-.64-.29-8.98-5.1-20.12,.22-21.61,10.41-1.21,8.28,4.54,15.38,12.33,16.46,7.89,1.09,15.03-4.22,16.33-12.07,.56-3.34-.1-6.49-1.73-9.45-.13-.23-.27-.45-.35-.7-.12-.39,.03-.72,.37-.95,.35-.23,.71-.2,1.01,.09,.2,.2,.36,.45,.5,.7,2.13,3.86,2.68,7.93,1.57,12.19-1.69,6.5-7.29,11.29-13.98,12-.59,.06-1.2,0-1.8,0Z"/><path class="cls-2" d="M733.62,269.63c0-1.49-.01-2.97,0-4.46,.02-2.17,2.03-3.36,3.87-2.23,2.45,1.5,4.86,3.05,7.24,4.65,1.52,1.02,1.56,3.06,.04,4.09-2.46,1.66-4.97,3.27-7.52,4.8-1.6,.96-3.6-.28-3.63-2.15-.03-1.56,0-3.13,0-4.7Zm2.24-5.32c-.36,.04-.45,.45-.45,.93,0,2.92,0,5.84,0,8.77,0,.98,.53,1.26,1.37,.72,2.25-1.43,4.49-2.86,6.73-4.3,.8-.51,.82-1.05,.03-1.56-2.26-1.46-4.53-2.89-6.8-4.34-.2-.13-.4-.26-.88-.22Z"/><path class="cls-2" d="M749.7,259.73c-.53-.09-.85-.37-.83-.88,.02-.55,.39-.85,.93-.82,.48,.02,.77,.35,.76,.82-.01,.54-.35,.83-.86,.89Z"/></g></g></svg>