<?xml version="1.0" encoding="UTF-8"?><svg xmlns="http://www.w3.org/2000/svg" xmlns:xlink="http://www.w3.org/1999/xlink" viewBox="0 0 1161.37 737.28"><defs><style>.cls-1{fill:url(#linear-gradient);}.cls-2{fill:#e7e7f5;}.cls-3{fill:#fff;}.cls-4{fill:#d8d8d8;}.cls-5{fill:#1294d3;}.cls-6{fill:#0a81c4;}.cls-7{fill:#1b5f99;}.cls-8{fill:#9b9ba1;}.cls-9{fill:#5d5d62;}.cls-10{fill:#81cbed;}.cls-11{mix-blend-mode:multiply;}.cls-12{fill:url(#linear-gradient-2);}.cls-13{isolation:isolate;}.cls-14{fill:none;stroke:#1294d3;stroke-miterlimit:10;stroke-width:4.95px;}</style><linearGradient id="linear-gradient" x1="-758.98" y1="23.64" x2="-825.49" y2="90.15" gradientTransform="translate(-707.34 -.64) rotate(-179.99) scale(1 -1)" gradientUnits="userSpaceOnUse"><stop offset="0" stop-color="#fff"/><stop offset="1" stop-color="#dcdddf"/></linearGradient><linearGradient id="linear-gradient-2" x1="-831.51" y1="79.57" x2="-752.96" y2="34.22" xlink:href="#linear-gradient"/></defs><g class="cls-13"><g id="Capa_2"><g id="Capa_1-2"><rect class="cls-4" y="4.69" width="1161.37" height="732.6" rx="70.67" ry="70.67"/><g><path class="cls-9" d="M161.46,66.92l-3.28-12.82-3.25,12.82h-4.23l-5.35-18.68h4.45l3.28,13.5,3.56-13.5h3.11l3.53,13.5,3.25-13.5h4.48l-5.32,18.68h-4.23Z"/><path class="cls-9" d="M181.96,66.92v-8.23c0-1.88-.98-2.46-2.52-2.46-1.37,0-2.46,.78-3.08,1.6v9.1h-3.56v-18.68h3.56v6.92c.87-1.04,2.55-2.1,4.76-2.1,2.97,0,4.4,1.62,4.4,4.26v9.6h-3.56Z"/><path class="cls-9" d="M197.16,66.92v-1.4c-.92,1.09-2.52,1.74-4.28,1.74-2.16,0-4.7-1.46-4.7-4.48s2.55-4.31,4.7-4.31c1.79,0,3.39,.56,4.28,1.65v-1.88c0-1.37-1.18-2.27-2.97-2.27-1.46,0-2.8,.53-3.95,1.6l-1.34-2.38c1.65-1.46,3.78-2.13,5.91-2.13,3.08,0,5.91,1.23,5.91,5.12v8.74h-3.56Zm0-4.93c-.59-.78-1.71-1.18-2.86-1.18-1.4,0-2.55,.76-2.55,2.04s1.15,1.99,2.55,1.99c1.15,0,2.27-.39,2.86-1.18v-1.68Z"/><path class="cls-9" d="M204.94,63.56v-7.06h-2.24v-3.11h2.24v-3.7h3.58v3.7h2.74v3.11h-2.74v6.1c0,.84,.45,1.48,1.23,1.48,.53,0,1.04-.2,1.23-.39l.76,2.69c-.53,.48-1.48,.87-2.97,.87-2.49,0-3.84-1.29-3.84-3.7Z"/><path class="cls-9" d="M220.51,49.28c0-1.18,.98-2.13,2.13-2.13s2.13,.95,2.13,2.13-.95,2.13-2.13,2.13-2.13-.95-2.13-2.13Zm.36,17.64v-13.52h3.56v13.52h-3.56Z"/><path class="cls-9" d="M228.32,62.67c.98,.92,3,1.85,4.68,1.85,1.54,0,2.27-.53,2.27-1.37,0-.95-1.18-1.29-2.72-1.6-2.32-.45-5.32-1.01-5.32-4.23,0-2.27,1.99-4.26,5.54-4.26,2.3,0,4.12,.78,5.43,1.85l-1.4,2.44c-.81-.87-2.35-1.57-4-1.57-1.29,0-2.13,.48-2.13,1.26,0,.84,1.06,1.15,2.58,1.46,2.32,.45,5.43,1.06,5.43,4.42,0,2.49-2.1,4.34-5.85,4.34-2.35,0-4.62-.78-6.05-2.1l1.54-2.49Z"/><path class="cls-9" d="M254.78,53.06c2.77,0,4.45,1.21,5.35,2.46l-2.32,2.16c-.64-.92-1.62-1.46-2.86-1.46-2.16,0-3.67,1.57-3.67,3.92s1.51,3.95,3.67,3.95c1.23,0,2.21-.56,2.86-1.46l2.32,2.16c-.9,1.26-2.58,2.46-5.35,2.46-4.17,0-7.17-2.94-7.17-7.11s3-7.08,7.17-7.08Z"/><path class="cls-9" d="M261.59,60.15c0-3.84,2.69-7.08,7.14-7.08s7.17,3.25,7.17,7.08-2.69,7.11-7.17,7.11-7.14-3.25-7.14-7.11Zm10.61,0c0-2.1-1.26-3.92-3.47-3.92s-3.44,1.82-3.44,3.92,1.23,3.95,3.44,3.95,3.47-1.82,3.47-3.95Z"/><path class="cls-9" d="M286.65,66.92v-1.4c-.92,1.09-2.52,1.74-4.28,1.74-2.16,0-4.7-1.46-4.7-4.48s2.55-4.31,4.7-4.31c1.79,0,3.39,.56,4.28,1.65v-1.88c0-1.37-1.18-2.27-2.97-2.27-1.46,0-2.8,.53-3.95,1.6l-1.34-2.38c1.65-1.46,3.78-2.13,5.91-2.13,3.08,0,5.91,1.23,5.91,5.12v8.74h-3.56Zm0-4.93c-.59-.78-1.71-1.18-2.86-1.18-1.4,0-2.55,.76-2.55,2.04s1.15,1.99,2.55,1.99c1.15,0,2.27-.39,2.86-1.18v-1.68Z"/><path class="cls-9" d="M294.09,62.67c.98,.92,3,1.85,4.68,1.85,1.54,0,2.27-.53,2.27-1.37,0-.95-1.18-1.29-2.72-1.6-2.32-.45-5.32-1.01-5.32-4.23,0-2.27,1.99-4.26,5.54-4.26,2.3,0,4.12,.78,5.43,1.85l-1.4,2.44c-.81-.87-2.35-1.57-4-1.57-1.29,0-2.13,.48-2.13,1.26,0,.84,1.06,1.15,2.58,1.46,2.32,.45,5.43,1.06,5.43,4.42,0,2.49-2.1,4.34-5.85,4.34-2.35,0-4.62-.78-6.05-2.1l1.54-2.49Z"/><path class="cls-9" d="M307.79,63.56v-7.06h-2.24v-3.11h2.24v-3.7h3.58v3.7h2.74v3.11h-2.74v6.1c0,.84,.45,1.48,1.23,1.48,.53,0,1.04-.2,1.23-.39l.76,2.69c-.53,.48-1.48,.87-2.97,.87-2.49,0-3.84-1.29-3.84-3.7Z"/><path class="cls-9" d="M324.67,66.92v-1.4c-.92,1.09-2.52,1.74-4.28,1.74-2.16,0-4.7-1.46-4.7-4.48s2.55-4.31,4.7-4.31c1.79,0,3.39,.56,4.28,1.65v-1.88c0-1.37-1.18-2.27-2.97-2.27-1.46,0-2.8,.53-3.95,1.6l-1.34-2.38c1.65-1.46,3.78-2.13,5.91-2.13,3.08,0,5.91,1.23,5.91,5.12v8.74h-3.56Zm0-4.93c-.59-.78-1.71-1.18-2.86-1.18-1.4,0-2.55,.76-2.55,2.04s1.15,1.99,2.55,1.99c1.15,0,2.27-.39,2.86-1.18v-1.68Z"/><path class="cls-9" d="M331.75,66.92v-18.68h3.56v18.68h-3.56Z"/><path class="cls-9" d="M346.09,66.92v-18.68h9.83c3.56,0,5.38,2.27,5.38,4.76,0,2.35-1.46,3.92-3.22,4.28,1.99,.31,3.58,2.24,3.58,4.59,0,2.8-1.88,5.04-5.43,5.04h-10.14Zm3.98-11.17h4.98c1.34,0,2.18-.87,2.18-2.07s-.84-2.04-2.18-2.04h-4.98v4.12Zm0,7.78h5.12c1.51,0,2.41-.87,2.41-2.21,0-1.18-.84-2.18-2.41-2.18h-5.12v4.4Z"/><path class="cls-9" d="M364.57,66.92v-18.68h3.56v18.68h-3.56Z"/><path class="cls-9" d="M380.78,66.92v-1.71c-.92,1.04-2.55,2.04-4.76,2.04-2.97,0-4.37-1.62-4.37-4.26v-9.6h3.56v8.21c0,1.88,.98,2.49,2.49,2.49,1.37,0,2.46-.76,3.08-1.54v-9.16h3.56v13.52h-3.56Z"/><path class="cls-9" d="M394,53.06c4.03,0,6.78,3.02,6.78,7.45v.78h-10.05c.22,1.71,1.6,3.14,3.89,3.14,1.26,0,2.74-.5,3.61-1.34l1.57,2.3c-1.37,1.26-3.47,1.88-5.57,1.88-4.12,0-7.22-2.77-7.22-7.11,0-3.92,2.88-7.08,7-7.08Zm-3.33,5.82h6.66c-.08-1.29-.98-3-3.33-3-2.21,0-3.16,1.65-3.33,3Z"/><path class="cls-9" d="M409.71,57.6c0-5.74,4.34-9.66,9.8-9.66,4.26,0,6.64,2.24,7.95,4.56l-3.42,1.68c-.78-1.51-2.46-2.72-4.54-2.72-3.25,0-5.71,2.6-5.71,6.13s2.46,6.13,5.71,6.13c2.07,0,3.75-1.18,4.54-2.72l3.42,1.65c-1.34,2.32-3.7,4.59-7.95,4.59-5.46,0-9.8-3.92-9.8-9.66Z"/><path class="cls-9" d="M437.87,66.92v-1.4c-.92,1.09-2.52,1.74-4.28,1.74-2.16,0-4.7-1.46-4.7-4.48s2.55-4.31,4.7-4.31c1.79,0,3.39,.56,4.28,1.65v-1.88c0-1.37-1.18-2.27-2.97-2.27-1.46,0-2.8,.53-3.95,1.6l-1.34-2.38c1.65-1.46,3.78-2.13,5.91-2.13,3.08,0,5.91,1.23,5.91,5.12v8.74h-3.56Zm0-4.93c-.59-.78-1.71-1.18-2.86-1.18-1.4,0-2.55,.76-2.55,2.04s1.15,1.99,2.55,1.99c1.15,0,2.27-.39,2.86-1.18v-1.68Z"/><path class="cls-9" d="M444.96,66.92v-13.52h3.56v1.85c.95-1.2,2.63-2.16,4.31-2.16v3.47c-.25-.06-.59-.08-.98-.08-1.18,0-2.74,.64-3.33,1.51v8.93h-3.56Z"/><path class="cls-9" d="M455.04,66.92v-18.68h3.56v6.89c1.06-1.37,2.58-2.07,4.17-2.07,3.44,0,5.99,2.69,5.99,7.11s-2.58,7.08-5.99,7.08c-1.62,0-3.11-.73-4.17-2.04v1.71h-3.56Zm3.56-4.34c.59,.87,1.9,1.51,3.05,1.51,2.07,0,3.44-1.57,3.44-3.92s-1.37-3.95-3.44-3.95c-1.15,0-2.46,.67-3.05,1.57v4.79Z"/><path class="cls-9" d="M470.58,60.15c0-3.84,2.69-7.08,7.14-7.08s7.17,3.25,7.17,7.08-2.69,7.11-7.17,7.11-7.14-3.25-7.14-7.11Zm10.61,0c0-2.1-1.26-3.92-3.47-3.92s-3.44,1.82-3.44,3.92,1.23,3.95,3.44,3.95,3.47-1.82,3.47-3.95Z"/><path class="cls-9" d="M496.64,66.92v-8.18c0-1.88-.98-2.52-2.49-2.52-1.4,0-2.49,.78-3.08,1.6v9.1h-3.56v-13.52h3.56v1.76c.87-1.04,2.52-2.1,4.73-2.1,2.97,0,4.4,1.68,4.4,4.31v9.55h-3.56Z"/><path class="cls-9" d="M507.28,55.08c.87-.62,1.62-1.15,1.62-1.99s-.64-1.6-2.18-1.6c-1.4,0-2.58,.7-3.44,1.74l-2.27-2.55c1.48-1.74,3.72-2.72,6.13-2.72,3.61,0,5.82,1.82,5.82,4.42,0,2.32-1.51,3.44-2.83,4.37-.98,.73-1.85,1.34-1.85,2.38,0,.45,.22,.92,.5,1.18l-3.05,.9c-.59-.64-.92-1.48-.92-2.46,0-1.93,1.34-2.86,2.46-3.67Zm-.2,7.62c1.23,0,2.27,1.04,2.27,2.27s-1.04,2.27-2.27,2.27-2.27-1.04-2.27-2.27,1.04-2.27,2.27-2.27Z"/></g><g><g class="cls-11"><path class="cls-8" d="M129.55,73.52c0,5.96-4.83,10.79-10.79,10.79H51.01c-5.96,0-10.79-4.83-10.79-10.8V38.76c0-5.96,4.84-10.79,10.8-10.79H118.77c5.96,0,10.79,4.83,10.79,10.79v34.75Z"/></g><g><path class="cls-1" d="M40.22,73.71c0,5.96,4.83,10.79,10.79,10.79H118.77c5.95,0,10.78-4.83,10.78-10.79V38.96c0-5.96-4.83-10.79-10.78-10.79H51.01c-5.96,0-10.79,4.82-10.79,10.78v34.75Z"/><path class="cls-12" d="M43.04,71.97c0,5.36,4.35,9.71,9.71,9.71H117.02c5.36,0,9.7-4.35,9.7-9.7v-31.26c0-5.37-4.34-9.71-9.7-9.71H52.76c-5.36,0-9.71,4.34-9.71,9.7v31.26Z"/></g><g><path class="cls-6" d="M75.51,66.1v-13.41s-3.36,3.39-3.36,3.39l-2.94-3.09,6.99-6.9h4.47s0,20.01,0,20.01h-5.16Z"/><path class="cls-6" d="M86.49,60.82c1.53,0,2.82,1.29,2.82,2.82,0,1.53-1.29,2.82-2.82,2.82s-2.82-1.29-2.82-2.82c0-1.53,1.29-2.82,2.82-2.82Z"/><path class="cls-6" d="M93.72,66.1v-13.41s-3.36,3.39-3.36,3.39l-2.94-3.09,6.99-6.9h4.47s0,20.01,0,20.01h-5.16Z"/></g></g><g><g id="Button"><rect class="cls-7" x="482.64" y="682.31" width="194.89" height="54.87" rx="8.78" ry="8.78"/></g><circle class="cls-10" cx="580.08" cy="684.08" r="20.19"/><g><path class="cls-3" d="M579.7,696.21c-.78,0-1.51-.34-2.02-.94l-3.67-4.34h-1c-2.42,0-4.4-1.97-4.4-4.4v-3.17c0-2.42,1.97-4.4,4.4-4.4h1l3.67-4.34c.5-.59,1.24-.94,2.02-.94,1.45,0,2.64,1.18,2.64,2.64v17.24c0,1.45-1.18,2.64-2.64,2.64Zm-6.68-15.48c-1.45,0-2.64,1.18-2.64,2.64v3.17c0,1.45,1.18,2.64,2.64,2.64h1.41c.26,0,.5,.11,.67,.31l3.93,4.65c.17,.2,.41,.31,.67,.31,.48,0,.88-.39,.88-.88v-17.24c0-.48-.39-.88-.88-.88-.26,0-.5,.11-.67,.31l-3.93,4.65c-.17,.2-.41,.31-.67,.31h-1.41Z"/><path class="cls-3" d="M584.98,691.11c-.49,0-.88-.39-.88-.88s.39-.88,.88-.88c2.42,0,4.4-1.97,4.4-4.4s-1.97-4.4-4.4-4.4c-.49,0-.88-.39-.88-.88s.39-.88,.88-.88c3.39,0,6.16,2.76,6.16,6.16s-2.76,6.16-6.16,6.16Z"/><path class="cls-3" d="M584.98,687.59c-.49,0-.88-.39-.88-.88s.39-.88,.88-.88,.88-.39,.88-.88-.39-.88-.88-.88-.88-.39-.88-.88,.39-.88,.88-.88c1.45,0,2.64,1.18,2.64,2.64s-1.18,2.64-2.64,2.64Z"/><path class="cls-3" d="M574.43,687.42c-.49,0-.88-.39-.88-.88v-3.17c0-.49,.39-.88,.88-.88s.88,.39,.88,.88v3.17c0,.49-.39,.88-.88,.88Z"/></g><g><path class="cls-3" d="M532.03,723.64v-8.12h4.07c1.83,0,2.83,1.23,2.83,2.7s-1,2.67-2.83,2.67h-1.97v2.75h-2.09Zm3.79-6.36h-1.69v1.83h1.69c.56,0,.97-.35,.97-.9s-.41-.92-.97-.92Z"/><path class="cls-3" d="M539.77,723.64v-8.12h2.09v6.29h3.26v1.83h-5.36Z"/><path class="cls-3" d="M552.04,723.64l-.41-1.23h-3.37l-.41,1.23h-2.28l3.06-8.12h2.63l3.07,8.12h-2.28Zm-2.11-6.3l-1.13,3.3h2.28l-1.14-3.3Z"/><path class="cls-3" d="M556.29,723.64v-3.28l-3.08-4.85h2.36l1.77,3,1.74-3h2.37l-3.07,4.85v3.28h-2.09Z"/><path class="cls-3" d="M566.99,723.64v-6.3h-2.28v-1.83h6.64v1.83h-2.26v6.3h-2.09Z"/><path class="cls-3" d="M577.63,723.64v-3.26h-3.37v3.26h-2.09v-8.12h2.09v3.03h3.37v-3.03h2.09v8.12h-2.09Z"/><path class="cls-3" d="M581.25,723.64v-8.12h5.96v1.77h-3.86v1.35h3.77v1.78h-3.77v1.46h3.86v1.77h-5.96Z"/><path class="cls-3" d="M597.16,723.64l-.41-1.23h-3.37l-.41,1.23h-2.28l3.06-8.12h2.63l3.07,8.12h-2.28Zm-2.11-6.3l-1.13,3.3h2.28l-1.14-3.3Z"/><path class="cls-3" d="M599.75,715.52h2.13v4.76c0,.96,.51,1.66,1.64,1.66s1.63-.69,1.63-1.66v-4.76h2.13v4.82c0,2.02-1.16,3.45-3.76,3.45s-3.77-1.44-3.77-3.43v-4.83Z"/><path class="cls-3" d="M608.78,723.64v-8.12h3.41c2.56,0,4.4,1.53,4.4,4.05s-1.84,4.07-4.38,4.07h-3.42Zm2.09-1.83h1.31c1.42,0,2.25-1.03,2.25-2.24s-.75-2.23-2.24-2.23h-1.33v4.47Z"/><path class="cls-3" d="M617.68,723.64v-8.12h2.09v8.12h-2.09Z"/><path class="cls-3" d="M625.2,715.38c2.48,0,4.33,1.73,4.33,4.2s-1.85,4.2-4.33,4.2-4.35-1.73-4.35-4.2,1.86-4.2,4.35-4.2Zm0,1.85c-1.35,0-2.22,1.02-2.22,2.35s.86,2.35,2.22,2.35,2.2-1.04,2.2-2.35-.86-2.35-2.2-2.35Z"/></g><g><path class="cls-2" d="M504.03,707.42h.02c.14,0,.25-.08,.25-.17l.35-16.78c0-.1-.11-.18-.24-.18h-.02c-.14,0-.25,.08-.25,.17l-.35,16.78c0,.1,.11,.18,.24,.18Z"/><path class="cls-2" d="M503.02,702.62h.05c.08,0,.15-.05,.16-.11l.19-9.36c0-.06-.07-.11-.15-.11h-.05c-.08,0-.15,.05-.16,.11l-.19,9.36c0,.06,.07,.11,.15,.11Z"/><path class="cls-2" d="M501.95,701.11h.17c.08,0,.15-.04,.15-.1l.13-6.37c0-.06-.06-.1-.14-.1h-.17c-.08,0-.15,.04-.15,.1l-.13,6.37c0,.06,.06,.1,.14,.1Z"/><path class="cls-2" d="M500.96,699.72h.16c.05,0,.1-.03,.1-.07l.08-3.69s-.04-.07-.1-.07h-.16c-.05,0-.1,.03-.1,.07l-.08,3.69s.04,.07,.1,.07Z"/><path class="cls-2" d="M500.2,699.21h.15s.08-.02,.08-.05l.06-2.72s-.03-.05-.07-.05h-.15s-.08,.02-.08,.05l-.06,2.72s.03,.05,.07,.05Z"/><path class="cls-2" d="M505.03,702.68h-.05c-.08,0-.15-.05-.15-.11l.19-9.36c0-.06,.07-.11,.16-.11h.05c.08,0,.15,.05,.15,.11l-.19,9.36c0,.06-.07,.11-.16,.11Z"/><path class="cls-2" d="M506.16,701.2h-.17c-.08,0-.14-.05-.14-.11l.13-6.37c0-.06,.07-.1,.15-.1h.17c.08,0,.14,.05,.14,.11l-.13,6.37c0,.06-.07,.1-.15,.1Z"/><path class="cls-2" d="M507.21,699.84h-.16c-.05,0-.1-.03-.1-.07l.08-3.69s.04-.07,.1-.07h.16c.05,0,.1,.03,.1,.07l-.08,3.69s-.04,.07-.1,.07Z"/><path class="cls-2" d="M507.99,699.35h-.15s-.08-.03-.07-.06l.06-2.72s.04-.05,.08-.05h.15s.08,.03,.07,.06l-.06,2.72s-.04,.05-.08,.05Z"/><path class="cls-2" d="M526.93,704.42h.08c.11,0,.19-.06,.19-.13l.23-11.32c0-.07-.08-.14-.19-.14h-.08c-.11,0-.19,.06-.19,.13l-.23,11.32c0,.07,.08,.14,.19,.14Z"/><path class="cls-2" d="M526.03,701.17h.08c.07,0,.12-.04,.12-.08l.13-6.31s-.05-.08-.12-.09h-.08c-.07,0-.12,.04-.12,.08l-.13,6.31s.05,.08,.12,.09Z"/><path class="cls-2" d="M525.08,700.14h.18c.06,0,.11-.03,.11-.08l.09-4.29s-.05-.08-.11-.08h-.18c-.06,0-.11,.03-.11,.08l-.09,4.29s.05,.08,.11,.08Z"/><path class="cls-2" d="M524.2,699.2h.17s.08-.02,.08-.05l.05-2.49s-.03-.05-.07-.05h-.17s-.08,.02-.08,.05l-.05,2.49s.03,.05,.07,.05Z"/><path class="cls-2" d="M523.53,698.85h.15s.06-.02,.06-.04l.04-1.83s-.03-.04-.06-.04h-.15s-.06,.02-.06,.04l-.04,1.83s.03,.04,.06,.04Z"/><path class="cls-2" d="M527.85,701.21h-.08c-.07,0-.12-.04-.12-.09l.13-6.31s.06-.08,.12-.08h.08c.07,0,.12,.04,.12,.09l-.13,6.31s-.06,.08-.12,.08Z"/><path class="cls-2" d="M528.83,700.21h-.18c-.06,0-.11-.04-.11-.08l.09-4.29s.05-.08,.11-.08h.18c.06,0,.11,.04,.11,.08l-.09,4.29s-.05,.08-.11,.08Z"/><path class="cls-2" d="M529.76,699.29h-.17s-.07-.03-.07-.06l.05-2.49s.03-.05,.08-.05h.17s.07,.03,.07,.06l-.05,2.49s-.03,.05-.08,.05Z"/><path class="cls-2" d="M530.44,698.96h-.15s-.06-.02-.06-.04l.04-1.83s.03-.04,.06-.04h.15s.06,.02,.06,.04l-.04,1.83s-.03,.04-.06,.04Z"/><path class="cls-2" d="M496.15,703.91h.08c.11,0,.19-.06,.19-.13l.23-11.32c0-.07-.08-.14-.19-.14h-.08c-.11,0-.19,.06-.19,.13l-.23,11.32c0,.07,.08,.14,.19,.14Z"/><path class="cls-2" d="M495.24,700.66h.08c.07,0,.12-.04,.12-.08l.13-6.31s-.05-.08-.12-.09h-.08c-.07,0-.12,.04-.12,.08l-.13,6.31s.05,.08,.12,.09Z"/><path class="cls-2" d="M494.3,699.63h.18c.06,0,.11-.03,.11-.08l.09-4.29s-.05-.08-.11-.08h-.18c-.06,0-.11,.03-.11,.08l-.09,4.29s.05,.08,.11,.08Z"/><path class="cls-2" d="M493.41,698.69h.17s.08-.02,.08-.05l.05-2.49s-.03-.05-.07-.05h-.17s-.08,.02-.08,.05l-.05,2.49s.03,.05,.07,.05Z"/><path class="cls-2" d="M492.74,698.34h.15s.06-.02,.06-.04l.04-1.83s-.03-.04-.06-.04h-.15s-.06,.02-.06,.04l-.04,1.83s.03,.04,.06,.04Z"/><path class="cls-2" d="M497.06,700.71h-.08c-.07,0-.12-.04-.12-.09l.13-6.31s.06-.08,.12-.08h.08c.07,0,.12,.04,.12,.09l-.13,6.31s-.06,.08-.12,.08Z"/><path class="cls-2" d="M498.05,699.7h-.18c-.06,0-.11-.04-.11-.08l.09-4.29s.05-.08,.11-.08h.18c.06,0,.11,.04,.11,.08l-.09,4.29s-.05,.08-.11,.08Z"/><path class="cls-2" d="M498.97,698.79h-.17s-.07-.03-.07-.06l.05-2.49s.03-.05,.08-.05h.17s.07,.03,.07,.06l-.05,2.49s-.03,.05-.08,.05Z"/><path class="cls-2" d="M499.66,698.46h-.15s-.06-.02-.06-.04l.04-1.83s.03-.04,.06-.04h.15s.06,.02,.06,.04l-.04,1.83s-.03,.04-.06,.04Z"/><path class="cls-2" d="M512.78,707.53h.02c.14,0,.25-.08,.25-.17l.35-16.78c0-.1-.11-.18-.24-.18h-.02c-.14,0-.25,.08-.25,.17l-.35,16.78c0,.1,.11,.18,.24,.18Z"/><path class="cls-2" d="M511.77,702.74h.05c.08,0,.15-.05,.16-.11l.19-9.36c0-.06-.07-.11-.15-.11h-.05c-.08,0-.15,.05-.16,.11l-.19,9.36c0,.06,.07,.11,.15,.11Z"/><path class="cls-2" d="M510.71,701.22h.17c.08,0,.15-.04,.15-.1l.13-6.37c0-.06-.06-.1-.14-.1h-.17c-.08,0-.15,.04-.15,.1l-.13,6.37c0,.06,.06,.1,.14,.1Z"/><path class="cls-2" d="M509.71,699.83h.16c.05,0,.1-.03,.1-.07l.08-3.69s-.04-.07-.1-.07h-.16c-.05,0-.1,.03-.1,.07l-.08,3.69s.04,.07,.1,.07Z"/><path class="cls-2" d="M508.95,699.32h.15s.08-.02,.08-.05l.06-2.72s-.03-.05-.07-.06h-.15s-.08,.02-.08,.05l-.06,2.72s.03,.05,.07,.05Z"/><path class="cls-2" d="M513.79,702.8h-.05c-.08,0-.15-.05-.15-.11l.19-9.36c0-.06,.07-.11,.16-.11h.05c.08,0,.15,.05,.15,.11l-.19,9.36c0,.06-.07,.11-.16,.11Z"/><path class="cls-2" d="M514.91,701.31h-.17c-.08,0-.14-.05-.14-.11l.13-6.37c0-.06,.07-.1,.15-.1h.17c.08,0,.14,.05,.14,.11l-.13,6.37c0,.06-.07,.1-.15,.1Z"/><path class="cls-2" d="M515.97,699.95h-.16c-.05,0-.1-.03-.1-.07l.08-3.69s.04-.07,.1-.07h.16c.05,0,.1,.03,.1,.07l-.08,3.69s-.04,.07-.1,.07Z"/><path class="cls-2" d="M516.75,699.46h-.15s-.08-.03-.07-.06l.06-2.72s.04-.05,.08-.05h.15s.08,.03,.07,.06l-.06,2.72s-.04,.05-.08,.05Z"/><path class="cls-2" d="M519.66,707.62h.02c.14,0,.25-.08,.25-.17l.35-16.78c0-.1-.11-.18-.24-.18h-.02c-.14,0-.25,.08-.25,.17l-.35,16.78c0,.1,.11,.18,.24,.18Z"/><path class="cls-2" d="M518.65,702.82h.05c.08,0,.15-.05,.16-.11l.19-9.36c0-.06-.07-.11-.15-.11h-.05c-.08,0-.15,.05-.16,.11l-.19,9.36c0,.06,.07,.11,.15,.11Z"/><path class="cls-2" d="M517.59,701.31h.17c.08,0,.15-.04,.15-.1l.13-6.37c0-.06-.06-.1-.14-.1h-.17c-.08,0-.15,.04-.15,.1l-.13,6.37c0,.06,.06,.1,.14,.1Z"/><path class="cls-2" d="M520.67,702.89h-.05c-.08,0-.15-.05-.15-.11l.19-9.36c0-.06,.07-.11,.16-.11h.05c.08,0,.15,.05,.15,.11l-.19,9.36c0,.06-.07,.11-.16,.11Z"/><path class="cls-2" d="M521.79,701.4h-.17c-.08,0-.14-.05-.14-.11l.13-6.37c0-.06,.07-.1,.15-.1h.17c.08,0,.14,.05,.14,.11l-.13,6.37c0,.06-.07,.1-.15,.1Z"/><path class="cls-2" d="M522.84,700.04h-.16c-.05,0-.1-.03-.1-.07l.08-3.69s.04-.07,.1-.07h.16c.05,0,.1,.03,.1,.07l-.08,3.69s-.04,.07-.1,.07Z"/></g><g><path class="cls-2" d="M641.04,706.93h.02c.14,0,.25-.08,.25-.17l.35-16.78c0-.1-.11-.18-.24-.18h-.02c-.14,0-.25,.08-.25,.17l-.35,16.78c0,.1,.11,.18,.24,.18Z"/><path class="cls-2" d="M640.02,702.13h.05c.08,0,.15-.05,.16-.11l.19-9.36c0-.06-.07-.11-.15-.11h-.05c-.08,0-.15,.05-.16,.11l-.19,9.36c0,.06,.07,.11,.15,.11Z"/><path class="cls-2" d="M638.96,700.62h.17c.08,0,.15-.04,.15-.1l.13-6.37c0-.06-.06-.1-.14-.1h-.17c-.08,0-.15,.04-.15,.1l-.13,6.37c0,.06,.06,.1,.14,.1Z"/><path class="cls-2" d="M637.96,699.23h.16c.05,0,.1-.03,.1-.07l.08-3.69s-.04-.07-.1-.07h-.16c-.05,0-.1,.03-.1,.07l-.08,3.69s.04,.07,.1,.07Z"/><path class="cls-2" d="M637.2,698.72h.15s.08-.02,.08-.05l.06-2.72s-.03-.05-.07-.05h-.15s-.08,.02-.08,.05l-.06,2.72s.03,.05,.07,.05Z"/><path class="cls-2" d="M642.04,702.2h-.05c-.08,0-.15-.05-.15-.11l.19-9.36c0-.06,.07-.11,.16-.11h.05c.08,0,.15,.05,.15,.11l-.19,9.36c0,.06-.07,.11-.16,.11Z"/><path class="cls-2" d="M643.16,700.71h-.17c-.08,0-.14-.05-.14-.11l.13-6.37c0-.06,.07-.1,.15-.1h.17c.08,0,.14,.05,.14,.11l-.13,6.37c0,.06-.07,.1-.15,.1Z"/><path class="cls-2" d="M644.22,699.35h-.16c-.05,0-.1-.03-.1-.07l.08-3.69s.04-.07,.1-.07h.16c.05,0,.1,.03,.1,.07l-.08,3.69s-.04,.07-.1,.07Z"/><path class="cls-2" d="M645,698.86h-.15s-.08-.03-.07-.06l.06-2.72s.04-.05,.08-.05h.15s.08,.03,.07,.06l-.06,2.72s-.04,.05-.08,.05Z"/><path class="cls-2" d="M663.94,703.93h.08c.11,0,.19-.06,.19-.13l.23-11.32c0-.07-.08-.14-.19-.14h-.08c-.11,0-.19,.06-.19,.13l-.23,11.32c0,.07,.08,.14,.19,.14Z"/><path class="cls-2" d="M663.03,700.68h.08c.07,0,.12-.04,.12-.08l.13-6.31s-.05-.08-.12-.09h-.08c-.07,0-.12,.04-.12,.08l-.13,6.31s.05,.08,.12,.09Z"/><path class="cls-2" d="M662.09,699.65h.18c.06,0,.11-.03,.11-.08l.09-4.29s-.05-.08-.11-.08h-.18c-.06,0-.11,.03-.11,.08l-.09,4.29s.05,.08,.11,.08Z"/><path class="cls-2" d="M661.2,698.71h.17s.08-.02,.08-.05l.05-2.49s-.03-.05-.07-.05h-.17s-.08,.02-.08,.05l-.05,2.49s.03,.05,.07,.05Z"/><path class="cls-2" d="M660.53,698.36h.15s.06-.02,.06-.04l.04-1.83s-.03-.04-.06-.04h-.15s-.06,.02-.06,.04l-.04,1.83s.03,.04,.06,.04Z"/><path class="cls-2" d="M664.85,700.73h-.08c-.07,0-.12-.04-.12-.09l.13-6.31s.06-.08,.12-.08h.08c.07,0,.12,.04,.12,.09l-.13,6.31s-.06,.08-.12,.08Z"/><path class="cls-2" d="M665.84,699.72h-.18c-.06,0-.11-.04-.11-.08l.09-4.29s.05-.08,.11-.08h.18c.06,0,.11,.04,.11,.08l-.09,4.29s-.05,.08-.11,.08Z"/><path class="cls-2" d="M666.76,698.8h-.17s-.07-.03-.07-.06l.05-2.49s.03-.05,.08-.05h.17s.07,.03,.07,.06l-.05,2.49s-.03,.05-.08,.05Z"/><path class="cls-2" d="M667.45,698.47h-.15s-.06-.02-.06-.04l.04-1.83s.03-.04,.06-.04h.15s.06,.02,.06,.04l-.04,1.83s-.03,.04-.06,.04Z"/><path class="cls-2" d="M633.16,703.42h.08c.11,0,.19-.06,.19-.13l.23-11.32c0-.07-.08-.14-.19-.14h-.08c-.11,0-.19,.06-.19,.13l-.23,11.32c0,.07,.08,.14,.19,.14Z"/><path class="cls-2" d="M632.25,700.17h.08c.07,0,.12-.04,.12-.08l.13-6.31s-.05-.08-.12-.09h-.08c-.07,0-.12,.04-.12,.08l-.13,6.31s.05,.08,.12,.09Z"/><path class="cls-2" d="M631.3,699.14h.18c.06,0,.11-.03,.11-.08l.09-4.29s-.05-.08-.11-.08h-.18c-.06,0-.11,.03-.11,.08l-.09,4.29s.05,.08,.11,.08Z"/><path class="cls-2" d="M630.42,698.2h.17s.08-.02,.08-.05l.05-2.49s-.03-.05-.07-.05h-.17s-.08,.02-.08,.05l-.05,2.49s.03,.05,.07,.05Z"/><path class="cls-2" d="M629.75,697.85h.15s.06-.02,.06-.04l.04-1.83s-.03-.04-.06-.04h-.15s-.06,.02-.06,.04l-.04,1.83s.03,.04,.06,.04Z"/><path class="cls-2" d="M634.07,700.22h-.08c-.07,0-.12-.04-.12-.09l.13-6.31s.06-.08,.12-.08h.08c.07,0,.12,.04,.12,.09l-.13,6.31s-.06,.08-.12,.08Z"/><path class="cls-2" d="M635.06,699.21h-.18c-.06,0-.11-.04-.11-.08l.09-4.29s.05-.08,.11-.08h.18c.06,0,.11,.04,.11,.08l-.09,4.29s-.05,.08-.11,.08Z"/><path class="cls-2" d="M635.98,698.3h-.17s-.07-.03-.07-.06l.05-2.49s.03-.05,.08-.05h.17s.07,.03,.07,.06l-.05,2.49s-.03,.05-.08,.05Z"/><path class="cls-2" d="M636.66,697.97h-.15s-.06-.02-.06-.04l.04-1.83s.03-.04,.06-.04h.15s.06,.02,.06,.04l-.04,1.83s-.03,.04-.06,.04Z"/><path class="cls-2" d="M649.79,707.04h.02c.14,0,.25-.08,.25-.17l.35-16.78c0-.1-.11-.18-.24-.18h-.02c-.14,0-.25,.08-.25,.17l-.35,16.78c0,.1,.11,.18,.24,.18Z"/><path class="cls-2" d="M648.78,702.25h.05c.08,0,.15-.05,.16-.11l.19-9.36c0-.06-.07-.11-.15-.11h-.05c-.08,0-.15,.05-.16,.11l-.19,9.36c0,.06,.07,.11,.15,.11Z"/><path class="cls-2" d="M647.72,700.73h.17c.08,0,.15-.04,.15-.1l.13-6.37c0-.06-.06-.1-.14-.1h-.17c-.08,0-.15,.04-.15,.1l-.13,6.37c0,.06,.06,.1,.14,.1Z"/><path class="cls-2" d="M646.72,699.34h.16c.05,0,.1-.03,.1-.07l.08-3.69s-.04-.07-.1-.07h-.16c-.05,0-.1,.03-.1,.07l-.08,3.69s.04,.07,.1,.07Z"/><path class="cls-2" d="M645.96,698.83h.15s.08-.02,.08-.05l.06-2.72s-.03-.05-.07-.06h-.15s-.08,.02-.08,.05l-.06,2.72s.03,.05,.07,.05Z"/><path class="cls-2" d="M650.8,702.31h-.05c-.08,0-.15-.05-.15-.11l.19-9.36c0-.06,.07-.11,.16-.11h.05c.08,0,.15,.05,.15,.11l-.19,9.36c0,.06-.07,.11-.16,.11Z"/><path class="cls-2" d="M651.92,700.82h-.17c-.08,0-.14-.05-.14-.11l.13-6.37c0-.06,.07-.1,.15-.1h.17c.08,0,.14,.05,.14,.11l-.13,6.37c0,.06-.07,.1-.15,.1Z"/><path class="cls-2" d="M652.97,699.46h-.16c-.05,0-.1-.03-.1-.07l.08-3.69s.04-.07,.1-.07h.16c.05,0,.1,.03,.1,.07l-.08,3.69s-.04,.07-.1,.07Z"/><path class="cls-2" d="M653.75,698.97h-.15s-.08-.03-.07-.06l.06-2.72s.04-.05,.08-.05h.15s.08,.03,.07,.06l-.06,2.72s-.04,.05-.08,.05Z"/><path class="cls-2" d="M656.67,707.13h.02c.14,0,.25-.08,.25-.17l.35-16.78c0-.1-.11-.18-.24-.18h-.02c-.14,0-.25,.08-.25,.17l-.35,16.78c0,.1,.11,.18,.24,.18Z"/><path class="cls-2" d="M655.65,702.33h.05c.08,0,.15-.05,.16-.11l.19-9.36c0-.06-.07-.11-.15-.11h-.05c-.08,0-.15,.05-.16,.11l-.19,9.36c0,.06,.07,.11,.15,.11Z"/><path class="cls-2" d="M654.59,700.82h.17c.08,0,.15-.04,.15-.1l.13-6.37c0-.06-.06-.1-.14-.1h-.17c-.08,0-.15,.04-.15,.1l-.13,6.37c0,.06,.06,.1,.14,.1Z"/><path class="cls-2" d="M657.67,702.4h-.05c-.08,0-.15-.05-.15-.11l.19-9.36c0-.06,.07-.11,.16-.11h.05c.08,0,.15,.05,.15,.11l-.19,9.36c0,.06-.07,.11-.16,.11Z"/><path class="cls-2" d="M658.79,700.91h-.17c-.08,0-.14-.05-.14-.11l.13-6.37c0-.06,.07-.1,.15-.1h.17c.08,0,.14,.05,.14,.11l-.13,6.37c0,.06-.07,.1-.15,.1Z"/><path class="cls-2" d="M659.85,699.55h-.16c-.05,0-.1-.03-.1-.07l.08-3.69s.04-.07,.1-.07h.16c.05,0,.1,.03,.1,.07l-.08,3.69s-.04,.07-.1,.07Z"/></g></g><rect class="cls-5" x="1035.6" width="52" height="9"/><g><path class="cls-14" d="M1042.55,100.51c-12.65-6.84-21.52-19.94-22.27-35.36-1.13-23.44,16.95-43.37,40.4-44.5,23.44-1.13,43.37,16.95,44.5,40.4,.8,16.66-8.09,31.54-21.72,39.16"/><g><path class="cls-5" d="M1050.24,76.58c.5,0,.91-.41,.91-.91v-3.08h3.08c.5,0,.91-.41,.91-.91s-.41-.91-.91-.91h-3.99c-.5,0-.91,.41-.91,.91v3.99c0,.5,.41,.91,.91,.91Z"/><path class="cls-5" d="M1068.97,72.59h3.08v3.08c0,.5,.41,.91,.91,.91s.91-.41,.91-.91v-3.99c0-.5-.41-.91-.91-.91h-3.99c-.5,0-.91,.41-.91,.91s.41,.91,.91,.91h0Z"/><path class="cls-5" d="M1055.14,94.41c0-.5-.41-.91-.91-.91h-3.08v-3.08c0-.5-.41-.91-.91-.91s-.91,.41-.91,.91v3.99c0,.5,.41,.91,.91,.91h3.99c.5,0,.91-.41,.91-.91Z"/><path class="cls-5" d="M1072.97,89.51c-.5,0-.91,.41-.91,.91v3.08h-3.08c-.5,0-.91,.41-.91,.91s.41,.91,.91,.91h3.99c.5,0,.91-.41,.91-.91v-3.99c0-.5-.41-.91-.91-.91h0Z"/><path class="cls-5" d="M1075.41,98.58c-.63,0-1.21,.19-1.7,.52-.56-.93-1.59-1.56-2.75-1.56-.77,0-1.48,.27-2.04,.73-.59-.78-1.52-1.28-2.57-1.28-.5,0-.97,.11-1.39,.32v-4.42c4.21-1.44,7.03-5.37,7.03-9.84,0-4.03-2.36-7.73-6.01-9.43-.46-.21-1-.02-1.21,.44-.21,.46-.02,1,.44,1.21,3.01,1.4,4.96,4.46,4.96,7.78s-2.06,6.55-5.21,7.89v-.27c0-.83-.3-1.59-.8-2.17,2.04-.97,3.46-3.05,3.46-5.45,0-3.32-2.7-6.03-6.03-6.03s-6.03,2.7-6.03,6.03c0,2.41,1.42,4.49,3.46,5.45-.5,.59-.8,1.34-.8,2.17v.27c-3.15-1.34-5.21-4.42-5.21-7.89s1.95-6.37,4.96-7.78c.46-.21,.65-.75,.44-1.21-.21-.46-.75-.65-1.21-.44-3.65,1.7-6.01,5.4-6.01,9.43,0,4.47,2.82,8.4,7.03,9.84v9.14l-1.26-2.38c-.42-.79-1.13-1.37-2-1.62-.86-.25-1.77-.14-2.55,.32h-.01c-1.34,.78-1.96,2.41-1.47,3.88l1.56,4.7c1.28,3.88,3.53,7.41,6.48,10.22,.18,.17,.4,.25,.63,.25,.24,0,.48-.09,.66-.28,.35-.36,.33-.94-.03-1.29-2.74-2.61-4.82-5.88-6.01-9.48l-1.56-4.7c-.22-.65,.06-1.38,.65-1.72h.01c.35-.21,.75-.26,1.13-.15,.38,.11,.7,.37,.89,.72l3.45,6.49c.24,.44,.79,.61,1.23,.38,.44-.24,.61-.79,.38-1.23l-.36-.68v-14.79c0-.85,.69-1.54,1.54-1.54s1.54,.69,1.54,1.54v14.51c0,.5,.41,.91,.91,.91s.91-.41,.91-.91v-4.98c0-.77,.62-1.39,1.39-1.39s1.39,.62,1.39,1.39v4.98c0,.5,.41,.91,.91,.91s.91-.41,.91-.91v-4.43c0-.77,.62-1.39,1.39-1.39s1.39,.62,1.39,1.39v4.43c0,.5,.41,.91,.91,.91s.91-.41,.91-.91v-3.54c0-.68,.55-1.24,1.24-1.24s1.24,.55,1.24,1.24v8.85c0,1.97-.61,3.86-1.76,5.47-.29,.41-.2,.98,.21,1.27,.16,.12,.35,.17,.53,.17,.28,0,.56-.13,.74-.38,1.37-1.92,2.1-4.17,2.1-6.53v-8.85c0-1.69-1.37-3.06-3.06-3.06h0Zm-18.01-15.53c0-2.32,1.89-4.2,4.2-4.2s4.2,1.89,4.2,4.2-1.89,4.2-4.2,4.2c-2.32,0-4.2-1.89-4.2-4.2h0Z"/><circle class="cls-5" cx="1061.6" cy="73.56" r=".91"/></g><g><path class="cls-5" d="M1032.97,61.62v-8.61h1.83v8.61h-1.83Z"/><path class="cls-5" d="M1040.67,61.62v-3.77c0-.87-.45-1.16-1.15-1.16-.65,0-1.15,.36-1.42,.74v4.2h-1.64v-6.24h1.64v.81c.4-.48,1.16-.97,2.18-.97,1.37,0,2.03,.77,2.03,1.99v4.4h-1.64Z"/><path class="cls-5" d="M1044.27,60.07v-3.25h-1.03v-1.43h1.03v-1.7h1.65v1.7h1.26v1.43h-1.26v2.81c0,.39,.21,.68,.57,.68,.25,0,.48-.09,.57-.18l.35,1.24c-.25,.22-.68,.4-1.37,.4-1.15,0-1.77-.59-1.77-1.7Z"/><path class="cls-5" d="M1051.13,55.23c1.86,0,3.12,1.39,3.12,3.43v.36h-4.63c.1,.79,.74,1.45,1.79,1.45,.58,0,1.27-.23,1.67-.62l.72,1.06c-.63,.58-1.6,.87-2.57,.87-1.9,0-3.33-1.28-3.33-3.28,0-1.81,1.33-3.27,3.23-3.27Zm-1.54,2.69h3.07c-.04-.59-.45-1.38-1.54-1.38-1.02,0-1.46,.76-1.54,1.38Z"/><path class="cls-5" d="M1055.45,61.62v-6.24h1.64v.85c.44-.55,1.21-.99,1.99-.99v1.6c-.12-.03-.27-.04-.45-.04-.54,0-1.26,.3-1.54,.7v4.12h-1.64Z"/><path class="cls-5" d="M1063.84,61.62v-.65c-.43,.5-1.16,.8-1.97,.8-.99,0-2.17-.67-2.17-2.07s1.17-1.99,2.17-1.99c.83,0,1.56,.26,1.97,.76v-.86c0-.63-.54-1.05-1.37-1.05-.67,0-1.29,.25-1.82,.74l-.62-1.1c.76-.67,1.74-.98,2.72-.98,1.42,0,2.72,.57,2.72,2.36v4.03h-1.64Zm0-2.27c-.27-.36-.79-.54-1.32-.54-.65,0-1.17,.35-1.17,.94s.53,.92,1.17,.92c.53,0,1.05-.18,1.32-.54v-.77Z"/><path class="cls-5" d="M1070.01,55.23c1.28,0,2.05,.55,2.46,1.14l-1.07,.99c-.3-.43-.75-.67-1.32-.67-.99,0-1.69,.72-1.69,1.81s.7,1.82,1.69,1.82c.57,0,1.02-.26,1.32-.67l1.07,.99c-.41,.58-1.19,1.14-2.46,1.14-1.92,0-3.3-1.36-3.3-3.28s1.38-3.27,3.3-3.27Z"/><path class="cls-5" d="M1073.87,60.07v-3.25h-1.03v-1.43h1.03v-1.7h1.65v1.7h1.27v1.43h-1.27v2.81c0,.39,.21,.68,.57,.68,.25,0,.48-.09,.57-.18l.35,1.24c-.25,.22-.68,.4-1.37,.4-1.15,0-1.77-.59-1.77-1.7Z"/><path class="cls-5" d="M1077.75,53.48c0-.54,.45-.98,.98-.98s.98,.44,.98,.98-.44,.98-.98,.98-.98-.44-.98-.98Zm.17,8.13v-6.24h1.64v6.24h-1.64Z"/><path class="cls-5" d="M1082.8,61.62l-2.5-6.24h1.76l1.63,4.34,1.63-4.34h1.77l-2.5,6.24h-1.77Z"/><path class="cls-5" d="M1090.64,55.23c1.86,0,3.12,1.39,3.12,3.43v.36h-4.63c.1,.79,.74,1.45,1.79,1.45,.58,0,1.26-.23,1.67-.62l.72,1.06c-.63,.58-1.6,.87-2.57,.87-1.9,0-3.33-1.28-3.33-3.28,0-1.81,1.33-3.27,3.23-3.27Zm-1.54,2.69h3.07c-.04-.59-.45-1.38-1.54-1.38-1.02,0-1.46,.76-1.54,1.38Z"/></g></g><g><path class="cls-9" d="M387.03,634.44c2.34,0,4.22,1.02,5.24,2.86l-1.1,.5c-.92-1.66-2.5-2.32-4.22-2.32-3.04,0-6.08,2.68-6.08,6.94,0,2.86,1.86,4.78,4.82,4.78,1.3,0,2.58-.48,3.76-1.52l.82,.68c-1.36,1.3-3.04,1.88-4.64,1.88-3.5,0-6-2.3-6-5.78,0-4.86,3.66-8.02,7.4-8.02Z"/><path class="cls-9" d="M392.27,648l2.94-13.34h1.04l-2.94,13.34h-1.04Z"/><path class="cls-9" d="M396.55,648l2.14-9.66h1.04l-2.14,9.66h-1.04Zm3.26-12.9c.42,0,.74,.32,.74,.7,0,.56-.5,.9-.9,.9s-.74-.32-.74-.7c0-.56,.5-.9,.9-.9Z"/><path class="cls-9" d="M406.57,638.1c1.66,0,2.8,.64,3.46,1.76l-.8,.6c-.56-.98-1.56-1.42-2.62-1.42-2.66,0-4.3,2.4-4.3,4.94,0,2.2,1.42,3.32,3.3,3.32,1.08,0,2-.5,2.62-1.24l.6,.72c-.84,.88-1.86,1.46-3.32,1.46-2.48,0-4.3-1.54-4.3-4.28,0-3.18,2.34-5.86,5.36-5.86Z"/><path class="cls-9" d="M417.53,648l-2.9-4.66-2.24,1.76-.64,2.9h-1.04l2.94-13.34h1.04l-2.02,9.12,6.84-5.44h1.46l-5.48,4.36,3.32,5.3h-1.28Z"/><path class="cls-9" d="M431.67,638.1c2.6,0,4.26,1.68,4.26,4.24,0,3.06-2.26,5.9-5.32,5.9-2.6,0-4.26-1.68-4.26-4.24,0-3.06,2.26-5.9,5.32-5.9Zm-.02,.94c-2.42,0-4.16,2.42-4.16,4.92,0,2.02,1.16,3.34,3.14,3.34,2.42,0,4.16-2.42,4.16-4.92,0-2.02-1.16-3.34-3.14-3.34Z"/><path class="cls-9" d="M443.93,648l1.44-6.56c.04-.18,.12-.46,.12-.7,0-1.2-.92-1.7-2.1-1.7-1.26,0-2.5,.82-3.34,1.68l-1.6,7.28h-1.04l2.14-9.66h1.04l-.32,1.46c.86-.84,2.12-1.7,3.48-1.7,1.64,0,2.82,.78,2.82,2.36,0,.18-.06,.6-.12,.82l-1.48,6.72h-1.04Z"/><path class="cls-9" d="M459.13,638.1c2.58,0,4.1,1.82,4.1,4.18,0,.42-.1,.98-.16,1.22h-8.16c-.02,.12-.04,.38-.04,.56,0,1.78,1.18,3.28,3.54,3.28,.98,0,2.08-.34,2.92-1.04l.4,.76c-.86,.66-2.1,1.18-3.36,1.18-2.9,0-4.6-1.74-4.6-4.26,0-3.22,2.36-5.88,5.36-5.88Zm3.08,4.58c.02-.1,.02-.32,.02-.44,0-1.88-1.14-3.24-3.22-3.24-1.94,0-3.66,1.7-4,3.68h7.2Z"/><path class="cls-9" d="M473.99,638.34h1.06l-2.14,9.66h-1.06l.34-1.46c-.8,1.02-1.94,1.7-3.32,1.7-2.22,0-3.78-1.46-3.78-3.96,0-3.26,2.02-6.18,5.08-6.18,1.58,0,2.82,.78,3.48,1.88l.34-1.64Zm-4.84,8.96c1.36,0,2.62-.86,3.28-1.86l1.02-4.64c-.48-.96-1.64-1.76-3.2-1.76-2.42,0-4.02,2.5-4.02,5.06,0,1.98,1.16,3.2,2.92,3.2Z"/><path class="cls-9" d="M481.89,638.1c1.66,0,2.8,.64,3.46,1.76l-.8,.6c-.56-.98-1.56-1.42-2.62-1.42-2.66,0-4.3,2.4-4.3,4.94,0,2.2,1.42,3.32,3.3,3.32,1.08,0,2-.5,2.62-1.24l.6,.72c-.84,.88-1.86,1.46-3.32,1.46-2.48,0-4.3-1.54-4.3-4.28,0-3.18,2.34-5.86,5.36-5.86Z"/><path class="cls-9" d="M492.55,648l1.44-6.56c.04-.18,.12-.54,.12-.7,0-1.2-.92-1.7-2.16-1.7s-2.44,.84-3.28,1.7l-1.6,7.26h-1.04l2.94-13.34h1.04l-1.12,5.14c.86-.84,2.12-1.7,3.48-1.7,1.64,0,2.82,.78,2.82,2.36,0,.16-.06,.6-.12,.82l-1.48,6.72h-1.04Z"/><path class="cls-9" d="M503.05,648h-1.04l2.94-13.34h1.04l-1.12,5.14c.78-1.02,1.94-1.7,3.32-1.7,2.2,0,3.76,1.48,3.76,3.98,0,3.22-2.02,6.16-5.06,6.16-1.6,0-2.82-.78-3.48-1.88l-.36,1.64Zm4.84-8.96c-1.36,0-2.6,.86-3.28,1.86l-1.02,4.64c.48,.96,1.64,1.76,3.2,1.76,2.44,0,4.02-2.5,4.02-5.04,0-1.98-1.16-3.22-2.92-3.22Z"/><path class="cls-9" d="M516.61,638.34l-1.44,6.54c-.04,.2-.12,.5-.12,.72,0,1.2,.92,1.7,2.14,1.7s2.46-.84,3.28-1.7l1.62-7.26h1.04l-2.14,9.66h-1.04l.32-1.46c-.86,.84-2.12,1.7-3.48,1.7-1.64,0-2.82-.78-2.82-2.36,0-.2,.06-.6,.12-.82l1.48-6.72h1.04Z"/><path class="cls-9" d="M524.85,646.1l1.52-6.84h-1.6l.2-.92h1.6l.58-2.64h1.06l-.58,2.64h1.96l-.22,.92h-1.96l-1.48,6.7c-.02,.1-.04,.24-.04,.42,0,.58,.34,.92,.98,.92,.38,0,.78-.18,1.02-.36l.2,.84c-.36,.28-.82,.46-1.38,.46-1.2,0-1.92-.5-1.92-1.62,0-.08,.02-.32,.06-.52Z"/><path class="cls-9" d="M530.35,646.1l1.52-6.84h-1.6l.2-.92h1.6l.58-2.64h1.06l-.58,2.64h1.96l-.22,.92h-1.96l-1.48,6.7c-.02,.1-.04,.24-.04,.42,0,.58,.34,.92,.98,.92,.38,0,.78-.18,1.02-.36l.2,.84c-.36,.28-.82,.46-1.38,.46-1.2,0-1.92-.5-1.92-1.62,0-.08,.02-.32,.06-.52Z"/><path class="cls-9" d="M540.91,638.1c2.6,0,4.26,1.68,4.26,4.24,0,3.06-2.26,5.9-5.32,5.9-2.6,0-4.26-1.68-4.26-4.24,0-3.06,2.26-5.9,5.32-5.9Zm-.02,.94c-2.42,0-4.16,2.42-4.16,4.92,0,2.02,1.16,3.34,3.14,3.34,2.42,0,4.16-2.42,4.16-4.92,0-2.02-1.16-3.34-3.14-3.34Z"/><path class="cls-9" d="M553.17,648l1.44-6.56c.04-.18,.12-.46,.12-.7,0-1.2-.92-1.7-2.1-1.7-1.26,0-2.5,.82-3.34,1.68l-1.6,7.28h-1.04l2.14-9.66h1.04l-.32,1.46c.86-.84,2.12-1.7,3.48-1.7,1.64,0,2.82,.78,2.82,2.36,0,.18-.06,.6-.12,.82l-1.48,6.72h-1.04Z"/><path class="cls-9" d="M563.25,646.1l1.52-6.84h-1.6l.2-.92h1.6l.58-2.64h1.06l-.58,2.64h1.96l-.22,.92h-1.96l-1.48,6.7c-.02,.1-.04,.24-.04,.42,0,.58,.34,.92,.98,.92,.38,0,.78-.18,1.02-.36l.2,.84c-.36,.28-.82,.46-1.38,.46-1.2,0-1.92-.5-1.92-1.62,0-.08,.02-.32,.06-.52Z"/><path class="cls-9" d="M573.81,638.1c2.6,0,4.26,1.68,4.26,4.24,0,3.06-2.26,5.9-5.32,5.9-2.6,0-4.26-1.68-4.26-4.24,0-3.06,2.26-5.9,5.32-5.9Zm-.02,.94c-2.42,0-4.16,2.42-4.16,4.92,0,2.02,1.16,3.34,3.14,3.34,2.42,0,4.16-2.42,4.16-4.92,0-2.02-1.16-3.34-3.14-3.34Z"/><path class="cls-9" d="M590.47,638.1c2.58,0,4.1,1.82,4.1,4.18,0,.42-.1,.98-.16,1.22h-8.16c-.02,.12-.04,.38-.04,.56,0,1.78,1.18,3.28,3.54,3.28,.98,0,2.08-.34,2.92-1.04l.4,.76c-.86,.66-2.1,1.18-3.36,1.18-2.9,0-4.6-1.74-4.6-4.26,0-3.22,2.36-5.88,5.36-5.88Zm3.08,4.58c.02-.1,.02-.32,.02-.44,0-1.88-1.14-3.24-3.22-3.24-1.94,0-3.66,1.7-4,3.68h7.2Z"/><path class="cls-9" d="M601.99,648l-2.26-4.26-4.14,4.26h-1.32l4.9-4.96-2.54-4.7h1.18l2.1,3.98,3.86-3.98h1.32l-4.66,4.7,2.74,4.96h-1.18Z"/><path class="cls-9" d="M605.35,651.68h-1.04l2.96-13.34h1.04l-.32,1.46c.78-1.02,1.94-1.7,3.32-1.7,2.2,0,3.76,1.48,3.76,3.98,0,3.22-2.02,6.16-5.06,6.16-1.6,0-2.82-.78-3.48-1.88l-1.18,5.32Zm5.66-12.64c-1.36,0-2.6,.86-3.28,1.86l-1.02,4.64c.48,.96,1.64,1.76,3.2,1.76,2.44,0,4.02-2.5,4.02-5.04,0-1.98-1.16-3.22-2.92-3.22Z"/><path class="cls-9" d="M625.73,638.34h1.06l-2.14,9.66h-1.06l.34-1.46c-.8,1.02-1.94,1.7-3.32,1.7-2.22,0-3.78-1.46-3.78-3.96,0-3.26,2.02-6.18,5.08-6.18,1.58,0,2.82,.78,3.48,1.88l.34-1.64Zm-4.84,8.96c1.36,0,2.62-.86,3.28-1.86l1.02-4.64c-.48-.96-1.64-1.76-3.2-1.76-2.42,0-4.02,2.5-4.02,5.06,0,1.98,1.16,3.2,2.92,3.2Z"/><path class="cls-9" d="M634.41,648l1.44-6.56c.04-.18,.12-.46,.12-.7,0-1.2-.92-1.7-2.1-1.7-1.26,0-2.5,.82-3.34,1.68l-1.6,7.28h-1.04l2.14-9.66h1.04l-.32,1.46c.86-.84,2.12-1.7,3.48-1.7,1.64,0,2.82,.78,2.82,2.36,0,.18-.06,.6-.12,.82l-1.48,6.72h-1.04Z"/><path class="cls-9" d="M648.77,634.66h1.06l-2.96,13.34h-1.06l.34-1.46c-.8,1.02-1.94,1.7-3.32,1.7-2.22,0-3.78-1.46-3.78-3.96,0-3.26,2.02-6.18,5.08-6.18,1.58,0,2.82,.78,3.48,1.88l1.16-5.32Zm-5.66,12.64c1.36,0,2.62-.86,3.28-1.86l1.02-4.64c-.48-.96-1.64-1.76-3.2-1.76-2.42,0-4.02,2.5-4.02,5.06,0,1.98,1.16,3.2,2.92,3.2Z"/><path class="cls-9" d="M655.91,646.1l1.52-6.84h-1.6l.2-.92h1.6l.58-2.64h1.06l-.58,2.64h1.96l-.22,.92h-1.96l-1.48,6.7c-.02,.1-.04,.24-.04,.42,0,.58,.34,.92,.98,.92,.38,0,.78-.18,1.02-.36l.2,.84c-.36,.28-.82,.46-1.38,.46-1.2,0-1.92-.5-1.92-1.62,0-.08,.02-.32,.06-.52Z"/><path class="cls-9" d="M667.31,648l1.44-6.56c.04-.18,.12-.54,.12-.7,0-1.2-.92-1.7-2.16-1.7s-2.44,.84-3.28,1.7l-1.6,7.26h-1.04l2.94-13.34h1.04l-1.12,5.14c.86-.84,2.12-1.7,3.48-1.7,1.64,0,2.82,.78,2.82,2.36,0,.16-.06,.6-.12,.82l-1.48,6.72h-1.04Z"/><path class="cls-9" d="M677.33,638.1c2.58,0,4.1,1.82,4.1,4.18,0,.42-.1,.98-.16,1.22h-8.16c-.02,.12-.04,.38-.04,.56,0,1.78,1.18,3.28,3.54,3.28,.98,0,2.08-.34,2.92-1.04l.4,.76c-.86,.66-2.1,1.18-3.36,1.18-2.9,0-4.6-1.74-4.6-4.26,0-3.22,2.36-5.88,5.36-5.88Zm3.08,4.58c.02-.1,.02-.32,.02-.44,0-1.88-1.14-3.24-3.22-3.24-1.94,0-3.66,1.7-4,3.68h7.2Z"/><path class="cls-9" d="M688.11,648l2.14-9.66h1.04l-2.14,9.66h-1.04Zm3.26-12.9c.42,0,.74,.32,.74,.7,0,.56-.5,.9-.9,.9s-.74-.32-.74-.7c0-.56,.5-.9,.9-.9Z"/><path class="cls-9" d="M698.91,648l1.44-6.56c.04-.18,.12-.46,.12-.7,0-1.2-.92-1.7-2.1-1.7-1.26,0-2.5,.82-3.34,1.68l-1.6,7.28h-1.04l2.14-9.66h1.04l-.32,1.46c.86-.84,2.12-1.7,3.48-1.7,1.64,0,2.82,.78,2.82,2.36,0,.18-.06,.6-.12,.82l-1.48,6.72h-1.04Z"/><path class="cls-9" d="M706.51,639.26l-1.94,8.74h-1.04l1.94-8.74h-1.6l.2-.92h1.6l.18-.88c.42-1.9,1.38-3,3-3,.58,0,1.04,.1,1.52,.42l-.44,.76c-.3-.22-.68-.28-1.06-.28-1.1,0-1.66,.76-1.96,2.1l-.2,.88h1.96l-.2,.92h-1.96Z"/><path class="cls-9" d="M714.17,638.1c2.6,0,4.26,1.68,4.26,4.24,0,3.06-2.26,5.9-5.32,5.9-2.6,0-4.26-1.68-4.26-4.24,0-3.06,2.26-5.9,5.32-5.9Zm-.02,.94c-2.42,0-4.16,2.42-4.16,4.92,0,2.02,1.16,3.34,3.14,3.34,2.42,0,4.16-2.42,4.16-4.92,0-2.02-1.16-3.34-3.14-3.34Z"/><path class="cls-9" d="M719.91,648l2.14-9.66h1.04l-.36,1.56c1-1.16,1.94-1.76,3.66-1.76l-.24,1.12c-.12-.02-.36-.06-.7-.06-1.18,0-2.32,.88-2.94,1.76l-1.56,7.04h-1.04Z"/><path class="cls-9" d="M737.75,648l1.48-6.72c.02-.08,.08-.34,.08-.58,0-1.06-.82-1.66-1.76-1.66-1.02,0-2.16,.8-2.9,1.68l-1.6,7.28h-1.06l1.5-6.72c.04-.3,.08-.4,.08-.7-.02-.86-.64-1.54-1.8-1.54-1,0-2.1,.8-2.88,1.68l-1.6,7.28h-1.04l2.14-9.66h1.04l-.32,1.46c.54-.62,1.68-1.7,3.08-1.7,1.62,0,2.42,1.16,2.42,1.86v.06c.76-.96,1.96-1.92,3.34-1.92,1.3,0,2.44,.82,2.44,2.36,0,.2-.06,.54-.12,.82l-1.48,6.72h-1.04Z"/><path class="cls-9" d="M751.29,638.34h1.06l-2.14,9.66h-1.06l.34-1.46c-.8,1.02-1.94,1.7-3.32,1.7-2.22,0-3.78-1.46-3.78-3.96,0-3.26,2.02-6.18,5.08-6.18,1.58,0,2.82,.78,3.48,1.88l.34-1.64Zm-4.84,8.96c1.36,0,2.62-.86,3.28-1.86l1.02-4.64c-.48-.96-1.64-1.76-3.2-1.76-2.42,0-4.02,2.5-4.02,5.06,0,1.98,1.16,3.2,2.92,3.2Z"/><path class="cls-9" d="M754.07,646.1l1.52-6.84h-1.6l.2-.92h1.6l.58-2.64h1.06l-.58,2.64h1.96l-.22,.92h-1.96l-1.48,6.7c-.02,.1-.04,.24-.04,.42,0,.58,.34,.92,.98,.92,.38,0,.78-.18,1.02-.36l.2,.84c-.36,.28-.82,.46-1.38,.46-1.2,0-1.92-.5-1.92-1.62,0-.08,.02-.32,.06-.52Z"/><path class="cls-9" d="M758.95,648l2.14-9.66h1.04l-2.14,9.66h-1.04Zm3.26-12.9c.42,0,.74,.32,.74,.7,0,.56-.5,.9-.9,.9s-.74-.32-.74-.7c0-.56,.5-.9,.9-.9Z"/><path class="cls-9" d="M768.91,638.1c2.6,0,4.26,1.68,4.26,4.24,0,3.06-2.26,5.9-5.32,5.9-2.6,0-4.26-1.68-4.26-4.24,0-3.06,2.26-5.9,5.32-5.9Zm-.02,.94c-2.42,0-4.16,2.42-4.16,4.92,0,2.02,1.16,3.34,3.14,3.34,2.42,0,4.16-2.42,4.16-4.92,0-2.02-1.16-3.34-3.14-3.34Z"/><path class="cls-9" d="M781.17,648l1.44-6.56c.04-.18,.12-.46,.12-.7,0-1.2-.92-1.7-2.1-1.7-1.26,0-2.5,.82-3.34,1.68l-1.6,7.28h-1.04l2.14-9.66h1.04l-.32,1.46c.86-.84,2.12-1.7,3.48-1.7,1.64,0,2.82,.78,2.82,2.36,0,.18-.06,.6-.12,.82l-1.48,6.72h-1.04Z"/></g></g></g></g></svg>