<?xml version="1.0" encoding="UTF-8"?><svg id="Capa_2" xmlns="http://www.w3.org/2000/svg" viewBox="0 0 277 103.31"><defs><style>.cls-1{fill:#fff;}.cls-2{fill:#1b5f99;}.cls-3{fill:#5d5d62;}.cls-4{fill:#81cbed;}.cls-5{fill:#82bbdc;}</style></defs><g id="Capa_1-2"><rect class="cls-4" x="96.48" y="79.31" width="160" height="24" rx="6.11" ry="6.11"/><g><path class="cls-1" d="M106.06,98.11v-1.1c-.73,.86-1.98,1.37-3.37,1.37-1.69,0-3.7-1.14-3.7-3.52s2-3.39,3.7-3.39c1.41,0,2.66,.44,3.37,1.3v-1.47c0-1.08-.92-1.78-2.33-1.78-1.14,0-2.2,.42-3.1,1.25l-1.06-1.87c1.3-1.14,2.97-1.67,4.64-1.67,2.42,0,4.64,.97,4.64,4.03v6.87h-2.79Zm0-3.87c-.46-.62-1.34-.92-2.25-.92-1.1,0-2,.59-2,1.61s.9,1.56,2,1.56c.9,0,1.78-.31,2.25-.92v-1.32Z"/><path class="cls-1" d="M118.8,98.11v-6.43c0-1.47-.77-1.98-1.96-1.98-1.1,0-1.96,.62-2.42,1.25v7.15h-2.79v-10.63h2.79v1.39c.68-.81,1.98-1.65,3.72-1.65,2.33,0,3.45,1.32,3.45,3.39v7.5h-2.79Z"/><path class="cls-1" d="M130.75,98.11v-1.1c-.73,.86-1.98,1.37-3.37,1.37-1.69,0-3.7-1.14-3.7-3.52s2-3.39,3.7-3.39c1.41,0,2.66,.44,3.37,1.3v-1.47c0-1.08-.92-1.78-2.33-1.78-1.14,0-2.2,.42-3.1,1.25l-1.06-1.87c1.3-1.14,2.97-1.67,4.64-1.67,2.42,0,4.64,.97,4.64,4.03v6.87h-2.79Zm0-3.87c-.46-.62-1.34-.92-2.25-.92-1.1,0-2,.59-2,1.61s.9,1.56,2,1.56c.9,0,1.78-.31,2.25-.92v-1.32Z"/><path class="cls-1" d="M141.13,87.22c3.17,0,5.32,2.38,5.32,5.85v.62h-7.9c.18,1.34,1.25,2.46,3.06,2.46,.99,0,2.16-.4,2.84-1.06l1.23,1.8c-1.08,.99-2.73,1.47-4.38,1.47-3.23,0-5.68-2.18-5.68-5.59,0-3.08,2.27-5.57,5.5-5.57Zm-2.62,4.58h5.24c-.07-1.01-.77-2.36-2.62-2.36-1.74,0-2.49,1.3-2.62,2.36Z"/><path class="cls-1" d="M148.48,98.11v-10.63h2.79v1.45c.75-.95,2.07-1.69,3.39-1.69v2.73c-.2-.04-.46-.06-.77-.06-.92,0-2.16,.51-2.62,1.19v7.02h-2.79Z"/><path class="cls-1" d="M155.72,92.79c0-3.01,2.11-5.57,5.61-5.57s5.63,2.55,5.63,5.57-2.11,5.59-5.63,5.59-5.61-2.55-5.61-5.59Zm8.34,0c0-1.65-.99-3.08-2.73-3.08s-2.71,1.43-2.71,3.08,.97,3.1,2.71,3.1,2.73-1.43,2.73-3.1Z"/><path class="cls-1" d="M169.03,98.11v-14.68h2.79v5.41c.84-1.08,2.02-1.63,3.28-1.63,2.71,0,4.71,2.11,4.71,5.59s-2.02,5.57-4.71,5.57c-1.28,0-2.44-.57-3.28-1.61v1.34h-2.79Zm2.79-3.41c.46,.68,1.5,1.19,2.4,1.19,1.63,0,2.71-1.23,2.71-3.08s-1.08-3.1-2.71-3.1c-.9,0-1.94,.53-2.4,1.23v3.76Z"/><path class="cls-1" d="M181.63,84.25c0-.92,.77-1.67,1.67-1.67s1.67,.75,1.67,1.67-.75,1.67-1.67,1.67-1.67-.75-1.67-1.67Zm.29,13.86v-10.63h2.79v10.63h-2.79Z"/><path class="cls-1" d="M192.43,87.22c2.18,0,3.5,.95,4.2,1.94l-1.83,1.69c-.51-.73-1.28-1.14-2.24-1.14-1.69,0-2.88,1.23-2.88,3.08s1.19,3.1,2.88,3.1c.97,0,1.74-.44,2.24-1.14l1.83,1.7c-.7,.99-2.02,1.94-4.2,1.94-3.28,0-5.63-2.31-5.63-5.59s2.35-5.57,5.63-5.57Z"/><path class="cls-1" d="M204.38,94.77c.77,.73,2.35,1.45,3.67,1.45,1.21,0,1.78-.42,1.78-1.08,0-.75-.92-1.01-2.13-1.25-1.83-.35-4.18-.79-4.18-3.32,0-1.78,1.56-3.35,4.36-3.35,1.8,0,3.23,.62,4.27,1.45l-1.1,1.91c-.64-.68-1.85-1.23-3.15-1.23-1.01,0-1.67,.38-1.67,.99,0,.66,.84,.9,2.02,1.14,1.83,.35,4.27,.84,4.27,3.48,0,1.96-1.65,3.41-4.6,3.41-1.85,0-3.63-.62-4.75-1.65l1.21-1.96Z"/><path class="cls-1" d="M215.14,95.47v-5.54h-1.76v-2.44h1.76v-2.9h2.82v2.9h2.16v2.44h-2.16v4.8c0,.66,.35,1.17,.97,1.17,.42,0,.81-.15,.97-.31l.59,2.11c-.42,.37-1.17,.68-2.33,.68-1.96,0-3.01-1.01-3.01-2.9Z"/><path class="cls-1" d="M228.4,98.11v-1.1c-.73,.86-1.98,1.37-3.37,1.37-1.69,0-3.7-1.14-3.7-3.52s2-3.39,3.7-3.39c1.41,0,2.66,.44,3.37,1.3v-1.47c0-1.08-.92-1.78-2.33-1.78-1.14,0-2.2,.42-3.1,1.25l-1.06-1.87c1.3-1.14,2.97-1.67,4.64-1.67,2.42,0,4.64,.97,4.64,4.03v6.87h-2.79Zm0-3.87c-.46-.62-1.34-.92-2.25-.92-1.1,0-2,.59-2,1.61s.9,1.56,2,1.56c.9,0,1.78-.31,2.25-.92v-1.32Z"/><path class="cls-1" d="M234.52,95.47v-5.54h-1.76v-2.44h1.76v-2.9h2.82v2.9h2.16v2.44h-2.16v4.8c0,.66,.35,1.17,.97,1.17,.42,0,.81-.15,.97-.31l.59,2.11c-.42,.37-1.17,.68-2.33,.68-1.96,0-3.01-1.01-3.01-2.9Z"/><path class="cls-1" d="M246.22,87.22c3.17,0,5.32,2.38,5.32,5.85v.62h-7.9c.18,1.34,1.25,2.46,3.06,2.46,.99,0,2.16-.4,2.84-1.06l1.23,1.8c-1.08,.99-2.73,1.47-4.38,1.47-3.23,0-5.68-2.18-5.68-5.59,0-3.08,2.27-5.57,5.5-5.57Zm-2.62,4.58h5.24c-.07-1.01-.77-2.36-2.62-2.36-1.74,0-2.49,1.3-2.62,2.36Z"/></g><g><rect class="cls-5" x="0" width="261.99" height="76.47" rx="9.63" ry="9.63" transform="translate(261.99 76.47) rotate(180)"/><polygon class="cls-2" points="177.45 71.44 225.73 71.44 230.76 76.47 172.42 76.47 177.45 71.44"/><path class="cls-2" d="M247.36,12.61h29.64V63.16h-24.77c-5.53,0-10.02-4.49-10.02-10.02V17.77c0-2.84,2.31-5.15,5.15-5.15Z" transform="translate(519.21 75.77) rotate(180)"/><path class="cls-1" d="M267.28,32.35l-5.54,5.54,5.54,5.54c.59,.59,.59,1.55,0,2.14-.29,.29-.68,.44-1.07,.44s-.77-.15-1.07-.44l-5.54-5.54-5.54,5.54c-.29,.29-.68,.44-1.07,.44s-.77-.15-1.07-.44c-.59-.59-.59-1.55,0-2.14l5.54-5.54-5.54-5.54c-.59-.59-.59-1.55,0-2.14,.59-.59,1.55-.59,2.14,0l5.54,5.54,5.54-5.54c.59-.59,1.55-.59,2.14,0,.59,.59,.59,1.55,0,2.14Z"/><g><path class="cls-3" d="M15.75,31.08v-14.68h3.12v11.93h6.2v2.75H15.75Z"/><path class="cls-3" d="M26.27,25.76c0-3.01,2.11-5.57,5.61-5.57s5.63,2.55,5.63,5.57-2.11,5.59-5.63,5.59-5.61-2.55-5.61-5.59Zm8.34,0c0-1.65-.99-3.08-2.73-3.08s-2.71,1.43-2.71,3.08,.97,3.1,2.71,3.1,2.73-1.43,2.73-3.1Z"/><path class="cls-3" d="M48.91,31.08l-2.24-7.24-2.25,7.24h-2.99l-3.23-10.63h2.9l1.98,7.15,2.33-7.15h2.49l2.33,7.15,1.98-7.15h2.91l-3.24,10.63h-2.97Z"/><path class="cls-3" d="M61.45,25.76c0-3.01,2.11-5.57,5.61-5.57s5.63,2.55,5.63,5.57-2.11,5.59-5.63,5.59-5.61-2.55-5.61-5.59Zm8.34,0c0-1.65-.99-3.08-2.73-3.08s-2.71,1.43-2.71,3.08,.97,3.1,2.71,3.1,2.73-1.43,2.73-3.1Z"/><path class="cls-3" d="M80.81,31.08l-2.42-3.59-2.44,3.59h-3.1l3.76-5.46-3.54-5.17h3.12l2.2,3.28,2.18-3.28h3.12l-3.56,5.17,3.81,5.46h-3.12Z"/><path class="cls-3" d="M85.36,32.73c.24,.11,.62,.18,.88,.18,.73,0,1.21-.2,1.47-.77l.4-.9-4.31-10.78h2.99l2.77,7.39,2.77-7.39h3.01l-5,12.37c-.79,2-2.2,2.53-4.03,2.57-.33,0-1.03-.07-1.39-.15l.42-2.51Z"/><path class="cls-3" d="M97.64,31.79c.86,.95,1.98,1.32,3.32,1.32s2.93-.59,2.93-2.68v-1.08c-.84,1.06-1.98,1.67-3.28,1.67-2.66,0-4.69-1.87-4.69-5.41s2-5.41,4.69-5.41c1.28,0,2.42,.55,3.28,1.63v-1.36h2.82v9.9c0,4.05-3.12,5.04-5.74,5.04-1.83,0-3.26-.42-4.58-1.58l1.25-2.02Zm6.25-7.9c-.46-.7-1.47-1.21-2.4-1.21-1.58,0-2.68,1.1-2.68,2.93s1.1,2.93,2.68,2.93c.92,0,1.94-.53,2.4-1.21v-3.43Z"/><path class="cls-3" d="M114.29,20.19c3.17,0,5.32,2.38,5.32,5.85v.62h-7.9c.18,1.34,1.25,2.46,3.06,2.46,.99,0,2.16-.4,2.84-1.06l1.23,1.8c-1.08,.99-2.73,1.47-4.38,1.47-3.23,0-5.68-2.18-5.68-5.59,0-3.08,2.27-5.57,5.5-5.57Zm-2.62,4.58h5.24c-.07-1.01-.77-2.35-2.62-2.35-1.74,0-2.49,1.3-2.62,2.35Z"/><path class="cls-3" d="M128.81,31.08v-6.42c0-1.47-.77-1.98-1.96-1.98-1.1,0-1.96,.62-2.42,1.25v7.15h-2.79v-10.63h2.79v1.39c.68-.81,1.98-1.65,3.72-1.65,2.33,0,3.45,1.32,3.45,3.39v7.5h-2.79Z"/><path class="cls-3" d="M139.33,25.76c0-3.01,2.11-5.57,5.61-5.57s5.63,2.55,5.63,5.57-2.11,5.59-5.63,5.59-5.61-2.55-5.61-5.59Zm8.34,0c0-1.65-.99-3.08-2.73-3.08s-2.71,1.43-2.71,3.08,.97,3.1,2.71,3.1,2.73-1.43,2.73-3.1Z"/><path class="cls-3" d="M152.64,31.08v-10.63h2.79v1.45c.75-.95,2.07-1.69,3.39-1.69v2.73c-.2-.04-.46-.07-.77-.07-.92,0-2.16,.51-2.62,1.19v7.02h-2.79Z"/><path class="cls-3" d="M173.36,31.08v-6.42c0-1.47-.77-1.98-1.96-1.98-1.1,0-1.96,.62-2.42,1.25v7.15h-2.79v-10.63h2.79v1.39c.68-.81,1.98-1.65,3.72-1.65,2.33,0,3.45,1.32,3.45,3.39v7.5h-2.79Z"/><path class="cls-3" d="M178.25,25.76c0-3.01,2.11-5.57,5.61-5.57s5.63,2.55,5.63,5.57-2.11,5.59-5.63,5.59-5.61-2.55-5.61-5.59Zm8.34,0c0-1.65-.99-3.08-2.73-3.08s-2.71,1.43-2.71,3.08,.97,3.1,2.71,3.1,2.73-1.43,2.73-3.1Z"/><path class="cls-3" d="M15.01,52.16c0-3.01,2.11-5.57,5.61-5.57s5.63,2.55,5.63,5.57-2.11,5.59-5.63,5.59-5.61-2.55-5.61-5.59Zm8.34,0c0-1.65-.99-3.08-2.73-3.08s-2.71,1.43-2.71,3.08,.97,3.1,2.71,3.1,2.73-1.43,2.73-3.1Z"/><path class="cls-3" d="M34.37,57.48l-2.42-3.59-2.44,3.59h-3.1l3.76-5.46-3.54-5.17h3.12l2.2,3.28,2.18-3.28h3.12l-3.56,5.17,3.81,5.46h-3.12Z"/><path class="cls-3" d="M38.92,59.13c.24,.11,.62,.18,.88,.18,.73,0,1.21-.2,1.47-.77l.4-.9-4.31-10.78h2.99l2.77,7.39,2.77-7.39h3.01l-5,12.37c-.79,2-2.2,2.53-4.03,2.57-.33,0-1.03-.07-1.39-.15l.42-2.51Z"/><path class="cls-3" d="M51.2,58.19c.86,.95,1.98,1.32,3.32,1.32s2.93-.59,2.93-2.68v-1.08c-.84,1.06-1.98,1.67-3.28,1.67-2.66,0-4.69-1.87-4.69-5.41s2-5.41,4.69-5.41c1.28,0,2.42,.55,3.28,1.63v-1.36h2.82v9.9c0,4.05-3.12,5.04-5.74,5.04-1.83,0-3.26-.42-4.58-1.58l1.25-2.02Zm6.25-7.9c-.46-.7-1.47-1.21-2.4-1.21-1.58,0-2.68,1.1-2.68,2.93s1.1,2.93,2.68,2.93c.92,0,1.94-.53,2.4-1.21v-3.43Z"/><path class="cls-3" d="M67.85,46.59c3.17,0,5.32,2.38,5.32,5.85v.62h-7.9c.18,1.34,1.25,2.46,3.06,2.46,.99,0,2.16-.4,2.84-1.06l1.23,1.8c-1.08,.99-2.73,1.47-4.38,1.47-3.23,0-5.68-2.18-5.68-5.59,0-3.08,2.27-5.57,5.5-5.57Zm-2.62,4.58h5.24c-.07-1.01-.77-2.35-2.62-2.35-1.74,0-2.49,1.3-2.62,2.35Z"/><path class="cls-3" d="M82.37,57.48v-6.42c0-1.47-.77-1.98-1.96-1.98-1.1,0-1.96,.62-2.42,1.25v7.15h-2.79v-10.63h2.79v1.39c.68-.81,1.98-1.65,3.72-1.65,2.33,0,3.45,1.32,3.45,3.39v7.5h-2.79Z"/></g></g></g></svg>