<?xml version="1.0" encoding="UTF-8"?><svg id="Capa_2" xmlns="http://www.w3.org/2000/svg" viewBox="0 0 515.73 403.06"><defs><style>.cls-1{fill:#f8ab3c;}.cls-2{fill:#fff;}.cls-3{fill:#1b5f99;}.cls-4{fill:#5d5d62;}.cls-5{fill:#82bbdc;}</style></defs><g id="Capa_1-2"><g><path class="cls-2" d="M472.75,400.68l-429.83-.05C19.21,400.63,0,381.41,0,357.7L.05,42.92C.06,19.21,19.28,0,42.98,0L472.81,.05c23.71,0,42.92,19.22,42.92,42.93l-.05,314.78c0,23.71-19.22,42.92-42.93,42.92Z"/><rect class="cls-5" x="117.12" y="397.51" width="277.09" height="5.53"/><g><rect class="cls-4" x="31.31" y="27" width="20.28" height="2.95"/><rect class="cls-3" x="54.64" y="27" width="20.28" height="2.95"/><rect class="cls-5" x="77.97" y="27" width="20.28" height="2.95"/></g></g><rect class="cls-3" x="261.21" y="229.23" width="160" height="24" rx="6.11" ry="6.11"/><g><path class="cls-4" d="M33.15,63.23v-13.05h-4.64v-1.63h11.13v1.63h-4.67v13.05h-1.83Z"/><path class="cls-4" d="M49.19,63.23v-7c0-1.87-.97-2.42-2.4-2.42-1.28,0-2.51,.79-3.15,1.65v7.77h-1.65v-14.68h1.65v5.59c.75-.88,2.2-1.8,3.81-1.8,2.22,0,3.39,1.08,3.39,3.39v7.5h-1.65Z"/><path class="cls-4" d="M58.76,52.34c3.21,0,5.11,2.51,5.11,5.7v.42h-8.6c.13,2,1.54,3.67,3.83,3.67,1.21,0,2.44-.48,3.28-1.34l.79,1.08c-1.06,1.06-2.49,1.63-4.22,1.63-3.15,0-5.41-2.27-5.41-5.59,0-3.08,2.2-5.57,5.24-5.57Zm-3.5,4.91h6.97c-.02-1.59-1.08-3.54-3.5-3.54-2.27,0-3.39,1.91-3.48,3.54Z"/><path class="cls-4" d="M79.9,63.23v-1.58c-.79,1.08-2.09,1.85-3.59,1.85-2.77,0-4.73-2.11-4.73-5.57s1.94-5.59,4.73-5.59c1.43,0,2.73,.71,3.59,1.87v-5.65h1.65v14.68h-1.65Zm0-7.7c-.59-.92-1.87-1.72-3.19-1.72-2.13,0-3.41,1.76-3.41,4.12s1.28,4.09,3.41,4.09c1.32,0,2.6-.75,3.19-1.67v-4.82Z"/><path class="cls-4" d="M84.57,49.7c0-.62,.51-1.1,1.1-1.1s1.12,.48,1.12,1.1-.51,1.12-1.12,1.12-1.1-.51-1.1-1.12Zm.29,13.53v-10.63h1.65v10.63h-1.65Z"/><path class="cls-4" d="M90.26,63.23v-9.18h-1.76v-1.45h1.76v-.81c0-2.2,1.23-3.46,3.08-3.46,.62,0,1.19,.11,1.61,.37l-.42,1.23c-.26-.15-.57-.24-.95-.24-1.08,0-1.67,.75-1.67,2.09v.81h2.16v1.45h-2.16v9.18h-1.65Zm6.23,0v-9.18h-1.76v-1.45h1.76v-.81c0-2.2,1.23-3.46,3.08-3.46,.62,0,1.19,.11,1.61,.37l-.42,1.23c-.26-.15-.57-.24-.95-.24-1.08,0-1.67,.75-1.67,2.09v.81h2.16v1.45h-2.16v9.18h-1.65Z"/><path class="cls-4" d="M106.88,52.34c3.21,0,5.11,2.51,5.11,5.7v.42h-8.6c.13,2,1.54,3.67,3.83,3.67,1.21,0,2.44-.48,3.28-1.34l.79,1.08c-1.06,1.06-2.49,1.63-4.22,1.63-3.15,0-5.41-2.27-5.41-5.59,0-3.08,2.2-5.57,5.24-5.57Zm-3.5,4.91h6.97c-.02-1.59-1.08-3.54-3.5-3.54-2.27,0-3.39,1.91-3.48,3.54Z"/><path class="cls-4" d="M114.64,63.23v-10.63h1.65v1.72c.86-1.12,2.09-1.94,3.54-1.94v1.69c-.2-.04-.39-.07-.66-.07-1.01,0-2.4,.84-2.88,1.7v7.53h-1.65Z"/><path class="cls-4" d="M126.52,52.34c3.21,0,5.11,2.51,5.11,5.7v.42h-8.6c.13,2,1.54,3.67,3.83,3.67,1.21,0,2.44-.48,3.28-1.34l.79,1.08c-1.06,1.06-2.49,1.63-4.22,1.63-3.15,0-5.41-2.27-5.41-5.59,0-3.08,2.2-5.57,5.24-5.57Zm-3.5,4.91h6.97c-.02-1.59-1.08-3.54-3.5-3.54-2.27,0-3.39,1.91-3.48,3.54Z"/><path class="cls-4" d="M141.46,63.23v-6.95c0-1.87-.95-2.46-2.38-2.46-1.3,0-2.53,.79-3.15,1.65v7.77h-1.65v-10.63h1.65v1.54c.75-.88,2.2-1.8,3.79-1.8,2.22,0,3.39,1.12,3.39,3.43v7.46h-1.65Z"/><path class="cls-4" d="M151.09,52.34c1.94,0,3.08,.79,3.89,1.85l-1.1,1.01c-.71-.97-1.61-1.39-2.71-1.39-2.27,0-3.67,1.74-3.67,4.09s1.41,4.12,3.67,4.12c1.1,0,2-.44,2.71-1.39l1.1,1.01c-.81,1.05-1.96,1.85-3.89,1.85-3.17,0-5.3-2.42-5.3-5.59s2.13-5.57,5.3-5.57Z"/><path class="cls-4" d="M161.92,52.34c3.21,0,5.11,2.51,5.11,5.7v.42h-8.6c.13,2,1.54,3.67,3.83,3.67,1.21,0,2.44-.48,3.28-1.34l.79,1.08c-1.06,1.06-2.49,1.63-4.22,1.63-3.15,0-5.41-2.27-5.41-5.59,0-3.08,2.2-5.57,5.24-5.57Zm-3.5,4.91h6.97c-.02-1.59-1.08-3.54-3.5-3.54-2.27,0-3.39,1.91-3.48,3.54Z"/><path class="cls-4" d="M175.07,49.7c0-.62,.51-1.1,1.1-1.1s1.12,.48,1.12,1.1-.51,1.12-1.12,1.12-1.1-.51-1.1-1.12Zm.29,13.53v-10.63h1.65v10.63h-1.65Z"/><path class="cls-4" d="M187.48,63.23v-6.95c0-1.87-.95-2.46-2.38-2.46-1.3,0-2.53,.79-3.15,1.65v7.77h-1.65v-10.63h1.65v1.54c.75-.88,2.2-1.8,3.79-1.8,2.22,0,3.39,1.12,3.39,3.43v7.46h-1.65Z"/><path class="cls-4" d="M198.04,60.63c.7,.81,2.05,1.52,3.5,1.52,1.63,0,2.51-.73,2.51-1.76,0-1.17-1.3-1.54-2.73-1.89-1.8-.42-3.85-.9-3.85-3.1,0-1.65,1.43-3.06,3.96-3.06,1.8,0,3.08,.68,3.94,1.54l-.77,1.14c-.64-.77-1.8-1.34-3.17-1.34-1.45,0-2.36,.66-2.36,1.61,0,1.03,1.21,1.36,2.6,1.69,1.85,.42,3.98,.95,3.98,3.3,0,1.78-1.43,3.21-4.18,3.21-1.74,0-3.21-.53-4.29-1.67l.86-1.19Z"/><path class="cls-4" d="M207.72,57.9c0-3.08,2.02-5.57,5.26-5.57s5.26,2.49,5.26,5.57-2.03,5.59-5.26,5.59-5.26-2.51-5.26-5.59Zm8.78,0c0-2.16-1.25-4.09-3.52-4.09s-3.54,1.94-3.54,4.09,1.28,4.12,3.54,4.12,3.52-1.94,3.52-4.12Z"/><path class="cls-4" d="M220.64,49.7c0-.62,.51-1.1,1.1-1.1s1.12,.48,1.12,1.1-.51,1.12-1.12,1.12-1.1-.51-1.1-1.12Zm.29,13.53v-10.63h1.65v10.63h-1.65Z"/><path class="cls-4" d="M225.87,63.23v-14.68h1.65v14.68h-1.65Z"/><path class="cls-4" d="M241.18,52.34c1.94,0,3.08,.79,3.89,1.85l-1.1,1.01c-.7-.97-1.61-1.39-2.71-1.39-2.27,0-3.68,1.74-3.68,4.09s1.41,4.12,3.68,4.12c1.1,0,2-.44,2.71-1.39l1.1,1.01c-.81,1.05-1.96,1.85-3.89,1.85-3.17,0-5.3-2.42-5.3-5.59s2.13-5.57,5.3-5.57Z"/><path class="cls-4" d="M254.03,63.23v-1.21c-.88,.97-2.09,1.47-3.52,1.47-1.8,0-3.72-1.21-3.72-3.52s1.91-3.5,3.72-3.5c1.45,0,2.66,.46,3.52,1.45v-1.91c0-1.43-1.14-2.24-2.69-2.24-1.28,0-2.31,.46-3.26,1.47l-.77-1.14c1.14-1.19,2.51-1.76,4.25-1.76,2.24,0,4.12,1.01,4.12,3.59v7.3h-1.65Zm0-4.25c-.64-.88-1.76-1.32-2.93-1.32-1.54,0-2.62,.97-2.62,2.33s1.08,2.31,2.62,2.31c1.17,0,2.29-.44,2.93-1.32v-2Z"/><path class="cls-4" d="M258.98,63.23v-10.63h1.65v1.72c.86-1.12,2.09-1.94,3.54-1.94v1.69c-.2-.04-.39-.07-.66-.07-1.01,0-2.4,.84-2.88,1.7v7.53h-1.65Z"/><path class="cls-4" d="M266.24,63.23v-14.68h1.65v5.65c.86-1.17,2.13-1.87,3.59-1.87,2.77,0,4.73,2.2,4.73,5.59s-1.96,5.57-4.73,5.57c-1.5,0-2.79-.77-3.59-1.85v1.58h-1.65Zm1.65-2.88c.57,.92,1.87,1.67,3.17,1.67,2.16,0,3.43-1.74,3.43-4.09s-1.28-4.12-3.43-4.12c-1.3,0-2.6,.79-3.17,1.72v4.82Z"/><path class="cls-4" d="M278.27,57.9c0-3.08,2.03-5.57,5.26-5.57s5.26,2.49,5.26,5.57-2.02,5.59-5.26,5.59-5.26-2.51-5.26-5.59Zm8.78,0c0-2.16-1.25-4.09-3.52-4.09s-3.54,1.94-3.54,4.09,1.28,4.12,3.54,4.12,3.52-1.94,3.52-4.12Z"/><path class="cls-4" d="M298.65,63.23v-6.95c0-1.87-.95-2.46-2.38-2.46-1.3,0-2.53,.79-3.15,1.65v7.77h-1.65v-10.63h1.65v1.54c.75-.88,2.2-1.8,3.78-1.8,2.22,0,3.39,1.12,3.39,3.43v7.46h-1.65Z"/><path class="cls-4" d="M315.92,63.23v-1.21c-.88,.97-2.09,1.47-3.52,1.47-1.8,0-3.72-1.21-3.72-3.52s1.91-3.5,3.72-3.5c1.45,0,2.66,.46,3.52,1.45v-1.91c0-1.43-1.14-2.24-2.68-2.24-1.28,0-2.31,.46-3.26,1.47l-.77-1.14c1.14-1.19,2.51-1.76,4.25-1.76,2.24,0,4.11,1.01,4.11,3.59v7.3h-1.65Zm0-4.25c-.64-.88-1.76-1.32-2.93-1.32-1.54,0-2.62,.97-2.62,2.33s1.08,2.31,2.62,2.31c1.17,0,2.29-.44,2.93-1.32v-2Z"/><path class="cls-4" d="M325.55,52.34c1.94,0,3.08,.79,3.89,1.85l-1.1,1.01c-.7-.97-1.61-1.39-2.71-1.39-2.27,0-3.68,1.74-3.68,4.09s1.41,4.12,3.68,4.12c1.1,0,2-.44,2.71-1.39l1.1,1.01c-.81,1.05-1.96,1.85-3.89,1.85-3.17,0-5.3-2.42-5.3-5.59s2.13-5.57,5.3-5.57Z"/><path class="cls-4" d="M336.44,52.34c1.94,0,3.08,.79,3.89,1.85l-1.1,1.01c-.71-.97-1.61-1.39-2.71-1.39-2.27,0-3.67,1.74-3.67,4.09s1.41,4.12,3.67,4.12c1.1,0,2-.44,2.71-1.39l1.1,1.01c-.81,1.05-1.96,1.85-3.89,1.85-3.17,0-5.3-2.42-5.3-5.59s2.13-5.57,5.3-5.57Z"/><path class="cls-4" d="M349.82,63.23v-1.5c-.81,.92-2.2,1.76-3.79,1.76-2.22,0-3.39-1.08-3.39-3.39v-7.5h1.65v7c0,1.87,.95,2.42,2.38,2.42,1.3,0,2.53-.75,3.15-1.61v-7.81h1.65v10.63h-1.65Z"/><path class="cls-4" d="M367.6,63.23v-7.22c0-1.34-.6-2.2-1.96-2.2-1.1,0-2.27,.79-2.82,1.63v7.79h-1.65v-7.22c0-1.34-.57-2.2-1.96-2.2-1.08,0-2.22,.79-2.79,1.65v7.77h-1.65v-10.63h1.65v1.54c.44-.68,1.87-1.8,3.43-1.8s2.55,.88,2.86,1.98c.59-.97,2.02-1.98,3.56-1.98,1.94,0,2.97,1.08,2.97,3.21v7.68h-1.65Z"/><path class="cls-4" d="M379.72,63.23v-1.5c-.81,.92-2.2,1.76-3.79,1.76-2.22,0-3.39-1.08-3.39-3.39v-7.5h1.65v7c0,1.87,.95,2.42,2.38,2.42,1.3,0,2.53-.75,3.15-1.61v-7.81h1.65v10.63h-1.65Z"/><path class="cls-4" d="M384.67,63.23v-14.68h1.65v14.68h-1.65Z"/><path class="cls-4" d="M396.26,63.23v-1.21c-.88,.97-2.09,1.47-3.52,1.47-1.8,0-3.72-1.21-3.72-3.52s1.91-3.5,3.72-3.5c1.45,0,2.66,.46,3.52,1.45v-1.91c0-1.43-1.14-2.24-2.68-2.24-1.28,0-2.31,.46-3.26,1.47l-.77-1.14c1.14-1.19,2.51-1.76,4.25-1.76,2.24,0,4.11,1.01,4.11,3.59v7.3h-1.65Zm0-4.25c-.64-.88-1.76-1.32-2.93-1.32-1.54,0-2.62,.97-2.62,2.33s1.08,2.31,2.62,2.31c1.17,0,2.29-.44,2.93-1.32v-2Z"/><path class="cls-4" d="M401.54,61.01v-6.95h-1.76v-1.45h1.76v-2.9h1.65v2.9h2.16v1.45h-2.16v6.6c0,.79,.35,1.36,1.08,1.36,.46,0,.9-.2,1.12-.44l.48,1.23c-.42,.39-1.01,.68-1.98,.68-1.56,0-2.36-.9-2.36-2.49Z"/><path class="cls-4" d="M407.39,49.7c0-.62,.51-1.1,1.1-1.1s1.12,.48,1.12,1.1-.51,1.12-1.12,1.12-1.1-.51-1.1-1.12Zm.29,13.53v-10.63h1.65v10.63h-1.65Z"/><path class="cls-4" d="M412.01,57.9c0-3.08,2.02-5.57,5.26-5.57s5.26,2.49,5.26,5.57-2.03,5.59-5.26,5.59-5.26-2.51-5.26-5.59Zm8.78,0c0-2.16-1.25-4.09-3.52-4.09s-3.54,1.94-3.54,4.09,1.28,4.12,3.54,4.12,3.52-1.94,3.52-4.12Z"/><path class="cls-4" d="M432.39,63.23v-6.95c0-1.87-.95-2.46-2.38-2.46-1.3,0-2.53,.79-3.15,1.65v7.77h-1.65v-10.63h1.65v1.54c.75-.88,2.2-1.8,3.79-1.8,2.22,0,3.39,1.12,3.39,3.43v7.46h-1.65Z"/><path class="cls-4" d="M442.72,49.7c0-.62,.51-1.1,1.1-1.1s1.12,.48,1.12,1.1-.51,1.12-1.12,1.12-1.1-.51-1.1-1.12Zm.29,13.53v-10.63h1.65v10.63h-1.65Z"/><path class="cls-4" d="M455.13,63.23v-6.95c0-1.87-.95-2.46-2.38-2.46-1.3,0-2.53,.79-3.15,1.65v7.77h-1.65v-10.63h1.65v1.54c.75-.88,2.2-1.8,3.79-1.8,2.22,0,3.39,1.12,3.39,3.43v7.46h-1.65Z"/><path class="cls-4" d="M29.79,87.41v-6.95h-1.76v-1.45h1.76v-2.9h1.65v2.9h2.16v1.45h-2.16v6.6c0,.79,.35,1.36,1.08,1.36,.46,0,.9-.2,1.12-.44l.48,1.23c-.42,.39-1.01,.68-1.98,.68-1.56,0-2.35-.9-2.35-2.49Z"/><path class="cls-4" d="M40.55,78.74c3.21,0,5.11,2.51,5.11,5.7v.42h-8.6c.13,2,1.54,3.67,3.83,3.67,1.21,0,2.44-.48,3.28-1.34l.79,1.08c-1.06,1.06-2.49,1.63-4.22,1.63-3.15,0-5.41-2.27-5.41-5.59,0-3.08,2.2-5.57,5.24-5.57Zm-3.5,4.91h6.97c-.02-1.59-1.08-3.54-3.5-3.54-2.27,0-3.39,1.91-3.48,3.54Z"/><path class="cls-4" d="M48.31,89.63v-10.63h1.65v1.72c.86-1.12,2.09-1.94,3.54-1.94v1.69c-.2-.04-.39-.07-.66-.07-1.01,0-2.4,.84-2.88,1.7v7.53h-1.65Z"/><path class="cls-4" d="M55.57,89.63v-10.63h1.65v1.72c.86-1.12,2.09-1.94,3.54-1.94v1.69c-.2-.04-.39-.07-.66-.07-1.01,0-2.4,.84-2.88,1.7v7.53h-1.65Z"/><path class="cls-4" d="M67.45,78.74c3.21,0,5.11,2.51,5.11,5.7v.42h-8.6c.13,2,1.54,3.67,3.83,3.67,1.21,0,2.44-.48,3.28-1.34l.79,1.08c-1.06,1.06-2.49,1.63-4.22,1.63-3.15,0-5.41-2.27-5.41-5.59,0-3.08,2.2-5.57,5.24-5.57Zm-3.5,4.91h6.97c-.02-1.59-1.08-3.54-3.5-3.54-2.27,0-3.39,1.91-3.48,3.54Z"/><path class="cls-4" d="M75.15,87.03c.71,.81,2.05,1.52,3.5,1.52,1.63,0,2.51-.73,2.51-1.76,0-1.17-1.3-1.54-2.73-1.89-1.8-.42-3.85-.9-3.85-3.1,0-1.65,1.43-3.06,3.96-3.06,1.8,0,3.08,.68,3.94,1.54l-.77,1.14c-.64-.77-1.8-1.34-3.17-1.34-1.45,0-2.35,.66-2.35,1.61,0,1.03,1.21,1.36,2.6,1.69,1.85,.42,3.98,.95,3.98,3.3,0,1.78-1.43,3.21-4.18,3.21-1.74,0-3.21-.53-4.29-1.67l.86-1.19Z"/><path class="cls-4" d="M85.78,87.41v-6.95h-1.76v-1.45h1.76v-2.9h1.65v2.9h2.16v1.45h-2.16v6.6c0,.79,.35,1.36,1.08,1.36,.46,0,.9-.2,1.12-.44l.48,1.23c-.42,.39-1.01,.68-1.98,.68-1.56,0-2.35-.9-2.35-2.49Z"/><path class="cls-4" d="M91.91,89.63v-10.63h1.65v1.72c.86-1.12,2.09-1.94,3.54-1.94v1.69c-.2-.04-.4-.07-.66-.07-1.01,0-2.4,.84-2.88,1.7v7.53h-1.65Z"/><path class="cls-4" d="M98.89,76.1c0-.62,.51-1.1,1.1-1.1s1.12,.48,1.12,1.1-.51,1.12-1.12,1.12-1.1-.51-1.1-1.12Zm.29,13.53v-10.63h1.65v10.63h-1.65Z"/><path class="cls-4" d="M110.77,89.63v-1.21c-.88,.97-2.09,1.47-3.52,1.47-1.8,0-3.72-1.21-3.72-3.52s1.91-3.5,3.72-3.5c1.45,0,2.66,.46,3.52,1.45v-1.91c0-1.43-1.14-2.24-2.69-2.24-1.28,0-2.31,.46-3.26,1.47l-.77-1.14c1.14-1.19,2.51-1.76,4.25-1.76,2.24,0,4.12,1.01,4.12,3.59v7.3h-1.65Zm0-4.25c-.64-.88-1.76-1.32-2.93-1.32-1.54,0-2.62,.97-2.62,2.33s1.08,2.31,2.62,2.31c1.17,0,2.29-.44,2.93-1.32v-2Z"/><path class="cls-4" d="M115.72,89.63v-14.68h1.65v14.68h-1.65Z"/><path class="cls-4" d="M126.28,87.03c.71,.81,2.05,1.52,3.5,1.52,1.63,0,2.51-.73,2.51-1.76,0-1.17-1.3-1.54-2.73-1.89-1.8-.42-3.85-.9-3.85-3.1,0-1.65,1.43-3.06,3.96-3.06,1.8,0,3.08,.68,3.94,1.54l-.77,1.14c-.64-.77-1.8-1.34-3.17-1.34-1.45,0-2.35,.66-2.35,1.61,0,1.03,1.21,1.36,2.6,1.69,1.85,.42,3.98,.95,3.98,3.3,0,1.78-1.43,3.21-4.18,3.21-1.74,0-3.21-.53-4.29-1.67l.86-1.19Z"/><path class="cls-4" d="M136.24,92.29c.24,.11,.64,.18,.9,.18,.72,0,1.21-.24,1.58-1.12l.7-1.61-4.44-10.74h1.78l3.54,8.71,3.52-8.71h1.8l-5.32,12.79c-.64,1.54-1.72,2.13-3.12,2.16-.35,0-.9-.07-1.21-.15l.26-1.5Z"/><path class="cls-4" d="M147.29,87.03c.7,.81,2.05,1.52,3.5,1.52,1.63,0,2.51-.73,2.51-1.76,0-1.17-1.3-1.54-2.73-1.89-1.8-.42-3.85-.9-3.85-3.1,0-1.65,1.43-3.06,3.96-3.06,1.8,0,3.08,.68,3.94,1.54l-.77,1.14c-.64-.77-1.8-1.34-3.17-1.34-1.45,0-2.36,.66-2.36,1.61,0,1.03,1.21,1.36,2.6,1.69,1.85,.42,3.98,.95,3.98,3.3,0,1.78-1.43,3.21-4.18,3.21-1.74,0-3.21-.53-4.29-1.67l.86-1.19Z"/><path class="cls-4" d="M157.91,87.41v-6.95h-1.76v-1.45h1.76v-2.9h1.65v2.9h2.16v1.45h-2.16v6.6c0,.79,.35,1.36,1.08,1.36,.46,0,.9-.2,1.12-.44l.48,1.23c-.42,.39-1.01,.68-1.98,.68-1.56,0-2.36-.9-2.36-2.49Z"/><path class="cls-4" d="M168.67,78.74c3.21,0,5.11,2.51,5.11,5.7v.42h-8.6c.13,2,1.54,3.67,3.83,3.67,1.21,0,2.44-.48,3.28-1.34l.79,1.08c-1.06,1.06-2.49,1.63-4.22,1.63-3.15,0-5.41-2.27-5.41-5.59,0-3.08,2.2-5.57,5.24-5.57Zm-3.5,4.91h6.97c-.02-1.59-1.08-3.54-3.5-3.54-2.27,0-3.39,1.91-3.48,3.54Z"/><path class="cls-4" d="M189.26,89.63v-7.22c0-1.34-.59-2.2-1.96-2.2-1.1,0-2.27,.79-2.82,1.63v7.79h-1.65v-7.22c0-1.34-.57-2.2-1.96-2.2-1.08,0-2.22,.79-2.79,1.65v7.77h-1.65v-10.63h1.65v1.54c.44-.68,1.87-1.8,3.43-1.8s2.55,.88,2.86,1.98c.59-.97,2.03-1.98,3.56-1.98,1.94,0,2.97,1.08,2.97,3.21v7.68h-1.65Z"/><path class="cls-4" d="M194.15,87.03c.7,.81,2.05,1.52,3.5,1.52,1.63,0,2.51-.73,2.51-1.76,0-1.17-1.3-1.54-2.73-1.89-1.8-.42-3.85-.9-3.85-3.1,0-1.65,1.43-3.06,3.96-3.06,1.8,0,3.08,.68,3.94,1.54l-.77,1.14c-.64-.77-1.8-1.34-3.17-1.34-1.45,0-2.36,.66-2.36,1.61,0,1.03,1.21,1.36,2.6,1.69,1.85,.42,3.98,.95,3.98,3.3,0,1.78-1.43,3.21-4.18,3.21-1.74,0-3.21-.53-4.29-1.67l.86-1.19Z"/><path class="cls-4" d="M214.8,78.74c1.94,0,3.08,.79,3.89,1.85l-1.1,1.01c-.7-.97-1.61-1.39-2.71-1.39-2.27,0-3.68,1.74-3.68,4.09s1.41,4.12,3.68,4.12c1.1,0,2-.44,2.71-1.39l1.1,1.01c-.81,1.05-1.96,1.85-3.89,1.85-3.17,0-5.3-2.42-5.3-5.59s2.13-5.57,5.3-5.57Z"/><path class="cls-4" d="M220.39,84.3c0-3.08,2.03-5.57,5.26-5.57s5.26,2.49,5.26,5.57-2.02,5.59-5.26,5.59-5.26-2.51-5.26-5.59Zm8.78,0c0-2.16-1.25-4.09-3.52-4.09s-3.54,1.94-3.54,4.09,1.28,4.12,3.54,4.12,3.52-1.94,3.52-4.12Z"/><path class="cls-4" d="M246.42,89.63v-7.22c0-1.34-.6-2.2-1.96-2.2-1.1,0-2.27,.79-2.82,1.63v7.79h-1.65v-7.22c0-1.34-.57-2.2-1.96-2.2-1.08,0-2.22,.79-2.79,1.65v7.77h-1.65v-10.63h1.65v1.54c.44-.68,1.87-1.8,3.43-1.8s2.55,.88,2.86,1.98c.59-.97,2.02-1.98,3.56-1.98,1.94,0,2.97,1.08,2.97,3.21v7.68h-1.65Z"/><path class="cls-4" d="M253.02,93.68h-1.65v-14.68h1.65v1.59c.77-1.08,2.09-1.85,3.59-1.85,2.79,0,4.73,2.11,4.73,5.57s-1.94,5.59-4.73,5.59c-1.45,0-2.73-.68-3.59-1.87v5.66Zm3.17-13.47c-1.3,0-2.6,.77-3.17,1.7v4.79c.57,.93,1.87,1.72,3.17,1.72,2.13,0,3.41-1.76,3.41-4.12s-1.28-4.09-3.41-4.09Z"/><path class="cls-4" d="M270.64,89.63v-1.21c-.88,.97-2.09,1.47-3.52,1.47-1.8,0-3.72-1.21-3.72-3.52s1.91-3.5,3.72-3.5c1.45,0,2.66,.46,3.52,1.45v-1.91c0-1.43-1.14-2.24-2.69-2.24-1.28,0-2.31,.46-3.26,1.47l-.77-1.14c1.14-1.19,2.51-1.76,4.25-1.76,2.24,0,4.12,1.01,4.12,3.59v7.3h-1.65Zm0-4.25c-.64-.88-1.76-1.32-2.93-1.32-1.54,0-2.62,.97-2.62,2.33s1.08,2.31,2.62,2.31c1.17,0,2.29-.44,2.93-1.32v-2Z"/><path class="cls-4" d="M275.59,89.63v-10.63h1.65v1.72c.86-1.12,2.09-1.94,3.54-1.94v1.69c-.2-.04-.39-.07-.66-.07-1.01,0-2.4,.84-2.88,1.7v7.53h-1.65Z"/><path class="cls-4" d="M287.47,78.74c3.21,0,5.11,2.51,5.11,5.7v.42h-8.6c.13,2,1.54,3.67,3.83,3.67,1.21,0,2.44-.48,3.28-1.34l.79,1.08c-1.06,1.06-2.49,1.63-4.22,1.63-3.15,0-5.41-2.27-5.41-5.59,0-3.08,2.2-5.57,5.24-5.57Zm-3.5,4.91h6.97c-.02-1.59-1.08-3.54-3.5-3.54-2.27,0-3.39,1.91-3.48,3.54Z"/><path class="cls-4" d="M302.93,89.63v-1.58c-.79,1.08-2.09,1.85-3.59,1.85-2.77,0-4.73-2.11-4.73-5.57s1.94-5.59,4.73-5.59c1.43,0,2.73,.71,3.59,1.87v-5.65h1.65v14.68h-1.65Zm0-7.7c-.59-.92-1.87-1.72-3.19-1.72-2.13,0-3.41,1.76-3.41,4.12s1.28,4.09,3.41,4.09c1.32,0,2.6-.75,3.19-1.67v-4.82Z"/><path class="cls-4" d="M313.89,87.41v-6.95h-1.76v-1.45h1.76v-2.9h1.65v2.9h2.16v1.45h-2.16v6.6c0,.79,.35,1.36,1.08,1.36,.46,0,.9-.2,1.12-.44l.48,1.23c-.42,.39-1.01,.68-1.98,.68-1.56,0-2.36-.9-2.36-2.49Z"/><path class="cls-4" d="M319.41,84.3c0-3.08,2.03-5.57,5.26-5.57s5.26,2.49,5.26,5.57-2.02,5.59-5.26,5.59-5.26-2.51-5.26-5.59Zm8.78,0c0-2.16-1.25-4.09-3.52-4.09s-3.54,1.94-3.54,4.09,1.28,4.12,3.54,4.12,3.52-1.94,3.52-4.12Z"/><path class="cls-4" d="M342.97,78.74c1.94,0,3.08,.79,3.89,1.85l-1.1,1.01c-.71-.97-1.61-1.39-2.71-1.39-2.27,0-3.67,1.74-3.67,4.09s1.41,4.12,3.67,4.12c1.1,0,2-.44,2.71-1.39l1.1,1.01c-.81,1.05-1.96,1.85-3.89,1.85-3.17,0-5.3-2.42-5.3-5.59s2.13-5.57,5.3-5.57Z"/><path class="cls-4" d="M348.56,84.3c0-3.08,2.02-5.57,5.26-5.57s5.26,2.49,5.26,5.57-2.03,5.59-5.26,5.59-5.26-2.51-5.26-5.59Zm8.78,0c0-2.16-1.25-4.09-3.52-4.09s-3.54,1.94-3.54,4.09,1.28,4.12,3.54,4.12,3.52-1.94,3.52-4.12Z"/><path class="cls-4" d="M368.41,89.63v-1.21c-.88,.97-2.09,1.47-3.52,1.47-1.8,0-3.72-1.21-3.72-3.52s1.91-3.5,3.72-3.5c1.45,0,2.66,.46,3.52,1.45v-1.91c0-1.43-1.14-2.24-2.68-2.24-1.28,0-2.31,.46-3.26,1.47l-.77-1.14c1.14-1.19,2.51-1.76,4.25-1.76,2.24,0,4.11,1.01,4.11,3.59v7.3h-1.65Zm0-4.25c-.64-.88-1.76-1.32-2.93-1.32-1.54,0-2.62,.97-2.62,2.33s1.08,2.31,2.62,2.31c1.17,0,2.29-.44,2.93-1.32v-2Z"/><path class="cls-4" d="M373.29,87.03c.71,.81,2.05,1.52,3.5,1.52,1.63,0,2.51-.73,2.51-1.76,0-1.17-1.3-1.54-2.73-1.89-1.8-.42-3.85-.9-3.85-3.1,0-1.65,1.43-3.06,3.96-3.06,1.8,0,3.08,.68,3.94,1.54l-.77,1.14c-.64-.77-1.8-1.34-3.17-1.34-1.45,0-2.35,.66-2.35,1.61,0,1.03,1.21,1.36,2.6,1.69,1.85,.42,3.98,.95,3.98,3.3,0,1.78-1.43,3.21-4.18,3.21-1.74,0-3.21-.53-4.29-1.67l.86-1.19Z"/><path class="cls-4" d="M383.91,87.41v-6.95h-1.76v-1.45h1.76v-2.9h1.65v2.9h2.16v1.45h-2.16v6.6c0,.79,.35,1.36,1.08,1.36,.46,0,.9-.2,1.12-.44l.48,1.23c-.42,.39-1.01,.68-1.98,.68-1.56,0-2.35-.9-2.35-2.49Z"/><path class="cls-4" d="M396.7,89.63v-1.21c-.88,.97-2.09,1.47-3.52,1.47-1.8,0-3.72-1.21-3.72-3.52s1.91-3.5,3.72-3.5c1.45,0,2.66,.46,3.52,1.45v-1.91c0-1.43-1.14-2.24-2.68-2.24-1.28,0-2.31,.46-3.26,1.47l-.77-1.14c1.14-1.19,2.51-1.76,4.25-1.76,2.24,0,4.11,1.01,4.11,3.59v7.3h-1.65Zm0-4.25c-.64-.88-1.76-1.32-2.93-1.32-1.54,0-2.62,.97-2.62,2.33s1.08,2.31,2.62,2.31c1.17,0,2.29-.44,2.93-1.32v-2Z"/><path class="cls-4" d="M401.65,89.63v-14.68h1.65v14.68h-1.65Z"/><path class="cls-4" d="M412.21,87.03c.7,.81,2.05,1.52,3.5,1.52,1.63,0,2.51-.73,2.51-1.76,0-1.17-1.3-1.54-2.73-1.89-1.8-.42-3.85-.9-3.85-3.1,0-1.65,1.43-3.06,3.96-3.06,1.8,0,3.08,.68,3.94,1.54l-.77,1.14c-.64-.77-1.8-1.34-3.17-1.34-1.45,0-2.36,.66-2.36,1.61,0,1.03,1.21,1.36,2.6,1.69,1.85,.42,3.98,.95,3.98,3.3,0,1.78-1.43,3.21-4.18,3.21-1.74,0-3.21-.53-4.29-1.67l.86-1.19Z"/><path class="cls-4" d="M422.17,92.29c.24,.11,.64,.18,.9,.18,.73,0,1.21-.24,1.58-1.12l.71-1.61-4.45-10.74h1.78l3.54,8.71,3.52-8.71h1.8l-5.33,12.79c-.64,1.54-1.71,2.13-3.12,2.16-.35,0-.9-.07-1.21-.15l.26-1.5Z"/><path class="cls-4" d="M433.22,87.03c.7,.81,2.05,1.52,3.5,1.52,1.63,0,2.51-.73,2.51-1.76,0-1.17-1.3-1.54-2.73-1.89-1.8-.42-3.85-.9-3.85-3.1,0-1.65,1.43-3.06,3.96-3.06,1.8,0,3.08,.68,3.94,1.54l-.77,1.14c-.64-.77-1.8-1.34-3.17-1.34-1.45,0-2.36,.66-2.36,1.61,0,1.03,1.21,1.36,2.6,1.69,1.85,.42,3.98,.95,3.98,3.3,0,1.78-1.43,3.21-4.18,3.21-1.74,0-3.21-.53-4.29-1.67l.86-1.19Z"/><path class="cls-4" d="M443.84,87.41v-6.95h-1.76v-1.45h1.76v-2.9h1.65v2.9h2.16v1.45h-2.16v6.6c0,.79,.35,1.36,1.08,1.36,.46,0,.9-.2,1.12-.44l.48,1.23c-.42,.39-1.01,.68-1.98,.68-1.56,0-2.36-.9-2.36-2.49Z"/><path class="cls-4" d="M454.6,78.74c3.21,0,5.11,2.51,5.11,5.7v.42h-8.6c.13,2,1.54,3.67,3.83,3.67,1.21,0,2.44-.48,3.28-1.34l.79,1.08c-1.06,1.06-2.49,1.63-4.22,1.63-3.15,0-5.41-2.27-5.41-5.59,0-3.08,2.2-5.57,5.24-5.57Zm-3.5,4.91h6.97c-.02-1.59-1.08-3.54-3.5-3.54-2.27,0-3.39,1.91-3.48,3.54Z"/><path class="cls-4" d="M475.19,89.63v-7.22c0-1.34-.59-2.2-1.96-2.2-1.1,0-2.27,.79-2.82,1.63v7.79h-1.65v-7.22c0-1.34-.57-2.2-1.96-2.2-1.08,0-2.22,.79-2.79,1.65v7.77h-1.65v-10.63h1.65v1.54c.44-.68,1.87-1.8,3.43-1.8s2.55,.88,2.86,1.98c.59-.97,2.03-1.98,3.56-1.98,1.94,0,2.97,1.08,2.97,3.21v7.68h-1.65Z"/><path class="cls-4" d="M480.08,87.03c.7,.81,2.05,1.52,3.5,1.52,1.63,0,2.51-.73,2.51-1.76,0-1.17-1.3-1.54-2.73-1.89-1.8-.42-3.85-.9-3.85-3.1,0-1.65,1.43-3.06,3.96-3.06,1.8,0,3.08,.68,3.94,1.54l-.77,1.14c-.64-.77-1.8-1.34-3.17-1.34-1.45,0-2.36,.66-2.36,1.61,0,1.03,1.21,1.36,2.6,1.69,1.85,.42,3.98,.95,3.98,3.3,0,1.78-1.43,3.21-4.18,3.21-1.74,0-3.21-.53-4.29-1.67l.86-1.19Z"/><path class="cls-4" d="M29.17,102.5c0-.62,.51-1.1,1.1-1.1s1.12,.48,1.12,1.1-.51,1.12-1.12,1.12-1.1-.51-1.1-1.12Zm.29,13.53v-10.63h1.65v10.63h-1.65Z"/><path class="cls-4" d="M34.34,113.43c.71,.81,2.05,1.52,3.5,1.52,1.63,0,2.51-.73,2.51-1.76,0-1.17-1.3-1.54-2.73-1.89-1.8-.42-3.85-.9-3.85-3.1,0-1.65,1.43-3.06,3.96-3.06,1.8,0,3.08,.68,3.94,1.54l-.77,1.14c-.64-.77-1.8-1.34-3.17-1.34-1.45,0-2.35,.66-2.35,1.61,0,1.04,1.21,1.37,2.6,1.7,1.85,.42,3.98,.95,3.98,3.3,0,1.78-1.43,3.21-4.18,3.21-1.74,0-3.21-.53-4.29-1.67l.86-1.19Z"/><path class="cls-4" d="M50.64,113.81v-6.95h-1.76v-1.45h1.76v-2.9h1.65v2.9h2.16v1.45h-2.16v6.6c0,.79,.35,1.37,1.08,1.37,.46,0,.9-.2,1.12-.44l.48,1.23c-.42,.4-1.01,.68-1.98,.68-1.56,0-2.35-.9-2.35-2.49Z"/><path class="cls-4" d="M63.98,116.03v-7c0-1.87-.97-2.42-2.4-2.42-1.28,0-2.51,.79-3.15,1.65v7.77h-1.65v-14.68h1.65v5.59c.75-.88,2.2-1.8,3.81-1.8,2.22,0,3.39,1.08,3.39,3.39v7.5h-1.65Z"/><path class="cls-4" d="M75.57,116.03v-1.21c-.88,.97-2.09,1.47-3.52,1.47-1.8,0-3.72-1.21-3.72-3.52s1.91-3.5,3.72-3.5c1.45,0,2.66,.46,3.52,1.45v-1.91c0-1.43-1.14-2.24-2.69-2.24-1.28,0-2.31,.46-3.26,1.47l-.77-1.14c1.14-1.19,2.51-1.76,4.25-1.76,2.24,0,4.12,1.01,4.12,3.59v7.3h-1.65Zm0-4.25c-.64-.88-1.76-1.32-2.93-1.32-1.54,0-2.62,.97-2.62,2.33s1.08,2.31,2.62,2.31c1.17,0,2.29-.44,2.93-1.32v-2Z"/><path class="cls-4" d="M80.85,113.81v-6.95h-1.76v-1.45h1.76v-2.9h1.65v2.9h2.16v1.45h-2.16v6.6c0,.79,.35,1.37,1.08,1.37,.46,0,.9-.2,1.12-.44l.48,1.23c-.42,.4-1.01,.68-1.98,.68-1.56,0-2.35-.9-2.35-2.49Z"/><path class="cls-4" d="M94.31,120.08h-1.65v-14.68h1.65v1.58c.77-1.08,2.09-1.85,3.59-1.85,2.79,0,4.73,2.11,4.73,5.57s-1.94,5.59-4.73,5.59c-1.45,0-2.73-.68-3.59-1.87v5.65Zm3.17-13.46c-1.3,0-2.6,.77-3.17,1.69v4.8c.57,.92,1.87,1.72,3.17,1.72,2.13,0,3.41-1.76,3.41-4.12s-1.28-4.09-3.41-4.09Z"/><path class="cls-4" d="M104.67,110.7c0-3.08,2.03-5.57,5.26-5.57s5.26,2.49,5.26,5.57-2.02,5.59-5.26,5.59-5.26-2.51-5.26-5.59Zm8.78,0c0-2.16-1.25-4.09-3.52-4.09s-3.54,1.94-3.54,4.09,1.28,4.12,3.54,4.12,3.52-1.94,3.52-4.12Z"/><path class="cls-4" d="M118.2,113.81v-6.95h-1.76v-1.45h1.76v-2.9h1.65v2.9h2.16v1.45h-2.16v6.6c0,.79,.35,1.37,1.08,1.37,.46,0,.9-.2,1.12-.44l.48,1.23c-.42,.4-1.01,.68-1.98,.68-1.56,0-2.35-.9-2.35-2.49Z"/><path class="cls-4" d="M128.96,105.14c3.21,0,5.11,2.51,5.11,5.7v.42h-8.6c.13,2,1.54,3.67,3.83,3.67,1.21,0,2.44-.48,3.28-1.34l.79,1.08c-1.06,1.06-2.49,1.63-4.22,1.63-3.15,0-5.41-2.27-5.41-5.59,0-3.08,2.2-5.57,5.24-5.57Zm-3.5,4.91h6.97c-.02-1.58-1.08-3.54-3.5-3.54-2.27,0-3.39,1.91-3.48,3.54Z"/><path class="cls-4" d="M143.9,116.03v-6.95c0-1.87-.95-2.46-2.38-2.46-1.3,0-2.53,.79-3.15,1.65v7.77h-1.65v-10.63h1.65v1.54c.75-.88,2.2-1.8,3.78-1.8,2.22,0,3.39,1.12,3.39,3.43v7.46h-1.65Z"/><path class="cls-4" d="M149.18,113.81v-6.95h-1.76v-1.45h1.76v-2.9h1.65v2.9h2.16v1.45h-2.16v6.6c0,.79,.35,1.37,1.08,1.37,.46,0,.9-.2,1.12-.44l.48,1.23c-.42,.4-1.01,.68-1.98,.68-1.56,0-2.36-.9-2.36-2.49Z"/><path class="cls-4" d="M155.03,102.5c0-.62,.51-1.1,1.1-1.1s1.12,.48,1.12,1.1-.51,1.12-1.12,1.12-1.1-.51-1.1-1.12Zm.29,13.53v-10.63h1.65v10.63h-1.65Z"/><path class="cls-4" d="M166.91,116.03v-1.21c-.88,.97-2.09,1.47-3.52,1.47-1.8,0-3.72-1.21-3.72-3.52s1.91-3.5,3.72-3.5c1.45,0,2.66,.46,3.52,1.45v-1.91c0-1.43-1.14-2.24-2.68-2.24-1.28,0-2.31,.46-3.26,1.47l-.77-1.14c1.14-1.19,2.51-1.76,4.25-1.76,2.24,0,4.11,1.01,4.11,3.59v7.3h-1.65Zm0-4.25c-.64-.88-1.76-1.32-2.93-1.32-1.54,0-2.62,.97-2.62,2.33s1.08,2.31,2.62,2.31c1.17,0,2.29-.44,2.93-1.32v-2Z"/><path class="cls-4" d="M171.86,116.03v-14.68h1.65v14.68h-1.65Z"/><path class="cls-4" d="M187.17,105.14c1.94,0,3.08,.79,3.89,1.85l-1.1,1.01c-.71-.97-1.61-1.38-2.71-1.38-2.27,0-3.67,1.74-3.67,4.09s1.41,4.12,3.67,4.12c1.1,0,2-.44,2.71-1.39l1.1,1.01c-.81,1.06-1.96,1.85-3.89,1.85-3.17,0-5.3-2.42-5.3-5.59s2.13-5.57,5.3-5.57Z"/><path class="cls-4" d="M200.02,116.03v-1.21c-.88,.97-2.09,1.47-3.52,1.47-1.8,0-3.72-1.21-3.72-3.52s1.91-3.5,3.72-3.5c1.45,0,2.66,.46,3.52,1.45v-1.91c0-1.43-1.14-2.24-2.68-2.24-1.28,0-2.31,.46-3.26,1.47l-.77-1.14c1.14-1.19,2.51-1.76,4.25-1.76,2.24,0,4.11,1.01,4.11,3.59v7.3h-1.65Zm0-4.25c-.64-.88-1.76-1.32-2.93-1.32-1.54,0-2.62,.97-2.62,2.33s1.08,2.31,2.62,2.31c1.17,0,2.29-.44,2.93-1.32v-2Z"/><path class="cls-4" d="M204.97,116.03v-10.63h1.65v1.72c.86-1.12,2.09-1.94,3.54-1.94v1.7c-.2-.04-.4-.07-.66-.07-1.01,0-2.4,.84-2.88,1.69v7.53h-1.65Z"/><path class="cls-4" d="M212.23,116.03v-14.68h1.65v5.65c.86-1.17,2.13-1.87,3.59-1.87,2.77,0,4.73,2.2,4.73,5.59s-1.96,5.57-4.73,5.57c-1.5,0-2.79-.77-3.59-1.85v1.58h-1.65Zm1.65-2.88c.57,.93,1.87,1.67,3.17,1.67,2.16,0,3.43-1.74,3.43-4.09s-1.28-4.11-3.43-4.11c-1.3,0-2.6,.79-3.17,1.71v4.82Z"/><path class="cls-4" d="M224.26,110.7c0-3.08,2.02-5.57,5.26-5.57s5.26,2.49,5.26,5.57-2.03,5.59-5.26,5.59-5.26-2.51-5.26-5.59Zm8.78,0c0-2.16-1.25-4.09-3.52-4.09s-3.54,1.94-3.54,4.09,1.28,4.12,3.54,4.12,3.52-1.94,3.52-4.12Z"/><path class="cls-4" d="M244.64,116.03v-6.95c0-1.87-.95-2.46-2.38-2.46-1.3,0-2.53,.79-3.15,1.65v7.77h-1.65v-10.63h1.65v1.54c.75-.88,2.2-1.8,3.79-1.8,2.22,0,3.39,1.12,3.39,3.43v7.46h-1.65Z"/><path class="cls-4" d="M255.2,113.43c.7,.81,2.05,1.52,3.5,1.52,1.63,0,2.51-.73,2.51-1.76,0-1.17-1.3-1.54-2.73-1.89-1.8-.42-3.85-.9-3.85-3.1,0-1.65,1.43-3.06,3.96-3.06,1.8,0,3.08,.68,3.94,1.54l-.77,1.14c-.64-.77-1.8-1.34-3.17-1.34-1.45,0-2.36,.66-2.36,1.61,0,1.04,1.21,1.37,2.6,1.7,1.85,.42,3.98,.95,3.98,3.3,0,1.78-1.43,3.21-4.18,3.21-1.74,0-3.21-.53-4.29-1.67l.86-1.19Z"/><path class="cls-4" d="M265.82,113.81v-6.95h-1.76v-1.45h1.76v-2.9h1.65v2.9h2.16v1.45h-2.16v6.6c0,.79,.35,1.37,1.08,1.37,.46,0,.9-.2,1.12-.44l.48,1.23c-.42,.4-1.01,.68-1.98,.68-1.56,0-2.36-.9-2.36-2.49Z"/><path class="cls-4" d="M271.34,110.7c0-3.08,2.03-5.57,5.26-5.57s5.26,2.49,5.26,5.57-2.02,5.59-5.26,5.59-5.26-2.51-5.26-5.59Zm8.78,0c0-2.16-1.25-4.09-3.52-4.09s-3.54,1.94-3.54,4.09,1.28,4.12,3.54,4.12,3.52-1.94,3.52-4.12Z"/><path class="cls-4" d="M284.54,116.03v-10.63h1.65v1.72c.86-1.12,2.09-1.94,3.54-1.94v1.7c-.2-.04-.39-.07-.66-.07-1.01,0-2.4,.84-2.88,1.69v7.53h-1.65Z"/><path class="cls-4" d="M298.45,116.03v-1.21c-.88,.97-2.09,1.47-3.52,1.47-1.8,0-3.72-1.21-3.72-3.52s1.91-3.5,3.72-3.5c1.45,0,2.66,.46,3.52,1.45v-1.91c0-1.43-1.14-2.24-2.69-2.24-1.28,0-2.31,.46-3.26,1.47l-.77-1.14c1.14-1.19,2.51-1.76,4.25-1.76,2.24,0,4.12,1.01,4.12,3.59v7.3h-1.65Zm0-4.25c-.64-.88-1.76-1.32-2.93-1.32-1.54,0-2.62,.97-2.62,2.33s1.08,2.31,2.62,2.31c1.17,0,2.29-.44,2.93-1.32v-2Z"/><path class="cls-4" d="M304.21,117.53c.88,1.06,1.94,1.45,3.45,1.45,1.76,0,3.41-.86,3.41-3.19v-1.52c-.77,1.08-2.07,1.89-3.56,1.89-2.77,0-4.73-2.07-4.73-5.5s1.94-5.52,4.73-5.52c1.43,0,2.71,.7,3.56,1.87v-1.61h1.65v10.32c0,3.52-2.46,4.62-5.06,4.62-1.8,0-3.04-.35-4.29-1.58l.84-1.23Zm6.86-9.2c-.57-.92-1.85-1.71-3.17-1.71-2.13,0-3.41,1.69-3.41,4.05s1.28,4.05,3.41,4.05c1.32,0,2.6-.81,3.17-1.74v-4.64Z"/><path class="cls-4" d="M320.65,105.14c3.21,0,5.11,2.51,5.11,5.7v.42h-8.6c.13,2,1.54,3.67,3.83,3.67,1.21,0,2.44-.48,3.28-1.34l.79,1.08c-1.06,1.06-2.49,1.63-4.22,1.63-3.15,0-5.41-2.27-5.41-5.59,0-3.08,2.2-5.57,5.24-5.57Zm-3.5,4.91h6.97c-.02-1.58-1.08-3.54-3.5-3.54-2.27,0-3.39,1.91-3.48,3.54Z"/><path class="cls-4" d="M333.8,102.5c0-.62,.51-1.1,1.1-1.1s1.12,.48,1.12,1.1-.51,1.12-1.12,1.12-1.1-.51-1.1-1.12Zm.29,13.53v-10.63h1.65v10.63h-1.65Z"/><path class="cls-4" d="M346.21,116.03v-6.95c0-1.87-.95-2.46-2.38-2.46-1.3,0-2.53,.79-3.15,1.65v7.77h-1.65v-10.63h1.65v1.54c.75-.88,2.2-1.8,3.79-1.8,2.22,0,3.39,1.12,3.39,3.43v7.46h-1.65Z"/><path class="cls-4" d="M364.03,116.03v-7c0-1.87-.97-2.42-2.4-2.42-1.28,0-2.51,.79-3.15,1.65v7.77h-1.65v-14.68h1.65v5.59c.75-.88,2.2-1.8,3.81-1.8,2.22,0,3.39,1.08,3.39,3.39v7.5h-1.65Z"/><path class="cls-4" d="M368.69,102.5c0-.62,.51-1.1,1.1-1.1s1.12,.48,1.12,1.1-.51,1.12-1.12,1.12-1.1-.51-1.1-1.12Zm.29,13.53v-10.63h1.65v10.63h-1.65Z"/><path class="cls-4" d="M374.74,117.53c.88,1.06,1.94,1.45,3.45,1.45,1.76,0,3.41-.86,3.41-3.19v-1.52c-.77,1.08-2.07,1.89-3.56,1.89-2.77,0-4.73-2.07-4.73-5.5s1.94-5.52,4.73-5.52c1.43,0,2.71,.7,3.56,1.87v-1.61h1.65v10.32c0,3.52-2.46,4.62-5.06,4.62-1.8,0-3.04-.35-4.29-1.58l.84-1.23Zm6.86-9.2c-.57-.92-1.85-1.71-3.17-1.71-2.13,0-3.41,1.69-3.41,4.05s1.28,4.05,3.41,4.05c1.32,0,2.6-.81,3.17-1.74v-4.64Z"/><path class="cls-4" d="M393.75,116.03v-7c0-1.87-.97-2.42-2.4-2.42-1.28,0-2.51,.79-3.15,1.65v7.77h-1.65v-14.68h1.65v5.59c.75-.88,2.2-1.8,3.81-1.8,2.22,0,3.39,1.08,3.39,3.39v7.5h-1.65Z"/><path class="cls-4" d="M404.31,113.43c.7,.81,2.05,1.52,3.5,1.52,1.63,0,2.51-.73,2.51-1.76,0-1.17-1.3-1.54-2.73-1.89-1.8-.42-3.85-.9-3.85-3.1,0-1.65,1.43-3.06,3.96-3.06,1.8,0,3.08,.68,3.94,1.54l-.77,1.14c-.64-.77-1.8-1.34-3.17-1.34-1.45,0-2.36,.66-2.36,1.61,0,1.04,1.21,1.37,2.6,1.7,1.85,.42,3.98,.95,3.98,3.3,0,1.78-1.43,3.21-4.18,3.21-1.74,0-3.21-.53-4.29-1.67l.86-1.19Z"/><path class="cls-4" d="M413.99,110.7c0-3.08,2.02-5.57,5.26-5.57s5.26,2.49,5.26,5.57-2.03,5.59-5.26,5.59-5.26-2.51-5.26-5.59Zm8.78,0c0-2.16-1.25-4.09-3.52-4.09s-3.54,1.94-3.54,4.09,1.28,4.12,3.54,4.12,3.52-1.94,3.52-4.12Z"/><path class="cls-4" d="M426.9,102.5c0-.62,.51-1.1,1.1-1.1s1.12,.48,1.12,1.1-.51,1.12-1.12,1.12-1.1-.51-1.1-1.12Zm.29,13.53v-10.63h1.65v10.63h-1.65Z"/><path class="cls-4" d="M432.14,116.03v-14.68h1.65v14.68h-1.65Z"/><path class="cls-4" d="M437.02,113.43c.71,.81,2.05,1.52,3.5,1.52,1.63,0,2.51-.73,2.51-1.76,0-1.17-1.3-1.54-2.73-1.89-1.8-.42-3.85-.9-3.85-3.1,0-1.65,1.43-3.06,3.96-3.06,1.8,0,3.08,.68,3.94,1.54l-.77,1.14c-.64-.77-1.8-1.34-3.17-1.34-1.45,0-2.35,.66-2.35,1.61,0,1.04,1.21,1.37,2.6,1.7,1.85,.42,3.98,.95,3.98,3.3,0,1.78-1.43,3.21-4.18,3.21-1.74,0-3.21-.53-4.29-1.67l.86-1.19Z"/><path class="cls-4" d="M452.71,102.5c0-.62,.51-1.1,1.1-1.1s1.12,.48,1.12,1.1-.51,1.12-1.12,1.12-1.1-.51-1.1-1.12Zm.29,13.53v-10.63h1.65v10.63h-1.65Z"/><path class="cls-4" d="M457.88,113.43c.71,.81,2.05,1.52,3.5,1.52,1.63,0,2.51-.73,2.51-1.76,0-1.17-1.3-1.54-2.73-1.89-1.8-.42-3.85-.9-3.85-3.1,0-1.65,1.43-3.06,3.96-3.06,1.8,0,3.08,.68,3.94,1.54l-.77,1.14c-.64-.77-1.8-1.34-3.17-1.34-1.45,0-2.35,.66-2.35,1.61,0,1.04,1.21,1.37,2.6,1.7,1.85,.42,3.98,.95,3.98,3.3,0,1.78-1.43,3.21-4.18,3.21-1.74,0-3.21-.53-4.29-1.67l.86-1.19Z"/><path class="cls-4" d="M29.46,142.43v-14.68h1.65v14.68h-1.65Z"/><path class="cls-4" d="M34.12,128.9c0-.62,.51-1.1,1.1-1.1s1.12,.48,1.12,1.1-.51,1.12-1.12,1.12-1.1-.51-1.1-1.12Zm.29,13.53v-10.63h1.65v10.63h-1.65Z"/><path class="cls-4" d="M52.19,142.43v-7.22c0-1.34-.6-2.2-1.96-2.2-1.1,0-2.27,.79-2.82,1.63v7.79h-1.65v-7.22c0-1.34-.57-2.2-1.96-2.2-1.08,0-2.22,.79-2.79,1.65v7.77h-1.65v-10.63h1.65v1.54c.44-.68,1.87-1.8,3.43-1.8s2.55,.88,2.86,1.98c.59-.97,2.02-1.98,3.56-1.98,1.94,0,2.97,1.08,2.97,3.21v7.68h-1.65Z"/><path class="cls-4" d="M56.85,128.9c0-.62,.51-1.1,1.1-1.1s1.12,.48,1.12,1.1-.51,1.12-1.12,1.12-1.1-.51-1.1-1.12Zm.29,13.53v-10.63h1.65v10.63h-1.65Z"/><path class="cls-4" d="M62.41,140.21v-6.95h-1.76v-1.45h1.76v-2.9h1.65v2.9h2.16v1.45h-2.16v6.6c0,.79,.35,1.37,1.08,1.37,.46,0,.9-.2,1.12-.44l.48,1.23c-.42,.4-1.01,.68-1.98,.68-1.56,0-2.35-.9-2.35-2.49Z"/><path class="cls-4" d="M73.17,131.54c3.21,0,5.11,2.51,5.11,5.7v.42h-8.6c.13,2,1.54,3.67,3.83,3.67,1.21,0,2.44-.48,3.28-1.34l.79,1.08c-1.06,1.06-2.49,1.63-4.22,1.63-3.15,0-5.41-2.27-5.41-5.59,0-3.08,2.2-5.57,5.24-5.57Zm-3.5,4.91h6.97c-.02-1.58-1.08-3.54-3.5-3.54-2.27,0-3.39,1.91-3.48,3.54Z"/><path class="cls-4" d="M88.64,142.43v-1.58c-.79,1.08-2.09,1.85-3.59,1.85-2.77,0-4.73-2.11-4.73-5.57s1.94-5.59,4.73-5.59c1.43,0,2.73,.7,3.59,1.87v-5.65h1.65v14.68h-1.65Zm0-7.7c-.6-.92-1.87-1.71-3.19-1.71-2.13,0-3.41,1.76-3.41,4.11s1.28,4.09,3.41,4.09c1.32,0,2.6-.75,3.19-1.67v-4.82Z"/><path class="cls-4" d="M99.26,142.43v-14.68h1.65v5.65c.86-1.17,2.13-1.87,3.59-1.87,2.77,0,4.73,2.2,4.73,5.59s-1.96,5.57-4.73,5.57c-1.5,0-2.79-.77-3.59-1.85v1.58h-1.65Zm1.65-2.88c.57,.93,1.87,1.67,3.17,1.67,2.16,0,3.43-1.74,3.43-4.09s-1.28-4.11-3.43-4.11c-1.3,0-2.6,.79-3.17,1.71v4.82Z"/><path class="cls-4" d="M111.58,145.09c.24,.11,.64,.18,.9,.18,.72,0,1.21-.24,1.58-1.12l.7-1.61-4.44-10.74h1.78l3.54,8.71,3.52-8.71h1.8l-5.32,12.78c-.64,1.54-1.72,2.13-3.12,2.16-.35,0-.9-.06-1.21-.15l.26-1.5Z"/><path class="cls-4" d="M135.57,142.43v-7c0-1.87-.97-2.42-2.4-2.42-1.28,0-2.51,.79-3.15,1.65v7.77h-1.65v-14.68h1.65v5.59c.75-.88,2.2-1.8,3.81-1.8,2.22,0,3.39,1.08,3.39,3.39v7.5h-1.65Z"/><path class="cls-4" d="M140.23,128.9c0-.62,.51-1.1,1.1-1.1s1.12,.48,1.12,1.1-.51,1.12-1.12,1.12-1.1-.51-1.1-1.12Zm.29,13.53v-10.63h1.65v10.63h-1.65Z"/><path class="cls-4" d="M146.28,143.93c.88,1.06,1.94,1.45,3.45,1.45,1.76,0,3.41-.86,3.41-3.19v-1.52c-.77,1.08-2.07,1.89-3.56,1.89-2.77,0-4.73-2.07-4.73-5.5s1.94-5.52,4.73-5.52c1.43,0,2.71,.7,3.56,1.87v-1.61h1.65v10.32c0,3.52-2.46,4.62-5.06,4.62-1.8,0-3.04-.35-4.29-1.58l.84-1.23Zm6.86-9.2c-.57-.92-1.85-1.71-3.17-1.71-2.13,0-3.41,1.69-3.41,4.05s1.28,4.05,3.41,4.05c1.32,0,2.6-.81,3.17-1.74v-4.64Z"/><path class="cls-4" d="M165.29,142.43v-7c0-1.87-.97-2.42-2.4-2.42-1.28,0-2.51,.79-3.15,1.65v7.77h-1.65v-14.68h1.65v5.59c.75-.88,2.2-1.8,3.81-1.8,2.22,0,3.39,1.08,3.39,3.39v7.5h-1.65Z"/><path class="cls-4" d="M175.29,137.11c0-3.08,2.03-5.57,5.26-5.57s5.26,2.49,5.26,5.57-2.02,5.59-5.26,5.59-5.26-2.51-5.26-5.59Zm8.78,0c0-2.16-1.25-4.09-3.52-4.09s-3.54,1.94-3.54,4.09,1.28,4.12,3.54,4.12,3.52-1.94,3.52-4.12Z"/><path class="cls-4" d="M194.7,142.43l-3.19-4.36-3.19,4.36h-1.89l4.07-5.46-3.85-5.17h1.91l2.95,4.05,2.95-4.05h1.91l-3.85,5.17,4.09,5.46h-1.91Z"/><path class="cls-4" d="M198.17,145.09c.24,.11,.64,.18,.9,.18,.72,0,1.21-.24,1.58-1.12l.7-1.61-4.44-10.74h1.78l3.54,8.71,3.52-8.71h1.8l-5.32,12.78c-.64,1.54-1.72,2.13-3.12,2.16-.35,0-.9-.06-1.21-.15l.26-1.5Z"/><path class="cls-4" d="M210.1,143.93c.88,1.06,1.94,1.45,3.45,1.45,1.76,0,3.41-.86,3.41-3.19v-1.52c-.77,1.08-2.07,1.89-3.56,1.89-2.77,0-4.73-2.07-4.73-5.5s1.94-5.52,4.73-5.52c1.43,0,2.71,.7,3.56,1.87v-1.61h1.65v10.32c0,3.52-2.46,4.62-5.06,4.62-1.8,0-3.04-.35-4.29-1.58l.84-1.23Zm6.86-9.2c-.57-.92-1.85-1.71-3.17-1.71-2.13,0-3.41,1.69-3.41,4.05s1.28,4.05,3.41,4.05c1.32,0,2.6-.81,3.17-1.74v-4.64Z"/><path class="cls-4" d="M226.53,131.54c3.21,0,5.11,2.51,5.11,5.7v.42h-8.6c.13,2,1.54,3.67,3.83,3.67,1.21,0,2.44-.48,3.28-1.34l.79,1.08c-1.06,1.06-2.49,1.63-4.22,1.63-3.15,0-5.41-2.27-5.41-5.59,0-3.08,2.2-5.57,5.24-5.57Zm-3.5,4.91h6.97c-.02-1.58-1.08-3.54-3.5-3.54-2.27,0-3.39,1.91-3.48,3.54Z"/><path class="cls-4" d="M241.47,142.43v-6.95c0-1.87-.95-2.46-2.38-2.46-1.3,0-2.53,.79-3.15,1.65v7.77h-1.65v-10.63h1.65v1.54c.75-.88,2.2-1.8,3.78-1.8,2.22,0,3.39,1.12,3.39,3.43v7.46h-1.65Z"/><path class="cls-4" d="M258.74,142.43v-1.21c-.88,.97-2.09,1.47-3.52,1.47-1.8,0-3.72-1.21-3.72-3.52s1.91-3.5,3.72-3.5c1.45,0,2.66,.46,3.52,1.45v-1.91c0-1.43-1.14-2.24-2.68-2.24-1.28,0-2.31,.46-3.26,1.47l-.77-1.14c1.14-1.19,2.51-1.76,4.25-1.76,2.24,0,4.11,1.01,4.11,3.59v7.3h-1.65Zm0-4.25c-.64-.88-1.76-1.32-2.93-1.32-1.54,0-2.62,.97-2.62,2.33s1.08,2.31,2.62,2.31c1.17,0,2.29-.44,2.93-1.32v-2Z"/><path class="cls-4" d="M266.53,142.43l-4.42-10.63h1.78l3.54,8.71,3.52-8.71h1.8l-4.42,10.63h-1.8Z"/><path class="cls-4" d="M281.11,142.43v-1.21c-.88,.97-2.09,1.47-3.52,1.47-1.8,0-3.72-1.21-3.72-3.52s1.91-3.5,3.72-3.5c1.45,0,2.66,.46,3.52,1.45v-1.91c0-1.43-1.14-2.24-2.69-2.24-1.28,0-2.31,.46-3.26,1.47l-.77-1.14c1.14-1.19,2.51-1.76,4.25-1.76,2.24,0,4.12,1.01,4.12,3.59v7.3h-1.65Zm0-4.25c-.64-.88-1.76-1.32-2.93-1.32-1.54,0-2.62,.97-2.62,2.33s1.08,2.31,2.62,2.31c1.17,0,2.29-.44,2.93-1.32v-2Z"/><path class="cls-4" d="M285.78,128.9c0-.62,.51-1.1,1.1-1.1s1.12,.48,1.12,1.1-.51,1.12-1.12,1.12-1.1-.51-1.1-1.12Zm.29,13.53v-10.63h1.65v10.63h-1.65Z"/><path class="cls-4" d="M291.01,142.43v-14.68h1.65v14.68h-1.65Z"/><path class="cls-4" d="M302.61,142.43v-1.21c-.88,.97-2.09,1.47-3.52,1.47-1.8,0-3.72-1.21-3.72-3.52s1.91-3.5,3.72-3.5c1.45,0,2.66,.46,3.52,1.45v-1.91c0-1.43-1.14-2.24-2.69-2.24-1.28,0-2.31,.46-3.26,1.47l-.77-1.14c1.14-1.19,2.51-1.76,4.25-1.76,2.24,0,4.12,1.01,4.12,3.59v7.3h-1.65Zm0-4.25c-.64-.88-1.76-1.32-2.93-1.32-1.54,0-2.62,.97-2.62,2.33s1.08,2.31,2.62,2.31c1.17,0,2.29-.44,2.93-1.32v-2Z"/><path class="cls-4" d="M307.56,142.43v-14.68h1.65v5.65c.86-1.17,2.13-1.87,3.59-1.87,2.77,0,4.73,2.2,4.73,5.59s-1.96,5.57-4.73,5.57c-1.5,0-2.79-.77-3.59-1.85v1.58h-1.65Zm1.65-2.88c.57,.93,1.87,1.67,3.17,1.67,2.16,0,3.43-1.74,3.43-4.09s-1.28-4.11-3.43-4.11c-1.3,0-2.6,.79-3.17,1.71v4.82Z"/><path class="cls-4" d="M319.92,128.9c0-.62,.51-1.1,1.1-1.1s1.12,.48,1.12,1.1-.51,1.12-1.12,1.12-1.1-.51-1.1-1.12Zm.29,13.53v-10.63h1.65v10.63h-1.65Z"/><path class="cls-4" d="M325.16,142.43v-14.68h1.65v14.68h-1.65Z"/><path class="cls-4" d="M329.82,128.9c0-.62,.51-1.1,1.1-1.1s1.12,.48,1.12,1.1-.51,1.12-1.12,1.12-1.1-.51-1.1-1.12Zm.29,13.53v-10.63h1.65v10.63h-1.65Z"/><path class="cls-4" d="M335.39,140.21v-6.95h-1.76v-1.45h1.76v-2.9h1.65v2.9h2.16v1.45h-2.16v6.6c0,.79,.35,1.37,1.08,1.37,.46,0,.9-.2,1.12-.44l.48,1.23c-.42,.4-1.01,.68-1.98,.68-1.56,0-2.36-.9-2.36-2.49Z"/><path class="cls-4" d="M341.2,145.09c.24,.11,.64,.18,.9,.18,.72,0,1.21-.24,1.58-1.12l.7-1.61-4.44-10.74h1.78l3.54,8.71,3.52-8.71h1.8l-5.32,12.78c-.64,1.54-1.72,2.13-3.12,2.16-.35,0-.9-.06-1.21-.15l.26-1.5Z"/><path class="cls-4" d="M350.66,144.54c.7-.46,1.34-1.32,1.43-2.05-.04,.02-.2,.04-.31,.04-.62,0-1.05-.46-1.05-1.12s.51-1.19,1.17-1.19c.73,0,1.39,.62,1.39,1.67,0,1.34-.79,2.6-1.8,3.32l-.81-.68Z"/><path class="cls-4" d="M370.98,142.43l-2.77-8.54-2.77,8.54h-1.65l-3.39-10.63h1.72l2.6,8.47,2.79-8.47h1.41l2.79,8.47,2.6-8.47h1.72l-3.39,10.63h-1.65Z"/><path class="cls-4" d="M385.13,142.43v-7c0-1.87-.97-2.42-2.4-2.42-1.28,0-2.51,.79-3.15,1.65v7.77h-1.65v-14.68h1.65v5.59c.75-.88,2.2-1.8,3.81-1.8,2.22,0,3.39,1.08,3.39,3.39v7.5h-1.65Z"/><path class="cls-4" d="M389.79,128.9c0-.62,.51-1.1,1.1-1.1s1.12,.48,1.12,1.1-.51,1.12-1.12,1.12-1.1-.51-1.1-1.12Zm.29,13.53v-10.63h1.65v10.63h-1.65Z"/><path class="cls-4" d="M399.71,131.54c1.94,0,3.08,.79,3.89,1.85l-1.1,1.01c-.71-.97-1.61-1.38-2.71-1.38-2.27,0-3.67,1.74-3.67,4.09s1.41,4.12,3.67,4.12c1.1,0,2-.44,2.71-1.39l1.1,1.01c-.81,1.06-1.96,1.85-3.89,1.85-3.17,0-5.3-2.42-5.3-5.59s2.13-5.57,5.3-5.57Z"/><path class="cls-4" d="M413.11,142.43v-7c0-1.87-.97-2.42-2.4-2.42-1.28,0-2.51,.79-3.15,1.65v7.77h-1.65v-14.68h1.65v5.59c.75-.88,2.2-1.8,3.81-1.8,2.22,0,3.39,1.08,3.39,3.39v7.5h-1.65Z"/><path class="cls-4" d="M430.38,142.43v-1.21c-.88,.97-2.09,1.47-3.52,1.47-1.8,0-3.72-1.21-3.72-3.52s1.91-3.5,3.72-3.5c1.45,0,2.66,.46,3.52,1.45v-1.91c0-1.43-1.14-2.24-2.69-2.24-1.28,0-2.31,.46-3.26,1.47l-.77-1.14c1.14-1.19,2.51-1.76,4.25-1.76,2.24,0,4.12,1.01,4.12,3.59v7.3h-1.65Zm0-4.25c-.64-.88-1.76-1.32-2.93-1.32-1.54,0-2.62,.97-2.62,2.33s1.08,2.31,2.62,2.31c1.17,0,2.29-.44,2.93-1.32v-2Z"/><path class="cls-4" d="M435.33,142.43v-14.68h1.65v14.68h-1.65Z"/><path class="cls-4" d="M440.28,142.43v-14.68h1.65v14.68h-1.65Z"/><path class="cls-4" d="M444.61,137.11c0-3.08,2.03-5.57,5.26-5.57s5.26,2.49,5.26,5.57-2.02,5.59-5.26,5.59-5.26-2.51-5.26-5.59Zm8.78,0c0-2.16-1.25-4.09-3.52-4.09s-3.54,1.94-3.54,4.09,1.28,4.12,3.54,4.12,3.52-1.94,3.52-4.12Z"/><path class="cls-4" d="M467.01,142.43l-2.77-8.54-2.77,8.54h-1.65l-3.39-10.63h1.72l2.6,8.47,2.79-8.47h1.41l2.79,8.47,2.6-8.47h1.72l-3.39,10.63h-1.65Z"/><path class="cls-4" d="M473.9,139.83c.71,.81,2.05,1.52,3.5,1.52,1.63,0,2.51-.73,2.51-1.76,0-1.17-1.3-1.54-2.73-1.89-1.8-.42-3.85-.9-3.85-3.1,0-1.65,1.43-3.06,3.96-3.06,1.8,0,3.08,.68,3.94,1.54l-.77,1.14c-.64-.77-1.8-1.34-3.17-1.34-1.45,0-2.35,.66-2.35,1.61,0,1.04,1.21,1.37,2.6,1.7,1.85,.42,3.98,.95,3.98,3.3,0,1.78-1.43,3.21-4.18,3.21-1.74,0-3.21-.53-4.29-1.67l.86-1.19Z"/><path class="cls-4" d="M36.1,168.83v-1.21c-.88,.97-2.09,1.47-3.52,1.47-1.8,0-3.72-1.21-3.72-3.52s1.91-3.5,3.72-3.5c1.45,0,2.66,.46,3.52,1.45v-1.91c0-1.43-1.14-2.24-2.69-2.24-1.28,0-2.31,.46-3.26,1.47l-.77-1.14c1.14-1.19,2.51-1.76,4.25-1.76,2.24,0,4.12,1.01,4.12,3.59v7.3h-1.65Zm0-4.25c-.64-.88-1.76-1.32-2.93-1.32-1.54,0-2.62,.97-2.62,2.33s1.08,2.31,2.62,2.31c1.17,0,2.29-.44,2.93-1.32v-2Z"/><path class="cls-4" d="M45.67,157.94c3.21,0,5.11,2.51,5.11,5.7v.42h-8.6c.13,2,1.54,3.67,3.83,3.67,1.21,0,2.44-.48,3.28-1.34l.79,1.08c-1.06,1.06-2.49,1.63-4.22,1.63-3.15,0-5.41-2.27-5.41-5.59,0-3.08,2.2-5.57,5.24-5.57Zm-3.5,4.91h6.97c-.02-1.59-1.08-3.54-3.5-3.54-2.27,0-3.39,1.91-3.48,3.54Z"/><path class="cls-4" d="M53.44,168.83v-10.63h1.65v1.72c.86-1.12,2.09-1.94,3.54-1.94v1.69c-.2-.04-.4-.07-.66-.07-1.01,0-2.4,.84-2.88,1.7v7.53h-1.65Z"/><path class="cls-4" d="M60.08,163.5c0-3.08,2.02-5.57,5.26-5.57s5.26,2.49,5.26,5.57-2.03,5.59-5.26,5.59-5.26-2.51-5.26-5.59Zm8.78,0c0-2.16-1.25-4.09-3.52-4.09s-3.54,1.94-3.54,4.09,1.28,4.12,3.54,4.12,3.52-1.94,3.52-4.12Z"/><path class="cls-4" d="M73.28,168.83v-14.68h1.65v5.65c.86-1.17,2.13-1.87,3.59-1.87,2.77,0,4.73,2.2,4.73,5.59s-1.96,5.57-4.73,5.57c-1.5,0-2.79-.77-3.59-1.85v1.58h-1.65Zm1.65-2.88c.57,.92,1.87,1.67,3.17,1.67,2.16,0,3.43-1.74,3.43-4.09s-1.28-4.12-3.43-4.12c-1.3,0-2.6,.79-3.17,1.72v4.82Z"/><path class="cls-4" d="M85.65,155.3c0-.62,.51-1.1,1.1-1.1s1.12,.48,1.12,1.1-.51,1.12-1.12,1.12-1.1-.51-1.1-1.12Zm.29,13.53v-10.63h1.65v10.63h-1.65Z"/><path class="cls-4" d="M95.57,157.94c1.94,0,3.08,.79,3.89,1.85l-1.1,1.01c-.71-.97-1.61-1.39-2.71-1.39-2.27,0-3.67,1.74-3.67,4.09s1.41,4.12,3.67,4.12c1.1,0,2-.44,2.71-1.39l1.1,1.01c-.81,1.05-1.96,1.85-3.89,1.85-3.17,0-5.3-2.42-5.3-5.59s2.13-5.57,5.3-5.57Z"/><path class="cls-4" d="M120.27,168.83v-7.22c0-1.34-.59-2.2-1.96-2.2-1.1,0-2.27,.79-2.82,1.63v7.79h-1.65v-7.22c0-1.34-.57-2.2-1.96-2.2-1.08,0-2.22,.79-2.79,1.65v7.77h-1.65v-10.63h1.65v1.54c.44-.68,1.87-1.8,3.43-1.8s2.55,.88,2.86,1.98c.59-.97,2.03-1.98,3.56-1.98,1.94,0,2.97,1.08,2.97,3.21v7.68h-1.65Z"/><path class="cls-4" d="M124.94,155.3c0-.62,.51-1.1,1.1-1.1s1.12,.48,1.12,1.1-.51,1.12-1.12,1.12-1.1-.51-1.1-1.12Zm.29,13.53v-10.63h1.65v10.63h-1.65Z"/><path class="cls-4" d="M134.86,157.94c1.94,0,3.08,.79,3.89,1.85l-1.1,1.01c-.7-.97-1.61-1.39-2.71-1.39-2.27,0-3.68,1.74-3.68,4.09s1.41,4.12,3.68,4.12c1.1,0,2-.44,2.71-1.39l1.1,1.01c-.81,1.05-1.96,1.85-3.89,1.85-3.17,0-5.3-2.42-5.3-5.59s2.13-5.57,5.3-5.57Z"/><path class="cls-4" d="M141.06,168.83v-10.63h1.65v1.72c.86-1.12,2.09-1.94,3.54-1.94v1.69c-.2-.04-.39-.07-.66-.07-1.01,0-2.4,.84-2.88,1.7v7.53h-1.65Z"/><path class="cls-4" d="M147.71,163.5c0-3.08,2.03-5.57,5.26-5.57s5.26,2.49,5.26,5.57-2.02,5.59-5.26,5.59-5.26-2.51-5.26-5.59Zm8.78,0c0-2.16-1.25-4.09-3.52-4.09s-3.54,1.94-3.54,4.09,1.28,4.12,3.54,4.12,3.52-1.94,3.52-4.12Z"/><path class="cls-4" d="M160.91,168.83v-14.68h1.65v5.65c.86-1.17,2.13-1.87,3.59-1.87,2.77,0,4.73,2.2,4.73,5.59s-1.96,5.57-4.73,5.57c-1.5,0-2.79-.77-3.59-1.85v1.58h-1.65Zm1.65-2.88c.57,.92,1.87,1.67,3.17,1.67,2.16,0,3.43-1.74,3.43-4.09s-1.28-4.12-3.43-4.12c-1.3,0-2.6,.79-3.17,1.72v4.82Z"/><path class="cls-4" d="M173.27,155.3c0-.62,.51-1.1,1.1-1.1s1.12,.48,1.12,1.1-.51,1.12-1.12,1.12-1.1-.51-1.1-1.12Zm.29,13.53v-10.63h1.65v10.63h-1.65Z"/><path class="cls-4" d="M185.15,168.83v-1.21c-.88,.97-2.09,1.47-3.52,1.47-1.8,0-3.72-1.21-3.72-3.52s1.91-3.5,3.72-3.5c1.45,0,2.66,.46,3.52,1.45v-1.91c0-1.43-1.14-2.24-2.68-2.24-1.28,0-2.31,.46-3.26,1.47l-.77-1.14c1.14-1.19,2.51-1.76,4.25-1.76,2.24,0,4.11,1.01,4.11,3.59v7.3h-1.65Zm0-4.25c-.64-.88-1.76-1.32-2.93-1.32-1.54,0-2.62,.97-2.62,2.33s1.08,2.31,2.62,2.31c1.17,0,2.29-.44,2.93-1.32v-2Z"/><path class="cls-4" d="M190.1,168.83v-14.68h1.65v14.68h-1.65Z"/><path class="cls-4" d="M200.11,163.5c0-3.08,2.03-5.57,5.26-5.57s5.26,2.49,5.26,5.57-2.02,5.59-5.26,5.59-5.26-2.51-5.26-5.59Zm8.78,0c0-2.16-1.25-4.09-3.52-4.09s-3.54,1.94-3.54,4.09,1.28,4.12,3.54,4.12,3.52-1.94,3.52-4.12Z"/><path class="cls-4" d="M219.52,168.83l-3.19-4.36-3.19,4.36h-1.89l4.07-5.46-3.85-5.17h1.91l2.95,4.05,2.95-4.05h1.91l-3.85,5.17,4.09,5.46h-1.91Z"/><path class="cls-4" d="M223.03,155.3c0-.62,.51-1.1,1.1-1.1s1.12,.48,1.12,1.1-.51,1.12-1.12,1.12-1.1-.51-1.1-1.12Zm.29,13.53v-10.63h1.65v10.63h-1.65Z"/><path class="cls-4" d="M235.97,168.83v-1.58c-.79,1.08-2.09,1.85-3.59,1.85-2.77,0-4.73-2.11-4.73-5.57s1.94-5.59,4.73-5.59c1.43,0,2.73,.71,3.59,1.87v-5.65h1.65v14.68h-1.65Zm0-7.7c-.59-.92-1.87-1.72-3.19-1.72-2.13,0-3.41,1.76-3.41,4.12s1.28,4.09,3.41,4.09c1.32,0,2.6-.75,3.19-1.67v-4.82Z"/><path class="cls-4" d="M247.57,168.83v-1.21c-.88,.97-2.09,1.47-3.52,1.47-1.8,0-3.72-1.21-3.72-3.52s1.91-3.5,3.72-3.5c1.45,0,2.66,.46,3.52,1.45v-1.91c0-1.43-1.14-2.24-2.68-2.24-1.28,0-2.31,.46-3.26,1.47l-.77-1.14c1.14-1.19,2.51-1.76,4.25-1.76,2.24,0,4.11,1.01,4.11,3.59v7.3h-1.65Zm0-4.25c-.64-.88-1.76-1.32-2.93-1.32-1.54,0-2.62,.97-2.62,2.33s1.08,2.31,2.62,2.31c1.17,0,2.29-.44,2.93-1.32v-2Z"/><path class="cls-4" d="M252.84,166.61v-6.95h-1.76v-1.45h1.76v-2.9h1.65v2.9h2.16v1.45h-2.16v6.6c0,.79,.35,1.36,1.08,1.36,.46,0,.9-.2,1.12-.44l.48,1.23c-.42,.39-1.01,.68-1.98,.68-1.56,0-2.36-.9-2.36-2.49Z"/><path class="cls-4" d="M258.7,155.3c0-.62,.51-1.1,1.1-1.1s1.12,.48,1.12,1.1-.51,1.12-1.12,1.12-1.1-.51-1.1-1.12Zm.29,13.53v-10.63h1.65v10.63h-1.65Z"/><path class="cls-4" d="M263.32,163.5c0-3.08,2.02-5.57,5.26-5.57s5.26,2.49,5.26,5.57-2.03,5.59-5.26,5.59-5.26-2.51-5.26-5.59Zm8.78,0c0-2.16-1.25-4.09-3.52-4.09s-3.54,1.94-3.54,4.09,1.28,4.12,3.54,4.12,3.52-1.94,3.52-4.12Z"/><path class="cls-4" d="M283.69,168.83v-6.95c0-1.87-.95-2.46-2.38-2.46-1.3,0-2.53,.79-3.15,1.65v7.77h-1.65v-10.63h1.65v1.54c.75-.88,2.2-1.8,3.79-1.8,2.22,0,3.39,1.12,3.39,3.43v7.46h-1.65Z"/><path class="cls-4" d="M293.7,163.5c0-3.08,2.03-5.57,5.26-5.57s5.26,2.49,5.26,5.57-2.02,5.59-5.26,5.59-5.26-2.51-5.26-5.59Zm8.78,0c0-2.16-1.25-4.09-3.52-4.09s-3.54,1.94-3.54,4.09,1.28,4.12,3.54,4.12,3.52-1.94,3.52-4.12Z"/><path class="cls-4" d="M309.01,159.65v9.18h-1.65v-9.18h-1.76v-1.45h1.76v-.81c0-2.2,1.23-3.46,3.08-3.46,.62,0,1.19,.11,1.61,.37l-.42,1.23c-.26-.15-.57-.24-.95-.24-1.08,0-1.67,.75-1.67,2.09v.81h2.16v1.45h-2.16Z"/><path class="cls-4" d="M323.49,157.94c1.94,0,3.08,.79,3.89,1.85l-1.1,1.01c-.7-.97-1.61-1.39-2.71-1.39-2.27,0-3.68,1.74-3.68,4.09s1.41,4.12,3.68,4.12c1.1,0,2-.44,2.71-1.39l1.1,1.01c-.81,1.05-1.96,1.85-3.89,1.85-3.17,0-5.3-2.42-5.3-5.59s2.13-5.57,5.3-5.57Z"/><path class="cls-4" d="M336.33,168.83v-1.21c-.88,.97-2.09,1.47-3.52,1.47-1.8,0-3.72-1.21-3.72-3.52s1.91-3.5,3.72-3.5c1.45,0,2.66,.46,3.52,1.45v-1.91c0-1.43-1.14-2.24-2.69-2.24-1.28,0-2.31,.46-3.26,1.47l-.77-1.14c1.14-1.19,2.51-1.76,4.25-1.76,2.24,0,4.12,1.01,4.12,3.59v7.3h-1.65Zm0-4.25c-.64-.88-1.76-1.32-2.93-1.32-1.54,0-2.62,.97-2.62,2.33s1.08,2.31,2.62,2.31c1.17,0,2.29-.44,2.93-1.32v-2Z"/><path class="cls-4" d="M341.28,168.83v-10.63h1.65v1.72c.86-1.12,2.09-1.94,3.54-1.94v1.69c-.2-.04-.39-.07-.66-.07-1.01,0-2.4,.84-2.88,1.7v7.53h-1.65Z"/><path class="cls-4" d="M348.54,168.83v-14.68h1.65v5.65c.86-1.17,2.13-1.87,3.59-1.87,2.77,0,4.73,2.2,4.73,5.59s-1.96,5.57-4.73,5.57c-1.5,0-2.79-.77-3.59-1.85v1.58h-1.65Zm1.65-2.88c.57,.92,1.87,1.67,3.17,1.67,2.16,0,3.43-1.74,3.43-4.09s-1.28-4.12-3.43-4.12c-1.3,0-2.6,.79-3.17,1.72v4.82Z"/><path class="cls-4" d="M360.58,163.5c0-3.08,2.03-5.57,5.26-5.57s5.26,2.49,5.26,5.57-2.02,5.59-5.26,5.59-5.26-2.51-5.26-5.59Zm8.78,0c0-2.16-1.25-4.09-3.52-4.09s-3.54,1.94-3.54,4.09,1.28,4.12,3.54,4.12,3.52-1.94,3.52-4.12Z"/><path class="cls-4" d="M380.95,168.83v-6.95c0-1.87-.95-2.46-2.38-2.46-1.3,0-2.53,.79-3.15,1.65v7.77h-1.65v-10.63h1.65v1.54c.75-.88,2.2-1.8,3.78-1.8,2.22,0,3.39,1.12,3.39,3.43v7.46h-1.65Z"/><path class="cls-4" d="M398.22,168.83v-1.21c-.88,.97-2.09,1.47-3.52,1.47-1.8,0-3.72-1.21-3.72-3.52s1.91-3.5,3.72-3.5c1.45,0,2.66,.46,3.52,1.45v-1.91c0-1.43-1.14-2.24-2.68-2.24-1.28,0-2.31,.46-3.26,1.47l-.77-1.14c1.14-1.19,2.51-1.76,4.25-1.76,2.24,0,4.11,1.01,4.11,3.59v7.3h-1.65Zm0-4.25c-.64-.88-1.76-1.32-2.93-1.32-1.54,0-2.62,.97-2.62,2.33s1.08,2.31,2.62,2.31c1.17,0,2.29-.44,2.93-1.32v-2Z"/><path class="cls-4" d="M410.34,168.83v-6.95c0-1.87-.95-2.46-2.38-2.46-1.3,0-2.53,.79-3.15,1.65v7.77h-1.65v-10.63h1.65v1.54c.75-.88,2.2-1.8,3.79-1.8,2.22,0,3.39,1.12,3.39,3.43v7.46h-1.65Z"/><path class="cls-4" d="M422.99,168.83v-1.58c-.79,1.08-2.09,1.85-3.59,1.85-2.77,0-4.73-2.11-4.73-5.57s1.94-5.59,4.73-5.59c1.43,0,2.73,.71,3.59,1.87v-5.65h1.65v14.68h-1.65Zm0-7.7c-.6-.92-1.87-1.72-3.19-1.72-2.13,0-3.41,1.76-3.41,4.12s1.28,4.09,3.41,4.09c1.32,0,2.6-.75,3.19-1.67v-4.82Z"/><path class="cls-4" d="M29.46,195.23v-10.63h1.65v1.72c.86-1.12,2.09-1.94,3.54-1.94v1.69c-.2-.04-.39-.07-.66-.07-1.01,0-2.4,.84-2.88,1.7v7.53h-1.65Z"/><path class="cls-4" d="M41.34,184.34c3.21,0,5.11,2.51,5.11,5.7v.42h-8.6c.13,2,1.54,3.67,3.83,3.67,1.21,0,2.44-.48,3.28-1.34l.79,1.08c-1.06,1.06-2.49,1.63-4.22,1.63-3.15,0-5.41-2.27-5.41-5.59,0-3.08,2.2-5.57,5.24-5.57Zm-3.5,4.91h6.97c-.02-1.59-1.08-3.54-3.5-3.54-2.27,0-3.39,1.91-3.48,3.54Z"/><path class="cls-4" d="M49.1,195.23v-14.68h1.65v14.68h-1.65Z"/><path class="cls-4" d="M58.67,184.34c3.21,0,5.11,2.51,5.11,5.7v.42h-8.6c.13,2,1.54,3.67,3.83,3.67,1.21,0,2.44-.48,3.28-1.34l.79,1.08c-1.06,1.06-2.49,1.63-4.22,1.63-3.15,0-5.41-2.27-5.41-5.59,0-3.08,2.2-5.57,5.24-5.57Zm-3.5,4.91h6.97c-.02-1.59-1.08-3.54-3.5-3.54-2.27,0-3.39,1.91-3.48,3.54Z"/><path class="cls-4" d="M73.08,195.23v-1.21c-.88,.97-2.09,1.47-3.52,1.47-1.8,0-3.72-1.21-3.72-3.52s1.91-3.5,3.72-3.5c1.45,0,2.66,.46,3.52,1.45v-1.91c0-1.43-1.14-2.24-2.68-2.24-1.28,0-2.31,.46-3.26,1.47l-.77-1.14c1.14-1.19,2.51-1.76,4.25-1.76,2.24,0,4.11,1.01,4.11,3.59v7.3h-1.65Zm0-4.25c-.64-.88-1.76-1.32-2.93-1.32-1.54,0-2.62,.97-2.62,2.33s1.08,2.31,2.62,2.31c1.17,0,2.29-.44,2.93-1.32v-2Z"/><path class="cls-4" d="M77.97,192.63c.71,.81,2.05,1.52,3.5,1.52,1.63,0,2.51-.73,2.51-1.76,0-1.17-1.3-1.54-2.73-1.89-1.8-.42-3.85-.9-3.85-3.1,0-1.65,1.43-3.06,3.96-3.06,1.8,0,3.08,.68,3.94,1.54l-.77,1.14c-.64-.77-1.8-1.34-3.17-1.34-1.45,0-2.35,.66-2.35,1.61,0,1.03,1.21,1.36,2.6,1.69,1.85,.42,3.98,.95,3.98,3.3,0,1.78-1.43,3.21-4.18,3.21-1.74,0-3.21-.53-4.29-1.67l.86-1.19Z"/><path class="cls-4" d="M92.88,184.34c3.21,0,5.11,2.51,5.11,5.7v.42h-8.6c.13,2,1.54,3.67,3.83,3.67,1.21,0,2.44-.48,3.28-1.34l.79,1.08c-1.06,1.06-2.49,1.63-4.22,1.63-3.15,0-5.41-2.27-5.41-5.59,0-3.08,2.2-5.57,5.24-5.57Zm-3.5,4.91h6.97c-.02-1.59-1.08-3.54-3.5-3.54-2.27,0-3.39,1.91-3.48,3.54Z"/><path class="cls-4" d="M106.32,195.23v-14.68h1.65v5.65c.86-1.17,2.13-1.87,3.59-1.87,2.77,0,4.73,2.2,4.73,5.59s-1.96,5.57-4.73,5.57c-1.5,0-2.79-.77-3.59-1.85v1.58h-1.65Zm1.65-2.88c.57,.92,1.87,1.67,3.17,1.67,2.16,0,3.43-1.74,3.43-4.09s-1.28-4.12-3.43-4.12c-1.3,0-2.6,.79-3.17,1.72v4.82Z"/><path class="cls-4" d="M125.62,195.23v-1.21c-.88,.97-2.09,1.47-3.52,1.47-1.8,0-3.72-1.21-3.72-3.52s1.91-3.5,3.72-3.5c1.45,0,2.66,.46,3.52,1.45v-1.91c0-1.43-1.14-2.24-2.68-2.24-1.28,0-2.31,.46-3.26,1.47l-.77-1.14c1.14-1.19,2.51-1.76,4.25-1.76,2.24,0,4.11,1.01,4.11,3.59v7.3h-1.65Zm0-4.25c-.64-.88-1.76-1.32-2.93-1.32-1.54,0-2.62,.97-2.62,2.33s1.08,2.31,2.62,2.31c1.17,0,2.29-.44,2.93-1.32v-2Z"/><path class="cls-4" d="M135.25,184.34c1.94,0,3.08,.79,3.89,1.85l-1.1,1.01c-.7-.97-1.61-1.39-2.71-1.39-2.27,0-3.68,1.74-3.68,4.09s1.41,4.12,3.68,4.12c1.1,0,2-.44,2.71-1.39l1.1,1.01c-.81,1.05-1.96,1.85-3.89,1.85-3.17,0-5.3-2.42-5.3-5.59s2.13-5.57,5.3-5.57Z"/><path class="cls-4" d="M148.7,195.23l-3.83-4.78-1.76,1.74v3.04h-1.65v-14.68h1.65v9.7l5.59-5.66h2.09l-4.71,4.82,4.73,5.81h-2.11Z"/><path class="cls-4" d="M158.77,193.01v-6.95h-1.76v-1.45h1.76v-2.9h1.65v2.9h2.16v1.45h-2.16v6.6c0,.79,.35,1.36,1.08,1.36,.46,0,.9-.2,1.12-.44l.48,1.23c-.42,.39-1.01,.68-1.98,.68-1.56,0-2.36-.9-2.36-2.49Z"/><path class="cls-4" d="M164.29,189.9c0-3.08,2.03-5.57,5.26-5.57s5.26,2.49,5.26,5.57-2.02,5.59-5.26,5.59-5.26-2.51-5.26-5.59Zm8.78,0c0-2.16-1.25-4.09-3.52-4.09s-3.54,1.94-3.54,4.09,1.28,4.12,3.54,4.12,3.52-1.94,3.52-4.12Z"/><path class="cls-4" d="M183.5,193.01v-6.95h-1.76v-1.45h1.76v-2.9h1.65v2.9h2.16v1.45h-2.16v6.6c0,.79,.35,1.36,1.08,1.36,.46,0,.9-.2,1.12-.44l.48,1.23c-.42,.39-1.01,.68-1.98,.68-1.56,0-2.35-.9-2.35-2.49Z"/><path class="cls-4" d="M196.83,195.23v-7c0-1.87-.97-2.42-2.4-2.42-1.28,0-2.51,.79-3.15,1.65v7.77h-1.65v-14.68h1.65v5.59c.75-.88,2.2-1.8,3.81-1.8,2.22,0,3.39,1.08,3.39,3.39v7.5h-1.65Z"/><path class="cls-4" d="M206.4,184.34c3.21,0,5.11,2.51,5.11,5.7v.42h-8.6c.13,2,1.54,3.67,3.83,3.67,1.21,0,2.44-.48,3.28-1.34l.79,1.08c-1.06,1.06-2.49,1.63-4.22,1.63-3.15,0-5.41-2.27-5.41-5.59,0-3.08,2.2-5.57,5.24-5.57Zm-3.5,4.91h6.97c-.02-1.59-1.08-3.54-3.5-3.54-2.27,0-3.39,1.91-3.48,3.54Z"/><path class="cls-4" d="M226.49,195.23v-1.21c-.88,.97-2.09,1.47-3.52,1.47-1.8,0-3.72-1.21-3.72-3.52s1.91-3.5,3.72-3.5c1.45,0,2.66,.46,3.52,1.45v-1.91c0-1.43-1.14-2.24-2.68-2.24-1.28,0-2.31,.46-3.26,1.47l-.77-1.14c1.14-1.19,2.51-1.76,4.25-1.76,2.24,0,4.11,1.01,4.11,3.59v7.3h-1.65Zm0-4.25c-.64-.88-1.76-1.32-2.93-1.32-1.54,0-2.62,.97-2.62,2.33s1.08,2.31,2.62,2.31c1.17,0,2.29-.44,2.93-1.32v-2Z"/><path class="cls-4" d="M231.76,193.01v-6.95h-1.76v-1.45h1.76v-2.9h1.65v2.9h2.16v1.45h-2.16v6.6c0,.79,.35,1.36,1.08,1.36,.46,0,.9-.2,1.12-.44l.48,1.23c-.42,.39-1.01,.68-1.98,.68-1.56,0-2.36-.9-2.36-2.49Z"/><path class="cls-4" d="M250.73,195.23v-7.22c0-1.34-.6-2.2-1.96-2.2-1.1,0-2.27,.79-2.82,1.63v7.79h-1.65v-7.22c0-1.34-.57-2.2-1.96-2.2-1.08,0-2.22,.79-2.79,1.65v7.77h-1.65v-10.63h1.65v1.54c.44-.68,1.87-1.8,3.43-1.8s2.55,.88,2.86,1.98c.59-.97,2.02-1.98,3.56-1.98,1.94,0,2.97,1.08,2.97,3.21v7.68h-1.65Z"/><path class="cls-4" d="M255.06,189.9c0-3.08,2.02-5.57,5.26-5.57s5.26,2.49,5.26,5.57-2.03,5.59-5.26,5.59-5.26-2.51-5.26-5.59Zm8.78,0c0-2.16-1.25-4.09-3.52-4.09s-3.54,1.94-3.54,4.09,1.28,4.12,3.54,4.12,3.52-1.94,3.52-4.12Z"/><path class="cls-4" d="M268.2,192.63c.71,.81,2.05,1.52,3.5,1.52,1.63,0,2.51-.73,2.51-1.76,0-1.17-1.3-1.54-2.73-1.89-1.8-.42-3.85-.9-3.85-3.1,0-1.65,1.43-3.06,3.96-3.06,1.8,0,3.08,.68,3.94,1.54l-.77,1.14c-.64-.77-1.8-1.34-3.17-1.34-1.45,0-2.35,.66-2.35,1.61,0,1.03,1.21,1.36,2.6,1.69,1.85,.42,3.98,.95,3.98,3.3,0,1.78-1.43,3.21-4.18,3.21-1.74,0-3.21-.53-4.29-1.67l.86-1.19Z"/><path class="cls-4" d="M280.14,199.28h-1.65v-14.68h1.65v1.59c.77-1.08,2.09-1.85,3.59-1.85,2.79,0,4.73,2.11,4.73,5.57s-1.94,5.59-4.73,5.59c-1.45,0-2.73-.68-3.59-1.87v5.66Zm3.17-13.47c-1.3,0-2.6,.77-3.17,1.7v4.79c.57,.93,1.87,1.72,3.17,1.72,2.13,0,3.41-1.76,3.41-4.12s-1.28-4.09-3.41-4.09Z"/><path class="cls-4" d="M298.32,195.23v-7c0-1.87-.97-2.42-2.4-2.42-1.28,0-2.51,.79-3.15,1.65v7.77h-1.65v-14.68h1.65v5.59c.75-.88,2.2-1.8,3.81-1.8,2.22,0,3.39,1.08,3.39,3.39v7.5h-1.65Z"/><path class="cls-4" d="M307.88,184.34c3.21,0,5.11,2.51,5.11,5.7v.42h-8.6c.13,2,1.54,3.67,3.83,3.67,1.21,0,2.44-.48,3.28-1.34l.79,1.08c-1.06,1.06-2.49,1.63-4.22,1.63-3.15,0-5.41-2.27-5.41-5.59,0-3.08,2.2-5.57,5.24-5.57Zm-3.5,4.91h6.97c-.02-1.59-1.08-3.54-3.5-3.54-2.27,0-3.39,1.91-3.48,3.54Z"/><path class="cls-4" d="M315.65,195.23v-10.63h1.65v1.72c.86-1.12,2.09-1.94,3.54-1.94v1.69c-.2-.04-.4-.07-.66-.07-1.01,0-2.4,.84-2.88,1.7v7.53h-1.65Z"/><path class="cls-4" d="M327.53,184.34c3.21,0,5.11,2.51,5.11,5.7v.42h-8.6c.13,2,1.54,3.67,3.83,3.67,1.21,0,2.44-.48,3.28-1.34l.79,1.08c-1.06,1.06-2.49,1.63-4.22,1.63-3.15,0-5.41-2.27-5.41-5.59,0-3.08,2.2-5.57,5.24-5.57Zm-3.5,4.91h6.97c-.02-1.59-1.08-3.54-3.5-3.54-2.27,0-3.39,1.91-3.48,3.54Z"/><path class="cls-4" d="M336.02,193.03c.66,0,1.21,.55,1.21,1.21s-.55,1.21-1.21,1.21-1.21-.55-1.21-1.21,.55-1.21,1.21-1.21Z"/><path class="cls-4" d="M356.35,195.23v-6.73h-8.58v6.73h-1.83v-14.68h1.83v6.31h8.58v-6.31h1.83v14.68h-1.83Z"/><path class="cls-4" d="M360.92,189.9c0-3.08,2.03-5.57,5.26-5.57s5.26,2.49,5.26,5.57-2.02,5.59-5.26,5.59-5.26-2.51-5.26-5.59Zm8.78,0c0-2.16-1.25-4.09-3.52-4.09s-3.54,1.94-3.54,4.09,1.28,4.12,3.54,4.12,3.52-1.94,3.52-4.12Z"/><path class="cls-4" d="M383.32,195.23l-2.77-8.54-2.77,8.54h-1.65l-3.39-10.63h1.72l2.6,8.47,2.79-8.47h1.41l2.79,8.47,2.6-8.47h1.72l-3.39,10.63h-1.65Z"/><path class="cls-4" d="M394.89,184.34c3.21,0,5.11,2.51,5.11,5.7v.42h-8.6c.13,2,1.54,3.67,3.83,3.67,1.21,0,2.44-.48,3.28-1.34l.79,1.08c-1.06,1.06-2.49,1.63-4.22,1.63-3.15,0-5.41-2.27-5.41-5.59,0-3.08,2.2-5.57,5.24-5.57Zm-3.5,4.91h6.97c-.02-1.59-1.08-3.54-3.5-3.54-2.27,0-3.39,1.91-3.48,3.54Z"/><path class="cls-4" d="M405.5,195.23l-4.42-10.63h1.78l3.54,8.71,3.52-8.71h1.8l-4.42,10.63h-1.8Z"/><path class="cls-4" d="M418.06,184.34c3.21,0,5.11,2.51,5.11,5.7v.42h-8.6c.13,2,1.54,3.67,3.83,3.67,1.21,0,2.44-.48,3.28-1.34l.79,1.08c-1.06,1.06-2.49,1.63-4.22,1.63-3.15,0-5.41-2.27-5.41-5.59,0-3.08,2.2-5.57,5.24-5.57Zm-3.5,4.91h6.97c-.02-1.59-1.08-3.54-3.5-3.54-2.27,0-3.39,1.91-3.48,3.54Z"/><path class="cls-4" d="M425.83,195.23v-10.63h1.65v1.72c.86-1.12,2.09-1.94,3.54-1.94v1.69c-.2-.04-.39-.07-.66-.07-1.01,0-2.4,.84-2.88,1.7v7.53h-1.65Z"/><path class="cls-4" d="M430.86,197.34c.7-.46,1.34-1.32,1.43-2.04-.04,.02-.2,.04-.31,.04-.62,0-1.05-.46-1.05-1.12s.51-1.19,1.17-1.19c.73,0,1.39,.62,1.39,1.67,0,1.34-.79,2.6-1.8,3.32l-.81-.68Z"/><path class="cls-4" d="M441.71,181.7c0-.62,.51-1.1,1.1-1.1s1.12,.48,1.12,1.1-.51,1.12-1.12,1.12-1.1-.51-1.1-1.12Zm.29,13.53v-10.63h1.65v10.63h-1.65Z"/><path class="cls-4" d="M454.12,195.23v-6.95c0-1.87-.95-2.46-2.38-2.46-1.3,0-2.53,.79-3.15,1.65v7.77h-1.65v-10.63h1.65v1.54c.75-.88,2.2-1.8,3.78-1.8,2.22,0,3.39,1.12,3.39,3.43v7.46h-1.65Z"/><path class="cls-4" d="M29.46,221.63v-14.68h1.65v5.65c.86-1.17,2.13-1.87,3.59-1.87,2.77,0,4.73,2.2,4.73,5.59s-1.96,5.57-4.73,5.57c-1.5,0-2.79-.77-3.59-1.85v1.58h-1.65Zm1.65-2.88c.57,.92,1.87,1.67,3.17,1.67,2.16,0,3.43-1.74,3.43-4.09s-1.28-4.12-3.43-4.12c-1.3,0-2.6,.79-3.17,1.72v4.82Z"/><path class="cls-4" d="M42.11,221.63v-14.68h1.65v14.68h-1.65Z"/><path class="cls-4" d="M54.23,221.63v-1.5c-.81,.92-2.2,1.76-3.79,1.76-2.22,0-3.39-1.08-3.39-3.39v-7.5h1.65v7c0,1.87,.95,2.42,2.38,2.42,1.3,0,2.53-.75,3.15-1.61v-7.81h1.65v10.63h-1.65Z"/><path class="cls-4" d="M63.8,210.74c3.21,0,5.11,2.51,5.11,5.7v.42h-8.6c.13,2,1.54,3.67,3.83,3.67,1.21,0,2.44-.48,3.28-1.34l.79,1.08c-1.06,1.06-2.49,1.63-4.22,1.63-3.15,0-5.41-2.27-5.41-5.59,0-3.08,2.2-5.57,5.24-5.57Zm-3.5,4.91h6.97c-.02-1.59-1.08-3.54-3.5-3.54-2.27,0-3.39,1.91-3.48,3.54Z"/><path class="cls-4" d="M81.93,210.74c1.94,0,3.08,.79,3.89,1.85l-1.1,1.01c-.7-.97-1.61-1.39-2.71-1.39-2.27,0-3.68,1.74-3.68,4.09s1.41,4.12,3.68,4.12c1.1,0,2-.44,2.71-1.39l1.1,1.01c-.81,1.05-1.96,1.85-3.89,1.85-3.17,0-5.3-2.42-5.3-5.59s2.13-5.57,5.3-5.57Z"/><path class="cls-4" d="M94.78,221.63v-1.21c-.88,.97-2.09,1.47-3.52,1.47-1.8,0-3.72-1.21-3.72-3.52s1.91-3.5,3.72-3.5c1.45,0,2.66,.46,3.52,1.45v-1.91c0-1.43-1.14-2.24-2.69-2.24-1.28,0-2.31,.46-3.26,1.47l-.77-1.14c1.14-1.19,2.51-1.76,4.25-1.76,2.24,0,4.12,1.01,4.12,3.59v7.3h-1.65Zm0-4.25c-.64-.88-1.76-1.32-2.93-1.32-1.54,0-2.62,.97-2.62,2.33s1.08,2.31,2.62,2.31c1.17,0,2.29-.44,2.93-1.32v-2Z"/><path class="cls-4" d="M99.73,221.63v-10.63h1.65v1.72c.86-1.12,2.09-1.94,3.54-1.94v1.69c-.2-.04-.39-.07-.66-.07-1.01,0-2.4,.84-2.88,1.7v7.53h-1.65Z"/><path class="cls-4" d="M106.99,221.63v-14.68h1.65v5.65c.86-1.17,2.13-1.87,3.59-1.87,2.77,0,4.73,2.2,4.73,5.59s-1.96,5.57-4.73,5.57c-1.5,0-2.79-.77-3.59-1.85v1.58h-1.65Zm1.65-2.88c.57,.92,1.87,1.67,3.17,1.67,2.16,0,3.43-1.74,3.43-4.09s-1.28-4.12-3.43-4.12c-1.3,0-2.6,.79-3.17,1.72v4.82Z"/><path class="cls-4" d="M119.02,216.3c0-3.08,2.03-5.57,5.26-5.57s5.26,2.49,5.26,5.57-2.02,5.59-5.26,5.59-5.26-2.51-5.26-5.59Zm8.78,0c0-2.16-1.25-4.09-3.52-4.09s-3.54,1.94-3.54,4.09,1.28,4.12,3.54,4.12,3.52-1.94,3.52-4.12Z"/><path class="cls-4" d="M139.39,221.63v-6.95c0-1.87-.95-2.46-2.38-2.46-1.3,0-2.53,.79-3.15,1.65v7.77h-1.65v-10.63h1.65v1.54c.75-.88,2.2-1.8,3.78-1.8,2.22,0,3.39,1.12,3.39,3.43v7.46h-1.65Z"/><path class="cls-4" d="M149.95,219.03c.71,.81,2.05,1.52,3.5,1.52,1.63,0,2.51-.73,2.51-1.76,0-1.17-1.3-1.54-2.73-1.89-1.8-.42-3.85-.9-3.85-3.1,0-1.65,1.43-3.06,3.96-3.06,1.8,0,3.08,.68,3.94,1.54l-.77,1.14c-.64-.77-1.8-1.34-3.17-1.34-1.45,0-2.35,.66-2.35,1.61,0,1.03,1.21,1.36,2.6,1.69,1.85,.42,3.98,.95,3.98,3.3,0,1.78-1.43,3.21-4.18,3.21-1.74,0-3.21-.53-4.29-1.67l.86-1.19Z"/><path class="cls-4" d="M159.92,224.29c.24,.11,.64,.18,.9,.18,.72,0,1.21-.24,1.58-1.12l.7-1.61-4.44-10.74h1.78l3.54,8.71,3.52-8.71h1.8l-5.32,12.79c-.64,1.54-1.72,2.13-3.12,2.16-.35,0-.9-.07-1.21-.15l.26-1.5Z"/><path class="cls-4" d="M170.96,219.03c.7,.81,2.05,1.52,3.5,1.52,1.63,0,2.51-.73,2.51-1.76,0-1.17-1.3-1.54-2.73-1.89-1.8-.42-3.85-.9-3.85-3.1,0-1.65,1.43-3.06,3.96-3.06,1.8,0,3.08,.68,3.94,1.54l-.77,1.14c-.64-.77-1.8-1.34-3.17-1.34-1.45,0-2.36,.66-2.36,1.61,0,1.03,1.21,1.36,2.6,1.69,1.85,.42,3.98,.95,3.98,3.3,0,1.78-1.43,3.21-4.18,3.21-1.74,0-3.21-.53-4.29-1.67l.86-1.19Z"/><path class="cls-4" d="M181.58,219.41v-6.95h-1.76v-1.45h1.76v-2.9h1.65v2.9h2.16v1.45h-2.16v6.6c0,.79,.35,1.36,1.08,1.36,.46,0,.9-.2,1.12-.44l.48,1.23c-.42,.39-1.01,.68-1.98,.68-1.56,0-2.36-.9-2.36-2.49Z"/><path class="cls-4" d="M192.34,210.74c3.21,0,5.11,2.51,5.11,5.7v.42h-8.6c.13,2,1.54,3.67,3.83,3.67,1.21,0,2.44-.48,3.28-1.34l.79,1.08c-1.06,1.06-2.49,1.63-4.22,1.63-3.15,0-5.41-2.27-5.41-5.59,0-3.08,2.2-5.57,5.24-5.57Zm-3.5,4.91h6.97c-.02-1.59-1.08-3.54-3.5-3.54-2.27,0-3.39,1.91-3.48,3.54Z"/><path class="cls-4" d="M212.94,221.63v-7.22c0-1.34-.59-2.2-1.96-2.2-1.1,0-2.27,.79-2.82,1.63v7.79h-1.65v-7.22c0-1.34-.57-2.2-1.96-2.2-1.08,0-2.22,.79-2.79,1.65v7.77h-1.65v-10.63h1.65v1.54c.44-.68,1.87-1.8,3.43-1.8s2.55,.88,2.86,1.98c.59-.97,2.03-1.98,3.56-1.98,1.94,0,2.97,1.08,2.97,3.21v7.68h-1.65Z"/><path class="cls-4" d="M217.82,219.03c.7,.81,2.05,1.52,3.5,1.52,1.63,0,2.51-.73,2.51-1.76,0-1.17-1.3-1.54-2.73-1.89-1.8-.42-3.85-.9-3.85-3.1,0-1.65,1.43-3.06,3.96-3.06,1.8,0,3.08,.68,3.94,1.54l-.77,1.14c-.64-.77-1.8-1.34-3.17-1.34-1.45,0-2.36,.66-2.36,1.61,0,1.03,1.21,1.36,2.6,1.69,1.85,.42,3.98,.95,3.98,3.3,0,1.78-1.43,3.21-4.18,3.21-1.74,0-3.21-.53-4.29-1.67l.86-1.19Z"/><path class="cls-4" d="M227.72,223.74c.71-.46,1.34-1.32,1.43-2.04-.04,.02-.2,.04-.31,.04-.62,0-1.06-.46-1.06-1.12s.51-1.19,1.17-1.19c.73,0,1.39,.62,1.39,1.67,0,1.34-.79,2.6-1.8,3.32l-.81-.68Z"/><path class="cls-4" d="M239.18,219.41v-6.95h-1.76v-1.45h1.76v-2.9h1.65v2.9h2.16v1.45h-2.16v6.6c0,.79,.35,1.36,1.08,1.36,.46,0,.9-.2,1.12-.44l.48,1.23c-.42,.39-1.01,.68-1.98,.68-1.56,0-2.35-.9-2.35-2.49Z"/><path class="cls-4" d="M252.51,221.63v-7c0-1.87-.97-2.42-2.4-2.42-1.28,0-2.51,.79-3.15,1.65v7.77h-1.65v-14.68h1.65v5.59c.75-.88,2.2-1.8,3.81-1.8,2.22,0,3.39,1.08,3.39,3.39v7.5h-1.65Z"/><path class="cls-4" d="M262.08,210.74c3.21,0,5.11,2.51,5.11,5.7v.42h-8.6c.13,2,1.54,3.67,3.83,3.67,1.21,0,2.44-.48,3.28-1.34l.79,1.08c-1.06,1.06-2.49,1.63-4.22,1.63-3.15,0-5.41-2.27-5.41-5.59,0-3.08,2.2-5.57,5.24-5.57Zm-3.5,4.91h6.97c-.02-1.59-1.08-3.54-3.5-3.54-2.27,0-3.39,1.91-3.48,3.54Z"/><path class="cls-4" d="M275.46,219.03c.71,.81,2.05,1.52,3.5,1.52,1.63,0,2.51-.73,2.51-1.76,0-1.17-1.3-1.54-2.73-1.89-1.8-.42-3.85-.9-3.85-3.1,0-1.65,1.43-3.06,3.96-3.06,1.8,0,3.08,.68,3.94,1.54l-.77,1.14c-.64-.77-1.8-1.34-3.17-1.34-1.45,0-2.35,.66-2.35,1.61,0,1.03,1.21,1.36,2.6,1.69,1.85,.42,3.98,.95,3.98,3.3,0,1.78-1.43,3.21-4.18,3.21-1.74,0-3.21-.53-4.29-1.67l.86-1.19Z"/><path class="cls-4" d="M285.14,216.3c0-3.08,2.03-5.57,5.26-5.57s5.26,2.49,5.26,5.57-2.02,5.59-5.26,5.59-5.26-2.51-5.26-5.59Zm8.78,0c0-2.16-1.25-4.09-3.52-4.09s-3.54,1.94-3.54,4.09,1.28,4.12,3.54,4.12,3.52-1.94,3.52-4.12Z"/><path class="cls-4" d="M298.05,208.1c0-.62,.51-1.1,1.1-1.1s1.12,.48,1.12,1.1-.51,1.12-1.12,1.12-1.1-.51-1.1-1.12Zm.29,13.53v-10.63h1.65v10.63h-1.65Z"/><path class="cls-4" d="M303.29,221.63v-14.68h1.65v14.68h-1.65Z"/><path class="cls-4" d="M313.63,208.1c0-.62,.51-1.1,1.1-1.1s1.12,.48,1.12,1.1-.51,1.12-1.12,1.12-1.1-.51-1.1-1.12Zm.29,13.53v-10.63h1.65v10.63h-1.65Z"/><path class="cls-4" d="M318.8,219.03c.71,.81,2.05,1.52,3.5,1.52,1.63,0,2.51-.73,2.51-1.76,0-1.17-1.3-1.54-2.73-1.89-1.8-.42-3.85-.9-3.85-3.1,0-1.65,1.43-3.06,3.96-3.06,1.8,0,3.08,.68,3.94,1.54l-.77,1.14c-.64-.77-1.8-1.34-3.17-1.34-1.45,0-2.35,.66-2.35,1.61,0,1.03,1.21,1.36,2.6,1.69,1.85,.42,3.98,.95,3.98,3.3,0,1.78-1.43,3.21-4.18,3.21-1.74,0-3.21-.53-4.29-1.67l.86-1.19Z"/><path class="cls-4" d="M334.7,219.03c.7,.81,2.05,1.52,3.5,1.52,1.63,0,2.51-.73,2.51-1.76,0-1.17-1.3-1.54-2.73-1.89-1.8-.42-3.85-.9-3.85-3.1,0-1.65,1.43-3.06,3.96-3.06,1.8,0,3.08,.68,3.94,1.54l-.77,1.14c-.64-.77-1.8-1.34-3.17-1.34-1.45,0-2.36,.66-2.36,1.61,0,1.03,1.21,1.36,2.6,1.69,1.85,.42,3.98,.95,3.98,3.3,0,1.78-1.43,3.21-4.18,3.21-1.74,0-3.21-.53-4.29-1.67l.86-1.19Z"/><path class="cls-4" d="M351.64,221.63v-1.21c-.88,.97-2.09,1.47-3.52,1.47-1.8,0-3.72-1.21-3.72-3.52s1.91-3.5,3.72-3.5c1.45,0,2.66,.46,3.52,1.45v-1.91c0-1.43-1.14-2.24-2.68-2.24-1.28,0-2.31,.46-3.26,1.47l-.77-1.14c1.14-1.19,2.51-1.76,4.25-1.76,2.24,0,4.11,1.01,4.11,3.59v7.3h-1.65Zm0-4.25c-.64-.88-1.76-1.32-2.93-1.32-1.54,0-2.62,.97-2.62,2.33s1.08,2.31,2.62,2.31c1.17,0,2.29-.44,2.93-1.32v-2Z"/><path class="cls-4" d="M356.92,219.41v-6.95h-1.76v-1.45h1.76v-2.9h1.65v2.9h2.16v1.45h-2.16v6.6c0,.79,.35,1.36,1.08,1.36,.46,0,.9-.2,1.12-.44l.48,1.23c-.42,.39-1.01,.68-1.98,.68-1.56,0-2.36-.9-2.36-2.49Z"/><path class="cls-4" d="M370.23,221.63v-1.5c-.81,.92-2.2,1.76-3.78,1.76-2.22,0-3.39-1.08-3.39-3.39v-7.5h1.65v7c0,1.87,.95,2.42,2.38,2.42,1.3,0,2.53-.75,3.15-1.61v-7.81h1.65v10.63h-1.65Z"/><path class="cls-4" d="M375.18,221.63v-10.63h1.65v1.72c.86-1.12,2.09-1.94,3.54-1.94v1.69c-.2-.04-.4-.07-.66-.07-1.01,0-2.4,.84-2.88,1.7v7.53h-1.65Z"/><path class="cls-4" d="M389.08,221.63v-1.21c-.88,.97-2.09,1.47-3.52,1.47-1.8,0-3.72-1.21-3.72-3.52s1.91-3.5,3.72-3.5c1.45,0,2.66,.46,3.52,1.45v-1.91c0-1.43-1.14-2.24-2.68-2.24-1.28,0-2.31,.46-3.26,1.47l-.77-1.14c1.14-1.19,2.51-1.76,4.25-1.76,2.24,0,4.11,1.01,4.11,3.59v7.3h-1.65Zm0-4.25c-.64-.88-1.76-1.32-2.93-1.32-1.54,0-2.62,.97-2.62,2.33s1.08,2.31,2.62,2.31c1.17,0,2.29-.44,2.93-1.32v-2Z"/><path class="cls-4" d="M394.36,219.41v-6.95h-1.76v-1.45h1.76v-2.9h1.65v2.9h2.16v1.45h-2.16v6.6c0,.79,.35,1.36,1.08,1.36,.46,0,.9-.2,1.12-.44l.48,1.23c-.42,.39-1.01,.68-1.98,.68-1.56,0-2.36-.9-2.36-2.49Z"/><path class="cls-4" d="M405.12,210.74c3.21,0,5.11,2.51,5.11,5.7v.42h-8.6c.13,2,1.54,3.67,3.83,3.67,1.21,0,2.44-.48,3.28-1.34l.79,1.08c-1.06,1.06-2.49,1.63-4.22,1.63-3.15,0-5.41-2.27-5.41-5.59,0-3.08,2.2-5.57,5.24-5.57Zm-3.5,4.91h6.97c-.02-1.59-1.08-3.54-3.5-3.54-2.27,0-3.39,1.91-3.48,3.54Z"/><path class="cls-4" d="M420.59,221.63v-1.58c-.79,1.08-2.09,1.85-3.59,1.85-2.77,0-4.73-2.11-4.73-5.57s1.94-5.59,4.73-5.59c1.43,0,2.73,.71,3.59,1.87v-5.65h1.65v14.68h-1.65Zm0-7.7c-.59-.92-1.87-1.72-3.19-1.72-2.13,0-3.41,1.76-3.41,4.12s1.28,4.09,3.41,4.09c1.32,0,2.6-.75,3.19-1.67v-4.82Z"/><path class="cls-4" d="M440.41,221.63l-2.77-8.54-2.77,8.54h-1.65l-3.39-10.63h1.72l2.6,8.47,2.79-8.47h1.41l2.79,8.47,2.6-8.47h1.72l-3.39,10.63h-1.65Z"/><path class="cls-4" d="M447.08,208.1c0-.62,.51-1.1,1.1-1.1s1.12,.48,1.12,1.1-.51,1.12-1.12,1.12-1.1-.51-1.1-1.12Zm.29,13.53v-10.63h1.65v10.63h-1.65Z"/><path class="cls-4" d="M452.64,219.41v-6.95h-1.76v-1.45h1.76v-2.9h1.65v2.9h2.16v1.45h-2.16v6.6c0,.79,.35,1.36,1.08,1.36,.46,0,.9-.2,1.12-.44l.48,1.23c-.42,.39-1.01,.68-1.98,.68-1.56,0-2.36-.9-2.36-2.49Z"/><path class="cls-4" d="M465.98,221.63v-7c0-1.87-.97-2.42-2.4-2.42-1.28,0-2.51,.79-3.15,1.65v7.77h-1.65v-14.68h1.65v5.59c.75-.88,2.2-1.8,3.81-1.8,2.22,0,3.39,1.08,3.39,3.39v7.5h-1.65Z"/><path class="cls-4" d="M38.66,248.03l-2.77-8.54-2.77,8.54h-1.65l-3.39-10.63h1.72l2.6,8.47,2.79-8.47h1.41l2.79,8.47,2.6-8.47h1.72l-3.39,10.63h-1.65Z"/><path class="cls-4" d="M52.25,248.03v-1.21c-.88,.97-2.09,1.47-3.52,1.47-1.8,0-3.72-1.21-3.72-3.52s1.91-3.5,3.72-3.5c1.45,0,2.66,.46,3.52,1.45v-1.91c0-1.43-1.14-2.24-2.68-2.24-1.28,0-2.31,.46-3.26,1.47l-.77-1.14c1.14-1.19,2.51-1.76,4.25-1.76,2.24,0,4.11,1.01,4.11,3.59v7.3h-1.65Zm0-4.25c-.64-.88-1.76-1.32-2.93-1.32-1.54,0-2.62,.97-2.62,2.33s1.08,2.31,2.62,2.31c1.17,0,2.29-.44,2.93-1.32v-2Z"/><path class="cls-4" d="M57.53,245.81v-6.95h-1.76v-1.45h1.76v-2.9h1.65v2.9h2.16v1.45h-2.16v6.6c0,.79,.35,1.37,1.08,1.37,.46,0,.9-.2,1.12-.44l.48,1.23c-.42,.4-1.01,.68-1.98,.68-1.56,0-2.36-.9-2.36-2.49Z"/><path class="cls-4" d="M68.29,237.14c3.21,0,5.11,2.51,5.11,5.7v.42h-8.6c.13,2,1.54,3.67,3.83,3.67,1.21,0,2.44-.48,3.28-1.34l.79,1.08c-1.06,1.06-2.49,1.63-4.22,1.63-3.15,0-5.41-2.27-5.41-5.59,0-3.08,2.2-5.57,5.24-5.57Zm-3.5,4.91h6.97c-.02-1.58-1.08-3.54-3.5-3.54-2.27,0-3.39,1.91-3.48,3.54Z"/><path class="cls-4" d="M76.05,248.03v-10.63h1.65v1.72c.86-1.12,2.09-1.94,3.54-1.94v1.7c-.2-.04-.4-.07-.66-.07-1.01,0-2.4,.84-2.88,1.69v7.53h-1.65Z"/><path class="cls-4" d="M89.32,245.81v-6.95h-1.76v-1.45h1.76v-2.9h1.65v2.9h2.16v1.45h-2.16v6.6c0,.79,.35,1.37,1.08,1.37,.46,0,.9-.2,1.12-.44l.48,1.23c-.42,.4-1.01,.68-1.98,.68-1.56,0-2.36-.9-2.36-2.49Z"/><path class="cls-4" d="M102.65,248.03v-7c0-1.87-.97-2.42-2.4-2.42-1.28,0-2.51,.79-3.15,1.65v7.77h-1.65v-14.68h1.65v5.59c.75-.88,2.2-1.8,3.81-1.8,2.22,0,3.39,1.08,3.39,3.39v7.5h-1.65Z"/><path class="cls-4" d="M114.24,248.03v-1.21c-.88,.97-2.09,1.47-3.52,1.47-1.8,0-3.72-1.21-3.72-3.52s1.91-3.5,3.72-3.5c1.45,0,2.66,.46,3.52,1.45v-1.91c0-1.43-1.14-2.24-2.68-2.24-1.28,0-2.31,.46-3.26,1.47l-.77-1.14c1.14-1.19,2.51-1.76,4.25-1.76,2.24,0,4.11,1.01,4.11,3.59v7.3h-1.65Zm0-4.25c-.64-.88-1.76-1.32-2.93-1.32-1.54,0-2.62,.97-2.62,2.33s1.08,2.31,2.62,2.31c1.17,0,2.29-.44,2.93-1.32v-2Z"/><path class="cls-4" d="M119.52,245.81v-6.95h-1.76v-1.45h1.76v-2.9h1.65v2.9h2.16v1.45h-2.16v6.6c0,.79,.35,1.37,1.08,1.37,.46,0,.9-.2,1.12-.44l.48,1.23c-.42,.4-1.01,.68-1.98,.68-1.56,0-2.36-.9-2.36-2.49Z"/><path class="cls-4" d="M138.58,248.03l-3.83-4.77-1.76,1.74v3.04h-1.65v-14.68h1.65v9.7l5.59-5.65h2.09l-4.71,4.82,4.73,5.81h-2.11Z"/><path class="cls-4" d="M146.76,237.14c3.21,0,5.11,2.51,5.11,5.7v.42h-8.6c.13,2,1.54,3.67,3.83,3.67,1.21,0,2.44-.48,3.28-1.34l.79,1.08c-1.06,1.06-2.49,1.63-4.22,1.63-3.15,0-5.41-2.27-5.41-5.59,0-3.08,2.2-5.57,5.24-5.57Zm-3.5,4.91h6.97c-.02-1.58-1.08-3.54-3.5-3.54-2.27,0-3.39,1.91-3.48,3.54Z"/><path class="cls-4" d="M159.14,237.14c3.21,0,5.11,2.51,5.11,5.7v.42h-8.6c.13,2,1.54,3.67,3.83,3.67,1.21,0,2.44-.48,3.28-1.34l.79,1.08c-1.06,1.06-2.49,1.63-4.22,1.63-3.15,0-5.41-2.27-5.41-5.59,0-3.08,2.2-5.57,5.24-5.57Zm-3.5,4.91h6.97c-.02-1.58-1.08-3.54-3.5-3.54-2.27,0-3.39,1.91-3.48,3.54Z"/><path class="cls-4" d="M168.56,252.08h-1.65v-14.68h1.65v1.58c.77-1.08,2.09-1.85,3.59-1.85,2.79,0,4.73,2.11,4.73,5.57s-1.94,5.59-4.73,5.59c-1.45,0-2.73-.68-3.59-1.87v5.65Zm3.17-13.46c-1.3,0-2.6,.77-3.17,1.69v4.8c.57,.92,1.87,1.72,3.17,1.72,2.13,0,3.41-1.76,3.41-4.12s-1.28-4.09-3.41-4.09Z"/><path class="cls-4" d="M179.47,245.43c.7,.81,2.05,1.52,3.5,1.52,1.63,0,2.51-.73,2.51-1.76,0-1.17-1.3-1.54-2.73-1.89-1.8-.42-3.85-.9-3.85-3.1,0-1.65,1.43-3.06,3.96-3.06,1.8,0,3.08,.68,3.94,1.54l-.77,1.14c-.64-.77-1.8-1.34-3.17-1.34-1.45,0-2.36,.66-2.36,1.61,0,1.04,1.21,1.37,2.6,1.7,1.85,.42,3.98,.95,3.98,3.3,0,1.78-1.43,3.21-4.18,3.21-1.74,0-3.21-.53-4.29-1.67l.86-1.19Z"/><path class="cls-4" d="M195.16,234.5c0-.62,.51-1.1,1.1-1.1s1.12,.48,1.12,1.1-.51,1.12-1.12,1.12-1.1-.51-1.1-1.12Zm.29,13.53v-10.63h1.65v10.63h-1.65Z"/><path class="cls-4" d="M200.72,245.81v-6.95h-1.76v-1.45h1.76v-2.9h1.65v2.9h2.16v1.45h-2.16v6.6c0,.79,.35,1.37,1.08,1.37,.46,0,.9-.2,1.12-.44l.48,1.23c-.42,.4-1.01,.68-1.98,.68-1.56,0-2.35-.9-2.35-2.49Z"/><path class="cls-4" d="M212.25,234.5c0-.62,.51-1.1,1.1-1.1s1.12,.48,1.12,1.1-.51,1.12-1.12,1.12-1.1-.51-1.1-1.12Zm.29,13.53v-10.63h1.65v10.63h-1.65Z"/><path class="cls-4" d="M224.66,248.03v-6.95c0-1.87-.95-2.46-2.38-2.46-1.3,0-2.53,.79-3.15,1.65v7.77h-1.65v-10.63h1.65v1.54c.75-.88,2.2-1.8,3.78-1.8,2.22,0,3.39,1.12,3.39,3.43v7.46h-1.65Z"/><path class="cls-4" d="M241.93,248.03v-1.21c-.88,.97-2.09,1.47-3.52,1.47-1.8,0-3.72-1.21-3.72-3.52s1.91-3.5,3.72-3.5c1.45,0,2.66,.46,3.52,1.45v-1.91c0-1.43-1.14-2.24-2.68-2.24-1.28,0-2.31,.46-3.26,1.47l-.77-1.14c1.14-1.19,2.51-1.76,4.25-1.76,2.24,0,4.11,1.01,4.11,3.59v7.3h-1.65Zm0-4.25c-.64-.88-1.76-1.32-2.93-1.32-1.54,0-2.62,.97-2.62,2.33s1.08,2.31,2.62,2.31c1.17,0,2.29-.44,2.93-1.32v-2Z"/><path class="cls-4" d="M254.05,248.03v-6.95c0-1.87-.95-2.46-2.38-2.46-1.3,0-2.53,.79-3.15,1.65v7.77h-1.65v-10.63h1.65v1.54c.75-.88,2.2-1.8,3.79-1.8,2.22,0,3.39,1.12,3.39,3.43v7.46h-1.65Z"/><path class="cls-2" d="M270.79,248.03v-1.1c-.73,.86-1.98,1.36-3.37,1.36-1.7,0-3.7-1.14-3.7-3.52s2-3.39,3.7-3.39c1.41,0,2.66,.44,3.37,1.3v-1.47c0-1.08-.93-1.78-2.33-1.78-1.14,0-2.2,.42-3.1,1.26l-1.06-1.87c1.3-1.14,2.97-1.67,4.64-1.67,2.42,0,4.64,.97,4.64,4.03v6.87h-2.79Zm0-3.87c-.46-.62-1.34-.93-2.25-.93-1.1,0-2,.6-2,1.61s.9,1.56,2,1.56c.9,0,1.78-.31,2.25-.93v-1.32Z"/><path class="cls-2" d="M283.53,248.03v-6.42c0-1.47-.77-1.98-1.96-1.98-1.1,0-1.96,.62-2.42,1.25v7.15h-2.79v-10.63h2.79v1.39c.68-.81,1.98-1.65,3.72-1.65,2.33,0,3.45,1.32,3.45,3.39v7.5h-2.79Z"/><path class="cls-2" d="M295.48,248.03v-1.1c-.73,.86-1.98,1.36-3.37,1.36-1.69,0-3.7-1.14-3.7-3.52s2-3.39,3.7-3.39c1.41,0,2.66,.44,3.37,1.3v-1.47c0-1.08-.92-1.78-2.33-1.78-1.14,0-2.2,.42-3.1,1.26l-1.05-1.87c1.3-1.14,2.97-1.67,4.64-1.67,2.42,0,4.64,.97,4.64,4.03v6.87h-2.79Zm0-3.87c-.46-.62-1.34-.93-2.24-.93-1.1,0-2,.6-2,1.61s.9,1.56,2,1.56c.9,0,1.78-.31,2.24-.93v-1.32Z"/><path class="cls-2" d="M305.86,237.14c3.17,0,5.32,2.38,5.32,5.85v.62h-7.9c.18,1.34,1.25,2.46,3.06,2.46,.99,0,2.16-.4,2.84-1.06l1.23,1.8c-1.08,.99-2.73,1.47-4.38,1.47-3.23,0-5.68-2.18-5.68-5.59,0-3.08,2.27-5.57,5.5-5.57Zm-2.62,4.58h5.24c-.07-1.01-.77-2.35-2.62-2.35-1.74,0-2.49,1.3-2.62,2.35Z"/><path class="cls-2" d="M313.21,248.03v-10.63h2.79v1.45c.75-.95,2.07-1.69,3.39-1.69v2.73c-.2-.04-.46-.07-.77-.07-.92,0-2.16,.51-2.62,1.19v7.02h-2.79Z"/><path class="cls-2" d="M320.45,242.7c0-3.01,2.11-5.57,5.61-5.57s5.63,2.55,5.63,5.57-2.11,5.59-5.63,5.59-5.61-2.55-5.61-5.59Zm8.34,0c0-1.65-.99-3.08-2.73-3.08s-2.71,1.43-2.71,3.08,.97,3.1,2.71,3.1,2.73-1.43,2.73-3.1Z"/><path class="cls-2" d="M333.76,248.03v-14.68h2.79v5.41c.84-1.08,2.02-1.63,3.28-1.63,2.71,0,4.71,2.11,4.71,5.59s-2.02,5.57-4.71,5.57c-1.28,0-2.44-.57-3.28-1.61v1.34h-2.79Zm2.79-3.41c.46,.68,1.5,1.19,2.4,1.19,1.63,0,2.71-1.23,2.71-3.08s-1.08-3.1-2.71-3.1c-.9,0-1.94,.53-2.4,1.23v3.76Z"/><path class="cls-2" d="M346.36,234.17c0-.92,.77-1.67,1.67-1.67s1.67,.75,1.67,1.67-.75,1.67-1.67,1.67-1.67-.75-1.67-1.67Zm.29,13.86v-10.63h2.79v10.63h-2.79Z"/><path class="cls-2" d="M357.16,237.14c2.18,0,3.5,.95,4.2,1.94l-1.83,1.7c-.51-.73-1.28-1.14-2.24-1.14-1.69,0-2.88,1.23-2.88,3.08s1.19,3.1,2.88,3.1c.97,0,1.74-.44,2.24-1.14l1.83,1.69c-.7,.99-2.02,1.94-4.2,1.94-3.28,0-5.63-2.31-5.63-5.59s2.35-5.57,5.63-5.57Z"/><path class="cls-2" d="M369.11,244.69c.77,.73,2.36,1.45,3.68,1.45,1.21,0,1.78-.42,1.78-1.08,0-.75-.92-1.01-2.13-1.25-1.83-.35-4.18-.79-4.18-3.32,0-1.78,1.56-3.34,4.36-3.34,1.8,0,3.23,.62,4.27,1.45l-1.1,1.91c-.64-.68-1.85-1.23-3.15-1.23-1.01,0-1.67,.37-1.67,.99,0,.66,.84,.9,2.02,1.14,1.83,.35,4.27,.84,4.27,3.48,0,1.96-1.65,3.41-4.6,3.41-1.85,0-3.63-.62-4.75-1.65l1.21-1.96Z"/><path class="cls-2" d="M379.87,245.39v-5.54h-1.76v-2.44h1.76v-2.9h2.82v2.9h2.16v2.44h-2.16v4.8c0,.66,.35,1.17,.97,1.17,.42,0,.81-.15,.97-.31l.59,2.11c-.42,.38-1.17,.68-2.33,.68-1.96,0-3.01-1.01-3.01-2.9Z"/><path class="cls-2" d="M393.13,248.03v-1.1c-.73,.86-1.98,1.36-3.37,1.36-1.69,0-3.7-1.14-3.7-3.52s2-3.39,3.7-3.39c1.41,0,2.66,.44,3.37,1.3v-1.47c0-1.08-.92-1.78-2.33-1.78-1.14,0-2.2,.42-3.1,1.26l-1.05-1.87c1.3-1.14,2.97-1.67,4.64-1.67,2.42,0,4.64,.97,4.64,4.03v6.87h-2.79Zm0-3.87c-.46-.62-1.34-.93-2.24-.93-1.1,0-2,.6-2,1.61s.9,1.56,2,1.56c.9,0,1.78-.31,2.24-.93v-1.32Z"/><path class="cls-2" d="M399.25,245.39v-5.54h-1.76v-2.44h1.76v-2.9h2.82v2.9h2.16v2.44h-2.16v4.8c0,.66,.35,1.17,.97,1.17,.42,0,.81-.15,.97-.31l.59,2.11c-.42,.38-1.17,.68-2.33,.68-1.96,0-3.02-1.01-3.02-2.9Z"/><path class="cls-2" d="M410.95,237.14c3.17,0,5.32,2.38,5.32,5.85v.62h-7.9c.18,1.34,1.25,2.46,3.06,2.46,.99,0,2.16-.4,2.84-1.06l1.23,1.8c-1.08,.99-2.73,1.47-4.38,1.47-3.23,0-5.68-2.18-5.68-5.59,0-3.08,2.27-5.57,5.5-5.57Zm-2.62,4.58h5.24c-.07-1.01-.77-2.35-2.62-2.35-1.74,0-2.49,1.3-2.62,2.35Z"/><path class="cls-4" d="M430.89,248.03v-1.21c-.88,.97-2.09,1.47-3.52,1.47-1.8,0-3.72-1.21-3.72-3.52s1.91-3.5,3.72-3.5c1.45,0,2.66,.46,3.52,1.45v-1.91c0-1.43-1.14-2.24-2.69-2.24-1.28,0-2.31,.46-3.26,1.47l-.77-1.14c1.14-1.19,2.51-1.76,4.25-1.76,2.24,0,4.12,1.01,4.12,3.59v7.3h-1.65Zm0-4.25c-.64-.88-1.76-1.32-2.93-1.32-1.54,0-2.62,.97-2.62,2.33s1.08,2.31,2.62,2.31c1.17,0,2.29-.44,2.93-1.32v-2Z"/><path class="cls-4" d="M443.01,248.03v-6.95c0-1.87-.95-2.46-2.38-2.46-1.3,0-2.53,.79-3.15,1.65v7.77h-1.65v-10.63h1.65v1.54c.75-.88,2.2-1.8,3.78-1.8,2.22,0,3.39,1.12,3.39,3.43v7.46h-1.65Z"/><path class="cls-4" d="M455.66,248.03v-1.58c-.79,1.08-2.09,1.85-3.59,1.85-2.77,0-4.73-2.11-4.73-5.57s1.94-5.59,4.73-5.59c1.43,0,2.73,.7,3.59,1.87v-5.65h1.65v14.68h-1.65Zm0-7.7c-.59-.92-1.87-1.71-3.19-1.71-2.13,0-3.41,1.76-3.41,4.11s1.28,4.09,3.41,4.09c1.32,0,2.6-.75,3.19-1.67v-4.82Z"/><path class="cls-4" d="M34.14,263.54c1.94,0,3.08,.79,3.89,1.85l-1.1,1.01c-.71-.97-1.61-1.38-2.71-1.38-2.27,0-3.67,1.74-3.67,4.09s1.41,4.12,3.67,4.12c1.1,0,2-.44,2.71-1.39l1.1,1.01c-.81,1.06-1.96,1.85-3.89,1.85-3.17,0-5.3-2.42-5.3-5.59s2.13-5.57,5.3-5.57Z"/><path class="cls-4" d="M39.73,269.11c0-3.08,2.02-5.57,5.26-5.57s5.26,2.49,5.26,5.57-2.03,5.59-5.26,5.59-5.26-2.51-5.26-5.59Zm8.78,0c0-2.16-1.25-4.09-3.52-4.09s-3.54,1.94-3.54,4.09,1.28,4.12,3.54,4.12,3.52-1.94,3.52-4.12Z"/><path class="cls-4" d="M60.1,274.43v-6.95c0-1.87-.95-2.46-2.38-2.46-1.3,0-2.53,.79-3.15,1.65v7.77h-1.65v-10.63h1.65v1.54c.75-.88,2.2-1.8,3.79-1.8,2.22,0,3.39,1.12,3.39,3.43v7.46h-1.65Z"/><path class="cls-4" d="M64.99,271.83c.7,.81,2.05,1.52,3.5,1.52,1.63,0,2.51-.73,2.51-1.76,0-1.17-1.3-1.54-2.73-1.89-1.8-.42-3.85-.9-3.85-3.1,0-1.65,1.43-3.06,3.96-3.06,1.8,0,3.08,.68,3.94,1.54l-.77,1.14c-.64-.77-1.8-1.34-3.17-1.34-1.45,0-2.36,.66-2.36,1.61,0,1.04,1.21,1.37,2.6,1.7,1.85,.42,3.98,.95,3.98,3.3,0,1.78-1.43,3.21-4.18,3.21-1.74,0-3.21-.53-4.29-1.67l.86-1.19Z"/><path class="cls-4" d="M75.61,272.21v-6.95h-1.76v-1.45h1.76v-2.9h1.65v2.9h2.16v1.45h-2.16v6.6c0,.79,.35,1.37,1.08,1.37,.46,0,.9-.2,1.12-.44l.48,1.23c-.42,.4-1.01,.68-1.98,.68-1.56,0-2.36-.9-2.36-2.49Z"/><path class="cls-4" d="M88.4,274.43v-1.21c-.88,.97-2.09,1.47-3.52,1.47-1.8,0-3.72-1.21-3.72-3.52s1.91-3.5,3.72-3.5c1.45,0,2.66,.46,3.52,1.45v-1.91c0-1.43-1.14-2.24-2.69-2.24-1.28,0-2.31,.46-3.26,1.47l-.77-1.14c1.14-1.19,2.51-1.76,4.25-1.76,2.24,0,4.12,1.01,4.12,3.59v7.3h-1.65Zm0-4.25c-.64-.88-1.76-1.32-2.93-1.32-1.54,0-2.62,.97-2.62,2.33s1.08,2.31,2.62,2.31c1.17,0,2.29-.44,2.93-1.32v-2Z"/><path class="cls-4" d="M100.52,274.43v-6.95c0-1.87-.95-2.46-2.38-2.46-1.3,0-2.53,.79-3.15,1.65v7.77h-1.65v-10.63h1.65v1.54c.75-.88,2.2-1.8,3.78-1.8,2.22,0,3.39,1.12,3.39,3.43v7.46h-1.65Z"/><path class="cls-4" d="M105.8,272.21v-6.95h-1.76v-1.45h1.76v-2.9h1.65v2.9h2.16v1.45h-2.16v6.6c0,.79,.35,1.37,1.08,1.37,.46,0,.9-.2,1.12-.44l.48,1.23c-.42,.4-1.01,.68-1.98,.68-1.56,0-2.36-.9-2.36-2.49Z"/><path class="cls-4" d="M111.93,274.43v-14.68h1.65v14.68h-1.65Z"/><path class="cls-4" d="M116.55,277.09c.24,.11,.64,.18,.9,.18,.73,0,1.21-.24,1.58-1.12l.71-1.61-4.45-10.74h1.78l3.54,8.71,3.52-8.71h1.8l-5.33,12.78c-.64,1.54-1.71,2.13-3.12,2.16-.35,0-.9-.06-1.21-.15l.26-1.5Z"/><path class="cls-4" d="M133.05,260.9c0-.62,.51-1.1,1.1-1.1s1.12,.48,1.12,1.1-.51,1.12-1.12,1.12-1.1-.51-1.1-1.12Zm.29,13.53v-10.63h1.65v10.63h-1.65Z"/><path class="cls-4" d="M145.46,274.43v-6.95c0-1.87-.95-2.46-2.38-2.46-1.3,0-2.53,.79-3.15,1.65v7.77h-1.65v-10.63h1.65v1.54c.75-.88,2.2-1.8,3.79-1.8,2.22,0,3.39,1.12,3.39,3.43v7.46h-1.65Z"/><path class="cls-4" d="M155.1,263.54c1.94,0,3.08,.79,3.89,1.85l-1.1,1.01c-.71-.97-1.61-1.38-2.71-1.38-2.27,0-3.67,1.74-3.67,4.09s1.41,4.12,3.67,4.12c1.1,0,2-.44,2.71-1.39l1.1,1.01c-.81,1.06-1.96,1.85-3.89,1.85-3.17,0-5.3-2.42-5.3-5.59s2.13-5.57,5.3-5.57Z"/><path class="cls-4" d="M161.3,274.43v-10.63h1.65v1.72c.86-1.12,2.09-1.94,3.54-1.94v1.7c-.2-.04-.4-.07-.66-.07-1.01,0-2.4,.84-2.88,1.69v7.53h-1.65Z"/><path class="cls-4" d="M173.18,263.54c3.21,0,5.11,2.51,5.11,5.7v.42h-8.6c.13,2,1.54,3.67,3.83,3.67,1.21,0,2.44-.48,3.28-1.34l.79,1.08c-1.06,1.06-2.49,1.63-4.22,1.63-3.15,0-5.41-2.27-5.41-5.59,0-3.08,2.2-5.57,5.24-5.57Zm-3.5,4.91h6.97c-.02-1.58-1.08-3.54-3.5-3.54-2.27,0-3.39,1.91-3.48,3.54Z"/><path class="cls-4" d="M187.59,274.43v-1.21c-.88,.97-2.09,1.47-3.52,1.47-1.8,0-3.72-1.21-3.72-3.52s1.91-3.5,3.72-3.5c1.45,0,2.66,.46,3.52,1.45v-1.91c0-1.43-1.14-2.24-2.69-2.24-1.28,0-2.31,.46-3.26,1.47l-.77-1.14c1.14-1.19,2.51-1.76,4.25-1.76,2.24,0,4.12,1.01,4.12,3.59v7.3h-1.65Zm0-4.25c-.64-.88-1.76-1.32-2.93-1.32-1.54,0-2.62,.97-2.62,2.33s1.08,2.31,2.62,2.31c1.17,0,2.29-.44,2.93-1.32v-2Z"/><path class="cls-4" d="M192.48,271.83c.7,.81,2.05,1.52,3.5,1.52,1.63,0,2.51-.73,2.51-1.76,0-1.17-1.3-1.54-2.73-1.89-1.8-.42-3.85-.9-3.85-3.1,0-1.65,1.43-3.06,3.96-3.06,1.8,0,3.08,.68,3.94,1.54l-.77,1.14c-.64-.77-1.8-1.34-3.17-1.34-1.45,0-2.36,.66-2.36,1.61,0,1.04,1.21,1.37,2.6,1.7,1.85,.42,3.98,.95,3.98,3.3,0,1.78-1.43,3.21-4.18,3.21-1.74,0-3.21-.53-4.29-1.67l.86-1.19Z"/><path class="cls-4" d="M202.49,260.9c0-.62,.51-1.1,1.1-1.1s1.12,.48,1.12,1.1-.51,1.12-1.12,1.12-1.1-.51-1.1-1.12Zm.29,13.53v-10.63h1.65v10.63h-1.65Z"/><path class="cls-4" d="M214.89,274.43v-6.95c0-1.87-.95-2.46-2.38-2.46-1.3,0-2.53,.79-3.15,1.65v7.77h-1.65v-10.63h1.65v1.54c.75-.88,2.2-1.8,3.78-1.8,2.22,0,3.39,1.12,3.39,3.43v7.46h-1.65Z"/><path class="cls-4" d="M220.66,275.93c.88,1.06,1.94,1.45,3.46,1.45,1.76,0,3.41-.86,3.41-3.19v-1.52c-.77,1.08-2.07,1.89-3.56,1.89-2.77,0-4.73-2.07-4.73-5.5s1.94-5.52,4.73-5.52c1.43,0,2.71,.7,3.56,1.87v-1.61h1.65v10.32c0,3.52-2.46,4.62-5.06,4.62-1.8,0-3.04-.35-4.29-1.58l.84-1.23Zm6.87-9.2c-.57-.92-1.85-1.71-3.17-1.71-2.13,0-3.41,1.69-3.41,4.05s1.28,4.05,3.41,4.05c1.32,0,2.6-.81,3.17-1.74v-4.64Z"/><path class="cls-4" d="M240.99,274.43l-4.42-10.63h1.78l3.54,8.71,3.52-8.71h1.8l-4.42,10.63h-1.8Z"/><path class="cls-4" d="M253.55,263.54c3.21,0,5.11,2.51,5.11,5.7v.42h-8.6c.13,2,1.54,3.67,3.83,3.67,1.21,0,2.44-.48,3.28-1.34l.79,1.08c-1.06,1.06-2.49,1.63-4.22,1.63-3.15,0-5.41-2.27-5.41-5.59,0-3.08,2.2-5.57,5.24-5.57Zm-3.5,4.91h6.97c-.02-1.58-1.08-3.54-3.5-3.54-2.27,0-3.39,1.91-3.48,3.54Z"/><path class="cls-4" d="M261.31,274.43v-10.63h1.65v1.72c.86-1.12,2.09-1.94,3.54-1.94v1.7c-.2-.04-.4-.07-.66-.07-1.01,0-2.4,.84-2.88,1.69v7.53h-1.65Z"/><path class="cls-4" d="M268.9,272.21v-6.95h-1.76v-1.45h1.76v-2.9h1.65v2.9h2.16v1.45h-2.16v6.6c0,.79,.35,1.37,1.08,1.37,.46,0,.9-.2,1.12-.44l.48,1.23c-.42,.4-1.01,.68-1.98,.68-1.56,0-2.36-.9-2.36-2.49Z"/><path class="cls-4" d="M274.75,260.9c0-.62,.51-1.1,1.1-1.1s1.12,.48,1.12,1.1-.51,1.12-1.12,1.12-1.1-.51-1.1-1.12Zm.29,13.53v-10.63h1.65v10.63h-1.65Z"/><path class="cls-4" d="M284.68,263.54c1.94,0,3.08,.79,3.89,1.85l-1.1,1.01c-.7-.97-1.61-1.38-2.71-1.38-2.27,0-3.68,1.74-3.68,4.09s1.41,4.12,3.68,4.12c1.1,0,2-.44,2.71-1.39l1.1,1.01c-.81,1.06-1.96,1.85-3.89,1.85-3.17,0-5.3-2.42-5.3-5.59s2.13-5.57,5.3-5.57Z"/><path class="cls-4" d="M297.52,274.43v-1.21c-.88,.97-2.09,1.47-3.52,1.47-1.8,0-3.72-1.21-3.72-3.52s1.91-3.5,3.72-3.5c1.45,0,2.66,.46,3.52,1.45v-1.91c0-1.43-1.14-2.24-2.69-2.24-1.28,0-2.31,.46-3.26,1.47l-.77-1.14c1.14-1.19,2.51-1.76,4.25-1.76,2.24,0,4.12,1.01,4.12,3.59v7.3h-1.65Zm0-4.25c-.64-.88-1.76-1.32-2.93-1.32-1.54,0-2.62,.97-2.62,2.33s1.08,2.31,2.62,2.31c1.17,0,2.29-.44,2.93-1.32v-2Z"/><path class="cls-4" d="M302.47,274.43v-14.68h1.65v14.68h-1.65Z"/><path class="cls-4" d="M307.42,274.43v-14.68h1.65v14.68h-1.65Z"/><path class="cls-4" d="M312.04,277.09c.24,.11,.64,.18,.9,.18,.72,0,1.21-.24,1.58-1.12l.7-1.61-4.44-10.74h1.78l3.54,8.71,3.52-8.71h1.8l-5.32,12.78c-.64,1.54-1.72,2.13-3.12,2.16-.35,0-.9-.06-1.21-.15l.26-1.5Z"/><path class="cls-4" d="M335.47,274.43v-1.21c-.88,.97-2.09,1.47-3.52,1.47-1.8,0-3.72-1.21-3.72-3.52s1.91-3.5,3.72-3.5c1.45,0,2.66,.46,3.52,1.45v-1.91c0-1.43-1.14-2.24-2.69-2.24-1.28,0-2.31,.46-3.26,1.47l-.77-1.14c1.14-1.19,2.51-1.76,4.25-1.76,2.24,0,4.12,1.01,4.12,3.59v7.3h-1.65Zm0-4.25c-.64-.88-1.76-1.32-2.93-1.32-1.54,0-2.62,.97-2.62,2.33s1.08,2.31,2.62,2.31c1.17,0,2.29-.44,2.93-1.32v-2Z"/><path class="cls-4" d="M340.75,272.21v-6.95h-1.76v-1.45h1.76v-2.9h1.65v2.9h2.16v1.45h-2.16v6.6c0,.79,.35,1.37,1.08,1.37,.46,0,.9-.2,1.12-.44l.48,1.23c-.42,.4-1.01,.68-1.98,.68-1.56,0-2.35-.9-2.35-2.49Z"/><path class="cls-4" d="M359.21,274.43v-1.21c-.88,.97-2.09,1.47-3.52,1.47-1.8,0-3.72-1.21-3.72-3.52s1.91-3.5,3.72-3.5c1.45,0,2.66,.46,3.52,1.45v-1.91c0-1.43-1.14-2.24-2.68-2.24-1.28,0-2.31,.46-3.26,1.47l-.77-1.14c1.14-1.19,2.51-1.76,4.25-1.76,2.24,0,4.11,1.01,4.11,3.59v7.3h-1.65Zm0-4.25c-.64-.88-1.76-1.32-2.93-1.32-1.54,0-2.62,.97-2.62,2.33s1.08,2.31,2.62,2.31c1.17,0,2.29-.44,2.93-1.32v-2Z"/><path class="cls-4" d="M377.03,274.43v-7c0-1.87-.97-2.42-2.4-2.42-1.28,0-2.51,.79-3.15,1.65v7.77h-1.65v-14.68h1.65v5.59c.75-.88,2.2-1.8,3.81-1.8,2.22,0,3.39,1.08,3.39,3.39v7.5h-1.65Z"/><path class="cls-4" d="M381.69,260.9c0-.62,.51-1.1,1.1-1.1s1.12,.48,1.12,1.1-.51,1.12-1.12,1.12-1.1-.51-1.1-1.12Zm.29,13.53v-10.63h1.65v10.63h-1.65Z"/><path class="cls-4" d="M387.74,275.93c.88,1.06,1.94,1.45,3.46,1.45,1.76,0,3.41-.86,3.41-3.19v-1.52c-.77,1.08-2.07,1.89-3.56,1.89-2.77,0-4.73-2.07-4.73-5.5s1.94-5.52,4.73-5.52c1.43,0,2.71,.7,3.56,1.87v-1.61h1.65v10.32c0,3.52-2.46,4.62-5.06,4.62-1.8,0-3.04-.35-4.29-1.58l.84-1.23Zm6.87-9.2c-.57-.92-1.85-1.71-3.17-1.71-2.13,0-3.41,1.69-3.41,4.05s1.28,4.05,3.41,4.05c1.32,0,2.6-.81,3.17-1.74v-4.64Z"/><path class="cls-4" d="M406.75,274.43v-7c0-1.87-.97-2.42-2.4-2.42-1.28,0-2.51,.79-3.15,1.65v7.77h-1.65v-14.68h1.65v5.59c.75-.88,2.2-1.8,3.81-1.8,2.22,0,3.39,1.08,3.39,3.39v7.5h-1.65Z"/><path class="cls-4" d="M417.38,274.43v-10.63h1.65v1.72c.86-1.12,2.09-1.94,3.54-1.94v1.7c-.2-.04-.4-.07-.66-.07-1.01,0-2.4,.84-2.88,1.69v7.53h-1.65Z"/><path class="cls-4" d="M431.28,274.43v-1.21c-.88,.97-2.09,1.47-3.52,1.47-1.8,0-3.72-1.21-3.72-3.52s1.91-3.5,3.72-3.5c1.45,0,2.66,.46,3.52,1.45v-1.91c0-1.43-1.14-2.24-2.68-2.24-1.28,0-2.31,.46-3.26,1.47l-.77-1.14c1.14-1.19,2.51-1.76,4.25-1.76,2.24,0,4.11,1.01,4.11,3.59v7.3h-1.65Zm0-4.25c-.64-.88-1.76-1.32-2.93-1.32-1.54,0-2.62,.97-2.62,2.33s1.08,2.31,2.62,2.31c1.17,0,2.29-.44,2.93-1.32v-2Z"/><path class="cls-4" d="M436.56,272.21v-6.95h-1.76v-1.45h1.76v-2.9h1.65v2.9h2.16v1.45h-2.16v6.6c0,.79,.35,1.37,1.08,1.37,.46,0,.9-.2,1.12-.44l.48,1.23c-.42,.4-1.01,.68-1.98,.68-1.56,0-2.36-.9-2.36-2.49Z"/><path class="cls-4" d="M447.32,263.54c3.21,0,5.11,2.51,5.11,5.7v.42h-8.6c.13,2,1.54,3.67,3.83,3.67,1.21,0,2.44-.48,3.28-1.34l.79,1.08c-1.06,1.06-2.49,1.63-4.22,1.63-3.15,0-5.41-2.27-5.41-5.59,0-3.08,2.2-5.57,5.24-5.57Zm-3.5,4.91h6.97c-.02-1.58-1.08-3.54-3.5-3.54-2.27,0-3.39,1.91-3.48,3.54Z"/><path class="cls-4" d="M454.53,276.54c.7-.46,1.34-1.32,1.43-2.05-.04,.02-.2,.04-.31,.04-.62,0-1.05-.46-1.05-1.12s.51-1.19,1.17-1.19c.73,0,1.39,.62,1.39,1.67,0,1.34-.79,2.6-1.8,3.32l-.81-.68Z"/><path class="cls-4" d="M29.46,300.83v-10.63h1.65v1.72c.86-1.12,2.09-1.94,3.54-1.94v1.69c-.2-.04-.39-.07-.66-.07-1.01,0-2.4,.84-2.88,1.7v7.53h-1.65Z"/><path class="cls-4" d="M41.34,289.94c3.21,0,5.11,2.51,5.11,5.7v.42h-8.6c.13,2,1.54,3.67,3.83,3.67,1.21,0,2.44-.48,3.28-1.34l.79,1.08c-1.06,1.06-2.49,1.63-4.22,1.63-3.15,0-5.41-2.27-5.41-5.59,0-3.08,2.2-5.57,5.24-5.57Zm-3.5,4.91h6.97c-.02-1.59-1.08-3.54-3.5-3.54-2.27,0-3.39,1.91-3.48,3.54Z"/><path class="cls-4" d="M49.04,298.23c.71,.81,2.05,1.52,3.5,1.52,1.63,0,2.51-.73,2.51-1.76,0-1.17-1.3-1.54-2.73-1.89-1.8-.42-3.85-.9-3.85-3.1,0-1.65,1.43-3.06,3.96-3.06,1.8,0,3.08,.68,3.94,1.54l-.77,1.14c-.64-.77-1.8-1.34-3.17-1.34-1.45,0-2.35,.66-2.35,1.61,0,1.03,1.21,1.36,2.6,1.69,1.85,.42,3.98,.95,3.98,3.3,0,1.78-1.43,3.21-4.18,3.21-1.74,0-3.21-.53-4.29-1.67l.86-1.19Z"/><path class="cls-4" d="M66.5,300.83v-1.5c-.81,.92-2.2,1.76-3.78,1.76-2.22,0-3.39-1.08-3.39-3.39v-7.5h1.65v7c0,1.87,.95,2.42,2.38,2.42,1.3,0,2.53-.75,3.15-1.61v-7.81h1.65v10.63h-1.65Z"/><path class="cls-4" d="M71.45,300.83v-14.68h1.65v14.68h-1.65Z"/><path class="cls-4" d="M76.74,298.61v-6.95h-1.76v-1.45h1.76v-2.9h1.65v2.9h2.16v1.45h-2.16v6.6c0,.79,.35,1.36,1.08,1.36,.46,0,.9-.2,1.12-.44l.48,1.23c-.42,.39-1.01,.68-1.98,.68-1.56,0-2.35-.9-2.35-2.49Z"/><path class="cls-4" d="M82.59,287.3c0-.62,.51-1.1,1.1-1.1s1.12,.48,1.12,1.1-.51,1.12-1.12,1.12-1.1-.51-1.1-1.12Zm.29,13.53v-10.63h1.65v10.63h-1.65Z"/><path class="cls-4" d="M94.99,300.83v-6.95c0-1.87-.95-2.46-2.38-2.46-1.3,0-2.53,.79-3.15,1.65v7.77h-1.65v-10.63h1.65v1.54c.75-.88,2.2-1.8,3.78-1.8,2.22,0,3.39,1.12,3.39,3.43v7.46h-1.65Z"/><path class="cls-4" d="M100.76,302.33c.88,1.06,1.94,1.45,3.46,1.45,1.76,0,3.41-.86,3.41-3.19v-1.52c-.77,1.08-2.07,1.89-3.56,1.89-2.77,0-4.73-2.07-4.73-5.5s1.94-5.52,4.73-5.52c1.43,0,2.71,.71,3.56,1.87v-1.61h1.65v10.32c0,3.52-2.46,4.62-5.06,4.62-1.8,0-3.04-.35-4.29-1.58l.84-1.23Zm6.87-9.2c-.57-.92-1.85-1.72-3.17-1.72-2.13,0-3.41,1.7-3.41,4.05s1.28,4.05,3.41,4.05c1.32,0,2.6-.81,3.17-1.74v-4.64Z"/><path class="cls-4" d="M117.96,287.3c0-.62,.51-1.1,1.1-1.1s1.12,.48,1.12,1.1-.51,1.12-1.12,1.12-1.1-.51-1.1-1.12Zm.29,13.53v-10.63h1.65v10.63h-1.65Z"/><path class="cls-4" d="M130.37,300.83v-6.95c0-1.87-.95-2.46-2.38-2.46-1.3,0-2.53,.79-3.15,1.65v7.77h-1.65v-10.63h1.65v1.54c.75-.88,2.2-1.8,3.79-1.8,2.22,0,3.39,1.12,3.39,3.43v7.46h-1.65Z"/><path class="cls-4" d="M147.64,300.83v-1.21c-.88,.97-2.09,1.47-3.52,1.47-1.8,0-3.72-1.21-3.72-3.52s1.91-3.5,3.72-3.5c1.45,0,2.66,.46,3.52,1.45v-1.91c0-1.43-1.14-2.24-2.69-2.24-1.28,0-2.31,.46-3.26,1.47l-.77-1.14c1.14-1.19,2.51-1.76,4.25-1.76,2.24,0,4.12,1.01,4.12,3.59v7.3h-1.65Zm0-4.25c-.64-.88-1.76-1.32-2.93-1.32-1.54,0-2.62,.97-2.62,2.33s1.08,2.31,2.62,2.31c1.17,0,2.29-.44,2.93-1.32v-2Z"/><path class="cls-4" d="M162.95,289.94c1.94,0,3.08,.79,3.89,1.85l-1.1,1.01c-.71-.97-1.61-1.39-2.71-1.39-2.27,0-3.67,1.74-3.67,4.09s1.41,4.12,3.67,4.12c1.1,0,2-.44,2.71-1.39l1.1,1.01c-.81,1.05-1.96,1.85-3.89,1.85-3.17,0-5.3-2.42-5.3-5.59s2.13-5.57,5.3-5.57Z"/><path class="cls-4" d="M168.54,295.5c0-3.08,2.02-5.57,5.26-5.57s5.26,2.49,5.26,5.57-2.03,5.59-5.26,5.59-5.26-2.51-5.26-5.59Zm8.78,0c0-2.16-1.25-4.09-3.52-4.09s-3.54,1.94-3.54,4.09,1.28,4.12,3.54,4.12,3.52-1.94,3.52-4.12Z"/><path class="cls-4" d="M188.91,300.83v-6.95c0-1.87-.95-2.46-2.38-2.46-1.3,0-2.53,.79-3.15,1.65v7.77h-1.65v-10.63h1.65v1.54c.75-.88,2.2-1.8,3.79-1.8,2.22,0,3.39,1.12,3.39,3.43v7.46h-1.65Z"/><path class="cls-4" d="M194.19,298.61v-6.95h-1.76v-1.45h1.76v-2.9h1.65v2.9h2.16v1.45h-2.16v6.6c0,.79,.35,1.36,1.08,1.36,.46,0,.9-.2,1.12-.44l.48,1.23c-.42,.39-1.01,.68-1.98,.68-1.56,0-2.35-.9-2.35-2.49Z"/><path class="cls-4" d="M200.04,287.3c0-.62,.51-1.1,1.1-1.1s1.12,.48,1.12,1.1-.51,1.12-1.12,1.12-1.1-.51-1.1-1.12Zm.29,13.53v-10.63h1.65v10.63h-1.65Z"/><path class="cls-4" d="M212.45,300.83v-6.95c0-1.87-.95-2.46-2.38-2.46-1.3,0-2.53,.79-3.15,1.65v7.77h-1.65v-10.63h1.65v1.54c.75-.88,2.2-1.8,3.78-1.8,2.22,0,3.39,1.12,3.39,3.43v7.46h-1.65Z"/><path class="cls-4" d="M224.58,300.83v-1.5c-.81,.92-2.2,1.76-3.79,1.76-2.22,0-3.39-1.08-3.39-3.39v-7.5h1.65v7c0,1.87,.95,2.42,2.38,2.42,1.3,0,2.53-.75,3.15-1.61v-7.81h1.65v10.63h-1.65Z"/><path class="cls-4" d="M228.91,295.5c0-3.08,2.03-5.57,5.26-5.57s5.26,2.49,5.26,5.57-2.02,5.59-5.26,5.59-5.26-2.51-5.26-5.59Zm8.78,0c0-2.16-1.25-4.09-3.52-4.09s-3.54,1.94-3.54,4.09,1.28,4.12,3.54,4.12,3.52-1.94,3.52-4.12Z"/><path class="cls-4" d="M249.28,300.83v-1.5c-.81,.92-2.2,1.76-3.78,1.76-2.22,0-3.39-1.08-3.39-3.39v-7.5h1.65v7c0,1.87,.95,2.42,2.38,2.42,1.3,0,2.53-.75,3.15-1.61v-7.81h1.65v10.63h-1.65Z"/><path class="cls-4" d="M254.16,298.23c.71,.81,2.05,1.52,3.5,1.52,1.63,0,2.51-.73,2.51-1.76,0-1.17-1.3-1.54-2.73-1.89-1.8-.42-3.85-.9-3.85-3.1,0-1.65,1.43-3.06,3.96-3.06,1.8,0,3.08,.68,3.94,1.54l-.77,1.14c-.64-.77-1.8-1.34-3.17-1.34-1.45,0-2.35,.66-2.35,1.61,0,1.03,1.21,1.36,2.6,1.69,1.85,.42,3.98,.95,3.98,3.3,0,1.78-1.43,3.21-4.18,3.21-1.74,0-3.21-.53-4.29-1.67l.86-1.19Z"/><path class="cls-4" d="M276.78,300.83v-1.21c-.88,.97-2.09,1.47-3.52,1.47-1.8,0-3.72-1.21-3.72-3.52s1.91-3.5,3.72-3.5c1.45,0,2.66,.46,3.52,1.45v-1.91c0-1.43-1.14-2.24-2.69-2.24-1.28,0-2.31,.46-3.26,1.47l-.77-1.14c1.14-1.19,2.51-1.76,4.25-1.76,2.24,0,4.12,1.01,4.12,3.59v7.3h-1.65Zm0-4.25c-.64-.88-1.76-1.32-2.93-1.32-1.54,0-2.62,.97-2.62,2.33s1.08,2.31,2.62,2.31c1.17,0,2.29-.44,2.93-1.32v-2Z"/><path class="cls-4" d="M286.41,289.94c1.94,0,3.08,.79,3.89,1.85l-1.1,1.01c-.71-.97-1.61-1.39-2.71-1.39-2.27,0-3.67,1.74-3.67,4.09s1.41,4.12,3.67,4.12c1.1,0,2-.44,2.71-1.39l1.1,1.01c-.81,1.05-1.96,1.85-3.89,1.85-3.17,0-5.3-2.42-5.3-5.59s2.13-5.57,5.3-5.57Z"/><path class="cls-4" d="M297.31,289.94c1.94,0,3.08,.79,3.89,1.85l-1.1,1.01c-.7-.97-1.61-1.39-2.71-1.39-2.27,0-3.68,1.74-3.68,4.09s1.41,4.12,3.68,4.12c1.1,0,2-.44,2.71-1.39l1.1,1.01c-.81,1.05-1.96,1.85-3.89,1.85-3.17,0-5.3-2.42-5.3-5.59s2.13-5.57,5.3-5.57Z"/><path class="cls-4" d="M310.68,300.83v-1.5c-.81,.92-2.2,1.76-3.78,1.76-2.22,0-3.39-1.08-3.39-3.39v-7.5h1.65v7c0,1.87,.95,2.42,2.38,2.42,1.3,0,2.53-.75,3.15-1.61v-7.81h1.65v10.63h-1.65Z"/><path class="cls-4" d="M328.46,300.83v-7.22c0-1.34-.59-2.2-1.96-2.2-1.1,0-2.27,.79-2.82,1.63v7.79h-1.65v-7.22c0-1.34-.57-2.2-1.96-2.2-1.08,0-2.22,.79-2.79,1.65v7.77h-1.65v-10.63h1.65v1.54c.44-.68,1.87-1.8,3.43-1.8s2.55,.88,2.86,1.98c.59-.97,2.03-1.98,3.56-1.98,1.94,0,2.97,1.08,2.97,3.21v7.68h-1.65Z"/><path class="cls-4" d="M340.58,300.83v-1.5c-.81,.92-2.2,1.76-3.78,1.76-2.22,0-3.39-1.08-3.39-3.39v-7.5h1.65v7c0,1.87,.95,2.42,2.38,2.42,1.3,0,2.53-.75,3.15-1.61v-7.81h1.65v10.63h-1.65Z"/><path class="cls-4" d="M345.53,300.83v-14.68h1.65v14.68h-1.65Z"/><path class="cls-4" d="M357.12,300.83v-1.21c-.88,.97-2.09,1.47-3.52,1.47-1.8,0-3.72-1.21-3.72-3.52s1.91-3.5,3.72-3.5c1.45,0,2.66,.46,3.52,1.45v-1.91c0-1.43-1.14-2.24-2.69-2.24-1.28,0-2.31,.46-3.26,1.47l-.77-1.14c1.14-1.19,2.51-1.76,4.25-1.76,2.24,0,4.12,1.01,4.12,3.59v7.3h-1.65Zm0-4.25c-.64-.88-1.76-1.32-2.93-1.32-1.54,0-2.62,.97-2.62,2.33s1.08,2.31,2.62,2.31c1.17,0,2.29-.44,2.93-1.32v-2Z"/><path class="cls-4" d="M362.4,298.61v-6.95h-1.76v-1.45h1.76v-2.9h1.65v2.9h2.16v1.45h-2.16v6.6c0,.79,.35,1.36,1.08,1.36,.46,0,.9-.2,1.12-.44l.48,1.23c-.42,.39-1.01,.68-1.98,.68-1.56,0-2.35-.9-2.35-2.49Z"/><path class="cls-4" d="M368.25,287.3c0-.62,.51-1.1,1.1-1.1s1.12,.48,1.12,1.1-.51,1.12-1.12,1.12-1.1-.51-1.1-1.12Zm.29,13.53v-10.63h1.65v10.63h-1.65Z"/><path class="cls-4" d="M372.87,295.5c0-3.08,2.03-5.57,5.26-5.57s5.26,2.49,5.26,5.57-2.02,5.59-5.26,5.59-5.26-2.51-5.26-5.59Zm8.78,0c0-2.16-1.25-4.09-3.52-4.09s-3.54,1.94-3.54,4.09,1.28,4.12,3.54,4.12,3.52-1.94,3.52-4.12Z"/><path class="cls-4" d="M393.25,300.83v-6.95c0-1.87-.95-2.46-2.38-2.46-1.3,0-2.53,.79-3.15,1.65v7.77h-1.65v-10.63h1.65v1.54c.75-.88,2.2-1.8,3.78-1.8,2.22,0,3.39,1.12,3.39,3.43v7.46h-1.65Z"/><path class="cls-4" d="M403.26,295.5c0-3.08,2.02-5.57,5.26-5.57s5.26,2.49,5.26,5.57-2.03,5.59-5.26,5.59-5.26-2.51-5.26-5.59Zm8.78,0c0-2.16-1.25-4.09-3.52-4.09s-3.54,1.94-3.54,4.09,1.28,4.12,3.54,4.12,3.52-1.94,3.52-4.12Z"/><path class="cls-4" d="M418.57,291.65v9.18h-1.65v-9.18h-1.76v-1.45h1.76v-.81c0-2.2,1.23-3.46,3.08-3.46,.62,0,1.19,.11,1.61,.37l-.42,1.23c-.26-.15-.57-.24-.95-.24-1.08,0-1.67,.75-1.67,2.09v.81h2.16v1.45h-2.16Z"/><path class="cls-4" d="M433.04,289.94c1.94,0,3.08,.79,3.89,1.85l-1.1,1.01c-.71-.97-1.61-1.39-2.71-1.39-2.27,0-3.67,1.74-3.67,4.09s1.41,4.12,3.67,4.12c1.1,0,2-.44,2.71-1.39l1.1,1.01c-.81,1.05-1.96,1.85-3.89,1.85-3.17,0-5.3-2.42-5.3-5.59s2.13-5.57,5.3-5.57Z"/><path class="cls-4" d="M445.89,300.83v-1.21c-.88,.97-2.09,1.47-3.52,1.47-1.8,0-3.72-1.21-3.72-3.52s1.91-3.5,3.72-3.5c1.45,0,2.66,.46,3.52,1.45v-1.91c0-1.43-1.14-2.24-2.68-2.24-1.28,0-2.31,.46-3.26,1.47l-.77-1.14c1.14-1.19,2.51-1.76,4.25-1.76,2.24,0,4.11,1.01,4.11,3.59v7.3h-1.65Zm0-4.25c-.64-.88-1.76-1.32-2.93-1.32-1.54,0-2.62,.97-2.62,2.33s1.08,2.31,2.62,2.31c1.17,0,2.29-.44,2.93-1.32v-2Z"/><path class="cls-4" d="M450.84,300.83v-10.63h1.65v1.72c.86-1.12,2.09-1.94,3.54-1.94v1.69c-.2-.04-.4-.07-.66-.07-1.01,0-2.4,.84-2.88,1.7v7.53h-1.65Z"/><path class="cls-4" d="M458.1,300.83v-14.68h1.65v5.65c.86-1.17,2.13-1.87,3.59-1.87,2.77,0,4.73,2.2,4.73,5.59s-1.96,5.57-4.73,5.57c-1.5,0-2.79-.77-3.59-1.85v1.58h-1.65Zm1.65-2.88c.57,.92,1.87,1.67,3.17,1.67,2.16,0,3.43-1.74,3.43-4.09s-1.28-4.12-3.43-4.12c-1.3,0-2.6,.79-3.17,1.72v4.82Z"/><path class="cls-4" d="M470.14,295.5c0-3.08,2.02-5.57,5.26-5.57s5.26,2.49,5.26,5.57-2.03,5.59-5.26,5.59-5.26-2.51-5.26-5.59Zm8.78,0c0-2.16-1.25-4.09-3.52-4.09s-3.54,1.94-3.54,4.09,1.28,4.12,3.54,4.12,3.52-1.94,3.52-4.12Z"/><path class="cls-4" d="M490.51,300.83v-6.95c0-1.87-.95-2.46-2.38-2.46-1.3,0-2.53,.79-3.15,1.65v7.77h-1.65v-10.63h1.65v1.54c.75-.88,2.2-1.8,3.79-1.8,2.22,0,3.39,1.12,3.39,3.43v7.46h-1.65Z"/><path class="cls-4" d="M28.84,321.9c0-3.08,2.03-5.57,5.26-5.57s5.26,2.49,5.26,5.57-2.02,5.59-5.26,5.59-5.26-2.51-5.26-5.59Zm8.78,0c0-2.16-1.25-4.09-3.52-4.09s-3.54,1.94-3.54,4.09,1.28,4.12,3.54,4.12,3.52-1.94,3.52-4.12Z"/><path class="cls-4" d="M44.88,327.23l-4.42-10.63h1.78l3.54,8.71,3.52-8.71h1.8l-4.42,10.63h-1.8Z"/><path class="cls-4" d="M57.44,316.34c3.21,0,5.11,2.51,5.11,5.7v.42h-8.6c.13,2,1.54,3.67,3.83,3.67,1.21,0,2.44-.48,3.28-1.34l.79,1.08c-1.06,1.06-2.49,1.63-4.22,1.63-3.15,0-5.41-2.27-5.41-5.59,0-3.08,2.2-5.57,5.24-5.57Zm-3.5,4.91h6.97c-.02-1.59-1.08-3.54-3.5-3.54-2.27,0-3.39,1.91-3.48,3.54Z"/><path class="cls-4" d="M65.21,327.23v-10.63h1.65v1.72c.86-1.12,2.09-1.94,3.54-1.94v1.69c-.2-.04-.4-.07-.66-.07-1.01,0-2.4,.84-2.88,1.7v7.53h-1.65Z"/><path class="cls-4" d="M78.47,325.01v-6.95h-1.76v-1.45h1.76v-2.9h1.65v2.9h2.16v1.45h-2.16v6.6c0,.79,.35,1.36,1.08,1.36,.46,0,.9-.2,1.12-.44l.48,1.23c-.42,.39-1.01,.68-1.98,.68-1.56,0-2.36-.9-2.36-2.49Z"/><path class="cls-4" d="M84.32,313.7c0-.62,.51-1.1,1.1-1.1s1.12,.48,1.12,1.1-.51,1.12-1.12,1.12-1.1-.51-1.1-1.12Zm.29,13.53v-10.63h1.65v10.63h-1.65Z"/><path class="cls-4" d="M102.39,327.23v-7.22c0-1.34-.59-2.2-1.96-2.2-1.1,0-2.27,.79-2.82,1.63v7.79h-1.65v-7.22c0-1.34-.57-2.2-1.96-2.2-1.08,0-2.22,.79-2.79,1.65v7.77h-1.65v-10.63h1.65v1.54c.44-.68,1.87-1.8,3.43-1.8s2.55,.88,2.86,1.98c.59-.97,2.03-1.98,3.56-1.98,1.94,0,2.97,1.08,2.97,3.21v7.68h-1.65Z"/><path class="cls-4" d="M111.96,316.34c3.21,0,5.11,2.51,5.11,5.7v.42h-8.6c.13,2,1.54,3.67,3.83,3.67,1.21,0,2.44-.48,3.28-1.34l.79,1.08c-1.06,1.06-2.49,1.63-4.22,1.63-3.15,0-5.41-2.27-5.41-5.59,0-3.08,2.2-5.57,5.24-5.57Zm-3.5,4.91h6.97c-.02-1.59-1.08-3.54-3.5-3.54-2.27,0-3.39,1.91-3.48,3.54Z"/><path class="cls-4" d="M126.28,325.03c.66,0,1.21,.55,1.21,1.21s-.55,1.21-1.21,1.21-1.21-.55-1.21-1.21,.55-1.21,1.21-1.21Z"/></g><g><rect class="cls-1" x="24.21" y="344.23" width="98" height="40" rx="20" ry="20"/><g><path class="cls-2" d="M45.12,372.87v-15.94h7.46c3.46,0,5.35,2.34,5.35,5.14s-1.91,5.09-5.35,5.09h-4.06v5.71h-3.39Zm7-13.02h-3.61v4.4h3.61c1.34,0,2.34-.86,2.34-2.2s-1-2.2-2.34-2.2Z"/><path class="cls-2" d="M69.04,372.87l-3.13-5.71h-2.48v5.71h-3.39v-15.94h7.46c3.32,0,5.35,2.17,5.35,5.14s-1.77,4.33-3.49,4.73l3.58,6.07h-3.89Zm-2.06-13.02h-3.56v4.4h3.56c1.36,0,2.39-.86,2.39-2.2s-1.03-2.2-2.39-2.2Z"/><path class="cls-2" d="M75.39,372.87v-15.94h11.28v2.92h-7.89v3.46h7.72v2.92h-7.72v3.7h7.89v2.94h-11.28Z"/><path class="cls-2" d="M93.78,372.87l-6.17-15.94h3.87l4.42,12.26,4.4-12.26h3.87l-6.14,15.94h-4.25Z"/></g></g><g><path class="cls-1" d="M246.67,372.87v-2.68c6.52-4.8,8.44-6.45,8.44-8.41,0-1.39-1.27-2.08-2.61-2.08-1.79,0-3.18,.72-4.25,1.84l-1.94-2.25c1.55-1.79,3.92-2.6,6.14-2.6,3.39,0,6.09,1.91,6.09,5.09,0,2.72-2.25,5.09-6.52,8.1h6.64v2.99h-12Z"/><path class="cls-1" d="M259.88,373.35l5.66-16.89h2.2l-5.66,16.89h-2.2Z"/><path class="cls-1" d="M268.86,372.87v-2.68c6.52-4.8,8.43-6.45,8.43-8.41,0-1.39-1.27-2.08-2.6-2.08-1.79,0-3.18,.72-4.25,1.84l-1.94-2.25c1.55-1.79,3.92-2.6,6.14-2.6,3.39,0,6.09,1.91,6.09,5.09,0,2.72-2.25,5.09-6.52,8.1h6.64v2.99h-12Z"/></g></g></svg>