<svg xmlns="http://www.w3.org/2000/svg" viewBox="0 0 1241 45.26"><defs><style>.cls-1{fill:#345aa1;}.cls-2{fill:#a4c1e3;}.cls-3{fill:#fff;}.cls-4{fill:#b4c751;}</style></defs><title>plantilla_menuInferior</title><g id="Capa_2" data-name="Capa 2"><g id="Capa_4" data-name="Capa 4"><rect class="cls-1" y="0.03" width="562.54" height="45.12"/><rect class="cls-2" x="561.02" y="0.14" width="679.98" height="45.12"/><circle class="cls-3" cx="113.72" cy="8.14" r="5.35"/><circle class="cls-3" cx="127.28" cy="8.14" r="5.35"/><circle class="cls-3" cx="141.05" cy="8.14" r="5.35"/><circle class="cls-3" cx="113.62" cy="21.7" r="5.35"/><circle class="cls-3" cx="127.18" cy="21.7" r="5.35"/><circle class="cls-3" cx="140.94" cy="21.7" r="5.35"/><circle class="cls-3" cx="113.62" cy="35.26" r="5.35"/><circle class="cls-3" cx="127.18" cy="35.26" r="5.35"/><circle class="cls-3" cx="140.94" cy="35.26" r="5.35"/><rect class="cls-4" x="163.88" y="0.76" width="1.27" height="44.21"/><rect class="cls-4" x="365.44" width="1.27" height="44.21"/><g id="archive"><path class="cls-3" d="M340.36,9l-2.81-3.4a2.56,2.56,0,0,0-2.2-1h-24a3.28,3.28,0,0,0-2.4,1L306.31,9a4.21,4.21,0,0,0-1,2.6v25a4,4,0,0,0,4,4h28a4,4,0,0,0,4-4v-25A4.21,4.21,0,0,0,340.36,9Zm-17,24.63-11-11h7v-4h8v4h7Zm-13.82-25,1.6-2h24l1.8,2Z"/></g><path class="cls-3" d="M481.82,25.36l-5.44,14.76H481l.67-2.1h4.69l.62,2.1h4.71l-5.37-14.76Zm.79,9.49L484,30.3h0l1.33,4.55Z"/><path class="cls-3" d="M505.2,13.63a3,3,0,0,0-.82-.74,4.64,4.64,0,0,0-1-.45,4.22,4.22,0,0,0,1.33-1.12,2.89,2.89,0,0,0,.49-1.78,4.26,4.26,0,0,0-.19-1.21,2.8,2.8,0,0,0-.71-1.21,3.93,3.93,0,0,0-1.44-.92,6.64,6.64,0,0,0-2.37-.36h-8.09V20.6h8.38a6.17,6.17,0,0,0,1.9-.29,5.14,5.14,0,0,0,1.65-.84,4.42,4.42,0,0,0,1.17-1.4,4.06,4.06,0,0,0,.44-1.95,4.44,4.44,0,0,0-.21-1.43A3.81,3.81,0,0,0,505.2,13.63ZM497,9.35h2.4a2.44,2.44,0,0,1,1.13.23.82.82,0,0,1,.42.79,1,1,0,0,1-.42,1,2.13,2.13,0,0,1-1.13.25H497Zm4.3,7a1.13,1.13,0,0,1-.39.42,1.78,1.78,0,0,1-.57.22,3.71,3.71,0,0,1-.67.06H497V14.34h2.85c1.06,0,1.59.45,1.59,1.34A1.36,1.36,0,0,1,501.29,16.39Z"/><path class="cls-3" d="M518.57,30.19a5.76,5.76,0,0,1-.28,1,2.78,2.78,0,0,1-.46.79,1.82,1.82,0,0,1-.68.51,2.2,2.2,0,0,1-1,.19,2.4,2.4,0,0,1-1.34-.35,2.59,2.59,0,0,1-.86-.94,4.26,4.26,0,0,1-.47-1.3,7.74,7.74,0,0,1,0-2.93,4.26,4.26,0,0,1,.47-1.3,2.59,2.59,0,0,1,.86-.94,2.43,2.43,0,0,1,1.34-.35,2.2,2.2,0,0,1,1.15.27,2.71,2.71,0,0,1,.71.62,2.06,2.06,0,0,1,.37.72c.07.24.12.42.15.56H523a6.53,6.53,0,0,0-2-4.31,6.88,6.88,0,0,0-4.73-1.54,8.22,8.22,0,0,0-3.09.56A6.83,6.83,0,0,0,510.85,23a7,7,0,0,0-1.52,2.44,9.8,9.8,0,0,0,0,6.21,7,7,0,0,0,1.46,2.45,6.85,6.85,0,0,0,2.35,1.64,7.91,7.91,0,0,0,3.18.6,7.25,7.25,0,0,0,2.88-.54,6.52,6.52,0,0,0,2.12-1.42,6.09,6.09,0,0,0,1.3-2,6,6,0,0,0,.44-2.22Z"/><rect class="cls-4" x="608.31" y="5.77" width="166.71" height="35.61" rx="12.2"/></g></g></svg>