<!-- Generator: Adobe Illustrator 23.0.4, SVG Export Plug-In  -->
<svg version="1.1" xmlns="http://www.w3.org/2000/svg" xmlns:xlink="http://www.w3.org/1999/xlink" x="0px" y="0px" width="32.4px"
	 height="34.1px" viewBox="0 0 32.4 34.1" style="enable-background:new 0 0 32.4 34.1;" xml:space="preserve">
<style type="text/css">
	.st0{fill:url(#SVGID_1_);}
	.st1{fill:url(#SVGID_2_);}
	.st2{fill:url(#SVGID_3_);}
	.st3{fill:url(#SVGID_4_);}
	.st4{fill:url(#SVGID_5_);}
	.st5{fill:url(#SVGID_6_);}
	.st6{fill:url(#SVGID_7_);}
	.st7{fill:url(#SVGID_8_);}
	.st8{fill:url(#SVGID_9_);}
	.st9{fill:url(#SVGID_10_);}
	.st10{fill:url(#SVGID_11_);}
	.st11{fill:url(#SVGID_12_);}
	.st12{fill:url(#SVGID_13_);}
	.st13{fill:url(#SVGID_14_);}
	.st14{fill:url(#SVGID_15_);}
	.st15{fill:url(#SVGID_16_);}
	.st16{fill:url(#SVGID_17_);}
	.st17{fill:url(#SVGID_18_);}
	.st18{fill:url(#SVGID_19_);}
	.st19{fill:url(#SVGID_20_);}
	.st20{fill:url(#SVGID_21_);}
	.st21{fill:url(#SVGID_22_);}
	.st22{fill:url(#SVGID_23_);}
	.st23{fill:url(#SVGID_24_);}
	.st24{fill:url(#SVGID_25_);}
	.st25{fill:url(#SVGID_26_);}
	.st26{fill:url(#SVGID_27_);}
	.st27{fill:url(#SVGID_28_);}
	.st28{fill:url(#SVGID_29_);}
	.st29{fill:url(#SVGID_30_);}
	.st30{fill:url(#SVGID_31_);}
	.st31{fill:url(#SVGID_32_);}
	.st32{fill:url(#SVGID_33_);}
	.st33{fill:url(#SVGID_34_);}
	.st34{fill:url(#SVGID_35_);}
	.st35{fill:url(#SVGID_36_);}
	.st36{fill:url(#SVGID_37_);}
	.st37{fill:url(#SVGID_38_);}
	.st38{fill:url(#SVGID_39_);}
	.st39{fill:url(#SVGID_40_);}
	.st40{fill:url(#SVGID_41_);}
	.st41{fill:url(#SVGID_42_);}
</style>
<defs>
</defs>
<g>
	<radialGradient id="SVGID_1_" cx="20.7958" cy="29.7922" r="5.2879" gradientUnits="userSpaceOnUse">
		<stop  offset="0" style="stop-color:#FFFFFF"/>
		<stop  offset="1" style="stop-color:#E5E5E6"/>
	</radialGradient>
	<path class="st0" d="M15.3,34.1c-0.1,0-0.2,0-0.3-0.1c-0.2-0.1-0.3-0.3-0.3-0.5v-5c0-1.7,1.3-3,3-3h8.7c0.3,0,0.5,0.2,0.6,0.4
		c0.1,0.2,0,0.5-0.2,0.7L15.6,34C15.5,34,15.4,34.1,15.3,34.1z M17.7,26.7c-1,0-1.8,0.8-1.8,1.8v3.9l8.5-5.7H17.7z"/>
	<radialGradient id="SVGID_2_" cx="13.4628" cy="5.6238" r="6.1522" gradientUnits="userSpaceOnUse">
		<stop  offset="0" style="stop-color:#FFFFFF"/>
		<stop  offset="1" style="stop-color:#E5E5E6"/>
	</radialGradient>
	<path class="st1" d="M21.4,7.5H5.6C5.2,7.5,5,7.2,5,6.9V4.3C5,4,5.2,3.8,5.6,3.8h15.8C21.7,3.8,22,4,22,4.3v2.6
		C22,7.2,21.7,7.5,21.4,7.5z M6.1,6.3h14.6V4.9H6.1V6.3z"/>
	<radialGradient id="SVGID_3_" cx="13.4627" cy="10.1091" r="2.1577" gradientUnits="userSpaceOnUse">
		<stop  offset="0" style="stop-color:#FFFFFF"/>
		<stop  offset="1" style="stop-color:#E5E5E6"/>
	</radialGradient>
	<path class="st2" d="M15.9,10.7h-4.8c-0.3,0-0.6-0.3-0.6-0.6c0-0.3,0.3-0.6,0.6-0.6h4.8c0.3,0,0.6,0.3,0.6,0.6
		C16.5,10.4,16.2,10.7,15.9,10.7z"/>
	<radialGradient id="SVGID_4_" cx="13.5332" cy="13.3159" r="6.0726" gradientUnits="userSpaceOnUse">
		<stop  offset="0" style="stop-color:#FFFFFF"/>
		<stop  offset="1" style="stop-color:#E5E5E6"/>
	</radialGradient>
	<path class="st3" d="M21.5,13.9h-16c-0.3,0-0.6-0.3-0.6-0.6c0-0.3,0.3-0.6,0.6-0.6h16c0.3,0,0.6,0.3,0.6,0.6
		C22.1,13.6,21.8,13.9,21.5,13.9z"/>
	<radialGradient id="SVGID_5_" cx="11.9735" cy="16.523" r="4.9729" gradientUnits="userSpaceOnUse">
		<stop  offset="0" style="stop-color:#FFFFFF"/>
		<stop  offset="1" style="stop-color:#E5E5E6"/>
	</radialGradient>
	<path class="st4" d="M18.4,17.1H5.6c-0.3,0-0.6-0.3-0.6-0.6c0-0.3,0.3-0.6,0.6-0.6h12.8c0.3,0,0.6,0.3,0.6,0.6
		C19,16.8,18.7,17.1,18.4,17.1z"/>
	<radialGradient id="SVGID_6_" cx="10.2992" cy="19.7297" r="3.7945" gradientUnits="userSpaceOnUse">
		<stop  offset="0" style="stop-color:#FFFFFF"/>
		<stop  offset="1" style="stop-color:#E5E5E6"/>
	</radialGradient>
	<path class="st5" d="M15,20.3H5.6c-0.3,0-0.6-0.3-0.6-0.6c0-0.3,0.3-0.6,0.6-0.6H15c0.3,0,0.6,0.3,0.6,0.6
		C15.6,20.1,15.4,20.3,15,20.3z"/>
	<radialGradient id="SVGID_7_" cx="8.6985" cy="22.9368" r="2.6725" gradientUnits="userSpaceOnUse">
		<stop  offset="0" style="stop-color:#FFFFFF"/>
		<stop  offset="1" style="stop-color:#E5E5E6"/>
	</radialGradient>
	<path class="st6" d="M11.8,23.5H5.6c-0.3,0-0.6-0.3-0.6-0.6c0-0.3,0.3-0.6,0.6-0.6h6.3c0.3,0,0.6,0.3,0.6,0.6
		C12.4,23.3,12.2,23.5,11.8,23.5z"/>
	<radialGradient id="SVGID_8_" cx="19.6305" cy="17.7387" r="9.9795" gradientUnits="userSpaceOnUse">
		<stop  offset="0" style="stop-color:#FFFFFF"/>
		<stop  offset="1" style="stop-color:#E5E5E6"/>
	</radialGradient>
	<path class="st7" d="M12.7,27.7c-0.2,0-0.3-0.1-0.4-0.2l-2.5-2.5c-0.2-0.2-0.2-0.6,0-0.8L26.1,7.9c0.2-0.2,0.6-0.2,0.8,0l2.5,2.5
		c0.2,0.2,0.2,0.6,0,0.8l-5.6,5.6c-0.2,0.2-0.6,0.2-0.8,0c-0.2-0.2-0.2-0.6,0-0.8l5.2-5.2l-1.6-1.6L11.1,24.7l1.6,1.6l7.9-7.9
		c0.2-0.2,0.6-0.2,0.8,0c0.2,0.2,0.2,0.6,0,0.8l-8.4,8.4C13,27.7,12.9,27.7,12.7,27.7z"/>
	<radialGradient id="SVGID_9_" cx="28.5669" cy="8.8023" r="2.5971" gradientUnits="userSpaceOnUse">
		<stop  offset="0" style="stop-color:#FFFFFF"/>
		<stop  offset="1" style="stop-color:#E5E5E6"/>
	</radialGradient>
	<path class="st8" d="M29,11.4c-0.2,0-0.3-0.1-0.4-0.2l-2.5-2.5c-0.2-0.2-0.2-0.6,0-0.8l1.6-1.6c0.2-0.2,0.6-0.2,0.8,0L31,8.8
		c0.2,0.2,0.2,0.6,0,0.8l-1.6,1.6C29.3,11.3,29.2,11.4,29,11.4z M27.4,8.4L29,10l0.7-0.7l-1.6-1.6L27.4,8.4z"/>
	<radialGradient id="SVGID_10_" cx="29.9398" cy="7.4292" r="2.1133" gradientUnits="userSpaceOnUse">
		<stop  offset="0" style="stop-color:#FFFFFF"/>
		<stop  offset="1" style="stop-color:#E5E5E6"/>
	</radialGradient>
	<path class="st9" d="M30.3,9.5c-0.2,0-0.3-0.1-0.4-0.2L28,7.5c-0.2-0.2-0.2-0.6,0-0.8l0.9-0.9c0.3-0.3,0.8-0.5,1.3-0.5
		c0.5,0,0.9,0.2,1.3,0.6c0.4,0.4,0.6,0.8,0.6,1.3c0,0.5-0.2,1-0.5,1.3l-0.9,0.9C30.6,9.5,30.4,9.5,30.3,9.5z M29.3,7.1l1,1l0.4-0.4
		c0.1-0.1,0.2-0.3,0.2-0.4c0-0.2-0.1-0.4-0.2-0.5c-0.1-0.1-0.3-0.2-0.5-0.2c-0.2,0-0.3,0-0.4,0.2L29.3,7.1z"/>
	<radialGradient id="SVGID_11_" cx="10.9075" cy="26.4617" r="2.3836" gradientUnits="userSpaceOnUse">
		<stop  offset="0" style="stop-color:#FFFFFF"/>
		<stop  offset="1" style="stop-color:#E5E5E6"/>
	</radialGradient>
	<path class="st10" d="M9.1,28.8c-0.2,0-0.3-0.1-0.4-0.2c-0.2-0.2-0.2-0.4-0.1-0.6l1.1-3.6c0.1-0.2,0.2-0.3,0.4-0.4
		c0.2,0,0.4,0,0.6,0.2l2.5,2.5c0.1,0.1,0.2,0.4,0.2,0.6c0,0.2-0.2,0.4-0.4,0.4l-3.6,1.1C9.2,28.8,9.2,28.8,9.1,28.8z M10.5,25.8
		L10,27.3l1.6-0.5L10.5,25.8z"/>
	<radialGradient id="SVGID_12_" cx="13.4628" cy="23.4881" r="12.1109" gradientUnits="userSpaceOnUse">
		<stop  offset="0" style="stop-color:#FFFFFF"/>
		<stop  offset="1" style="stop-color:#E5E5E6"/>
	</radialGradient>
	<path class="st11" d="M15.3,34.1H3c-1.7,0-3-1.3-3-3v-1.2c0-0.3,0.3-0.6,0.6-0.6c0.3,0,0.6,0.3,0.6,0.6v1.2c0,1,0.8,1.8,1.8,1.8
		h12.1l10.7-7.1V13.5c0-0.3,0.3-0.6,0.6-0.6c0.3,0,0.6,0.3,0.6,0.6v12.6c0,0.2-0.1,0.4-0.3,0.5L15.6,34C15.5,34,15.4,34.1,15.3,34.1
		z"/>
	<radialGradient id="SVGID_13_" cx="13.4628" cy="13.3866" r="13.4248" gradientUnits="userSpaceOnUse">
		<stop  offset="0" style="stop-color:#FFFFFF"/>
		<stop  offset="1" style="stop-color:#E5E5E6"/>
	</radialGradient>
	<path class="st12" d="M0.6,26.8c-0.3,0-0.6-0.3-0.6-0.6V3c0-1.7,1.3-3,3-3h20.9c1.7,0,3,1.3,3,3v2.6c0,0.3-0.3,0.6-0.6,0.6
		c-0.3,0-0.6-0.3-0.6-0.6V3c0-1-0.8-1.8-1.8-1.8H3C2,1.2,1.2,2,1.2,3v23.2C1.2,26.5,0.9,26.8,0.6,26.8z"/>
	<radialGradient id="SVGID_14_" cx="30.5723" cy="12.9452" r="0.7027" gradientUnits="userSpaceOnUse">
		<stop  offset="0" style="stop-color:#FFFFFF"/>
		<stop  offset="1" style="stop-color:#E5E5E6"/>
	</radialGradient>
	<path class="st13" d="M30.6,13.7c-0.3,0-0.6-0.3-0.6-0.6v-0.4c0-0.3,0.3-0.6,0.6-0.6c0.3,0,0.6,0.3,0.6,0.6v0.4
		C31.2,13.5,30.9,13.7,30.6,13.7z"/>
	<radialGradient id="SVGID_15_" cx="31.5925" cy="13.9654" r="0.7027" gradientUnits="userSpaceOnUse">
		<stop  offset="0" style="stop-color:#FFFFFF"/>
		<stop  offset="1" style="stop-color:#E5E5E6"/>
	</radialGradient>
	<path class="st14" d="M31.8,14.6h-0.4c-0.3,0-0.6-0.3-0.6-0.6c0-0.3,0.3-0.6,0.6-0.6h0.4c0.3,0,0.6,0.3,0.6,0.6
		C32.4,14.3,32.1,14.6,31.8,14.6z"/>
	<radialGradient id="SVGID_16_" cx="30.5723" cy="14.9854" r="0.7027" gradientUnits="userSpaceOnUse">
		<stop  offset="0" style="stop-color:#FFFFFF"/>
		<stop  offset="1" style="stop-color:#E5E5E6"/>
	</radialGradient>
	<path class="st15" d="M30.6,15.8c-0.3,0-0.6-0.3-0.6-0.6v-0.4c0-0.3,0.3-0.6,0.6-0.6c0.3,0,0.6,0.3,0.6,0.6v0.4
		C31.2,15.5,30.9,15.8,30.6,15.8z"/>
	<radialGradient id="SVGID_17_" cx="29.5523" cy="13.9654" r="0.7027" gradientUnits="userSpaceOnUse">
		<stop  offset="0" style="stop-color:#FFFFFF"/>
		<stop  offset="1" style="stop-color:#E5E5E6"/>
	</radialGradient>
	<path class="st16" d="M29.8,14.6h-0.4c-0.3,0-0.6-0.3-0.6-0.6c0-0.3,0.3-0.6,0.6-0.6h0.4c0.3,0,0.6,0.3,0.6,0.6
		C30.4,14.3,30.1,14.6,29.8,14.6z"/>
	<radialGradient id="SVGID_18_" cx="26.9677" cy="28.7722" r="0.7027" gradientUnits="userSpaceOnUse">
		<stop  offset="0" style="stop-color:#FFFFFF"/>
		<stop  offset="1" style="stop-color:#E5E5E6"/>
	</radialGradient>
	<path class="st17" d="M27,29.6c-0.3,0-0.6-0.3-0.6-0.6v-0.4c0-0.3,0.3-0.6,0.6-0.6c0.3,0,0.6,0.3,0.6,0.6V29
		C27.6,29.3,27.3,29.6,27,29.6z"/>
	<radialGradient id="SVGID_19_" cx="27.9878" cy="29.7921" r="0.7027" gradientUnits="userSpaceOnUse">
		<stop  offset="0" style="stop-color:#FFFFFF"/>
		<stop  offset="1" style="stop-color:#E5E5E6"/>
	</radialGradient>
	<path class="st18" d="M28.2,30.4h-0.4c-0.3,0-0.6-0.3-0.6-0.6c0-0.3,0.3-0.6,0.6-0.6h0.4c0.3,0,0.6,0.3,0.6,0.6
		C28.8,30.1,28.5,30.4,28.2,30.4z"/>
	<radialGradient id="SVGID_20_" cx="26.9677" cy="30.8123" r="0.7027" gradientUnits="userSpaceOnUse">
		<stop  offset="0" style="stop-color:#FFFFFF"/>
		<stop  offset="1" style="stop-color:#E5E5E6"/>
	</radialGradient>
	<path class="st19" d="M27,31.6c-0.3,0-0.6-0.3-0.6-0.6v-0.4c0-0.3,0.3-0.6,0.6-0.6c0.3,0,0.6,0.3,0.6,0.6V31
		C27.6,31.3,27.3,31.6,27,31.6z"/>
	<radialGradient id="SVGID_21_" cx="25.9477" cy="29.7921" r="0.7027" gradientUnits="userSpaceOnUse">
		<stop  offset="0" style="stop-color:#FFFFFF"/>
		<stop  offset="1" style="stop-color:#E5E5E6"/>
	</radialGradient>
	<path class="st20" d="M26.2,30.4h-0.4c-0.3,0-0.6-0.3-0.6-0.6c0-0.3,0.3-0.6,0.6-0.6h0.4c0.3,0,0.6,0.3,0.6,0.6
		C26.7,30.1,26.5,30.4,26.2,30.4z"/>
</g>
</svg>
