<!-- Generator: Adobe Illustrator 23.0.4, SVG Export Plug-In  -->
<svg version="1.1" xmlns="http://www.w3.org/2000/svg" xmlns:xlink="http://www.w3.org/1999/xlink" x="0px" y="0px"
	 width="1485.6px" height="230.5px" viewBox="0 0 1485.6 230.5" style="enable-background:new 0 0 1485.6 230.5;"
	 xml:space="preserve">
<style type="text/css">
	.st0{fill:#787878;}
	.st1{fill:#00AE36;}
	.st2{fill:#909599;}
	.st3{fill:none;}
	.st4{font-family:'ArialMT';}
	.st5{font-size:40px;}
</style>
<defs>
</defs>
<g>
	<path class="st0" d="M421.7,120.1v-6.3l17.4,0v24.8c-3.5,2.8-12,3.4-15.9,3.4c-5.3,0-10-1.1-14.3-3.4c-4.3-2.3-7.5-5.5-9.7-9.8
		c-2.2-4.3-3.3-9-3.3-14.3c0-5.2,1.1-10.1,3.3-14.6c2.2-4.5,5.3-7.9,9.4-10.1c4.1-2.2,8.8-3.3,14.1-3.3c3.9,0,7.4,0.6,10.5,1.9
		c1.3,0.5,2.4,1.1,3.5,1.8l-2.9,6c-1-0.9-2.2-1.6-3.7-2.2c-2.2-0.9-4.7-1.4-7.4-1.4c-3.2,0-6,0.5-8.4,1.5c-2.4,1-4.3,2.3-5.7,3.9
		c-1.4,1.6-2.6,3.4-3.4,5.3c-1.4,3.3-2,6.9-2,10.8c0,4.8,0.8,8.8,2.5,12c1.6,3.2,4,5.6,7.2,7.2c3.1,1.6,6.5,2.3,10,2.3
		c3.1,0,7.8,0.7,9.3-0.6v-14.9H421.7z"/>
	<path class="st0" d="M447.1,141.1v-38.8h5.9v5.9c1.5-2.7,2.9-4.6,4.2-5.4c1.3-0.9,2.7-1.3,4.2-1.3c2.2,0,4.5,0.7,6.8,2.1l-2.3,6.1
		c-1.6-0.9-3.2-1.4-4.8-1.4c-1.4,0-2.7,0.4-3.9,1.3c-1.1,0.9-2,2.1-2.4,3.6c-0.7,2.3-1.1,4.9-1.1,7.7v20.3H447.1z"/>
	<path class="st0" d="M497.9,141.1v-5.7c-3,4.4-7.1,6.6-12.3,6.6c-2.3,0-4.4-0.4-6.4-1.3c-2-0.9-3.5-2-4.4-3.3c-1-1.3-1.6-3-2-4.9
		c-0.3-1.3-0.4-3.3-0.4-6.1v-24h6.6v21.5c0,3.4,0.1,5.7,0.4,6.9c0.4,1.7,1.3,3.1,2.6,4.1c1.3,1,3,1.5,5,1.5c2,0,3.8-0.5,5.5-1.5
		c1.7-1,3-2.4,3.7-4.1c0.7-1.7,1.1-4.3,1.1-7.6v-20.8h6.6v38.8H497.9z"/>
	<path class="st0" d="M512,155.9v-53.6h6v5c1.4-2,3-3.5,4.8-4.4c1.8-1,3.9-1.5,6.5-1.5c3.3,0,6.2,0.9,8.8,2.6
		c2.5,1.7,4.4,4.1,5.7,7.2c1.3,3.1,1.9,6.5,1.9,10.2c0,4-0.7,7.5-2.1,10.7c-1.4,3.2-3.5,5.6-6.2,7.3c-2.7,1.7-5.6,2.5-8.6,2.5
		c-2.2,0-4.2-0.5-5.9-1.4c-1.7-0.9-3.2-2.1-4.3-3.5v18.9H512z M518,121.9c0,5,1,8.7,3,11.1c2,2.4,4.5,3.6,7.3,3.6
		c2.9,0,5.4-1.2,7.5-3.7c2.1-2.5,3.1-6.3,3.1-11.5c0-4.9-1-8.6-3-11.1c-2-2.5-4.5-3.7-7.3-3.7c-2.8,0-5.3,1.3-7.4,3.9
		C519,113.1,518,116.9,518,121.9z"/>
	<path class="st0" d="M549.8,121.7c0-7.2,2-12.5,6-16c3.3-2.9,7.4-4.3,12.2-4.3c5.3,0,9.7,1.7,13.1,5.2c3.4,3.5,5.1,8.3,5.1,14.5
		c0,5-0.7,8.9-2.2,11.8c-1.5,2.9-3.7,5.1-6.5,6.7c-2.9,1.6-6,2.4-9.4,2.4c-5.4,0-9.8-1.7-13.2-5.2
		C551.4,133.2,549.8,128.2,549.8,121.7z M556.5,121.7c0,5,1.1,8.7,3.2,11.2c2.2,2.5,4.9,3.7,8.2,3.7c3.3,0,6-1.2,8.1-3.7
		c2.2-2.5,3.2-6.3,3.2-11.4c0-4.8-1.1-8.4-3.3-10.9c-2.2-2.5-4.9-3.7-8.1-3.7c-3.3,0-6,1.2-8.2,3.7
		C557.6,113,556.5,116.7,556.5,121.7z"/>
	<path class="st0" d="M652.5,137.4c-3.9,3.1-8.6,4.6-14.1,4.6c-5.8,0-10.5-1.2-14.1-3.5c-3.6-2.3-6.4-5.8-8.3-10.2
		c-1.9-4.5-2.8-9.2-2.8-14.3c0-5.6,1.1-10.4,3.2-14.6c2.1-4.1,5.2-7.3,9.1-9.5c3.9-2.2,8.3-3.2,13-3.2c5.4,0,9.9,1.4,13.5,4.1
		l-4.7,4.6c-2.4-1.8-5.3-2.7-8.9-2.7c-4.1,0-7.6,1-10.3,3c-2.8,2-4.7,4.6-5.8,7.9c-1.1,3.3-1.7,6.7-1.7,10.3c0,4.6,0.7,8.5,2,11.9
		c1.3,3.4,3.4,5.9,6.2,7.6c2.8,1.7,5.8,2.5,9.1,2.5c4,0,7.3-1.1,10.1-3.4L652.5,137.4z"/>
	<path class="st0" d="M654.8,121.7c0-7.2,2-12.5,6-16c3.3-2.9,7.4-4.3,12.2-4.3c5.3,0,9.7,1.7,13.1,5.2c3.4,3.5,5.1,8.3,5.1,14.5
		c0,5-0.7,8.9-2.2,11.8c-1.5,2.9-3.7,5.1-6.5,6.7c-2.9,1.6-6,2.4-9.4,2.4c-5.4,0-9.8-1.7-13.2-5.2
		C656.5,133.2,654.8,128.2,654.8,121.7z M661.6,121.7c0,5,1.1,8.7,3.2,11.2c2.2,2.5,4.9,3.7,8.2,3.7c3.3,0,6-1.2,8.1-3.7
		c2.2-2.5,3.2-6.3,3.2-11.4c0-4.8-1.1-8.4-3.3-10.9c-2.2-2.5-4.9-3.7-8.1-3.7c-3.3,0-6,1.2-8.2,3.7
		C662.7,113,661.6,116.7,661.6,121.7z"/>
	<path class="st0" d="M697.3,141.1v-38.8h5.9v5.5c2.8-4.3,7-6.4,12.3-6.4c2.3,0,4.5,0.4,6.4,1.3c2,0.8,3.4,1.9,4.4,3.3
		c1,1.4,1.7,3,2,4.9c0.2,1.2,0.4,3.3,0.4,6.4v23.8h-6.6v-23.6c0-2.7-0.3-4.7-0.8-6c-0.5-1.3-1.4-2.4-2.7-3.2
		c-1.3-0.8-2.8-1.2-4.6-1.2c-2.8,0-5.2,0.9-7.2,2.7c-2,1.8-3,5.1-3,10.1v21.2H697.3z"/>
	<path class="st0" d="M734.3,129.5l6.5-1c0.4,2.6,1.4,4.6,3,6c1.7,1.4,4,2.1,7,2.1c3,0,5.3-0.6,6.7-1.8c1.5-1.2,2.2-2.7,2.2-4.3
		c0-1.5-0.6-2.7-1.9-3.5c-0.9-0.6-3.1-1.3-6.7-2.2c-4.8-1.2-8.2-2.3-10-3.2c-1.9-0.9-3.3-2.1-4.2-3.7c-1-1.6-1.4-3.3-1.4-5.2
		c0-1.7,0.4-3.3,1.2-4.8c0.8-1.5,1.9-2.7,3.2-3.7c1-0.8,2.4-1.4,4.2-1.9c1.8-0.5,3.7-0.8,5.7-0.8c3,0,5.7,0.4,8,1.3
		c2.3,0.9,4,2.1,5.1,3.6c1.1,1.5,1.8,3.5,2.3,6l-6.4,0.9c-0.3-2-1.1-3.6-2.5-4.7c-1.4-1.1-3.4-1.7-5.9-1.7c-3,0-5.2,0.5-6.5,1.5
		c-1.3,1-1.9,2.2-1.9,3.5c0,0.9,0.3,1.6,0.8,2.3c0.5,0.7,1.4,1.3,2.5,1.8c0.7,0.2,2.6,0.8,5.8,1.7c4.6,1.2,7.9,2.3,9.7,3
		c1.8,0.8,3.3,1.9,4.3,3.4c1,1.5,1.6,3.4,1.6,5.6c0,2.2-0.6,4.3-1.9,6.2c-1.3,1.9-3.1,3.4-5.5,4.5c-2.4,1.1-5.1,1.6-8.2,1.6
		c-5,0-8.9-1-11.5-3.1C736.7,136.7,735.1,133.6,734.3,129.5z"/>
	<path class="st0" d="M797.7,141.1v-5.7c-3,4.4-7.1,6.6-12.3,6.6c-2.3,0-4.4-0.4-6.4-1.3c-2-0.9-3.5-2-4.4-3.3c-1-1.3-1.6-3-2-4.9
		c-0.3-1.3-0.4-3.3-0.4-6.1v-24h6.6v21.5c0,3.4,0.1,5.7,0.4,6.9c0.4,1.7,1.3,3.1,2.6,4.1c1.3,1,3,1.5,5,1.5c2,0,3.8-0.5,5.6-1.5
		c1.7-1,3-2.4,3.7-4.1c0.7-1.7,1.1-4.3,1.1-7.6v-20.8h6.6v38.8H797.7z"/>
	<path class="st0" d="M811.7,141.1V87.6h6.6v53.5H811.7z"/>
	<path class="st0" d="M840.8,135.2l0.9,5.8c-1.8,0.4-3.5,0.6-5,0.6c-2.4,0-4.2-0.4-5.5-1.1c-1.3-0.8-2.2-1.7-2.8-3
		c-0.5-1.2-0.8-3.8-0.8-7.8v-22.3h-4.8v-5.1h4.8v-9.6l6.5-3.9v13.5h6.6v5.1h-6.6v22.7c0,1.9,0.1,3.1,0.3,3.6c0.2,0.5,0.6,1,1.1,1.3
		c0.5,0.3,1.3,0.5,2.2,0.5C838.7,135.5,839.6,135.4,840.8,135.2z"/>
	<path class="st0" d="M844.8,121.2c0-7.2,2-12.5,6-16c3.3-2.9,7.4-4.3,12.2-4.3c5.3,0,9.7,1.7,13.1,5.2c3.4,3.5,5.1,8.3,5.1,14.5
		c0,5-0.7,8.9-2.2,11.8c-1.5,2.9-3.7,5.1-6.5,6.7c-2.9,1.6-6,2.4-9.4,2.4c-5.4,0-9.8-1.7-13.2-5.2
		C846.5,132.8,844.8,127.8,844.8,121.2z M851.6,121.2c0,5,1.1,8.7,3.2,11.2c2.2,2.5,4.9,3.7,8.2,3.7c3.3,0,6-1.2,8.1-3.7
		c2.2-2.5,3.2-6.3,3.2-11.4c0-4.8-1.1-8.4-3.3-10.9c-2.2-2.5-4.9-3.7-8.1-3.7c-3.3,0-6,1.2-8.2,3.7
		C852.6,112.6,851.6,116.3,851.6,121.2z"/>
	<path class="st0" d="M885,141.1v-38.8h5.9v5.9c1.5-2.7,2.9-4.6,4.2-5.4c1.3-0.9,2.7-1.3,4.2-1.3c2.2,0,4.5,0.7,6.8,2.1l-2.3,6.1
		c-1.6-0.9-3.2-1.4-4.8-1.4c-1.4,0-2.7,0.4-3.9,1.3c-1.1,0.9-2,2.1-2.4,3.6c-0.7,2.3-1.1,4.9-1.1,7.7v20.3H885z"/>
	<path class="st0" d="M931.7,141.1V87.6h38.7v6.3h-31.6v16.4h29.6v6.3h-29.6v18.2h32.9v6.3H931.7z"/>
	<path class="st0" d="M1147.9,135.2l0.9,5.8c-1.8,0.4-3.5,0.6-5,0.6c-2.4,0-4.2-0.4-5.5-1.1c-1.3-0.8-2.2-1.7-2.8-3
		c-0.5-1.2-0.8-3.8-0.8-7.8v-22.3h-4.8v-5.1h4.8v-9.6l6.5-3.9v13.5h6.6v5.1h-6.6v22.7c0,1.9,0.1,3.1,0.3,3.6c0.2,0.5,0.6,1,1.1,1.3
		c0.5,0.3,1.3,0.5,2.2,0.5C1145.7,135.5,1146.7,135.4,1147.9,135.2z"/>
	<path class="st0" d="M1158,95.1v-7.6h6.6v7.6H1158z M1158,141.1v-38.8h6.6v38.8H1158z"/>
	<path class="st0" d="M1206.6,121.7c0-7.2,2-12.5,6-16c3.3-2.9,7.4-4.3,12.2-4.3c5.3,0,9.7,1.7,13.1,5.2c3.4,3.5,5.1,8.3,5.1,14.5
		c0,5-0.7,8.9-2.2,11.8c-1.5,2.9-3.7,5.1-6.5,6.7c-2.9,1.6-6,2.4-9.4,2.4c-5.4,0-9.8-1.7-13.2-5.2
		C1208.3,133.2,1206.6,128.2,1206.6,121.7z M1213.4,121.7c0,5,1.1,8.7,3.2,11.2c2.2,2.5,4.9,3.7,8.2,3.7c3.3,0,6-1.2,8.1-3.7
		c2.2-2.5,3.2-6.3,3.2-11.4c0-4.8-1.1-8.4-3.3-10.9c-2.2-2.5-4.9-3.7-8.1-3.7c-3.3,0-6,1.2-8.2,3.7
		C1214.5,113,1213.4,116.7,1213.4,121.7z"/>
	<polyline class="st0" points="654.8,121.7 661.2,138 669,141.6 	"/>
	<path class="st0" d="M1008.9,89.8v51.4h-6v-4.8c-1.4,1.9-3,3.3-4.8,4.3c-1.8,0.9-3.9,1.4-6.4,1.4c-3.3,0-6.2-0.8-8.7-2.4
		c-2.5-1.6-4.4-3.9-5.7-6.9c-1.3-3-1.9-6.2-1.9-9.8c0-3.8,0.7-7.2,2.1-10.3c1.4-3,3.5-5.4,6.2-7c2.7-1.6,5.5-2.4,8.5-2.4
		c2.2,0,4.1,0.4,5.9,1.3c1.7,0.9,3.2,2,4.3,3.4V89.8H1008.9z M1002.9,122.4c0-4.8-1-8.3-3-10.6c-2-2.3-4.5-3.4-7.3-3.4
		c-2.9,0-5.4,1.2-7.5,3.6c-2.1,2.4-3.1,6-3.1,11c0,4.7,1,8.3,3,10.6c2,2.4,4.4,3.5,7.3,3.5c2.8,0,5.3-1.3,7.4-3.8
		C1001.9,130.8,1002.9,127.1,1002.9,122.4z"/>
	<path class="st0" d="M1042.4,140.2v-5.7c-3,4.4-7.1,6.6-12.3,6.6c-2.3,0-4.4-0.4-6.4-1.3c-2-0.9-3.5-2-4.4-3.3c-1-1.3-1.6-3-2-4.9
		c-0.3-1.3-0.4-3.3-0.4-6.1v-24h6.6v21.5c0,3.4,0.1,5.7,0.4,6.9c0.4,1.7,1.3,3.1,2.6,4.1c1.3,1,3,1.5,5,1.5c2,0,3.8-0.5,5.5-1.5
		c1.7-1,3-2.4,3.7-4.1c0.7-1.7,1.1-4.3,1.1-7.6v-20.8h6.6v38.8H1042.4z"/>
</g>
<g>
	<g>
		<path class="st0" d="M1082.3,126.4l6.4,0.8c-0.7,4.4-2.5,7.9-5.4,10.3c-2.9,2.5-6.4,3.7-10.6,3.7c-5.2,0-9.5-1.7-12.7-5.1
			c-3.2-3.4-4.8-8.3-4.8-14.7c0-4.1,0.7-7.8,2.1-10.9c1.4-3.1,3.5-5.4,6.3-7c2.8-1.6,5.9-2.3,9.2-2.3c4.2,0,7.6,1.1,10.2,3.2
			c2.6,2.1,4.3,5.1,5.1,9l-6.3,1c-0.6-2.6-1.7-4.5-3.2-5.8c-1.5-1.3-3.4-1.9-5.5-1.9c-3.3,0-5.9,1.2-8,3.5c-2,2.3-3.1,6.1-3.1,11.1
			c0,5.2,1,8.9,3,11.2c2,2.3,4.5,3.5,7.7,3.5c2.6,0,4.7-0.8,6.4-2.3C1080.8,132,1081.9,129.6,1082.3,126.4z"/>
		<path class="st0" d="M1119.1,135.7c-2.4,2-4.7,3.5-7,4.3c-2.2,0.8-4.6,1.3-7.2,1.3c-4.2,0-7.4-1-9.7-3.1c-2.3-2.1-3.4-4.7-3.4-7.9
			c0-1.9,0.4-3.6,1.3-5.1c0.9-1.6,2-2.8,3.4-3.7c1.4-0.9,2.9-1.6,4.7-2.1c1.3-0.3,3.2-0.7,5.8-1c5.2-0.6,9.1-1.4,11.6-2.2
			c0-0.9,0-1.5,0-1.7c0-2.6-0.6-4.5-1.8-5.6c-1.7-1.5-4.1-2.2-7.4-2.2c-3.1,0-5.3,0.5-6.8,1.6c-1.5,1.1-2.5,3-3.2,5.7l-6.4-0.9
			c0.6-2.7,1.5-4.9,2.9-6.6c1.3-1.7,3.2-3,5.7-3.9c2.5-0.9,5.4-1.4,8.7-1.4c3.3,0,5.9,0.4,8,1.2c2,0.8,3.5,1.7,4.5,2.9
			c1,1.2,1.6,2.6,2,4.4c0.2,1.1,0.3,3.1,0.3,6v8.7c0,6,0.1,9.9,0.4,11.5c0.3,1.6,0.8,3.1,1.6,4.6h-6.8
			C1119.7,139.1,1119.3,137.5,1119.1,135.7z M1118.6,121.2c-2.4,1-5.9,1.8-10.6,2.5c-2.7,0.4-4.6,0.8-5.7,1.3
			c-1.1,0.5-2,1.2-2.6,2.1c-0.6,0.9-0.9,2-0.9,3.1c0,1.7,0.7,3.2,2,4.3c1.3,1.2,3.2,1.7,5.8,1.7c2.5,0,4.7-0.5,6.7-1.6
			c2-1.1,3.4-2.6,4.3-4.5c0.7-1.5,1-3.6,1-6.5V121.2z"/>
	</g>
</g>
<g>
	<path class="st0" d="M1184.5,140.3l-11.9-36.7h7.3l5,16.7c1.4,4.6,2.6,8.9,3.6,13.4h0.1c1-4.4,2.3-8.8,3.8-13.3l5.3-16.8h7.1
		l-12.7,36.7H1184.5z"/>
</g>
<path class="st1" d="M301.8,161.2h-42v-32h36v-12h-36v-30h35c2.4,2,4.8,4.4,7,6.6v11.4h10.8c8.1,8,15.2,17.7,21.2,27.1
	C266.1,11.7,49.9-40.2,5.5,35.2c-30.7,52,72.3,145.3,191.3,176.9c-34.9-11.7-63.6-25.1-86.9-39.1c0.1,0,0.2-0.1,0.2-0.1
	c27.1-4.8,32.7-28.8,32.7-28.8h2.1c0.9,3,12.7,31.5,44.9,31.5c38.5,0,47.7-34.2,47.7-34.2l-12-7.2c-6.6,18.9-18,28.5-34,28.5
	c-10.8,0-34.5-10-34.5-35.5s13.7-41,35.2-41s30.4,20,30.4,20h12.2v-19h10v74h-13v13h82v-30h-12V161.2z M294.8,87.3c0,0,0,0-0.1-0.1
	C294.7,87.2,294.7,87.2,294.8,87.3z M222.8,75.3v9.4c0,0-7.6-10.9-34.6-10.9c-48.1,0-46.4,52.5-46.4,52.5h-32v12h17.9
	c-5,26-33.6,24.6-34,24.6c-13.7-9.4-24.8-18.9-34.8-28.4c0-0.9,0-3.6,0-9.6c0-7.9,3.6-39,32.6-39s36.4,21.5,36.4,21.5h12v-32h-12
	v10.4c0,0-11.4-12.5-36.9-12.5c-41.6,0-46.5,39.9-46.8,44C22.8,89,18.9,63.4,25.4,47.8c7.9-19,30.7-35.7,80.4-36
	C162.9,9.7,230,36.2,280.1,75.3L222.8,75.3z"/>
<g>
	<path class="st2" d="M50.7,136.3c0,0-2.6-2.3-6.5-5.8c-54.1,75.7,11.6,102.3,65.1,99.8C5.3,224.8,33.8,159.3,50.7,136.3z"/>
	<path class="st2" d="M373.3,56.8c0,0-6,7-20.5,26c4-3,10.5-5.5,14-5c-14.5,78.5-150.8,155-236,152.7
		c108,3.3,237.5-86.8,246.5-152.7c7.5,2,12.5,6,12.5,6L373.3,56.8z"/>
</g>
<rect x="416" y="155.2" class="st3" width="1069.6" height="42.5"/>
<text transform="matrix(1 0 0 1 415.9663 183.8392)" class="st2 st4 st5">Comunicación y tecnología para la educación</text>
</svg>
