<svg xmlns="http://www.w3.org/2000/svg" viewBox="0 0 46.65 34.28"><defs><style>.cls-1{fill:#fff;}</style></defs><title>plantilla_iconoGlosario</title><g id="Capa_2" data-name="Capa 2"><g id="Capa_4" data-name="Capa 4"><path class="cls-1" d="M5.44,19.52,0,34.28H4.57l.66-2.1H9.92l.62,2.1h4.72L9.88,19.52ZM6.22,29l1.43-4.55h0L9,29Z"/><path class="cls-1" d="M28.81,7.78A3.12,3.12,0,0,0,28,7.05a4.18,4.18,0,0,0-1-.45,4.18,4.18,0,0,0,1.32-1.12,2.91,2.91,0,0,0,.5-1.78,4.21,4.21,0,0,0-.19-1.21A2.91,2.91,0,0,0,28,1.28,4.06,4.06,0,0,0,26.51.36,6.56,6.56,0,0,0,24.14,0H16.06V14.76h8.37a6.19,6.19,0,0,0,1.91-.29A5.25,5.25,0,0,0,28,13.63a4.42,4.42,0,0,0,1.17-1.4,4.2,4.2,0,0,0,.44-2,4.15,4.15,0,0,0-.22-1.42A3.52,3.52,0,0,0,28.81,7.78Zm-8.2-4.27H23a2.41,2.41,0,0,1,1.13.23.82.82,0,0,1,.43.79,1,1,0,0,1-.42,1A2.17,2.17,0,0,1,23,5.75H20.61Zm4.3,7a1.08,1.08,0,0,1-.4.42,1.87,1.87,0,0,1-.56.22,3.74,3.74,0,0,1-.68.06H20.6V8.5h2.86c1.06,0,1.59.45,1.59,1.34A1.63,1.63,0,0,1,24.91,10.55Z"/><path class="cls-1" d="M42.19,24.35a5.76,5.76,0,0,1-.28,1,2.6,2.6,0,0,1-.46.78,1.75,1.75,0,0,1-.68.52,2.26,2.26,0,0,1-1,.19,2.46,2.46,0,0,1-1.35-.35,2.78,2.78,0,0,1-.86-.94,4.65,4.65,0,0,1-.46-1.3,7.23,7.23,0,0,1,0-2.93A4.71,4.71,0,0,1,37.58,20a2.74,2.74,0,0,1,.86-.93,2.46,2.46,0,0,1,1.35-.35,2.14,2.14,0,0,1,1.14.27,2.61,2.61,0,0,1,.72.62,2.2,2.2,0,0,1,.37.71c.07.25.11.43.14.57h4.43a6.57,6.57,0,0,0-2-4.31A6.84,6.84,0,0,0,39.91,15a8.22,8.22,0,0,0-3.09.56,6.87,6.87,0,0,0-2.36,1.57A7.13,7.13,0,0,0,33,19.59a9.07,9.07,0,0,0-.53,3.16,9.16,9.16,0,0,0,.5,3.05,6.72,6.72,0,0,0,1.46,2.45,6.81,6.81,0,0,0,2.34,1.64,8,8,0,0,0,3.19.6A7.24,7.24,0,0,0,42.78,30a6.42,6.42,0,0,0,2.12-1.42,5.93,5.93,0,0,0,1.3-2,5.79,5.79,0,0,0,.45-2.22Z"/></g></g></svg>