<svg xmlns="http://www.w3.org/2000/svg" viewBox="0 0 46.06 49.08"><defs><style>.cls-1{fill:#dfa62c;}.cls-2{fill:#b4c751;}</style></defs><title>plantilla_botonAnterior</title><g id="Capa_2" data-name="Capa 2"><g id="Capa_4" data-name="Capa 4"><path class="cls-1" d="M28.14,1.38h0a4.71,4.71,0,0,1,0,6.68l-12,12a6.38,6.38,0,0,0,0,9l12,12a4.7,4.7,0,0,1,0,6.67h0a4.7,4.7,0,0,1-6.67,0L1.19,27.42a4.07,4.07,0,0,1,0-5.76L21.47,1.38A4.72,4.72,0,0,1,28.14,1.38Z"/><path class="cls-2" d="M44.68,10.77h0a4.71,4.71,0,0,1,0,6.68L40.83,21.3a4.57,4.57,0,0,0,0,6.47l3.85,3.86a4.7,4.7,0,0,1,0,6.67h0a4.71,4.71,0,0,1-6.68,0L27.12,27.42a4.07,4.07,0,0,1,0-5.76L38,10.77A4.73,4.73,0,0,1,44.68,10.77Z"/></g></g></svg>