<svg xmlns="http://www.w3.org/2000/svg" viewBox="0 0 562.62 470.8"><defs><style>.cls-1,.cls-3{fill:#fff;}.cls-1{opacity:0;}.cls-2{fill:#035aa6;}.cls-4{fill:#ffd053;}.cls-5{fill:#84bf2c;}</style></defs><title>slide10_pregunta8</title><g id="Capa_2" data-name="Capa 2"><g id="Layer_7" data-name="Layer 7"><rect class="cls-1" width="562.62" height="470.8"/><rect class="cls-2" x="66.23" y="244.29" width="424.94" height="82.15" rx="12.02"/><path class="cls-3" d="M90.91,264.83H80.79V249.48H90.91v1.81H82.83v4.21h8.08v1.82H82.83V263h8.08Z"/><path class="cls-3" d="M103.62,264.83h-1.94v-6.56a11.7,11.7,0,0,0-.09-1.49,2.75,2.75,0,0,0-.34-1.08,1.59,1.59,0,0,0-.75-.65,3.16,3.16,0,0,0-1.25-.21,4,4,0,0,0-1.66.39,8.62,8.62,0,0,0-1.66,1v8.6H94V253.32h1.94v1.27a7.84,7.84,0,0,1,1.87-1.17,5,5,0,0,1,2-.42,3.56,3.56,0,0,1,2.85,1.12,4.81,4.81,0,0,1,1,3.24Z"/><path class="cls-3" d="M124.91,258.93a7.78,7.78,0,0,1-.41,2.57,5.49,5.49,0,0,1-1.13,2,4.76,4.76,0,0,1-1.6,1.18,4.7,4.7,0,0,1-2,.42,6.25,6.25,0,0,1-1.62-.2,6.35,6.35,0,0,1-1.48-.61v4.83h-1.94V253.32h1.94v1.2a7.87,7.87,0,0,1,1.74-1.09,4.93,4.93,0,0,1,2-.43,3.81,3.81,0,0,1,3.25,1.57A7.24,7.24,0,0,1,124.91,258.93Zm-2,.05a5.56,5.56,0,0,0-.71-3.11,2.51,2.51,0,0,0-2.19-1,4.24,4.24,0,0,0-1.68.36,7.88,7.88,0,0,0-1.62.95v6.53a8.18,8.18,0,0,0,1.42.5,6,6,0,0,0,1.34.14,3.12,3.12,0,0,0,2.53-1.1A5,5,0,0,0,122.91,259Z"/><path class="cls-3" d="M137.47,264.83h-1.94v-1.28a9.33,9.33,0,0,1-1.87,1.19,4.77,4.77,0,0,1-2,.41,3.65,3.65,0,0,1-2.83-1.11,4.69,4.69,0,0,1-1-3.25v-7.47h1.94v6.55a12.55,12.55,0,0,0,.08,1.5,3,3,0,0,0,.35,1.07,1.71,1.71,0,0,0,.73.66,3.08,3.08,0,0,0,1.29.21,4.13,4.13,0,0,0,1.64-.4,7.41,7.41,0,0,0,1.66-1v-8.59h1.94Z"/><path class="cls-3" d="M150.92,264.83H149v-6.56a10.07,10.07,0,0,0-.1-1.49,2.59,2.59,0,0,0-.34-1.08,1.57,1.57,0,0,0-.74-.65,3.18,3.18,0,0,0-1.26-.21,4.08,4.08,0,0,0-1.66.39,8.55,8.55,0,0,0-1.65,1v8.6h-1.94V253.32h1.94v1.27a7.65,7.65,0,0,1,1.87-1.17,5,5,0,0,1,2-.42,3.59,3.59,0,0,1,2.85,1.12,4.81,4.81,0,0,1,1,3.24Z"/><path class="cls-3" d="M160.63,264.73c-.37.09-.77.17-1.19.23a7.25,7.25,0,0,1-1.15.1,3.56,3.56,0,0,1-2.68-.95,4.22,4.22,0,0,1-.92-3v-6.13h-1.31v-1.62h1.31V250h1.94v3.31h4v1.62h-4v5.25c0,.61,0,1.08,0,1.42a2.24,2.24,0,0,0,.29.95,1.4,1.4,0,0,0,.62.61,3,3,0,0,0,1.21.19,3.87,3.87,0,0,0,1-.14,6.49,6.49,0,0,0,.74-.24h.11Z"/><path class="cls-3" d="M172.78,259.08a6.46,6.46,0,0,1-1.44,4.44,5.42,5.42,0,0,1-7.75,0,7.58,7.58,0,0,1,0-8.89,5.42,5.42,0,0,1,7.75,0A6.49,6.49,0,0,1,172.78,259.08Zm-2,0a5.24,5.24,0,0,0-.88-3.33,3.3,3.3,0,0,0-4.88,0,5.3,5.3,0,0,0-.87,3.33,5.19,5.19,0,0,0,.88,3.28,3.22,3.22,0,0,0,4.87,0A5.19,5.19,0,0,0,170.78,259.08Z"/><path class="cls-3" d="M192.15,264.83h-1.93V263.6l-.69.49a4.81,4.81,0,0,1-.85.5,5.7,5.7,0,0,1-2.59.56,3.67,3.67,0,0,1-2.64-1,3.48,3.48,0,0,1-1.08-2.63,3.69,3.69,0,0,1,.56-2.12,3.8,3.8,0,0,1,1.6-1.27,8.75,8.75,0,0,1,2.53-.63c1-.11,2-.19,3.16-.25v-.3a2.23,2.23,0,0,0-.23-1.09,1.66,1.66,0,0,0-.66-.68,2.88,2.88,0,0,0-1-.32,9.46,9.46,0,0,0-1.21-.08,8.48,8.48,0,0,0-1.7.2,13.58,13.58,0,0,0-1.94.58h-.1v-2c.38-.1.92-.21,1.64-.34a12.7,12.7,0,0,1,2.11-.18,9.48,9.48,0,0,1,2.12.2,4.1,4.1,0,0,1,1.56.68,3.06,3.06,0,0,1,1,1.23,4.47,4.47,0,0,1,.34,1.87ZM190.22,262v-3.21c-.59,0-1.28.09-2.08.15a10.83,10.83,0,0,0-1.9.3,3.24,3.24,0,0,0-1.36.74,2.14,2.14,0,0,0,.09,2.87,2.79,2.79,0,0,0,1.82.5,4.45,4.45,0,0,0,1.87-.4A8.23,8.23,0,0,0,190.22,262Z"/><path class="cls-3" d="M204.4,264.11a12.41,12.41,0,0,1-1.84.72,6.56,6.56,0,0,1-1.85.26,6.71,6.71,0,0,1-2.29-.37,4.55,4.55,0,0,1-1.78-1.11,4.93,4.93,0,0,1-1.17-1.87,7.89,7.89,0,0,1-.41-2.65,6.13,6.13,0,0,1,1.55-4.43,5.4,5.4,0,0,1,4.1-1.61,6.69,6.69,0,0,1,1.94.28,9.51,9.51,0,0,1,1.75.68v2.15h-.1a7.8,7.8,0,0,0-1.83-1.06,5,5,0,0,0-1.84-.37,3.27,3.27,0,0,0-2.61,1.11,6,6,0,0,0,0,6.45,3.22,3.22,0,0,0,2.63,1.12,4.48,4.48,0,0,0,1.19-.16,4.66,4.66,0,0,0,1.09-.4,7.62,7.62,0,0,0,.8-.46c.25-.16.44-.3.59-.41h.1Z"/><path class="cls-3" d="M216.7,259.08a6.42,6.42,0,0,1-1.45,4.44,5.41,5.41,0,0,1-7.74,0,7.58,7.58,0,0,1,0-8.89,5.41,5.41,0,0,1,7.74,0A6.45,6.45,0,0,1,216.7,259.08Zm-2,0a5.24,5.24,0,0,0-.88-3.33,3.3,3.3,0,0,0-4.88,0,5.3,5.3,0,0,0-.87,3.33,5.19,5.19,0,0,0,.88,3.28,2.9,2.9,0,0,0,2.44,1.12,2.94,2.94,0,0,0,2.43-1.11A5.25,5.25,0,0,0,214.7,259.08Z"/><path class="cls-3" d="M226.88,255.43h-.1a6.77,6.77,0,0,0-.84-.15,8.72,8.72,0,0,0-1-.05,4.1,4.1,0,0,0-1.74.4,7.75,7.75,0,0,0-1.6,1v8.17H219.7V253.32h1.94V255a9.52,9.52,0,0,1,2-1.32,4.41,4.41,0,0,1,1.8-.38,6.79,6.79,0,0,1,.73,0l.68.1Z"/><path class="cls-3" d="M238.05,264.83h-1.94v-1.21a7,7,0,0,1-1.74,1.13,4.79,4.79,0,0,1-2,.4,3.91,3.91,0,0,1-3.28-1.59,7.15,7.15,0,0,1-1.21-4.4,7.6,7.6,0,0,1,.42-2.61,6.21,6.21,0,0,1,1.13-2A4.77,4.77,0,0,1,233,253a6.08,6.08,0,0,1,1.61.19,7.16,7.16,0,0,1,1.47.59v-5h1.94ZM236.11,262v-6.61a7,7,0,0,0-1.4-.49,6.31,6.31,0,0,0-1.35-.13,3.09,3.09,0,0,0-2.54,1.13,5.08,5.08,0,0,0-.91,3.22,5.77,5.77,0,0,0,.7,3.12,2.5,2.5,0,0,0,2.25,1.07,4.24,4.24,0,0,0,1.67-.37A7.41,7.41,0,0,0,236.11,262Z"/><path class="cls-3" d="M250.81,264.83h-1.93V263.6l-.69.49a5.19,5.19,0,0,1-.85.5,6.1,6.1,0,0,1-1.12.4,5.85,5.85,0,0,1-1.47.16,3.67,3.67,0,0,1-2.64-1,3.48,3.48,0,0,1-1.08-2.63,3.61,3.61,0,0,1,.56-2.12,3.73,3.73,0,0,1,1.6-1.27,8.67,8.67,0,0,1,2.53-.63c1-.11,2-.19,3.16-.25v-.3a2.23,2.23,0,0,0-.23-1.09,1.73,1.73,0,0,0-.66-.68,2.88,2.88,0,0,0-1-.32,9.46,9.46,0,0,0-1.21-.08,8.4,8.4,0,0,0-1.7.2,13.21,13.21,0,0,0-1.94.58h-.1v-2c.38-.1.92-.21,1.64-.34a12.7,12.7,0,0,1,2.11-.18,9.48,9.48,0,0,1,2.12.2,4.1,4.1,0,0,1,1.56.68,3.14,3.14,0,0,1,1,1.23,4.47,4.47,0,0,1,.34,1.87ZM248.88,262v-3.21c-.59,0-1.28.09-2.09.15a11,11,0,0,0-1.9.3,3.26,3.26,0,0,0-1.35.74,1.83,1.83,0,0,0-.51,1.38,1.86,1.86,0,0,0,.59,1.49,2.83,2.83,0,0,0,1.83.5,4.45,4.45,0,0,0,1.87-.4A8.23,8.23,0,0,0,248.88,262Z"/><path class="cls-3" d="M263.88,264.83h-1.94v-1.21a6.64,6.64,0,0,1-1.74,1.13,4.75,4.75,0,0,1-2,.4,3.9,3.9,0,0,1-3.27-1.59,7.08,7.08,0,0,1-1.21-4.4,7.6,7.6,0,0,1,.42-2.61,6,6,0,0,1,1.12-2,4.77,4.77,0,0,1,1.64-1.19,4.62,4.62,0,0,1,1.93-.41,6,6,0,0,1,1.61.19,6.74,6.74,0,0,1,1.47.59v-5h1.94ZM261.94,262v-6.61a7,7,0,0,0-1.4-.49,6.31,6.31,0,0,0-1.35-.13,3.07,3.07,0,0,0-2.53,1.13,5,5,0,0,0-.91,3.22,5.68,5.68,0,0,0,.7,3.12,2.5,2.5,0,0,0,2.25,1.07,4.28,4.28,0,0,0,1.67-.37A7.34,7.34,0,0,0,261.94,262Z"/><path class="cls-3" d="M277.51,259.08a6.46,6.46,0,0,1-1.44,4.44,5.42,5.42,0,0,1-7.75,0,7.58,7.58,0,0,1,0-8.89,5.42,5.42,0,0,1,7.75,0A6.49,6.49,0,0,1,277.51,259.08Zm-2,0a5.24,5.24,0,0,0-.88-3.33,3.3,3.3,0,0,0-4.88,0,5.3,5.3,0,0,0-.87,3.33,5.19,5.19,0,0,0,.88,3.28,3.22,3.22,0,0,0,4.87,0A5.19,5.19,0,0,0,275.51,259.08Z"/><path class="cls-3" d="M284.22,261.89l-2.91,6.76h-1.5l1.79-6.76Z"/><path class="cls-3" d="M304.64,264.83h-1.93v-1.21a6.86,6.86,0,0,1-1.75,1.13,4.75,4.75,0,0,1-2,.4,3.9,3.9,0,0,1-3.27-1.59,7.08,7.08,0,0,1-1.21-4.4,7.6,7.6,0,0,1,.42-2.61,6,6,0,0,1,1.13-2,4.77,4.77,0,0,1,3.56-1.6,6,6,0,0,1,1.61.19,7,7,0,0,1,1.48.59v-5h1.93ZM302.71,262v-6.61a7,7,0,0,0-1.41-.49,6.31,6.31,0,0,0-1.35-.13,3.07,3.07,0,0,0-2.53,1.13,5,5,0,0,0-.91,3.22,5.68,5.68,0,0,0,.7,3.12,2.5,2.5,0,0,0,2.25,1.07,4.24,4.24,0,0,0,1.67-.37A7.67,7.67,0,0,0,302.71,262Z"/><path class="cls-3" d="M318.1,259.27h-8.49a4.94,4.94,0,0,0,.32,1.85,3.6,3.6,0,0,0,.88,1.3,3.43,3.43,0,0,0,1.27.74,4.94,4.94,0,0,0,1.63.25,6.44,6.44,0,0,0,2.36-.47,5.82,5.82,0,0,0,1.7-.92h.1v2.11a17.49,17.49,0,0,1-2,.69,7.9,7.9,0,0,1-2.14.28,6.21,6.21,0,0,1-4.48-1.55,5.87,5.87,0,0,1-1.61-4.41,6.31,6.31,0,0,1,1.55-4.48,5.25,5.25,0,0,1,4.05-1.66,4.63,4.63,0,0,1,3.59,1.36,5.41,5.41,0,0,1,1.27,3.86Zm-1.89-1.48a3.42,3.42,0,0,0-.77-2.36,2.93,2.93,0,0,0-2.3-.84,3.38,3.38,0,0,0-2.48.92,3.57,3.57,0,0,0-1.05,2.28Z"/><path class="cls-3" d="M330.42,264.83h-1.94v-16h1.94Z"/><path class="cls-3" d="M343.2,264.83h-1.93V263.6l-.69.49a5.19,5.19,0,0,1-.85.5,6.1,6.1,0,0,1-1.12.4,5.85,5.85,0,0,1-1.47.16,3.67,3.67,0,0,1-2.64-1,3.48,3.48,0,0,1-1.08-2.63,3.69,3.69,0,0,1,.56-2.12,3.73,3.73,0,0,1,1.6-1.27,8.67,8.67,0,0,1,2.53-.63c1-.11,2-.19,3.16-.25v-.3a2.23,2.23,0,0,0-.23-1.09,1.73,1.73,0,0,0-.66-.68,2.88,2.88,0,0,0-1-.32,9.46,9.46,0,0,0-1.21-.08,8.4,8.4,0,0,0-1.7.2,13.21,13.21,0,0,0-1.94.58h-.1v-2c.38-.1.92-.21,1.64-.34a12.7,12.7,0,0,1,2.11-.18,9.48,9.48,0,0,1,2.12.2,4.1,4.1,0,0,1,1.56.68,3.14,3.14,0,0,1,1,1.23,4.47,4.47,0,0,1,.34,1.87ZM341.27,262v-3.21c-.59,0-1.28.09-2.08.15a11,11,0,0,0-1.91.3,3.26,3.26,0,0,0-1.35.74,2.14,2.14,0,0,0,.09,2.87,2.79,2.79,0,0,0,1.82.5,4.45,4.45,0,0,0,1.87-.4A8.23,8.23,0,0,0,341.27,262Z"/><path class="cls-3" d="M362.87,264.11a12.41,12.41,0,0,1-1.84.72,6.56,6.56,0,0,1-1.85.26,6.75,6.75,0,0,1-2.29-.37,4.55,4.55,0,0,1-1.78-1.11,5.05,5.05,0,0,1-1.17-1.87,7.89,7.89,0,0,1-.41-2.65,6.13,6.13,0,0,1,1.55-4.43,5.42,5.42,0,0,1,4.1-1.61,6.69,6.69,0,0,1,1.94.28,9.51,9.51,0,0,1,1.75.68v2.15h-.1a7.42,7.42,0,0,0-1.83-1.06,5,5,0,0,0-1.84-.37,3.27,3.27,0,0,0-2.61,1.11,6,6,0,0,0,0,6.45,3.24,3.24,0,0,0,2.63,1.12,4.48,4.48,0,0,0,1.19-.16,4.92,4.92,0,0,0,1.1-.4,8.61,8.61,0,0,0,.79-.46c.25-.16.44-.3.59-.41h.1Z"/><path class="cls-3" d="M367.44,251.39h-2.19v-2h2.19Zm-.13,13.44h-1.93V253.32h1.93Z"/><path class="cls-3" d="M380.7,264.83h-1.94v-1.28a9.66,9.66,0,0,1-1.88,1.19,4.77,4.77,0,0,1-2,.41,3.61,3.61,0,0,1-2.82-1.11,4.64,4.64,0,0,1-1-3.25v-7.47H373v6.55a10.58,10.58,0,0,0,.09,1.5,2.65,2.65,0,0,0,.35,1.07,1.63,1.63,0,0,0,.72.66,3.08,3.08,0,0,0,1.29.21,4.13,4.13,0,0,0,1.64-.4,7.47,7.47,0,0,0,1.67-1v-8.59h1.94Z"/><path class="cls-3" d="M393.85,264.83h-1.94v-1.21a7,7,0,0,1-1.74,1.13,4.79,4.79,0,0,1-2,.4,3.89,3.89,0,0,1-3.27-1.59,7.08,7.08,0,0,1-1.21-4.4,7.85,7.85,0,0,1,.41-2.61,6.21,6.21,0,0,1,1.13-2,4.67,4.67,0,0,1,1.64-1.19,4.62,4.62,0,0,1,1.93-.41,6.08,6.08,0,0,1,1.61.19,6.94,6.94,0,0,1,1.47.59v-5h1.94ZM391.91,262v-6.61a7,7,0,0,0-1.4-.49,6.31,6.31,0,0,0-1.35-.13,3.09,3.09,0,0,0-2.54,1.13,5.08,5.08,0,0,0-.9,3.22,5.68,5.68,0,0,0,.7,3.12,2.48,2.48,0,0,0,2.24,1.07,4.24,4.24,0,0,0,1.67-.37A7.41,7.41,0,0,0,391.91,262Z"/><path class="cls-3" d="M406.61,264.83h-1.93V263.6l-.69.49a4.81,4.81,0,0,1-.85.5,5.7,5.7,0,0,1-2.59.56,3.67,3.67,0,0,1-2.64-1,3.48,3.48,0,0,1-1.08-2.63,3.69,3.69,0,0,1,.56-2.12,3.8,3.8,0,0,1,1.6-1.27,8.75,8.75,0,0,1,2.53-.63c1-.11,2-.19,3.16-.25v-.3a2.23,2.23,0,0,0-.23-1.09,1.66,1.66,0,0,0-.66-.68,2.88,2.88,0,0,0-1-.32,9.46,9.46,0,0,0-1.21-.08,8.48,8.48,0,0,0-1.7.2,13.58,13.58,0,0,0-1.94.58h-.1v-2c.38-.1.92-.21,1.64-.34a12.7,12.7,0,0,1,2.11-.18,9.48,9.48,0,0,1,2.12.2,4.1,4.1,0,0,1,1.56.68,3.06,3.06,0,0,1,1,1.23,4.47,4.47,0,0,1,.34,1.87ZM404.68,262v-3.21c-.59,0-1.28.09-2.08.15a10.83,10.83,0,0,0-1.9.3,3.24,3.24,0,0,0-1.36.74,2.14,2.14,0,0,0,.09,2.87,2.79,2.79,0,0,0,1.82.5,4.45,4.45,0,0,0,1.87-.4A8.23,8.23,0,0,0,404.68,262Z"/><path class="cls-3" d="M419.68,264.83h-1.94v-1.21a6.64,6.64,0,0,1-1.74,1.13,4.75,4.75,0,0,1-2,.4,3.9,3.9,0,0,1-3.27-1.59,7.08,7.08,0,0,1-1.21-4.4,7.6,7.6,0,0,1,.42-2.61,6,6,0,0,1,1.13-2,4.77,4.77,0,0,1,3.56-1.6,6,6,0,0,1,1.61.19,6.74,6.74,0,0,1,1.47.59v-5h1.94ZM417.74,262v-6.61a6.74,6.74,0,0,0-1.4-.49,6.31,6.31,0,0,0-1.35-.13,3.07,3.07,0,0,0-2.53,1.13,5,5,0,0,0-.91,3.22,5.68,5.68,0,0,0,.7,3.12,2.5,2.5,0,0,0,2.25,1.07,4.28,4.28,0,0,0,1.67-.37A7.34,7.34,0,0,0,417.74,262Z"/><path class="cls-3" d="M440.26,264.83h-1.94v-1.21a6.64,6.64,0,0,1-1.74,1.13,4.75,4.75,0,0,1-2,.4,3.9,3.9,0,0,1-3.27-1.59,7.08,7.08,0,0,1-1.21-4.4,7.85,7.85,0,0,1,.41-2.61,6.21,6.21,0,0,1,1.13-2,4.77,4.77,0,0,1,1.64-1.19,4.62,4.62,0,0,1,1.93-.41,6.08,6.08,0,0,1,1.61.19,6.74,6.74,0,0,1,1.47.59v-5h1.94ZM438.32,262v-6.61a7,7,0,0,0-1.4-.49,6.31,6.31,0,0,0-1.35-.13A3.09,3.09,0,0,0,433,255.9a5.08,5.08,0,0,0-.9,3.22,5.68,5.68,0,0,0,.7,3.12,2.48,2.48,0,0,0,2.24,1.07,4.24,4.24,0,0,0,1.67-.37A7.41,7.41,0,0,0,438.32,262Z"/><path class="cls-3" d="M453.71,259.27h-8.48a4.94,4.94,0,0,0,.32,1.85,3.42,3.42,0,0,0,2.15,2,4.92,4.92,0,0,0,1.62.25,6.49,6.49,0,0,0,2.37-.47,5.74,5.74,0,0,0,1.69-.92h.11v2.11a18.18,18.18,0,0,1-2,.69,8,8,0,0,1-2.15.28,6.18,6.18,0,0,1-4.47-1.55,5.87,5.87,0,0,1-1.61-4.41,6.3,6.3,0,0,1,1.54-4.48,5.27,5.27,0,0,1,4.06-1.66,4.64,4.64,0,0,1,3.59,1.36,5.45,5.45,0,0,1,1.26,3.86Zm-1.88-1.48a3.47,3.47,0,0,0-.77-2.36,3,3,0,0,0-2.3-.84,3.36,3.36,0,0,0-2.48.92,3.52,3.52,0,0,0-1,2.28Z"/><path class="cls-3" d="M92.37,287.82a4.48,4.48,0,0,1-.43,2,4,4,0,0,1-1.17,1.44,5.2,5.2,0,0,1-1.9,1,9.7,9.7,0,0,1-2.63.29H80.79V277.19h4.55a17.16,17.16,0,0,1,2.51.13,5.07,5.07,0,0,1,1.6.51A2.91,2.91,0,0,1,90.68,279a3.45,3.45,0,0,1,.38,1.66,3.14,3.14,0,0,1-.56,1.87A4,4,0,0,1,89,283.73v.08a4.2,4.2,0,0,1,2.45,1.37A3.88,3.88,0,0,1,92.37,287.82Zm-3.43-6.92a2.07,2.07,0,0,0-.19-.94,1.36,1.36,0,0,0-.6-.61A2.88,2.88,0,0,0,87,279c-.46,0-1-.07-1.71-.07H82.83v4.44h2.64a10.06,10.06,0,0,0,1.53-.1,2.81,2.81,0,0,0,1-.41,1.77,1.77,0,0,0,.69-.8A3.09,3.09,0,0,0,88.94,280.9Zm1.31,7a3.31,3.31,0,0,0-.28-1.47,2.2,2.2,0,0,0-1-.93,3.39,3.39,0,0,0-1.2-.33,14.18,14.18,0,0,0-1.72-.08H82.83v5.71h2.7a14.47,14.47,0,0,0,2.2-.14,3.36,3.36,0,0,0,1.4-.51,2.54,2.54,0,0,0,.85-.92A2.83,2.83,0,0,0,90.25,287.9Z"/><path class="cls-3" d="M104.93,286.79a6.4,6.4,0,0,1-1.45,4.44,5.41,5.41,0,0,1-7.74,0,7.58,7.58,0,0,1,0-8.89,5.41,5.41,0,0,1,7.74,0A6.45,6.45,0,0,1,104.93,286.79Zm-2,0a5.3,5.3,0,0,0-.88-3.33,3.3,3.3,0,0,0-4.88,0,6.71,6.71,0,0,0,0,6.61,3.22,3.22,0,0,0,4.87,0A5.18,5.18,0,0,0,102.93,286.79Z"/><path class="cls-3" d="M117.27,291.23a6,6,0,0,1-1.33,4.3,5.5,5.5,0,0,1-4.1,1.37,11.56,11.56,0,0,1-1.78-.13,12.2,12.2,0,0,1-1.72-.36v-2h.1c.32.12.82.27,1.51.46a8,8,0,0,0,2.06.27,4.81,4.81,0,0,0,1.64-.24,2.29,2.29,0,0,0,1.52-1.63,4.48,4.48,0,0,0,.16-1.26V291a7.39,7.39,0,0,1-1.68,1,5.14,5.14,0,0,1-2,.35,4,4,0,0,1-3.28-1.49,6.56,6.56,0,0,1-1.21-4.2,7.1,7.1,0,0,1,.42-2.57,6,6,0,0,1,1.14-1.86,4.91,4.91,0,0,1,3.54-1.54,5.74,5.74,0,0,1,1.67.2,7.38,7.38,0,0,1,1.43.61l.12-.49h1.82Zm-1.94-1.85V283.1a7.3,7.3,0,0,0-1.44-.5,5.94,5.94,0,0,0-1.32-.15,3.15,3.15,0,0,0-2.52,1.07,4.67,4.67,0,0,0-.92,3.11,5.23,5.23,0,0,0,.68,2.94,2.54,2.54,0,0,0,2.26,1,4.91,4.91,0,0,0,1.7-.32A6.63,6.63,0,0,0,115.33,289.38Z"/><path class="cls-3" d="M130.9,286.79a6.45,6.45,0,0,1-1.45,4.44,5.42,5.42,0,0,1-7.75,0,7.62,7.62,0,0,1,0-8.89,5.42,5.42,0,0,1,7.75,0A6.49,6.49,0,0,1,130.9,286.79Zm-2,0a5.3,5.3,0,0,0-.88-3.33,3.3,3.3,0,0,0-4.88,0,6.71,6.71,0,0,0,0,6.61,3.22,3.22,0,0,0,4.87,0A5.18,5.18,0,0,0,128.9,286.79Z"/><path class="cls-3" d="M139.87,292.44c-.36.09-.76.17-1.19.24a8.38,8.38,0,0,1-1.15.09,3.59,3.59,0,0,1-2.68-.95,4.27,4.27,0,0,1-.91-3v-6.13h-1.31V281h1.31v-3.31h1.93V281h4v1.62h-4v5.25c0,.61,0,1.08,0,1.42a2.23,2.23,0,0,0,.28.95,1.42,1.42,0,0,0,.63.61,3,3,0,0,0,1.21.19,3.87,3.87,0,0,0,1-.14,7,7,0,0,0,.74-.23h.1Z"/><path class="cls-3" d="M151.16,292.54h-1.92v-1.22c-.18.11-.41.28-.7.48a4.81,4.81,0,0,1-.85.5,5.7,5.7,0,0,1-2.59.56,3.67,3.67,0,0,1-2.64-1,3.48,3.48,0,0,1-1.08-2.63,3.69,3.69,0,0,1,.56-2.12,3.8,3.8,0,0,1,1.6-1.27,8.75,8.75,0,0,1,2.53-.63c1-.11,2-.19,3.17-.25v-.3a2.23,2.23,0,0,0-.24-1.09,1.66,1.66,0,0,0-.66-.68,2.88,2.88,0,0,0-1-.32,9.46,9.46,0,0,0-1.21-.08,8.48,8.48,0,0,0-1.7.2,13.58,13.58,0,0,0-1.94.58h-.1v-2c.38-.1.92-.21,1.64-.34a12.7,12.7,0,0,1,2.11-.18,10.11,10.11,0,0,1,2.12.2,4.1,4.1,0,0,1,1.56.68,3,3,0,0,1,1,1.23,4.47,4.47,0,0,1,.34,1.87Zm-1.92-2.83V286.5c-.6,0-1.29.09-2.09.15a10.83,10.83,0,0,0-1.9.3,3.14,3.14,0,0,0-1.35.74,1.82,1.82,0,0,0-.52,1.38,1.84,1.84,0,0,0,.6,1.49,2.8,2.8,0,0,0,1.82.5,4.45,4.45,0,0,0,1.87-.4A8.64,8.64,0,0,0,149.24,289.71Zm.7-14.45-2.82,3.86h-1.53l1.84-3.86Z"/><path class="cls-3" d="M158.91,289.6l-2.9,6.76H154.5l1.8-6.76Z"/><path class="cls-3" d="M179.34,292.54H177.4v-1.2a7.23,7.23,0,0,1-1.74,1.12,4.79,4.79,0,0,1-2,.4,3.91,3.91,0,0,1-3.28-1.59,7.13,7.13,0,0,1-1.21-4.4,7.6,7.6,0,0,1,.42-2.61,6,6,0,0,1,1.13-1.94,4.63,4.63,0,0,1,1.63-1.2,4.7,4.7,0,0,1,1.94-.41,6.08,6.08,0,0,1,1.61.19,7.77,7.77,0,0,1,1.47.59v-5h1.94Zm-1.94-2.83V283.1a7,7,0,0,0-1.4-.49,7,7,0,0,0-1.35-.13,3.09,3.09,0,0,0-2.54,1.13,5.08,5.08,0,0,0-.91,3.22,5.67,5.67,0,0,0,.71,3.12,2.48,2.48,0,0,0,2.24,1.07,4.24,4.24,0,0,0,1.67-.37A7,7,0,0,0,177.4,289.71Z"/><path class="cls-3" d="M192.79,287h-8.48a4.83,4.83,0,0,0,.32,1.86,3.5,3.5,0,0,0,.87,1.29,3.39,3.39,0,0,0,1.28.74,4.92,4.92,0,0,0,1.62.25,6.53,6.53,0,0,0,2.37-.47,5.88,5.88,0,0,0,1.69-.92h.1v2.11a14.32,14.32,0,0,1-2,.69,7.9,7.9,0,0,1-2.14.28,6.18,6.18,0,0,1-4.47-1.55,5.83,5.83,0,0,1-1.61-4.41,6.3,6.3,0,0,1,1.54-4.48,5.27,5.27,0,0,1,4.06-1.66,4.64,4.64,0,0,1,3.59,1.36,5.47,5.47,0,0,1,1.26,3.86Zm-1.89-1.48a3.41,3.41,0,0,0-.76-2.36,3,3,0,0,0-2.31-.84,3.38,3.38,0,0,0-2.48.92,3.56,3.56,0,0,0-1,2.28Z"/><path class="cls-3" d="M204,289.22a3.14,3.14,0,0,1-1.31,2.59,5.68,5.68,0,0,1-3.56,1,8.74,8.74,0,0,1-2.35-.3,11,11,0,0,1-1.78-.67v-2.17h.1a7.68,7.68,0,0,0,2,1.09,6.14,6.14,0,0,0,2.15.41,4.09,4.09,0,0,0,2-.41,1.39,1.39,0,0,0,.73-1.3,1.28,1.28,0,0,0-.4-1,3.49,3.49,0,0,0-1.5-.6l-1.08-.22c-.44-.08-.84-.17-1.21-.26a4.09,4.09,0,0,1-2.15-1.18,3,3,0,0,1-.63-1.92,3.08,3.08,0,0,1,1.18-2.46,4.44,4.44,0,0,1,1.47-.77,6.58,6.58,0,0,1,2-.28,8.82,8.82,0,0,1,2.08.25,8,8,0,0,1,1.76.61v2.08h-.1a6.92,6.92,0,0,0-1.8-.93,6.27,6.27,0,0,0-2.09-.37,3.64,3.64,0,0,0-1.79.4A1.32,1.32,0,0,0,197,284a1.29,1.29,0,0,0,.44,1.07,3.63,3.63,0,0,0,1.4.59l1.2.24,1.11.23a4.11,4.11,0,0,1,2.08,1.06A2.79,2.79,0,0,1,204,289.22Z"/><path class="cls-3" d="M215.24,291.82a11.61,11.61,0,0,1-1.84.72,6.51,6.51,0,0,1-1.85.26,6.65,6.65,0,0,1-2.28-.37,4.59,4.59,0,0,1-1.79-1.11,4.91,4.91,0,0,1-1.16-1.87,7.64,7.64,0,0,1-.42-2.65,6.09,6.09,0,0,1,1.56-4.43,5.39,5.39,0,0,1,4.09-1.61,6.81,6.81,0,0,1,1.95.28,9.41,9.41,0,0,1,1.74.68v2.15h-.1a7.42,7.42,0,0,0-1.83-1.06,5,5,0,0,0-1.84-.37,3.24,3.24,0,0,0-2.6,1.11,4.83,4.83,0,0,0-1,3.25,4.88,4.88,0,0,0,.94,3.2,3.2,3.2,0,0,0,2.62,1.12,4.61,4.61,0,0,0,1.2-.16,4.83,4.83,0,0,0,1.09-.4,6.06,6.06,0,0,0,.79-.46c.25-.16.45-.3.59-.41h.1Z"/><path class="cls-3" d="M226.68,292.54h-1.93v-1.22l-.7.48a4.48,4.48,0,0,1-.85.5,5.73,5.73,0,0,1-1.11.4,5.85,5.85,0,0,1-1.47.16,3.67,3.67,0,0,1-2.64-1,3.45,3.45,0,0,1-1.09-2.63,3.61,3.61,0,0,1,.57-2.12,3.68,3.68,0,0,1,1.6-1.27,8.6,8.6,0,0,1,2.52-.63c1-.11,2-.19,3.17-.25v-.3a2.35,2.35,0,0,0-.23-1.09,1.75,1.75,0,0,0-.67-.68,2.75,2.75,0,0,0-1-.32,9.18,9.18,0,0,0-1.2-.08,8.4,8.4,0,0,0-1.7.2,12.86,12.86,0,0,0-1.94.58h-.11v-2c.38-.1.93-.21,1.64-.34a12.82,12.82,0,0,1,2.12-.18,10.18,10.18,0,0,1,2.12.2,4.1,4.1,0,0,1,1.56.68,3.14,3.14,0,0,1,1,1.23,4.63,4.63,0,0,1,.34,1.87Zm-1.93-2.83V286.5c-.59,0-1.29.09-2.09.15a11,11,0,0,0-1.9.3,3.14,3.14,0,0,0-1.35.74,2.12,2.12,0,0,0,.08,2.87,2.83,2.83,0,0,0,1.83.5,4.37,4.37,0,0,0,1.86-.4A8,8,0,0,0,224.75,289.71Z"/><path class="cls-3" d="M237.59,283.14h-.1a6.77,6.77,0,0,0-.84-.15,8.72,8.72,0,0,0-1-.05,4.1,4.1,0,0,0-1.74.4,8.19,8.19,0,0,0-1.6,1v8.17h-1.94V281h1.94v1.7a9.78,9.78,0,0,1,2-1.32,4.41,4.41,0,0,1,1.8-.38,6.79,6.79,0,0,1,.73,0l.68.1Z"/><path class="cls-3" d="M248.76,291.23a6,6,0,0,1-1.33,4.3,5.49,5.49,0,0,1-4.09,1.37,11.6,11.6,0,0,1-1.79-.13,12.51,12.51,0,0,1-1.72-.36v-2h.1c.32.12.82.27,1.51.46a8.09,8.09,0,0,0,2.06.27,4.77,4.77,0,0,0,1.64-.24,2.31,2.31,0,0,0,1-.66,2.45,2.45,0,0,0,.52-1,4.89,4.89,0,0,0,.15-1.26V291a7.35,7.35,0,0,1-1.67,1,5.22,5.22,0,0,1-2,.35,4,4,0,0,1-3.27-1.49,6.51,6.51,0,0,1-1.22-4.2,7.1,7.1,0,0,1,.42-2.57,6,6,0,0,1,1.14-1.86,4.91,4.91,0,0,1,3.54-1.54,5.74,5.74,0,0,1,1.67.2,7.38,7.38,0,0,1,1.43.61l.12-.49h1.82Zm-1.94-1.85V283.1a6.88,6.88,0,0,0-1.44-.5,5.94,5.94,0,0,0-1.32-.15,3.15,3.15,0,0,0-2.52,1.07,4.67,4.67,0,0,0-.92,3.11,5.15,5.15,0,0,0,.69,2.94,2.51,2.51,0,0,0,2.25,1,4.87,4.87,0,0,0,1.7-.32A6.25,6.25,0,0,0,246.82,289.38Z"/><path class="cls-3" d="M261.52,292.54h-1.93v-1.22l-.69.48a4.81,4.81,0,0,1-.85.5,6.1,6.1,0,0,1-1.12.4,5.85,5.85,0,0,1-1.47.16,3.67,3.67,0,0,1-2.64-1,3.48,3.48,0,0,1-1.08-2.63,3.69,3.69,0,0,1,.56-2.12,3.73,3.73,0,0,1,1.6-1.27,8.67,8.67,0,0,1,2.53-.63c1-.11,2-.19,3.16-.25v-.3a2.23,2.23,0,0,0-.23-1.09,1.66,1.66,0,0,0-.66-.68,2.88,2.88,0,0,0-1-.32,9.46,9.46,0,0,0-1.21-.08,8.4,8.4,0,0,0-1.7.2,13.21,13.21,0,0,0-1.94.58h-.1v-2c.38-.1.92-.21,1.64-.34a12.7,12.7,0,0,1,2.11-.18,10.11,10.11,0,0,1,2.12.2,4.1,4.1,0,0,1,1.56.68,3.14,3.14,0,0,1,1,1.23,4.47,4.47,0,0,1,.34,1.87Zm-1.93-2.83V286.5c-.59,0-1.28.09-2.08.15a11,11,0,0,0-1.91.3,3.26,3.26,0,0,0-1.35.74,2.14,2.14,0,0,0,.09,2.87,2.79,2.79,0,0,0,1.82.5,4.45,4.45,0,0,0,1.87-.4A8.23,8.23,0,0,0,259.59,289.71Z"/><path class="cls-3" d="M274.59,292.54h-1.94v-1.2a6.86,6.86,0,0,1-1.74,1.12,4.75,4.75,0,0,1-2,.4,3.9,3.9,0,0,1-3.27-1.59,7.06,7.06,0,0,1-1.21-4.4,7.6,7.6,0,0,1,.42-2.61,5.87,5.87,0,0,1,1.13-1.94,4.55,4.55,0,0,1,1.63-1.2,4.65,4.65,0,0,1,1.93-.41,6,6,0,0,1,1.61.19,7.28,7.28,0,0,1,1.47.59v-5h1.94Zm-1.94-2.83V283.1a7,7,0,0,0-1.4-.49,7,7,0,0,0-1.35-.13,3.07,3.07,0,0,0-2.53,1.13,5,5,0,0,0-.91,3.22,5.68,5.68,0,0,0,.7,3.12,2.5,2.5,0,0,0,2.25,1.07,4.28,4.28,0,0,0,1.67-.37A7,7,0,0,0,272.65,289.71Z"/><path class="cls-3" d="M288.22,286.79a6.45,6.45,0,0,1-1.44,4.44,5.42,5.42,0,0,1-7.75,0,7.58,7.58,0,0,1,0-8.89,5.42,5.42,0,0,1,7.75,0A6.49,6.49,0,0,1,288.22,286.79Zm-2,0a5.24,5.24,0,0,0-.88-3.33,3.3,3.3,0,0,0-4.88,0,5.3,5.3,0,0,0-.87,3.33,5.19,5.19,0,0,0,.88,3.28,3.22,3.22,0,0,0,4.87,0A5.19,5.19,0,0,0,286.22,286.79Z"/><path class="cls-3" d="M308,292.54h-1.93v-1.2a7.09,7.09,0,0,1-1.75,1.12,4.75,4.75,0,0,1-2,.4,3.9,3.9,0,0,1-3.27-1.59,7.06,7.06,0,0,1-1.21-4.4,7.6,7.6,0,0,1,.42-2.61,5.87,5.87,0,0,1,1.13-1.94,4.55,4.55,0,0,1,1.63-1.2,4.65,4.65,0,0,1,1.93-.41,6,6,0,0,1,1.61.19,7.59,7.59,0,0,1,1.48.59v-5H308Zm-1.93-2.83V283.1a6,6,0,0,0-2.76-.62,3.07,3.07,0,0,0-2.53,1.13,5,5,0,0,0-.91,3.22,5.68,5.68,0,0,0,.7,3.12A2.5,2.5,0,0,0,302.8,291a4.24,4.24,0,0,0,1.67-.37A7.25,7.25,0,0,0,306.05,289.71Z"/><path class="cls-3" d="M321.44,287H313a5,5,0,0,0,.32,1.86,3.65,3.65,0,0,0,.88,1.29,3.43,3.43,0,0,0,1.27.74,4.94,4.94,0,0,0,1.63.25,6.44,6.44,0,0,0,2.36-.47,5.82,5.82,0,0,0,1.7-.92h.1v2.11a14.32,14.32,0,0,1-2,.69,7.9,7.9,0,0,1-2.14.28,6.21,6.21,0,0,1-4.48-1.55,5.87,5.87,0,0,1-1.61-4.41,6.31,6.31,0,0,1,1.55-4.48,5.25,5.25,0,0,1,4.05-1.66,4.63,4.63,0,0,1,3.59,1.36,5.43,5.43,0,0,1,1.27,3.86Zm-1.89-1.48a3.42,3.42,0,0,0-.77-2.36,2.93,2.93,0,0,0-2.3-.84,3.36,3.36,0,0,0-2.48.92A3.57,3.57,0,0,0,313,285.5Z"/><path class="cls-3" d="M341.76,281l-4.66,11.51h-2L330.52,281h2.1l3.57,9.16,3.54-9.16Z"/><path class="cls-3" d="M353.75,287h-8.49a5,5,0,0,0,.32,1.86,3.52,3.52,0,0,0,.88,1.29,3.43,3.43,0,0,0,1.27.74,4.92,4.92,0,0,0,1.62.25,6.45,6.45,0,0,0,2.37-.47,6,6,0,0,0,1.7-.92h.1v2.11a14.32,14.32,0,0,1-2,.69,8,8,0,0,1-2.15.28,6.18,6.18,0,0,1-4.47-1.55,5.87,5.87,0,0,1-1.61-4.41,6.35,6.35,0,0,1,1.54-4.48,5.27,5.27,0,0,1,4.06-1.66,4.64,4.64,0,0,1,3.59,1.36,5.47,5.47,0,0,1,1.27,3.86Zm-1.89-1.48a3.42,3.42,0,0,0-.77-2.36,2.93,2.93,0,0,0-2.3-.84,3.36,3.36,0,0,0-2.48.92,3.52,3.52,0,0,0-1.05,2.28Z"/><path class="cls-3" d="M366.31,292.54h-1.94V286a11.54,11.54,0,0,0-.09-1.48,2.59,2.59,0,0,0-.34-1.09,1.57,1.57,0,0,0-.74-.65,3.18,3.18,0,0,0-1.26-.21,4,4,0,0,0-1.66.39,8.62,8.62,0,0,0-1.66,1v8.6h-1.94v-16h1.94v5.8a7.89,7.89,0,0,1,1.88-1.17,4.94,4.94,0,0,1,2-.42,3.56,3.56,0,0,1,2.84,1.12,4.75,4.75,0,0,1,1,3.24Z"/><path class="cls-3" d="M374.14,275.26l-2.82,3.86h-1.53l1.84-3.86ZM372,292.54h-1.93V281H372Z"/><path class="cls-3" d="M384.35,291.82a12,12,0,0,1-1.84.72,6.51,6.51,0,0,1-1.85.26,6.75,6.75,0,0,1-2.29-.37,4.63,4.63,0,0,1-1.78-1.11,4.91,4.91,0,0,1-1.16-1.87,7.64,7.64,0,0,1-.42-2.65,6.09,6.09,0,0,1,1.56-4.43,5.39,5.39,0,0,1,4.09-1.61,6.81,6.81,0,0,1,1.95.28,9.69,9.69,0,0,1,1.74.68v2.15h-.1a7.42,7.42,0,0,0-1.83-1.06,5,5,0,0,0-1.84-.37,3.24,3.24,0,0,0-2.6,1.11,5.95,5.95,0,0,0,0,6.45,3.2,3.2,0,0,0,2.62,1.12,4.61,4.61,0,0,0,1.2-.16,4.83,4.83,0,0,0,1.09-.4,6.06,6.06,0,0,0,.79-.46c.25-.16.45-.3.59-.41h.1Z"/><path class="cls-3" d="M396.38,292.54h-1.93v-1.28a9.66,9.66,0,0,1-1.88,1.19,4.77,4.77,0,0,1-2,.41,3.61,3.61,0,0,1-2.82-1.11,4.64,4.64,0,0,1-1-3.25V281h1.93v6.55a10.58,10.58,0,0,0,.09,1.5,2.65,2.65,0,0,0,.35,1.07,1.63,1.63,0,0,0,.72.66,3.08,3.08,0,0,0,1.29.21,4,4,0,0,0,1.64-.4,7.47,7.47,0,0,0,1.67-1V281h1.93Z"/><path class="cls-3" d="M402.16,292.54h-1.94v-16h1.94Z"/><path class="cls-3" d="M415.81,286.79a6.4,6.4,0,0,1-1.45,4.44,5.41,5.41,0,0,1-7.74,0,7.58,7.58,0,0,1,0-8.89,5.41,5.41,0,0,1,7.74,0A6.45,6.45,0,0,1,415.81,286.79Zm-2,0a5.24,5.24,0,0,0-.88-3.33,3.3,3.3,0,0,0-4.88,0,6.71,6.71,0,0,0,0,6.61,3.23,3.23,0,0,0,4.88,0A5.25,5.25,0,0,0,413.81,286.79Z"/><path class="cls-3" d="M435.57,292.54h-1.94v-1.2a7.23,7.23,0,0,1-1.74,1.12,4.79,4.79,0,0,1-2,.4,3.89,3.89,0,0,1-3.27-1.59,7.06,7.06,0,0,1-1.21-4.4,7.85,7.85,0,0,1,.41-2.61,6,6,0,0,1,1.13-1.94,4.78,4.78,0,0,1,3.57-1.61,6.08,6.08,0,0,1,1.61.19,7.52,7.52,0,0,1,1.47.59v-5h1.94Zm-1.94-2.83V283.1a7,7,0,0,0-1.4-.49,7,7,0,0,0-1.35-.13,3.09,3.09,0,0,0-2.54,1.13,5.08,5.08,0,0,0-.9,3.22,5.68,5.68,0,0,0,.7,3.12,2.48,2.48,0,0,0,2.24,1.07,4.24,4.24,0,0,0,1.67-.37A7,7,0,0,0,433.63,289.71Z"/><path class="cls-3" d="M449,287h-8.48a5,5,0,0,0,.32,1.86,3.4,3.4,0,0,0,.88,1.29,3.35,3.35,0,0,0,1.27.74,4.92,4.92,0,0,0,1.62.25,6.53,6.53,0,0,0,2.37-.47,5.74,5.74,0,0,0,1.69-.92h.11v2.11a14.78,14.78,0,0,1-2,.69,8,8,0,0,1-2.15.28,6.18,6.18,0,0,1-4.47-1.55,5.87,5.87,0,0,1-1.61-4.41,6.3,6.3,0,0,1,1.54-4.48,5.27,5.27,0,0,1,4.06-1.66,4.64,4.64,0,0,1,3.59,1.36,5.47,5.47,0,0,1,1.26,3.86Zm-1.88-1.48a3.47,3.47,0,0,0-.77-2.36,3,3,0,0,0-2.3-.84,3.36,3.36,0,0,0-2.48.92,3.52,3.52,0,0,0-1,2.28Z"/><path class="cls-3" d="M82.6,320.25H80.66v-16H82.6Z"/><path class="cls-3" d="M88.39,320.25H86.45v-16h1.94Z"/><path class="cls-3" d="M101.86,314.69H93.38a5,5,0,0,0,.32,1.86,3.52,3.52,0,0,0,.88,1.29,3.35,3.35,0,0,0,1.27.74,4.92,4.92,0,0,0,1.62.25,6.45,6.45,0,0,0,2.37-.47,5.74,5.74,0,0,0,1.69-.92h.11v2.11a14.32,14.32,0,0,1-2,.69,8,8,0,0,1-2.15.28A6.18,6.18,0,0,1,93,319a5.87,5.87,0,0,1-1.61-4.41A6.35,6.35,0,0,1,93,310.08,5.27,5.27,0,0,1,97,308.42a4.64,4.64,0,0,1,3.59,1.36,5.47,5.47,0,0,1,1.26,3.86ZM100,313.21a3.42,3.42,0,0,0-.77-2.36,2.93,2.93,0,0,0-2.3-.84,3.36,3.36,0,0,0-2.48.92,3.52,3.52,0,0,0-1.05,2.28Z"/><path class="cls-3" d="M114.14,318.94a6,6,0,0,1-1.33,4.3,5.47,5.47,0,0,1-4.09,1.37,11.69,11.69,0,0,1-1.79-.13,12.37,12.37,0,0,1-1.71-.36v-2h.1c.31.12.82.27,1.5.46a8.17,8.17,0,0,0,2.07.27,4.81,4.81,0,0,0,1.64-.24,2.28,2.28,0,0,0,1-.66,2.23,2.23,0,0,0,.52-1,4.89,4.89,0,0,0,.15-1.26v-1.06a7.35,7.35,0,0,1-1.67,1.05,5.16,5.16,0,0,1-2,.35,4,4,0,0,1-3.27-1.49,6.5,6.5,0,0,1-1.21-4.2,7.1,7.1,0,0,1,.42-2.57,5.86,5.86,0,0,1,1.14-1.86,4.91,4.91,0,0,1,3.53-1.54,5.77,5.77,0,0,1,1.68.2,7.31,7.31,0,0,1,1.42.61l.13-.49h1.81Zm-1.94-1.85v-6.28a7,7,0,0,0-1.43-.5,6.1,6.1,0,0,0-1.33-.15,3.14,3.14,0,0,0-2.51,1.07,4.67,4.67,0,0,0-.92,3.11,5.23,5.23,0,0,0,.68,2.94,2.53,2.53,0,0,0,2.26,1,4.82,4.82,0,0,0,1.69-.32A6.25,6.25,0,0,0,112.2,317.09Z"/><path class="cls-3" d="M126.91,320.25H125V319l-.7.48a4.48,4.48,0,0,1-.85.5,5.73,5.73,0,0,1-1.11.4,5.88,5.88,0,0,1-1.48.16,3.7,3.7,0,0,1-2.64-1,3.48,3.48,0,0,1-1.08-2.63,3.69,3.69,0,0,1,.56-2.12,3.77,3.77,0,0,1,1.61-1.27,8.6,8.6,0,0,1,2.52-.63c1-.11,2-.19,3.17-.25v-.3a2.35,2.35,0,0,0-.23-1.09,1.75,1.75,0,0,0-.67-.68,2.75,2.75,0,0,0-1-.32,9.3,9.3,0,0,0-1.2-.08,8.57,8.57,0,0,0-1.71.2,13.1,13.1,0,0,0-1.93.58h-.11v-2c.38-.1.93-.21,1.64-.34a12.82,12.82,0,0,1,2.12-.18,10,10,0,0,1,2.11.2,4.07,4.07,0,0,1,1.57.68,3.14,3.14,0,0,1,1,1.23,4.63,4.63,0,0,1,.34,1.87ZM125,317.42v-3.21c-.59,0-1.29.09-2.09.15a11,11,0,0,0-1.9.3,3.14,3.14,0,0,0-1.35.74,1.8,1.8,0,0,0-.52,1.38,1.84,1.84,0,0,0,.6,1.49,2.83,2.83,0,0,0,1.83.5,4.37,4.37,0,0,0,1.86-.4A8.31,8.31,0,0,0,125,317.42Z"/><path class="cls-3" d="M140,320.25H138v-1.2a7.23,7.23,0,0,1-1.74,1.12,4.79,4.79,0,0,1-2,.4,3.91,3.91,0,0,1-3.28-1.59,7.13,7.13,0,0,1-1.21-4.4,7.6,7.6,0,0,1,.42-2.61,6,6,0,0,1,1.13-1.94,4.63,4.63,0,0,1,1.63-1.2,4.7,4.7,0,0,1,1.94-.41,6.08,6.08,0,0,1,1.61.19,7.16,7.16,0,0,1,1.47.59v-5H140ZM138,317.42v-6.61a7,7,0,0,0-1.4-.49,6.31,6.31,0,0,0-1.35-.13,3.09,3.09,0,0,0-2.54,1.13,5.08,5.08,0,0,0-.91,3.22,5.77,5.77,0,0,0,.7,3.12,2.5,2.5,0,0,0,2.25,1.07,4.24,4.24,0,0,0,1.67-.37A7,7,0,0,0,138,317.42Z"/><path class="cls-3" d="M152.74,320.25h-1.93V319l-.69.48a5.19,5.19,0,0,1-.85.5,6.1,6.1,0,0,1-1.12.4,5.85,5.85,0,0,1-1.47.16,3.67,3.67,0,0,1-2.64-1,3.48,3.48,0,0,1-1.08-2.63,3.61,3.61,0,0,1,.56-2.12,3.73,3.73,0,0,1,1.6-1.27,8.59,8.59,0,0,1,2.53-.63c1-.11,2-.19,3.16-.25v-.3a2.23,2.23,0,0,0-.23-1.09,1.69,1.69,0,0,0-.67-.68,2.76,2.76,0,0,0-1-.32,9.46,9.46,0,0,0-1.21-.08,8.4,8.4,0,0,0-1.7.2,13.21,13.21,0,0,0-1.94.58H144v-2c.38-.1.92-.21,1.64-.34a12.7,12.7,0,0,1,2.11-.18,10.11,10.11,0,0,1,2.12.2,4.1,4.1,0,0,1,1.56.68,3.14,3.14,0,0,1,1,1.23,4.47,4.47,0,0,1,.34,1.87Zm-1.93-2.83v-3.21c-.59,0-1.28.09-2.09.15a11,11,0,0,0-1.9.3,3.26,3.26,0,0,0-1.35.74,1.83,1.83,0,0,0-.51,1.38,1.86,1.86,0,0,0,.59,1.49,2.83,2.83,0,0,0,1.83.5,4.37,4.37,0,0,0,1.86-.4A8,8,0,0,0,150.81,317.42Z"/><path class="cls-3" d="M159.64,320.25h-2.47v-2.94h2.47Z"/><rect class="cls-2" x="66.8" y="341.73" width="424.94" height="71.91" rx="12.02"/><path class="cls-3" d="M91.46,366.14H81.35V350.78H91.46v1.82H83.39v4.21h8.07v1.81H83.39v5.7h8.07Z"/><path class="cls-3" d="M104.17,366.14h-1.93v-6.56a11.52,11.52,0,0,0-.1-1.49,2.64,2.64,0,0,0-.34-1.09,1.55,1.55,0,0,0-.74-.64,3.18,3.18,0,0,0-1.26-.21,4,4,0,0,0-1.66.39,8.42,8.42,0,0,0-1.66,1v8.6H94.54V354.62h1.94v1.28a7.94,7.94,0,0,1,1.88-1.18,4.94,4.94,0,0,1,2-.42,3.56,3.56,0,0,1,2.84,1.12,4.75,4.75,0,0,1,1,3.24Z"/><path class="cls-3" d="M125,360.58h-8.49a5,5,0,0,0,.32,1.85,3.56,3.56,0,0,0,.88,1.29,3.59,3.59,0,0,0,1.27.75,5.2,5.2,0,0,0,1.62.24,6.26,6.26,0,0,0,2.37-.47,5.82,5.82,0,0,0,1.7-.92h.1v2.11a14.32,14.32,0,0,1-2,.69,8,8,0,0,1-2.14.28,6.16,6.16,0,0,1-4.48-1.55,5.84,5.84,0,0,1-1.61-4.41,6.36,6.36,0,0,1,1.54-4.48,5.27,5.27,0,0,1,4.06-1.66,4.64,4.64,0,0,1,3.59,1.36,5.45,5.45,0,0,1,1.27,3.87Zm-1.89-1.49a3.43,3.43,0,0,0-.77-2.36,3,3,0,0,0-2.3-.83,3.32,3.32,0,0,0-2.48.92,3.57,3.57,0,0,0-1,2.27Z"/><path class="cls-3" d="M129.86,366.14h-1.93V350.09h1.93Z"/><path class="cls-3" d="M153.38,366.14H151.2l-1.5-4.28h-6.64l-1.51,4.28h-2.07l5.59-15.36h2.72Zm-4.31-6-2.69-7.53-2.7,7.53Z"/><path class="cls-3" d="M165.19,360.58h-8.48a5,5,0,0,0,.32,1.85,3.33,3.33,0,0,0,.88,1.29,3.51,3.51,0,0,0,1.27.75,5.2,5.2,0,0,0,1.62.24,6.33,6.33,0,0,0,2.37-.47,5.74,5.74,0,0,0,1.69-.92H165v2.11a14.78,14.78,0,0,1-2,.69,8,8,0,0,1-2.15.28,6.14,6.14,0,0,1-4.47-1.55,5.84,5.84,0,0,1-1.61-4.41,6.32,6.32,0,0,1,1.54-4.48,5.27,5.27,0,0,1,4.06-1.66,4.64,4.64,0,0,1,3.59,1.36,5.5,5.5,0,0,1,1.26,3.87Zm-1.88-1.49a3.48,3.48,0,0,0-.77-2.36,3,3,0,0,0-2.3-.83,3.32,3.32,0,0,0-2.48.92,3.52,3.52,0,0,0-1,2.27Z"/><path class="cls-3" d="M175.32,356.73h-.11a6.17,6.17,0,0,0-.84-.15,9,9,0,0,0-1,0,4,4,0,0,0-1.73.39,8,8,0,0,0-1.61,1v8.18h-1.94V354.62h1.94v1.7a9.09,9.09,0,0,1,2-1.31,4.36,4.36,0,0,1,1.8-.39,6.29,6.29,0,0,1,.73,0l.68.09Z"/><path class="cls-3" d="M187,360.38a6.45,6.45,0,0,1-1.45,4.44,5.41,5.41,0,0,1-7.74,0,7.58,7.58,0,0,1,0-8.89,5.41,5.41,0,0,1,7.74,0A6.51,6.51,0,0,1,187,360.38Zm-2,0a5.25,5.25,0,0,0-.88-3.32,3.28,3.28,0,0,0-4.88,0,5.25,5.25,0,0,0-.87,3.32,5.31,5.31,0,0,0,.87,3.29,3.24,3.24,0,0,0,4.87,0A5.22,5.22,0,0,0,185,360.38Z"/><path class="cls-3" d="M200.09,360.24a7.72,7.72,0,0,1-.4,2.56,5.57,5.57,0,0,1-1.14,2,4.54,4.54,0,0,1-1.6,1.18,4.65,4.65,0,0,1-1.95.42,6.34,6.34,0,0,1-1.63-.19,7.25,7.25,0,0,1-1.48-.61v4.82H190V354.62h1.93v1.21a7.4,7.4,0,0,1,1.74-1.09,5,5,0,0,1,2.06-.44,3.78,3.78,0,0,1,3.24,1.57A7.27,7.27,0,0,1,200.09,360.24Zm-2,.05a5.52,5.52,0,0,0-.71-3.11,2.47,2.47,0,0,0-2.19-1,4.31,4.31,0,0,0-1.68.36,7.83,7.83,0,0,0-1.62.94V364a7,7,0,0,0,1.42.5,6.15,6.15,0,0,0,1.35.14,3.11,3.11,0,0,0,2.52-1.09A5,5,0,0,0,198.09,360.29Z"/><path class="cls-3" d="M212.66,366.14h-1.94v-1.28a9.3,9.3,0,0,1-1.88,1.18,4.62,4.62,0,0,1-2,.41,3.64,3.64,0,0,1-2.82-1.1,4.66,4.66,0,0,1-1-3.26v-7.47H205v6.56a10.94,10.94,0,0,0,.08,1.5,2.6,2.6,0,0,0,.35,1.06,1.53,1.53,0,0,0,.72.66,3.14,3.14,0,0,0,1.29.21,4.11,4.11,0,0,0,1.64-.39,7.86,7.86,0,0,0,1.67-1v-8.6h1.94Z"/><path class="cls-3" d="M226.11,360.58h-8.49a4.78,4.78,0,0,0,.33,1.85,3.42,3.42,0,0,0,.87,1.29,3.59,3.59,0,0,0,1.27.75,5.31,5.31,0,0,0,1.63.24,6.24,6.24,0,0,0,2.36-.47,5.82,5.82,0,0,0,1.7-.92h.1v2.11a14.32,14.32,0,0,1-2,.69,7.9,7.9,0,0,1-2.14.28,6.18,6.18,0,0,1-4.48-1.55,5.83,5.83,0,0,1-1.6-4.41A6.32,6.32,0,0,1,217.2,356a5.25,5.25,0,0,1,4.05-1.66,4.67,4.67,0,0,1,3.6,1.36,5.5,5.5,0,0,1,1.26,3.87Zm-1.89-1.49a3.39,3.39,0,0,0-.77-2.36,3,3,0,0,0-2.3-.83,3.34,3.34,0,0,0-2.48.92,3.62,3.62,0,0,0-1,2.27Z"/><path class="cls-3" d="M236.23,356.73h-.1a6.77,6.77,0,0,0-.84-.15,9,9,0,0,0-1,0,4.09,4.09,0,0,0-1.74.39,8.19,8.19,0,0,0-1.6,1v8.18h-1.94V354.62H231v1.7a9.05,9.05,0,0,1,2-1.31,4.42,4.42,0,0,1,1.8-.39,6.17,6.17,0,0,1,.73,0l.68.09Z"/><path class="cls-3" d="M244,366a9.62,9.62,0,0,1-1.19.24,8.5,8.5,0,0,1-1.15.09,3.52,3.52,0,0,1-2.68-.95,4.21,4.21,0,0,1-.92-3v-6.12h-1.31v-1.63h1.31v-3.31H240v3.31h4v1.63h-4v5.25c0,.6,0,1.07,0,1.41a2.33,2.33,0,0,0,.29,1,1.43,1.43,0,0,0,.62.6,2.87,2.87,0,0,0,1.21.19,3.87,3.87,0,0,0,1-.14,7,7,0,0,0,.74-.23H244Z"/><path class="cls-3" d="M256.19,360.38a6.45,6.45,0,0,1-1.44,4.44,5.42,5.42,0,0,1-7.75,0,7.58,7.58,0,0,1,0-8.89,5.42,5.42,0,0,1,7.75,0A6.51,6.51,0,0,1,256.19,360.38Zm-2,0a5.19,5.19,0,0,0-.88-3.32,3.28,3.28,0,0,0-4.88,0,6.68,6.68,0,0,0,0,6.61,3.24,3.24,0,0,0,4.87,0A5.22,5.22,0,0,0,254.19,360.38Z"/><path class="cls-3" d="M276,366.14H274v-1.21a7.09,7.09,0,0,1-1.75,1.12,4.75,4.75,0,0,1-2,.4,3.92,3.92,0,0,1-3.27-1.58,7.1,7.1,0,0,1-1.21-4.4,7.52,7.52,0,0,1,.42-2.61,5.82,5.82,0,0,1,1.13-1.95,4.74,4.74,0,0,1,3.56-1.61,6,6,0,0,1,1.61.19,8.28,8.28,0,0,1,1.48.59v-5H276ZM274,363.3v-6.61a7.59,7.59,0,0,0-1.41-.48,6.29,6.29,0,0,0-1.35-.14,3,3,0,0,0-2.53,1.14,5,5,0,0,0-.91,3.21,5.68,5.68,0,0,0,.7,3.12,2.5,2.5,0,0,0,2.25,1.07,4.11,4.11,0,0,0,1.67-.37A7.25,7.25,0,0,0,274,363.3Z"/><path class="cls-3" d="M289.41,360.58h-8.49a5,5,0,0,0,.32,1.85,3.56,3.56,0,0,0,.88,1.29,3.59,3.59,0,0,0,1.27.75,5.22,5.22,0,0,0,1.63.24,6.24,6.24,0,0,0,2.36-.47,5.82,5.82,0,0,0,1.7-.92h.1v2.11a14.32,14.32,0,0,1-2,.69,8,8,0,0,1-2.14.28,6.16,6.16,0,0,1-4.48-1.55,5.84,5.84,0,0,1-1.61-4.41,6.36,6.36,0,0,1,1.54-4.48,5.27,5.27,0,0,1,4.06-1.66,4.63,4.63,0,0,1,3.59,1.36,5.45,5.45,0,0,1,1.27,3.87Zm-1.89-1.49a3.43,3.43,0,0,0-.77-2.36,3,3,0,0,0-2.3-.83,3.32,3.32,0,0,0-2.48.92,3.57,3.57,0,0,0-1.05,2.27Z"/><path class="cls-3" d="M311.5,361.41a4.45,4.45,0,0,1-.43,2,4.08,4.08,0,0,1-1.17,1.45,5.61,5.61,0,0,1-1.9,1,10.12,10.12,0,0,1-2.63.29h-5.45V350.78h4.55a18.73,18.73,0,0,1,2.51.13,5.07,5.07,0,0,1,1.6.51,2.91,2.91,0,0,1,1.23,1.14,3.49,3.49,0,0,1,.38,1.67,3.08,3.08,0,0,1-.56,1.86,4,4,0,0,1-1.48,1.23v.08a4.26,4.26,0,0,1,2.45,1.37A3.91,3.91,0,0,1,311.5,361.41Zm-3.43-6.91a2,2,0,0,0-.19-.94,1.38,1.38,0,0,0-.6-.62,2.88,2.88,0,0,0-1.17-.35q-.69-.06-1.71-.06H302V357h2.64a8.9,8.9,0,0,0,1.53-.1,2.65,2.65,0,0,0,1.05-.41,1.72,1.72,0,0,0,.69-.8A3.07,3.07,0,0,0,308.07,354.5Zm1.31,7a3.39,3.39,0,0,0-.28-1.48,2.31,2.31,0,0,0-1-.93,3.39,3.39,0,0,0-1.2-.33,16.57,16.57,0,0,0-1.72-.08H302v5.71h2.7a13.28,13.28,0,0,0,2.2-.14,3.36,3.36,0,0,0,1.4-.51,2.46,2.46,0,0,0,.85-.92A2.81,2.81,0,0,0,309.38,361.5Z"/><path class="cls-3" d="M324.06,360.38a6.45,6.45,0,0,1-1.45,4.44,5.41,5.41,0,0,1-7.74,0,7.58,7.58,0,0,1,0-8.89,5.41,5.41,0,0,1,7.74,0A6.51,6.51,0,0,1,324.06,360.38Zm-2,0a5.25,5.25,0,0,0-.88-3.32,3.28,3.28,0,0,0-4.88,0,5.25,5.25,0,0,0-.87,3.32,5.31,5.31,0,0,0,.87,3.29,3.24,3.24,0,0,0,4.87,0A5.22,5.22,0,0,0,322.06,360.38Z"/><path class="cls-3" d="M336.4,364.82a6,6,0,0,1-1.33,4.3,5.46,5.46,0,0,1-4.1,1.37,13,13,0,0,1-1.78-.12,13.82,13.82,0,0,1-1.72-.37v-2h.1a13.43,13.43,0,0,0,1.51.46,8,8,0,0,0,2.06.27,5.1,5.1,0,0,0,1.64-.23,2.4,2.4,0,0,0,1-.66,2.32,2.32,0,0,0,.51-1,4.55,4.55,0,0,0,.16-1.27v-1.05a7.32,7.32,0,0,1-1.68,1,5.14,5.14,0,0,1-2,.35,4,4,0,0,1-3.28-1.49,6.53,6.53,0,0,1-1.21-4.2,7,7,0,0,1,.42-2.56,5.82,5.82,0,0,1,1.14-1.86,4.61,4.61,0,0,1,1.63-1.14,4.87,4.87,0,0,1,1.91-.41,6.11,6.11,0,0,1,1.67.2,8.06,8.06,0,0,1,1.43.61l.12-.49h1.82ZM334.46,363v-6.28a8,8,0,0,0-1.44-.5,5.94,5.94,0,0,0-1.32-.15,3.15,3.15,0,0,0-2.52,1.07,4.7,4.7,0,0,0-.92,3.12,5.28,5.28,0,0,0,.68,2.94,2.56,2.56,0,0,0,2.26,1,4.71,4.71,0,0,0,1.7-.33A6.29,6.29,0,0,0,334.46,363Z"/><path class="cls-3" d="M350,360.38a6.45,6.45,0,0,1-1.45,4.44,5.42,5.42,0,0,1-7.75,0,7.62,7.62,0,0,1,0-8.89,5.42,5.42,0,0,1,7.75,0A6.51,6.51,0,0,1,350,360.38Zm-2,0a5.25,5.25,0,0,0-.88-3.32,3.28,3.28,0,0,0-4.88,0,5.25,5.25,0,0,0-.87,3.32,5.31,5.31,0,0,0,.87,3.29,3.24,3.24,0,0,0,4.87,0A5.22,5.22,0,0,0,348,360.38Z"/><path class="cls-3" d="M359,366a9.26,9.26,0,0,1-1.19.24,8.38,8.38,0,0,1-1.15.09,3.55,3.55,0,0,1-2.68-.95,4.25,4.25,0,0,1-.91-3v-6.12h-1.31v-1.63h1.31v-3.31H355v3.31h4v1.63h-4v5.25c0,.6,0,1.07.05,1.41a2.32,2.32,0,0,0,.28,1,1.46,1.46,0,0,0,.63.6,2.87,2.87,0,0,0,1.21.19,3.87,3.87,0,0,0,1-.14,7,7,0,0,0,.74-.23h.1Z"/><path class="cls-3" d="M370.29,366.14h-1.93v-1.23l-.69.49a5.51,5.51,0,0,1-.85.5,5.84,5.84,0,0,1-1.12.4,6.33,6.33,0,0,1-1.47.15,3.67,3.67,0,0,1-2.64-1,3.45,3.45,0,0,1-1.08-2.62,3.67,3.67,0,0,1,.56-2.12,3.81,3.81,0,0,1,1.6-1.28,8.75,8.75,0,0,1,2.53-.63c1-.11,2-.19,3.16-.24v-.3a2.2,2.2,0,0,0-.23-1.09,1.69,1.69,0,0,0-.66-.69,2.88,2.88,0,0,0-1-.31,7.92,7.92,0,0,0-1.21-.09,8.48,8.48,0,0,0-1.7.2,13.68,13.68,0,0,0-1.94.59h-.1v-2a15.44,15.44,0,0,1,1.64-.34,11.74,11.74,0,0,1,2.11-.19,10.11,10.11,0,0,1,2.12.2,4.11,4.11,0,0,1,1.56.69,2.89,2.89,0,0,1,1,1.22,4.53,4.53,0,0,1,.34,1.87Zm-1.93-2.84v-3.21l-2.08.16a10.83,10.83,0,0,0-1.9.3,3.13,3.13,0,0,0-1.35.73,2.12,2.12,0,0,0,.08,2.87,2.8,2.8,0,0,0,1.82.5,4.3,4.3,0,0,0,1.87-.4A8.23,8.23,0,0,0,368.36,363.3Zm.71-14.44-2.82,3.85h-1.53l1.84-3.85Z"/><path class="cls-3" d="M378,363.2l-2.9,6.75h-1.51l1.8-6.75Z"/><path class="cls-3" d="M398.08,366.14h-1.93v-1.23l-.7.49a5.08,5.08,0,0,1-.85.5,5.73,5.73,0,0,1-1.11.4,6.43,6.43,0,0,1-1.48.15,3.7,3.7,0,0,1-2.64-1,3.45,3.45,0,0,1-1.08-2.62,3.67,3.67,0,0,1,.56-2.12,3.78,3.78,0,0,1,1.61-1.28,8.6,8.6,0,0,1,2.52-.63c1-.11,2-.19,3.17-.24v-.3a2.32,2.32,0,0,0-.23-1.09,1.78,1.78,0,0,0-.67-.69,2.75,2.75,0,0,0-1-.31,7.79,7.79,0,0,0-1.2-.09,8.57,8.57,0,0,0-1.71.2,13.18,13.18,0,0,0-1.93.59h-.11v-2a16,16,0,0,1,1.64-.34,11.85,11.85,0,0,1,2.12-.19,10,10,0,0,1,2.11.2,4.09,4.09,0,0,1,1.57.69,3,3,0,0,1,1,1.22,4.7,4.7,0,0,1,.34,1.87Zm-1.93-2.84v-3.21l-2.09.16a11,11,0,0,0-1.9.3,3.13,3.13,0,0,0-1.35.73,2.12,2.12,0,0,0,.08,2.87,2.83,2.83,0,0,0,1.83.5,4.22,4.22,0,0,0,1.86-.4A8.31,8.31,0,0,0,396.15,363.3Z"/><path class="cls-3" d="M403.77,366.14h-1.94V350.09h1.94Z"/><path class="cls-3" d="M424,366.14H422v-1.23l-.69.49a5.51,5.51,0,0,1-.85.5,5.84,5.84,0,0,1-1.12.4,6.33,6.33,0,0,1-1.47.15,3.67,3.67,0,0,1-2.64-1,3.45,3.45,0,0,1-1.08-2.62,3.67,3.67,0,0,1,.56-2.12,3.81,3.81,0,0,1,1.6-1.28,8.75,8.75,0,0,1,2.53-.63c1-.11,2-.19,3.16-.24v-.3a2.2,2.2,0,0,0-.23-1.09,1.69,1.69,0,0,0-.66-.69,2.88,2.88,0,0,0-1-.31,7.92,7.92,0,0,0-1.21-.09,8.48,8.48,0,0,0-1.7.2,13.68,13.68,0,0,0-1.94.59h-.1v-2a15.44,15.44,0,0,1,1.64-.34,11.74,11.74,0,0,1,2.11-.19,10.11,10.11,0,0,1,2.12.2,4.11,4.11,0,0,1,1.56.69,2.89,2.89,0,0,1,1,1.22,4.53,4.53,0,0,1,.34,1.87ZM422,363.3v-3.21l-2.08.16a10.83,10.83,0,0,0-1.9.3,3.23,3.23,0,0,0-1.36.73,1.86,1.86,0,0,0-.51,1.38,1.82,1.82,0,0,0,.6,1.49,2.8,2.8,0,0,0,1.82.5,4.3,4.3,0,0,0,1.87-.4A8.23,8.23,0,0,0,422,363.3Z"/><path class="cls-3" d="M434.89,356.73h-.1a6.77,6.77,0,0,0-.84-.15,9.29,9.29,0,0,0-1,0,4,4,0,0,0-1.73.39,8.26,8.26,0,0,0-1.61,1v8.18H427.7V354.62h1.94v1.7a9.09,9.09,0,0,1,2-1.31,4.39,4.39,0,0,1,1.8-.39,6.29,6.29,0,0,1,.73,0l.68.09Z"/><path class="cls-3" d="M443.9,356.73h-.1a6.77,6.77,0,0,0-.84-.15,9.29,9.29,0,0,0-1,0,4,4,0,0,0-1.73.39,8.26,8.26,0,0,0-1.61,1v8.18h-1.94V354.62h1.94v1.7a9.09,9.09,0,0,1,2-1.31,4.39,4.39,0,0,1,1.8-.39,6.29,6.29,0,0,1,.73,0l.68.09Z"/><path class="cls-3" d="M447.81,352.69h-2.19v-2h2.19Zm-.13,13.45h-1.94V354.62h1.94Z"/><path class="cls-3" d="M461.65,360.29a7.59,7.59,0,0,1-.41,2.6,5.72,5.72,0,0,1-1.09,1.93,5,5,0,0,1-1.61,1.23,4.57,4.57,0,0,1-1.93.4,5.53,5.53,0,0,1-1.71-.23,7.54,7.54,0,0,1-1.44-.62l-.13.54h-1.81V350.09h1.94v5.74a7.77,7.77,0,0,1,1.73-1.1,4.75,4.75,0,0,1,2.06-.43,3.81,3.81,0,0,1,3.22,1.57A7.2,7.2,0,0,1,461.65,360.29Zm-2,0a5.91,5.91,0,0,0-.68-3.13,2.4,2.4,0,0,0-2.19-1.06,4.46,4.46,0,0,0-1.72.36,7.15,7.15,0,0,0-1.6.94v6.6a8.74,8.74,0,0,0,1.41.52,6.15,6.15,0,0,0,1.35.14,3.14,3.14,0,0,0,2.52-1.06A5,5,0,0,0,459.65,360.34Z"/><path class="cls-3" d="M474.49,360.38a6.45,6.45,0,0,1-1.45,4.44,5.41,5.41,0,0,1-7.74,0,7.58,7.58,0,0,1,0-8.89,5.41,5.41,0,0,1,7.74,0A6.51,6.51,0,0,1,474.49,360.38Zm-2,0a5.25,5.25,0,0,0-.88-3.32,3.28,3.28,0,0,0-4.88,0,5.25,5.25,0,0,0-.87,3.32,5.31,5.31,0,0,0,.87,3.29,3.24,3.24,0,0,0,4.87,0A5.22,5.22,0,0,0,472.49,360.38Z"/><path class="cls-3" d="M90.53,393.85H88.6v-1.21a7.09,7.09,0,0,1-1.75,1.12,4.75,4.75,0,0,1-2,.4,3.89,3.89,0,0,1-3.27-1.58,7.1,7.1,0,0,1-1.21-4.4,7.52,7.52,0,0,1,.42-2.61A5.92,5.92,0,0,1,82,383.62,4.74,4.74,0,0,1,85.51,382a6,6,0,0,1,1.61.19,8.28,8.28,0,0,1,1.48.59v-5h1.93ZM88.6,391V384.4a7.59,7.59,0,0,0-1.41-.48,6.29,6.29,0,0,0-1.35-.14,3,3,0,0,0-2.53,1.14,5,5,0,0,0-.91,3.22,5.66,5.66,0,0,0,.7,3.11,2.5,2.5,0,0,0,2.25,1.07A4.11,4.11,0,0,0,87,392,6.87,6.87,0,0,0,88.6,391Z"/><path class="cls-3" d="M104,388.29H95.5a5,5,0,0,0,.32,1.85,3.56,3.56,0,0,0,.88,1.29,3.59,3.59,0,0,0,1.27.75,5.22,5.22,0,0,0,1.63.24A6.24,6.24,0,0,0,102,392a5.82,5.82,0,0,0,1.7-.92h.1v2.12a15.7,15.7,0,0,1-2,.68,8,8,0,0,1-2.14.28,6.16,6.16,0,0,1-4.48-1.55,5.84,5.84,0,0,1-1.61-4.41,6.36,6.36,0,0,1,1.54-4.48A5.31,5.31,0,0,1,99.13,382a4.67,4.67,0,0,1,3.59,1.36,5.45,5.45,0,0,1,1.27,3.87Zm-1.89-1.48a3.44,3.44,0,0,0-.77-2.37,3,3,0,0,0-2.3-.83,3.32,3.32,0,0,0-2.48.92,3.57,3.57,0,0,0-1,2.28Z"/><path class="cls-3" d="M116.31,393.85h-1.94v-16h1.94Z"/><path class="cls-3" d="M130,388.09a6.45,6.45,0,0,1-1.45,4.45,5.43,5.43,0,0,1-7.74,0,7.58,7.58,0,0,1,0-8.89,5.39,5.39,0,0,1,7.74,0A6.42,6.42,0,0,1,130,388.09Zm-2,0a5.25,5.25,0,0,0-.88-3.32,3.28,3.28,0,0,0-4.88,0,6.71,6.71,0,0,0,0,6.61,3,3,0,0,0,2.45,1.11,2.9,2.9,0,0,0,2.42-1.1A5.22,5.22,0,0,0,128,388.09Z"/><path class="cls-3" d="M141.18,390.53a3.11,3.11,0,0,1-1.3,2.58,5.64,5.64,0,0,1-3.56,1,8.69,8.69,0,0,1-2.35-.3,9.52,9.52,0,0,1-1.79-.67V391h.11a7.71,7.71,0,0,0,2,1.1,6.3,6.3,0,0,0,2.15.4,4,4,0,0,0,2-.41,1.38,1.38,0,0,0,.72-1.3,1.33,1.33,0,0,0-.39-1,3.51,3.51,0,0,0-1.5-.59c-.28-.07-.64-.14-1.08-.22s-.85-.17-1.21-.27a4,4,0,0,1-2.15-1.18,3,3,0,0,1-.63-1.91,3,3,0,0,1,.29-1.34,3.16,3.16,0,0,1,.89-1.13,4.16,4.16,0,0,1,1.47-.76,6.5,6.5,0,0,1,2-.29,8.86,8.86,0,0,1,2.09.26,7.48,7.48,0,0,1,1.76.61V385h-.1a7.13,7.13,0,0,0-1.81-.92,6.24,6.24,0,0,0-2.08-.38,3.62,3.62,0,0,0-1.79.41,1.42,1.42,0,0,0-.29,2.28,3.42,3.42,0,0,0,1.4.59c.36.08.76.17,1.2.25l1.11.22a4.08,4.08,0,0,1,2.08,1.07A2.77,2.77,0,0,1,141.18,390.53Z"/><path class="cls-3" d="M161.34,382.33l-4.66,11.52h-2l-4.63-11.52h2.1l3.57,9.16,3.54-9.16Z"/><path class="cls-3" d="M173.42,393.85h-1.94v-1.28a9.53,9.53,0,0,1-1.87,1.18,4.62,4.62,0,0,1-2,.41,3.64,3.64,0,0,1-2.83-1.1,4.7,4.7,0,0,1-1-3.25v-7.48h1.94v6.56a12.8,12.8,0,0,0,.08,1.5,2.76,2.76,0,0,0,.35,1.06,1.62,1.62,0,0,0,.72.66,3.14,3.14,0,0,0,1.29.21,4.19,4.19,0,0,0,1.65-.39,7.8,7.8,0,0,0,1.66-1v-8.6h1.94Z"/><path class="cls-3" d="M186.87,388.29h-8.48a4.78,4.78,0,0,0,.32,1.85,3.42,3.42,0,0,0,.87,1.29,3.64,3.64,0,0,0,1.28.75,5.2,5.2,0,0,0,1.62.24,6.33,6.33,0,0,0,2.37-.47,5.74,5.74,0,0,0,1.69-.92h.11v2.12a16.25,16.25,0,0,1-2,.68,8,8,0,0,1-2.15.28,6.14,6.14,0,0,1-4.47-1.55,5.84,5.84,0,0,1-1.61-4.41,6.32,6.32,0,0,1,1.54-4.48A5.31,5.31,0,0,1,182,382a4.68,4.68,0,0,1,3.59,1.36,5.5,5.5,0,0,1,1.26,3.87ZM185,386.81a3.49,3.49,0,0,0-.77-2.37,3,3,0,0,0-2.31-.83,3.31,3.31,0,0,0-2.47.92,3.52,3.52,0,0,0-1.05,2.28Z"/><path class="cls-3" d="M191.77,393.85h-1.94v-16h1.94Z"/><path class="cls-3" d="M205.42,388.09a6.49,6.49,0,0,1-1.44,4.45,5.44,5.44,0,0,1-7.75,0,7.58,7.58,0,0,1,0-8.89,5.4,5.4,0,0,1,7.75,0A6.46,6.46,0,0,1,205.42,388.09Zm-2,0a5.19,5.19,0,0,0-.88-3.32,3.28,3.28,0,0,0-4.88,0,6.68,6.68,0,0,0,0,6.61,3.24,3.24,0,0,0,4.87,0A5.22,5.22,0,0,0,203.42,388.09Z"/><path class="cls-3" d="M216.65,390.53a3.12,3.12,0,0,1-1.31,2.58,5.62,5.62,0,0,1-3.56,1,8.61,8.61,0,0,1-2.34-.3,9.26,9.26,0,0,1-1.79-.67V391h.1a7.71,7.71,0,0,0,2,1.1,6.36,6.36,0,0,0,2.16.4,4,4,0,0,0,2-.41,1.38,1.38,0,0,0,.72-1.3,1.33,1.33,0,0,0-.39-1,3.62,3.62,0,0,0-1.51-.59c-.28-.07-.63-.14-1.08-.22s-.84-.17-1.21-.27a4,4,0,0,1-2.15-1.18,3,3,0,0,1-.63-1.91,3.2,3.2,0,0,1,.29-1.34,3.4,3.4,0,0,1,.89-1.13,4.25,4.25,0,0,1,1.47-.76,6.57,6.57,0,0,1,2-.29,9,9,0,0,1,2.09.26,7.39,7.39,0,0,1,1.75.61V385h-.1a7.23,7.23,0,0,0-1.8-.92,6.29,6.29,0,0,0-2.09-.38,3.64,3.64,0,0,0-1.79.41,1.43,1.43,0,0,0-.29,2.28,3.49,3.49,0,0,0,1.4.59c.36.08.76.17,1.2.25l1.11.22a4,4,0,0,1,2.08,1.07A2.77,2.77,0,0,1,216.65,390.53Z"/><path class="cls-3" d="M222.58,393.85h-2.46v-2.94h2.46Z"/><path class="cls-4" d="M181.37,436.34a10.65,10.65,0,0,1-2.43-.27,9.75,9.75,0,0,1-2.26-.82l.42-2h.13a5.6,5.6,0,0,0,2.07,1.22,7,7,0,0,0,2.36.43,4.77,4.77,0,0,0,2.87-.74,2.27,2.27,0,0,0,1-1.9,1.51,1.51,0,0,0-.35-1,2.14,2.14,0,0,0-1.05-.6q-.57-.15-1.35-.3c-.53-.1-1-.2-1.5-.31a4.36,4.36,0,0,1-2.14-1.06,2.5,2.5,0,0,1-.75-1.85A3.8,3.8,0,0,1,180,424a6.46,6.46,0,0,1,4.1-1.24,10,10,0,0,1,2.49.29,10.29,10.29,0,0,1,1.93.67l-.39,1.87H188a5.2,5.2,0,0,0-1.78-1,7.14,7.14,0,0,0-2.43-.42,4.29,4.29,0,0,0-2.56.7,2.16,2.16,0,0,0-1,1.79,1.59,1.59,0,0,0,.34,1,2.23,2.23,0,0,0,1.22.66l1.5.32q.93.18,1.56.36a4,4,0,0,1,1.9,1,2.39,2.39,0,0,1,.64,1.71,3.85,3.85,0,0,1-.42,1.71,4.16,4.16,0,0,1-1.18,1.46,5.93,5.93,0,0,1-1.89,1A7.9,7.9,0,0,1,181.37,436.34Z"/><path class="cls-4" d="M193.67,436.33a4.87,4.87,0,0,1-3.2-1,3.43,3.43,0,0,1-1.16-2.8,6.79,6.79,0,0,1,1.7-4.63,5.44,5.44,0,0,1,4.22-1.93,3.61,3.61,0,0,1,2.55.83,3,3,0,0,1,.89,2.34,6.93,6.93,0,0,1-.07.83c0,.38-.13.83-.24,1.33h-7.24a4.61,4.61,0,0,0-.07.5,3.7,3.7,0,0,0,0,.46,2.54,2.54,0,0,0,.75,1.94,3,3,0,0,0,2.15.71,5.6,5.6,0,0,0,2-.38,7.57,7.57,0,0,0,1.71-.85h.1l-.36,1.79-.79.29c-.23.08-.53.17-.89.26s-.69.16-1,.2A6.19,6.19,0,0,1,193.67,436.33Zm3.3-6.2c0-.17.05-.32.06-.43s0-.25,0-.39a2,2,0,0,0-.52-1.47,2.22,2.22,0,0,0-1.65-.52,3.4,3.4,0,0,0-2.21.77,3.75,3.75,0,0,0-1.31,2Z"/><path class="cls-4" d="M204.57,422.43l-3.16,13.67h-1.65l3.16-13.67Z"/><path class="cls-4" d="M209.33,436.33a4.89,4.89,0,0,1-3.2-1,3.43,3.43,0,0,1-1.16-2.8,6.75,6.75,0,0,1,1.71-4.63,5.41,5.41,0,0,1,4.21-1.93,3.63,3.63,0,0,1,2.56.83,3.07,3.07,0,0,1,.88,2.34,6.93,6.93,0,0,1-.07.83c0,.38-.13.83-.24,1.33h-7.24a4.61,4.61,0,0,0-.07.5,3.7,3.7,0,0,0,0,.46,2.54,2.54,0,0,0,.75,1.94,3,3,0,0,0,2.15.71,5.56,5.56,0,0,0,2-.38,7.88,7.88,0,0,0,1.72-.85h.09l-.36,1.79-.79.29c-.23.08-.53.17-.89.26s-.69.16-1,.2A6.19,6.19,0,0,1,209.33,436.33Zm3.3-6.2c0-.17.05-.32.06-.43s0-.25,0-.39a2,2,0,0,0-.52-1.47,2.21,2.21,0,0,0-1.64-.52,3.43,3.43,0,0,0-2.22.77,3.8,3.8,0,0,0-1.31,2Z"/><path class="cls-4" d="M219.66,436.32a5.54,5.54,0,0,1-1.65-.22,3.19,3.19,0,0,1-1.25-.69,3.05,3.05,0,0,1-.8-1.15,4.23,4.23,0,0,1-.28-1.62,7.41,7.41,0,0,1,.43-2.57,6.44,6.44,0,0,1,1.22-2.1,5.43,5.43,0,0,1,1.89-1.4,5.82,5.82,0,0,1,2.43-.51,5.38,5.38,0,0,1,1.62.24,6.58,6.58,0,0,1,1.34.56l-.36,1.78h-.1c-.12-.1-.26-.23-.44-.36a3.32,3.32,0,0,0-.62-.4,3.8,3.8,0,0,0-.8-.31,3.46,3.46,0,0,0-1-.13,3.34,3.34,0,0,0-2.79,1.44,5.68,5.68,0,0,0-1.07,3.49,2.68,2.68,0,0,0,.63,1.91,2.42,2.42,0,0,0,1.82.66,4.24,4.24,0,0,0,1.11-.15,7.08,7.08,0,0,0,.94-.34c.28-.14.55-.28.8-.43l.53-.34h.1l-.35,1.8a11.49,11.49,0,0,1-1.62.59A6,6,0,0,1,219.66,436.32Z"/><path class="cls-4" d="M229,436.32a5.54,5.54,0,0,1-1.65-.22,3.12,3.12,0,0,1-1.25-.69,3.05,3.05,0,0,1-.8-1.15,4.23,4.23,0,0,1-.28-1.62,7.41,7.41,0,0,1,.43-2.57,6.27,6.27,0,0,1,1.22-2.1,5.43,5.43,0,0,1,1.89-1.4,5.8,5.8,0,0,1,2.42-.51,5.4,5.4,0,0,1,1.63.24,6.58,6.58,0,0,1,1.34.56l-.36,1.78h-.1c-.12-.1-.26-.23-.44-.36a3.68,3.68,0,0,0-.62-.4,3.8,3.8,0,0,0-.8-.31,3.48,3.48,0,0,0-1-.13,3.33,3.33,0,0,0-2.78,1.44,5.62,5.62,0,0,0-1.07,3.49,2.68,2.68,0,0,0,.63,1.91,2.42,2.42,0,0,0,1.82.66,4.11,4.11,0,0,0,1.1-.15,7.27,7.27,0,0,0,.95-.34c.28-.14.55-.28.8-.43l.53-.34h.1l-.35,1.8a11.49,11.49,0,0,1-1.62.59A6,6,0,0,1,229,436.32Z"/><path class="cls-4" d="M238.1,426.29l-2.27,9.81h-1.65l2.27-9.81Zm.9-3.36-.4,1.71h-1.87l.4-1.71Z"/><path class="cls-4" d="M248.75,429.76a7.93,7.93,0,0,1-.4,2.53,6.42,6.42,0,0,1-1.15,2.11,5.54,5.54,0,0,1-1.76,1.45,5,5,0,0,1-2.34.53,3.66,3.66,0,0,1-2.73-1,3.78,3.78,0,0,1-1-2.76,7.76,7.76,0,0,1,.4-2.51A6.66,6.66,0,0,1,241,428a5.47,5.47,0,0,1,1.79-1.43,5,5,0,0,1,2.31-.54,3.75,3.75,0,0,1,2.7,1A3.68,3.68,0,0,1,248.75,429.76Zm-2.69,3.71a5.4,5.4,0,0,0,.73-1.63,7.72,7.72,0,0,0,.25-1.95,2.64,2.64,0,0,0-.59-1.86,2.13,2.13,0,0,0-1.66-.64,2.92,2.92,0,0,0-1.53.41,3.88,3.88,0,0,0-1.17,1.12,5.4,5.4,0,0,0-.73,1.63,7.3,7.3,0,0,0-.25,1.93,2.72,2.72,0,0,0,.58,1.87,2.16,2.16,0,0,0,1.67.65,2.92,2.92,0,0,0,1.53-.41A3.56,3.56,0,0,0,246.06,433.47Z"/><path class="cls-4" d="M259.86,428.53a4.67,4.67,0,0,1,0,.57,3.41,3.41,0,0,1-.11.63l-1.47,6.37h-1.65l1.29-5.59c.07-.31.12-.58.16-.81a4,4,0,0,0,.06-.69,1.5,1.5,0,0,0-.37-1.11,1.8,1.8,0,0,0-1.31-.37,3.54,3.54,0,0,0-1.48.37,9.78,9.78,0,0,0-1.57.88l-1.69,7.32H250l2.26-9.81h1.65l-.25,1.09a10,10,0,0,1,1.76-1,4.22,4.22,0,0,1,1.7-.36,2.9,2.9,0,0,1,2,.65A2.4,2.4,0,0,1,259.86,428.53Z"/><path class="cls-4" d="M266.06,436.33a4.84,4.84,0,0,1-3.19-1,3.4,3.4,0,0,1-1.16-2.8,6.74,6.74,0,0,1,1.7-4.63,5.42,5.42,0,0,1,4.21-1.93,3.62,3.62,0,0,1,2.56.83,3.07,3.07,0,0,1,.89,2.34,7.54,7.54,0,0,1-.08.83c-.05.38-.13.83-.24,1.33h-7.23a4.71,4.71,0,0,0-.08.5c0,.16,0,.32,0,.46a2.51,2.51,0,0,0,.76,1.94,3,3,0,0,0,2.14.71,5.52,5.52,0,0,0,2-.38,7.66,7.66,0,0,0,1.72-.85h.1l-.36,1.79c-.3.1-.56.2-.79.29s-.54.17-.9.26a9.36,9.36,0,0,1-1,.2A6.19,6.19,0,0,1,266.06,436.33Zm3.3-6.2c0-.17.05-.32.06-.43a2.42,2.42,0,0,0,0-.39,2,2,0,0,0-.51-1.47,2.25,2.25,0,0,0-1.65-.52,3.45,3.45,0,0,0-2.22.77,3.8,3.8,0,0,0-1.31,2Z"/><path class="cls-4" d="M288.86,426.29l-2.26,9.81H285l.25-1.08a11.6,11.6,0,0,1-1.75,1,4.16,4.16,0,0,1-1.71.36,2.87,2.87,0,0,1-2-.64,2.35,2.35,0,0,1-.71-1.86,3.69,3.69,0,0,1,0-.58c0-.19.06-.4.11-.64l1.46-6.37h1.65L281,431.88a6.38,6.38,0,0,0-.15.78,4.19,4.19,0,0,0-.07.69,1.53,1.53,0,0,0,.38,1.14,1.82,1.82,0,0,0,1.3.37,3.73,3.73,0,0,0,1.49-.37,10.41,10.41,0,0,0,1.54-.87l1.69-7.33Z"/><path class="cls-4" d="M299.69,428.53a4.67,4.67,0,0,1,0,.57,3.41,3.41,0,0,1-.11.63l-1.47,6.37h-1.64l1.28-5.59c.07-.31.12-.58.16-.81a4,4,0,0,0,.06-.69,1.5,1.5,0,0,0-.37-1.11,1.8,1.8,0,0,0-1.31-.37,3.54,3.54,0,0,0-1.48.37,10.23,10.23,0,0,0-1.57.88l-1.69,7.32h-1.65l2.27-9.81h1.65l-.25,1.09a9.31,9.31,0,0,1,1.76-1A4.14,4.14,0,0,1,297,426a2.9,2.9,0,0,1,2,.65A2.4,2.4,0,0,1,299.69,428.53Z"/><path class="cls-4" d="M307.48,435.06l-.65.4a6,6,0,0,1-.83.44,5.37,5.37,0,0,1-2.27.48,2.7,2.7,0,0,1-1.9-.68,2.33,2.33,0,0,1-.73-1.79,3.63,3.63,0,0,1,.51-2,3.83,3.83,0,0,1,1.53-1.31,8,8,0,0,1,2.39-.73,24.25,24.25,0,0,1,3.2-.27c0-.17.06-.31.09-.43a2.21,2.21,0,0,0,0-.37,1.31,1.31,0,0,0-.17-.69,1.16,1.16,0,0,0-.48-.42,2.11,2.11,0,0,0-.71-.22,8.42,8.42,0,0,0-.9-.05,7.14,7.14,0,0,0-1.71.24,12.46,12.46,0,0,0-1.56.48h-.09l.33-1.66c.33-.08.82-.18,1.47-.29a10,10,0,0,1,1.85-.17,5.26,5.26,0,0,1,2.74.57,2,2,0,0,1,.92,1.81,4.75,4.75,0,0,1,0,.51c0,.18-.06.34-.09.5l-1.54,6.66h-1.64Zm1-4.13a22.75,22.75,0,0,0-2.41.2,7.19,7.19,0,0,0-1.73.45,2.37,2.37,0,0,0-1.08.78,2,2,0,0,0-.37,1.24,1.16,1.16,0,0,0,.43,1,2.19,2.19,0,0,0,1.33.33,4,4,0,0,0,1.63-.36,8.28,8.28,0,0,0,1.55-.85Z"/><path class="cls-4" d="M328,429.76a7.94,7.94,0,0,1-.41,2.53,6.59,6.59,0,0,1-1.14,2.11,5.68,5.68,0,0,1-1.77,1.45,4.92,4.92,0,0,1-2.33.53,3.66,3.66,0,0,1-2.73-1,3.74,3.74,0,0,1-1-2.76,7.76,7.76,0,0,1,.4-2.51,6.64,6.64,0,0,1,1.15-2.13,5.69,5.69,0,0,1,1.79-1.43,5,5,0,0,1,2.32-.54,3.42,3.42,0,0,1,3.7,3.75Zm-2.69,3.71a5.38,5.38,0,0,0,.72-1.63,7.29,7.29,0,0,0,.25-1.95,2.64,2.64,0,0,0-.58-1.86,2.16,2.16,0,0,0-1.67-.64,3,3,0,0,0-1.53.41,3.74,3.74,0,0,0-1.16,1.12,5.4,5.4,0,0,0-.73,1.63,7.31,7.31,0,0,0-.26,1.93,2.72,2.72,0,0,0,.59,1.87,2.15,2.15,0,0,0,1.67.65,3,3,0,0,0,1.53-.41A3.56,3.56,0,0,0,325.35,433.47Z"/><path class="cls-4" d="M339.29,429.39a8.2,8.2,0,0,1-.45,2.74,7.33,7.33,0,0,1-1.2,2.18,5.82,5.82,0,0,1-1.76,1.46,4.55,4.55,0,0,1-2.14.53,5.54,5.54,0,0,1-1.45-.18,4.54,4.54,0,0,1-1.21-.53l-.95,4.14h-1.65l3.1-13.44h1.65l-.24,1a9.71,9.71,0,0,1,1.61-.94,4.19,4.19,0,0,1,1.75-.37,2.73,2.73,0,0,1,2.19.89A3.74,3.74,0,0,1,339.29,429.39Zm-1.73.32a2.56,2.56,0,0,0-.46-1.62,1.78,1.78,0,0,0-1.46-.56,3.62,3.62,0,0,0-1.51.36,10.77,10.77,0,0,0-1.46.81l-1.28,5.57a5.73,5.73,0,0,0,1.09.45,4.5,4.5,0,0,0,1.25.15,3,3,0,0,0,1.63-.44,3.64,3.64,0,0,0,1.2-1.14,5.21,5.21,0,0,0,.75-1.64A7.58,7.58,0,0,0,337.56,429.71Z"/><path class="cls-4" d="M344.78,436.32a5.54,5.54,0,0,1-1.65-.22,3.26,3.26,0,0,1-1.25-.69,3.05,3.05,0,0,1-.8-1.15,4.23,4.23,0,0,1-.28-1.62,7.41,7.41,0,0,1,.43-2.57,6.44,6.44,0,0,1,1.22-2.1,5.43,5.43,0,0,1,1.89-1.4,5.82,5.82,0,0,1,2.43-.51,5.38,5.38,0,0,1,1.62.24,6.35,6.35,0,0,1,1.34.56l-.36,1.78h-.1a5.06,5.06,0,0,0-.44-.36,3.32,3.32,0,0,0-.62-.4,3.8,3.8,0,0,0-.8-.31,3.41,3.41,0,0,0-1-.13,3.34,3.34,0,0,0-2.79,1.44,5.68,5.68,0,0,0-1.07,3.49,2.64,2.64,0,0,0,.64,1.91,2.39,2.39,0,0,0,1.81.66,4.24,4.24,0,0,0,1.11-.15,7.08,7.08,0,0,0,.94-.34c.29-.14.55-.28.8-.43l.53-.34h.1l-.35,1.8a11.49,11.49,0,0,1-1.62.59A6,6,0,0,1,344.78,436.32Z"/><path class="cls-4" d="M353.84,426.29l-2.27,9.81h-1.65l2.27-9.81Zm.9-3.36-.4,1.71h-1.87l.4-1.71Z"/><path class="cls-4" d="M364.49,429.76a7.93,7.93,0,0,1-.4,2.53A6.59,6.59,0,0,1,363,434.4a5.68,5.68,0,0,1-1.77,1.45,5,5,0,0,1-2.34.53,3.69,3.69,0,0,1-2.73-1,3.78,3.78,0,0,1-1-2.76,8,8,0,0,1,.4-2.51,6.86,6.86,0,0,1,1.16-2.13,5.58,5.58,0,0,1,1.79-1.43,5,5,0,0,1,2.31-.54,3.74,3.74,0,0,1,2.7,1A3.68,3.68,0,0,1,364.49,429.76Zm-2.68,3.71a5.64,5.64,0,0,0,.72-1.63,7.29,7.29,0,0,0,.25-1.95,2.64,2.64,0,0,0-.59-1.86,2.12,2.12,0,0,0-1.66-.64,2.92,2.92,0,0,0-1.53.41,3.88,3.88,0,0,0-1.17,1.12,5.65,5.65,0,0,0-.73,1.63,7.3,7.3,0,0,0-.25,1.93,2.67,2.67,0,0,0,.59,1.87,2.15,2.15,0,0,0,1.67.65,3,3,0,0,0,1.53-.41A3.77,3.77,0,0,0,361.81,433.47Zm2.61-12.1-3.12,3.29h-1.37l2.24-3.29Z"/><path class="cls-4" d="M375.6,428.53q0,.21,0,.57c0,.24-.07.45-.11.63L374,436.1h-1.64l1.28-5.59c.07-.31.13-.58.16-.81a4,4,0,0,0,.06-.69,1.5,1.5,0,0,0-.37-1.11,1.8,1.8,0,0,0-1.31-.37,3.54,3.54,0,0,0-1.48.37,10.23,10.23,0,0,0-1.57.88l-1.69,7.32h-1.65l2.27-9.81h1.65l-.25,1.09a9.31,9.31,0,0,1,1.76-1,4.14,4.14,0,0,1,1.69-.36,2.9,2.9,0,0,1,2,.65A2.4,2.4,0,0,1,375.6,428.53Z"/><path class="cls-5" d="M522.9,236.11H38V27.34H522.9ZM45.48,229.22h470v-195h-470Z"/><circle class="cls-5" cx="56.02" cy="44.77" r="37.4"/><path class="cls-3" d="M216.64,112.78a9.57,9.57,0,0,1-1.26,4.91,9.06,9.06,0,0,1-3.16,3.33,9.77,9.77,0,0,1-3.15,1.21,20.81,20.81,0,0,1-4.06.35h-6.92V102.94h7.12a18.45,18.45,0,0,1,4.14.41,9.67,9.67,0,0,1,2.92,1.14,8.85,8.85,0,0,1,3.2,3.34A10,10,0,0,1,216.64,112.78Zm-5.24,0a7.16,7.16,0,0,0-.7-3.31,4.94,4.94,0,0,0-2.24-2.16,5.92,5.92,0,0,0-1.59-.52,16,16,0,0,0-2.44-.14h-1.28V118.9h1.28a15.13,15.13,0,0,0,2.65-.17,5.87,5.87,0,0,0,1.65-.6,4.91,4.91,0,0,0,2-2.11A7.49,7.49,0,0,0,211.4,112.74Z"/><path class="cls-3" d="M235.38,109.14a7.63,7.63,0,0,1-.46,2.58,5.87,5.87,0,0,1-1.32,2.12,8.19,8.19,0,0,1-2.62,1.75,9.59,9.59,0,0,1-3.59.59h-3.15v6.4h-5.06V102.94h8.33a12.79,12.79,0,0,1,3.15.33,7.34,7.34,0,0,1,2.28,1,5.23,5.23,0,0,1,1.81,2A6.25,6.25,0,0,1,235.38,109.14Zm-5.24.11a2.35,2.35,0,0,0-.44-1.42,2.46,2.46,0,0,0-1-.84,4.89,4.89,0,0,0-1.54-.35c-.5,0-1.17,0-2,0h-.87v5.87h1.45a12.34,12.34,0,0,0,2.13-.16,3.16,3.16,0,0,0,1.4-.63,2.45,2.45,0,0,0,.71-1A4.23,4.23,0,0,0,230.14,109.25Z"/><path class="cls-3" d="M254.83,115.47a7,7,0,0,1-2.21,5.58c-1.48,1.29-3.65,1.93-6.53,1.93s-5.05-.64-6.52-1.93a7,7,0,0,1-2.21-5.57V102.94h5.09v12.25a4.61,4.61,0,0,0,.86,3,3.47,3.47,0,0,0,2.78,1,3.6,3.6,0,0,0,2.78-1,4.53,4.53,0,0,0,.87-3.09V102.94h5.09Z"/><path class="cls-3" d="M282.94,116.56a5.56,5.56,0,0,1-.57,2.55,5.17,5.17,0,0,1-1.58,1.86,7.38,7.38,0,0,1-2.55,1.24,14.26,14.26,0,0,1-3.52.37h-8.57V102.94h7.62a28,28,0,0,1,3.47.16,7.2,7.2,0,0,1,2.18.7,3.88,3.88,0,0,1,1.67,1.52,4.6,4.6,0,0,1-.2,4.7,4.91,4.91,0,0,1-2.13,1.69v.11a5.49,5.49,0,0,1,3.06,1.58A4.42,4.42,0,0,1,282.94,116.56Zm-6.48-8.06a2.1,2.1,0,0,0-.25-1,1.51,1.51,0,0,0-.86-.73,4.41,4.41,0,0,0-1.38-.23l-2.31,0h-.48v4.16h.8c.8,0,1.48,0,2,0a3.69,3.69,0,0,0,1.33-.27,1.62,1.62,0,0,0,.9-.78A2.75,2.75,0,0,0,276.46,108.5Zm1.22,8a2.47,2.47,0,0,0-.36-1.44,2.19,2.19,0,0,0-1.23-.76,6.68,6.68,0,0,0-1.63-.18h-3.28V119h.37l3.06,0a4.47,4.47,0,0,0,1.69-.34,2.07,2.07,0,0,0,1.09-.88A2.66,2.66,0,0,0,277.68,116.48Z"/><path class="cls-3" d="M300.26,115.18a7.71,7.71,0,0,1-2.13,5.75,9.51,9.51,0,0,1-11.95,0,8.84,8.84,0,0,1,0-11.52,9.55,9.55,0,0,1,12,0A7.76,7.76,0,0,1,300.26,115.18Zm-5.84,3.6a3.69,3.69,0,0,0,.69-1.37,8,8,0,0,0,.23-2.2,8.55,8.55,0,0,0-.23-2.19,3.85,3.85,0,0,0-.66-1.41,2.31,2.31,0,0,0-1-.77,3.55,3.55,0,0,0-1.28-.22,3.76,3.76,0,0,0-1.21.18,2.55,2.55,0,0,0-1,.74,3.71,3.71,0,0,0-.69,1.41,8.41,8.41,0,0,0-.26,2.26,8.58,8.58,0,0,0,.23,2.1,3.72,3.72,0,0,0,.66,1.43,2.48,2.48,0,0,0,1,.75,3.71,3.71,0,0,0,2.57,0A2.22,2.22,0,0,0,294.42,118.78Z"/><path class="cls-3" d="M316.74,120.87a9.06,9.06,0,0,1-.6,3.51,5.15,5.15,0,0,1-1.66,2.23,6.84,6.84,0,0,1-2.57,1.18,14.81,14.81,0,0,1-3.41.36,25.45,25.45,0,0,1-3-.18c-1-.13-1.86-.28-2.59-.45v-3.7h.58a15.89,15.89,0,0,0,2.12.62,10.12,10.12,0,0,0,2.23.28,7.79,7.79,0,0,0,2.14-.24,2.8,2.8,0,0,0,1.26-.69,2.46,2.46,0,0,0,.59-1.08,5.65,5.65,0,0,0,.19-1.58v-.28a7.07,7.07,0,0,1-1.9,1.11,6.31,6.31,0,0,1-2.32.4,6.11,6.11,0,0,1-4.79-1.87c-1.12-1.25-1.68-3.14-1.68-5.69a8.89,8.89,0,0,1,.51-3.17,7,7,0,0,1,1.45-2.32,6,6,0,0,1,2.14-1.43,6.74,6.74,0,0,1,2.6-.52,7.82,7.82,0,0,1,2.18.29,6.82,6.82,0,0,1,1.78.78l.17-.66h4.62Zm-4.76-3V111.2a4,4,0,0,0-1-.27,6.17,6.17,0,0,0-1.07-.1,3.53,3.53,0,0,0-2.8,1.07,4.45,4.45,0,0,0-.93,3,4.33,4.33,0,0,0,.79,3,3.11,3.11,0,0,0,2.36.85,4.46,4.46,0,0,0,1.4-.23A5.74,5.74,0,0,0,312,117.91Z"/><path class="cls-3" d="M335,115.18a7.71,7.71,0,0,1-2.13,5.75,9.53,9.53,0,0,1-12,0,8.85,8.85,0,0,1,0-11.52,9.53,9.53,0,0,1,12,0A7.73,7.73,0,0,1,335,115.18Zm-5.84,3.6a3.69,3.69,0,0,0,.69-1.37,8,8,0,0,0,.23-2.2,9,9,0,0,0-.23-2.19,3.85,3.85,0,0,0-.66-1.41,2.31,2.31,0,0,0-1-.77,3.55,3.55,0,0,0-1.28-.22,3.86,3.86,0,0,0-1.22.18,2.59,2.59,0,0,0-1,.74A3.71,3.71,0,0,0,324,113a8.41,8.41,0,0,0-.26,2.26,8.58,8.58,0,0,0,.23,2.1,3.72,3.72,0,0,0,.66,1.43,2.52,2.52,0,0,0,1,.75,3.56,3.56,0,0,0,1.34.24,3.49,3.49,0,0,0,1.24-.22A2.22,2.22,0,0,0,329.19,118.78Z"/><path class="cls-3" d="M346.58,122.44a11.22,11.22,0,0,1-1.63.31,15.41,15.41,0,0,1-2.09.12,6.39,6.39,0,0,1-4.12-1.12q-1.35-1.12-1.35-3.84V111h-1.95v-3.22h1.95v-4.23h4.76v4.23h4.43V111h-4.43v5.25c0,.52,0,1,0,1.36a2.89,2.89,0,0,0,.21,1.05,1.48,1.48,0,0,0,.65.73,2.75,2.75,0,0,0,1.36.27,5.4,5.4,0,0,0,1.8-.45h.4Z"/><path class="cls-3" d="M357.05,121l-.95.7a7,7,0,0,1-1.07.64,6.47,6.47,0,0,1-1.45.47,8.4,8.4,0,0,1-1.64.15,5,5,0,0,1-3.54-1.3,4.33,4.33,0,0,1-1.42-3.34,4.53,4.53,0,0,1,.72-2.65,4.9,4.9,0,0,1,2.06-1.62,11.27,11.27,0,0,1,3.27-.84c1.3-.17,2.65-.29,4.05-.37v-.08a1.73,1.73,0,0,0-1-1.7,7.35,7.35,0,0,0-3-.46,8.31,8.31,0,0,0-2.5.41c-.89.28-1.53.49-1.91.64h-.44v-3.57c.5-.14,1.32-.29,2.45-.47a21.52,21.52,0,0,1,3.39-.27q4,0,5.85,1.24a4.44,4.44,0,0,1,1.8,3.91v10.08h-4.71Zm2.53-20.53v.26l-4.64,4.92H351.7l3.26-5.18Zm-2.53,18.22v-3.07c-.64.05-1.33.12-2.08.22a9.23,9.23,0,0,0-1.7.32,2.29,2.29,0,0,0-1.09.65,1.63,1.63,0,0,0-.38,1.12,3,3,0,0,0,.08.75,1.18,1.18,0,0,0,.4.55,1.8,1.8,0,0,0,.72.39,5.35,5.35,0,0,0,1.32.12,4,4,0,0,0,1.45-.28A4.69,4.69,0,0,0,357.05,118.7Z"/><path class="cls-3" d="M65.45,50.24A5.66,5.66,0,0,1,63,55a11.06,11.06,0,0,1-6.77,1.85,15.21,15.21,0,0,1-4.15-.5A8.38,8.38,0,0,1,49.2,55a5.34,5.34,0,0,1-1.64-2A5.81,5.81,0,0,1,47,50.44a4.71,4.71,0,0,1,1-2.91,7.7,7.7,0,0,1,3.32-2.21v-.09A6.69,6.69,0,0,1,48.5,43a5.48,5.48,0,0,1-.89-3.1A5,5,0,0,1,50,35.68,10.77,10.77,0,0,1,56.27,34a11.49,11.49,0,0,1,6.33,1.5,4.59,4.59,0,0,1,2.29,4,4.34,4.34,0,0,1-1,2.77,7.36,7.36,0,0,1-3,2.06v.09a7.33,7.33,0,0,1,3.38,2.33A5.63,5.63,0,0,1,65.45,50.24Zm-5.6.25a2.2,2.2,0,0,0-.52-1.6,7.16,7.16,0,0,0-2.17-1.24c-.32-.15-.79-.33-1.41-.55l-1.55-.55a6.23,6.23,0,0,0-1.13,1.38,3.35,3.35,0,0,0-.51,1.82,3,3,0,0,0,1.09,2.43,4.34,4.34,0,0,0,2.85.9,5.41,5.41,0,0,0,1.1-.14,3.3,3.3,0,0,0,1.08-.43,3.09,3.09,0,0,0,.85-.79A2.08,2.08,0,0,0,59.85,50.49ZM59.4,40.16a2.13,2.13,0,0,0-.86-1.77,3.62,3.62,0,0,0-2.27-.66,4.49,4.49,0,0,0-1.08.13,3.84,3.84,0,0,0-1,.38,2.21,2.21,0,0,0-.71.65,1.64,1.64,0,0,0-.28.92,1.79,1.79,0,0,0,.5,1.34,5.1,5.1,0,0,0,1.6,1c.27.12.65.26,1.12.43s1,.37,1.72.58a6.54,6.54,0,0,0,1-1.42A3.76,3.76,0,0,0,59.4,40.16Z"/></g></g></svg>