<svg xmlns="http://www.w3.org/2000/svg" viewBox="0 0 562.62 470.8"><defs><style>.cls-1,.cls-3{fill:#fff;}.cls-1{opacity:0;}.cls-2{fill:#035aa6;}.cls-4{fill:#ffd053;}.cls-5{fill:#84bf2c;}</style></defs><title>slide10_pregunta1</title><g id="Capa_2" data-name="Capa 2"><g id="Layer_7" data-name="Layer 7"><rect class="cls-1" width="562.62" height="470.8"/><rect class="cls-2" x="66.24" y="248.43" width="424.94" height="71.91" rx="12.02"/><path class="cls-3" d="M90.91,283.83H80.79V268.48H90.91v1.81H82.83v4.21h8.08v1.81H82.83V282h8.08Z"/><path class="cls-3" d="M103.62,283.83h-1.94v-6.56a11.7,11.7,0,0,0-.09-1.49,2.75,2.75,0,0,0-.34-1.08,1.59,1.59,0,0,0-.75-.65,3.16,3.16,0,0,0-1.25-.21,4,4,0,0,0-1.66.39,8.62,8.62,0,0,0-1.66,1v8.6H94V272.31h1.94v1.28a7.84,7.84,0,0,1,1.87-1.17,5,5,0,0,1,2-.42,3.56,3.56,0,0,1,2.85,1.12,4.81,4.81,0,0,1,1,3.24Z"/><path class="cls-3" d="M126.5,279.11a4.51,4.51,0,0,1-.43,2,4.22,4.22,0,0,1-1.16,1.44,5.24,5.24,0,0,1-1.91,1,10.06,10.06,0,0,1-2.63.29h-5.44V268.48h4.54a19.39,19.39,0,0,1,2.52.12,5.36,5.36,0,0,1,1.6.52,2.82,2.82,0,0,1,1.22,1.14,3.34,3.34,0,0,1,.39,1.66,3.08,3.08,0,0,1-.56,1.86,4,4,0,0,1-1.49,1.24v.08a4.27,4.27,0,0,1,2.46,1.36A4,4,0,0,1,126.5,279.11Zm-3.43-6.92a2.22,2.22,0,0,0-.18-.94,1.55,1.55,0,0,0-.6-.62,3,3,0,0,0-1.18-.34,16.42,16.42,0,0,0-1.71-.07H117v4.44h2.64a9.91,9.91,0,0,0,1.52-.1,2.81,2.81,0,0,0,1.05-.41,1.66,1.66,0,0,0,.69-.8A3.13,3.13,0,0,0,123.07,272.19Zm1.31,7a3.18,3.18,0,0,0-.28-1.47,2.15,2.15,0,0,0-1-.93,3.61,3.61,0,0,0-1.2-.34,16.76,16.76,0,0,0-1.72-.07H117v5.71h2.7a14.42,14.42,0,0,0,2.19-.14,3.4,3.4,0,0,0,1.41-.51,2.68,2.68,0,0,0,.84-.92A2.86,2.86,0,0,0,124.38,279.19Z"/><path class="cls-3" d="M138.19,283.83h-1.92V282.6l-.7.49a4.81,4.81,0,0,1-.85.5,5.73,5.73,0,0,1-1.11.4,5.88,5.88,0,0,1-1.48.16,3.67,3.67,0,0,1-2.64-1,3.48,3.48,0,0,1-1.08-2.63,3.69,3.69,0,0,1,.56-2.12,3.77,3.77,0,0,1,1.61-1.27,8.6,8.6,0,0,1,2.52-.63c1-.11,2-.19,3.17-.25v-.3a2.23,2.23,0,0,0-.24-1.09,1.6,1.6,0,0,0-.66-.68,2.88,2.88,0,0,0-1-.32,9.46,9.46,0,0,0-1.21-.08,7.81,7.81,0,0,0-1.7.2,13.58,13.58,0,0,0-1.94.58h-.1v-2c.38-.1.93-.21,1.64-.34a12.7,12.7,0,0,1,2.11-.18,9.48,9.48,0,0,1,2.12.2,4.1,4.1,0,0,1,1.56.68,3,3,0,0,1,1,1.23,4.47,4.47,0,0,1,.34,1.87ZM136.27,281v-3.21c-.59,0-1.29.08-2.09.15a10.83,10.83,0,0,0-1.9.3,3.14,3.14,0,0,0-1.35.74,1.8,1.8,0,0,0-.52,1.38,1.84,1.84,0,0,0,.6,1.49,2.82,2.82,0,0,0,1.82.5,4.41,4.41,0,0,0,1.87-.4A9.24,9.24,0,0,0,136.27,281Z"/><path class="cls-3" d="M149.11,274.43H149a6.77,6.77,0,0,0-.84-.15,8.91,8.91,0,0,0-1,0,4.09,4.09,0,0,0-1.73.4,7.81,7.81,0,0,0-1.61,1v8.17h-1.93V272.31h1.93V274a9.55,9.55,0,0,1,2-1.32,4.42,4.42,0,0,1,1.8-.39,6.29,6.29,0,0,1,.73,0l.68.1Z"/><path class="cls-3" d="M158.12,274.43H158a6.77,6.77,0,0,0-.84-.15,8.91,8.91,0,0,0-1,0,4.09,4.09,0,0,0-1.73.4,7.81,7.81,0,0,0-1.61,1v8.17h-1.93V272.31h1.93V274a9.55,9.55,0,0,1,2-1.32,4.42,4.42,0,0,1,1.8-.39,6.29,6.29,0,0,1,.73,0l.68.1Z"/><path class="cls-3" d="M168.52,283.83h-1.93V282.6l-.69.49a4.81,4.81,0,0,1-.85.5,5.7,5.7,0,0,1-2.59.56,3.67,3.67,0,0,1-2.64-1,3.48,3.48,0,0,1-1.08-2.63,3.69,3.69,0,0,1,.56-2.12,3.8,3.8,0,0,1,1.6-1.27,8.75,8.75,0,0,1,2.53-.63c1-.11,2-.19,3.16-.25v-.3a2.23,2.23,0,0,0-.23-1.09,1.6,1.6,0,0,0-.66-.68,2.88,2.88,0,0,0-1-.32,9.46,9.46,0,0,0-1.21-.08,7.81,7.81,0,0,0-1.7.2,13.58,13.58,0,0,0-1.94.58h-.1v-2c.38-.1.92-.21,1.64-.34a12.7,12.7,0,0,1,2.11-.18,9.48,9.48,0,0,1,2.12.2,4.1,4.1,0,0,1,1.56.68,3.06,3.06,0,0,1,1,1.23,4.47,4.47,0,0,1,.34,1.87ZM166.59,281v-3.21c-.59,0-1.28.08-2.08.15a10.83,10.83,0,0,0-1.9.3,3.24,3.24,0,0,0-1.36.74,2.14,2.14,0,0,0,.09,2.87,2.8,2.8,0,0,0,1.82.5A4.45,4.45,0,0,0,165,282,8.78,8.78,0,0,0,166.59,281Z"/><path class="cls-3" d="M181.88,283.83h-1.94v-6.56a11.7,11.7,0,0,0-.09-1.49,2.59,2.59,0,0,0-.34-1.08,1.57,1.57,0,0,0-.74-.65,3.18,3.18,0,0,0-1.26-.21,4,4,0,0,0-1.66.39,8.62,8.62,0,0,0-1.66,1v8.6h-1.94V272.31h1.94v1.28a7.89,7.89,0,0,1,1.88-1.17,4.94,4.94,0,0,1,2-.42,3.56,3.56,0,0,1,2.84,1.12,4.75,4.75,0,0,1,1,3.24Z"/><path class="cls-3" d="M195,288.08H193v-5.55a6.83,6.83,0,0,1-1.79,1.15,4.86,4.86,0,0,1-1.91.38,3.93,3.93,0,0,1-3.28-1.59,7,7,0,0,1-1.22-4.36,7.27,7.27,0,0,1,.43-2.62,5.84,5.84,0,0,1,1.13-1.92,4.72,4.72,0,0,1,3.53-1.57,5.92,5.92,0,0,1,1.65.2,7.71,7.71,0,0,1,1.46.61l.12-.5H195ZM193,280.9v-6.51a8.36,8.36,0,0,0-1.43-.51,6.26,6.26,0,0,0-1.34-.14,3,3,0,0,0-2.55,1.14,5,5,0,0,0-.88,3.14,5.69,5.69,0,0,0,.71,3.1,2.45,2.45,0,0,0,2.22,1.09,4.32,4.32,0,0,0,1.69-.36A7.29,7.29,0,0,0,193,280.9Z"/><path class="cls-3" d="M208.31,283.83h-1.93v-1.28a9.66,9.66,0,0,1-1.88,1.19,4.77,4.77,0,0,1-2,.41A3.61,3.61,0,0,1,199.7,283a4.64,4.64,0,0,1-1-3.25v-7.48h1.93v6.56a10.58,10.58,0,0,0,.09,1.5,2.65,2.65,0,0,0,.35,1.07,1.63,1.63,0,0,0,.72.66,3.1,3.1,0,0,0,1.29.2,4.11,4.11,0,0,0,1.64-.39,7.47,7.47,0,0,0,1.67-1v-8.6h1.93Z"/><path class="cls-3" d="M214.21,270.39H212v-2h2.18Zm-.12,13.44h-1.94V272.31h1.94Z"/><path class="cls-3" d="M219.88,283.83h-1.94v-16h1.94Z"/><path class="cls-3" d="M225.68,283.83h-1.94v-16h1.94Z"/><path class="cls-3" d="M238.46,283.83h-1.93V282.6l-.7.49a4.48,4.48,0,0,1-.85.5,5.73,5.73,0,0,1-1.11.4,5.85,5.85,0,0,1-1.47.16,3.67,3.67,0,0,1-2.64-1,3.48,3.48,0,0,1-1.08-2.63,3.61,3.61,0,0,1,.56-2.12,3.73,3.73,0,0,1,1.6-1.27,8.59,8.59,0,0,1,2.53-.63c1-.11,2-.19,3.16-.25v-.3a2.35,2.35,0,0,0-.23-1.09,1.69,1.69,0,0,0-.67-.68,2.75,2.75,0,0,0-1-.32,9.18,9.18,0,0,0-1.2-.08,7.74,7.74,0,0,0-1.7.2,13.21,13.21,0,0,0-1.94.58h-.1v-2c.37-.1.92-.21,1.63-.34a12.82,12.82,0,0,1,2.12-.18,9.48,9.48,0,0,1,2.12.2,4.1,4.1,0,0,1,1.56.68,3.14,3.14,0,0,1,1,1.23,4.47,4.47,0,0,1,.34,1.87ZM236.53,281v-3.21c-.59,0-1.29.08-2.09.15a11,11,0,0,0-1.9.3,3.14,3.14,0,0,0-1.35.74,2.15,2.15,0,0,0,.08,2.87,2.83,2.83,0,0,0,1.83.5A4.37,4.37,0,0,0,235,282,8.52,8.52,0,0,0,236.53,281Z"/><rect class="cls-2" x="66.8" y="330.73" width="424.94" height="71.91" rx="12.02"/><path class="cls-3" d="M91.46,371.14H81.35V355.79H91.46v1.81H83.39v4.21h8.07v1.81H83.39v5.7h8.07Z"/><path class="cls-3" d="M104.17,371.14h-1.93v-6.56a11.52,11.52,0,0,0-.1-1.49,2.64,2.64,0,0,0-.34-1.09,1.55,1.55,0,0,0-.74-.64,3.18,3.18,0,0,0-1.26-.21,4,4,0,0,0-1.66.39,8.42,8.42,0,0,0-1.66,1v8.6H94.54V359.62h1.94v1.28a8.28,8.28,0,0,1,1.88-1.18,4.94,4.94,0,0,1,2-.42,3.59,3.59,0,0,1,2.84,1.12,4.75,4.75,0,0,1,1,3.24Z"/><path class="cls-3" d="M125,365.58h-8.49a5,5,0,0,0,.32,1.85,3.47,3.47,0,0,0,.88,1.29,3.59,3.59,0,0,0,1.27.75,5.2,5.2,0,0,0,1.62.24,6.26,6.26,0,0,0,2.37-.47,5.82,5.82,0,0,0,1.7-.92h.1v2.11a14.32,14.32,0,0,1-2,.69,8,8,0,0,1-2.14.28,6.16,6.16,0,0,1-4.48-1.55,5.83,5.83,0,0,1-1.61-4.4,6.37,6.37,0,0,1,1.54-4.49,5.27,5.27,0,0,1,4.06-1.66,4.64,4.64,0,0,1,3.59,1.36,5.45,5.45,0,0,1,1.27,3.87Zm-1.89-1.49a3.43,3.43,0,0,0-.77-2.36,3,3,0,0,0-2.3-.83,3.36,3.36,0,0,0-2.48.92,3.57,3.57,0,0,0-1,2.27Z"/><path class="cls-3" d="M129.86,371.14h-1.93V355.09h1.93Z"/><path class="cls-3" d="M151.26,365.24a7.72,7.72,0,0,1-.41,2.56,5.4,5.4,0,0,1-1.13,2,4.79,4.79,0,0,1-1.6,1.19,4.85,4.85,0,0,1-2,.41,6.26,6.26,0,0,1-1.62-.19,6.82,6.82,0,0,1-1.48-.61v4.82h-1.94V359.62h1.94v1.21a7,7,0,0,1,1.74-1.09,4.9,4.9,0,0,1,2-.44,3.84,3.84,0,0,1,3.25,1.57A7.27,7.27,0,0,1,151.26,365.24Zm-2,.05a5.43,5.43,0,0,0-.72-3.11,2.45,2.45,0,0,0-2.18-1,4.24,4.24,0,0,0-1.68.36,7,7,0,0,0-1.62.95V369a7.54,7.54,0,0,0,1.42.51,6,6,0,0,0,1.34.13,3.11,3.11,0,0,0,2.53-1.09A5,5,0,0,0,149.26,365.29Z"/><path class="cls-3" d="M163.82,371.14h-1.94v-1.28A9.25,9.25,0,0,1,160,371a4.62,4.62,0,0,1-2,.42,3.65,3.65,0,0,1-2.83-1.11,4.71,4.71,0,0,1-1-3.26v-7.47h1.94v6.56a12.8,12.8,0,0,0,.08,1.5,2.94,2.94,0,0,0,.35,1.06,1.59,1.59,0,0,0,.73.66,3.06,3.06,0,0,0,1.28.21,4.15,4.15,0,0,0,1.65-.39,7.8,7.8,0,0,0,1.66-1v-8.6h1.94Z"/><path class="cls-3" d="M177.28,365.58h-8.49a5,5,0,0,0,.32,1.85,3.36,3.36,0,0,0,.88,1.29,3.51,3.51,0,0,0,1.27.75,5.2,5.2,0,0,0,1.62.24,6.26,6.26,0,0,0,2.37-.47,6,6,0,0,0,1.7-.92h.1v2.11a14.32,14.32,0,0,1-2,.69,8,8,0,0,1-2.15.28,6.14,6.14,0,0,1-4.47-1.55,5.83,5.83,0,0,1-1.61-4.4,6.37,6.37,0,0,1,1.54-4.49,5.27,5.27,0,0,1,4.06-1.66,4.64,4.64,0,0,1,3.59,1.36,5.5,5.5,0,0,1,1.27,3.87Zm-1.89-1.49a3.43,3.43,0,0,0-.77-2.36,3,3,0,0,0-2.3-.83,3.36,3.36,0,0,0-2.48.92,3.52,3.52,0,0,0-1.05,2.27Z"/><path class="cls-3" d="M187.4,361.73h-.1l-.84-.15a9.29,9.29,0,0,0-1,0,4,4,0,0,0-1.73.39,8.26,8.26,0,0,0-1.61,1v8.18h-1.94V359.62h1.94v1.7a9.09,9.09,0,0,1,2-1.31,4.39,4.39,0,0,1,1.8-.39,6.29,6.29,0,0,1,.73,0l.68.09Z"/><path class="cls-3" d="M195.2,371a9.26,9.26,0,0,1-1.19.24,8.38,8.38,0,0,1-1.15.09,3.54,3.54,0,0,1-2.68-.95,4.25,4.25,0,0,1-.92-3v-6.12H188v-1.63h1.31v-3.31h1.94v3.31h4v1.63h-4v5.25c0,.6,0,1.07,0,1.41a2.49,2.49,0,0,0,.29,1,1.4,1.4,0,0,0,.63.6,2.84,2.84,0,0,0,1.21.19,3.58,3.58,0,0,0,1-.14,7,7,0,0,0,.74-.23h.1Z"/><path class="cls-3" d="M207.36,365.38a6.45,6.45,0,0,1-1.45,4.45,5.41,5.41,0,0,1-7.74,0,7.6,7.6,0,0,1,0-8.9,5.41,5.41,0,0,1,7.74,0A6.46,6.46,0,0,1,207.36,365.38Zm-2,0a5.19,5.19,0,0,0-.88-3.32,3.28,3.28,0,0,0-4.88,0,6.71,6.71,0,0,0,0,6.61,3.23,3.23,0,0,0,4.88,0A5.28,5.28,0,0,0,205.36,365.38Z"/><path class="cls-3" d="M227.12,371.14h-1.94v-1.21a6.94,6.94,0,0,1-1.74,1.12,4.79,4.79,0,0,1-2,.41,3.89,3.89,0,0,1-3.27-1.59,7.1,7.1,0,0,1-1.21-4.4,7.77,7.77,0,0,1,.41-2.61,6.1,6.1,0,0,1,1.13-1.95,4.83,4.83,0,0,1,1.64-1.2,4.78,4.78,0,0,1,1.93-.41,6.08,6.08,0,0,1,1.61.19,8.2,8.2,0,0,1,1.47.59v-5h1.94Zm-1.94-2.84v-6.61a7.52,7.52,0,0,0-1.4-.48,6.29,6.29,0,0,0-1.35-.14,3.07,3.07,0,0,0-2.54,1.14,5,5,0,0,0-.9,3.21,5.68,5.68,0,0,0,.7,3.12,2.48,2.48,0,0,0,2.24,1.07,4.07,4.07,0,0,0,1.67-.37A6.67,6.67,0,0,0,225.18,368.3Z"/><path class="cls-3" d="M240.57,365.58h-8.48a5,5,0,0,0,.32,1.85,3.34,3.34,0,0,0,.87,1.29,3.64,3.64,0,0,0,1.28.75,5.2,5.2,0,0,0,1.62.24,6.33,6.33,0,0,0,2.37-.47,5.74,5.74,0,0,0,1.69-.92h.11v2.11a14.78,14.78,0,0,1-2,.69,8,8,0,0,1-2.15.28,6.14,6.14,0,0,1-4.47-1.55,5.83,5.83,0,0,1-1.61-4.4,6.33,6.33,0,0,1,1.54-4.49,5.27,5.27,0,0,1,4.06-1.66,4.64,4.64,0,0,1,3.59,1.36,5.5,5.5,0,0,1,1.26,3.87Zm-1.88-1.49a3.48,3.48,0,0,0-.77-2.36,3,3,0,0,0-2.31-.83,3.35,3.35,0,0,0-2.47.92,3.52,3.52,0,0,0-1,2.27Z"/><path class="cls-3" d="M260.75,365.38a6.49,6.49,0,0,1-1.44,4.45,5.42,5.42,0,0,1-7.75,0,7.6,7.6,0,0,1,0-8.9,5.42,5.42,0,0,1,7.75,0A6.51,6.51,0,0,1,260.75,365.38Zm-2,0a5.19,5.19,0,0,0-.88-3.32,3.28,3.28,0,0,0-4.88,0,6.68,6.68,0,0,0,0,6.61,3.22,3.22,0,0,0,4.87,0A5.28,5.28,0,0,0,258.75,365.38Z"/><path class="cls-3" d="M270.93,361.73h-.1l-.84-.15a9,9,0,0,0-1,0,4.09,4.09,0,0,0-1.74.39,8.19,8.19,0,0,0-1.6,1v8.18h-1.94V359.62h1.94v1.7a9.28,9.28,0,0,1,2-1.31,4.42,4.42,0,0,1,1.8-.39,6.17,6.17,0,0,1,.73,0l.68.09Z"/><path class="cls-3" d="M274.84,357.69h-2.19v-2h2.19Zm-.12,13.45h-1.94V359.62h1.94Z"/><path class="cls-3" d="M287.89,369.83a5.94,5.94,0,0,1-1.33,4.29,5.44,5.44,0,0,1-4.09,1.38,13.11,13.11,0,0,1-1.79-.13A14.64,14.64,0,0,1,279,375v-2h.11a13.12,13.12,0,0,0,1.5.46,8.15,8.15,0,0,0,2.06.27,5.05,5.05,0,0,0,1.64-.23,2.34,2.34,0,0,0,1-.66,2.23,2.23,0,0,0,.52-1,5,5,0,0,0,.15-1.27v-1.05a7.72,7.72,0,0,1-1.67,1.05,5.17,5.17,0,0,1-2,.34,4,4,0,0,1-3.27-1.49,6.47,6.47,0,0,1-1.21-4.2,7,7,0,0,1,.42-2.56,5.48,5.48,0,0,1,1.14-1.86,4.58,4.58,0,0,1,1.62-1.14,4.9,4.9,0,0,1,1.91-.41,6.13,6.13,0,0,1,1.68.2,7.39,7.39,0,0,1,1.42.62l.13-.5h1.81ZM286,368v-6.28a7.68,7.68,0,0,0-1.43-.5,6.1,6.1,0,0,0-1.33-.15,3.12,3.12,0,0,0-2.51,1.08,4.6,4.6,0,0,0-.92,3.11,5.28,5.28,0,0,0,.68,2.94,2.55,2.55,0,0,0,2.26,1,4.62,4.62,0,0,0,1.69-.33A6,6,0,0,0,286,368Z"/><path class="cls-3" d="M301.35,365.58h-8.49a5,5,0,0,0,.32,1.85,3.36,3.36,0,0,0,.88,1.29,3.51,3.51,0,0,0,1.27.75,5.2,5.2,0,0,0,1.62.24,6.26,6.26,0,0,0,2.37-.47,6,6,0,0,0,1.7-.92h.1v2.11a14.32,14.32,0,0,1-2,.69,8,8,0,0,1-2.15.28,6.14,6.14,0,0,1-4.47-1.55,5.83,5.83,0,0,1-1.61-4.4,6.37,6.37,0,0,1,1.54-4.49,5.27,5.27,0,0,1,4.06-1.66,4.64,4.64,0,0,1,3.59,1.36,5.5,5.5,0,0,1,1.27,3.87Zm-1.89-1.49a3.43,3.43,0,0,0-.77-2.36,3,3,0,0,0-2.3-.83,3.36,3.36,0,0,0-2.48.92,3.52,3.52,0,0,0-1.05,2.27Z"/><path class="cls-3" d="M313.91,371.14H312v-6.56a11.58,11.58,0,0,0-.09-1.49,2.64,2.64,0,0,0-.34-1.09,1.55,1.55,0,0,0-.74-.64,3.18,3.18,0,0,0-1.26-.21,4,4,0,0,0-1.66.39,8.14,8.14,0,0,0-1.66,1v8.6h-1.94V359.62h1.94v1.28a8.28,8.28,0,0,1,1.88-1.18,4.94,4.94,0,0,1,2-.42,3.59,3.59,0,0,1,2.84,1.12,4.75,4.75,0,0,1,1,3.24Z"/><path class="cls-4" d="M181.37,426.34a10.65,10.65,0,0,1-2.43-.27,10.24,10.24,0,0,1-2.26-.82l.42-2h.13a5.6,5.6,0,0,0,2.07,1.22,7,7,0,0,0,2.36.43,4.77,4.77,0,0,0,2.87-.74,2.27,2.27,0,0,0,1-1.9,1.51,1.51,0,0,0-.35-1,2.14,2.14,0,0,0-1.05-.6q-.57-.15-1.35-.3c-.53-.1-1-.2-1.5-.31a4.36,4.36,0,0,1-2.14-1.06,2.49,2.49,0,0,1-.75-1.85A3.8,3.8,0,0,1,180,414a6.46,6.46,0,0,1,4.1-1.24,10,10,0,0,1,2.49.28,11,11,0,0,1,1.93.68l-.39,1.87H188a5.37,5.37,0,0,0-1.78-1,7.38,7.38,0,0,0-2.43-.41,4.22,4.22,0,0,0-2.56.71,2.13,2.13,0,0,0-1,1.78,1.59,1.59,0,0,0,.34,1,2.23,2.23,0,0,0,1.22.66l1.5.32c.62.13,1.14.24,1.56.35a4.09,4.09,0,0,1,1.9,1,2.39,2.39,0,0,1,.64,1.71,3.85,3.85,0,0,1-.42,1.71,4.16,4.16,0,0,1-1.18,1.46,5.93,5.93,0,0,1-1.89,1A7.9,7.9,0,0,1,181.37,426.34Z"/><path class="cls-4" d="M193.67,426.33a4.87,4.87,0,0,1-3.2-1,3.42,3.42,0,0,1-1.16-2.8,6.79,6.79,0,0,1,1.7-4.63,5.44,5.44,0,0,1,4.22-1.93,3.61,3.61,0,0,1,2.55.83,3,3,0,0,1,.89,2.34,6.93,6.93,0,0,1-.07.83c0,.38-.13.83-.24,1.33h-7.24a4.61,4.61,0,0,0-.07.5,3.7,3.7,0,0,0,0,.46,2.54,2.54,0,0,0,.75,1.94,3,3,0,0,0,2.15.71,5.6,5.6,0,0,0,2-.38,7.57,7.57,0,0,0,1.71-.85h.1l-.36,1.79-.79.29c-.23.08-.53.17-.89.26s-.69.15-1,.2A6.19,6.19,0,0,1,193.67,426.33Zm3.3-6.2c0-.17.05-.32.06-.43s0-.25,0-.39a2,2,0,0,0-.52-1.47,2.22,2.22,0,0,0-1.65-.53,3.41,3.41,0,0,0-2.21.78,3.75,3.75,0,0,0-1.31,2Z"/><path class="cls-4" d="M204.57,412.43l-3.16,13.67h-1.65l3.16-13.67Z"/><path class="cls-4" d="M209.33,426.33a4.87,4.87,0,0,1-3.2-1,3.42,3.42,0,0,1-1.16-2.8,6.75,6.75,0,0,1,1.71-4.63,5.41,5.41,0,0,1,4.21-1.93,3.63,3.63,0,0,1,2.56.83,3.07,3.07,0,0,1,.88,2.34,6.93,6.93,0,0,1-.07.83c0,.38-.13.83-.24,1.33h-7.24a4.61,4.61,0,0,0-.07.5,3.7,3.7,0,0,0,0,.46,2.54,2.54,0,0,0,.75,1.94,3,3,0,0,0,2.15.71,5.56,5.56,0,0,0,2-.38,7.88,7.88,0,0,0,1.72-.85h.09l-.36,1.79-.79.29c-.23.08-.53.17-.89.26s-.69.15-1,.2A6.19,6.19,0,0,1,209.33,426.33Zm3.3-6.2c0-.17.05-.32.06-.43s0-.25,0-.39a2,2,0,0,0-.52-1.47,2.21,2.21,0,0,0-1.64-.53,3.44,3.44,0,0,0-2.22.78,3.8,3.8,0,0,0-1.31,2Z"/><path class="cls-4" d="M219.66,426.32a5.54,5.54,0,0,1-1.65-.22,3.19,3.19,0,0,1-1.25-.69,3.05,3.05,0,0,1-.8-1.15,4.26,4.26,0,0,1-.28-1.62,7.41,7.41,0,0,1,.43-2.57,6.59,6.59,0,0,1,1.22-2.11,5.53,5.53,0,0,1,1.89-1.39,5.82,5.82,0,0,1,2.43-.51,5.71,5.71,0,0,1,1.62.23,7.2,7.2,0,0,1,1.34.57l-.36,1.78h-.1l-.44-.36a3.32,3.32,0,0,0-.62-.4,4.45,4.45,0,0,0-.8-.32,3.86,3.86,0,0,0-1-.12,3.34,3.34,0,0,0-2.79,1.44,5.68,5.68,0,0,0-1.07,3.49,2.68,2.68,0,0,0,.63,1.91,2.42,2.42,0,0,0,1.82.66,4.24,4.24,0,0,0,1.11-.15,7.08,7.08,0,0,0,.94-.34c.28-.14.55-.28.8-.43l.53-.34h.1l-.35,1.8a11.49,11.49,0,0,1-1.62.59A6,6,0,0,1,219.66,426.32Z"/><path class="cls-4" d="M229,426.32a5.54,5.54,0,0,1-1.65-.22,3.12,3.12,0,0,1-1.25-.69,3.05,3.05,0,0,1-.8-1.15,4.26,4.26,0,0,1-.28-1.62,7.41,7.41,0,0,1,.43-2.57,6.41,6.41,0,0,1,1.22-2.11,5.53,5.53,0,0,1,1.89-1.39,5.8,5.8,0,0,1,2.42-.51,5.73,5.73,0,0,1,1.63.23,7.2,7.2,0,0,1,1.34.57l-.36,1.78h-.1l-.44-.36a3.68,3.68,0,0,0-.62-.4,4.45,4.45,0,0,0-.8-.32,3.89,3.89,0,0,0-1-.12,3.33,3.33,0,0,0-2.78,1.44,5.62,5.62,0,0,0-1.07,3.49,2.68,2.68,0,0,0,.63,1.91,2.42,2.42,0,0,0,1.82.66,4.11,4.11,0,0,0,1.1-.15,7.27,7.27,0,0,0,.95-.34c.28-.14.55-.28.8-.43l.53-.34h.1l-.35,1.8a11.49,11.49,0,0,1-1.62.59A6,6,0,0,1,229,426.32Z"/><path class="cls-4" d="M238.1,416.29l-2.27,9.81h-1.65l2.27-9.81Zm.9-3.36-.4,1.71h-1.87l.4-1.71Z"/><path class="cls-4" d="M248.75,419.76a7.93,7.93,0,0,1-.4,2.53,6.42,6.42,0,0,1-1.15,2.11,5.54,5.54,0,0,1-1.76,1.45,5,5,0,0,1-2.34.53,3.66,3.66,0,0,1-2.73-1,3.8,3.8,0,0,1-1-2.76,7.76,7.76,0,0,1,.4-2.51A6.66,6.66,0,0,1,241,418a5.35,5.35,0,0,1,1.79-1.43,5,5,0,0,1,2.31-.54,3.75,3.75,0,0,1,2.7,1A3.67,3.67,0,0,1,248.75,419.76Zm-2.69,3.71a5.4,5.4,0,0,0,.73-1.63,7.66,7.66,0,0,0,.25-1.95,2.64,2.64,0,0,0-.59-1.86,2.13,2.13,0,0,0-1.66-.64,2.92,2.92,0,0,0-1.53.41,3.88,3.88,0,0,0-1.17,1.12,5.4,5.4,0,0,0-.73,1.63,7.25,7.25,0,0,0-.25,1.93,2.72,2.72,0,0,0,.58,1.87,2.16,2.16,0,0,0,1.67.65,2.92,2.92,0,0,0,1.53-.41A3.56,3.56,0,0,0,246.06,423.47Z"/><path class="cls-4" d="M259.86,418.53a4.67,4.67,0,0,1,0,.57,3.41,3.41,0,0,1-.11.63l-1.47,6.37h-1.65l1.29-5.59c.07-.31.12-.58.16-.81a4,4,0,0,0,.06-.69,1.5,1.5,0,0,0-.37-1.11,1.8,1.8,0,0,0-1.31-.37,3.67,3.67,0,0,0-1.48.36,10.68,10.68,0,0,0-1.57.89l-1.69,7.32H250l2.26-9.81h1.65l-.25,1.08a10.53,10.53,0,0,1,1.76-1,4.22,4.22,0,0,1,1.7-.36,2.9,2.9,0,0,1,2,.65A2.4,2.4,0,0,1,259.86,418.53Z"/><path class="cls-4" d="M266.06,426.33a4.84,4.84,0,0,1-3.19-1,3.39,3.39,0,0,1-1.16-2.8,6.74,6.74,0,0,1,1.7-4.63,5.42,5.42,0,0,1,4.21-1.93,3.62,3.62,0,0,1,2.56.83,3.07,3.07,0,0,1,.89,2.34,7.54,7.54,0,0,1-.08.83c-.05.38-.13.83-.24,1.33h-7.23a4.71,4.71,0,0,0-.08.5c0,.16,0,.32,0,.46a2.51,2.51,0,0,0,.76,1.94,3,3,0,0,0,2.14.71,5.52,5.52,0,0,0,2-.38,7.66,7.66,0,0,0,1.72-.85h.1l-.36,1.79c-.3.1-.56.2-.79.29s-.54.17-.9.26-.68.15-1,.2A6.19,6.19,0,0,1,266.06,426.33Zm3.3-6.2c0-.17.05-.32.06-.43a2.42,2.42,0,0,0,0-.39,2,2,0,0,0-.51-1.47,2.25,2.25,0,0,0-1.65-.53,3.46,3.46,0,0,0-2.22.78,3.8,3.8,0,0,0-1.31,2Z"/><path class="cls-4" d="M288.86,416.29l-2.26,9.81H285l.25-1.08a11.6,11.6,0,0,1-1.75,1,4.16,4.16,0,0,1-1.71.36,2.87,2.87,0,0,1-2-.64,2.36,2.36,0,0,1-.71-1.86,3.69,3.69,0,0,1,0-.58c0-.19.06-.4.11-.64l1.46-6.37h1.65L281,421.88a6.38,6.38,0,0,0-.15.78,4.19,4.19,0,0,0-.07.69,1.53,1.53,0,0,0,.38,1.14,1.82,1.82,0,0,0,1.3.37,3.73,3.73,0,0,0,1.49-.37,10.41,10.41,0,0,0,1.54-.87l1.69-7.33Z"/><path class="cls-4" d="M299.69,418.53a4.67,4.67,0,0,1,0,.57,3.41,3.41,0,0,1-.11.63l-1.47,6.37h-1.64l1.28-5.59c.07-.31.12-.58.16-.81a4,4,0,0,0,.06-.69,1.5,1.5,0,0,0-.37-1.11,1.8,1.8,0,0,0-1.31-.37,3.67,3.67,0,0,0-1.48.36,11.23,11.23,0,0,0-1.57.89l-1.69,7.32h-1.65l2.27-9.81h1.65l-.25,1.08a9.8,9.8,0,0,1,1.76-1A4.14,4.14,0,0,1,297,416a2.9,2.9,0,0,1,2,.65A2.4,2.4,0,0,1,299.69,418.53Z"/><path class="cls-4" d="M307.48,425.06l-.65.4a6,6,0,0,1-.83.44,5.37,5.37,0,0,1-2.27.48,2.7,2.7,0,0,1-1.9-.68,2.32,2.32,0,0,1-.73-1.78,3.64,3.64,0,0,1,.51-2,3.83,3.83,0,0,1,1.53-1.31,8,8,0,0,1,2.39-.73,24.25,24.25,0,0,1,3.2-.27c0-.17.06-.31.09-.43a2.21,2.21,0,0,0,0-.37,1.31,1.31,0,0,0-.17-.69,1.1,1.1,0,0,0-.48-.42,2.11,2.11,0,0,0-.71-.22,8.42,8.42,0,0,0-.9-.05,7.14,7.14,0,0,0-1.71.24,12.46,12.46,0,0,0-1.56.48h-.09l.33-1.66c.33-.08.82-.18,1.47-.29a10,10,0,0,1,1.85-.17,5.26,5.26,0,0,1,2.74.57,2,2,0,0,1,.92,1.81,4.75,4.75,0,0,1,0,.51c0,.18-.06.34-.09.5l-1.54,6.66h-1.64Zm1-4.13a22.75,22.75,0,0,0-2.41.2,7.19,7.19,0,0,0-1.73.45,2.37,2.37,0,0,0-1.08.78,2,2,0,0,0-.37,1.24,1.16,1.16,0,0,0,.43,1,2.19,2.19,0,0,0,1.33.33,4,4,0,0,0,1.63-.36,8.28,8.28,0,0,0,1.55-.85Z"/><path class="cls-4" d="M328,419.76a7.94,7.94,0,0,1-.41,2.53,6.59,6.59,0,0,1-1.14,2.11,5.68,5.68,0,0,1-1.77,1.45,4.92,4.92,0,0,1-2.33.53,3.66,3.66,0,0,1-2.73-1,3.76,3.76,0,0,1-1-2.76,7.76,7.76,0,0,1,.4-2.51,6.64,6.64,0,0,1,1.15-2.13,5.55,5.55,0,0,1,1.79-1.43,5,5,0,0,1,2.32-.54,3.75,3.75,0,0,1,2.7,1A3.71,3.71,0,0,1,328,419.76Zm-2.69,3.71a5.38,5.38,0,0,0,.72-1.63,7.24,7.24,0,0,0,.25-1.95,2.64,2.64,0,0,0-.58-1.86,2.16,2.16,0,0,0-1.67-.64,3,3,0,0,0-1.53.41,3.74,3.74,0,0,0-1.16,1.12,5.4,5.4,0,0,0-.73,1.63,7.25,7.25,0,0,0-.26,1.93,2.72,2.72,0,0,0,.59,1.87,2.15,2.15,0,0,0,1.67.65,3,3,0,0,0,1.53-.41A3.56,3.56,0,0,0,325.35,423.47Z"/><path class="cls-4" d="M339.29,419.39a8.2,8.2,0,0,1-.45,2.74,7.33,7.33,0,0,1-1.2,2.18,5.82,5.82,0,0,1-1.76,1.46,4.55,4.55,0,0,1-2.14.53,5.54,5.54,0,0,1-1.45-.18,4.54,4.54,0,0,1-1.21-.53l-.95,4.13h-1.65l3.1-13.43h1.65l-.24,1a10.37,10.37,0,0,1,1.61-.93,4.19,4.19,0,0,1,1.75-.37,2.73,2.73,0,0,1,2.19.89A3.74,3.74,0,0,1,339.29,419.39Zm-1.73.32a2.56,2.56,0,0,0-.46-1.62,1.75,1.75,0,0,0-1.46-.56,3.62,3.62,0,0,0-1.51.36,10.77,10.77,0,0,0-1.46.81l-1.28,5.57a5.73,5.73,0,0,0,1.09.45,4.5,4.5,0,0,0,1.25.15,3,3,0,0,0,1.63-.44,3.64,3.64,0,0,0,1.2-1.14,5.21,5.21,0,0,0,.75-1.64A7.58,7.58,0,0,0,337.56,419.71Z"/><path class="cls-4" d="M344.78,426.32a5.54,5.54,0,0,1-1.65-.22,3.19,3.19,0,0,1-1.25-.69,3.05,3.05,0,0,1-.8-1.15,4.26,4.26,0,0,1-.28-1.62,7.41,7.41,0,0,1,.43-2.57,6.59,6.59,0,0,1,1.22-2.11,5.53,5.53,0,0,1,1.89-1.39,5.82,5.82,0,0,1,2.43-.51,5.71,5.71,0,0,1,1.62.23,6.92,6.92,0,0,1,1.34.57l-.36,1.78h-.1l-.44-.36a3.32,3.32,0,0,0-.62-.4,4.45,4.45,0,0,0-.8-.32,3.81,3.81,0,0,0-1-.12,3.34,3.34,0,0,0-2.79,1.44,5.68,5.68,0,0,0-1.07,3.49,2.64,2.64,0,0,0,.64,1.91,2.39,2.39,0,0,0,1.81.66,4.24,4.24,0,0,0,1.11-.15,7.08,7.08,0,0,0,.94-.34c.29-.14.55-.28.8-.43l.53-.34h.1l-.35,1.8a11.49,11.49,0,0,1-1.62.59A6,6,0,0,1,344.78,426.32Z"/><path class="cls-4" d="M353.84,416.29l-2.27,9.81h-1.65l2.27-9.81Zm.9-3.36-.4,1.71h-1.87l.4-1.71Z"/><path class="cls-4" d="M364.49,419.76a7.93,7.93,0,0,1-.4,2.53A6.59,6.59,0,0,1,363,424.4a5.68,5.68,0,0,1-1.77,1.45,5,5,0,0,1-2.34.53,3.69,3.69,0,0,1-2.73-1,3.8,3.8,0,0,1-1-2.76,8,8,0,0,1,.4-2.51,6.86,6.86,0,0,1,1.16-2.13,5.45,5.45,0,0,1,1.79-1.43,5,5,0,0,1,2.31-.54,3.74,3.74,0,0,1,2.7,1A3.67,3.67,0,0,1,364.49,419.76Zm-2.68,3.71a5.64,5.64,0,0,0,.72-1.63,7.24,7.24,0,0,0,.25-1.95,2.64,2.64,0,0,0-.59-1.86,2.12,2.12,0,0,0-1.66-.64,2.92,2.92,0,0,0-1.53.41,3.88,3.88,0,0,0-1.17,1.12,5.65,5.65,0,0,0-.73,1.63,7.25,7.25,0,0,0-.25,1.93,2.67,2.67,0,0,0,.59,1.87,2.15,2.15,0,0,0,1.67.65,3,3,0,0,0,1.53-.41A3.77,3.77,0,0,0,361.81,423.47Zm2.61-12.1-3.12,3.29h-1.37l2.24-3.29Z"/><path class="cls-4" d="M375.6,418.53q0,.21,0,.57c0,.24-.07.45-.11.63L374,426.1h-1.64l1.28-5.59c.07-.31.13-.58.16-.81a4,4,0,0,0,.06-.69,1.5,1.5,0,0,0-.37-1.11,1.8,1.8,0,0,0-1.31-.37,3.67,3.67,0,0,0-1.48.36,11.23,11.23,0,0,0-1.57.89l-1.69,7.32h-1.65l2.27-9.81h1.65l-.25,1.08a9.8,9.8,0,0,1,1.76-1,4.14,4.14,0,0,1,1.69-.36,2.9,2.9,0,0,1,2,.65A2.4,2.4,0,0,1,375.6,418.53Z"/><path class="cls-5" d="M522.9,236.11H38V27.34H522.9ZM45.48,229.22h470v-195h-470Z"/><circle class="cls-5" cx="56.02" cy="44.77" r="37.4"/><path class="cls-3" d="M174,123a12.22,12.22,0,0,1-4-.65,8.69,8.69,0,0,1-3.18-1.92,8.58,8.58,0,0,1-2.06-3.19,13.35,13.35,0,0,1,0-8.65,9.23,9.23,0,0,1,2-3.26,8.76,8.76,0,0,1,3.17-2,11.76,11.76,0,0,1,4.14-.71,16.64,16.64,0,0,1,2.23.14,14.64,14.64,0,0,1,1.84.36,14.8,14.8,0,0,1,1.6.56c.48.21.9.4,1.26.58V109h-.58c-.25-.21-.55-.46-.93-.75a12.17,12.17,0,0,0-1.27-.85,8.63,8.63,0,0,0-1.57-.71,5.58,5.58,0,0,0-1.81-.29,6,6,0,0,0-2,.34,4.91,4.91,0,0,0-1.78,1.11,5.56,5.56,0,0,0-1.25,2,9.4,9.4,0,0,0,0,6.08,5.31,5.31,0,0,0,1.32,1.95,4.68,4.68,0,0,0,1.79,1,6.4,6.4,0,0,0,1.95.31,6.07,6.07,0,0,0,1.83-.28,7.11,7.11,0,0,0,1.66-.74,10.08,10.08,0,0,0,1.2-.82c.37-.28.68-.53.91-.74H181v4.69l-1.41.62a12.34,12.34,0,0,1-1.41.5,14.1,14.1,0,0,1-1.81.42A13.89,13.89,0,0,1,174,123Z"/><path class="cls-3" d="M197.44,106.74h-9v3.65h8.37v3.8h-8.37v8.39h-5V102.94h14.06Z"/><path class="cls-3" d="M218.52,122.58h-6.18l-5.35-7.2h-2.34v7.2h-5V102.94h8.49a19.86,19.86,0,0,1,3,.2,6.43,6.43,0,0,1,2.34.86,5.06,5.06,0,0,1,1.76,1.71,4.84,4.84,0,0,1,.66,2.63,5.82,5.82,0,0,1-1,3.54,7.53,7.53,0,0,1-2.88,2.28ZM210.62,109a2.51,2.51,0,0,0-.3-1.27,2,2,0,0,0-1-.83,3.92,3.92,0,0,0-1.2-.26c-.46,0-1,0-1.6,0h-1.83v5.28h1.56a16.39,16.39,0,0,0,2-.11,2.86,2.86,0,0,0,1.37-.55,2.58,2.58,0,0,0,.77-.9A3.05,3.05,0,0,0,210.62,109Z"/><path class="cls-3" d="M244.11,116.56a5.56,5.56,0,0,1-.57,2.55A5.26,5.26,0,0,1,242,121a7.38,7.38,0,0,1-2.55,1.24,14.26,14.26,0,0,1-3.52.37h-8.57V102.94h7.62a28,28,0,0,1,3.47.16,7.29,7.29,0,0,1,2.18.7,3.88,3.88,0,0,1,1.67,1.52,4.39,4.39,0,0,1,.55,2.19,4.32,4.32,0,0,1-.75,2.51,5,5,0,0,1-2.13,1.69v.11A5.53,5.53,0,0,1,243,113.4,4.42,4.42,0,0,1,244.11,116.56Zm-6.48-8.06a2.19,2.19,0,0,0-.25-1,1.51,1.51,0,0,0-.86-.73,4.41,4.41,0,0,0-1.38-.23l-2.31,0h-.48v4.16h.79c.8,0,1.48,0,2.05,0a3.74,3.74,0,0,0,1.33-.27,1.59,1.59,0,0,0,.89-.78A2.59,2.59,0,0,0,237.63,108.5Zm1.22,8a2.47,2.47,0,0,0-.36-1.44,2.19,2.19,0,0,0-1.23-.76,6.75,6.75,0,0,0-1.63-.18l-2.17,0h-1.11V119h.37l3.05,0a4.48,4.48,0,0,0,1.7-.34,2.07,2.07,0,0,0,1.09-.88A2.66,2.66,0,0,0,238.85,116.48Z"/><path class="cls-3" d="M255.26,121l-.95.7a7,7,0,0,1-1.07.64,6.64,6.64,0,0,1-1.45.47,8.4,8.4,0,0,1-1.64.15,5,5,0,0,1-3.54-1.3,4.33,4.33,0,0,1-1.42-3.34,4.53,4.53,0,0,1,.72-2.65,4.9,4.9,0,0,1,2.06-1.62,11.58,11.58,0,0,1,3.27-.85c1.3-.16,2.65-.29,4-.36v-.08a1.71,1.71,0,0,0-1-1.7,7.23,7.23,0,0,0-2.95-.47,8.29,8.29,0,0,0-2.5.42c-.89.28-1.53.49-1.91.64h-.44v-3.57c.5-.14,1.32-.29,2.45-.47a21.52,21.52,0,0,1,3.39-.27q4.05,0,5.85,1.24a4.43,4.43,0,0,1,1.8,3.91v10.08h-4.71Zm0-2.31v-3.07c-.64.05-1.34.12-2.08.21a9.78,9.78,0,0,0-1.7.33,2.29,2.29,0,0,0-1.09.65,1.63,1.63,0,0,0-.38,1.12,3,3,0,0,0,.08.75,1.18,1.18,0,0,0,.4.55,1.8,1.8,0,0,0,.72.39,5.24,5.24,0,0,0,1.32.12,3.79,3.79,0,0,0,1.45-.29A4.43,4.43,0,0,0,255.26,118.7Z"/><path class="cls-3" d="M273.74,112.29h-.42a4.56,4.56,0,0,0-1-.16c-.45,0-.82,0-1.12,0a10.57,10.57,0,0,0-1.79.13,10.21,10.21,0,0,0-1.67.45v9.92H263V107.77h4.76V110a9.69,9.69,0,0,1,2.72-1.79,5.88,5.88,0,0,1,2.13-.44h.57l.55,0Z"/><path class="cls-3" d="M285.84,112.29h-.42a4.68,4.68,0,0,0-1-.16c-.44,0-.82,0-1.12,0a10.45,10.45,0,0,0-1.78.13,10.58,10.58,0,0,0-1.68.45v9.92h-4.75V107.77h4.75V110a9.86,9.86,0,0,1,2.73-1.79,5.88,5.88,0,0,1,2.13-.44h.56l.56,0Z"/><path class="cls-3" d="M296.17,121l-.95.7a7,7,0,0,1-1.07.64,6.64,6.64,0,0,1-1.45.47,8.43,8.43,0,0,1-1.65.15,5,5,0,0,1-3.53-1.3,4.33,4.33,0,0,1-1.42-3.34,4.53,4.53,0,0,1,.72-2.65,4.9,4.9,0,0,1,2.06-1.62,11.58,11.58,0,0,1,3.27-.85c1.3-.16,2.65-.29,4.05-.36v-.08a1.71,1.71,0,0,0-1-1.7,7.23,7.23,0,0,0-2.95-.47,8.29,8.29,0,0,0-2.5.42c-.89.28-1.53.49-1.92.64h-.43v-3.57c.5-.14,1.31-.29,2.44-.47a21.64,21.64,0,0,1,3.4-.27q4,0,5.85,1.24a4.43,4.43,0,0,1,1.8,3.91v10.08h-4.71Zm0-2.31v-3.07c-.64.05-1.34.12-2.08.21a9.78,9.78,0,0,0-1.7.33,2.29,2.29,0,0,0-1.09.65,1.63,1.63,0,0,0-.38,1.12,3,3,0,0,0,.08.75,1.11,1.11,0,0,0,.4.55,1.8,1.8,0,0,0,.72.39,5.24,5.24,0,0,0,1.32.12,3.74,3.74,0,0,0,1.44-.29A4.35,4.35,0,0,0,296.17,118.7Z"/><path class="cls-3" d="M318.79,122.58H314v-7.35a17.53,17.53,0,0,0-.09-1.78,4,4,0,0,0-.32-1.32,1.61,1.61,0,0,0-.77-.71,3.61,3.61,0,0,0-1.42-.22,4.32,4.32,0,0,0-1.31.21,6.53,6.53,0,0,0-1.44.67v10.5h-4.76V107.77h4.76v1.64a12.08,12.08,0,0,1,2.42-1.52,6.25,6.25,0,0,1,2.59-.53,5,5,0,0,1,3.75,1.4,5.79,5.79,0,0,1,1.35,4.18Z"/><path class="cls-3" d="M336.22,128h-4.75v-6.89a9.45,9.45,0,0,1-2.27,1.4,6.39,6.39,0,0,1-2.49.46,5.16,5.16,0,0,1-4.32-2.08,8.92,8.92,0,0,1-1.62-5.62,9.58,9.58,0,0,1,.55-3.34,7.69,7.69,0,0,1,1.49-2.5,6.64,6.64,0,0,1,4.73-2.08,7,7,0,0,1,2.1.28,12.37,12.37,0,0,1,1.8.79l.17-.66h4.61Zm-4.75-9.51v-7.28a4.77,4.77,0,0,0-1.06-.3,6.29,6.29,0,0,0-1-.09,3.36,3.36,0,0,0-2.8,1.17,5.08,5.08,0,0,0-.94,3.24,5.25,5.25,0,0,0,.75,3.16,2.83,2.83,0,0,0,2.41,1,4.35,4.35,0,0,0,1.37-.24A5,5,0,0,0,331.47,118.5Z"/><path class="cls-3" d="M354.14,122.58h-4.76v-1.64a13.54,13.54,0,0,1-2.41,1.52,6,6,0,0,1-2.61.52,4.92,4.92,0,0,1-3.77-1.41,5.89,5.89,0,0,1-1.32-4.16v-9.64H344v7.34c0,.75,0,1.37.08,1.87a3.33,3.33,0,0,0,.33,1.23,1.5,1.5,0,0,0,.76.71,3.59,3.59,0,0,0,1.42.23,4.65,4.65,0,0,0,1.34-.23,5.77,5.77,0,0,0,1.43-.66V107.77h4.76Z"/><path class="cls-3" d="M362.19,105.66h-5v-3.6h5Zm-.13,16.92H357.3V107.77h4.76Z"/><path class="cls-3" d="M370,122.58H365.2V102.06H370Z"/><path class="cls-3" d="M377.87,122.58h-4.76V102.06h4.76Z"/><path class="cls-3" d="M390,121l-1,.7a7.52,7.52,0,0,1-1.07.64,6.82,6.82,0,0,1-1.45.47,8.43,8.43,0,0,1-1.65.15,5,5,0,0,1-3.53-1.3,4.34,4.34,0,0,1-1.43-3.34,4.53,4.53,0,0,1,.73-2.65,4.84,4.84,0,0,1,2.06-1.62,11.49,11.49,0,0,1,3.27-.85c1.3-.16,2.65-.29,4-.36v-.08a1.71,1.71,0,0,0-1-1.7,7.27,7.27,0,0,0-2.95-.47,8.4,8.4,0,0,0-2.51.42c-.88.28-1.52.49-1.91.64h-.43v-3.57c.5-.14,1.31-.29,2.44-.47a21.55,21.55,0,0,1,3.4-.27c2.7,0,4.64.41,5.84,1.24a4.43,4.43,0,0,1,1.8,3.91v10.08H390Zm0-2.31v-3.07c-.64.05-1.34.12-2.09.21a10.19,10.19,0,0,0-1.7.33,2.3,2.3,0,0,0-1.08.65,1.63,1.63,0,0,0-.38,1.12,3,3,0,0,0,.08.75,1.09,1.09,0,0,0,.39.55,1.91,1.91,0,0,0,.73.39,5.24,5.24,0,0,0,1.32.12,3.78,3.78,0,0,0,1.44-.29A4.35,4.35,0,0,0,390,118.7Z"/><path class="cls-3" d="M64,56.33H49.47V52.52h4.6V41h-4.6V37.43a16.37,16.37,0,0,0,2-.12,5.44,5.44,0,0,0,1.61-.43,2.72,2.72,0,0,0,1.14-1,3,3,0,0,0,.44-1.47h4.85V52.52H64Z"/></g></g></svg>