<svg xmlns="http://www.w3.org/2000/svg" viewBox="0 0 562.62 470.8"><defs><style>.cls-1,.cls-3{fill:#fff;}.cls-1{opacity:0;}.cls-2{fill:#035aa6;}.cls-4{fill:#ffd053;}.cls-5{fill:#84bf2c;}</style></defs><title>slide10_pregunta2</title><g id="Capa_2" data-name="Capa 2"><g id="Layer_7" data-name="Layer 7"><rect class="cls-1" width="562.62" height="470.8"/><rect class="cls-2" x="66.24" y="248.43" width="424.94" height="71.91" rx="12.02"/><path class="cls-3" d="M90.91,272.83H80.79V257.48H90.91v1.81H82.83v4.21h8.08v1.81H82.83V271h8.08Z"/><path class="cls-3" d="M103.62,272.83h-1.94v-6.56a11.7,11.7,0,0,0-.09-1.49,2.92,2.92,0,0,0-.34-1.08,1.59,1.59,0,0,0-.75-.65,3.16,3.16,0,0,0-1.25-.21,4,4,0,0,0-1.66.39,8.62,8.62,0,0,0-1.66,1v8.6H94V261.31h1.94v1.28a7.84,7.84,0,0,1,1.87-1.17,5,5,0,0,1,2-.43,3.58,3.58,0,0,1,2.85,1.13,4.81,4.81,0,0,1,1,3.24Z"/><path class="cls-3" d="M124.41,267.27h-8.48a4.75,4.75,0,0,0,.32,1.85,3.46,3.46,0,0,0,.87,1.3,3.53,3.53,0,0,0,1.28.74,5.19,5.19,0,0,0,1.62.25,6.44,6.44,0,0,0,2.36-.47,5.57,5.57,0,0,0,1.7-.93h.1v2.12a17.49,17.49,0,0,1-2,.69,8.31,8.31,0,0,1-2.14.28,6.18,6.18,0,0,1-4.47-1.55,5.83,5.83,0,0,1-1.61-4.41,6.34,6.34,0,0,1,1.54-4.49,5.3,5.3,0,0,1,4-1.66,4.66,4.66,0,0,1,3.6,1.37,5.45,5.45,0,0,1,1.26,3.86Zm-1.89-1.48a3.4,3.4,0,0,0-.76-2.36,3,3,0,0,0-2.31-.84,3.38,3.38,0,0,0-2.48.92,3.56,3.56,0,0,0-1,2.28Z"/><path class="cls-3" d="M129.31,272.83h-1.94v-16h1.94Z"/><path class="cls-3" d="M150.7,266.93a7.68,7.68,0,0,1-.4,2.56,5.61,5.61,0,0,1-1.14,2,4.76,4.76,0,0,1-1.6,1.18,4.65,4.65,0,0,1-1.95.42,6.33,6.33,0,0,1-1.63-.2,6.53,6.53,0,0,1-1.48-.61v4.83h-1.93V261.31h1.93v1.21a7.74,7.74,0,0,1,1.74-1.09,5,5,0,0,1,2.06-.44,3.79,3.79,0,0,1,3.24,1.58A7.22,7.22,0,0,1,150.7,266.93Zm-2,.05a5.56,5.56,0,0,0-.71-3.11,2.47,2.47,0,0,0-2.19-1,4.31,4.31,0,0,0-1.68.36,7.88,7.88,0,0,0-1.62.95v6.52a7.8,7.8,0,0,0,1.42.51,6.12,6.12,0,0,0,1.35.13,3.09,3.09,0,0,0,2.52-1.09A5,5,0,0,0,148.7,267Z"/><path class="cls-3" d="M163.27,272.83h-1.94v-1.28a9.66,9.66,0,0,1-1.88,1.19,4.77,4.77,0,0,1-2,.41,3.61,3.61,0,0,1-2.82-1.11,4.64,4.64,0,0,1-1-3.25v-7.48h1.94v6.56a10.75,10.75,0,0,0,.08,1.5,2.65,2.65,0,0,0,.35,1.07,1.63,1.63,0,0,0,.72.66,3.35,3.35,0,0,0,1.29.2,4.11,4.11,0,0,0,1.64-.39,7.47,7.47,0,0,0,1.67-1v-8.6h1.94Z"/><path class="cls-3" d="M176.71,272.83h-1.94v-6.56a11.7,11.7,0,0,0-.09-1.49,2.75,2.75,0,0,0-.34-1.08,1.57,1.57,0,0,0-.74-.65,3.25,3.25,0,0,0-1.26-.21,4,4,0,0,0-1.66.39,8.62,8.62,0,0,0-1.66,1v8.6h-1.94V261.31H169v1.28a7.84,7.84,0,0,1,1.87-1.17,5,5,0,0,1,2-.43,3.57,3.57,0,0,1,2.85,1.13,4.81,4.81,0,0,1,1,3.24Z"/><path class="cls-3" d="M186.42,272.73a11.45,11.45,0,0,1-1.19.23,7.15,7.15,0,0,1-1.15.1,3.56,3.56,0,0,1-2.68-.95,4.27,4.27,0,0,1-.92-3v-6.13h-1.31v-1.63h1.31V258h1.94v3.3h4v1.63h-4v5.25c0,.61,0,1.08,0,1.42a2.39,2.39,0,0,0,.29.95,1.33,1.33,0,0,0,.62.6,2.92,2.92,0,0,0,1.22.19,3.83,3.83,0,0,0,1-.13,6.16,6.16,0,0,0,.75-.24h.1Z"/><path class="cls-3" d="M198.57,267.08a6.48,6.48,0,0,1-1.44,4.44,5.42,5.42,0,0,1-7.75,0,7.62,7.62,0,0,1,0-8.89,5.4,5.4,0,0,1,7.75,0A6.49,6.49,0,0,1,198.57,267.08Zm-2,0a5.3,5.3,0,0,0-.87-3.33,3.28,3.28,0,0,0-4.88,0,6.71,6.71,0,0,0,0,6.61,3.22,3.22,0,0,0,4.87,0A5.21,5.21,0,0,0,196.57,267.08Z"/><path class="cls-3" d="M219.13,266.93a7.68,7.68,0,0,1-.4,2.56,5.61,5.61,0,0,1-1.14,2,4.74,4.74,0,0,1-3.55,1.6,6.33,6.33,0,0,1-1.63-.2,6.47,6.47,0,0,1-1.47-.61v4.83H209V261.31h1.94v1.21a7.46,7.46,0,0,1,1.73-1.09,5,5,0,0,1,2.06-.44,3.79,3.79,0,0,1,3.24,1.58A7.22,7.22,0,0,1,219.13,266.93Zm-2,.05a5.56,5.56,0,0,0-.71-3.11,2.46,2.46,0,0,0-2.19-1,4.31,4.31,0,0,0-1.68.36,7.56,7.56,0,0,0-1.61.95v6.52a7.74,7.74,0,0,0,1.41.51,6.19,6.19,0,0,0,1.35.13,3.08,3.08,0,0,0,2.52-1.09A5,5,0,0,0,217.13,267Z"/><path class="cls-3" d="M231.1,272.83h-1.93V271.6l-.69.49a5.19,5.19,0,0,1-.85.5,6.1,6.1,0,0,1-1.12.4,5.85,5.85,0,0,1-1.47.16,3.71,3.71,0,0,1-2.64-1,3.49,3.49,0,0,1-1.08-2.63,3.61,3.61,0,0,1,.56-2.12,3.73,3.73,0,0,1,1.6-1.27,8.59,8.59,0,0,1,2.53-.63c1-.11,2-.19,3.16-.25v-.3a2.35,2.35,0,0,0-.23-1.09,1.63,1.63,0,0,0-.67-.68,2.57,2.57,0,0,0-1-.32,7.93,7.93,0,0,0-1.21-.08,7.74,7.74,0,0,0-1.7.2,13.21,13.21,0,0,0-1.94.58h-.1v-2c.37-.1.92-.22,1.64-.34a12.7,12.7,0,0,1,2.11-.18,9.48,9.48,0,0,1,2.12.2,4.1,4.1,0,0,1,1.56.68,3.14,3.14,0,0,1,1,1.23,4.45,4.45,0,0,1,.34,1.86ZM229.17,270v-3.2c-.59,0-1.29.08-2.09.15a11,11,0,0,0-1.9.3,3.2,3.2,0,0,0-1.35.74,1.83,1.83,0,0,0-.51,1.37,1.85,1.85,0,0,0,.59,1.49,2.78,2.78,0,0,0,1.83.5,4.36,4.36,0,0,0,1.86-.39A8,8,0,0,0,229.17,270Z"/><path class="cls-3" d="M243.35,272.11a12.41,12.41,0,0,1-1.84.72,7,7,0,0,1-4.14-.11,4.59,4.59,0,0,1-1.79-1.11,4.91,4.91,0,0,1-1.16-1.87,7.65,7.65,0,0,1-.41-2.65,6.11,6.11,0,0,1,1.55-4.44,5.43,5.43,0,0,1,4.1-1.6,7.1,7.1,0,0,1,1.94.27,10.63,10.63,0,0,1,1.75.69v2.15h-.11a7.12,7.12,0,0,0-1.83-1.06,5,5,0,0,0-1.84-.37,3.25,3.25,0,0,0-2.6,1.11,4.81,4.81,0,0,0-.95,3.25,4.88,4.88,0,0,0,.93,3.2,3.24,3.24,0,0,0,2.62,1.12,5.08,5.08,0,0,0,1.2-.16,5.37,5.37,0,0,0,1.09-.4,8.8,8.8,0,0,0,.8-.46,6.44,6.44,0,0,0,.58-.42h.11Z"/><path class="cls-3" d="M251.81,272.73a11.45,11.45,0,0,1-1.19.23,7.15,7.15,0,0,1-1.15.1,3.58,3.58,0,0,1-2.68-.95,4.27,4.27,0,0,1-.92-3v-6.13h-1.31v-1.63h1.31V258h1.94v3.3h4v1.63h-4v5.25c0,.61,0,1.08,0,1.42a2.39,2.39,0,0,0,.29.95,1.33,1.33,0,0,0,.62.6,2.92,2.92,0,0,0,1.22.19,3.83,3.83,0,0,0,1-.13,6.16,6.16,0,0,0,.75-.24h.1Z"/><path class="cls-3" d="M263.1,272.83h-1.93V271.6l-.7.49a4.48,4.48,0,0,1-.85.5,5.73,5.73,0,0,1-1.11.4,5.85,5.85,0,0,1-1.47.16,3.71,3.71,0,0,1-2.64-1,3.49,3.49,0,0,1-1.08-2.63,3.61,3.61,0,0,1,.56-2.12,3.73,3.73,0,0,1,1.6-1.27,8.59,8.59,0,0,1,2.53-.63c1-.11,2-.19,3.16-.25v-.3a2.35,2.35,0,0,0-.23-1.09,1.69,1.69,0,0,0-.67-.68,2.57,2.57,0,0,0-1-.32,7.95,7.95,0,0,0-2.9.12,13.21,13.21,0,0,0-1.94.58h-.1v-2c.37-.1.92-.22,1.63-.34a12.82,12.82,0,0,1,2.12-.18,9.48,9.48,0,0,1,2.12.2,4.1,4.1,0,0,1,1.56.68,3.14,3.14,0,0,1,1,1.23,4.45,4.45,0,0,1,.34,1.86ZM261.17,270v-3.2c-.59,0-1.29.08-2.09.15a11,11,0,0,0-1.9.3,3.14,3.14,0,0,0-1.35.74,2.14,2.14,0,0,0,.08,2.86,2.78,2.78,0,0,0,1.83.5,4.36,4.36,0,0,0,1.86-.39A8,8,0,0,0,261.17,270Z"/><path class="cls-3" d="M276.17,272.83h-1.94v-1.21a7.28,7.28,0,0,1-1.74,1.13,5,5,0,0,1-2,.4,3.89,3.89,0,0,1-3.27-1.59,7.08,7.08,0,0,1-1.21-4.4,7.77,7.77,0,0,1,.41-2.61,6.21,6.21,0,0,1,1.13-1.95,4.87,4.87,0,0,1,3.57-1.61,6.52,6.52,0,0,1,1.61.19,7.59,7.59,0,0,1,1.47.6v-5h1.94ZM274.23,270v-6.6a7,7,0,0,0-1.4-.49,6.31,6.31,0,0,0-1.35-.13,3.09,3.09,0,0,0-2.54,1.13,5.08,5.08,0,0,0-.9,3.22,5.68,5.68,0,0,0,.7,3.12A2.47,2.47,0,0,0,271,271.3a4.22,4.22,0,0,0,1.67-.36A7.06,7.06,0,0,0,274.23,270Z"/><path class="cls-3" d="M289.8,267.08a6.48,6.48,0,0,1-1.44,4.44,5.42,5.42,0,0,1-7.75,0,7.58,7.58,0,0,1,0-8.89,5.4,5.4,0,0,1,7.75,0A6.49,6.49,0,0,1,289.8,267.08Zm-2,0a5.24,5.24,0,0,0-.88-3.33,3.28,3.28,0,0,0-4.88,0,5.3,5.3,0,0,0-.87,3.33,5.21,5.21,0,0,0,.88,3.28,2.9,2.9,0,0,0,2.44,1.12,2.94,2.94,0,0,0,2.43-1.11A5.27,5.27,0,0,0,287.8,267.08Z"/><path class="cls-3" d="M296.51,269.89l-2.91,6.75h-1.5l1.79-6.75Z"/><path class="cls-3" d="M309.55,272.83h-1.94v-16h1.94Z"/><path class="cls-3" d="M322.93,272.83H321v-1.28a9.66,9.66,0,0,1-1.88,1.19,4.77,4.77,0,0,1-2,.41,3.65,3.65,0,0,1-2.83-1.11,4.69,4.69,0,0,1-1-3.25v-7.48h1.94v6.56a10.58,10.58,0,0,0,.09,1.5,2.81,2.81,0,0,0,.34,1.07,1.71,1.71,0,0,0,.73.66,3.28,3.28,0,0,0,1.29.2,4.11,4.11,0,0,0,1.64-.39,7.7,7.7,0,0,0,1.67-1v-8.6h1.93Z"/><path class="cls-3" d="M336.09,271.52a6,6,0,0,1-1.33,4.3,5.5,5.5,0,0,1-4.1,1.37,11.56,11.56,0,0,1-1.78-.13,16.4,16.4,0,0,1-1.72-.36v-2h.1c.32.12.82.27,1.51.45a7.69,7.69,0,0,0,2.06.28,4.77,4.77,0,0,0,1.64-.24,2.4,2.4,0,0,0,1-.66,2.32,2.32,0,0,0,.51-1,4.55,4.55,0,0,0,.16-1.27v-1.05a7.39,7.39,0,0,1-1.68,1.05,5.15,5.15,0,0,1-2,.34,4,4,0,0,1-3.28-1.49A6.53,6.53,0,0,1,326,267a7,7,0,0,1,.42-2.56,5.82,5.82,0,0,1,1.14-1.86,4.61,4.61,0,0,1,1.63-1.14,4.87,4.87,0,0,1,1.91-.41,5.71,5.71,0,0,1,1.67.21,6.81,6.81,0,0,1,1.43.61l.12-.5h1.82Zm-1.94-1.86v-6.27a7.3,7.3,0,0,0-1.44-.5,5.94,5.94,0,0,0-1.32-.15,3.12,3.12,0,0,0-2.52,1.07,4.66,4.66,0,0,0-.92,3.11,5.28,5.28,0,0,0,.68,2.94,2.54,2.54,0,0,0,2.26,1,4.87,4.87,0,0,0,1.7-.32A6.32,6.32,0,0,0,334.15,269.66Z"/><path class="cls-3" d="M348.85,272.83h-1.93V271.6l-.69.49a5.19,5.19,0,0,1-.85.5,6.1,6.1,0,0,1-1.12.4,5.85,5.85,0,0,1-1.47.16,3.71,3.71,0,0,1-2.64-1,3.49,3.49,0,0,1-1.08-2.63,3.61,3.61,0,0,1,.56-2.12,3.73,3.73,0,0,1,1.6-1.27,8.59,8.59,0,0,1,2.53-.63c1-.11,2-.19,3.16-.25v-.3a2.35,2.35,0,0,0-.23-1.09,1.63,1.63,0,0,0-.67-.68,2.57,2.57,0,0,0-1-.32,7.93,7.93,0,0,0-1.21-.08,7.74,7.74,0,0,0-1.7.2,13.21,13.21,0,0,0-1.94.58h-.1v-2c.37-.1.92-.22,1.64-.34a12.7,12.7,0,0,1,2.11-.18,9.48,9.48,0,0,1,2.12.2,4.1,4.1,0,0,1,1.56.68,3.14,3.14,0,0,1,1,1.23,4.45,4.45,0,0,1,.34,1.86ZM346.92,270v-3.2c-.59,0-1.29.08-2.09.15a11,11,0,0,0-1.9.3,3.2,3.2,0,0,0-1.35.74,1.83,1.83,0,0,0-.51,1.37,1.85,1.85,0,0,0,.59,1.49,2.78,2.78,0,0,0,1.83.5,4.36,4.36,0,0,0,1.86-.39A8,8,0,0,0,346.92,270Z"/><path class="cls-3" d="M359.77,263.43h-.11a6.46,6.46,0,0,0-.84-.15,8.72,8.72,0,0,0-1,0,3.88,3.88,0,0,0-1.73.4,7.92,7.92,0,0,0-1.61,1v8.18h-1.94V261.31h1.94V263a10.1,10.1,0,0,1,2-1.31,4.42,4.42,0,0,1,1.8-.39,6.49,6.49,0,0,1,.74,0l.68.1Z"/><path class="cls-3" d="M379.15,266.93a8,8,0,0,1-.4,2.56,5.61,5.61,0,0,1-1.14,2,4.76,4.76,0,0,1-1.6,1.18,4.7,4.7,0,0,1-2,.42,6.3,6.3,0,0,1-1.62-.2,6.53,6.53,0,0,1-1.48-.61v4.83H369V261.31H371v1.21a7.74,7.74,0,0,1,1.74-1.09,5,5,0,0,1,2.06-.44,3.81,3.81,0,0,1,3.24,1.58A7.22,7.22,0,0,1,379.15,266.93Zm-2,.05a5.56,5.56,0,0,0-.71-3.11,2.48,2.48,0,0,0-2.19-1,4.24,4.24,0,0,0-1.68.36,7.88,7.88,0,0,0-1.62.95v6.52a7.54,7.54,0,0,0,1.42.51,6,6,0,0,0,1.34.13,3.1,3.1,0,0,0,2.53-1.09A5,5,0,0,0,377.15,267Z"/><path class="cls-3" d="M391.12,272.83h-1.93V271.6l-.7.49a4.48,4.48,0,0,1-.85.5,5.73,5.73,0,0,1-1.11.4,5.88,5.88,0,0,1-1.48.16,3.7,3.7,0,0,1-2.63-1,3.46,3.46,0,0,1-1.09-2.63,3.69,3.69,0,0,1,.56-2.12,3.77,3.77,0,0,1,1.61-1.27,8.6,8.6,0,0,1,2.52-.63c1-.11,2-.19,3.17-.25v-.3a2.35,2.35,0,0,0-.23-1.09,1.69,1.69,0,0,0-.67-.68,2.57,2.57,0,0,0-1-.32,7.8,7.8,0,0,0-1.2-.08,7.89,7.89,0,0,0-1.71.2,13.1,13.1,0,0,0-1.93.58h-.11v-2c.38-.1.93-.22,1.64-.34a12.82,12.82,0,0,1,2.12-.18,9.39,9.39,0,0,1,2.11.2,4.07,4.07,0,0,1,1.57.68,3.14,3.14,0,0,1,1,1.23,4.61,4.61,0,0,1,.34,1.86ZM389.19,270v-3.2c-.59,0-1.29.08-2.09.15a11,11,0,0,0-1.9.3,3.14,3.14,0,0,0-1.35.74,1.79,1.79,0,0,0-.52,1.37,1.82,1.82,0,0,0,.6,1.49,2.78,2.78,0,0,0,1.83.5,4.36,4.36,0,0,0,1.86-.39A8.35,8.35,0,0,0,389.19,270Z"/><path class="cls-3" d="M403.36,272.11a12,12,0,0,1-1.84.72,6.51,6.51,0,0,1-1.85.26,6.75,6.75,0,0,1-2.29-.37,4.55,4.55,0,0,1-1.78-1.11,4.91,4.91,0,0,1-1.16-1.87,7.64,7.64,0,0,1-.42-2.65,6.16,6.16,0,0,1,1.55-4.44,5.45,5.45,0,0,1,4.1-1.6,7.17,7.17,0,0,1,1.95.27,10.51,10.51,0,0,1,1.74.69v2.15h-.1a7.12,7.12,0,0,0-1.83-1.06,5,5,0,0,0-1.84-.37,3.24,3.24,0,0,0-2.6,1.11,5.95,5.95,0,0,0,0,6.45,3.23,3.23,0,0,0,2.62,1.12,5.08,5.08,0,0,0,1.2-.16,5.37,5.37,0,0,0,1.09-.4,8.61,8.61,0,0,0,.79-.46,5.53,5.53,0,0,0,.59-.42h.1Z"/><path class="cls-3" d="M411.83,272.73a12,12,0,0,1-1.19.23,7.25,7.25,0,0,1-1.15.1,3.56,3.56,0,0,1-2.68-.95,4.22,4.22,0,0,1-.92-3v-6.13h-1.31v-1.63h1.31V258h1.94v3.3h4v1.63h-4v5.25c0,.61,0,1.08,0,1.42a2.24,2.24,0,0,0,.29.95,1.33,1.33,0,0,0,.62.6,2.9,2.9,0,0,0,1.21.19,3.85,3.85,0,0,0,1-.13,5.86,5.86,0,0,0,.74-.24h.11Z"/><path class="cls-3" d="M423.12,272.83h-1.93V271.6l-.7.49a4.48,4.48,0,0,1-.85.5,5.73,5.73,0,0,1-1.11.4,5.88,5.88,0,0,1-1.48.16,3.74,3.74,0,0,1-2.64-1,3.49,3.49,0,0,1-1.08-2.63,3.69,3.69,0,0,1,.56-2.12,3.77,3.77,0,0,1,1.61-1.27,8.6,8.6,0,0,1,2.52-.63c1-.11,2-.19,3.17-.25v-.3a2.35,2.35,0,0,0-.23-1.09,1.69,1.69,0,0,0-.67-.68,2.57,2.57,0,0,0-1-.32,8,8,0,0,0-2.91.12,13.1,13.1,0,0,0-1.93.58h-.11v-2c.38-.1.93-.22,1.64-.34a12.82,12.82,0,0,1,2.12-.18,9.39,9.39,0,0,1,2.11.2,4.07,4.07,0,0,1,1.57.68,3.14,3.14,0,0,1,1,1.23,4.61,4.61,0,0,1,.34,1.86ZM421.19,270v-3.2c-.59,0-1.29.08-2.09.15a11,11,0,0,0-1.9.3,3.14,3.14,0,0,0-1.35.74,1.79,1.79,0,0,0-.52,1.37,1.82,1.82,0,0,0,.6,1.49,2.76,2.76,0,0,0,1.82.5,4.41,4.41,0,0,0,1.87-.39A8.35,8.35,0,0,0,421.19,270Z"/><path class="cls-3" d="M436.19,272.83h-1.94v-1.21a7.28,7.28,0,0,1-1.74,1.13,5,5,0,0,1-2,.4,3.91,3.91,0,0,1-3.28-1.59,7.15,7.15,0,0,1-1.21-4.4,7.52,7.52,0,0,1,.42-2.61,6.21,6.21,0,0,1,1.13-1.95,4.83,4.83,0,0,1,3.57-1.61,6.38,6.38,0,0,1,1.6.19,7.67,7.67,0,0,1,1.48.6v-5h1.94ZM434.25,270v-6.6a7,7,0,0,0-1.4-.49,6.44,6.44,0,0,0-1.35-.13A3.07,3.07,0,0,0,429,263.9a5.08,5.08,0,0,0-.91,3.22,5.77,5.77,0,0,0,.7,3.12A2.5,2.5,0,0,0,431,271.3a4.22,4.22,0,0,0,1.67-.36A7.29,7.29,0,0,0,434.25,270Z"/><path class="cls-3" d="M449.82,267.08a6.48,6.48,0,0,1-1.45,4.44,5.41,5.41,0,0,1-7.74,0,7.58,7.58,0,0,1,0-8.89,5.39,5.39,0,0,1,7.74,0A6.49,6.49,0,0,1,449.82,267.08Zm-2,0a5.3,5.3,0,0,0-.88-3.33,3.28,3.28,0,0,0-4.88,0,6.71,6.71,0,0,0,0,6.61,3.22,3.22,0,0,0,4.87,0A5.2,5.2,0,0,0,447.82,267.08Z"/><path class="cls-3" d="M90,300.54H88v-1.21a7,7,0,0,1-1.74,1.13,4.79,4.79,0,0,1-2,.4,3.91,3.91,0,0,1-3.28-1.59,7.15,7.15,0,0,1-1.21-4.4,7.52,7.52,0,0,1,.42-2.61,6.21,6.21,0,0,1,1.13-1.95,4.77,4.77,0,0,1,3.57-1.6,6.08,6.08,0,0,1,1.61.19,7.16,7.16,0,0,1,1.47.59v-5H90ZM88,297.71V291.1a7,7,0,0,0-1.4-.49,6.31,6.31,0,0,0-1.35-.13,3.09,3.09,0,0,0-2.54,1.13,5.08,5.08,0,0,0-.91,3.22,5.67,5.67,0,0,0,.71,3.12A2.47,2.47,0,0,0,84.79,299a4.22,4.22,0,0,0,1.67-.36A7.41,7.41,0,0,0,88,297.71Z"/><path class="cls-3" d="M103.43,295H95a4.75,4.75,0,0,0,.32,1.85,3.46,3.46,0,0,0,.87,1.3,3.39,3.39,0,0,0,1.28.74,4.92,4.92,0,0,0,1.62.25,6.53,6.53,0,0,0,2.37-.47,5.88,5.88,0,0,0,1.69-.92h.1v2.11a17.49,17.49,0,0,1-2,.69,7.9,7.9,0,0,1-2.14.28,6.18,6.18,0,0,1-4.47-1.55A5.83,5.83,0,0,1,93,294.85a6.3,6.3,0,0,1,1.54-4.48,5.27,5.27,0,0,1,4.06-1.66,4.64,4.64,0,0,1,3.59,1.36,5.45,5.45,0,0,1,1.26,3.86Zm-1.89-1.48a3.41,3.41,0,0,0-.76-2.36,3,3,0,0,0-2.31-.84,3.38,3.38,0,0,0-2.48.92,3.56,3.56,0,0,0-1,2.28Z"/><path class="cls-3" d="M127.62,300.54h-2V287.31l-4.27,9h-1.22l-4.24-9v13.23H114V285.19h2.78l4.09,8.55,4-8.55h2.84Z"/><path class="cls-3" d="M141.22,295h-8.48a4.94,4.94,0,0,0,.32,1.85,3.42,3.42,0,0,0,2.15,2,4.92,4.92,0,0,0,1.62.25,6.49,6.49,0,0,0,2.37-.47,5.74,5.74,0,0,0,1.69-.92H141v2.11a18.18,18.18,0,0,1-2,.69,8,8,0,0,1-2.15.28,6.18,6.18,0,0,1-4.47-1.55,5.87,5.87,0,0,1-1.61-4.41,6.3,6.3,0,0,1,1.54-4.48,5.27,5.27,0,0,1,4.06-1.66,4.64,4.64,0,0,1,3.59,1.36,5.45,5.45,0,0,1,1.26,3.86Zm-1.88-1.48a3.47,3.47,0,0,0-.77-2.36,3,3,0,0,0-2.3-.84,3.36,3.36,0,0,0-2.48.92,3.52,3.52,0,0,0-1,2.28Z"/><path class="cls-3" d="M153.5,300.54h-1.94v-1.21a6.64,6.64,0,0,1-1.74,1.13,4.75,4.75,0,0,1-2,.4,3.9,3.9,0,0,1-3.27-1.59,7.08,7.08,0,0,1-1.21-4.4,7.52,7.52,0,0,1,.42-2.61,5.85,5.85,0,0,1,1.13-1.95,4.77,4.77,0,0,1,3.56-1.6,6,6,0,0,1,1.61.19,6.74,6.74,0,0,1,1.47.59v-5h1.94Zm-1.94-2.83V291.1a7,7,0,0,0-1.4-.49,6.31,6.31,0,0,0-1.35-.13,3.07,3.07,0,0,0-2.53,1.13,5,5,0,0,0-.91,3.22,5.68,5.68,0,0,0,.7,3.12,2.5,2.5,0,0,0,2.25,1.06,4.26,4.26,0,0,0,1.67-.36A7.34,7.34,0,0,0,151.56,297.71Z"/><path class="cls-3" d="M167,295h-8.49a4.94,4.94,0,0,0,.32,1.85,3.48,3.48,0,0,0,.88,1.3,3.35,3.35,0,0,0,1.27.74,4.92,4.92,0,0,0,1.62.25,6.45,6.45,0,0,0,2.37-.47,6,6,0,0,0,1.7-.92h.1v2.11a17.49,17.49,0,0,1-2,.69,8,8,0,0,1-2.15.28,6.18,6.18,0,0,1-4.47-1.55,5.87,5.87,0,0,1-1.61-4.41,6.35,6.35,0,0,1,1.54-4.48,5.27,5.27,0,0,1,4.06-1.66,4.64,4.64,0,0,1,3.59,1.36,5.46,5.46,0,0,1,1.27,3.86Zm-1.89-1.48a3.42,3.42,0,0,0-.77-2.36,2.93,2.93,0,0,0-2.3-.84,3.36,3.36,0,0,0-2.48.92,3.52,3.52,0,0,0-1.05,2.28Z"/><path class="cls-3" d="M171.85,300.54h-1.94v-16h1.94Z"/><path class="cls-3" d="M177.65,300.54h-1.94v-16h1.94Z"/><path class="cls-3" d="M185.57,283.26l-2.81,3.86h-1.54l1.85-3.86Zm-2.13,17.28H181.5V289h1.94Z"/><path class="cls-3" d="M196.9,300.54H195V294a11.64,11.64,0,0,0-.1-1.49,2.59,2.59,0,0,0-.34-1.08,1.57,1.57,0,0,0-.74-.65,3.18,3.18,0,0,0-1.26-.21,4,4,0,0,0-1.66.39,8.93,8.93,0,0,0-1.66,1v8.6h-1.93V289h1.93v1.28a7.89,7.89,0,0,1,1.88-1.17,5,5,0,0,1,2-.42,3.56,3.56,0,0,1,2.84,1.12,4.75,4.75,0,0,1,1,3.24Z"/><path class="cls-3" d="M203.8,300.54h-2.46V297.6h2.46Z"/><rect class="cls-2" x="66.8" y="343.79" width="424.94" height="87.76" rx="12.02"/><path class="cls-3" d="M93.2,365c-.37.17-.72.32-1,.47a12.19,12.19,0,0,1-1.2.45,12,12,0,0,1-1.37.33,8.15,8.15,0,0,1-1.62.14,9.15,9.15,0,0,1-3-.47,6.08,6.08,0,0,1-2.37-1.47A6.68,6.68,0,0,1,81,362a10.18,10.18,0,0,1-.56-3.51,10,10,0,0,1,.54-3.4,7,7,0,0,1,1.54-2.52A6.55,6.55,0,0,1,84.92,351a8.66,8.66,0,0,1,3.08-.52,10.43,10.43,0,0,1,2.47.3,13.21,13.21,0,0,1,2.73,1.05v2.42h-.15a9.2,9.2,0,0,0-2.52-1.55,7.36,7.36,0,0,0-2.67-.48,5.37,5.37,0,0,0-2.09.38,4.53,4.53,0,0,0-1.67,1.17A5.42,5.42,0,0,0,83,355.75a8.69,8.69,0,0,0-.39,2.73,8,8,0,0,0,.43,2.78,5.74,5.74,0,0,0,1.13,1.9,4.55,4.55,0,0,0,1.69,1.12,5.54,5.54,0,0,0,2,.37,7.66,7.66,0,0,0,2.77-.5,8.07,8.07,0,0,0,2.41-1.52h.14Z"/><path class="cls-3" d="M105.48,366.13h-1.93v-1.27a9.58,9.58,0,0,1-1.88,1.18,4.62,4.62,0,0,1-2,.41,3.64,3.64,0,0,1-2.83-1.1,4.71,4.71,0,0,1-1-3.26v-7.47h1.94v6.56a10.78,10.78,0,0,0,.09,1.5,2.76,2.76,0,0,0,.34,1.06,1.59,1.59,0,0,0,.73.66,3.08,3.08,0,0,0,1.29.21,4.11,4.11,0,0,0,1.64-.39,8.12,8.12,0,0,0,1.67-1v-8.6h1.93Z"/><path class="cls-3" d="M118.25,366.13h-1.93v-1.22l-.7.49a5.08,5.08,0,0,1-.85.5,5.73,5.73,0,0,1-1.11.4,6.43,6.43,0,0,1-1.48.15,3.7,3.7,0,0,1-2.64-1,3.45,3.45,0,0,1-1.08-2.62,3.67,3.67,0,0,1,.56-2.12,3.78,3.78,0,0,1,1.61-1.28,8.6,8.6,0,0,1,2.52-.63c1-.11,2-.19,3.17-.24v-.3a2.39,2.39,0,0,0-.23-1.1,1.82,1.82,0,0,0-.67-.68,3,3,0,0,0-1-.32,9.34,9.34,0,0,0-1.21-.08,8.56,8.56,0,0,0-1.7.2,13.18,13.18,0,0,0-1.93.59h-.11v-2a16,16,0,0,1,1.64-.34,11.85,11.85,0,0,1,2.12-.19,10,10,0,0,1,2.11.2,4.24,4.24,0,0,1,1.57.69,3,3,0,0,1,1,1.22,4.7,4.7,0,0,1,.34,1.87Zm-1.93-2.83v-3.21l-2.09.16a11,11,0,0,0-1.9.3,3.13,3.13,0,0,0-1.35.73,2.12,2.12,0,0,0,.08,2.87,2.82,2.82,0,0,0,1.82.5,4.27,4.27,0,0,0,1.87-.4A8.31,8.31,0,0,0,116.32,363.3Z"/><path class="cls-3" d="M131.61,366.13h-1.94v-6.55a10,10,0,0,0-.1-1.49,2.64,2.64,0,0,0-.34-1.09,1.55,1.55,0,0,0-.74-.64,3.18,3.18,0,0,0-1.26-.21,4.08,4.08,0,0,0-1.66.39,8.07,8.07,0,0,0-1.65,1v8.59H122V354.62h1.94v1.28a8,8,0,0,1,1.87-1.18,5,5,0,0,1,2-.42,3.59,3.59,0,0,1,2.85,1.12,4.81,4.81,0,0,1,1,3.24Z"/><path class="cls-3" d="M144.68,366.13h-1.94v-1.2a7.23,7.23,0,0,1-1.74,1.12,4.79,4.79,0,0,1-2,.4,3.93,3.93,0,0,1-3.28-1.58,7.17,7.17,0,0,1-1.21-4.4,7.52,7.52,0,0,1,.42-2.61,6,6,0,0,1,1.13-1.95,4.74,4.74,0,0,1,3.57-1.61,6,6,0,0,1,1.6.19,8.28,8.28,0,0,1,1.48.59v-5h1.94Zm-1.94-2.83v-6.61a7.52,7.52,0,0,0-1.4-.48,6.43,6.43,0,0,0-1.35-.14,3.05,3.05,0,0,0-2.54,1.14,5,5,0,0,0-.91,3.21,5.77,5.77,0,0,0,.7,3.12,2.5,2.5,0,0,0,2.25,1.07,4.07,4.07,0,0,0,1.67-.37A7.25,7.25,0,0,0,142.74,363.3Z"/><path class="cls-3" d="M158.31,360.38a6.49,6.49,0,0,1-1.45,4.45,5.43,5.43,0,0,1-7.74,0,7.6,7.6,0,0,1,0-8.9,5.41,5.41,0,0,1,7.74,0A6.51,6.51,0,0,1,158.31,360.38Zm-2,0a5.25,5.25,0,0,0-.88-3.32,3.28,3.28,0,0,0-4.88,0,6.71,6.71,0,0,0,0,6.61,3,3,0,0,0,2.45,1.11,2.9,2.9,0,0,0,2.42-1.1A5.22,5.22,0,0,0,156.31,360.38Z"/><path class="cls-3" d="M178.37,360.58h-8.49a5,5,0,0,0,.32,1.85,3.56,3.56,0,0,0,.88,1.29,3.59,3.59,0,0,0,1.27.75,5.22,5.22,0,0,0,1.63.24,6.24,6.24,0,0,0,2.36-.47,5.82,5.82,0,0,0,1.7-.92h.1v2.11a14.32,14.32,0,0,1-2,.69,7.9,7.9,0,0,1-2.14.28,6.16,6.16,0,0,1-4.48-1.55,5.84,5.84,0,0,1-1.61-4.41,6.32,6.32,0,0,1,1.55-4.48,5.25,5.25,0,0,1,4-1.66,4.63,4.63,0,0,1,3.59,1.36,5.45,5.45,0,0,1,1.27,3.87Zm-1.89-1.49a3.43,3.43,0,0,0-.77-2.36,3,3,0,0,0-2.3-.83,3.34,3.34,0,0,0-2.48.92,3.57,3.57,0,0,0-1.05,2.27Z"/><path class="cls-3" d="M189.53,362.82a3.11,3.11,0,0,1-1.3,2.58,5.64,5.64,0,0,1-3.56,1,8.63,8.63,0,0,1-2.35-.3,10.27,10.27,0,0,1-1.79-.67v-2.17h.11a7.71,7.71,0,0,0,2,1.1,6.3,6.3,0,0,0,2.15.4,4,4,0,0,0,2-.41,1.39,1.39,0,0,0,.72-1.3,1.33,1.33,0,0,0-.39-1,3.62,3.62,0,0,0-1.5-.6l-1.08-.21c-.44-.09-.85-.17-1.21-.27a4,4,0,0,1-2.15-1.18,3,3,0,0,1-.64-1.91,3.06,3.06,0,0,1,.3-1.34,3.16,3.16,0,0,1,.89-1.13,4.08,4.08,0,0,1,1.47-.76,6.5,6.5,0,0,1,2-.29,9.39,9.39,0,0,1,2.09.25,7.94,7.94,0,0,1,1.76.62v2.07H189a7.13,7.13,0,0,0-1.81-.92,6.24,6.24,0,0,0-2.08-.38,3.62,3.62,0,0,0-1.79.41,1.42,1.42,0,0,0-.29,2.28,3.42,3.42,0,0,0,1.4.59l1.2.25c.44.08.81.15,1.11.22a4.08,4.08,0,0,1,2.08,1.07A2.77,2.77,0,0,1,189.53,362.82Z"/><path class="cls-3" d="M208.24,365.41a12,12,0,0,1-1.84.72,6.18,6.18,0,0,1-1.85.26,7,7,0,0,1-2.29-.36,4.88,4.88,0,0,1-1.78-1.11,5,5,0,0,1-1.16-1.88,7.6,7.6,0,0,1-.42-2.65,6.09,6.09,0,0,1,1.56-4.43,5.43,5.43,0,0,1,4.09-1.61,6.81,6.81,0,0,1,1.95.28,10.5,10.5,0,0,1,1.74.68v2.16h-.1a7.47,7.47,0,0,0-1.83-1.07,5.16,5.16,0,0,0-1.84-.37,3.24,3.24,0,0,0-2.6,1.11,5.95,5.95,0,0,0,0,6.45,3.2,3.2,0,0,0,2.62,1.12,5.06,5.06,0,0,0,1.2-.15,6,6,0,0,0,1.09-.4c.28-.15.55-.3.79-.46a5.53,5.53,0,0,0,.59-.42h.1Z"/><path class="cls-3" d="M219.68,366.13h-1.93v-1.22l-.7.49a5.08,5.08,0,0,1-.85.5,5.73,5.73,0,0,1-1.11.4,6.4,6.4,0,0,1-1.47.15,3.67,3.67,0,0,1-2.64-1,3.43,3.43,0,0,1-1.09-2.62,3.59,3.59,0,0,1,.57-2.12,3.69,3.69,0,0,1,1.6-1.28,8.6,8.6,0,0,1,2.52-.63c1-.11,2-.19,3.17-.24v-.3a2.39,2.39,0,0,0-.23-1.1,1.82,1.82,0,0,0-.67-.68,3,3,0,0,0-1-.32,9.18,9.18,0,0,0-1.2-.08,8.4,8.4,0,0,0-1.7.2,12.93,12.93,0,0,0-1.94.59h-.11v-2a16,16,0,0,1,1.64-.34,11.85,11.85,0,0,1,2.12-.19,10.18,10.18,0,0,1,2.12.2,4.27,4.27,0,0,1,1.56.69,3,3,0,0,1,1,1.22,4.7,4.7,0,0,1,.34,1.87Zm-1.93-2.83v-3.21l-2.09.16a11,11,0,0,0-1.9.3,3.13,3.13,0,0,0-1.35.73,1.87,1.87,0,0,0-.52,1.38,1.82,1.82,0,0,0,.6,1.49,2.83,2.83,0,0,0,1.83.5,4.22,4.22,0,0,0,1.86-.4A8,8,0,0,0,217.75,363.3Z"/><path class="cls-3" d="M230.59,356.73h-.1a6.77,6.77,0,0,0-.84-.15,9,9,0,0,0-1,0,4.09,4.09,0,0,0-1.74.39,8.19,8.19,0,0,0-1.6,1v8.17h-1.94V354.62h1.94v1.7a9.28,9.28,0,0,1,2-1.31,4.42,4.42,0,0,1,1.8-.39,6.17,6.17,0,0,1,.73,0l.68.09Z"/><path class="cls-3" d="M241.76,364.83a6,6,0,0,1-1.33,4.29,5.45,5.45,0,0,1-4.09,1.38,13,13,0,0,1-1.79-.13,14.22,14.22,0,0,1-1.72-.37v-2h.1a13.43,13.43,0,0,0,1.51.46,8.09,8.09,0,0,0,2.06.27,5.05,5.05,0,0,0,1.64-.23,2.4,2.4,0,0,0,1-.66,2.45,2.45,0,0,0,.52-1,5,5,0,0,0,.15-1.27v-1.05a7.12,7.12,0,0,1-1.68,1,5.14,5.14,0,0,1-2,.35,4,4,0,0,1-3.27-1.49,6.47,6.47,0,0,1-1.22-4.2,7,7,0,0,1,.42-2.56,5.82,5.82,0,0,1,1.14-1.86,4.61,4.61,0,0,1,1.63-1.14,4.87,4.87,0,0,1,1.91-.41,6.11,6.11,0,0,1,1.67.2,7.38,7.38,0,0,1,1.43.61l.12-.49h1.82ZM239.82,363v-6.28a7.75,7.75,0,0,0-1.44-.5,5.94,5.94,0,0,0-1.32-.15,3.15,3.15,0,0,0-2.52,1.07,4.7,4.7,0,0,0-.92,3.12,5.28,5.28,0,0,0,.68,2.94,2.56,2.56,0,0,0,2.26,1,4.67,4.67,0,0,0,1.7-.33A6,6,0,0,0,239.82,363Z"/><path class="cls-3" d="M254.52,366.13h-1.93v-1.22l-.69.49a6,6,0,0,1-.85.5,6.1,6.1,0,0,1-1.12.4,6.4,6.4,0,0,1-1.47.15,3.67,3.67,0,0,1-2.64-1,3.45,3.45,0,0,1-1.08-2.62,3.59,3.59,0,0,1,.56-2.12,3.75,3.75,0,0,1,1.6-1.28,8.67,8.67,0,0,1,2.53-.63c1-.11,2-.19,3.16-.24v-.3a2.27,2.27,0,0,0-.23-1.1,1.79,1.79,0,0,0-.66-.68,3.11,3.11,0,0,0-1-.32,9.46,9.46,0,0,0-1.21-.08,8.4,8.4,0,0,0-1.7.2,13.29,13.29,0,0,0-1.94.59h-.1v-2a15.44,15.44,0,0,1,1.64-.34,11.74,11.74,0,0,1,2.11-.19,10.11,10.11,0,0,1,2.12.2,4.27,4.27,0,0,1,1.56.69,3,3,0,0,1,1,1.22,4.53,4.53,0,0,1,.34,1.87Zm-1.93-2.83v-3.21l-2.09.16a11,11,0,0,0-1.9.3,3.25,3.25,0,0,0-1.35.73,1.86,1.86,0,0,0-.51,1.38,1.82,1.82,0,0,0,.6,1.49,2.79,2.79,0,0,0,1.82.5,4.3,4.3,0,0,0,1.87-.4A8.23,8.23,0,0,0,252.59,363.3Z"/><path class="cls-3" d="M267.59,366.13h-1.94v-1.2a6.86,6.86,0,0,1-1.74,1.12,4.75,4.75,0,0,1-2,.4,3.92,3.92,0,0,1-3.27-1.58,7.1,7.1,0,0,1-1.21-4.4,7.52,7.52,0,0,1,.42-2.61,5.8,5.8,0,0,1,1.12-1.95,4.93,4.93,0,0,1,1.64-1.2,4.78,4.78,0,0,1,1.93-.41,6,6,0,0,1,1.61.19,7.92,7.92,0,0,1,1.47.59v-5h1.94Zm-1.94-2.83v-6.61a7.52,7.52,0,0,0-1.4-.48,6.29,6.29,0,0,0-1.35-.14,3,3,0,0,0-2.53,1.14,5,5,0,0,0-.91,3.21,5.68,5.68,0,0,0,.7,3.12,2.5,2.5,0,0,0,2.25,1.07,4.11,4.11,0,0,0,1.67-.37A7,7,0,0,0,265.65,363.3Z"/><path class="cls-3" d="M281.22,360.38a6.49,6.49,0,0,1-1.44,4.45,5.44,5.44,0,0,1-7.75,0,7.6,7.6,0,0,1,0-8.9,5.42,5.42,0,0,1,7.75,0A6.51,6.51,0,0,1,281.22,360.38Zm-2,0a5.19,5.19,0,0,0-.88-3.32,3.28,3.28,0,0,0-4.88,0,6.68,6.68,0,0,0,0,6.61,3.24,3.24,0,0,0,4.87,0A5.22,5.22,0,0,0,279.22,360.38Z"/><path class="cls-3" d="M301.28,360.58H292.8a4.78,4.78,0,0,0,.32,1.85,3.42,3.42,0,0,0,.87,1.29,3.64,3.64,0,0,0,1.28.75,5.2,5.2,0,0,0,1.62.24,6.33,6.33,0,0,0,2.37-.47,5.74,5.74,0,0,0,1.69-.92h.11v2.11a14.78,14.78,0,0,1-2,.69,8,8,0,0,1-2.15.28,6.14,6.14,0,0,1-4.47-1.55,5.84,5.84,0,0,1-1.61-4.41,6.32,6.32,0,0,1,1.54-4.48,5.27,5.27,0,0,1,4.06-1.66,4.64,4.64,0,0,1,3.59,1.36,5.5,5.5,0,0,1,1.26,3.87Zm-1.88-1.49a3.48,3.48,0,0,0-.77-2.36,3,3,0,0,0-2.31-.83,3.35,3.35,0,0,0-2.48.92,3.56,3.56,0,0,0-1,2.27Z"/><path class="cls-3" d="M313.85,366.13h-1.94v-6.55a11.58,11.58,0,0,0-.09-1.49,2.8,2.8,0,0,0-.34-1.09,1.55,1.55,0,0,0-.74-.64,3.25,3.25,0,0,0-1.26-.21,4,4,0,0,0-1.66.39,8.14,8.14,0,0,0-1.66,1v8.59h-1.94V354.62h1.94v1.28a8.07,8.07,0,0,1,1.88-1.18,4.89,4.89,0,0,1,2-.42,3.56,3.56,0,0,1,2.85,1.12,4.81,4.81,0,0,1,1,3.24Z"/><path class="cls-3" d="M334.64,360.58h-8.48a4.78,4.78,0,0,0,.32,1.85,3.42,3.42,0,0,0,.87,1.29,3.64,3.64,0,0,0,1.28.75,5.2,5.2,0,0,0,1.62.24,6.33,6.33,0,0,0,2.37-.47,5.74,5.74,0,0,0,1.69-.92h.11v2.11a14.78,14.78,0,0,1-2,.69,8,8,0,0,1-2.15.28,6.14,6.14,0,0,1-4.47-1.55,5.84,5.84,0,0,1-1.61-4.41,6.32,6.32,0,0,1,1.54-4.48,5.27,5.27,0,0,1,4.06-1.66,4.64,4.64,0,0,1,3.59,1.36,5.5,5.5,0,0,1,1.26,3.87Zm-1.88-1.49a3.48,3.48,0,0,0-.77-2.36,3,3,0,0,0-2.31-.83,3.31,3.31,0,0,0-2.47.92,3.52,3.52,0,0,0-1,2.27Z"/><path class="cls-3" d="M339.54,366.13H337.6v-16h1.94Z"/><path class="cls-3" d="M360.93,360.24a7.72,7.72,0,0,1-.4,2.56,5.7,5.7,0,0,1-1.13,2,4.78,4.78,0,0,1-3.56,1.6,6.34,6.34,0,0,1-1.63-.19,7,7,0,0,1-1.47-.61v4.82H350.8V354.62h1.94v1.21a7.14,7.14,0,0,1,1.73-1.09,5,5,0,0,1,2.06-.44,3.78,3.78,0,0,1,3.24,1.57A7.2,7.2,0,0,1,360.93,360.24Zm-2,.05a5.52,5.52,0,0,0-.71-3.11,2.45,2.45,0,0,0-2.18-1,4.32,4.32,0,0,0-1.69.36,7.51,7.51,0,0,0-1.61.94V364a7.74,7.74,0,0,0,1.41.51,6.19,6.19,0,0,0,1.35.13,3.08,3.08,0,0,0,2.52-1.09A5,5,0,0,0,358.93,360.29Z"/><path class="cls-3" d="M373.5,366.13h-1.94v-1.27a9.3,9.3,0,0,1-1.88,1.18,4.56,4.56,0,0,1-2,.41,3.62,3.62,0,0,1-2.82-1.1,4.71,4.71,0,0,1-1-3.26v-7.47h1.94v6.56a12.8,12.8,0,0,0,.08,1.5,2.76,2.76,0,0,0,.35,1.06,1.62,1.62,0,0,0,.72.66,3.14,3.14,0,0,0,1.29.21,4.19,4.19,0,0,0,1.65-.39,7.8,7.8,0,0,0,1.66-1v-8.6h1.94Z"/><path class="cls-3" d="M386.94,366.13H385v-6.55a11.58,11.58,0,0,0-.09-1.49,2.64,2.64,0,0,0-.34-1.09,1.55,1.55,0,0,0-.74-.64,3.21,3.21,0,0,0-1.26-.21,4,4,0,0,0-1.66.39,8.14,8.14,0,0,0-1.66,1v8.59h-1.94V354.62h1.94v1.28a8.28,8.28,0,0,1,1.88-1.18,4.94,4.94,0,0,1,2-.42,3.56,3.56,0,0,1,2.84,1.12,4.81,4.81,0,0,1,1,3.24Z"/><path class="cls-3" d="M396.65,366a9.26,9.26,0,0,1-1.19.24,8.38,8.38,0,0,1-1.15.09,3.54,3.54,0,0,1-2.68-.95,4.25,4.25,0,0,1-.92-3v-6.12H389.4v-1.63h1.31v-3.31h1.94v3.31h4v1.63h-4v5.25c0,.6,0,1.07,0,1.41a2.49,2.49,0,0,0,.29,1,1.4,1.4,0,0,0,.63.6,2.84,2.84,0,0,0,1.21.19,4,4,0,0,0,1-.14,7,7,0,0,0,.74-.23h.1Z"/><path class="cls-3" d="M408.81,360.38a6.45,6.45,0,0,1-1.45,4.45,5.43,5.43,0,0,1-7.74,0,7.6,7.6,0,0,1,0-8.9,5.41,5.41,0,0,1,7.74,0A6.46,6.46,0,0,1,408.81,360.38Zm-2,0a5.25,5.25,0,0,0-.88-3.32,3.28,3.28,0,0,0-4.88,0,6.71,6.71,0,0,0,0,6.61,3,3,0,0,0,2.45,1.11,2.9,2.9,0,0,0,2.42-1.1A5.22,5.22,0,0,0,406.81,360.38Z"/><path class="cls-3" d="M90.14,393.85H88.21v-1.23l-.69.49a4.81,4.81,0,0,1-.85.5,5.84,5.84,0,0,1-1.12.4,6.29,6.29,0,0,1-1.47.16,3.68,3.68,0,0,1-2.64-1,3.45,3.45,0,0,1-1.08-2.62,3.67,3.67,0,0,1,.56-2.12,3.81,3.81,0,0,1,1.6-1.28,8.45,8.45,0,0,1,2.53-.62c1-.11,2-.2,3.16-.25v-.3a2.2,2.2,0,0,0-.23-1.09,1.6,1.6,0,0,0-.66-.68,2.68,2.68,0,0,0-1-.32,7.43,7.43,0,0,0-2.91.12,12.41,12.41,0,0,0-1.94.58h-.1v-2a15.44,15.44,0,0,1,1.64-.34,11.74,11.74,0,0,1,2.11-.19,10.11,10.11,0,0,1,2.12.2,4.27,4.27,0,0,1,1.56.69,2.91,2.91,0,0,1,1,1.23,4.45,4.45,0,0,1,.34,1.86ZM88.21,391V387.8l-2.08.16a10.83,10.83,0,0,0-1.9.3,3,3,0,0,0-1.35.74,1.79,1.79,0,0,0-.52,1.37,1.82,1.82,0,0,0,.6,1.49,2.8,2.8,0,0,0,1.82.5,4.3,4.3,0,0,0,1.87-.4A8.23,8.23,0,0,0,88.21,391Z"/><path class="cls-3" d="M102.39,393.12a13.74,13.74,0,0,1-1.84.73,6.56,6.56,0,0,1-1.85.25,7,7,0,0,1-2.29-.36,4.8,4.8,0,0,1-1.78-1.11,5.1,5.1,0,0,1-1.17-1.88,7.85,7.85,0,0,1-.41-2.65,6.13,6.13,0,0,1,1.55-4.43,5.44,5.44,0,0,1,4.1-1.61,7.05,7.05,0,0,1,1.94.28,10.28,10.28,0,0,1,1.75.68v2.16h-.1a7.47,7.47,0,0,0-1.83-1.07,5.2,5.2,0,0,0-1.84-.37A3.27,3.27,0,0,0,96,384.85a6,6,0,0,0,0,6.45,3.22,3.22,0,0,0,2.63,1.12,4.91,4.91,0,0,0,1.19-.15,5.15,5.15,0,0,0,1.09-.4c.29-.15.55-.3.8-.46a6.81,6.81,0,0,0,.59-.42h.1Z"/><path class="cls-3" d="M114.69,388.09a6.49,6.49,0,0,1-1.44,4.45,5.42,5.42,0,0,1-7.75,0,7.6,7.6,0,0,1,0-8.9,5.42,5.42,0,0,1,7.75,0A6.51,6.51,0,0,1,114.69,388.09Zm-2,0a5.19,5.19,0,0,0-.88-3.32,3.28,3.28,0,0,0-4.88,0,6.68,6.68,0,0,0,0,6.61,3.22,3.22,0,0,0,4.87,0A5.28,5.28,0,0,0,112.69,388.09Z"/><path class="cls-3" d="M124.87,384.44h-.1l-.84-.15a9,9,0,0,0-1,0,4.09,4.09,0,0,0-1.74.39,8.19,8.19,0,0,0-1.6,1v8.18h-1.94V382.33h1.94V384a9.28,9.28,0,0,1,2-1.31,4.42,4.42,0,0,1,1.8-.39,6.17,6.17,0,0,1,.73,0l.68.09Z"/><path class="cls-3" d="M136,393.85H134.1v-1.21a6.94,6.94,0,0,1-1.74,1.12,4.79,4.79,0,0,1-2,.41,3.88,3.88,0,0,1-3.27-1.59,7.1,7.1,0,0,1-1.22-4.4,7.52,7.52,0,0,1,.42-2.61,6.1,6.1,0,0,1,1.13-1.95,4.83,4.83,0,0,1,1.64-1.2A4.78,4.78,0,0,1,131,382a6.08,6.08,0,0,1,1.61.19,8.2,8.2,0,0,1,1.47.59v-5H136ZM134.1,391V384.4a7.52,7.52,0,0,0-1.4-.48,6.29,6.29,0,0,0-1.35-.14,3.07,3.07,0,0,0-2.54,1.14,5,5,0,0,0-.91,3.21,5.67,5.67,0,0,0,.71,3.12,2.48,2.48,0,0,0,2.24,1.07,4.07,4.07,0,0,0,1.67-.37A6.67,6.67,0,0,0,134.1,391Z"/><path class="cls-3" d="M148.8,393.85h-1.93v-1.23l-.69.49a5.19,5.19,0,0,1-.85.5,6.1,6.1,0,0,1-1.12.4,6.36,6.36,0,0,1-1.47.16,3.68,3.68,0,0,1-2.64-1,3.45,3.45,0,0,1-1.08-2.62,3.67,3.67,0,0,1,.56-2.12,3.75,3.75,0,0,1,1.6-1.28,8.38,8.38,0,0,1,2.53-.62c1-.11,2-.2,3.16-.25v-.3a2.2,2.2,0,0,0-.23-1.09,1.66,1.66,0,0,0-.66-.68,2.68,2.68,0,0,0-1-.32,7.92,7.92,0,0,0-1.21-.09,7.8,7.8,0,0,0-1.7.21,12.1,12.1,0,0,0-1.94.58H140v-2a15.44,15.44,0,0,1,1.64-.34,11.74,11.74,0,0,1,2.11-.19,10.11,10.11,0,0,1,2.12.2,4.27,4.27,0,0,1,1.56.69,3.07,3.07,0,0,1,1,1.23,4.45,4.45,0,0,1,.34,1.86ZM146.87,391V387.8l-2.08.16a11,11,0,0,0-1.91.3,3.15,3.15,0,0,0-1.35.74,2.12,2.12,0,0,0,.09,2.86,2.79,2.79,0,0,0,1.82.5,4.3,4.3,0,0,0,1.87-.4A8.23,8.23,0,0,0,146.87,391Z"/><path class="cls-3" d="M161.87,393.85h-1.94v-1.21a6.6,6.6,0,0,1-1.74,1.12,4.76,4.76,0,0,1-2,.41,3.9,3.9,0,0,1-3.27-1.59,7.1,7.1,0,0,1-1.21-4.4,7.52,7.52,0,0,1,.42-2.61,5.75,5.75,0,0,1,1.13-1.95,4.74,4.74,0,0,1,3.56-1.61,6,6,0,0,1,1.61.19,7.92,7.92,0,0,1,1.47.59v-5h1.94ZM159.93,391V384.4a7.52,7.52,0,0,0-1.4-.48,6.29,6.29,0,0,0-1.35-.14,3,3,0,0,0-2.53,1.14,5,5,0,0,0-.91,3.21,5.68,5.68,0,0,0,.7,3.12,2.5,2.5,0,0,0,2.25,1.07,4.11,4.11,0,0,0,1.67-.37A6.61,6.61,0,0,0,159.93,391Z"/><path class="cls-3" d="M175.5,388.09a6.49,6.49,0,0,1-1.44,4.45,5.42,5.42,0,0,1-7.75,0,7.6,7.6,0,0,1,0-8.9,5.42,5.42,0,0,1,7.75,0A6.51,6.51,0,0,1,175.5,388.09Zm-2,0a5.19,5.19,0,0,0-.88-3.32,3.28,3.28,0,0,0-4.88,0,6.68,6.68,0,0,0,0,6.61,3.22,3.22,0,0,0,4.87,0A5.22,5.22,0,0,0,173.5,388.09Z"/><path class="cls-3" d="M182.21,390.91l-2.91,6.75h-1.5l1.79-6.75Z"/><path class="cls-3" d="M202.63,393.85H200.7v-1.21a6.81,6.81,0,0,1-1.75,1.12,4.75,4.75,0,0,1-2,.41,3.91,3.91,0,0,1-3.28-1.59,7.1,7.1,0,0,1-1.21-4.4,7.52,7.52,0,0,1,.42-2.61,5.92,5.92,0,0,1,1.13-1.95,4.74,4.74,0,0,1,3.56-1.61,6,6,0,0,1,1.61.19,8.28,8.28,0,0,1,1.48.59v-5h1.93ZM200.7,391V384.4a7.77,7.77,0,0,0-1.4-.48,6.45,6.45,0,0,0-1.36-.14,3,3,0,0,0-2.53,1.14,5,5,0,0,0-.91,3.21,5.68,5.68,0,0,0,.7,3.12,2.5,2.5,0,0,0,2.25,1.07,4.07,4.07,0,0,0,1.67-.37A6.87,6.87,0,0,0,200.7,391Z"/><path class="cls-3" d="M216.09,388.29H207.6a5,5,0,0,0,.32,1.85,3.47,3.47,0,0,0,.88,1.29,3.59,3.59,0,0,0,1.27.75,5.26,5.26,0,0,0,1.63.24,6.24,6.24,0,0,0,2.36-.47,5.82,5.82,0,0,0,1.7-.92h.1v2.11a15.8,15.8,0,0,1-2,.7,8.31,8.31,0,0,1-2.14.27,6.18,6.18,0,0,1-4.48-1.55,5.83,5.83,0,0,1-1.61-4.4,6.33,6.33,0,0,1,1.55-4.49,5.25,5.25,0,0,1,4-1.66,4.7,4.7,0,0,1,3.6,1.36,5.5,5.5,0,0,1,1.26,3.87Zm-1.89-1.49a3.43,3.43,0,0,0-.77-2.36,3,3,0,0,0-2.3-.83,3.38,3.38,0,0,0-2.48.92,3.62,3.62,0,0,0-1.05,2.27Z"/><path class="cls-3" d="M221,393.85h-1.94V377.8H221Z"/><path class="cls-3" d="M234.2,393.85h-1.94V377.8h1.94Z"/><path class="cls-3" d="M247.58,393.85h-1.93v-1.28a9.58,9.58,0,0,1-1.88,1.18,4.62,4.62,0,0,1-2,.42,3.65,3.65,0,0,1-2.83-1.11,4.71,4.71,0,0,1-1-3.26v-7.47h1.94v6.56a10.78,10.78,0,0,0,.09,1.5,2.6,2.6,0,0,0,.35,1.06,1.53,1.53,0,0,0,.72.66,3.08,3.08,0,0,0,1.29.21,4.11,4.11,0,0,0,1.64-.39,8.12,8.12,0,0,0,1.67-1v-8.6h1.93Z"/><path class="cls-3" d="M260.74,392.54a6,6,0,0,1-1.33,4.3,5.5,5.5,0,0,1-4.1,1.37,13,13,0,0,1-1.78-.13,14.22,14.22,0,0,1-1.72-.37v-2h.1a13.43,13.43,0,0,0,1.51.46,8.09,8.09,0,0,0,2.06.27,5.05,5.05,0,0,0,1.64-.23,2.4,2.4,0,0,0,1-.66,2.32,2.32,0,0,0,.51-1,4.55,4.55,0,0,0,.16-1.27v-1.05a7.76,7.76,0,0,1-1.68,1.05,5.15,5.15,0,0,1-2,.34,4,4,0,0,1-3.28-1.49,6.53,6.53,0,0,1-1.21-4.2,7,7,0,0,1,.42-2.56,5.82,5.82,0,0,1,1.14-1.86,4.61,4.61,0,0,1,1.63-1.14,4.87,4.87,0,0,1,1.91-.41,6.11,6.11,0,0,1,1.67.2,7.46,7.46,0,0,1,1.43.62l.12-.5h1.82Zm-1.94-1.86V384.4a8,8,0,0,0-1.44-.5,5.94,5.94,0,0,0-1.32-.15,3.13,3.13,0,0,0-2.52,1.08,4.66,4.66,0,0,0-.92,3.11,5.28,5.28,0,0,0,.68,2.94,2.56,2.56,0,0,0,2.26,1,4.67,4.67,0,0,0,1.7-.33A5.83,5.83,0,0,0,258.8,390.68Z"/><path class="cls-3" d="M273.5,393.85h-1.93v-1.23l-.69.49a5.19,5.19,0,0,1-.85.5,6.1,6.1,0,0,1-1.12.4,6.36,6.36,0,0,1-1.47.16,3.68,3.68,0,0,1-2.64-1,3.45,3.45,0,0,1-1.08-2.62,3.59,3.59,0,0,1,.56-2.12,3.75,3.75,0,0,1,1.6-1.28,8.3,8.3,0,0,1,2.53-.62c1-.11,2-.2,3.16-.25v-.3a2.2,2.2,0,0,0-.23-1.09,1.63,1.63,0,0,0-.67-.68,2.57,2.57,0,0,0-1-.32,7.92,7.92,0,0,0-1.21-.09,7.8,7.8,0,0,0-1.7.21,12.1,12.1,0,0,0-1.94.58h-.1v-2a15.44,15.44,0,0,1,1.64-.34,11.74,11.74,0,0,1,2.11-.19,10.11,10.11,0,0,1,2.12.2,4.27,4.27,0,0,1,1.56.69,3.07,3.07,0,0,1,1,1.23,4.45,4.45,0,0,1,.34,1.86ZM271.57,391V387.8l-2.09.16a11,11,0,0,0-1.9.3,3.15,3.15,0,0,0-1.35.74,1.83,1.83,0,0,0-.51,1.37,1.85,1.85,0,0,0,.59,1.49,2.83,2.83,0,0,0,1.83.5A4.22,4.22,0,0,0,270,392,8,8,0,0,0,271.57,391Z"/><path class="cls-3" d="M284.42,384.44h-.11q-.42-.09-.84-.15a9,9,0,0,0-1,0,4,4,0,0,0-1.73.39,8,8,0,0,0-1.61,1v8.18h-1.94V382.33h1.94V384a9.09,9.09,0,0,1,2-1.31,4.34,4.34,0,0,1,1.79-.39,6.37,6.37,0,0,1,.74,0l.68.09Z"/><path class="cls-3" d="M303.8,388a8,8,0,0,1-.4,2.56,5.57,5.57,0,0,1-1.14,2,4.79,4.79,0,0,1-1.6,1.19,4.84,4.84,0,0,1-2,.41,6.34,6.34,0,0,1-1.63-.19,7,7,0,0,1-1.48-.61v4.82h-1.94V382.33h1.94v1.21a7.4,7.4,0,0,1,1.74-1.09,5,5,0,0,1,2.06-.44,3.82,3.82,0,0,1,3.24,1.57A7.27,7.27,0,0,1,303.8,388Zm-2,.05a5.52,5.52,0,0,0-.71-3.11,2.48,2.48,0,0,0-2.19-1,4.24,4.24,0,0,0-1.68.36,7.46,7.46,0,0,0-1.62.95v6.52a7.54,7.54,0,0,0,1.42.51,6.12,6.12,0,0,0,1.35.13,3.09,3.09,0,0,0,2.52-1.09A5,5,0,0,0,301.8,388Z"/><path class="cls-3" d="M315.77,393.85h-1.93v-1.23l-.7.49a4.48,4.48,0,0,1-.85.5,5.73,5.73,0,0,1-1.11.4,6.36,6.36,0,0,1-1.47.16,3.68,3.68,0,0,1-2.64-1,3.43,3.43,0,0,1-1.09-2.62,3.59,3.59,0,0,1,.57-2.12,3.69,3.69,0,0,1,1.6-1.28,8.31,8.31,0,0,1,2.52-.62c1-.11,2-.2,3.17-.25v-.3a2.32,2.32,0,0,0-.23-1.09,1.69,1.69,0,0,0-.67-.68,2.57,2.57,0,0,0-1-.32,7.69,7.69,0,0,0-1.2-.09,7.8,7.8,0,0,0-1.7.21,11.8,11.8,0,0,0-1.94.58H307v-2a16,16,0,0,1,1.64-.34,11.85,11.85,0,0,1,2.12-.19,10.18,10.18,0,0,1,2.12.2,4.27,4.27,0,0,1,1.56.69,3.07,3.07,0,0,1,1,1.23,4.61,4.61,0,0,1,.34,1.86ZM313.84,391V387.8l-2.09.16a11,11,0,0,0-1.9.3,3,3,0,0,0-1.35.74,2.11,2.11,0,0,0,.08,2.86,2.83,2.83,0,0,0,1.83.5,4.22,4.22,0,0,0,1.86-.4A8,8,0,0,0,313.84,391Z"/><path class="cls-3" d="M328,393.12a13.23,13.23,0,0,1-1.84.73,6.51,6.51,0,0,1-1.85.25,7,7,0,0,1-2.29-.36,4.88,4.88,0,0,1-1.78-1.11,5,5,0,0,1-1.16-1.88,7.6,7.6,0,0,1-.42-2.65,6.13,6.13,0,0,1,1.55-4.43,5.47,5.47,0,0,1,4.1-1.61,7.18,7.18,0,0,1,1.95.28A10.5,10.5,0,0,1,328,383v2.16h-.1a7.47,7.47,0,0,0-1.83-1.07,5.16,5.16,0,0,0-1.84-.37,3.24,3.24,0,0,0-2.6,1.11,5.95,5.95,0,0,0,0,6.45,3.2,3.2,0,0,0,2.62,1.12,5.06,5.06,0,0,0,1.2-.15,5.37,5.37,0,0,0,1.09-.4c.28-.15.55-.3.79-.46a5.53,5.53,0,0,0,.59-.42h.1Z"/><path class="cls-3" d="M336.48,393.74a9.62,9.62,0,0,1-1.19.24,8.5,8.5,0,0,1-1.15.09,3.52,3.52,0,0,1-2.68-.95,4.21,4.21,0,0,1-.92-3V384h-1.31v-1.63h1.31V379h1.94v3.31h4V384h-4v5.25c0,.6,0,1.07,0,1.41a2.33,2.33,0,0,0,.29,1,1.43,1.43,0,0,0,.62.6,2.9,2.9,0,0,0,1.21.19,3.48,3.48,0,0,0,1-.14,6.28,6.28,0,0,0,.74-.23h.11Z"/><path class="cls-3" d="M347.77,393.85h-1.93v-1.23l-.7.49a4.48,4.48,0,0,1-.85.5,5.73,5.73,0,0,1-1.11.4,6.38,6.38,0,0,1-1.48.16,3.71,3.71,0,0,1-2.64-1,3.45,3.45,0,0,1-1.08-2.62,3.67,3.67,0,0,1,.56-2.12,3.78,3.78,0,0,1,1.61-1.28,8.31,8.31,0,0,1,2.52-.62c1-.11,2-.2,3.17-.25v-.3a2.32,2.32,0,0,0-.23-1.09,1.69,1.69,0,0,0-.67-.68,2.57,2.57,0,0,0-1-.32,7.79,7.79,0,0,0-1.2-.09A8,8,0,0,0,341,384a12,12,0,0,0-1.93.58H339v-2a16,16,0,0,1,1.64-.34,11.85,11.85,0,0,1,2.12-.19,10,10,0,0,1,2.11.2,4.24,4.24,0,0,1,1.57.69,3.07,3.07,0,0,1,1,1.23,4.61,4.61,0,0,1,.34,1.86ZM345.84,391V387.8l-2.09.16a11,11,0,0,0-1.9.3,3,3,0,0,0-1.35.74,1.79,1.79,0,0,0-.52,1.37,1.82,1.82,0,0,0,.6,1.49,2.83,2.83,0,0,0,1.83.5,4.22,4.22,0,0,0,1.86-.4A8.31,8.31,0,0,0,345.84,391Z"/><path class="cls-3" d="M360.84,393.85H358.9v-1.21a6.94,6.94,0,0,1-1.74,1.12,4.79,4.79,0,0,1-2,.41,3.91,3.91,0,0,1-3.28-1.59,7.17,7.17,0,0,1-1.21-4.4,7.52,7.52,0,0,1,.42-2.61,6.1,6.1,0,0,1,1.13-1.95,4.74,4.74,0,0,1,3.57-1.61,6,6,0,0,1,1.6.19,8.28,8.28,0,0,1,1.48.59v-5h1.94ZM358.9,391V384.4a7.52,7.52,0,0,0-1.4-.48,6.36,6.36,0,0,0-1.35-.14,3.05,3.05,0,0,0-2.54,1.14,5,5,0,0,0-.91,3.21,5.77,5.77,0,0,0,.7,3.12,2.5,2.5,0,0,0,2.25,1.07,4.07,4.07,0,0,0,1.67-.37A6.87,6.87,0,0,0,358.9,391Z"/><path class="cls-3" d="M374.47,388.09a6.49,6.49,0,0,1-1.45,4.45,5.41,5.41,0,0,1-7.74,0,7.6,7.6,0,0,1,0-8.9,5.41,5.41,0,0,1,7.74,0A6.51,6.51,0,0,1,374.47,388.09Zm-2,0a5.25,5.25,0,0,0-.88-3.32,3.28,3.28,0,0,0-4.88,0,6.71,6.71,0,0,0,0,6.61,3,3,0,0,0,2.45,1.12,2.91,2.91,0,0,0,2.42-1.11A5.22,5.22,0,0,0,372.47,388.09Z"/><path class="cls-3" d="M394.23,393.85h-1.94v-1.21a6.94,6.94,0,0,1-1.74,1.12,4.79,4.79,0,0,1-2,.41,3.89,3.89,0,0,1-3.27-1.59,7.1,7.1,0,0,1-1.22-4.4,7.52,7.52,0,0,1,.42-2.61,6.1,6.1,0,0,1,1.13-1.95,4.83,4.83,0,0,1,1.64-1.2,4.78,4.78,0,0,1,1.93-.41,6.08,6.08,0,0,1,1.61.19,8.2,8.2,0,0,1,1.47.59v-5h1.94ZM392.29,391V384.4a7.52,7.52,0,0,0-1.4-.48,6.29,6.29,0,0,0-1.35-.14,3.07,3.07,0,0,0-2.54,1.14,5,5,0,0,0-.91,3.21,5.67,5.67,0,0,0,.71,3.12,2.48,2.48,0,0,0,2.24,1.07,4.07,4.07,0,0,0,1.67-.37A6.67,6.67,0,0,0,392.29,391Z"/><path class="cls-3" d="M407.68,388.29H399.2a4.78,4.78,0,0,0,.32,1.85,3.34,3.34,0,0,0,.87,1.29,3.55,3.55,0,0,0,1.28.75,5.2,5.2,0,0,0,1.62.24,6.33,6.33,0,0,0,2.37-.47,5.74,5.74,0,0,0,1.69-.92h.11v2.11a16.36,16.36,0,0,1-2,.7,8.44,8.44,0,0,1-2.15.27,6.14,6.14,0,0,1-4.47-1.55,5.79,5.79,0,0,1-1.61-4.4,6.33,6.33,0,0,1,1.54-4.49,5.27,5.27,0,0,1,4.06-1.66,4.68,4.68,0,0,1,3.59,1.36,5.5,5.5,0,0,1,1.26,3.87Zm-1.88-1.49a3.48,3.48,0,0,0-.77-2.36,3,3,0,0,0-2.31-.83,3.39,3.39,0,0,0-2.48.92,3.56,3.56,0,0,0-1,2.27Z"/><path class="cls-3" d="M95,421.56H93V408.33l-4.27,9H87.49l-4.23-9v13.23H81.35V406.21h2.78l4.09,8.54,4-8.54H95Z"/><path class="cls-3" d="M108.63,416h-8.49a5,5,0,0,0,.32,1.85,3.36,3.36,0,0,0,.88,1.29,3.59,3.59,0,0,0,1.27.75,5.2,5.2,0,0,0,1.62.24,6.26,6.26,0,0,0,2.37-.47,6,6,0,0,0,1.7-.92h.1v2.11a15.8,15.8,0,0,1-2,.7,8.39,8.39,0,0,1-2.15.27,6.14,6.14,0,0,1-4.47-1.55,5.83,5.83,0,0,1-1.61-4.4,6.37,6.37,0,0,1,1.54-4.49,5.27,5.27,0,0,1,4.06-1.66,4.64,4.64,0,0,1,3.59,1.36,5.45,5.45,0,0,1,1.27,3.87Zm-1.89-1.49a3.43,3.43,0,0,0-.77-2.36,3,3,0,0,0-2.3-.83,3.36,3.36,0,0,0-2.48.92,3.52,3.52,0,0,0-1,2.27Z"/><path class="cls-3" d="M120.9,421.56H119v-1.21a6.81,6.81,0,0,1-1.75,1.12,4.76,4.76,0,0,1-2,.41,3.9,3.9,0,0,1-3.27-1.59,7.1,7.1,0,0,1-1.21-4.4,7.52,7.52,0,0,1,.42-2.61,5.92,5.92,0,0,1,1.13-1.95,4.74,4.74,0,0,1,3.56-1.61,6,6,0,0,1,1.61.19,8.28,8.28,0,0,1,1.48.59v-5h1.93ZM119,418.72v-6.61a7.59,7.59,0,0,0-1.41-.48,6.29,6.29,0,0,0-1.35-.14,3,3,0,0,0-2.53,1.14,5,5,0,0,0-.91,3.21,5.68,5.68,0,0,0,.7,3.12,2.5,2.5,0,0,0,2.25,1.07,4.07,4.07,0,0,0,1.67-.37A6.87,6.87,0,0,0,119,418.72Z"/><path class="cls-3" d="M134.36,416h-8.49a5,5,0,0,0,.32,1.85,3.47,3.47,0,0,0,.88,1.29,3.59,3.59,0,0,0,1.27.75,5.26,5.26,0,0,0,1.63.24,6.24,6.24,0,0,0,2.36-.47,5.82,5.82,0,0,0,1.7-.92h.1v2.11a15.8,15.8,0,0,1-2,.7,8.31,8.31,0,0,1-2.14.27,6.18,6.18,0,0,1-4.48-1.55,5.83,5.83,0,0,1-1.61-4.4,6.33,6.33,0,0,1,1.55-4.49,5.25,5.25,0,0,1,4-1.66,4.63,4.63,0,0,1,3.59,1.36,5.45,5.45,0,0,1,1.27,3.87Zm-1.89-1.49a3.43,3.43,0,0,0-.77-2.36,3,3,0,0,0-2.3-.83,3.38,3.38,0,0,0-2.48.92,3.57,3.57,0,0,0-1,2.27Z"/><path class="cls-3" d="M139.25,421.56h-1.93V405.51h1.93Z"/><path class="cls-3" d="M145.05,421.56h-1.94V405.51h1.94Z"/><path class="cls-3" d="M153,404.28l-2.82,3.85h-1.53l1.84-3.85Zm-2.14,17.28H148.9V410h1.94Z"/><path class="cls-3" d="M164.31,421.56h-1.94V415a11.58,11.58,0,0,0-.09-1.49,3,3,0,0,0-.34-1.09,1.57,1.57,0,0,0-.75-.64,3.16,3.16,0,0,0-1.25-.21,4,4,0,0,0-1.66.39,7.88,7.88,0,0,0-1.66,1v8.6h-1.94V410h1.94v1.28a8.22,8.22,0,0,1,1.87-1.18,5,5,0,0,1,2-.42,3.61,3.61,0,0,1,2.85,1.12,4.81,4.81,0,0,1,1,3.24Z"/><path class="cls-3" d="M171.2,421.56h-2.46v-2.94h2.46Z"/><path class="cls-4" d="M181.37,456.73a10.65,10.65,0,0,1-2.43-.27,10.24,10.24,0,0,1-2.26-.82l.42-2h.13a5.76,5.76,0,0,0,2.07,1.23,7.23,7.23,0,0,0,2.37.42,4.74,4.74,0,0,0,2.87-.74,2.27,2.27,0,0,0,1-1.89,1.49,1.49,0,0,0-.35-1,2.14,2.14,0,0,0-1.05-.6c-.38-.11-.83-.21-1.35-.31s-1-.2-1.5-.31a4.27,4.27,0,0,1-2.14-1.05,2.53,2.53,0,0,1-.75-1.86,3.82,3.82,0,0,1,1.58-3.11,6.46,6.46,0,0,1,4.1-1.25,10.45,10.45,0,0,1,4.42,1L188.1,446H188a5.37,5.37,0,0,0-1.78-1,7.09,7.09,0,0,0-2.43-.41,4.22,4.22,0,0,0-2.56.7,2.14,2.14,0,0,0-1,1.78,1.59,1.59,0,0,0,.34,1,2.11,2.11,0,0,0,1.22.66c.38.09.88.2,1.5.32s1.14.25,1.56.36a4.09,4.09,0,0,1,1.9,1,2.36,2.36,0,0,1,.64,1.7,3.86,3.86,0,0,1-.42,1.72,4.26,4.26,0,0,1-1.18,1.46,6.35,6.35,0,0,1-1.89,1A8.18,8.18,0,0,1,181.37,456.73Z"/><path class="cls-4" d="M193.67,456.72a4.87,4.87,0,0,1-3.2-1,3.43,3.43,0,0,1-1.16-2.8,6.77,6.77,0,0,1,1.7-4.63,5.41,5.41,0,0,1,4.22-1.93,3.65,3.65,0,0,1,2.56.83,3,3,0,0,1,.88,2.33,6.9,6.9,0,0,1-.07.84q-.07.57-.24,1.32h-7.24a4.46,4.46,0,0,0-.07.51,3.54,3.54,0,0,0,0,.45,2.55,2.55,0,0,0,.75,1.95,3,3,0,0,0,2.15.71,5.83,5.83,0,0,0,2-.38,8,8,0,0,0,1.71-.85h.1l-.36,1.78-.79.29a6.17,6.17,0,0,1-.89.26c-.37.09-.69.16-1,.21A7.44,7.44,0,0,1,193.67,456.72Zm3.3-6.21c0-.17.05-.31.06-.43s0-.24,0-.39a2,2,0,0,0-.52-1.46,2.22,2.22,0,0,0-1.65-.53,3.46,3.46,0,0,0-2.21.77,3.82,3.82,0,0,0-1.31,2Z"/><path class="cls-4" d="M204.57,442.81l-3.16,13.68h-1.65l3.16-13.68Z"/><path class="cls-4" d="M209.33,456.72a4.89,4.89,0,0,1-3.2-1A3.43,3.43,0,0,1,205,453a6.73,6.73,0,0,1,1.71-4.63,5.38,5.38,0,0,1,4.21-1.93,3.63,3.63,0,0,1,2.56.83,3,3,0,0,1,.88,2.33,6.9,6.9,0,0,1-.07.84q-.07.57-.24,1.32h-7.24a4.46,4.46,0,0,0-.07.51,3.54,3.54,0,0,0,0,.45,2.55,2.55,0,0,0,.75,1.95,3,3,0,0,0,2.15.71,5.79,5.79,0,0,0,2-.38,8.35,8.35,0,0,0,1.72-.85h.09l-.36,1.78-.79.29a6.17,6.17,0,0,1-.89.26c-.36.09-.69.16-1,.21A7.44,7.44,0,0,1,209.33,456.72Zm3.3-6.21c0-.17.05-.31.06-.43s0-.24,0-.39a2,2,0,0,0-.52-1.46,2.21,2.21,0,0,0-1.64-.53,3.48,3.48,0,0,0-2.22.77,3.88,3.88,0,0,0-1.31,2Z"/><path class="cls-4" d="M219.66,456.71a5.89,5.89,0,0,1-1.65-.22,3.34,3.34,0,0,1-1.25-.7,2.9,2.9,0,0,1-.8-1.15,4.21,4.21,0,0,1-.28-1.61,7.51,7.51,0,0,1,.43-2.58,6.44,6.44,0,0,1,1.22-2.1,5.4,5.4,0,0,1,1.89-1.39,5.67,5.67,0,0,1,2.43-.52,5.38,5.38,0,0,1,1.62.24,7.94,7.94,0,0,1,1.34.56l-.36,1.79h-.1c-.12-.11-.26-.23-.44-.37a3.3,3.3,0,0,0-.62-.39,3.82,3.82,0,0,0-.8-.32,3.41,3.41,0,0,0-1-.13,3.34,3.34,0,0,0-2.79,1.44,5.73,5.73,0,0,0-1.07,3.5,2.66,2.66,0,0,0,.63,1.9,2.39,2.39,0,0,0,1.82.67,3.87,3.87,0,0,0,1.11-.16,5.9,5.9,0,0,0,.94-.34,8.65,8.65,0,0,0,.8-.43l.53-.34h.1l-.35,1.8a12.91,12.91,0,0,1-1.62.6A6,6,0,0,1,219.66,456.71Z"/><path class="cls-4" d="M229,456.71a5.89,5.89,0,0,1-1.65-.22,3.34,3.34,0,0,1-1.25-.7,2.9,2.9,0,0,1-.8-1.15,4.21,4.21,0,0,1-.28-1.61,7.51,7.51,0,0,1,.43-2.58,6.27,6.27,0,0,1,1.22-2.1A5.4,5.4,0,0,1,228.6,447a5.66,5.66,0,0,1,2.42-.52,5.4,5.4,0,0,1,1.63.24,7.94,7.94,0,0,1,1.34.56l-.36,1.79h-.1c-.12-.11-.26-.23-.44-.37a3.66,3.66,0,0,0-.62-.39,3.82,3.82,0,0,0-.8-.32,3.48,3.48,0,0,0-1-.13,3.33,3.33,0,0,0-2.78,1.44,5.67,5.67,0,0,0-1.07,3.5,2.66,2.66,0,0,0,.63,1.9,2.39,2.39,0,0,0,1.82.67,3.87,3.87,0,0,0,1.11-.16,6.29,6.29,0,0,0,.94-.34,8.65,8.65,0,0,0,.8-.43l.53-.34h.1l-.35,1.8a12.91,12.91,0,0,1-1.62.6A6,6,0,0,1,229,456.71Z"/><path class="cls-4" d="M238.1,446.67l-2.27,9.82h-1.65l2.27-9.82Zm.9-3.36-.4,1.72h-1.87l.4-1.72Z"/><path class="cls-4" d="M248.75,450.14a7.88,7.88,0,0,1-.4,2.53,6.48,6.48,0,0,1-1.14,2.11,5.72,5.72,0,0,1-1.77,1.46,5,5,0,0,1-2.34.52,3.62,3.62,0,0,1-2.73-1,3.76,3.76,0,0,1-1-2.75,7.82,7.82,0,0,1,.4-2.52,6.72,6.72,0,0,1,1.16-2.12,5.37,5.37,0,0,1,1.79-1.44,5.1,5.1,0,0,1,2.31-.53,3.71,3.71,0,0,1,2.7,1A3.66,3.66,0,0,1,248.75,450.14Zm-2.69,3.71a5.45,5.45,0,0,0,.73-1.62,7.36,7.36,0,0,0,.25-2,2.64,2.64,0,0,0-.59-1.86,2.16,2.16,0,0,0-1.66-.63,2.83,2.83,0,0,0-1.53.41,3.77,3.77,0,0,0-1.17,1.12,5.23,5.23,0,0,0-.73,1.62,7.32,7.32,0,0,0-.25,1.94,2.68,2.68,0,0,0,.58,1.86,2.16,2.16,0,0,0,1.67.65,2.91,2.91,0,0,0,1.53-.4A3.6,3.6,0,0,0,246.06,453.85Z"/><path class="cls-4" d="M259.86,448.91a4.67,4.67,0,0,1,0,.57,3.69,3.69,0,0,1-.11.64l-1.47,6.37h-1.65l1.29-5.59c.07-.31.12-.58.16-.81a4.2,4.2,0,0,0,.06-.69,1.51,1.51,0,0,0-.37-1.12,1.85,1.85,0,0,0-1.31-.37,3.54,3.54,0,0,0-1.48.37,11.61,11.61,0,0,0-1.57.88l-1.69,7.33H250l2.26-9.82h1.65l-.25,1.09a9.69,9.69,0,0,1,1.77-1,4.3,4.3,0,0,1,1.69-.35,2.85,2.85,0,0,1,2,.65A2.38,2.38,0,0,1,259.86,448.91Z"/><path class="cls-4" d="M266.06,456.72a4.84,4.84,0,0,1-3.19-1,3.4,3.4,0,0,1-1.16-2.8,6.72,6.72,0,0,1,1.7-4.63,5.4,5.4,0,0,1,4.22-1.93,3.61,3.61,0,0,1,2.55.83,3,3,0,0,1,.89,2.33,7.46,7.46,0,0,1-.08.84q-.08.57-.24,1.32h-7.23a4.5,4.5,0,0,0-.08.51c0,.16,0,.31,0,.45a2.52,2.52,0,0,0,.76,1.95,3,3,0,0,0,2.14.71,5.74,5.74,0,0,0,2-.38,8.1,8.1,0,0,0,1.72-.85h.1l-.36,1.78-.79.29a6.77,6.77,0,0,1-.9.26q-.54.13-1,.21A7.59,7.59,0,0,1,266.06,456.72Zm3.3-6.21c0-.17.05-.31.06-.43a2.36,2.36,0,0,0,0-.39,2,2,0,0,0-.51-1.46,2.22,2.22,0,0,0-1.65-.53,3.5,3.5,0,0,0-2.22.77,3.88,3.88,0,0,0-1.31,2Z"/><path class="cls-4" d="M288.86,446.67l-2.26,9.82H285l.25-1.09a10.79,10.79,0,0,1-1.75,1,4.16,4.16,0,0,1-1.71.36,2.83,2.83,0,0,1-2-.64,2.37,2.37,0,0,1-.71-1.86,3.77,3.77,0,0,1,0-.58c0-.18.06-.4.11-.64l1.46-6.37h1.65L281,452.26a6.78,6.78,0,0,0-.15.78,4.4,4.4,0,0,0-.07.7,1.5,1.5,0,0,0,.38,1.13,1.82,1.82,0,0,0,1.3.38,3.76,3.76,0,0,0,1.49-.38,9.89,9.89,0,0,0,1.54-.86l1.69-7.34Z"/><path class="cls-4" d="M299.69,448.91a4.67,4.67,0,0,1,0,.57,5.08,5.08,0,0,1-.1.64l-1.48,6.37h-1.64l1.28-5.59c.07-.31.13-.58.16-.81a4.2,4.2,0,0,0,.06-.69,1.51,1.51,0,0,0-.37-1.12,1.85,1.85,0,0,0-1.31-.37,3.54,3.54,0,0,0-1.48.37,12.25,12.25,0,0,0-1.57.88l-1.69,7.33h-1.65l2.27-9.82h1.65l-.25,1.09a9.31,9.31,0,0,1,1.76-1,4.3,4.3,0,0,1,1.69-.35,2.85,2.85,0,0,1,2,.65A2.38,2.38,0,0,1,299.69,448.91Z"/><path class="cls-4" d="M307.48,455.44l-.64.4a6.21,6.21,0,0,1-.84.45,6.86,6.86,0,0,1-1,.34,5.39,5.39,0,0,1-1.27.13,2.7,2.7,0,0,1-1.9-.68,2.31,2.31,0,0,1-.73-1.78,3.59,3.59,0,0,1,.51-2,3.77,3.77,0,0,1,1.53-1.32,8.31,8.31,0,0,1,2.39-.72,26,26,0,0,1,3.2-.28c0-.16.07-.3.09-.42a2.33,2.33,0,0,0,0-.38,1.24,1.24,0,0,0-.17-.68,1.19,1.19,0,0,0-.48-.43,2.37,2.37,0,0,0-.71-.21,6.37,6.37,0,0,0-.9-.06,7.14,7.14,0,0,0-1.71.24,12.46,12.46,0,0,0-1.56.48h-.09l.33-1.65q.49-.13,1.47-.3a11,11,0,0,1,1.85-.17,5.15,5.15,0,0,1,2.74.58,2,2,0,0,1,.92,1.81,4.77,4.77,0,0,1,0,.5q0,.27-.09.51l-1.54,6.66h-1.64Zm1-4.13q-1.35.06-2.4.21a7.32,7.32,0,0,0-1.74.44,2.46,2.46,0,0,0-1.08.79,2,2,0,0,0-.37,1.23,1.13,1.13,0,0,0,.43,1,2.19,2.19,0,0,0,1.33.33,4,4,0,0,0,1.63-.35,8.93,8.93,0,0,0,1.55-.86Z"/><path class="cls-4" d="M328,450.14a7.89,7.89,0,0,1-.41,2.53,6.48,6.48,0,0,1-1.14,2.11,5.72,5.72,0,0,1-1.77,1.46,4.91,4.91,0,0,1-2.33.52,3.62,3.62,0,0,1-2.73-1,3.72,3.72,0,0,1-1-2.75,7.82,7.82,0,0,1,.4-2.52,6.69,6.69,0,0,1,1.15-2.12,5.58,5.58,0,0,1,1.79-1.44,5.17,5.17,0,0,1,2.32-.53,3.41,3.41,0,0,1,3.7,3.74Zm-2.69,3.71a5.19,5.19,0,0,0,.72-1.62,7.36,7.36,0,0,0,.25-2,2.64,2.64,0,0,0-.58-1.86,2.19,2.19,0,0,0-1.67-.63,2.82,2.82,0,0,0-1.52.41,3.56,3.56,0,0,0-1.17,1.12,5.23,5.23,0,0,0-.73,1.62,7.32,7.32,0,0,0-.26,1.94,2.68,2.68,0,0,0,.59,1.86,2.15,2.15,0,0,0,1.67.65,3,3,0,0,0,1.53-.4A3.6,3.6,0,0,0,325.35,453.85Z"/><path class="cls-4" d="M339.29,449.77a8.26,8.26,0,0,1-.45,2.75,7.46,7.46,0,0,1-1.2,2.18,5.79,5.79,0,0,1-1.76,1.45,4.55,4.55,0,0,1-2.14.53,5.54,5.54,0,0,1-1.45-.18,4.52,4.52,0,0,1-1.21-.52l-.95,4.13h-1.65l3.1-13.44h1.65l-.24,1a11.93,11.93,0,0,1,1.61-.94,4.18,4.18,0,0,1,1.75-.36,2.68,2.68,0,0,1,2.19.89A3.73,3.73,0,0,1,339.29,449.77Zm-1.73.32a2.53,2.53,0,0,0-.46-1.61,1.75,1.75,0,0,0-1.46-.57,3.62,3.62,0,0,0-1.51.36,10.35,10.35,0,0,0-1.46.82l-1.28,5.56a5.21,5.21,0,0,0,1.09.46,4.5,4.5,0,0,0,1.25.15,3.08,3.08,0,0,0,1.63-.44,3.74,3.74,0,0,0,1.2-1.14,5.27,5.27,0,0,0,.75-1.65A7.52,7.52,0,0,0,337.56,450.09Z"/><path class="cls-4" d="M344.78,456.71a5.89,5.89,0,0,1-1.65-.22,3.42,3.42,0,0,1-1.25-.7,3,3,0,0,1-.8-1.15,4.21,4.21,0,0,1-.28-1.61,7.51,7.51,0,0,1,.43-2.58,6.44,6.44,0,0,1,1.22-2.1,5.4,5.4,0,0,1,1.89-1.39,5.67,5.67,0,0,1,2.43-.52,5.38,5.38,0,0,1,1.62.24,7.61,7.61,0,0,1,1.34.56l-.36,1.79h-.1a5,5,0,0,0-.44-.37,3.3,3.3,0,0,0-.62-.39,3.82,3.82,0,0,0-.8-.32,3.41,3.41,0,0,0-1-.13,3.31,3.31,0,0,0-2.78,1.44,5.67,5.67,0,0,0-1.08,3.5,2.62,2.62,0,0,0,.64,1.9,2.36,2.36,0,0,0,1.81.67,3.87,3.87,0,0,0,1.11-.16,5.9,5.9,0,0,0,.94-.34,7.53,7.53,0,0,0,.8-.43l.53-.34h.1l-.35,1.8a12.91,12.91,0,0,1-1.62.6A6,6,0,0,1,344.78,456.71Z"/><path class="cls-4" d="M353.84,446.67l-2.27,9.82h-1.65l2.27-9.82Zm.9-3.36-.4,1.72h-1.87l.4-1.72Z"/><path class="cls-4" d="M364.5,450.14a7.89,7.89,0,0,1-.41,2.53,6.48,6.48,0,0,1-1.14,2.11,5.72,5.72,0,0,1-1.77,1.46,5,5,0,0,1-2.34.52,3.66,3.66,0,0,1-2.73-1,3.76,3.76,0,0,1-1-2.75,8.11,8.11,0,0,1,.4-2.52,6.92,6.92,0,0,1,1.16-2.12,5.48,5.48,0,0,1,1.79-1.44,5.14,5.14,0,0,1,2.32-.53,3.43,3.43,0,0,1,3.7,3.74Zm-2.69,3.71a5.7,5.7,0,0,0,.72-1.62,7.36,7.36,0,0,0,.25-2,2.6,2.6,0,0,0-.59-1.86,2.15,2.15,0,0,0-1.66-.63,2.83,2.83,0,0,0-1.53.41,3.77,3.77,0,0,0-1.17,1.12,5.47,5.47,0,0,0-.73,1.62,7.32,7.32,0,0,0-.25,1.94,2.68,2.68,0,0,0,.59,1.86,2.15,2.15,0,0,0,1.67.65,3,3,0,0,0,1.53-.4A3.8,3.8,0,0,0,361.81,453.85Zm2.61-12.09-3.12,3.29h-1.37l2.24-3.29Z"/><path class="cls-4" d="M375.6,448.91q0,.21,0,.57c0,.24-.07.45-.11.64L374,456.49h-1.64l1.28-5.59c.07-.31.13-.58.16-.81a4.2,4.2,0,0,0,.06-.69,1.51,1.51,0,0,0-.37-1.12,1.85,1.85,0,0,0-1.31-.37,3.54,3.54,0,0,0-1.48.37,12.25,12.25,0,0,0-1.57.88l-1.69,7.33h-1.65l2.27-9.82h1.65l-.25,1.09a9.31,9.31,0,0,1,1.76-1,4.34,4.34,0,0,1,1.69-.35,2.83,2.83,0,0,1,2,.65A2.35,2.35,0,0,1,375.6,448.91Z"/><path class="cls-5" d="M522.9,236.11H38V27.34H522.9ZM45.48,229.22h470v-195h-470Z"/><circle class="cls-5" cx="56.02" cy="44.77" r="37.4"/><path class="cls-3" d="M200.71,122.58h-14.2V102.94h14.2v3.8h-9.16v3.39h8.5v3.8h-8.5v4.85h9.16Z"/><path class="cls-3" d="M221.43,122.58h-5.86l-4.23-6.45-4.3,6.45h-5.6l7-9.89-6.81-9.75h5.84l4.08,6.12,4.2-6.12h5.61l-6.85,9.54Z"/><path class="cls-3" d="M250,102.94l-5.29,19.64h-5.61l-3.51-12.79-3.43,12.79h-5.6l-5.29-19.64h5.29l3,13.52,3.62-13.52h5l3.44,13.52,3.16-13.52Z"/><path class="cls-3" d="M280.56,122.58h-5V109.43L271.88,118h-3.49l-3.64-8.53v13.15H260V102.94h5.88l4.41,9.85,4.41-9.85h5.88Z"/><path class="cls-3" d="M298.56,116.05H287.7a3.4,3.4,0,0,0,1.32,2.66,5.85,5.85,0,0,0,3.59.93,7.89,7.89,0,0,0,2.92-.55,8.73,8.73,0,0,0,2.22-1.16h.53v3.82a17.24,17.24,0,0,1-3,.93,16.08,16.08,0,0,1-3.15.29q-4.46,0-6.83-2a7.07,7.07,0,0,1-2.37-5.71,7.65,7.65,0,0,1,2.25-5.81,8.54,8.54,0,0,1,6.16-2.14,7.37,7.37,0,0,1,5.43,1.82,7.15,7.15,0,0,1,1.82,5.26Zm-4.72-2.78a3.3,3.3,0,0,0-.74-2.24,2.83,2.83,0,0,0-2.17-.76,3.46,3.46,0,0,0-2.26.72,3,3,0,0,0-1,2.28Z"/><path class="cls-3" d="M315,122.58h-4.76V121a10.33,10.33,0,0,1-2.29,1.48,5.93,5.93,0,0,1-2.46.47,5.19,5.19,0,0,1-4.32-2.08,8.92,8.92,0,0,1-1.62-5.62,9.36,9.36,0,0,1,.55-3.34,7.69,7.69,0,0,1,1.49-2.5,6.24,6.24,0,0,1,2.17-1.53,6.42,6.42,0,0,1,2.56-.55,7.36,7.36,0,0,1,2.18.28,14.61,14.61,0,0,1,1.74.72v-6.3H315Zm-4.76-4.08v-7.28a4.54,4.54,0,0,0-1.05-.3,6.39,6.39,0,0,0-1-.09,3.36,3.36,0,0,0-2.8,1.17,5,5,0,0,0-.94,3.24,5.25,5.25,0,0,0,.75,3.16,2.82,2.82,0,0,0,2.41,1,4.4,4.4,0,0,0,1.37-.24A4.88,4.88,0,0,0,310.22,118.5Z"/><path class="cls-3" d="M332.72,116.05H321.86a3.4,3.4,0,0,0,1.32,2.66,5.88,5.88,0,0,0,3.6.93,7.87,7.87,0,0,0,2.91-.55,9,9,0,0,0,2.23-1.16h.53v3.82a17.59,17.59,0,0,1-3,.93,16.08,16.08,0,0,1-3.15.29q-4.45,0-6.83-2a7.07,7.07,0,0,1-2.37-5.71,7.65,7.65,0,0,1,2.25-5.81,8.55,8.55,0,0,1,6.16-2.14,7.37,7.37,0,0,1,5.43,1.82,7.11,7.11,0,0,1,1.82,5.26ZM328,113.27a3.25,3.25,0,0,0-.74-2.24,2.83,2.83,0,0,0-2.17-.76,3.46,3.46,0,0,0-2.26.72,3,3,0,0,0-1,2.28Z"/><path class="cls-3" d="M339.51,122.58h-4.76V102.06h4.76Z"/><path class="cls-3" d="M347.41,122.58h-4.76V102.06h4.76Z"/><path class="cls-3" d="M357.59,100.48v.26L353,105.66H349.7l3.26-5.18Zm-2.27,22.1h-4.76V107.77h4.76Z"/><path class="cls-3" d="M373.34,122.58h-4.76v-7.35a15.05,15.05,0,0,0-.1-1.78,3.8,3.8,0,0,0-.31-1.32,1.66,1.66,0,0,0-.77-.71,3.61,3.61,0,0,0-1.42-.22,4.32,4.32,0,0,0-1.31.21,6.8,6.8,0,0,0-1.45.67v10.5h-4.76V107.77h4.76v1.64a12.42,12.42,0,0,1,2.43-1.52,6.25,6.25,0,0,1,2.59-.53,5,5,0,0,1,3.75,1.4,5.79,5.79,0,0,1,1.35,4.18Z"/><path class="cls-3" d="M65.41,56.33H48.28v-3.6q2-1.42,3.93-3c1.32-1.06,2.37-2,3.16-2.75a15.41,15.41,0,0,0,2.52-3,5,5,0,0,0,.75-2.52,2.85,2.85,0,0,0-1-2.31,4.17,4.17,0,0,0-2.76-.81,8.11,8.11,0,0,0-2.84.55,13.35,13.35,0,0,0-2.76,1.43h-.47V35.46a17.26,17.26,0,0,1,3.07-.91A18.74,18.74,0,0,1,56,34.09a9.8,9.8,0,0,1,6.25,1.73,5.86,5.86,0,0,1,2.16,4.87,8,8,0,0,1-1,3.92,16.25,16.25,0,0,1-3.15,3.84c-.89.82-1.79,1.57-2.68,2.26S56,51.88,55.61,52.16h9.8Z"/></g></g></svg>