<svg xmlns="http://www.w3.org/2000/svg" viewBox="0 0 562.62 470.8"><defs><style>.cls-1,.cls-3{fill:#fff;}.cls-1{opacity:0;}.cls-2{fill:#035aa6;}.cls-4{fill:#ffd053;}.cls-5{fill:#84bf2c;}</style></defs><title>slide10_pregunta4</title><g id="Capa_2" data-name="Capa 2"><g id="Layer_7" data-name="Layer 7"><rect class="cls-1" width="562.62" height="470.8"/><rect class="cls-2" x="66.24" y="248.43" width="424.94" height="71.91" rx="12.02"/><path class="cls-3" d="M90.91,272.83H80.79V257.48H90.91v1.81H82.83v4.21h8.08v1.81H82.83V271h8.08Z"/><path class="cls-3" d="M103.62,272.83h-1.94v-6.56a11.7,11.7,0,0,0-.09-1.49,2.92,2.92,0,0,0-.34-1.08,1.59,1.59,0,0,0-.75-.65,3.16,3.16,0,0,0-1.25-.21,4,4,0,0,0-1.66.39,8.62,8.62,0,0,0-1.66,1v8.6H94V261.31h1.94v1.28a7.84,7.84,0,0,1,1.87-1.17,5,5,0,0,1,2-.43,3.58,3.58,0,0,1,2.85,1.13,4.81,4.81,0,0,1,1,3.24Z"/><path class="cls-3" d="M124.41,267.27h-8.48a4.75,4.75,0,0,0,.32,1.85,3.46,3.46,0,0,0,.87,1.3,3.53,3.53,0,0,0,1.28.74,5.19,5.19,0,0,0,1.62.25,6.53,6.53,0,0,0,2.37-.47,6.13,6.13,0,0,0,1.69-.92h.1v2.11a17.49,17.49,0,0,1-2,.69,8.31,8.31,0,0,1-2.14.28,6.18,6.18,0,0,1-4.47-1.55,5.83,5.83,0,0,1-1.61-4.41,6.34,6.34,0,0,1,1.54-4.49,5.3,5.3,0,0,1,4-1.66,4.66,4.66,0,0,1,3.6,1.37,5.45,5.45,0,0,1,1.26,3.86Zm-1.89-1.48a3.4,3.4,0,0,0-.76-2.36,3,3,0,0,0-2.31-.84,3.38,3.38,0,0,0-2.48.92,3.56,3.56,0,0,0-1,2.28Z"/><path class="cls-3" d="M129.31,272.83h-1.94v-16h1.94Z"/><path class="cls-3" d="M150.7,266.93a7.68,7.68,0,0,1-.4,2.56,5.61,5.61,0,0,1-1.14,2,4.74,4.74,0,0,1-3.55,1.6,6.33,6.33,0,0,1-1.63-.2,6.73,6.73,0,0,1-1.48-.61v4.83h-1.93V261.31h1.93v1.21a7.74,7.74,0,0,1,1.74-1.09,5,5,0,0,1,2.06-.44,3.79,3.79,0,0,1,3.24,1.58A7.24,7.24,0,0,1,150.7,266.93Zm-2,.05a5.56,5.56,0,0,0-.71-3.11,2.47,2.47,0,0,0-2.19-1,4.31,4.31,0,0,0-1.68.36,7.88,7.88,0,0,0-1.62.95v6.53a8.48,8.48,0,0,0,1.42.5,6.12,6.12,0,0,0,1.35.13,3.08,3.08,0,0,0,2.52-1.09A5,5,0,0,0,148.7,267Z"/><path class="cls-3" d="M163.27,272.83h-1.94v-1.28a9.38,9.38,0,0,1-1.88,1.19,4.77,4.77,0,0,1-2,.41,3.61,3.61,0,0,1-2.82-1.11,4.64,4.64,0,0,1-1-3.25v-7.48h1.94v6.56a10.94,10.94,0,0,0,.08,1.5,2.65,2.65,0,0,0,.35,1.07,1.63,1.63,0,0,0,.72.66,3.35,3.35,0,0,0,1.29.2,4.11,4.11,0,0,0,1.64-.39,7.47,7.47,0,0,0,1.67-1v-8.6h1.94Z"/><path class="cls-3" d="M176.72,267.27h-8.49a4.94,4.94,0,0,0,.32,1.85,3.42,3.42,0,0,0,2.15,2,5.3,5.3,0,0,0,1.63.25,6.44,6.44,0,0,0,2.36-.47,6.07,6.07,0,0,0,1.7-.92h.1v2.11a17.49,17.49,0,0,1-2,.69,8.31,8.31,0,0,1-2.14.28,6.22,6.22,0,0,1-4.48-1.55,5.86,5.86,0,0,1-1.6-4.41,6.34,6.34,0,0,1,1.54-4.49,5.28,5.28,0,0,1,4.05-1.66,4.67,4.67,0,0,1,3.6,1.37,5.45,5.45,0,0,1,1.26,3.86Zm-1.89-1.48a3.35,3.35,0,0,0-.77-2.36,2.93,2.93,0,0,0-2.3-.84,3.38,3.38,0,0,0-2.48.92,3.62,3.62,0,0,0-1.05,2.28Z"/><path class="cls-3" d="M186.84,263.43h-.1a6.77,6.77,0,0,0-.84-.15,8.72,8.72,0,0,0-1,0,4.1,4.1,0,0,0-1.74.4,8.13,8.13,0,0,0-1.6,1v8.18h-1.94V261.31h1.94V263a9.52,9.52,0,0,1,2-1.32,4.42,4.42,0,0,1,1.8-.39,6.17,6.17,0,0,1,.73,0l.68.1Z"/><path class="cls-3" d="M194.65,272.73a12,12,0,0,1-1.19.23,7.25,7.25,0,0,1-1.15.1,3.56,3.56,0,0,1-2.68-.95,4.22,4.22,0,0,1-.92-3v-6.13H187.4v-1.63h1.31V258h1.94v3.3h4v1.63h-4v5.25c0,.6,0,1.08,0,1.42a2.24,2.24,0,0,0,.29.95,1.33,1.33,0,0,0,.62.6,2.85,2.85,0,0,0,1.21.2,3.87,3.87,0,0,0,1-.14,6.49,6.49,0,0,0,.74-.24h.11Z"/><path class="cls-3" d="M206.8,267.08a6.48,6.48,0,0,1-1.44,4.44,5.42,5.42,0,0,1-7.75,0,7.58,7.58,0,0,1,0-8.89,5.4,5.4,0,0,1,7.75,0A6.49,6.49,0,0,1,206.8,267.08Zm-2,0a5.24,5.24,0,0,0-.88-3.33,3.28,3.28,0,0,0-4.88,0,5.3,5.3,0,0,0-.87,3.33,5.19,5.19,0,0,0,.88,3.28,3.22,3.22,0,0,0,4.87,0A5.21,5.21,0,0,0,204.8,267.08Z"/><path class="cls-3" d="M226.56,272.83h-1.93v-1.21a6.86,6.86,0,0,1-1.75,1.13,4.75,4.75,0,0,1-2,.4,3.9,3.9,0,0,1-3.27-1.59,7.1,7.1,0,0,1-1.21-4.4,7.52,7.52,0,0,1,.42-2.61A6,6,0,0,1,218,262.6a4.83,4.83,0,0,1,3.56-1.61,6,6,0,0,1,1.61.2,7,7,0,0,1,1.48.59v-5h1.93ZM224.63,270v-6.6a7,7,0,0,0-1.41-.49,6.31,6.31,0,0,0-1.35-.13,3.07,3.07,0,0,0-2.53,1.13,5,5,0,0,0-.91,3.22,5.68,5.68,0,0,0,.7,3.12,2.5,2.5,0,0,0,2.25,1.06,4.26,4.26,0,0,0,1.67-.36A7.29,7.29,0,0,0,224.63,270Z"/><path class="cls-3" d="M240,267.27h-8.49a4.94,4.94,0,0,0,.32,1.85,3.42,3.42,0,0,0,2.15,2,5.21,5.21,0,0,0,1.63.25,6.44,6.44,0,0,0,2.36-.47,6.07,6.07,0,0,0,1.7-.92h.1v2.11a17.49,17.49,0,0,1-2,.69,8.37,8.37,0,0,1-2.14.28,6.21,6.21,0,0,1-4.48-1.55,5.87,5.87,0,0,1-1.61-4.41,6.39,6.39,0,0,1,1.54-4.49,5.31,5.31,0,0,1,4.06-1.66,4.64,4.64,0,0,1,3.59,1.37,5.41,5.41,0,0,1,1.27,3.86Zm-1.89-1.48a3.4,3.4,0,0,0-.77-2.36,2.93,2.93,0,0,0-2.3-.84,3.36,3.36,0,0,0-2.48.92,3.57,3.57,0,0,0-1.05,2.28Z"/><path class="cls-3" d="M262.39,271.72c-.38.16-.72.31-1,.46a8.9,8.9,0,0,1-1.2.45,11.74,11.74,0,0,1-1.36.34,9.17,9.17,0,0,1-1.63.14,9.35,9.35,0,0,1-3-.47,6,6,0,0,1-2.38-1.47,6.64,6.64,0,0,1-1.55-2.49,11.29,11.29,0,0,1,0-6.9,7,7,0,0,1,1.55-2.53,6.53,6.53,0,0,1,2.36-1.52,8.66,8.66,0,0,1,3.08-.53,10.37,10.37,0,0,1,2.47.3,13.28,13.28,0,0,1,2.74,1.05V261h-.16a9.11,9.11,0,0,0-2.51-1.54,7.36,7.36,0,0,0-2.67-.49,5.57,5.57,0,0,0-2.1.38,4.5,4.5,0,0,0-1.66,1.17,5.3,5.3,0,0,0-1.11,1.95,8.44,8.44,0,0,0-.4,2.73,7.91,7.91,0,0,0,.44,2.78,5.57,5.57,0,0,0,1.13,1.9A4.54,4.54,0,0,0,255,271a5.81,5.81,0,0,0,2,.37,7.44,7.44,0,0,0,2.76-.51,7.88,7.88,0,0,0,2.41-1.52h.15Z"/><path class="cls-3" d="M274.93,267.08a6.48,6.48,0,0,1-1.44,4.44,5.42,5.42,0,0,1-7.75,0,7.62,7.62,0,0,1,0-8.89,5.4,5.4,0,0,1,7.75,0A6.49,6.49,0,0,1,274.93,267.08Zm-2,0a5.3,5.3,0,0,0-.87-3.33,3.28,3.28,0,0,0-4.88,0,6.71,6.71,0,0,0,0,6.61,3.22,3.22,0,0,0,4.87,0A5.21,5.21,0,0,0,272.93,267.08Z"/><path class="cls-3" d="M279.89,272.83H278v-16h1.93Z"/><path class="cls-3" d="M293.54,267.08a6.48,6.48,0,0,1-1.44,4.44,5.42,5.42,0,0,1-7.75,0,7.58,7.58,0,0,1,0-8.89,5.4,5.4,0,0,1,7.75,0A6.49,6.49,0,0,1,293.54,267.08Zm-2,0a5.3,5.3,0,0,0-.87-3.33,3.28,3.28,0,0,0-4.88,0,6.65,6.65,0,0,0,0,6.61,3.22,3.22,0,0,0,4.87,0A5.21,5.21,0,0,0,291.54,267.08Zm-.1-11.53-2.81,3.86h-1.54l1.84-3.86Z"/><path class="cls-3" d="M306.17,272.83h-1.94v-6.56a11.7,11.7,0,0,0-.09-1.49,2.59,2.59,0,0,0-.34-1.08,1.57,1.57,0,0,0-.74-.65,3.18,3.18,0,0,0-1.26-.21,4,4,0,0,0-1.66.39,8.62,8.62,0,0,0-1.66,1v8.6h-1.94V261.31h1.94v1.28a7.89,7.89,0,0,1,1.88-1.17,5,5,0,0,1,2-.43,3.56,3.56,0,0,1,2.84,1.13,4.75,4.75,0,0,1,1,3.24Z"/><path class="cls-3" d="M313.92,269.89l-2.9,6.75h-1.51l1.8-6.75Z"/><path class="cls-3" d="M334,272.83H332V271.6l-.7.49a4.48,4.48,0,0,1-.85.5,5.73,5.73,0,0,1-1.11.4,5.88,5.88,0,0,1-1.48.16,3.74,3.74,0,0,1-2.64-1,3.49,3.49,0,0,1-1.08-2.63,3.69,3.69,0,0,1,.56-2.12,3.77,3.77,0,0,1,1.61-1.27,8.6,8.6,0,0,1,2.52-.63c1-.11,2-.19,3.17-.25v-.3a2.35,2.35,0,0,0-.23-1.09,1.69,1.69,0,0,0-.67-.68,2.57,2.57,0,0,0-1-.32,9.34,9.34,0,0,0-1.21-.08,7.88,7.88,0,0,0-1.7.2,13.1,13.1,0,0,0-1.93.58h-.11v-2c.38-.1.93-.21,1.64-.34A12.85,12.85,0,0,1,329,261a9.35,9.35,0,0,1,2.11.21,4.07,4.07,0,0,1,1.57.68,3.14,3.14,0,0,1,1,1.23A4.63,4.63,0,0,1,334,265ZM332,270v-3.2c-.59,0-1.29.08-2.09.15a11,11,0,0,0-1.9.3,3.14,3.14,0,0,0-1.35.74,1.8,1.8,0,0,0-.52,1.38,1.84,1.84,0,0,0,.6,1.49,2.83,2.83,0,0,0,1.83.5,4.4,4.4,0,0,0,1.86-.4A8.35,8.35,0,0,0,332,270Z"/><path class="cls-3" d="M355.24,267a7.8,7.8,0,0,1-.4,2.6,6,6,0,0,1-1.1,1.94,5.09,5.09,0,0,1-1.61,1.22,4.54,4.54,0,0,1-1.93.41,5.85,5.85,0,0,1-1.71-.23,8.28,8.28,0,0,1-1.44-.63l-.13.54h-1.81v-16h1.94v5.73a8.15,8.15,0,0,1,1.73-1.1,4.9,4.9,0,0,1,2.06-.43,3.82,3.82,0,0,1,3.22,1.57A7.22,7.22,0,0,1,355.24,267Zm-2,0a5.78,5.78,0,0,0-.68-3.12,2.4,2.4,0,0,0-2.19-1.07,4.22,4.22,0,0,0-1.71.37,6.66,6.66,0,0,0-1.61.94v6.6a8.33,8.33,0,0,0,1.42.51,5.43,5.43,0,0,0,1.34.15,3.17,3.17,0,0,0,2.52-1.06A5,5,0,0,0,353.24,267Z"/><path class="cls-3" d="M368.08,267.08a6.48,6.48,0,0,1-1.44,4.44,5.42,5.42,0,0,1-7.75,0,7.58,7.58,0,0,1,0-8.89,5.4,5.4,0,0,1,7.75,0A6.49,6.49,0,0,1,368.08,267.08Zm-2,0a5.24,5.24,0,0,0-.88-3.33,3.28,3.28,0,0,0-4.88,0,5.3,5.3,0,0,0-.87,3.33,5.19,5.19,0,0,0,.88,3.28,2.9,2.9,0,0,0,2.44,1.12,2.94,2.94,0,0,0,2.43-1.11A5.27,5.27,0,0,0,366.08,267.08Z"/><path class="cls-3" d="M378.26,263.43h-.1a6.77,6.77,0,0,0-.84-.15,8.72,8.72,0,0,0-1,0,4.1,4.1,0,0,0-1.74.4,8.13,8.13,0,0,0-1.6,1v8.18h-1.94V261.31H373V263a9.78,9.78,0,0,1,2-1.32,4.42,4.42,0,0,1,1.8-.39,6.17,6.17,0,0,1,.73,0l.68.1Z"/><path class="cls-3" d="M389.43,272.83h-1.94v-1.21a7,7,0,0,1-1.74,1.13,4.79,4.79,0,0,1-2,.4,3.88,3.88,0,0,1-3.27-1.59,7.1,7.1,0,0,1-1.22-4.4,7.52,7.52,0,0,1,.42-2.61,6.21,6.21,0,0,1,1.13-1.95,4.83,4.83,0,0,1,3.57-1.61,6.06,6.06,0,0,1,1.61.2,7.16,7.16,0,0,1,1.47.59v-5h1.94ZM387.49,270v-6.6a7,7,0,0,0-1.4-.49,6.31,6.31,0,0,0-1.35-.13,3.09,3.09,0,0,0-2.54,1.13,5.08,5.08,0,0,0-.91,3.22,5.67,5.67,0,0,0,.71,3.12,2.47,2.47,0,0,0,2.24,1.06,4.22,4.22,0,0,0,1.67-.36A7.06,7.06,0,0,0,387.49,270Z"/><path class="cls-3" d="M403.06,267.08a6.44,6.44,0,0,1-1.45,4.44,5.41,5.41,0,0,1-7.74,0,7.58,7.58,0,0,1,0-8.89,5.39,5.39,0,0,1,7.74,0A6.45,6.45,0,0,1,403.06,267.08Zm-2,0a5.3,5.3,0,0,0-.88-3.33,3.28,3.28,0,0,0-4.88,0,6.71,6.71,0,0,0,0,6.61,3.23,3.23,0,0,0,4.88,0A5.27,5.27,0,0,0,401.06,267.08Z"/><path class="cls-3" d="M422.82,272.83h-1.94v-1.21a7,7,0,0,1-1.74,1.13,4.79,4.79,0,0,1-2,.4,3.89,3.89,0,0,1-3.27-1.59,7.1,7.1,0,0,1-1.21-4.4,7.77,7.77,0,0,1,.41-2.61,6.21,6.21,0,0,1,1.13-1.95A4.87,4.87,0,0,1,417.8,261a6.06,6.06,0,0,1,1.61.2,6.94,6.94,0,0,1,1.47.59v-5h1.94ZM420.88,270v-6.6a7,7,0,0,0-1.4-.49,6.31,6.31,0,0,0-1.35-.13,3.09,3.09,0,0,0-2.54,1.13,5.08,5.08,0,0,0-.9,3.22,5.68,5.68,0,0,0,.7,3.12,2.47,2.47,0,0,0,2.24,1.06,4.22,4.22,0,0,0,1.67-.36A7.06,7.06,0,0,0,420.88,270Z"/><path class="cls-3" d="M436.27,267.27h-8.48a4.75,4.75,0,0,0,.32,1.85,3.46,3.46,0,0,0,.87,1.3,3.62,3.62,0,0,0,1.28.74,5.19,5.19,0,0,0,1.62.25,6.53,6.53,0,0,0,2.37-.47,6,6,0,0,0,1.69-.92h.11v2.11a18.18,18.18,0,0,1-2,.69,8.39,8.39,0,0,1-2.15.28,6.18,6.18,0,0,1-4.47-1.55,5.87,5.87,0,0,1-1.61-4.41,6.34,6.34,0,0,1,1.54-4.49,5.31,5.31,0,0,1,4.06-1.66,4.65,4.65,0,0,1,3.59,1.37,5.45,5.45,0,0,1,1.26,3.86Zm-1.88-1.48a3.45,3.45,0,0,0-.77-2.36,3,3,0,0,0-2.31-.84,3.35,3.35,0,0,0-2.47.92,3.52,3.52,0,0,0-1,2.28Z"/><path class="cls-3" d="M441.17,272.83h-1.94v-16h1.94Z"/><path class="cls-3" d="M90.77,294.7a7.53,7.53,0,0,1-.41,2.59,5.77,5.77,0,0,1-1.09,1.94,5.09,5.09,0,0,1-1.61,1.22,4.57,4.57,0,0,1-1.93.41,5.85,5.85,0,0,1-1.71-.23,7.59,7.59,0,0,1-1.44-.63l-.13.54H80.64v-16h1.94v5.73a8.15,8.15,0,0,1,1.73-1.1,4.9,4.9,0,0,1,2.06-.43,3.83,3.83,0,0,1,3.22,1.57A7.23,7.23,0,0,1,90.77,294.7Zm-2,.05a5.8,5.8,0,0,0-.68-3.13,2.4,2.4,0,0,0-2.19-1.07,4.3,4.3,0,0,0-1.72.37,6.79,6.79,0,0,0-1.6.94v6.6A8.58,8.58,0,0,0,84,299a5.58,5.58,0,0,0,1.35.15,3.14,3.14,0,0,0,2.52-1.06A5,5,0,0,0,88.77,294.75Z"/><path class="cls-3" d="M103.34,300.54H101.4v-1.28a9.38,9.38,0,0,1-1.88,1.19,4.71,4.71,0,0,1-2,.41,3.62,3.62,0,0,1-2.82-1.11,4.69,4.69,0,0,1-1-3.25V289h1.94v6.55a12.55,12.55,0,0,0,.08,1.5,2.81,2.81,0,0,0,.35,1.07,1.75,1.75,0,0,0,.72.66,3.14,3.14,0,0,0,1.29.21,4.22,4.22,0,0,0,1.65-.4,7.41,7.41,0,0,0,1.66-1V289h1.94Z"/><path class="cls-3" d="M116.49,304.79h-1.94v-5.55a6.63,6.63,0,0,1-1.78,1.15,4.87,4.87,0,0,1-1.92.38,3.93,3.93,0,0,1-3.27-1.58,7,7,0,0,1-1.22-4.37,7.27,7.27,0,0,1,.43-2.62,5.84,5.84,0,0,1,1.13-1.92,4.77,4.77,0,0,1,3.53-1.58,6.3,6.3,0,0,1,1.65.21,7.37,7.37,0,0,1,1.45.61l.13-.49h1.81Zm-1.94-7.18V291.1a8.29,8.29,0,0,0-1.42-.51,6.26,6.26,0,0,0-1.34-.14,3,3,0,0,0-2.56,1.14,5.05,5.05,0,0,0-.87,3.14,5.69,5.69,0,0,0,.7,3.1,2.47,2.47,0,0,0,2.23,1.09,4.32,4.32,0,0,0,1.69-.36A7,7,0,0,0,114.55,297.61Z"/><path class="cls-3" d="M129.85,300.54h-1.93v-1.28a9.66,9.66,0,0,1-1.88,1.19,4.77,4.77,0,0,1-2,.41,3.65,3.65,0,0,1-2.83-1.11,4.69,4.69,0,0,1-1-3.25V289h1.94v6.55a10.58,10.58,0,0,0,.09,1.5,2.65,2.65,0,0,0,.35,1.07,1.63,1.63,0,0,0,.72.66,3.08,3.08,0,0,0,1.29.21,4.13,4.13,0,0,0,1.64-.4,7.7,7.7,0,0,0,1.67-1V289h1.93Z"/><path class="cls-3" d="M143.31,295h-8.49a4.94,4.94,0,0,0,.32,1.85,3.48,3.48,0,0,0,.88,1.3,3.57,3.57,0,0,0,1.27.74,5.19,5.19,0,0,0,1.62.25,6.45,6.45,0,0,0,2.37-.47,6,6,0,0,0,1.7-.92h.1v2.11a15.75,15.75,0,0,1-2,.69,8.39,8.39,0,0,1-2.15.28,6.18,6.18,0,0,1-4.47-1.55,5.87,5.87,0,0,1-1.61-4.41,6.35,6.35,0,0,1,1.54-4.48,5.28,5.28,0,0,1,4.06-1.67,4.65,4.65,0,0,1,3.59,1.37,5.41,5.41,0,0,1,1.27,3.86Zm-1.89-1.48a3.42,3.42,0,0,0-.77-2.36,2.93,2.93,0,0,0-2.3-.84,3.36,3.36,0,0,0-2.48.92,3.52,3.52,0,0,0-1.05,2.28Z"/><path class="cls-3" d="M149.41,300.54H147V297.6h2.46Z"/><rect class="cls-2" x="66.8" y="330.73" width="424.94" height="71.91" rx="12.02"/><path class="cls-3" d="M93.45,355.13H91.28l-1.51-4.27H83.13l-1.5,4.27H79.55l5.59-15.35h2.72Zm-4.31-6-2.69-7.53-2.7,7.53Z"/><path class="cls-3" d="M105,355.13h-1.94v-16H105Z"/><path class="cls-3" d="M117.79,355.13h-1.93v-1.22l-.69.49a5.51,5.51,0,0,1-.85.5,5.24,5.24,0,0,1-1.12.39,5.8,5.8,0,0,1-1.47.16,3.67,3.67,0,0,1-2.64-1,3.46,3.46,0,0,1-1.08-2.63,3.65,3.65,0,0,1,.56-2.11,3.81,3.81,0,0,1,1.6-1.28,8.75,8.75,0,0,1,2.53-.63c1-.11,2-.19,3.16-.24v-.3a2.27,2.27,0,0,0-.23-1.1,1.72,1.72,0,0,0-.66-.68,3.11,3.11,0,0,0-1-.32,9.46,9.46,0,0,0-1.21-.08,8.48,8.48,0,0,0-1.7.2,13.68,13.68,0,0,0-1.94.59H109v-2a15.44,15.44,0,0,1,1.64-.34,11.74,11.74,0,0,1,2.11-.19,10.11,10.11,0,0,1,2.12.2,4.27,4.27,0,0,1,1.56.69,3,3,0,0,1,1,1.22,4.53,4.53,0,0,1,.34,1.87Zm-1.93-2.83v-3.21l-2.08.16a10.83,10.83,0,0,0-1.9.3,3.12,3.12,0,0,0-1.36.73,1.86,1.86,0,0,0-.51,1.38,1.82,1.82,0,0,0,.6,1.49,2.8,2.8,0,0,0,1.82.5,4.3,4.3,0,0,0,1.87-.4A8.23,8.23,0,0,0,115.86,352.3Z"/><path class="cls-3" d="M138.59,349.58H130.1a5,5,0,0,0,.32,1.85,3.44,3.44,0,0,0,.88,1.29,3.35,3.35,0,0,0,1.27.74,4.92,4.92,0,0,0,1.62.25,6.26,6.26,0,0,0,2.37-.47,6,6,0,0,0,1.7-.92h.1v2.11a14.32,14.32,0,0,1-2,.69,8,8,0,0,1-2.15.28,6.14,6.14,0,0,1-4.47-1.55,5.84,5.84,0,0,1-1.61-4.41,6.36,6.36,0,0,1,1.54-4.48,5.27,5.27,0,0,1,4.06-1.66,4.64,4.64,0,0,1,3.59,1.36,5.5,5.5,0,0,1,1.27,3.87Zm-1.89-1.49a3.43,3.43,0,0,0-.77-2.36,3,3,0,0,0-2.3-.83,3.32,3.32,0,0,0-2.48.92,3.52,3.52,0,0,0-1.05,2.27Z"/><path class="cls-3" d="M151.15,355.13h-1.94v-6.55a11.58,11.58,0,0,0-.09-1.49,2.59,2.59,0,0,0-.34-1.09,1.55,1.55,0,0,0-.74-.64,3.18,3.18,0,0,0-1.26-.21,4,4,0,0,0-1.66.39,8.14,8.14,0,0,0-1.66,1v8.59h-1.94V343.62h1.94v1.28a7.94,7.94,0,0,1,1.88-1.18,4.94,4.94,0,0,1,2-.42,3.56,3.56,0,0,1,2.84,1.12,4.75,4.75,0,0,1,1,3.24Z"/><path class="cls-3" d="M160.86,355a9.26,9.26,0,0,1-1.19.24,8.38,8.38,0,0,1-1.15.09,3.54,3.54,0,0,1-2.68-.95,4.25,4.25,0,0,1-.91-3v-6.12h-1.31v-1.63h1.31v-3.31h1.93v3.31h4v1.63h-4v5.25c0,.6,0,1.07,0,1.41a2.49,2.49,0,0,0,.29,1,1.4,1.4,0,0,0,.63.6,2.87,2.87,0,0,0,1.21.19,4,4,0,0,0,1-.14,7,7,0,0,0,.74-.23h.1Z"/><path class="cls-3" d="M170.39,345.73h-.1a6.77,6.77,0,0,0-.84-.15,9.29,9.29,0,0,0-1,0,4,4,0,0,0-1.73.39,8.26,8.26,0,0,0-1.61,1v8.17H163.2V343.62h1.94v1.7a9.09,9.09,0,0,1,2-1.31,4.36,4.36,0,0,1,1.8-.39,6.29,6.29,0,0,1,.73,0l.68.09Z"/><path class="cls-3" d="M180.79,355.13h-1.93v-1.22l-.69.49a6,6,0,0,1-.85.5,5.44,5.44,0,0,1-1.12.39,5.85,5.85,0,0,1-1.47.16,3.67,3.67,0,0,1-2.64-1,3.46,3.46,0,0,1-1.08-2.63,3.58,3.58,0,0,1,.56-2.11,3.75,3.75,0,0,1,1.6-1.28,8.67,8.67,0,0,1,2.53-.63c1-.11,2-.19,3.16-.24v-.3a2.27,2.27,0,0,0-.23-1.1,1.79,1.79,0,0,0-.66-.68,3.11,3.11,0,0,0-1-.32,9.46,9.46,0,0,0-1.21-.08,8.4,8.4,0,0,0-1.7.2,13.29,13.29,0,0,0-1.94.59H172v-2a15.44,15.44,0,0,1,1.64-.34,11.74,11.74,0,0,1,2.11-.19,10.11,10.11,0,0,1,2.12.2,4.27,4.27,0,0,1,1.56.69,3,3,0,0,1,1,1.22,4.53,4.53,0,0,1,.34,1.87Zm-1.93-2.83v-3.21l-2.09.16a11,11,0,0,0-1.9.3,3.14,3.14,0,0,0-1.35.73,2.15,2.15,0,0,0,.08,2.87,2.83,2.83,0,0,0,1.83.5,4.3,4.3,0,0,0,1.87-.4A8.23,8.23,0,0,0,178.86,352.3Z"/><path class="cls-3" d="M193.86,355.13h-1.94v-1.2a6.86,6.86,0,0,1-1.74,1.12,4.75,4.75,0,0,1-2,.4,3.92,3.92,0,0,1-3.27-1.58,7.11,7.11,0,0,1-1.21-4.41,7.5,7.5,0,0,1,.42-2.6,5.8,5.8,0,0,1,1.12-1.95,4.93,4.93,0,0,1,1.64-1.2,4.78,4.78,0,0,1,1.93-.41,6,6,0,0,1,1.61.19,7.92,7.92,0,0,1,1.47.59v-5h1.94Zm-1.94-2.83v-6.61a7.52,7.52,0,0,0-1.4-.48,6.29,6.29,0,0,0-1.35-.14,3,3,0,0,0-2.53,1.14,5,5,0,0,0-.91,3.21,5.68,5.68,0,0,0,.7,3.12,2.5,2.5,0,0,0,2.25,1.07,4.11,4.11,0,0,0,1.67-.37A7,7,0,0,0,191.92,352.3Z"/><path class="cls-3" d="M206.62,355.13H204.7v-1.22l-.7.49a5.08,5.08,0,0,1-.85.5,5.15,5.15,0,0,1-1.11.39,5.88,5.88,0,0,1-1.48.16,3.67,3.67,0,0,1-2.64-1,3.46,3.46,0,0,1-1.08-2.63,3.65,3.65,0,0,1,.56-2.11A3.78,3.78,0,0,1,199,348.4a8.6,8.6,0,0,1,2.52-.63c1-.11,2-.19,3.17-.24v-.3a2.27,2.27,0,0,0-.24-1.1,1.72,1.72,0,0,0-.66-.68,3.11,3.11,0,0,0-1-.32,9.34,9.34,0,0,0-1.21-.08,8.56,8.56,0,0,0-1.7.2,13.18,13.18,0,0,0-1.93.59h-.11v-2a16,16,0,0,1,1.64-.34,11.82,11.82,0,0,1,2.11-.19,10,10,0,0,1,2.12.2,4.27,4.27,0,0,1,1.56.69,2.89,2.89,0,0,1,1,1.22,4.53,4.53,0,0,1,.34,1.87Zm-1.92-2.83v-3.21l-2.09.16a10.83,10.83,0,0,0-1.9.3,3,3,0,0,0-1.35.73,2.12,2.12,0,0,0,.08,2.87,2.82,2.82,0,0,0,1.82.5,4.27,4.27,0,0,0,1.87-.4A8.31,8.31,0,0,0,204.7,352.3Z"/><path class="cls-3" d="M227.12,355.13h-1.94v-1.2a7.23,7.23,0,0,1-1.74,1.12,4.79,4.79,0,0,1-2,.4,3.91,3.91,0,0,1-3.27-1.58,7.11,7.11,0,0,1-1.22-4.41,7.5,7.5,0,0,1,.42-2.6,6,6,0,0,1,1.13-1.95,4.83,4.83,0,0,1,1.64-1.2,4.78,4.78,0,0,1,1.93-.41,6.08,6.08,0,0,1,1.61.19,8.2,8.2,0,0,1,1.47.59v-5h1.94Zm-1.94-2.83v-6.61a7.52,7.52,0,0,0-1.4-.48,6.29,6.29,0,0,0-1.35-.14,3.07,3.07,0,0,0-2.54,1.14,5,5,0,0,0-.91,3.21,5.67,5.67,0,0,0,.71,3.12,2.48,2.48,0,0,0,2.24,1.07,4.07,4.07,0,0,0,1.67-.37A7,7,0,0,0,225.18,352.3Z"/><path class="cls-3" d="M240.57,349.58h-8.48a4.78,4.78,0,0,0,.32,1.85,3.38,3.38,0,0,0,2.15,2,4.92,4.92,0,0,0,1.62.25,6.33,6.33,0,0,0,2.37-.47,5.74,5.74,0,0,0,1.69-.92h.11v2.11a14.78,14.78,0,0,1-2,.69,8,8,0,0,1-2.15.28,6.14,6.14,0,0,1-4.47-1.55,5.8,5.8,0,0,1-1.61-4.41,6.32,6.32,0,0,1,1.54-4.48,5.27,5.27,0,0,1,4.06-1.66,4.64,4.64,0,0,1,3.59,1.36,5.5,5.5,0,0,1,1.26,3.87Zm-1.89-1.49a3.43,3.43,0,0,0-.76-2.36,3,3,0,0,0-2.31-.83,3.35,3.35,0,0,0-2.48.92,3.56,3.56,0,0,0-1,2.27Z"/><path class="cls-3" d="M252.89,355.13H251v-16h1.94Z"/><path class="cls-3" d="M265.68,355.13h-1.93v-1.22l-.7.49a5.08,5.08,0,0,1-.85.5,5.15,5.15,0,0,1-1.11.39,5.88,5.88,0,0,1-1.48.16,3.7,3.7,0,0,1-2.64-1,3.46,3.46,0,0,1-1.08-2.63,3.65,3.65,0,0,1,.56-2.11,3.78,3.78,0,0,1,1.61-1.28,8.6,8.6,0,0,1,2.52-.63c1-.11,2-.19,3.17-.24v-.3a2.27,2.27,0,0,0-.24-1.1,1.72,1.72,0,0,0-.66-.68,3,3,0,0,0-1-.32,9.34,9.34,0,0,0-1.21-.08,8.56,8.56,0,0,0-1.7.2,13.18,13.18,0,0,0-1.93.59h-.11v-2a16,16,0,0,1,1.64-.34,11.85,11.85,0,0,1,2.12-.19,10,10,0,0,1,2.11.2,4.24,4.24,0,0,1,1.57.69,3,3,0,0,1,1,1.22,4.7,4.7,0,0,1,.34,1.87Zm-1.93-2.83v-3.21l-2.09.16a10.83,10.83,0,0,0-1.9.3,3,3,0,0,0-1.35.73,2.12,2.12,0,0,0,.08,2.87,2.82,2.82,0,0,0,1.82.5,4.27,4.27,0,0,0,1.87-.4A8.31,8.31,0,0,0,263.75,352.3Z"/><path class="cls-3" d="M278.91,341.69h-2.18v-2h2.18Zm-.12,13.44h-1.94V343.62h1.94Z"/><path class="cls-3" d="M292.25,355.13h-1.94v-6.55a11.58,11.58,0,0,0-.09-1.49,2.59,2.59,0,0,0-.34-1.09,1.55,1.55,0,0,0-.74-.64,3.18,3.18,0,0,0-1.26-.21,4,4,0,0,0-1.66.39,8.14,8.14,0,0,0-1.66,1v8.59h-1.94V343.62h1.94v1.28a7.94,7.94,0,0,1,1.88-1.18,4.94,4.94,0,0,1,2-.42,3.56,3.56,0,0,1,2.84,1.12,4.75,4.75,0,0,1,1,3.24Z"/><path class="cls-3" d="M304.21,351.82a3.11,3.11,0,0,1-1.3,2.58,5.65,5.65,0,0,1-3.57,1,8.61,8.61,0,0,1-2.34-.3,10.27,10.27,0,0,1-1.79-.67v-2.17h.1a8,8,0,0,0,2,1.1,6.36,6.36,0,0,0,2.16.4,4,4,0,0,0,2-.41,1.39,1.39,0,0,0,.72-1.3,1.33,1.33,0,0,0-.39-1,3.62,3.62,0,0,0-1.51-.6l-1.07-.21c-.45-.09-.85-.17-1.21-.27a4,4,0,0,1-2.15-1.18,2.9,2.9,0,0,1-.64-1.91,3.06,3.06,0,0,1,.3-1.34,3.16,3.16,0,0,1,.89-1.13,4.25,4.25,0,0,1,1.47-.77,6.83,6.83,0,0,1,2-.28,9.46,9.46,0,0,1,2.09.25,8.13,8.13,0,0,1,1.76.62v2.07h-.11a6.6,6.6,0,0,0-1.8-.92,6.24,6.24,0,0,0-2.08-.38,3.68,3.68,0,0,0-1.8.41,1.43,1.43,0,0,0-.29,2.28,3.48,3.48,0,0,0,1.41.59l1.2.25c.44.08.81.15,1.11.22a4.15,4.15,0,0,1,2.08,1.06A2.81,2.81,0,0,1,304.21,351.82Z"/><path class="cls-3" d="M313,355a9.26,9.26,0,0,1-1.19.24,8.38,8.38,0,0,1-1.15.09,3.54,3.54,0,0,1-2.68-.95,4.25,4.25,0,0,1-.92-3v-6.12h-1.3v-1.63H307v-3.31H309v3.31h4v1.63h-4v5.25c0,.6,0,1.07,0,1.41a2.49,2.49,0,0,0,.29,1,1.4,1.4,0,0,0,.63.6,2.87,2.87,0,0,0,1.21.19,4,4,0,0,0,1-.14,7,7,0,0,0,.74-.23h.1Z"/><path class="cls-3" d="M324.25,355.13h-1.93v-1.22l-.69.49a5.51,5.51,0,0,1-.85.5,5.44,5.44,0,0,1-1.12.39,5.85,5.85,0,0,1-1.47.16,3.67,3.67,0,0,1-2.64-1,3.46,3.46,0,0,1-1.08-2.63,3.65,3.65,0,0,1,.56-2.11,3.75,3.75,0,0,1,1.6-1.28,8.67,8.67,0,0,1,2.53-.63c1-.11,2-.19,3.16-.24v-.3a2.27,2.27,0,0,0-.23-1.1,1.72,1.72,0,0,0-.66-.68,3.11,3.11,0,0,0-1-.32,9.46,9.46,0,0,0-1.21-.08,8.4,8.4,0,0,0-1.7.2,13.29,13.29,0,0,0-1.94.59h-.1v-2a15.44,15.44,0,0,1,1.64-.34,11.74,11.74,0,0,1,2.11-.19,10.11,10.11,0,0,1,2.12.2,4.27,4.27,0,0,1,1.56.69,3,3,0,0,1,1,1.22,4.53,4.53,0,0,1,.34,1.87Zm-1.93-2.83v-3.21l-2.08.16a11,11,0,0,0-1.91.3,3.14,3.14,0,0,0-1.35.73,1.86,1.86,0,0,0-.51,1.38,1.82,1.82,0,0,0,.6,1.49,2.79,2.79,0,0,0,1.82.5,4.3,4.3,0,0,0,1.87-.4A8.23,8.23,0,0,0,322.32,352.3Z"/><path class="cls-3" d="M329.94,355.13H328v-16h1.94Z"/><path class="cls-3" d="M342.72,355.13H340.8v-1.22l-.7.49a5.08,5.08,0,0,1-.85.5,5.15,5.15,0,0,1-1.11.39,5.88,5.88,0,0,1-1.48.16,3.7,3.7,0,0,1-2.64-1,3.46,3.46,0,0,1-1.08-2.63,3.65,3.65,0,0,1,.56-2.11,3.78,3.78,0,0,1,1.61-1.28,8.6,8.6,0,0,1,2.52-.63c1-.11,2-.19,3.17-.24v-.3a2.27,2.27,0,0,0-.24-1.1,1.72,1.72,0,0,0-.66-.68,3,3,0,0,0-1-.32,9.34,9.34,0,0,0-1.21-.08,8.56,8.56,0,0,0-1.7.2,13.18,13.18,0,0,0-1.93.59H334v-2a16,16,0,0,1,1.64-.34,11.85,11.85,0,0,1,2.12-.19,10,10,0,0,1,2.11.2,4.19,4.19,0,0,1,1.56.69,3,3,0,0,1,1,1.22,4.71,4.71,0,0,1,.33,1.87Zm-1.92-2.83v-3.21l-2.09.16a10.83,10.83,0,0,0-1.9.3,3,3,0,0,0-1.35.73,2.12,2.12,0,0,0,.08,2.87,2.82,2.82,0,0,0,1.82.5,4.27,4.27,0,0,0,1.87-.4A8.31,8.31,0,0,0,340.8,352.3Z"/><path class="cls-3" d="M355,354.41a12,12,0,0,1-1.84.72,6.22,6.22,0,0,1-1.85.26A7,7,0,0,1,349,355a4.8,4.8,0,0,1-1.78-1.11A5.1,5.1,0,0,1,346,352a7.85,7.85,0,0,1-.41-2.65,6.13,6.13,0,0,1,1.55-4.43,5.45,5.45,0,0,1,4.1-1.61,6.69,6.69,0,0,1,1.94.28,10.28,10.28,0,0,1,1.75.68v2.15h-.1A7.42,7.42,0,0,0,353,345.4a5.16,5.16,0,0,0-1.84-.37,3.24,3.24,0,0,0-2.6,1.11,6,6,0,0,0,0,6.45,3.24,3.24,0,0,0,2.63,1.12,4.91,4.91,0,0,0,1.19-.15,6.15,6.15,0,0,0,1.1-.4c.28-.15.54-.3.79-.46s.44-.3.59-.42h.1Z"/><path class="cls-3" d="M359.54,341.69h-2.19v-2h2.19Zm-.12,13.44h-1.94V343.62h1.94Z"/><path class="cls-3" d="M373.06,349.38a6.49,6.49,0,0,1-1.44,4.45,5.44,5.44,0,0,1-7.75,0,7.64,7.64,0,0,1,0-8.9,5.42,5.42,0,0,1,7.75,0A6.51,6.51,0,0,1,373.06,349.38Zm-2,0a5.25,5.25,0,0,0-.87-3.32,3.28,3.28,0,0,0-4.88,0,6.71,6.71,0,0,0,0,6.61,3.24,3.24,0,0,0,4.87,0A5.22,5.22,0,0,0,371.06,349.38Zm-.1-11.52-2.81,3.85h-1.54l1.85-3.85Z"/><path class="cls-3" d="M385.69,355.13h-1.93v-6.55a11.52,11.52,0,0,0-.1-1.49,2.59,2.59,0,0,0-.34-1.09,1.55,1.55,0,0,0-.74-.64,3.18,3.18,0,0,0-1.26-.21,4,4,0,0,0-1.66.39,8.42,8.42,0,0,0-1.66,1v8.59h-1.94V343.62H378v1.28a7.94,7.94,0,0,1,1.88-1.18,4.94,4.94,0,0,1,2-.42,3.56,3.56,0,0,1,2.84,1.12,4.75,4.75,0,0,1,1,3.24Z"/><path class="cls-3" d="M91.33,377a8,8,0,0,1-.4,2.56,5.57,5.57,0,0,1-1.14,2,4.79,4.79,0,0,1-1.6,1.19,4.84,4.84,0,0,1-2,.41,6.34,6.34,0,0,1-1.63-.19,7,7,0,0,1-1.48-.61v4.82H81.19V371.33h1.94v1.21a7.4,7.4,0,0,1,1.74-1.09,5,5,0,0,1,2.06-.44,3.79,3.79,0,0,1,3.24,1.57A7.27,7.27,0,0,1,91.33,377Zm-2,.05a5.52,5.52,0,0,0-.71-3.11,2.48,2.48,0,0,0-2.19-1,4.27,4.27,0,0,0-1.68.36,7.83,7.83,0,0,0-1.62.94v6.53a7.54,7.54,0,0,0,1.42.51,6.12,6.12,0,0,0,1.35.13,3.09,3.09,0,0,0,2.52-1.09A5,5,0,0,0,89.33,377Z"/><path class="cls-3" d="M104.16,377.09a6.49,6.49,0,0,1-1.44,4.45,5.44,5.44,0,0,1-7.75,0,7.6,7.6,0,0,1,0-8.9,5.42,5.42,0,0,1,7.75,0A6.51,6.51,0,0,1,104.16,377.09Zm-2,0a5.25,5.25,0,0,0-.87-3.32,3.28,3.28,0,0,0-4.88,0,5.19,5.19,0,0,0-.88,3.32,5.29,5.29,0,0,0,.88,3.29,3.24,3.24,0,0,0,4.87,0A5.22,5.22,0,0,0,102.16,377.09Z"/><path class="cls-3" d="M114.35,373.44h-.1c-.29-.07-.57-.11-.84-.15a9.29,9.29,0,0,0-1,0,4,4,0,0,0-1.73.39,8.26,8.26,0,0,0-1.61,1v8.18h-1.94V371.33h1.94V373a9.09,9.09,0,0,1,2-1.31,4.36,4.36,0,0,1,1.8-.39,6.29,6.29,0,0,1,.73,0l.68.09Z"/><path class="cls-3" d="M122.15,382.74A9.26,9.26,0,0,1,121,383a8.38,8.38,0,0,1-1.15.09,3.54,3.54,0,0,1-2.68-.95,4.25,4.25,0,0,1-.92-3V373H114.9v-1.63h1.31V368h1.94v3.31h4V373h-4v5.25c0,.6,0,1.07,0,1.41a2.49,2.49,0,0,0,.29,1,1.4,1.4,0,0,0,.63.6,2.84,2.84,0,0,0,1.21.19,3.58,3.58,0,0,0,1-.14,7,7,0,0,0,.74-.23h.1Z"/><path class="cls-3" d="M134,382.85H132.1v-1.28a9.3,9.3,0,0,1-1.88,1.18,4.56,4.56,0,0,1-2,.41,3.62,3.62,0,0,1-2.82-1.1,4.71,4.71,0,0,1-1-3.26v-7.47h1.94v6.56a12.8,12.8,0,0,0,.08,1.5,2.76,2.76,0,0,0,.35,1.06,1.62,1.62,0,0,0,.72.66,3.14,3.14,0,0,0,1.29.21,4.19,4.19,0,0,0,1.65-.39,7.8,7.8,0,0,0,1.66-1v-8.6H134Z"/><path class="cls-3" d="M146.8,382.85h-1.93v-1.23l-.69.49a4.81,4.81,0,0,1-.85.5,6.1,6.1,0,0,1-1.12.4,6.4,6.4,0,0,1-1.47.15,3.67,3.67,0,0,1-2.64-1,3.45,3.45,0,0,1-1.08-2.62,3.67,3.67,0,0,1,.56-2.12,3.75,3.75,0,0,1,1.6-1.28,8.38,8.38,0,0,1,2.53-.62c1-.12,2-.2,3.16-.25v-.3a2.2,2.2,0,0,0-.23-1.09,1.75,1.75,0,0,0-.66-.69,2.88,2.88,0,0,0-1-.31,7.92,7.92,0,0,0-1.21-.09,8.4,8.4,0,0,0-1.7.2,13.29,13.29,0,0,0-1.94.59H138v-2a15.44,15.44,0,0,1,1.64-.34,11.74,11.74,0,0,1,2.11-.19,10.11,10.11,0,0,1,2.12.2,4.27,4.27,0,0,1,1.56.69,3,3,0,0,1,1,1.22,4.53,4.53,0,0,1,.34,1.87ZM144.87,380V376.8l-2.08.16a11,11,0,0,0-1.91.3,3.25,3.25,0,0,0-1.35.73,1.86,1.86,0,0,0-.51,1.38,1.82,1.82,0,0,0,.6,1.49,2.79,2.79,0,0,0,1.82.5,4.3,4.3,0,0,0,1.87-.4A8.23,8.23,0,0,0,144.87,380Z"/><path class="cls-3" d="M157.72,373.44h-.11a8.22,8.22,0,0,0-.84-.15,9,9,0,0,0-1,0,4,4,0,0,0-1.73.39,8.26,8.26,0,0,0-1.61,1v8.18h-1.94V371.33h1.94V373a9.09,9.09,0,0,1,2-1.31,4.36,4.36,0,0,1,1.8-.39,6.29,6.29,0,0,1,.73,0l.68.09Z"/><path class="cls-3" d="M161.62,369.4h-2.18v-2h2.18Zm-.12,13.45h-1.94V371.33h1.94Z"/><path class="cls-3" d="M174.28,382.85h-1.92v-1.23l-.7.49a4.48,4.48,0,0,1-.85.5,5.73,5.73,0,0,1-1.11.4,6.43,6.43,0,0,1-1.48.15,3.67,3.67,0,0,1-2.64-1,3.45,3.45,0,0,1-1.08-2.62,3.67,3.67,0,0,1,.56-2.12,3.78,3.78,0,0,1,1.61-1.28,8.31,8.31,0,0,1,2.52-.62c1-.12,2-.2,3.17-.25v-.3a2.2,2.2,0,0,0-.24-1.09,1.69,1.69,0,0,0-.66-.69,2.88,2.88,0,0,0-1-.31,7.82,7.82,0,0,0-1.21-.09,8.56,8.56,0,0,0-1.7.2,13.18,13.18,0,0,0-1.93.59h-.11v-2a16,16,0,0,1,1.64-.34,11.82,11.82,0,0,1,2.11-.19,10,10,0,0,1,2.12.2,4.27,4.27,0,0,1,1.56.69,2.89,2.89,0,0,1,1,1.22,4.53,4.53,0,0,1,.34,1.87ZM172.36,380V376.8l-2.09.16a10.83,10.83,0,0,0-1.9.3A3.13,3.13,0,0,0,167,378a2.12,2.12,0,0,0,.08,2.87,2.82,2.82,0,0,0,1.82.5,4.27,4.27,0,0,0,1.87-.4A8.31,8.31,0,0,0,172.36,380Z"/><path class="cls-3" d="M194.78,382.85h-1.94v-1.21a7.23,7.23,0,0,1-1.74,1.12,4.79,4.79,0,0,1-2,.4,3.88,3.88,0,0,1-3.27-1.58,7.1,7.1,0,0,1-1.22-4.4,7.52,7.52,0,0,1,.42-2.61,6.1,6.1,0,0,1,1.13-1.95,4.83,4.83,0,0,1,1.64-1.2,4.78,4.78,0,0,1,1.93-.41,6.08,6.08,0,0,1,1.61.19,8.2,8.2,0,0,1,1.47.59v-5h1.94ZM192.84,380V373.4a7.52,7.52,0,0,0-1.4-.48,6.29,6.29,0,0,0-1.35-.14,3.07,3.07,0,0,0-2.54,1.14,5,5,0,0,0-.91,3.21,5.67,5.67,0,0,0,.71,3.12,2.48,2.48,0,0,0,2.24,1.07,4.07,4.07,0,0,0,1.67-.37A6.67,6.67,0,0,0,192.84,380Z"/><path class="cls-3" d="M208.23,377.29h-8.48a4.78,4.78,0,0,0,.32,1.85,3.42,3.42,0,0,0,.87,1.29,3.55,3.55,0,0,0,1.28.75,5.2,5.2,0,0,0,1.62.24,6.33,6.33,0,0,0,2.37-.47,5.74,5.74,0,0,0,1.69-.92H208v2.11a14.78,14.78,0,0,1-2,.69,8,8,0,0,1-2.15.28,6.14,6.14,0,0,1-4.47-1.55,5.79,5.79,0,0,1-1.61-4.4,6.33,6.33,0,0,1,1.54-4.49,5.27,5.27,0,0,1,4.06-1.66,4.64,4.64,0,0,1,3.59,1.36,5.5,5.5,0,0,1,1.26,3.87Zm-1.88-1.49a3.48,3.48,0,0,0-.77-2.36,3,3,0,0,0-2.31-.83,3.35,3.35,0,0,0-2.48.92,3.56,3.56,0,0,0-1,2.27Z"/><path class="cls-3" d="M230.6,381.73c-.38.17-.72.32-1,.47a12.19,12.19,0,0,1-1.2.45c-.42.13-.88.24-1.37.34a9,9,0,0,1-1.62.13,9.37,9.37,0,0,1-3-.46,6.44,6.44,0,0,1-2.38-1.47,6.79,6.79,0,0,1-1.54-2.49,10.18,10.18,0,0,1-.56-3.51,10,10,0,0,1,.54-3.4,6.85,6.85,0,0,1,1.54-2.52,6.46,6.46,0,0,1,2.37-1.53,8.62,8.62,0,0,1,3.08-.52,10.49,10.49,0,0,1,2.47.3,13.21,13.21,0,0,1,2.73,1.05V371h-.15a9.35,9.35,0,0,0-2.52-1.55,7.36,7.36,0,0,0-2.67-.48,5.37,5.37,0,0,0-2.09.38,4.53,4.53,0,0,0-1.67,1.17,5.42,5.42,0,0,0-1.11,1.95,8.73,8.73,0,0,0-.39,2.73,8,8,0,0,0,.43,2.78,5.57,5.57,0,0,0,1.13,1.9,4.47,4.47,0,0,0,1.69,1.12,5.54,5.54,0,0,0,2,.37,7.66,7.66,0,0,0,2.77-.5,8.07,8.07,0,0,0,2.41-1.52h.14Z"/><path class="cls-3" d="M243.15,377.09a6.49,6.49,0,0,1-1.44,4.45,5.44,5.44,0,0,1-7.75,0,7.6,7.6,0,0,1,0-8.9,5.42,5.42,0,0,1,7.75,0A6.51,6.51,0,0,1,243.15,377.09Zm-2,0a5.19,5.19,0,0,0-.88-3.32,3.28,3.28,0,0,0-4.88,0,6.68,6.68,0,0,0,0,6.61,3.24,3.24,0,0,0,4.87,0A5.22,5.22,0,0,0,241.15,377.09Z"/><path class="cls-3" d="M248.11,382.85h-1.94V366.8h1.94Z"/><path class="cls-3" d="M261.76,377.09a6.45,6.45,0,0,1-1.45,4.45,5.43,5.43,0,0,1-7.74,0,7.6,7.6,0,0,1,0-8.9,5.41,5.41,0,0,1,7.74,0A6.46,6.46,0,0,1,261.76,377.09Zm-2,0a5.19,5.19,0,0,0-.88-3.32,3.28,3.28,0,0,0-4.88,0,6.68,6.68,0,0,0,0,6.61,3.24,3.24,0,0,0,4.87,0A5.28,5.28,0,0,0,259.76,377.09Zm-.11-11.52-2.81,3.85H255.3l1.85-3.85Z"/><path class="cls-3" d="M274.39,382.85h-1.94v-6.56a11.58,11.58,0,0,0-.09-1.49,3,3,0,0,0-.34-1.09,1.57,1.57,0,0,0-.75-.64,3.16,3.16,0,0,0-1.25-.21,4,4,0,0,0-1.66.39,7.88,7.88,0,0,0-1.66,1v8.6h-1.94V371.33h1.94v1.28a8.22,8.22,0,0,1,1.87-1.18,5,5,0,0,1,2-.42,3.61,3.61,0,0,1,2.85,1.12,4.81,4.81,0,0,1,1,3.24Z"/><path class="cls-3" d="M281.28,382.85h-2.46v-2.94h2.46Z"/><path class="cls-4" d="M181.37,426.34a10.65,10.65,0,0,1-2.43-.27,10.24,10.24,0,0,1-2.26-.82l.42-2h.13a5.6,5.6,0,0,0,2.07,1.22,7,7,0,0,0,2.36.43,4.82,4.82,0,0,0,2.88-.74,2.29,2.29,0,0,0,1-1.9,1.51,1.51,0,0,0-.35-1,2.16,2.16,0,0,0-1-.6c-.39-.1-.84-.2-1.36-.3s-1-.2-1.5-.31a4.36,4.36,0,0,1-2.14-1.06,2.5,2.5,0,0,1-.75-1.85A3.8,3.8,0,0,1,180,414a6.46,6.46,0,0,1,4.1-1.24,10,10,0,0,1,2.49.28,10.74,10.74,0,0,1,1.93.68l-.39,1.87H188a5.21,5.21,0,0,0-1.77-1,7.34,7.34,0,0,0-2.43-.41,4.29,4.29,0,0,0-2.56.7,2.16,2.16,0,0,0-1,1.79,1.59,1.59,0,0,0,.34,1,2.23,2.23,0,0,0,1.22.66l1.5.32c.62.13,1.14.24,1.56.35a4.09,4.09,0,0,1,1.9,1,2.39,2.39,0,0,1,.64,1.71,3.85,3.85,0,0,1-.42,1.71,4.16,4.16,0,0,1-1.18,1.46,5.93,5.93,0,0,1-1.89,1A7.9,7.9,0,0,1,181.37,426.34Z"/><path class="cls-4" d="M193.67,426.33a4.87,4.87,0,0,1-3.2-1,3.42,3.42,0,0,1-1.16-2.8,6.79,6.79,0,0,1,1.7-4.63,5.43,5.43,0,0,1,4.22-1.93,3.65,3.65,0,0,1,2.56.83,3.07,3.07,0,0,1,.88,2.34,6.93,6.93,0,0,1-.07.83c0,.38-.13.83-.24,1.33h-7.24a4.61,4.61,0,0,0-.07.5,3.7,3.7,0,0,0,0,.46,2.54,2.54,0,0,0,.75,1.94,3,3,0,0,0,2.15.71,5.6,5.6,0,0,0,2-.38,7.88,7.88,0,0,0,1.72-.85h.09l-.36,1.79-.79.29c-.23.08-.53.17-.89.26s-.69.15-1,.2A6.19,6.19,0,0,1,193.67,426.33Zm3.3-6.2c0-.17.05-.32.06-.43s0-.25,0-.39a2,2,0,0,0-.52-1.47,2.22,2.22,0,0,0-1.65-.53,3.41,3.41,0,0,0-2.21.78,3.75,3.75,0,0,0-1.31,2Z"/><path class="cls-4" d="M204.57,412.43l-3.16,13.67h-1.65l3.16-13.67Z"/><path class="cls-4" d="M209.33,426.33a4.87,4.87,0,0,1-3.2-1,3.42,3.42,0,0,1-1.16-2.8,6.75,6.75,0,0,1,1.71-4.63,5.41,5.41,0,0,1,4.21-1.93,3.63,3.63,0,0,1,2.56.83,3.07,3.07,0,0,1,.88,2.34,6.93,6.93,0,0,1-.07.83c0,.38-.13.83-.24,1.33h-7.24a4.61,4.61,0,0,0-.07.5,3.7,3.7,0,0,0,0,.46,2.54,2.54,0,0,0,.75,1.94,3,3,0,0,0,2.15.71,5.6,5.6,0,0,0,2-.38,7.88,7.88,0,0,0,1.72-.85h.09l-.36,1.79-.79.29c-.23.08-.53.17-.89.26s-.69.15-1,.2A6.19,6.19,0,0,1,209.33,426.33Zm3.3-6.2c0-.17.05-.32.06-.43s0-.25,0-.39a2,2,0,0,0-.52-1.47,2.21,2.21,0,0,0-1.64-.53,3.42,3.42,0,0,0-2.22.78,3.8,3.8,0,0,0-1.31,2Z"/><path class="cls-4" d="M219.66,426.32a5.54,5.54,0,0,1-1.65-.22,3.19,3.19,0,0,1-1.25-.69,3.05,3.05,0,0,1-.8-1.15,4.26,4.26,0,0,1-.28-1.62,7.41,7.41,0,0,1,.43-2.57,6.59,6.59,0,0,1,1.22-2.11,5.53,5.53,0,0,1,1.89-1.39,5.82,5.82,0,0,1,2.43-.51,5.71,5.71,0,0,1,1.62.23,7.2,7.2,0,0,1,1.34.57l-.36,1.78h-.1c-.12-.1-.26-.23-.44-.36a3.32,3.32,0,0,0-.62-.4,4.45,4.45,0,0,0-.8-.32,3.86,3.86,0,0,0-1-.12,3.34,3.34,0,0,0-2.79,1.44,5.68,5.68,0,0,0-1.07,3.49,2.68,2.68,0,0,0,.63,1.91,2.42,2.42,0,0,0,1.82.66,4.24,4.24,0,0,0,1.11-.15,7.08,7.08,0,0,0,.94-.34c.29-.14.55-.28.8-.43l.53-.34h.1l-.35,1.8a11.49,11.49,0,0,1-1.62.59A6,6,0,0,1,219.66,426.32Z"/><path class="cls-4" d="M229,426.32a5.54,5.54,0,0,1-1.65-.22,3.12,3.12,0,0,1-1.25-.69,3.05,3.05,0,0,1-.8-1.15,4.26,4.26,0,0,1-.28-1.62,7.41,7.41,0,0,1,.43-2.57,6.41,6.41,0,0,1,1.22-2.11,5.53,5.53,0,0,1,1.89-1.39,5.8,5.8,0,0,1,2.42-.51,5.61,5.61,0,0,1,1.62.23,7,7,0,0,1,1.35.57l-.36,1.78h-.1c-.12-.1-.26-.23-.44-.36a3.68,3.68,0,0,0-.62-.4,4.77,4.77,0,0,0-.8-.32,3.89,3.89,0,0,0-1-.12,3.33,3.33,0,0,0-2.78,1.44,5.62,5.62,0,0,0-1.08,3.49,2.69,2.69,0,0,0,.64,1.91,2.42,2.42,0,0,0,1.82.66,4.24,4.24,0,0,0,1.11-.15,6.9,6.9,0,0,0,.93-.34c.29-.14.56-.28.81-.43l.53-.34h.1l-.35,1.8a11.49,11.49,0,0,1-1.62.59A6,6,0,0,1,229,426.32Z"/><path class="cls-4" d="M238.1,416.29l-2.27,9.81h-1.65l2.27-9.81Zm.9-3.36-.4,1.71h-1.87l.4-1.71Z"/><path class="cls-4" d="M248.75,419.76a7.93,7.93,0,0,1-.4,2.53,6.59,6.59,0,0,1-1.14,2.11,5.68,5.68,0,0,1-1.77,1.45,5,5,0,0,1-2.34.53,3.66,3.66,0,0,1-2.73-1,3.8,3.8,0,0,1-1-2.76,7.76,7.76,0,0,1,.4-2.51A6.66,6.66,0,0,1,241,418a5.35,5.35,0,0,1,1.79-1.43,5,5,0,0,1,2.31-.54,3.75,3.75,0,0,1,2.7,1A3.67,3.67,0,0,1,248.75,419.76Zm-2.69,3.71a5.4,5.4,0,0,0,.73-1.63,7.24,7.24,0,0,0,.25-1.95,2.64,2.64,0,0,0-.59-1.86,2.13,2.13,0,0,0-1.66-.64,2.92,2.92,0,0,0-1.53.41,3.88,3.88,0,0,0-1.17,1.12,5.4,5.4,0,0,0-.73,1.63,7.25,7.25,0,0,0-.25,1.93,2.72,2.72,0,0,0,.58,1.87,2.16,2.16,0,0,0,1.67.65,2.92,2.92,0,0,0,1.53-.41A3.56,3.56,0,0,0,246.06,423.47Z"/><path class="cls-4" d="M259.86,418.53a4.67,4.67,0,0,1,0,.57,3.41,3.41,0,0,1-.11.63l-1.47,6.37h-1.65l1.29-5.59c.07-.31.12-.58.16-.81a4,4,0,0,0,.06-.69,1.55,1.55,0,0,0-.37-1.11,1.8,1.8,0,0,0-1.31-.37,3.67,3.67,0,0,0-1.48.36,10.68,10.68,0,0,0-1.57.89l-1.69,7.32H250l2.26-9.81h1.65l-.25,1.08a10.21,10.21,0,0,1,1.77-1,4.14,4.14,0,0,1,1.69-.36,2.86,2.86,0,0,1,2,.65A2.38,2.38,0,0,1,259.86,418.53Z"/><path class="cls-4" d="M266.06,426.33a4.84,4.84,0,0,1-3.19-1,3.39,3.39,0,0,1-1.16-2.8,6.74,6.74,0,0,1,1.7-4.63,5.43,5.43,0,0,1,4.22-1.93,3.61,3.61,0,0,1,2.55.83,3.07,3.07,0,0,1,.89,2.34,7.54,7.54,0,0,1-.08.83c-.05.38-.13.83-.24,1.33h-7.23a4.71,4.71,0,0,0-.08.5c0,.16,0,.32,0,.46a2.51,2.51,0,0,0,.76,1.94,3,3,0,0,0,2.14.71,5.52,5.52,0,0,0,2-.38,7.66,7.66,0,0,0,1.72-.85h.1l-.36,1.79c-.3.1-.56.2-.79.29s-.54.17-.9.26-.68.15-1,.2A6.39,6.39,0,0,1,266.06,426.33Zm3.3-6.2c0-.17.05-.32.06-.43a2.42,2.42,0,0,0,0-.39,2,2,0,0,0-.51-1.47,2.24,2.24,0,0,0-1.65-.53,3.46,3.46,0,0,0-2.22.78,3.8,3.8,0,0,0-1.31,2Z"/><path class="cls-4" d="M288.86,416.29l-2.26,9.81H285l.25-1.08a11.6,11.6,0,0,1-1.75,1,4.18,4.18,0,0,1-1.72.36,2.86,2.86,0,0,1-2-.64,2.4,2.4,0,0,1-.71-1.86,3.69,3.69,0,0,1,0-.58c0-.19.06-.4.11-.64l1.46-6.37h1.65L281,421.88a6.38,6.38,0,0,0-.15.78,4.19,4.19,0,0,0-.07.69,1.53,1.53,0,0,0,.38,1.14,1.82,1.82,0,0,0,1.3.37,3.73,3.73,0,0,0,1.49-.37,9.93,9.93,0,0,0,1.54-.87l1.69-7.33Z"/><path class="cls-4" d="M299.69,418.53a6.92,6.92,0,0,1-.14,1.2l-1.48,6.37h-1.64l1.28-5.59c.07-.31.12-.58.16-.81a4,4,0,0,0,.06-.69,1.5,1.5,0,0,0-.37-1.11,1.8,1.8,0,0,0-1.31-.37,3.67,3.67,0,0,0-1.48.36,11.23,11.23,0,0,0-1.57.89l-1.69,7.32h-1.65l2.27-9.81h1.65l-.25,1.08a9.8,9.8,0,0,1,1.76-1A4.14,4.14,0,0,1,297,416a2.9,2.9,0,0,1,2,.65A2.4,2.4,0,0,1,299.69,418.53Z"/><path class="cls-4" d="M307.48,425.06l-.65.4a5.5,5.5,0,0,1-.83.44,5.09,5.09,0,0,1-1,.34,5.36,5.36,0,0,1-1.27.14,2.68,2.68,0,0,1-1.9-.68,2.33,2.33,0,0,1-.73-1.79,3.63,3.63,0,0,1,.51-2,3.9,3.9,0,0,1,1.53-1.31,8,8,0,0,1,2.39-.73,24.25,24.25,0,0,1,3.2-.27c0-.17.07-.31.09-.43a2.21,2.21,0,0,0,0-.37,1.31,1.31,0,0,0-.17-.69,1.1,1.1,0,0,0-.48-.42,2.11,2.11,0,0,0-.71-.22,8.42,8.42,0,0,0-.9-.05,7.14,7.14,0,0,0-1.71.24,12.46,12.46,0,0,0-1.56.48h-.09l.33-1.66c.33-.08.82-.18,1.47-.29a10,10,0,0,1,1.85-.17,5.26,5.26,0,0,1,2.74.57,2,2,0,0,1,.92,1.81,4.75,4.75,0,0,1,0,.51c0,.18-.06.34-.09.5l-1.54,6.66h-1.64Zm1-4.13a22.32,22.32,0,0,0-2.4.2,7.16,7.16,0,0,0-1.74.45,2.37,2.37,0,0,0-1.08.78,2,2,0,0,0-.37,1.24,1.16,1.16,0,0,0,.43,1,2.17,2.17,0,0,0,1.33.33,4,4,0,0,0,1.63-.36,8.28,8.28,0,0,0,1.55-.85Z"/><path class="cls-4" d="M328,419.76a7.94,7.94,0,0,1-.41,2.53,6.59,6.59,0,0,1-1.14,2.11,5.68,5.68,0,0,1-1.77,1.45,4.92,4.92,0,0,1-2.33.53,3.66,3.66,0,0,1-2.73-1,3.76,3.76,0,0,1-1-2.76,7.76,7.76,0,0,1,.4-2.51,6.64,6.64,0,0,1,1.15-2.13,5.45,5.45,0,0,1,1.79-1.43,5,5,0,0,1,2.32-.54,3.75,3.75,0,0,1,2.7,1A3.71,3.71,0,0,1,328,419.76Zm-2.69,3.71a5.38,5.38,0,0,0,.72-1.63,7.24,7.24,0,0,0,.25-1.95,2.6,2.6,0,0,0-.59-1.86,2.12,2.12,0,0,0-1.66-.64,2.91,2.91,0,0,0-1.52.41,3.67,3.67,0,0,0-1.17,1.12,5.4,5.4,0,0,0-.73,1.63,7.25,7.25,0,0,0-.26,1.93,2.72,2.72,0,0,0,.59,1.87,2.15,2.15,0,0,0,1.67.65,3,3,0,0,0,1.53-.41A3.56,3.56,0,0,0,325.35,423.47Z"/><path class="cls-4" d="M339.29,419.39a8.2,8.2,0,0,1-.45,2.74,7.33,7.33,0,0,1-1.2,2.18,5.82,5.82,0,0,1-1.76,1.46,4.55,4.55,0,0,1-2.14.53,5.54,5.54,0,0,1-1.45-.18,4.54,4.54,0,0,1-1.21-.53l-.95,4.13h-1.65l3.1-13.43h1.65l-.24,1a10.37,10.37,0,0,1,1.61-.93,4.19,4.19,0,0,1,1.75-.37,2.71,2.71,0,0,1,2.19.89A3.74,3.74,0,0,1,339.29,419.39Zm-1.73.31a2.55,2.55,0,0,0-.46-1.61,1.75,1.75,0,0,0-1.46-.56,3.62,3.62,0,0,0-1.51.36,11.41,11.41,0,0,0-1.46.81l-1.28,5.57a5.73,5.73,0,0,0,1.09.45,4.5,4.5,0,0,0,1.25.15,3,3,0,0,0,1.63-.44,3.64,3.64,0,0,0,1.2-1.14,5.21,5.21,0,0,0,.75-1.64A7.6,7.6,0,0,0,337.56,419.7Z"/><path class="cls-4" d="M344.78,426.32a5.54,5.54,0,0,1-1.65-.22,3.11,3.11,0,0,1-2.05-1.84,4.26,4.26,0,0,1-.28-1.62,7.41,7.41,0,0,1,.43-2.57,6.59,6.59,0,0,1,1.22-2.11,5.53,5.53,0,0,1,1.89-1.39,5.82,5.82,0,0,1,2.43-.51,5.71,5.71,0,0,1,1.62.23,7.2,7.2,0,0,1,1.34.57l-.36,1.78h-.1c-.12-.1-.26-.23-.44-.36a3.32,3.32,0,0,0-.62-.4,4.45,4.45,0,0,0-.8-.32,3.81,3.81,0,0,0-1-.12,3.31,3.31,0,0,0-2.78,1.44,5.62,5.62,0,0,0-1.08,3.49,2.64,2.64,0,0,0,.64,1.91,2.39,2.39,0,0,0,1.81.66,4.24,4.24,0,0,0,1.11-.15,7.08,7.08,0,0,0,.94-.34c.29-.14.55-.28.8-.43l.54-.34h.09l-.35,1.8a11.49,11.49,0,0,1-1.62.59A6,6,0,0,1,344.78,426.32Z"/><path class="cls-4" d="M353.84,416.29l-2.27,9.81h-1.65l2.27-9.81Zm.9-3.36-.4,1.71h-1.87l.4-1.71Z"/><path class="cls-4" d="M364.49,419.76a7.93,7.93,0,0,1-.4,2.53A6.59,6.59,0,0,1,363,424.4a5.68,5.68,0,0,1-1.77,1.45,5,5,0,0,1-2.34.53,3.69,3.69,0,0,1-2.73-1,3.79,3.79,0,0,1-1-2.76,8,8,0,0,1,.39-2.51,6.86,6.86,0,0,1,1.16-2.13,5.45,5.45,0,0,1,1.79-1.43,5,5,0,0,1,2.32-.54,3.73,3.73,0,0,1,2.69,1A3.67,3.67,0,0,1,364.49,419.76Zm-2.69,3.71a5.4,5.4,0,0,0,.73-1.63,7.24,7.24,0,0,0,.25-1.95,2.64,2.64,0,0,0-.59-1.86,2.12,2.12,0,0,0-1.66-.64,2.92,2.92,0,0,0-1.53.41,3.88,3.88,0,0,0-1.17,1.12,5.65,5.65,0,0,0-.73,1.63,7.25,7.25,0,0,0-.25,1.93,2.72,2.72,0,0,0,.59,1.87,2.15,2.15,0,0,0,1.67.65,3,3,0,0,0,1.53-.41A3.63,3.63,0,0,0,361.8,423.47Zm2.62-12.1-3.12,3.29h-1.37l2.24-3.29Z"/><path class="cls-4" d="M375.6,418.53a6.92,6.92,0,0,1-.14,1.2L374,426.1h-1.64l1.28-5.59c.07-.31.13-.58.16-.81a4,4,0,0,0,.06-.69,1.5,1.5,0,0,0-.37-1.11,1.8,1.8,0,0,0-1.31-.37,3.67,3.67,0,0,0-1.48.36,11.23,11.23,0,0,0-1.57.89l-1.69,7.32h-1.65l2.27-9.81h1.65l-.25,1.08a9.8,9.8,0,0,1,1.76-1,4.14,4.14,0,0,1,1.69-.36,2.9,2.9,0,0,1,2,.65A2.37,2.37,0,0,1,375.6,418.53Z"/><path class="cls-5" d="M522.9,236.11H38V27.34H522.9ZM45.48,229.22h470v-195h-470Z"/><circle class="cls-5" cx="56.02" cy="44.77" r="37.4"/><path class="cls-3" d="M223.9,106.74h-9v3.65h8.38v3.8h-8.38v8.39h-5V103H223.9Z"/><path class="cls-3" d="M245.16,112.77a10.18,10.18,0,0,1-2.69,7.45,11.37,11.37,0,0,1-14.85,0,11.72,11.72,0,0,1,0-14.94,11.42,11.42,0,0,1,14.84,0A10.24,10.24,0,0,1,245.16,112.77Zm-6.71,5a5.86,5.86,0,0,0,1.1-2.12,10.2,10.2,0,0,0,.35-2.87,9.73,9.73,0,0,0-.4-3,6,6,0,0,0-1.07-2,4,4,0,0,0-1.55-1.14,4.78,4.78,0,0,0-1.83-.36,5,5,0,0,0-1.81.34,4.18,4.18,0,0,0-1.56,1.14,5.62,5.62,0,0,0-1.08,2,10.17,10.17,0,0,0-.41,3,9.59,9.59,0,0,0,.4,3,5.87,5.87,0,0,0,1.06,2,4.08,4.08,0,0,0,1.54,1.15,4.8,4.8,0,0,0,3.72,0A4,4,0,0,0,238.45,117.74Z"/><path class="cls-3" d="M264.5,116.56a5.56,5.56,0,0,1-.57,2.55,5.36,5.36,0,0,1-1.58,1.86,7.38,7.38,0,0,1-2.55,1.24,14.35,14.35,0,0,1-3.53.37H247.7V103h7.62a28.67,28.67,0,0,1,3.48.15,7.29,7.29,0,0,1,2.18.7,3.93,3.93,0,0,1,1.67,1.52,4.39,4.39,0,0,1,.55,2.19,4.33,4.33,0,0,1-.76,2.51,4.88,4.88,0,0,1-2.12,1.69v.11a5.5,5.5,0,0,1,3.05,1.58A4.43,4.43,0,0,1,264.5,116.56ZM258,108.5a2.21,2.21,0,0,0-.24-1,1.54,1.54,0,0,0-.86-.73,4.41,4.41,0,0,0-1.38-.23l-2.31,0h-.48v4.16h.79c.8,0,1.48,0,2.05,0a3.74,3.74,0,0,0,1.33-.27,1.63,1.63,0,0,0,.89-.78A2.75,2.75,0,0,0,258,108.5Zm1.23,8a2.47,2.47,0,0,0-.36-1.44,2.19,2.19,0,0,0-1.23-.76,6.75,6.75,0,0,0-1.63-.18h-3.28V119h.37l3.05,0a4.48,4.48,0,0,0,1.7-.34,2,2,0,0,0,1.08-.88A2.55,2.55,0,0,0,259.24,116.48Z"/><path class="cls-3" d="M283.73,123a12.18,12.18,0,0,1-4-.65,8.33,8.33,0,0,1-5.25-5.11,12.3,12.3,0,0,1-.73-4.42,12,12,0,0,1,.7-4.23,9,9,0,0,1,2-3.26,8.52,8.52,0,0,1,3.17-2,11.52,11.52,0,0,1,4.13-.72,16.53,16.53,0,0,1,2.23.14,14.64,14.64,0,0,1,1.84.36,15,15,0,0,1,1.61.56c.47.21.89.4,1.25.58V109h-.58q-.36-.31-.93-.75a11.2,11.2,0,0,0-1.27-.85,8.33,8.33,0,0,0-1.57-.71,5.57,5.57,0,0,0-1.8-.29,5.93,5.93,0,0,0-2,.34,4.82,4.82,0,0,0-1.78,1.11,5.44,5.44,0,0,0-1.26,2,8.35,8.35,0,0,0-.48,3,7.89,7.89,0,0,0,.52,3.08,5.18,5.18,0,0,0,1.31,1.95,4.76,4.76,0,0,0,1.79,1,6.4,6.4,0,0,0,2,.31,6,6,0,0,0,1.83-.28,7.19,7.19,0,0,0,1.67-.74,12,12,0,0,0,1.2-.82c.37-.28.67-.53.91-.74h.52v4.69l-1.41.62a11.7,11.7,0,0,1-1.41.5,14.37,14.37,0,0,1-1.8.42A14.05,14.05,0,0,1,283.73,123Z"/><path class="cls-3" d="M307.94,115.18a7.7,7.7,0,0,1-2.13,5.75,9.53,9.53,0,0,1-12,0,8.82,8.82,0,0,1,0-11.52,9.53,9.53,0,0,1,11.95,0A7.77,7.77,0,0,1,307.94,115.18Zm-5.84,3.6a3.69,3.69,0,0,0,.69-1.37,8.39,8.39,0,0,0,.23-2.2,8.5,8.5,0,0,0-.24-2.19,3.7,3.7,0,0,0-.65-1.41,2.37,2.37,0,0,0-1-.77,3.55,3.55,0,0,0-1.28-.22,3.82,3.82,0,0,0-1.22.18,2.59,2.59,0,0,0-1,.74,3.71,3.71,0,0,0-.69,1.41,8.41,8.41,0,0,0-.26,2.26,8.64,8.64,0,0,0,.23,2.1,3.58,3.58,0,0,0,.65,1.43,2.62,2.62,0,0,0,1,.75,3.52,3.52,0,0,0,1.34.24,3.39,3.39,0,0,0,1.23-.22A2.24,2.24,0,0,0,302.1,118.78Z"/><path class="cls-3" d="M314.78,122.58H310V102.06h4.76Z"/><path class="cls-3" d="M333.06,115.18a7.7,7.7,0,0,1-2.13,5.75,9.53,9.53,0,0,1-12,0,8.84,8.84,0,0,1,0-11.52,9.55,9.55,0,0,1,12,0A7.77,7.77,0,0,1,333.06,115.18Zm-3.44-14.7v.26L325,105.66h-3.25l3.26-5.18Zm-2.4,18.3a3.69,3.69,0,0,0,.69-1.37,8.39,8.39,0,0,0,.23-2.2,8.5,8.5,0,0,0-.24-2.19,3.56,3.56,0,0,0-.66-1.41,2.34,2.34,0,0,0-1-.77,3.59,3.59,0,0,0-1.28-.22,3.82,3.82,0,0,0-1.22.18,2.46,2.46,0,0,0-1,.74A3.71,3.71,0,0,0,322,113a8.41,8.41,0,0,0-.26,2.26,8.68,8.68,0,0,0,.22,2.1,3.72,3.72,0,0,0,.66,1.43,2.55,2.55,0,0,0,1,.75,3.52,3.52,0,0,0,1.34.24,3.39,3.39,0,0,0,1.23-.22A2.24,2.24,0,0,0,327.22,118.78Z"/><path class="cls-3" d="M350,122.58h-4.76v-7.35a17.53,17.53,0,0,0-.09-1.78,3.77,3.77,0,0,0-.32-1.32,1.61,1.61,0,0,0-.77-.71,3.61,3.61,0,0,0-1.42-.22,4.32,4.32,0,0,0-1.31.21,6.74,6.74,0,0,0-1.44.67v10.5h-4.76V107.77h4.76v1.64a11.86,11.86,0,0,1,2.43-1.52,6.17,6.17,0,0,1,2.58-.53,5,5,0,0,1,3.75,1.4,5.79,5.79,0,0,1,1.35,4.18Z"/><path class="cls-3" d="M65.71,51.31h-3v5.08H57.36V51.31H46.8V47.18L57,34.52h5.73v12.8h3Zm-8.35-4V39.43L51,47.32Z"/></g></g></svg>