<svg xmlns="http://www.w3.org/2000/svg" viewBox="0 0 108.43 87.01"><defs><style>.cls-1{fill:#3465c6;}.cls-2{fill:#443641;}.cls-3{fill:#564652;}.cls-4{fill:#6f5f6a;}.cls-5{fill:#382d36;}.cls-6{fill:#8c7c88;}.cls-7{fill:#59a500;}.cls-8{fill:#fff;}.cls-9{fill:#ffe631;}.cls-10{fill:#529100;}.cls-11{fill:#6c0;}.cls-12{fill:#ffc5b3;}.cls-13{fill:#46373b;}.cls-14{fill:#4b76e0;}.cls-15{fill:#ffc933;}.cls-16{fill:#6695f2;}</style></defs><title>slide10_carro</title><g id="Capa_2" data-name="Capa 2"><g id="Layer_7" data-name="Layer 7"><path class="cls-1" d="M18.39,46.31s-1.21,2-1,3.08S13.07,54,13.07,54s-.37-3.55.81-4.44S18.39,46.31,18.39,46.31Z"/><path class="cls-2" d="M62.34,19.44c0,3.91-2.37,8.44-5.3,10.13s-5.3-.1-5.3-4,2.37-8.45,5.3-10.14S62.34,15.54,62.34,19.44Z"/><polygon class="cls-2" points="64.35 17.37 60.59 15.21 53.45 29.78 57.13 31.88 64.35 17.37"/><path class="cls-3" d="M66.18,21.65c0,3.91-2.38,8.44-5.31,10.13s-5.3-.1-5.3-4,2.37-8.44,5.3-10.14S66.18,17.75,66.18,21.65Z"/><path class="cls-3" d="M54.23,27c0-3.88,2.36-8.38,5.27-10.06,1.47-.85,2.87-.87,3.82-.13a3.56,3.56,0,0,0-3.42.39c-2.91,1.68-5.27,6.18-5.27,10.06a5,5,0,0,0,1.52,4.05C55,30.67,54.23,29.15,54.23,27Z"/><path class="cls-3" d="M52.8,26.16c0-3.88,2.36-8.39,5.27-10.06,1.47-.85,2.87-.87,3.83-.13a3.58,3.58,0,0,0-3.43.39C55.56,18,53.2,22.54,53.2,26.42a5,5,0,0,0,1.52,4C53.55,29.86,52.8,28.34,52.8,26.16Z"/><path class="cls-4" d="M66.37,21.92c0,3.72-2.27,8-5.06,9.67s-5.06-.1-5.06-3.83,2.26-8.06,5.06-9.67S66.37,18.19,66.37,21.92Z"/><path class="cls-3" d="M65.71,22.33c0,3.25-2,7-4.4,8.42s-4.41-.09-4.41-3.33,2-7,4.41-8.42S65.71,19.09,65.71,22.33Z"/><path class="cls-2" d="M62.73,21a2.78,2.78,0,0,1,.59,1.9,6.49,6.49,0,0,1-2.72,5.2,1.93,1.93,0,0,1-1.42.28,1.61,1.61,0,0,0,2.13.15A6.5,6.5,0,0,0,64,23.3C64,22,63.5,21.16,62.73,21Z"/><path class="cls-5" d="M60.6,28.07a6.49,6.49,0,0,0,2.72-5.2,2.78,2.78,0,0,0-.59-1.9,1.88,1.88,0,0,0-1.42.28,6.49,6.49,0,0,0-2.73,5.2,2.78,2.78,0,0,0,.6,1.9A1.93,1.93,0,0,0,60.6,28.07Z"/><path class="cls-3" d="M61.93,23.63a3.07,3.07,0,0,1-1.28,2.45c-.71.41-1.28,0-1.28-1a3.07,3.07,0,0,1,1.28-2.45C61.36,22.25,61.93,22.68,61.93,23.63Z"/><path class="cls-5" d="M61.38,24a1.75,1.75,0,0,1-.73,1.4c-.4.23-.73,0-.73-.56a1.77,1.77,0,0,1,.73-1.4C61.06,23.16,61.38,23.41,61.38,24Z"/><path class="cls-1" d="M24.81,40s4.69-2.85,9.72-5.77c4.84-2.82,14.27-8.23,18-10.36a2,2,0,0,1,2.74.79,10.26,10.26,0,0,1,1.15,4c.34,3.77-1.4,3.5-1.4,3.5L29.79,48.74Z"/><path class="cls-2" d="M26.5,40.16c0,3.9-2.37,8.44-5.3,10.13s-5.3-.1-5.3-4,2.37-8.44,5.3-10.13S26.5,36.25,26.5,40.16Z"/><polygon class="cls-2" points="28.51 38.09 24.76 35.92 17.61 50.49 21.29 52.6 28.51 38.09"/><path class="cls-3" d="M30.34,42.37c0,3.9-2.38,8.44-5.31,10.13s-5.3-.1-5.3-4,2.38-8.44,5.3-10.13S30.34,38.47,30.34,42.37Z"/><path class="cls-3" d="M18.39,47.68c0-3.87,2.36-8.38,5.27-10.06,1.47-.84,2.87-.86,3.83-.12a3.6,3.6,0,0,0-3.43.38c-2.91,1.68-5.27,6.19-5.27,10.06A5,5,0,0,0,20.31,52C19.14,51.38,18.39,49.87,18.39,47.68Z"/><path class="cls-3" d="M17,46.87c0-3.87,2.36-8.38,5.27-10.06,1.47-.84,2.87-.87,3.83-.13a3.63,3.63,0,0,0-3.43.39c-2.91,1.68-5.27,6.19-5.27,10.06a5,5,0,0,0,1.52,4C17.71,50.57,17,49.05,17,46.87Z"/><path class="cls-4" d="M30.53,42.63c0,3.73-2.27,8.06-5.06,9.67s-5.06-.1-5.06-3.82,2.26-8.06,5.06-9.67S30.53,38.91,30.53,42.63Z"/><path class="cls-3" d="M29.87,43.05c0,3.24-2,7-4.4,8.41s-4.4-.08-4.4-3.33,2-7,4.4-8.41S29.87,39.81,29.87,43.05Z"/><path class="cls-2" d="M26.89,41.69a2.77,2.77,0,0,1,.6,1.9,6.52,6.52,0,0,1-2.73,5.2,1.92,1.92,0,0,1-1.42.27,1.61,1.61,0,0,0,2.13.16A6.53,6.53,0,0,0,28.19,44C28.19,42.71,27.67,41.88,26.89,41.69Z"/><path class="cls-5" d="M24.76,48.79a6.52,6.52,0,0,0,2.73-5.2,2.77,2.77,0,0,0-.6-1.9,1.92,1.92,0,0,0-1.42.27,6.51,6.51,0,0,0-2.72,5.2,2.8,2.8,0,0,0,.59,1.9A1.92,1.92,0,0,0,24.76,48.79Z"/><path class="cls-3" d="M26.1,44.35a3.08,3.08,0,0,1-1.29,2.45c-.71.41-1.28,0-1.28-1a3.08,3.08,0,0,1,1.28-2.46C25.52,43,26.1,43.4,26.1,44.35Z"/><path class="cls-5" d="M25.54,44.66a1.73,1.73,0,0,1-.73,1.4c-.4.24-.73,0-.73-.55a1.76,1.76,0,0,1,.73-1.4C25.22,43.88,25.54,44.12,25.54,44.66Z"/><path class="cls-3" d="M13.88,69.7S5.9,65,9.39,58.24c3.79-7.31,11-11.15,15.42-14.13,9.73-6.53,42.33-24.33,42.33-24.33l34.71,20.61s-.76,2.17-8.62,9.85S57.65,74.13,52.65,75,27.84,79.35,25,77.62,13.88,69.7,13.88,69.7Z"/><path class="cls-2" d="M59.31,26.05,95,48.47l5.12-8.56A149.75,149.75,0,0,0,86,29.46C79.82,25.6,64,18.69,64,18.69Z"/><path class="cls-4" d="M66.08,28.76,5.22,63.9l.49.86L67,29.39Z"/><polygon class="cls-4" points="73.22 24.95 90.45 34.9 92.68 30.02 75.89 20.33 73.22 24.95"/><path class="cls-6" d="M93.34,31.46a4.16,4.16,0,0,1-1.75,3.34c-1,.56-1.75,0-1.75-1.32a4.19,4.19,0,0,1,1.75-3.34C92.56,29.58,93.34,30.17,93.34,31.46Z"/><path class="cls-4" d="M92.47,32.35a1.19,1.19,0,0,1-.5,1c-.27.16-.5,0-.5-.38a1.22,1.22,0,0,1,.5-1C92.25,31.81,92.47,32,92.47,32.35Z"/><path class="cls-7" d="M60.65,23.39a24,24,0,0,1-3-2.27c-.81,1.05-2.08,2.08-2.46,2.7-.63,1-1,3.15-1.6,5a16.47,16.47,0,0,1-1.72,3.44l-.12.18s3.29,2,3.83,3.09S60.83,28,62.68,23.62l-.37.5A7.66,7.66,0,0,1,60.65,23.39Z"/><path class="cls-7" d="M61,18.31a21.82,21.82,0,0,0,3.18,1.82c1.52-3.52,3.2-7.06,3.2-7.06a3.17,3.17,0,0,0-1-.35,4.42,4.42,0,0,0-3,.56,7.56,7.56,0,0,0-2.45,3.22,1.82,1.82,0,0,1-1,.7A8.88,8.88,0,0,0,61,18.31Z"/><path class="cls-8" d="M64.13,20.13c-.44,1-.86,2-1.23,2.93-.07.18-.14.37-.22.56l2.26-3.13S64.62,20.36,64.13,20.13Z"/><path class="cls-8" d="M58.23,19.72a3.27,3.27,0,0,1-.44,1.21l-.15.19a24,24,0,0,0,3,2.27,7.66,7.66,0,0,0,1.66.73l.37-.5c.06-.16.13-.32.19-.47a10.46,10.46,0,0,1-1.77-1.08A19.91,19.91,0,0,1,58.23,19.72Z"/><path class="cls-8" d="M60.31,19.73a14.78,14.78,0,0,0,3.2,1.84l.62-1.44A21.82,21.82,0,0,1,61,18.31a8.88,8.88,0,0,1-1.09-1.11,2.3,2.3,0,0,0-1,.61,1.59,1.59,0,0,0-.22.35A9.41,9.41,0,0,0,60.31,19.73Z"/><path class="cls-9" d="M63.51,21.57a14.78,14.78,0,0,1-3.2-1.84,9.41,9.41,0,0,1-1.63-1.57,7,7,0,0,0-.45,1.56,19.91,19.91,0,0,0,2.87,2.35,10.46,10.46,0,0,0,1.77,1.08l0-.09Z"/><path class="cls-10" d="M55.8,36S45.28,36.52,43,38.24s-4.13,4.76-6.77,8-10,12.54-10,12.54,2.78,2,3.35,3.67c.29.84,1,2.39,1,2.39S40,58.52,45.52,54,64.85,43.61,64.85,43.61Z"/><path class="cls-7" d="M51.74,59c.92-1.38,5.2-2.57,8.45-4.72s8-9.8,8-9.8a27.34,27.34,0,0,1,3.23,1,23.3,23.3,0,0,0,1.24-3.93l-11.34-3s-6.39,6.49-10.06,8.53-8.78,8.34-11,11.58a48.27,48.27,0,0,1-6.78,7S36.05,68.23,36.7,70l.13.38a28,28,0,0,0,8.06-4.64C48.62,62.39,50.81,60.39,51.74,59Z"/><path class="cls-10" d="M49.51,64.69c2.12-1.6,3.86-4.72,6.76-6.21a37,37,0,0,0,4.57-2.1,56.77,56.77,0,0,0,7.49-6.16,13.62,13.62,0,0,0,3.08-4.72,27.34,27.34,0,0,0-3.23-1s-4.74,7.64-8,9.8S52.66,57.62,51.74,59s-3.12,3.39-6.85,6.78a28,28,0,0,1-8.06,4.64c.51,1.41.51,1.43.51,1.43S47.38,66.29,49.51,64.69Z"/><path class="cls-8" d="M67,44.18a60.6,60.6,0,0,1-5.07,6.74,22.93,22.93,0,0,1-4.55,3.59c-.61.41-1.91.12-2.4,1s-1,1.39-1.67,1.1a1.16,1.16,0,0,0-1.54.32,81.76,81.76,0,0,1-7.14,7.54c-2.57,2.26-8.24,4.72-8.24,4.72l.84,2.27s6.29-2.27,8.75-4.73c2-2,4.76-4.19,6.28-6.08.42-.51.53-1.72,2.09-1.74a4,4,0,0,0,2.19-1.32c.46-.75,1.16-.66,1.94-.66a6.93,6.93,0,0,0,3.41-1.63A22.28,22.28,0,0,0,69,46.15C70.54,42.18,67,44.18,67,44.18Z"/><path class="cls-9" d="M67.74,44.78a47.23,47.23,0,0,1-3.39,5.45,26,26,0,0,1-5.77,5c-1,.46-1.83,0-2.33.46s-.8,1-1.41,1.36-1.87-.15-2.61.56-3.24,4.07-4.8,5.67-10.6,7.14-10.6,7.14l.37,1s8-4.62,11.16-7.81a34.23,34.23,0,0,0,3.44-3.9c.76-1.06.93-1.6,1.56-1.55a2.5,2.5,0,0,0,2.52-.88c.63-.8,1.8-.74,3.09-1.27a21.89,21.89,0,0,0,5.38-4.46c1.26-1.5,4.14-6,4.14-6Z"/><path class="cls-11" d="M64,16.34c-1.77,3.67-3.25,8.8-4.71,12.73-.33.89-1.22.79-1.55,1.52s-.1,2.3-.43,2.82c-.45.7-1.88.68-2.16,1.12-1.09,1.67,0,2.24,0,2.24s1.31,2.57,5.89,5.14,8.49,4.59,8.49,4.59,10.52-6.45,12.7-15.4c.89-3.7,1.45-6.47.68-9.45-1.1-4.22-4.08-8.1-5.86-9.22s-6-.73-9.28,0C66.45,12.72,64.76,14.81,64,16.34Z"/><path class="cls-12" d="M74.86,3.22A5.29,5.29,0,0,0,66.61,6c-1.77,5,2.76,11.25,5.17,10.19,1.35-.6,4.19-2.71,5-5.34C77.67,7.91,76.37,4.37,74.86,3.22Z"/><path class="cls-13" d="M66.21,7.62A4.45,4.45,0,0,0,70.6,9,9.86,9.86,0,0,0,74,7.7l.4,2.65a2.23,2.23,0,0,0,.7-.26c0-1.05.41-1.37,1-1.06s.68,1.85.68,1.85A5.41,5.41,0,0,0,78.07,6C77.66,4.13,75.14.45,71.64.77a6.47,6.47,0,0,0-6,4.65A2.44,2.44,0,0,0,66.21,7.62Z"/><path class="cls-7" d="M67.33,15.34a15.28,15.28,0,0,0-.84,3.14c-.16,1.39-.31,3.17-.31,3.17s5.19-.58,8.15-2.27a35.39,35.39,0,0,0,5.47-3.95s-.79-3.56-2.74-4S67.33,15.34,67.33,15.34Z"/><path class="cls-14" d="M77.69,4.11a8.86,8.86,0,0,0-5-4.1c-4.91-.26-7.71,4.69-7.71,8.75a15.89,15.89,0,0,0,2.67,8.66c4.81,3.3,9.2-1.49,11.06-4C78.88,10.3,78.85,6.31,77.69,4.11Z"/><path class="cls-1" d="M76.58,1.2A9.27,9.27,0,0,0,72.65,0a8.86,8.86,0,0,1,5,4.1c1.16,2.2,1.19,6.19,1,9.27a15.25,15.25,0,0,0,1-1.42S81.84,4,76.58,1.2Z"/><path class="cls-13" d="M65.92,14.07s3.52,2.05,6.59.93a7.09,7.09,0,0,0,4.55-5.48,20.91,20.91,0,0,1-5.89,1.6A10.32,10.32,0,0,1,65,9.86,19.12,19.12,0,0,0,65.92,14.07Z"/><path class="cls-2" d="M83.28,33.88S74,39,71.4,42A30.74,30.74,0,0,0,65,55.53L86.58,43.1Z"/><path class="cls-4" d="M86.5,43,25.63,78.11l.5.86L87.39,43.6Z"/><path class="cls-6" d="M81.8,38.6a1.43,1.43,0,0,1-.6,1.14c-.32.18-.59,0-.59-.45a1.45,1.45,0,0,1,.59-1.14C81.53,38,81.8,38.16,81.8,38.6Z"/><path class="cls-4" d="M93.49,43.83a1.77,1.77,0,0,0,.73,1.39c.4.23.72,0,.72-.55a1.73,1.73,0,0,0-.72-1.39C93.82,43.05,93.49,43.3,93.49,43.83Z"/><polygon class="cls-6" points="77.4 43.99 84.78 53.91 86.27 53.11 78.39 42.56 77.4 43.99"/><path class="cls-6" d="M78.51,43a1.39,1.39,0,0,1-.59,1.13c-.33.19-.59,0-.59-.44a1.42,1.42,0,0,1,.59-1.14C78.25,42.33,78.51,42.53,78.51,43Z"/><polygon class="cls-6" points="73.52 46.99 80.91 56.91 82.39 56.12 74.52 45.56 73.52 46.99"/><path class="cls-6" d="M74.64,46a1.45,1.45,0,0,1-.59,1.14c-.33.19-.6,0-.6-.45a1.4,1.4,0,0,1,.6-1.13C74.37,45.34,74.64,45.54,74.64,46Z"/><polygon class="cls-6" points="80.68 39.62 88.07 49.54 89.55 48.74 81.67 38.19 80.68 39.62"/><path class="cls-8" d="M62.31,20.49s1.27,1.33,5.87,3.17S78,27.22,78,27.22l-1.59,4.66s-4.57-1.17-9-2.76a19.33,19.33,0,0,1-6.68-3.77s.51-1.89.73-2.53S62.31,20.49,62.31,20.49Z"/><path class="cls-9" d="M61.09,23.76a62.47,62.47,0,0,0,8.82,4.63A45.61,45.61,0,0,0,77,30.47l.48-1.71s-4.14-1-9.21-2.84a31.63,31.63,0,0,1-6.7-3.85Z"/><path class="cls-7" d="M79.6,19.78c-1.71,1.19-2.71,4.88-3.45,7.5-.33,1.16-.86,4.94-.86,4.94a6.75,6.75,0,0,0-2.64,0c-1.1.23,0,1.39-1.25,1.49-2.35.19-2.23,1.83-4.69,2.47a41.77,41.77,0,0,0-5,2l.17,4.58s6.25.23,9.77.38c2.95.13,5.54-.81,8.4-5.39,1-1.56,3.07-5.22,3.57-7.49C85.63,21.26,82.4,17.81,79.6,19.78Z"/><path class="cls-2" d="M104.41,43.25c0,3.91-2.38,8.44-5.31,10.13s-5.3-.1-5.3-4,2.37-8.45,5.3-10.14S104.41,39.35,104.41,43.25Z"/><polygon class="cls-2" points="106.41 41.18 102.66 39.02 95.51 53.59 99.19 55.69 106.41 41.18"/><path class="cls-3" d="M108.24,45.46c0,3.91-2.37,8.44-5.3,10.13s-5.31-.1-5.31-4,2.38-8.44,5.31-10.14S108.24,41.56,108.24,45.46Z"/><path class="cls-3" d="M96.3,50.78c0-3.88,2.35-8.38,5.26-10.06,1.47-.85,2.87-.87,3.83-.13A3.58,3.58,0,0,0,102,41C99.05,42.66,96.7,47.16,96.7,51a5,5,0,0,0,1.51,4.05C97,54.48,96.3,53,96.3,50.78Z"/><path class="cls-3" d="M94.87,50c0-3.88,2.35-8.39,5.26-10.06,1.47-.85,2.87-.87,3.83-.13a3.58,3.58,0,0,0-3.43.39c-2.91,1.67-5.26,6.18-5.26,10.06a5,5,0,0,0,1.51,4.05C95.61,53.67,94.87,52.15,94.87,50Z"/><path class="cls-4" d="M108.43,45.73c0,3.72-2.26,8.05-5.06,9.67s-5.06-.1-5.06-3.83,2.27-8.06,5.06-9.67S108.43,42,108.43,45.73Z"/><path class="cls-3" d="M107.77,46.14c0,3.24-2,7-4.4,8.42S99,54.47,99,51.23s2-7,4.4-8.42S107.77,42.9,107.77,46.14Z"/><path class="cls-2" d="M104.79,44.78a2.78,2.78,0,0,1,.6,1.9,6.52,6.52,0,0,1-2.72,5.2,1.94,1.94,0,0,1-1.42.28,1.61,1.61,0,0,0,2.12.15,6.5,6.5,0,0,0,2.72-5.2C106.09,45.81,105.57,45,104.79,44.78Z"/><path class="cls-5" d="M102.67,51.88a6.52,6.52,0,0,0,2.72-5.2,2.78,2.78,0,0,0-.6-1.9,1.89,1.89,0,0,0-1.42.28,6.5,6.5,0,0,0-2.72,5.2,2.78,2.78,0,0,0,.6,1.9A1.94,1.94,0,0,0,102.67,51.88Z"/><path class="cls-3" d="M104,47.44a3.08,3.08,0,0,1-1.29,2.45c-.7.41-1.28,0-1.28-1a3.1,3.1,0,0,1,1.28-2.45C103.42,46.06,104,46.49,104,47.44Z"/><path class="cls-5" d="M103.45,47.76a1.76,1.76,0,0,1-.74,1.4c-.4.23-.73,0-.73-.56a1.77,1.77,0,0,1,.73-1.4C103.12,47,103.45,47.22,103.45,47.76Z"/><path class="cls-10" d="M52.5,31.17l-1.29,1.92a3.76,3.76,0,0,1,2.24,1.21,14.26,14.26,0,0,0,1.24,1.38l1.78-1.83S55.37,30.82,52.5,31.17Z"/><path class="cls-5" d="M56.47,42.42a4.21,4.21,0,0,1-2.09-.62c-2.7-1.56-4.82-5.58-4.82-9.15,0-2,.68-3.49,1.86-4.17a3.46,3.46,0,0,1,3.54.24c2.7,1.56,4.82,5.58,4.82,9.15,0,2-.68,3.48-1.86,4.17A2.91,2.91,0,0,1,56.47,42.42Zm-3.6-13.16a1.74,1.74,0,0,0-.87.23c-.81.47-1.27,1.62-1.27,3.16,0,3.14,1.9,6.79,4.23,8.14a2.33,2.33,0,0,0,2.38.23c.81-.46,1.27-1.61,1.27-3.15,0-3.14-1.9-6.79-4.23-8.14A3.09,3.09,0,0,0,52.87,29.26Z"/><polygon class="cls-5" points="58.77 37.23 50.32 32.35 50.32 33.29 58.77 38.17 58.77 37.23"/><polygon class="cls-5" points="54.84 41.4 54.24 41.08 54.24 29.46 54.84 29.8 54.84 41.4"/><path class="cls-5" d="M55.54,35.74a2.24,2.24,0,0,0-1-1.81.69.69,0,0,0-.7,0c-.06,0-.09.1-.13.15l0,0s-3,3.22-5,5.5-7,7.56-7,7.56l3.48,1.61s3.8-4.94,6.44-8,3.61-4.19,3.61-4.19v0A1,1,0,0,0,55.54,35.74Z"/><path class="cls-2" d="M50.32,32.35c1.58.91,2,1.85,1.54,2.85a2.91,2.91,0,0,1-1.54,1.36l-2.27-2.68S48.73,31.43,50.32,32.35Z"/><path class="cls-14" d="M89.12,54.51c3.22-2.2,5-5,7-6.49-.37-2.84-3.31-2.4-7.24.16C86.27,49.86,76.71,56.71,69,62.29c-4.46,3.25-.79,5.1,1,5.75.09-1.34.21-2.31.21-2.31S85.54,57,89.12,54.51Z"/><path class="cls-1" d="M96.05,53.71a42.47,42.47,0,0,1,.07-4.46,6.16,6.16,0,0,0,0-1.23c-2,1.47-3.76,4.29-7,6.49C85.54,57,70.19,65.73,70.19,65.73s-.12,1-.21,2.31c.47.17.81.26.81.26Z"/><path class="cls-2" d="M68.18,64.25c0,3.9-2.37,8.44-5.3,10.13s-5.3-.11-5.3-4,2.37-8.44,5.3-10.13S68.18,60.34,68.18,64.25Z"/><polygon class="cls-2" points="70.19 62.17 66.44 60.01 59.29 74.58 62.97 76.69 70.19 62.17"/><path class="cls-3" d="M72,66.46c0,3.9-2.38,8.44-5.31,10.13s-5.3-.11-5.3-4,2.37-8.44,5.3-10.13S72,62.55,72,66.46Z"/><path class="cls-3" d="M60.07,71.77c0-3.88,2.36-8.38,5.27-10.06,1.47-.85,2.87-.87,3.83-.13a3.63,3.63,0,0,0-3.43.39c-2.91,1.68-5.27,6.18-5.27,10.06a5,5,0,0,0,1.52,4C60.82,75.47,60.07,74,60.07,71.77Z"/><path class="cls-3" d="M58.64,71c0-3.88,2.36-8.38,5.27-10.06,1.47-.85,2.87-.87,3.83-.13a3.58,3.58,0,0,0-3.43.39C61.4,62.84,59,67.34,59,71.22a5,5,0,0,0,1.52,4C59.39,74.66,58.64,73.14,58.64,71Z"/><path class="cls-4" d="M72.21,66.72c0,3.73-2.27,8.06-5.06,9.67s-5.06-.1-5.06-3.83,2.26-8,5.06-9.67S72.21,63,72.21,66.72Z"/><path class="cls-3" d="M71.55,67.14c0,3.24-2,7-4.4,8.41s-4.41-.09-4.41-3.33,2-7,4.41-8.41S71.55,63.89,71.55,67.14Z"/><path class="cls-2" d="M68.57,65.78a2.74,2.74,0,0,1,.6,1.89,6.52,6.52,0,0,1-2.73,5.21,1.92,1.92,0,0,1-1.42.27,1.61,1.61,0,0,0,2.13.16,6.53,6.53,0,0,0,2.72-5.2C69.87,66.8,69.35,66,68.57,65.78Z"/><path class="cls-5" d="M66.44,72.88a6.52,6.52,0,0,0,2.73-5.21,2.74,2.74,0,0,0-.6-1.89,1.87,1.87,0,0,0-1.42.27,6.51,6.51,0,0,0-2.72,5.2,2.78,2.78,0,0,0,.59,1.9A1.92,1.92,0,0,0,66.44,72.88Z"/><path class="cls-3" d="M67.78,68.43a3.08,3.08,0,0,1-1.29,2.46c-.71.41-1.28,0-1.28-1a3.07,3.07,0,0,1,1.28-2.45C67.2,67.05,67.78,67.49,67.78,68.43Z"/><path class="cls-5" d="M67.22,68.75a1.73,1.73,0,0,1-.73,1.4c-.4.23-.73,0-.73-.55a1.76,1.76,0,0,1,.73-1.4C66.9,68,67.22,68.21,67.22,68.75Z"/><path class="cls-2" d="M29.87,62.29a4,4,0,0,1,3.18,1.91c.71,1.17,2.88,3.45,3.65,5.84s.5,1.4.5,1.4S34.75,74,33,74.16,28.51,65,28.51,65Z"/><path class="cls-14" d="M9.58,62.52c4.2,3.65,15,10.74,21,13.36s17.11.43,19.52-4.89a1.3,1.3,0,0,1,.08-.17c-2,.54-4.17,1.13-6.26,1.66-5.73,1.44-8.37-1-11.66-2.53-4.51-2.06-18-9.49-19.53-12.55s5.1-11.54,5.1-11.54a22.53,22.53,0,0,0-3.29,2,49.38,49.38,0,0,0-6,5.46C8.46,53.4,5.42,58.91,9.58,62.52Z"/><path class="cls-9" d="M1.36,62.85c.11,1.53.55,3.6,2.06,4.46C6,68.74,21.29,78.07,25,80.45s9.17,4.34,13.38,3.16c3.36-1,15.4-7.75,20.13-10.46a20.46,20.46,0,0,0-1-4.19,73.06,73.06,0,0,0-7.43,1.86,1.3,1.3,0,0,0-.08.17c-2.41,5.32-13.6,7.51-19.52,4.89s-16.75-9.71-21-13.36S8.46,53.4,8.5,53.31c-1.15,1.21-2.35,2.57-3.63,4.11A27.14,27.14,0,0,0,1.36,62.85Z"/><path class="cls-15" d="M.85,69.4l5.61,3.24c.36.2,14.61,8.28,19.64,11.33,2.13,1.3,7.54,5.65,16.2.81C51.8,79.46,58.78,75,58.78,75s-.08-.8-.24-1.86c-4.73,2.71-16.77,9.51-20.13,10.46-4.21,1.18-9.63-.79-13.38-3.16S6,68.74,3.42,67.31c-1.51-.86-1.95-2.93-2.06-4.46C-.09,65.85-.57,68.58.85,69.4Z"/><path class="cls-14" d="M52.13,35.75c-5.81-5.13-9-4-11.29-1.45-3,3.25-13.08,16.37-18.69,22.49A43.93,43.93,0,0,1,18.83,60a21.92,21.92,0,0,0-1.4,7.76c3.07,3.13,7.92,2.92,8.76,1.77C30.35,63.84,30.8,61.64,38,55.09c3.92-3.58,7.87-4.32,11.37-6.62S57.93,40.89,52.13,35.75Z"/><path class="cls-16" d="M47.6,35.2a10.35,10.35,0,0,0-5.42-2.11c-3.4,2.83-9.31,10.49-13.71,16.16a84.38,84.38,0,0,1-7.27,8.53,47.7,47.7,0,0,0-5.63,6,2.77,2.77,0,0,0,.92,3.2c1.79,1.69,3.4,2.18,7-.93A57.33,57.33,0,0,0,31.9,56.5c2.08-2.76,7-7.77,8.94-8.58s8.54-4.08,9.43-6.35S51.16,37.72,47.6,35.2Z"/><path class="cls-8" d="M42.44,35.2l-3.07.58c-.25.29-.52.57-.78.86a6.49,6.49,0,0,0-.59.79l2.93-.6L35.5,41.34l1.14,1,7.23-6Z"/><path class="cls-10" d="M63.32,37.42a3.69,3.69,0,0,1,1.11,2.64,11.39,11.39,0,0,1-.4,2.57H60.87c.18-.73.41-3-.68-4A7.92,7.92,0,0,1,63.32,37.42Z"/><path class="cls-10" d="M72.65,34.42A5.42,5.42,0,0,1,74,37c.3,1.49,2.38,1.78,1.49,0A6,6,0,0,0,72.65,34.42Z"/><path class="cls-10" d="M75.32,33.58a2.46,2.46,0,0,1,1.74,1.62c.63,1.47,2.46.34,1.15-.78A3.83,3.83,0,0,0,75.32,33.58Z"/><path class="cls-7" d="M60.65,30.21a8,8,0,0,0,4,1.93c2.7.58,5,.71,5.25,0s-.4-.73-3.16-1A54.84,54.84,0,0,1,60.65,30.21Z"/><path class="cls-7" d="M59.18,32.39s1,3.14,3.36,3.76a31.46,31.46,0,0,0,4.91.81s-.3-1.06-4.13-2.23A14.08,14.08,0,0,1,59.18,32.39Z"/><path class="cls-2" d="M60.19,38.61a20.62,20.62,0,0,1-2.61,0c-.35,0-1.06.1-2,2.21-.39.87,0,1.75.94,2.49a3.06,3.06,0,0,0,3,.56,4.8,4.8,0,0,0,1.34-1.23S62.63,40.05,60.19,38.61Z"/><polygon class="cls-8" points="88.38 50.21 87.14 52.89 88.07 53.52 88.76 52.05 90.03 56.23 91.09 55.69 89.55 49.54 88.38 50.21"/><path class="cls-10" d="M54.32,55.57A12.86,12.86,0,0,0,53,52.76c-1-1.58-1-3,.08-2.35S54.32,55.57,54.32,55.57Z"/><path class="cls-10" d="M53.11,55.49s-4.6-1.78-3.68-2.55C51.69,51,53.11,55.49,53.11,55.49Z"/><path class="cls-8" d="M75.45,31.15a19.9,19.9,0,0,0,3.73,1.47,22.16,22.16,0,0,0,3.41.47,21,21,0,0,0,.87-2.19c.19-.69.54-2.51.54-2.51s-1.7-.19-3.76-.57a24.26,24.26,0,0,1-3.78-1.63A19.34,19.34,0,0,0,75.45,31.15Z"/><path class="cls-9" d="M76,27.69a3.71,3.71,0,0,0-.36,1.56c.77.71,1.77,1.11,4,1.71a7.76,7.76,0,0,0,3.68.31,5.13,5.13,0,0,0,.37-1.47,10.54,10.54,0,0,1-4-.44A11.88,11.88,0,0,1,76,27.69Z"/><path class="cls-4" d="M94.22,45.22a3.58,3.58,0,0,1-1.14-3.72A8.89,8.89,0,0,1,94.49,39a13.91,13.91,0,0,0,.94-1.48c.46-.89.36-1.55-.31-2-.4-.24-.89-.56-1.41-.91s-1.44-.94-2.11-1.34l.75-1.3c.71.42,1.49.93,2.18,1.39.51.33,1,.64,1.37.88,1.36.82,1.69,2.32.86,3.92a14,14,0,0,1-1.05,1.65,7.94,7.94,0,0,0-1.19,2.1,2.38,2.38,0,0,0,.1,1.74Z"/><path class="cls-9" d="M65,7.72c1.38.85,4.87,1.55,8,1a6.36,6.36,0,0,0,5.22-3.93,19,19,0,0,1-5,1.91,14.1,14.1,0,0,1-7.73-1.18A4.66,4.66,0,0,0,65,7.72Z"/><path class="cls-8" d="M67,3.88,66.55,5A8.41,8.41,0,0,0,69,5.81,9.51,9.51,0,0,0,70.71,6L71,4.82A13.56,13.56,0,0,1,67,3.88Z"/><path class="cls-8" d="M46.68,39c-1.51-1.52-4.12-.22-5.59,1s-3,3-1.31,5,5.33-.52,6.9-1.89S47.8,40.15,46.68,39Z"/><path class="cls-16" d="M45.3,40.06c-.61-.65-2.66.36-3.55,1.18s-1.39,1.67-.64,2.63S44,43.42,45,42.56,46.18,41,45.3,40.06Z"/><path class="cls-8" d="M94.38,49.54c-.46-1.85-1.46-2-2.47-1.07-.72.69-1.14,1.51-.5,3.52s1.18,2.7,2.39,2.14S94.83,51.39,94.38,49.54ZM93.8,53c-.47.29-.87.1-1.25-1a2.87,2.87,0,0,1,0-2.46c.63-.6.94.12,1.25,1S94.27,52.72,93.8,53Z"/></g></g></svg>