<svg xmlns="http://www.w3.org/2000/svg" viewBox="0 0 646.63 830.93"><defs><style>.cls-1{fill:#666;}.cls-2{fill:#fff;}.cls-14,.cls-3{fill:#84bf2c;}.cls-4{fill:#dd1717;}.cls-5{fill:#ff4343;}.cls-6{fill:#ffe631;}.cls-7{fill:#564652;}.cls-8{fill:#443641;}.cls-9{fill:#635560;}.cls-10{fill:#352a33;}.cls-11{fill:#f72626;}.cls-12{fill:#ff6161;}.cls-13{fill:#bc1515;}.cls-14{font-size:33px;font-family:Verdana-Bold, Verdana;font-weight:700;letter-spacing:-0.05em;}</style></defs><title>slide10_pista_1</title><g id="Capa_2" data-name="Capa 2"><g id="Layer_7" data-name="Layer 7"><path class="cls-1" d="M546.87,453.81v0L102,451.54c-15.62-.08-29.15-13.12-30.17-29.07s10.86-28.85,26.48-28.77L550.79,396h0c46.34-.22,81.47-38.7,78.44-86.17-2.9-45.55-39.91-83.17-83.9-86.75l0-.24L95.82,220.55c-15.51-.21-28.9-13.2-29.92-29.06s10.86-28.86,26.48-28.78L350.3,164V164c45.37-1.28,79.46-39.34,76.48-86.13L421.82.29,364.74,0l5.56,77.56c1,15.94-10.86,28.85-26.48,28.77L85.51,105v.06C40.34,106.57,6.46,144.55,9.43,191.2s41.73,85,87.11,86.95v.06l3.19,0h0l442.86,2.24c15.61.08,29.14,13.12,30.16,29.07s-10.86,28.85-26.47,28.77L94.67,336c-46.75-.23-82.31,38.42-79.27,86.17,2.88,45.13,39.23,82.48,82.68,86.64l0,.34,450.74,2.29c15.61.08,29.14,13.12,30.16,29.06s-10.86,28.86-26.47,28.78L101.8,567l0,.35c-43,3.72-74.56,40.73-71.68,85.86a93.43,93.43,0,0,0,28.74,61.36C75.93,731,97.8,740.13,120.45,740.24l203.77,1a29.94,29.94,0,0,1,20.17,9,31.13,31.13,0,0,1,9.23,20.65l3.74,59.77,56.63.29-3.26-49.77c-1.12-23-11.51-54.07-28.21-70.74s-38.17-26.12-60.66-26.8l-1,0-204.08-1c-15.61-.08-29.15-13.12-30.16-29.07s10.86-28.85,26.47-28.77L557.91,627v0c45.91-.69,80.58-39,77.57-86.15S592.9,455,546.87,453.81Z"/><polygon class="cls-2" points="384.08 830.79 383.65 824.7 387.57 824.7 388 830.78 384.08 830.79"/><path class="cls-2" d="M382.52,808.59l-.84-12.08h3.92l.85,12.09Zm-2-28.19-.62-8.84c0-.41,0-.77-.06-1.12-.05-.7-.1-1.39-.17-2.07l3.91-.11c.07.73.13,1.46.18,2.2,0,.37,0,.76.06,1.14l.62,8.79ZM376,753a61.67,61.67,0,0,0-5.46-10.82l3.34-1.73a64,64,0,0,1,5.8,11.51Zm-16-23.39A60.28,60.28,0,0,0,350,722.16l1.93-3.09A64.87,64.87,0,0,1,362.65,727Zm-25.49-13.72a55.36,55.36,0,0,0-11.78-1.58h-.52l-.24-3.69h.56a60.08,60.08,0,0,1,12.74,1.7Zm-29.43-1.67-12.85-.06-.23-3.69,12.84.06Zm-30-.15L262.27,714l-.24-3.69,12.85.06Zm-30-.15-12.85-.07-.23-3.69,12.84.07Zm-30-.15-12.84-.07-.24-3.69,12.85.07Zm-30-.15-12.85-.07-.24-3.69,12.85.07Zm-30-.16-12.84-.06-.24-3.69,12.85.06Z"/><path class="cls-2" d="M118.71,713.25a57.8,57.8,0,0,1-6.7-.42l.24-3.66a54.44,54.44,0,0,0,6.24.39l6.47,0,.24,3.69-6.47,0Z"/><path class="cls-2" d="M94.67,708A63.73,63.73,0,0,1,83,701.26l2.29-2.85a59.44,59.44,0,0,0,10.87,6.3ZM70.23,689a65.8,65.8,0,0,1-7.05-11l3.53-1.41a61,61,0,0,0,6.62,10.33ZM57.56,661.92a61.9,61.9,0,0,1-1.15-8.57c-.08-1.3-.12-2.6-.13-3.88l3.93.24c0,1.2,0,2.44.12,3.66a59.61,59.61,0,0,0,1.08,8.08Zm4.8-27.56-3.8-1.18a56,56,0,0,1,4.71-11.36l3.51,1.87A52.52,52.52,0,0,0,62.36,634.36Zm13.86-22.9-2.89-2.68a53.3,53.3,0,0,1,10.1-7.53l2.21,3.18A49.27,49.27,0,0,0,76.22,611.46Zm24.37-12.68-1.07-3.61a57.42,57.42,0,0,1,11.61-1.12h1.54l.23,3.69h-1.54A52.8,52.8,0,0,0,100.59,598.78Zm453.9,1.2-3.23,0-.23-3.68h3.23a52.93,52.93,0,0,0,9.19-.75l.95,3.63A56.17,56.17,0,0,1,554.49,600Zm-20.42-.1-12.89-.07-.24-3.69,12.9.07ZM504,599.73l-12.89-.07-.24-3.69,12.89.07Zm-30.08-.16-12.9-.06-.23-3.69,12.89.06Zm-30.09-.15-12.89-.07-.24-3.68,12.9.06Zm-30.08-.15-12.89-.07-.24-3.69,12.89.07Zm-30.09-.15-12.89-.07-.23-3.69,12.89.07ZM353.57,599l-12.89-.06-.24-3.69,12.9.06Zm-30.08-.15-12.9-.06-.23-3.69,12.89.06Zm-30.09-.15-12.89-.07-.23-3.69,12.89.07Zm-30.08-.15-12.89-.07-.24-3.69,12.9.07Zm-30.08-.16-12.9-.06-.23-3.69,12.89.06Zm-30.09-.15-12.89-.06-.23-3.69,12.89.06Zm-30.08-.15L160.18,598l-.24-3.69,12.89.07ZM143,597.9l-12.9-.07-.23-3.69,12.89.07Zm437.74-4.31-2.11-3.23a50.38,50.38,0,0,0,9.65-6.75l2.8,2.75A53.32,53.32,0,0,1,580.73,593.59Zm20.81-20-3.46-2a52,52,0,0,0,4.73-10.54l3.77,1.27A54.93,54.93,0,0,1,601.54,573.61Zm7.77-27.42-3.93-.33c0-1.72,0-3.47-.1-5.2a57.65,57.65,0,0,0-.78-6.55l3.87-.38a62.47,62.47,0,0,1,.84,6.95C609.33,542.52,609.36,544.37,609.31,546.19Zm-9.69-27.3a61.46,61.46,0,0,0-6.34-10.47l3.17-2a66,66,0,0,1,6.74,11.15Zm-18-22.28A60,60,0,0,0,571,490l1.6-3.27A64.12,64.12,0,0,1,584,493.82ZM555,485.08a54.67,54.67,0,0,0-7.87-.61l-4.72,0-.24-3.69,4.72,0a57.46,57.46,0,0,1,8.48.66Zm-29.78-.72-12.9-.07-.23-3.69,12.89.07Zm-30.09-.16-12.89-.06-.23-3.69,12.89.06Zm-30.08-.15L452.16,484l-.24-3.69,12.9.06ZM435,483.9l-12.9-.07-.23-3.69,12.89.07Zm-30.09-.15L392,483.68l-.23-3.69,12.89.07Zm-30.08-.16-12.89-.06-.24-3.69,12.89.06Zm-30.08-.15-12.9-.06-.23-3.69,12.89.06Zm-30.09-.15-12.89-.07-.23-3.69,12.89.07Zm-30.08-.16-12.89-.06-.24-3.69,12.89.07ZM254.47,483l-12.9-.06-.23-3.69,12.89.06Zm-30.09-.15-12.89-.07-.24-3.69,12.9.07Zm-30.08-.15-12.89-.07-.24-3.69,12.89.07Zm-30.08-.16-12.9-.06-.23-3.69,12.89.07Zm-30.09-.15-12.89-.06-.24-3.69,12.9.06Zm-30.08-.15H104a59.09,59.09,0,0,1-13.28-1.59l.72-3.57a55.27,55.27,0,0,0,12.33,1.47ZM74,474a64.76,64.76,0,0,1-10.86-7.9l2.61-2.58a60.66,60.66,0,0,0,10.15,7.37ZM51.73,452.68a65.55,65.55,0,0,1-5.88-11.53l3.68-1.06a61.4,61.4,0,0,0,5.53,10.83Zm-9.85-27.91c-.08-.81-.15-1.63-.2-2.45a59.27,59.27,0,0,1,.18-10l3.91.58a58,58,0,0,0-.17,9.42c0,.77.11,1.54.19,2.31ZM49.51,398l-3.68-1.52a55,55,0,0,1,5.94-10.79l3.31,2.18A51.93,51.93,0,0,0,49.51,398ZM65.9,376.7l-2.58-2.94a53.06,53.06,0,0,1,11-6.36l1.81,3.37A49.71,49.71,0,0,0,65.9,376.7Zm25.94-9.81-.61-3.67c1.7-.14,3.43-.21,5.16-.2l7.89,0,.24,3.69-7.89,0C95,366.7,93.41,366.76,91.84,366.89Zm456.4,2.1-5.36,0-.23-3.69,5.36,0a52.09,52.09,0,0,0,7.19-.44l.79,3.65A57,57,0,0,1,548.24,369Zm-22.55-.11-12.89-.07-.24-3.69,12.89.07Zm-30.08-.15-12.9-.07-.23-3.69,12.89.07Zm-30.09-.16-12.89-.06-.24-3.69,12.9.07Zm-30.08-.15-12.89-.06-.24-3.69,12.89.06Zm-30.08-.15-12.9-.07-.23-3.69,12.89.07Zm-30.09-.15-12.89-.07-.24-3.69,12.9.07ZM345.19,368l-12.89-.06-.24-3.69,12.89.07Zm-30.09-.15-12.89-.06-.23-3.69,12.89.06ZM285,367.66l-12.89-.07-.24-3.68,12.9.06Zm-30.08-.15-12.9-.07-.23-3.69,12.89.07Zm-30.09-.15L212,367.29l-.23-3.69,12.89.07Zm-30.08-.16-12.89-.06-.24-3.69,12.9.06Zm-30.08-.15-12.9-.07-.23-3.68,12.89.06Zm-30.09-.15-12.89-.07-.23-3.69,12.89.07Zm438-3.33-2-3.31a49.47,49.47,0,0,0,9.94-6.38l2.7,2.84A53.34,53.34,0,0,1,572.59,363.57Zm21.63-19.21-3.4-2.06a51.48,51.48,0,0,0,5.12-10.36l3.73,1.39A54.42,54.42,0,0,1,594.22,344.36ZM603,317.25l-3.92-.44a56.72,56.72,0,0,0,0-7.14c-.09-1.54-.25-3.09-.47-4.61l3.89-.26c.23,1.61.4,3.26.51,4.89A61.53,61.53,0,0,1,603,317.25Zm-8.77-27.52a61.57,61.57,0,0,0-6-10.65l3.24-1.88a65,65,0,0,1,6.35,11.33ZM577,266.92a60.12,60.12,0,0,0-10.45-7l1.74-3.2a64.76,64.76,0,0,1,11.2,7.46Zm-26.23-12.48a55.11,55.11,0,0,0-9.92-1h-2.58l-.23-3.69h2.58a59.91,59.91,0,0,1,10.68,1Zm-343.42-2.65-.23-3.69,12.89.07.24,3.69Zm-17.19-.09-12.89-.06-.23-3.69L190,248Zm-30.08-.15-12.89-.06L147,247.8l12.89.06ZM130,251.4l-12.9-.07-.23-3.69,12.89.07Zm-30.09-.15H98a59.69,59.69,0,0,1-11.37-1.17l.58-3.61a55.25,55.25,0,0,0,10.56,1.09H99.7Zm318,1.61-.24-3.69,12.9.06.23,3.69Zm-17.19-.09-12.9-.07-.23-3.69,12.89.07Zm-30.09-.15-12.89-.07-.23-3.69,12.89.07Zm-30.08-.16-12.89-.06-.24-3.69,12.9.07Zm-30.08-.15-12.9-.06-.23-3.69,12.89.06Zm-30.09-.15-12.89-.07-.23-3.69,12.89.07ZM250.35,252l-12.89-.07-.24-3.69,12.9.07Zm270.75,1.37-12.89-.07-.24-3.69,12.9.07ZM491,253.23l-12.89-.07-.24-3.69,12.89.07Zm-30.08-.16L448,253l-.23-3.69,12.89.06ZM69.73,243.93a64.86,64.86,0,0,1-11.11-7.57l2.52-2.67a60.69,60.69,0,0,0,10.37,7.07ZM46.81,223.27a65,65,0,0,1-6.23-11.39l3.64-1.16a61.77,61.77,0,0,0,5.85,10.7ZM36.12,195.58c-.19-1.41-.32-2.84-.41-4.24a60.77,60.77,0,0,1,0-8.21l3.92.49a57.09,57.09,0,0,0,0,7.74c.08,1.33.22,2.67.39,4Zm6.81-27.06-3.72-1.42a55,55,0,0,1,5.58-11l3.38,2.09A51.19,51.19,0,0,0,42.93,168.52Zm15.66-21.77-2.66-2.86a53,53,0,0,1,10.76-6.72l1.93,3.32A49.85,49.85,0,0,0,58.59,146.75Z"/><path class="cls-2" d="M84.46,136.05l-.71-3.67c1.15-.13,2.32-.22,3.49-.28V132l6.47,0,.24,3.69-3.28,0A53.19,53.19,0,0,0,84.46,136.05Z"/><path class="cls-2" d="M217.88,136.37l-13.28-.07-.24-3.69,13.28.07Zm-31-.16-13.28-.07-.23-3.69,13.28.07Zm-31-.16L142.63,136l-.24-3.69,13.28.07Zm-31-.16-13.28-.06-.23-3.69,13.28.07Zm216.9,1.1-13.28-.06-.24-3.69,13.28.06Zm-31-.15-13.28-.07-.23-3.69,13.28.07Zm-31-.16-13.28-.07-.24-3.69,13.28.07Zm-31-.16-13.28-.06-.23-3.69,13.28.06Zm110.9-1.17-1.24-3.57a49.84,49.84,0,0,0,11.53-4.47l2.11,3.23A53.77,53.77,0,0,1,359.76,135.35ZM385.82,120l-3-2.53a50.44,50.44,0,0,0,7.06-9.63l3.5,1.9A54.73,54.73,0,0,1,385.82,120Zm13.5-26-3.85-1a55.74,55.74,0,0,0,1.22-11.94l3.93.22A59.44,59.44,0,0,1,399.32,94Zm-3.63-29.44-.83-12.49h3.92l.83,12.49Zm-1.95-29.14-.83-12.49h3.92l.83,12.49Z"/><polygon class="cls-2" points="391.79 6.23 391.38 0.14 395.3 0.15 395.71 6.24 391.79 6.23"/><path class="cls-3" d="M301.51,45.6A37.29,37.29,0,0,1,338.8,82.89c0,16.35-23.47,46-33.18,57.56a5.37,5.37,0,0,1-8.23,0c-9.7-11.56-33.18-41.21-33.18-57.56A37.29,37.29,0,0,1,301.51,45.6Z"/><circle class="cls-2" cx="301.51" cy="83.23" r="30"/><path class="cls-3" d="M37.3,121.3a37.29,37.29,0,0,1,37.29,37.3c0,16.34-23.47,46-33.17,57.55a5.37,5.37,0,0,1-8.24,0C23.48,204.6,0,174.94,0,158.6A37.3,37.3,0,0,1,37.3,121.3Z"/><circle class="cls-2" cx="37.3" cy="158.93" r="30"/><path class="cls-3" d="M544.69,169.69A37.3,37.3,0,0,1,582,207c0,16.35-23.48,46-33.18,57.56a5.37,5.37,0,0,1-8.24,0c-9.7-11.55-33.18-41.21-33.18-57.56A37.3,37.3,0,0,1,544.69,169.69Z"/><circle class="cls-2" cx="544.69" cy="207.32" r="30"/><path class="cls-3" d="M391.38,289.76a37.3,37.3,0,0,1,37.3,37.3c0,16.34-23.48,46-33.18,57.56a5.38,5.38,0,0,1-8.24,0c-9.7-11.56-33.18-41.22-33.18-57.56A37.3,37.3,0,0,1,391.38,289.76Z"/><circle class="cls-2" cx="391.38" cy="327.39" r="30"/><path class="cls-3" d="M111.41,391.7A37.3,37.3,0,0,1,148.71,429c0,16.35-23.48,46-33.18,57.56a5.37,5.37,0,0,1-8.24,0C97.59,475,74.11,445.34,74.11,429A37.3,37.3,0,0,1,111.41,391.7Z"/><circle class="cls-2" cx="111.41" cy="429.33" r="30"/><path class="cls-3" d="M482,398a37.3,37.3,0,0,1,37.29,37.3c0,16.34-23.47,46-33.17,57.56a5.38,5.38,0,0,1-8.24,0c-9.7-11.56-33.18-41.22-33.18-57.56A37.3,37.3,0,0,1,482,398Z"/><circle class="cls-2" cx="482.01" cy="435.62" r="30"/><path class="cls-3" d="M609.33,485.34a37.3,37.3,0,0,1,37.3,37.3c0,16.34-23.48,46-33.18,57.56a5.37,5.37,0,0,1-8.23,0C595.51,568.64,572,539,572,522.64A37.3,37.3,0,0,1,609.33,485.34Z"/><circle class="cls-2" cx="609.33" cy="522.98" r="30"/><path class="cls-3" d="M322,512.73A37.3,37.3,0,0,1,359.28,550c0,16.35-23.48,46-33.18,57.56a5.37,5.37,0,0,1-8.24,0c-9.7-11.56-33.18-41.21-33.18-57.56A37.3,37.3,0,0,1,322,512.73Z"/><circle class="cls-2" cx="321.98" cy="550.36" r="30"/><path class="cls-3" d="M65.07,594.9a37.29,37.29,0,0,1,37.29,37.3c0,16.34-23.47,46-33.17,57.56a5.38,5.38,0,0,1-8.24,0c-9.7-11.56-33.18-41.22-33.18-57.56A37.3,37.3,0,0,1,65.07,594.9Z"/><circle class="cls-2" cx="65.07" cy="632.54" r="30"/><path class="cls-3" d="M354.43,633.66A37.3,37.3,0,0,1,391.72,671c0,16.34-23.47,46-33.17,57.56a5.38,5.38,0,0,1-8.24,0C340.61,717,317.13,687.3,317.13,671A37.3,37.3,0,0,1,354.43,633.66Z"/><circle class="cls-2" cx="354.43" cy="671.29" r="30"/><rect class="cls-4" x="397.44" y="221.28" width="4.69" height="2.38"/><path class="cls-4" d="M368,240.24l-19.79-11.42c-2.32-1.34-2-3.69.65-5.23l22.85-13.19c2.67-1.55,6.74-1.72,9.06-.38l19.78,11.42c2.32,1.34,2,3.69-.65,5.23l-22.85,13.2C374.39,241.41,370.32,241.58,368,240.24Z"/><rect class="cls-4" x="346.68" y="224.39" width="4.69" height="2.38"/><path class="cls-5" d="M368,238l-19.79-11.42c-2.32-1.34-2-3.69.65-5.23l22.85-13.2c2.67-1.54,6.74-1.71,9.06-.37l19.78,11.42c2.32,1.34,2,3.69-.65,5.23l-22.85,13.2C374.39,239.15,370.32,239.32,368,238Z"/><path class="cls-4" d="M391.36,222.47c0,5.28-7.6,9.56-17,9.56s-17-4.28-17-9.56,7.6-9.55,17-9.55S391.36,217.2,391.36,222.47Z"/><polygon class="cls-4" points="370.6 182.43 357.56 221.28 391.22 221.28 378.18 182.43 370.6 182.43"/><path class="cls-5" d="M378.18,182.43c0,1.18-1.7,2.13-3.79,2.13s-3.79-.95-3.79-2.13,1.7-2.14,3.79-2.14S378.18,181.25,378.18,182.43Z"/><path class="cls-6" d="M388.15,212.11l-.65-1.92,0,0a4.41,4.41,0,0,1,.29,1.52c0,4.15-6,7.52-13.37,7.52S361,215.9,361,211.75a4.39,4.39,0,0,1,.17-1.19l0,0h0c-.28.86-.51,1.53-.6,1.8v0l0,.11h0a4.55,4.55,0,0,0-.26,1.47c0,4.37,6.3,7.92,14.08,7.92s14.17-3.55,14.17-7.92A4.78,4.78,0,0,0,388.15,212.11Z"/><path class="cls-6" d="M386,205.65l-.66-1.94a3.93,3.93,0,0,1,.18,1.13c0,3.44-4.95,6.23-11.07,6.23s-11.07-2.79-11.07-6.23a3.71,3.71,0,0,1,.23-1.28h-.06l-.69,2.11h0l-.05.14v0a3.6,3.6,0,0,0-.2,1.17c0,3.68,5.29,6.65,11.82,6.65s11.82-3,11.82-6.65A3.73,3.73,0,0,0,386,205.65Z"/><path class="cls-6" d="M383.62,198.68h0l-.65-1.92a.17.17,0,0,1,0,.07,2.57,2.57,0,0,1,.11.72c0,2.71-3.9,4.9-8.71,4.9s-8.7-2.19-8.7-4.9a2.05,2.05,0,0,1,.1-.55.49.49,0,0,1,0-.12l-.52,1.58a2.91,2.91,0,0,0-.15,1c0,2.9,4.17,5.25,9.32,5.25s9.32-2.35,9.32-5.25A3,3,0,0,0,383.62,198.68Z"/><path class="cls-6" d="M381.36,191.94h0l-.49-1.43a2.27,2.27,0,0,1,.12.69c0,2.05-3,3.72-6.61,3.72s-6.61-1.67-6.61-3.72a2,2,0,0,1,.12-.69L367.4,192l0,0a2.12,2.12,0,0,0-.14.75c0,2.21,3.18,4,7.11,4s7.12-1.79,7.12-4A2.53,2.53,0,0,0,381.36,191.94Z"/><rect class="cls-4" x="247.43" y="450.65" width="4.69" height="2.38"/><path class="cls-4" d="M218,469.61l-19.79-11.42c-2.31-1.34-2-3.69.65-5.23l22.85-13.2c2.67-1.54,6.75-1.71,9.06-.37l19.79,11.42c2.31,1.34,2,3.69-.65,5.23l-22.85,13.19C224.39,470.78,220.31,471,218,469.61Z"/><rect class="cls-4" x="196.67" y="453.76" width="4.69" height="2.38"/><path class="cls-5" d="M218,467.35l-19.79-11.42c-2.31-1.34-2-3.69.65-5.23l22.85-13.2c2.67-1.54,6.75-1.71,9.06-.37l19.79,11.42c2.31,1.34,2,3.69-.65,5.23L227.06,467C224.39,468.52,220.31,468.68,218,467.35Z"/><path class="cls-4" d="M241.35,451.84c0,5.28-7.6,9.56-17,9.56s-17-4.28-17-9.56,7.6-9.55,17-9.55S241.35,446.57,241.35,451.84Z"/><polygon class="cls-4" points="220.59 411.8 207.55 450.65 241.22 450.65 228.17 411.8 220.59 411.8"/><path class="cls-5" d="M228.17,411.8c0,1.17-1.69,2.13-3.79,2.13s-3.79-1-3.79-2.13,1.7-2.14,3.79-2.14S228.17,410.62,228.17,411.8Z"/><path class="cls-6" d="M238.14,441.48l-.65-1.92,0,0a4.46,4.46,0,0,1,.29,1.53c0,4.15-6,7.52-13.37,7.52S211,445.27,211,441.12a4.75,4.75,0,0,1,.17-1.19s0,0,0,0h0l-.61,1.79v0l0,.11h0a4.64,4.64,0,0,0-.25,1.48c0,4.37,6.3,7.92,14.07,7.92s14.18-3.55,14.18-7.92A4.75,4.75,0,0,0,238.14,441.48Z"/><path class="cls-6" d="M236,435l-.67-1.94a3.61,3.61,0,0,1,.19,1.12c0,3.45-5,6.24-11.08,6.24s-11.07-2.79-11.07-6.24a3.7,3.7,0,0,1,.23-1.27h-.06l-.69,2.11h0l0,.14h0a4,4,0,0,0-.2,1.18c0,3.67,5.29,6.65,11.82,6.65s11.82-3,11.82-6.65A4,4,0,0,0,236,435Z"/><path class="cls-6" d="M233.61,428.05h0l-.65-1.92a.17.17,0,0,1,0,.07,2.51,2.51,0,0,1,.11.72c0,2.71-3.9,4.9-8.7,4.9s-8.71-2.19-8.71-4.9a2.75,2.75,0,0,1,.1-.56s0-.07,0-.11l-.52,1.58a2.91,2.91,0,0,0-.15,1c0,2.9,4.18,5.25,9.32,5.25s9.32-2.35,9.32-5.25A3,3,0,0,0,233.61,428.05Z"/><path class="cls-6" d="M231.35,421.31h0l-.49-1.44a2.11,2.11,0,0,1,.13.7c0,2.05-3,3.72-6.62,3.72s-6.61-1.67-6.61-3.72a2.27,2.27,0,0,1,.12-.69l-.49,1.47,0,0a2.22,2.22,0,0,0-.14.76c0,2.21,3.19,4,7.12,4s7.11-1.79,7.11-4A2.29,2.29,0,0,0,231.35,421.31Z"/><rect class="cls-4" x="496.95" y="584.17" width="4.69" height="2.38"/><path class="cls-4" d="M467.52,603.13l-19.79-11.42c-2.31-1.34-2-3.69.65-5.23l22.85-13.2c2.67-1.54,6.75-1.71,9.06-.37l19.79,11.42c2.31,1.34,2,3.69-.65,5.23l-22.85,13.19C473.91,604.3,469.83,604.46,467.52,603.13Z"/><rect class="cls-4" x="446.19" y="587.28" width="4.69" height="2.38"/><path class="cls-5" d="M467.52,600.87l-19.79-11.43c-2.31-1.33-2-3.68.65-5.23L471.23,571c2.67-1.54,6.75-1.71,9.06-.37l19.79,11.42c2.31,1.34,2,3.69-.65,5.23l-22.85,13.19C473.91,602,469.83,602.2,467.52,600.87Z"/><path class="cls-4" d="M490.88,585.36c0,5.28-7.6,9.55-17,9.55s-17-4.27-17-9.55,7.6-9.55,17-9.55S490.88,580.09,490.88,585.36Z"/><polygon class="cls-4" points="470.12 545.32 457.07 584.17 490.74 584.17 477.69 545.32 470.12 545.32"/><path class="cls-5" d="M477.69,545.32c0,1.17-1.69,2.13-3.78,2.13s-3.79-1-3.79-2.13,1.69-2.14,3.79-2.14S477.69,544.14,477.69,545.32Z"/><path class="cls-6" d="M487.66,575l-.64-1.92,0,0a4.46,4.46,0,0,1,.29,1.53c0,4.15-6,7.52-13.37,7.52s-13.37-3.37-13.37-7.52a4.34,4.34,0,0,1,.18-1.19l0,0h0c-.29.85-.52,1.53-.6,1.79v0l0,.11h0a4.64,4.64,0,0,0-.25,1.48c0,4.37,6.3,7.92,14.07,7.92s14.18-3.55,14.18-7.92A4.57,4.57,0,0,0,487.66,575Z"/><path class="cls-6" d="M485.49,568.53l-.67-1.93a3.61,3.61,0,0,1,.19,1.12c0,3.45-5,6.24-11.07,6.24s-11.08-2.79-11.08-6.24a3.7,3.7,0,0,1,.23-1.27H463l-.68,2.11h0l0,.14h0a4,4,0,0,0-.19,1.18c0,3.67,5.29,6.65,11.81,6.65s11.82-3,11.82-6.65A4,4,0,0,0,485.49,568.53Z"/><path class="cls-6" d="M483.13,561.57h0l-.64-1.92a.15.15,0,0,0,0,.07,2.84,2.84,0,0,1,.1.72c0,2.71-3.89,4.9-8.7,4.9s-8.71-2.19-8.71-4.9a2.75,2.75,0,0,1,.1-.56.45.45,0,0,0,0-.11l-.52,1.58a3.16,3.16,0,0,0-.14,1c0,2.9,4.17,5.25,9.31,5.25s9.32-2.35,9.32-5.25A3,3,0,0,0,483.13,561.57Z"/><path class="cls-6" d="M480.87,554.83h0l-.49-1.44a2.11,2.11,0,0,1,.13.7c0,2-3,3.72-6.62,3.72s-6.61-1.67-6.61-3.72a2.27,2.27,0,0,1,.12-.69l-.48,1.47v0a2.48,2.48,0,0,0-.13.76c0,2.21,3.18,4,7.11,4s7.11-1.79,7.11-4A2.29,2.29,0,0,0,480.87,554.83Z"/><path class="cls-7" d="M642.1,371.72c0,4.73-7.2,8.56-16.09,8.56s-16.09-3.83-16.09-8.56,7.21-8.56,16.09-8.56S642.1,367,642.1,371.72Z"/><path class="cls-8" d="M642.08,371c0,4.72-7.2,8.55-16.08,8.55s-16.08-3.83-16.08-8.55,7.2-8.56,16.08-8.56S642.08,366.24,642.08,371Z"/><rect class="cls-8" x="609.92" y="361.11" width="32.16" height="10.38"/><path class="cls-7" d="M642.08,361.47c0,4.72-7.2,8.55-16.08,8.55s-16.08-3.83-16.08-8.55,7.2-8.56,16.08-8.56S642.08,356.74,642.08,361.47Z"/><ellipse class="cls-9" cx="626.01" cy="361.11" rx="14.67" ry="7.8"/><path class="cls-7" d="M626,356.48c5.54,0,10.07,2.26,10.55,5.14a2.94,2.94,0,0,0,.05-.51c0-3.11-4.74-5.64-10.6-5.64s-10.6,2.53-10.6,5.64a2.94,2.94,0,0,0,.05.51C615.93,358.74,620.47,356.48,626,356.48Z"/><path class="cls-10" d="M626,366.75c5.54,0,10.07-2.26,10.55-5.13-.48-2.88-5-5.14-10.55-5.14s-10.07,2.26-10.55,5.14C615.93,364.49,620.47,366.75,626,366.75Z"/><path class="cls-7" d="M626,376.49c-8.57,0-15.55-3.57-16-8.06a3.87,3.87,0,0,0-.05.49c0,4.72,7.2,8.55,16.08,8.55s16.08-3.83,16.08-8.55a3.87,3.87,0,0,0-.05-.49C641.57,372.92,634.58,376.49,626,376.49Z"/><path class="cls-7" d="M626,373c-8.57,0-15.55-3.57-16-8.07a4.28,4.28,0,0,0-.05.49c0,4.73,7.2,8.56,16.08,8.56s16.08-3.83,16.08-8.56a4.28,4.28,0,0,0-.05-.49C641.57,369.38,634.58,373,626,373Z"/><path class="cls-7" d="M642.1,358.8c0,4.72-7.2,8.56-16.09,8.56s-16.09-3.84-16.09-8.56,7.21-8.56,16.09-8.56S642.1,354.07,642.1,358.8Z"/><path class="cls-11" d="M642.08,358c0,4.73-7.2,8.56-16.08,8.56s-16.08-3.83-16.08-8.56,7.2-8.55,16.08-8.55S642.08,353.32,642.08,358Z"/><rect class="cls-11" x="609.92" y="348.19" width="32.16" height="10.38"/><path class="cls-5" d="M642.08,348.54c0,4.73-7.2,8.55-16.08,8.55s-16.08-3.82-16.08-8.55S617.12,340,626,340,642.08,343.82,642.08,348.54Z"/><ellipse class="cls-12" cx="626.01" cy="348.19" rx="14.67" ry="7.8"/><path class="cls-5" d="M626,343.56c5.54,0,10.07,2.26,10.55,5.13a2.73,2.73,0,0,0,.05-.5c0-3.12-4.74-5.64-10.6-5.64s-10.6,2.52-10.6,5.64a2.73,2.73,0,0,0,.05.5C615.93,345.82,620.47,343.56,626,343.56Z"/><path class="cls-13" d="M626,353.83c5.54,0,10.07-2.26,10.55-5.14-.48-2.87-5-5.13-10.55-5.13s-10.07,2.26-10.55,5.13C615.93,351.57,620.47,353.83,626,353.83Z"/><path class="cls-4" d="M626,363.57c-8.57,0-15.55-3.57-16-8.07a4.28,4.28,0,0,0-.05.49c0,4.73,7.2,8.56,16.08,8.56s16.08-3.83,16.08-8.56a4.28,4.28,0,0,0-.05-.49C641.57,360,634.58,363.57,626,363.57Z"/><path class="cls-4" d="M626,360c-8.57,0-15.55-3.57-16-8.06a3.87,3.87,0,0,0-.05.49c0,4.72,7.2,8.55,16.08,8.55s16.08-3.83,16.08-8.55A3.87,3.87,0,0,0,642,352C641.57,356.45,634.58,360,626,360Z"/><path class="cls-7" d="M617.52,385.55c0,4.73-7.21,8.56-16.09,8.56s-16.09-3.83-16.09-8.56,7.2-8.55,16.09-8.55S617.52,380.83,617.52,385.55Z"/><path class="cls-8" d="M617.5,384.8c0,4.72-7.2,8.55-16.08,8.55s-16.08-3.83-16.08-8.55,7.2-8.55,16.08-8.55S617.5,380.08,617.5,384.8Z"/><rect class="cls-8" x="585.34" y="374.94" width="32.16" height="10.38"/><ellipse class="cls-7" cx="601.42" cy="375.3" rx="16.08" ry="8.55"/><path class="cls-9" d="M616.1,374.94c0,4.31-6.57,7.81-14.67,7.81s-14.67-3.5-14.67-7.81,6.57-7.8,14.67-7.8S616.1,370.63,616.1,374.94Z"/><path class="cls-7" d="M601.42,370.32c5.53,0,10.07,2.25,10.55,5.13a2.94,2.94,0,0,0,0-.51c0-3.11-4.75-5.63-10.6-5.63s-10.6,2.52-10.6,5.63a2.94,2.94,0,0,0,0,.51C591.35,372.57,595.89,370.32,601.42,370.32Z"/><path class="cls-10" d="M601.42,380.58c5.53,0,10.07-2.25,10.55-5.13-.48-2.88-5-5.13-10.55-5.13s-10.07,2.25-10.55,5.13C591.35,378.33,595.89,380.58,601.42,380.58Z"/><path class="cls-7" d="M601.43,390.32c-8.57,0-15.55-3.56-16-8.06a3.87,3.87,0,0,0,0,.49c0,4.72,7.2,8.55,16.08,8.55s16.08-3.83,16.08-8.55a3.87,3.87,0,0,0,0-.49C617,386.76,610,390.32,601.43,390.32Z"/><path class="cls-7" d="M601.43,386.78c-8.57,0-15.55-3.57-16-8.06a3.87,3.87,0,0,0,0,.49c0,4.72,7.2,8.55,16.08,8.55s16.08-3.83,16.08-8.55a3.87,3.87,0,0,0,0-.49C617,383.21,610,386.78,601.43,386.78Z"/><path class="cls-7" d="M617.52,372.63c0,4.73-7.21,8.56-16.09,8.56s-16.09-3.83-16.09-8.56,7.2-8.56,16.09-8.56S617.52,367.9,617.52,372.63Z"/><ellipse class="cls-11" cx="601.42" cy="371.88" rx="16.08" ry="8.55"/><rect class="cls-11" x="585.34" y="362.02" width="32.16" height="10.38"/><ellipse class="cls-5" cx="601.42" cy="362.37" rx="16.08" ry="8.55"/><path class="cls-12" d="M616.1,362c0,4.31-6.57,7.8-14.67,7.8s-14.67-3.49-14.67-7.8,6.57-7.8,14.67-7.8S616.1,357.71,616.1,362Z"/><path class="cls-5" d="M601.42,357.39c5.53,0,10.07,2.26,10.55,5.14a2.94,2.94,0,0,0,0-.51c0-3.11-4.75-5.64-10.6-5.64s-10.6,2.53-10.6,5.64a2.94,2.94,0,0,0,0,.51C591.35,359.65,595.89,357.39,601.42,357.39Z"/><path class="cls-13" d="M601.42,367.66c5.53,0,10.07-2.26,10.55-5.13-.48-2.88-5-5.14-10.55-5.14s-10.07,2.26-10.55,5.14C591.35,365.4,595.89,367.66,601.42,367.66Z"/><path class="cls-4" d="M601.43,377.4c-8.57,0-15.55-3.57-16-8.06a3.87,3.87,0,0,0,0,.49c0,4.72,7.2,8.55,16.08,8.55s16.08-3.83,16.08-8.55a3.87,3.87,0,0,0,0-.49C617,373.83,610,377.4,601.43,377.4Z"/><path class="cls-4" d="M601.43,373.86c-8.57,0-15.55-3.57-16-8.07a4.28,4.28,0,0,0,0,.49c0,4.73,7.2,8.56,16.08,8.56s16.08-3.83,16.08-8.56a4.28,4.28,0,0,0,0-.49C617,370.29,610,373.86,601.43,373.86Z"/><path class="cls-7" d="M75.67,98.66c0,4.72,7.2,8.55,16.09,8.55s16.09-3.83,16.09-8.55-7.21-8.56-16.09-8.56S75.67,93.93,75.67,98.66Z"/><path class="cls-8" d="M75.69,97.9c0,4.73,7.2,8.55,16.08,8.55s16.08-3.82,16.08-8.55-7.2-8.55-16.08-8.55S75.69,93.18,75.69,97.9Z"/><rect class="cls-8" x="75.69" y="88.05" width="32.16" height="10.38" transform="translate(183.53 186.47) rotate(180)"/><path class="cls-7" d="M75.69,88.4c0,4.72,7.2,8.55,16.08,8.55s16.08-3.83,16.08-8.55-7.2-8.55-16.08-8.55S75.69,83.68,75.69,88.4Z"/><ellipse class="cls-9" cx="91.76" cy="88.05" rx="14.67" ry="7.8"/><path class="cls-7" d="M91.77,83.42c-5.54,0-10.07,2.25-10.55,5.13a2.83,2.83,0,0,1,0-.5c0-3.12,4.74-5.64,10.6-5.64s10.6,2.52,10.6,5.64a2.83,2.83,0,0,1-.05.5C101.84,85.67,97.3,83.42,91.77,83.42Z"/><path class="cls-10" d="M91.77,93.69c-5.54,0-10.07-2.26-10.55-5.14.48-2.88,5-5.13,10.55-5.13s10.07,2.25,10.55,5.13C101.84,91.43,97.3,93.69,91.77,93.69Z"/><path class="cls-7" d="M91.76,103.43c8.57,0,15.55-3.57,16-8.07a4.28,4.28,0,0,1,0,.49c0,4.73-7.2,8.56-16.08,8.56s-16.08-3.83-16.08-8.56c0-.16,0-.32,0-.49C76.2,99.86,83.19,103.43,91.76,103.43Z"/><path class="cls-7" d="M91.76,99.88c8.57,0,15.55-3.57,16-8.06a3.87,3.87,0,0,1,0,.49c0,4.72-7.2,8.55-16.08,8.55S75.68,97,75.68,92.31c0-.17,0-.33,0-.49C76.2,96.31,83.19,99.88,91.76,99.88Z"/><path class="cls-7" d="M75.67,85.73c0,4.73,7.2,8.56,16.09,8.56s16.09-3.83,16.09-8.56-7.21-8.56-16.09-8.56S75.67,81,75.67,85.73Z"/><path class="cls-11" d="M75.69,85c0,4.72,7.2,8.55,16.08,8.55S107.85,89.7,107.85,85s-7.2-8.56-16.08-8.56S75.69,80.25,75.69,85Z"/><rect class="cls-11" x="75.69" y="75.12" width="32.16" height="10.38" transform="translate(183.53 160.62) rotate(180)"/><path class="cls-5" d="M75.69,75.48c0,4.72,7.2,8.55,16.08,8.55s16.08-3.83,16.08-8.55-7.2-8.56-16.08-8.56S75.69,70.75,75.69,75.48Z"/><ellipse class="cls-12" cx="91.76" cy="75.12" rx="14.67" ry="7.8"/><path class="cls-5" d="M91.77,70.49c-5.54,0-10.07,2.26-10.55,5.14a2.94,2.94,0,0,1,0-.51c0-3.11,4.74-5.64,10.6-5.64s10.6,2.53,10.6,5.64a2.94,2.94,0,0,1-.05.51C101.84,72.75,97.3,70.49,91.77,70.49Z"/><path class="cls-13" d="M91.77,80.76c-5.54,0-10.07-2.26-10.55-5.13.48-2.88,5-5.14,10.55-5.14s10.07,2.26,10.55,5.14C101.84,78.5,97.3,80.76,91.77,80.76Z"/><path class="cls-4" d="M91.76,90.5c8.57,0,15.55-3.57,16-8.06a3.87,3.87,0,0,1,0,.49c0,4.72-7.2,8.55-16.08,8.55s-16.08-3.83-16.08-8.55c0-.17,0-.33,0-.49C76.2,86.93,83.19,90.5,91.76,90.5Z"/><path class="cls-4" d="M91.76,87c8.57,0,15.55-3.57,16-8.06a3.91,3.91,0,0,1,0,.48c0,4.73-7.2,8.56-16.08,8.56s-16.08-3.83-16.08-8.56c0-.16,0-.32,0-.48C76.2,83.39,83.19,87,91.76,87Z"/><path class="cls-7" d="M100.25,112.49c0,4.73,7.2,8.56,16.09,8.56s16.09-3.83,16.09-8.56-7.2-8.56-16.09-8.56S100.25,107.76,100.25,112.49Z"/><path class="cls-8" d="M100.27,111.73c0,4.73,7.2,8.56,16.08,8.56s16.08-3.83,16.08-8.56-7.2-8.55-16.08-8.55S100.27,107,100.27,111.73Z"/><rect class="cls-8" x="100.27" y="101.88" width="32.16" height="10.38" transform="translate(232.7 214.13) rotate(180)"/><ellipse class="cls-7" cx="116.35" cy="102.23" rx="16.08" ry="8.55"/><path class="cls-9" d="M101.67,101.88c0,4.31,6.57,7.8,14.67,7.8s14.67-3.49,14.67-7.8-6.57-7.8-14.67-7.8S101.67,97.57,101.67,101.88Z"/><path class="cls-7" d="M116.35,97.25c-5.53,0-10.07,2.26-10.55,5.13a2.73,2.73,0,0,1,0-.5c0-3.11,4.75-5.64,10.6-5.64s10.6,2.53,10.6,5.64a2.73,2.73,0,0,1,0,.5C126.42,99.51,121.88,97.25,116.35,97.25Z"/><path class="cls-10" d="M116.35,107.52c-5.53,0-10.07-2.26-10.55-5.14.48-2.87,5-5.13,10.55-5.13s10.07,2.26,10.55,5.13C126.42,105.26,121.88,107.52,116.35,107.52Z"/><path class="cls-7" d="M116.34,117.26c8.57,0,15.55-3.57,16-8.06a3.91,3.91,0,0,1,0,.48c0,4.73-7.2,8.56-16.08,8.56s-16.08-3.83-16.08-8.56a3.91,3.91,0,0,1,0-.48C100.79,113.69,107.77,117.26,116.34,117.26Z"/><path class="cls-7" d="M116.34,113.72c8.57,0,15.55-3.57,16-8.07a4.07,4.07,0,0,1,0,.49c0,4.73-7.2,8.55-16.08,8.55s-16.08-3.82-16.08-8.55a4.07,4.07,0,0,1,0-.49C100.79,110.15,107.77,113.72,116.34,113.72Z"/><path class="cls-7" d="M100.25,99.56c0,4.73,7.2,8.56,16.09,8.56s16.09-3.83,16.09-8.56S125.23,91,116.34,91,100.25,94.84,100.25,99.56Z"/><ellipse class="cls-11" cx="116.35" cy="98.81" rx="16.08" ry="8.55"/><rect class="cls-11" x="100.27" y="88.96" width="32.16" height="10.38" transform="translate(232.7 188.29) rotate(180)"/><ellipse class="cls-5" cx="116.35" cy="89.31" rx="16.08" ry="8.55"/><path class="cls-12" d="M101.67,89c0,4.3,6.57,7.8,14.67,7.8S131,93.26,131,89s-6.57-7.81-14.67-7.81S101.67,84.65,101.67,89Z"/><path class="cls-5" d="M116.35,84.33c-5.53,0-10.07,2.25-10.55,5.13a2.83,2.83,0,0,1,0-.5c0-3.12,4.75-5.64,10.6-5.64S127,85.84,127,89a2.83,2.83,0,0,1,0,.5C126.42,86.58,121.88,84.33,116.35,84.33Z"/><path class="cls-13" d="M116.35,94.59c-5.53,0-10.07-2.25-10.55-5.13.48-2.88,5-5.13,10.55-5.13s10.07,2.25,10.55,5.13C126.42,92.34,121.88,94.59,116.35,94.59Z"/><path class="cls-4" d="M116.34,104.34c8.57,0,15.55-3.57,16-8.07a4.07,4.07,0,0,1,0,.49c0,4.72-7.2,8.55-16.08,8.55s-16.08-3.83-16.08-8.55a4.07,4.07,0,0,1,0-.49C100.79,100.77,107.77,104.34,116.34,104.34Z"/><path class="cls-4" d="M116.34,100.79c8.57,0,15.55-3.57,16-8.06a3.87,3.87,0,0,1,0,.49c0,4.72-7.2,8.55-16.08,8.55s-16.08-3.83-16.08-8.55a3.87,3.87,0,0,1,0-.49C100.79,97.22,107.77,100.79,116.34,100.79Z"/><path class="cls-3" d="M309.28,95.23h-16V91.05h5.05V78.36h-5.05V74.45a17.63,17.63,0,0,0,2.22-.14,6,6,0,0,0,1.77-.47,3,3,0,0,0,1.26-1,3.29,3.29,0,0,0,.48-1.61h5.33V91.05h4.95Z"/><path class="cls-3" d="M46.59,171.24H27.75v-4c1.44-1,2.88-2.14,4.33-3.32s2.6-2.18,3.47-3a16.86,16.86,0,0,0,2.77-3.29,5.45,5.45,0,0,0,.82-2.77,3.15,3.15,0,0,0-1-2.54,4.58,4.58,0,0,0-3-.89,8.85,8.85,0,0,0-3.12.61,14.45,14.45,0,0,0-3,1.56h-.52v-5.33a18.73,18.73,0,0,1,3.38-1,19.89,19.89,0,0,1,4.47-.5c3,0,5.3.63,6.88,1.89A6.46,6.46,0,0,1,45.48,154a8.78,8.78,0,0,1-1.14,4.32,18,18,0,0,1-3.47,4.22c-1,.9-2,1.73-2.95,2.49s-1.69,1.29-2.11,1.59H46.59Z"/><path class="cls-3" d="M553.54,207.8a5.43,5.43,0,0,1,1.25,1.58,5.15,5.15,0,0,1,.47,2.4,7.43,7.43,0,0,1-.67,3.16,6.51,6.51,0,0,1-2.05,2.52,10,10,0,0,1-3.18,1.55,15.85,15.85,0,0,1-4.44.54,23.69,23.69,0,0,1-5.12-.47,19.79,19.79,0,0,1-3.47-1v-5.27H537a15.23,15.23,0,0,0,3.31,1.45,11.64,11.64,0,0,0,3.52.61,15.06,15.06,0,0,0,2-.15,4.42,4.42,0,0,0,1.85-.67,3.16,3.16,0,0,0,1-1,3.11,3.11,0,0,0,.36-1.65,2.39,2.39,0,0,0-.49-1.62,2.59,2.59,0,0,0-1.27-.81,6.51,6.51,0,0,0-1.9-.28l-2.06,0h-1.32v-4.28h1.37c.83,0,1.58,0,2.22-.08a5.28,5.28,0,0,0,1.64-.38,2.38,2.38,0,0,0,1.07-.81,2.64,2.64,0,0,0,.35-1.49,1.76,1.76,0,0,0-.37-1.17,2.72,2.72,0,0,0-.93-.7,5.15,5.15,0,0,0-1.49-.39,14.33,14.33,0,0,0-1.46-.09,11.62,11.62,0,0,0-3.29.52,14.88,14.88,0,0,0-3.43,1.51H537v-5.21a23.94,23.94,0,0,1,3.59-1,21.68,21.68,0,0,1,4.61-.49,18,18,0,0,1,4,.39A10.08,10.08,0,0,1,552,196a5.43,5.43,0,0,1,2,1.92,5.21,5.21,0,0,1,.64,2.64,5.6,5.6,0,0,1-1.24,3.57,5.53,5.53,0,0,1-3.27,2v.22a8.94,8.94,0,0,1,1.74.45A5.69,5.69,0,0,1,553.54,207.8Z"/><path class="cls-3" d="M401.8,333h-3.27v5.59h-5.91V333H381v-4.54l11.23-13.92h6.3v14.08h3.27Zm-9.18-4.38V320l-7,8.69Z"/><path class="cls-3" d="M491.9,439.6a8.78,8.78,0,0,1-.68,3.48,7.45,7.45,0,0,1-1.9,2.74,8.75,8.75,0,0,1-3,1.82,11.62,11.62,0,0,1-4,.63,12.3,12.3,0,0,1-3.94-.59,8,8,0,0,1-3-1.79,8.86,8.86,0,0,1-2.24-3.58,15.68,15.68,0,0,1-.78-5.24,19.85,19.85,0,0,1,.73-5.6,11.36,11.36,0,0,1,2.37-4.34,10.39,10.39,0,0,1,4.1-2.8,16.18,16.18,0,0,1,6-1,22,22,0,0,1,2.58.16c.93.11,1.54.19,1.82.24v4.72h-.61a8.12,8.12,0,0,0-1.48-.47,9.4,9.4,0,0,0-2.36-.27,7,7,0,0,0-4.81,1.52,6.47,6.47,0,0,0-2.08,4.22,12.43,12.43,0,0,1,2.62-1.2,9.2,9.2,0,0,1,3-.46,10.23,10.23,0,0,1,2.6.32,7.42,7.42,0,0,1,2.23,1,6.81,6.81,0,0,1,2.15,2.52A8.72,8.72,0,0,1,491.9,439.6Zm-7.33,3.63a4.37,4.37,0,0,0,.8-1.3,5.66,5.66,0,0,0,.29-2,4.8,4.8,0,0,0-.33-1.92,3.06,3.06,0,0,0-.94-1.2,3.25,3.25,0,0,0-1.37-.62,7.24,7.24,0,0,0-1.62-.17,7.14,7.14,0,0,0-1.49.16,10.39,10.39,0,0,0-1.42.4c0,.11,0,.29,0,.53s0,.56,0,.94a11,11,0,0,0,.4,3.26,4.7,4.7,0,0,0,1.05,2A2.69,2.69,0,0,0,481,444a3.52,3.52,0,0,0,1.32.24,3.42,3.42,0,0,0,1.17-.25A2.85,2.85,0,0,0,484.57,443.23Z"/><path class="cls-3" d="M620.87,515.83,610,535.05h-6.89l11.27-19.4H602.07v-4.59h18.8Z"/><path class="cls-3" d="M333.31,555.68a6.23,6.23,0,0,1-2.71,5.22,12.23,12.23,0,0,1-7.45,2,16.35,16.35,0,0,1-4.56-.55,9.24,9.24,0,0,1-3.15-1.51,6.13,6.13,0,0,1-1.81-2.22,6.52,6.52,0,0,1-.59-2.74,5.17,5.17,0,0,1,1.06-3.2,8.35,8.35,0,0,1,3.65-2.44v-.1a7.25,7.25,0,0,1-3.08-2.43,6,6,0,0,1-1-3.4,5.5,5.5,0,0,1,2.64-4.68,11.92,11.92,0,0,1,6.88-1.82,12.63,12.63,0,0,1,7,1.65,5.07,5.07,0,0,1,2.52,4.41,4.76,4.76,0,0,1-1.06,3.05,8.15,8.15,0,0,1-3.26,2.27v.1a8,8,0,0,1,3.73,2.56A6.17,6.17,0,0,1,333.31,555.68Zm-6.15.27a2.4,2.4,0,0,0-.58-1.75,7.81,7.81,0,0,0-2.39-1.37c-.35-.16-.87-.36-1.54-.6s-1.25-.44-1.71-.61a7.3,7.3,0,0,0-1.25,1.52,3.76,3.76,0,0,0-.56,2,3.29,3.29,0,0,0,1.2,2.67,4.78,4.78,0,0,0,3.14,1,5.37,5.37,0,0,0,1.21-.16,3.66,3.66,0,0,0,1.19-.47,3.25,3.25,0,0,0,.93-.87A2.29,2.29,0,0,0,327.16,556Zm-.5-11.36a2.34,2.34,0,0,0-.94-1.94,4,4,0,0,0-2.51-.73,4.83,4.83,0,0,0-1.18.15,4.31,4.31,0,0,0-1.11.41,2.41,2.41,0,0,0-.77.72,1.7,1.7,0,0,0-.31,1,2,2,0,0,0,.54,1.48,5.93,5.93,0,0,0,1.77,1.06q.45.19,1.23.48c.52.19,1.15.4,1.89.64a7.3,7.3,0,0,0,1.07-1.57A4.11,4.11,0,0,0,326.66,544.59Z"/><path class="cls-3" d="M75.41,630.23a19.41,19.41,0,0,1-.78,5.61,11.27,11.27,0,0,1-2.35,4.37A10.6,10.6,0,0,1,68,643.09a16.53,16.53,0,0,1-5.89,1,24,24,0,0,1-2.58-.15,14.87,14.87,0,0,1-1.82-.26v-4.72h.64a9.56,9.56,0,0,0,1.38.48,8.79,8.79,0,0,0,2.44.26,9.78,9.78,0,0,0,2.47-.31,5.69,5.69,0,0,0,2.07-1,5.88,5.88,0,0,0,1.57-1.82,7.22,7.22,0,0,0,.82-2.61,17.52,17.52,0,0,1-2.6,1.23,9.14,9.14,0,0,1-3,.43,10,10,0,0,1-2.59-.33,7.43,7.43,0,0,1-2.25-1,6.79,6.79,0,0,1-2.13-2.51,8.54,8.54,0,0,1-.8-3.92,8.13,8.13,0,0,1,2.68-6.29,10.14,10.14,0,0,1,7-2.42,12.14,12.14,0,0,1,4,.59,8,8,0,0,1,3,1.79A8.72,8.72,0,0,1,74.67,625,16.27,16.27,0,0,1,75.41,630.23Zm-6.17-.9a11.69,11.69,0,0,0-.38-3.24,4.9,4.9,0,0,0-1-2,2.72,2.72,0,0,0-1.08-.74,3.73,3.73,0,0,0-1.29-.23,3.45,3.45,0,0,0-1.2.22,3.4,3.4,0,0,0-1.11.75,4,4,0,0,0-.81,1.36,5.72,5.72,0,0,0-.31,2,4.65,4.65,0,0,0,.34,1.9,3,3,0,0,0,.93,1.22,3.46,3.46,0,0,0,1.33.61,7.31,7.31,0,0,0,1.67.18,7.14,7.14,0,0,0,1.58-.19,7.59,7.59,0,0,0,1.32-.38c0-.12,0-.29,0-.51S69.24,629.77,69.24,629.33Z"/><path class="cls-3" d="M352.62,684.05h-16v-4.19h5.06V667.18H336.6v-3.92a17.67,17.67,0,0,0,2.22-.13,6.11,6.11,0,0,0,1.78-.48,3,3,0,0,0,1.25-1,3.36,3.36,0,0,0,.49-1.61h5.33v19.87h4.95Z"/><path class="cls-3" d="M375.81,672a24.67,24.67,0,0,1-.54,5.42,10.31,10.31,0,0,1-1.71,3.93,7.53,7.53,0,0,1-3.06,2.36,11.83,11.83,0,0,1-4.61.8,11.64,11.64,0,0,1-4.59-.81,7.31,7.31,0,0,1-3.08-2.38,10.26,10.26,0,0,1-1.73-3.93,24.75,24.75,0,0,1-.53-5.38,24,24,0,0,1,.55-5.43,10.58,10.58,0,0,1,1.74-3.9,7.27,7.27,0,0,1,3.09-2.37,11.8,11.8,0,0,1,4.55-.79,11.59,11.59,0,0,1,4.62.81,7.31,7.31,0,0,1,3.06,2.43,10.12,10.12,0,0,1,1.71,3.89A23.74,23.74,0,0,1,375.81,672Zm-6.23,0a16.08,16.08,0,0,0-.86-6.21,3.1,3.1,0,0,0-5.67,0,16.23,16.23,0,0,0-.85,6.24,15.83,15.83,0,0,0,.87,6.16,3,3,0,0,0,5.64,0A15.93,15.93,0,0,0,369.58,672Z"/><text class="cls-14" transform="translate(99.87 440.64)">5</text></g></g></svg>