<svg xmlns="http://www.w3.org/2000/svg" viewBox="0 0 562.62 470.8"><defs><style>.cls-1,.cls-3{fill:#fff;}.cls-1{opacity:0;}.cls-2{fill:#035aa6;}.cls-4{fill:#ffd053;}.cls-5{fill:#84bf2c;}</style></defs><title>slide10_pregunta9</title><g id="Capa_2" data-name="Capa 2"><g id="Layer_7" data-name="Layer 7"><rect class="cls-1" width="562.62" height="470.8"/><rect class="cls-2" x="66.24" y="248.43" width="424.94" height="71.91" rx="12.02"/><path class="cls-3" d="M90.91,272.83H80.79V257.48H90.91v1.81H82.83v4.21h8.08v1.81H82.83V271h8.08Z"/><path class="cls-3" d="M103.62,272.83h-1.94v-6.56a11.7,11.7,0,0,0-.09-1.49,2.92,2.92,0,0,0-.34-1.08,1.59,1.59,0,0,0-.75-.65,3.16,3.16,0,0,0-1.25-.21,4,4,0,0,0-1.66.39,8.62,8.62,0,0,0-1.66,1v8.6H94V261.31h1.94v1.28a7.84,7.84,0,0,1,1.87-1.17,5,5,0,0,1,2-.43,3.58,3.58,0,0,1,2.85,1.13,4.81,4.81,0,0,1,1,3.24Z"/><path class="cls-3" d="M116.73,272.83h-1.94v-16h1.94Z"/><path class="cls-3" d="M129.51,272.83h-1.92V271.6l-.7.49a4.81,4.81,0,0,1-.85.5,5.73,5.73,0,0,1-1.11.4,5.88,5.88,0,0,1-1.48.16,3.67,3.67,0,0,1-2.64-1,3.48,3.48,0,0,1-1.08-2.63,3.69,3.69,0,0,1,.56-2.12,3.77,3.77,0,0,1,1.61-1.27,8.6,8.6,0,0,1,2.52-.63c1-.11,2-.19,3.17-.25v-.3a2.23,2.23,0,0,0-.24-1.09,1.6,1.6,0,0,0-.66-.68,2.88,2.88,0,0,0-1-.32,9.46,9.46,0,0,0-1.21-.08,7.81,7.81,0,0,0-1.7.2,13.58,13.58,0,0,0-1.94.58h-.1v-2c.38-.1.93-.21,1.64-.34a12.7,12.7,0,0,1,2.11-.18,9.48,9.48,0,0,1,2.12.2,4.1,4.1,0,0,1,1.56.68,3,3,0,0,1,1,1.23,4.47,4.47,0,0,1,.34,1.87ZM127.59,270v-3.2c-.59,0-1.29.08-2.09.15a10.83,10.83,0,0,0-1.9.3,3.14,3.14,0,0,0-1.35.74,1.8,1.8,0,0,0-.52,1.38,1.84,1.84,0,0,0,.6,1.49,2.82,2.82,0,0,0,1.82.5A4.41,4.41,0,0,0,126,271,8.68,8.68,0,0,0,127.59,270Z"/><path class="cls-3" d="M149.18,272.11a12,12,0,0,1-1.84.72,6.51,6.51,0,0,1-1.85.26,6.75,6.75,0,0,1-2.29-.37,4.63,4.63,0,0,1-1.78-1.11,4.91,4.91,0,0,1-1.16-1.87,7.64,7.64,0,0,1-.42-2.65,6.16,6.16,0,0,1,1.55-4.44,5.46,5.46,0,0,1,4.1-1.6,7.17,7.17,0,0,1,1.95.27,10.51,10.51,0,0,1,1.74.69v2.15h-.1a7.42,7.42,0,0,0-1.83-1.06,5,5,0,0,0-1.84-.37,3.24,3.24,0,0,0-2.6,1.11,5.95,5.95,0,0,0,0,6.45,3.23,3.23,0,0,0,2.62,1.12,4.61,4.61,0,0,0,1.2-.16,4.83,4.83,0,0,0,1.09-.4,7.45,7.45,0,0,0,.79-.46,5.53,5.53,0,0,0,.59-.42h.1Z"/><path class="cls-3" d="M153.75,259.39h-2.19v-2h2.19Zm-.12,13.44h-1.94V261.31h1.94Z"/><path class="cls-3" d="M167,272.83h-1.94v-1.28a9.38,9.38,0,0,1-1.88,1.19,4.71,4.71,0,0,1-2,.41,3.62,3.62,0,0,1-2.82-1.11,4.69,4.69,0,0,1-1-3.25v-7.48h1.94v6.56a12.55,12.55,0,0,0,.08,1.5,2.81,2.81,0,0,0,.35,1.07,1.75,1.75,0,0,0,.72.66,3.35,3.35,0,0,0,1.29.2,4.19,4.19,0,0,0,1.65-.39,7.41,7.41,0,0,0,1.66-1v-8.6H167Z"/><path class="cls-3" d="M180.16,272.83h-1.94v-1.21a6.64,6.64,0,0,1-1.74,1.13,4.75,4.75,0,0,1-2,.4,3.9,3.9,0,0,1-3.27-1.59,7.08,7.08,0,0,1-1.21-4.4,7.52,7.52,0,0,1,.42-2.61,5.85,5.85,0,0,1,1.13-1.95,4.83,4.83,0,0,1,3.56-1.61,6,6,0,0,1,1.61.2,6.74,6.74,0,0,1,1.47.59v-5h1.94ZM178.22,270v-6.6a7,7,0,0,0-1.4-.49,6.31,6.31,0,0,0-1.35-.13,3.07,3.07,0,0,0-2.53,1.13,5,5,0,0,0-.91,3.22,5.68,5.68,0,0,0,.7,3.12A2.5,2.5,0,0,0,175,271.3a4.26,4.26,0,0,0,1.67-.36A7,7,0,0,0,178.22,270Z"/><path class="cls-3" d="M192.93,272.83H191V271.6l-.7.49a4.48,4.48,0,0,1-.85.5,5.73,5.73,0,0,1-1.11.4,5.88,5.88,0,0,1-1.48.16,3.7,3.7,0,0,1-2.64-1,3.48,3.48,0,0,1-1.08-2.63,3.69,3.69,0,0,1,.56-2.12,3.77,3.77,0,0,1,1.61-1.27,8.6,8.6,0,0,1,2.52-.63c1-.11,2-.19,3.17-.25v-.3a2.35,2.35,0,0,0-.23-1.09,1.69,1.69,0,0,0-.67-.68,2.75,2.75,0,0,0-1-.32,9.34,9.34,0,0,0-1.21-.08,7.88,7.88,0,0,0-1.7.2,13.1,13.1,0,0,0-1.93.58h-.11v-2c.38-.1.93-.21,1.64-.34a12.82,12.82,0,0,1,2.12-.18,9.39,9.39,0,0,1,2.11.2,4.07,4.07,0,0,1,1.57.68,3.14,3.14,0,0,1,1,1.23,4.63,4.63,0,0,1,.34,1.87ZM191,270v-3.2c-.59,0-1.29.08-2.09.15a10.83,10.83,0,0,0-1.9.3,3.14,3.14,0,0,0-1.35.74,1.8,1.8,0,0,0-.52,1.38,1.84,1.84,0,0,0,.6,1.49,2.82,2.82,0,0,0,1.82.5,4.41,4.41,0,0,0,1.87-.4A8.35,8.35,0,0,0,191,270Z"/><path class="cls-3" d="M206,272.83h-1.94v-1.21a7,7,0,0,1-1.74,1.13,4.79,4.79,0,0,1-2,.4,3.91,3.91,0,0,1-3.28-1.59,7.15,7.15,0,0,1-1.21-4.4,7.52,7.52,0,0,1,.42-2.61,6,6,0,0,1,1.13-1.95A4.83,4.83,0,0,1,201,261a5.93,5.93,0,0,1,1.6.2,7,7,0,0,1,1.48.59v-5H206ZM204.06,270v-6.6a7,7,0,0,0-1.4-.49,6.44,6.44,0,0,0-1.35-.13,3.07,3.07,0,0,0-2.54,1.13,5.08,5.08,0,0,0-.91,3.22,5.77,5.77,0,0,0,.7,3.12,2.5,2.5,0,0,0,2.25,1.06,4.22,4.22,0,0,0,1.67-.36A7.29,7.29,0,0,0,204.06,270Z"/><path class="cls-3" d="M226.57,272.83h-1.93v-1.21a6.86,6.86,0,0,1-1.75,1.13,4.75,4.75,0,0,1-2,.4,3.9,3.9,0,0,1-3.27-1.59,7.08,7.08,0,0,1-1.21-4.4,7.52,7.52,0,0,1,.42-2.61A6,6,0,0,1,218,262.6a4.83,4.83,0,0,1,3.56-1.61,6,6,0,0,1,1.61.2,7,7,0,0,1,1.48.59v-5h1.93ZM224.64,270v-6.6a7,7,0,0,0-1.41-.49,6.31,6.31,0,0,0-1.35-.13,3.07,3.07,0,0,0-2.53,1.13,5,5,0,0,0-.91,3.22,5.68,5.68,0,0,0,.7,3.12,2.5,2.5,0,0,0,2.25,1.06,4.26,4.26,0,0,0,1.67-.36A7.29,7.29,0,0,0,224.64,270Z"/><path class="cls-3" d="M240,267.27h-8.49a4.94,4.94,0,0,0,.32,1.85,3.42,3.42,0,0,0,2.15,2,5.21,5.21,0,0,0,1.63.25,6.44,6.44,0,0,0,2.36-.47,5.82,5.82,0,0,0,1.7-.92h.1v2.11a17.49,17.49,0,0,1-2,.69,8.37,8.37,0,0,1-2.14.28,6.21,6.21,0,0,1-4.48-1.55,5.87,5.87,0,0,1-1.61-4.41,6.39,6.39,0,0,1,1.54-4.49,5.31,5.31,0,0,1,4.06-1.66,4.65,4.65,0,0,1,3.59,1.37,5.41,5.41,0,0,1,1.27,3.86Zm-1.89-1.48a3.4,3.4,0,0,0-.77-2.36,2.93,2.93,0,0,0-2.3-.84,3.36,3.36,0,0,0-2.48.92,3.57,3.57,0,0,0-1.05,2.28Z"/><path class="cls-3" d="M260.2,267.08a6.48,6.48,0,0,1-1.44,4.44,5.42,5.42,0,0,1-7.75,0,7.58,7.58,0,0,1,0-8.89,5.4,5.4,0,0,1,7.75,0A6.49,6.49,0,0,1,260.2,267.08Zm-2,0a5.3,5.3,0,0,0-.87-3.33,3.29,3.29,0,0,0-4.89,0,6.68,6.68,0,0,0,0,6.61,3.22,3.22,0,0,0,4.87,0A5.21,5.21,0,0,0,258.2,267.08Z"/><path class="cls-3" d="M270.39,263.43h-.11a6.17,6.17,0,0,0-.84-.15,8.72,8.72,0,0,0-1,0,3.91,3.91,0,0,0-1.73.4,8.2,8.2,0,0,0-1.61,1v8.18H263.2V261.31h1.94V263a9.55,9.55,0,0,1,2-1.32,4.36,4.36,0,0,1,1.8-.39,6.29,6.29,0,0,1,.73,0l.68.1Z"/><path class="cls-3" d="M274.29,259.39h-2.18v-2h2.18Zm-.12,13.44h-1.94V261.31h1.94Z"/><path class="cls-3" d="M287.35,271.52a6,6,0,0,1-1.33,4.3,5.5,5.5,0,0,1-4.1,1.37,11.56,11.56,0,0,1-1.78-.13,13.8,13.8,0,0,1-1.72-.36v-2h.1c.32.12.82.27,1.51.46a8,8,0,0,0,2.06.27,4.81,4.81,0,0,0,1.64-.24,2.4,2.4,0,0,0,1-.66,2.32,2.32,0,0,0,.51-1,4.55,4.55,0,0,0,.16-1.27v-1.05a7.39,7.39,0,0,1-1.68,1.05,5.15,5.15,0,0,1-2,.34,4,4,0,0,1-3.28-1.49,6.53,6.53,0,0,1-1.21-4.2,7,7,0,0,1,.42-2.56,5.82,5.82,0,0,1,1.14-1.86,4.61,4.61,0,0,1,1.63-1.14,4.87,4.87,0,0,1,1.91-.41,5.71,5.71,0,0,1,1.67.21,6.81,6.81,0,0,1,1.43.61l.12-.5h1.82Zm-1.94-1.86v-6.27a7.3,7.3,0,0,0-1.44-.5,6,6,0,0,0-1.33-.15,3.11,3.11,0,0,0-2.51,1.07,4.66,4.66,0,0,0-.92,3.11,5.28,5.28,0,0,0,.68,2.94,2.54,2.54,0,0,0,2.26,1,4.91,4.91,0,0,0,1.7-.32A6.32,6.32,0,0,0,285.41,269.66Z"/><path class="cls-3" d="M300.8,267.27h-8.49a4.74,4.74,0,0,0,.33,1.85,3.46,3.46,0,0,0,.87,1.3,3.57,3.57,0,0,0,1.27.74,5.3,5.3,0,0,0,1.63.25,6.44,6.44,0,0,0,2.36-.47,5.82,5.82,0,0,0,1.7-.92h.1v2.11a17.49,17.49,0,0,1-2,.69,8.31,8.31,0,0,1-2.14.28,6.22,6.22,0,0,1-4.48-1.55,5.86,5.86,0,0,1-1.6-4.41,6.34,6.34,0,0,1,1.54-4.49,5.28,5.28,0,0,1,4.05-1.66,4.67,4.67,0,0,1,3.6,1.37,5.45,5.45,0,0,1,1.26,3.86Zm-1.89-1.48a3.35,3.35,0,0,0-.77-2.36,2.93,2.93,0,0,0-2.3-.84,3.38,3.38,0,0,0-2.48.92,3.62,3.62,0,0,0-1.05,2.28Z"/><path class="cls-3" d="M313.37,272.83h-1.94v-6.56a11.7,11.7,0,0,0-.09-1.49,2.92,2.92,0,0,0-.34-1.08,1.59,1.59,0,0,0-.75-.65,3.16,3.16,0,0,0-1.25-.21,4,4,0,0,0-1.66.39,8.32,8.32,0,0,0-1.66,1v8.6h-1.94V261.31h1.94v1.28a7.84,7.84,0,0,1,1.87-1.17,5,5,0,0,1,2-.43,3.58,3.58,0,0,1,2.85,1.13,4.81,4.81,0,0,1,1,3.24Z"/><path class="cls-3" d="M321.12,269.89l-2.91,6.75h-1.5l1.79-6.75Z"/><path class="cls-3" d="M340.43,269.51a3.15,3.15,0,0,1-1.31,2.59,5.68,5.68,0,0,1-3.56,1,8.23,8.23,0,0,1-2.34-.31,10.32,10.32,0,0,1-1.79-.66V270h.1a7.71,7.71,0,0,0,2,1.1,6.38,6.38,0,0,0,2.16.41,4.11,4.11,0,0,0,2-.41,1.4,1.4,0,0,0,.72-1.3,1.3,1.3,0,0,0-.39-1,3.42,3.42,0,0,0-1.51-.6c-.27-.06-.63-.14-1.08-.22s-.84-.17-1.21-.27a4,4,0,0,1-2.15-1.18,2.93,2.93,0,0,1-.63-1.91,3.23,3.23,0,0,1,.29-1.34,3.28,3.28,0,0,1,.9-1.12,4.12,4.12,0,0,1,1.46-.77,6.58,6.58,0,0,1,2-.28,8.9,8.9,0,0,1,2.09.25,7.86,7.86,0,0,1,1.75.61V264h-.1a7.06,7.06,0,0,0-1.8-.92,6.23,6.23,0,0,0-2.09-.37,3.67,3.67,0,0,0-1.79.4,1.31,1.31,0,0,0-.73,1.21,1.32,1.32,0,0,0,.44,1.08,3.5,3.5,0,0,0,1.4.58c.36.09.76.17,1.21.25s.81.16,1.1.23a4.1,4.1,0,0,1,2.09,1.06A2.83,2.83,0,0,1,340.43,269.51Z"/><path class="cls-3" d="M353,267.08a6.48,6.48,0,0,1-1.45,4.44,5.41,5.41,0,0,1-7.74,0,7.58,7.58,0,0,1,0-8.89,5.39,5.39,0,0,1,7.74,0A6.49,6.49,0,0,1,353,267.08Zm-2,0a5.3,5.3,0,0,0-.88-3.33,3.28,3.28,0,0,0-4.88,0,6.71,6.71,0,0,0,0,6.61,3.22,3.22,0,0,0,4.87,0A5.2,5.2,0,0,0,351,267.08Z"/><path class="cls-3" d="M366.15,267a7.79,7.79,0,0,1-.41,2.6,5.79,5.79,0,0,1-1.1,1.94,5,5,0,0,1-1.6,1.22,4.57,4.57,0,0,1-1.93.41,5.85,5.85,0,0,1-1.71-.23,8,8,0,0,1-1.45-.63l-.12.54H356v-16H358v5.73a8.21,8.21,0,0,1,1.74-1.1,4.86,4.86,0,0,1,2.06-.43,3.83,3.83,0,0,1,3.22,1.57A7.22,7.22,0,0,1,366.15,267Zm-2,.06a5.89,5.89,0,0,0-.68-3.13,2.42,2.42,0,0,0-2.2-1.07,4.29,4.29,0,0,0-1.71.37,6.85,6.85,0,0,0-1.61.94v6.6a8.64,8.64,0,0,0,1.42.51,5.58,5.58,0,0,0,1.35.15,3.14,3.14,0,0,0,2.52-1.06A5,5,0,0,0,364.15,267Z"/><path class="cls-3" d="M376.36,263.43h-.11a6.77,6.77,0,0,0-.84-.15,8.72,8.72,0,0,0-1,0,3.88,3.88,0,0,0-1.73.4,7.92,7.92,0,0,0-1.61,1v8.18h-1.94V261.31h1.94V263a9.78,9.78,0,0,1,2-1.32,4.42,4.42,0,0,1,1.8-.39,6.49,6.49,0,0,1,.74,0l.68.1Z"/><path class="cls-3" d="M387.82,267.27h-8.49a4.94,4.94,0,0,0,.32,1.85,3.42,3.42,0,0,0,2.15,2,5.3,5.3,0,0,0,1.63.25,6.44,6.44,0,0,0,2.36-.47,5.82,5.82,0,0,0,1.7-.92h.1v2.11a17.49,17.49,0,0,1-2,.69,8.31,8.31,0,0,1-2.14.28,6.22,6.22,0,0,1-4.48-1.55,5.86,5.86,0,0,1-1.6-4.41,6.34,6.34,0,0,1,1.54-4.49,5.28,5.28,0,0,1,4-1.66,4.67,4.67,0,0,1,3.6,1.37,5.45,5.45,0,0,1,1.26,3.86Zm-1.89-1.48a3.35,3.35,0,0,0-.77-2.36,2.93,2.93,0,0,0-2.3-.84,3.38,3.38,0,0,0-2.48.92,3.62,3.62,0,0,0-1.05,2.28Z"/><path class="cls-3" d="M407.82,267.27h-8.49a4.94,4.94,0,0,0,.32,1.85,3.42,3.42,0,0,0,2.15,2,5.3,5.3,0,0,0,1.63.25,6.44,6.44,0,0,0,2.36-.47,5.82,5.82,0,0,0,1.7-.92h.1v2.11a17.49,17.49,0,0,1-2,.69,8.31,8.31,0,0,1-2.14.28,6.22,6.22,0,0,1-4.48-1.55,5.86,5.86,0,0,1-1.6-4.41,6.34,6.34,0,0,1,1.54-4.49,5.28,5.28,0,0,1,4-1.66,4.67,4.67,0,0,1,3.6,1.37,5.45,5.45,0,0,1,1.26,3.86Zm-1.89-1.48a3.35,3.35,0,0,0-.77-2.36,2.93,2.93,0,0,0-2.3-.84,3.38,3.38,0,0,0-2.48.92,3.62,3.62,0,0,0-1.05,2.28Z"/><path class="cls-3" d="M412.72,272.83h-1.94v-16h1.94Z"/><path class="cls-3" d="M89.15,299.82a12,12,0,0,1-1.84.72,6.51,6.51,0,0,1-1.85.26,6.75,6.75,0,0,1-2.29-.37,4.63,4.63,0,0,1-1.78-1.11,4.91,4.91,0,0,1-1.16-1.87,7.64,7.64,0,0,1-.42-2.65,6.13,6.13,0,0,1,1.55-4.43,5.43,5.43,0,0,1,4.1-1.61,6.81,6.81,0,0,1,2,.28,9.69,9.69,0,0,1,1.74.68v2.15h-.1a7.42,7.42,0,0,0-1.83-1.06,5,5,0,0,0-1.84-.37,3.24,3.24,0,0,0-2.6,1.11,5.95,5.95,0,0,0,0,6.45,3.2,3.2,0,0,0,2.62,1.12,4.61,4.61,0,0,0,1.2-.16,4.83,4.83,0,0,0,1.09-.4,7.45,7.45,0,0,0,.79-.46c.25-.16.45-.3.59-.41h.1Z"/><path class="cls-3" d="M100.59,300.54H98.66v-1.23l-.7.49a4.48,4.48,0,0,1-.85.5,5.73,5.73,0,0,1-1.11.4,5.88,5.88,0,0,1-1.48.16,3.66,3.66,0,0,1-2.63-1,3.45,3.45,0,0,1-1.09-2.63,3.69,3.69,0,0,1,.56-2.12A3.77,3.77,0,0,1,93,293.81a8.6,8.6,0,0,1,2.52-.63c1-.11,2-.19,3.17-.25v-.3a2.35,2.35,0,0,0-.23-1.09,1.75,1.75,0,0,0-.67-.68,2.75,2.75,0,0,0-1-.32,9.3,9.3,0,0,0-1.2-.08,8.57,8.57,0,0,0-1.71.2,13.1,13.1,0,0,0-1.93.58h-.11v-2c.38-.1.93-.21,1.64-.34a12.82,12.82,0,0,1,2.12-.18,9.39,9.39,0,0,1,2.11.2,4.07,4.07,0,0,1,1.57.68,3.14,3.14,0,0,1,1,1.23,4.63,4.63,0,0,1,.34,1.87Zm-1.93-2.83V294.5c-.59,0-1.29.09-2.09.15a11,11,0,0,0-1.9.3,3.14,3.14,0,0,0-1.35.74,1.8,1.8,0,0,0-.52,1.38,1.84,1.84,0,0,0,.6,1.49,2.83,2.83,0,0,0,1.83.5,4.37,4.37,0,0,0,1.86-.4A8.31,8.31,0,0,0,98.66,297.71Z"/><path class="cls-3" d="M121.12,300.54h-1.94V294c0-.49,0-1-.06-1.43a3,3,0,0,0-.29-1.1,1.52,1.52,0,0,0-.68-.67,2.87,2.87,0,0,0-1.28-.23,3.6,3.6,0,0,0-1.62.41,10,10,0,0,0-1.63,1c0,.16,0,.35,0,.56s0,.41,0,.62v7.37h-1.94V294a13.23,13.23,0,0,0-.07-1.44,3,3,0,0,0-.28-1.1,1.52,1.52,0,0,0-.68-.67,3.07,3.07,0,0,0-1.28-.22,3.58,3.58,0,0,0-1.59.39,9.51,9.51,0,0,0-1.59,1v8.6h-1.94V289h1.94v1.27a8.35,8.35,0,0,1,1.8-1.17,4.56,4.56,0,0,1,1.93-.42,3.77,3.77,0,0,1,2,.49,3,3,0,0,1,1.22,1.37,10,10,0,0,1,2.15-1.43,5,5,0,0,1,2.07-.43,3.33,3.33,0,0,1,2.8,1.15,5.07,5.07,0,0,1,.9,3.21Z"/><path class="cls-3" d="M126.93,287.1h-2.18v-2h2.18Zm-.12,13.44h-1.94V289h1.94Z"/><path class="cls-3" d="M140.46,294.79a6.46,6.46,0,0,1-1.44,4.44,5.42,5.42,0,0,1-7.75,0,7.58,7.58,0,0,1,0-8.89,5.42,5.42,0,0,1,7.75,0A6.49,6.49,0,0,1,140.46,294.79Zm-2,0a5.24,5.24,0,0,0-.88-3.33,3.3,3.3,0,0,0-4.88,0,5.3,5.3,0,0,0-.87,3.33,5.19,5.19,0,0,0,.88,3.28,3.22,3.22,0,0,0,4.87,0A5.19,5.19,0,0,0,138.46,294.79Zm-.1-11.53-2.82,3.86H134l1.84-3.86Z"/><path class="cls-3" d="M153.09,300.54h-1.94V294a11.7,11.7,0,0,0-.09-1.49,2.75,2.75,0,0,0-.34-1.08,1.57,1.57,0,0,0-.74-.65,3.25,3.25,0,0,0-1.26-.21,4,4,0,0,0-1.66.39,8.62,8.62,0,0,0-1.66,1v8.6h-1.94V289h1.94v1.27a7.7,7.7,0,0,1,1.88-1.17,4.9,4.9,0,0,1,2-.42,3.56,3.56,0,0,1,2.84,1.12,4.81,4.81,0,0,1,1,3.24Z"/><path class="cls-3" d="M160.84,297.6l-2.91,6.76h-1.5l1.79-6.76Z"/><path class="cls-3" d="M180.44,299.82a12.41,12.41,0,0,1-1.84.72,6.56,6.56,0,0,1-1.85.26,6.75,6.75,0,0,1-2.29-.37,4.55,4.55,0,0,1-1.78-1.11,5.05,5.05,0,0,1-1.17-1.87,7.89,7.89,0,0,1-.41-2.65,6.13,6.13,0,0,1,1.55-4.43,5.42,5.42,0,0,1,4.1-1.61,6.69,6.69,0,0,1,1.94.28,9.51,9.51,0,0,1,1.75.68v2.15h-.1a7.42,7.42,0,0,0-1.83-1.06,5,5,0,0,0-1.84-.37,3.27,3.27,0,0,0-2.61,1.11,6,6,0,0,0,0,6.45,3.24,3.24,0,0,0,2.63,1.12,4.48,4.48,0,0,0,1.19-.16,4.92,4.92,0,0,0,1.1-.4,8.61,8.61,0,0,0,.79-.46c.25-.16.44-.3.59-.41h.1Z"/><path class="cls-3" d="M191.87,300.54H190v-1.23l-.7.49a4.81,4.81,0,0,1-.85.5,5.73,5.73,0,0,1-1.11.4,5.88,5.88,0,0,1-1.48.16,3.67,3.67,0,0,1-2.64-1,3.48,3.48,0,0,1-1.08-2.63,3.69,3.69,0,0,1,.56-2.12,3.77,3.77,0,0,1,1.61-1.27,8.6,8.6,0,0,1,2.52-.63c1-.11,2-.19,3.17-.25v-.3a2.23,2.23,0,0,0-.24-1.09,1.66,1.66,0,0,0-.66-.68,2.88,2.88,0,0,0-1-.32,9.46,9.46,0,0,0-1.21-.08,8.48,8.48,0,0,0-1.7.2,13.58,13.58,0,0,0-1.94.58h-.1v-2c.38-.1.92-.21,1.64-.34a12.7,12.7,0,0,1,2.11-.18,9.48,9.48,0,0,1,2.12.2,4.1,4.1,0,0,1,1.56.68,3,3,0,0,1,1,1.23,4.47,4.47,0,0,1,.34,1.87ZM190,297.71V294.5c-.6,0-1.29.09-2.09.15a10.83,10.83,0,0,0-1.9.3,3.14,3.14,0,0,0-1.35.74,1.8,1.8,0,0,0-.52,1.38,1.84,1.84,0,0,0,.6,1.49,2.8,2.8,0,0,0,1.82.5,4.45,4.45,0,0,0,1.87-.4A8.64,8.64,0,0,0,190,297.71Z"/><path class="cls-3" d="M202.79,291.14h-.1a6.77,6.77,0,0,0-.84-.15,8.91,8.91,0,0,0-1-.05,4.09,4.09,0,0,0-1.73.4,7.81,7.81,0,0,0-1.61,1v8.17H195.6V289h1.94v1.7a9.55,9.55,0,0,1,2-1.32,4.41,4.41,0,0,1,1.8-.38,6.9,6.9,0,0,1,.73,0l.68.1Z"/><path class="cls-3" d="M214,299.23a6,6,0,0,1-1.33,4.3,5.47,5.47,0,0,1-4.09,1.37,11.69,11.69,0,0,1-1.79-.13,14,14,0,0,1-1.71-.36v-2h.1c.32.12.82.27,1.51.46a8,8,0,0,0,2.06.27,4.81,4.81,0,0,0,1.64-.24,2.4,2.4,0,0,0,1-.66,2.32,2.32,0,0,0,.51-1A4.53,4.53,0,0,0,212,300V299a7.62,7.62,0,0,1-1.68,1,5.14,5.14,0,0,1-2,.35,4,4,0,0,1-3.28-1.49,6.52,6.52,0,0,1-1.21-4.21,7.08,7.08,0,0,1,.42-2.56,6,6,0,0,1,1.14-1.86,4.53,4.53,0,0,1,1.63-1.14,4.84,4.84,0,0,1,1.9-.4,5.77,5.77,0,0,1,1.68.2,7.38,7.38,0,0,1,1.43.61l.12-.49H214ZM212,297.38V291.1a7.3,7.3,0,0,0-1.44-.5,6,6,0,0,0-1.33-.15,3.14,3.14,0,0,0-2.51,1.07,4.66,4.66,0,0,0-.92,3.11,5.26,5.26,0,0,0,.68,2.94,2.53,2.53,0,0,0,2.26,1,4.82,4.82,0,0,0,1.69-.32A6.5,6.5,0,0,0,212,297.38Z"/><path class="cls-3" d="M226.72,300.54h-1.93v-1.23l-.7.49a4.48,4.48,0,0,1-.85.5,5.73,5.73,0,0,1-1.11.4,5.85,5.85,0,0,1-1.47.16,3.67,3.67,0,0,1-2.64-1,3.45,3.45,0,0,1-1.09-2.63,3.61,3.61,0,0,1,.57-2.12,3.68,3.68,0,0,1,1.6-1.27,8.6,8.6,0,0,1,2.52-.63c1-.11,2-.19,3.17-.25v-.3a2.35,2.35,0,0,0-.23-1.09,1.75,1.75,0,0,0-.67-.68,2.75,2.75,0,0,0-1-.32,9.18,9.18,0,0,0-1.2-.08,8.4,8.4,0,0,0-1.7.2,12.86,12.86,0,0,0-1.94.58H218v-2c.38-.1.93-.21,1.64-.34a12.82,12.82,0,0,1,2.12-.18,9.55,9.55,0,0,1,2.12.2,4.1,4.1,0,0,1,1.56.68,3.14,3.14,0,0,1,1,1.23,4.63,4.63,0,0,1,.34,1.87Zm-1.93-2.83V294.5c-.59,0-1.29.09-2.09.15a11,11,0,0,0-1.9.3,3.14,3.14,0,0,0-1.35.74,2.12,2.12,0,0,0,.08,2.87,2.83,2.83,0,0,0,1.83.5,4.37,4.37,0,0,0,1.86-.4A8,8,0,0,0,224.79,297.71Z"/><path class="cls-3" d="M239.79,300.54h-1.94v-1.21a7,7,0,0,1-1.74,1.13,4.79,4.79,0,0,1-2,.4,3.89,3.89,0,0,1-3.27-1.59,7.08,7.08,0,0,1-1.22-4.4,7.6,7.6,0,0,1,.42-2.61,6.21,6.21,0,0,1,1.13-1.95,4.67,4.67,0,0,1,1.64-1.19,4.62,4.62,0,0,1,1.93-.41,6.08,6.08,0,0,1,1.61.19,6.94,6.94,0,0,1,1.47.59v-5h1.94Zm-1.94-2.83V291.1a7,7,0,0,0-1.4-.49,6.31,6.31,0,0,0-1.35-.13,3.09,3.09,0,0,0-2.54,1.13,5.08,5.08,0,0,0-.91,3.22,5.67,5.67,0,0,0,.71,3.12A2.48,2.48,0,0,0,234.6,299a4.24,4.24,0,0,0,1.67-.37A7.41,7.41,0,0,0,237.85,297.71Z"/><path class="cls-3" d="M253.42,294.79a6.42,6.42,0,0,1-1.45,4.44,5.41,5.41,0,0,1-7.74,0,7.58,7.58,0,0,1,0-8.89,5.41,5.41,0,0,1,7.74,0A6.45,6.45,0,0,1,253.42,294.79Zm-2,0a5.24,5.24,0,0,0-.88-3.33,3.3,3.3,0,0,0-4.88,0,6.71,6.71,0,0,0,0,6.61,3.23,3.23,0,0,0,4.88,0A5.25,5.25,0,0,0,251.42,294.79Z"/><path class="cls-3" d="M259.38,300.54h-2.47V297.6h2.47Z"/><rect class="cls-2" x="66.8" y="330.73" width="424.94" height="71.91" rx="12.02"/><path class="cls-3" d="M91.46,355.14H81.35V339.78H91.46v1.82H83.39v4.21h8.07v1.81H83.39v5.7h8.07Z"/><path class="cls-3" d="M104.17,355.14h-1.93v-6.56a11.52,11.52,0,0,0-.1-1.49,2.64,2.64,0,0,0-.34-1.09,1.55,1.55,0,0,0-.74-.64,3.18,3.18,0,0,0-1.26-.21,4,4,0,0,0-1.66.39,8.42,8.42,0,0,0-1.66,1v8.6H94.55V343.62h1.93v1.28a7.94,7.94,0,0,1,1.88-1.18,5,5,0,0,1,2-.42,3.56,3.56,0,0,1,2.84,1.12,4.75,4.75,0,0,1,1,3.24Z"/><path class="cls-3" d="M127.06,350.41a4.45,4.45,0,0,1-.43,2,4.08,4.08,0,0,1-1.17,1.45,5.52,5.52,0,0,1-1.9,1,10.12,10.12,0,0,1-2.63.29h-5.45V339.78H120a18.73,18.73,0,0,1,2.51.13,5.07,5.07,0,0,1,1.6.51,2.91,2.91,0,0,1,1.23,1.14,3.49,3.49,0,0,1,.38,1.67,3.08,3.08,0,0,1-.56,1.86,4,4,0,0,1-1.48,1.23v.08a4.26,4.26,0,0,1,2.45,1.37A3.91,3.91,0,0,1,127.06,350.41Zm-3.43-6.91a2,2,0,0,0-.19-.94,1.38,1.38,0,0,0-.6-.62,2.88,2.88,0,0,0-1.17-.35q-.69-.06-1.71-.06h-2.44V346h2.64a8.9,8.9,0,0,0,1.53-.1,2.65,2.65,0,0,0,1-.41,1.72,1.72,0,0,0,.69-.8A3.07,3.07,0,0,0,123.63,343.5Zm1.31,7a3.39,3.39,0,0,0-.28-1.48,2.31,2.31,0,0,0-1-.93,3.39,3.39,0,0,0-1.2-.33,16.57,16.57,0,0,0-1.72-.08h-3.21v5.71h2.7a13.28,13.28,0,0,0,2.2-.14,3.36,3.36,0,0,0,1.4-.51,2.46,2.46,0,0,0,.85-.92A2.81,2.81,0,0,0,124.94,350.5Z"/><path class="cls-3" d="M139.35,355.14h-1.94v-1.28a9.3,9.3,0,0,1-1.88,1.18,4.56,4.56,0,0,1-2,.41,3.65,3.65,0,0,1-2.82-1.1,4.71,4.71,0,0,1-1-3.26v-7.47h1.94v6.56a10.94,10.94,0,0,0,.08,1.5,2.76,2.76,0,0,0,.35,1.06,1.62,1.62,0,0,0,.72.66,3.14,3.14,0,0,0,1.29.21,4.19,4.19,0,0,0,1.65-.39,8.05,8.05,0,0,0,1.66-1v-8.6h1.94Z"/><path class="cls-3" d="M152.8,349.58h-8.48a4.78,4.78,0,0,0,.32,1.85,3.42,3.42,0,0,0,.87,1.29,3.55,3.55,0,0,0,1.28.75,5.2,5.2,0,0,0,1.62.24,6.33,6.33,0,0,0,2.37-.47,5.74,5.74,0,0,0,1.69-.92h.1v2.11a13.89,13.89,0,0,1-2,.69,7.9,7.9,0,0,1-2.14.28,6.14,6.14,0,0,1-4.47-1.55,5.8,5.8,0,0,1-1.61-4.41,6.32,6.32,0,0,1,1.54-4.48A5.27,5.27,0,0,1,148,343.3a4.64,4.64,0,0,1,3.59,1.36,5.5,5.5,0,0,1,1.26,3.87Zm-1.89-1.49a3.43,3.43,0,0,0-.76-2.36,3,3,0,0,0-2.31-.83,3.35,3.35,0,0,0-2.48.92,3.56,3.56,0,0,0-1,2.27Z"/><path class="cls-3" d="M165.37,355.14h-1.94v-6.56a11.58,11.58,0,0,0-.09-1.49A2.8,2.8,0,0,0,163,346a1.55,1.55,0,0,0-.74-.64,3.25,3.25,0,0,0-1.26-.21,4,4,0,0,0-1.66.39,8.14,8.14,0,0,0-1.66,1v8.6h-1.94V343.62h1.94v1.28a7.89,7.89,0,0,1,1.87-1.18,5,5,0,0,1,2-.42,3.56,3.56,0,0,1,2.85,1.12,4.81,4.81,0,0,1,1,3.24Z"/><path class="cls-3" d="M178.05,355.14h-1.93v-1.23l-.7.49a5.08,5.08,0,0,1-.85.5,5.73,5.73,0,0,1-1.11.4,6.4,6.4,0,0,1-1.47.15,3.67,3.67,0,0,1-2.64-1,3.45,3.45,0,0,1-1.08-2.62,3.59,3.59,0,0,1,.56-2.12,3.75,3.75,0,0,1,1.6-1.28,8.59,8.59,0,0,1,2.53-.63c1-.11,2-.19,3.16-.24v-.3a2.32,2.32,0,0,0-.23-1.09,1.78,1.78,0,0,0-.67-.69,2.75,2.75,0,0,0-1-.31,7.69,7.69,0,0,0-1.2-.09,8.4,8.4,0,0,0-1.7.2,13.29,13.29,0,0,0-1.94.59h-.1v-2a15.16,15.16,0,0,1,1.63-.34,11.85,11.85,0,0,1,2.12-.19,10.11,10.11,0,0,1,2.12.2,4.11,4.11,0,0,1,1.56.69,3,3,0,0,1,1,1.22,4.7,4.7,0,0,1,.34,1.87Zm-1.93-2.84v-3.21l-2.09.16a11,11,0,0,0-1.9.3,3.13,3.13,0,0,0-1.35.73,1.86,1.86,0,0,0-.51,1.38,1.82,1.82,0,0,0,.59,1.49,2.83,2.83,0,0,0,1.83.5,4.22,4.22,0,0,0,1.86-.4A8,8,0,0,0,176.12,352.3Z"/><path class="cls-3" d="M191.57,343.62l-4.66,11.52H185l-4.63-11.52h2.1l3.57,9.16,3.53-9.16Z"/><path class="cls-3" d="M203.56,349.58h-8.48a4.78,4.78,0,0,0,.32,1.85,3.42,3.42,0,0,0,.87,1.29,3.64,3.64,0,0,0,1.28.75,5.2,5.2,0,0,0,1.62.24,6.33,6.33,0,0,0,2.37-.47,5.74,5.74,0,0,0,1.69-.92h.11v2.11a14.78,14.78,0,0,1-2,.69,8,8,0,0,1-2.15.28,6.14,6.14,0,0,1-4.47-1.55,5.8,5.8,0,0,1-1.61-4.41,6.32,6.32,0,0,1,1.54-4.48,5.27,5.27,0,0,1,4.06-1.66,4.64,4.64,0,0,1,3.59,1.36,5.5,5.5,0,0,1,1.26,3.87Zm-1.88-1.49a3.48,3.48,0,0,0-.77-2.36,3,3,0,0,0-2.31-.83,3.35,3.35,0,0,0-2.48.92,3.56,3.56,0,0,0-1,2.27Z"/><path class="cls-3" d="M216.13,355.14h-1.94v-6.56a11.58,11.58,0,0,0-.09-1.49,2.8,2.8,0,0,0-.34-1.09,1.55,1.55,0,0,0-.74-.64,3.25,3.25,0,0,0-1.26-.21,4,4,0,0,0-1.66.39,8.14,8.14,0,0,0-1.66,1v8.6H206.5V343.62h1.94v1.28a7.89,7.89,0,0,1,1.87-1.18,5,5,0,0,1,2-.42,3.56,3.56,0,0,1,2.85,1.12,4.81,4.81,0,0,1,1,3.24Z"/><path class="cls-3" d="M225.84,355a9.26,9.26,0,0,1-1.19.24,8.38,8.38,0,0,1-1.15.09,3.52,3.52,0,0,1-2.68-.95,4.25,4.25,0,0,1-.92-3v-6.12h-1.31v-1.63h1.31v-3.31h1.94v3.31h4v1.63h-4v5.25c0,.6,0,1.07,0,1.41a2.49,2.49,0,0,0,.29,1,1.43,1.43,0,0,0,.62.6,2.92,2.92,0,0,0,1.22.19,3.86,3.86,0,0,0,1-.14,6.6,6.6,0,0,0,.75-.23h.1Z"/><path class="cls-3" d="M237.73,355.14h-1.94v-1.28a9.3,9.3,0,0,1-1.88,1.18,4.62,4.62,0,0,1-2,.41,3.64,3.64,0,0,1-2.82-1.1,4.66,4.66,0,0,1-1-3.26v-7.47H230v6.56a10.94,10.94,0,0,0,.08,1.5,2.6,2.6,0,0,0,.35,1.06,1.53,1.53,0,0,0,.72.66,3.14,3.14,0,0,0,1.29.21,4.11,4.11,0,0,0,1.64-.39,7.86,7.86,0,0,0,1.67-1v-8.6h1.94Z"/><path class="cls-3" d="M248.73,345.73h-.11a6.77,6.77,0,0,0-.84-.15,9,9,0,0,0-1,0,4,4,0,0,0-1.73.39,8,8,0,0,0-1.61,1v8.18h-1.94V343.62h1.94v1.7a9.28,9.28,0,0,1,2-1.31,4.42,4.42,0,0,1,1.8-.39,6.49,6.49,0,0,1,.74,0l.68.09Z"/><path class="cls-3" d="M259.13,355.14H257.2v-1.23l-.7.49a5.08,5.08,0,0,1-.85.5,5.73,5.73,0,0,1-1.11.4,6.4,6.4,0,0,1-1.47.15,3.67,3.67,0,0,1-2.64-1,3.43,3.43,0,0,1-1.09-2.62,3.59,3.59,0,0,1,.57-2.12,3.69,3.69,0,0,1,1.6-1.28,8.6,8.6,0,0,1,2.52-.63c1-.11,2-.19,3.17-.24v-.3a2.32,2.32,0,0,0-.23-1.09,1.78,1.78,0,0,0-.67-.69,2.75,2.75,0,0,0-1-.31,7.69,7.69,0,0,0-1.2-.09,8.4,8.4,0,0,0-1.7.2,12.93,12.93,0,0,0-1.94.59h-.11v-2a16,16,0,0,1,1.64-.34,11.85,11.85,0,0,1,2.12-.19,10.18,10.18,0,0,1,2.12.2,4.11,4.11,0,0,1,1.56.69,3,3,0,0,1,1,1.22,4.7,4.7,0,0,1,.34,1.87Zm-1.93-2.84v-3.21l-2.09.16a11,11,0,0,0-1.9.3,3.13,3.13,0,0,0-1.35.73,1.87,1.87,0,0,0-.52,1.38,1.82,1.82,0,0,0,.6,1.49,2.83,2.83,0,0,0,1.83.5,4.22,4.22,0,0,0,1.86-.4A8,8,0,0,0,257.2,352.3Z"/><path class="cls-3" d="M266.88,352.2,264,359h-1.5l1.79-6.75Z"/><path class="cls-3" d="M287.6,349.58h-8.48a4.78,4.78,0,0,0,.32,1.85,3.42,3.42,0,0,0,.87,1.29,3.55,3.55,0,0,0,1.28.75,5.2,5.2,0,0,0,1.62.24,6.33,6.33,0,0,0,2.37-.47,5.88,5.88,0,0,0,1.69-.92h.1v2.11a13.89,13.89,0,0,1-2,.69,7.9,7.9,0,0,1-2.14.28,6.14,6.14,0,0,1-4.47-1.55,5.8,5.8,0,0,1-1.61-4.41,6.32,6.32,0,0,1,1.54-4.48,5.27,5.27,0,0,1,4.06-1.66,4.64,4.64,0,0,1,3.59,1.36,5.5,5.5,0,0,1,1.26,3.87Zm-1.89-1.49a3.43,3.43,0,0,0-.76-2.36,3,3,0,0,0-2.31-.83,3.34,3.34,0,0,0-2.48.92,3.56,3.56,0,0,0-1,2.27Z"/><path class="cls-3" d="M300.17,355.14h-1.94v-6.56a11.58,11.58,0,0,0-.09-1.49,2.8,2.8,0,0,0-.34-1.09,1.55,1.55,0,0,0-.74-.64,3.25,3.25,0,0,0-1.26-.21,4,4,0,0,0-1.66.39,8.14,8.14,0,0,0-1.66,1v8.6h-1.94V343.62h1.94v1.28a7.89,7.89,0,0,1,1.87-1.18,5,5,0,0,1,2-.42,3.56,3.56,0,0,1,2.85,1.12,4.81,4.81,0,0,1,1,3.24Z"/><path class="cls-3" d="M321,349.58h-8.48a4.78,4.78,0,0,0,.32,1.85,3.42,3.42,0,0,0,.87,1.29,3.55,3.55,0,0,0,1.28.75,5.2,5.2,0,0,0,1.62.24,6.33,6.33,0,0,0,2.37-.47,5.74,5.74,0,0,0,1.69-.92h.1v2.11a13.89,13.89,0,0,1-2,.69,7.9,7.9,0,0,1-2.14.28,6.14,6.14,0,0,1-4.47-1.55,5.8,5.8,0,0,1-1.61-4.41,6.32,6.32,0,0,1,1.54-4.48,5.27,5.27,0,0,1,4.06-1.66,4.64,4.64,0,0,1,3.59,1.36,5.5,5.5,0,0,1,1.26,3.87Zm-1.89-1.49a3.43,3.43,0,0,0-.76-2.36,3,3,0,0,0-2.31-.83,3.35,3.35,0,0,0-2.48.92,3.56,3.56,0,0,0-1,2.27Z"/><path class="cls-3" d="M325.86,355.14h-1.94V339.09h1.94Z"/><path class="cls-3" d="M347.07,343.62l-4.65,11.52h-1.95l-4.63-11.52h2.1l3.57,9.16,3.53-9.16Z"/><path class="cls-3" d="M359.06,349.58h-8.48a5,5,0,0,0,.32,1.85,3.33,3.33,0,0,0,.88,1.29,3.51,3.51,0,0,0,1.27.75,5.2,5.2,0,0,0,1.62.24,6.29,6.29,0,0,0,2.37-.47,5.74,5.74,0,0,0,1.69-.92h.11v2.11a14.78,14.78,0,0,1-2,.69,8,8,0,0,1-2.15.28,6.14,6.14,0,0,1-4.47-1.55,5.84,5.84,0,0,1-1.61-4.41,6.32,6.32,0,0,1,1.54-4.48,5.27,5.27,0,0,1,4.06-1.66,4.64,4.64,0,0,1,3.59,1.36,5.5,5.5,0,0,1,1.26,3.87Zm-1.88-1.49a3.48,3.48,0,0,0-.77-2.36,3,3,0,0,0-2.3-.83,3.32,3.32,0,0,0-2.48.92,3.52,3.52,0,0,0-1.05,2.27Z"/><path class="cls-3" d="M371.63,355.14h-1.94v-6.56a11.58,11.58,0,0,0-.09-1.49,2.64,2.64,0,0,0-.34-1.09,1.55,1.55,0,0,0-.74-.64,3.21,3.21,0,0,0-1.26-.21,4,4,0,0,0-1.66.39,8.14,8.14,0,0,0-1.66,1v8.6H362V339.09h1.94v5.81a7.94,7.94,0,0,1,1.88-1.18,4.94,4.94,0,0,1,2-.42,3.56,3.56,0,0,1,2.84,1.12,4.81,4.81,0,0,1,1,3.24Z"/><path class="cls-3" d="M379.46,337.86l-2.82,3.85H375.1l1.85-3.85Zm-2.14,17.28h-1.94V343.62h1.94Z"/><path class="cls-3" d="M389.67,354.41a13.23,13.23,0,0,1-1.84.73,6.56,6.56,0,0,1-1.85.25,7,7,0,0,1-2.29-.36,4.8,4.8,0,0,1-1.78-1.11,5.1,5.1,0,0,1-1.17-1.88,7.85,7.85,0,0,1-.41-2.65,6.13,6.13,0,0,1,1.55-4.43,5.45,5.45,0,0,1,4.1-1.61,6.69,6.69,0,0,1,1.94.28,10.28,10.28,0,0,1,1.75.68v2.16h-.1a7.16,7.16,0,0,0-1.83-1.07,5,5,0,0,0-1.84-.37,3.24,3.24,0,0,0-2.6,1.11,6,6,0,0,0,0,6.45,3.24,3.24,0,0,0,2.63,1.12,4.91,4.91,0,0,0,1.19-.15,5.47,5.47,0,0,0,1.1-.41,8.55,8.55,0,0,0,.79-.45,6.81,6.81,0,0,0,.59-.42h.1Z"/><path class="cls-3" d="M401.7,355.14h-1.93v-1.28a9.58,9.58,0,0,1-1.88,1.18,4.62,4.62,0,0,1-2,.41,3.68,3.68,0,0,1-2.83-1.1,4.71,4.71,0,0,1-1-3.26v-7.47H394v6.56a10.78,10.78,0,0,0,.09,1.5,2.76,2.76,0,0,0,.34,1.06,1.59,1.59,0,0,0,.73.66,3.08,3.08,0,0,0,1.29.21,4.11,4.11,0,0,0,1.64-.39,8.12,8.12,0,0,0,1.67-1v-8.6h1.93Z"/><path class="cls-3" d="M407.48,355.14h-1.94V339.09h1.94Z"/><path class="cls-3" d="M421.13,349.38a6.45,6.45,0,0,1-1.45,4.44,5.42,5.42,0,0,1-7.75,0,7.62,7.62,0,0,1,0-8.89,5.42,5.42,0,0,1,7.75,0A6.51,6.51,0,0,1,421.13,349.38Zm-2,0a5.25,5.25,0,0,0-.88-3.32,3.28,3.28,0,0,0-4.88,0,5.25,5.25,0,0,0-.87,3.32,5.31,5.31,0,0,0,.87,3.29,3.24,3.24,0,0,0,4.87,0A5.22,5.22,0,0,0,419.13,349.38Z"/><path class="cls-3" d="M433.51,355.14h-1.94V339.09h1.94Z"/><path class="cls-3" d="M439.42,341.69h-2.18v-2h2.18Zm-.12,13.45h-1.94V343.62h1.94Z"/><path class="cls-3" d="M451.36,351.82a3.11,3.11,0,0,1-1.3,2.58,5.64,5.64,0,0,1-3.56,1,8.63,8.63,0,0,1-2.35-.3,10.27,10.27,0,0,1-1.79-.67v-2.17h.11a7.71,7.71,0,0,0,2,1.1,6.3,6.3,0,0,0,2.15.4,4,4,0,0,0,2-.41,1.39,1.39,0,0,0,.72-1.3,1.33,1.33,0,0,0-.39-1,3.62,3.62,0,0,0-1.5-.6l-1.08-.21c-.44-.08-.85-.17-1.21-.27a4,4,0,0,1-2.15-1.18,3,3,0,0,1-.64-1.91,3.06,3.06,0,0,1,.3-1.34,3.16,3.16,0,0,1,.89-1.13,4.08,4.08,0,0,1,1.47-.76,6.5,6.5,0,0,1,2-.29,9.39,9.39,0,0,1,2.09.25,7.94,7.94,0,0,1,1.76.62v2.07h-.1a6.82,6.82,0,0,0-1.81-.92,6.24,6.24,0,0,0-2.08-.38,3.62,3.62,0,0,0-1.79.41,1.42,1.42,0,0,0-.29,2.28,3.42,3.42,0,0,0,1.4.59l1.2.25c.44.08.81.15,1.11.22a4.08,4.08,0,0,1,2.08,1.07A2.77,2.77,0,0,1,451.36,351.82Z"/><path class="cls-3" d="M460.12,355a9.79,9.79,0,0,1-1.2.24,8.26,8.26,0,0,1-1.15.09,3.51,3.51,0,0,1-2.67-.95,4.21,4.21,0,0,1-.92-3v-6.12h-1.31v-1.63h1.31v-3.31h1.94v3.31h4v1.63h-4v5.25c0,.6,0,1.07,0,1.41a2.19,2.19,0,0,0,.29,1,1.38,1.38,0,0,0,.62.6,2.87,2.87,0,0,0,1.21.19,3.87,3.87,0,0,0,1-.14,7,7,0,0,0,.74-.23h.11Z"/><path class="cls-3" d="M472.27,349.38a6.45,6.45,0,0,1-1.44,4.44,5.42,5.42,0,0,1-7.75,0,7.58,7.58,0,0,1,0-8.89,5.42,5.42,0,0,1,7.75,0A6.51,6.51,0,0,1,472.27,349.38Zm-2,0a5.19,5.19,0,0,0-.88-3.32,3.28,3.28,0,0,0-4.88,0,6.68,6.68,0,0,0,0,6.61,3.24,3.24,0,0,0,4.87,0A5.22,5.22,0,0,0,470.27,349.38Z"/><path class="cls-3" d="M91.33,377a8,8,0,0,1-.4,2.56,5.7,5.7,0,0,1-1.14,2,4.78,4.78,0,0,1-3.55,1.59,6.34,6.34,0,0,1-1.63-.19,7,7,0,0,1-1.48-.61v4.82H81.19V371.33h1.94v1.21a7.4,7.4,0,0,1,1.74-1.09,5,5,0,0,1,2.06-.44,3.82,3.82,0,0,1,3.24,1.57A7.27,7.27,0,0,1,91.33,377Zm-2,.05a5.52,5.52,0,0,0-.71-3.11,2.48,2.48,0,0,0-2.19-1,4.27,4.27,0,0,0-1.68.36,7.83,7.83,0,0,0-1.62.94v6.53a7.54,7.54,0,0,0,1.42.51,6.12,6.12,0,0,0,1.35.13,3.09,3.09,0,0,0,2.52-1.09A5,5,0,0,0,89.33,377Z"/><path class="cls-3" d="M103.3,382.85h-1.93v-1.23l-.7.49a5.08,5.08,0,0,1-.85.5,5.73,5.73,0,0,1-1.11.4,6.4,6.4,0,0,1-1.47.15,3.7,3.7,0,0,1-2.64-1,3.46,3.46,0,0,1-1.09-2.63,3.59,3.59,0,0,1,.57-2.12,3.69,3.69,0,0,1,1.6-1.28,8.93,8.93,0,0,1,2.52-.63c1-.1,2-.19,3.17-.24v-.3a2.35,2.35,0,0,0-.23-1.09,1.78,1.78,0,0,0-.67-.69,2.75,2.75,0,0,0-1-.31,7.69,7.69,0,0,0-1.2-.09,7.8,7.8,0,0,0-1.7.21,11.8,11.8,0,0,0-1.94.58h-.11v-2c.38-.1.93-.22,1.64-.34a11.85,11.85,0,0,1,2.12-.19,10.18,10.18,0,0,1,2.12.2,4.27,4.27,0,0,1,1.56.69,3,3,0,0,1,1,1.22,4.7,4.7,0,0,1,.34,1.87ZM101.37,380v-3.2c-.59,0-1.29.08-2.09.15a11,11,0,0,0-1.9.3A3.13,3.13,0,0,0,96,378a1.87,1.87,0,0,0-.52,1.38,1.82,1.82,0,0,0,.6,1.49,2.83,2.83,0,0,0,1.83.5,4.22,4.22,0,0,0,1.86-.4A8,8,0,0,0,101.37,380Z"/><path class="cls-3" d="M114.21,373.44h-.1c-.29-.06-.57-.12-.84-.15a9,9,0,0,0-1,0,4,4,0,0,0-1.74.4,7.7,7.7,0,0,0-1.6,1v8.18H107V371.33H109V373a9.67,9.67,0,0,1,2-1.31,4.42,4.42,0,0,1,1.8-.39,6.17,6.17,0,0,1,.73,0l.68.09Z"/><path class="cls-3" d="M124.62,382.85h-1.93v-1.23l-.7.49a5.08,5.08,0,0,1-.85.5,5.73,5.73,0,0,1-1.11.4,6.43,6.43,0,0,1-1.48.15,3.74,3.74,0,0,1-2.64-1,3.49,3.49,0,0,1-1.08-2.63,3.67,3.67,0,0,1,.56-2.12,3.78,3.78,0,0,1,1.61-1.28,8.93,8.93,0,0,1,2.52-.63c1-.1,2-.19,3.17-.24v-.3a2.35,2.35,0,0,0-.23-1.09,1.78,1.78,0,0,0-.67-.69,2.75,2.75,0,0,0-1-.31,7.79,7.79,0,0,0-1.2-.09,8,8,0,0,0-1.71.21,12,12,0,0,0-1.93.58h-.11v-2c.38-.1.93-.22,1.64-.34a11.85,11.85,0,0,1,2.12-.19,10,10,0,0,1,2.11.2,4.24,4.24,0,0,1,1.57.69,3,3,0,0,1,1,1.22,4.7,4.7,0,0,1,.34,1.87ZM122.69,380v-3.2c-.59,0-1.29.08-2.09.15a11,11,0,0,0-1.9.3,3.13,3.13,0,0,0-1.35.73,2.12,2.12,0,0,0,.08,2.87,2.83,2.83,0,0,0,1.83.5,4.25,4.25,0,0,0,1.86-.4A8.31,8.31,0,0,0,122.69,380Z"/><path class="cls-3" d="M137.73,382.85h-1.94v-16h1.94Z"/><path class="cls-3" d="M150.51,382.85h-1.93v-1.23l-.69.49a5.51,5.51,0,0,1-.85.5,5.84,5.84,0,0,1-1.12.4,6.33,6.33,0,0,1-1.47.15,3.7,3.7,0,0,1-2.64-1,3.49,3.49,0,0,1-1.08-2.63,3.67,3.67,0,0,1,.56-2.12,3.81,3.81,0,0,1,1.6-1.28,9.09,9.09,0,0,1,2.53-.63c1-.1,2-.19,3.16-.24v-.3a2.23,2.23,0,0,0-.23-1.09,1.69,1.69,0,0,0-.66-.69,2.88,2.88,0,0,0-1-.31,7.43,7.43,0,0,0-2.91.12,12.41,12.41,0,0,0-1.94.58h-.1v-2c.38-.1.92-.22,1.64-.34a11.74,11.74,0,0,1,2.11-.19,10.11,10.11,0,0,1,2.12.2,4.27,4.27,0,0,1,1.56.69,3,3,0,0,1,1,1.22,4.53,4.53,0,0,1,.34,1.87ZM148.58,380v-3.2c-.59,0-1.28.08-2.08.15a10.83,10.83,0,0,0-1.9.3,3.23,3.23,0,0,0-1.36.73,1.86,1.86,0,0,0-.51,1.38,1.82,1.82,0,0,0,.6,1.49,2.79,2.79,0,0,0,1.82.5A4.3,4.3,0,0,0,147,381,8.23,8.23,0,0,0,148.58,380Z"/><path class="cls-3" d="M171,382.85h-1.94v-1.21a7.23,7.23,0,0,1-1.74,1.12,4.82,4.82,0,0,1-2,.4,3.9,3.9,0,0,1-3.28-1.58,7.17,7.17,0,0,1-1.21-4.4,7.52,7.52,0,0,1,.42-2.61,5.92,5.92,0,0,1,1.13-1.95A4.74,4.74,0,0,1,166,371a6,6,0,0,1,1.6.19,8.28,8.28,0,0,1,1.48.59v-5H171ZM169.07,380V373.4a7.52,7.52,0,0,0-1.4-.48,6.43,6.43,0,0,0-1.35-.14,3.05,3.05,0,0,0-2.54,1.14,5.06,5.06,0,0,0-.91,3.22,5.75,5.75,0,0,0,.7,3.11,2.5,2.5,0,0,0,2.25,1.07,4.07,4.07,0,0,0,1.67-.37A6.87,6.87,0,0,0,169.07,380Z"/><path class="cls-3" d="M184.46,377.29H176a4.78,4.78,0,0,0,.33,1.85,3.42,3.42,0,0,0,.87,1.29,3.59,3.59,0,0,0,1.27.75,5.31,5.31,0,0,0,1.63.24,6.24,6.24,0,0,0,2.36-.47,5.82,5.82,0,0,0,1.7-.92h.1v2.12a15.7,15.7,0,0,1-2,.68,7.9,7.9,0,0,1-2.14.28,6.18,6.18,0,0,1-4.48-1.55,5.83,5.83,0,0,1-1.6-4.41,6.32,6.32,0,0,1,1.54-4.48,5.28,5.28,0,0,1,4-1.66,4.7,4.7,0,0,1,3.6,1.36,5.5,5.5,0,0,1,1.26,3.87Zm-1.89-1.48a3.44,3.44,0,0,0-.76-2.37,3,3,0,0,0-2.31-.83,3.34,3.34,0,0,0-2.48.92,3.62,3.62,0,0,0-1.05,2.28Z"/><path class="cls-3" d="M195.62,379.53a3.11,3.11,0,0,1-1.3,2.58,5.64,5.64,0,0,1-3.56,1,8.69,8.69,0,0,1-2.35-.3,9.79,9.79,0,0,1-1.79-.67V380h.11a7.71,7.71,0,0,0,2,1.1,6.35,6.35,0,0,0,2.15.4,4,4,0,0,0,2-.41,1.38,1.38,0,0,0,.72-1.3,1.33,1.33,0,0,0-.39-1,3.51,3.51,0,0,0-1.5-.59c-.28-.07-.64-.14-1.08-.22s-.85-.17-1.21-.27a4,4,0,0,1-2.15-1.18,3,3,0,0,1-.63-1.91,3,3,0,0,1,.29-1.34,3.28,3.28,0,0,1,.89-1.13,4.25,4.25,0,0,1,1.47-.76,6.57,6.57,0,0,1,2-.29,8.84,8.84,0,0,1,2.08.26,7.48,7.48,0,0,1,1.76.61V374h-.1a7.13,7.13,0,0,0-1.81-.92,6.19,6.19,0,0,0-2.08-.38,3.64,3.64,0,0,0-1.79.41,1.43,1.43,0,0,0-.29,2.28,3.42,3.42,0,0,0,1.4.59c.36.08.76.17,1.2.25l1.11.22a4.08,4.08,0,0,1,2.08,1.07A2.77,2.77,0,0,1,195.62,379.53Z"/><path class="cls-3" d="M206.91,382.12a13.23,13.23,0,0,1-1.84.73,6.51,6.51,0,0,1-1.85.25,7,7,0,0,1-2.29-.36,4.8,4.8,0,0,1-1.78-1.11,4.88,4.88,0,0,1-1.16-1.88,7.6,7.6,0,0,1-.42-2.65,6.13,6.13,0,0,1,1.55-4.43,5.45,5.45,0,0,1,4.1-1.61,6.81,6.81,0,0,1,1.95.28,10.5,10.5,0,0,1,1.74.68v2.16h-.1a7.47,7.47,0,0,0-1.83-1.07,5.16,5.16,0,0,0-1.84-.37,3.24,3.24,0,0,0-2.6,1.11,6,6,0,0,0,0,6.46,3.22,3.22,0,0,0,2.62,1.11,5.06,5.06,0,0,0,1.2-.15,6,6,0,0,0,1.09-.4c.28-.15.54-.3.79-.46a5.53,5.53,0,0,0,.59-.42h.1Z"/><path class="cls-3" d="M218.35,382.85h-1.93v-1.23l-.7.49a5.08,5.08,0,0,1-.85.5,5.73,5.73,0,0,1-1.11.4,6.43,6.43,0,0,1-1.48.15,3.74,3.74,0,0,1-2.64-1,3.49,3.49,0,0,1-1.08-2.63,3.67,3.67,0,0,1,.56-2.12,3.78,3.78,0,0,1,1.61-1.28,8.93,8.93,0,0,1,2.52-.63c1-.1,2-.19,3.17-.24v-.3a2.35,2.35,0,0,0-.23-1.09,1.78,1.78,0,0,0-.67-.69,2.75,2.75,0,0,0-1-.31,7.79,7.79,0,0,0-1.2-.09,8,8,0,0,0-1.71.21,12,12,0,0,0-1.93.58h-.11v-2c.38-.1.93-.22,1.64-.34a11.85,11.85,0,0,1,2.12-.19,10,10,0,0,1,2.11.2,4.24,4.24,0,0,1,1.57.69,3,3,0,0,1,1,1.22,4.7,4.7,0,0,1,.34,1.87ZM216.42,380v-3.2c-.59,0-1.29.08-2.09.15a11,11,0,0,0-1.9.3,3.13,3.13,0,0,0-1.35.73,2.12,2.12,0,0,0,.08,2.87,2.83,2.83,0,0,0,1.83.5,4.22,4.22,0,0,0,1.86-.4A8.31,8.31,0,0,0,216.42,380Z"/><path class="cls-3" d="M229.26,373.44h-.1c-.29-.06-.57-.12-.84-.15a9,9,0,0,0-1,0,4,4,0,0,0-1.74.4,7.7,7.7,0,0,0-1.6,1v8.18h-1.94V371.33H224V373a9.43,9.43,0,0,1,2-1.31,4.42,4.42,0,0,1,1.8-.39,6.17,6.17,0,0,1,.73,0l.68.09Z"/><path class="cls-3" d="M240.43,381.54a6,6,0,0,1-1.33,4.29,5.46,5.46,0,0,1-4.1,1.38,13,13,0,0,1-1.78-.13,14.22,14.22,0,0,1-1.72-.37v-2h.1a13.43,13.43,0,0,0,1.51.46,8.09,8.09,0,0,0,2.06.27,4.8,4.8,0,0,0,1.64-.23,2.4,2.4,0,0,0,1-.66,2.32,2.32,0,0,0,.51-1,4.55,4.55,0,0,0,.16-1.27v-1.05a7.32,7.32,0,0,1-1.68,1,5,5,0,0,1-2,.35,4,4,0,0,1-3.28-1.49,6.53,6.53,0,0,1-1.21-4.2,7,7,0,0,1,.42-2.56,5.82,5.82,0,0,1,1.14-1.86,4.61,4.61,0,0,1,1.63-1.14,4.87,4.87,0,0,1,1.91-.41,6.11,6.11,0,0,1,1.67.2,8.06,8.06,0,0,1,1.43.61l.12-.49h1.82Zm-1.94-1.86V373.4a8,8,0,0,0-1.44-.5,5.94,5.94,0,0,0-1.32-.15,3.15,3.15,0,0,0-2.52,1.07,4.7,4.7,0,0,0-.92,3.12,5.28,5.28,0,0,0,.68,2.94,2.56,2.56,0,0,0,2.26,1,4.67,4.67,0,0,0,1.7-.33A5.83,5.83,0,0,0,238.49,379.68Z"/><path class="cls-3" d="M253.19,382.85h-1.93v-1.23l-.69.49a6,6,0,0,1-.85.5,6.1,6.1,0,0,1-1.12.4,6.4,6.4,0,0,1-1.47.15,3.7,3.7,0,0,1-2.64-1,3.49,3.49,0,0,1-1.08-2.63,3.59,3.59,0,0,1,.56-2.12,3.75,3.75,0,0,1,1.6-1.28,8.91,8.91,0,0,1,2.53-.63c1-.1,2-.19,3.16-.24v-.3a2.35,2.35,0,0,0-.23-1.09,1.71,1.71,0,0,0-.67-.69,2.76,2.76,0,0,0-1-.31,7.92,7.92,0,0,0-1.21-.09,7.8,7.8,0,0,0-1.7.21,12.1,12.1,0,0,0-1.94.58h-.1v-2c.38-.1.92-.22,1.64-.34a11.74,11.74,0,0,1,2.11-.19,10.11,10.11,0,0,1,2.12.2,4.27,4.27,0,0,1,1.56.69,3,3,0,0,1,1,1.22,4.53,4.53,0,0,1,.34,1.87ZM251.26,380v-3.2c-.59,0-1.29.08-2.09.15a11,11,0,0,0-1.9.3,3.25,3.25,0,0,0-1.35.73,2.15,2.15,0,0,0,.08,2.87,2.83,2.83,0,0,0,1.83.5,4.22,4.22,0,0,0,1.86-.4A8,8,0,0,0,251.26,380Z"/><path class="cls-3" d="M260.09,382.85h-2.47v-2.94h2.47Z"/><path class="cls-4" d="M181.37,426.34a10.65,10.65,0,0,1-2.43-.27,9.75,9.75,0,0,1-2.26-.82l.42-2h.13a5.6,5.6,0,0,0,2.07,1.22,7,7,0,0,0,2.36.43,4.77,4.77,0,0,0,2.87-.74,2.27,2.27,0,0,0,1-1.9,1.51,1.51,0,0,0-.35-1,2.14,2.14,0,0,0-1.05-.6q-.57-.15-1.35-.3c-.53-.1-1-.2-1.5-.31a4.36,4.36,0,0,1-2.14-1.06,2.5,2.5,0,0,1-.75-1.85A3.8,3.8,0,0,1,180,414a6.46,6.46,0,0,1,4.1-1.24,10,10,0,0,1,2.49.29,10.29,10.29,0,0,1,1.93.67l-.39,1.87H188a5,5,0,0,0-1.78-1,7,7,0,0,0-2.42-.42,4.29,4.29,0,0,0-2.56.7,2.16,2.16,0,0,0-1,1.79,1.59,1.59,0,0,0,.34,1,2.23,2.23,0,0,0,1.22.66l1.5.32q.93.18,1.56.36a3.91,3.91,0,0,1,1.89,1,2.35,2.35,0,0,1,.65,1.71,3.85,3.85,0,0,1-.42,1.71,4.16,4.16,0,0,1-1.18,1.46,5.93,5.93,0,0,1-1.89,1A7.9,7.9,0,0,1,181.37,426.34Z"/><path class="cls-4" d="M193.67,426.33a4.87,4.87,0,0,1-3.2-1,3.43,3.43,0,0,1-1.16-2.8,6.79,6.79,0,0,1,1.7-4.63,5.44,5.44,0,0,1,4.22-1.93,3.61,3.61,0,0,1,2.55.83,3,3,0,0,1,.89,2.34,6.93,6.93,0,0,1-.07.83,13,13,0,0,1-.25,1.33h-7.23a4.61,4.61,0,0,0-.07.5,3.8,3.8,0,0,0,0,.46,2.54,2.54,0,0,0,.76,1.94,3,3,0,0,0,2.15.71,5.6,5.6,0,0,0,2-.38,7.57,7.57,0,0,0,1.71-.85h.1l-.36,1.79-.79.29c-.23.08-.53.17-.9.26a9.78,9.78,0,0,1-1,.2A6.19,6.19,0,0,1,193.67,426.33Zm3.3-6.2c0-.17.05-.32.06-.43s0-.25,0-.39a2,2,0,0,0-.52-1.47,2.22,2.22,0,0,0-1.65-.52,3.4,3.4,0,0,0-2.21.77,3.75,3.75,0,0,0-1.31,2Z"/><path class="cls-4" d="M204.57,412.43l-3.16,13.67h-1.65l3.16-13.67Z"/><path class="cls-4" d="M209.33,426.33a4.87,4.87,0,0,1-3.2-1,3.43,3.43,0,0,1-1.16-2.8,6.75,6.75,0,0,1,1.71-4.63,5.41,5.41,0,0,1,4.21-1.93,3.65,3.65,0,0,1,2.56.83,3.07,3.07,0,0,1,.88,2.34,6.93,6.93,0,0,1-.07.83c0,.38-.13.83-.24,1.33h-7.24a4.61,4.61,0,0,0-.07.5,3.7,3.7,0,0,0,0,.46,2.54,2.54,0,0,0,.75,1.94,3,3,0,0,0,2.15.71,5.6,5.6,0,0,0,2-.38,7.88,7.88,0,0,0,1.72-.85h.09l-.36,1.79-.79.29c-.23.08-.53.17-.89.26s-.69.16-1,.2A6.19,6.19,0,0,1,209.33,426.33Zm3.3-6.2c0-.17.05-.32.06-.43s0-.25,0-.39a2,2,0,0,0-.52-1.47,2.21,2.21,0,0,0-1.64-.52,3.41,3.41,0,0,0-2.22.77,3.8,3.8,0,0,0-1.31,2Z"/><path class="cls-4" d="M219.66,426.32a5.54,5.54,0,0,1-1.65-.22,3.19,3.19,0,0,1-1.25-.69,3.05,3.05,0,0,1-.8-1.15,4.23,4.23,0,0,1-.28-1.62,7.41,7.41,0,0,1,.43-2.57,6.44,6.44,0,0,1,1.22-2.1,5.43,5.43,0,0,1,1.89-1.4,5.82,5.82,0,0,1,2.43-.51,5.38,5.38,0,0,1,1.62.24,6.58,6.58,0,0,1,1.34.56l-.36,1.78h-.1c-.12-.1-.26-.23-.44-.36a3.32,3.32,0,0,0-.62-.4,3.8,3.8,0,0,0-.8-.31,3.46,3.46,0,0,0-1-.13,3.34,3.34,0,0,0-2.79,1.44,5.68,5.68,0,0,0-1.07,3.49,2.68,2.68,0,0,0,.63,1.91,2.42,2.42,0,0,0,1.82.66,4.24,4.24,0,0,0,1.11-.15,7.08,7.08,0,0,0,.94-.34c.28-.14.55-.28.8-.43l.53-.34h.1l-.35,1.8a11.49,11.49,0,0,1-1.62.59A6,6,0,0,1,219.66,426.32Z"/><path class="cls-4" d="M229,426.32a5.54,5.54,0,0,1-1.65-.22,3.12,3.12,0,0,1-1.25-.69,3,3,0,0,1-.8-1.15,4.23,4.23,0,0,1-.28-1.62,7.41,7.41,0,0,1,.43-2.57,6.27,6.27,0,0,1,1.22-2.1,5.43,5.43,0,0,1,1.89-1.4,5.8,5.8,0,0,1,2.42-.51,5.29,5.29,0,0,1,1.62.24,6.44,6.44,0,0,1,1.35.56l-.36,1.78h-.1c-.12-.1-.26-.23-.44-.36a3.68,3.68,0,0,0-.62-.4,4,4,0,0,0-.8-.31,3.48,3.48,0,0,0-1-.13,3.33,3.33,0,0,0-2.78,1.44,5.62,5.62,0,0,0-1.07,3.49,2.68,2.68,0,0,0,.63,1.91,2.42,2.42,0,0,0,1.82.66,4.11,4.11,0,0,0,1.1-.15,7.27,7.27,0,0,0,.95-.34c.28-.14.55-.28.79-.43l.54-.34h.1l-.35,1.8a11.49,11.49,0,0,1-1.62.59A6,6,0,0,1,229,426.32Z"/><path class="cls-4" d="M238.1,416.29l-2.27,9.81h-1.65l2.27-9.81Zm.9-3.36-.4,1.71h-1.87l.4-1.71Z"/><path class="cls-4" d="M248.75,419.76a7.93,7.93,0,0,1-.4,2.53,6.42,6.42,0,0,1-1.15,2.11,5.65,5.65,0,0,1-1.76,1.45,5,5,0,0,1-2.34.53,3.66,3.66,0,0,1-2.73-1,3.78,3.78,0,0,1-1-2.76,7.76,7.76,0,0,1,.4-2.51A6.66,6.66,0,0,1,241,418a5.47,5.47,0,0,1,1.79-1.43,5,5,0,0,1,2.31-.54,3.75,3.75,0,0,1,2.7,1A3.68,3.68,0,0,1,248.75,419.76Zm-2.69,3.71a5.4,5.4,0,0,0,.73-1.63,7.72,7.72,0,0,0,.25-1.95,2.64,2.64,0,0,0-.59-1.86,2.13,2.13,0,0,0-1.66-.64,2.92,2.92,0,0,0-1.53.41,3.88,3.88,0,0,0-1.17,1.12,5.4,5.4,0,0,0-.73,1.63,7.31,7.31,0,0,0-.26,1.93,2.72,2.72,0,0,0,.59,1.87,2.16,2.16,0,0,0,1.67.65,2.92,2.92,0,0,0,1.53-.41A3.56,3.56,0,0,0,246.06,423.47Z"/><path class="cls-4" d="M259.86,418.53a4.67,4.67,0,0,1,0,.57,3.41,3.41,0,0,1-.11.63l-1.47,6.37h-1.65l1.29-5.59c.07-.31.12-.58.16-.81a4,4,0,0,0,.06-.69,1.55,1.55,0,0,0-.37-1.11,1.8,1.8,0,0,0-1.31-.37,3.54,3.54,0,0,0-1.48.37,9.78,9.78,0,0,0-1.57.88l-1.69,7.32H250l2.26-9.81h1.65l-.25,1.09a10,10,0,0,1,1.76-1,4.22,4.22,0,0,1,1.7-.36,2.86,2.86,0,0,1,2,.65A2.38,2.38,0,0,1,259.86,418.53Z"/><path class="cls-4" d="M266.06,426.33a4.84,4.84,0,0,1-3.19-1,3.4,3.4,0,0,1-1.16-2.8,6.74,6.74,0,0,1,1.7-4.63,5.42,5.42,0,0,1,4.21-1.93,3.62,3.62,0,0,1,2.56.83,3.07,3.07,0,0,1,.89,2.34,7.54,7.54,0,0,1-.08.83c-.05.38-.13.83-.24,1.33h-7.23a4.71,4.71,0,0,0-.08.5c0,.16,0,.32,0,.46a2.51,2.51,0,0,0,.76,1.94,3,3,0,0,0,2.14.71,5.52,5.52,0,0,0,2-.38,7.66,7.66,0,0,0,1.72-.85h.1l-.36,1.79c-.3.1-.56.2-.79.29s-.54.17-.9.26a9.36,9.36,0,0,1-1,.2A6.19,6.19,0,0,1,266.06,426.33Zm3.3-6.2c0-.17.05-.32.06-.43s0-.25,0-.39a2,2,0,0,0-.51-1.47,2.25,2.25,0,0,0-1.65-.52,3.45,3.45,0,0,0-2.22.77,3.8,3.8,0,0,0-1.31,2Z"/><path class="cls-4" d="M288.86,416.29l-2.26,9.81H285l.25-1.08a11.6,11.6,0,0,1-1.75,1,4.18,4.18,0,0,1-1.72.36,2.86,2.86,0,0,1-2-.64,2.35,2.35,0,0,1-.71-1.86,3.69,3.69,0,0,1,0-.58c0-.19.06-.4.11-.64l1.46-6.37h1.65L281,421.88a6.38,6.38,0,0,0-.15.78,4.19,4.19,0,0,0-.07.69,1.53,1.53,0,0,0,.38,1.14,1.82,1.82,0,0,0,1.3.37,3.73,3.73,0,0,0,1.49-.37,10.41,10.41,0,0,0,1.54-.87l1.69-7.33Z"/><path class="cls-4" d="M299.69,418.53a4.67,4.67,0,0,1,0,.57,3.41,3.41,0,0,1-.11.63l-1.47,6.37h-1.64l1.28-5.59c.07-.31.12-.58.16-.81a4,4,0,0,0,.06-.69,1.5,1.5,0,0,0-.37-1.11,1.8,1.8,0,0,0-1.31-.37,3.54,3.54,0,0,0-1.48.37,10.23,10.23,0,0,0-1.57.88l-1.69,7.32h-1.65l2.27-9.81h1.65l-.26,1.09a9.69,9.69,0,0,1,1.77-1A4.14,4.14,0,0,1,297,416a2.9,2.9,0,0,1,2,.65A2.4,2.4,0,0,1,299.69,418.53Z"/><path class="cls-4" d="M307.48,425.06l-.65.4a6,6,0,0,1-.83.44,5.37,5.37,0,0,1-2.27.48,2.68,2.68,0,0,1-1.9-.68,2.33,2.33,0,0,1-.73-1.79,3.63,3.63,0,0,1,.51-2,3.83,3.83,0,0,1,1.53-1.31,8,8,0,0,1,2.39-.73,24.25,24.25,0,0,1,3.2-.27c0-.17.06-.31.09-.43a2.21,2.21,0,0,0,0-.37,1.31,1.31,0,0,0-.17-.69,1.16,1.16,0,0,0-.48-.42,2.11,2.11,0,0,0-.71-.22,8.42,8.42,0,0,0-.9-.05,7.14,7.14,0,0,0-1.71.24,12.46,12.46,0,0,0-1.56.48h-.09l.33-1.66c.33-.08.82-.18,1.47-.29a10,10,0,0,1,1.85-.17,5.26,5.26,0,0,1,2.74.57,2,2,0,0,1,.92,1.81,4.75,4.75,0,0,1,0,.51c0,.18-.06.34-.09.5l-1.54,6.66h-1.64Zm1-4.13a22.75,22.75,0,0,0-2.41.2,7.19,7.19,0,0,0-1.73.45,2.37,2.37,0,0,0-1.08.78,2,2,0,0,0-.37,1.24,1.16,1.16,0,0,0,.43,1,2.17,2.17,0,0,0,1.33.33,4,4,0,0,0,1.63-.36,8.28,8.28,0,0,0,1.55-.85Z"/><path class="cls-4" d="M328,419.76a7.94,7.94,0,0,1-.41,2.53,6.59,6.59,0,0,1-1.14,2.11,5.68,5.68,0,0,1-1.77,1.45,4.92,4.92,0,0,1-2.33.53,3.66,3.66,0,0,1-2.73-1,3.74,3.74,0,0,1-1-2.76,7.76,7.76,0,0,1,.4-2.51,6.64,6.64,0,0,1,1.15-2.13,5.58,5.58,0,0,1,1.79-1.43,5,5,0,0,1,2.32-.54,3.42,3.42,0,0,1,3.7,3.75Zm-2.69,3.71a5.38,5.38,0,0,0,.72-1.63,7.29,7.29,0,0,0,.25-1.95,2.6,2.6,0,0,0-.59-1.86,2.12,2.12,0,0,0-1.66-.64,3,3,0,0,0-1.53.41,3.74,3.74,0,0,0-1.16,1.12,5.4,5.4,0,0,0-.73,1.63,7.31,7.31,0,0,0-.26,1.93,2.72,2.72,0,0,0,.59,1.87,2.15,2.15,0,0,0,1.67.65,3,3,0,0,0,1.53-.41A3.56,3.56,0,0,0,325.35,423.47Z"/><path class="cls-4" d="M339.29,419.39a8.2,8.2,0,0,1-.45,2.74,7.33,7.33,0,0,1-1.2,2.18,5.82,5.82,0,0,1-1.76,1.46,4.55,4.55,0,0,1-2.14.53,5.54,5.54,0,0,1-1.45-.18,4.4,4.4,0,0,1-1.21-.53l-.95,4.14h-1.65l3.1-13.44h1.65l-.24,1a9.71,9.71,0,0,1,1.61-.94,4.19,4.19,0,0,1,1.75-.37,2.73,2.73,0,0,1,2.19.89A3.74,3.74,0,0,1,339.29,419.39Zm-1.73.32a2.56,2.56,0,0,0-.46-1.62,1.78,1.78,0,0,0-1.46-.56,3.62,3.62,0,0,0-1.51.36,10.77,10.77,0,0,0-1.46.81l-1.28,5.57a5.73,5.73,0,0,0,1.09.45,4.5,4.5,0,0,0,1.25.15,3,3,0,0,0,1.63-.44,3.64,3.64,0,0,0,1.2-1.14,5.21,5.21,0,0,0,.75-1.64A7.58,7.58,0,0,0,337.56,419.71Z"/><path class="cls-4" d="M344.78,426.32a5.54,5.54,0,0,1-1.65-.22,3.19,3.19,0,0,1-1.25-.69,3.05,3.05,0,0,1-.8-1.15,4.23,4.23,0,0,1-.28-1.62,7.41,7.41,0,0,1,.43-2.57,6.44,6.44,0,0,1,1.22-2.1,5.43,5.43,0,0,1,1.89-1.4,5.82,5.82,0,0,1,2.43-.51,5.38,5.38,0,0,1,1.62.24,6.58,6.58,0,0,1,1.34.56l-.36,1.78h-.1c-.12-.1-.26-.23-.44-.36a3.32,3.32,0,0,0-.62-.4,3.8,3.8,0,0,0-.8-.31,3.41,3.41,0,0,0-1-.13,3.34,3.34,0,0,0-2.79,1.44,5.68,5.68,0,0,0-1.07,3.49,2.68,2.68,0,0,0,.63,1.91,2.43,2.43,0,0,0,1.82.66,4.24,4.24,0,0,0,1.11-.15,7.08,7.08,0,0,0,.94-.34c.29-.14.55-.28.8-.43l.53-.34h.1l-.35,1.8a11.49,11.49,0,0,1-1.62.59A6,6,0,0,1,344.78,426.32Z"/><path class="cls-4" d="M353.84,416.29l-2.27,9.81h-1.65l2.27-9.81Zm.9-3.36-.4,1.71h-1.87l.4-1.71Z"/><path class="cls-4" d="M364.49,419.76a7.93,7.93,0,0,1-.4,2.53A6.59,6.59,0,0,1,363,424.4a5.68,5.68,0,0,1-1.77,1.45,5,5,0,0,1-2.34.53,3.69,3.69,0,0,1-2.73-1,3.78,3.78,0,0,1-1-2.76,8,8,0,0,1,.4-2.51,6.86,6.86,0,0,1,1.16-2.13,5.58,5.58,0,0,1,1.79-1.43,5,5,0,0,1,2.31-.54,3.74,3.74,0,0,1,2.7,1A3.68,3.68,0,0,1,364.49,419.76Zm-2.68,3.71a5.64,5.64,0,0,0,.72-1.63,7.29,7.29,0,0,0,.25-1.95,2.64,2.64,0,0,0-.59-1.86,2.12,2.12,0,0,0-1.66-.64,2.92,2.92,0,0,0-1.53.41,3.88,3.88,0,0,0-1.17,1.12,5.65,5.65,0,0,0-.73,1.63,7.3,7.3,0,0,0-.25,1.93,2.67,2.67,0,0,0,.59,1.87,2.15,2.15,0,0,0,1.67.65,3,3,0,0,0,1.53-.41A3.77,3.77,0,0,0,361.81,423.47Zm2.61-12.1-3.12,3.29h-1.37l2.24-3.29Z"/><path class="cls-4" d="M375.6,418.53a6.92,6.92,0,0,1-.14,1.2L374,426.1h-1.64l1.28-5.59c.07-.31.13-.58.16-.81a4,4,0,0,0,.06-.69,1.5,1.5,0,0,0-.37-1.11,1.8,1.8,0,0,0-1.31-.37,3.54,3.54,0,0,0-1.48.37,10.23,10.23,0,0,0-1.57.88l-1.69,7.32h-1.65l2.27-9.81h1.65l-.25,1.09a9.31,9.31,0,0,1,1.76-1,4.14,4.14,0,0,1,1.69-.36,2.9,2.9,0,0,1,2,.65A2.4,2.4,0,0,1,375.6,418.53Z"/><path class="cls-5" d="M522.9,236.11H38V27.34H522.9ZM45.48,229.22h470v-195h-470Z"/><circle class="cls-5" cx="56.02" cy="44.77" r="37.4"/><path class="cls-3" d="M166.23,106.74h-9v3.65h8.37v3.8H157.2v8.39h-5V102.94h14.07Z"/><path class="cls-3" d="M177.27,123a12.22,12.22,0,0,1-4-.65,8.61,8.61,0,0,1-3.18-1.92A8.73,8.73,0,0,1,168,117.2a12.52,12.52,0,0,1-.73-4.42,12,12,0,0,1,.7-4.23,9.09,9.09,0,0,1,2-3.26,8.52,8.52,0,0,1,3.17-2,11.54,11.54,0,0,1,4.14-.72,16.64,16.64,0,0,1,2.23.14,15,15,0,0,1,1.84.36,14.8,14.8,0,0,1,1.6.56c.48.21.9.4,1.26.58V109h-.58l-.93-.75a12.17,12.17,0,0,0-1.27-.85,9,9,0,0,0-1.57-.71,5.63,5.63,0,0,0-1.81-.29,6,6,0,0,0-2,.34,4.91,4.91,0,0,0-1.78,1.11,5.44,5.44,0,0,0-1.26,2,8.35,8.35,0,0,0-.48,3,8.08,8.08,0,0,0,.52,3.08,5.31,5.31,0,0,0,1.32,1.95,4.68,4.68,0,0,0,1.79,1,6.4,6.4,0,0,0,2,.31,6.32,6.32,0,0,0,1.82-.27,7.45,7.45,0,0,0,1.67-.75,12,12,0,0,0,1.2-.82c.37-.28.68-.53.91-.74h.53v4.69l-1.41.62a12.34,12.34,0,0,1-1.41.5,14.5,14.5,0,0,1-1.81.42A13.89,13.89,0,0,1,177.27,123Z"/><path class="cls-3" d="M204.76,122.58h-5.23l-1.37-4h-7.27l-1.36,4h-5.1l7.25-19.64h5.82ZM196.94,115l-2.41-7-2.42,7Z"/><path class="cls-3" d="M231,116.56a5.57,5.57,0,0,1-.58,2.55,5.25,5.25,0,0,1-1.57,1.86,7.51,7.51,0,0,1-2.56,1.24,14.26,14.26,0,0,1-3.52.37h-8.57V102.94h7.62a28,28,0,0,1,3.47.16,7.2,7.2,0,0,1,2.18.7,3.88,3.88,0,0,1,1.67,1.52,4.6,4.6,0,0,1-.2,4.7,4.93,4.93,0,0,1-2.12,1.69v.11a5.5,5.5,0,0,1,3.05,1.58A4.43,4.43,0,0,1,231,116.56Zm-6.49-8.06a2.1,2.1,0,0,0-.25-1,1.51,1.51,0,0,0-.86-.73,4.41,4.41,0,0,0-1.38-.23l-2.31,0h-.47v4.16H220c.8,0,1.48,0,2,0a3.69,3.69,0,0,0,1.33-.27,1.62,1.62,0,0,0,.9-.78A2.75,2.75,0,0,0,224.47,108.5Zm1.22,8a2.47,2.47,0,0,0-.36-1.44,2.19,2.19,0,0,0-1.23-.76,6.68,6.68,0,0,0-1.63-.18H219.2V119h.36l3.06,0a4.43,4.43,0,0,0,1.69-.34,2.07,2.07,0,0,0,1.09-.88A2.55,2.55,0,0,0,225.69,116.48Z"/><path class="cls-3" d="M247.89,122.58h-4.76v-1.64a13.54,13.54,0,0,1-2.41,1.52,5.94,5.94,0,0,1-2.6.52,4.93,4.93,0,0,1-3.78-1.41,5.89,5.89,0,0,1-1.32-4.16v-9.64h4.76v7.34c0,.75,0,1.37.07,1.87a3.15,3.15,0,0,0,.34,1.23,1.43,1.43,0,0,0,.76.71,3.53,3.53,0,0,0,1.41.23,4.66,4.66,0,0,0,1.35-.23,5.84,5.84,0,0,0,1.42-.65v-10.5h4.76Z"/><path class="cls-3" d="M265.63,116.05H254.77a3.4,3.4,0,0,0,1.32,2.66,5.88,5.88,0,0,0,3.6.93,8.07,8.07,0,0,0,2.91-.54,9.72,9.72,0,0,0,2.23-1.16h.52v3.81a17.24,17.24,0,0,1-3,.93,16.08,16.08,0,0,1-3.15.29q-4.46,0-6.83-2a7.07,7.07,0,0,1-2.37-5.71,7.65,7.65,0,0,1,2.25-5.81,8.55,8.55,0,0,1,6.16-2.14,7.34,7.34,0,0,1,5.43,1.83,7.07,7.07,0,0,1,1.82,5.25Zm-4.72-2.78a3.27,3.27,0,0,0-.74-2.24,2.83,2.83,0,0,0-2.17-.75,3.45,3.45,0,0,0-2.26.71,3,3,0,0,0-1,2.28Z"/><path class="cls-3" d="M282.53,122.58h-4.76v-7.35a17.68,17.68,0,0,0-.09-1.78,3.77,3.77,0,0,0-.32-1.32,1.61,1.61,0,0,0-.77-.71,3.61,3.61,0,0,0-1.42-.22,4.32,4.32,0,0,0-1.31.21,6.74,6.74,0,0,0-1.44.67v10.5h-4.76V107.77h4.76v1.64a11.86,11.86,0,0,1,2.43-1.52,6.17,6.17,0,0,1,2.58-.53,5,5,0,0,1,3.75,1.4,5.79,5.79,0,0,1,1.35,4.18Z"/><path class="cls-3" d="M294.53,121l-.95.7a7,7,0,0,1-1.06.64,6.82,6.82,0,0,1-1.45.47,8.43,8.43,0,0,1-1.65.15,5,5,0,0,1-3.53-1.3,4.34,4.34,0,0,1-1.43-3.34,4.46,4.46,0,0,1,.73-2.65,4.87,4.87,0,0,1,2.05-1.62,11.27,11.27,0,0,1,3.27-.84c1.3-.17,2.65-.29,4.05-.37v-.08a1.71,1.71,0,0,0-1-1.7,7.29,7.29,0,0,0-2.95-.46,8.32,8.32,0,0,0-2.51.41c-.89.28-1.52.49-1.91.64h-.44v-3.57c.5-.14,1.32-.29,2.45-.47a21.52,21.52,0,0,1,3.39-.27q4.05,0,5.85,1.24a4.44,4.44,0,0,1,1.8,3.91v10.08h-4.71Zm0-2.31v-3.07c-.64.05-1.33.12-2.08.22a9.23,9.23,0,0,0-1.7.32,2.34,2.34,0,0,0-1.09.65,1.63,1.63,0,0,0-.37,1.12,2.6,2.6,0,0,0,.08.75,1.09,1.09,0,0,0,.39.55,1.84,1.84,0,0,0,.73.39,5.24,5.24,0,0,0,1.32.12,4,4,0,0,0,1.44-.28A4.55,4.55,0,0,0,294.53,118.7Z"/><path class="cls-3" d="M317.19,107.77l-5.71,14.81H306.1l-5.66-14.81h5L308.88,118l3.39-10.19Z"/><path class="cls-3" d="M333.09,116.05H322.22a3.38,3.38,0,0,0,1.33,2.66,5.85,5.85,0,0,0,3.59.93,8.16,8.16,0,0,0,2.92-.54,9.63,9.63,0,0,0,2.22-1.16h.53v3.81a17.24,17.24,0,0,1-3,.93,16.08,16.08,0,0,1-3.15.29q-4.45,0-6.83-2a7.08,7.08,0,0,1-2.38-5.71,7.65,7.65,0,0,1,2.25-5.81,8.56,8.56,0,0,1,6.17-2.14,7.35,7.35,0,0,1,5.43,1.83,7.11,7.11,0,0,1,1.82,5.25Zm-4.72-2.78a3.37,3.37,0,0,0-.74-2.24,2.85,2.85,0,0,0-2.18-.75,3.44,3.44,0,0,0-2.25.71,3,3,0,0,0-1,2.28Z"/><path class="cls-3" d="M350,122.58h-4.76v-7.35a17.68,17.68,0,0,0-.09-1.78,3.56,3.56,0,0,0-.32-1.32,1.57,1.57,0,0,0-.77-.71,3.55,3.55,0,0,0-1.41-.22,4.43,4.43,0,0,0-1.32.21,7,7,0,0,0-1.44.67v10.5h-4.76V107.77h4.76v1.64a11.86,11.86,0,0,1,2.43-1.52,6.25,6.25,0,0,1,2.59-.53,5,5,0,0,1,3.74,1.4,5.79,5.79,0,0,1,1.35,4.18Z"/><path class="cls-3" d="M362.49,122.44a11.34,11.34,0,0,1-1.62.31,15.46,15.46,0,0,1-2.1.12,6.41,6.41,0,0,1-4.12-1.12q-1.35-1.12-1.35-3.84V111h-1.95v-3.22h1.95v-4.23h4.76v4.23h4.43V111h-4.43v5.25c0,.52,0,1,0,1.36a2.89,2.89,0,0,0,.21,1.05,1.53,1.53,0,0,0,.65.73,2.81,2.81,0,0,0,1.37.27,3.79,3.79,0,0,0,1-.16,3.69,3.69,0,0,0,.84-.29h.39Z"/><path class="cls-3" d="M378.75,122.58H374v-1.64a13.2,13.2,0,0,1-2.41,1.52,5.91,5.91,0,0,1-2.6.52,4.92,4.92,0,0,1-3.77-1.41,5.84,5.84,0,0,1-1.33-4.16v-9.64h4.76v7.34c0,.75,0,1.37.07,1.87a3.33,3.33,0,0,0,.34,1.23,1.46,1.46,0,0,0,.76.71,3.59,3.59,0,0,0,1.42.23,4.65,4.65,0,0,0,1.34-.23,5.67,5.67,0,0,0,1.42-.65v-10.5h4.76Z"/><path class="cls-3" d="M392.64,112.29h-.42a4.44,4.44,0,0,0-1-.16c-.45,0-.82,0-1.12,0a11.82,11.82,0,0,0-1.79.13,10.77,10.77,0,0,0-1.67.45v9.92h-4.76V107.77h4.76V110a9.84,9.84,0,0,1,2.72-1.79,6,6,0,0,1,2.14-.44h.56l.55,0Z"/><path class="cls-3" d="M403,121l-1,.7a7.52,7.52,0,0,1-1.07.64,6.82,6.82,0,0,1-1.45.47,8.43,8.43,0,0,1-1.65.15,5,5,0,0,1-3.53-1.3,4.34,4.34,0,0,1-1.43-3.34,4.46,4.46,0,0,1,.73-2.65,4.84,4.84,0,0,1,2.06-1.62,11.1,11.1,0,0,1,3.27-.84c1.3-.17,2.64-.29,4-.37v-.08a1.71,1.71,0,0,0-1-1.7,7.29,7.29,0,0,0-2.95-.46,8.37,8.37,0,0,0-2.51.41c-.89.28-1.52.49-1.91.64h-.43v-3.57c.5-.14,1.31-.29,2.44-.47a21.55,21.55,0,0,1,3.4-.27q4,0,5.84,1.24a4.44,4.44,0,0,1,1.8,3.91v10.08H403Zm0-2.31v-3.07c-.65.05-1.34.12-2.09.22a9.4,9.4,0,0,0-1.7.32,2.34,2.34,0,0,0-1.09.65,1.63,1.63,0,0,0-.37,1.12,3,3,0,0,0,.08.75,1.09,1.09,0,0,0,.39.55,1.91,1.91,0,0,0,.73.39,5.24,5.24,0,0,0,1.32.12,4,4,0,0,0,1.44-.28A4.6,4.6,0,0,0,403,118.7Z"/><path class="cls-3" d="M64.94,44.19a17.83,17.83,0,0,1-.71,5.11,10.31,10.31,0,0,1-2.13,4,9.66,9.66,0,0,1-3.86,2.61,14.87,14.87,0,0,1-5.36.88,22.14,22.14,0,0,1-2.34-.14,12.84,12.84,0,0,1-1.66-.23V52.1h.59a10.5,10.5,0,0,0,1.25.44,8.61,8.61,0,0,0,2.22.23,8.45,8.45,0,0,0,2.24-.29,5,5,0,0,0,1.89-.9,5.13,5.13,0,0,0,1.42-1.64,6.8,6.8,0,0,0,.75-2.38,15.49,15.49,0,0,1-2.37,1.12,8.09,8.09,0,0,1-2.71.39,8.6,8.6,0,0,1-2.35-.31,6.47,6.47,0,0,1-2.05-.93,6.09,6.09,0,0,1-1.94-2.28A7.82,7.82,0,0,1,47.1,42a7.36,7.36,0,0,1,2.43-5.71,9.18,9.18,0,0,1,6.4-2.2,11.11,11.11,0,0,1,3.61.53,7.35,7.35,0,0,1,2.72,1.63,8,8,0,0,1,2,3.22A14.53,14.53,0,0,1,64.94,44.19Zm-5.61-.81A10.36,10.36,0,0,0,59,40.44,4.38,4.38,0,0,0,58,38.65a2.46,2.46,0,0,0-1-.67,3.28,3.28,0,0,0-1.17-.21,3.11,3.11,0,0,0-1.1.2,2.92,2.92,0,0,0-1,.68,3.65,3.65,0,0,0-.74,1.24,5.15,5.15,0,0,0-.29,1.82,4.34,4.34,0,0,0,.31,1.72,2.82,2.82,0,0,0,.85,1.11,3.21,3.21,0,0,0,1.21.56,7.16,7.16,0,0,0,1.52.16,6.93,6.93,0,0,0,1.43-.17,6.67,6.67,0,0,0,1.2-.35c0-.1,0-.26,0-.46S59.33,43.78,59.33,43.38Z"/></g></g></svg>