<svg xmlns="http://www.w3.org/2000/svg" viewBox="0 0 562.62 470.8"><defs><style>.cls-1,.cls-3{fill:#fff;}.cls-1{opacity:0;}.cls-2{fill:#035aa6;}.cls-4{fill:#ffd053;}.cls-5{fill:#84bf2c;}</style></defs><title>slide10_pregunta10</title><g id="Capa_2" data-name="Capa 2"><g id="Layer_7" data-name="Layer 7"><rect class="cls-1" width="562.62" height="470.8"/><rect class="cls-2" x="66.24" y="248.43" width="424.94" height="71.91" rx="12.02"/><path class="cls-3" d="M90.91,282.83H80.79V267.48H90.91v1.81H82.83v4.21h8.08v1.81H82.83V281h8.08Z"/><path class="cls-3" d="M103.62,282.83h-1.94v-6.56a11.7,11.7,0,0,0-.09-1.49,2.92,2.92,0,0,0-.34-1.08,1.59,1.59,0,0,0-.75-.65,3.16,3.16,0,0,0-1.25-.21,4,4,0,0,0-1.66.39,8.62,8.62,0,0,0-1.66,1v8.6H94V271.31h1.94v1.28a7.84,7.84,0,0,1,1.87-1.17,5,5,0,0,1,2-.43,3.58,3.58,0,0,1,2.85,1.13,4.81,4.81,0,0,1,1,3.24Z"/><path class="cls-3" d="M124.41,277.27h-8.48a4.75,4.75,0,0,0,.32,1.85,3.46,3.46,0,0,0,.87,1.3,3.53,3.53,0,0,0,1.28.74,5.19,5.19,0,0,0,1.62.25,6.53,6.53,0,0,0,2.37-.47,5.88,5.88,0,0,0,1.69-.92h.1v2.11a17.49,17.49,0,0,1-2,.69,8.31,8.31,0,0,1-2.14.28,6.18,6.18,0,0,1-4.47-1.55,5.83,5.83,0,0,1-1.61-4.41,6.34,6.34,0,0,1,1.54-4.49,5.31,5.31,0,0,1,4.06-1.66,4.65,4.65,0,0,1,3.59,1.37,5.45,5.45,0,0,1,1.26,3.86Zm-1.89-1.48a3.41,3.41,0,0,0-.76-2.36,3,3,0,0,0-2.31-.84,3.38,3.38,0,0,0-2.48.92,3.56,3.56,0,0,0-1,2.28Z"/><path class="cls-3" d="M129.31,282.83h-1.94v-16h1.94Z"/><path class="cls-3" d="M150.7,276.93a7.68,7.68,0,0,1-.4,2.56,5.61,5.61,0,0,1-1.14,2,4.74,4.74,0,0,1-3.55,1.6,6.33,6.33,0,0,1-1.63-.2,6.73,6.73,0,0,1-1.48-.61v4.83h-1.93V271.31h1.93v1.21a8.11,8.11,0,0,1,1.74-1.09,5,5,0,0,1,2.06-.44,3.79,3.79,0,0,1,3.24,1.58A7.22,7.22,0,0,1,150.7,276.93Zm-2,.05a5.56,5.56,0,0,0-.71-3.11,2.47,2.47,0,0,0-2.19-1,4.31,4.31,0,0,0-1.68.36,7.88,7.88,0,0,0-1.62.95v6.53a8.48,8.48,0,0,0,1.42.5,6.19,6.19,0,0,0,1.35.13,3.08,3.08,0,0,0,2.52-1.09A5,5,0,0,0,148.7,277Z"/><path class="cls-3" d="M163.27,282.83h-1.94v-1.28a9.38,9.38,0,0,1-1.88,1.19,4.77,4.77,0,0,1-2,.41,3.61,3.61,0,0,1-2.82-1.11,4.64,4.64,0,0,1-1-3.25v-7.48h1.94v6.56a10.75,10.75,0,0,0,.08,1.5,2.65,2.65,0,0,0,.35,1.07,1.63,1.63,0,0,0,.72.66,3.16,3.16,0,0,0,1.29.2,4.11,4.11,0,0,0,1.64-.39,7.47,7.47,0,0,0,1.67-1v-8.6h1.94Z"/><path class="cls-3" d="M176.72,277.27h-8.49a4.74,4.74,0,0,0,.33,1.85,3.46,3.46,0,0,0,.87,1.3,3.57,3.57,0,0,0,1.27.74,5.3,5.3,0,0,0,1.63.25,6.44,6.44,0,0,0,2.36-.47,5.82,5.82,0,0,0,1.7-.92h.1v2.11a17.49,17.49,0,0,1-2,.69,8.31,8.31,0,0,1-2.14.28,6.22,6.22,0,0,1-4.48-1.55,5.86,5.86,0,0,1-1.6-4.41,6.34,6.34,0,0,1,1.54-4.49,5.28,5.28,0,0,1,4.05-1.66,4.67,4.67,0,0,1,3.6,1.37,5.45,5.45,0,0,1,1.26,3.86Zm-1.89-1.48a3.37,3.37,0,0,0-.77-2.36,2.93,2.93,0,0,0-2.3-.84,3.38,3.38,0,0,0-2.48.92,3.62,3.62,0,0,0-1.05,2.28Z"/><path class="cls-3" d="M186.84,273.43h-.1a6.77,6.77,0,0,0-.84-.15,8.72,8.72,0,0,0-1,0,4,4,0,0,0-1.74.4,8.13,8.13,0,0,0-1.6,1v8.18h-1.94V271.31h1.94V273a9.52,9.52,0,0,1,2-1.32,4.42,4.42,0,0,1,1.8-.39,6.17,6.17,0,0,1,.73,0l.68.1Z"/><path class="cls-3" d="M194.65,282.73a12,12,0,0,1-1.19.23,7.25,7.25,0,0,1-1.15.1,3.56,3.56,0,0,1-2.68-.95,4.22,4.22,0,0,1-.92-3v-6.13H187.4v-1.63h1.31V268h1.94v3.3h4v1.63h-4v5.25c0,.61,0,1.08,0,1.42a2.24,2.24,0,0,0,.29.95,1.33,1.33,0,0,0,.62.6,2.85,2.85,0,0,0,1.21.2,3.87,3.87,0,0,0,1-.14,6.49,6.49,0,0,0,.74-.24h.11Z"/><path class="cls-3" d="M206.8,277.08a6.48,6.48,0,0,1-1.44,4.44,5.42,5.42,0,0,1-7.75,0,7.58,7.58,0,0,1,0-8.89,5.4,5.4,0,0,1,7.75,0A6.49,6.49,0,0,1,206.8,277.08Zm-2,0a5.24,5.24,0,0,0-.88-3.33,3.28,3.28,0,0,0-4.88,0,5.3,5.3,0,0,0-.87,3.33,5.21,5.21,0,0,0,.88,3.28,3.22,3.22,0,0,0,4.87,0A5.21,5.21,0,0,0,204.8,277.08Z"/><path class="cls-3" d="M226.56,282.83h-1.93v-1.21a6.86,6.86,0,0,1-1.75,1.13,4.75,4.75,0,0,1-2,.4,3.9,3.9,0,0,1-3.27-1.59,7.08,7.08,0,0,1-1.21-4.4,7.52,7.52,0,0,1,.42-2.61A6,6,0,0,1,218,272.6a4.83,4.83,0,0,1,3.56-1.61,6,6,0,0,1,1.61.2,7,7,0,0,1,1.48.59v-5h1.93ZM224.63,280v-6.6a7,7,0,0,0-1.41-.49,6.31,6.31,0,0,0-1.35-.13,3.07,3.07,0,0,0-2.53,1.13,5,5,0,0,0-.91,3.22,5.68,5.68,0,0,0,.7,3.12,2.5,2.5,0,0,0,2.25,1.06,4.26,4.26,0,0,0,1.67-.36A7.29,7.29,0,0,0,224.63,280Z"/><path class="cls-3" d="M240,277.27h-8.49a4.94,4.94,0,0,0,.32,1.85,3.42,3.42,0,0,0,2.15,2,5.21,5.21,0,0,0,1.63.25,6.44,6.44,0,0,0,2.36-.47,5.82,5.82,0,0,0,1.7-.92h.1v2.11a17.49,17.49,0,0,1-2,.69,8.37,8.37,0,0,1-2.14.28,6.21,6.21,0,0,1-4.48-1.55,5.87,5.87,0,0,1-1.61-4.41,6.39,6.39,0,0,1,1.54-4.49,5.31,5.31,0,0,1,4.06-1.66,4.64,4.64,0,0,1,3.59,1.37,5.41,5.41,0,0,1,1.27,3.86Zm-1.89-1.48a3.42,3.42,0,0,0-.77-2.36,2.93,2.93,0,0,0-2.3-.84,3.36,3.36,0,0,0-2.48.92,3.57,3.57,0,0,0-1.05,2.28Z"/><path class="cls-3" d="M260.19,277.08a6.48,6.48,0,0,1-1.44,4.44,5.42,5.42,0,0,1-7.75,0,7.58,7.58,0,0,1,0-8.89,5.4,5.4,0,0,1,7.75,0A6.49,6.49,0,0,1,260.19,277.08Zm-2,0a5.3,5.3,0,0,0-.87-3.33,3.29,3.29,0,0,0-4.89,0,6.68,6.68,0,0,0,0,6.61,3.22,3.22,0,0,0,4.87,0A5.21,5.21,0,0,0,258.19,277.08Z"/><path class="cls-3" d="M270.38,273.43h-.11a6.17,6.17,0,0,0-.84-.15,8.72,8.72,0,0,0-1,0,3.91,3.91,0,0,0-1.73.4,8.2,8.2,0,0,0-1.61,1v8.18h-1.94V271.31h1.94V273a9.55,9.55,0,0,1,2-1.32,4.36,4.36,0,0,1,1.8-.39,6.29,6.29,0,0,1,.73,0l.68.1Z"/><path class="cls-3" d="M274.28,269.39H272.1v-2h2.18Zm-.12,13.44h-1.94V271.31h1.94Z"/><path class="cls-3" d="M287.34,281.52a6,6,0,0,1-1.33,4.3,5.5,5.5,0,0,1-4.1,1.37,11.56,11.56,0,0,1-1.78-.13,13.8,13.8,0,0,1-1.72-.36v-2h.1c.32.12.82.27,1.51.46a8,8,0,0,0,2.06.27,4.81,4.81,0,0,0,1.64-.24,2.4,2.4,0,0,0,1-.66,2.32,2.32,0,0,0,.51-1,4.55,4.55,0,0,0,.16-1.27v-1.05a7.39,7.39,0,0,1-1.68,1.05,5.15,5.15,0,0,1-2,.34,4,4,0,0,1-3.28-1.49,6.53,6.53,0,0,1-1.21-4.2,7,7,0,0,1,.42-2.56,5.82,5.82,0,0,1,1.14-1.86,4.61,4.61,0,0,1,1.63-1.14,4.87,4.87,0,0,1,1.91-.41,5.71,5.71,0,0,1,1.67.21,6.81,6.81,0,0,1,1.43.61l.12-.5h1.82Zm-1.94-1.86v-6.27a7.3,7.3,0,0,0-1.44-.5,5.94,5.94,0,0,0-1.32-.15,3.12,3.12,0,0,0-2.52,1.07,4.66,4.66,0,0,0-.92,3.11,5.28,5.28,0,0,0,.68,2.94,2.54,2.54,0,0,0,2.26,1,4.91,4.91,0,0,0,1.7-.32A6.32,6.32,0,0,0,285.4,279.66Z"/><path class="cls-3" d="M300.79,277.27h-8.48a4.75,4.75,0,0,0,.32,1.85,3.46,3.46,0,0,0,.87,1.3,3.57,3.57,0,0,0,1.27.74,5.3,5.3,0,0,0,1.63.25,6.44,6.44,0,0,0,2.36-.47,5.82,5.82,0,0,0,1.7-.92h.1v2.11a17.49,17.49,0,0,1-2,.69,8.31,8.31,0,0,1-2.14.28,6.22,6.22,0,0,1-4.48-1.55,5.86,5.86,0,0,1-1.6-4.41,6.34,6.34,0,0,1,1.54-4.49,5.28,5.28,0,0,1,4.05-1.66,4.67,4.67,0,0,1,3.6,1.37,5.45,5.45,0,0,1,1.26,3.86Zm-1.89-1.48a3.41,3.41,0,0,0-.76-2.36,3,3,0,0,0-2.31-.84,3.38,3.38,0,0,0-2.48.92,3.56,3.56,0,0,0-1,2.28Z"/><path class="cls-3" d="M313.36,282.83h-1.94v-6.56a11.7,11.7,0,0,0-.09-1.49,2.92,2.92,0,0,0-.34-1.08,1.59,1.59,0,0,0-.75-.65,3.16,3.16,0,0,0-1.25-.21,4,4,0,0,0-1.66.39,8.32,8.32,0,0,0-1.66,1v8.6h-1.94V271.31h1.94v1.28a7.84,7.84,0,0,1,1.87-1.17,5,5,0,0,1,2-.43,3.58,3.58,0,0,1,2.85,1.13,4.81,4.81,0,0,1,1,3.24Z"/><path class="cls-3" d="M320.25,282.83h-2.46v-2.94h2.46Z"/><rect class="cls-2" x="66.8" y="330.73" width="424.94" height="71.91" rx="12.02"/><path class="cls-3" d="M91.46,365.13H81.35V349.78H91.46v1.82H83.39v4.2h8.07v1.82H83.39v5.7h8.07Z"/><path class="cls-3" d="M104.17,365.13h-1.93v-6.55a11.52,11.52,0,0,0-.1-1.49,2.59,2.59,0,0,0-.34-1.09,1.55,1.55,0,0,0-.74-.64,3.18,3.18,0,0,0-1.26-.21,4,4,0,0,0-1.66.39,8.42,8.42,0,0,0-1.66,1v8.59H94.55V353.62h1.93v1.28a8.28,8.28,0,0,1,1.88-1.18,5,5,0,0,1,2-.42,3.59,3.59,0,0,1,2.84,1.12,4.75,4.75,0,0,1,1,3.24Z"/><path class="cls-3" d="M125,359.58h-8.49a5,5,0,0,0,.32,1.85,3.56,3.56,0,0,0,.88,1.29,3.43,3.43,0,0,0,1.27.74,4.94,4.94,0,0,0,1.63.25,6.24,6.24,0,0,0,2.36-.47,5.82,5.82,0,0,0,1.7-.92h.1v2.11a14.32,14.32,0,0,1-2,.69,7.9,7.9,0,0,1-2.14.28,6.16,6.16,0,0,1-4.48-1.55,5.83,5.83,0,0,1-1.61-4.4,6.33,6.33,0,0,1,1.55-4.49,5.23,5.23,0,0,1,4-1.66,4.63,4.63,0,0,1,3.59,1.36,5.45,5.45,0,0,1,1.27,3.87Zm-1.89-1.49a3.43,3.43,0,0,0-.77-2.36,3,3,0,0,0-2.3-.83,3.32,3.32,0,0,0-2.48.92,3.57,3.57,0,0,0-1,2.27Z"/><path class="cls-3" d="M129.86,365.13h-1.93v-16h1.93Z"/><path class="cls-3" d="M151.26,359.24a7.72,7.72,0,0,1-.41,2.56,5.4,5.4,0,0,1-1.13,2,4.79,4.79,0,0,1-1.6,1.19,4.85,4.85,0,0,1-2,.41,6.26,6.26,0,0,1-1.62-.19,7.6,7.6,0,0,1-1.48-.61v4.82h-1.94V353.62h1.94v1.21a7.2,7.2,0,0,1,1.74-1.09,4.94,4.94,0,0,1,2-.44,3.81,3.81,0,0,1,3.25,1.57A7.27,7.27,0,0,1,151.26,359.24Zm-2,.05a5.52,5.52,0,0,0-.71-3.11,2.48,2.48,0,0,0-2.19-1,4.24,4.24,0,0,0-1.68.36,7.83,7.83,0,0,0-1.62.94V363a7.54,7.54,0,0,0,1.42.51,6,6,0,0,0,1.34.13,3.11,3.11,0,0,0,2.53-1.09A5,5,0,0,0,149.26,359.29Z"/><path class="cls-3" d="M163.82,365.13h-1.93v-1.27A9.58,9.58,0,0,1,160,365a4.62,4.62,0,0,1-2,.41,3.64,3.64,0,0,1-2.83-1.1,4.71,4.71,0,0,1-1-3.26v-7.47h1.94v6.56a10.78,10.78,0,0,0,.09,1.5,2.76,2.76,0,0,0,.34,1.06,1.59,1.59,0,0,0,.73.66,3.08,3.08,0,0,0,1.29.21,4.11,4.11,0,0,0,1.64-.39,8.12,8.12,0,0,0,1.67-1v-8.6h1.93Z"/><path class="cls-3" d="M177.28,359.58h-8.49a5,5,0,0,0,.32,1.85,3.44,3.44,0,0,0,2.15,2,4.92,4.92,0,0,0,1.62.25,6.26,6.26,0,0,0,2.37-.47,6,6,0,0,0,1.7-.92h.1v2.11a14.32,14.32,0,0,1-2,.69,8,8,0,0,1-2.15.28,6.14,6.14,0,0,1-4.47-1.55,5.83,5.83,0,0,1-1.61-4.4,6.37,6.37,0,0,1,1.54-4.49,5.27,5.27,0,0,1,4.06-1.66,4.64,4.64,0,0,1,3.59,1.36,5.5,5.5,0,0,1,1.27,3.87Zm-1.89-1.49a3.43,3.43,0,0,0-.77-2.36,3,3,0,0,0-2.3-.83,3.32,3.32,0,0,0-2.48.92,3.52,3.52,0,0,0-1.05,2.27Z"/><path class="cls-3" d="M187.4,355.73h-.1a6.77,6.77,0,0,0-.84-.15,9.29,9.29,0,0,0-1,0,4,4,0,0,0-1.73.39,8.26,8.26,0,0,0-1.61,1v8.17h-1.94V353.62h1.94v1.7a9.09,9.09,0,0,1,2-1.31,4.42,4.42,0,0,1,1.8-.39,6.29,6.29,0,0,1,.73,0l.68.09Z"/><path class="cls-3" d="M195.2,365a9.26,9.26,0,0,1-1.19.24,8.38,8.38,0,0,1-1.15.09,3.54,3.54,0,0,1-2.68-.95,4.25,4.25,0,0,1-.91-3v-6.12H188v-1.63h1.31v-3.31h1.93v3.31h4v1.63h-4v5.25c0,.6,0,1.07,0,1.41a2.49,2.49,0,0,0,.29,1,1.4,1.4,0,0,0,.63.6,2.87,2.87,0,0,0,1.21.19,4,4,0,0,0,1-.14,7,7,0,0,0,.74-.23h.1Z"/><path class="cls-3" d="M207.36,359.38a6.45,6.45,0,0,1-1.45,4.45,5.43,5.43,0,0,1-7.74,0,7.6,7.6,0,0,1,0-8.9,5.41,5.41,0,0,1,7.74,0A6.46,6.46,0,0,1,207.36,359.38Zm-2,0a5.19,5.19,0,0,0-.88-3.32,3.28,3.28,0,0,0-4.88,0,6.71,6.71,0,0,0,0,6.61,3.25,3.25,0,0,0,4.88,0A5.28,5.28,0,0,0,205.36,359.38Z"/><path class="cls-3" d="M227.12,365.13h-1.94v-1.2a6.86,6.86,0,0,1-1.74,1.12,4.75,4.75,0,0,1-2,.4,3.89,3.89,0,0,1-3.27-1.58,7.11,7.11,0,0,1-1.21-4.41,7.75,7.75,0,0,1,.41-2.6,6.1,6.1,0,0,1,1.13-1.95,4.93,4.93,0,0,1,1.64-1.2,4.78,4.78,0,0,1,1.93-.41,6.08,6.08,0,0,1,1.61.19,7.92,7.92,0,0,1,1.47.59v-5h1.94Zm-1.94-2.83v-6.61a7.52,7.52,0,0,0-1.4-.48,6.29,6.29,0,0,0-1.35-.14,3.07,3.07,0,0,0-2.54,1.14,5,5,0,0,0-.9,3.21,5.68,5.68,0,0,0,.7,3.12,2.48,2.48,0,0,0,2.24,1.07,4.07,4.07,0,0,0,1.67-.37A6.67,6.67,0,0,0,225.18,362.3Z"/><path class="cls-3" d="M240.57,359.58h-8.48a5,5,0,0,0,.32,1.85,3.44,3.44,0,0,0,2.15,2,4.92,4.92,0,0,0,1.62.25,6.29,6.29,0,0,0,2.37-.47,5.74,5.74,0,0,0,1.69-.92h.11v2.11a14.78,14.78,0,0,1-2,.69,8,8,0,0,1-2.15.28,6.14,6.14,0,0,1-4.47-1.55,5.83,5.83,0,0,1-1.61-4.4,6.33,6.33,0,0,1,1.54-4.49,5.27,5.27,0,0,1,4.06-1.66,4.64,4.64,0,0,1,3.59,1.36,5.5,5.5,0,0,1,1.26,3.87Zm-1.88-1.49a3.48,3.48,0,0,0-.77-2.36,3,3,0,0,0-2.3-.83,3.32,3.32,0,0,0-2.48.92,3.52,3.52,0,0,0-1,2.27Z"/><path class="cls-3" d="M264.76,365.13h-2V351.91l-4.27,9h-1.22l-4.23-9v13.22h-1.91V349.78h2.78l4.1,8.55,3.95-8.55h2.84Z"/><path class="cls-3" d="M277.68,365.13h-1.93v-1.22l-.7.49a4.48,4.48,0,0,1-.85.5,5.15,5.15,0,0,1-1.11.39,5.88,5.88,0,0,1-1.48.16,3.66,3.66,0,0,1-2.63-1,3.43,3.43,0,0,1-1.09-2.63,3.65,3.65,0,0,1,.56-2.11,3.78,3.78,0,0,1,1.61-1.28,8.31,8.31,0,0,1,2.52-.62c1-.12,2-.2,3.17-.25v-.3a2.39,2.39,0,0,0-.23-1.1,1.82,1.82,0,0,0-.67-.68,3,3,0,0,0-1-.32,9.3,9.3,0,0,0-1.2-.08,8.57,8.57,0,0,0-1.71.2,13.18,13.18,0,0,0-1.93.59h-.11v-2a16,16,0,0,1,1.64-.34,11.85,11.85,0,0,1,2.12-.19,10,10,0,0,1,2.11.2,4.24,4.24,0,0,1,1.57.69,3,3,0,0,1,1,1.22,4.7,4.7,0,0,1,.34,1.87Zm-1.93-2.83v-3.21l-2.09.16a11,11,0,0,0-1.9.3,3,3,0,0,0-1.35.73,2.12,2.12,0,0,0,.08,2.87,2.83,2.83,0,0,0,1.83.5,4.22,4.22,0,0,0,1.86-.4A8.31,8.31,0,0,0,275.75,362.3Z"/><path class="cls-3" d="M291,365.13H289.1v-6.55a11.58,11.58,0,0,0-.09-1.49,2.92,2.92,0,0,0-.34-1.09,1.57,1.57,0,0,0-.75-.64,3.16,3.16,0,0,0-1.25-.21,4,4,0,0,0-1.66.39,7.88,7.88,0,0,0-1.66,1v8.59h-1.94V353.62h1.94v1.28a8.22,8.22,0,0,1,1.87-1.18,5,5,0,0,1,2-.42,3.61,3.61,0,0,1,2.85,1.12,4.81,4.81,0,0,1,1,3.24Z"/><path class="cls-3" d="M303.12,365.13h-9.3V363.7l6.71-8.46H294v-1.62h9V355l-6.74,8.5h6.92Z"/><path class="cls-3" d="M314.81,365.13h-1.93v-1.22l-.7.49a4.48,4.48,0,0,1-.85.5,5.15,5.15,0,0,1-1.11.39,5.85,5.85,0,0,1-1.47.16,3.67,3.67,0,0,1-2.64-1,3.46,3.46,0,0,1-1.08-2.63,3.58,3.58,0,0,1,.56-2.11,3.75,3.75,0,0,1,1.6-1.28,8.3,8.3,0,0,1,2.53-.62c1-.12,2-.2,3.16-.25v-.3a2.39,2.39,0,0,0-.23-1.1,1.82,1.82,0,0,0-.67-.68,3,3,0,0,0-1-.32,9.18,9.18,0,0,0-1.2-.08,8.4,8.4,0,0,0-1.7.2,13.29,13.29,0,0,0-1.94.59h-.1v-2a15.16,15.16,0,0,1,1.63-.34,11.85,11.85,0,0,1,2.12-.19,10.11,10.11,0,0,1,2.12.2,4.27,4.27,0,0,1,1.56.69,3,3,0,0,1,1,1.22,4.53,4.53,0,0,1,.34,1.87Zm-1.93-2.83v-3.21l-2.09.16a11,11,0,0,0-1.9.3,3,3,0,0,0-1.35.73,2.15,2.15,0,0,0,.08,2.87,2.83,2.83,0,0,0,1.83.5,4.22,4.22,0,0,0,1.86-.4A8,8,0,0,0,312.88,362.3Z"/><path class="cls-3" d="M328.17,365.13h-1.94v-6.55a11.58,11.58,0,0,0-.09-1.49,2.75,2.75,0,0,0-.34-1.09,1.55,1.55,0,0,0-.74-.64,3.25,3.25,0,0,0-1.26-.21,4,4,0,0,0-1.66.39,8.14,8.14,0,0,0-1.66,1v8.59h-1.94V353.62h1.94v1.28a8.22,8.22,0,0,1,1.87-1.18,5,5,0,0,1,2-.42,3.6,3.6,0,0,1,2.85,1.12,4.81,4.81,0,0,1,1,3.24Z"/><path class="cls-3" d="M334,351.69H331.8v-2H334Zm-.12,13.44h-1.94V353.62h1.94Z"/><path class="cls-3" d="M339.65,365.13h-1.93v-16h1.93Z"/><path class="cls-3" d="M345.45,365.13h-1.94v-16h1.94Z"/><path class="cls-3" d="M359.1,359.38a6.45,6.45,0,0,1-1.45,4.45,5.43,5.43,0,0,1-7.74,0,7.6,7.6,0,0,1,0-8.9,5.41,5.41,0,0,1,7.74,0A6.46,6.46,0,0,1,359.1,359.38Zm-2,0a5.19,5.19,0,0,0-.88-3.32,3.28,3.28,0,0,0-4.88,0,6.71,6.71,0,0,0,0,6.61,3.25,3.25,0,0,0,4.88,0A5.28,5.28,0,0,0,357.1,359.38Z"/><path class="cls-3" d="M365.06,365.13h-2.47V362.2h2.47Z"/><path class="cls-4" d="M181.37,426.34a10.65,10.65,0,0,1-2.43-.27,10.24,10.24,0,0,1-2.26-.82l.42-2h.13a5.6,5.6,0,0,0,2.07,1.22,7,7,0,0,0,2.36.43,4.77,4.77,0,0,0,2.87-.74,2.27,2.27,0,0,0,1-1.9,1.51,1.51,0,0,0-.35-1,2.14,2.14,0,0,0-1.05-.6q-.57-.15-1.35-.3c-.53-.1-1-.2-1.5-.31a4.36,4.36,0,0,1-2.14-1.06,2.49,2.49,0,0,1-.75-1.85A3.8,3.8,0,0,1,180,414a6.52,6.52,0,0,1,4.1-1.24,10,10,0,0,1,2.49.28,11,11,0,0,1,1.93.68l-.39,1.87H188a5.33,5.33,0,0,0-1.79-1,7.28,7.28,0,0,0-2.42-.41,4.22,4.22,0,0,0-2.56.71,2.13,2.13,0,0,0-1,1.78,1.59,1.59,0,0,0,.34,1,2.23,2.23,0,0,0,1.22.66l1.5.32c.62.13,1.14.24,1.56.35a4,4,0,0,1,1.89,1,2.35,2.35,0,0,1,.65,1.71,3.82,3.82,0,0,1-.42,1.71,4.16,4.16,0,0,1-1.18,1.46,5.93,5.93,0,0,1-1.89,1A7.9,7.9,0,0,1,181.37,426.34Z"/><path class="cls-4" d="M193.67,426.33a4.87,4.87,0,0,1-3.2-1,3.42,3.42,0,0,1-1.16-2.8,6.79,6.79,0,0,1,1.7-4.63,5.44,5.44,0,0,1,4.22-1.93,3.61,3.61,0,0,1,2.55.83,3,3,0,0,1,.89,2.34,6.93,6.93,0,0,1-.07.83,13,13,0,0,1-.25,1.33h-7.23a4.61,4.61,0,0,0-.07.5,3.93,3.93,0,0,0,0,.46,2.54,2.54,0,0,0,.76,1.94,3,3,0,0,0,2.15.71,5.6,5.6,0,0,0,2-.38,7.57,7.57,0,0,0,1.71-.85h.1l-.36,1.79-.79.29c-.23.08-.53.17-.9.26s-.68.15-1,.2A6.19,6.19,0,0,1,193.67,426.33Zm3.3-6.2c0-.17.05-.32.06-.43s0-.25,0-.39a2,2,0,0,0-.52-1.47,2.22,2.22,0,0,0-1.65-.53,3.41,3.41,0,0,0-2.21.78,3.75,3.75,0,0,0-1.31,2Z"/><path class="cls-4" d="M204.57,412.43l-3.16,13.67h-1.65l3.16-13.67Z"/><path class="cls-4" d="M209.33,426.33a4.87,4.87,0,0,1-3.2-1,3.42,3.42,0,0,1-1.16-2.8,6.75,6.75,0,0,1,1.71-4.63,5.41,5.41,0,0,1,4.21-1.93,3.65,3.65,0,0,1,2.56.83,3.07,3.07,0,0,1,.88,2.34,6.93,6.93,0,0,1-.07.83c0,.38-.13.83-.24,1.33h-7.24a4.61,4.61,0,0,0-.07.5,3.78,3.78,0,0,0,0,.46,2.54,2.54,0,0,0,.75,1.94,3,3,0,0,0,2.15.71,5.6,5.6,0,0,0,2-.38,7.88,7.88,0,0,0,1.72-.85h.09l-.36,1.79-.79.29c-.23.08-.53.17-.89.26s-.69.15-1,.2A6.19,6.19,0,0,1,209.33,426.33Zm3.3-6.2c0-.17.05-.32.06-.43s0-.25,0-.39a2,2,0,0,0-.52-1.47,2.21,2.21,0,0,0-1.64-.53,3.44,3.44,0,0,0-2.22.78,3.8,3.8,0,0,0-1.31,2Z"/><path class="cls-4" d="M219.66,426.32a5.54,5.54,0,0,1-1.65-.22,3.19,3.19,0,0,1-1.25-.69,3,3,0,0,1-.8-1.15,4.26,4.26,0,0,1-.28-1.62,7.41,7.41,0,0,1,.43-2.57,6.59,6.59,0,0,1,1.22-2.11,5.53,5.53,0,0,1,1.89-1.39,5.82,5.82,0,0,1,2.43-.51,5.71,5.71,0,0,1,1.62.23,7.2,7.2,0,0,1,1.34.57l-.36,1.78h-.1l-.44-.36a3.91,3.91,0,0,0-.62-.4,5.33,5.33,0,0,0-.8-.32,3.86,3.86,0,0,0-1-.12,3.34,3.34,0,0,0-2.79,1.44,5.68,5.68,0,0,0-1.07,3.49,2.68,2.68,0,0,0,.63,1.91,2.42,2.42,0,0,0,1.82.66,4.24,4.24,0,0,0,1.11-.15,7.08,7.08,0,0,0,.94-.34c.28-.14.55-.28.8-.43l.53-.34h.1l-.35,1.8a11.49,11.49,0,0,1-1.62.59A6,6,0,0,1,219.66,426.32Z"/><path class="cls-4" d="M229,426.32a5.54,5.54,0,0,1-1.65-.22,3.12,3.12,0,0,1-1.25-.69,2.88,2.88,0,0,1-.8-1.15,4.26,4.26,0,0,1-.28-1.62,7.41,7.41,0,0,1,.43-2.57,6.41,6.41,0,0,1,1.22-2.11,5.53,5.53,0,0,1,1.89-1.39,5.8,5.8,0,0,1,2.42-.51,5.61,5.61,0,0,1,1.62.23,7,7,0,0,1,1.35.57l-.36,1.78h-.1l-.44-.36a4.43,4.43,0,0,0-.62-.4,5.33,5.33,0,0,0-.8-.32,3.89,3.89,0,0,0-1-.12,3.33,3.33,0,0,0-2.78,1.44,5.62,5.62,0,0,0-1.07,3.49,2.68,2.68,0,0,0,.63,1.91,2.42,2.42,0,0,0,1.82.66,4.11,4.11,0,0,0,1.1-.15,7.27,7.27,0,0,0,.95-.34c.28-.14.55-.28.79-.43l.54-.34h.1l-.35,1.8a11.49,11.49,0,0,1-1.62.59A6,6,0,0,1,229,426.32Z"/><path class="cls-4" d="M238.1,416.29l-2.27,9.81h-1.65l2.27-9.81Zm.9-3.36-.4,1.71h-1.87l.4-1.71Z"/><path class="cls-4" d="M248.75,419.76a7.93,7.93,0,0,1-.4,2.53,6.42,6.42,0,0,1-1.15,2.11,5.51,5.51,0,0,1-1.76,1.45,5,5,0,0,1-2.34.53,3.66,3.66,0,0,1-2.73-1,3.8,3.8,0,0,1-1-2.76,7.76,7.76,0,0,1,.4-2.51A6.66,6.66,0,0,1,241,418a5.35,5.35,0,0,1,1.79-1.43,5,5,0,0,1,2.31-.54,3.75,3.75,0,0,1,2.7,1A3.67,3.67,0,0,1,248.75,419.76Zm-2.69,3.71a5.4,5.4,0,0,0,.73-1.63,7.66,7.66,0,0,0,.25-1.95,2.64,2.64,0,0,0-.59-1.86,2.17,2.17,0,0,0-1.66-.64,2.92,2.92,0,0,0-1.53.41,3.88,3.88,0,0,0-1.17,1.12,5.4,5.4,0,0,0-.73,1.63,7.25,7.25,0,0,0-.26,1.93,2.72,2.72,0,0,0,.59,1.87,2.16,2.16,0,0,0,1.67.65,2.92,2.92,0,0,0,1.53-.41A3.56,3.56,0,0,0,246.06,423.47Z"/><path class="cls-4" d="M259.86,418.53a4.67,4.67,0,0,1,0,.57,3.41,3.41,0,0,1-.11.63l-1.47,6.37h-1.65l1.29-5.59c.07-.31.12-.58.16-.81a4,4,0,0,0,.06-.69,1.5,1.5,0,0,0-.37-1.11,1.8,1.8,0,0,0-1.31-.37,3.67,3.67,0,0,0-1.48.36,11.68,11.68,0,0,0-1.57.89l-1.69,7.32H250l2.26-9.81h1.65l-.25,1.08a11.41,11.41,0,0,1,1.76-1,4.38,4.38,0,0,1,1.7-.35,2.86,2.86,0,0,1,2,.65A2.38,2.38,0,0,1,259.86,418.53Z"/><path class="cls-4" d="M266.06,426.33a4.84,4.84,0,0,1-3.19-1,3.39,3.39,0,0,1-1.16-2.8,6.74,6.74,0,0,1,1.7-4.63,5.42,5.42,0,0,1,4.21-1.93,3.62,3.62,0,0,1,2.56.83,3.07,3.07,0,0,1,.89,2.34,7.54,7.54,0,0,1-.08.83c-.05.38-.13.83-.24,1.33h-7.23a4.71,4.71,0,0,0-.08.5c0,.17,0,.32,0,.46a2.51,2.51,0,0,0,.76,1.94,3,3,0,0,0,2.14.71,5.52,5.52,0,0,0,2-.38,7.66,7.66,0,0,0,1.72-.85h.1l-.36,1.79c-.3.1-.56.2-.79.29s-.54.17-.9.26-.68.15-1,.2A6.19,6.19,0,0,1,266.06,426.33Zm3.3-6.2c0-.17.05-.32.06-.43s0-.25,0-.39a2,2,0,0,0-.51-1.47,2.25,2.25,0,0,0-1.65-.53,3.46,3.46,0,0,0-2.22.78,3.8,3.8,0,0,0-1.31,2Z"/><path class="cls-4" d="M288.86,416.29l-2.26,9.81H285l.25-1.08a11.6,11.6,0,0,1-1.75,1,4.18,4.18,0,0,1-1.72.36,2.86,2.86,0,0,1-2-.64,2.35,2.35,0,0,1-.71-1.86,3.69,3.69,0,0,1,0-.58c0-.19.06-.4.11-.64l1.46-6.37h1.65L281,421.88a6.38,6.38,0,0,0-.15.78,4.19,4.19,0,0,0-.07.69,1.53,1.53,0,0,0,.38,1.14,1.82,1.82,0,0,0,1.3.37,3.73,3.73,0,0,0,1.49-.37,10.41,10.41,0,0,0,1.54-.87l1.69-7.33Z"/><path class="cls-4" d="M299.69,418.53a4.67,4.67,0,0,1,0,.57,3.41,3.41,0,0,1-.11.63l-1.47,6.37h-1.64l1.28-5.59c.07-.31.12-.58.16-.81a4,4,0,0,0,.06-.69,1.5,1.5,0,0,0-.37-1.11,1.8,1.8,0,0,0-1.31-.37,3.67,3.67,0,0,0-1.48.36,12.33,12.33,0,0,0-1.57.89l-1.69,7.32h-1.65l2.27-9.81h1.65l-.26,1.08a11,11,0,0,1,1.77-1A4.3,4.3,0,0,1,297,416a2.9,2.9,0,0,1,2,.65A2.4,2.4,0,0,1,299.69,418.53Z"/><path class="cls-4" d="M307.48,425.06l-.65.4a6,6,0,0,1-.83.44,5.37,5.37,0,0,1-2.27.48,2.68,2.68,0,0,1-1.9-.68,2.32,2.32,0,0,1-.73-1.78,3.64,3.64,0,0,1,.51-2,3.83,3.83,0,0,1,1.53-1.31,8,8,0,0,1,2.39-.73,24.25,24.25,0,0,1,3.2-.27c0-.17.06-.31.09-.43a2.21,2.21,0,0,0,0-.37,1.31,1.31,0,0,0-.17-.69,1.1,1.1,0,0,0-.48-.42,2.11,2.11,0,0,0-.71-.22,8.42,8.42,0,0,0-.9-.05,7.14,7.14,0,0,0-1.71.24,12.46,12.46,0,0,0-1.56.48h-.09l.33-1.65q.49-.13,1.47-.3a11,11,0,0,1,1.85-.17,5.26,5.26,0,0,1,2.74.57,2,2,0,0,1,.92,1.81,4.75,4.75,0,0,1,0,.51l-.09.5-1.54,6.66h-1.64Zm1-4.13a22.75,22.75,0,0,0-2.41.2,7.19,7.19,0,0,0-1.73.45,2.37,2.37,0,0,0-1.08.78,2,2,0,0,0-.37,1.24,1.16,1.16,0,0,0,.43,1,2.17,2.17,0,0,0,1.33.33,4,4,0,0,0,1.63-.36,8.28,8.28,0,0,0,1.55-.85Z"/><path class="cls-4" d="M328,419.76a7.94,7.94,0,0,1-.41,2.53,6.59,6.59,0,0,1-1.14,2.11,5.55,5.55,0,0,1-1.77,1.45,4.92,4.92,0,0,1-2.33.53,3.66,3.66,0,0,1-2.73-1,3.76,3.76,0,0,1-1-2.76,7.76,7.76,0,0,1,.4-2.51,6.64,6.64,0,0,1,1.15-2.13,5.45,5.45,0,0,1,1.79-1.43,5,5,0,0,1,2.32-.54,3.75,3.75,0,0,1,2.7,1A3.71,3.71,0,0,1,328,419.76Zm-2.69,3.71a5.38,5.38,0,0,0,.72-1.63,7.24,7.24,0,0,0,.25-1.95,2.6,2.6,0,0,0-.59-1.86,2.15,2.15,0,0,0-1.66-.64,3,3,0,0,0-1.53.41,3.74,3.74,0,0,0-1.16,1.12,5.4,5.4,0,0,0-.73,1.63,7.25,7.25,0,0,0-.26,1.93,2.72,2.72,0,0,0,.59,1.87,2.15,2.15,0,0,0,1.67.65,3,3,0,0,0,1.53-.41A3.56,3.56,0,0,0,325.35,423.47Z"/><path class="cls-4" d="M339.29,419.39a8.2,8.2,0,0,1-.45,2.74,7.33,7.33,0,0,1-1.2,2.18,5.82,5.82,0,0,1-1.76,1.46,4.55,4.55,0,0,1-2.14.53,5.54,5.54,0,0,1-1.45-.18,4.7,4.7,0,0,1-1.21-.52l-.95,4.12h-1.65l3.1-13.43h1.65l-.24,1a10.37,10.37,0,0,1,1.61-.93,4.19,4.19,0,0,1,1.75-.37,2.73,2.73,0,0,1,2.19.89A3.74,3.74,0,0,1,339.29,419.39Zm-1.73.31a2.55,2.55,0,0,0-.46-1.61,1.75,1.75,0,0,0-1.46-.56,3.62,3.62,0,0,0-1.51.36,10.77,10.77,0,0,0-1.46.81l-1.28,5.57a5.73,5.73,0,0,0,1.09.45,4.5,4.5,0,0,0,1.25.15,3,3,0,0,0,1.63-.44,3.64,3.64,0,0,0,1.2-1.14,5.21,5.21,0,0,0,.75-1.64A7.6,7.6,0,0,0,337.56,419.7Z"/><path class="cls-4" d="M344.78,426.32a5.54,5.54,0,0,1-1.65-.22,3.19,3.19,0,0,1-1.25-.69,3,3,0,0,1-.8-1.15,4.26,4.26,0,0,1-.28-1.62,7.41,7.41,0,0,1,.43-2.57,6.59,6.59,0,0,1,1.22-2.11,5.53,5.53,0,0,1,1.89-1.39,5.82,5.82,0,0,1,2.43-.51,5.71,5.71,0,0,1,1.62.23,7.2,7.2,0,0,1,1.34.57l-.36,1.78h-.1l-.44-.36a3.91,3.91,0,0,0-.62-.4,5.33,5.33,0,0,0-.8-.32,3.81,3.81,0,0,0-1-.12,3.34,3.34,0,0,0-2.79,1.44,5.68,5.68,0,0,0-1.07,3.49,2.68,2.68,0,0,0,.63,1.91,2.43,2.43,0,0,0,1.82.66,4.24,4.24,0,0,0,1.11-.15,7.08,7.08,0,0,0,.94-.34c.29-.14.55-.28.8-.43l.53-.34h.1l-.35,1.8a11.49,11.49,0,0,1-1.62.59A6,6,0,0,1,344.78,426.32Z"/><path class="cls-4" d="M353.84,416.29l-2.27,9.81h-1.65l2.27-9.81Zm.9-3.36-.4,1.71h-1.87l.4-1.71Z"/><path class="cls-4" d="M364.49,419.76a7.93,7.93,0,0,1-.4,2.53A6.59,6.59,0,0,1,363,424.4a5.55,5.55,0,0,1-1.77,1.45,5,5,0,0,1-2.34.53,3.69,3.69,0,0,1-2.73-1,3.8,3.8,0,0,1-1-2.76,8,8,0,0,1,.4-2.51,6.86,6.86,0,0,1,1.16-2.13,5.45,5.45,0,0,1,1.79-1.43,5,5,0,0,1,2.31-.54,3.74,3.74,0,0,1,2.7,1A3.67,3.67,0,0,1,364.49,419.76Zm-2.68,3.71a5.64,5.64,0,0,0,.72-1.63,7.24,7.24,0,0,0,.25-1.95,2.64,2.64,0,0,0-.59-1.86,2.15,2.15,0,0,0-1.66-.64,2.92,2.92,0,0,0-1.53.41,3.88,3.88,0,0,0-1.17,1.12,5.65,5.65,0,0,0-.73,1.63,7.25,7.25,0,0,0-.25,1.93,2.67,2.67,0,0,0,.59,1.87,2.15,2.15,0,0,0,1.67.65,3,3,0,0,0,1.53-.41A3.77,3.77,0,0,0,361.81,423.47Zm2.61-12.1-3.12,3.29h-1.37l2.24-3.29Z"/><path class="cls-4" d="M375.6,418.53a6.92,6.92,0,0,1-.14,1.2L374,426.1h-1.64l1.28-5.59c.07-.31.13-.58.16-.81a4,4,0,0,0,.06-.69,1.5,1.5,0,0,0-.37-1.11,1.8,1.8,0,0,0-1.31-.37,3.67,3.67,0,0,0-1.48.36,12.33,12.33,0,0,0-1.57.89l-1.69,7.32h-1.65l2.27-9.81h1.65l-.25,1.08a10.55,10.55,0,0,1,1.76-1,4.3,4.3,0,0,1,1.69-.35,2.9,2.9,0,0,1,2,.65A2.4,2.4,0,0,1,375.6,418.53Z"/><path class="cls-5" d="M522.9,236.11H38V27.34H522.9ZM45.48,229.22h470v-195h-470Z"/><circle class="cls-5" cx="56.02" cy="44.77" r="37.4"/><path class="cls-3" d="M184.75,123a12.27,12.27,0,0,1-4-.65,8.69,8.69,0,0,1-3.18-1.92,8.58,8.58,0,0,1-2.06-3.19,13.35,13.35,0,0,1,0-8.65,9.23,9.23,0,0,1,2-3.26,8.61,8.61,0,0,1,3.17-2,11.54,11.54,0,0,1,4.14-.72,16.64,16.64,0,0,1,2.23.14,15,15,0,0,1,1.84.36,14.8,14.8,0,0,1,1.6.56c.48.21.9.4,1.26.58V109h-.58c-.24-.21-.56-.46-.93-.75a12.17,12.17,0,0,0-1.27-.85,8.63,8.63,0,0,0-1.57-.71,5.57,5.57,0,0,0-1.8-.29,6,6,0,0,0-2,.34,4.91,4.91,0,0,0-1.78,1.11,5.56,5.56,0,0,0-1.25,2,8.13,8.13,0,0,0-.49,3,7.88,7.88,0,0,0,.53,3.08,5.18,5.18,0,0,0,1.31,1.95,4.68,4.68,0,0,0,1.79,1,6.31,6.31,0,0,0,3.78,0,7.37,7.37,0,0,0,1.66-.75,11,11,0,0,0,1.2-.82c.37-.28.68-.53.91-.74h.53v4.69l-1.41.62a12.34,12.34,0,0,1-1.41.5,14.1,14.1,0,0,1-1.81.42A13.89,13.89,0,0,1,184.75,123Z"/><path class="cls-3" d="M208.16,106.74h-9v3.65h8.37v3.8h-8.37v8.39h-5V103h14.06Z"/><path class="cls-3" d="M229.24,122.58h-6.18l-5.34-7.2h-2.35v7.2h-5V103h8.49a20,20,0,0,1,3,.19,6.61,6.61,0,0,1,2.34.86,5.06,5.06,0,0,1,1.76,1.71,4.84,4.84,0,0,1,.66,2.63,5.82,5.82,0,0,1-1,3.54,7.61,7.61,0,0,1-2.88,2.28ZM221.34,109a2.54,2.54,0,0,0-.3-1.27,2,2,0,0,0-1-.83,3.92,3.92,0,0,0-1.2-.26c-.46,0-1,0-1.6,0h-1.83v5.28h1.56a16.39,16.39,0,0,0,2-.11,3,3,0,0,0,1.37-.54,2.7,2.7,0,0,0,.77-.91A3.05,3.05,0,0,0,221.34,109Z"/><path class="cls-3" d="M258.62,122.58h-5V109.43L249.94,118h-3.49l-3.64-8.53v13.15H238V103h5.88l4.41,9.84,4.41-9.84h5.88Z"/><path class="cls-3" d="M271,121l-.94.7a7.52,7.52,0,0,1-1.07.64,6.82,6.82,0,0,1-1.45.47,8.43,8.43,0,0,1-1.65.15,5,5,0,0,1-3.53-1.3,4.34,4.34,0,0,1-1.43-3.34,4.46,4.46,0,0,1,.73-2.65,4.87,4.87,0,0,1,2-1.62,11.27,11.27,0,0,1,3.27-.84c1.3-.17,2.65-.29,4-.37v-.08a1.71,1.71,0,0,0-1-1.7,7.31,7.31,0,0,0-3-.46,8.31,8.31,0,0,0-2.5.41c-.89.28-1.52.49-1.91.64h-.44v-3.57c.51-.14,1.32-.29,2.45-.47a21.52,21.52,0,0,1,3.39-.27q4.05,0,5.85,1.24a4.44,4.44,0,0,1,1.8,3.91v10.08H271Zm0-2.31v-3.07c-.64.05-1.33.12-2.08.22a9.23,9.23,0,0,0-1.7.32,2.34,2.34,0,0,0-1.09.65,1.63,1.63,0,0,0-.37,1.12,2.6,2.6,0,0,0,.08.75,1.09,1.09,0,0,0,.39.55,1.84,1.84,0,0,0,.73.39,5.21,5.21,0,0,0,1.31.12,4,4,0,0,0,1.45-.28A4.41,4.41,0,0,0,271,118.7Z"/><path class="cls-3" d="M293.62,122.58h-4.76v-7.35a17.68,17.68,0,0,0-.09-1.78,3.77,3.77,0,0,0-.32-1.32,1.57,1.57,0,0,0-.77-.71,3.59,3.59,0,0,0-1.41-.22,4.43,4.43,0,0,0-1.32.21,7,7,0,0,0-1.44.67v10.5h-4.76V107.77h4.76v1.64a11.86,11.86,0,0,1,2.43-1.52,6.25,6.25,0,0,1,2.59-.53,5,5,0,0,1,3.74,1.4,5.79,5.79,0,0,1,1.35,4.18Z"/><path class="cls-3" d="M309.44,122.58H295.53v-3l7.79-8.29h-7.47v-3.47h13.44v3L301.62,119h7.82Z"/><path class="cls-3" d="M320.42,121l-.95.7a7.52,7.52,0,0,1-1.07.64,6.82,6.82,0,0,1-1.45.47,8.43,8.43,0,0,1-1.65.15,5,5,0,0,1-3.53-1.3,4.34,4.34,0,0,1-1.43-3.34,4.46,4.46,0,0,1,.73-2.65,4.84,4.84,0,0,1,2.06-1.62,11.12,11.12,0,0,1,3.26-.84c1.31-.17,2.65-.29,4.05-.37v-.08a1.71,1.71,0,0,0-1-1.7,7.29,7.29,0,0,0-2.95-.46A8.32,8.32,0,0,0,314,111c-.89.28-1.52.49-1.91.64h-.43v-3.57c.5-.14,1.31-.29,2.44-.47a21.55,21.55,0,0,1,3.4-.27q4,0,5.84,1.24a4.44,4.44,0,0,1,1.8,3.91v10.08h-4.7Zm0-2.31v-3.07c-.65.05-1.34.12-2.09.22a9.4,9.4,0,0,0-1.7.32,2.34,2.34,0,0,0-1.09.65,1.63,1.63,0,0,0-.37,1.12,2.6,2.6,0,0,0,.08.75,1.09,1.09,0,0,0,.39.55,1.91,1.91,0,0,0,.73.39,5.24,5.24,0,0,0,1.32.12,4,4,0,0,0,1.44-.28A4.6,4.6,0,0,0,320.42,118.7Z"/><path class="cls-3" d="M343,122.58h-4.76v-7.35a17.68,17.68,0,0,0-.09-1.78,3.8,3.8,0,0,0-.31-1.32,1.63,1.63,0,0,0-.78-.71,3.55,3.55,0,0,0-1.41-.22,4.32,4.32,0,0,0-1.31.21,6.8,6.8,0,0,0-1.45.67v10.5h-4.76V107.77h4.76v1.64a11.86,11.86,0,0,1,2.43-1.52,6.25,6.25,0,0,1,2.59-.53,5,5,0,0,1,3.74,1.4,5.79,5.79,0,0,1,1.35,4.18Z"/><path class="cls-3" d="M351,105.66h-5v-3.6h5Zm-.14,16.92h-4.76V107.77h4.76Z"/><path class="cls-3" d="M358.74,122.58H354V102.06h4.76Z"/><path class="cls-3" d="M366.64,122.58h-4.75V102.06h4.75Z"/><path class="cls-3" d="M384.93,115.18a7.71,7.71,0,0,1-2.13,5.75,9.53,9.53,0,0,1-12,0,8.84,8.84,0,0,1,0-11.52,9.55,9.55,0,0,1,12,0A7.77,7.77,0,0,1,384.93,115.18Zm-5.84,3.6a4,4,0,0,0,.69-1.37,8.39,8.39,0,0,0,.23-2.2,8.5,8.5,0,0,0-.24-2.19,3.85,3.85,0,0,0-.66-1.41,2.34,2.34,0,0,0-1-.77,3.63,3.63,0,0,0-1.28-.22,3.78,3.78,0,0,0-1.22.18,2.46,2.46,0,0,0-1,.74,3.71,3.71,0,0,0-.69,1.41,8,8,0,0,0-.26,2.26,8.62,8.62,0,0,0,.22,2.1,3.72,3.72,0,0,0,.66,1.43,2.55,2.55,0,0,0,1,.75,3.52,3.52,0,0,0,1.34.24,3.39,3.39,0,0,0,1.23-.22A2.3,2.3,0,0,0,379.09,118.78Z"/><path class="cls-3" d="M54.1,56.33H39.54V52.52h4.6V41h-4.6V37.44a16.33,16.33,0,0,0,2-.13,5.36,5.36,0,0,0,1.61-.43,2.72,2.72,0,0,0,1.14-1,2.9,2.9,0,0,0,.44-1.47H49.6V52.52h4.5Z"/><path class="cls-3" d="M75.19,45.41a22.27,22.27,0,0,1-.5,4.93,9.31,9.31,0,0,1-1.55,3.57,6.76,6.76,0,0,1-2.79,2.15,10.75,10.75,0,0,1-4.19.72A10.62,10.62,0,0,1,62,56.05a6.64,6.64,0,0,1-2.8-2.17,9.29,9.29,0,0,1-1.57-3.57,22.34,22.34,0,0,1-.48-4.88,21.61,21.61,0,0,1,.5-4.94,9.56,9.56,0,0,1,1.58-3.55A6.64,6.64,0,0,1,62,34.78a10.75,10.75,0,0,1,4.13-.71,10.44,10.44,0,0,1,4.21.74A6.68,6.68,0,0,1,73.15,37a9.41,9.41,0,0,1,1.55,3.54A21.34,21.34,0,0,1,75.19,45.41Zm-5.67,0a14.55,14.55,0,0,0-.78-5.64,2.81,2.81,0,0,0-5.15,0,14.66,14.66,0,0,0-.78,5.67A14.33,14.33,0,0,0,63.6,51a2.77,2.77,0,0,0,5.13,0A14.43,14.43,0,0,0,69.52,45.41Z"/></g></g></svg>