<svg xmlns="http://www.w3.org/2000/svg" viewBox="0 0 562.62 470.8"><defs><style>.cls-1,.cls-5{fill:#fff;}.cls-1{opacity:0;}.cls-2{fill:#035aa6;}.cls-3{fill:#ffd053;}.cls-4{fill:#84bf2c;}</style></defs><title>slide10_pregunta5_1</title><g id="Capa_2" data-name="Capa 2"><g id="Layer_7" data-name="Layer 7"><rect class="cls-1" width="562.62" height="470.8"/><rect class="cls-2" x="66.24" y="248.46" width="424.94" height="71.91" rx="12.02"/><rect class="cls-2" x="66.8" y="330.73" width="424.94" height="71.91" rx="12.02"/><path class="cls-3" d="M181.37,426.34a10.65,10.65,0,0,1-2.43-.27,10.24,10.24,0,0,1-2.26-.82l.42-2h.13a5.6,5.6,0,0,0,2.07,1.22,7,7,0,0,0,2.36.43,4.82,4.82,0,0,0,2.88-.74,2.29,2.29,0,0,0,1-1.9,1.51,1.51,0,0,0-.35-1,2.16,2.16,0,0,0-1-.6c-.39-.1-.84-.2-1.36-.3s-1-.2-1.5-.31a4.36,4.36,0,0,1-2.14-1.06,2.5,2.5,0,0,1-.75-1.85A3.8,3.8,0,0,1,180,414a6.46,6.46,0,0,1,4.1-1.24,10,10,0,0,1,2.49.28,10.74,10.74,0,0,1,1.93.68l-.39,1.87H188a5.21,5.21,0,0,0-1.77-1,7.34,7.34,0,0,0-2.43-.41,4.29,4.29,0,0,0-2.56.7,2.16,2.16,0,0,0-1,1.79,1.59,1.59,0,0,0,.34,1,2.23,2.23,0,0,0,1.22.66l1.5.32c.62.12,1.14.24,1.56.35a4.09,4.09,0,0,1,1.9,1,2.37,2.37,0,0,1,.64,1.71,3.85,3.85,0,0,1-.42,1.71,4.16,4.16,0,0,1-1.18,1.46,5.93,5.93,0,0,1-1.89,1A7.9,7.9,0,0,1,181.37,426.34Z"/><path class="cls-3" d="M193.67,426.33a4.87,4.87,0,0,1-3.2-1,3.43,3.43,0,0,1-1.16-2.8,6.79,6.79,0,0,1,1.7-4.63,5.43,5.43,0,0,1,4.22-1.93,3.65,3.65,0,0,1,2.56.83,3.07,3.07,0,0,1,.88,2.34,6.93,6.93,0,0,1-.07.83c0,.38-.13.83-.24,1.33h-7.24a4.61,4.61,0,0,0-.07.5,3.7,3.7,0,0,0,0,.46,2.54,2.54,0,0,0,.75,1.94,3,3,0,0,0,2.15.71,5.6,5.6,0,0,0,2-.38,7.88,7.88,0,0,0,1.72-.85h.09l-.36,1.79-.79.29c-.23.08-.53.17-.89.26s-.69.15-1,.2A6.19,6.19,0,0,1,193.67,426.33Zm3.3-6.2c0-.17.05-.32.06-.43s0-.25,0-.39a2,2,0,0,0-.52-1.47,2.22,2.22,0,0,0-1.65-.53,3.41,3.41,0,0,0-2.21.78,3.75,3.75,0,0,0-1.31,2Z"/><path class="cls-3" d="M204.57,412.43l-3.16,13.67h-1.65l3.16-13.67Z"/><path class="cls-3" d="M209.33,426.33a4.87,4.87,0,0,1-3.2-1,3.43,3.43,0,0,1-1.16-2.8,6.75,6.75,0,0,1,1.71-4.63,5.41,5.41,0,0,1,4.21-1.93,3.63,3.63,0,0,1,2.56.83,3.07,3.07,0,0,1,.88,2.34,6.93,6.93,0,0,1-.07.83c0,.38-.13.83-.24,1.33h-7.24a4.61,4.61,0,0,0-.07.5,3.7,3.7,0,0,0,0,.46,2.54,2.54,0,0,0,.75,1.94,3,3,0,0,0,2.15.71,5.6,5.6,0,0,0,2-.38,7.88,7.88,0,0,0,1.72-.85h.09l-.36,1.79-.79.29c-.23.08-.53.17-.89.26s-.69.15-1,.2A6.19,6.19,0,0,1,209.33,426.33Zm3.3-6.2c0-.17.05-.32.06-.43s0-.25,0-.39a2,2,0,0,0-.52-1.47,2.21,2.21,0,0,0-1.64-.53,3.42,3.42,0,0,0-2.22.78,3.8,3.8,0,0,0-1.31,2Z"/><path class="cls-3" d="M219.66,426.32a5.54,5.54,0,0,1-1.65-.22,3.19,3.19,0,0,1-1.25-.69,3.05,3.05,0,0,1-.8-1.15,4.26,4.26,0,0,1-.28-1.62,7.41,7.41,0,0,1,.43-2.57,6.59,6.59,0,0,1,1.22-2.11,5.53,5.53,0,0,1,1.89-1.39,5.82,5.82,0,0,1,2.43-.51,5.71,5.71,0,0,1,1.62.23,7.2,7.2,0,0,1,1.34.57l-.36,1.78h-.1c-.12-.1-.26-.23-.44-.37a3.91,3.91,0,0,0-.62-.39,4.45,4.45,0,0,0-.8-.32,3.86,3.86,0,0,0-1-.12,3.34,3.34,0,0,0-2.79,1.44,5.68,5.68,0,0,0-1.07,3.49,2.68,2.68,0,0,0,.63,1.91,2.42,2.42,0,0,0,1.82.66,4.24,4.24,0,0,0,1.11-.15,7.08,7.08,0,0,0,.94-.34c.29-.14.55-.28.8-.43l.53-.34h.1l-.35,1.8a11.49,11.49,0,0,1-1.62.59A6,6,0,0,1,219.66,426.32Z"/><path class="cls-3" d="M229,426.32a5.54,5.54,0,0,1-1.65-.22,3.12,3.12,0,0,1-1.25-.69,3.05,3.05,0,0,1-.8-1.15,4.26,4.26,0,0,1-.28-1.62,7.41,7.41,0,0,1,.43-2.57,6.41,6.41,0,0,1,1.22-2.11,5.53,5.53,0,0,1,1.89-1.39,5.8,5.8,0,0,1,2.42-.51,5.61,5.61,0,0,1,1.62.23,7,7,0,0,1,1.35.57l-.36,1.78h-.1c-.12-.1-.26-.23-.44-.37a4.42,4.42,0,0,0-.62-.39,4.77,4.77,0,0,0-.8-.32,3.89,3.89,0,0,0-1-.12,3.33,3.33,0,0,0-2.78,1.44,5.62,5.62,0,0,0-1.08,3.49,2.69,2.69,0,0,0,.64,1.91,2.42,2.42,0,0,0,1.82.66,4.24,4.24,0,0,0,1.11-.15,6.9,6.9,0,0,0,.93-.34c.29-.14.56-.28.81-.43l.53-.34h.1l-.35,1.8a11.49,11.49,0,0,1-1.62.59A6,6,0,0,1,229,426.32Z"/><path class="cls-3" d="M238.1,416.29l-2.27,9.81h-1.65l2.27-9.81Zm.9-3.36-.4,1.71h-1.87l.4-1.71Z"/><path class="cls-3" d="M248.75,419.76a7.93,7.93,0,0,1-.4,2.53,6.59,6.59,0,0,1-1.14,2.11,5.68,5.68,0,0,1-1.77,1.45,5,5,0,0,1-2.34.53,3.66,3.66,0,0,1-2.73-1,3.8,3.8,0,0,1-1-2.76,7.76,7.76,0,0,1,.4-2.51A6.66,6.66,0,0,1,241,418a5.35,5.35,0,0,1,1.79-1.43,5,5,0,0,1,2.31-.54,3.75,3.75,0,0,1,2.7,1A3.67,3.67,0,0,1,248.75,419.76Zm-2.69,3.71a5.4,5.4,0,0,0,.73-1.63,7.29,7.29,0,0,0,.25-1.95,2.64,2.64,0,0,0-.59-1.86,2.13,2.13,0,0,0-1.66-.64,2.92,2.92,0,0,0-1.53.41,3.88,3.88,0,0,0-1.17,1.12,5.4,5.4,0,0,0-.73,1.63,7.25,7.25,0,0,0-.25,1.93,2.72,2.72,0,0,0,.58,1.87,2.16,2.16,0,0,0,1.67.65,2.92,2.92,0,0,0,1.53-.41A3.56,3.56,0,0,0,246.06,423.47Z"/><path class="cls-3" d="M259.86,418.53a4.67,4.67,0,0,1,0,.57,3.41,3.41,0,0,1-.11.63l-1.47,6.37h-1.65l1.29-5.59c.07-.31.12-.58.16-.81a4,4,0,0,0,.06-.69,1.55,1.55,0,0,0-.37-1.11,1.8,1.8,0,0,0-1.31-.38,3.7,3.7,0,0,0-1.48.37,10.68,10.68,0,0,0-1.57.89l-1.69,7.32H250l2.26-9.81h1.65l-.25,1.08a11,11,0,0,1,1.77-1,4.3,4.3,0,0,1,1.69-.35,2.86,2.86,0,0,1,2,.65A2.38,2.38,0,0,1,259.86,418.53Z"/><path class="cls-3" d="M266.06,426.33a4.84,4.84,0,0,1-3.19-1,3.4,3.4,0,0,1-1.16-2.8,6.74,6.74,0,0,1,1.7-4.63,5.43,5.43,0,0,1,4.22-1.93,3.61,3.61,0,0,1,2.55.83,3.07,3.07,0,0,1,.89,2.34,7.54,7.54,0,0,1-.08.83c-.05.38-.13.83-.24,1.33h-7.23a4.71,4.71,0,0,0-.08.5c0,.16,0,.32,0,.46a2.51,2.51,0,0,0,.76,1.94,3,3,0,0,0,2.14.71,5.52,5.52,0,0,0,2-.38,7.66,7.66,0,0,0,1.72-.85h.1l-.36,1.79c-.3.1-.56.2-.79.29s-.54.17-.9.26-.68.15-1,.2A6.39,6.39,0,0,1,266.06,426.33Zm3.3-6.2c0-.17.05-.32.06-.43a2.42,2.42,0,0,0,0-.39,2,2,0,0,0-.51-1.47,2.24,2.24,0,0,0-1.65-.53,3.46,3.46,0,0,0-2.22.78,3.8,3.8,0,0,0-1.31,2Z"/><path class="cls-3" d="M288.86,416.29l-2.26,9.81H285l.25-1.08a12.53,12.53,0,0,1-1.75,1,4.18,4.18,0,0,1-1.72.36,2.86,2.86,0,0,1-2-.64,2.4,2.4,0,0,1-.71-1.86,3.69,3.69,0,0,1,0-.58c0-.19.06-.4.11-.64l1.46-6.37h1.65L281,421.88a6,6,0,0,0-.15.78,4.19,4.19,0,0,0-.07.69,1.53,1.53,0,0,0,.38,1.14,1.82,1.82,0,0,0,1.3.37,3.73,3.73,0,0,0,1.49-.37,9.93,9.93,0,0,0,1.54-.87l1.69-7.33Z"/><path class="cls-3" d="M299.69,418.53a6.92,6.92,0,0,1-.14,1.2l-1.48,6.37h-1.64l1.28-5.59c.07-.31.12-.58.16-.81a4,4,0,0,0,.06-.69,1.5,1.5,0,0,0-.37-1.11,1.8,1.8,0,0,0-1.31-.38,3.7,3.7,0,0,0-1.48.37,11.23,11.23,0,0,0-1.57.89l-1.69,7.32h-1.65l2.27-9.81h1.65l-.25,1.08a10.55,10.55,0,0,1,1.76-1A4.3,4.3,0,0,1,297,416a2.9,2.9,0,0,1,2,.65A2.4,2.4,0,0,1,299.69,418.53Z"/><path class="cls-3" d="M307.48,425.06l-.65.4a5.5,5.5,0,0,1-.83.44,5.09,5.09,0,0,1-1,.34,5.36,5.36,0,0,1-1.27.14,2.64,2.64,0,0,1-1.9-.69,2.29,2.29,0,0,1-.73-1.78,3.63,3.63,0,0,1,.51-2,3.9,3.9,0,0,1,1.53-1.31,8,8,0,0,1,2.39-.73,24.25,24.25,0,0,1,3.2-.27c0-.17.07-.31.09-.43a2.21,2.21,0,0,0,0-.37,1.31,1.31,0,0,0-.17-.69,1.1,1.1,0,0,0-.48-.42,2.11,2.11,0,0,0-.71-.22,8.42,8.42,0,0,0-.9-.05,7.14,7.14,0,0,0-1.71.24,12.46,12.46,0,0,0-1.56.48h-.09l.33-1.66c.33-.08.82-.18,1.47-.29a10,10,0,0,1,1.85-.17,5.26,5.26,0,0,1,2.74.57,2,2,0,0,1,.92,1.81,4.75,4.75,0,0,1,0,.51l-.09.5-1.54,6.66h-1.64Zm1-4.13a22.32,22.32,0,0,0-2.4.2,7.16,7.16,0,0,0-1.74.45,2.37,2.37,0,0,0-1.08.78,2,2,0,0,0-.37,1.24,1.16,1.16,0,0,0,.43,1,2.17,2.17,0,0,0,1.33.33,4,4,0,0,0,1.63-.36,8.28,8.28,0,0,0,1.55-.85Z"/><path class="cls-3" d="M328,419.76a7.94,7.94,0,0,1-.41,2.53,6.59,6.59,0,0,1-1.14,2.11,5.68,5.68,0,0,1-1.77,1.45,4.92,4.92,0,0,1-2.33.53,3.66,3.66,0,0,1-2.73-1,3.76,3.76,0,0,1-1-2.76,7.76,7.76,0,0,1,.4-2.51,6.64,6.64,0,0,1,1.15-2.13,5.45,5.45,0,0,1,1.79-1.43,5,5,0,0,1,2.32-.54,3.75,3.75,0,0,1,2.7,1A3.71,3.71,0,0,1,328,419.76Zm-2.69,3.71a5.38,5.38,0,0,0,.72-1.63,7.29,7.29,0,0,0,.25-1.95,2.6,2.6,0,0,0-.59-1.86,2.12,2.12,0,0,0-1.66-.64,2.91,2.91,0,0,0-1.52.41,3.67,3.67,0,0,0-1.17,1.12,5.4,5.4,0,0,0-.73,1.63,7.25,7.25,0,0,0-.26,1.93,2.72,2.72,0,0,0,.59,1.87,2.15,2.15,0,0,0,1.67.65,3,3,0,0,0,1.53-.41A3.56,3.56,0,0,0,325.35,423.47Z"/><path class="cls-3" d="M339.29,419.39a8.25,8.25,0,0,1-.45,2.74,7.33,7.33,0,0,1-1.2,2.18,5.82,5.82,0,0,1-1.76,1.46,4.55,4.55,0,0,1-2.14.53,5.54,5.54,0,0,1-1.45-.18,4.54,4.54,0,0,1-1.21-.53l-.95,4.13h-1.65l3.1-13.43h1.65l-.24,1a10.37,10.37,0,0,1,1.61-.93,4.19,4.19,0,0,1,1.75-.37,2.71,2.71,0,0,1,2.19.89A3.74,3.74,0,0,1,339.29,419.39Zm-1.73.31a2.55,2.55,0,0,0-.46-1.61,1.75,1.75,0,0,0-1.46-.57,3.64,3.64,0,0,0-1.51.37,11.41,11.41,0,0,0-1.46.81l-1.28,5.57a5.73,5.73,0,0,0,1.09.45,4.5,4.5,0,0,0,1.25.15,3,3,0,0,0,1.63-.44,3.64,3.64,0,0,0,1.2-1.14,5.21,5.21,0,0,0,.75-1.64A7.6,7.6,0,0,0,337.56,419.7Z"/><path class="cls-3" d="M344.78,426.32a5.54,5.54,0,0,1-1.65-.22,3.11,3.11,0,0,1-2.05-1.84,4.26,4.26,0,0,1-.28-1.62,7.41,7.41,0,0,1,.43-2.57,6.59,6.59,0,0,1,1.22-2.11,5.53,5.53,0,0,1,1.89-1.39,5.82,5.82,0,0,1,2.43-.51,5.71,5.71,0,0,1,1.62.23,7.2,7.2,0,0,1,1.34.57l-.36,1.78h-.1c-.12-.1-.26-.23-.44-.37a3.91,3.91,0,0,0-.62-.39,4.45,4.45,0,0,0-.8-.32,3.81,3.81,0,0,0-1-.12,3.31,3.31,0,0,0-2.78,1.44,5.62,5.62,0,0,0-1.08,3.49,2.64,2.64,0,0,0,.64,1.91,2.39,2.39,0,0,0,1.81.66,4.24,4.24,0,0,0,1.11-.15,7.08,7.08,0,0,0,.94-.34c.29-.14.55-.28.8-.43l.54-.34h.09l-.35,1.8a11.49,11.49,0,0,1-1.62.59A6,6,0,0,1,344.78,426.32Z"/><path class="cls-3" d="M353.84,416.29l-2.27,9.81h-1.65l2.27-9.81Zm.9-3.36-.4,1.71h-1.87l.4-1.71Z"/><path class="cls-3" d="M364.49,419.76a7.93,7.93,0,0,1-.4,2.53A6.59,6.59,0,0,1,363,424.4a5.68,5.68,0,0,1-1.77,1.45,5,5,0,0,1-2.34.53,3.69,3.69,0,0,1-2.73-1,3.79,3.79,0,0,1-1-2.76,8,8,0,0,1,.39-2.51,6.86,6.86,0,0,1,1.16-2.13,5.45,5.45,0,0,1,1.79-1.43,5,5,0,0,1,2.32-.54,3.73,3.73,0,0,1,2.69,1A3.67,3.67,0,0,1,364.49,419.76Zm-2.69,3.71a5.4,5.4,0,0,0,.73-1.63,7.29,7.29,0,0,0,.25-1.95,2.64,2.64,0,0,0-.59-1.86,2.12,2.12,0,0,0-1.66-.64,2.92,2.92,0,0,0-1.53.41,3.88,3.88,0,0,0-1.17,1.12,5.65,5.65,0,0,0-.73,1.63,7.25,7.25,0,0,0-.25,1.93,2.72,2.72,0,0,0,.59,1.87,2.15,2.15,0,0,0,1.67.65,3,3,0,0,0,1.53-.41A3.63,3.63,0,0,0,361.8,423.47Zm2.62-12.1-3.12,3.29h-1.37l2.24-3.29Z"/><path class="cls-3" d="M375.6,418.53a6.92,6.92,0,0,1-.14,1.2L374,426.1h-1.64l1.28-5.59c.07-.31.13-.58.16-.81a4,4,0,0,0,.06-.69,1.5,1.5,0,0,0-.37-1.11,1.8,1.8,0,0,0-1.31-.38,3.7,3.7,0,0,0-1.48.37,11.23,11.23,0,0,0-1.57.89l-1.69,7.32h-1.65l2.27-9.81h1.65l-.25,1.08a10.55,10.55,0,0,1,1.76-1,4.3,4.3,0,0,1,1.69-.35,2.9,2.9,0,0,1,2,.65A2.37,2.37,0,0,1,375.6,418.53Z"/><path class="cls-4" d="M522.9,236.11H38V27.34H522.9ZM45.48,229.22h470v-195h-470Z"/><circle class="cls-4" cx="56.02" cy="44.77" r="37.4"/><path class="cls-5" d="M64.94,49a7.93,7.93,0,0,1-.64,3.16,6.77,6.77,0,0,1-1.85,2.49,8.81,8.81,0,0,1-3.1,1.65,13.58,13.58,0,0,1-4,.53,21.2,21.2,0,0,1-4.43-.41,17.08,17.08,0,0,1-3-.9V50.65h.62A16,16,0,0,0,51.46,52a9.46,9.46,0,0,0,3.06.52,10.47,10.47,0,0,0,2-.21,3.57,3.57,0,0,0,1.71-.77,3.62,3.62,0,0,0,.75-.92,3.15,3.15,0,0,0,.26-1.45,2.39,2.39,0,0,0-.35-1.31,2.67,2.67,0,0,0-.88-.89,5.06,5.06,0,0,0-1.91-.64,15.16,15.16,0,0,0-2-.15,13.65,13.65,0,0,0-2.52.23c-.81.15-1.51.3-2.12.44H48.8V34.52H64.31v4.17H54.08v3.56l1.15,0,1.23,0a14.11,14.11,0,0,1,3.21.34,9.07,9.07,0,0,1,2.44,1,5.77,5.77,0,0,1,2.08,2.14A6.67,6.67,0,0,1,64.94,49Z"/><path class="cls-5" d="M179,109.3h-9V113h8.37v3.8h-8.37v8.38h-5V105.5H179Z"/><path class="cls-5" d="M199.27,125.13H194l-1.37-4h-7.26l-1.37,4h-5.1l7.25-19.63H192Zm-7.82-7.56-2.41-7-2.42,7Z"/><path class="cls-5" d="M216.48,119a5.61,5.61,0,0,1-2.46,4.72,11.08,11.08,0,0,1-6.68,1.81,18.42,18.42,0,0,1-4.25-.43A22.06,22.06,0,0,1,199.7,124v-4.7h.55a12,12,0,0,0,3.51,1.92,11.43,11.43,0,0,0,3.74.67,10.49,10.49,0,0,0,1.22-.08,4.77,4.77,0,0,0,1.22-.26,3.2,3.2,0,0,0,1-.59,1.52,1.52,0,0,0-.18-2.17,3.79,3.79,0,0,0-1.6-.72c-.73-.18-1.51-.34-2.34-.49a18.54,18.54,0,0,1-2.31-.59,7.4,7.4,0,0,1-3.57-2.18,5.38,5.38,0,0,1-1.08-3.42,5.27,5.27,0,0,1,2.46-4.48,10.66,10.66,0,0,1,6.32-1.73,19.73,19.73,0,0,1,3.83.37,18.4,18.4,0,0,1,3.27.94V111h-.54a10.07,10.07,0,0,0-2.91-1.59,9.86,9.86,0,0,0-3.51-.64,10.66,10.66,0,0,0-1.26.08,4.84,4.84,0,0,0-1.2.33,2.27,2.27,0,0,0-.89.6,1.32,1.32,0,0,0-.37.91,1.38,1.38,0,0,0,.6,1.2,6.58,6.58,0,0,0,2.24.75l2.07.44a20.6,20.6,0,0,1,2.15.58,7.16,7.16,0,0,1,3.33,2A5,5,0,0,1,216.48,119Z"/><path class="cls-5" d="M242.24,119a5.6,5.6,0,0,1-2.45,4.72,11.1,11.1,0,0,1-6.68,1.81,18.3,18.3,0,0,1-4.25-.43,22.55,22.55,0,0,1-3.4-1.09v-4.7H226a11.73,11.73,0,0,0,3.51,1.92,11.38,11.38,0,0,0,3.74.67,10.34,10.34,0,0,0,1.21-.08,5,5,0,0,0,1.23-.26,3.27,3.27,0,0,0,.95-.59,1.4,1.4,0,0,0,.38-1.06,1.43,1.43,0,0,0-.55-1.11,3.85,3.85,0,0,0-1.6-.72c-.74-.18-1.52-.34-2.34-.49a19.17,19.17,0,0,1-2.32-.59,7.32,7.32,0,0,1-3.56-2.18,5.33,5.33,0,0,1-1.09-3.42,5.27,5.27,0,0,1,2.46-4.48,10.7,10.7,0,0,1,6.32-1.73,19.65,19.65,0,0,1,3.83.37,18.78,18.78,0,0,1,3.28.94V111h-.54A10.07,10.07,0,0,0,238,109.4a9.94,9.94,0,0,0-3.51-.64,10.39,10.39,0,0,0-1.26.08,5,5,0,0,0-1.21.33,2.23,2.23,0,0,0-.88.6,1.28,1.28,0,0,0-.37.91,1.39,1.39,0,0,0,.59,1.2,6.66,6.66,0,0,0,2.24.75l2.08.44a20.46,20.46,0,0,1,2.14.58,7.16,7.16,0,0,1,3.33,2A4.92,4.92,0,0,1,242.24,119Z"/><path class="cls-5" d="M253.09,123.56c-.25.2-.57.43-1,.7a7.13,7.13,0,0,1-1.07.65,7.23,7.23,0,0,1-1.45.47,8.43,8.43,0,0,1-1.65.15,5,5,0,0,1-3.53-1.31,4.31,4.31,0,0,1-1.42-3.33,4.51,4.51,0,0,1,.72-2.65,4.82,4.82,0,0,1,2.06-1.62,11.58,11.58,0,0,1,3.27-.85c1.3-.16,2.65-.29,4.05-.37v-.08a1.71,1.71,0,0,0-1-1.69,7.23,7.23,0,0,0-3-.47,8.29,8.29,0,0,0-2.5.42c-.89.27-1.53.49-1.92.64h-.43v-3.58c.5-.13,1.32-.28,2.45-.46a21.52,21.52,0,0,1,3.39-.27q4,0,5.85,1.24a4.42,4.42,0,0,1,1.8,3.91v10.07h-4.71Zm0-2.3v-3.07c-.64,0-1.34.12-2.08.21a10,10,0,0,0-1.7.32,2.37,2.37,0,0,0-1.09.65,1.66,1.66,0,0,0-.38,1.13,3.13,3.13,0,0,0,.08.75,1.16,1.16,0,0,0,.4.55,2.08,2.08,0,0,0,.72.39,5.24,5.24,0,0,0,1.32.12,3.89,3.89,0,0,0,1.44-.29A4.35,4.35,0,0,0,253.09,121.26Z"/><path class="cls-5" d="M275.71,125.13H271v-7.34a17.88,17.88,0,0,0-.09-1.79,3.71,3.71,0,0,0-.32-1.31,1.57,1.57,0,0,0-.77-.71,3.61,3.61,0,0,0-1.42-.22A4.32,4.32,0,0,0,267,114a7,7,0,0,0-1.44.67v10.49h-4.76v-14.8h4.76V112a11.78,11.78,0,0,1,2.43-1.51,6,6,0,0,1,2.58-.53,4.94,4.94,0,0,1,3.75,1.4,5.79,5.79,0,0,1,1.35,4.18Z"/><path class="cls-5" d="M288.22,125a13.09,13.09,0,0,1-1.63.31,15.59,15.59,0,0,1-2.09.11,6.33,6.33,0,0,1-4.12-1.12c-.9-.74-1.35-2-1.35-3.83v-6.93h-2v-3.21h2V106.1h4.76v4.23h4.43v3.21h-4.43v5.26c0,.52,0,1,0,1.36a2.83,2.83,0,0,0,.21,1,1.5,1.5,0,0,0,.65.74,2.75,2.75,0,0,0,1.36.27,4.28,4.28,0,0,0,1-.16,4.12,4.12,0,0,0,.83-.29h.4Z"/><path class="cls-5" d="M298.69,123.56c-.25.2-.57.43-.95.7a7.13,7.13,0,0,1-1.07.65,7.23,7.23,0,0,1-1.45.47,8.4,8.4,0,0,1-1.64.15,5,5,0,0,1-3.54-1.31,4.31,4.31,0,0,1-1.42-3.33,4.51,4.51,0,0,1,.72-2.65,4.82,4.82,0,0,1,2.06-1.62,11.58,11.58,0,0,1,3.27-.85c1.3-.16,2.65-.29,4.05-.37v-.08a1.72,1.72,0,0,0-1-1.69,7.32,7.32,0,0,0-3-.47,8.34,8.34,0,0,0-2.5.42c-.89.27-1.53.49-1.91.64h-.44v-3.58c.5-.13,1.32-.28,2.45-.46a21.52,21.52,0,0,1,3.39-.27q4,0,5.85,1.24a4.42,4.42,0,0,1,1.8,3.91v10.07h-4.71Zm0-2.3v-3.07c-.64,0-1.33.12-2.08.21a10.16,10.16,0,0,0-1.7.32,2.37,2.37,0,0,0-1.09.65,1.66,1.66,0,0,0-.38,1.13,3.13,3.13,0,0,0,.08.75,1.23,1.23,0,0,0,.4.55,2.08,2.08,0,0,0,.72.39,5.35,5.35,0,0,0,1.32.12,4,4,0,0,0,1.45-.29A4.43,4.43,0,0,0,298.69,121.26Z"/><path class="cls-5" d="M335.19,125.13h-5V112l-3.64,8.53H323L319.38,112v13.14h-4.77V105.5h5.88l4.41,9.85,4.41-9.85h5.88Z"/><path class="cls-5" d="M347.58,123.56l-.95.7a7.66,7.66,0,0,1-1.07.65,7.44,7.44,0,0,1-1.45.47,8.43,8.43,0,0,1-1.65.15,5,5,0,0,1-3.53-1.31,4.32,4.32,0,0,1-1.43-3.33,4.44,4.44,0,0,1,.73-2.65,4.76,4.76,0,0,1,2.06-1.62,11.42,11.42,0,0,1,3.26-.85c1.31-.16,2.65-.29,4.05-.37v-.08a1.7,1.7,0,0,0-1-1.69,7.27,7.27,0,0,0-3-.47,8.35,8.35,0,0,0-2.51.42c-.89.27-1.52.49-1.91.64h-.43v-3.58c.5-.13,1.31-.28,2.44-.46a21.55,21.55,0,0,1,3.4-.27q4,0,5.84,1.24a4.42,4.42,0,0,1,1.8,3.91v10.07h-4.7Zm0-2.3v-3.07c-.65,0-1.34.12-2.09.21a10.38,10.38,0,0,0-1.7.32,2.42,2.42,0,0,0-1.09.65,1.65,1.65,0,0,0-.37,1.13,2.69,2.69,0,0,0,.08.75,1.13,1.13,0,0,0,.39.55,2.22,2.22,0,0,0,.73.39,5.24,5.24,0,0,0,1.32.12,4,4,0,0,0,1.44-.29A4.35,4.35,0,0,0,347.58,121.26Z"/><path class="cls-5" d="M366.05,114.85h-.42a4.44,4.44,0,0,0-1-.16c-.45,0-.82,0-1.12,0a10.65,10.65,0,0,0-1.79.13,10.77,10.77,0,0,0-1.67.45v9.91h-4.76v-14.8h4.76v2.17a10,10,0,0,1,2.72-1.78,6,6,0,0,1,2.14-.45l.56,0,.55,0Z"/><path class="cls-5" d="M376.89,125a12.75,12.75,0,0,1-1.63.31,15.59,15.59,0,0,1-2.09.11,6.33,6.33,0,0,1-4.12-1.12c-.9-.74-1.35-2-1.35-3.83v-6.93h-1.95v-3.21h1.95V106.1h4.76v4.23h4.43v3.21h-4.43v5.26c0,.52,0,1,0,1.36a2.83,2.83,0,0,0,.21,1,1.5,1.5,0,0,0,.65.74,2.77,2.77,0,0,0,1.36.27,4.28,4.28,0,0,0,1-.16,4.12,4.12,0,0,0,.83-.29h.4Z"/><path class="cls-5" d="M387.36,123.56c-.25.2-.57.43-.95.7a7.07,7.07,0,0,1-1.06.65,7.44,7.44,0,0,1-1.45.47,8.5,8.5,0,0,1-1.65.15,5,5,0,0,1-3.53-1.31,4.32,4.32,0,0,1-1.43-3.33,4.44,4.44,0,0,1,.73-2.65,4.73,4.73,0,0,1,2.05-1.62,11.58,11.58,0,0,1,3.27-.85c1.3-.16,2.65-.29,4.05-.37v-.08a1.72,1.72,0,0,0-1-1.69,7.32,7.32,0,0,0-3-.47,8.34,8.34,0,0,0-2.5.42c-.89.27-1.53.49-1.91.64h-.44v-3.58c.5-.13,1.32-.28,2.45-.46a21.52,21.52,0,0,1,3.39-.27q4.05,0,5.85,1.24a4.42,4.42,0,0,1,1.8,3.91v10.07h-4.71Zm0-2.3v-3.07c-.64,0-1.33.12-2.08.21a10.16,10.16,0,0,0-1.7.32,2.37,2.37,0,0,0-1.09.65,1.65,1.65,0,0,0-.37,1.13,2.69,2.69,0,0,0,.08.75,1.13,1.13,0,0,0,.39.55,2,2,0,0,0,.73.39,5.21,5.21,0,0,0,1.31.12,4,4,0,0,0,1.45-.29A4.43,4.43,0,0,0,387.36,121.26Z"/><path class="cls-5" d="M92.68,273.18H90.5L89,268.9H82.36l-1.51,4.28H78.78l5.59-15.35h2.72Zm-4.31-6-2.69-7.54L83,267.15Z"/><path class="cls-5" d="M96.81,273.18H94.87v-16h1.94Z"/><path class="cls-5" d="M116.58,272.45a13.23,13.23,0,0,1-1.84.73,6.51,6.51,0,0,1-1.85.25,7,7,0,0,1-2.29-.36,4.8,4.8,0,0,1-1.78-1.11,4.88,4.88,0,0,1-1.16-1.88,7.6,7.6,0,0,1-.42-2.65,6.13,6.13,0,0,1,1.55-4.43,5.45,5.45,0,0,1,4.1-1.61,7.18,7.18,0,0,1,2,.28,10.5,10.5,0,0,1,1.74.68v2.16h-.1a7.47,7.47,0,0,0-1.83-1.07,5.16,5.16,0,0,0-1.84-.37,3.24,3.24,0,0,0-2.6,1.11,6,6,0,0,0,0,6.46,3.22,3.22,0,0,0,2.62,1.11,5.06,5.06,0,0,0,1.2-.15,5.37,5.37,0,0,0,1.09-.4c.28-.15.54-.3.79-.46a5.53,5.53,0,0,0,.59-.42h.1Z"/><path class="cls-5" d="M128.88,267.42a6.49,6.49,0,0,1-1.44,4.45,5.42,5.42,0,0,1-7.75,0,7.58,7.58,0,0,1,0-8.89,5.4,5.4,0,0,1,7.75,0A6.48,6.48,0,0,1,128.88,267.42Zm-2,0a5.25,5.25,0,0,0-.87-3.32,3.29,3.29,0,0,0-4.89,0,6.68,6.68,0,0,0,0,6.61,3.22,3.22,0,0,0,4.87,0A5.22,5.22,0,0,0,126.88,267.42Z"/><path class="cls-5" d="M140.11,269.86a3.12,3.12,0,0,1-1.31,2.58,5.62,5.62,0,0,1-3.56,1,8.61,8.61,0,0,1-2.34-.3,10.32,10.32,0,0,1-1.79-.66v-2.18h.1a7.71,7.71,0,0,0,2,1.1,6.38,6.38,0,0,0,2.16.41,4,4,0,0,0,2-.42,1.38,1.38,0,0,0,.72-1.3,1.33,1.33,0,0,0-.39-1,3.56,3.56,0,0,0-1.51-.59c-.27-.07-.63-.14-1.07-.22s-.85-.17-1.22-.27a4.06,4.06,0,0,1-2.15-1.18,3,3,0,0,1-.63-1.91,3.2,3.2,0,0,1,.29-1.34,3.31,3.31,0,0,1,.9-1.13,4.28,4.28,0,0,1,1.46-.76,6.57,6.57,0,0,1,2-.29,8.92,8.92,0,0,1,2.09.26,7.65,7.65,0,0,1,1.76.61v2.07h-.11a6.89,6.89,0,0,0-1.8-.92,6.24,6.24,0,0,0-2.08-.38,3.68,3.68,0,0,0-1.8.41,1.3,1.3,0,0,0-.73,1.21,1.32,1.32,0,0,0,.44,1.07,3.49,3.49,0,0,0,1.4.59c.36.08.76.17,1.21.25l1.1.22a4.11,4.11,0,0,1,2.09,1.07A2.83,2.83,0,0,1,140.11,269.86Z"/><path class="cls-5" d="M148.86,273.07a9.26,9.26,0,0,1-1.19.24,8.38,8.38,0,0,1-1.15.09,3.54,3.54,0,0,1-2.68-.95,4.25,4.25,0,0,1-.92-3v-6.12h-1.31v-1.63h1.31v-3.31h1.94v3.31h4v1.63h-4v5.25c0,.6,0,1.07,0,1.41a2.49,2.49,0,0,0,.29,1,1.43,1.43,0,0,0,.62.6,2.92,2.92,0,0,0,1.22.19,3.58,3.58,0,0,0,1-.14,7,7,0,0,0,.74-.23h.1Z"/><path class="cls-5" d="M160.15,273.18h-1.93V272l-.69.49a5.19,5.19,0,0,1-.85.5,6.1,6.1,0,0,1-1.12.4,6.36,6.36,0,0,1-1.47.16,3.71,3.71,0,0,1-2.64-1,3.49,3.49,0,0,1-1.08-2.63,3.59,3.59,0,0,1,.56-2.12,3.75,3.75,0,0,1,1.6-1.28,8.93,8.93,0,0,1,2.53-.62c1-.11,2-.2,3.16-.25v-.3a2.35,2.35,0,0,0-.23-1.09,1.63,1.63,0,0,0-.67-.68,2.57,2.57,0,0,0-1-.32,7.92,7.92,0,0,0-1.21-.09,7.8,7.8,0,0,0-1.7.21,12.1,12.1,0,0,0-1.94.58h-.1v-2c.37-.1.92-.22,1.64-.34a11.74,11.74,0,0,1,2.11-.19,10.11,10.11,0,0,1,2.12.2,4.27,4.27,0,0,1,1.56.69,3.07,3.07,0,0,1,1,1.23,4.45,4.45,0,0,1,.34,1.86Zm-1.93-2.84v-3.2c-.59,0-1.29.08-2.09.15a11,11,0,0,0-1.9.3,3.09,3.09,0,0,0-1.35.74,1.83,1.83,0,0,0-.51,1.37,1.85,1.85,0,0,0,.59,1.49,2.83,2.83,0,0,0,1.83.5,4.22,4.22,0,0,0,1.86-.4A8,8,0,0,0,158.22,270.34Z"/><path class="cls-5" d="M173.22,273.18h-1.94V272a6.6,6.6,0,0,1-1.74,1.12,4.76,4.76,0,0,1-2,.41,3.9,3.9,0,0,1-3.27-1.59,7.1,7.1,0,0,1-1.21-4.4,7.52,7.52,0,0,1,.42-2.61,6,6,0,0,1,1.12-1.95,4.93,4.93,0,0,1,1.64-1.2,4.78,4.78,0,0,1,1.93-.41,6.08,6.08,0,0,1,1.61.19,7.92,7.92,0,0,1,1.47.59v-5h1.94Zm-1.94-2.84v-6.61a7.52,7.52,0,0,0-1.4-.48,6.29,6.29,0,0,0-1.35-.14,3.07,3.07,0,0,0-2.54,1.14,5.06,5.06,0,0,0-.9,3.22,5.66,5.66,0,0,0,.7,3.11,2.5,2.5,0,0,0,2.25,1.07,4.11,4.11,0,0,0,1.67-.37A6.61,6.61,0,0,0,171.28,270.34Z"/><path class="cls-5" d="M186.85,267.42a6.49,6.49,0,0,1-1.44,4.45,5.42,5.42,0,0,1-7.75,0,7.58,7.58,0,0,1,0-8.89,5.4,5.4,0,0,1,7.75,0A6.48,6.48,0,0,1,186.85,267.42Zm-2,0a5.19,5.19,0,0,0-.88-3.32,3.28,3.28,0,0,0-4.88,0,6.68,6.68,0,0,0,0,6.61,3.22,3.22,0,0,0,4.87,0A5.22,5.22,0,0,0,184.85,267.42Z"/><path class="cls-5" d="M206.61,273.18h-1.94V272a6.6,6.6,0,0,1-1.74,1.12,4.76,4.76,0,0,1-2,.41,3.9,3.9,0,0,1-3.27-1.59,7.1,7.1,0,0,1-1.21-4.4,7.52,7.52,0,0,1,.42-2.61A6,6,0,0,1,198,263a4.74,4.74,0,0,1,3.56-1.61,6,6,0,0,1,1.61.19,7.92,7.92,0,0,1,1.47.59v-5h1.94Zm-1.94-2.84v-6.61a7.52,7.52,0,0,0-1.4-.48,6.29,6.29,0,0,0-1.35-.14,3,3,0,0,0-2.53,1.14,5,5,0,0,0-.91,3.22,5.66,5.66,0,0,0,.7,3.11,2.5,2.5,0,0,0,2.25,1.07,4.11,4.11,0,0,0,1.67-.37A6.61,6.61,0,0,0,204.67,270.34Z"/><path class="cls-5" d="M220.07,267.62h-8.49a5,5,0,0,0,.32,1.85,3.36,3.36,0,0,0,.88,1.29,3.59,3.59,0,0,0,1.27.75,5.2,5.2,0,0,0,1.62.24,6.26,6.26,0,0,0,2.37-.47,6,6,0,0,0,1.7-.92h.1v2.12a17.49,17.49,0,0,1-2,.69,8.39,8.39,0,0,1-2.15.27,6.14,6.14,0,0,1-4.47-1.55,5.83,5.83,0,0,1-1.61-4.4,6.37,6.37,0,0,1,1.54-4.49,5.31,5.31,0,0,1,4.06-1.66,4.68,4.68,0,0,1,3.59,1.36,5.5,5.5,0,0,1,1.27,3.87Zm-1.89-1.48a3.44,3.44,0,0,0-.77-2.37,3,3,0,0,0-2.3-.83,3.36,3.36,0,0,0-2.48.92,3.52,3.52,0,0,0-1,2.28Z"/><path class="cls-5" d="M225,273.18H223v-16H225Z"/><path class="cls-5" d="M246.35,267.33a7.84,7.84,0,0,1-.4,2.6,5.79,5.79,0,0,1-1.1,1.94,5,5,0,0,1-1.61,1.22,4.54,4.54,0,0,1-1.93.41,5.52,5.52,0,0,1-1.71-.24,7.54,7.54,0,0,1-1.44-.62l-.12.54h-1.82v-16h1.94v5.73a7.77,7.77,0,0,1,1.73-1.1,4.75,4.75,0,0,1,2.06-.43,3.79,3.79,0,0,1,3.22,1.57A7.2,7.2,0,0,1,246.35,267.33Zm-2,.05a5.84,5.84,0,0,0-.68-3.13,2.39,2.39,0,0,0-2.19-1.06,4.45,4.45,0,0,0-1.71.36,7,7,0,0,0-1.61.95v6.59a8.48,8.48,0,0,0,1.42.52,5.46,5.46,0,0,0,1.34.14,3.17,3.17,0,0,0,2.52-1.05A5,5,0,0,0,244.35,267.38Z"/><path class="cls-5" d="M258.92,273.18H257V271.9a9.25,9.25,0,0,1-1.87,1.18,4.62,4.62,0,0,1-2,.42,3.65,3.65,0,0,1-2.83-1.11,4.69,4.69,0,0,1-1-3.25v-7.48h1.94v6.56a12.8,12.8,0,0,0,.08,1.5,2.76,2.76,0,0,0,.35,1.06,1.59,1.59,0,0,0,.73.66,3.06,3.06,0,0,0,1.28.21,4.15,4.15,0,0,0,1.65-.39,7.8,7.8,0,0,0,1.66-1v-8.6h1.94Z"/><path class="cls-5" d="M272.08,277.42h-1.94v-5.54a7.09,7.09,0,0,1-1.79,1.15,4.85,4.85,0,0,1-1.91.37,3.93,3.93,0,0,1-3.28-1.58,7,7,0,0,1-1.22-4.37,7.35,7.35,0,0,1,.43-2.62,5.69,5.69,0,0,1,1.13-1.91,4.76,4.76,0,0,1,1.6-1.17,4.71,4.71,0,0,1,1.93-.41,5.9,5.9,0,0,1,1.65.21,7.45,7.45,0,0,1,1.46.61l.12-.5h1.82Zm-1.94-7.17v-6.52a7.65,7.65,0,0,0-1.42-.5,5.76,5.76,0,0,0-1.35-.15,3,3,0,0,0-2.55,1.14,5,5,0,0,0-.88,3.14,5.7,5.7,0,0,0,.71,3.11,2.45,2.45,0,0,0,2.22,1.09,4.13,4.13,0,0,0,1.69-.37A7.25,7.25,0,0,0,270.14,270.25Z"/><path class="cls-5" d="M285.44,273.18H283.5V271.9a9.3,9.3,0,0,1-1.88,1.18,4.62,4.62,0,0,1-2,.42,3.61,3.61,0,0,1-2.82-1.11,4.64,4.64,0,0,1-1-3.25v-7.48h1.94v6.56a10.94,10.94,0,0,0,.08,1.5,2.6,2.6,0,0,0,.35,1.06,1.53,1.53,0,0,0,.72.66,3.14,3.14,0,0,0,1.29.21,4.11,4.11,0,0,0,1.64-.39,7.86,7.86,0,0,0,1.67-1v-8.6h1.94Z"/><path class="cls-5" d="M298.89,267.62H290.4a5,5,0,0,0,.32,1.85,3.47,3.47,0,0,0,.88,1.29,3.59,3.59,0,0,0,1.27.75,5.31,5.31,0,0,0,1.63.24,6.24,6.24,0,0,0,2.36-.47,5.82,5.82,0,0,0,1.7-.92h.1v2.12a17.49,17.49,0,0,1-2,.69,8.31,8.31,0,0,1-2.14.27,6.18,6.18,0,0,1-4.48-1.55,5.83,5.83,0,0,1-1.6-4.4A6.33,6.33,0,0,1,290,263a5.28,5.28,0,0,1,4-1.66,4.7,4.7,0,0,1,3.6,1.36,5.5,5.5,0,0,1,1.26,3.87ZM297,266.14a3.4,3.4,0,0,0-.77-2.37,3,3,0,0,0-2.3-.83,3.38,3.38,0,0,0-2.48.92,3.62,3.62,0,0,0-1.05,2.28Z"/><path class="cls-5" d="M326,273.18h-1.94V272a6.6,6.6,0,0,1-1.74,1.12,4.76,4.76,0,0,1-2,.41,3.9,3.9,0,0,1-3.27-1.59,7.1,7.1,0,0,1-1.21-4.4,7.52,7.52,0,0,1,.42-2.61,6,6,0,0,1,1.13-1.95,4.74,4.74,0,0,1,3.56-1.61,6,6,0,0,1,1.61.19,7.92,7.92,0,0,1,1.47.59v-5H326Zm-1.94-2.84v-6.61a7.28,7.28,0,0,0-1.4-.48,6.29,6.29,0,0,0-1.35-.14,3,3,0,0,0-2.53,1.14,5,5,0,0,0-.91,3.22,5.66,5.66,0,0,0,.7,3.11,2.5,2.5,0,0,0,2.25,1.07,4.11,4.11,0,0,0,1.67-.37A6.61,6.61,0,0,0,324.07,270.34Z"/><path class="cls-5" d="M339.47,267.62H331a5,5,0,0,0,.32,1.85,3.36,3.36,0,0,0,.88,1.29,3.59,3.59,0,0,0,1.27.75,5.2,5.2,0,0,0,1.62.24,6.26,6.26,0,0,0,2.37-.47,6,6,0,0,0,1.7-.92h.1v2.12a17.49,17.49,0,0,1-2,.69,8.37,8.37,0,0,1-2.14.27,6.15,6.15,0,0,1-4.48-1.55,5.83,5.83,0,0,1-1.61-4.4,6.37,6.37,0,0,1,1.54-4.49,5.31,5.31,0,0,1,4.06-1.66,4.68,4.68,0,0,1,3.59,1.36,5.45,5.45,0,0,1,1.27,3.87Zm-1.89-1.48a3.44,3.44,0,0,0-.77-2.37,3,3,0,0,0-2.3-.83,3.36,3.36,0,0,0-2.48.92,3.52,3.52,0,0,0-1,2.28Z"/><path class="cls-5" d="M350.63,269.86a3.11,3.11,0,0,1-1.3,2.58,5.65,5.65,0,0,1-3.57,1,8.61,8.61,0,0,1-2.34-.3,10.32,10.32,0,0,1-1.79-.66v-2.18h.1a7.92,7.92,0,0,0,2,1.1,6.28,6.28,0,0,0,2.15.41,4,4,0,0,0,2-.42,1.38,1.38,0,0,0,.72-1.3,1.33,1.33,0,0,0-.39-1,3.51,3.51,0,0,0-1.5-.59c-.28-.07-.64-.14-1.08-.22s-.85-.17-1.21-.27a4,4,0,0,1-2.15-1.18,2.9,2.9,0,0,1-.64-1.91,3.06,3.06,0,0,1,.3-1.34,3.16,3.16,0,0,1,.89-1.13,4.24,4.24,0,0,1,1.47-.76,6.5,6.5,0,0,1,2-.29,8.86,8.86,0,0,1,2.09.26,7.65,7.65,0,0,1,1.76.61v2.07h-.11a6.89,6.89,0,0,0-1.8-.92,6.24,6.24,0,0,0-2.08-.38,3.68,3.68,0,0,0-1.8.41,1.31,1.31,0,0,0-.73,1.21,1.29,1.29,0,0,0,.45,1.07,3.36,3.36,0,0,0,1.4.59c.35.08.75.17,1.2.25l1.11.22a4.08,4.08,0,0,1,2.08,1.07A2.78,2.78,0,0,1,350.63,269.86Z"/><path class="cls-5" d="M355.49,259.73H353.3v-2h2.19Zm-.13,13.45h-1.93V261.66h1.93Z"/><path class="cls-5" d="M368.54,271.87a6,6,0,0,1-1.33,4.3,5.49,5.49,0,0,1-4.09,1.37,13,13,0,0,1-1.79-.13,14.22,14.22,0,0,1-1.72-.37v-2h.1a13.43,13.43,0,0,0,1.51.46,8.09,8.09,0,0,0,2.06.27,4.8,4.8,0,0,0,1.64-.23,2.4,2.4,0,0,0,1-.66,2.45,2.45,0,0,0,.52-1,5,5,0,0,0,.15-1.27v-1.05a7.35,7.35,0,0,1-1.67,1.05,5.24,5.24,0,0,1-2,.34,4,4,0,0,1-3.27-1.49,6.47,6.47,0,0,1-1.22-4.2,7,7,0,0,1,.42-2.56,5.82,5.82,0,0,1,1.14-1.86,4.61,4.61,0,0,1,1.63-1.14,4.87,4.87,0,0,1,1.91-.41,6.11,6.11,0,0,1,1.67.2,7.46,7.46,0,0,1,1.43.62l.12-.5h1.82ZM366.6,270v-6.28a7.51,7.51,0,0,0-1.44-.5,5.94,5.94,0,0,0-1.32-.15,3.13,3.13,0,0,0-2.52,1.08,4.66,4.66,0,0,0-.92,3.11,5.19,5.19,0,0,0,.69,2.94,2.53,2.53,0,0,0,2.25,1,4.67,4.67,0,0,0,1.7-.33A5.68,5.68,0,0,0,366.6,270Z"/><path class="cls-5" d="M382,273.18H380v-6.56a11.58,11.58,0,0,0-.09-1.49,2.64,2.64,0,0,0-.34-1.09,1.55,1.55,0,0,0-.74-.64,3.18,3.18,0,0,0-1.26-.21,4,4,0,0,0-1.66.39,8.14,8.14,0,0,0-1.66,1v8.6h-1.94V261.66h1.94v1.28a8.28,8.28,0,0,1,1.88-1.18,4.94,4.94,0,0,1,2-.42,3.56,3.56,0,0,1,2.84,1.13,4.76,4.76,0,0,1,1,3.23Z"/><path class="cls-5" d="M394.66,273.18h-1.93V272l-.69.49a4.81,4.81,0,0,1-.85.5,6.1,6.1,0,0,1-1.12.4,6.36,6.36,0,0,1-1.47.16,3.71,3.71,0,0,1-2.64-1,3.49,3.49,0,0,1-1.08-2.63,3.67,3.67,0,0,1,.56-2.12,3.75,3.75,0,0,1,1.6-1.28,9,9,0,0,1,2.53-.62c1-.11,2-.2,3.16-.25v-.3a2.23,2.23,0,0,0-.23-1.09,1.6,1.6,0,0,0-.66-.68,2.68,2.68,0,0,0-1-.32,7.92,7.92,0,0,0-1.21-.09,7.8,7.8,0,0,0-1.7.21,12.1,12.1,0,0,0-1.94.58h-.1v-2c.38-.1.92-.22,1.64-.34a11.74,11.74,0,0,1,2.11-.19,10.11,10.11,0,0,1,2.12.2,4.27,4.27,0,0,1,1.56.69,3.07,3.07,0,0,1,1,1.23,4.45,4.45,0,0,1,.34,1.86Zm-1.93-2.84v-3.2c-.59,0-1.28.08-2.08.15a11.13,11.13,0,0,0-1.91.3,3.15,3.15,0,0,0-1.35.74,2.12,2.12,0,0,0,.09,2.86,2.79,2.79,0,0,0,1.82.5,4.3,4.3,0,0,0,1.87-.4A8.23,8.23,0,0,0,392.73,270.34Z"/><path class="cls-5" d="M407.73,273.18h-1.94V272a6.6,6.6,0,0,1-1.74,1.12,4.76,4.76,0,0,1-2,.41,3.9,3.9,0,0,1-3.27-1.59,7.1,7.1,0,0,1-1.21-4.4,7.52,7.52,0,0,1,.42-2.61,6,6,0,0,1,1.13-1.95,4.74,4.74,0,0,1,3.56-1.61,6,6,0,0,1,1.61.19,7.92,7.92,0,0,1,1.47.59v-5h1.94Zm-1.94-2.84v-6.61a7.52,7.52,0,0,0-1.4-.48,6.29,6.29,0,0,0-1.35-.14,3,3,0,0,0-2.53,1.14,5,5,0,0,0-.91,3.22,5.66,5.66,0,0,0,.7,3.11,2.5,2.5,0,0,0,2.25,1.07,4.11,4.11,0,0,0,1.67-.37A6.61,6.61,0,0,0,405.79,270.34Z"/><path class="cls-5" d="M421.36,267.42a6.49,6.49,0,0,1-1.44,4.45,5.42,5.42,0,0,1-7.75,0,7.58,7.58,0,0,1,0-8.89,5.4,5.4,0,0,1,7.75,0A6.48,6.48,0,0,1,421.36,267.42Zm-2,0a5.19,5.19,0,0,0-.88-3.32,3.28,3.28,0,0,0-4.88,0,6.68,6.68,0,0,0,0,6.61,3.22,3.22,0,0,0,4.87,0A5.22,5.22,0,0,0,419.36,267.42Z"/><path class="cls-5" d="M428.07,270.24l-2.9,6.75h-1.51l1.79-6.75Z"/><path class="cls-5" d="M448.79,267.62h-8.48a5,5,0,0,0,.32,1.85,3.36,3.36,0,0,0,.88,1.29,3.51,3.51,0,0,0,1.27.75,5.2,5.2,0,0,0,1.62.24,6.29,6.29,0,0,0,2.37-.47,5.74,5.74,0,0,0,1.69-.92h.11v2.12a18.18,18.18,0,0,1-2,.69,8.39,8.39,0,0,1-2.15.27,6.14,6.14,0,0,1-4.47-1.55,5.83,5.83,0,0,1-1.61-4.4,6.33,6.33,0,0,1,1.54-4.49,5.31,5.31,0,0,1,4.06-1.66,4.68,4.68,0,0,1,3.59,1.36,5.5,5.5,0,0,1,1.26,3.87Zm-1.88-1.48a3.49,3.49,0,0,0-.77-2.37,3,3,0,0,0-2.3-.83,3.36,3.36,0,0,0-2.48.92,3.52,3.52,0,0,0-1.05,2.28Z"/><path class="cls-5" d="M461.36,273.18h-1.94v-6.56a11.58,11.58,0,0,0-.09-1.49A2.64,2.64,0,0,0,459,264a1.55,1.55,0,0,0-.74-.64,3.18,3.18,0,0,0-1.26-.21,4,4,0,0,0-1.66.39,8.14,8.14,0,0,0-1.66,1v8.6h-1.94V261.66h1.94v1.28a8.28,8.28,0,0,1,1.88-1.18,4.94,4.94,0,0,1,2-.42,3.56,3.56,0,0,1,2.84,1.13,4.76,4.76,0,0,1,1,3.23Z"/><path class="cls-5" d="M90.61,290.18a4.89,4.89,0,0,1-.35,1.89,4.58,4.58,0,0,1-1,1.51,5.16,5.16,0,0,1-1.87,1.19,8.12,8.12,0,0,1-2.73.4h-2v5.72h-2V285.54h4.17a9.84,9.84,0,0,1,2.34.23,5.21,5.21,0,0,1,1.7.73A4.18,4.18,0,0,1,90.13,288,4.56,4.56,0,0,1,90.61,290.18Zm-2.12.05a3.12,3.12,0,0,0-.28-1.38,2.29,2.29,0,0,0-.84-1,3.24,3.24,0,0,0-1.13-.46,7.91,7.91,0,0,0-1.6-.14h-2v6.13h1.73a7.45,7.45,0,0,0,2-.22,2.88,2.88,0,0,0,1.25-.7,2.81,2.81,0,0,0,.69-1.05A3.59,3.59,0,0,0,88.49,290.23Z"/><path class="cls-5" d="M102.7,300.89h-1.94v-1.28a9.58,9.58,0,0,1-1.88,1.18,4.62,4.62,0,0,1-2,.42,3.61,3.61,0,0,1-2.82-1.11,4.64,4.64,0,0,1-1-3.25v-7.48H95v6.56a10.94,10.94,0,0,0,.08,1.5,2.7,2.7,0,0,0,.35,1.07,1.63,1.63,0,0,0,.72.66,3.35,3.35,0,0,0,1.29.2,4.11,4.11,0,0,0,1.64-.39,7.47,7.47,0,0,0,1.67-1v-8.6h1.94Z"/><path class="cls-5" d="M116.15,295.33h-8.49a4.94,4.94,0,0,0,.32,1.85,3.42,3.42,0,0,0,2.15,2,5.31,5.31,0,0,0,1.63.24,6.43,6.43,0,0,0,2.36-.46,5.8,5.8,0,0,0,1.7-.93h.1v2.12a17.49,17.49,0,0,1-2,.69,8.31,8.31,0,0,1-2.14.27,6.18,6.18,0,0,1-4.48-1.55,5.83,5.83,0,0,1-1.6-4.4,6.33,6.33,0,0,1,1.54-4.49,5.28,5.28,0,0,1,4.05-1.66,4.7,4.7,0,0,1,3.6,1.36,5.5,5.5,0,0,1,1.26,3.87Zm-1.89-1.48a3.35,3.35,0,0,0-.77-2.36,2.93,2.93,0,0,0-2.3-.84,3.38,3.38,0,0,0-2.48.92,3.62,3.62,0,0,0-1,2.28Z"/><path class="cls-5" d="M126.27,291.49h-.1a6.77,6.77,0,0,0-.84-.15,8.72,8.72,0,0,0-1,0,4,4,0,0,0-1.74.4,7.7,7.7,0,0,0-1.6,1v8.18h-1.94V289.37H121v1.7a9.43,9.43,0,0,1,2-1.31,4.42,4.42,0,0,1,1.8-.39,6.17,6.17,0,0,1,.73,0c.15,0,.38.05.68.1Z"/><path class="cls-5" d="M134.08,300.78a10,10,0,0,1-1.19.24,8.5,8.5,0,0,1-1.15.09,3.56,3.56,0,0,1-2.68-.94,4.25,4.25,0,0,1-.92-3.05V291h-1.31v-1.63h1.31v-3.31h1.94v3.31h4V291h-4v5.25c0,.6,0,1.08,0,1.42a2.15,2.15,0,0,0,.29.95,1.33,1.33,0,0,0,.62.6,2.87,2.87,0,0,0,1.21.19,3.48,3.48,0,0,0,1-.14A7,7,0,0,0,134,299h.11Z"/><path class="cls-5" d="M146.23,295.14a6.48,6.48,0,0,1-1.44,4.44,5.42,5.42,0,0,1-7.75,0,7.58,7.58,0,0,1,0-8.89,5.4,5.4,0,0,1,7.75,0A6.49,6.49,0,0,1,146.23,295.14Zm-2,0a5.22,5.22,0,0,0-.88-3.33,3.28,3.28,0,0,0-4.88,0,5.28,5.28,0,0,0-.87,3.33,5.21,5.21,0,0,0,.88,3.28,3.22,3.22,0,0,0,4.87,0A5.21,5.21,0,0,0,144.23,295.14Z"/><path class="cls-5" d="M166,300.89h-1.94v-1.21a6.91,6.91,0,0,1-1.74,1.13,4.92,4.92,0,0,1-2,.4,3.9,3.9,0,0,1-3.27-1.59,7.1,7.1,0,0,1-1.21-4.4,7.52,7.52,0,0,1,.42-2.61,6,6,0,0,1,1.13-1.95,4.74,4.74,0,0,1,3.56-1.61,6.47,6.47,0,0,1,1.61.19,7.35,7.35,0,0,1,1.47.6v-5H166Zm-1.94-2.84v-6.61a7.28,7.28,0,0,0-1.4-.48,6.31,6.31,0,0,0-1.35-.13,3,3,0,0,0-2.53,1.13,5,5,0,0,0-.91,3.22,5.66,5.66,0,0,0,.7,3.11,2.48,2.48,0,0,0,2.25,1.07,4.26,4.26,0,0,0,1.67-.36A7,7,0,0,0,164.05,298.05Z"/><path class="cls-5" d="M179.45,295.33H171a4.94,4.94,0,0,0,.32,1.85,3.42,3.42,0,0,0,2.15,2,5.2,5.2,0,0,0,1.62.24,6.44,6.44,0,0,0,2.37-.46,5.8,5.8,0,0,0,1.7-.93h.1v2.12a17.49,17.49,0,0,1-2,.69,8.37,8.37,0,0,1-2.14.27,6.16,6.16,0,0,1-4.48-1.55,5.83,5.83,0,0,1-1.61-4.4,6.37,6.37,0,0,1,1.54-4.49,5.31,5.31,0,0,1,4.06-1.66,4.68,4.68,0,0,1,3.59,1.36,5.45,5.45,0,0,1,1.27,3.87Zm-1.89-1.48a3.4,3.4,0,0,0-.77-2.36,2.93,2.93,0,0,0-2.3-.84,3.36,3.36,0,0,0-2.48.92,3.57,3.57,0,0,0-1,2.28Z"/><path class="cls-5" d="M201.12,296.51a4.1,4.1,0,0,1-.42,1.77,4.23,4.23,0,0,1-1.17,1.48,6.1,6.1,0,0,1-1.92,1,8.29,8.29,0,0,1-2.65.38,13.51,13.51,0,0,1-3-.31,16.27,16.27,0,0,1-2.7-.92v-2.56h.15a8.31,8.31,0,0,0,2.69,1.5,8.77,8.77,0,0,0,2.86.52,5.23,5.23,0,0,0,3-.71,2.19,2.19,0,0,0,1.05-1.9,2,2,0,0,0-.5-1.5,3.43,3.43,0,0,0-1.52-.75,14.46,14.46,0,0,0-1.67-.34c-.6-.09-1.24-.21-1.91-.34a5.72,5.72,0,0,1-3-1.48,4.06,4.06,0,0,1,.64-5.89,6.7,6.7,0,0,1,4.14-1.23,13.08,13.08,0,0,1,3,.31,13.45,13.45,0,0,1,2.39.76v2.41h-.15a7.21,7.21,0,0,0-2.3-1.23,9.13,9.13,0,0,0-2.92-.49,4.63,4.63,0,0,0-2.64.68,2.06,2.06,0,0,0-1,1.75A2.16,2.16,0,0,0,192,291a3.36,3.36,0,0,0,1.75.83c.44.1,1.06.22,1.87.36s1.5.27,2.06.42a5.36,5.36,0,0,1,2.58,1.37A3.59,3.59,0,0,1,201.12,296.51Z"/><path class="cls-5" d="M213.19,300.89h-1.93v-1.23l-.7.49a4.48,4.48,0,0,1-.85.5,5.73,5.73,0,0,1-1.11.4,6.36,6.36,0,0,1-1.47.16,3.71,3.71,0,0,1-2.64-1,3.49,3.49,0,0,1-1.08-2.63,3.59,3.59,0,0,1,.56-2.12,3.66,3.66,0,0,1,1.6-1.27,8.59,8.59,0,0,1,2.53-.63c1-.11,2-.2,3.16-.25V293a2.35,2.35,0,0,0-.23-1.09,1.69,1.69,0,0,0-.67-.68,2.57,2.57,0,0,0-1-.32,7.95,7.95,0,0,0-2.9.12,12.1,12.1,0,0,0-1.94.58h-.1v-2c.37-.1.92-.22,1.63-.34a12.85,12.85,0,0,1,2.12-.19,10.11,10.11,0,0,1,2.12.2,4.27,4.27,0,0,1,1.56.69,3.14,3.14,0,0,1,1,1.23,4.45,4.45,0,0,1,.34,1.86Zm-1.93-2.84v-3.2c-.59,0-1.29.08-2.09.15a11,11,0,0,0-1.9.3,3,3,0,0,0-1.35.74,2.14,2.14,0,0,0,.08,2.86,2.78,2.78,0,0,0,1.83.5,4.36,4.36,0,0,0,1.86-.39A8.56,8.56,0,0,0,211.26,298.05Z"/><path class="cls-5" d="M226.55,300.89h-1.94v-6.56a11.7,11.7,0,0,0-.09-1.49,2.86,2.86,0,0,0-.34-1.09,1.55,1.55,0,0,0-.74-.64,3.25,3.25,0,0,0-1.26-.21,4,4,0,0,0-1.66.39,8.14,8.14,0,0,0-1.66,1v8.6h-1.94V289.37h1.94v1.28a7.84,7.84,0,0,1,1.87-1.17,4.82,4.82,0,0,1,2-.43,3.57,3.57,0,0,1,2.85,1.13,4.78,4.78,0,0,1,1,3.23Z"/><path class="cls-5" d="M236.26,300.78a9.26,9.26,0,0,1-1.19.24,8.38,8.38,0,0,1-1.15.09,3.56,3.56,0,0,1-2.68-.94,4.3,4.3,0,0,1-.92-3.05V291H229v-1.63h1.31v-3.31h1.94v3.31h4V291h-4v5.25c0,.6,0,1.08,0,1.42a2.44,2.44,0,0,0,.29.95,1.38,1.38,0,0,0,.62.6,2.92,2.92,0,0,0,1.22.19,3.46,3.46,0,0,0,1-.14,6.6,6.6,0,0,0,.75-.23h.1Z"/><path class="cls-5" d="M247.55,300.89h-1.93v-1.23l-.7.49a4.48,4.48,0,0,1-.85.5,5.73,5.73,0,0,1-1.11.4,6.36,6.36,0,0,1-1.47.16,3.71,3.71,0,0,1-2.64-1,3.5,3.5,0,0,1-1.09-2.63,3.59,3.59,0,0,1,.57-2.12,3.66,3.66,0,0,1,1.6-1.27,8.59,8.59,0,0,1,2.53-.63c1-.11,2-.2,3.16-.25V293a2.35,2.35,0,0,0-.23-1.09,1.69,1.69,0,0,0-.67-.68,2.57,2.57,0,0,0-1-.32,7.95,7.95,0,0,0-2.9.12,11.8,11.8,0,0,0-1.94.58h-.1v-2c.37-.1.92-.22,1.63-.34a12.85,12.85,0,0,1,2.12-.19,10.18,10.18,0,0,1,2.12.2,4.27,4.27,0,0,1,1.56.69,3.14,3.14,0,0,1,1,1.23,4.61,4.61,0,0,1,.34,1.86Zm-1.93-2.84v-3.2c-.59,0-1.29.08-2.09.15a11,11,0,0,0-1.9.3,3,3,0,0,0-1.35.74,2.11,2.11,0,0,0,.08,2.86,2.78,2.78,0,0,0,1.83.5,4.36,4.36,0,0,0,1.86-.39A8.56,8.56,0,0,0,245.62,298.05Z"/><path class="cls-5" d="M272.53,300.89h-2V287.66l-4.27,9H265l-4.24-9v13.23h-1.9V285.54h2.78l4.09,8.54,4-8.54h2.84Z"/><path class="cls-5" d="M285.44,300.89h-1.92v-1.23l-.7.49a4.81,4.81,0,0,1-.85.5,5.73,5.73,0,0,1-1.11.4,6.38,6.38,0,0,1-1.48.16,3.71,3.71,0,0,1-2.64-1,3.49,3.49,0,0,1-1.08-2.63,3.35,3.35,0,0,1,2.17-3.39,8.6,8.6,0,0,1,2.52-.63c1-.11,2-.2,3.17-.25V293a2.23,2.23,0,0,0-.24-1.09,1.6,1.6,0,0,0-.66-.68,2.68,2.68,0,0,0-1-.32,7.93,7.93,0,0,0-1.21-.08,7.81,7.81,0,0,0-1.7.2,12.41,12.41,0,0,0-1.94.58h-.1v-2c.38-.1.92-.22,1.64-.34a12.73,12.73,0,0,1,2.11-.19,10.11,10.11,0,0,1,2.12.2,4.27,4.27,0,0,1,1.56.69,3,3,0,0,1,1,1.23,4.45,4.45,0,0,1,.34,1.86Zm-1.92-2.84v-3.2c-.59,0-1.29.08-2.09.15a10.83,10.83,0,0,0-1.9.3,3,3,0,0,0-1.35.74,1.79,1.79,0,0,0-.52,1.37,1.82,1.82,0,0,0,.6,1.49,2.75,2.75,0,0,0,1.82.5A4.41,4.41,0,0,0,282,299,9.29,9.29,0,0,0,283.52,298.05Z"/><path class="cls-5" d="M296.36,291.49h-.1a6.77,6.77,0,0,0-.84-.15,8.91,8.91,0,0,0-1,0,4,4,0,0,0-1.73.4,7.76,7.76,0,0,0-1.61,1v8.18h-1.93V289.37h1.93v1.7a9.46,9.46,0,0,1,2-1.31,4.42,4.42,0,0,1,1.8-.39,6.29,6.29,0,0,1,.73,0c.15,0,.38.05.68.1Z"/><path class="cls-5" d="M304.16,300.78A9.26,9.26,0,0,1,303,301a8.38,8.38,0,0,1-1.15.09,3.59,3.59,0,0,1-2.68-.94,4.3,4.3,0,0,1-.91-3.05V291h-1.31v-1.63h1.31v-3.31h1.93v3.31h4V291h-4v5.25c0,.6,0,1.08,0,1.42a2.27,2.27,0,0,0,.28.95,1.35,1.35,0,0,0,.63.6,2.87,2.87,0,0,0,1.21.19,3.58,3.58,0,0,0,1-.14,7,7,0,0,0,.74-.23h.1Z"/><path class="cls-5" d="M315.45,300.89h-1.93v-1.23l-.69.49a4.81,4.81,0,0,1-.85.5,5.84,5.84,0,0,1-1.12.4,6.29,6.29,0,0,1-1.47.16,3.71,3.71,0,0,1-2.64-1,3.49,3.49,0,0,1-1.08-2.63,3.67,3.67,0,0,1,.56-2.12,3.72,3.72,0,0,1,1.6-1.27,8.75,8.75,0,0,1,2.53-.63c1-.11,2-.2,3.16-.25V293a2.23,2.23,0,0,0-.23-1.09,1.6,1.6,0,0,0-.66-.68,2.68,2.68,0,0,0-1-.32,7.93,7.93,0,0,0-1.21-.08,7.81,7.81,0,0,0-1.7.2,12.41,12.41,0,0,0-1.94.58h-.1v-2c.38-.1.92-.22,1.64-.34a12.73,12.73,0,0,1,2.11-.19,10.11,10.11,0,0,1,2.12.2,4.27,4.27,0,0,1,1.56.69,3,3,0,0,1,1,1.23,4.45,4.45,0,0,1,.34,1.86Zm-1.93-2.84v-3.2c-.59,0-1.28.08-2.08.15a10.83,10.83,0,0,0-1.9.3,3.13,3.13,0,0,0-1.36.74,2.12,2.12,0,0,0,.09,2.86,2.75,2.75,0,0,0,1.82.5A4.44,4.44,0,0,0,312,299,8.82,8.82,0,0,0,313.52,298.05Z"/><path class="cls-5" d="M322.35,300.89h-2.46V298h2.46Z"/><path class="cls-5" d="M91.24,355.48H81.13V340.13H91.24V342H83.17v4.2h8.07V348H83.17v5.7h8.07Z"/><path class="cls-5" d="M104,355.48H102v-6.55a11.58,11.58,0,0,0-.09-1.49,2.59,2.59,0,0,0-.34-1.09,1.62,1.62,0,0,0-.74-.65,3.18,3.18,0,0,0-1.26-.21,4,4,0,0,0-1.66.39,9.51,9.51,0,0,0-1.66,1v8.6H94.32V344h1.94v1.27a7.89,7.89,0,0,1,1.88-1.17,4.94,4.94,0,0,1,2-.42,3.56,3.56,0,0,1,2.84,1.12,4.75,4.75,0,0,1,1,3.24Z"/><path class="cls-5" d="M123.62,354.76a12,12,0,0,1-1.84.72,6.51,6.51,0,0,1-1.85.26,6.75,6.75,0,0,1-2.29-.37,4.65,4.65,0,0,1-1.78-1.1,5,5,0,0,1-1.16-1.88,7.64,7.64,0,0,1-.42-2.65,6.13,6.13,0,0,1,1.55-4.43,5.42,5.42,0,0,1,4.1-1.61,6.81,6.81,0,0,1,1.95.28,9.69,9.69,0,0,1,1.74.68v2.15h-.1a7.42,7.42,0,0,0-1.83-1.06,5,5,0,0,0-1.84-.37,3.24,3.24,0,0,0-2.6,1.11,5.95,5.95,0,0,0,0,6.45,3.2,3.2,0,0,0,2.62,1.12,4.61,4.61,0,0,0,1.2-.16,4.83,4.83,0,0,0,1.09-.4,6.8,6.8,0,0,0,.79-.46c.25-.16.45-.3.59-.41h.1Z"/><path class="cls-5" d="M135.65,355.48h-1.93V354.2a9.66,9.66,0,0,1-1.88,1.19,4.77,4.77,0,0,1-2,.41,3.61,3.61,0,0,1-2.82-1.11,4.64,4.64,0,0,1-1-3.25V344H128v6.55a10.58,10.58,0,0,0,.09,1.5,2.65,2.65,0,0,0,.35,1.07,1.63,1.63,0,0,0,.72.66,3.08,3.08,0,0,0,1.29.21,4.11,4.11,0,0,0,1.64-.39,8.59,8.59,0,0,0,1.67-1V344h1.93Z"/><path class="cls-5" d="M148.42,355.48h-1.93v-1.22l-.7.48a4.48,4.48,0,0,1-.85.5,5.73,5.73,0,0,1-1.11.4,5.88,5.88,0,0,1-1.48.16,3.66,3.66,0,0,1-2.63-1,3.45,3.45,0,0,1-1.09-2.63,3.69,3.69,0,0,1,.56-2.12,3.77,3.77,0,0,1,1.61-1.27,8.6,8.6,0,0,1,2.52-.63c1-.11,2-.19,3.17-.25v-.3a2.38,2.38,0,0,0-.23-1.09,1.75,1.75,0,0,0-.67-.68,2.75,2.75,0,0,0-1-.32,9.3,9.3,0,0,0-1.2-.08,8.57,8.57,0,0,0-1.71.2,13.1,13.1,0,0,0-1.93.58h-.11v-2c.38-.1.93-.21,1.64-.34a12.82,12.82,0,0,1,2.12-.18,10,10,0,0,1,2.11.2,4.07,4.07,0,0,1,1.57.68,3.14,3.14,0,0,1,1,1.23,4.66,4.66,0,0,1,.34,1.87Zm-1.93-2.83v-3.21l-2.09.16a10.21,10.21,0,0,0-1.9.29,3.14,3.14,0,0,0-1.35.74,1.82,1.82,0,0,0-.52,1.38,1.84,1.84,0,0,0,.6,1.49,2.83,2.83,0,0,0,1.83.5,4.37,4.37,0,0,0,1.86-.4A8.31,8.31,0,0,0,146.49,352.65Z"/><path class="cls-5" d="M154.11,355.48h-1.94v-16h1.94Z"/><path class="cls-5" d="M167.28,359.73h-1.94v-5.55a6.63,6.63,0,0,1-1.78,1.15,4.87,4.87,0,0,1-1.92.38,3.92,3.92,0,0,1-3.27-1.58,7,7,0,0,1-1.22-4.37,7.31,7.31,0,0,1,.43-2.62,6,6,0,0,1,1.12-1.92,4.8,4.8,0,0,1,1.6-1.16,4.6,4.6,0,0,1,1.94-.41,6.32,6.32,0,0,1,1.65.2,7.37,7.37,0,0,1,1.45.61l.13-.49h1.81Zm-1.94-7.18V346a8.29,8.29,0,0,0-1.42-.51,6.26,6.26,0,0,0-1.34-.14,3,3,0,0,0-2.56,1.14,5.05,5.05,0,0,0-.87,3.14,5.73,5.73,0,0,0,.7,3.11,2.48,2.48,0,0,0,2.23,1.08,4.32,4.32,0,0,0,1.69-.36A7,7,0,0,0,165.34,352.55Z"/><path class="cls-5" d="M180.64,355.48H178.7V354.2a9.33,9.33,0,0,1-1.87,1.19,4.77,4.77,0,0,1-2,.41,3.65,3.65,0,0,1-2.83-1.11,4.69,4.69,0,0,1-1-3.25V344H173v6.55A12.55,12.55,0,0,0,173,352a3,3,0,0,0,.35,1.07,1.71,1.71,0,0,0,.73.66,3.06,3.06,0,0,0,1.28.21,4.15,4.15,0,0,0,1.65-.39,8.23,8.23,0,0,0,1.66-1V344h1.94Z"/><path class="cls-5" d="M186.54,342h-2.19v-2h2.19Zm-.12,13.44h-1.94V344h1.94Z"/><path class="cls-5" d="M199.89,349.93H191.4a5,5,0,0,0,.32,1.85,3.65,3.65,0,0,0,.88,1.29,3.43,3.43,0,0,0,1.27.74,5,5,0,0,0,1.63.25,6.44,6.44,0,0,0,2.36-.47,5.82,5.82,0,0,0,1.7-.92h.1v2.11a14.32,14.32,0,0,1-2,.69,7.9,7.9,0,0,1-2.14.28A6.22,6.22,0,0,1,191,354.2a5.86,5.86,0,0,1-1.6-4.41,6.3,6.3,0,0,1,1.54-4.48,5.25,5.25,0,0,1,4.05-1.66,4.67,4.67,0,0,1,3.6,1.36,5.47,5.47,0,0,1,1.26,3.86ZM198,348.44a3.37,3.37,0,0,0-.77-2.36,2.93,2.93,0,0,0-2.3-.84,3.38,3.38,0,0,0-2.48.92,3.62,3.62,0,0,0-1,2.28Z"/><path class="cls-5" d="M210,346.08h-.1a6.77,6.77,0,0,0-.84-.15,8.72,8.72,0,0,0-1-.05,4.1,4.1,0,0,0-1.74.4,8.19,8.19,0,0,0-1.6,1v8.17h-1.94V344h1.94v1.7a9.52,9.52,0,0,1,2-1.32,4.58,4.58,0,0,1,1.8-.38l.73,0,.68.1Z"/><path class="cls-5" d="M236.06,355.48h-1.93v-6.55c0-.5,0-1-.07-1.44a3,3,0,0,0-.29-1.1,1.5,1.5,0,0,0-.67-.67,2.93,2.93,0,0,0-1.28-.23,3.61,3.61,0,0,0-1.63.41,9.47,9.47,0,0,0-1.63,1c0,.15,0,.34.05.55s0,.41,0,.62v7.37h-1.94v-6.55c0-.51,0-1-.06-1.45a3,3,0,0,0-.29-1.1,1.52,1.52,0,0,0-.68-.67,3,3,0,0,0-1.28-.22,3.58,3.58,0,0,0-1.59.39,10.7,10.7,0,0,0-1.59,1v8.6h-1.94V344h1.94v1.27a8.4,8.4,0,0,1,1.81-1.17,4.48,4.48,0,0,1,1.92-.42,3.83,3.83,0,0,1,2,.49,3.12,3.12,0,0,1,1.22,1.37,9.27,9.27,0,0,1,2.14-1.42,4.87,4.87,0,0,1,2.07-.44,3.32,3.32,0,0,1,2.8,1.15,5.07,5.07,0,0,1,.9,3.21Z"/><path class="cls-5" d="M249.34,355.48H247.4V354.2a9.33,9.33,0,0,1-1.87,1.19,4.77,4.77,0,0,1-2,.41,3.65,3.65,0,0,1-2.83-1.11,4.69,4.69,0,0,1-1-3.25V344h1.94v6.55a12.55,12.55,0,0,0,.08,1.5,2.81,2.81,0,0,0,.35,1.07,1.75,1.75,0,0,0,.72.66,3.14,3.14,0,0,0,1.29.21,4.15,4.15,0,0,0,1.65-.39,8.23,8.23,0,0,0,1.66-1V344h1.94Z"/><path class="cls-5" d="M262.79,349.93h-8.48a5,5,0,0,0,.32,1.85,3.52,3.52,0,0,0,.88,1.29,3.35,3.35,0,0,0,1.27.74,4.92,4.92,0,0,0,1.62.25,6.49,6.49,0,0,0,2.37-.47,5.74,5.74,0,0,0,1.69-.92h.11v2.11a14.78,14.78,0,0,1-2,.69,8,8,0,0,1-2.15.28A6.18,6.18,0,0,1,254,354.2a5.87,5.87,0,0,1-1.61-4.41,6.3,6.3,0,0,1,1.54-4.48,5.27,5.27,0,0,1,4.06-1.66,4.64,4.64,0,0,1,3.59,1.36,5.47,5.47,0,0,1,1.26,3.86Zm-1.88-1.49a3.47,3.47,0,0,0-.77-2.36,2.93,2.93,0,0,0-2.3-.84,3.36,3.36,0,0,0-2.48.92,3.52,3.52,0,0,0-1.05,2.28Z"/><path class="cls-5" d="M267.69,355.48h-1.94v-16h1.94Z"/><path class="cls-5" d="M273.49,355.48h-1.94v-16h1.94Z"/><path class="cls-5" d="M287,349.93h-8.49a4.81,4.81,0,0,0,.33,1.85,3.5,3.5,0,0,0,.87,1.29,3.43,3.43,0,0,0,1.27.74,5,5,0,0,0,1.63.25,6.44,6.44,0,0,0,2.36-.47,5.82,5.82,0,0,0,1.7-.92h.1v2.11a14.32,14.32,0,0,1-2,.69,7.9,7.9,0,0,1-2.14.28,6.22,6.22,0,0,1-4.48-1.55,5.86,5.86,0,0,1-1.6-4.41,6.3,6.3,0,0,1,1.54-4.48,5.25,5.25,0,0,1,4.05-1.66,4.67,4.67,0,0,1,3.6,1.36,5.47,5.47,0,0,1,1.26,3.86Zm-1.89-1.49a3.37,3.37,0,0,0-.77-2.36,2.93,2.93,0,0,0-2.3-.84,3.38,3.38,0,0,0-2.48.92,3.62,3.62,0,0,0-1,2.28Z"/><path class="cls-5" d="M306.66,355.48h-1.94v-1.2A6.86,6.86,0,0,1,303,355.4a4.75,4.75,0,0,1-2,.4,3.9,3.9,0,0,1-3.27-1.59,7.06,7.06,0,0,1-1.21-4.4,7.85,7.85,0,0,1,.41-2.61,6,6,0,0,1,1.13-1.94,4.67,4.67,0,0,1,1.64-1.2,4.62,4.62,0,0,1,1.93-.41,6.08,6.08,0,0,1,1.61.19,7.28,7.28,0,0,1,1.47.59v-5h1.94Zm-1.94-2.83V346a7.63,7.63,0,0,0-1.4-.49,7,7,0,0,0-1.35-.13,3.09,3.09,0,0,0-2.54,1.13,5.08,5.08,0,0,0-.9,3.22,5.68,5.68,0,0,0,.7,3.12,2.48,2.48,0,0,0,2.24,1.07,4.24,4.24,0,0,0,1.67-.37A7,7,0,0,0,304.72,352.65Z"/><path class="cls-5" d="M320.11,349.93h-8.48a5,5,0,0,0,.32,1.85,3.4,3.4,0,0,0,.88,1.29,3.35,3.35,0,0,0,1.27.74,4.92,4.92,0,0,0,1.62.25,6.49,6.49,0,0,0,2.37-.47,5.74,5.74,0,0,0,1.69-.92h.11v2.11a14.78,14.78,0,0,1-2,.69,8,8,0,0,1-2.15.28,6.18,6.18,0,0,1-4.47-1.55,5.87,5.87,0,0,1-1.61-4.41,6.3,6.3,0,0,1,1.54-4.48,5.27,5.27,0,0,1,4.06-1.66,4.64,4.64,0,0,1,3.59,1.36,5.47,5.47,0,0,1,1.26,3.86Zm-1.88-1.49a3.47,3.47,0,0,0-.77-2.36,3,3,0,0,0-2.3-.84,3.36,3.36,0,0,0-2.48.92,3.52,3.52,0,0,0-1.05,2.28Z"/><path class="cls-5" d="M325,355.48h-1.94v-16H325Z"/><path class="cls-5" d="M346.46,344.77a4.89,4.89,0,0,1-.35,1.89,4.48,4.48,0,0,1-1,1.51,5,5,0,0,1-1.87,1.19,7.87,7.87,0,0,1-2.73.4h-2.05v5.72h-2V340.13h4.17a10.39,10.39,0,0,1,2.34.23,5.33,5.33,0,0,1,1.7.73,4.09,4.09,0,0,1,1.35,1.46A4.62,4.62,0,0,1,346.46,344.77Zm-2.12.05a3.12,3.12,0,0,0-.28-1.38,2.28,2.28,0,0,0-.84-1,3.68,3.68,0,0,0-1.13-.46,7.84,7.84,0,0,0-1.6-.14h-2V348h1.73a7.88,7.88,0,0,0,2-.22,2.89,2.89,0,0,0,1.25-.71,2.86,2.86,0,0,0,.69-1A3.6,3.6,0,0,0,344.34,344.82Z"/><path class="cls-5" d="M358.55,355.48h-1.94V354.2a9.38,9.38,0,0,1-1.88,1.19,4.77,4.77,0,0,1-2,.41,3.61,3.61,0,0,1-2.82-1.11,4.64,4.64,0,0,1-1-3.25V344h1.94v6.55a10.75,10.75,0,0,0,.08,1.5,2.65,2.65,0,0,0,.35,1.07,1.69,1.69,0,0,0,.72.66,3.14,3.14,0,0,0,1.29.21,4.11,4.11,0,0,0,1.64-.39,8.3,8.3,0,0,0,1.67-1V344h1.94Z"/><path class="cls-5" d="M372,349.93h-8.49a4.81,4.81,0,0,0,.33,1.85,3.5,3.5,0,0,0,.87,1.29,3.43,3.43,0,0,0,1.27.74,5,5,0,0,0,1.63.25,6.44,6.44,0,0,0,2.36-.47,5.82,5.82,0,0,0,1.7-.92h.1v2.11a14.32,14.32,0,0,1-2,.69,7.9,7.9,0,0,1-2.14.28,6.22,6.22,0,0,1-4.48-1.55,5.86,5.86,0,0,1-1.6-4.41,6.3,6.3,0,0,1,1.54-4.48,5.25,5.25,0,0,1,4.05-1.66,4.67,4.67,0,0,1,3.6,1.36,5.47,5.47,0,0,1,1.26,3.86Zm-1.89-1.49a3.41,3.41,0,0,0-.76-2.36,3,3,0,0,0-2.31-.84,3.38,3.38,0,0,0-2.48.92,3.62,3.62,0,0,0-1.05,2.28Z"/><path class="cls-5" d="M382.12,346.08H382a6.77,6.77,0,0,0-.84-.15,8.72,8.72,0,0,0-1-.05,4.1,4.1,0,0,0-1.74.4,8.19,8.19,0,0,0-1.6,1v8.17h-1.94V344h1.94v1.7a9.52,9.52,0,0,1,2-1.32,4.58,4.58,0,0,1,1.8-.38l.73,0,.68.1Z"/><path class="cls-5" d="M389.93,355.38a11.9,11.9,0,0,1-1.19.24,8.5,8.5,0,0,1-1.15.09,3.56,3.56,0,0,1-2.68-.95,4.22,4.22,0,0,1-.92-3V345.6h-1.31V344H384v-3.31h1.94V344h4v1.63h-4v5.24c0,.61,0,1.08,0,1.42a2.24,2.24,0,0,0,.29.95,1.4,1.4,0,0,0,.62.61,3,3,0,0,0,1.21.19,3.87,3.87,0,0,0,1-.14,6.28,6.28,0,0,0,.74-.23h.11Z"/><path class="cls-5" d="M402.08,349.73a6.45,6.45,0,0,1-1.44,4.44,5.42,5.42,0,0,1-7.75,0,7.58,7.58,0,0,1,0-8.89,5.42,5.42,0,0,1,7.75,0A6.49,6.49,0,0,1,402.08,349.73Zm-2,0a5.24,5.24,0,0,0-.88-3.33,3.3,3.3,0,0,0-4.88,0,5.3,5.3,0,0,0-.87,3.33,5.19,5.19,0,0,0,.88,3.28,3.22,3.22,0,0,0,4.87,0A5.19,5.19,0,0,0,400.08,349.73Z"/><path class="cls-5" d="M421.84,355.48h-1.93v-1.2a7.09,7.09,0,0,1-1.75,1.12,4.75,4.75,0,0,1-2,.4,3.9,3.9,0,0,1-3.27-1.59,7.06,7.06,0,0,1-1.21-4.4,7.6,7.6,0,0,1,.42-2.61,5.87,5.87,0,0,1,1.13-1.94,4.55,4.55,0,0,1,1.63-1.2,4.65,4.65,0,0,1,1.93-.41,6,6,0,0,1,1.61.19,7.59,7.59,0,0,1,1.48.59v-5h1.93Zm-1.93-2.83V346a7.7,7.7,0,0,0-1.41-.49,7,7,0,0,0-1.35-.13,3.07,3.07,0,0,0-2.53,1.13,5,5,0,0,0-.91,3.22,5.68,5.68,0,0,0,.7,3.12,2.5,2.5,0,0,0,2.25,1.07,4.28,4.28,0,0,0,1.67-.37A7.25,7.25,0,0,0,419.91,352.65Z"/><path class="cls-5" d="M435.3,349.93h-8.49a5,5,0,0,0,.32,1.85,3.65,3.65,0,0,0,.88,1.29,3.43,3.43,0,0,0,1.27.74,4.94,4.94,0,0,0,1.63.25,6.44,6.44,0,0,0,2.36-.47,5.82,5.82,0,0,0,1.7-.92h.1v2.11a14.32,14.32,0,0,1-2,.69,7.9,7.9,0,0,1-2.14.28,6.21,6.21,0,0,1-4.48-1.55,5.87,5.87,0,0,1-1.61-4.41,6.31,6.31,0,0,1,1.55-4.48,5.23,5.23,0,0,1,4.05-1.66A4.63,4.63,0,0,1,434,345a5.43,5.43,0,0,1,1.27,3.86Zm-1.89-1.49a3.42,3.42,0,0,0-.77-2.36,2.93,2.93,0,0,0-2.3-.84,3.36,3.36,0,0,0-2.48.92,3.57,3.57,0,0,0-1.05,2.28Z"/><path class="cls-5" d="M92.28,378.81a4.16,4.16,0,0,1-.41,1.77,4.26,4.26,0,0,1-1.17,1.49,6.36,6.36,0,0,1-1.93,1,8.2,8.2,0,0,1-2.64.37,13,13,0,0,1-3-.31,14.28,14.28,0,0,1-2.69-.92v-2.55h.14a8.7,8.7,0,0,0,2.69,1.49,8.9,8.9,0,0,0,2.87.53A5.27,5.27,0,0,0,89.1,381a2.19,2.19,0,0,0,1.06-1.9,2,2,0,0,0-.5-1.5,3.33,3.33,0,0,0-1.52-.76c-.52-.13-1.08-.25-1.68-.34s-1.24-.2-1.91-.34a5.61,5.61,0,0,1-3-1.48,4,4,0,0,1,.64-5.88,6.67,6.67,0,0,1,4.13-1.24,13.68,13.68,0,0,1,3,.31,13.17,13.17,0,0,1,2.39.77v2.41h-.14a6.84,6.84,0,0,0-2.3-1.23,8.92,8.92,0,0,0-2.93-.49,4.52,4.52,0,0,0-2.63.68,2.06,2.06,0,0,0-1,1.75,2.18,2.18,0,0,0,.5,1.51,3.36,3.36,0,0,0,1.74.83c.44.1,1.07.21,1.88.35s1.5.28,2.06.42a5.45,5.45,0,0,1,2.58,1.37A3.64,3.64,0,0,1,92.28,378.81Z"/><path class="cls-5" d="M104.35,383.19h-1.92V382l-.7.49a5.08,5.08,0,0,1-.85.5,5.75,5.75,0,0,1-1.11.39,5.88,5.88,0,0,1-1.48.16,3.7,3.7,0,0,1-2.64-1,3.48,3.48,0,0,1-1.08-2.63,3.69,3.69,0,0,1,.56-2.12,3.77,3.77,0,0,1,1.61-1.27,8.6,8.6,0,0,1,2.52-.63c1-.11,2-.19,3.17-.25v-.29a2.27,2.27,0,0,0-.24-1.1,1.66,1.66,0,0,0-.66-.68,3,3,0,0,0-1-.32,9.34,9.34,0,0,0-1.21-.08,8.56,8.56,0,0,0-1.7.2,14.44,14.44,0,0,0-1.93.58h-.11v-2c.38-.11.93-.22,1.64-.35a12.82,12.82,0,0,1,2.12-.18,10,10,0,0,1,2.11.2,3.9,3.9,0,0,1,1.56.69,2.89,2.89,0,0,1,1,1.22,4.5,4.5,0,0,1,.34,1.87Zm-1.92-2.83v-3.21l-2.09.16a10.83,10.83,0,0,0-1.9.3,3,3,0,0,0-1.35.73,2.12,2.12,0,0,0,.08,2.87,2.82,2.82,0,0,0,1.82.5,4.27,4.27,0,0,0,1.87-.4A8.31,8.31,0,0,0,102.43,380.36Z"/><path class="cls-5" d="M117.72,383.19h-1.94v-6.55a10,10,0,0,0-.1-1.49,2.59,2.59,0,0,0-.34-1.09,1.62,1.62,0,0,0-.74-.65,3.18,3.18,0,0,0-1.26-.21,3.91,3.91,0,0,0-1.66.4,8.42,8.42,0,0,0-1.66,1v8.59h-1.93V371.68H110V373a7.63,7.63,0,0,1,1.88-1.18,5,5,0,0,1,2-.42,3.59,3.59,0,0,1,2.85,1.12,4.81,4.81,0,0,1,1,3.24Z"/><path class="cls-5" d="M127.43,383.09a9.79,9.79,0,0,1-1.2.24,8.24,8.24,0,0,1-1.14.09,3.56,3.56,0,0,1-2.68-.95,4.21,4.21,0,0,1-.92-3v-6.12h-1.31v-1.63h1.31v-3.31h1.94v3.31h4v1.63h-4v5.24c0,.61,0,1.08,0,1.42a2.19,2.19,0,0,0,.29,1,1.38,1.38,0,0,0,.62.6,3,3,0,0,0,1.21.19,3.87,3.87,0,0,0,1-.14,7,7,0,0,0,.74-.23h.11Z"/><path class="cls-5" d="M138.71,383.19h-1.92V382c-.18.11-.41.28-.7.49a5.51,5.51,0,0,1-.85.5,5.75,5.75,0,0,1-1.11.39,5.88,5.88,0,0,1-1.48.16,3.67,3.67,0,0,1-2.64-1,3.48,3.48,0,0,1-1.08-2.63,3.69,3.69,0,0,1,.56-2.12,3.77,3.77,0,0,1,1.61-1.27,8.6,8.6,0,0,1,2.52-.63c1-.11,2-.19,3.17-.25v-.29a2.27,2.27,0,0,0-.24-1.1,1.66,1.66,0,0,0-.66-.68,3.11,3.11,0,0,0-1-.32,9.46,9.46,0,0,0-1.21-.08,8.48,8.48,0,0,0-1.7.2,15,15,0,0,0-1.94.58H130v-2c.38-.11.93-.22,1.64-.35a12.7,12.7,0,0,1,2.11-.18,10.11,10.11,0,0,1,2.12.2,4,4,0,0,1,1.56.69,2.89,2.89,0,0,1,1,1.22,4.5,4.5,0,0,1,.34,1.87Zm-1.92-2.83v-3.21l-2.09.16a10.83,10.83,0,0,0-1.9.3,3,3,0,0,0-1.35.73,2.12,2.12,0,0,0,.08,2.87,2.82,2.82,0,0,0,1.82.5,4.27,4.27,0,0,0,1.87-.4A8.64,8.64,0,0,0,136.79,380.36Z"/><path class="cls-5" d="M163.69,383.19h-2V370l-4.27,9h-1.21l-4.24-9v13.22H150V367.84h2.79l4.09,8.55,4-8.55h2.83Z"/><path class="cls-5" d="M176.61,383.19h-1.93V382c-.17.11-.4.28-.69.49a6,6,0,0,1-.85.5,6.11,6.11,0,0,1-1.12.39,5.85,5.85,0,0,1-1.47.16,3.67,3.67,0,0,1-2.64-1,3.48,3.48,0,0,1-1.08-2.63,3.61,3.61,0,0,1,.56-2.12,3.73,3.73,0,0,1,1.6-1.27,8.59,8.59,0,0,1,2.53-.63c1-.11,2-.19,3.16-.25v-.29a2.39,2.39,0,0,0-.23-1.1,1.69,1.69,0,0,0-.67-.68,3,3,0,0,0-1-.32,9.46,9.46,0,0,0-1.21-.08,8.4,8.4,0,0,0-1.7.2,14.56,14.56,0,0,0-1.94.58h-.1v-2c.37-.11.92-.22,1.64-.35a12.7,12.7,0,0,1,2.11-.18,10.11,10.11,0,0,1,2.12.2,4,4,0,0,1,1.56.69,3,3,0,0,1,1,1.22,4.5,4.5,0,0,1,.34,1.87Zm-1.93-2.83v-3.21l-2.09.16a11,11,0,0,0-1.9.3,3.08,3.08,0,0,0-1.35.73,2.15,2.15,0,0,0,.08,2.87,2.83,2.83,0,0,0,1.83.5,4.22,4.22,0,0,0,1.86-.4A8,8,0,0,0,174.68,380.36Z"/><path class="cls-5" d="M187.53,373.79h-.11a6.46,6.46,0,0,0-.84-.15,9,9,0,0,0-1,0,4,4,0,0,0-1.73.39,8,8,0,0,0-1.61,1v8.17h-1.94V371.68h1.94v1.7a9.78,9.78,0,0,1,2-1.32,4.58,4.58,0,0,1,1.8-.38l.74,0,.68.1Z"/><path class="cls-5" d="M195.33,383.09a9.26,9.26,0,0,1-1.19.24,8.38,8.38,0,0,1-1.15.09,3.56,3.56,0,0,1-2.68-.95,4.25,4.25,0,0,1-.92-3v-6.12h-1.31v-1.63h1.31v-3.31h1.94v3.31h4v1.63h-4v5.24c0,.61,0,1.08,0,1.42a2.49,2.49,0,0,0,.29,1,1.43,1.43,0,0,0,.62.6,3.1,3.1,0,0,0,1.22.19,3.86,3.86,0,0,0,1-.14,6.6,6.6,0,0,0,.75-.23h.1Z"/><path class="cls-5" d="M206.62,383.19h-1.93V382l-.7.49a5.08,5.08,0,0,1-.85.5,5.75,5.75,0,0,1-1.11.39,5.85,5.85,0,0,1-1.47.16,3.67,3.67,0,0,1-2.64-1,3.48,3.48,0,0,1-1.08-2.63,3.61,3.61,0,0,1,.56-2.12,3.73,3.73,0,0,1,1.6-1.27,8.59,8.59,0,0,1,2.53-.63c1-.11,2-.19,3.16-.25v-.29a2.39,2.39,0,0,0-.23-1.1,1.75,1.75,0,0,0-.67-.68,3,3,0,0,0-1-.32,9.18,9.18,0,0,0-1.2-.08,8.4,8.4,0,0,0-1.7.2,14.56,14.56,0,0,0-1.94.58h-.1v-2c.37-.11.92-.22,1.63-.35a12.82,12.82,0,0,1,2.12-.18,10.11,10.11,0,0,1,2.12.2,4,4,0,0,1,1.56.69,3,3,0,0,1,1,1.22,4.5,4.5,0,0,1,.34,1.87Zm-1.93-2.83v-3.21l-2.09.16a11,11,0,0,0-1.9.3,3,3,0,0,0-1.35.73,1.85,1.85,0,0,0-.51,1.38,1.82,1.82,0,0,0,.59,1.49,2.83,2.83,0,0,0,1.83.5,4.22,4.22,0,0,0,1.86-.4A8,8,0,0,0,204.69,380.36Z"/><path class="cls-5" d="M213.51,383.19h-2.46v-2.94h2.46Z"/></g></g></svg>