<svg xmlns="http://www.w3.org/2000/svg" viewBox="0 0 562.62 470.8"><defs><style>.cls-1,.cls-3{fill:#fff;}.cls-1{opacity:0;}.cls-2{fill:#035aa6;}.cls-4{fill:#ffd053;}.cls-5{fill:#84bf2c;}</style></defs><title>slide10_pregunta7</title><g id="Capa_2" data-name="Capa 2"><g id="Layer_7" data-name="Layer 7"><rect class="cls-1" width="562.62" height="470.8"/><rect class="cls-2" x="66.24" y="248.43" width="424.94" height="71.91" rx="12.02"/><path class="cls-3" d="M90.91,272.83H80.79V257.48H90.91v1.81H82.83v4.21h8.08v1.81H82.83V271h8.08Z"/><path class="cls-3" d="M103.62,272.83h-1.94v-6.56a11.7,11.7,0,0,0-.09-1.49,2.75,2.75,0,0,0-.34-1.08,1.55,1.55,0,0,0-.75-.65,3.16,3.16,0,0,0-1.25-.21,4,4,0,0,0-1.66.39,8.62,8.62,0,0,0-1.66,1v8.6H94V261.31h1.94v1.28a7.84,7.84,0,0,1,1.87-1.17,5,5,0,0,1,2-.43,3.57,3.57,0,0,1,2.85,1.13,4.81,4.81,0,0,1,1,3.24Z"/><path class="cls-3" d="M128.62,276.59a7.64,7.64,0,0,1-1.22.22,10.19,10.19,0,0,1-1.24.07,4.17,4.17,0,0,1-2.88-1,3.92,3.92,0,0,1-1.18-2.82l-.48.05-.45,0a7.73,7.73,0,0,1-2.94-.54,6,6,0,0,1-2.25-1.55,6.93,6.93,0,0,1-1.43-2.51,11.67,11.67,0,0,1,0-6.76,7.24,7.24,0,0,1,1.44-2.55,5.8,5.8,0,0,1,2.25-1.54,8.33,8.33,0,0,1,5.9,0,6.28,6.28,0,0,1,2.23,1.54,7,7,0,0,1,1.44,2.53,10.7,10.7,0,0,1,.5,3.39,9.14,9.14,0,0,1-1.15,4.74,6.21,6.21,0,0,1-3.09,2.7,3,3,0,0,0,.56,1.83,2.28,2.28,0,0,0,1.87.65,5.17,5.17,0,0,0,1-.13,8,8,0,0,0,.83-.23h.28Zm-2.44-11.43a7,7,0,0,0-1.34-4.61,4.94,4.94,0,0,0-7.33,0,7.08,7.08,0,0,0-1.34,4.61,6.94,6.94,0,0,0,1.37,4.62,4.93,4.93,0,0,0,7.29,0A7,7,0,0,0,126.18,265.16Z"/><path class="cls-3" d="M140.94,272.83H139v-1.28a9.38,9.38,0,0,1-1.88,1.19,4.77,4.77,0,0,1-2,.41,3.61,3.61,0,0,1-2.82-1.11,4.64,4.64,0,0,1-1-3.25v-7.48h1.94v6.56a10.75,10.75,0,0,0,.08,1.5,2.65,2.65,0,0,0,.35,1.07,1.69,1.69,0,0,0,.72.66,3.35,3.35,0,0,0,1.29.2,4.11,4.11,0,0,0,1.64-.39,7.47,7.47,0,0,0,1.67-1v-8.6h1.94Z"/><path class="cls-3" d="M146.83,259.39h-2.18v-2h2.18Zm-.12,13.44h-1.94V261.31h1.94Z"/><path class="cls-3" d="M156.52,272.73a11.45,11.45,0,0,1-1.19.23,7.15,7.15,0,0,1-1.15.1,3.59,3.59,0,0,1-2.68-.95,4.27,4.27,0,0,1-.91-3v-6.13h-1.31v-1.63h1.31V258h1.93v3.3h4v1.63h-4v5.25c0,.61,0,1.08,0,1.42a2.23,2.23,0,0,0,.28.95,1.31,1.31,0,0,0,.63.6,2.87,2.87,0,0,0,1.21.19,4,4,0,0,0,1-.13,6.49,6.49,0,0,0,.74-.24h.1Z"/><path class="cls-3" d="M168.68,267.08a6.48,6.48,0,0,1-1.44,4.44,5.42,5.42,0,0,1-7.75,0,7.58,7.58,0,0,1,0-8.89,5.4,5.4,0,0,1,7.75,0A6.49,6.49,0,0,1,168.68,267.08Zm-2,0a5.24,5.24,0,0,0-.88-3.33,3.28,3.28,0,0,0-4.88,0,5.3,5.3,0,0,0-.87,3.33,5.21,5.21,0,0,0,.88,3.28,2.9,2.9,0,0,0,2.44,1.12,2.94,2.94,0,0,0,2.43-1.11A5.27,5.27,0,0,0,166.68,267.08Z"/><path class="cls-3" d="M175.39,269.89l-2.91,6.75H171l1.79-6.75Z"/><path class="cls-3" d="M196.11,267.27h-8.48a4.75,4.75,0,0,0,.32,1.85,3.46,3.46,0,0,0,.87,1.3,3.53,3.53,0,0,0,1.28.74,5.19,5.19,0,0,0,1.62.25,6.53,6.53,0,0,0,2.37-.47,5.74,5.74,0,0,0,1.69-.92h.1v2.11a16.84,16.84,0,0,1-2,.69,8.31,8.31,0,0,1-2.14.28,6.18,6.18,0,0,1-4.47-1.55,5.83,5.83,0,0,1-1.61-4.41,6.34,6.34,0,0,1,1.54-4.49,5.31,5.31,0,0,1,4.06-1.66,4.65,4.65,0,0,1,3.59,1.37,5.45,5.45,0,0,1,1.26,3.86Zm-1.89-1.48a3.4,3.4,0,0,0-.76-2.36,3,3,0,0,0-2.31-.84,3.39,3.39,0,0,0-2.48.92,3.56,3.56,0,0,0-1,2.28Z"/><path class="cls-3" d="M208.68,272.83h-1.94v-6.56a11.7,11.7,0,0,0-.09-1.49,2.75,2.75,0,0,0-.34-1.08,1.57,1.57,0,0,0-.74-.65,3.25,3.25,0,0,0-1.26-.21,4,4,0,0,0-1.66.39,8.62,8.62,0,0,0-1.66,1v8.6h-1.94V261.31H201v1.28a7.84,7.84,0,0,1,1.87-1.17,5,5,0,0,1,2-.43,3.57,3.57,0,0,1,2.85,1.13,4.81,4.81,0,0,1,1,3.24Z"/><path class="cls-3" d="M229.47,267.27H221a4.75,4.75,0,0,0,.32,1.85,3.46,3.46,0,0,0,.87,1.3,3.53,3.53,0,0,0,1.28.74,5.19,5.19,0,0,0,1.62.25,6.53,6.53,0,0,0,2.37-.47,5.74,5.74,0,0,0,1.69-.92h.11v2.11a18.18,18.18,0,0,1-2,.69,8.45,8.45,0,0,1-2.15.28,6.18,6.18,0,0,1-4.47-1.55,5.83,5.83,0,0,1-1.61-4.41,6.34,6.34,0,0,1,1.54-4.49,5.31,5.31,0,0,1,4.06-1.66,4.65,4.65,0,0,1,3.59,1.37,5.45,5.45,0,0,1,1.26,3.86Zm-1.89-1.48a3.4,3.4,0,0,0-.76-2.36,3,3,0,0,0-2.31-.84,3.39,3.39,0,0,0-2.48.92,3.56,3.56,0,0,0-1,2.28Z"/><path class="cls-3" d="M234.37,272.83h-1.94v-16h1.94Z"/><path class="cls-3" d="M255.76,266.93a7.68,7.68,0,0,1-.4,2.56,5.61,5.61,0,0,1-1.14,2,4.74,4.74,0,0,1-3.55,1.6,6.33,6.33,0,0,1-1.63-.2,6.47,6.47,0,0,1-1.47-.61v4.83h-1.94V261.31h1.94v1.21a7.81,7.81,0,0,1,1.73-1.09,5,5,0,0,1,2.06-.44,3.79,3.79,0,0,1,3.24,1.58A7.22,7.22,0,0,1,255.76,266.93Zm-2,.05a5.56,5.56,0,0,0-.71-3.11,2.46,2.46,0,0,0-2.19-1,4.31,4.31,0,0,0-1.68.36,7.56,7.56,0,0,0-1.61.95v6.53a8.42,8.42,0,0,0,1.41.5,6.19,6.19,0,0,0,1.35.13,3.08,3.08,0,0,0,2.52-1.09A5,5,0,0,0,253.76,267Z"/><path class="cls-3" d="M268.33,272.83h-1.94v-1.28a9.38,9.38,0,0,1-1.88,1.19,4.77,4.77,0,0,1-2,.41,3.61,3.61,0,0,1-2.82-1.11,4.69,4.69,0,0,1-1-3.25v-7.48h1.94v6.56a10.75,10.75,0,0,0,.08,1.5,2.65,2.65,0,0,0,.35,1.07,1.69,1.69,0,0,0,.72.66,3.35,3.35,0,0,0,1.29.2,4.11,4.11,0,0,0,1.64-.39,7.47,7.47,0,0,0,1.67-1v-8.6h1.94Z"/><path class="cls-3" d="M281.77,272.83h-1.94v-6.56a11.7,11.7,0,0,0-.09-1.49,2.75,2.75,0,0,0-.34-1.08,1.57,1.57,0,0,0-.74-.65,3.25,3.25,0,0,0-1.26-.21,4,4,0,0,0-1.66.39,8.62,8.62,0,0,0-1.66,1v8.6h-1.94V261.31h1.94v1.28a7.7,7.7,0,0,1,1.88-1.17,4.91,4.91,0,0,1,2-.43,3.56,3.56,0,0,1,2.84,1.13,4.81,4.81,0,0,1,1,3.24Z"/><path class="cls-3" d="M291.48,272.73a11.45,11.45,0,0,1-1.19.23,7.15,7.15,0,0,1-1.15.1,3.58,3.58,0,0,1-2.68-.95,4.27,4.27,0,0,1-.92-3v-6.13h-1.31v-1.63h1.31V258h1.94v3.3h4v1.63h-4v5.25c0,.61,0,1.08,0,1.42a2.39,2.39,0,0,0,.29.95,1.33,1.33,0,0,0,.62.6,2.92,2.92,0,0,0,1.22.19,4,4,0,0,0,1-.13,6.49,6.49,0,0,0,.74-.24h.1Z"/><path class="cls-3" d="M303.64,267.08a6.48,6.48,0,0,1-1.45,4.44,5.41,5.41,0,0,1-7.74,0,7.58,7.58,0,0,1,0-8.89,5.39,5.39,0,0,1,7.74,0A6.49,6.49,0,0,1,303.64,267.08Zm-2,0a5.3,5.3,0,0,0-.88-3.33,3.28,3.28,0,0,0-4.88,0,6.71,6.71,0,0,0,0,6.61,3.22,3.22,0,0,0,4.87,0A5.2,5.2,0,0,0,301.64,267.08Z"/><path class="cls-3" d="M324.19,266.93a7.68,7.68,0,0,1-.4,2.56,5.75,5.75,0,0,1-1.13,2,4.79,4.79,0,0,1-1.61,1.18,4.62,4.62,0,0,1-1.95.42,6.19,6.19,0,0,1-1.62-.2,6.35,6.35,0,0,1-1.48-.61v4.83h-1.94V261.31H316v1.21a7.81,7.81,0,0,1,1.73-1.09,5,5,0,0,1,2.06-.44,3.79,3.79,0,0,1,3.24,1.58A7.15,7.15,0,0,1,324.19,266.93Zm-2,.05a5.48,5.48,0,0,0-.71-3.11,2.45,2.45,0,0,0-2.18-1,4.24,4.24,0,0,0-1.68.36,7.39,7.39,0,0,0-1.62.95v6.53a8.42,8.42,0,0,0,1.41.5,6.19,6.19,0,0,0,1.35.13,3.11,3.11,0,0,0,2.53-1.09A5,5,0,0,0,322.19,267Z"/><path class="cls-3" d="M336.16,272.83h-1.93V271.6l-.69.49a4.81,4.81,0,0,1-.85.5,6.1,6.1,0,0,1-1.12.4,5.85,5.85,0,0,1-1.47.16,3.67,3.67,0,0,1-2.64-1,3.48,3.48,0,0,1-1.08-2.63,3.69,3.69,0,0,1,.56-2.12,3.73,3.73,0,0,1,1.6-1.27,8.67,8.67,0,0,1,2.53-.63c1-.11,2-.19,3.16-.25v-.3a2.23,2.23,0,0,0-.23-1.09,1.66,1.66,0,0,0-.66-.68,2.88,2.88,0,0,0-1-.32,7.93,7.93,0,0,0-1.21-.08,7.74,7.74,0,0,0-1.7.2,13.21,13.21,0,0,0-1.94.58h-.1v-2c.38-.1.92-.21,1.64-.34a12.7,12.7,0,0,1,2.11-.18,9.48,9.48,0,0,1,2.12.2,4.1,4.1,0,0,1,1.56.68,3.14,3.14,0,0,1,1,1.23,4.47,4.47,0,0,1,.34,1.87ZM334.23,270v-3.2c-.59,0-1.28.08-2.08.15a11,11,0,0,0-1.91.3,3.26,3.26,0,0,0-1.35.74,1.83,1.83,0,0,0-.51,1.37,1.85,1.85,0,0,0,.6,1.5,2.79,2.79,0,0,0,1.82.5,4.45,4.45,0,0,0,1.87-.4A8.27,8.27,0,0,0,334.23,270Z"/><path class="cls-3" d="M348.41,272.11a12.41,12.41,0,0,1-1.84.72,6.56,6.56,0,0,1-1.85.26,6.71,6.71,0,0,1-2.29-.37,4.48,4.48,0,0,1-1.78-1.11,4.81,4.81,0,0,1-1.17-1.87,7.89,7.89,0,0,1-.41-2.65,6.11,6.11,0,0,1,1.55-4.44,5.43,5.43,0,0,1,4.1-1.6,7.1,7.1,0,0,1,1.94.27,10.29,10.29,0,0,1,1.75.69v2.15h-.11a7.42,7.42,0,0,0-1.83-1.06,4.91,4.91,0,0,0-1.84-.37,3.27,3.27,0,0,0-2.6,1.11,6,6,0,0,0,0,6.45,3.24,3.24,0,0,0,2.62,1.12,5,5,0,0,0,1.2-.16,4.66,4.66,0,0,0,1.09-.4,7.62,7.62,0,0,0,.8-.46,6.44,6.44,0,0,0,.58-.42h.11Z"/><path class="cls-3" d="M356.87,272.73a11.45,11.45,0,0,1-1.19.23,7.15,7.15,0,0,1-1.15.1,3.58,3.58,0,0,1-2.68-.95,4.27,4.27,0,0,1-.92-3v-6.13h-1.31v-1.63h1.31V258h1.94v3.3h4v1.63h-4v5.25c0,.61,0,1.08,0,1.42a2.39,2.39,0,0,0,.29.95,1.31,1.31,0,0,0,.63.6,2.84,2.84,0,0,0,1.21.19,4,4,0,0,0,1-.13,6.49,6.49,0,0,0,.74-.24h.1Z"/><path class="cls-3" d="M368.16,272.83h-1.93V271.6l-.69.49a5.19,5.19,0,0,1-.85.5,6.1,6.1,0,0,1-1.12.4,5.85,5.85,0,0,1-1.47.16,3.67,3.67,0,0,1-2.64-1,3.48,3.48,0,0,1-1.08-2.63,3.61,3.61,0,0,1,.56-2.12,3.73,3.73,0,0,1,1.6-1.27,8.59,8.59,0,0,1,2.53-.63c1-.11,2-.19,3.16-.25v-.3a2.23,2.23,0,0,0-.23-1.09,1.63,1.63,0,0,0-.67-.68,2.76,2.76,0,0,0-1-.32,7.93,7.93,0,0,0-1.21-.08,7.74,7.74,0,0,0-1.7.2,13.21,13.21,0,0,0-1.94.58h-.1v-2c.38-.1.92-.21,1.64-.34a12.7,12.7,0,0,1,2.11-.18,9.48,9.48,0,0,1,2.12.2,4.1,4.1,0,0,1,1.56.68,3.14,3.14,0,0,1,1,1.23,4.47,4.47,0,0,1,.34,1.87ZM366.23,270v-3.2c-.59,0-1.28.08-2.09.15a11,11,0,0,0-1.9.3,3.26,3.26,0,0,0-1.35.74,1.83,1.83,0,0,0-.51,1.37,1.87,1.87,0,0,0,.59,1.5,2.83,2.83,0,0,0,1.83.5,4.37,4.37,0,0,0,1.86-.4A8,8,0,0,0,366.23,270Z"/><path class="cls-3" d="M381.23,272.83h-1.94v-1.21a6.91,6.91,0,0,1-1.74,1.13,4.75,4.75,0,0,1-2,.4,3.9,3.9,0,0,1-3.27-1.59,7.08,7.08,0,0,1-1.21-4.4,7.52,7.52,0,0,1,.42-2.61,6,6,0,0,1,1.12-1.95,4.77,4.77,0,0,1,1.64-1.19,4.63,4.63,0,0,1,1.93-.42,6.47,6.47,0,0,1,1.61.19,7.35,7.35,0,0,1,1.47.6v-5h1.94ZM379.29,270v-6.6a7,7,0,0,0-1.4-.49,6.31,6.31,0,0,0-1.35-.13A3.1,3.1,0,0,0,374,263.9a5.08,5.08,0,0,0-.9,3.22,5.68,5.68,0,0,0,.7,3.12,2.5,2.5,0,0,0,2.25,1.06,4.26,4.26,0,0,0,1.67-.36A7,7,0,0,0,379.29,270Z"/><path class="cls-3" d="M394.86,267.08a6.48,6.48,0,0,1-1.44,4.44,5.42,5.42,0,0,1-7.75,0,7.58,7.58,0,0,1,0-8.89,5.4,5.4,0,0,1,7.75,0A6.49,6.49,0,0,1,394.86,267.08Zm-2,0a5.24,5.24,0,0,0-.88-3.33,3.28,3.28,0,0,0-4.88,0,5.3,5.3,0,0,0-.87,3.33,5.21,5.21,0,0,0,.88,3.28,3.22,3.22,0,0,0,4.87,0A5.21,5.21,0,0,0,392.86,267.08Z"/><path class="cls-3" d="M401.57,269.89l-2.91,6.75h-1.5l1.79-6.75Z"/><path class="cls-3" d="M421.6,272.83h-1.92V271.6l-.7.49a4.81,4.81,0,0,1-.85.5,5.73,5.73,0,0,1-1.11.4,5.88,5.88,0,0,1-1.48.16,3.67,3.67,0,0,1-2.64-1,3.48,3.48,0,0,1-1.08-2.63,3.69,3.69,0,0,1,.56-2.12A3.77,3.77,0,0,1,414,266.1a8.6,8.6,0,0,1,2.52-.63c1-.11,2-.19,3.17-.25v-.3a2.23,2.23,0,0,0-.24-1.09,1.6,1.6,0,0,0-.66-.68,2.88,2.88,0,0,0-1-.32,7.93,7.93,0,0,0-1.21-.08,7.81,7.81,0,0,0-1.7.2,13.58,13.58,0,0,0-1.94.58h-.1v-2c.38-.1.92-.21,1.64-.34a12.7,12.7,0,0,1,2.11-.18,9.48,9.48,0,0,1,2.12.2,4.1,4.1,0,0,1,1.56.68,3,3,0,0,1,1,1.23,4.47,4.47,0,0,1,.34,1.87ZM419.68,270v-3.2c-.6,0-1.29.08-2.09.15a10.83,10.83,0,0,0-1.9.3,3.14,3.14,0,0,0-1.35.74,1.79,1.79,0,0,0-.52,1.37,1.85,1.85,0,0,0,.6,1.5,2.8,2.8,0,0,0,1.82.5,4.45,4.45,0,0,0,1.87-.4A8.68,8.68,0,0,0,419.68,270Z"/><path class="cls-3" d="M90.77,294.69a7.8,7.8,0,0,1-.4,2.6,6,6,0,0,1-1.1,1.94,5.09,5.09,0,0,1-1.61,1.22,4.54,4.54,0,0,1-1.93.41,5.85,5.85,0,0,1-1.71-.23,7.59,7.59,0,0,1-1.44-.63l-.13.54H80.64v-16h1.94v5.73a8.15,8.15,0,0,1,1.73-1.1,4.89,4.89,0,0,1,2.06-.42,3.82,3.82,0,0,1,3.22,1.56A7.22,7.22,0,0,1,90.77,294.69Zm-2,.06a5.8,5.8,0,0,0-.68-3.13,2.4,2.4,0,0,0-2.19-1.07,4.3,4.3,0,0,0-1.72.37,7.15,7.15,0,0,0-1.6.94v6.6A7.74,7.74,0,0,0,84,299a5.58,5.58,0,0,0,1.35.15,3.14,3.14,0,0,0,2.52-1.06A5,5,0,0,0,88.77,294.75Z"/><path class="cls-3" d="M103.61,294.79a6.44,6.44,0,0,1-1.45,4.44,5.41,5.41,0,0,1-7.74,0,7.58,7.58,0,0,1,0-8.89,5.41,5.41,0,0,1,7.74,0A6.45,6.45,0,0,1,103.61,294.79Zm-2,0a5.24,5.24,0,0,0-.88-3.33,3.3,3.3,0,0,0-4.88,0,6.71,6.71,0,0,0,0,6.61,3.23,3.23,0,0,0,4.88,0A5.25,5.25,0,0,0,101.61,294.79Z"/><path class="cls-3" d="M113.79,291.14h-.1a6.77,6.77,0,0,0-.84-.15,8.72,8.72,0,0,0-1-.05,4.1,4.1,0,0,0-1.74.4,7.75,7.75,0,0,0-1.6,1v8.17h-1.94V289h1.94v1.71a9.52,9.52,0,0,1,2-1.32,4.42,4.42,0,0,1,1.8-.39,6.17,6.17,0,0,1,.73,0l.68.1Z"/><path class="cls-3" d="M125,300.54H123v-1.21a7,7,0,0,1-1.74,1.13,4.79,4.79,0,0,1-2,.4,3.91,3.91,0,0,1-3.28-1.59,7.15,7.15,0,0,1-1.21-4.4,7.52,7.52,0,0,1,.42-2.61,6.21,6.21,0,0,1,1.13-1.95,4.77,4.77,0,0,1,3.57-1.6,6,6,0,0,1,1.6.19,7,7,0,0,1,1.48.59v-5H125ZM123,297.71V291.1a7,7,0,0,0-1.4-.49,6.38,6.38,0,0,0-1.35-.13,3.07,3.07,0,0,0-2.54,1.13,5.08,5.08,0,0,0-.91,3.22,5.77,5.77,0,0,0,.7,3.12,2.5,2.5,0,0,0,2.25,1.07,4.24,4.24,0,0,0,1.67-.37A7.67,7.67,0,0,0,123,297.71Z"/><path class="cls-3" d="M138.59,294.79a6.48,6.48,0,0,1-1.45,4.44,5.41,5.41,0,0,1-7.74,0,7.58,7.58,0,0,1,0-8.89,5.41,5.41,0,0,1,7.74,0A6.49,6.49,0,0,1,138.59,294.79Zm-2,0a5.3,5.3,0,0,0-.88-3.33,3.3,3.3,0,0,0-4.88,0,6.71,6.71,0,0,0,0,6.61,3.22,3.22,0,0,0,4.87,0A5.18,5.18,0,0,0,136.59,294.79Z"/><path class="cls-3" d="M158.35,300.54h-1.94v-1.21a7,7,0,0,1-1.74,1.13,4.79,4.79,0,0,1-2,.4,3.89,3.89,0,0,1-3.27-1.59,7.08,7.08,0,0,1-1.22-4.4,7.52,7.52,0,0,1,.42-2.61,6.21,6.21,0,0,1,1.13-1.95,4.67,4.67,0,0,1,1.64-1.19,4.62,4.62,0,0,1,1.93-.41,6.08,6.08,0,0,1,1.61.19,6.94,6.94,0,0,1,1.47.59v-5h1.94Zm-1.94-2.83V291.1a7,7,0,0,0-1.4-.49,6.31,6.31,0,0,0-1.35-.13,3.09,3.09,0,0,0-2.54,1.13,5.08,5.08,0,0,0-.91,3.22,5.67,5.67,0,0,0,.71,3.12,2.48,2.48,0,0,0,2.24,1.07,4.24,4.24,0,0,0,1.67-.37A7.41,7.41,0,0,0,156.41,297.71Z"/><path class="cls-3" d="M171.8,295h-8.48a4.75,4.75,0,0,0,.32,1.85,3.46,3.46,0,0,0,.87,1.3,3.39,3.39,0,0,0,1.28.74,4.92,4.92,0,0,0,1.62.25,6.53,6.53,0,0,0,2.37-.47,5.74,5.74,0,0,0,1.69-.92h.11v2.11a18.18,18.18,0,0,1-2,.69,8,8,0,0,1-2.15.28,6.18,6.18,0,0,1-4.47-1.55,5.83,5.83,0,0,1-1.61-4.41,6.3,6.3,0,0,1,1.54-4.48,5.27,5.27,0,0,1,4.06-1.66,4.64,4.64,0,0,1,3.59,1.36,5.45,5.45,0,0,1,1.26,3.86Zm-1.89-1.48a3.41,3.41,0,0,0-.76-2.36,3,3,0,0,0-2.31-.84,3.39,3.39,0,0,0-2.48.92,3.56,3.56,0,0,0-1,2.28Z"/><path class="cls-3" d="M176.7,300.54h-1.94v-16h1.94Z"/><path class="cls-3" d="M197.91,289l-4.65,11.52h-1.95L186.68,289h2.1l3.57,9.17,3.53-9.17Z"/><path class="cls-3" d="M209.9,295h-8.48a4.94,4.94,0,0,0,.32,1.85,3.48,3.48,0,0,0,.88,1.3,3.35,3.35,0,0,0,1.27.74,4.92,4.92,0,0,0,1.62.25,6.49,6.49,0,0,0,2.37-.47,5.74,5.74,0,0,0,1.69-.92h.11v2.11a18.18,18.18,0,0,1-2,.69,8,8,0,0,1-2.15.28,6.18,6.18,0,0,1-4.47-1.55,5.87,5.87,0,0,1-1.61-4.41,6.3,6.3,0,0,1,1.54-4.48,5.27,5.27,0,0,1,4.06-1.66,4.64,4.64,0,0,1,3.59,1.36,5.45,5.45,0,0,1,1.26,3.86ZM208,293.5a3.47,3.47,0,0,0-.77-2.36,2.93,2.93,0,0,0-2.3-.84,3.36,3.36,0,0,0-2.48.92,3.52,3.52,0,0,0-1.05,2.28Z"/><path class="cls-3" d="M222.47,300.54h-1.94V294a11.7,11.7,0,0,0-.09-1.49,2.59,2.59,0,0,0-.34-1.08,1.57,1.57,0,0,0-.74-.65,3.18,3.18,0,0,0-1.26-.21,4,4,0,0,0-1.66.39,8.62,8.62,0,0,0-1.66,1v8.6h-1.94v-16h1.94v5.8a7.89,7.89,0,0,1,1.88-1.17,4.94,4.94,0,0,1,2-.42,3.56,3.56,0,0,1,2.84,1.12,4.81,4.81,0,0,1,1,3.24Z"/><path class="cls-3" d="M230.3,283.26l-2.82,3.86H226l1.84-3.86Zm-2.14,17.28h-1.94V289h1.94Z"/><path class="cls-3" d="M240.51,299.82a12,12,0,0,1-1.84.72,6.56,6.56,0,0,1-1.85.26,6.75,6.75,0,0,1-2.29-.37,4.55,4.55,0,0,1-1.78-1.11,5.05,5.05,0,0,1-1.17-1.87,7.89,7.89,0,0,1-.41-2.65,6.13,6.13,0,0,1,1.55-4.43,5.42,5.42,0,0,1,4.1-1.61,6.69,6.69,0,0,1,1.94.28,9.51,9.51,0,0,1,1.75.68v2.15h-.1a7.42,7.42,0,0,0-1.83-1.06,5,5,0,0,0-1.84-.37,3.24,3.24,0,0,0-2.6,1.11,5.95,5.95,0,0,0,0,6.45,3.2,3.2,0,0,0,2.62,1.12,4.48,4.48,0,0,0,1.19-.16,4.74,4.74,0,0,0,1.1-.4,8.61,8.61,0,0,0,.79-.46,6.81,6.81,0,0,0,.59-.42h.1Z"/><path class="cls-3" d="M252.54,300.54h-1.93v-1.28a9.66,9.66,0,0,1-1.88,1.19,4.77,4.77,0,0,1-2,.41,3.65,3.65,0,0,1-2.83-1.11,4.69,4.69,0,0,1-1-3.25V289h1.94v6.56a10.58,10.58,0,0,0,.09,1.5,2.65,2.65,0,0,0,.35,1.07,1.63,1.63,0,0,0,.72.66,3.08,3.08,0,0,0,1.29.21,4.13,4.13,0,0,0,1.64-.4,7.7,7.7,0,0,0,1.67-1V289h1.93Z"/><path class="cls-3" d="M258.32,300.54h-1.94v-16h1.94Z"/><path class="cls-3" d="M272,294.79a6.48,6.48,0,0,1-1.45,4.44,5.41,5.41,0,0,1-7.74,0,7.58,7.58,0,0,1,0-8.89,5.41,5.41,0,0,1,7.74,0A6.49,6.49,0,0,1,272,294.79Zm-2,0a5.3,5.3,0,0,0-.88-3.33,3.3,3.3,0,0,0-4.88,0,6.71,6.71,0,0,0,0,6.61,3.22,3.22,0,0,0,4.87,0A5.18,5.18,0,0,0,270,294.79Z"/><path class="cls-3" d="M291.73,300.54h-1.94v-1.21a7,7,0,0,1-1.74,1.13,4.79,4.79,0,0,1-2,.4,3.89,3.89,0,0,1-3.27-1.59,7.08,7.08,0,0,1-1.22-4.4,7.52,7.52,0,0,1,.42-2.61,6.21,6.21,0,0,1,1.13-1.95,4.67,4.67,0,0,1,1.64-1.19,4.62,4.62,0,0,1,1.93-.41,6.08,6.08,0,0,1,1.61.19,6.94,6.94,0,0,1,1.47.59v-5h1.94Zm-1.94-2.83V291.1a7,7,0,0,0-1.4-.49,6.31,6.31,0,0,0-1.35-.13,3.09,3.09,0,0,0-2.54,1.13,5.08,5.08,0,0,0-.91,3.22,5.67,5.67,0,0,0,.71,3.12,2.48,2.48,0,0,0,2.24,1.07,4.24,4.24,0,0,0,1.67-.37A7.41,7.41,0,0,0,289.79,297.71Z"/><path class="cls-3" d="M305.18,295H296.7a4.75,4.75,0,0,0,.32,1.85,3.46,3.46,0,0,0,.87,1.3,3.39,3.39,0,0,0,1.28.74,4.92,4.92,0,0,0,1.62.25,6.53,6.53,0,0,0,2.37-.47,5.74,5.74,0,0,0,1.69-.92H305v2.11a18.18,18.18,0,0,1-2,.69,8,8,0,0,1-2.15.28,6.18,6.18,0,0,1-4.47-1.55,5.83,5.83,0,0,1-1.61-4.41,6.3,6.3,0,0,1,1.54-4.48,5.27,5.27,0,0,1,4.06-1.66,4.64,4.64,0,0,1,3.59,1.36,5.45,5.45,0,0,1,1.26,3.86Zm-1.89-1.48a3.41,3.41,0,0,0-.76-2.36,3,3,0,0,0-2.31-.84,3.39,3.39,0,0,0-2.48.92,3.56,3.56,0,0,0-1,2.28Z"/><path class="cls-3" d="M322.73,291.14h-.11a6.32,6.32,0,0,0-.83-.15,9.05,9.05,0,0,0-1-.05,4.06,4.06,0,0,0-1.73.4,7.81,7.81,0,0,0-1.61,1v8.17h-1.94V289h1.94v1.71a9.55,9.55,0,0,1,2-1.32,4.36,4.36,0,0,1,1.8-.39,6.29,6.29,0,0,1,.73,0l.68.1Z"/><path class="cls-3" d="M334.19,295h-8.48a4.75,4.75,0,0,0,.32,1.85,3.46,3.46,0,0,0,.87,1.3,3.39,3.39,0,0,0,1.28.74,4.92,4.92,0,0,0,1.62.25,6.53,6.53,0,0,0,2.37-.47,5.74,5.74,0,0,0,1.69-.92h.1v2.11a16.84,16.84,0,0,1-2,.69,7.9,7.9,0,0,1-2.14.28,6.18,6.18,0,0,1-4.47-1.55,5.83,5.83,0,0,1-1.61-4.41,6.3,6.3,0,0,1,1.54-4.48,5.27,5.27,0,0,1,4.06-1.66,4.64,4.64,0,0,1,3.59,1.36,5.45,5.45,0,0,1,1.26,3.86Zm-1.89-1.48a3.41,3.41,0,0,0-.76-2.36,3,3,0,0,0-2.31-.84,3.39,3.39,0,0,0-2.48.92,3.56,3.56,0,0,0-1,2.28Z"/><path class="cls-3" d="M345.65,299.82a12.09,12.09,0,0,1-1.85.72,6.51,6.51,0,0,1-1.85.26,6.65,6.65,0,0,1-2.28-.37,4.59,4.59,0,0,1-1.79-1.11,4.91,4.91,0,0,1-1.16-1.87,7.64,7.64,0,0,1-.42-2.65,6.09,6.09,0,0,1,1.56-4.43,5.39,5.39,0,0,1,4.09-1.61,6.81,6.81,0,0,1,1.95.28,9.8,9.8,0,0,1,1.75.68v2.15h-.11a7.42,7.42,0,0,0-1.83-1.06,5,5,0,0,0-1.84-.37,3.24,3.24,0,0,0-2.6,1.11,4.81,4.81,0,0,0-.95,3.25,4.88,4.88,0,0,0,.93,3.2,3.21,3.21,0,0,0,2.62,1.12,4.61,4.61,0,0,0,1.2-.16,4.83,4.83,0,0,0,1.09-.4,7.45,7.45,0,0,0,.79-.46,5.53,5.53,0,0,0,.59-.42h.11Z"/><path class="cls-3" d="M357.94,294.79a6.48,6.48,0,0,1-1.44,4.44,5.42,5.42,0,0,1-7.75,0,7.62,7.62,0,0,1,0-8.89,5.42,5.42,0,0,1,7.75,0A6.49,6.49,0,0,1,357.94,294.79Zm-2,0a5.3,5.3,0,0,0-.87-3.33,3.3,3.3,0,0,0-4.88,0,6.71,6.71,0,0,0,0,6.61,3.22,3.22,0,0,0,4.87,0A5.19,5.19,0,0,0,355.94,294.79Z"/><path class="cls-3" d="M370.28,299.23a6,6,0,0,1-1.33,4.3,5.47,5.47,0,0,1-4.09,1.37,11.69,11.69,0,0,1-1.79-.13,14,14,0,0,1-1.71-.36v-2h.1c.32.12.82.27,1.5.46a8.17,8.17,0,0,0,2.07.27,4.81,4.81,0,0,0,1.64-.24,2.4,2.4,0,0,0,1-.66,2.32,2.32,0,0,0,.51-1,5,5,0,0,0,.16-1.27v-1a7.62,7.62,0,0,1-1.68,1,5.16,5.16,0,0,1-2,.35,4,4,0,0,1-3.27-1.49,6.52,6.52,0,0,1-1.21-4.21,7,7,0,0,1,.42-2.56,5.82,5.82,0,0,1,1.14-1.86,4.53,4.53,0,0,1,1.63-1.14,4.84,4.84,0,0,1,1.9-.4,5.77,5.77,0,0,1,1.68.2,7.65,7.65,0,0,1,1.43.61l.12-.5h1.81Zm-1.93-1.85V291.1a7.3,7.3,0,0,0-1.44-.5,6.1,6.1,0,0,0-1.33-.15,3.14,3.14,0,0,0-2.51,1.07,4.66,4.66,0,0,0-.92,3.11,5.26,5.26,0,0,0,.68,2.94,2.53,2.53,0,0,0,2.26,1,4.82,4.82,0,0,0,1.69-.32A6.5,6.5,0,0,0,368.35,297.38Z"/><path class="cls-3" d="M376.18,287.1H374v-2h2.18Zm-.12,13.44h-1.94V289h1.94Z"/><path class="cls-3" d="M389.23,300.54h-1.94v-1.21a6.64,6.64,0,0,1-1.74,1.13,4.75,4.75,0,0,1-2,.4,3.9,3.9,0,0,1-3.27-1.59,7.08,7.08,0,0,1-1.21-4.4,7.52,7.52,0,0,1,.42-2.61,5.85,5.85,0,0,1,1.13-1.95,4.77,4.77,0,0,1,3.56-1.6,6,6,0,0,1,1.61.19,6.74,6.74,0,0,1,1.47.59v-5h1.94Zm-1.94-2.83V291.1a7,7,0,0,0-1.4-.49,6.31,6.31,0,0,0-1.35-.13,3.07,3.07,0,0,0-2.53,1.13,5,5,0,0,0-.91,3.22,5.68,5.68,0,0,0,.7,3.12,2.5,2.5,0,0,0,2.25,1.07,4.28,4.28,0,0,0,1.67-.37A7.34,7.34,0,0,0,387.29,297.71Z"/><path class="cls-3" d="M402,300.54h-1.93v-1.23l-.7.49a4.48,4.48,0,0,1-.85.5,5.73,5.73,0,0,1-1.11.4,5.88,5.88,0,0,1-1.48.16,3.7,3.7,0,0,1-2.64-1,3.48,3.48,0,0,1-1.08-2.63,3.69,3.69,0,0,1,.56-2.12,3.77,3.77,0,0,1,1.61-1.27,8.6,8.6,0,0,1,2.52-.63c1-.11,2-.19,3.17-.25v-.3a2.23,2.23,0,0,0-.24-1.09,1.6,1.6,0,0,0-.66-.68,2.75,2.75,0,0,0-1-.32,9.34,9.34,0,0,0-1.21-.08,7.88,7.88,0,0,0-1.7.2,13.1,13.1,0,0,0-1.93.58h-.11v-2c.38-.1.93-.21,1.64-.34a12.82,12.82,0,0,1,2.12-.18,9.39,9.39,0,0,1,2.11.2,4,4,0,0,1,1.56.68,3.08,3.08,0,0,1,1,1.23,4.63,4.63,0,0,1,.34,1.87Zm-1.93-2.83V294.5c-.59,0-1.29.09-2.09.15a10.83,10.83,0,0,0-1.9.3,3.14,3.14,0,0,0-1.35.74,1.8,1.8,0,0,0-.52,1.38,1.84,1.84,0,0,0,.6,1.49,2.82,2.82,0,0,0,1.82.5,4.41,4.41,0,0,0,1.87-.4A8.86,8.86,0,0,0,400.07,297.71Z"/><path class="cls-3" d="M408.89,300.54h-2.46V297.6h2.46Z"/><rect class="cls-2" x="66.8" y="330.73" width="424.94" height="71.91" rx="12.02"/><path class="cls-3" d="M91.46,355.13H81.35V339.78H91.46v1.82H83.39v4.2h8.07v1.82H83.39v5.7h8.07Z"/><path class="cls-3" d="M104.17,355.13h-1.93v-6.55a11.52,11.52,0,0,0-.1-1.49,2.59,2.59,0,0,0-.34-1.09,1.55,1.55,0,0,0-.74-.64,3.18,3.18,0,0,0-1.26-.21,4,4,0,0,0-1.66.39,8.42,8.42,0,0,0-1.66,1v8.59H94.54V343.62h1.94v1.28a8.28,8.28,0,0,1,1.88-1.18,4.94,4.94,0,0,1,2-.42,3.59,3.59,0,0,1,2.84,1.12,4.75,4.75,0,0,1,1,3.24Z"/><path class="cls-3" d="M129.17,358.9a10.81,10.81,0,0,1-1.22.22c-.4,0-.81.07-1.23.07a4.1,4.1,0,0,1-2.88-1,3.88,3.88,0,0,1-1.18-2.82l-.48.06h-.45a7.89,7.89,0,0,1-2.94-.53,6.11,6.11,0,0,1-2.26-1.56,7,7,0,0,1-1.42-2.5,10.44,10.44,0,0,1-.5-3.4,10.6,10.6,0,0,1,.49-3.36,7.15,7.15,0,0,1,1.44-2.55A5.93,5.93,0,0,1,118.8,340a8.23,8.23,0,0,1,5.89,0,6.19,6.19,0,0,1,2.24,1.54,7,7,0,0,1,1.43,2.52,10.51,10.51,0,0,1,.5,3.39,9.11,9.11,0,0,1-1.15,4.75,6.24,6.24,0,0,1-3.08,2.7,3,3,0,0,0,.55,1.82,2.27,2.27,0,0,0,1.88.65,4.42,4.42,0,0,0,1-.13,4.6,4.6,0,0,0,.83-.23h.28Zm-2.43-11.44a7.08,7.08,0,0,0-1.34-4.61,5,5,0,0,0-7.33,0,8.58,8.58,0,0,0,0,9.24,5,5,0,0,0,7.29,0A7,7,0,0,0,126.74,347.46Z"/><path class="cls-3" d="M141.49,355.13h-1.94v-1.27a9.25,9.25,0,0,1-1.87,1.18,4.62,4.62,0,0,1-2,.41,3.64,3.64,0,0,1-2.83-1.1,4.71,4.71,0,0,1-1-3.26v-7.47h1.94v6.56a12.8,12.8,0,0,0,.08,1.5,2.94,2.94,0,0,0,.35,1.06,1.59,1.59,0,0,0,.73.66,3.08,3.08,0,0,0,1.29.21,4.15,4.15,0,0,0,1.64-.39,7.8,7.8,0,0,0,1.66-1v-8.6h1.94Z"/><path class="cls-3" d="M147.39,341.69H145.2v-2h2.19Zm-.12,13.44h-1.94V343.62h1.94Z"/><path class="cls-3" d="M157.08,355a9.26,9.26,0,0,1-1.19.24,8.38,8.38,0,0,1-1.15.09,3.52,3.52,0,0,1-2.68-.95,4.25,4.25,0,0,1-.92-3v-6.12h-1.31v-1.63h1.31v-3.31h1.94v3.31h4v1.63h-4v5.25c0,.6,0,1.07,0,1.41a2.49,2.49,0,0,0,.29,1,1.43,1.43,0,0,0,.62.6,2.92,2.92,0,0,0,1.22.19,3.86,3.86,0,0,0,1-.14,6.6,6.6,0,0,0,.75-.23h.1Z"/><path class="cls-3" d="M169.23,349.38a6.49,6.49,0,0,1-1.44,4.45,5.44,5.44,0,0,1-7.75,0,7.64,7.64,0,0,1,0-8.9,5.42,5.42,0,0,1,7.75,0A6.51,6.51,0,0,1,169.23,349.38Zm-2,0a5.25,5.25,0,0,0-.87-3.32,3.28,3.28,0,0,0-4.88,0,6.71,6.71,0,0,0,0,6.61,3.24,3.24,0,0,0,4.87,0A5.22,5.22,0,0,0,167.23,349.38Z"/><path class="cls-3" d="M176,352.2,173,359h-1.51l1.8-6.75Z"/><path class="cls-3" d="M195.54,354.41a12,12,0,0,1-1.84.72,6.18,6.18,0,0,1-1.85.26,7,7,0,0,1-2.29-.36,4.88,4.88,0,0,1-1.78-1.11,5,5,0,0,1-1.16-1.88,7.6,7.6,0,0,1-.42-2.65,6.13,6.13,0,0,1,1.55-4.43,5.47,5.47,0,0,1,4.1-1.61,6.81,6.81,0,0,1,2,.28,10.5,10.5,0,0,1,1.74.68v2.15h-.1a7.75,7.75,0,0,0-1.83-1.06,5.16,5.16,0,0,0-1.84-.37,3.24,3.24,0,0,0-2.6,1.11,5.95,5.95,0,0,0,0,6.45,3.2,3.2,0,0,0,2.62,1.12,5.06,5.06,0,0,0,1.2-.15,6,6,0,0,0,1.09-.4c.28-.15.55-.3.79-.46s.45-.3.59-.42h.1Z"/><path class="cls-3" d="M207.57,355.13h-1.93v-1.27a9.58,9.58,0,0,1-1.88,1.18,4.62,4.62,0,0,1-2,.41,3.6,3.6,0,0,1-2.82-1.1,4.66,4.66,0,0,1-1-3.26v-7.47h1.93v6.56a10.78,10.78,0,0,0,.09,1.5,2.6,2.6,0,0,0,.35,1.06,1.53,1.53,0,0,0,.72.66,3.08,3.08,0,0,0,1.29.21,4.11,4.11,0,0,0,1.64-.39,7.86,7.86,0,0,0,1.67-1v-8.6h1.93Z"/><path class="cls-3" d="M220.34,355.13h-1.93v-1.22l-.7.49a5.08,5.08,0,0,1-.85.5,5.15,5.15,0,0,1-1.11.39,5.85,5.85,0,0,1-1.47.16,3.67,3.67,0,0,1-2.64-1,3.43,3.43,0,0,1-1.09-2.63,3.58,3.58,0,0,1,.57-2.11,3.69,3.69,0,0,1,1.6-1.28,8.6,8.6,0,0,1,2.52-.63c1-.11,2-.19,3.17-.24v-.3a2.39,2.39,0,0,0-.23-1.1,1.82,1.82,0,0,0-.67-.68,3,3,0,0,0-1-.32,9.18,9.18,0,0,0-1.2-.08,8.4,8.4,0,0,0-1.7.2,12.93,12.93,0,0,0-1.94.59h-.11v-2a16,16,0,0,1,1.64-.34,11.85,11.85,0,0,1,2.12-.19,10.18,10.18,0,0,1,2.12.2,4.27,4.27,0,0,1,1.56.69,3,3,0,0,1,1,1.22,4.7,4.7,0,0,1,.34,1.87Zm-1.93-2.83v-3.21l-2.09.16a11,11,0,0,0-1.9.3,3,3,0,0,0-1.35.73,1.87,1.87,0,0,0-.52,1.38,1.82,1.82,0,0,0,.6,1.49,2.83,2.83,0,0,0,1.83.5,4.22,4.22,0,0,0,1.86-.4A8,8,0,0,0,218.41,352.3Z"/><path class="cls-3" d="M233.7,355.13h-1.94v-6.55a11.58,11.58,0,0,0-.09-1.49,2.92,2.92,0,0,0-.34-1.09,1.57,1.57,0,0,0-.75-.64,3.16,3.16,0,0,0-1.25-.21,4,4,0,0,0-1.66.39,8.14,8.14,0,0,0-1.66,1v8.59h-1.94V343.62H226v1.28a8.22,8.22,0,0,1,1.87-1.18,5,5,0,0,1,2-.42,3.61,3.61,0,0,1,2.85,1.12,4.81,4.81,0,0,1,1,3.24Z"/><path class="cls-3" d="M246.77,355.13h-1.94v-1.2a7.23,7.23,0,0,1-1.74,1.12,4.79,4.79,0,0,1-2,.4,3.88,3.88,0,0,1-3.27-1.58,7.11,7.11,0,0,1-1.22-4.41,7.5,7.5,0,0,1,.42-2.6,6,6,0,0,1,1.13-1.95,4.83,4.83,0,0,1,1.64-1.2,4.78,4.78,0,0,1,1.93-.41,6.08,6.08,0,0,1,1.61.19,8.2,8.2,0,0,1,1.47.59v-5h1.94Zm-1.94-2.83v-6.61a7.52,7.52,0,0,0-1.4-.48,6.29,6.29,0,0,0-1.35-.14,3.07,3.07,0,0,0-2.54,1.14,5,5,0,0,0-.91,3.21,5.67,5.67,0,0,0,.71,3.12,2.48,2.48,0,0,0,2.24,1.07,4.07,4.07,0,0,0,1.67-.37A7,7,0,0,0,244.83,352.3Z"/><path class="cls-3" d="M260.4,349.38a6.45,6.45,0,0,1-1.45,4.45,5.43,5.43,0,0,1-7.74,0,7.6,7.6,0,0,1,0-8.9,5.41,5.41,0,0,1,7.74,0A6.46,6.46,0,0,1,260.4,349.38Zm-2,0a5.19,5.19,0,0,0-.88-3.32,3.28,3.28,0,0,0-4.88,0,6.71,6.71,0,0,0,0,6.61,3.25,3.25,0,0,0,4.88,0A5.28,5.28,0,0,0,258.4,349.38Z"/><path class="cls-3" d="M279.05,351.82a3.12,3.12,0,0,1-1.31,2.58,5.62,5.62,0,0,1-3.56,1,8.61,8.61,0,0,1-2.34-.3,10,10,0,0,1-1.79-.67v-2.17h.1a7.71,7.71,0,0,0,2,1.1,6.36,6.36,0,0,0,2.16.4,4,4,0,0,0,2-.41,1.39,1.39,0,0,0,.72-1.3,1.33,1.33,0,0,0-.39-1,3.74,3.74,0,0,0-1.51-.6l-1.08-.21c-.44-.09-.84-.17-1.21-.27a4.06,4.06,0,0,1-2.15-1.18,3,3,0,0,1-.63-1.91,3.16,3.16,0,0,1,.29-1.34,3.4,3.4,0,0,1,.89-1.13,4.44,4.44,0,0,1,1.47-.77,6.58,6.58,0,0,1,2-.28,9.46,9.46,0,0,1,2.09.25,7.84,7.84,0,0,1,1.75.62v2.07h-.1a7.06,7.06,0,0,0-1.8-.92,6,6,0,0,0-2.09-.38,3.67,3.67,0,0,0-1.79.41,1.3,1.3,0,0,0-.73,1.21,1.32,1.32,0,0,0,.44,1.07,3.49,3.49,0,0,0,1.4.59l1.2.25c.45.08.82.15,1.11.22a4.11,4.11,0,0,1,2.08,1.06A2.82,2.82,0,0,1,279.05,351.82Z"/><path class="cls-3" d="M291.46,349.58H283a5,5,0,0,0,.32,1.85,3.56,3.56,0,0,0,.88,1.29,3.43,3.43,0,0,0,1.27.74,5,5,0,0,0,1.63.25,6.24,6.24,0,0,0,2.36-.47,5.82,5.82,0,0,0,1.7-.92h.1v2.11a14.32,14.32,0,0,1-2,.69,7.9,7.9,0,0,1-2.14.28,6.18,6.18,0,0,1-4.48-1.55,5.83,5.83,0,0,1-1.6-4.41,6.32,6.32,0,0,1,1.54-4.48,5.25,5.25,0,0,1,4.05-1.66,4.67,4.67,0,0,1,3.6,1.36,5.5,5.5,0,0,1,1.26,3.87Zm-1.89-1.49a3.39,3.39,0,0,0-.77-2.36,3,3,0,0,0-2.3-.83,3.34,3.34,0,0,0-2.48.92,3.62,3.62,0,0,0-1,2.27Z"/><path class="cls-3" d="M311.45,355.13h-1.94v-6.55a11.58,11.58,0,0,0-.09-1.49,2.75,2.75,0,0,0-.34-1.09,1.55,1.55,0,0,0-.74-.64,3.25,3.25,0,0,0-1.26-.21,4,4,0,0,0-1.66.39,8.14,8.14,0,0,0-1.66,1v8.59h-1.94v-16h1.94v5.81a8.22,8.22,0,0,1,1.87-1.18,5,5,0,0,1,2-.42,3.6,3.6,0,0,1,2.85,1.12,4.81,4.81,0,0,1,1,3.24Z"/><path class="cls-3" d="M324.13,355.13H322.2v-1.22l-.7.49a5.08,5.08,0,0,1-.85.5,5.15,5.15,0,0,1-1.11.39,5.85,5.85,0,0,1-1.47.16,3.67,3.67,0,0,1-2.64-1,3.46,3.46,0,0,1-1.08-2.63,3.58,3.58,0,0,1,.56-2.11,3.75,3.75,0,0,1,1.6-1.28,8.59,8.59,0,0,1,2.53-.63c1-.11,2-.19,3.16-.24v-.3a2.39,2.39,0,0,0-.23-1.1,1.82,1.82,0,0,0-.67-.68,3,3,0,0,0-1-.32,9.18,9.18,0,0,0-1.2-.08,8.4,8.4,0,0,0-1.7.2,13.29,13.29,0,0,0-1.94.59h-.1v-2a15.16,15.16,0,0,1,1.63-.34,11.85,11.85,0,0,1,2.12-.19,10.11,10.11,0,0,1,2.12.2,4.27,4.27,0,0,1,1.56.69,3,3,0,0,1,1,1.22,4.53,4.53,0,0,1,.34,1.87Zm-1.93-2.83v-3.21l-2.09.16a11,11,0,0,0-1.9.3,3,3,0,0,0-1.35.73,1.86,1.86,0,0,0-.51,1.38,1.82,1.82,0,0,0,.59,1.49,2.83,2.83,0,0,0,1.83.5,4.22,4.22,0,0,0,1.86-.4A8,8,0,0,0,322.2,352.3Z"/><path class="cls-3" d="M337.65,343.62l-6.72,15.76h-2.07l2.14-4.8-4.58-11h2.1l3.54,8.54,3.56-8.54Z"/><path class="cls-3" d="M348.73,355.13H346.8v-1.22l-.7.49a5.08,5.08,0,0,1-.85.5,5.15,5.15,0,0,1-1.11.39,5.88,5.88,0,0,1-1.48.16,3.7,3.7,0,0,1-2.64-1,3.46,3.46,0,0,1-1.08-2.63,3.65,3.65,0,0,1,.56-2.11,3.78,3.78,0,0,1,1.61-1.28,8.6,8.6,0,0,1,2.52-.63c1-.11,2-.19,3.17-.24v-.3a2.39,2.39,0,0,0-.23-1.1,1.82,1.82,0,0,0-.67-.68,3,3,0,0,0-1-.32,9.3,9.3,0,0,0-1.2-.08,8.57,8.57,0,0,0-1.71.2,13.18,13.18,0,0,0-1.93.59H340v-2a16,16,0,0,1,1.64-.34,11.85,11.85,0,0,1,2.12-.19,10,10,0,0,1,2.11.2,4.24,4.24,0,0,1,1.57.69,3,3,0,0,1,1,1.22,4.7,4.7,0,0,1,.34,1.87Zm-1.93-2.83v-3.21l-2.09.16a11,11,0,0,0-1.9.3,3,3,0,0,0-1.35.73,2.12,2.12,0,0,0,.08,2.87,2.83,2.83,0,0,0,1.83.5,4.25,4.25,0,0,0,1.86-.4A8.31,8.31,0,0,0,346.8,352.3Z"/><path class="cls-3" d="M369.51,355.13h-1.94v-6.55a11.58,11.58,0,0,0-.09-1.49,2.75,2.75,0,0,0-.34-1.09,1.55,1.55,0,0,0-.74-.64,3.25,3.25,0,0,0-1.26-.21,4,4,0,0,0-1.66.39,8.14,8.14,0,0,0-1.66,1v8.59h-1.94v-16h1.94v5.81a8.22,8.22,0,0,1,1.87-1.18,5,5,0,0,1,2-.42,3.6,3.6,0,0,1,2.85,1.12,4.81,4.81,0,0,1,1,3.24Z"/><path class="cls-3" d="M382.88,349.58h-8.49a5,5,0,0,0,.32,1.85,3.56,3.56,0,0,0,.88,1.29,3.43,3.43,0,0,0,1.27.74,5,5,0,0,0,1.63.25,6.24,6.24,0,0,0,2.36-.47,5.82,5.82,0,0,0,1.7-.92h.1v2.11a14.32,14.32,0,0,1-2,.69,7.9,7.9,0,0,1-2.14.28,6.18,6.18,0,0,1-4.48-1.55,5.83,5.83,0,0,1-1.6-4.41A6.32,6.32,0,0,1,374,345a5.25,5.25,0,0,1,4-1.66,4.67,4.67,0,0,1,3.6,1.36,5.5,5.5,0,0,1,1.26,3.87ZM381,348.09a3.39,3.39,0,0,0-.77-2.36,3,3,0,0,0-2.3-.83,3.34,3.34,0,0,0-2.48.92,3.62,3.62,0,0,0-1.05,2.27Z"/><path class="cls-3" d="M394.33,354.41a12,12,0,0,1-1.84.72,6.22,6.22,0,0,1-1.85.26,7,7,0,0,1-2.29-.36,4.8,4.8,0,0,1-1.78-1.11,5,5,0,0,1-1.16-1.88,7.6,7.6,0,0,1-.42-2.65,6.13,6.13,0,0,1,1.55-4.43,5.45,5.45,0,0,1,4.1-1.61,6.69,6.69,0,0,1,1.94.28,10.28,10.28,0,0,1,1.75.68v2.15h-.1a7.75,7.75,0,0,0-1.83-1.06,5.16,5.16,0,0,0-1.84-.37,3.24,3.24,0,0,0-2.6,1.11,5.95,5.95,0,0,0,0,6.45,3.2,3.2,0,0,0,2.62,1.12,4.91,4.91,0,0,0,1.19-.15,5.88,5.88,0,0,0,1.1-.4c.28-.15.54-.3.79-.46s.44-.3.59-.42h.1Z"/><path class="cls-3" d="M406.45,355.13h-1.94v-6.55a10,10,0,0,0-.1-1.49,2.76,2.76,0,0,0-.33-1.09,1.57,1.57,0,0,0-.75-.64,3.16,3.16,0,0,0-1.25-.21,4.09,4.09,0,0,0-1.67.39,8.07,8.07,0,0,0-1.65,1v8.59h-1.94v-16h1.94v5.81a8.22,8.22,0,0,1,1.87-1.18,5,5,0,0,1,2-.42,3.61,3.61,0,0,1,2.85,1.12,4.81,4.81,0,0,1,1,3.24Z"/><path class="cls-3" d="M420,349.38a6.49,6.49,0,0,1-1.44,4.45,5.44,5.44,0,0,1-7.75,0,7.6,7.6,0,0,1,0-8.9,5.42,5.42,0,0,1,7.75,0A6.51,6.51,0,0,1,420,349.38Zm-2,0a5.25,5.25,0,0,0-.87-3.32,3.29,3.29,0,0,0-4.89,0,6.68,6.68,0,0,0,0,6.61,3.24,3.24,0,0,0,4.87,0A5.22,5.22,0,0,0,418,349.38Z"/><path class="cls-3" d="M440.05,349.58h-8.48a5,5,0,0,0,.32,1.85,3.44,3.44,0,0,0,2.15,2,4.92,4.92,0,0,0,1.62.25,6.29,6.29,0,0,0,2.37-.47,5.74,5.74,0,0,0,1.69-.92h.11v2.11a14.78,14.78,0,0,1-2,.69,8,8,0,0,1-2.15.28,6.14,6.14,0,0,1-4.47-1.55,5.84,5.84,0,0,1-1.61-4.41,6.32,6.32,0,0,1,1.54-4.48,5.27,5.27,0,0,1,4.06-1.66,4.64,4.64,0,0,1,3.59,1.36,5.5,5.5,0,0,1,1.26,3.87Zm-1.88-1.49a3.48,3.48,0,0,0-.77-2.36,3,3,0,0,0-2.3-.83,3.32,3.32,0,0,0-2.48.92,3.52,3.52,0,0,0-1.05,2.27Z"/><path class="cls-3" d="M445,355.13H443v-16H445Z"/><path class="cls-3" d="M91.33,377a8,8,0,0,1-.4,2.56,5.57,5.57,0,0,1-1.14,2,4.79,4.79,0,0,1-1.6,1.19,4.84,4.84,0,0,1-2,.41,6.34,6.34,0,0,1-1.63-.19,7,7,0,0,1-1.48-.61v4.82H81.19V371.33h1.94v1.21a7.4,7.4,0,0,1,1.74-1.09,5,5,0,0,1,2.06-.44,3.79,3.79,0,0,1,3.24,1.57A7.27,7.27,0,0,1,91.33,377Zm-2,.05a5.52,5.52,0,0,0-.71-3.11,2.48,2.48,0,0,0-2.19-1,4.24,4.24,0,0,0-1.68.36,7.46,7.46,0,0,0-1.62.95v6.52a7.54,7.54,0,0,0,1.42.51,6.12,6.12,0,0,0,1.35.13,3.09,3.09,0,0,0,2.52-1.09A5,5,0,0,0,89.33,377Z"/><path class="cls-3" d="M101.53,373.44h-.1c-.29-.07-.57-.11-.84-.15a9,9,0,0,0-1,0,4.09,4.09,0,0,0-1.74.39,8.19,8.19,0,0,0-1.6,1v8.18H94.35V371.33h1.94V373a9.28,9.28,0,0,1,2-1.31,4.42,4.42,0,0,1,1.8-.39,6.17,6.17,0,0,1,.73,0l.68.09Z"/><path class="cls-3" d="M113.17,377.09a6.49,6.49,0,0,1-1.44,4.45,5.42,5.42,0,0,1-7.75,0,7.6,7.6,0,0,1,0-8.9,5.42,5.42,0,0,1,7.75,0A6.51,6.51,0,0,1,113.17,377.09Zm-2,0a5.25,5.25,0,0,0-.87-3.32,3.29,3.29,0,0,0-4.89,0,6.68,6.68,0,0,0,0,6.61,3.22,3.22,0,0,0,4.87,0A5.22,5.22,0,0,0,111.17,377.09Z"/><path class="cls-3" d="M124.69,382.12a13.74,13.74,0,0,1-1.84.73,6.56,6.56,0,0,1-1.85.25,7,7,0,0,1-2.29-.36,4.72,4.72,0,0,1-1.78-1.11,5,5,0,0,1-1.17-1.88,7.85,7.85,0,0,1-.41-2.65,6.13,6.13,0,0,1,1.55-4.43,5.44,5.44,0,0,1,4.1-1.61,7.11,7.11,0,0,1,1.94.28,10.28,10.28,0,0,1,1.75.68v2.16h-.11a7.47,7.47,0,0,0-1.83-1.07,5.12,5.12,0,0,0-1.84-.37,3.27,3.27,0,0,0-2.6,1.11,6,6,0,0,0,0,6.45,3.21,3.21,0,0,0,2.62,1.12,4.93,4.93,0,0,0,1.2-.15,5.15,5.15,0,0,0,1.09-.4c.29-.15.55-.3.8-.46a5.25,5.25,0,0,0,.58-.42h.11Z"/><path class="cls-3" d="M136.81,377.29h-8.48a4.78,4.78,0,0,0,.32,1.85,3.34,3.34,0,0,0,.87,1.29,3.55,3.55,0,0,0,1.28.75,5.2,5.2,0,0,0,1.62.24,6.33,6.33,0,0,0,2.37-.47,5.74,5.74,0,0,0,1.69-.92h.1v2.11a15.27,15.27,0,0,1-2,.7,8.31,8.31,0,0,1-2.14.27,6.14,6.14,0,0,1-4.47-1.55,5.79,5.79,0,0,1-1.61-4.4,6.33,6.33,0,0,1,1.54-4.49A5.27,5.27,0,0,1,132,371a4.64,4.64,0,0,1,3.59,1.36,5.5,5.5,0,0,1,1.26,3.87Zm-1.89-1.49a3.43,3.43,0,0,0-.76-2.36,3,3,0,0,0-2.31-.83,3.39,3.39,0,0,0-2.48.92,3.56,3.56,0,0,0-1,2.27Z"/><path class="cls-3" d="M148,379.53a3.12,3.12,0,0,1-1.31,2.58,5.62,5.62,0,0,1-3.56,1,8.61,8.61,0,0,1-2.34-.3,10,10,0,0,1-1.79-.66V380h.1a7.71,7.71,0,0,0,2,1.1,6.38,6.38,0,0,0,2.16.41,4,4,0,0,0,2-.42,1.39,1.39,0,0,0,.72-1.3,1.33,1.33,0,0,0-.39-1,3.74,3.74,0,0,0-1.51-.6l-1.08-.21c-.44-.08-.84-.17-1.21-.27a4,4,0,0,1-2.15-1.18,3,3,0,0,1-.63-1.91,3.2,3.2,0,0,1,.29-1.34,3.4,3.4,0,0,1,.89-1.13,4.25,4.25,0,0,1,1.47-.76,6.57,6.57,0,0,1,2-.29,9.46,9.46,0,0,1,2.09.25,7.84,7.84,0,0,1,1.75.62V374h-.1a7.23,7.23,0,0,0-1.8-.92,6.29,6.29,0,0,0-2.09-.38,3.67,3.67,0,0,0-1.79.41,1.3,1.3,0,0,0-.73,1.21,1.32,1.32,0,0,0,.44,1.07,3.49,3.49,0,0,0,1.4.59l1.2.25c.45.08.82.15,1.11.22a4,4,0,0,1,2.08,1.07A2.79,2.79,0,0,1,148,379.53Z"/><path class="cls-3" d="M160.56,377.09a6.49,6.49,0,0,1-1.44,4.45,5.42,5.42,0,0,1-7.75,0,7.64,7.64,0,0,1,0-8.9,5.42,5.42,0,0,1,7.75,0A6.51,6.51,0,0,1,160.56,377.09Zm-2,0a5.25,5.25,0,0,0-.87-3.32,3.28,3.28,0,0,0-4.88,0,6.71,6.71,0,0,0,0,6.61,3.22,3.22,0,0,0,4.87,0A5.22,5.22,0,0,0,158.56,377.09Z"/><path class="cls-3" d="M180.33,382.85h-1.94v-1.21a6.94,6.94,0,0,1-1.74,1.12,4.79,4.79,0,0,1-2,.41,3.91,3.91,0,0,1-3.28-1.59,7.17,7.17,0,0,1-1.21-4.4,7.52,7.52,0,0,1,.42-2.61,6.1,6.1,0,0,1,1.13-1.95,4.74,4.74,0,0,1,3.57-1.61,6,6,0,0,1,1.6.19,8.28,8.28,0,0,1,1.48.59v-5h1.94ZM178.39,380V373.4a7.52,7.52,0,0,0-1.4-.48,6.36,6.36,0,0,0-1.35-.14,3.07,3.07,0,0,0-2.54,1.14,5,5,0,0,0-.91,3.21,5.77,5.77,0,0,0,.7,3.12,2.5,2.5,0,0,0,2.25,1.07,4.07,4.07,0,0,0,1.67-.37A6.87,6.87,0,0,0,178.39,380Z"/><path class="cls-3" d="M193.78,377.29H185.3a4.78,4.78,0,0,0,.32,1.85,3.34,3.34,0,0,0,.87,1.29,3.55,3.55,0,0,0,1.28.75,5.2,5.2,0,0,0,1.62.24,6.24,6.24,0,0,0,2.36-.47,5.82,5.82,0,0,0,1.7-.92h.1v2.11a15.8,15.8,0,0,1-2,.7,8.31,8.31,0,0,1-2.14.27,6.14,6.14,0,0,1-4.47-1.55,5.79,5.79,0,0,1-1.61-4.4,6.33,6.33,0,0,1,1.54-4.49,5.26,5.26,0,0,1,4-1.66,4.65,4.65,0,0,1,3.6,1.36,5.5,5.5,0,0,1,1.26,3.87Zm-1.89-1.49a3.43,3.43,0,0,0-.76-2.36,3,3,0,0,0-2.31-.83,3.38,3.38,0,0,0-2.48.92,3.56,3.56,0,0,0-1,2.27Z"/><path class="cls-3" d="M213.48,382.85h-1.94v-1.21a6.6,6.6,0,0,1-1.74,1.12,4.76,4.76,0,0,1-2,.41,3.9,3.9,0,0,1-3.27-1.59,7.1,7.1,0,0,1-1.21-4.4,7.52,7.52,0,0,1,.42-2.61,5.9,5.9,0,0,1,1.12-1.95,4.93,4.93,0,0,1,1.64-1.2,4.78,4.78,0,0,1,1.93-.41,6,6,0,0,1,1.61.19,7.92,7.92,0,0,1,1.47.59v-5h1.94ZM211.54,380V373.4a7.52,7.52,0,0,0-1.4-.48,6.29,6.29,0,0,0-1.35-.14,3.08,3.08,0,0,0-2.54,1.14,5,5,0,0,0-.9,3.21,5.68,5.68,0,0,0,.7,3.12,2.5,2.5,0,0,0,2.25,1.07A4.11,4.11,0,0,0,210,381,6.61,6.61,0,0,0,211.54,380Z"/><path class="cls-3" d="M226.93,377.29h-8.48a5,5,0,0,0,.32,1.85,3.36,3.36,0,0,0,.88,1.29,3.51,3.51,0,0,0,1.27.75,5.2,5.2,0,0,0,1.62.24,6.26,6.26,0,0,0,2.37-.47,5.74,5.74,0,0,0,1.69-.92h.11v2.11a16.36,16.36,0,0,1-2,.7,8.39,8.39,0,0,1-2.15.27,6.14,6.14,0,0,1-4.47-1.55,5.83,5.83,0,0,1-1.61-4.4,6.37,6.37,0,0,1,1.54-4.49,5.27,5.27,0,0,1,4.06-1.66,4.64,4.64,0,0,1,3.59,1.36,5.5,5.5,0,0,1,1.26,3.87Zm-1.88-1.49a3.43,3.43,0,0,0-.77-2.36,3,3,0,0,0-2.3-.83,3.36,3.36,0,0,0-2.48.92,3.52,3.52,0,0,0-1.05,2.27Z"/><path class="cls-3" d="M238.1,379.53a3.14,3.14,0,0,1-1.3,2.58,5.65,5.65,0,0,1-3.57,1,8.61,8.61,0,0,1-2.34-.3,10.32,10.32,0,0,1-1.79-.66V380h.1a7.86,7.86,0,0,0,2,1.1,6.38,6.38,0,0,0,2.16.41,4,4,0,0,0,2-.42,1.39,1.39,0,0,0,.72-1.3,1.33,1.33,0,0,0-.39-1,3.62,3.62,0,0,0-1.51-.6l-1.07-.21c-.45-.08-.85-.17-1.22-.27a4,4,0,0,1-2.14-1.18,2.9,2.9,0,0,1-.64-1.91,3.06,3.06,0,0,1,.3-1.34,3.16,3.16,0,0,1,.89-1.13,4.08,4.08,0,0,1,1.47-.76,6.5,6.5,0,0,1,2-.29,9.46,9.46,0,0,1,2.09.25,8.13,8.13,0,0,1,1.76.62V374h-.11a6.89,6.89,0,0,0-1.8-.92,6.24,6.24,0,0,0-2.08-.38,3.68,3.68,0,0,0-1.8.41,1.3,1.3,0,0,0-.73,1.21,1.32,1.32,0,0,0,.44,1.07A3.48,3.48,0,0,0,233,376l1.2.25c.44.08.81.15,1.11.22a4.08,4.08,0,0,1,2.08,1.07A2.78,2.78,0,0,1,238.1,379.53Z"/><path class="cls-3" d="M251,377a7.72,7.72,0,0,1-.41,2.56,5.4,5.4,0,0,1-1.13,2,4.79,4.79,0,0,1-1.6,1.19,4.85,4.85,0,0,1-2,.41,6.32,6.32,0,0,1-1.62-.19,7,7,0,0,1-1.48-.61v4.82h-1.94V371.33h1.94v1.21a7.4,7.4,0,0,1,1.74-1.09,4.94,4.94,0,0,1,2-.44,3.81,3.81,0,0,1,3.25,1.57A7.27,7.27,0,0,1,251,377Zm-2,.05a5.52,5.52,0,0,0-.71-3.11,2.48,2.48,0,0,0-2.19-1,4.24,4.24,0,0,0-1.68.36,7.46,7.46,0,0,0-1.62.95v6.52a7.54,7.54,0,0,0,1.42.51,6,6,0,0,0,1.34.13,3.1,3.1,0,0,0,2.53-1.09A5,5,0,0,0,249,377Z"/><path class="cls-3" d="M263,382.85h-1.93v-1.23l-.7.49a4.48,4.48,0,0,1-.85.5,5.73,5.73,0,0,1-1.11.4,6.38,6.38,0,0,1-1.48.16,3.71,3.71,0,0,1-2.64-1,3.45,3.45,0,0,1-1.08-2.62,3.67,3.67,0,0,1,.56-2.12,3.78,3.78,0,0,1,1.61-1.28,8.61,8.61,0,0,1,2.52-.62c1-.12,2-.2,3.17-.25v-.3a2.32,2.32,0,0,0-.23-1.09,1.69,1.69,0,0,0-.67-.68,2.57,2.57,0,0,0-1-.32,7.79,7.79,0,0,0-1.2-.09,8.57,8.57,0,0,0-1.71.2,13.18,13.18,0,0,0-1.93.59h-.11v-2a16,16,0,0,1,1.64-.34,11.85,11.85,0,0,1,2.12-.19,10,10,0,0,1,2.11.2,4.24,4.24,0,0,1,1.57.69,3.07,3.07,0,0,1,1,1.23A4.61,4.61,0,0,1,263,375ZM261.05,380V376.8L259,377a11,11,0,0,0-1.9.3,3,3,0,0,0-1.35.74,1.79,1.79,0,0,0-.52,1.37,1.82,1.82,0,0,0,.6,1.49,2.83,2.83,0,0,0,1.83.5,4.25,4.25,0,0,0,1.86-.4A8.31,8.31,0,0,0,261.05,380Z"/><path class="cls-3" d="M275.22,382.12a13.23,13.23,0,0,1-1.84.73,6.56,6.56,0,0,1-1.85.25,7,7,0,0,1-2.29-.36,4.8,4.8,0,0,1-1.78-1.11,5.1,5.1,0,0,1-1.17-1.88,7.85,7.85,0,0,1-.41-2.65,6.13,6.13,0,0,1,1.55-4.43,5.45,5.45,0,0,1,4.1-1.61,7.05,7.05,0,0,1,1.94.28,10.28,10.28,0,0,1,1.75.68v2.16h-.1a7.47,7.47,0,0,0-1.83-1.07,5.16,5.16,0,0,0-1.84-.37,3.24,3.24,0,0,0-2.6,1.11,5.95,5.95,0,0,0,0,6.45,3.2,3.2,0,0,0,2.62,1.12,4.91,4.91,0,0,0,1.19-.15,5.46,5.46,0,0,0,1.1-.4c.28-.15.54-.3.79-.46a6.81,6.81,0,0,0,.59-.42h.1Z"/><path class="cls-3" d="M287.34,382.85H285.4v-6.56a10,10,0,0,0-.1-1.49,2.64,2.64,0,0,0-.34-1.09,1.55,1.55,0,0,0-.74-.64,3.18,3.18,0,0,0-1.26-.21,4.08,4.08,0,0,0-1.66.39,8.07,8.07,0,0,0-1.65,1v8.6h-1.94V366.8h1.94v5.81a8,8,0,0,1,1.87-1.18,5,5,0,0,1,2-.42,3.62,3.62,0,0,1,2.85,1.12,4.81,4.81,0,0,1,1,3.24Z"/><path class="cls-3" d="M300.88,377.09a6.49,6.49,0,0,1-1.44,4.45,5.42,5.42,0,0,1-7.75,0,7.6,7.6,0,0,1,0-8.9,5.42,5.42,0,0,1,7.75,0A6.51,6.51,0,0,1,300.88,377.09Zm-2,0a5.19,5.19,0,0,0-.88-3.32,2.92,2.92,0,0,0-2.43-1.09,3,3,0,0,0-2.45,1.09,6.68,6.68,0,0,0,0,6.61,3.22,3.22,0,0,0,4.87,0A5.22,5.22,0,0,0,298.88,377.09Z"/><path class="cls-3" d="M320.25,382.85h-1.92v-1.23l-.7.49a4.81,4.81,0,0,1-.85.5,5.84,5.84,0,0,1-1.12.4,6.29,6.29,0,0,1-1.47.16,3.68,3.68,0,0,1-2.64-1,3.45,3.45,0,0,1-1.08-2.62,3.67,3.67,0,0,1,.56-2.12,3.81,3.81,0,0,1,1.6-1.28,8.76,8.76,0,0,1,2.53-.62c1-.12,2-.2,3.17-.25v-.3a2.2,2.2,0,0,0-.24-1.09,1.6,1.6,0,0,0-.66-.68,2.68,2.68,0,0,0-1-.32,7.92,7.92,0,0,0-1.21-.09,8.48,8.48,0,0,0-1.7.2,13.68,13.68,0,0,0-1.94.59h-.1v-2a15.44,15.44,0,0,1,1.64-.34,11.74,11.74,0,0,1,2.11-.19,10.11,10.11,0,0,1,2.12.2,4.27,4.27,0,0,1,1.56.69,2.91,2.91,0,0,1,1,1.23,4.45,4.45,0,0,1,.34,1.86ZM318.33,380V376.8l-2.09.16a10.83,10.83,0,0,0-1.9.3A3,3,0,0,0,313,378a1.79,1.79,0,0,0-.52,1.37,1.82,1.82,0,0,0,.6,1.49,2.8,2.8,0,0,0,1.82.5,4.3,4.3,0,0,0,1.87-.4A8.64,8.64,0,0,0,318.33,380Z"/><path class="cls-3" d="M333.32,382.85h-1.93v-1.21a6.81,6.81,0,0,1-1.75,1.12,4.76,4.76,0,0,1-2,.41,3.9,3.9,0,0,1-3.27-1.59,7.1,7.1,0,0,1-1.21-4.4,7.52,7.52,0,0,1,.42-2.61,5.92,5.92,0,0,1,1.13-1.95A4.74,4.74,0,0,1,328.3,371a6,6,0,0,1,1.61.19,8.28,8.28,0,0,1,1.48.59v-5h1.93ZM331.39,380V373.4a7.59,7.59,0,0,0-1.41-.48,6.29,6.29,0,0,0-1.35-.14,3,3,0,0,0-2.53,1.14,5,5,0,0,0-.91,3.21,5.68,5.68,0,0,0,.7,3.12,2.5,2.5,0,0,0,2.25,1.07,4.07,4.07,0,0,0,1.67-.37A6.87,6.87,0,0,0,331.39,380Z"/><path class="cls-3" d="M346.68,382.85h-1.93v-1.28a9.58,9.58,0,0,1-1.88,1.18,4.62,4.62,0,0,1-2,.42,3.61,3.61,0,0,1-2.82-1.11,4.66,4.66,0,0,1-1-3.26v-7.47H339v6.56a10.78,10.78,0,0,0,.09,1.5,2.6,2.6,0,0,0,.35,1.06,1.53,1.53,0,0,0,.72.66,3.08,3.08,0,0,0,1.29.21,4.11,4.11,0,0,0,1.64-.39,7.86,7.86,0,0,0,1.67-1v-8.6h1.93Z"/><path class="cls-3" d="M359.45,382.85h-1.93v-1.23l-.7.49a4.48,4.48,0,0,1-.85.5,5.73,5.73,0,0,1-1.11.4,6.36,6.36,0,0,1-1.47.16,3.68,3.68,0,0,1-2.64-1,3.43,3.43,0,0,1-1.09-2.62,3.59,3.59,0,0,1,.57-2.12,3.69,3.69,0,0,1,1.6-1.28,8.61,8.61,0,0,1,2.52-.62c1-.12,2-.2,3.17-.25v-.3a2.32,2.32,0,0,0-.23-1.09,1.69,1.69,0,0,0-.67-.68,2.57,2.57,0,0,0-1-.32,7.69,7.69,0,0,0-1.2-.09,8.4,8.4,0,0,0-1.7.2,12.93,12.93,0,0,0-1.94.59h-.11v-2a16,16,0,0,1,1.64-.34,11.85,11.85,0,0,1,2.12-.19,10.18,10.18,0,0,1,2.12.2,4.27,4.27,0,0,1,1.56.69,3.07,3.07,0,0,1,1,1.23,4.61,4.61,0,0,1,.34,1.86ZM357.52,380V376.8l-2.09.16a11,11,0,0,0-1.9.3,3,3,0,0,0-1.35.74,2.11,2.11,0,0,0,.08,2.86,2.83,2.83,0,0,0,1.83.5A4.22,4.22,0,0,0,356,381,8,8,0,0,0,357.52,380Z"/><path class="cls-3" d="M372.81,382.85h-1.94v-6.56a11.58,11.58,0,0,0-.09-1.49,3,3,0,0,0-.34-1.09,1.57,1.57,0,0,0-.75-.64,3.16,3.16,0,0,0-1.25-.21,4,4,0,0,0-1.66.39,8.14,8.14,0,0,0-1.66,1v8.6h-1.94V371.33h1.94v1.28a8.22,8.22,0,0,1,1.87-1.18,5,5,0,0,1,2-.42,3.61,3.61,0,0,1,2.85,1.12,4.81,4.81,0,0,1,1,3.24Z"/><path class="cls-3" d="M385.49,382.85h-1.93v-1.23l-.7.49a4.48,4.48,0,0,1-.85.5,5.73,5.73,0,0,1-1.11.4,6.36,6.36,0,0,1-1.47.16,3.68,3.68,0,0,1-2.64-1,3.43,3.43,0,0,1-1.09-2.62,3.59,3.59,0,0,1,.57-2.12,3.69,3.69,0,0,1,1.6-1.28,8.61,8.61,0,0,1,2.52-.62c1-.12,2-.2,3.17-.25v-.3a2.32,2.32,0,0,0-.23-1.09,1.69,1.69,0,0,0-.67-.68,2.57,2.57,0,0,0-1-.32,7.69,7.69,0,0,0-1.2-.09,8.4,8.4,0,0,0-1.7.2,12.93,12.93,0,0,0-1.94.59h-.11v-2a16,16,0,0,1,1.64-.34,11.85,11.85,0,0,1,2.12-.19,10.18,10.18,0,0,1,2.12.2,4.27,4.27,0,0,1,1.56.69,3.07,3.07,0,0,1,1,1.23,4.61,4.61,0,0,1,.34,1.86ZM383.56,380V376.8l-2.09.16a11,11,0,0,0-1.9.3,3,3,0,0,0-1.35.74,2.11,2.11,0,0,0,.08,2.86,2.83,2.83,0,0,0,1.83.5A4.22,4.22,0,0,0,382,381,8,8,0,0,0,383.56,380Z"/><path class="cls-3" d="M391.18,382.85h-1.94V366.8h1.94Z"/><path class="cls-3" d="M398.18,382.85h-2.47v-2.94h2.47Z"/><path class="cls-4" d="M181.37,426.34a10.65,10.65,0,0,1-2.43-.27,10.24,10.24,0,0,1-2.26-.82l.42-2h.13a5.6,5.6,0,0,0,2.07,1.22,7,7,0,0,0,2.36.43,4.82,4.82,0,0,0,2.88-.74,2.29,2.29,0,0,0,1-1.9,1.51,1.51,0,0,0-.35-1,2.14,2.14,0,0,0-1.05-.6q-.57-.15-1.35-.3c-.53-.1-1-.2-1.5-.31a4.36,4.36,0,0,1-2.14-1.06,2.49,2.49,0,0,1-.75-1.85A3.8,3.8,0,0,1,180,414a6.46,6.46,0,0,1,4.1-1.24,10,10,0,0,1,2.49.28,10.74,10.74,0,0,1,1.93.68l-.39,1.87H188a5.37,5.37,0,0,0-1.78-1,7.34,7.34,0,0,0-2.43-.41,4.22,4.22,0,0,0-2.56.71,2.13,2.13,0,0,0-1,1.78,1.59,1.59,0,0,0,.34,1,2.23,2.23,0,0,0,1.22.66l1.5.32c.62.13,1.14.24,1.56.35a4.09,4.09,0,0,1,1.9,1,2.37,2.37,0,0,1,.64,1.71,3.82,3.82,0,0,1-.42,1.71,4.16,4.16,0,0,1-1.18,1.46,5.93,5.93,0,0,1-1.89,1A7.9,7.9,0,0,1,181.37,426.34Z"/><path class="cls-4" d="M193.67,426.33a4.87,4.87,0,0,1-3.2-1,3.42,3.42,0,0,1-1.16-2.8,6.79,6.79,0,0,1,1.7-4.63,5.44,5.44,0,0,1,4.22-1.93,3.65,3.65,0,0,1,2.56.83,3.07,3.07,0,0,1,.88,2.34,6.93,6.93,0,0,1-.07.83c0,.38-.13.83-.24,1.33h-7.24a4.61,4.61,0,0,0-.07.5,3.78,3.78,0,0,0,0,.46,2.54,2.54,0,0,0,.75,1.94,3,3,0,0,0,2.15.71,5.6,5.6,0,0,0,2-.38,7.57,7.57,0,0,0,1.71-.85h.1l-.36,1.79-.79.29c-.23.08-.53.17-.89.26s-.69.15-1,.2A6.19,6.19,0,0,1,193.67,426.33Zm3.3-6.2c0-.17.05-.32.06-.43s0-.25,0-.39a2,2,0,0,0-.52-1.47,2.22,2.22,0,0,0-1.65-.53,3.41,3.41,0,0,0-2.21.78,3.75,3.75,0,0,0-1.31,2Z"/><path class="cls-4" d="M204.57,412.43l-3.16,13.67h-1.65l3.16-13.67Z"/><path class="cls-4" d="M209.33,426.33a4.89,4.89,0,0,1-3.2-1,3.42,3.42,0,0,1-1.16-2.8,6.75,6.75,0,0,1,1.71-4.63,5.41,5.41,0,0,1,4.21-1.93,3.63,3.63,0,0,1,2.56.83,3.07,3.07,0,0,1,.88,2.34,6.93,6.93,0,0,1-.07.83c0,.38-.13.83-.24,1.33h-7.24a4.61,4.61,0,0,0-.07.5,3.78,3.78,0,0,0,0,.46,2.54,2.54,0,0,0,.75,1.94,3,3,0,0,0,2.15.71,5.56,5.56,0,0,0,2-.38,7.88,7.88,0,0,0,1.72-.85h.09l-.36,1.79-.79.29c-.23.08-.53.17-.89.26s-.69.15-1,.2A6.19,6.19,0,0,1,209.33,426.33Zm3.3-6.2c0-.17.05-.32.06-.43s0-.25,0-.39a2,2,0,0,0-.52-1.47,2.21,2.21,0,0,0-1.64-.53,3.44,3.44,0,0,0-2.22.78,3.8,3.8,0,0,0-1.31,2Z"/><path class="cls-4" d="M219.66,426.32a5.54,5.54,0,0,1-1.65-.22,3.19,3.19,0,0,1-1.25-.69,3.05,3.05,0,0,1-.8-1.15,4.26,4.26,0,0,1-.28-1.62,7.41,7.41,0,0,1,.43-2.57,6.59,6.59,0,0,1,1.22-2.11,5.53,5.53,0,0,1,1.89-1.39,5.82,5.82,0,0,1,2.43-.51,5.71,5.71,0,0,1,1.62.23,7.2,7.2,0,0,1,1.34.57l-.36,1.78h-.1l-.44-.37a4.79,4.79,0,0,0-.62-.39,5.33,5.33,0,0,0-.8-.32,3.81,3.81,0,0,0-1-.12,3.34,3.34,0,0,0-2.79,1.44,5.68,5.68,0,0,0-1.07,3.49,2.68,2.68,0,0,0,.63,1.91,2.42,2.42,0,0,0,1.82.66,4.24,4.24,0,0,0,1.11-.15,7.08,7.08,0,0,0,.94-.34c.28-.14.55-.28.8-.43l.53-.34h.1l-.35,1.8a11.49,11.49,0,0,1-1.62.59A6,6,0,0,1,219.66,426.32Z"/><path class="cls-4" d="M229,426.32a5.54,5.54,0,0,1-1.65-.22,3.19,3.19,0,0,1-1.25-.69,3.05,3.05,0,0,1-.8-1.15,4.26,4.26,0,0,1-.28-1.62,7.41,7.41,0,0,1,.43-2.57,6.41,6.41,0,0,1,1.22-2.11,5.53,5.53,0,0,1,1.89-1.39,5.8,5.8,0,0,1,2.42-.51,5.73,5.73,0,0,1,1.63.23,7.2,7.2,0,0,1,1.34.57l-.36,1.78h-.1l-.44-.37a5.59,5.59,0,0,0-.62-.39,5.33,5.33,0,0,0-.8-.32,3.89,3.89,0,0,0-1-.12,3.33,3.33,0,0,0-2.78,1.44,5.62,5.62,0,0,0-1.07,3.49,2.68,2.68,0,0,0,.63,1.91,2.42,2.42,0,0,0,1.82.66,4.24,4.24,0,0,0,1.11-.15,7.64,7.64,0,0,0,.94-.34c.28-.14.55-.28.8-.43l.53-.34h.1l-.35,1.8a11.49,11.49,0,0,1-1.62.59A6,6,0,0,1,229,426.32Z"/><path class="cls-4" d="M238.1,416.29l-2.27,9.81h-1.65l2.27-9.81Zm.9-3.36-.4,1.71h-1.87l.4-1.71Z"/><path class="cls-4" d="M248.75,419.76a7.93,7.93,0,0,1-.4,2.53,6.59,6.59,0,0,1-1.14,2.11,5.55,5.55,0,0,1-1.77,1.45,5,5,0,0,1-2.34.53,3.66,3.66,0,0,1-2.73-1,3.8,3.8,0,0,1-1-2.76,7.76,7.76,0,0,1,.4-2.51A6.66,6.66,0,0,1,241,418a5.35,5.35,0,0,1,1.79-1.43,5,5,0,0,1,2.31-.54,3.75,3.75,0,0,1,2.7,1A3.67,3.67,0,0,1,248.75,419.76Zm-2.69,3.71a5.4,5.4,0,0,0,.73-1.63,7.24,7.24,0,0,0,.25-1.95,2.64,2.64,0,0,0-.59-1.86,2.13,2.13,0,0,0-1.66-.64,2.92,2.92,0,0,0-1.53.41,3.88,3.88,0,0,0-1.17,1.12,5.4,5.4,0,0,0-.73,1.63,7.25,7.25,0,0,0-.25,1.93,2.72,2.72,0,0,0,.58,1.87,2.16,2.16,0,0,0,1.67.65,2.92,2.92,0,0,0,1.53-.41A3.56,3.56,0,0,0,246.06,423.47Z"/><path class="cls-4" d="M259.86,418.53a4.67,4.67,0,0,1,0,.57,3.41,3.41,0,0,1-.11.63l-1.47,6.37h-1.65l1.29-5.59c.07-.31.12-.58.16-.81a4,4,0,0,0,.06-.69,1.5,1.5,0,0,0-.37-1.11,1.8,1.8,0,0,0-1.31-.38,3.7,3.7,0,0,0-1.48.37,10.68,10.68,0,0,0-1.57.89l-1.69,7.32H250l2.26-9.81h1.65l-.25,1.08a11,11,0,0,1,1.77-1,4.3,4.3,0,0,1,1.69-.35,2.9,2.9,0,0,1,2,.65A2.4,2.4,0,0,1,259.86,418.53Z"/><path class="cls-4" d="M266.06,426.33a4.84,4.84,0,0,1-3.19-1,3.39,3.39,0,0,1-1.16-2.8,6.74,6.74,0,0,1,1.7-4.63,5.42,5.42,0,0,1,4.21-1.93,3.62,3.62,0,0,1,2.56.83,3.07,3.07,0,0,1,.89,2.34,7.54,7.54,0,0,1-.08.83c-.05.38-.13.83-.24,1.33h-7.23a4.71,4.71,0,0,0-.08.5c0,.17,0,.32,0,.46a2.51,2.51,0,0,0,.76,1.94,3,3,0,0,0,2.14.71,5.52,5.52,0,0,0,2-.38,7.66,7.66,0,0,0,1.72-.85h.1l-.36,1.79c-.3.1-.56.2-.79.29s-.54.17-.9.26-.68.15-1,.2A6.39,6.39,0,0,1,266.06,426.33Zm3.3-6.2c0-.17.05-.32.06-.43a2.42,2.42,0,0,0,0-.39,2,2,0,0,0-.51-1.47,2.24,2.24,0,0,0-1.65-.53,3.46,3.46,0,0,0-2.22.78,3.8,3.8,0,0,0-1.31,2Z"/><path class="cls-4" d="M288.86,416.29l-2.26,9.81H285l.25-1.08a12.53,12.53,0,0,1-1.75,1,4.16,4.16,0,0,1-1.71.36,2.87,2.87,0,0,1-2-.64,2.4,2.4,0,0,1-.71-1.86,3.69,3.69,0,0,1,0-.58c0-.19.06-.4.11-.64l1.46-6.37h1.65L281,421.88a6,6,0,0,0-.15.78,4.19,4.19,0,0,0-.07.69,1.53,1.53,0,0,0,.38,1.14,1.82,1.82,0,0,0,1.3.37,3.73,3.73,0,0,0,1.49-.37,9.93,9.93,0,0,0,1.54-.87l1.69-7.33Z"/><path class="cls-4" d="M299.69,418.53a4.67,4.67,0,0,1,0,.57,3.41,3.41,0,0,1-.11.63l-1.47,6.37h-1.64l1.28-5.59c.07-.31.12-.58.16-.81a4,4,0,0,0,.06-.69,1.5,1.5,0,0,0-.37-1.11,1.8,1.8,0,0,0-1.31-.38,3.7,3.7,0,0,0-1.48.37,11.23,11.23,0,0,0-1.57.89l-1.69,7.32h-1.65l2.27-9.81h1.65l-.25,1.08a10.55,10.55,0,0,1,1.76-1A4.3,4.3,0,0,1,297,416a2.9,2.9,0,0,1,2,.65A2.4,2.4,0,0,1,299.69,418.53Z"/><path class="cls-4" d="M307.48,425.06l-.65.4a5.5,5.5,0,0,1-.83.44,5.09,5.09,0,0,1-1,.34,5.36,5.36,0,0,1-1.27.14,2.66,2.66,0,0,1-1.9-.69,2.29,2.29,0,0,1-.73-1.77,3.64,3.64,0,0,1,.51-2,3.83,3.83,0,0,1,1.53-1.31,8,8,0,0,1,2.39-.73,24.25,24.25,0,0,1,3.2-.27c0-.17.06-.31.09-.43a2.21,2.21,0,0,0,0-.37,1.31,1.31,0,0,0-.17-.69,1.1,1.1,0,0,0-.48-.42,2.11,2.11,0,0,0-.71-.22,8.42,8.42,0,0,0-.9-.05,7.14,7.14,0,0,0-1.71.24,12.46,12.46,0,0,0-1.56.48h-.09l.33-1.65q.49-.13,1.47-.3a10,10,0,0,1,1.85-.17,5.26,5.26,0,0,1,2.74.57,2,2,0,0,1,.92,1.81,4.38,4.38,0,0,1,0,.5q0,.27-.09.51l-1.54,6.66h-1.64Zm1-4.13a22.32,22.32,0,0,0-2.4.2,7.16,7.16,0,0,0-1.74.45,2.37,2.37,0,0,0-1.08.78,2,2,0,0,0-.37,1.24,1.16,1.16,0,0,0,.43,1,2.19,2.19,0,0,0,1.33.33,4,4,0,0,0,1.63-.36,7.78,7.78,0,0,0,1.55-.86Z"/><path class="cls-4" d="M328,419.76a7.94,7.94,0,0,1-.41,2.53,6.59,6.59,0,0,1-1.14,2.11,5.55,5.55,0,0,1-1.77,1.45,4.92,4.92,0,0,1-2.33.53,3.66,3.66,0,0,1-2.73-1,3.76,3.76,0,0,1-1-2.76,7.76,7.76,0,0,1,.4-2.51,6.64,6.64,0,0,1,1.15-2.13,5.55,5.55,0,0,1,1.79-1.43,5,5,0,0,1,2.32-.54,3.75,3.75,0,0,1,2.7,1A3.71,3.71,0,0,1,328,419.76Zm-2.69,3.71a5.38,5.38,0,0,0,.72-1.63,7.24,7.24,0,0,0,.25-1.95,2.64,2.64,0,0,0-.58-1.86,2.16,2.16,0,0,0-1.67-.64,3,3,0,0,0-1.53.41,3.74,3.74,0,0,0-1.16,1.12,5.4,5.4,0,0,0-.73,1.63,7.25,7.25,0,0,0-.26,1.93,2.72,2.72,0,0,0,.59,1.87,2.15,2.15,0,0,0,1.67.65,3,3,0,0,0,1.53-.41A3.56,3.56,0,0,0,325.35,423.47Z"/><path class="cls-4" d="M339.29,419.39a8.25,8.25,0,0,1-.45,2.74,7.33,7.33,0,0,1-1.2,2.18,5.82,5.82,0,0,1-1.76,1.46,4.55,4.55,0,0,1-2.14.53,5.54,5.54,0,0,1-1.45-.18,4.86,4.86,0,0,1-1.21-.52l-.95,4.12h-1.65l3.1-13.43h1.65l-.24,1a10.85,10.85,0,0,1,1.61-.93,4.19,4.19,0,0,1,1.75-.37,2.71,2.71,0,0,1,2.19.89A3.74,3.74,0,0,1,339.29,419.39Zm-1.73.31a2.55,2.55,0,0,0-.46-1.61,1.75,1.75,0,0,0-1.46-.57,3.64,3.64,0,0,0-1.51.37,10.77,10.77,0,0,0-1.46.81l-1.28,5.57a5.73,5.73,0,0,0,1.09.45,4.5,4.5,0,0,0,1.25.15,3,3,0,0,0,1.63-.44,3.64,3.64,0,0,0,1.2-1.14,5.21,5.21,0,0,0,.75-1.64A7.6,7.6,0,0,0,337.56,419.7Z"/><path class="cls-4" d="M344.78,426.32a5.54,5.54,0,0,1-1.65-.22,3.26,3.26,0,0,1-1.25-.69,3.17,3.17,0,0,1-.8-1.15,4.26,4.26,0,0,1-.28-1.62,7.41,7.41,0,0,1,.43-2.57,6.59,6.59,0,0,1,1.22-2.11,5.53,5.53,0,0,1,1.89-1.39,5.82,5.82,0,0,1,2.43-.51,5.71,5.71,0,0,1,1.62.23,6.92,6.92,0,0,1,1.34.57l-.36,1.78h-.1l-.44-.37a4.79,4.79,0,0,0-.62-.39,5.33,5.33,0,0,0-.8-.32,3.81,3.81,0,0,0-1-.12,3.34,3.34,0,0,0-2.79,1.44,5.68,5.68,0,0,0-1.07,3.49,2.64,2.64,0,0,0,.64,1.91,2.39,2.39,0,0,0,1.81.66,4.24,4.24,0,0,0,1.11-.15,7.08,7.08,0,0,0,.94-.34c.29-.14.55-.28.8-.43l.53-.34h.1l-.35,1.8a11.49,11.49,0,0,1-1.62.59A6,6,0,0,1,344.78,426.32Z"/><path class="cls-4" d="M353.84,416.29l-2.27,9.81h-1.65l2.27-9.81Zm.9-3.36-.4,1.71h-1.87l.4-1.71Z"/><path class="cls-4" d="M364.5,419.76a7.94,7.94,0,0,1-.41,2.53A6.59,6.59,0,0,1,363,424.4a5.55,5.55,0,0,1-1.77,1.45,5,5,0,0,1-2.34.53,3.69,3.69,0,0,1-2.73-1,3.8,3.8,0,0,1-1-2.76,8,8,0,0,1,.4-2.51,6.86,6.86,0,0,1,1.16-2.13,5.45,5.45,0,0,1,1.79-1.43,5,5,0,0,1,2.31-.54,3.72,3.72,0,0,1,2.7,1A3.67,3.67,0,0,1,364.5,419.76Zm-2.69,3.71a5.64,5.64,0,0,0,.72-1.63,7.24,7.24,0,0,0,.25-1.95,2.64,2.64,0,0,0-.59-1.86,2.12,2.12,0,0,0-1.66-.64,2.92,2.92,0,0,0-1.53.41,3.88,3.88,0,0,0-1.17,1.12,5.65,5.65,0,0,0-.73,1.63,7.25,7.25,0,0,0-.25,1.93,2.67,2.67,0,0,0,.59,1.87,2.15,2.15,0,0,0,1.67.65,3,3,0,0,0,1.53-.41A3.77,3.77,0,0,0,361.81,423.47Zm2.61-12.1-3.12,3.29h-1.37l2.24-3.29Z"/><path class="cls-4" d="M375.6,418.53q0,.21,0,.57c0,.24-.07.45-.11.63L374,426.1h-1.64l1.28-5.59c.07-.31.13-.58.16-.81a4,4,0,0,0,.06-.69,1.5,1.5,0,0,0-.37-1.11,1.8,1.8,0,0,0-1.31-.38,3.7,3.7,0,0,0-1.48.37,11.23,11.23,0,0,0-1.57.89l-1.69,7.32h-1.65l2.27-9.81h1.65l-.25,1.08a10.55,10.55,0,0,1,1.76-1,4.34,4.34,0,0,1,1.69-.35,2.88,2.88,0,0,1,2,.65A2.37,2.37,0,0,1,375.6,418.53Z"/><path class="cls-5" d="M522.9,236.11H38V27.34H522.9ZM45.48,229.22h470v-195h-470Z"/><circle class="cls-5" cx="56.02" cy="44.77" r="37.4"/><path class="cls-3" d="M226.82,106.74h-9v3.65h8.38v3.8h-8.38v8.39h-5V102.94h14.06Z"/><path class="cls-3" d="M237.87,123a12.18,12.18,0,0,1-4-.65,8.65,8.65,0,0,1-3.19-1.92,8.84,8.84,0,0,1-2.06-3.19,12.3,12.3,0,0,1-.73-4.42,12,12,0,0,1,.7-4.23,9,9,0,0,1,2-3.26,8.67,8.67,0,0,1,3.17-2,11.74,11.74,0,0,1,4.13-.71,16.8,16.8,0,0,1,2.24.14,15.38,15.38,0,0,1,1.84.36,15.6,15.6,0,0,1,1.6.56c.48.21.9.4,1.26.58V109h-.58l-.93-.75a12.36,12.36,0,0,0-1.28-.85,8.33,8.33,0,0,0-1.57-.71,5.57,5.57,0,0,0-1.8-.29,6,6,0,0,0-2,.34,4.82,4.82,0,0,0-1.78,1.11,5.44,5.44,0,0,0-1.26,2,8.35,8.35,0,0,0-.48,3,7.89,7.89,0,0,0,.52,3.08,5.3,5.3,0,0,0,1.31,1.95,4.76,4.76,0,0,0,1.79,1,6.41,6.41,0,0,0,2,.31,6.32,6.32,0,0,0,1.82-.27,7.66,7.66,0,0,0,1.67-.75,12,12,0,0,0,1.2-.82c.37-.28.67-.53.91-.74h.53v4.69l-1.42.62a11.11,11.11,0,0,1-1.41.5,14.37,14.37,0,0,1-1.8.42A14.05,14.05,0,0,1,237.87,123Z"/><path class="cls-3" d="M265.35,122.58h-5.23l-1.36-4h-7.27l-1.37,4H245l7.25-19.64h5.83ZM257.54,115l-2.42-7-2.41,7Z"/><path class="cls-3" d="M287.67,122.34a2.53,2.53,0,0,0,.72,1.88,3.46,3.46,0,0,0,2.25.57,5.51,5.51,0,0,0,1.28-.18,7.44,7.44,0,0,0,1-.33h.5v3.46c-.49.12-1,.22-1.6.31a19,19,0,0,1-2.65.13,8.64,8.64,0,0,1-2.73-.39,5.43,5.43,0,0,1-2-1.1,4.45,4.45,0,0,1-1.14-1.65,6.39,6.39,0,0,1-.45-2.11,9.59,9.59,0,0,1-6.86-3,11.77,11.77,0,0,1,.23-14.69,11.39,11.39,0,0,1,14.84,0,10.2,10.2,0,0,1,2.7,7.48,11.11,11.11,0,0,1-1.58,6A8.29,8.29,0,0,1,287.67,122.34Zm-.54-4.6a5.86,5.86,0,0,0,1.1-2.12,10.2,10.2,0,0,0,.35-2.87,9.73,9.73,0,0,0-.4-3,6,6,0,0,0-1.07-2,4,4,0,0,0-1.55-1.14,4.78,4.78,0,0,0-1.83-.36,5,5,0,0,0-1.81.34,4.18,4.18,0,0,0-1.56,1.14,5.62,5.62,0,0,0-1.08,2,10.17,10.17,0,0,0-.41,3,9.59,9.59,0,0,0,.4,3,5.87,5.87,0,0,0,1.06,2,4.16,4.16,0,0,0,1.54,1.15,4.8,4.8,0,0,0,3.72,0A3.93,3.93,0,0,0,287.13,117.74Z"/><path class="cls-3" d="M310.87,122.58h-4.76v-1.64a13.2,13.2,0,0,1-2.41,1.52,5.91,5.91,0,0,1-2.6.52,4.9,4.9,0,0,1-3.77-1.41,5.84,5.84,0,0,1-1.33-4.16v-9.64h4.76v7.34c0,.75,0,1.37.07,1.87a3.15,3.15,0,0,0,.34,1.23,1.5,1.5,0,0,0,.76.71,3.59,3.59,0,0,0,1.42.23,4.65,4.65,0,0,0,1.34-.23,6.05,6.05,0,0,0,1.42-.65v-10.5h4.76Z"/><path class="cls-3" d="M318.92,105.66h-5v-3.6h5Zm-.13,16.92H314V107.77h4.76Z"/><path class="cls-3" d="M331.4,122.44a11.34,11.34,0,0,1-1.62.31,15.41,15.41,0,0,1-2.09.12,6.39,6.39,0,0,1-4.12-1.12c-.91-.75-1.36-2-1.36-3.84V111h-1.95v-3.22h1.95v-4.23H327v4.23h4.43V111H327v5.25c0,.52,0,1,0,1.36a2.89,2.89,0,0,0,.21,1.05,1.48,1.48,0,0,0,.65.73,2.75,2.75,0,0,0,1.36.27,5.57,5.57,0,0,0,1.8-.45h.39Z"/><path class="cls-3" d="M348.05,115.18a7.71,7.71,0,0,1-2.13,5.75,9.53,9.53,0,0,1-12,0,8.82,8.82,0,0,1,0-11.52,9.53,9.53,0,0,1,11.95,0A7.73,7.73,0,0,1,348.05,115.18Zm-5.84,3.6a3.69,3.69,0,0,0,.69-1.37,8,8,0,0,0,.23-2.2,9,9,0,0,0-.23-2.19,3.85,3.85,0,0,0-.66-1.41,2.31,2.31,0,0,0-1-.77,3.55,3.55,0,0,0-1.28-.22,3.86,3.86,0,0,0-1.22.18,2.59,2.59,0,0,0-1,.74A3.71,3.71,0,0,0,337,113a8.41,8.41,0,0,0-.26,2.26,8.58,8.58,0,0,0,.23,2.1,3.72,3.72,0,0,0,.65,1.43,2.62,2.62,0,0,0,1,.75,3.56,3.56,0,0,0,1.34.24,3.39,3.39,0,0,0,1.23-.22A2.19,2.19,0,0,0,342.21,118.78Z"/><path class="cls-3" d="M65,38.86,55.08,56.33H48.81L59.06,38.69H47.86V34.52H65Z"/></g></g></svg>