<svg xmlns="http://www.w3.org/2000/svg" viewBox="0 0 562.62 470.8"><defs><style>.cls-1,.cls-3{fill:#fff;}.cls-1{opacity:0;}.cls-2{fill:#035aa6;}.cls-4{fill:#ffd053;}.cls-5{fill:#84bf2c;}</style></defs><title>slide10_pregunta6</title><g id="Capa_2" data-name="Capa 2"><g id="Layer_7" data-name="Layer 7"><rect class="cls-1" width="562.62" height="470.8"/><rect class="cls-2" x="66.24" y="248.43" width="424.94" height="71.91" rx="12.02"/><path class="cls-3" d="M90.91,285.83H80.79V270.48H90.91v1.81H82.83v4.21h8.08v1.81H82.83V284h8.08Z"/><path class="cls-3" d="M103.62,285.83h-1.94v-6.56a11.7,11.7,0,0,0-.09-1.49,2.75,2.75,0,0,0-.34-1.08,1.55,1.55,0,0,0-.75-.65,3.16,3.16,0,0,0-1.25-.21,4,4,0,0,0-1.66.39,8.62,8.62,0,0,0-1.66,1v8.6H94V274.31h1.94v1.28a7.84,7.84,0,0,1,1.87-1.17,5,5,0,0,1,2-.43,3.57,3.57,0,0,1,2.85,1.13,4.81,4.81,0,0,1,1,3.24Z"/><path class="cls-3" d="M124.41,280.27h-8.48a4.75,4.75,0,0,0,.32,1.85,3.46,3.46,0,0,0,.87,1.3,3.53,3.53,0,0,0,1.28.74,5.19,5.19,0,0,0,1.62.25,6.53,6.53,0,0,0,2.37-.47,5.74,5.74,0,0,0,1.69-.92h.1v2.11a16.84,16.84,0,0,1-2,.69,8.31,8.31,0,0,1-2.14.28,6.18,6.18,0,0,1-4.47-1.55,5.83,5.83,0,0,1-1.61-4.41,6.34,6.34,0,0,1,1.54-4.49,5.31,5.31,0,0,1,4.06-1.66,4.65,4.65,0,0,1,3.59,1.37,5.45,5.45,0,0,1,1.26,3.86Zm-1.89-1.48a3.41,3.41,0,0,0-.76-2.36,3,3,0,0,0-2.31-.84,3.38,3.38,0,0,0-2.48.92,3.56,3.56,0,0,0-1,2.28Z"/><path class="cls-3" d="M129.31,285.83h-1.94v-16h1.94Z"/><path class="cls-3" d="M149.51,285.83h-1.92V284.6l-.7.49a4.48,4.48,0,0,1-.85.5,5.73,5.73,0,0,1-1.11.4,5.88,5.88,0,0,1-1.48.16,3.68,3.68,0,0,1-2.64-1,3.48,3.48,0,0,1-1.08-2.63,3.69,3.69,0,0,1,.56-2.12,3.77,3.77,0,0,1,1.61-1.27,8.6,8.6,0,0,1,2.52-.63c1-.11,2-.19,3.17-.25v-.3a2.23,2.23,0,0,0-.24-1.09,1.6,1.6,0,0,0-.66-.68,2.88,2.88,0,0,0-1-.32,9.34,9.34,0,0,0-1.21-.08,7.88,7.88,0,0,0-1.7.2,13.1,13.1,0,0,0-1.93.58h-.11v-2c.38-.1.93-.21,1.64-.34a12.79,12.79,0,0,1,2.11-.18,9.42,9.42,0,0,1,2.12.2,4,4,0,0,1,1.56.68,3,3,0,0,1,1,1.23,4.47,4.47,0,0,1,.34,1.87ZM147.59,283v-3.2c-.59,0-1.29.08-2.09.15a10.83,10.83,0,0,0-1.9.3,3.14,3.14,0,0,0-1.35.74,1.8,1.8,0,0,0-.52,1.38,1.84,1.84,0,0,0,.6,1.49,2.82,2.82,0,0,0,1.82.5A4.41,4.41,0,0,0,146,284,8.35,8.35,0,0,0,147.59,283Z"/><path class="cls-3" d="M162.88,280.27H154.4a4.94,4.94,0,0,0,.32,1.85,3.42,3.42,0,0,0,2.15,2,5.19,5.19,0,0,0,1.62.25,6.45,6.45,0,0,0,2.37-.47,5.74,5.74,0,0,0,1.69-.92h.11v2.11a18.18,18.18,0,0,1-2,.69,8.39,8.39,0,0,1-2.15.28,6.18,6.18,0,0,1-4.47-1.55,5.87,5.87,0,0,1-1.61-4.41,6.39,6.39,0,0,1,1.54-4.49A5.31,5.31,0,0,1,158,274a4.65,4.65,0,0,1,3.59,1.37,5.45,5.45,0,0,1,1.26,3.86ZM161,278.79a3.42,3.42,0,0,0-.77-2.36,2.93,2.93,0,0,0-2.3-.84,3.36,3.36,0,0,0-2.48.92,3.52,3.52,0,0,0-1,2.28Z"/><path class="cls-3" d="M173,276.43h-.1a6.77,6.77,0,0,0-.84-.15,9.05,9.05,0,0,0-1,0,3.91,3.91,0,0,0-1.73.4,8.2,8.2,0,0,0-1.61,1v8.18h-1.94V274.31h1.94V276a9.55,9.55,0,0,1,2-1.32,4.36,4.36,0,0,1,1.8-.39,6.29,6.29,0,0,1,.73,0l.68.1Z"/><path class="cls-3" d="M184.65,280.08a6.44,6.44,0,0,1-1.45,4.44,5.41,5.41,0,0,1-7.74,0,7.58,7.58,0,0,1,0-8.89,5.39,5.39,0,0,1,7.74,0A6.45,6.45,0,0,1,184.65,280.08Zm-2,0a5.24,5.24,0,0,0-.88-3.33,3.28,3.28,0,0,0-4.88,0,6.71,6.71,0,0,0,0,6.61,3.23,3.23,0,0,0,4.88,0A5.27,5.27,0,0,0,182.65,280.08Z"/><path class="cls-3" d="M197.78,279.93a7.68,7.68,0,0,1-.4,2.56,5.75,5.75,0,0,1-1.13,2,4.79,4.79,0,0,1-1.61,1.18,4.62,4.62,0,0,1-1.95.42,6.33,6.33,0,0,1-1.63-.2,6.47,6.47,0,0,1-1.47-.61v4.83h-1.94V274.31h1.94v1.21a7.81,7.81,0,0,1,1.73-1.09,5,5,0,0,1,2.06-.44,3.79,3.79,0,0,1,3.24,1.58A7.22,7.22,0,0,1,197.78,279.93Zm-2,.05a5.56,5.56,0,0,0-.71-3.11,2.46,2.46,0,0,0-2.19-1,4.31,4.31,0,0,0-1.68.36,7.56,7.56,0,0,0-1.61.95v6.53a8.42,8.42,0,0,0,1.41.5,6.19,6.19,0,0,0,1.35.13,3.08,3.08,0,0,0,2.52-1.09A5,5,0,0,0,195.78,280Z"/><path class="cls-3" d="M210.35,285.83h-1.94v-1.28a9.38,9.38,0,0,1-1.88,1.19,4.71,4.71,0,0,1-2,.41,3.61,3.61,0,0,1-2.82-1.11,4.69,4.69,0,0,1-1-3.25v-7.48h1.94v6.56a10.75,10.75,0,0,0,.08,1.5,2.65,2.65,0,0,0,.35,1.07,1.75,1.75,0,0,0,.72.66,3.16,3.16,0,0,0,1.29.2,4.19,4.19,0,0,0,1.65-.39,7.64,7.64,0,0,0,1.66-1v-8.6h1.94Z"/><path class="cls-3" d="M223.8,280.27h-8.48a4.75,4.75,0,0,0,.32,1.85,3.46,3.46,0,0,0,.87,1.3,3.53,3.53,0,0,0,1.28.74,5.19,5.19,0,0,0,1.62.25,6.53,6.53,0,0,0,2.37-.47,5.88,5.88,0,0,0,1.69-.92h.1v2.11a17.49,17.49,0,0,1-2,.69,8.31,8.31,0,0,1-2.14.28,6.18,6.18,0,0,1-4.47-1.55,5.83,5.83,0,0,1-1.61-4.41,6.34,6.34,0,0,1,1.54-4.49A5.31,5.31,0,0,1,219,274a4.65,4.65,0,0,1,3.59,1.37,5.45,5.45,0,0,1,1.26,3.86Zm-1.89-1.48a3.41,3.41,0,0,0-.76-2.36,3,3,0,0,0-2.31-.84,3.38,3.38,0,0,0-2.48.92,3.56,3.56,0,0,0-1,2.28Z"/><path class="cls-3" d="M233.92,276.43h-.1a6.77,6.77,0,0,0-.84-.15,8.72,8.72,0,0,0-1,0,3.88,3.88,0,0,0-1.73.4,7.92,7.92,0,0,0-1.61,1v8.18h-1.94V274.31h1.94V276a9.78,9.78,0,0,1,2-1.32,4.42,4.42,0,0,1,1.8-.39,6.17,6.17,0,0,1,.73,0l.68.1Z"/><path class="cls-3" d="M241.73,285.73a12,12,0,0,1-1.19.23,7.25,7.25,0,0,1-1.15.1,3.56,3.56,0,0,1-2.68-.95,4.27,4.27,0,0,1-.92-3v-6.13h-1.31v-1.63h1.31V271h1.94v3.3h4v1.63h-4v5.25c0,.61,0,1.08,0,1.42a2.24,2.24,0,0,0,.29.95,1.33,1.33,0,0,0,.62.6,2.88,2.88,0,0,0,1.21.2,3.87,3.87,0,0,0,1-.14,5.86,5.86,0,0,0,.74-.24h.11Z"/><path class="cls-3" d="M253.88,280.08a6.48,6.48,0,0,1-1.44,4.44,5.42,5.42,0,0,1-7.75,0,7.58,7.58,0,0,1,0-8.89,5.4,5.4,0,0,1,7.75,0A6.49,6.49,0,0,1,253.88,280.08Zm-2,0a5.3,5.3,0,0,0-.87-3.33,3.29,3.29,0,0,0-4.89,0,6.68,6.68,0,0,0,0,6.61,3.22,3.22,0,0,0,4.87,0A5.21,5.21,0,0,0,251.88,280.08Z"/><path class="cls-3" d="M273.65,285.83h-1.94v-1.21a6.86,6.86,0,0,1-1.75,1.13,4.74,4.74,0,0,1-2,.4,3.91,3.91,0,0,1-3.28-1.59,7.08,7.08,0,0,1-1.21-4.4,7.52,7.52,0,0,1,.42-2.61,6,6,0,0,1,1.13-1.95,4.73,4.73,0,0,1,1.63-1.19,4.66,4.66,0,0,1,1.93-.42,6,6,0,0,1,1.61.2,7,7,0,0,1,1.48.59v-5h1.94ZM271.71,283v-6.6a7,7,0,0,0-1.4-.49,6.44,6.44,0,0,0-1.35-.13,3.07,3.07,0,0,0-2.54,1.13,5,5,0,0,0-.91,3.22,5.77,5.77,0,0,0,.7,3.12,2.5,2.5,0,0,0,2.25,1.06,4.22,4.22,0,0,0,1.67-.36A7.29,7.29,0,0,0,271.71,283Z"/><path class="cls-3" d="M287.1,280.27h-8.49a4.94,4.94,0,0,0,.32,1.85,3.42,3.42,0,0,0,2.15,2,5.3,5.3,0,0,0,1.63.25,6.44,6.44,0,0,0,2.36-.47,5.82,5.82,0,0,0,1.7-.92h.1v2.11a17.49,17.49,0,0,1-2,.69,8.31,8.31,0,0,1-2.14.28,6.22,6.22,0,0,1-4.48-1.55,5.86,5.86,0,0,1-1.6-4.41,6.34,6.34,0,0,1,1.54-4.49,5.28,5.28,0,0,1,4.05-1.66,4.67,4.67,0,0,1,3.6,1.37,5.45,5.45,0,0,1,1.26,3.86Zm-1.89-1.48a3.37,3.37,0,0,0-.77-2.36,2.93,2.93,0,0,0-2.3-.84,3.38,3.38,0,0,0-2.48.92,3.62,3.62,0,0,0-1.05,2.28Z"/><path class="cls-3" d="M311.28,285.83h-2V272.6l-4.26,9h-1.22l-4.24-9v13.23h-1.91V270.48h2.79l4.09,8.55,4-8.55h2.83Z"/><path class="cls-3" d="M317.33,272.39h-2.18v-2h2.18Zm-.12,13.44h-1.94V274.31h1.94Z"/><path class="cls-3" d="M330,285.83h-1.93V284.6l-.7.49a4.48,4.48,0,0,1-.85.5,5.73,5.73,0,0,1-1.11.4,5.88,5.88,0,0,1-1.48.16,3.7,3.7,0,0,1-2.64-1,3.48,3.48,0,0,1-1.08-2.63,3.69,3.69,0,0,1,.56-2.12,3.77,3.77,0,0,1,1.61-1.27,8.6,8.6,0,0,1,2.52-.63c1-.11,2-.19,3.17-.25v-.3a2.23,2.23,0,0,0-.24-1.09,1.6,1.6,0,0,0-.66-.68,2.75,2.75,0,0,0-1-.32,9.34,9.34,0,0,0-1.21-.08,7.88,7.88,0,0,0-1.7.2,13.1,13.1,0,0,0-1.93.58h-.11v-2c.38-.1.93-.21,1.64-.34A12.82,12.82,0,0,1,325,274a9.39,9.39,0,0,1,2.11.2,4,4,0,0,1,1.56.68,3.08,3.08,0,0,1,1,1.23A4.63,4.63,0,0,1,330,278ZM328.07,283v-3.2c-.59,0-1.29.08-2.09.15a10.83,10.83,0,0,0-1.9.3,3.14,3.14,0,0,0-1.35.74,1.8,1.8,0,0,0-.52,1.38,1.84,1.84,0,0,0,.6,1.49,2.82,2.82,0,0,0,1.82.5,4.41,4.41,0,0,0,1.87-.4A8.35,8.35,0,0,0,328.07,283Z"/><path class="cls-3" d="M350.53,285.83h-1.94v-6.56c0-.49,0-1-.06-1.43a3,3,0,0,0-.29-1.1,1.52,1.52,0,0,0-.68-.67,2.87,2.87,0,0,0-1.28-.23,3.67,3.67,0,0,0-1.63.41,9.72,9.72,0,0,0-1.62,1c0,.16,0,.35.05.55s0,.42,0,.63v7.37h-1.94v-6.56a13.42,13.42,0,0,0-.07-1.45,3,3,0,0,0-.28-1.09,1.57,1.57,0,0,0-.68-.67,2.92,2.92,0,0,0-1.28-.22,3.58,3.58,0,0,0-1.59.39,9.59,9.59,0,0,0-1.6,1v8.6h-1.93V274.31h1.93v1.28a8.65,8.65,0,0,1,1.81-1.17,4.57,4.57,0,0,1,1.93-.43,3.79,3.79,0,0,1,2,.5,3.06,3.06,0,0,1,1.22,1.37,10,10,0,0,1,2.15-1.43,5,5,0,0,1,2.07-.44,3.36,3.36,0,0,1,2.8,1.15,5.12,5.12,0,0,1,.9,3.22Z"/><path class="cls-3" d="M356.34,272.39h-2.18v-2h2.18Zm-.12,13.44h-1.94V274.31h1.94Z"/><path class="cls-3" d="M363.22,285.83h-2.46v-2.94h2.46Z"/><rect class="cls-2" x="66.8" y="330.73" width="424.94" height="71.91" rx="12.02"/><path class="cls-3" d="M93.45,355.13H91.28l-1.51-4.27H83.13l-1.5,4.27H79.55l5.59-15.35h2.72Zm-4.31-6-2.69-7.53-2.7,7.53Z"/><path class="cls-3" d="M97.59,355.13H95.65v-16h1.94Z"/><path class="cls-3" d="M119,349.24a8,8,0,0,1-.4,2.56,5.57,5.57,0,0,1-1.14,2,4.63,4.63,0,0,1-1.6,1.18,4.7,4.7,0,0,1-2,.42,6.32,6.32,0,0,1-1.62-.19,7.6,7.6,0,0,1-1.48-.61v4.82h-1.94V343.62h1.94v1.21a7.4,7.4,0,0,1,1.74-1.09,5,5,0,0,1,2.06-.44,3.81,3.81,0,0,1,3.24,1.57A7.27,7.27,0,0,1,119,349.24Zm-2,.05a5.52,5.52,0,0,0-.71-3.11,2.48,2.48,0,0,0-2.19-1,4.24,4.24,0,0,0-1.68.36,7.83,7.83,0,0,0-1.62.94V353a7.54,7.54,0,0,0,1.42.51,6.69,6.69,0,0,0,1.34.13,3.13,3.13,0,0,0,2.53-1.09A5,5,0,0,0,117,349.29Z"/><path class="cls-3" d="M131.81,349.38a6.45,6.45,0,0,1-1.44,4.44,5.42,5.42,0,0,1-7.75,0,7.58,7.58,0,0,1,0-8.89,5.42,5.42,0,0,1,7.75,0A6.51,6.51,0,0,1,131.81,349.38Zm-2,0a5.25,5.25,0,0,0-.87-3.32,3.29,3.29,0,0,0-4.89,0,5.25,5.25,0,0,0-.87,3.32,5.31,5.31,0,0,0,.88,3.29,3.24,3.24,0,0,0,4.87,0A5.22,5.22,0,0,0,129.81,349.38Z"/><path class="cls-3" d="M142,345.73h-.11a6.17,6.17,0,0,0-.84-.15,9,9,0,0,0-1,0,4,4,0,0,0-1.73.39,8.26,8.26,0,0,0-1.61,1v8.17h-1.94V343.62h1.94v1.7a9.09,9.09,0,0,1,2-1.31,4.36,4.36,0,0,1,1.8-.39,6.29,6.29,0,0,1,.73,0l.68.09Z"/><path class="cls-3" d="M149.8,355a9.26,9.26,0,0,1-1.19.24,8.38,8.38,0,0,1-1.15.09,3.54,3.54,0,0,1-2.68-.95,4.25,4.25,0,0,1-.92-3v-6.12h-1.31v-1.63h1.31v-3.31h1.94v3.31h4v1.63h-4v5.25c0,.6,0,1.07,0,1.41a2.49,2.49,0,0,0,.29,1,1.43,1.43,0,0,0,.62.6,2.92,2.92,0,0,0,1.22.19,4,4,0,0,0,1-.14,7,7,0,0,0,.74-.23h.1Z"/><path class="cls-3" d="M161.78,349.58H153.3a4.78,4.78,0,0,0,.32,1.85,3.38,3.38,0,0,0,2.15,2,4.92,4.92,0,0,0,1.62.25,6.24,6.24,0,0,0,2.36-.47,5.82,5.82,0,0,0,1.7-.92h.1v2.11a14.32,14.32,0,0,1-2,.69,7.9,7.9,0,0,1-2.14.28,6.14,6.14,0,0,1-4.47-1.55,5.8,5.8,0,0,1-1.61-4.41,6.32,6.32,0,0,1,1.54-4.48,5.26,5.26,0,0,1,4-1.66,4.65,4.65,0,0,1,3.6,1.36,5.5,5.5,0,0,1,1.26,3.87Zm-1.89-1.49a3.43,3.43,0,0,0-.76-2.36,3,3,0,0,0-2.31-.83,3.34,3.34,0,0,0-2.48.92,3.56,3.56,0,0,0-1,2.27Z"/><path class="cls-3" d="M173.67,355.13h-1.93v-1.22l-.7.49a5.08,5.08,0,0,1-.85.5,5.15,5.15,0,0,1-1.11.39,5.85,5.85,0,0,1-1.47.16,3.67,3.67,0,0,1-2.64-1,3.43,3.43,0,0,1-1.09-2.63,3.58,3.58,0,0,1,.57-2.11,3.69,3.69,0,0,1,1.6-1.28,8.6,8.6,0,0,1,2.52-.63c1-.11,2-.19,3.17-.24v-.3a2.39,2.39,0,0,0-.23-1.1,1.82,1.82,0,0,0-.67-.68,3,3,0,0,0-1-.32,9.18,9.18,0,0,0-1.2-.08,8.4,8.4,0,0,0-1.7.2,12.93,12.93,0,0,0-1.94.59h-.11v-2a16,16,0,0,1,1.64-.34,11.85,11.85,0,0,1,2.12-.19,10.18,10.18,0,0,1,2.12.2,4.11,4.11,0,0,1,1.56.69,3,3,0,0,1,1,1.22,4.7,4.7,0,0,1,.34,1.87Zm-1.93-2.83v-3.21l-2.09.16a11,11,0,0,0-1.9.3,3,3,0,0,0-1.35.73,1.87,1.87,0,0,0-.52,1.38,1.82,1.82,0,0,0,.6,1.49,2.83,2.83,0,0,0,1.83.5,4.22,4.22,0,0,0,1.86-.4A8,8,0,0,0,171.74,352.3Z"/><path class="cls-3" d="M186.74,355.13H184.8v-1.2a7.23,7.23,0,0,1-1.74,1.12,4.79,4.79,0,0,1-2,.4,3.89,3.89,0,0,1-3.27-1.58,7.11,7.11,0,0,1-1.22-4.41,7.5,7.5,0,0,1,.42-2.6,6,6,0,0,1,1.13-1.95,4.83,4.83,0,0,1,1.64-1.2,4.78,4.78,0,0,1,1.93-.41,6.08,6.08,0,0,1,1.61.19,8.2,8.2,0,0,1,1.47.59v-5h1.94Zm-1.94-2.83v-6.61a7.52,7.52,0,0,0-1.4-.48,6.29,6.29,0,0,0-1.35-.14,3.07,3.07,0,0,0-2.54,1.14,5,5,0,0,0-.91,3.21,5.67,5.67,0,0,0,.71,3.12,2.48,2.48,0,0,0,2.24,1.07,4.07,4.07,0,0,0,1.67-.37A7,7,0,0,0,184.8,352.3Z"/><path class="cls-3" d="M200.37,349.38a6.4,6.4,0,0,1-1.45,4.44,5.41,5.41,0,0,1-7.74,0,7.58,7.58,0,0,1,0-8.89,5.41,5.41,0,0,1,7.74,0A6.46,6.46,0,0,1,200.37,349.38Zm-2,0a5.19,5.19,0,0,0-.88-3.32,3.28,3.28,0,0,0-4.88,0,5.25,5.25,0,0,0-.87,3.32,5.31,5.31,0,0,0,.87,3.29,3.25,3.25,0,0,0,4.88,0A5.28,5.28,0,0,0,198.37,349.38Z"/><path class="cls-3" d="M210.55,345.73h-.1a6.77,6.77,0,0,0-.84-.15,9,9,0,0,0-1,0,4.09,4.09,0,0,0-1.74.39,8.19,8.19,0,0,0-1.6,1v8.17h-1.94V343.62h1.94v1.7a9.05,9.05,0,0,1,2-1.31,4.42,4.42,0,0,1,1.8-.39,6.17,6.17,0,0,1,.73,0l.68.09Z"/><path class="cls-3" d="M213.41,352.2,210.5,359H209l1.79-6.75Z"/><path class="cls-3" d="M234.13,349.58h-8.48a4.78,4.78,0,0,0,.32,1.85,3.38,3.38,0,0,0,2.15,2,4.92,4.92,0,0,0,1.62.25,6.24,6.24,0,0,0,2.36-.47,5.82,5.82,0,0,0,1.7-.92h.1v2.11a14.32,14.32,0,0,1-2,.69,7.9,7.9,0,0,1-2.14.28,6.14,6.14,0,0,1-4.47-1.55,5.8,5.8,0,0,1-1.61-4.41,6.32,6.32,0,0,1,1.54-4.48,5.26,5.26,0,0,1,4.05-1.66,4.65,4.65,0,0,1,3.6,1.36,5.5,5.5,0,0,1,1.26,3.87Zm-1.89-1.49a3.43,3.43,0,0,0-.76-2.36,3,3,0,0,0-2.31-.83,3.34,3.34,0,0,0-2.48.92,3.56,3.56,0,0,0-1,2.27Z"/><path class="cls-3" d="M246.7,355.13h-1.94v-6.55a11.58,11.58,0,0,0-.09-1.49,2.92,2.92,0,0,0-.34-1.09,1.57,1.57,0,0,0-.75-.64,3.16,3.16,0,0,0-1.25-.21,4,4,0,0,0-1.66.39,8.14,8.14,0,0,0-1.66,1v8.59h-1.94V343.62H239v1.28a7.89,7.89,0,0,1,1.87-1.18,5,5,0,0,1,2-.42,3.58,3.58,0,0,1,2.85,1.12,4.81,4.81,0,0,1,1,3.24Z"/><path class="cls-3" d="M267.49,349.58H259a4.78,4.78,0,0,0,.32,1.85,3.38,3.38,0,0,0,2.15,2,4.92,4.92,0,0,0,1.62.25,6.24,6.24,0,0,0,2.36-.47,5.82,5.82,0,0,0,1.7-.92h.1v2.11a14.32,14.32,0,0,1-2,.69,7.9,7.9,0,0,1-2.14.28,6.14,6.14,0,0,1-4.47-1.55,5.8,5.8,0,0,1-1.61-4.41,6.32,6.32,0,0,1,1.54-4.48,5.26,5.26,0,0,1,4.05-1.66,4.65,4.65,0,0,1,3.6,1.36,5.5,5.5,0,0,1,1.26,3.87Zm-1.89-1.49a3.43,3.43,0,0,0-.76-2.36,3,3,0,0,0-2.31-.83,3.34,3.34,0,0,0-2.48.92,3.56,3.56,0,0,0-1,2.27Z"/><path class="cls-3" d="M272.39,355.13h-1.94v-16h1.94Z"/><path class="cls-3" d="M285.6,355.13h-1.93v-16h1.93Z"/><path class="cls-3" d="M299,355.13h-1.94v-1.27a9.58,9.58,0,0,1-1.88,1.18,4.62,4.62,0,0,1-2,.41,3.64,3.64,0,0,1-2.82-1.1,4.66,4.66,0,0,1-1-3.26v-7.47h1.93v6.56a10.78,10.78,0,0,0,.09,1.5,2.6,2.6,0,0,0,.35,1.06,1.53,1.53,0,0,0,.72.66,3.11,3.11,0,0,0,1.29.21,4.11,4.11,0,0,0,1.64-.39,7.86,7.86,0,0,0,1.67-1v-8.6H299Z"/><path class="cls-3" d="M312.14,353.82a6,6,0,0,1-1.33,4.3,5.45,5.45,0,0,1-4.09,1.37,13.12,13.12,0,0,1-1.79-.12,14.64,14.64,0,0,1-1.72-.37v-2h.11a12.49,12.49,0,0,0,1.5.46,8.09,8.09,0,0,0,2.06.27,5.05,5.05,0,0,0,1.64-.23,2.4,2.4,0,0,0,1-.66,2.45,2.45,0,0,0,.52-1,5,5,0,0,0,.15-1.27v-1.05a7.64,7.64,0,0,1-1.67,1,5.19,5.19,0,0,1-2,.35,4,4,0,0,1-3.27-1.49,6.47,6.47,0,0,1-1.21-4.2,7.27,7.27,0,0,1,.41-2.56,5.82,5.82,0,0,1,1.14-1.86,4.61,4.61,0,0,1,1.63-1.14,4.9,4.9,0,0,1,1.91-.41,6.05,6.05,0,0,1,1.67.2,7.38,7.38,0,0,1,1.43.61l.13-.49h1.81ZM310.2,352v-6.28a7.51,7.51,0,0,0-1.44-.5,5.94,5.94,0,0,0-1.32-.15,3.16,3.16,0,0,0-2.52,1.07,4.7,4.7,0,0,0-.91,3.12,5.2,5.2,0,0,0,.68,2.94,2.53,2.53,0,0,0,2.25,1,4.67,4.67,0,0,0,1.7-.33A6.25,6.25,0,0,0,310.2,352Z"/><path class="cls-3" d="M324.9,355.13H323v-1.22l-.69.49a5.51,5.51,0,0,1-.85.5,5.24,5.24,0,0,1-1.12.39,5.8,5.8,0,0,1-1.47.16,3.67,3.67,0,0,1-2.64-1,3.46,3.46,0,0,1-1.08-2.63,3.65,3.65,0,0,1,.56-2.11,3.81,3.81,0,0,1,1.6-1.28,8.75,8.75,0,0,1,2.53-.63c1-.11,2-.19,3.16-.24v-.3a2.27,2.27,0,0,0-.23-1.1,1.72,1.72,0,0,0-.66-.68,3.11,3.11,0,0,0-1-.32,9.46,9.46,0,0,0-1.21-.08,8.48,8.48,0,0,0-1.7.2,13.68,13.68,0,0,0-1.94.59h-.1v-2a15.44,15.44,0,0,1,1.64-.34,11.74,11.74,0,0,1,2.11-.19,10.11,10.11,0,0,1,2.12.2,4.11,4.11,0,0,1,1.56.69,3,3,0,0,1,1,1.22,4.53,4.53,0,0,1,.34,1.87ZM323,352.3v-3.21l-2.08.16a10.83,10.83,0,0,0-1.9.3,3.12,3.12,0,0,0-1.36.73,1.86,1.86,0,0,0-.51,1.38,1.82,1.82,0,0,0,.6,1.49,2.8,2.8,0,0,0,1.82.5,4.3,4.3,0,0,0,1.87-.4A8.23,8.23,0,0,0,323,352.3Z"/><path class="cls-3" d="M335.82,345.73h-.1a6.77,6.77,0,0,0-.84-.15,9.29,9.29,0,0,0-1,0,4,4,0,0,0-1.73.39,8.26,8.26,0,0,0-1.61,1v8.17h-1.94V343.62h1.94v1.7a9.09,9.09,0,0,1,2-1.31,4.39,4.39,0,0,1,1.8-.39,6.29,6.29,0,0,1,.73,0l.68.09Z"/><path class="cls-3" d="M354.41,355.13h-1.94v-1.2a7.23,7.23,0,0,1-1.74,1.12,4.82,4.82,0,0,1-2,.4,3.93,3.93,0,0,1-3.28-1.58,7.18,7.18,0,0,1-1.21-4.41,7.5,7.5,0,0,1,.42-2.6,5.82,5.82,0,0,1,1.13-1.95,4.74,4.74,0,0,1,3.57-1.61,6,6,0,0,1,1.6.19,8.28,8.28,0,0,1,1.48.59v-5h1.94Zm-1.94-2.83v-6.61a7.52,7.52,0,0,0-1.4-.48,6.43,6.43,0,0,0-1.35-.14,3.05,3.05,0,0,0-2.54,1.14,5,5,0,0,0-.91,3.21,5.77,5.77,0,0,0,.7,3.12,2.5,2.5,0,0,0,2.25,1.07,4.07,4.07,0,0,0,1.67-.37A7.25,7.25,0,0,0,352.47,352.3Z"/><path class="cls-3" d="M367.86,349.58h-8.49a4.78,4.78,0,0,0,.33,1.85,3.39,3.39,0,0,0,2.14,2,5,5,0,0,0,1.63.25,6.24,6.24,0,0,0,2.36-.47,5.82,5.82,0,0,0,1.7-.92h.1v2.11a14.32,14.32,0,0,1-2,.69,7.9,7.9,0,0,1-2.14.28,6.18,6.18,0,0,1-4.48-1.55,5.83,5.83,0,0,1-1.6-4.41A6.32,6.32,0,0,1,359,345,5.25,5.25,0,0,1,363,343.3a4.67,4.67,0,0,1,3.6,1.36,5.5,5.5,0,0,1,1.26,3.87ZM366,348.09a3.43,3.43,0,0,0-.76-2.36,3,3,0,0,0-2.31-.83,3.34,3.34,0,0,0-2.48.92,3.62,3.62,0,0,0-1.05,2.27Z"/><path class="cls-3" d="M388,349.38a6.45,6.45,0,0,1-1.45,4.44,5.42,5.42,0,0,1-7.75,0,7.62,7.62,0,0,1,0-8.89,5.42,5.42,0,0,1,7.75,0A6.51,6.51,0,0,1,388,349.38Zm-2,0a5.25,5.25,0,0,0-.88-3.32,3.28,3.28,0,0,0-4.88,0,5.25,5.25,0,0,0-.87,3.32,5.31,5.31,0,0,0,.87,3.29,3.24,3.24,0,0,0,4.87,0A5.22,5.22,0,0,0,386,349.38Z"/><path class="cls-3" d="M398.22,345.73h-.1a6.77,6.77,0,0,0-.84-.15,9.17,9.17,0,0,0-1,0,4.08,4.08,0,0,0-1.73.39,8.26,8.26,0,0,0-1.61,1v8.17H391V343.62H393v1.7a9.09,9.09,0,0,1,2-1.31,4.42,4.42,0,0,1,1.8-.39,6.29,6.29,0,0,1,.73,0l.68.09Z"/><path class="cls-3" d="M402.13,341.69h-2.19v-2h2.19ZM402,355.13h-1.93V343.62H402Z"/><path class="cls-3" d="M415.18,353.82a6,6,0,0,1-1.33,4.3,5.45,5.45,0,0,1-4.09,1.37,13,13,0,0,1-1.79-.12,14.22,14.22,0,0,1-1.72-.37v-2h.1a13.43,13.43,0,0,0,1.51.46,8.09,8.09,0,0,0,2.06.27,5.05,5.05,0,0,0,1.64-.23,2.4,2.4,0,0,0,1-.66,2.45,2.45,0,0,0,.52-1,5,5,0,0,0,.15-1.27v-1.05a7.64,7.64,0,0,1-1.67,1,5.22,5.22,0,0,1-2,.35,4,4,0,0,1-3.27-1.49,6.47,6.47,0,0,1-1.22-4.2,7,7,0,0,1,.42-2.56,5.82,5.82,0,0,1,1.14-1.86,4.61,4.61,0,0,1,1.63-1.14,4.87,4.87,0,0,1,1.91-.41,6.11,6.11,0,0,1,1.67.2,7.38,7.38,0,0,1,1.43.61l.12-.49h1.82ZM413.24,352v-6.28a7.51,7.51,0,0,0-1.44-.5,5.94,5.94,0,0,0-1.32-.15,3.15,3.15,0,0,0-2.52,1.07,4.7,4.7,0,0,0-.92,3.12,5.19,5.19,0,0,0,.69,2.94,2.53,2.53,0,0,0,2.25,1,4.67,4.67,0,0,0,1.7-.33A6.25,6.25,0,0,0,413.24,352Z"/><path class="cls-3" d="M428.63,349.58h-8.48a4.78,4.78,0,0,0,.32,1.85,3.38,3.38,0,0,0,2.15,2,4.92,4.92,0,0,0,1.62.25,6.33,6.33,0,0,0,2.37-.47,5.74,5.74,0,0,0,1.69-.92h.11v2.11a14.78,14.78,0,0,1-2,.69,8,8,0,0,1-2.15.28,6.14,6.14,0,0,1-4.47-1.55,5.8,5.8,0,0,1-1.61-4.41,6.32,6.32,0,0,1,1.54-4.48,5.27,5.27,0,0,1,4.06-1.66,4.64,4.64,0,0,1,3.59,1.36,5.5,5.5,0,0,1,1.26,3.87Zm-1.88-1.49a3.48,3.48,0,0,0-.77-2.36,3,3,0,0,0-2.31-.83,3.35,3.35,0,0,0-2.48.92,3.56,3.56,0,0,0-1,2.27Z"/><path class="cls-3" d="M441.2,355.13h-1.94v-6.55a11.58,11.58,0,0,0-.09-1.49,2.75,2.75,0,0,0-.34-1.09,1.55,1.55,0,0,0-.74-.64,3.25,3.25,0,0,0-1.26-.21,4,4,0,0,0-1.66.39,8.14,8.14,0,0,0-1.66,1v8.59h-1.94V343.62h1.94v1.28a7.89,7.89,0,0,1,1.87-1.18,5,5,0,0,1,2-.42,3.56,3.56,0,0,1,2.85,1.12,4.81,4.81,0,0,1,1,3.24Z"/><path class="cls-3" d="M448.1,355.13h-2.47V352.2h2.47Z"/><path class="cls-4" d="M181.37,426.34a10.65,10.65,0,0,1-2.43-.27,10.24,10.24,0,0,1-2.26-.82l.42-2h.13a5.6,5.6,0,0,0,2.07,1.22,7,7,0,0,0,2.36.43,4.82,4.82,0,0,0,2.88-.74,2.29,2.29,0,0,0,1-1.9,1.51,1.51,0,0,0-.35-1,2.14,2.14,0,0,0-1.05-.6q-.57-.15-1.35-.3c-.53-.1-1-.2-1.5-.31a4.36,4.36,0,0,1-2.14-1.06,2.5,2.5,0,0,1-.75-1.85A3.8,3.8,0,0,1,180,414a6.46,6.46,0,0,1,4.1-1.24,10,10,0,0,1,2.49.28,10.74,10.74,0,0,1,1.93.68l-.39,1.87H188a5.37,5.37,0,0,0-1.78-1,7.34,7.34,0,0,0-2.43-.41,4.29,4.29,0,0,0-2.56.7,2.16,2.16,0,0,0-1,1.79,1.59,1.59,0,0,0,.34,1,2.23,2.23,0,0,0,1.22.66l1.5.32c.62.12,1.14.24,1.56.35a4.09,4.09,0,0,1,1.9,1,2.39,2.39,0,0,1,.64,1.71,3.85,3.85,0,0,1-.42,1.71,4.16,4.16,0,0,1-1.18,1.46,5.93,5.93,0,0,1-1.89,1A7.9,7.9,0,0,1,181.37,426.34Z"/><path class="cls-4" d="M193.67,426.33a4.87,4.87,0,0,1-3.2-1,3.42,3.42,0,0,1-1.16-2.8,6.79,6.79,0,0,1,1.7-4.63,5.44,5.44,0,0,1,4.22-1.93,3.65,3.65,0,0,1,2.56.83,3.07,3.07,0,0,1,.88,2.34,6.93,6.93,0,0,1-.07.83c0,.38-.13.83-.24,1.33h-7.24a4.61,4.61,0,0,0-.07.5,3.7,3.7,0,0,0,0,.46,2.54,2.54,0,0,0,.75,1.94,3,3,0,0,0,2.15.71,5.6,5.6,0,0,0,2-.38,7.57,7.57,0,0,0,1.71-.85h.1l-.36,1.79-.79.29c-.23.08-.53.17-.89.26s-.69.15-1,.2A6.19,6.19,0,0,1,193.67,426.33Zm3.3-6.2c0-.17.05-.32.06-.43s0-.25,0-.39a2,2,0,0,0-.52-1.47,2.22,2.22,0,0,0-1.65-.53,3.41,3.41,0,0,0-2.21.78,3.75,3.75,0,0,0-1.31,2Z"/><path class="cls-4" d="M204.57,412.43l-3.16,13.67h-1.65l3.16-13.67Z"/><path class="cls-4" d="M209.33,426.33a4.89,4.89,0,0,1-3.2-1,3.42,3.42,0,0,1-1.16-2.8,6.75,6.75,0,0,1,1.71-4.63,5.41,5.41,0,0,1,4.21-1.93,3.63,3.63,0,0,1,2.56.83,3.07,3.07,0,0,1,.88,2.34,6.93,6.93,0,0,1-.07.83c0,.38-.13.83-.24,1.33h-7.24a4.61,4.61,0,0,0-.07.5,3.7,3.7,0,0,0,0,.46,2.54,2.54,0,0,0,.75,1.94,3,3,0,0,0,2.15.71,5.56,5.56,0,0,0,2-.38,7.88,7.88,0,0,0,1.72-.85h.09l-.36,1.79-.79.29c-.23.08-.53.17-.89.26s-.69.15-1,.2A6.19,6.19,0,0,1,209.33,426.33Zm3.3-6.2c0-.17.05-.32.06-.43s0-.25,0-.39a2,2,0,0,0-.52-1.47,2.21,2.21,0,0,0-1.64-.53,3.44,3.44,0,0,0-2.22.78,3.8,3.8,0,0,0-1.31,2Z"/><path class="cls-4" d="M219.66,426.32a5.54,5.54,0,0,1-1.65-.22,3.19,3.19,0,0,1-1.25-.69,3.05,3.05,0,0,1-.8-1.15,4.26,4.26,0,0,1-.28-1.62,7.41,7.41,0,0,1,.43-2.57,6.59,6.59,0,0,1,1.22-2.11,5.53,5.53,0,0,1,1.89-1.39,5.82,5.82,0,0,1,2.43-.51,5.71,5.71,0,0,1,1.62.23,7.2,7.2,0,0,1,1.34.57l-.36,1.78h-.1c-.12-.1-.26-.23-.44-.36a3.32,3.32,0,0,0-.62-.4,4.45,4.45,0,0,0-.8-.32,3.81,3.81,0,0,0-1-.12,3.34,3.34,0,0,0-2.79,1.44,5.68,5.68,0,0,0-1.07,3.49,2.68,2.68,0,0,0,.63,1.91,2.42,2.42,0,0,0,1.82.66,4.24,4.24,0,0,0,1.11-.15,7.08,7.08,0,0,0,.94-.34c.28-.14.55-.28.8-.43l.53-.34h.1l-.35,1.8a11.49,11.49,0,0,1-1.62.59A6,6,0,0,1,219.66,426.32Z"/><path class="cls-4" d="M229,426.32a5.54,5.54,0,0,1-1.65-.22,3.19,3.19,0,0,1-1.25-.69,3.05,3.05,0,0,1-.8-1.15,4.26,4.26,0,0,1-.28-1.62,7.41,7.41,0,0,1,.43-2.57,6.41,6.41,0,0,1,1.22-2.11,5.53,5.53,0,0,1,1.89-1.39,5.8,5.8,0,0,1,2.42-.51,5.73,5.73,0,0,1,1.63.23,7.2,7.2,0,0,1,1.34.57l-.36,1.78h-.1c-.12-.1-.26-.23-.44-.36a3.68,3.68,0,0,0-.62-.4,4.45,4.45,0,0,0-.8-.32,3.89,3.89,0,0,0-1-.12,3.33,3.33,0,0,0-2.78,1.44,5.62,5.62,0,0,0-1.07,3.49,2.68,2.68,0,0,0,.63,1.91,2.42,2.42,0,0,0,1.82.66,4.24,4.24,0,0,0,1.11-.15,7.64,7.64,0,0,0,.94-.34c.28-.14.55-.28.8-.43l.53-.34h.1l-.35,1.8a11.49,11.49,0,0,1-1.62.59A6,6,0,0,1,229,426.32Z"/><path class="cls-4" d="M238.1,416.29l-2.27,9.81h-1.65l2.27-9.81Zm.9-3.36-.4,1.71h-1.87l.4-1.71Z"/><path class="cls-4" d="M248.75,419.76a7.93,7.93,0,0,1-.4,2.53,6.59,6.59,0,0,1-1.14,2.11,5.68,5.68,0,0,1-1.77,1.45,5,5,0,0,1-2.34.53,3.66,3.66,0,0,1-2.73-1,3.8,3.8,0,0,1-1-2.76,7.76,7.76,0,0,1,.4-2.51A6.66,6.66,0,0,1,241,418a5.35,5.35,0,0,1,1.79-1.43,5,5,0,0,1,2.31-.54,3.75,3.75,0,0,1,2.7,1A3.67,3.67,0,0,1,248.75,419.76Zm-2.69,3.71a5.4,5.4,0,0,0,.73-1.63,7.29,7.29,0,0,0,.25-1.95,2.64,2.64,0,0,0-.59-1.86,2.13,2.13,0,0,0-1.66-.64,2.92,2.92,0,0,0-1.53.41,3.88,3.88,0,0,0-1.17,1.12,5.4,5.4,0,0,0-.73,1.63,7.25,7.25,0,0,0-.25,1.93,2.72,2.72,0,0,0,.58,1.87,2.16,2.16,0,0,0,1.67.65,2.92,2.92,0,0,0,1.53-.41A3.56,3.56,0,0,0,246.06,423.47Z"/><path class="cls-4" d="M259.86,418.53a4.67,4.67,0,0,1,0,.57,3.41,3.41,0,0,1-.11.63l-1.47,6.37h-1.65l1.29-5.59c.07-.31.12-.58.16-.81a4,4,0,0,0,.06-.69,1.5,1.5,0,0,0-.37-1.11,1.8,1.8,0,0,0-1.31-.37,3.67,3.67,0,0,0-1.48.36,10.68,10.68,0,0,0-1.57.89l-1.69,7.32H250l2.26-9.81h1.65l-.25,1.08a11,11,0,0,1,1.77-1,4.3,4.3,0,0,1,1.69-.35,2.9,2.9,0,0,1,2,.65A2.4,2.4,0,0,1,259.86,418.53Z"/><path class="cls-4" d="M266.06,426.33a4.84,4.84,0,0,1-3.19-1,3.39,3.39,0,0,1-1.16-2.8,6.74,6.74,0,0,1,1.7-4.63,5.42,5.42,0,0,1,4.21-1.93,3.62,3.62,0,0,1,2.56.83,3.07,3.07,0,0,1,.89,2.34,7.54,7.54,0,0,1-.08.83c-.05.38-.13.83-.24,1.33h-7.23a4.71,4.71,0,0,0-.08.5c0,.16,0,.32,0,.46a2.51,2.51,0,0,0,.76,1.94,3,3,0,0,0,2.14.71,5.52,5.52,0,0,0,2-.38,7.66,7.66,0,0,0,1.72-.85h.1l-.36,1.79c-.3.1-.56.2-.79.29s-.54.17-.9.26-.68.15-1,.2A6.39,6.39,0,0,1,266.06,426.33Zm3.3-6.2c0-.17.05-.32.06-.43a2.42,2.42,0,0,0,0-.39,2,2,0,0,0-.51-1.47,2.24,2.24,0,0,0-1.65-.53,3.46,3.46,0,0,0-2.22.78,3.8,3.8,0,0,0-1.31,2Z"/><path class="cls-4" d="M288.86,416.29l-2.26,9.81H285l.25-1.08a11.6,11.6,0,0,1-1.75,1,4.16,4.16,0,0,1-1.71.36,2.87,2.87,0,0,1-2-.64,2.4,2.4,0,0,1-.71-1.86,3.69,3.69,0,0,1,0-.58c0-.19.06-.4.11-.64l1.46-6.37h1.65L281,421.88a6,6,0,0,0-.15.78,4.19,4.19,0,0,0-.07.69,1.53,1.53,0,0,0,.38,1.14,1.82,1.82,0,0,0,1.3.37,3.73,3.73,0,0,0,1.49-.37,9.93,9.93,0,0,0,1.54-.87l1.69-7.33Z"/><path class="cls-4" d="M299.69,418.53a4.67,4.67,0,0,1,0,.57,3.41,3.41,0,0,1-.11.63l-1.47,6.37h-1.64l1.28-5.59c.07-.31.12-.58.16-.81a4,4,0,0,0,.06-.69,1.5,1.5,0,0,0-.37-1.11,1.8,1.8,0,0,0-1.31-.37,3.67,3.67,0,0,0-1.48.36,11.23,11.23,0,0,0-1.57.89l-1.69,7.32h-1.65l2.27-9.81h1.65l-.25,1.08a10.55,10.55,0,0,1,1.76-1A4.3,4.3,0,0,1,297,416a2.9,2.9,0,0,1,2,.65A2.4,2.4,0,0,1,299.69,418.53Z"/><path class="cls-4" d="M307.48,425.06l-.65.4a5.5,5.5,0,0,1-.83.44,5.09,5.09,0,0,1-1,.34,5.36,5.36,0,0,1-1.27.14,2.7,2.7,0,0,1-1.9-.68,2.33,2.33,0,0,1-.73-1.79,3.63,3.63,0,0,1,.51-2,3.83,3.83,0,0,1,1.53-1.31,8,8,0,0,1,2.39-.73,24.25,24.25,0,0,1,3.2-.27c0-.17.06-.31.09-.43a2.21,2.21,0,0,0,0-.37,1.31,1.31,0,0,0-.17-.69,1.1,1.1,0,0,0-.48-.42,2.11,2.11,0,0,0-.71-.22,8.42,8.42,0,0,0-.9-.05,7.14,7.14,0,0,0-1.71.24,12.46,12.46,0,0,0-1.56.48h-.09l.33-1.66c.33-.08.82-.18,1.47-.29a10,10,0,0,1,1.85-.17,5.26,5.26,0,0,1,2.74.57,2,2,0,0,1,.92,1.81,4.75,4.75,0,0,1,0,.51l-.09.5-1.54,6.66h-1.64Zm1-4.13a22.32,22.32,0,0,0-2.4.2,7.16,7.16,0,0,0-1.74.45,2.37,2.37,0,0,0-1.08.78,2,2,0,0,0-.37,1.24,1.16,1.16,0,0,0,.43,1,2.19,2.19,0,0,0,1.33.33,4,4,0,0,0,1.63-.36,8.28,8.28,0,0,0,1.55-.85Z"/><path class="cls-4" d="M328,419.76a7.94,7.94,0,0,1-.41,2.53,6.59,6.59,0,0,1-1.14,2.11,5.68,5.68,0,0,1-1.77,1.45,4.92,4.92,0,0,1-2.33.53,3.66,3.66,0,0,1-2.73-1,3.76,3.76,0,0,1-1-2.76,7.76,7.76,0,0,1,.4-2.51,6.64,6.64,0,0,1,1.15-2.13,5.55,5.55,0,0,1,1.79-1.43,5,5,0,0,1,2.32-.54,3.75,3.75,0,0,1,2.7,1A3.71,3.71,0,0,1,328,419.76Zm-2.69,3.71a5.38,5.38,0,0,0,.72-1.63,7.29,7.29,0,0,0,.25-1.95,2.64,2.64,0,0,0-.58-1.86,2.16,2.16,0,0,0-1.67-.64,3,3,0,0,0-1.53.41,3.74,3.74,0,0,0-1.16,1.12,5.4,5.4,0,0,0-.73,1.63,7.25,7.25,0,0,0-.26,1.93,2.72,2.72,0,0,0,.59,1.87,2.15,2.15,0,0,0,1.67.65,3,3,0,0,0,1.53-.41A3.56,3.56,0,0,0,325.35,423.47Z"/><path class="cls-4" d="M339.29,419.39a8.2,8.2,0,0,1-.45,2.74,7.33,7.33,0,0,1-1.2,2.18,5.82,5.82,0,0,1-1.76,1.46,4.55,4.55,0,0,1-2.14.53,5.54,5.54,0,0,1-1.45-.18,4.54,4.54,0,0,1-1.21-.53l-.95,4.13h-1.65l3.1-13.43h1.65l-.24,1a10.85,10.85,0,0,1,1.61-.93,4.19,4.19,0,0,1,1.75-.37,2.71,2.71,0,0,1,2.19.89A3.74,3.74,0,0,1,339.29,419.39Zm-1.73.31a2.55,2.55,0,0,0-.46-1.61,1.75,1.75,0,0,0-1.46-.56,3.62,3.62,0,0,0-1.51.36,10.77,10.77,0,0,0-1.46.81l-1.28,5.57a5.73,5.73,0,0,0,1.09.45,4.5,4.5,0,0,0,1.25.15,3,3,0,0,0,1.63-.44,3.64,3.64,0,0,0,1.2-1.14,5.21,5.21,0,0,0,.75-1.64A7.6,7.6,0,0,0,337.56,419.7Z"/><path class="cls-4" d="M344.78,426.32a5.54,5.54,0,0,1-1.65-.22,3.26,3.26,0,0,1-1.25-.69,3.17,3.17,0,0,1-.8-1.15,4.26,4.26,0,0,1-.28-1.62,7.41,7.41,0,0,1,.43-2.57,6.59,6.59,0,0,1,1.22-2.11,5.53,5.53,0,0,1,1.89-1.39,5.82,5.82,0,0,1,2.43-.51,5.71,5.71,0,0,1,1.62.23,6.92,6.92,0,0,1,1.34.57l-.36,1.78h-.1a5.06,5.06,0,0,0-.44-.36,3.32,3.32,0,0,0-.62-.4,4.45,4.45,0,0,0-.8-.32,3.81,3.81,0,0,0-1-.12,3.34,3.34,0,0,0-2.79,1.44,5.68,5.68,0,0,0-1.07,3.49,2.64,2.64,0,0,0,.64,1.91,2.39,2.39,0,0,0,1.81.66,4.24,4.24,0,0,0,1.11-.15,7.08,7.08,0,0,0,.94-.34c.29-.14.55-.28.8-.43l.53-.34h.1l-.35,1.8a11.49,11.49,0,0,1-1.62.59A6,6,0,0,1,344.78,426.32Z"/><path class="cls-4" d="M353.84,416.29l-2.27,9.81h-1.65l2.27-9.81Zm.9-3.36-.4,1.71h-1.87l.4-1.71Z"/><path class="cls-4" d="M364.5,419.76a7.94,7.94,0,0,1-.41,2.53A6.59,6.59,0,0,1,363,424.4a5.68,5.68,0,0,1-1.77,1.45,5,5,0,0,1-2.34.53,3.69,3.69,0,0,1-2.73-1,3.8,3.8,0,0,1-1-2.76,8,8,0,0,1,.4-2.51,6.86,6.86,0,0,1,1.16-2.13,5.45,5.45,0,0,1,1.79-1.43,5,5,0,0,1,2.31-.54,3.72,3.72,0,0,1,2.7,1A3.67,3.67,0,0,1,364.5,419.76Zm-2.69,3.71a5.64,5.64,0,0,0,.72-1.63,7.29,7.29,0,0,0,.25-1.95,2.64,2.64,0,0,0-.59-1.86,2.12,2.12,0,0,0-1.66-.64,2.92,2.92,0,0,0-1.53.41,3.88,3.88,0,0,0-1.17,1.12,5.65,5.65,0,0,0-.73,1.63,7.25,7.25,0,0,0-.25,1.93,2.67,2.67,0,0,0,.59,1.87,2.15,2.15,0,0,0,1.67.65,3,3,0,0,0,1.53-.41A3.77,3.77,0,0,0,361.81,423.47Zm2.61-12.1-3.12,3.29h-1.37l2.24-3.29Z"/><path class="cls-4" d="M375.6,418.53q0,.21,0,.57c0,.24-.07.45-.11.63L374,426.1h-1.64l1.28-5.59c.07-.31.13-.58.16-.81a4,4,0,0,0,.06-.69,1.5,1.5,0,0,0-.37-1.11,1.8,1.8,0,0,0-1.31-.37,3.67,3.67,0,0,0-1.48.36,11.23,11.23,0,0,0-1.57.89l-1.69,7.32h-1.65l2.27-9.81h1.65l-.25,1.08a10.55,10.55,0,0,1,1.76-1,4.34,4.34,0,0,1,1.69-.35,2.88,2.88,0,0,1,2,.65A2.37,2.37,0,0,1,375.6,418.53Z"/><path class="cls-5" d="M522.9,236.11H38V27.34H522.9ZM45.48,229.22h470v-195h-470Z"/><circle class="cls-5" cx="56.02" cy="44.77" r="37.4"/><path class="cls-3" d="M219.43,123a12.18,12.18,0,0,1-4-.65,8.65,8.65,0,0,1-3.19-1.92,8.84,8.84,0,0,1-2.06-3.19,12.3,12.3,0,0,1-.73-4.42,12,12,0,0,1,.7-4.23,9,9,0,0,1,2-3.26,8.52,8.52,0,0,1,3.17-2,11.52,11.52,0,0,1,4.13-.72,16.8,16.8,0,0,1,2.24.14,15.38,15.38,0,0,1,1.84.36,15.6,15.6,0,0,1,1.6.56c.48.21.9.4,1.26.58V109h-.58l-.93-.75a12.36,12.36,0,0,0-1.28-.85,8.53,8.53,0,0,0-1.56-.71,5.67,5.67,0,0,0-1.81-.29,6,6,0,0,0-2,.34,4.91,4.91,0,0,0-1.78,1.11,5.44,5.44,0,0,0-1.26,2,8.35,8.35,0,0,0-.48,3,7.89,7.89,0,0,0,.52,3.08,5.3,5.3,0,0,0,1.31,1.95,4.83,4.83,0,0,0,1.79,1,6.41,6.41,0,0,0,2,.31,6.32,6.32,0,0,0,1.82-.27,7.66,7.66,0,0,0,1.67-.75,12,12,0,0,0,1.2-.82c.37-.28.67-.53.91-.74h.53v4.69l-1.41.62a11.86,11.86,0,0,1-1.42.5,14.37,14.37,0,0,1-1.8.42A14,14,0,0,1,219.43,123Z"/><path class="cls-3" d="M239.38,122.58H227.89V119.1h3.21V106.43h-3.21V103h11.49v3.48h-3.21V119.1h3.21Z"/><path class="cls-3" d="M258.39,109.14a7.39,7.39,0,0,1-.46,2.58,5.87,5.87,0,0,1-1.32,2.12,8.08,8.08,0,0,1-2.62,1.75,9.59,9.59,0,0,1-3.59.59h-3.15v6.4h-5.06V103h8.33a13,13,0,0,1,3.16.32,7.38,7.38,0,0,1,2.27,1,5.15,5.15,0,0,1,1.81,2A6.25,6.25,0,0,1,258.39,109.14Zm-5.23.11a2.29,2.29,0,0,0-.45-1.42,2.49,2.49,0,0,0-1-.84,5,5,0,0,0-1.55-.35c-.5,0-1.16,0-2,0h-.87v5.87h1.45a12.34,12.34,0,0,0,2.13-.16,3.06,3.06,0,0,0,1.4-.63,2.45,2.45,0,0,0,.71-1A4.21,4.21,0,0,0,253.16,109.25Z"/><path class="cls-3" d="M289.14,122.58h-5V109.43L280.46,118H277l-3.64-8.53v13.15h-4.77V103h5.88l4.42,9.84,4.4-9.84h5.88Z"/><path class="cls-3" d="M297.45,105.66h-5v-3.6h5Zm-.13,16.92h-4.76V107.77h4.76Z"/><path class="cls-3" d="M309.43,121l-.95.7a7,7,0,0,1-1.07.64,6.64,6.64,0,0,1-1.45.47,8.4,8.4,0,0,1-1.64.15,5,5,0,0,1-3.54-1.3,4.33,4.33,0,0,1-1.42-3.34,4.53,4.53,0,0,1,.72-2.65,4.9,4.9,0,0,1,2.06-1.62,11.27,11.27,0,0,1,3.27-.84c1.3-.17,2.65-.29,4-.37v-.08a1.73,1.73,0,0,0-1-1.7,7.35,7.35,0,0,0-3-.46,8.31,8.31,0,0,0-2.5.41c-.89.28-1.53.49-1.91.64h-.44v-3.57c.5-.14,1.32-.29,2.45-.47a21.52,21.52,0,0,1,3.39-.27q4,0,5.85,1.24a4.44,4.44,0,0,1,1.8,3.91v10.08h-4.71Zm0-2.31v-3.07c-.64.05-1.33.12-2.08.22a9.23,9.23,0,0,0-1.7.32,2.29,2.29,0,0,0-1.09.65,1.63,1.63,0,0,0-.38,1.12,3,3,0,0,0,.08.75,1.18,1.18,0,0,0,.4.55,1.8,1.8,0,0,0,.72.39,5.35,5.35,0,0,0,1.32.12,4,4,0,0,0,1.45-.28A4.69,4.69,0,0,0,309.43,118.7Z"/><path class="cls-3" d="M331.64,112.08v10.5h-4.76v-7.4c0-.72,0-1.33-.05-1.84a3.32,3.32,0,0,0-.29-1.23,1.42,1.42,0,0,0-.72-.69,3.27,3.27,0,0,0-1.35-.22,3.38,3.38,0,0,0-1.36.28,11,11,0,0,0-1.19.6v10.5h-4.75V107.77h4.75v1.64a12.61,12.61,0,0,1,2.35-1.51,5.59,5.59,0,0,1,2.47-.54,5,5,0,0,1,2.58.65,4.56,4.56,0,0,1,1.76,1.92,14.24,14.24,0,0,1,2.76-1.88,5.74,5.74,0,0,1,2.63-.69,4.55,4.55,0,0,1,3.64,1.44,6.15,6.15,0,0,1,1.25,4.14v9.64H336.6v-7.4c0-.73,0-1.34-.05-1.85a3.09,3.09,0,0,0-.28-1.22,1.37,1.37,0,0,0-.71-.69,3.4,3.4,0,0,0-1.37-.22,3.49,3.49,0,0,0-1.16.2A10.12,10.12,0,0,0,331.64,112.08Z"/><path class="cls-3" d="M349.32,105.66h-5v-3.6h5Zm-.14,16.92h-4.76V107.77h4.76Z"/><path class="cls-3" d="M65.38,48.9a8.18,8.18,0,0,1-.62,3.17A6.89,6.89,0,0,1,63,54.56a8.19,8.19,0,0,1-2.74,1.65,10.42,10.42,0,0,1-3.66.57,11.26,11.26,0,0,1-3.58-.53,7.44,7.44,0,0,1-2.78-1.63,8.2,8.2,0,0,1-2-3.26,14.24,14.24,0,0,1-.7-4.75,17.94,17.94,0,0,1,.65-5.1,10.33,10.33,0,0,1,2.16-3.94A9.32,9.32,0,0,1,54.08,35a14.63,14.63,0,0,1,5.45-.91,20.18,20.18,0,0,1,2.35.15c.85.09,1.4.17,1.65.22v4.29H63a7.54,7.54,0,0,0-1.34-.43,8.67,8.67,0,0,0-2.14-.25,6.39,6.39,0,0,0-4.38,1.38,5.89,5.89,0,0,0-1.89,3.84,11.93,11.93,0,0,1,2.38-1.09,8.4,8.4,0,0,1,2.7-.42,9.38,9.38,0,0,1,2.37.29,6.81,6.81,0,0,1,2,.94,6.05,6.05,0,0,1,1.94,2.29A7.78,7.78,0,0,1,65.38,48.9Zm-6.67,3.3A3.79,3.79,0,0,0,59.44,51a5.13,5.13,0,0,0,.27-1.85,4.16,4.16,0,0,0-.31-1.75,2.66,2.66,0,0,0-.85-1.09,2.94,2.94,0,0,0-1.24-.57,7.29,7.29,0,0,0-1.48-.15,6.49,6.49,0,0,0-1.35.15,7.55,7.55,0,0,0-1.29.36c0,.1,0,.26,0,.49s0,.5,0,.84a10.24,10.24,0,0,0,.36,3,4.33,4.33,0,0,0,1,1.78,2.42,2.42,0,0,0,1,.67,3.36,3.36,0,0,0,1.2.21,3,3,0,0,0,1.07-.22A2.61,2.61,0,0,0,58.71,52.2Z"/></g></g></svg>