<svg xmlns="http://www.w3.org/2000/svg" viewBox="0 0 562.62 470.8"><defs><style>.cls-1,.cls-3{fill:#fff;}.cls-1{opacity:0;}.cls-2{fill:#035aa6;}.cls-4{font-size:18px;fill:#ffd053;font-family:Verdana-Italic, Verdana;font-style:italic;}.cls-5{fill:#84bf2c;}</style></defs><title>slide10_pregunta3</title><g id="Capa_2" data-name="Capa 2"><g id="Layer_7" data-name="Layer 7"><rect class="cls-1" width="562.62" height="470.8"/><rect class="cls-2" x="66.24" y="248.43" width="424.94" height="71.91" rx="12.02"/><path class="cls-3" d="M90.91,272.83H80.79V257.48H90.91v1.81H82.83v4.21h8.08v1.81H82.83V271h8.08Z"/><path class="cls-3" d="M103.62,272.83h-1.94v-6.56a11.7,11.7,0,0,0-.09-1.49,2.92,2.92,0,0,0-.34-1.08,1.59,1.59,0,0,0-.75-.65,3.16,3.16,0,0,0-1.25-.21,4,4,0,0,0-1.66.39,8.62,8.62,0,0,0-1.66,1v8.6H94V261.31h1.94v1.28a7.84,7.84,0,0,1,1.87-1.17,5,5,0,0,1,2-.43,3.58,3.58,0,0,1,2.85,1.13,4.81,4.81,0,0,1,1,3.24Z"/><path class="cls-3" d="M124.41,267.27h-8.48a4.75,4.75,0,0,0,.32,1.85,3.46,3.46,0,0,0,.87,1.3,3.53,3.53,0,0,0,1.28.74,5.19,5.19,0,0,0,1.62.25,6.53,6.53,0,0,0,2.37-.47,5.63,5.63,0,0,0,1.69-.93h.1v2.12a17.49,17.49,0,0,1-2,.69,8.31,8.31,0,0,1-2.14.28,6.18,6.18,0,0,1-4.47-1.55,5.83,5.83,0,0,1-1.61-4.41,6.34,6.34,0,0,1,1.54-4.49,5.3,5.3,0,0,1,4-1.66,4.66,4.66,0,0,1,3.6,1.37,5.45,5.45,0,0,1,1.26,3.86Zm-1.89-1.48a3.4,3.4,0,0,0-.76-2.36,3,3,0,0,0-2.31-.84,3.38,3.38,0,0,0-2.48.92,3.56,3.56,0,0,0-1,2.28Z"/><path class="cls-3" d="M129.31,272.83h-1.94v-16h1.94Z"/><path class="cls-3" d="M142.52,272.83h-1.93v-16h1.93Z"/><path class="cls-3" d="M155.91,272.83H154v-1.28a9.66,9.66,0,0,1-1.88,1.19,4.77,4.77,0,0,1-2,.41,3.61,3.61,0,0,1-2.82-1.11,4.64,4.64,0,0,1-1-3.25v-7.48h1.94v6.56a10.75,10.75,0,0,0,.08,1.5,2.65,2.65,0,0,0,.35,1.07,1.63,1.63,0,0,0,.72.66,3.35,3.35,0,0,0,1.29.2,4.11,4.11,0,0,0,1.64-.39,7.47,7.47,0,0,0,1.67-1v-8.6h1.94Z"/><path class="cls-3" d="M169.06,271.52a6,6,0,0,1-1.33,4.3,5.49,5.49,0,0,1-4.09,1.37,11.69,11.69,0,0,1-1.79-.13,17,17,0,0,1-1.72-.36v-2h.11a15.29,15.29,0,0,0,1.5.45,7.69,7.69,0,0,0,2.06.28,4.77,4.77,0,0,0,1.64-.24,2.4,2.4,0,0,0,1-.66,2.45,2.45,0,0,0,.52-1,5,5,0,0,0,.15-1.27v-1.05a7.35,7.35,0,0,1-1.67,1.05,5.2,5.2,0,0,1-2,.34,4,4,0,0,1-3.27-1.49,6.47,6.47,0,0,1-1.21-4.2,7.27,7.27,0,0,1,.41-2.56,5.82,5.82,0,0,1,1.14-1.86,4.61,4.61,0,0,1,1.63-1.14A4.9,4.9,0,0,1,164,261a5.66,5.66,0,0,1,1.67.21,6.81,6.81,0,0,1,1.43.61l.13-.5h1.81Zm-1.94-1.86v-6.27a6.88,6.88,0,0,0-1.44-.5,5.94,5.94,0,0,0-1.32-.15,3.13,3.13,0,0,0-2.52,1.07,4.65,4.65,0,0,0-.91,3.11,5.2,5.2,0,0,0,.68,2.94,2.51,2.51,0,0,0,2.25,1,4.87,4.87,0,0,0,1.7-.32A6,6,0,0,0,167.12,269.66Z"/><path class="cls-3" d="M181.82,272.83h-1.93V271.6l-.69.49a4.81,4.81,0,0,1-.85.5,5.7,5.7,0,0,1-2.59.56,3.71,3.71,0,0,1-2.64-1,3.49,3.49,0,0,1-1.08-2.63,3.69,3.69,0,0,1,.56-2.12,3.8,3.8,0,0,1,1.6-1.27,8.75,8.75,0,0,1,2.53-.63c1-.11,2-.19,3.16-.25v-.3a2.23,2.23,0,0,0-.23-1.09,1.6,1.6,0,0,0-.66-.68,2.68,2.68,0,0,0-1-.32,7.93,7.93,0,0,0-1.21-.08,7.81,7.81,0,0,0-1.7.2,13.58,13.58,0,0,0-1.94.58h-.1v-2c.38-.1.92-.22,1.64-.34a12.7,12.7,0,0,1,2.11-.18,9.48,9.48,0,0,1,2.12.2,4.1,4.1,0,0,1,1.56.68,3,3,0,0,1,1,1.23,4.45,4.45,0,0,1,.34,1.86ZM179.89,270v-3.2c-.59,0-1.28.08-2.08.15a10.83,10.83,0,0,0-1.9.3,3.24,3.24,0,0,0-1.36.74,2.12,2.12,0,0,0,.09,2.86,2.75,2.75,0,0,0,1.82.5,4.44,4.44,0,0,0,1.87-.39A8.27,8.27,0,0,0,179.89,270Z"/><path class="cls-3" d="M192.74,263.43h-.1a6.77,6.77,0,0,0-.84-.15,9.05,9.05,0,0,0-1,0,3.91,3.91,0,0,0-1.73.4,8.2,8.2,0,0,0-1.61,1v8.18h-1.94V261.31h1.94V263a9.86,9.86,0,0,1,2-1.31,4.42,4.42,0,0,1,1.8-.39,6.29,6.29,0,0,1,.73,0l.68.1Z"/><path class="cls-3" d="M211.33,272.83h-1.94v-1.21a7.28,7.28,0,0,1-1.74,1.13,5,5,0,0,1-2,.4,3.91,3.91,0,0,1-3.28-1.59,7.15,7.15,0,0,1-1.21-4.4,7.52,7.52,0,0,1,.42-2.61,6,6,0,0,1,1.13-1.95,4.83,4.83,0,0,1,3.57-1.61,6.38,6.38,0,0,1,1.6.19,7.67,7.67,0,0,1,1.48.6v-5h1.94ZM209.39,270v-6.6a7,7,0,0,0-1.4-.49,6.44,6.44,0,0,0-1.35-.13,3.07,3.07,0,0,0-2.54,1.13,5.08,5.08,0,0,0-.91,3.22,5.77,5.77,0,0,0,.7,3.12,2.5,2.5,0,0,0,2.25,1.06,4.22,4.22,0,0,0,1.67-.36A7.29,7.29,0,0,0,209.39,270Z"/><path class="cls-3" d="M225,267.08a6.48,6.48,0,0,1-1.45,4.44,5.42,5.42,0,0,1-7.75,0,7.62,7.62,0,0,1,0-8.89,5.4,5.4,0,0,1,7.75,0A6.49,6.49,0,0,1,225,267.08Zm-2,0a5.3,5.3,0,0,0-.88-3.33,3.28,3.28,0,0,0-4.88,0,6.71,6.71,0,0,0,0,6.61,3.22,3.22,0,0,0,4.87,0A5.2,5.2,0,0,0,223,267.08Z"/><path class="cls-3" d="M237.58,272.83h-1.93v-6.56a11.64,11.64,0,0,0-.1-1.49,2.59,2.59,0,0,0-.34-1.08,1.57,1.57,0,0,0-.74-.65,3.18,3.18,0,0,0-1.26-.21,4,4,0,0,0-1.66.39,8.93,8.93,0,0,0-1.66,1v8.6H228V261.31h1.93v1.28a7.89,7.89,0,0,1,1.88-1.17,5,5,0,0,1,2-.43,3.56,3.56,0,0,1,2.84,1.13,4.75,4.75,0,0,1,1,3.24Z"/><path class="cls-3" d="M250.66,272.83h-1.94v-1.21a7.14,7.14,0,0,1-1.75,1.13,4.91,4.91,0,0,1-2,.4,3.91,3.91,0,0,1-3.28-1.59,7.15,7.15,0,0,1-1.21-4.4,7.52,7.52,0,0,1,.42-2.61,6,6,0,0,1,1.13-1.95,4.73,4.73,0,0,1,1.63-1.19,4.67,4.67,0,0,1,1.94-.42,6.38,6.38,0,0,1,1.6.19,7.67,7.67,0,0,1,1.48.6v-5h1.94ZM248.72,270v-6.6a7,7,0,0,0-1.4-.49,6.44,6.44,0,0,0-1.35-.13,3.07,3.07,0,0,0-2.54,1.13,5,5,0,0,0-.91,3.22,5.77,5.77,0,0,0,.7,3.12,2.5,2.5,0,0,0,2.25,1.06,4.22,4.22,0,0,0,1.67-.36A7.29,7.29,0,0,0,248.72,270Z"/><path class="cls-3" d="M264.11,267.27h-8.49a4.94,4.94,0,0,0,.32,1.85,3.42,3.42,0,0,0,2.15,2,5.3,5.3,0,0,0,1.63.25,6.44,6.44,0,0,0,2.36-.47,5.57,5.57,0,0,0,1.7-.93h.1v2.12a17.49,17.49,0,0,1-2,.69,8.31,8.31,0,0,1-2.14.28,6.22,6.22,0,0,1-4.48-1.55,5.86,5.86,0,0,1-1.6-4.41,6.34,6.34,0,0,1,1.54-4.49,5.28,5.28,0,0,1,4.05-1.66,4.67,4.67,0,0,1,3.6,1.37,5.45,5.45,0,0,1,1.26,3.86Zm-1.89-1.48a3.35,3.35,0,0,0-.77-2.36,2.93,2.93,0,0,0-2.3-.84,3.38,3.38,0,0,0-2.48.92,3.62,3.62,0,0,0-1.05,2.28Z"/><path class="cls-3" d="M284.11,267.27h-8.49a4.94,4.94,0,0,0,.32,1.85,3.42,3.42,0,0,0,2.15,2,5.3,5.3,0,0,0,1.63.25,6.44,6.44,0,0,0,2.36-.47,5.57,5.57,0,0,0,1.7-.93h.1v2.12a17.49,17.49,0,0,1-2,.69,8.31,8.31,0,0,1-2.14.28,6.22,6.22,0,0,1-4.48-1.55,5.86,5.86,0,0,1-1.6-4.41,6.34,6.34,0,0,1,1.54-4.49,5.28,5.28,0,0,1,4.05-1.66,4.67,4.67,0,0,1,3.6,1.37,5.45,5.45,0,0,1,1.26,3.86Zm-1.89-1.48a3.35,3.35,0,0,0-.77-2.36,2.93,2.93,0,0,0-2.3-.84,3.38,3.38,0,0,0-2.48.92,3.62,3.62,0,0,0-1.05,2.28Z"/><path class="cls-3" d="M289,272.83h-1.94v-16H289Z"/><path class="cls-3" d="M310.4,266.93a8,8,0,0,1-.4,2.56,5.61,5.61,0,0,1-1.14,2,4.76,4.76,0,0,1-1.6,1.18,4.7,4.7,0,0,1-2,.42,6.3,6.3,0,0,1-1.62-.2,6.53,6.53,0,0,1-1.48-.61v4.83h-1.94V261.31h1.94v1.21a7.74,7.74,0,0,1,1.74-1.09A5,5,0,0,1,306,261a3.8,3.8,0,0,1,3.24,1.58A7.22,7.22,0,0,1,310.4,266.93Zm-2,.05a5.56,5.56,0,0,0-.71-3.11,2.48,2.48,0,0,0-2.19-1,4.24,4.24,0,0,0-1.68.36,7.88,7.88,0,0,0-1.62.95v6.52a7.54,7.54,0,0,0,1.42.51,6.06,6.06,0,0,0,1.35.13,3.09,3.09,0,0,0,2.52-1.09A5,5,0,0,0,308.4,267Z"/><path class="cls-3" d="M323.23,267.08a6.48,6.48,0,0,1-1.44,4.44,5.42,5.42,0,0,1-7.75,0,7.58,7.58,0,0,1,0-8.89,5.4,5.4,0,0,1,7.75,0A6.49,6.49,0,0,1,323.23,267.08Zm-2,0a5.3,5.3,0,0,0-.87-3.33,3.29,3.29,0,0,0-4.89,0,6.68,6.68,0,0,0,0,6.61,3.22,3.22,0,0,0,4.87,0A5.21,5.21,0,0,0,321.23,267.08Z"/><path class="cls-3" d="M333.42,263.43h-.11a6.17,6.17,0,0,0-.84-.15,8.72,8.72,0,0,0-1,0,3.91,3.91,0,0,0-1.73.4,8.2,8.2,0,0,0-1.61,1v8.18h-1.94V261.31h1.94V263a9.86,9.86,0,0,1,2-1.31,4.36,4.36,0,0,1,1.8-.39,6.29,6.29,0,0,1,.73,0l.68.1Z"/><path class="cls-3" d="M341.22,272.73A11.45,11.45,0,0,1,340,273a7.15,7.15,0,0,1-1.15.1,3.58,3.58,0,0,1-2.68-.95,4.27,4.27,0,0,1-.92-3v-6.13H334v-1.63h1.31V258h1.94v3.31h4v1.63h-4v5.25c0,.6,0,1.08,0,1.42a2.39,2.39,0,0,0,.29.95,1.31,1.31,0,0,0,.63.6,2.84,2.84,0,0,0,1.21.19,4,4,0,0,0,1-.13,6.49,6.49,0,0,0,.74-.24h.1Z"/><path class="cls-3" d="M353.2,267.27h-8.48a4.75,4.75,0,0,0,.32,1.85,3.46,3.46,0,0,0,.87,1.3,3.53,3.53,0,0,0,1.28.74,5.19,5.19,0,0,0,1.62.25,6.53,6.53,0,0,0,2.37-.47,5.63,5.63,0,0,0,1.69-.93h.1v2.12a17.49,17.49,0,0,1-2,.69,8.31,8.31,0,0,1-2.14.28,6.18,6.18,0,0,1-4.47-1.55,5.83,5.83,0,0,1-1.61-4.41,6.34,6.34,0,0,1,1.54-4.49,5.31,5.31,0,0,1,4.06-1.66,4.65,4.65,0,0,1,3.59,1.37,5.45,5.45,0,0,1,1.26,3.86Zm-1.89-1.48a3.4,3.4,0,0,0-.76-2.36,3,3,0,0,0-2.31-.84,3.38,3.38,0,0,0-2.48.92,3.56,3.56,0,0,0-1,2.28Z"/><path class="cls-3" d="M365.09,272.83h-1.93V271.6l-.7.49a4.48,4.48,0,0,1-.85.5,5.73,5.73,0,0,1-1.11.4,5.85,5.85,0,0,1-1.47.16,3.71,3.71,0,0,1-2.64-1,3.46,3.46,0,0,1-1.09-2.63,3.61,3.61,0,0,1,.57-2.12,3.68,3.68,0,0,1,1.6-1.27,8.6,8.6,0,0,1,2.52-.63c1-.11,2-.19,3.17-.25v-.3a2.35,2.35,0,0,0-.23-1.09,1.69,1.69,0,0,0-.67-.68,2.57,2.57,0,0,0-1-.32,7.95,7.95,0,0,0-2.9.12,12.86,12.86,0,0,0-1.94.58h-.11v-2c.38-.1.93-.22,1.64-.34a12.82,12.82,0,0,1,2.12-.18,9.55,9.55,0,0,1,2.12.2,4.1,4.1,0,0,1,1.56.68,3.14,3.14,0,0,1,1,1.23,4.61,4.61,0,0,1,.34,1.86ZM363.16,270v-3.2c-.59,0-1.29.08-2.09.15a11,11,0,0,0-1.9.3,3.14,3.14,0,0,0-1.35.74,2.11,2.11,0,0,0,.08,2.86,2.78,2.78,0,0,0,1.83.5,4.36,4.36,0,0,0,1.86-.39A8,8,0,0,0,363.16,270Z"/><path class="cls-3" d="M378.16,272.83h-1.94v-1.21a7.28,7.28,0,0,1-1.74,1.13,5,5,0,0,1-2,.4,3.89,3.89,0,0,1-3.27-1.59,7.08,7.08,0,0,1-1.22-4.4,7.52,7.52,0,0,1,.42-2.61,6.21,6.21,0,0,1,1.13-1.95,4.87,4.87,0,0,1,3.57-1.61,6.52,6.52,0,0,1,1.61.19,7.59,7.59,0,0,1,1.47.6v-5h1.94ZM376.22,270v-6.6a7,7,0,0,0-1.4-.49,6.31,6.31,0,0,0-1.35-.13,3.09,3.09,0,0,0-2.54,1.13,5.08,5.08,0,0,0-.91,3.22,5.67,5.67,0,0,0,.71,3.12A2.47,2.47,0,0,0,373,271.3a4.22,4.22,0,0,0,1.67-.36A7.06,7.06,0,0,0,376.22,270Z"/><path class="cls-3" d="M391.79,267.08a6.44,6.44,0,0,1-1.45,4.44,5.41,5.41,0,0,1-7.74,0,7.58,7.58,0,0,1,0-8.89,5.39,5.39,0,0,1,7.74,0A6.45,6.45,0,0,1,391.79,267.08Zm-2,0a5.24,5.24,0,0,0-.88-3.33,3.28,3.28,0,0,0-4.88,0,6.71,6.71,0,0,0,0,6.61,3.23,3.23,0,0,0,4.88,0A5.27,5.27,0,0,0,389.79,267.08Z"/><path class="cls-3" d="M402,263.43h-.1a6.77,6.77,0,0,0-.84-.15,8.72,8.72,0,0,0-1,0,4,4,0,0,0-1.74.4,8.13,8.13,0,0,0-1.6,1v8.18h-1.94V261.31h1.94V263a9.83,9.83,0,0,1,2-1.31,4.42,4.42,0,0,1,1.8-.39,6.17,6.17,0,0,1,.73,0l.68.1Z"/><path class="cls-3" d="M420.85,272.83h-1.94v-6.56a11.7,11.7,0,0,0-.09-1.49,2.75,2.75,0,0,0-.34-1.08,1.57,1.57,0,0,0-.74-.65,3.25,3.25,0,0,0-1.26-.21,4,4,0,0,0-1.66.39,8.62,8.62,0,0,0-1.66,1v8.6h-1.94v-16h1.94v5.8a7.84,7.84,0,0,1,1.87-1.17,5,5,0,0,1,2-.43,3.57,3.57,0,0,1,2.85,1.13,4.81,4.81,0,0,1,1,3.24Z"/><path class="cls-3" d="M433.53,272.83H431.6V271.6l-.7.49a4.48,4.48,0,0,1-.85.5,5.73,5.73,0,0,1-1.11.4,5.85,5.85,0,0,1-1.47.16,3.71,3.71,0,0,1-2.64-1,3.49,3.49,0,0,1-1.08-2.63,3.61,3.61,0,0,1,.56-2.12,3.73,3.73,0,0,1,1.6-1.27,8.59,8.59,0,0,1,2.53-.63c1-.11,2-.19,3.16-.25v-.3a2.35,2.35,0,0,0-.23-1.09,1.69,1.69,0,0,0-.67-.68,2.57,2.57,0,0,0-1-.32,7.95,7.95,0,0,0-2.9.12,13.21,13.21,0,0,0-1.94.58h-.1v-2c.37-.1.92-.22,1.63-.34a12.82,12.82,0,0,1,2.12-.18,9.48,9.48,0,0,1,2.12.2,4.1,4.1,0,0,1,1.56.68,3.14,3.14,0,0,1,1,1.23,4.45,4.45,0,0,1,.34,1.86ZM431.6,270v-3.2c-.59,0-1.29.08-2.09.15a11,11,0,0,0-1.9.3,3.14,3.14,0,0,0-1.35.74,2.14,2.14,0,0,0,.08,2.86,2.78,2.78,0,0,0,1.83.5A4.36,4.36,0,0,0,430,271,8,8,0,0,0,431.6,270Z"/><path class="cls-3" d="M87.82,291.14h-.1a6.77,6.77,0,0,0-.84-.15,8.72,8.72,0,0,0-1-.05,4.1,4.1,0,0,0-1.74.4,7.75,7.75,0,0,0-1.6,1v8.17H80.64V289h1.94v1.71a9.52,9.52,0,0,1,2-1.32,4.42,4.42,0,0,1,1.8-.39,6.17,6.17,0,0,1,.73,0l.68.1Z"/><path class="cls-3" d="M99.29,295H90.8a4.94,4.94,0,0,0,.32,1.85,3.6,3.6,0,0,0,.88,1.3,3.43,3.43,0,0,0,1.27.74,4.92,4.92,0,0,0,1.62.25,6.45,6.45,0,0,0,2.37-.47,6,6,0,0,0,1.7-.92h.1v2.11a17.49,17.49,0,0,1-2,.69,8.37,8.37,0,0,1-2.14.28,6.21,6.21,0,0,1-4.48-1.55,5.87,5.87,0,0,1-1.61-4.41,6.35,6.35,0,0,1,1.54-4.48,5.27,5.27,0,0,1,4.06-1.66A4.64,4.64,0,0,1,98,290.07a5.41,5.41,0,0,1,1.27,3.86ZM97.4,293.5a3.42,3.42,0,0,0-.77-2.36,2.93,2.93,0,0,0-2.3-.84,3.36,3.36,0,0,0-2.48.92,3.57,3.57,0,0,0-1,2.28Z"/><path class="cls-3" d="M110.74,299.82a12.41,12.41,0,0,1-1.84.72,6.56,6.56,0,0,1-1.85.26,6.75,6.75,0,0,1-2.29-.37,4.55,4.55,0,0,1-1.78-1.11,5.05,5.05,0,0,1-1.17-1.87,7.89,7.89,0,0,1-.41-2.65,6.13,6.13,0,0,1,1.55-4.43,5.42,5.42,0,0,1,4.1-1.61A6.69,6.69,0,0,1,109,289a9.51,9.51,0,0,1,1.75.68v2.15h-.1a7.42,7.42,0,0,0-1.83-1.06,5,5,0,0,0-1.84-.37,3.27,3.27,0,0,0-2.61,1.11,6,6,0,0,0,0,6.45,3.24,3.24,0,0,0,2.63,1.12,4.48,4.48,0,0,0,1.19-.16,4.92,4.92,0,0,0,1.1-.4,8.61,8.61,0,0,0,.79-.46,6.81,6.81,0,0,0,.59-.42h.1Z"/><path class="cls-3" d="M115.31,287.1h-2.19v-2h2.19Zm-.13,13.44h-1.93V289h1.93Z"/><path class="cls-3" d="M129.15,294.69a7.8,7.8,0,0,1-.4,2.6,6,6,0,0,1-1.1,1.94,5.09,5.09,0,0,1-1.61,1.22,4.54,4.54,0,0,1-1.93.41,5.85,5.85,0,0,1-1.71-.23A7.59,7.59,0,0,1,121,300l-.13.54H119v-16H121v5.73a8.15,8.15,0,0,1,1.73-1.1,4.89,4.89,0,0,1,2.06-.42,3.82,3.82,0,0,1,3.22,1.56A7.22,7.22,0,0,1,129.15,294.69Zm-2,.06a5.8,5.8,0,0,0-.68-3.13,2.4,2.4,0,0,0-2.19-1.07,4.3,4.3,0,0,0-1.72.37,6.79,6.79,0,0,0-1.6.94v6.6a7.74,7.74,0,0,0,1.41.51,5.58,5.58,0,0,0,1.35.15,3.14,3.14,0,0,0,2.52-1.06A5,5,0,0,0,127.15,294.75Z"/><path class="cls-3" d="M134.26,287.1h-2.19v-2h2.19Zm-.13,13.44h-1.94V289h1.94Z"/><path class="cls-3" d="M147.31,300.54h-1.94v-1.21a7,7,0,0,1-1.74,1.13,4.79,4.79,0,0,1-2,.4,3.91,3.91,0,0,1-3.28-1.59,7.15,7.15,0,0,1-1.21-4.4,7.52,7.52,0,0,1,.42-2.61,6.21,6.21,0,0,1,1.13-1.95,4.77,4.77,0,0,1,3.57-1.6,6,6,0,0,1,1.6.19,7,7,0,0,1,1.48.59v-5h1.94Zm-1.94-2.83V291.1a7,7,0,0,0-1.4-.49,6.44,6.44,0,0,0-1.35-.13,3.07,3.07,0,0,0-2.54,1.13,5.08,5.08,0,0,0-.91,3.22,5.77,5.77,0,0,0,.7,3.12,2.5,2.5,0,0,0,2.25,1.06,4.22,4.22,0,0,0,1.67-.36A7.67,7.67,0,0,0,145.37,297.71Z"/><path class="cls-3" d="M160.94,294.79a6.48,6.48,0,0,1-1.45,4.44,5.41,5.41,0,0,1-7.74,0,7.58,7.58,0,0,1,0-8.89,5.41,5.41,0,0,1,7.74,0A6.49,6.49,0,0,1,160.94,294.79Zm-2,0a5.3,5.3,0,0,0-.88-3.33,3.3,3.3,0,0,0-4.88,0,6.71,6.71,0,0,0,0,6.61,3.22,3.22,0,0,0,4.87,0A5.18,5.18,0,0,0,158.94,294.79Z"/><path class="cls-3" d="M167.65,297.6l-2.91,6.75h-1.51l1.8-6.75Z"/><path class="cls-3" d="M188.37,295h-8.49a4.94,4.94,0,0,0,.32,1.85,3.6,3.6,0,0,0,.88,1.3,3.43,3.43,0,0,0,1.27.74,5,5,0,0,0,1.63.25,6.44,6.44,0,0,0,2.36-.47,5.82,5.82,0,0,0,1.7-.92h.1v2.11a17.49,17.49,0,0,1-2,.69,8.31,8.31,0,0,1-2.14.28,6.22,6.22,0,0,1-4.48-1.55,5.86,5.86,0,0,1-1.6-4.41,6.3,6.3,0,0,1,1.54-4.48,5.25,5.25,0,0,1,4-1.66,4.67,4.67,0,0,1,3.6,1.36,5.45,5.45,0,0,1,1.26,3.86Zm-1.89-1.48a3.42,3.42,0,0,0-.77-2.36,2.93,2.93,0,0,0-2.3-.84,3.38,3.38,0,0,0-2.48.92,3.62,3.62,0,0,0-1.05,2.28Z"/><path class="cls-3" d="M200.94,300.54H199V294a10.07,10.07,0,0,0-.1-1.49,2.59,2.59,0,0,0-.34-1.08,1.57,1.57,0,0,0-.74-.65,3.18,3.18,0,0,0-1.26-.21,4.08,4.08,0,0,0-1.66.39,8.55,8.55,0,0,0-1.65,1v8.6h-1.94V289h1.94v1.28a7.65,7.65,0,0,1,1.87-1.17,5,5,0,0,1,2-.42,3.59,3.59,0,0,1,2.85,1.12,4.81,4.81,0,0,1,1,3.24Z"/><path class="cls-3" d="M221.9,294.79a6.48,6.48,0,0,1-1.44,4.44,5.42,5.42,0,0,1-7.75,0,7.62,7.62,0,0,1,0-8.89,5.42,5.42,0,0,1,7.75,0A6.49,6.49,0,0,1,221.9,294.79Zm-2,0a5.3,5.3,0,0,0-.87-3.33,3.3,3.3,0,0,0-4.88,0,6.71,6.71,0,0,0,0,6.61,3.22,3.22,0,0,0,4.87,0A5.19,5.19,0,0,0,219.9,294.79Z"/><path class="cls-3" d="M232.09,291.14H232a6.77,6.77,0,0,0-.84-.15,8.91,8.91,0,0,0-1-.05,4.09,4.09,0,0,0-1.73.4,7.81,7.81,0,0,0-1.61,1v8.17H224.9V289h1.94v1.71a9.55,9.55,0,0,1,2-1.32,4.42,4.42,0,0,1,1.8-.39,6.29,6.29,0,0,1,.73,0l.68.1Z"/><path class="cls-3" d="M236,287.1h-2.19v-2H236Zm-.13,13.44h-1.94V289h1.94Z"/><path class="cls-3" d="M249.05,299.23a6,6,0,0,1-1.33,4.3,5.49,5.49,0,0,1-4.09,1.37,11.6,11.6,0,0,1-1.79-.13,14.19,14.19,0,0,1-1.72-.36v-2h.1c.32.12.82.27,1.51.46a8.09,8.09,0,0,0,2.06.27,4.77,4.77,0,0,0,1.64-.24,2.4,2.4,0,0,0,1-.66,2.45,2.45,0,0,0,.52-1,5,5,0,0,0,.15-1.27v-1a7.18,7.18,0,0,1-1.68,1,5.14,5.14,0,0,1-2,.35,4,4,0,0,1-3.27-1.49,6.52,6.52,0,0,1-1.22-4.21,7,7,0,0,1,.42-2.56,5.82,5.82,0,0,1,1.14-1.86,4.61,4.61,0,0,1,1.63-1.14,4.85,4.85,0,0,1,1.91-.4,5.74,5.74,0,0,1,1.67.2,7.38,7.38,0,0,1,1.43.61l.12-.5h1.82Zm-1.94-1.85V291.1a6.88,6.88,0,0,0-1.44-.5,5.94,5.94,0,0,0-1.32-.15,3.12,3.12,0,0,0-2.52,1.07,4.66,4.66,0,0,0-.92,3.11,5.19,5.19,0,0,0,.69,2.94,2.51,2.51,0,0,0,2.25,1,4.87,4.87,0,0,0,1.7-.32A6.25,6.25,0,0,0,247.11,297.38Z"/><path class="cls-3" d="M262.5,295H254a4.75,4.75,0,0,0,.32,1.85,3.46,3.46,0,0,0,.87,1.3,3.39,3.39,0,0,0,1.28.74,4.92,4.92,0,0,0,1.62.25,6.53,6.53,0,0,0,2.37-.47,5.74,5.74,0,0,0,1.69-.92h.1v2.11a16.84,16.84,0,0,1-2,.69,8.31,8.31,0,0,1-2.14.28,6.18,6.18,0,0,1-4.47-1.55,5.83,5.83,0,0,1-1.61-4.41,6.3,6.3,0,0,1,1.54-4.48,5.27,5.27,0,0,1,4.06-1.66,4.64,4.64,0,0,1,3.59,1.36,5.45,5.45,0,0,1,1.26,3.86Zm-1.89-1.48a3.41,3.41,0,0,0-.76-2.36,3,3,0,0,0-2.31-.84,3.39,3.39,0,0,0-2.48.92,3.56,3.56,0,0,0-1,2.28Z"/><path class="cls-3" d="M275.07,300.54h-1.94V294a11.7,11.7,0,0,0-.09-1.49,2.75,2.75,0,0,0-.34-1.08,1.57,1.57,0,0,0-.74-.65,3.25,3.25,0,0,0-1.26-.21,4,4,0,0,0-1.66.39,8.62,8.62,0,0,0-1.66,1v8.6h-1.94V289h1.94v1.28a7.84,7.84,0,0,1,1.87-1.17,5,5,0,0,1,2-.42,3.56,3.56,0,0,1,2.85,1.12,4.81,4.81,0,0,1,1,3.24Z"/><path class="cls-3" d="M282,300.54H279.5V297.6H282Z"/><rect class="cls-2" x="66.8" y="330.73" width="424.94" height="71.91" rx="12.02"/><path class="cls-3" d="M91.46,365.14H81.35V349.79H91.46v1.81H83.39v4.21h8.07v1.81H83.39v5.7h8.07Z"/><path class="cls-3" d="M104.17,365.14h-1.94v-6.56a11.58,11.58,0,0,0-.09-1.49,2.64,2.64,0,0,0-.34-1.09,1.55,1.55,0,0,0-.74-.64,3.18,3.18,0,0,0-1.26-.21,4,4,0,0,0-1.66.39,8.14,8.14,0,0,0-1.66,1v8.6H94.54V353.62h1.94v1.28a8.28,8.28,0,0,1,1.88-1.18,4.94,4.94,0,0,1,2-.42,3.59,3.59,0,0,1,2.84,1.12,4.75,4.75,0,0,1,1,3.24Z"/><path class="cls-3" d="M125.52,354.42a5.1,5.1,0,0,1-.35,1.9,4.58,4.58,0,0,1-1,1.51A5.16,5.16,0,0,1,122.3,359a8.24,8.24,0,0,1-2.74.39h-2v5.73h-2V349.79h4.17A9.84,9.84,0,0,1,122,350a5.19,5.19,0,0,1,1.7.72,4.21,4.21,0,0,1,1.35,1.47A4.55,4.55,0,0,1,125.52,354.42Zm-2.12.06a3.19,3.19,0,0,0-.28-1.39,2.26,2.26,0,0,0-.84-.95,3.24,3.24,0,0,0-1.13-.46,8,8,0,0,0-1.61-.14h-2v6.13h1.72a7.48,7.48,0,0,0,2-.22,2.79,2.79,0,0,0,1.25-.71,2.91,2.91,0,0,0,.69-1A3.59,3.59,0,0,0,123.4,354.48Z"/><path class="cls-3" d="M136.49,365.14h-1.93v-1.23l-.69.49a4.81,4.81,0,0,1-.85.5,6.1,6.1,0,0,1-1.12.4,6.36,6.36,0,0,1-1.47.16,3.68,3.68,0,0,1-2.64-1,3.45,3.45,0,0,1-1.08-2.62,3.67,3.67,0,0,1,.56-2.12,3.75,3.75,0,0,1,1.6-1.28,8.38,8.38,0,0,1,2.53-.62c1-.11,2-.2,3.16-.25v-.3a2.2,2.2,0,0,0-.23-1.09,1.6,1.6,0,0,0-.66-.68,2.68,2.68,0,0,0-1-.32,7.92,7.92,0,0,0-1.21-.09,8.4,8.4,0,0,0-1.7.2,13.29,13.29,0,0,0-1.94.59h-.1v-2a15.44,15.44,0,0,1,1.64-.34,11.74,11.74,0,0,1,2.11-.19,10.11,10.11,0,0,1,2.12.2,4.27,4.27,0,0,1,1.56.69,2.93,2.93,0,0,1,1,1.23,4.45,4.45,0,0,1,.34,1.86Zm-1.93-2.84v-3.21l-2.08.16a11.13,11.13,0,0,0-1.91.3,3.15,3.15,0,0,0-1.35.74,2.12,2.12,0,0,0,.09,2.86,2.79,2.79,0,0,0,1.82.5,4.3,4.3,0,0,0,1.87-.4A8.23,8.23,0,0,0,134.56,362.3Z"/><path class="cls-3" d="M147.41,355.73h-.11l-.83-.15a9.29,9.29,0,0,0-1,0,4,4,0,0,0-1.73.39,8.26,8.26,0,0,0-1.61,1v8.18h-1.94V353.62h1.94v1.7a9.09,9.09,0,0,1,2-1.31,4.36,4.36,0,0,1,1.8-.39,6.29,6.29,0,0,1,.73,0l.68.09Z"/><path class="cls-3" d="M153.33,347.86l-2.82,3.85H149l1.85-3.85Zm-2.14,17.28h-1.94V353.62h1.94Z"/><path class="cls-3" d="M163.25,361.82a3.11,3.11,0,0,1-1.3,2.58,5.64,5.64,0,0,1-3.56,1,8.69,8.69,0,0,1-2.35-.3,10.32,10.32,0,0,1-1.79-.66v-2.18h.11a7.71,7.71,0,0,0,2,1.1,6.33,6.33,0,0,0,2.15.41,4,4,0,0,0,2-.42,1.38,1.38,0,0,0,.72-1.3,1.33,1.33,0,0,0-.39-1,3.62,3.62,0,0,0-1.5-.6l-1.08-.21c-.44-.08-.85-.17-1.21-.27a4,4,0,0,1-2.15-1.18,3,3,0,0,1-.64-1.91,3.06,3.06,0,0,1,.3-1.34,3.16,3.16,0,0,1,.89-1.13,4.16,4.16,0,0,1,1.47-.76,6.5,6.5,0,0,1,2-.29,9.39,9.39,0,0,1,2.09.25,7.94,7.94,0,0,1,1.76.62v2.07h-.1a7.13,7.13,0,0,0-1.81-.92,6.24,6.24,0,0,0-2.08-.38,3.62,3.62,0,0,0-1.79.41,1.42,1.42,0,0,0-.29,2.28,3.42,3.42,0,0,0,1.4.59l1.2.25,1.11.22a4.08,4.08,0,0,1,2.08,1.07A2.77,2.77,0,0,1,163.25,361.82Z"/><text class="cls-4" transform="translate(176.22 426.1)">Seleccione una opción</text><path class="cls-5" d="M522.9,236.11H38V27.34H522.9ZM45.48,229.22h470v-195h-470Z"/><circle class="cls-5" cx="56.02" cy="44.77" r="37.4"/><path class="cls-3" d="M224.68,123a12.18,12.18,0,0,1-4-.65,8.33,8.33,0,0,1-5.25-5.11,13.53,13.53,0,0,1,0-8.65,9.11,9.11,0,0,1,2-3.26,8.59,8.59,0,0,1,3.17-2,11.7,11.7,0,0,1,4.13-.71,16.64,16.64,0,0,1,2.23.14,14.64,14.64,0,0,1,1.84.36,14.08,14.08,0,0,1,1.6.56c.48.21.9.4,1.26.58V109H231q-.36-.31-.93-.75a11.2,11.2,0,0,0-1.27-.85,8.33,8.33,0,0,0-1.57-.71,5.57,5.57,0,0,0-1.8-.29,6,6,0,0,0-2,.34,4.82,4.82,0,0,0-1.78,1.11,5.44,5.44,0,0,0-1.26,2,8.35,8.35,0,0,0-.48,3,7.89,7.89,0,0,0,.52,3.08,5.18,5.18,0,0,0,1.31,1.95,4.76,4.76,0,0,0,1.79,1,6.4,6.4,0,0,0,2,.31,6,6,0,0,0,1.83-.28,7.19,7.19,0,0,0,1.67-.74,12,12,0,0,0,1.2-.82c.37-.28.67-.53.91-.74h.52v4.69l-1.41.62a12.34,12.34,0,0,1-1.41.5,14.37,14.37,0,0,1-1.8.42A14.05,14.05,0,0,1,224.68,123Z"/><path class="cls-3" d="M250.22,109.14a7.39,7.39,0,0,1-.46,2.58,5.87,5.87,0,0,1-1.32,2.12,8.08,8.08,0,0,1-2.62,1.75,9.59,9.59,0,0,1-3.59.59h-3.15v6.4H234V102.94h8.33a12.93,12.93,0,0,1,3.16.33,7.38,7.38,0,0,1,2.27,1,5.15,5.15,0,0,1,1.81,2A6.25,6.25,0,0,1,250.22,109.14Zm-5.23.11a2.29,2.29,0,0,0-.45-1.42,2.49,2.49,0,0,0-1-.84,5,5,0,0,0-1.55-.35c-.5,0-1.16,0-2,0h-.87v5.87h1.45a12.34,12.34,0,0,0,2.13-.16,3.06,3.06,0,0,0,1.4-.63,2.45,2.45,0,0,0,.71-1A4.21,4.21,0,0,0,245,109.25Z"/><path class="cls-3" d="M267.84,106.74h-6.13v15.84h-5.06V106.74h-6.13v-3.8h17.32Z"/><path class="cls-3" d="M293.67,109.14a7.39,7.39,0,0,1-.46,2.58,5.74,5.74,0,0,1-1.32,2.12,8.15,8.15,0,0,1-2.61,1.75,9.65,9.65,0,0,1-3.6.59h-3.15v6.4h-5.06V102.94h8.33a12.93,12.93,0,0,1,3.16.33,7.18,7.18,0,0,1,2.27,1,5.18,5.18,0,0,1,1.82,2A6.38,6.38,0,0,1,293.67,109.14Zm-5.23.11a2.29,2.29,0,0,0-.45-1.42,2.43,2.43,0,0,0-1-.84,5,5,0,0,0-1.54-.35q-.75,0-2,0h-.87v5.87H284a12.26,12.26,0,0,0,2.13-.16,3.15,3.15,0,0,0,1.41-.63,2.43,2.43,0,0,0,.7-1A4,4,0,0,0,288.44,109.25Z"/><path class="cls-3" d="M304.64,121l-.95.7a7.52,7.52,0,0,1-1.07.64,6.82,6.82,0,0,1-1.45.47,8.43,8.43,0,0,1-1.65.15,5,5,0,0,1-3.53-1.3,4.34,4.34,0,0,1-1.43-3.34,4.53,4.53,0,0,1,.73-2.65,4.84,4.84,0,0,1,2.06-1.62,11.58,11.58,0,0,1,3.27-.85c1.3-.16,2.65-.29,4-.36v-.08a1.71,1.71,0,0,0-1-1.7,7.27,7.27,0,0,0-3-.47,8.4,8.4,0,0,0-2.51.42c-.88.28-1.52.49-1.91.64h-.43v-3.57c.5-.14,1.31-.29,2.44-.47a21.55,21.55,0,0,1,3.4-.27c2.7,0,4.64.41,5.84,1.24a4.43,4.43,0,0,1,1.8,3.91v10.08h-4.7Zm0-2.31v-3.07c-.64.05-1.34.12-2.09.21a10.19,10.19,0,0,0-1.7.33,2.3,2.3,0,0,0-1.08.65,1.59,1.59,0,0,0-.38,1.12,3,3,0,0,0,.08.75,1.09,1.09,0,0,0,.39.55,1.91,1.91,0,0,0,.73.39,5.24,5.24,0,0,0,1.32.12,3.78,3.78,0,0,0,1.44-.29A4.35,4.35,0,0,0,304.64,118.7Z"/><path class="cls-3" d="M323.12,112.29h-.42a4.68,4.68,0,0,0-1-.16c-.45,0-.82,0-1.12,0a11.82,11.82,0,0,0-1.79.13,10.77,10.77,0,0,0-1.67.45v9.92h-4.75V107.77h4.75V110a9.86,9.86,0,0,1,2.73-1.79,5.88,5.88,0,0,1,2.13-.44h.56l.56,0Z"/><path class="cls-3" d="M331.51,100.48v.26l-4.64,4.92h-3.24l3.25-5.18Zm-2.27,22.1h-4.76V107.77h4.76Z"/><path class="cls-3" d="M345.26,117.88a4.3,4.3,0,0,1-2.06,3.7,9.83,9.83,0,0,1-5.63,1.4,15.91,15.91,0,0,1-3.59-.37,13.2,13.2,0,0,1-2.58-.81v-3.9h.43l.83.54a8.18,8.18,0,0,0,1.32.64,10.76,10.76,0,0,0,1.68.52,8.51,8.51,0,0,0,2,.22,5.16,5.16,0,0,0,2.07-.31,1,1,0,0,0,.67-.92.85.85,0,0,0-.39-.78,5.39,5.39,0,0,0-1.5-.47c-.36-.08-.83-.16-1.44-.26a15.81,15.81,0,0,1-1.64-.33,5.83,5.83,0,0,1-3-1.64,4.08,4.08,0,0,1-1-2.78,4.2,4.2,0,0,1,2-3.55,9.45,9.45,0,0,1,5.53-1.42,14.29,14.29,0,0,1,3.18.34,12.06,12.06,0,0,1,2.38.72v3.74h-.41a9.58,9.58,0,0,0-2.4-1.18,8.6,8.6,0,0,0-2.74-.45,5.2,5.2,0,0,0-1.93.31q-.78.31-.78.9a1,1,0,0,0,.35.8,4.87,4.87,0,0,0,1.68.56c.48.09,1,.19,1.56.28s1.12.21,1.68.35a5.31,5.31,0,0,1,2.77,1.53A3.9,3.9,0,0,1,345.26,117.88Z"/><path class="cls-3" d="M63.27,46.11a4.74,4.74,0,0,1,1.14,1.43,4.83,4.83,0,0,1,.42,2.18,6.94,6.94,0,0,1-.6,2.88,6,6,0,0,1-1.87,2.28,8.85,8.85,0,0,1-2.89,1.41,14.32,14.32,0,0,1-4,.5,22.17,22.17,0,0,1-4.65-.43,17.55,17.55,0,0,1-3.16-1V50.62h.57a14,14,0,0,0,3,1.32,10.7,10.7,0,0,0,3.2.55,12.35,12.35,0,0,0,1.85-.14,4,4,0,0,0,1.69-.6,3,3,0,0,0,.86-.89,2.93,2.93,0,0,0,.32-1.5,2.21,2.21,0,0,0-.44-1.47,2.33,2.33,0,0,0-1.15-.74,6.12,6.12,0,0,0-1.73-.26l-1.88,0h-1.2V43H54c.76,0,1.43,0,2-.07a4.74,4.74,0,0,0,1.49-.34,2.19,2.19,0,0,0,1-.74,2.4,2.4,0,0,0,.32-1.35,1.55,1.55,0,0,0-.34-1.06,2.2,2.2,0,0,0-.85-.64,4.05,4.05,0,0,0-1.34-.35,12,12,0,0,0-1.34-.09,10.88,10.88,0,0,0-3,.47,14,14,0,0,0-3.11,1.37h-.55V35.44a21.37,21.37,0,0,1,3.27-.93,19.61,19.61,0,0,1,4.19-.44,16.83,16.83,0,0,1,3.62.35,9,9,0,0,1,2.56,1,4.86,4.86,0,0,1,1.79,1.75,4.74,4.74,0,0,1,.58,2.4,5.14,5.14,0,0,1-4.1,5.07v.2a7.85,7.85,0,0,1,1.58.41A5.14,5.14,0,0,1,63.27,46.11Z"/></g></g></svg>