<?xml version="1.0" encoding="UTF-8"?><svg id="Capa_2" xmlns="http://www.w3.org/2000/svg" viewBox="0 0 1024.47 609.79"><defs><style>.cls-1{fill:#ecd4b7;}.cls-2{fill:#ebd8c3;}.cls-3{fill:#e9cdb0;}.cls-4{fill:#fff;}.cls-5{fill:#e5b58d;}.cls-6{fill:#1592d1;}.cls-7{fill:#2061a8;}.cls-8{fill:#5d5d62;}.cls-9{fill:#81cbed;}</style></defs><g id="Capa_1-2"><g><rect class="cls-6" x=".01" y="40.63" width="1024.44" height="569.16" rx="44.3" ry="44.3"/><path class="cls-4" d="M44.79,40.02H979.68c24.72,0,44.79,20.07,44.79,44.79v116.51H0V84.8c0-24.72,20.07-44.79,44.79-44.79Z"/><path class="cls-7" d="M969.86,30.59l-9.83,9.83,9.83,9.83c1.05,1.05,1.05,2.74,0,3.79-.52,.52-1.21,.79-1.9,.79s-1.37-.26-1.9-.79l-9.83-9.83-9.83,9.83c-.52,.52-1.21,.79-1.9,.79s-1.37-.26-1.9-.79c-1.05-1.05-1.05-2.74,0-3.79l9.83-9.83-9.83-9.83c-1.05-1.05-1.05-2.74,0-3.79,1.05-1.05,2.74-1.05,3.79,0l9.83,9.83,9.83-9.83c1.05-1.05,2.74-1.05,3.79,0,1.05,1.05,1.05,2.74,0,3.79Zm10.71-14.23c-6.48-6.48-15.1-10.05-24.26-10.05s-17.78,3.57-24.26,10.05c-6.48,6.48-10.05,15.1-10.05,24.26s3.57,17.78,10.05,24.26c6.48,6.48,15.1,10.05,24.26,10.05,6.27,0,12.41-1.71,17.75-4.95,1.27-.77,1.67-2.42,.9-3.68-.77-1.27-2.42-1.67-3.68-.9-4.5,2.73-9.68,4.17-14.98,4.17-15.96,0-28.95-12.99-28.95-28.95s12.99-28.95,28.95-28.95,28.95,12.99,28.95,28.95c0,5.71-1.7,11.26-4.91,16.07-.82,1.23-.49,2.9,.74,3.72,1.23,.82,2.9,.49,3.72-.74,3.8-5.69,5.81-12.28,5.81-19.05,0-9.16-3.57-17.78-10.05-24.26Z"/><g><path class="cls-7" d="M383.79,166.85l-7.11-14.34h-5.58v14.34h-10.92v-42.33h21.2c9.39,0,14.72,6.22,14.72,14.09,0,7.36-4.51,11.3-8.44,12.69l8.63,15.55h-12.5Zm-4.06-33.13h-8.63v9.52h8.63c2.86,0,5.27-1.84,5.27-4.76s-2.41-4.76-5.27-4.76Z"/><path class="cls-7" d="M414.25,135.43c9.07,0,15.67,6.66,15.67,17.07v2.09h-21.83c.57,2.86,3.24,5.46,7.81,5.46,2.73,0,5.78-1.08,7.49-2.6l4.12,6.09c-3.05,2.73-8.12,4.06-12.82,4.06-9.46,0-16.75-6.16-16.75-16.12,0-8.88,6.73-16.06,16.31-16.06Zm-6.28,12.82h12.63c-.25-2.16-1.84-5.27-6.35-5.27-4.25,0-5.9,3.05-6.28,5.27Z"/><path class="cls-7" d="M446.62,144.7v22.15h-9.77v-22.15h-5.08v-8.5h5.08v-1.52c0-6.54,4.63-10.79,10.98-10.79,2.67,0,4.95,.57,6.47,1.4l-1.78,6.66c-.76-.44-1.65-.63-2.54-.63-2.03,0-3.36,1.27-3.36,3.62v1.27h6.22v8.5h-6.22Z"/><path class="cls-7" d="M471.18,135.43c9.07,0,15.67,6.66,15.67,17.07v2.09h-21.83c.57,2.86,3.24,5.46,7.81,5.46,2.73,0,5.78-1.08,7.49-2.6l4.12,6.09c-3.05,2.73-8.12,4.06-12.82,4.06-9.46,0-16.75-6.16-16.75-16.12,0-8.88,6.73-16.06,16.31-16.06Zm-6.28,12.82h12.63c-.25-2.16-1.84-5.27-6.35-5.27-4.25,0-5.9,3.05-6.28,5.27Z"/><path class="cls-7" d="M491.68,166.85v-30.65h9.77v3.87c2.03-2.48,5.9-4.63,9.58-4.63v9.46c-.57-.19-1.4-.32-2.41-.32-2.54,0-5.9,1.08-7.17,2.86v19.42h-9.77Z"/><path class="cls-7" d="M529.76,135.43c9.07,0,15.67,6.66,15.67,17.07v2.09h-21.83c.57,2.86,3.24,5.46,7.81,5.46,2.73,0,5.78-1.08,7.49-2.6l4.12,6.09c-3.05,2.73-8.12,4.06-12.82,4.06-9.46,0-16.75-6.16-16.75-16.12,0-8.88,6.73-16.06,16.31-16.06Zm-6.28,12.82h12.63c-.25-2.16-1.84-5.27-6.35-5.27-4.25,0-5.9,3.05-6.28,5.27Z"/><path class="cls-7" d="M571.01,166.85v-17.71c0-3.74-1.97-5.08-5.01-5.08s-4.82,1.59-5.96,2.98v19.8h-9.77v-30.65h9.77v3.74c1.84-2.16,5.46-4.51,10.6-4.51,6.98,0,10.15,4.06,10.15,9.71v21.7h-9.77Z"/><path class="cls-7" d="M602.61,135.43c6.6,0,10.73,2.92,12.57,5.65l-6.35,5.9c-1.21-1.78-3.17-2.92-5.78-2.92-4.06,0-7.17,2.79-7.17,7.42s3.11,7.49,7.17,7.49c2.6,0,4.57-1.27,5.78-2.98l6.35,5.96c-1.84,2.67-5.96,5.65-12.57,5.65-9.58,0-16.75-6.47-16.75-16.12s7.17-16.06,16.75-16.06Z"/><path class="cls-7" d="M633.9,135.43c9.07,0,15.67,6.66,15.67,17.07v2.09h-21.83c.57,2.86,3.24,5.46,7.81,5.46,2.73,0,5.78-1.08,7.49-2.6l4.12,6.09c-3.05,2.73-8.12,4.06-12.82,4.06-9.46,0-16.75-6.16-16.75-16.12,0-8.88,6.73-16.06,16.31-16.06Zm-6.28,12.82h12.63c-.25-2.16-1.84-5.27-6.35-5.27-4.25,0-5.9,3.05-6.28,5.27Z"/><path class="cls-7" d="M655.86,156.19c2.28,2.03,7.17,4.06,10.79,4.06,2.92,0,4.12-.95,4.12-2.29,0-1.59-2.09-2.16-5.27-2.67-5.2-.89-12.57-1.97-12.57-9.77,0-5.39,4.63-10.09,13.14-10.09,5.14,0,9.52,1.65,12.82,4.06l-3.74,6.47c-1.84-1.78-5.33-3.36-9.01-3.36-2.28,0-3.87,.76-3.87,2.09s1.65,1.9,4.89,2.48c5.2,.89,12.95,2.16,12.95,10.28,0,5.84-5.14,10.15-13.96,10.15-5.46,0-11.11-1.84-14.34-4.7l4.06-6.73Z"/></g><g><polygon class="cls-6" points="649.55 76.41 385.13 76.41 379.36 84.67 655.23 84.67 649.55 76.41"/><path class="cls-3" d="M516.92,61.32s48.87-18.15,123.05,1.8l9.58,13.3h-122.75l-9.88-15.09Z"/><path class="cls-3" d="M515.84,62.03s-40.6-18.87-121.52,1.62l-9.58,13.3h122.75l8.35-14.91Z"/><g><polygon class="cls-8" points="478.87 88.36 472 85.79 465.36 88.36 465.36 67.24 478.87 67.24 478.87 88.36"/><rect class="cls-5" x="462.75" y="66.08" width="18.15" height="2.16"/></g><path class="cls-1" d="M611.97,13.69l-.15-.29c-51.58-17.41-87.71-2.85-94.68,.95h-2.84c-6.7-3.54-40.73-18.01-92.09-.95h-.76l-33.66,54.14s58.49-23.18,126.28,1c.89,.32,2.91,.44,3.75,0,55.64-29.24,129.85-1.87,129.85-1.87l-35.72-52.98Z"/><path class="cls-2" d="M611.42,10.27l-.14-.27c-51.58-15.85-87.71-2.59-94.68,.87h-2.84c-6.7-3.23-40.73-16.39-92.09-.87h-.76l-33.66,49.28s58.48-21.1,126.28,.91c.89,.29,2.91,.4,3.75,0,55.64-26.61,129.85-1.71,129.85-1.71l-35.72-48.22Z"/><path class="cls-9" d="M611.97,8.46l-.15-.29c-51.58-17-87.71-2.78-94.68,.93h-2.84c-6.7-3.46-40.73-17.59-92.09-.93h-.76l-32.28,45.81s59.59-29.14,124.9,8.04c.81,.46,2.98,.55,3.75,0,57.85-40.78,125.44-8.65,125.44-8.65l-31.31-44.91Z"/><path class="cls-6" d="M496.47,77.58c2-9.98,9.85-17.43,19.24-17.43s17.24,7.45,19.24,17.43h-38.49Z"/></g></g><g><path class="cls-4" d="M72.25,386.27v-14.68h3.12v14.68h-3.12Z"/><path class="cls-4" d="M91.39,386.27v-6.71c0-.99-.44-1.69-1.58-1.69-.99,0-1.8,.66-2.2,1.23v7.17h-2.82v-6.71c0-.99-.44-1.69-1.58-1.69-.97,0-1.78,.66-2.2,1.25v7.15h-2.79v-10.63h2.79v1.39c.44-.64,1.85-1.65,3.48-1.65s2.55,.73,2.95,1.94c.62-.97,2.02-1.94,3.65-1.94,1.96,0,3.12,1.03,3.12,3.21v7.68h-2.82Z"/><path class="cls-4" d="M103.34,386.27v-1.1c-.73,.86-1.98,1.36-3.37,1.36-1.69,0-3.7-1.14-3.7-3.52s2-3.39,3.7-3.39c1.41,0,2.66,.44,3.37,1.3v-1.47c0-1.08-.92-1.78-2.33-1.78-1.14,0-2.2,.42-3.1,1.25l-1.06-1.87c1.3-1.14,2.97-1.67,4.64-1.67,2.42,0,4.64,.97,4.64,4.03v6.87h-2.79Zm0-3.87c-.46-.62-1.34-.92-2.25-.92-1.1,0-2,.59-2,1.61s.9,1.56,2,1.56c.9,0,1.78-.31,2.25-.92v-1.32Z"/><path class="cls-4" d="M109.93,386.97c.86,.95,1.98,1.32,3.32,1.32s2.93-.59,2.93-2.68v-1.08c-.84,1.06-1.98,1.67-3.28,1.67-2.66,0-4.69-1.87-4.69-5.41s2-5.41,4.69-5.41c1.28,0,2.42,.55,3.28,1.63v-1.36h2.82v9.9c0,4.05-3.12,5.04-5.74,5.04-1.83,0-3.26-.42-4.58-1.58l1.25-2.02Zm6.25-7.9c-.46-.7-1.47-1.21-2.4-1.21-1.58,0-2.68,1.1-2.68,2.93s1.1,2.93,2.68,2.93c.92,0,1.94-.53,2.4-1.21v-3.43Z"/><path class="cls-4" d="M126.59,375.38c3.17,0,5.32,2.38,5.32,5.85v.62h-7.9c.18,1.34,1.25,2.46,3.06,2.46,.99,0,2.16-.4,2.84-1.06l1.23,1.8c-1.08,.99-2.73,1.47-4.38,1.47-3.23,0-5.68-2.18-5.68-5.59,0-3.08,2.27-5.57,5.5-5.57Zm-2.62,4.58h5.24c-.07-1.01-.77-2.35-2.62-2.35-1.74,0-2.49,1.3-2.62,2.35Z"/><path class="cls-4" d="M138.93,378.94c0-4.51,3.41-7.59,7.7-7.59,3.34,0,5.21,1.76,6.25,3.59l-2.68,1.32c-.62-1.19-1.94-2.13-3.56-2.13-2.55,0-4.49,2.05-4.49,4.82s1.94,4.82,4.49,4.82c1.63,0,2.95-.92,3.56-2.13l2.68,1.3c-1.06,1.83-2.9,3.61-6.25,3.61-4.29,0-7.7-3.08-7.7-7.59Z"/><path class="cls-4" d="M154,380.94c0-3.01,2.11-5.57,5.61-5.57s5.63,2.55,5.63,5.57-2.11,5.59-5.63,5.59-5.61-2.55-5.61-5.59Zm8.34,0c0-1.65-.99-3.08-2.73-3.08s-2.71,1.43-2.71,3.08,.97,3.1,2.71,3.1,2.73-1.43,2.73-3.1Z"/><path class="cls-4" d="M174.62,386.27v-1.34c-.84,1.03-2,1.61-3.28,1.61-2.68,0-4.71-2.02-4.71-5.57s2-5.59,4.71-5.59c1.25,0,2.44,.55,3.28,1.63v-5.41h2.82v14.68h-2.82Zm0-7.2c-.48-.7-1.47-1.21-2.42-1.21-1.58,0-2.68,1.25-2.68,3.1s1.1,3.08,2.68,3.08c.95,0,1.94-.51,2.42-1.21v-3.76Z"/><path class="cls-4" d="M181.63,375.49c.97,0,1.78,.81,1.78,1.78s-.81,1.78-1.78,1.78-1.78-.81-1.78-1.78,.81-1.78,1.78-1.78Zm0,7.46c.97,0,1.78,.81,1.78,1.78s-.81,1.78-1.78,1.78-1.78-.81-1.78-1.78,.81-1.78,1.78-1.78Z"/><path class="cls-4" d="M197.1,371.37c1.89,0,3.17,.73,4.07,1.76l-.92,1.36c-.75-.88-1.61-1.5-3.15-1.5-2.84,0-4.14,2.88-4.14,5.76,0,.2,0,.37,.02,.57,.64-1.01,2.27-2.29,4.16-2.29,2.64,0,4.8,1.56,4.8,4.69,0,2.55-1.94,4.8-5.15,4.8-4.09,0-5.66-3.59-5.66-7.57s1.85-7.59,5.96-7.59Zm-.4,7.26c-1.45,0-2.86,.9-3.67,2.2,.18,1.83,1.14,4.07,3.7,4.07,2.27,0,3.37-1.69,3.37-3.1,0-2.16-1.5-3.17-3.39-3.17Z"/><path class="cls-4" d="M209.75,371.37c4,0,5.61,3.98,5.61,7.57s-1.61,7.59-5.61,7.59-5.61-4.03-5.61-7.59,1.58-7.57,5.61-7.57Zm0,1.63c-2.79,0-3.74,3.01-3.74,5.94s.95,5.96,3.74,5.96,3.74-3.04,3.74-5.96-.95-5.94-3.74-5.94Z"/><path class="cls-4" d="M219.14,386.27l5.92-13.05h-7.9v-1.63h10.01v1.25l-6.01,13.42h-2.02Z"/><path class="cls-4" d="M229.52,382.97c.86,1.14,2.35,1.94,4.09,1.94,2.13,0,3.43-1.06,3.43-2.75,0-1.83-1.5-2.6-3.65-2.6-.62,0-1.3,0-1.52,.02v-1.67c.24,.02,.92,.02,1.52,.02,1.85,0,3.41-.73,3.41-2.42s-1.5-2.51-3.28-2.51c-1.61,0-2.79,.62-3.87,1.78l-1.01-1.14c1.06-1.28,2.75-2.27,5.02-2.27,2.82,0,4.97,1.43,4.97,3.92,0,2.11-1.78,3.17-3.17,3.41,1.34,.11,3.39,1.25,3.39,3.61s-1.96,4.22-5.19,4.22c-2.49,0-4.31-1.1-5.21-2.42l1.08-1.14Z"/><path class="cls-4" d="M244.71,378.7c-1.69-.48-3.26-1.58-3.26-3.52,0-2.64,2.58-3.81,5.02-3.81s5.04,1.17,5.04,3.81c0,1.94-1.58,3.04-3.28,3.52,1.83,.55,3.5,1.89,3.5,3.85,0,2.49-2.38,3.98-5.26,3.98s-5.26-1.47-5.26-3.98c0-1.96,1.67-3.3,3.5-3.85Zm1.76,.81c-.9,.11-3.43,.92-3.43,2.84,0,1.58,1.61,2.55,3.43,2.55s3.41-.97,3.41-2.55c0-1.91-2.51-2.73-3.41-2.84Zm0-6.51c-1.78,0-3.19,.9-3.19,2.42,0,1.78,2.31,2.38,3.19,2.53,.9-.15,3.19-.75,3.19-2.53,0-1.52-1.43-2.42-3.19-2.42Z"/><path class="cls-4" d="M255.42,382.97c.97,1.23,2.24,1.94,4.05,1.94,2,0,3.39-1.36,3.39-3.15,0-1.94-1.39-3.17-3.37-3.17-1.3,0-2.4,.42-3.39,1.39l-1.34-.46v-7.92h8.98v1.63h-7.15v5.1c.7-.7,1.96-1.32,3.43-1.32,2.44,0,4.67,1.67,4.67,4.69s-2.27,4.84-5.21,4.84c-2.49,0-4.07-.9-5.17-2.35l1.12-1.21Z"/><path class="cls-4" d="M269.74,386.27v-12.26l-2.35,2.49-1.1-1.12,3.67-3.78h1.61v14.68h-1.83Z"/><path class="cls-4" d="M277.2,386.27v-12.26l-2.35,2.49-1.1-1.12,3.67-3.78h1.61v14.68h-1.83Z"/><path class="cls-4" d="M283.27,384.07c.66,0,1.21,.55,1.21,1.21s-.55,1.21-1.21,1.21-1.21-.55-1.21-1.21,.55-1.21,1.21-1.21Z"/><path class="cls-4" d="M71.54,405.34c0-4.51,3.41-7.59,7.7-7.59,3.34,0,5.21,1.76,6.25,3.59l-2.68,1.32c-.62-1.19-1.94-2.13-3.56-2.13-2.55,0-4.49,2.05-4.49,4.82s1.94,4.82,4.49,4.82c1.63,0,2.95-.92,3.56-2.13l2.68,1.3c-1.06,1.83-2.9,3.61-6.25,3.61-4.29,0-7.7-3.08-7.7-7.59Z"/><path class="cls-4" d="M87.3,412.67v-10.63h2.79v1.45c.75-.95,2.07-1.69,3.39-1.69v2.73c-.2-.04-.46-.07-.77-.07-.92,0-2.16,.51-2.62,1.19v7.02h-2.79Z"/><path class="cls-4" d="M100.04,401.78c3.17,0,5.32,2.38,5.32,5.85v.62h-7.9c.18,1.34,1.25,2.46,3.06,2.46,.99,0,2.16-.4,2.84-1.06l1.23,1.8c-1.08,.99-2.73,1.47-4.38,1.47-3.23,0-5.68-2.18-5.68-5.59,0-3.08,2.27-5.57,5.5-5.57Zm-2.62,4.58h5.24c-.07-1.01-.77-2.35-2.62-2.35-1.74,0-2.49,1.3-2.62,2.35Z"/><path class="cls-4" d="M113.76,412.67v-1.1c-.73,.86-1.98,1.36-3.37,1.36-1.69,0-3.7-1.14-3.7-3.52s2-3.39,3.7-3.39c1.41,0,2.66,.44,3.37,1.3v-1.47c0-1.08-.92-1.78-2.33-1.78-1.14,0-2.2,.42-3.1,1.25l-1.06-1.87c1.3-1.14,2.97-1.67,4.64-1.67,2.42,0,4.64,.97,4.64,4.03v6.87h-2.79Zm0-3.87c-.46-.62-1.34-.92-2.25-.92-1.1,0-2,.59-2,1.61s.9,1.56,2,1.56c.9,0,1.78-.31,2.25-.92v-1.32Z"/><path class="cls-4" d="M119.88,410.03v-5.54h-1.76v-2.44h1.76v-2.9h2.82v2.9h2.16v2.44h-2.16v4.8c0,.66,.35,1.17,.97,1.17,.42,0,.81-.15,.97-.31l.59,2.11c-.42,.37-1.17,.68-2.33,.68-1.96,0-3.01-1.01-3.01-2.9Z"/><path class="cls-4" d="M126.08,407.34c0-3.01,2.11-5.57,5.61-5.57s5.63,2.55,5.63,5.57-2.11,5.59-5.63,5.59-5.61-2.55-5.61-5.59Zm8.34,0c0-1.65-.99-3.08-2.73-3.08s-2.71,1.43-2.71,3.08,.97,3.1,2.71,3.1,2.73-1.43,2.73-3.1Z"/><path class="cls-4" d="M139.39,412.67v-10.63h2.79v1.45c.75-.95,2.07-1.69,3.39-1.69v2.73c-.2-.04-.46-.07-.77-.07-.92,0-2.16,.51-2.62,1.19v7.02h-2.79Z"/><path class="cls-4" d="M148.74,401.89c.97,0,1.78,.81,1.78,1.78s-.81,1.78-1.78,1.78-1.78-.81-1.78-1.78,.81-1.78,1.78-1.78Zm0,7.46c.97,0,1.78,.81,1.78,1.78s-.81,1.78-1.78,1.78-1.78-.81-1.78-1.78,.81-1.78,1.78-1.78Z"/><path class="cls-4" d="M158.31,409.85c.64,.77,1.5,1.45,2.77,1.45,1.8,0,2.95-1.25,2.95-3.08v-10.23h1.83v10.25c0,3.19-2.05,4.69-4.67,4.69-1.56,0-2.82-.51-3.83-1.69l.95-1.39Z"/><path class="cls-4" d="M173.84,401.78c3.21,0,5.11,2.51,5.11,5.7v.42h-8.6c.13,2,1.54,3.67,3.83,3.67,1.21,0,2.44-.48,3.28-1.34l.79,1.08c-1.06,1.06-2.49,1.63-4.22,1.63-3.15,0-5.41-2.27-5.41-5.59,0-3.08,2.2-5.57,5.24-5.57Zm-3.5,4.91h6.97c-.02-1.58-1.08-3.54-3.5-3.54-2.27,0-3.39,1.91-3.48,3.54Z"/><path class="cls-4" d="M182.07,412.67v-9.18h-1.76v-1.45h1.76v-.81c0-2.2,1.23-3.46,3.08-3.46,.62,0,1.19,.11,1.61,.37l-.42,1.23c-.26-.15-.57-.24-.95-.24-1.08,0-1.67,.75-1.67,2.09v.81h2.16v1.45h-2.16v9.18h-1.65Zm6.23,0v-9.18h-1.76v-1.45h1.76v-.81c0-2.2,1.23-3.46,3.08-3.46,.62,0,1.19,.11,1.61,.37l-.42,1.23c-.26-.15-.57-.24-.95-.24-1.08,0-1.67,.75-1.67,2.09v.81h2.16v1.45h-2.16v9.18h-1.65Z"/><path class="cls-4" d="M204.07,412.67v-6.21l-5.79-8.47h2.13l4.55,6.82,4.55-6.82h2.13l-5.76,8.47v6.21h-1.83Z"/><path class="cls-4" d="M210.1,407.34c0-3.08,2.02-5.57,5.26-5.57s5.26,2.49,5.26,5.57-2.02,5.59-5.26,5.59-5.26-2.51-5.26-5.59Zm8.78,0c0-2.16-1.25-4.09-3.52-4.09s-3.54,1.94-3.54,4.09,1.28,4.12,3.54,4.12,3.52-1.94,3.52-4.12Z"/><path class="cls-4" d="M230.47,412.67v-6.95c0-1.87-.95-2.46-2.38-2.46-1.3,0-2.53,.79-3.15,1.65v7.77h-1.65v-10.63h1.65v1.54c.75-.88,2.2-1.8,3.78-1.8,2.22,0,3.39,1.12,3.39,3.43v7.46h-1.65Z"/><path class="cls-4" d="M234.8,407.34c0-3.08,2.02-5.57,5.26-5.57s5.26,2.49,5.26,5.57-2.02,5.59-5.26,5.59-5.26-2.51-5.26-5.59Zm8.78,0c0-2.16-1.25-4.09-3.52-4.09s-3.54,1.94-3.54,4.09,1.28,4.12,3.54,4.12,3.52-1.94,3.52-4.12Z"/><path class="cls-4" d="M250.84,412.67l-4.42-10.63h1.78l3.54,8.71,3.52-8.71h1.8l-4.42,10.63h-1.8Z"/><path class="cls-4" d="M263.41,401.78c3.21,0,5.11,2.51,5.11,5.7v.42h-8.6c.13,2,1.54,3.67,3.83,3.67,1.21,0,2.44-.48,3.28-1.34l.79,1.08c-1.06,1.06-2.49,1.63-4.22,1.63-3.15,0-5.41-2.27-5.41-5.59,0-3.08,2.2-5.57,5.24-5.57Zm-3.5,4.91h6.97c-.02-1.58-1.08-3.54-3.5-3.54-2.27,0-3.39,1.91-3.48,3.54Z"/><path class="cls-4" d="M271.17,412.67v-10.63h1.65v1.72c.86-1.12,2.09-1.94,3.54-1.94v1.69c-.2-.04-.4-.07-.66-.07-1.01,0-2.4,.84-2.88,1.69v7.53h-1.65Z"/><path class="cls-4" d="M277.48,410.47c.66,0,1.21,.55,1.21,1.21s-.55,1.21-1.21,1.21-1.21-.55-1.21-1.21,.55-1.21,1.21-1.21Z"/><path class="cls-4" d="M71.54,431.74c0-4.51,3.41-7.59,7.7-7.59,3.34,0,5.21,1.76,6.25,3.59l-2.68,1.32c-.62-1.19-1.94-2.13-3.56-2.13-2.55,0-4.49,2.05-4.49,4.82s1.94,4.82,4.49,4.82c1.63,0,2.95-.92,3.56-2.13l2.68,1.3c-1.06,1.83-2.9,3.61-6.25,3.61-4.29,0-7.7-3.08-7.7-7.59Z"/><path class="cls-4" d="M93.68,439.07v-1.1c-.73,.86-1.98,1.36-3.37,1.36-1.69,0-3.7-1.14-3.7-3.52s2-3.39,3.7-3.39c1.41,0,2.66,.44,3.37,1.3v-1.47c0-1.08-.92-1.78-2.33-1.78-1.14,0-2.2,.42-3.1,1.25l-1.06-1.87c1.3-1.14,2.97-1.67,4.64-1.67,2.42,0,4.64,.97,4.64,4.03v6.87h-2.79Zm0-3.87c-.46-.62-1.34-.92-2.25-.92-1.1,0-2,.59-2,1.61s.9,1.56,2,1.56c.9,0,1.78-.31,2.25-.92v-1.32Z"/><path class="cls-4" d="M102.04,443.12h-2.79v-14.68h2.79v1.34c.81-1.03,1.98-1.61,3.28-1.61,2.73,0,4.71,2.02,4.71,5.57s-1.98,5.59-4.71,5.59c-1.25,0-2.42-.53-3.28-1.63v5.41Zm2.4-12.45c-.9,0-1.94,.53-2.4,1.21v3.76c.46,.66,1.5,1.21,2.4,1.21,1.61,0,2.68-1.25,2.68-3.1s-1.08-3.08-2.68-3.08Z"/><path class="cls-4" d="M112.66,436.43v-5.54h-1.76v-2.44h1.76v-2.9h2.82v2.9h2.16v2.44h-2.16v4.8c0,.66,.35,1.17,.97,1.17,.42,0,.81-.15,.97-.31l.59,2.11c-.42,.37-1.17,.68-2.33,.68-1.96,0-3.01-1.01-3.01-2.9Z"/><path class="cls-4" d="M119.26,425.2c0-.92,.77-1.67,1.67-1.67s1.67,.75,1.67,1.67-.75,1.67-1.67,1.67-1.67-.75-1.67-1.67Zm.29,13.86v-10.63h2.79v10.63h-2.79Z"/><path class="cls-4" d="M124.43,433.74c0-3.01,2.11-5.57,5.61-5.57s5.63,2.55,5.63,5.57-2.11,5.59-5.63,5.59-5.61-2.55-5.61-5.59Zm8.34,0c0-1.65-.99-3.08-2.73-3.08s-2.71,1.43-2.71,3.08,.97,3.1,2.71,3.1,2.73-1.43,2.73-3.1Z"/><path class="cls-4" d="M144.92,439.07v-6.42c0-1.47-.77-1.98-1.96-1.98-1.1,0-1.96,.62-2.42,1.25v7.15h-2.79v-10.63h2.79v1.39c.68-.81,1.98-1.65,3.72-1.65,2.33,0,3.45,1.32,3.45,3.39v7.5h-2.79Z"/><path class="cls-4" d="M151.91,428.29c.97,0,1.78,.81,1.78,1.78s-.81,1.78-1.78,1.78-1.78-.81-1.78-1.78,.81-1.78,1.78-1.78Zm0,7.46c.97,0,1.78,.81,1.78,1.78s-.81,1.78-1.78,1.78-1.78-.81-1.78-1.78,.81-1.78,1.78-1.78Z"/><path class="cls-4" d="M170.5,439.07l-3.74-5.83h-2.93v5.83h-1.83v-14.68h5.9c2.68,0,4.6,1.72,4.6,4.42s-1.8,4.09-3.81,4.27l3.96,5.98h-2.16Zm-2.82-13.05h-3.85v5.61h3.85c1.74,0,2.93-1.17,2.93-2.82s-1.19-2.79-2.93-2.79Z"/><path class="cls-4" d="M179.28,428.17c3.21,0,5.11,2.51,5.11,5.7v.42h-8.6c.13,2,1.54,3.67,3.83,3.67,1.21,0,2.44-.48,3.28-1.34l.79,1.08c-1.06,1.06-2.49,1.63-4.22,1.63-3.15,0-5.41-2.27-5.41-5.59,0-3.08,2.2-5.57,5.24-5.57Zm-3.5,4.91h6.97c-.02-1.58-1.08-3.54-3.5-3.54-2.27,0-3.39,1.91-3.48,3.54Z"/><path class="cls-4" d="M194.74,439.07v-1.58c-.79,1.08-2.09,1.85-3.59,1.85-2.77,0-4.73-2.11-4.73-5.57s1.94-5.59,4.73-5.59c1.43,0,2.73,.7,3.59,1.87v-5.65h1.65v14.68h-1.65Zm0-7.7c-.59-.92-1.87-1.72-3.19-1.72-2.13,0-3.41,1.76-3.41,4.11s1.28,4.09,3.41,4.09c1.32,0,2.6-.75,3.19-1.67v-4.82Z"/><path class="cls-4" d="M217.98,439.07v-12.21l-4.99,12.21h-.75l-4.97-12.21v12.21h-1.83v-14.68h2.62l4.55,11.18,4.58-11.18h2.62v14.68h-1.83Z"/><path class="cls-4" d="M229.81,439.07v-1.21c-.88,.97-2.09,1.47-3.52,1.47-1.8,0-3.72-1.21-3.72-3.52s1.91-3.5,3.72-3.5c1.45,0,2.66,.46,3.52,1.45v-1.91c0-1.43-1.14-2.24-2.68-2.24-1.28,0-2.31,.46-3.26,1.47l-.77-1.14c1.14-1.19,2.51-1.76,4.25-1.76,2.24,0,4.11,1.01,4.11,3.59v7.3h-1.65Zm0-4.25c-.64-.88-1.76-1.32-2.93-1.32-1.54,0-2.62,.97-2.62,2.33s1.08,2.31,2.62,2.31c1.17,0,2.29-.44,2.93-1.32v-2Z"/><path class="cls-4" d="M241.93,439.07v-6.95c0-1.87-.95-2.46-2.38-2.46-1.3,0-2.53,.79-3.15,1.65v7.77h-1.65v-10.63h1.65v1.54c.75-.88,2.2-1.8,3.78-1.8,2.22,0,3.39,1.12,3.39,3.43v7.46h-1.65Z"/><path class="cls-4" d="M247.7,440.56c.88,1.06,1.94,1.45,3.46,1.45,1.76,0,3.41-.86,3.41-3.19v-1.52c-.77,1.08-2.07,1.89-3.56,1.89-2.77,0-4.73-2.07-4.73-5.5s1.94-5.52,4.73-5.52c1.43,0,2.71,.7,3.56,1.87v-1.61h1.65v10.32c0,3.52-2.46,4.62-5.06,4.62-1.8,0-3.04-.35-4.29-1.58l.84-1.23Zm6.87-9.2c-.57-.92-1.85-1.72-3.17-1.72-2.13,0-3.41,1.69-3.41,4.05s1.28,4.05,3.41,4.05c1.32,0,2.6-.81,3.17-1.74v-4.64Z"/><path class="cls-4" d="M259.51,439.07v-10.63h1.65v1.72c.86-1.12,2.09-1.94,3.54-1.94v1.69c-.2-.04-.4-.07-.66-.07-1.01,0-2.4,.84-2.88,1.69v7.53h-1.65Z"/><path class="cls-4" d="M266.15,433.74c0-3.08,2.02-5.57,5.26-5.57s5.26,2.49,5.26,5.57-2.02,5.59-5.26,5.59-5.26-2.51-5.26-5.59Zm8.78,0c0-2.16-1.25-4.09-3.52-4.09s-3.54,1.94-3.54,4.09,1.28,4.12,3.54,4.12,3.52-1.94,3.52-4.12Z"/><path class="cls-4" d="M282.19,439.07l-4.42-10.63h1.78l3.54,8.71,3.52-8.71h1.8l-4.42,10.63h-1.8Z"/><path class="cls-4" d="M294.75,428.17c3.21,0,5.11,2.51,5.11,5.7v.42h-8.6c.13,2,1.54,3.67,3.83,3.67,1.21,0,2.44-.48,3.28-1.34l.79,1.08c-1.06,1.06-2.49,1.63-4.22,1.63-3.15,0-5.41-2.27-5.41-5.59,0-3.08,2.2-5.57,5.24-5.57Zm-3.5,4.91h6.97c-.02-1.58-1.08-3.54-3.5-3.54-2.27,0-3.39,1.91-3.48,3.54Z"/><path class="cls-4" d="M315.9,439.07v-1.58c-.79,1.08-2.09,1.85-3.59,1.85-2.77,0-4.73-2.11-4.73-5.57s1.94-5.59,4.73-5.59c1.43,0,2.73,.7,3.59,1.87v-5.65h1.65v14.68h-1.65Zm0-7.7c-.59-.92-1.87-1.72-3.19-1.72-2.13,0-3.41,1.76-3.41,4.11s1.28,4.09,3.41,4.09c1.32,0,2.6-.75,3.19-1.67v-4.82Z"/><path class="cls-4" d="M320.56,425.53c0-.62,.51-1.1,1.1-1.1s1.12,.48,1.12,1.1-.51,1.12-1.12,1.12-1.1-.51-1.1-1.12Zm.29,13.53v-10.63h1.65v10.63h-1.65Z"/><path class="cls-4" d="M325.73,436.47c.7,.81,2.05,1.52,3.5,1.52,1.63,0,2.51-.73,2.51-1.76,0-1.17-1.3-1.54-2.73-1.89-1.8-.42-3.85-.9-3.85-3.1,0-1.65,1.43-3.06,3.96-3.06,1.8,0,3.08,.68,3.94,1.54l-.77,1.14c-.64-.77-1.8-1.34-3.17-1.34-1.45,0-2.35,.66-2.35,1.61,0,1.03,1.21,1.36,2.6,1.69,1.85,.42,3.98,.95,3.98,3.3,0,1.78-1.43,3.21-4.18,3.21-1.74,0-3.21-.53-4.29-1.67l.86-1.19Z"/><path class="cls-4" d="M337.68,443.12h-1.65v-14.68h1.65v1.58c.77-1.08,2.09-1.85,3.59-1.85,2.79,0,4.73,2.11,4.73,5.57s-1.94,5.59-4.73,5.59c-1.45,0-2.73-.68-3.59-1.87v5.66Zm3.17-13.47c-1.3,0-2.6,.77-3.17,1.69v4.8c.57,.92,1.87,1.72,3.17,1.72,2.13,0,3.41-1.76,3.41-4.12s-1.28-4.09-3.41-4.09Z"/><path class="cls-4" d="M348.65,439.07v-14.68h1.65v14.68h-1.65Z"/><path class="cls-4" d="M360.25,439.07v-1.21c-.88,.97-2.09,1.47-3.52,1.47-1.8,0-3.72-1.21-3.72-3.52s1.92-3.5,3.72-3.5c1.45,0,2.66,.46,3.52,1.45v-1.91c0-1.43-1.14-2.24-2.68-2.24-1.28,0-2.31,.46-3.26,1.47l-.77-1.14c1.14-1.19,2.51-1.76,4.25-1.76,2.24,0,4.11,1.01,4.11,3.59v7.3h-1.65Zm0-4.25c-.64-.88-1.76-1.32-2.93-1.32-1.54,0-2.62,.97-2.62,2.33s1.08,2.31,2.62,2.31c1.17,0,2.29-.44,2.93-1.32v-2Z"/><path class="cls-4" d="M364.87,441.73c.24,.11,.64,.18,.9,.18,.73,0,1.21-.24,1.58-1.12l.7-1.61-4.44-10.74h1.78l3.54,8.71,3.52-8.71h1.8l-5.33,12.78c-.64,1.54-1.72,2.13-3.12,2.16-.35,0-.9-.07-1.21-.15l.26-1.5Z"/><path class="cls-4" d="M375.69,425.53c0-.62,.51-1.1,1.1-1.1s1.12,.48,1.12,1.1-.51,1.12-1.12,1.12-1.1-.51-1.1-1.12Zm.29,13.53v-10.63h1.65v10.63h-1.65Z"/><path class="cls-4" d="M388.1,439.07v-6.95c0-1.87-.95-2.46-2.38-2.46-1.3,0-2.53,.79-3.15,1.65v7.77h-1.65v-10.63h1.65v1.54c.75-.88,2.2-1.8,3.78-1.8,2.22,0,3.39,1.12,3.39,3.43v7.46h-1.65Z"/><path class="cls-4" d="M393.86,440.56c.88,1.06,1.94,1.45,3.45,1.45,1.76,0,3.41-.86,3.41-3.19v-1.52c-.77,1.08-2.07,1.89-3.56,1.89-2.77,0-4.73-2.07-4.73-5.5s1.94-5.52,4.73-5.52c1.43,0,2.71,.7,3.56,1.87v-1.61h1.65v10.32c0,3.52-2.46,4.62-5.06,4.62-1.8,0-3.04-.35-4.29-1.58l.84-1.23Zm6.86-9.2c-.57-.92-1.85-1.72-3.17-1.72-2.13,0-3.41,1.69-3.41,4.05s1.28,4.05,3.41,4.05c1.32,0,2.6-.81,3.17-1.74v-4.64Z"/><path class="cls-4" d="M411.07,425.53c0-.62,.51-1.1,1.1-1.1s1.12,.48,1.12,1.1-.51,1.12-1.12,1.12-1.1-.51-1.1-1.12Zm.29,13.53v-10.63h1.65v10.63h-1.65Z"/><path class="cls-4" d="M429.13,439.07v-7.22c0-1.34-.59-2.2-1.96-2.2-1.1,0-2.27,.79-2.82,1.63v7.79h-1.65v-7.22c0-1.34-.57-2.2-1.96-2.2-1.08,0-2.22,.79-2.79,1.65v7.77h-1.65v-10.63h1.65v1.54c.44-.68,1.87-1.8,3.43-1.8s2.55,.88,2.86,1.98c.59-.97,2.02-1.98,3.56-1.98,1.94,0,2.97,1.08,2.97,3.21v7.68h-1.65Z"/><path class="cls-4" d="M435.73,443.12h-1.65v-14.68h1.65v1.58c.77-1.08,2.09-1.85,3.59-1.85,2.79,0,4.73,2.11,4.73,5.57s-1.94,5.59-4.73,5.59c-1.45,0-2.73-.68-3.59-1.87v5.66Zm3.17-13.47c-1.3,0-2.6,.77-3.17,1.69v4.8c.57,.92,1.87,1.72,3.17,1.72,2.13,0,3.41-1.76,3.41-4.12s-1.28-4.09-3.41-4.09Z"/><path class="cls-4" d="M446.71,439.07v-10.63h1.65v1.72c.86-1.12,2.09-1.94,3.54-1.94v1.69c-.2-.04-.4-.07-.66-.07-1.01,0-2.4,.84-2.88,1.69v7.53h-1.65Z"/><path class="cls-4" d="M458.59,428.17c3.21,0,5.11,2.51,5.11,5.7v.42h-8.6c.13,2,1.54,3.67,3.83,3.67,1.21,0,2.44-.48,3.28-1.34l.79,1.08c-1.06,1.06-2.49,1.63-4.22,1.63-3.15,0-5.41-2.27-5.41-5.59,0-3.08,2.2-5.57,5.24-5.57Zm-3.5,4.91h6.97c-.02-1.58-1.08-3.54-3.5-3.54-2.27,0-3.39,1.91-3.48,3.54Z"/><path class="cls-4" d="M466.29,436.47c.7,.81,2.05,1.52,3.5,1.52,1.63,0,2.51-.73,2.51-1.76,0-1.17-1.3-1.54-2.73-1.89-1.8-.42-3.85-.9-3.85-3.1,0-1.65,1.43-3.06,3.96-3.06,1.8,0,3.08,.68,3.94,1.54l-.77,1.14c-.64-.77-1.8-1.34-3.17-1.34-1.45,0-2.35,.66-2.35,1.61,0,1.03,1.21,1.36,2.6,1.69,1.85,.42,3.98,.95,3.98,3.3,0,1.78-1.43,3.21-4.18,3.21-1.74,0-3.21-.53-4.29-1.67l.86-1.19Z"/><path class="cls-4" d="M476.52,436.47c.7,.81,2.05,1.52,3.5,1.52,1.63,0,2.51-.73,2.51-1.76,0-1.17-1.3-1.54-2.73-1.89-1.8-.42-3.85-.9-3.85-3.1,0-1.65,1.43-3.06,3.96-3.06,1.8,0,3.08,.68,3.94,1.54l-.77,1.14c-.64-.77-1.8-1.34-3.17-1.34-1.45,0-2.35,.66-2.35,1.61,0,1.03,1.21,1.36,2.6,1.69,1.85,.42,3.98,.95,3.98,3.3,0,1.78-1.43,3.21-4.18,3.21-1.74,0-3.21-.53-4.29-1.67l.86-1.19Z"/><path class="cls-4" d="M486.53,425.53c0-.62,.51-1.1,1.1-1.1s1.12,.48,1.12,1.1-.51,1.12-1.12,1.12-1.1-.51-1.1-1.12Zm.29,13.53v-10.63h1.65v10.63h-1.65Z"/><path class="cls-4" d="M494.6,439.07l-4.42-10.63h1.78l3.54,8.71,3.52-8.71h1.8l-4.42,10.63h-1.8Z"/><path class="cls-4" d="M507.16,428.17c3.21,0,5.11,2.51,5.11,5.7v.42h-8.6c.13,2,1.54,3.67,3.83,3.67,1.21,0,2.44-.48,3.28-1.34l.79,1.08c-1.06,1.06-2.49,1.63-4.22,1.63-3.15,0-5.41-2.27-5.41-5.59,0-3.08,2.2-5.57,5.24-5.57Zm-3.5,4.91h6.97c-.02-1.58-1.08-3.54-3.5-3.54-2.27,0-3.39,1.91-3.48,3.54Z"/><path class="cls-4" d="M527.25,439.07v-1.21c-.88,.97-2.09,1.47-3.52,1.47-1.8,0-3.72-1.21-3.72-3.52s1.92-3.5,3.72-3.5c1.45,0,2.66,.46,3.52,1.45v-1.91c0-1.43-1.14-2.24-2.68-2.24-1.28,0-2.31,.46-3.26,1.47l-.77-1.14c1.14-1.19,2.51-1.76,4.25-1.76,2.24,0,4.11,1.01,4.11,3.59v7.3h-1.65Zm0-4.25c-.64-.88-1.76-1.32-2.93-1.32-1.54,0-2.62,.97-2.62,2.33s1.08,2.31,2.62,2.31c1.17,0,2.29-.44,2.93-1.32v-2Z"/><path class="cls-4" d="M532.2,439.07v-10.63h1.65v1.72c.86-1.12,2.09-1.94,3.54-1.94v1.69c-.2-.04-.4-.07-.66-.07-1.01,0-2.4,.84-2.88,1.69v7.53h-1.65Z"/><path class="cls-4" d="M544.14,428.17c1.94,0,3.08,.79,3.89,1.85l-1.1,1.01c-.7-.97-1.61-1.39-2.71-1.39-2.27,0-3.67,1.74-3.67,4.09s1.41,4.12,3.67,4.12c1.1,0,2-.44,2.71-1.39l1.1,1.01c-.81,1.06-1.96,1.85-3.89,1.85-3.17,0-5.3-2.42-5.3-5.59s2.13-5.57,5.3-5.57Z"/><path class="cls-4" d="M557.54,439.07v-7c0-1.87-.97-2.42-2.4-2.42-1.28,0-2.51,.79-3.15,1.65v7.77h-1.65v-14.68h1.65v5.59c.75-.88,2.2-1.8,3.81-1.8,2.22,0,3.39,1.08,3.39,3.39v7.5h-1.65Z"/><path class="cls-4" d="M562.2,425.53c0-.62,.51-1.1,1.1-1.1s1.12,.48,1.12,1.1-.51,1.12-1.12,1.12-1.1-.51-1.1-1.12Zm.29,13.53v-10.63h1.65v10.63h-1.65Z"/><path class="cls-4" d="M574.61,439.07v-6.95c0-1.87-.95-2.46-2.38-2.46-1.3,0-2.53,.79-3.15,1.65v7.77h-1.65v-10.63h1.65v1.54c.75-.88,2.2-1.8,3.78-1.8,2.22,0,3.39,1.12,3.39,3.43v7.46h-1.65Z"/><path class="cls-4" d="M580.38,440.56c.88,1.06,1.94,1.45,3.46,1.45,1.76,0,3.41-.86,3.41-3.19v-1.52c-.77,1.08-2.07,1.89-3.56,1.89-2.77,0-4.73-2.07-4.73-5.5s1.94-5.52,4.73-5.52c1.43,0,2.71,.7,3.56,1.87v-1.61h1.65v10.32c0,3.52-2.46,4.62-5.06,4.62-1.8,0-3.04-.35-4.29-1.58l.84-1.23Zm6.87-9.2c-.57-.92-1.85-1.72-3.17-1.72-2.13,0-3.41,1.69-3.41,4.05s1.28,4.05,3.41,4.05c1.32,0,2.6-.81,3.17-1.74v-4.64Z"/><path class="cls-4" d="M597.87,439.07v-10.63h1.65v1.72c.86-1.12,2.09-1.94,3.54-1.94v1.69c-.2-.04-.4-.07-.66-.07-1.01,0-2.4,.84-2.88,1.69v7.53h-1.65Z"/><path class="cls-4" d="M604.51,433.74c0-3.08,2.02-5.57,5.26-5.57s5.26,2.49,5.26,5.57-2.02,5.59-5.26,5.59-5.26-2.51-5.26-5.59Zm8.78,0c0-2.16-1.25-4.09-3.52-4.09s-3.54,1.94-3.54,4.09,1.28,4.12,3.54,4.12,3.52-1.94,3.52-4.12Z"/><path class="cls-4" d="M617.09,433.74c0-3.08,2.02-5.57,5.26-5.57s5.26,2.49,5.26,5.57-2.02,5.59-5.26,5.59-5.26-2.51-5.26-5.59Zm8.78,0c0-2.16-1.25-4.09-3.52-4.09s-3.54,1.94-3.54,4.09,1.28,4.12,3.54,4.12,3.52-1.94,3.52-4.12Z"/><path class="cls-4" d="M630.62,436.84v-6.95h-1.76v-1.45h1.76v-2.9h1.65v2.9h2.16v1.45h-2.16v6.6c0,.79,.35,1.36,1.08,1.36,.46,0,.9-.2,1.12-.44l.48,1.23c-.42,.4-1.01,.68-1.98,.68-1.56,0-2.35-.9-2.35-2.49Z"/><path class="cls-4" d="M642.37,436.47c.7,.81,2.05,1.52,3.5,1.52,1.63,0,2.51-.73,2.51-1.76,0-1.17-1.3-1.54-2.73-1.89-1.8-.42-3.85-.9-3.85-3.1,0-1.65,1.43-3.06,3.96-3.06,1.8,0,3.08,.68,3.94,1.54l-.77,1.14c-.64-.77-1.8-1.34-3.17-1.34-1.45,0-2.35,.66-2.35,1.61,0,1.03,1.21,1.36,2.6,1.69,1.85,.42,3.98,.95,3.98,3.3,0,1.78-1.43,3.21-4.18,3.21-1.74,0-3.21-.53-4.29-1.67l.86-1.19Z"/><path class="cls-4" d="M652.34,441.73c.24,.11,.64,.18,.9,.18,.73,0,1.21-.24,1.58-1.12l.7-1.61-4.44-10.74h1.78l3.54,8.71,3.52-8.71h1.8l-5.33,12.78c-.64,1.54-1.72,2.13-3.12,2.16-.35,0-.9-.07-1.21-.15l.26-1.5Z"/><path class="cls-4" d="M663.38,436.47c.7,.81,2.05,1.52,3.5,1.52,1.63,0,2.51-.73,2.51-1.76,0-1.17-1.3-1.54-2.73-1.89-1.8-.42-3.85-.9-3.85-3.1,0-1.65,1.43-3.06,3.96-3.06,1.8,0,3.08,.68,3.94,1.54l-.77,1.14c-.64-.77-1.8-1.34-3.17-1.34-1.45,0-2.35,.66-2.35,1.61,0,1.03,1.21,1.36,2.6,1.69,1.85,.42,3.98,.95,3.98,3.3,0,1.78-1.43,3.21-4.18,3.21-1.74,0-3.21-.53-4.29-1.67l.86-1.19Z"/><path class="cls-4" d="M674.01,436.84v-6.95h-1.76v-1.45h1.76v-2.9h1.65v2.9h2.16v1.45h-2.16v6.6c0,.79,.35,1.36,1.08,1.36,.46,0,.9-.2,1.12-.44l.48,1.23c-.42,.4-1.01,.68-1.98,.68-1.56,0-2.35-.9-2.35-2.49Z"/><path class="cls-4" d="M684.76,428.17c3.21,0,5.11,2.51,5.11,5.7v.42h-8.6c.13,2,1.54,3.67,3.83,3.67,1.21,0,2.44-.48,3.28-1.34l.79,1.08c-1.06,1.06-2.49,1.63-4.22,1.63-3.15,0-5.41-2.27-5.41-5.59,0-3.08,2.2-5.57,5.24-5.57Zm-3.5,4.91h6.97c-.02-1.58-1.08-3.54-3.5-3.54-2.27,0-3.39,1.91-3.48,3.54Z"/><path class="cls-4" d="M705.36,439.07v-7.22c0-1.34-.59-2.2-1.96-2.2-1.1,0-2.27,.79-2.82,1.63v7.79h-1.65v-7.22c0-1.34-.57-2.2-1.96-2.2-1.08,0-2.22,.79-2.79,1.65v7.77h-1.65v-10.63h1.65v1.54c.44-.68,1.87-1.8,3.43-1.8s2.55,.88,2.86,1.98c.59-.97,2.02-1.98,3.56-1.98,1.94,0,2.97,1.08,2.97,3.21v7.68h-1.65Z"/><path class="cls-4" d="M711.19,436.87c.66,0,1.21,.55,1.21,1.21s-.55,1.21-1.21,1.21-1.21-.55-1.21-1.21,.55-1.21,1.21-1.21Z"/></g></g></svg>