<?xml version="1.0" encoding="UTF-8"?><svg id="Capa_2" xmlns="http://www.w3.org/2000/svg" viewBox="0 0 1161.37 732.6"><defs><style>.cls-1{fill:#d8d8d8;}.cls-2{fill:#2061a8;}.cls-3{fill:#5d5d62;}</style></defs><g id="Capa_1-2"><rect class="cls-1" width="1161.37" height="732.6" rx="70.67" ry="70.67"/><g><path class="cls-3" d="M75.82,58.01l-1.18-3.22h-8.34l-1.18,3.22h-4.37l7.22-18.68h4.98l7.2,18.68h-4.34Zm-5.35-15.23l-3.11,8.57h6.19l-3.08-8.57Z"/><path class="cls-3" d="M81.87,54.65v-7.06h-2.24v-3.11h2.24v-3.7h3.58v3.7h2.74v3.11h-2.74v6.1c0,.84,.45,1.48,1.23,1.48,.53,0,1.04-.2,1.23-.39l.76,2.69c-.53,.48-1.48,.87-2.97,.87-2.49,0-3.84-1.29-3.84-3.7Z"/><path class="cls-3" d="M91.34,54.65v-7.06h-2.24v-3.11h2.24v-3.7h3.58v3.7h2.74v3.11h-2.74v6.1c0,.84,.45,1.48,1.23,1.48,.53,0,1.04-.2,1.23-.39l.76,2.69c-.53,.48-1.48,.87-2.97,.87-2.49,0-3.84-1.29-3.84-3.7Z"/><path class="cls-3" d="M108.22,58.01v-1.4c-.92,1.09-2.52,1.74-4.28,1.74-2.16,0-4.7-1.46-4.7-4.48s2.55-4.31,4.7-4.31c1.79,0,3.39,.56,4.28,1.65v-1.88c0-1.37-1.18-2.27-2.97-2.27-1.46,0-2.8,.53-3.95,1.6l-1.34-2.38c1.65-1.46,3.78-2.13,5.91-2.13,3.08,0,5.91,1.23,5.91,5.12v8.74h-3.56Zm0-4.93c-.59-.78-1.71-1.18-2.86-1.18-1.4,0-2.55,.76-2.55,2.04s1.15,1.99,2.55,1.99c1.15,0,2.27-.39,2.86-1.18v-1.68Z"/><path class="cls-3" d="M121.6,44.15c2.77,0,4.45,1.2,5.35,2.46l-2.32,2.16c-.64-.92-1.62-1.46-2.86-1.46-2.16,0-3.67,1.57-3.67,3.92s1.51,3.95,3.67,3.95c1.23,0,2.21-.56,2.86-1.46l2.32,2.16c-.9,1.26-2.58,2.46-5.35,2.46-4.17,0-7.17-2.94-7.17-7.11s3-7.08,7.17-7.08Z"/><path class="cls-3" d="M138.43,58.01v-8.23c0-1.88-.98-2.46-2.52-2.46-1.37,0-2.46,.78-3.08,1.6v9.1h-3.56v-18.68h3.56v6.92c.87-1.04,2.55-2.1,4.76-2.1,2.97,0,4.4,1.62,4.4,4.26v9.6h-3.56Z"/><path class="cls-3" d="M151.65,44.15c4.03,0,6.78,3.02,6.78,7.45v.78h-10.05c.22,1.71,1.6,3.14,3.89,3.14,1.26,0,2.74-.5,3.61-1.34l1.57,2.3c-1.37,1.26-3.47,1.88-5.57,1.88-4.12,0-7.22-2.77-7.22-7.11,0-3.92,2.88-7.08,7-7.08Zm-3.33,5.82h6.66c-.08-1.29-.98-3-3.33-3-2.21,0-3.16,1.65-3.33,3Z"/><path class="cls-3" d="M170.3,58.01v-1.71c-1.06,1.32-2.55,2.04-4.17,2.04-3.42,0-5.99-2.58-5.99-7.08s2.55-7.11,5.99-7.11c1.6,0,3.11,.7,4.17,2.07v-6.89h3.58v18.68h-3.58Zm0-9.16c-.62-.9-1.88-1.54-3.08-1.54-2.02,0-3.42,1.6-3.42,3.95s1.4,3.92,3.42,3.92c1.2,0,2.46-.64,3.08-1.54v-4.79Z"/><path class="cls-3" d="M184.66,58.01v-18.68h7.36c5.85,0,9.91,3.72,9.91,9.35s-4.06,9.32-9.91,9.32h-7.36Zm3.98-3.5h3.39c3.7,0,5.85-2.66,5.85-5.82s-2.02-5.85-5.85-5.85h-3.39v11.68Z"/><path class="cls-3" d="M203.81,51.23c0-3.84,2.69-7.08,7.14-7.08s7.17,3.25,7.17,7.08-2.69,7.11-7.17,7.11-7.14-3.25-7.14-7.11Zm10.61,0c0-2.1-1.26-3.92-3.47-3.92s-3.44,1.82-3.44,3.92,1.23,3.95,3.44,3.95,3.47-1.82,3.47-3.95Z"/><path class="cls-3" d="M227.05,44.15c2.77,0,4.45,1.2,5.35,2.46l-2.32,2.16c-.64-.92-1.62-1.46-2.86-1.46-2.16,0-3.67,1.57-3.67,3.92s1.51,3.95,3.67,3.95c1.23,0,2.21-.56,2.86-1.46l2.32,2.16c-.9,1.26-2.58,2.46-5.35,2.46-4.17,0-7.17-2.94-7.17-7.11s3-7.08,7.17-7.08Z"/><path class="cls-3" d="M243.85,58.01v-1.71c-.92,1.04-2.55,2.04-4.76,2.04-2.97,0-4.37-1.62-4.37-4.26v-9.6h3.56v8.2c0,1.88,.98,2.49,2.49,2.49,1.37,0,2.46-.76,3.08-1.54v-9.16h3.56v13.52h-3.56Z"/><path class="cls-3" d="M267.71,58.01v-8.54c0-1.26-.56-2.16-2.02-2.16-1.26,0-2.3,.84-2.8,1.57v9.13h-3.58v-8.54c0-1.26-.56-2.16-2.02-2.16-1.23,0-2.27,.84-2.8,1.6v9.1h-3.56v-13.52h3.56v1.76c.56-.81,2.35-2.1,4.42-2.1s3.25,.92,3.75,2.46c.78-1.23,2.58-2.46,4.65-2.46,2.49,0,3.98,1.32,3.98,4.09v9.77h-3.58Z"/><path class="cls-3" d="M280.92,44.15c4.03,0,6.78,3.02,6.78,7.45v.78h-10.05c.22,1.71,1.6,3.14,3.89,3.14,1.26,0,2.74-.5,3.61-1.34l1.57,2.3c-1.37,1.26-3.47,1.88-5.57,1.88-4.12,0-7.22-2.77-7.22-7.11,0-3.92,2.88-7.08,7-7.08Zm-3.33,5.82h6.66c-.08-1.29-.98-3-3.33-3-2.21,0-3.16,1.65-3.33,3Z"/><path class="cls-3" d="M299.4,58.01v-8.18c0-1.88-.98-2.52-2.49-2.52-1.4,0-2.49,.78-3.08,1.6v9.1h-3.56v-13.52h3.56v1.76c.87-1.04,2.52-2.1,4.73-2.1,2.97,0,4.4,1.68,4.4,4.31v9.55h-3.56Z"/><path class="cls-3" d="M307.19,54.65v-7.06h-2.24v-3.11h2.24v-3.7h3.58v3.7h2.74v3.11h-2.74v6.1c0,.84,.45,1.48,1.23,1.48,.53,0,1.04-.2,1.23-.39l.76,2.69c-.53,.48-1.48,.87-2.97,.87-2.49,0-3.84-1.29-3.84-3.7Z"/><path class="cls-3" d="M324.07,58.01v-1.4c-.92,1.09-2.52,1.74-4.28,1.74-2.16,0-4.7-1.46-4.7-4.48s2.55-4.31,4.7-4.31c1.79,0,3.39,.56,4.28,1.65v-1.88c0-1.37-1.18-2.27-2.97-2.27-1.46,0-2.8,.53-3.95,1.6l-1.34-2.38c1.65-1.46,3.78-2.13,5.91-2.13,3.08,0,5.91,1.23,5.91,5.12v8.74h-3.56Zm0-4.93c-.59-.78-1.71-1.18-2.86-1.18-1.4,0-2.55,.76-2.55,2.04s1.15,1.99,2.55,1.99c1.15,0,2.27-.39,2.86-1.18v-1.68Z"/><path class="cls-3" d="M331.85,54.65v-7.06h-2.24v-3.11h2.24v-3.7h3.58v3.7h2.74v3.11h-2.74v6.1c0,.84,.45,1.48,1.23,1.48,.53,0,1.04-.2,1.23-.39l.76,2.69c-.53,.48-1.48,.87-2.97,.87-2.49,0-3.84-1.29-3.84-3.7Z"/><path class="cls-3" d="M340.25,40.37c0-1.18,.98-2.13,2.13-2.13s2.13,.95,2.13,2.13-.95,2.13-2.13,2.13-2.13-.95-2.13-2.13Zm.36,17.64v-13.52h3.56v13.52h-3.56Z"/><path class="cls-3" d="M346.83,51.23c0-3.84,2.69-7.08,7.14-7.08s7.17,3.25,7.17,7.08-2.69,7.11-7.17,7.11-7.14-3.25-7.14-7.11Zm10.61,0c0-2.1-1.26-3.92-3.47-3.92s-3.44,1.82-3.44,3.92,1.23,3.95,3.44,3.95,3.47-1.82,3.47-3.95Z"/><path class="cls-3" d="M372.9,58.01v-8.18c0-1.88-.98-2.52-2.49-2.52-1.4,0-2.49,.78-3.08,1.6v9.1h-3.56v-13.52h3.56v1.76c.87-1.04,2.52-2.1,4.73-2.1,2.97,0,4.4,1.68,4.4,4.31v9.55h-3.56Z"/></g><path class="cls-2" d="M1092.04,48.47l-9.83,9.83,9.83,9.83c1.05,1.05,1.05,2.74,0,3.79-.52,.52-1.21,.79-1.9,.79s-1.37-.26-1.9-.79l-9.83-9.83-9.83,9.83c-.52,.52-1.21,.79-1.9,.79s-1.37-.26-1.9-.79c-1.05-1.05-1.05-2.74,0-3.79l9.83-9.83-9.83-9.83c-1.05-1.05-1.05-2.74,0-3.79,1.05-1.05,2.74-1.05,3.79,0l9.83,9.83,9.83-9.83c1.05-1.05,2.74-1.05,3.79,0,1.05,1.05,1.05,2.74,0,3.79Zm10.71-14.23c-6.48-6.48-15.1-10.05-24.26-10.05s-17.78,3.57-24.26,10.05c-6.48,6.48-10.05,15.1-10.05,24.26s3.57,17.78,10.05,24.26c6.48,6.48,15.1,10.05,24.26,10.05,6.27,0,12.41-1.71,17.75-4.95,1.27-.77,1.67-2.42,.9-3.68-.77-1.27-2.42-1.67-3.68-.9-4.5,2.73-9.68,4.17-14.98,4.17-15.96,0-28.95-12.99-28.95-28.95s12.99-28.95,28.95-28.95,28.95,12.99,28.95,28.95c0,5.71-1.7,11.26-4.91,16.07-.82,1.23-.49,2.9,.74,3.72,1.23,.82,2.9,.49,3.72-.74,3.8-5.69,5.81-12.28,5.81-19.05,0-9.16-3.57-17.78-10.05-24.26Z"/></g></svg>