<?xml version="1.0" encoding="UTF-8"?><svg id="Capa_2" xmlns="http://www.w3.org/2000/svg" viewBox="0 0 1161.37 732.6"><defs><style>.cls-1{fill:#d8d8d8;}.cls-2{fill:#2061a8;}.cls-3{fill:#5c5c61;}</style></defs><g id="Capa_1-2"><rect class="cls-1" width="1161.37" height="732.6" rx="70.67" ry="70.67"/><path class="cls-2" d="M1092.04,48.47l-9.83,9.83,9.83,9.83c1.05,1.05,1.05,2.74,0,3.79-.52,.52-1.21,.79-1.9,.79s-1.37-.26-1.9-.79l-9.83-9.83-9.83,9.83c-.52,.52-1.21,.79-1.9,.79s-1.37-.26-1.9-.79c-1.05-1.05-1.05-2.74,0-3.79l9.83-9.83-9.83-9.83c-1.05-1.05-1.05-2.74,0-3.79,1.05-1.05,2.74-1.05,3.79,0l9.83,9.83,9.83-9.83c1.05-1.05,2.74-1.05,3.79,0,1.05,1.05,1.05,2.74,0,3.79Zm10.71-14.23c-6.48-6.48-15.1-10.05-24.26-10.05s-17.78,3.57-24.26,10.05c-6.48,6.48-10.05,15.1-10.05,24.26s3.57,17.78,10.05,24.26c6.48,6.48,15.1,10.05,24.26,10.05,6.27,0,12.41-1.71,17.75-4.95,1.27-.77,1.67-2.42,.9-3.68-.77-1.27-2.42-1.67-3.68-.9-4.5,2.73-9.68,4.17-14.98,4.17-15.96,0-28.95-12.99-28.95-28.95s12.99-28.95,28.95-28.95,28.95,12.99,28.95,28.95c0,5.71-1.7,11.26-4.91,16.07-.82,1.23-.49,2.9,.74,3.72,1.23,.82,2.9,.49,3.72-.74,3.8-5.69,5.81-12.28,5.81-19.05,0-9.16-3.57-17.78-10.05-24.26Z"/><g><path class="cls-3" d="M89.79,44.03c3.86,0,6.3,1.88,7.73,4.09l-3.3,1.79c-.87-1.32-2.46-2.35-4.42-2.35-3.39,0-5.85,2.6-5.85,6.13s2.46,6.13,5.85,6.13c1.71,0,3.22-.7,4.03-1.43v-2.27h-4.98v-3.42h8.9v7.14c-1.9,2.13-4.56,3.53-7.95,3.53-5.46,0-9.94-3.81-9.94-9.69s4.48-9.66,9.94-9.66Z"/><path class="cls-3" d="M100.83,63.01v-18.68h3.55v18.68h-3.55Z"/><path class="cls-3" d="M107.04,56.23c0-3.84,2.69-7.08,7.14-7.08s7.17,3.25,7.17,7.08-2.69,7.11-7.17,7.11-7.14-3.25-7.14-7.11Zm10.61,0c0-2.1-1.26-3.92-3.47-3.92s-3.44,1.82-3.44,3.92,1.23,3.95,3.44,3.95,3.47-1.82,3.47-3.95Z"/><path class="cls-3" d="M124.34,58.75c.98,.92,3,1.85,4.68,1.85,1.54,0,2.27-.53,2.27-1.37,0-.95-1.18-1.29-2.72-1.6-2.32-.45-5.32-1.01-5.32-4.23,0-2.27,1.99-4.26,5.54-4.26,2.3,0,4.12,.78,5.43,1.85l-1.4,2.44c-.81-.87-2.35-1.57-4-1.57-1.29,0-2.13,.48-2.13,1.26,0,.84,1.06,1.15,2.58,1.46,2.32,.45,5.43,1.06,5.43,4.42,0,2.49-2.1,4.34-5.85,4.34-2.35,0-4.62-.78-6.05-2.1l1.54-2.49Z"/><path class="cls-3" d="M137.7,58.75c.98,.92,3,1.85,4.68,1.85,1.54,0,2.27-.53,2.27-1.37,0-.95-1.18-1.29-2.71-1.6-2.32-.45-5.32-1.01-5.32-4.23,0-2.27,1.99-4.26,5.54-4.26,2.3,0,4.12,.78,5.43,1.85l-1.4,2.44c-.81-.87-2.35-1.57-4-1.57-1.29,0-2.13,.48-2.13,1.26,0,.84,1.06,1.15,2.58,1.46,2.32,.45,5.43,1.06,5.43,4.42,0,2.49-2.1,4.34-5.85,4.34-2.35,0-4.62-.78-6.05-2.1l1.54-2.49Z"/><path class="cls-3" d="M158.81,63.01v-1.4c-.92,1.09-2.52,1.74-4.28,1.74-2.16,0-4.71-1.46-4.71-4.48s2.55-4.31,4.71-4.31c1.79,0,3.39,.56,4.28,1.65v-1.88c0-1.37-1.18-2.27-2.97-2.27-1.46,0-2.8,.53-3.95,1.6l-1.34-2.38c1.65-1.46,3.78-2.13,5.91-2.13,3.08,0,5.91,1.23,5.91,5.12v8.74h-3.56Zm0-4.93c-.59-.78-1.71-1.18-2.86-1.18-1.4,0-2.55,.76-2.55,2.04s1.15,1.99,2.55,1.99c1.15,0,2.27-.39,2.86-1.18v-1.68Z"/><path class="cls-3" d="M165.9,63.01v-13.52h3.56v1.85c.95-1.2,2.63-2.16,4.31-2.16v3.47c-.25-.06-.59-.08-.98-.08-1.18,0-2.74,.64-3.33,1.51v8.93h-3.56Z"/><path class="cls-3" d="M176.03,65.11c.31,.14,.78,.22,1.12,.22,.92,0,1.54-.25,1.88-.98l.5-1.15-5.49-13.72h3.81l3.53,9.41,3.53-9.41h3.84l-6.36,15.74c-1.01,2.55-2.8,3.22-5.12,3.28-.42,0-1.32-.08-1.76-.2l.53-3.19Z"/></g></g></svg>