<?xml version="1.0" encoding="UTF-8"?><svg id="Capa_2" xmlns="http://www.w3.org/2000/svg" viewBox="0 0 17.22 85.19"><defs><style>.cls-1{fill:#f4982f;}.cls-2{fill:#fff;}</style></defs><g id="Capa_1-2"><g><path class="cls-1" d="M-22.13,33.98H39.36c6.54,0,11.85,5.31,11.85,11.85v5.38H-33.98v-5.38c0-6.54,5.31-11.85,11.85-11.85Z" transform="translate(51.21 33.98) rotate(90)"/><g><polygon class="cls-2" points="8.49 43.74 4.94 50.47 1.54 50.47 2.63 48.4 5.09 43.74 2.72 39.26 1.54 37.02 4.94 37.02 4.95 37.03 8.49 43.74"/><polygon class="cls-2" points="13.44 43.74 9.9 50.47 6.5 50.47 6.5 50.45 6.55 50.37 10.04 43.74 6.5 37.02 9.9 37.02 13.39 43.64 13.44 43.74"/></g></g></g></svg>