<?xml version="1.0" encoding="UTF-8"?><svg id="Capa_2" xmlns="http://www.w3.org/2000/svg" viewBox="0 0 120 120"><defs><style>.cls-1{fill:#fff;}.cls-2{fill:#1a5f9e;}</style></defs><g id="Capa_1-2"><g><path class="cls-2" d="M120,60c0,6.57-1.06,12.9-3.01,18.81-.22,.65-.44,1.3-.68,1.95-5.73,15.53-17.7,28.04-32.87,34.48-.52,.22-1.05,.44-1.57,.64-6.78,2.65-14.15,4.11-21.87,4.11C26.86,120,0,93.14,0,60S26.86,0,60,0s60,26.86,60,60Z"/><path class="cls-1" d="M114.75,60c0,6-.96,11.77-2.75,17.17-5.11,15.49-16.95,27.92-32.05,33.83-6.18,2.42-12.91,3.75-19.96,3.75-30.24,0-54.75-24.51-54.75-54.75S29.76,5.25,60,5.25s54.75,24.51,54.75,54.75Z"/><g><polygon class="cls-1" points="59.7 50.32 59.13 50.75 60.13 50.75 59.7 50.32"/><polygon class="cls-1" points="77.15 41.6 74.61 39.06 74.61 39.06 77.15 41.6"/><path class="cls-1" d="M116.31,80.76c-5.73,15.53-17.7,28.04-32.87,34.48l-47.51-46.98h0c1.25,.63,2.66,.98,4.15,.98h20.05l-3.58,3.58c-1.75,1.75-2.71,4.07-2.71,6.54s.96,4.79,2.71,6.54c1.75,1.75,4.07,2.71,6.54,2.71s4.79-.96,6.54-2.71l15.03-15.03c2.9-2.9,4.5-6.76,4.51-10.87v-.03c0-4.1-1.6-7.96-4.51-10.86l31.64,31.64Z"/></g><g><path class="cls-2" d="M36.49,69.75l-9.84-13.86v13.86h-4.39v-20.64h4.52l9.56,13.37v-13.37h4.39v20.64h-4.24Z"/><path class="cls-2" d="M44.82,69.75v-20.64h14.61v3.78h-10.21v4.49h10v3.77h-10v4.8h10.21v3.81h-14.61Z"/><path class="cls-2" d="M76.32,69.75l-5.17-7.55-5.2,7.55h-5.23l7.49-10.58-7.02-10.06h5.23l4.73,7.06,4.67-7.06h5.29l-7.02,10.03,7.49,10.61h-5.26Z"/><path class="cls-2" d="M88.3,69.75v-16.77h-6.03v-3.87h16.46v3.87h-6v16.77h-4.42Z"/></g></g></g></svg>