<?xml version="1.0" encoding="UTF-8"?><svg id="Capa_2" xmlns="http://www.w3.org/2000/svg" viewBox="0 0 183.66 13.8"><defs><style>.cls-1{fill:#fff;}</style></defs><g id="Capa_1-2"><g><path class="cls-1" d="M7.4,0c2.34,0,4.22,1.02,5.24,2.86l-1.1,.5c-.92-1.66-2.5-2.32-4.22-2.32C4.28,1.04,1.24,3.72,1.24,7.98c0,2.86,1.86,4.78,4.82,4.78,1.3,0,2.58-.48,3.76-1.52l.82,.68c-1.36,1.3-3.04,1.88-4.64,1.88-3.5,0-6-2.3-6-5.78C0,3.16,3.66,0,7.4,0Z"/><path class="cls-1" d="M12.64,13.56L15.58,.22h1.04l-2.94,13.34h-1.04Z"/><path class="cls-1" d="M16.92,13.56l2.14-9.66h1.04l-2.14,9.66h-1.04ZM20.18,.66c.42,0,.74,.32,.74,.7,0,.56-.5,.9-.9,.9s-.74-.32-.74-.7c0-.56,.5-.9,.9-.9Z"/><path class="cls-1" d="M26.94,3.66c1.66,0,2.8,.64,3.46,1.76l-.8,.6c-.56-.98-1.56-1.42-2.62-1.42-2.66,0-4.3,2.4-4.3,4.94,0,2.2,1.42,3.32,3.3,3.32,1.08,0,2-.5,2.62-1.24l.6,.72c-.84,.88-1.86,1.46-3.32,1.46-2.48,0-4.3-1.54-4.3-4.28,0-3.18,2.34-5.86,5.36-5.86Z"/><path class="cls-1" d="M37.9,13.56l-2.9-4.66-2.24,1.76-.64,2.9h-1.04L34.02,.22h1.04l-2.02,9.12,6.84-5.44h1.46l-5.48,4.36,3.32,5.3h-1.28Z"/><path class="cls-1" d="M52.88,13.56l1.44-6.56c.04-.18,.12-.46,.12-.7,0-1.2-.92-1.7-2.1-1.7-1.26,0-2.5,.82-3.34,1.68l-1.6,7.28h-1.04l2.14-9.66h1.04l-.32,1.46c.86-.84,2.12-1.7,3.48-1.7,1.64,0,2.82,.78,2.82,2.36,0,.18-.06,.6-.12,.82l-1.48,6.72h-1.04Z"/><path class="cls-1" d="M62.9,3.66c2.58,0,4.1,1.82,4.1,4.18,0,.42-.1,.98-.16,1.22h-8.16c-.02,.12-.04,.38-.04,.56,0,1.78,1.18,3.28,3.54,3.28,.98,0,2.08-.34,2.92-1.04l.4,.76c-.86,.66-2.1,1.18-3.36,1.18-2.9,0-4.6-1.74-4.6-4.26,0-3.22,2.36-5.88,5.36-5.88Zm3.08,4.58c.02-.1,.02-.32,.02-.44,0-1.88-1.14-3.24-3.22-3.24-1.94,0-3.66,1.7-4,3.68h7.2Z"/><path class="cls-1" d="M74.42,13.56l-2.26-4.26-4.14,4.26h-1.32l4.9-4.96-2.54-4.7h1.18l2.1,3.98,3.86-3.98h1.32l-4.66,4.7,2.74,4.96h-1.18Z"/><path class="cls-1" d="M78.18,11.66l1.52-6.84h-1.6l.2-.92h1.6l.58-2.64h1.06l-.58,2.64h1.96l-.22,.92h-1.96l-1.48,6.7c-.02,.1-.04,.24-.04,.42,0,.58,.34,.92,.98,.92,.38,0,.78-.18,1.02-.36l.2,.84c-.36,.28-.82,.46-1.38,.46-1.2,0-1.92-.5-1.92-1.62,0-.08,.02-.32,.06-.52Z"/><path class="cls-1" d="M88.86,11.66l1.52-6.84h-1.6l.2-.92h1.6l.58-2.64h1.06l-.58,2.64h1.96l-.22,.92h-1.96l-1.48,6.7c-.02,.1-.04,.24-.04,.42,0,.58,.34,.92,.98,.92,.38,0,.78-.18,1.02-.36l.2,.84c-.36,.28-.82,.46-1.38,.46-1.2,0-1.92-.5-1.92-1.62,0-.08,.02-.32,.06-.52Z"/><path class="cls-1" d="M99.42,3.66c2.6,0,4.26,1.68,4.26,4.24,0,3.06-2.26,5.9-5.32,5.9-2.6,0-4.26-1.68-4.26-4.24,0-3.06,2.26-5.9,5.32-5.9Zm-.02,.94c-2.42,0-4.16,2.42-4.16,4.92,0,2.02,1.16,3.34,3.14,3.34,2.42,0,4.16-2.42,4.16-4.92,0-2.02-1.16-3.34-3.14-3.34Z"/><path class="cls-1" d="M116.08,3.66c1.66,0,2.8,.64,3.46,1.76l-.8,.6c-.56-.98-1.56-1.42-2.62-1.42-2.66,0-4.3,2.4-4.3,4.94,0,2.2,1.42,3.32,3.3,3.32,1.08,0,2-.5,2.62-1.24l.6,.72c-.84,.88-1.86,1.46-3.32,1.46-2.48,0-4.3-1.54-4.3-4.28,0-3.18,2.34-5.86,5.36-5.86Z"/><path class="cls-1" d="M125.9,3.66c2.6,0,4.26,1.68,4.26,4.24,0,3.06-2.26,5.9-5.32,5.9-2.6,0-4.26-1.68-4.26-4.24,0-3.06,2.26-5.9,5.32-5.9Zm-.02,.94c-2.42,0-4.16,2.42-4.16,4.92,0,2.02,1.16,3.34,3.14,3.34,2.42,0,4.16-2.42,4.16-4.92,0-2.02-1.16-3.34-3.14-3.34Z"/><path class="cls-1" d="M138.16,13.56l1.44-6.56c.04-.18,.12-.46,.12-.7,0-1.2-.92-1.7-2.1-1.7-1.26,0-2.5,.82-3.34,1.68l-1.6,7.28h-1.04l2.14-9.66h1.04l-.32,1.46c.86-.84,2.12-1.7,3.48-1.7,1.64,0,2.82,.78,2.82,2.36,0,.18-.06,.6-.12,.82l-1.48,6.72h-1.04Z"/><path class="cls-1" d="M143.06,11.66l1.52-6.84h-1.6l.2-.92h1.6l.58-2.64h1.06l-.58,2.64h1.96l-.22,.92h-1.96l-1.48,6.7c-.02,.1-.04,.24-.04,.42,0,.58,.34,.92,.98,.92,.38,0,.78-.18,1.02-.36l.2,.84c-.36,.28-.82,.46-1.38,.46-1.2,0-1.92-.5-1.92-1.62,0-.08,.02-.32,.06-.52Z"/><path class="cls-1" d="M147.94,13.56l2.14-9.66h1.04l-2.14,9.66h-1.04Zm3.26-12.9c.42,0,.74,.32,.74,.7,0,.56-.5,.9-.9,.9s-.74-.32-.74-.7c0-.56,.5-.9,.9-.9Z"/><path class="cls-1" d="M158.74,13.56l1.44-6.56c.04-.18,.12-.46,.12-.7,0-1.2-.92-1.7-2.1-1.7-1.26,0-2.5,.82-3.34,1.68l-1.6,7.28h-1.04l2.14-9.66h1.04l-.32,1.46c.86-.84,2.12-1.7,3.48-1.7,1.64,0,2.82,.78,2.82,2.36,0,.18-.06,.6-.12,.82l-1.48,6.72h-1.04Z"/><path class="cls-1" d="M166.2,3.9l-1.44,6.54c-.04,.2-.12,.5-.12,.72,0,1.2,.92,1.7,2.14,1.7s2.46-.84,3.28-1.7l1.62-7.26h1.04l-2.14,9.66h-1.04l.32-1.46c-.86,.84-2.12,1.7-3.48,1.7-1.64,0-2.82-.78-2.82-2.36,0-.2,.06-.6,.12-.82l1.48-6.72h1.04Z"/><path class="cls-1" d="M179.56,3.66c2.58,0,4.1,1.82,4.1,4.18,0,.42-.1,.98-.16,1.22h-8.16c-.02,.12-.04,.38-.04,.56,0,1.78,1.18,3.28,3.54,3.28,.98,0,2.08-.34,2.92-1.04l.4,.76c-.86,.66-2.1,1.18-3.36,1.18-2.9,0-4.6-1.74-4.6-4.26,0-3.22,2.36-5.88,5.36-5.88Zm3.08,4.58c.02-.1,.02-.32,.02-.44,0-1.88-1.14-3.24-3.22-3.24-1.94,0-3.66,1.7-4,3.68h7.2Z"/></g></g></svg>