<?xml version="1.0" encoding="utf-8"?>
<!-- Generator: Adobe Illustrator 23.0.6, SVG Export Plug-In . SVG Version: 6.00 Build 0)  -->
<svg version="1.1" id="Capa_1" xmlns="http://www.w3.org/2000/svg" xmlns:xlink="http://www.w3.org/1999/xlink" x="0px" y="0px"
	 viewBox="0 0 178.3 50.6" style="enable-background:new 0 0 178.3 50.6;" xml:space="preserve">
<style type="text/css">
	.st0{display:none;}
	.st1{display:inline;fill:#1A2D48;}
	.st2{display:inline;fill:#345AA1;}
	.st3{display:inline;}
	.st4{fill:#FFFFFF;}
	.st5{fill:#3B3A69;}
	.st6{fill:none;stroke:#FFFFFF;stroke-width:2.6781;stroke-miterlimit:10;}
	.st7{font-family:'Futura-Bold';}
	.st8{font-size:21.553px;}
</style>
<title>Recurso 4</title>
<g class="st0">
	<path class="st1" d="M160.2,46.4H20.7C13.1,46.4,7,40.3,7,32.7V21.6C7,14,13.1,7.8,20.7,7.8h139.5c7.6,0,13.8,6.2,13.8,13.8v11.1
		C174,40.3,167.8,46.4,160.2,46.4z"/>
	<path class="st2" d="M155.9,43.8H16.4C8.8,43.8,2.6,37.6,2.6,30V19c0-7.6,6.2-13.8,13.8-13.8h139.5c7.6,0,13.8,6.2,13.8,13.8v11.1
		C169.7,37.7,163.5,43.8,155.9,43.8z"/>
	<g class="st3">
		<path class="st4" d="M71.6,29.9h-6.8v-2.1h1.9v-7.5h-1.9v-2.1h6.8v2.1h-1.9v7.5h1.9V29.9z"/>
		<path class="st4" d="M82.2,29.9h-9.8v-2.2l5.8-7.2h-5.5v-2.3h9.2v2.2l-5.8,7.2h6.1C82.2,27.6,82.2,29.9,82.2,29.9z"/>
		<path class="st4" d="M94.2,29.9h-3.1l-0.8-2.4H86l-0.8,2.4h-3l4.3-11.7H90L94.2,29.9z M89.5,25.4l-1.4-4.2l-1.4,4.2
			C86.7,25.4,89.5,25.4,89.5,25.4z"/>
		<path class="st4" d="M101,26.5c0,0.5-0.1,1-0.3,1.4c-0.2,0.4-0.5,0.8-0.8,1.1c-0.4,0.3-0.8,0.6-1.4,0.8c-0.5,0.2-1.2,0.3-2,0.3
			c-0.5,0-1,0-1.5-0.1c-0.5,0-0.9-0.1-1.3-0.2v-2.4H94c0.3,0.1,0.5,0.2,0.8,0.3s0.6,0.1,1,0.1c0.5,0,1-0.1,1.3-0.2s0.5-0.3,0.6-0.6
			c0.1-0.3,0.2-0.5,0.2-0.8s0-0.7,0-1.2v-4.6h-2.7v-2.1h5.7v8.2H101z"/>
		<path class="st4" d="M111.4,29.9H103V18.2h8.4v2.3H106v2h5v2.3h-5v2.9h5.4V29.9z"/>
	</g>
</g>
<g>
	
		<image style="overflow:visible;opacity:0.75;" width="176" height="65" xlink:href="AD76E127D0C5767A.png"  transform="matrix(1 0 0 1 5.9573 -3.4427)">
	</image>
	<g>
		<path class="st5" d="M157.6,44.8H21.4c-4.4,0-8-3.6-8-8V12.2c0-4.4,3.6-8,8-8h136.3c4.4,0,8,3.6,8,8v24.5
			C165.7,41.2,162.1,44.8,157.6,44.8z"/>
		<path class="st6" d="M157.6,44.8H21.4c-4.4,0-8-3.6-8-8V12.2c0-4.4,3.6-8,8-8h136.3c4.4,0,8,3.6,8,8v24.5
			C165.7,41.2,162.1,44.8,157.6,44.8z"/>
	</g>
</g>
<text transform="matrix(1 0 0 1 39.4038 32.7656)" class="st4 st7 st8">LANZAR</text>
</svg>
