<?xml version="1.0" encoding="utf-8"?>
<!-- Generator: Adobe Illustrator 23.0.6, SVG Export Plug-In . SVG Version: 6.00 Build 0)  -->
<svg version="1.1" id="Capa_1" xmlns="http://www.w3.org/2000/svg" xmlns:xlink="http://www.w3.org/1999/xlink" x="0px" y="0px"
	 viewBox="0 0 118.9 30.2" style="enable-background:new 0 0 118.9 30.2;" xml:space="preserve">
<style type="text/css">
	.st0{display:none;}
	.st1{display:inline;fill:#646D1F;}
	.st2{display:inline;fill:#B4C751;}
	.st3{display:inline;}
	.st4{fill:#42442D;}
	.st5{fill:#3B3A69;}
	.st6{fill:none;stroke:#FFFFFF;stroke-width:1.6451;stroke-miterlimit:10;}
	.st7{fill:#FFFFFF;}
	.st8{font-family:'Futura-Bold';}
	.st9{font-size:13.24px;}
</style>
<title>Recurso 5</title>
<g class="st0">
	<path class="st1" d="M102.2,28.2h-84c-7,0-12.6-5.7-12.6-12.6l0,0C5.6,8.6,11.3,3,18.2,3h84c7,0,12.6,5.7,12.6,12.6l0,0
		C114.8,22.5,109.1,28.2,102.2,28.2z"/>
	<path class="st2" d="M99.3,26.5h-84c-7,0-12.6-5.7-12.6-12.6l0,0c0-7,5.7-12.6,12.6-12.6h84c7,0,12.6,5.7,12.6,12.6l0,0
		C111.9,20.8,106.3,26.5,99.3,26.5z"/>
	<g class="st3">
		<path class="st4" d="M29.2,17.5c-0.6,0-1.1-0.1-1.6-0.3c-0.5-0.2-0.9-0.4-1.2-0.7c-0.3-0.3-0.6-0.7-0.8-1.2
			c-0.2-0.5-0.3-1.1-0.3-1.7c0-0.6,0.1-1.2,0.3-1.6c0.2-0.5,0.4-0.9,0.8-1.3c0.3-0.3,0.7-0.6,1.2-0.8s1-0.3,1.6-0.3
			c0.3,0,0.6,0,0.9,0.1c0.3,0,0.5,0.1,0.7,0.1c0.2,0.1,0.4,0.1,0.6,0.2c0.2,0.1,0.3,0.2,0.5,0.2V12h-0.2c-0.1-0.1-0.2-0.2-0.4-0.3
			c-0.1-0.1-0.3-0.2-0.5-0.3s-0.4-0.2-0.6-0.3S29.7,11,29.5,11c-0.3,0-0.5,0-0.8,0.1c-0.2,0.1-0.5,0.2-0.7,0.4s-0.4,0.5-0.5,0.8
			s-0.2,0.7-0.2,1.2s0.1,0.9,0.2,1.2s0.3,0.6,0.5,0.8s0.4,0.3,0.7,0.4C29,16,29.2,16,29.5,16c0.2,0,0.5,0,0.7-0.1s0.4-0.2,0.6-0.3
			s0.3-0.2,0.5-0.3c0.1-0.1,0.3-0.2,0.4-0.3h0.2v1.8c-0.2,0.1-0.4,0.2-0.5,0.2c-0.2,0.1-0.4,0.1-0.5,0.2c-0.2,0.1-0.5,0.1-0.7,0.2
			C29.8,17.5,29.5,17.5,29.2,17.5z"/>
		<path class="st4" d="M40.1,13.6c0,1.2-0.3,2.2-1,2.9c-0.7,0.7-1.7,1.1-2.9,1.1s-2.2-0.4-2.9-1.1c-0.7-0.7-1-1.7-1-2.9
			s0.3-2.2,1-2.9C34,9.9,35,9.6,36.2,9.6s2.2,0.4,2.9,1.1C39.8,11.4,40.1,12.3,40.1,13.6z M37.5,15.5c0.2-0.2,0.3-0.5,0.4-0.8
			C38,14.4,38,14,38,13.6c0-0.5-0.1-0.8-0.2-1.2c-0.1-0.3-0.2-0.6-0.4-0.8s-0.4-0.4-0.6-0.4S36.5,11,36.2,11c-0.2,0-0.5,0-0.7,0.1
			s-0.4,0.2-0.6,0.4c-0.2,0.2-0.3,0.5-0.4,0.8c-0.1,0.3-0.2,0.7-0.2,1.2s0.1,0.8,0.2,1.2s0.2,0.6,0.4,0.8s0.4,0.3,0.6,0.4
			C35.7,16,36,16,36.2,16c0.3,0,0.5,0,0.7-0.1C37.2,15.8,37.4,15.7,37.5,15.5z"/>
		<path class="st4" d="M48,17.4h-1.9l-3.2-5.2v5.2h-1.8V9.7h2.4l2.8,4.4V9.7H48V17.4z"/>
		<path class="st4" d="M55.3,11.2H53v6.2h-2v-6.2h-2.4V9.7h6.7V11.2z"/>
		<path class="st4" d="M60.1,17.4h-4.5V16h1.2v-4.9h-1.2V9.7h4.5v1.4h-1.2V16h1.2V17.4z"/>
		<path class="st4" d="M68,17.4h-1.9l-3.2-5.2v5.2h-1.8V9.7h2.4l2.8,4.4V9.7H68V17.4z"/>
		<path class="st4" d="M76.1,14.6c0,0.9-0.3,1.7-0.9,2.2s-1.4,0.8-2.5,0.8s-2-0.3-2.5-0.8c-0.6-0.5-0.9-1.2-0.9-2.2V9.7h2v4.8
			c0,0.5,0.1,0.9,0.3,1.2c0.2,0.3,0.6,0.4,1.1,0.4s0.9-0.1,1.1-0.4c0.2-0.2,0.3-0.6,0.3-1.2V9.7h2V14.6z"/>
		<path class="st4" d="M84.4,17.4h-2l-0.5-1.5H79l-0.5,1.5h-2l2.8-7.6h2.3L84.4,17.4z M81.3,14.4l-0.9-2.7l-0.9,2.7H81.3z"/>
		<path class="st4" d="M92.2,17.4h-2.4l-2.1-2.8h-0.9v2.8h-2V9.7h3.3c0.5,0,0.8,0,1.2,0.1s0.6,0.2,0.9,0.3c0.3,0.2,0.5,0.4,0.7,0.7
			s0.3,0.6,0.3,1c0,0.6-0.1,1-0.4,1.4s-0.6,0.7-1.1,0.9L92.2,17.4z M89.2,12.1c0-0.2,0-0.4-0.1-0.5s-0.2-0.2-0.4-0.3
			c-0.1-0.1-0.3-0.1-0.5-0.1s-0.4,0-0.6,0h-0.7v2.1h0.6c0.3,0,0.6,0,0.8,0s0.4-0.1,0.5-0.2c0.1-0.1,0.2-0.2,0.3-0.4
			S89.2,12.3,89.2,12.1z"/>
	</g>
</g>
<g>
	<g>
		
			<image style="overflow:visible;opacity:0.75;enable-background:new    ;" width="110" height="41" xlink:href="BF9DE1235DBF7987.png"  transform="matrix(0.9891 0 0 0.9891 7.7746 -2.7061)">
		</image>
		<g>
			<path class="st5" d="M101,26.7H17.2c-2.7,0-4.9-2.2-4.9-4.9V6.7c0-2.7,2.2-4.9,4.9-4.9H101c2.7,0,4.9,2.2,4.9,4.9v15.1
				C105.9,24.5,103.7,26.7,101,26.7z"/>
			<path class="st6" d="M101,26.7H17.2c-2.7,0-4.9-2.2-4.9-4.9V6.7c0-2.7,2.2-4.9,4.9-4.9H101c2.7,0,4.9,2.2,4.9,4.9v15.1
				C105.9,24.5,103.7,26.7,101,26.7z"/>
		</g>
	</g>
	<text transform="matrix(1 0 0 1 21.8325 19.328)" class="st7 st8 st9">SIGUIENTE</text>
</g>
</svg>
