<?xml version="1.0" encoding="utf-8"?>
<!-- Generator: Adobe Illustrator 23.0.4, SVG Export Plug-In . SVG Version: 6.00 Build 0)  -->
<svg version="1.1" id="Capa_1" xmlns="http://www.w3.org/2000/svg" xmlns:xlink="http://www.w3.org/1999/xlink" x="0px" y="0px"
	 viewBox="0 0 636.1 412.2" style="enable-background:new 0 0 636.1 412.2;" xml:space="preserve">
<style type="text/css">
	.st0{opacity:0.77;fill:#FFFFFF;enable-background:new    ;}
	.st1{fill:#0C0B0B;}
	.st2{fill:#1A1919;}
	.st3{fill:#1E1E1E;}
	.st4{fill:#0E0E0E;}
	.st5{fill:#544A44;}
	.st6{fill:#322D2A;}
	.st7{fill:#363636;}
	.st8{fill:#1D1D1D;}
	.st9{fill:#34302A;}
	.st10{fill:#282828;}
	.st11{fill:#1D3366;}
	.st12{fill:#F0CA30;}
	.st13{fill:#162845;}
	.st14{fill:#FFFFFF;}
	.st15{fill:#ACACAC;}
	.st16{fill:#D8D8D8;}
	.st17{fill:#C0C7CA;}
	.st18{fill:#F0F0F0;}
	.st19{fill:#B2B2B2;}
	.st20{fill:#D2D2D2;}
	.st21{fill:#9D9D9D;}
	.st22{fill:#D27D57;}
	.st23{fill:#1B3052;}
	.st24{fill:#656565;}
	.st25{fill:#E1B38F;}
	.st26{fill:#F5ECE2;}
	.st27{fill:#E4E6E6;}
	.st28{fill:#0E193D;}
	.st29{fill:#EFCCB1;}
	.st30{fill:#E1B28F;}
	.st31{fill:#ECD2BE;}
	.st32{fill:#F3DCC7;}
	.st33{fill:#C28F67;}
	.st34{fill:#BD845F;}
	.st35{fill:#C38664;}
	.st36{fill:#E0B69F;}
	.st37{fill:#D28D5F;}
	.st38{fill:#333333;}
	.st39{fill:#D79C7A;}
	.st40{fill:#F4D7C3;}
	.st41{fill:#E9CAB0;}
	.st42{fill:#E5BE97;}
	.st43{fill:#C27F58;}
	.st44{fill:#E6BC9E;}
	.st45{fill:#B54C2F;}
	.st46{fill:#E7C9B0;}
	.st47{fill:#E3A97E;}
	.st48{fill:#F3E1D3;}
	.st49{fill:#F0D4BD;}
	.st50{fill:#D4AD8E;}
	.st51{fill:#EFD9C7;}
	.st52{fill:#F5EBDF;}
	.st53{fill:none;stroke:#666666;stroke-linecap:round;stroke-linejoin:round;}
	.st54{fill:#F4E2D3;}
	.st55{fill:#34383C;}
	.st56{fill:#505656;}
	.st57{fill:#4F370D;}
	.st58{fill:#CACACA;}
	.st59{fill:#E3B290;}
	.st60{fill:#81604A;}
	.st61{fill:#E3B390;}
	.st62{fill:#D7AB8E;}
	.st63{fill:#1E1C1D;}
</style>
<g>
	<g id="feliz">
		<path id="_Rectángulo_" class="st0" d="M165.1,9.1h449.4c10.9,0,19.7,8.8,19.7,19.6v256.5c0,10.9-8.8,19.6-19.7,19.6H165.1
			c-10.9,0-19.6-8.8-19.6-19.6V28.7C145.5,17.9,154.3,9.1,165.1,9.1z"/>
		<g>
			<g transform="matrix( 1, 0, 0, 1, 0,0) ">
				<g>
					<g id="Layer8_0_FILL_3_">
						<path class="st1" d="M95.3,389l-0.1-2.1c-1.1,0.2-2,0.5-2.9,0.9L95.3,389z"/>
						<path class="st2" d="M100.9,388.4l0.1-2.4c-2.1,0.2-4,0.5-5.7,0.9l0.1,2.1C97.1,389.3,99,389.1,100.9,388.4 M112.5,389.4
							l0.6,1l5.2,1.6h4.7l7.2-3c0-0.2,0-0.5,0-0.7l-7,2.5h-4.1L112.5,389.4z"/>
						<path class="st3" d="M87.1,385.4c0.5-0.1,1-0.2,1.5-0.3c2.1-0.5,4-1.7,5.8-3.5c-2.7-1.6-5.4-2.9-8.2-4
							c-1.8,1.3-3.2,2.8-4.2,4.5L87.1,385.4 M121.5,379.9h-3.1l-4.4,4c4.5-0.7,9.3-0.7,14.5,0.1
							C126.3,381.9,123.9,380.6,121.5,379.9z"/>
						<path class="st4" d="M88.6,375.9l-2.4,1.6c2.8,1.1,5.5,2.5,8.2,4c2.2,1.3,4.4,2.8,6.6,4.5c0.3-0.4,0.5-0.9,0.6-1.4L88.6,375.9
							 M118.6,379C118.6,379,118.6,379,118.6,379l-6.6,5.7c0.1,0.2,0.3,0.5,0.4,0.7l1.6-1.4l4.4-4h3.1c2.4,0.7,4.8,2,7.1,4.1
							c0.1,0.1,0.3,0.3,0.5,0.4c0.3-0.5,0.4-0.9,0.4-1.5c-0.6-0.8-1.6-1.6-2.7-2.4c-0.6-0.4-1.4-0.8-2.2-1.2
							C122.5,378.6,120.5,378.5,118.6,379z"/>
						<path class="st5" d="M70,384.1c0.8,1.4,2.6,2.3,5.5,2.5c3.7,0.1,7.6-0.3,11.6-1.1L82,382C78.5,383.5,74.5,384.2,70,384.1
							 M112.5,385.3v1.5c1.4,0.6,3.2,1,5.4,1.1h7.6c2.2-0.1,3.6-0.9,4.2-2.4c-0.2-0.4-0.4-0.8-0.6-1.1c-0.2-0.1-0.3-0.3-0.5-0.4
							c-5.2-0.8-10-0.8-14.5-0.1L112.5,385.3z"/>
						<path class="st6" d="M70,384.1c-1.1,1.3-1.1,2.7,0,4.1c1.2,0.8,2.9,1.4,5.1,1.7c3.3,0.5,7.6,0.3,13.1-0.4l4.2-1.7
							c0.9-0.3,1.9-0.6,2.9-0.9c1.7-0.4,3.6-0.7,5.7-0.9c-2.2-1.7-4.4-3.2-6.6-4.5c-1.8,1.9-3.7,3.1-5.8,3.5c-0.5,0.1-1,0.2-1.5,0.3
							c-4,0.8-7.9,1.2-11.6,1.1C72.6,386.3,70.8,385.5,70,384.1z"/>
						<path d="M88.1,323.4c0.5,0.2,0.9,0.5,1.2,0.7c0.4,0.3,0.6,0.7,0.6,1.2c2.2,0.2,4.7,1.9,7.2,5c-0.3-0.7-0.5-1.3-0.8-1.9
							c-1.8-3.5-4.3-5.6-7.6-6.3c-0.9-0.2-1.8-0.3-2.8-0.3c-0.3,0-0.7,0-1,0c0.1,0.2,0.4,0.4,0.7,0.6c0.2,0.1,0.5,0.2,1,0.3
							C86.9,322.9,87.5,323.1,88.1,323.4 M88.9,313.3l-0.8-0.2v5.1l-2.5,0.6v0.8l3.3-0.8V313.3z"/>
						<path class="st7" d="M75.4,315c-0.1,0.1-0.1,0.2-0.2,0.4c-0.5,2.1,2.2,10.8,8,26c0.4,1.1,0.8,2.2,1.3,3.4
							c2.8,7.5,4.7,15.1,5.8,22.8c3.4,0.2,5,1.2,4.9,2.9c-0.6-1.3-2.1-2.1-4.5-2.3c0,0-0.1,0-0.1,0c-0.4,0.1-0.6,0.3-0.5,0.5
							c0,0.1,0.1,0.2,0.2,0.3c2.6,1.2,4.1,2.7,4.6,4.4c-1.5-1.7-3.2-3-5-3.7c-1.1,1.8-1.6,3.9-1.3,6.3l13.1,8.7
							c0.8-2.5,0.2-6.2-1.7-11.2l-2.3-14.7c-0.9-5.3-2.2-9.2-4-11.8c-2.2-7.4-3.4-14.6-3.8-21.7c0-0.5-0.1-0.9-0.6-1.2
							c-0.2-0.2-0.6-0.4-1.2-0.7c-0.6-0.3-1.2-0.5-1.7-0.6c-0.5-0.1-0.8-0.2-1-0.3c-0.3-0.2-0.6-0.4-0.7-0.6c0.4,0,0.7,0,1,0
							c1,0,2,0.1,2.8,0.3c3.3,0.7,5.9,2.8,7.6,6.3c-0.8-3.8-2.2-7.6-4.1-11.3c-1.1-2-2.3-4.1-3.6-6.1l-5.5-9.6h-5.6
							C76.2,306,75.5,310.5,75.4,315 M88.2,313.1l0.8,0.2v5.4l-3.3,0.8v-0.8l2.5-0.6V313.1 M110.9,349.1c0,0.4,0.1,0.7,0.3,1.1
							c0.1,0.3,0.3,0.6,0.5,0.9c0,0,0,0.1,0.1,0.1c0.2,0.3,0.5,0.6,0.8,0.9c0,0,0,0,0,0c2.5,5.8,4,11.9,4.2,18.3
							c0.2,0.1,0.6,0.2,1,0.3c0.6,0.1,0.9,0.2,1,0.2c0.2,0.1,0.3,0.2,0.3,0.2c0,0.1-0.1,0.1-0.2,0.1c-0.2,0-0.4,0.1-0.5,0.1
							c-0.1,0-0.1,0-0.2,0.1c-0.1,0-0.1,0.1-0.1,0.1c-0.1,0.2-0.1,0.3-0.1,0.4c0.1,0.5,0.4,1.1,1,1.7l-0.1,0.1
							c-0.5,0.6-0.8,1.4-0.7,2.6c0,0.3,0.1,0.8,0.2,1.4c0.1,0.6,0.2,1,0.2,1.4c1.9-0.5,3.8-0.4,5.9,0.4c0.8,0.4,1.5,0.8,2.2,1.2
							c1.2,0.8,2.1,1.6,2.7,2.4c0-1.1-0.7-2.3-2-3.7c-1.5-0.9-3-1.7-4.5-2.3c-1.1-0.4-1.9-0.8-2.4-1.2c-0.2-0.2-0.4-0.3-0.5-0.5
							c-0.1-0.2-0.1-0.4,0-0.6c0.1-0.1,0.4-0.2,0.7-0.3c1.3-0.1,2.5-0.1,3.8,0.3l0.9-1.1c-1.8-12.6-4.6-21.2-8.6-25.9
							c-2-8-4.3-15.9-7-23.8c-2.7-7.5-5-14.9-6.8-22.2H86.8c2.2,3,3.9,6.1,5.1,9.5c7.3,11.1,13.7,23.4,19,37
							C110.8,348.3,110.8,348.7,110.9,349.1z"/>
						<path class="st8" d="M77.5,301.5h-8.7c-0.9,4.4-1,9.3-0.4,14.6c0.2,0.3,0.4,0.7,0.6,1c5.1,8.2,9.2,16.5,12.4,24.9
							c3.3,8.8,5.7,17.8,7,26.9c-2.2,2.6-2.9,5.5-2.2,8.6l2.4-1.6c-0.2-2.4,0.2-4.5,1.3-6.3c1.8,0.8,3.5,2,5,3.7
							c-0.5-1.7-2.1-3.2-4.6-4.4c-0.1-0.1-0.1-0.2-0.2-0.3c-0.1-0.2,0.1-0.4,0.5-0.5c0,0,0.1,0,0.1,0c2.4,0.2,3.9,1,4.5,2.3
							c0.2-1.7-1.5-2.7-4.9-2.9c-1.1-7.7-3-15.3-5.8-22.8c-0.5-1.2-0.9-2.3-1.3-3.4c-5.8-15.2-8.5-23.8-8-26c0-0.2,0.1-0.3,0.2-0.4
							C75.5,310.5,76.2,306,77.5,301.5 M107.6,349.3C107.6,349.3,107.6,349.3,107.6,349.3c0.3,0.7,0.6,1.4,0.9,2.1
							c0.2,0.4,0.3,0.8,0.5,1.2c0.1,0.3,0.2,0.5,0.3,0.8c2.7,6.7,4,14.3,3.7,22.6c-0.7,1.3-1.1,2.5-1.4,3.6c-0.5,2-0.3,3.7,0.4,5.1
							l6.5-5.7c0,0,0,0,0.1,0c0-0.3-0.1-0.8-0.2-1.4c-0.1-0.6-0.2-1.1-0.2-1.4c0-1.1,0.2-2,0.7-2.6l0.1-0.1c-0.6-0.6-1-1.2-1-1.7
							c0-0.1,0-0.2,0.1-0.4c0,0,0.1-0.1,0.1-0.1c0,0,0.1,0,0.2-0.1c0.1,0,0.3-0.1,0.5-0.1c0.1,0,0.2,0,0.2-0.1
							c0-0.1-0.1-0.2-0.3-0.2c-0.1,0-0.4-0.1-1-0.2c-0.4-0.1-0.7-0.2-1-0.3c-0.3-6.3-1.7-12.4-4.2-18.3c0,0,0,0,0,0
							c-0.3-0.3-0.6-0.6-0.8-0.9c0,0-0.1-0.1-0.1-0.1c-0.2-0.3-0.4-0.6-0.5-0.9c-0.1-0.4-0.2-0.7-0.3-1.1s-0.1-0.8,0-1.2
							c-5.4-13.5-11.7-25.9-19-37c-1.2-3.4-2.9-6.5-5.1-9.5H83l5.5,9.6c1.4,2,2.6,4,3.6,6.1c1.9,3.7,3.2,7.4,4.1,11.3
							c0.3,0.6,0.6,1.2,0.8,1.9C100.3,334.3,103.8,340.6,107.6,349.3z"/>
						<path class="st9" d="M112.5,389.4l6.6,1.3h4.1l7-2.5c0-1-0.2-1.9-0.6-2.7c-0.6,1.5-2.1,2.3-4.2,2.4h-7.6
							c-2.2-0.1-4-0.4-5.4-1.1V389.4z"/>
						<path class="st10" d="M123,376.9c1.5,0.6,3,1.4,4.5,2.3c0.4-2.2-0.6-3.8-2.9-4.7c-1.3-0.3-2.5-0.4-3.8-0.3
							c-0.3,0-0.6,0.1-0.7,0.3c-0.1,0.2-0.1,0.4,0,0.6c0.1,0.2,0.3,0.4,0.5,0.5C121.1,376,121.9,376.4,123,376.9z"/>
					</g>
				</g>
			</g>
			<g transform="matrix( 1, 0, 0, 1, 0,0) ">
				<g>
					<g id="Layer7_0_FILL_3_">
						<path class="st11" d="M85.3,305.5l-3.3,0.2l-0.3,5.4l3.8-3.8L85.3,305.5 M89.2,303.4c-0.4-0.7-0.9-1.4-1.3-2.1l-2.8,0.5
							l0.2,3.7l2-0.1L89.2,303.4C89.2,303.4,89.2,303.4,89.2,303.4 M80.2,302.7c-0.4,1.1-0.7,2.1-1.1,3.1l2.8-0.2l0.2-3.3
							L80.2,302.7 M82.2,302.3l2.9-0.6l-0.2-3.9l-2.5,0.4L82.2,302.3 M84.8,295.3l0.1,2.6l1-0.2C85.5,296.9,85.1,296.1,84.8,295.3
							 M82.7,293.8c-0.3,1.5-0.6,2.8-0.9,3.8c-0.1,0.3-0.2,0.5-0.2,0.8l0.9-0.1L82.7,293.8 M77.1,264.5l-0.8,0.1
							c0.2,0.6,0.5,1.2,0.7,1.8C77.1,265.8,77.1,265.1,77.1,264.5 M74.9,257.1c0.2-1.3,0.4-2.6,0.7-3.9l-2.1,0.2
							c-0.1,0.3-0.1,0.6-0.1,0.9c0.2,1,0.5,2,0.7,2.9c0.2,0.7,0.4,1.4,0.6,2.1c0.2,0.6,0.3,1.1,0.5,1.6l2.2-0.3
							c0.1-1.3,0.2-2.5,0.3-3.8L74.9,257.1 M74.3,254.8c0,0-0.1,0-0.1,0c-0.1,0-0.1,0-0.1,0c0,0-0.1-0.1-0.1-0.1
							c0-0.1,0-0.1,0.1-0.1c0,0,0.1,0,0.1,0c0,0,0.1,0,0.1,0c0,0,0.1,0.1,0.1,0.1C74.4,254.8,74.4,254.8,74.3,254.8 M76,258.8
							c0-0.1,0-0.2,0.1-0.2c0-0.1,0.1-0.1,0.2-0.1c0.1,0,0.2,0,0.2,0.1c0.1,0.1,0.1,0.2,0.1,0.2s0,0.2-0.1,0.2
							c-0.1,0.1-0.1,0.1-0.2,0.1c-0.1,0-0.2,0-0.2-0.1C76,258.9,76,258.9,76,258.8 M79.7,272.2l0.1-4.6l-2.3,0.1
							C78.3,269.3,79,270.8,79.7,272.2 M79,268.6c0.1,0,0.1,0.1,0.1,0.1c0,0.1,0,0.1-0.1,0.1c0,0.1-0.1,0.1-0.1,0.1
							c-0.1,0-0.1,0-0.1-0.1c0,0-0.1-0.1-0.1-0.1c0-0.1,0-0.1,0.1-0.1c0,0,0.1-0.1,0.1-0.1C78.9,268.6,79,268.6,79,268.6
							 M79.9,264.1l0.1-3.7l-2.7,0.3c-0.1,1.3-0.1,2.6-0.2,3.8L79.9,264.1 M78.4,262c0.1,0,0.2,0,0.3,0.1c0.1,0.1,0.1,0.2,0.1,0.3
							c0,0.1,0,0.2-0.1,0.3c-0.1,0.1-0.2,0.1-0.3,0.1c-0.1,0-0.2,0-0.3-0.1c-0.1-0.1-0.1-0.2-0.1-0.3c0-0.1,0-0.2,0.1-0.3
							C78.1,262.1,78.2,262,78.4,262 M82.5,256.5l-2.4,0.2l-0.1,3.7l2.7-0.3C82.7,258.9,82.6,257.7,82.5,256.5 M81.2,258.3
							c0-0.1,0-0.2,0.1-0.2c0.1,0,0.1-0.1,0.2-0.1c0.1,0,0.2,0,0.2,0.1c0.1,0.1,0.1,0.2,0.1,0.2s0,0.2-0.1,0.2
							c-0.1,0-0.2,0.1-0.2,0.1c-0.1,0-0.2,0-0.2-0.1C81.3,258.5,81.2,258.4,81.2,258.3 M84.7,259.8l-1.9,0.2c0,1.3,0,2.5,0,3.6
							l-2.9,0.4l-0.1,3.5l2.1-0.1c0.2-0.6,0.5-1.1,0.7-1.6c0.3-0.8,0.7-1.5,1-2.3c0.2-0.4,0.4-0.9,0.6-1.3
							C84.5,261.5,84.6,260.7,84.7,259.8 M83.5,261.3c0-0.1,0-0.2,0.1-0.2s0.1-0.1,0.2-0.1c0.1,0,0.2,0,0.2,0.1c0,0,0.1,0.1,0.1,0.2
							c0,0.1,0,0.1-0.1,0.2c0,0-0.1,0.1-0.2,0.1c-0.1,0-0.1,0-0.2-0.1C83.5,261.4,83.5,261.4,83.5,261.3 M81.7,265.4
							c0,0.1,0,0.2-0.1,0.2c-0.1,0.1-0.1,0.1-0.2,0.1c-0.1,0-0.2,0-0.2-0.1c0,0-0.1-0.1-0.1-0.2c0-0.1,0-0.2,0.1-0.2
							c0.1,0,0.2-0.1,0.2-0.1s0.2,0,0.2,0.1C81.7,265.2,81.7,265.3,81.7,265.4 M80.1,256.7l0.1-4l-2,0.2c-0.2,1.3-0.4,2.6-0.5,4
							L80.1,256.7 M79.3,254.7c0,0.1-0.1,0.1-0.1,0.1c-0.1,0-0.1,0-0.2-0.1c0,0,0-0.1,0-0.1c0-0.1,0-0.1,0-0.2
							c0.1,0,0.1-0.1,0.2-0.1c0.1,0,0.1,0,0.1,0.1c0,0,0.1,0.1,0.1,0.2C79.4,254.6,79.4,254.6,79.3,254.7 M86.6,256.7
							c0-0.2-0.1-0.4-0.1-0.5l-2,0.2c0.2,1.3,0.2,2.5,0.2,3.5l0.6-0.1C85.8,258.7,86.2,257.7,86.6,256.7 M85.2,257.2
							c0,0,0.1,0,0.1,0c0.1,0,0.1,0,0.1,0c0,0,0.1,0.1,0.1,0.1c0,0.1,0,0.1-0.1,0.1c0,0,0,0-0.1,0c0,0-0.1,0-0.1,0c0,0,0-0.1,0-0.1
							C85.2,257.3,85.2,257.3,85.2,257.2 M78.7,249.4l-2,0.1c-0.5,1.2-0.8,2.4-1.1,3.7l2.5-0.3C78.3,251.8,78.5,250.6,78.7,249.4
							 M77.1,251.3c0-0.1-0.1-0.1-0.1-0.2c0-0.1,0-0.1,0.1-0.2c0.1-0.1,0.1-0.1,0.2-0.1c0.1,0,0.2,0,0.2,0.1
							c0.1,0.1,0.1,0.1,0.1,0.2c0,0.1,0,0.1-0.1,0.2c0,0-0.1,0.1-0.2,0.1C77.2,251.3,77.2,251.3,77.1,251.3 M86.9,252.1l-1.2,0.1
							c0.3,1.3,0.6,2.6,0.8,3.9l0.3,0c0.2-0.5,0.3-0.9,0.5-1.3C87.2,253.9,87.1,252.9,86.9,252.1 M86.7,253.5c0.1,0,0.1,0,0.2,0.1
							c0,0,0.1,0.1,0.1,0.2c0,0.1,0,0.1-0.1,0.1c0,0-0.1,0.1-0.2,0.1c-0.1,0-0.1,0-0.1-0.1s-0.1-0.1-0.1-0.1c0-0.1,0-0.1,0.1-0.2
							C86.5,253.5,86.6,253.5,86.7,253.5 M83.8,252.4l-1.8,0.2c0.2,1.4,0.4,2.7,0.5,3.9l2-0.2C84.4,255.1,84.1,253.8,83.8,252.4
							 M83.5,254.6c0,0.1,0,0.1-0.1,0.2c-0.1,0-0.1,0.1-0.2,0.1s-0.2,0-0.2-0.1c-0.1-0.1-0.1-0.1-0.1-0.2c0-0.1,0-0.2,0.1-0.2
							c0.1,0,0.1-0.1,0.2-0.1s0.2,0,0.2,0.1C83.4,254.4,83.5,254.5,83.5,254.6 M82.9,249.2c0.3,1.1,0.6,2.2,0.8,3.2l1.9-0.2
							c-0.3-1.1-0.7-2.1-1.1-3.2L82.9,249.2 M84,250.3c0.1-0.1,0.1-0.1,0.2-0.1c0.1,0,0.1,0,0.2,0.1c0.1,0.1,0.1,0.1,0.1,0.2
							c0,0.1,0,0.2-0.1,0.2c0,0-0.1,0.1-0.2,0.1c-0.1,0-0.1,0-0.2-0.1c0,0-0.1-0.1-0.1-0.2C83.9,250.5,84,250.4,84,250.3 M82,252.6
							c-0.2-1.1-0.3-2.2-0.6-3.3l-1.2,0.1l-0.1,3.4L82,252.6 M80.8,250.8c0.1,0,0.1,0,0.2,0c0.1,0,0.1,0,0.1,0
							c0.1,0.1,0.1,0.1,0.1,0.2c0,0.1,0,0.1-0.1,0.1c0,0-0.1,0.1-0.1,0.1c-0.1,0-0.1,0-0.2-0.1c0,0,0-0.1,0-0.1
							C80.7,250.9,80.7,250.8,80.8,250.8 M80.4,246.4l-1,0c-0.2,1-0.4,2-0.6,3l1.6-0.1L80.4,246.4 M79.5,247.9c0-0.1,0-0.1,0.1-0.2
							c0-0.1,0.1-0.1,0.2-0.1c0.1,0,0.1,0,0.2,0.1c0,0,0.1,0.1,0.1,0.2c0,0.1,0,0.1-0.1,0.1c0,0.1-0.1,0.1-0.2,0.1
							c-0.1,0-0.1,0-0.2-0.1C79.5,248.1,79.5,248,79.5,247.9 M78.1,244.8c0.3-0.1,0.7-0.3,1-0.4c-0.4,0.6-0.7,1.3-1,1.9l1.2,0
							c0.1-0.7,0.3-1.4,0.5-2.1l-0.7-1.7l-1.9,0L78.1,244.8 M78.6,243.4c0.1,0,0.1,0,0.1,0c0,0,0.1,0.1,0.1,0.2c0,0.1,0,0.1-0.1,0.1
							c0,0-0.1,0.1-0.1,0.1s-0.1,0-0.2-0.1c0,0-0.1-0.1-0.1-0.1c0-0.1,0-0.1,0.1-0.2C78.5,243.4,78.6,243.4,78.6,243.4 M79.1,245.7
							C79.1,245.7,79.1,245.7,79.1,245.7c-0.1,0.1-0.1,0.1-0.1,0.1c0,0-0.1,0-0.1-0.1c0,0,0,0,0-0.1s0-0.1,0-0.1c0,0,0.1,0,0.1,0
							c0,0,0,0,0.1,0C79.1,245.6,79.1,245.6,79.1,245.7 M81.3,244.1c-0.3,0-0.6,0-0.9,0l-0.1,2.3l0.6,0c0.2,1,0.4,1.9,0.6,2.8
							l1.5-0.1c-0.3-0.9-0.5-1.8-0.8-2.7C81.8,245.7,81.6,244.9,81.3,244.1 M81.7,247.7c0.1,0,0.1-0.1,0.2-0.1c0.1,0,0.1,0,0.2,0.1
							c0,0.1,0.1,0.1,0.1,0.2c0,0.1,0,0.1-0.1,0.2c0,0-0.1,0.1-0.2,0.1c-0.1,0-0.1,0-0.2-0.1c0,0-0.1-0.1-0.1-0.2
							C81.6,247.8,81.7,247.7,81.7,247.7 M81.4,245.5c0,0-0.1,0.1-0.1,0.1c-0.1,0-0.1,0-0.2-0.1c0,0,0-0.1,0-0.2c0-0.1,0-0.1,0-0.2
							c0,0,0.1-0.1,0.2-0.1c0.1,0,0.1,0,0.1,0.1c0,0,0.1,0.1,0.1,0.2C81.5,245.4,81.4,245.4,81.4,245.5 M84,245l0.8-1.1l1.2-1.5
							l-1.8,0.1l-1,2.1c-0.3-0.2-0.6-0.3-1-0.3c0.4,0.7,0.8,1.5,1.2,2.2c0.4,0.9,0.8,1.7,1.2,2.6L86,249c-0.3-0.9-0.7-1.7-1.2-2.5
							C84.6,246,84.3,245.5,84,245 M84.6,243c0.1,0,0.1,0,0.1,0.1c0,0,0.1,0.1,0.1,0.1s0,0.1-0.1,0.1c0,0-0.1,0.1-0.1,0.1
							c0,0-0.1,0-0.1-0.1c0,0-0.1-0.1-0.1-0.1s0-0.1,0.1-0.1C84.5,243,84.6,243,84.6,243 M83.7,245.2c0,0,0.1,0,0.1,0
							c0,0,0.1,0.1,0.1,0.1s0,0.1-0.1,0.1c0,0-0.1,0.1-0.1,0.1c0,0-0.1,0-0.1-0.1c0,0,0-0.1,0-0.1s0-0.1,0-0.1
							C83.6,245.3,83.6,245.2,83.7,245.2 M84.6,247.6c0,0,0-0.1,0.1-0.1c0,0,0.1-0.1,0.1-0.1c0,0,0.1,0,0.1,0.1c0,0,0.1,0.1,0.1,0.1
							c0,0,0,0.1-0.1,0.1c0,0-0.1,0.1-0.1,0.1c0,0-0.1,0-0.1-0.1C84.6,247.7,84.6,247.6,84.6,247.6 M82.6,242.5l-1.7,0.1l0.4,1.6
							c0.3,0,0.6,0.1,0.9,0.1L82.6,242.5 M81.7,243c0,0,0.1,0,0.1,0c0,0,0.1,0.1,0.1,0.1c0,0,0,0.1-0.1,0.1c0,0-0.1,0.1-0.1,0.1
							c0,0-0.1,0-0.1-0.1c0,0,0-0.1,0-0.1C81.6,243.1,81.6,243.1,81.7,243C81.6,243,81.7,243,81.7,243 M83.3,239.5l-0.7,3l1.6,0
							l1.4-3L83.3,239.5 M83.8,240.9c0-0.1,0-0.1,0.1-0.1c0,0,0.1-0.1,0.1-0.1c0.1,0,0.1,0,0.2,0.1c0,0,0.1,0.1,0.1,0.1
							c0,0.1,0,0.1-0.1,0.2c0,0-0.1,0-0.2,0c0,0-0.1,0-0.1,0C83.8,241,83.8,240.9,83.8,240.9 M79.1,242.6l1.8,0l-0.8-3l-2.2,0
							L79.1,242.6 M79.8,241.1c-0.1,0.1-0.1,0.1-0.2,0.1c-0.1,0-0.1,0-0.2-0.1c0,0-0.1-0.1-0.1-0.2c0-0.1,0-0.2,0.1-0.2
							c0.1,0,0.1-0.1,0.2-0.1c0.1,0,0.2,0,0.2,0.1c0,0,0.1,0.1,0.1,0.2C79.9,241,79.9,241,79.8,241.1 M83.9,236.7
							c-0.5-0.6-1-1.2-1.6-1.7c-1,0.7-2,1.5-2.8,2.3l0.6,2.3l3.2-0.1L83.9,236.7 M82,237.2c0.1,0.1,0.1,0.2,0.1,0.3
							c0,0.1,0,0.2-0.1,0.3c-0.1,0.1-0.2,0.1-0.3,0.1c-0.1,0-0.2,0-0.3-0.1c-0.1-0.1-0.1-0.2-0.1-0.3c0-0.1,0-0.2,0.1-0.3
							c0.1-0.1,0.2-0.1,0.3-0.1C81.8,237,81.9,237.1,82,237.2 M74.7,249.6l2.1-0.1c0.4-1.1,0.8-2.1,1.4-3.2l-1.4,0
							C75.9,247.3,75.2,248.4,74.7,249.6 M76.2,247.9c0-0.1,0-0.1,0.1-0.2c0,0,0.1-0.1,0.2-0.1c0.1,0,0.1,0,0.2,0.1
							c0,0,0.1,0.1,0.1,0.2c0,0.1,0,0.1-0.1,0.1c0,0-0.1,0.1-0.2,0.1c-0.1,0-0.1,0-0.2-0.1C76.2,248.1,76.2,248,76.2,247.9z"/>
						<path class="st12" d="M84.9,297.9l0.2,3.9l2.8-0.5c-0.7-1.2-1.3-2.3-2-3.5L84.9,297.9 M87.3,305.3l-2,0.1l0.1,1.8L87.3,305.3
							 M82,305.7l-2.8,0.2c-0.3,0.8-0.6,1.5-0.9,2.2l3.4,3.1L82,305.7 M82.2,302.3l0.2-4l-0.9,0.1c-0.1,0.4-0.3,0.9-0.4,1.3
							c-0.3,1-0.6,2-0.9,3L82.2,302.3 M85.1,301.8l-2.9,0.6l-0.2,3.3l3.3-0.2L85.1,301.8 M83.1,291.6c-0.1,0.2-0.1,0.4-0.1,0.6
							c0,0.1,0,0.1,0,0.2c0,0.1-0.1,0.2-0.1,0.4l-0.2,0.9c0,0,0,0.1,0,0.1l-0.3,4.5l2.5-0.4l-0.1-2.6
							C84.2,294.1,83.6,292.8,83.1,291.6 M77.3,260.7l-2.2,0.3c0.4,1.3,0.8,2.5,1.3,3.7l0.8-0.1C77.2,263.2,77.2,261.9,77.3,260.7
							 M75.6,253.2c-0.3,1.3-0.6,2.6-0.7,3.9l2.8-0.2c0.1-1.3,0.3-2.6,0.5-4L75.6,253.2 M84.3,262.2c0.3-0.8,0.7-1.6,1-2.5l-0.6,0.1
							C84.6,260.7,84.5,261.5,84.3,262.2 M79.9,267.6l0.1-3.5l-2.8,0.4c0,0.6-0.1,1.3-0.1,1.9c0.2,0.5,0.3,0.9,0.5,1.3L79.9,267.6
							 M81.9,267.5l-2.1,0.1l-0.1,4.6c0,0,0-0.1,0.1-0.1C80.5,270.6,81.2,269,81.9,267.5 M80,260.4l0.1-3.7l-2.5,0.2
							c-0.1,1.3-0.3,2.5-0.3,3.8L80,260.4 M82.8,260l-2.7,0.3l-0.1,3.7l2.9-0.4C82.8,262.5,82.8,261.3,82.8,260 M80.2,252.7l-0.1,4
							l2.4-0.2c-0.1-1.3-0.3-2.6-0.5-3.9L80.2,252.7 M84.5,256.3l-2,0.2c0.1,1.2,0.2,2.4,0.3,3.5l1.9-0.2
							C84.8,258.8,84.7,257.6,84.5,256.3 M86.8,256.1l-0.3,0c0,0.2,0.1,0.3,0.1,0.5C86.7,256.5,86.7,256.3,86.8,256.1 M85.7,252.2
							l-1.9,0.2c0.3,1.4,0.6,2.7,0.8,3.9l2-0.2C86.3,254.8,86,253.5,85.7,252.2 M86.9,252.1c-0.2-0.8-0.4-1.6-0.6-2.3
							c-0.1-0.3-0.2-0.6-0.3-0.8l-1.5,0.1c0.4,1,0.8,2.1,1.1,3.2L86.9,252.1 M82.9,249.2l-1.5,0.1c0.2,1.1,0.4,2.2,0.6,3.3l1.8-0.2
							C83.5,251.4,83.3,250.3,82.9,249.2 M80.3,249.3l-1.6,0.1c-0.2,1.2-0.4,2.4-0.6,3.5l2-0.2L80.3,249.3 M80.9,246.4l-0.6,0
							l-0.1,2.9l1.2-0.1C81.3,248.3,81.1,247.4,80.9,246.4 M79.3,246.4l-1.2,0c-0.5,1-1,2.1-1.4,3.2l2-0.1
							C78.9,248.4,79.1,247.4,79.3,246.4 M79.1,244.4c-0.3,0.1-0.6,0.2-1,0.4c-0.5,0.5-1,1-1.5,1.5l1.4,0
							C78.4,245.7,78.8,245,79.1,244.4 M83.4,246.5c-0.4-0.7-0.8-1.5-1.2-2.2c-0.3-0.1-0.6-0.1-0.9-0.1c0.3,0.8,0.5,1.6,0.8,2.3
							c0.3,0.9,0.6,1.8,0.8,2.7l1.6-0.1C84.2,248.2,83.8,247.3,83.4,246.5 M83.9,236.7l-0.6,2.8l2.3-0.1
							C85.1,238.4,84.5,237.5,83.9,236.7 M84.2,242.4l-1.6,0l-0.4,1.7c0.3,0.1,0.7,0.2,1,0.3L84.2,242.4 M80.1,239.5l0.8,3l1.7-0.1
							l0.7-3L80.1,239.5 M77.9,239.6l2.2,0l-0.6-2.3c-0.6,0.6-1.2,1.1-1.8,1.8L77.9,239.6 M80.9,242.5l-1.8,0l0.7,1.7
							c-0.2,0.7-0.3,1.4-0.5,2.1l1,0l0.1-2.3c0.3,0,0.6,0,0.9,0L80.9,242.5 M86,242.4l0.4-0.5c-0.2-0.9-0.5-1.7-0.9-2.4l-1.4,3
							L86,242.4 M76.7,249.5l-2.1,0.1c-0.5,1.2-0.9,2.4-1.2,3.8l2.1-0.2C75.9,252,76.3,250.7,76.7,249.5 M77.2,239.6
							c-0.3,0.3-0.6,0.7-0.8,1.1l0.8,2l1.9,0l-1.2-3H77.2z"/>
						<path class="st13" d="M62.9,300.7l12.9-0.9v-4H64.2h-2C62.6,297.4,62.8,299.1,62.9,300.7 M96.4,225.8L96.4,225.8L96.4,225.8
							L96.4,225.8 M70,225.5c-1.3,1.4-2.6,2.8-3.8,4.2c-1.4,1.5-2.7,3-3.9,4.5l-1.7,3.4l5.1,1.7l-5.9,4.1
							c4.1,17.1,10.3,28.3,18.7,33.5c0.1,0.1,0.2,0.1,0.3,0.2c11-9.4,19.1-20.2,24.5-32.5L98,240l6.1-3.2c-0.7-1.9-1.6-3.5-2.7-4.9
							c-0.1-0.1-0.1-0.2-0.2-0.3c-1.4-1.8-3-3.8-4.8-5.9c-0.7,3.1-1.4,5.9-2.1,8.5c-0.3,1.1-0.6,2.2-0.9,3.2
							c-1.7,5.7-3.8,11.4-6.1,17.3c-0.2,0.4-0.3,0.9-0.5,1.3c-0.1,0.2-0.2,0.4-0.2,0.6c-0.4,1-0.9,2-1.3,3.1c-0.4,0.8-0.7,1.6-1,2.5
							c-0.2,0.5-0.4,0.9-0.6,1.3c-0.3,0.8-0.7,1.5-1,2.3c-0.2,0.5-0.5,1.1-0.7,1.6c-0.7,1.5-1.4,3.1-2.1,4.6c0,0,0,0.1-0.1,0.1
							c-0.7-1.4-1.5-2.9-2.1-4.5c-0.2-0.4-0.4-0.9-0.5-1.3c-0.2-0.6-0.5-1.2-0.7-1.8c-0.4-1.2-0.9-2.4-1.3-3.7
							c-0.2-0.5-0.3-1.1-0.5-1.6c-0.2-0.7-0.4-1.4-0.6-2.1c-0.2-1-0.5-1.9-0.7-2.9c-0.9-3.8-1.7-8-2.3-12.4
							c-0.2-1.8-0.5-3.7-0.6-5.6c0-0.4-0.1-0.8-0.1-1.2C70,232.4,69.9,229.2,70,225.5 M110.3,299.4c-0.3-1.6-0.6-3.2-0.8-4.8h-1.4
							l-10.7,1.2v4.1L110.3,299.4z"/>
						<path class="st14" d="M76.1,258.6c-0.1,0.1-0.1,0.2-0.1,0.2s0,0.2,0.1,0.2c0,0.1,0.1,0.1,0.2,0.1c0.1,0,0.2,0,0.2-0.1
							c0.1-0.1,0.1-0.1,0.1-0.2s0-0.2-0.1-0.2c-0.1-0.1-0.1-0.1-0.2-0.1C76.2,258.5,76.1,258.5,76.1,258.6 M74.2,254.9
							c0,0,0.1,0,0.1,0c0,0,0.1-0.1,0.1-0.1c0-0.1,0-0.1-0.1-0.1c0,0-0.1,0-0.1,0c-0.1,0-0.1,0-0.1,0c0,0-0.1,0.1-0.1,0.1
							c0,0,0,0.1,0.1,0.1C74.1,254.9,74.2,254.9,74.2,254.9 M79.1,268.8c0-0.1,0-0.1-0.1-0.1c0,0-0.1-0.1-0.1-0.1
							c-0.1,0-0.1,0-0.1,0.1c0,0-0.1,0.1-0.1,0.1c0,0.1,0,0.1,0.1,0.1c0,0.1,0.1,0.1,0.1,0.1c0.1,0,0.1,0,0.1-0.1
							C79.1,268.9,79.1,268.9,79.1,268.8 M78.7,262.2c-0.1-0.1-0.2-0.1-0.3-0.1c-0.1,0-0.2,0-0.3,0.1c-0.1,0.1-0.1,0.2-0.1,0.3
							c0,0.1,0,0.2,0.1,0.3c0.1,0.1,0.2,0.1,0.3,0.1c0.1,0,0.2,0,0.3-0.1c0.1-0.1,0.1-0.2,0.1-0.3C78.8,262.4,78.8,262.2,78.7,262.2
							 M81.3,258.1c-0.1,0.1-0.1,0.2-0.1,0.2s0,0.2,0.1,0.2c0.1,0,0.1,0.1,0.2,0.1c0.1,0,0.2,0,0.2-0.1c0.1-0.1,0.1-0.2,0.1-0.2
							s0-0.2-0.1-0.2c-0.1,0-0.2-0.1-0.2-0.1C81.5,258,81.4,258.1,81.3,258.1 M81.6,265.6c0,0,0.1-0.1,0.1-0.2c0-0.1,0-0.2-0.1-0.2
							c-0.1,0-0.1-0.1-0.2-0.1s-0.2,0-0.2,0.1c0,0.1-0.1,0.1-0.1,0.2c0,0.1,0,0.2,0.1,0.2c0.1,0.1,0.2,0.1,0.2,0.1
							C81.5,265.7,81.5,265.7,81.6,265.6 M83.6,261.1c0,0-0.1,0.1-0.1,0.2c0,0.1,0,0.1,0.1,0.2c0,0,0.1,0.1,0.2,0.1
							c0.1,0,0.2,0,0.2-0.1c0-0.1,0.1-0.1,0.1-0.2c0-0.1,0-0.2-0.1-0.2c0,0-0.1-0.1-0.2-0.1C83.7,261,83.6,261,83.6,261.1
							 M79.2,254.8c0.1,0,0.1,0,0.1-0.1c0,0,0.1-0.1,0.1-0.1c0-0.1,0-0.1-0.1-0.2c0,0-0.1-0.1-0.1-0.1c-0.1,0-0.1,0-0.2,0.1
							c0,0,0,0.1,0,0.2c0,0,0,0.1,0,0.1C79.1,254.7,79.1,254.8,79.2,254.8 M85.4,257.2c0,0-0.1,0-0.1,0c0,0,0,0.1,0,0.1
							c0,0.1,0,0.1,0,0.1c0,0,0.1,0,0.1,0c0.1,0,0.1,0,0.1,0c0,0,0.1-0.1,0.1-0.1c0,0,0-0.1-0.1-0.1
							C85.5,257.2,85.4,257.2,85.4,257.2 M77,251c0,0.1,0,0.1,0.1,0.2c0.1,0,0.1,0.1,0.2,0.1c0.1,0,0.2,0,0.2-0.1
							c0.1-0.1,0.1-0.1,0.1-0.2c0-0.1,0-0.1-0.1-0.2c0-0.1-0.1-0.1-0.2-0.1c-0.1,0-0.1,0-0.2,0.1C77,250.9,77,251,77,251
							 M86.8,253.5c0,0-0.1-0.1-0.2-0.1c-0.1,0-0.1,0-0.1,0.1c0,0-0.1,0.1-0.1,0.2c0,0.1,0,0.1,0.1,0.1s0.1,0.1,0.1,0.1
							c0.1,0,0.1,0,0.2-0.1c0,0,0.1-0.1,0.1-0.1C86.9,253.6,86.9,253.6,86.8,253.5 M83.4,254.8c0-0.1,0.1-0.1,0.1-0.2
							c0-0.1,0-0.2-0.1-0.2c-0.1,0-0.1-0.1-0.2-0.1s-0.2,0-0.2,0.1c-0.1,0.1-0.1,0.1-0.1,0.2c0,0.1,0,0.1,0.1,0.2
							c0.1,0,0.1,0.1,0.2,0.1S83.3,254.8,83.4,254.8 M84.2,250.2c-0.1,0-0.1,0-0.2,0.1c0,0.1-0.1,0.1-0.1,0.2c0,0.1,0,0.2,0.1,0.2
							c0.1,0,0.1,0.1,0.2,0.1c0.1,0,0.1,0,0.2-0.1c0.1,0,0.1-0.1,0.1-0.2c0-0.1,0-0.1-0.1-0.2C84.3,250.3,84.3,250.2,84.2,250.2
							 M81,250.7c-0.1,0-0.1,0-0.2,0c0,0.1,0,0.1,0,0.2c0,0.1,0,0.1,0,0.1c0.1,0,0.1,0.1,0.2,0.1c0.1,0,0.1,0,0.1-0.1
							c0.1,0,0.1-0.1,0.1-0.1c0-0.1,0-0.1-0.1-0.2C81.1,250.7,81,250.7,81,250.7 M79.6,247.8c0,0-0.1,0.1-0.1,0.2
							c0,0.1,0,0.1,0.1,0.1c0,0.1,0.1,0.1,0.2,0.1c0.1,0,0.1,0,0.2-0.1c0,0,0.1-0.1,0.1-0.1c0-0.1,0-0.1-0.1-0.2
							c0-0.1-0.1-0.1-0.2-0.1C79.7,247.7,79.6,247.7,79.6,247.8 M79,245.8C79.1,245.7,79.1,245.7,79,245.8c0.1-0.1,0-0.2,0-0.2
							c0,0,0,0-0.1,0c0,0-0.1,0-0.1,0c0,0,0,0.1,0,0.1s0,0.1,0,0.1C78.9,245.8,78.9,245.8,79,245.8C79,245.8,79,245.8,79,245.8
							 M78.8,243.4c0,0-0.1,0-0.1,0c-0.1,0-0.1,0-0.2,0c0,0-0.1,0.1-0.1,0.2c0,0.1,0,0.1,0.1,0.1c0,0,0.1,0.1,0.2,0.1s0.1,0,0.1-0.1
							c0,0,0.1-0.1,0.1-0.1C78.8,243.5,78.8,243.4,78.8,243.4 M81.2,245.5c0.1,0,0.1,0,0.1-0.1c0,0,0.1-0.1,0.1-0.2
							c0-0.1,0-0.1-0.1-0.2c0,0-0.1-0.1-0.1-0.1c-0.1,0-0.1,0-0.2,0.1c0,0,0,0.1,0,0.2c0,0.1,0,0.1,0,0.2
							C81.1,245.5,81.2,245.5,81.2,245.5 M81.9,247.6c-0.1,0-0.1,0-0.2,0.1c0,0.1-0.1,0.1-0.1,0.2c0,0.1,0,0.1,0.1,0.2
							c0.1,0,0.1,0.1,0.2,0.1c0.1,0,0.1,0,0.2-0.1c0,0,0.1-0.1,0.1-0.2c0,0,0-0.1-0.1-0.2C82,247.6,82,247.6,81.9,247.6 M84.7,247.4
							c0,0-0.1,0.1-0.1,0.1c0,0,0,0.1,0.1,0.1c0,0,0.1,0.1,0.1,0.1c0,0,0.1,0,0.1-0.1c0,0,0.1-0.1,0.1-0.1c0,0,0-0.1-0.1-0.1
							c0,0-0.1-0.1-0.1-0.1C84.8,247.4,84.7,247.4,84.7,247.4 M83.8,245.3c0,0-0.1,0-0.1,0s-0.1,0-0.1,0c0,0,0,0.1,0,0.1
							s0,0.1,0,0.1c0,0,0.1,0.1,0.1,0.1c0,0,0.1,0,0.1-0.1c0,0,0.1-0.1,0.1-0.1S83.8,245.3,83.8,245.3 M84.7,243.1
							c0,0-0.1-0.1-0.1-0.1c0,0-0.1,0-0.1,0.1c0,0-0.1,0.1-0.1,0.1s0,0.1,0.1,0.1c0,0,0.1,0.1,0.1,0.1c0.1,0,0.1,0,0.1-0.1
							c0,0,0.1-0.1,0.1-0.1S84.8,243.1,84.7,243.1 M81.8,243c0,0-0.1,0-0.1,0c0,0-0.1,0-0.1,0c0,0,0,0.1,0,0.1c0,0,0,0.1,0,0.1
							c0,0,0.1,0.1,0.1,0.1c0,0,0.1,0,0.1-0.1c0,0,0.1-0.1,0.1-0.1C81.9,243.1,81.9,243.1,81.8,243 M83.8,240.7c0,0-0.1,0.1-0.1,0.1
							c0,0.1,0,0.1,0.1,0.2c0,0,0.1,0,0.1,0c0.1,0,0.1,0,0.2,0c0,0,0.1-0.1,0.1-0.2c0-0.1,0-0.1-0.1-0.1c0,0-0.1-0.1-0.2-0.1
							C83.9,240.7,83.9,240.7,83.8,240.7 M79.6,241.2c0.1,0,0.2,0,0.2-0.1c0,0,0.1-0.1,0.1-0.2c0-0.1,0-0.2-0.1-0.2
							c-0.1,0-0.1-0.1-0.2-0.1c-0.1,0-0.1,0-0.2,0.1c0,0-0.1,0.1-0.1,0.2c0,0.1,0,0.1,0.1,0.2C79.5,241.1,79.6,241.2,79.6,241.2
							 M82.1,237.5c0-0.1,0-0.2-0.1-0.3c-0.1-0.1-0.2-0.1-0.3-0.1c-0.1,0-0.2,0-0.3,0.1c-0.1,0.1-0.1,0.2-0.1,0.3
							c0,0.1,0,0.2,0.1,0.3c0.1,0.1,0.2,0.1,0.3,0.1c0.1,0,0.2,0,0.3-0.1C82.1,237.7,82.1,237.6,82.1,237.5 M76.3,247.8
							c0,0-0.1,0.1-0.1,0.2c0,0.1,0,0.1,0.1,0.1c0,0,0.1,0.1,0.2,0.1c0.1,0,0.1,0,0.2-0.1c0,0,0.1-0.1,0.1-0.1c0-0.1,0-0.1-0.1-0.2
							c0,0-0.1-0.1-0.2-0.1C76.4,247.7,76.3,247.7,76.3,247.8z"/>
						<path class="st15" d="M90.3,243.5c-0.3,0.8-0.7,1.9-1.3,3.3c-0.4,0.9-0.7,1.5-1,1.9c-0.5,0.6-1,1-1.7,1.1
							c0.2,0.7,0.4,1.5,0.6,2.3c0.2,0.9,0.3,1.8,0.4,2.7c2.3-5.8,4.3-11.6,6.1-17.3l-2.5,2.9C90.9,241.4,90.7,242.4,90.3,243.5z"/>
						<path class="st16" d="M85,243.8c-0.1,0-0.2,0.1-0.2,0.1L84,245c0.3,0.5,0.6,0.9,0.9,1.5c0.4,0.8,0.8,1.6,1.2,2.5
							c0.1,0.3,0.2,0.5,0.3,0.8c0.7-0.2,1.2-0.6,1.7-1.1c0.3-0.4,0.6-1,1-1.9c0.6-1.4,1.1-2.5,1.3-3.3c0.4-1.1,0.6-2.1,0.6-3.1
							l-3.9,4.6c0-0.1,0-0.3-0.1-0.5c0,0-0.1,0.1-0.2,0.3c0,0.2-0.1,0.3-0.2,0.4c-0.1,0.2-0.2,0.3-0.4,0.4h-0.1v-0.2
							c0-0.3-0.1-0.6-0.1-0.8c0-0.3,0-0.4-0.1-0.5c-0.1-0.2-0.2-0.3-0.3-0.4C85.4,243.8,85.2,243.8,85,243.8z"/>
						<path class="st17" d="M86.4,241.9l-0.4,0.5l-1.2,1.5c0.1,0,0.1-0.1,0.2-0.1c0.2,0,0.4,0,0.5,0c0.1,0.1,0.2,0.2,0.3,0.4
							c0.1,0.1,0.1,0.3,0.1,0.5c0,0.2,0.1,0.4,0.1,0.8v0.2h0.1c0.1,0,0.3-0.2,0.4-0.4c0.1-0.1,0.1-0.3,0.2-0.4
							c0.1-0.2,0.1-0.3,0.2-0.3C86.8,243.6,86.6,242.7,86.4,241.9z"/>
						<path class="st18" d="M90.3,233c-1.1-0.2-1.9-0.3-2.5-0.4c-0.9-0.1-1.7-0.1-2.4,0l-3.2,2.3c0.6,0.6,1.1,1.1,1.6,1.7
							c0.6,0.8,1.2,1.7,1.6,2.7c0.4,0.8,0.6,1.6,0.9,2.4c0.2,0.9,0.4,1.8,0.5,2.7c0,0.2,0,0.3,0.1,0.5l3.9-4.6l2.5-2.9
							c0.3-1,0.6-2.1,0.9-3.2c-0.5-0.4-1.1-0.7-1.8-0.9C92,233.3,91.2,233.1,90.3,233 M76.4,240.6c0.3-0.4,0.5-0.7,0.8-1.1h0.7
							l-0.2-0.6c0.6-0.6,1.1-1.2,1.8-1.8c0.9-0.8,1.8-1.6,2.8-2.3l-3.1-2.6c-1.3,0.2-2.5,0.4-3.7,0.8c-2.1,0.6-3.7,1.6-4.7,2.9
							l3.6,7.7C75,242.7,75.6,241.6,76.4,240.6z"/>
						<path class="st19" d="M94.3,234.3c0.7-2.6,1.4-5.4,2.1-8.5c-0.8,0.3-1.7,0.5-2.6,0.8l-8.3,6.1c0.7-0.1,1.5-0.1,2.4,0
							c0.6,0.1,1.4,0.2,2.5,0.4c0.9,0.1,1.7,0.3,2.2,0.4C93.2,233.6,93.8,233.9,94.3,234.3 M71.8,226c-0.6-0.2-1.2-0.4-1.8-0.6
							c-0.1,3.8,0,7,0.3,9.6l0.5,1c1-1.3,2.5-2.3,4.7-2.9c1.2-0.4,2.4-0.7,3.7-0.8L71.8,226z"/>
						<path class="st20" d="M72.1,242.4c-0.3-0.3-0.6-0.4-1-0.5c0.6,4.4,1.4,8.6,2.3,12.4c0-0.3,0.1-0.6,0.1-0.9
							c0.3-1.4,0.7-2.7,1.2-3.8c0.5-1.2,1.2-2.3,2-3.3c0.5-0.6,0.9-1.1,1.5-1.5l-0.9-2.2c-0.1,0-0.3,0.1-0.6,0.1
							c-0.3,0-0.4,0-0.6,0.1c-0.2,0.1-0.4,0.3-0.7,0.8c-0.3,0.4-0.6,0.7-0.9,0.8c-0.2,0.1-0.4,0.1-0.6,0.1c-0.2,0-0.4-0.1-0.5-0.3
							c-0.1-0.1-0.2-0.2-0.3-0.4c-0.1-0.2-0.2-0.4-0.2-0.5C72.6,242.9,72.4,242.6,72.1,242.4z"/>
						<path class="st21" d="M70.3,235.1c0,0.4,0.1,0.8,0.1,1.2c0.2,1.9,0.4,3.8,0.6,5.6c0.4,0.1,0.7,0.2,1,0.5
							c0.3,0.3,0.6,0.6,0.7,0.9c0,0.1,0.1,0.3,0.2,0.5c0.1,0.2,0.2,0.3,0.3,0.4c0.1,0.1,0.3,0.2,0.5,0.3c0.2,0,0.4,0,0.6-0.1
							c0.3-0.1,0.6-0.4,0.9-0.8c0.3-0.5,0.5-0.7,0.7-0.8c0.1-0.1,0.3-0.1,0.6-0.1c0.2,0,0.4,0,0.6-0.1l-0.8-2c-0.7,1-1.4,2-2,3.2
							l-3.6-7.7L70.3,235.1z"/>
						<path class="st22" d="M70,225.5c0.6,0.2,1.2,0.4,1.8,0.6l7.4,6.3l3.1,2.6l3.2-2.3l8.3-6.1c0.9-0.2,1.8-0.5,2.6-0.8
							c-0.4-0.4-0.8-0.7-1.2-1c-7.1-5.4-15.1-5.4-24.2,0C70.7,225,70.3,225.3,70,225.5z"/>
						<path class="st23" d="M117.5,317.9c-3.5-6-5.9-12.1-7.3-18.4l-12.9,0.4v-4.1l10.7-1.2c-2-12.6-0.7-24.3,4-35
							c3.7-6.8,5.8-14.5,6.3-23.1c-5.9-3.2-11.6-4.9-17.1-4.9c0.1,0.1,0.1,0.2,0.2,0.3c1.1,1.4,1.9,3,2.7,4.9L98,240l5.4,4.6
							c-5.4,12.3-13.6,23.1-24.5,32.5c-0.1-0.1-0.2-0.1-0.3-0.2c-8.4-5.2-14.6-16.4-18.7-33.5l5.9-4.1l-5.1-1.7l1.7-3.4
							c1.2-1.5,2.5-3,3.9-4.5c-7.4-0.3-12.6,1.5-15.7,5.5c-1,6.7,0.4,12.6,4.1,17.8c8.3,10.1,11.5,24.3,9.6,42.8h11.6v4l-12.9,0.9
							c0.3,3.5,0,7.2-0.7,11c-1.3,4,0,6.1,4,6.5c4.7,0.3,8.7-3,12-10.2c0.3-0.7,0.6-1.4,0.9-2.2c0.4-1,0.8-2,1.1-3.1
							c0.3-0.9,0.6-1.9,0.9-3c0.5-1.9,1-3.8,1.5-5.9c0,0,0-0.1,0-0.1l0.2-0.9c0-0.1,0-0.2,0.1-0.4c0-0.1,0-0.1,0-0.2
							c0-0.2,0.1-0.4,0.1-0.6c0.5,1.3,1,2.5,1.6,3.7c0.4,0.8,0.8,1.6,1.2,2.4c0.6,1.2,1.3,2.4,2,3.5c0.4,0.7,0.8,1.4,1.3,2.1
							c0,0,0,0,0,0c3.4,5.4,7.5,10.5,12.4,15.2C108.2,320.8,113.6,320.6,117.5,317.9 M82.3,282.2c0-0.6,0.2-1.1,0.6-1.5
							s0.9-0.6,1.5-0.6c0.6,0,1,0.2,1.5,0.6c0.4,0.4,0.6,0.9,0.6,1.5c0,0.6-0.2,1-0.6,1.5c-0.4,0.4-0.9,0.6-1.5,0.6
							c-0.6,0-1.1-0.2-1.5-0.6S82.3,282.8,82.3,282.2z"/>
						<path class="st24" d="M82.9,280.7c-0.4,0.4-0.6,0.9-0.6,1.5c0,0.6,0.2,1,0.6,1.5s0.9,0.6,1.5,0.6c0.6,0,1-0.2,1.5-0.6
							c0.4-0.4,0.6-0.9,0.6-1.5c0-0.6-0.2-1.1-0.6-1.5c-0.4-0.4-0.9-0.6-1.5-0.6C83.8,280.1,83.3,280.3,82.9,280.7z"/>
					</g>
				</g>
			</g>
			<g transform="matrix( 1, 0, 0, 1, 0,0) ">
				<g>
					<g id="Layer6_0_FILL_4_">
						<path class="st25" d="M160.9,320.9c0-0.1,0-0.1,0-0.2c-0.1-0.5-0.1-0.9-0.1-1.2c0.1,0,0.2-0.1,0.3-0.1
							c-1.6-1.2-3.6-3.2-6.2-6.1c-2.6-2.9-4.7-4.9-6.3-6c3.5,4.1,7.6,8.6,12.1,13.6H160.9 M150.6,318.6
							C150.6,318.7,150.6,318.7,150.6,318.6c1.7,1.8,4,3.8,6.9,6c0.1-0.4,0-0.7-0.2-1l0,0c0,0,0,0,0,0c-2-1.7-4-3.5-6-5.5
							c-2.3-2.4-4.4-4.9-6.5-7.8C146.3,313.4,148.3,316.2,150.6,318.6 M136,316.2c0,0,0.1,0.1,0.1,0.1c0,0,0,0,0,0
							c0,0.1,0.1,0.2,0,0.3c0.1,0.2,0.2,0.3,0.3,0.5c1.1-1.2,2.2-2.3,3.3-3.4c0,0,0,0,0,0v0c0,0,0,0,0,0h0c0,0,0,0,0.1-0.1
							c1.3-1.3,2.7-2.7,4.2-3.9c0,0,0,0,0,0c1-0.9,2-1.8,3.1-2.7c0.2-0.2,0.4-0.3,0.6-0.5h0c0,0,0,0,0,0c0,0,0,0,0.1-0.1
							c0,0,0,0,0.1,0c0.4-0.4,0.8-0.8,1-1c0.6-0.7,0.9-1.4,0.9-2.1c0.5,0,0.9,0.2,1.4,0.6c0.4,0.3,0.9,0.8,1.5,1.5
							c0.6,0.7,1.3,1.5,2.3,2.4c0.7,0.6,1.4,1.3,2.2,2.1l6.9,6.3c0.1-0.5,0.1-0.9,0-1.4c-1.4-1.9-4.2-4.6-8.2-8
							c-2.4-2-4.3-3.8-5.7-5.4c-0.2,0.6-0.5,1.2-0.8,1.9c-0.3,0.5-0.6,0.9-0.9,1.3c-0.3,0.4-0.7,0.8-1.2,1.3c0,0-0.1,0.1-0.1,0.1
							c-0.4,0.4-0.8,0.8-1.3,1.3l-5.1,4.7C138.7,313.8,137.1,315.2,136,316.2 M136.3,288.6c-0.1,0.1-0.2,0.1-0.2,0.2
							c-0.4,0.4-0.9,0.8-1.3,1.3c-0.1,0.1-0.2,0.1-0.2,0.2c0,0,0,0,0,0c0,0,0,0-0.1,0.1c-0.7,0.7-1.5,1.5-2.2,2.2c0,0,0,0,0,0
							c-2,2.1-4,4.3-5.9,6.5c0,0,0,0,0,0c-0.2,0.3-0.5,0.6-0.7,0.9c-0.1,0.1-0.1,0.1-0.2,0.2c0,0.1-0.1,0.3-0.2,0.4
							c-0.1,0.1-0.2,0.2-0.2,0.2c-0.1,0-0.2,0.1-0.2,0.1h0c-0.3,0.7-0.3,1.4-0.2,2.3c0.1,0.5,0.3,0.9,0.5,1.4l0.2-0.1
							c0.3-0.8,0.5-1.5,0.7-1.9c0.1-0.4,0.3-0.7,0.4-1c0.1-0.3,0.3-0.6,0.4-0.8c0,0,0,0,0-0.1c0.2-0.3,0.4-0.6,0.7-0.8
							c0.2-0.2,0.5-0.4,0.8-0.6c0.6-0.3,1.3-0.4,1.9-0.2c0.6,0.2,1.3,0.7,1.9,1.6c0.7,0.8,1.2,1.4,1.6,1.7c0.6,0.6,1.3,1,1.9,1.3
							c0.5,0.2,1,0.3,1.7,0.4c0,0,0,0,0,0h0c1.1,0.2,1.7,0.2,1.8,0.3c0.2,0,0.6,0.1,1,0.2c0.4,0.1,0.7,0.1,1,0
							c0.3-0.1,0.6-0.2,1-0.4c0.1-0.1,0.4-0.3,0.8-0.6c1.8-1.4,3.7-2.4,5.7-3.1c0.2-0.1,0.4-0.1,0.6-0.2c0,0,0.1,0,0.1,0
							c0,0,0,0,0,0c-0.2-0.3-0.5-0.6-0.7-0.9l-0.2,0.1c-1.3,0.1-2.2,0.2-2.9,0.3c-1.1,0.2-1.9,0.5-2.7,1c-0.2,0.2-0.7,0.6-1.4,1.2
							c-0.6,0.5-1.1,0.9-1.5,1.1c-0.6,0.3-1.3,0.4-2,0.3c-0.1,0-0.3,0-0.4-0.1c-0.6-0.1-1.1-0.3-1.6-0.6c-1.1-0.7-2-1.7-2.8-3.2
							c-0.7-1.4-0.9-2.7-0.6-3.9c0.2-0.7,0.6-1.4,1.1-1.9c0.5-0.6,1.2-1,1.9-1.3c1.3-0.5,2.7-0.6,4.4-0.4c1.1,0.2,2.6,0.6,4.4,1.4
							c2.2,0.8,3.6,1.4,4.3,1.6c1.6,0.5,3.2,0.7,4.7,0.5c1.7-0.2,3-0.8,4-1.8h0.1c0-0.3,0-0.6-0.1-0.9l-0.2,0
							c-1.7-0.7-4.3-1.3-7.7-1.7c-3.6-0.5-6.2-1-7.8-1.6c-1.8-0.6-2.8-0.9-2.9-1C137.8,288.5,137,288.4,136.3,288.6z"/>
						<path class="st26" d="M147.8,306.5C147.7,306.5,147.7,306.5,147.8,306.5L147.8,306.5c-0.2,0.2-0.4,0.3-0.6,0.5
							c-1,0.9-2.1,1.8-3.1,2.7c0,0,0,0,0,0c-1.4,1.3-2.8,2.6-4.2,3.9c0,0,0,0-0.1,0.1h0c0,0,0,0,0,0v0c0,0,0,0,0,0
							c-1.1,1.1-2.2,2.2-3.3,3.4c0.9,1.4,2,3,3.3,4.7c0.9,1.2,2.2,2.9,4.1,5.1c0.5,0.6,0.9,1,1.3,1.2c0.5,0.4,1.1,0.5,1.5,0.4
							c0.3-0.1,0.6-0.2,0.9-0.5c0.3-0.3,0.4-0.6,0.5-1c0.2-0.6,0.1-1.3-0.2-2.1c-0.2-0.7-0.7-1.5-1.4-2.5c-0.4-0.6-0.9-1.2-1.4-1.9
							c-1.5-1.8-2.5-3.3-2.8-4.4L142,316c0.1,0,0.1,0,0.2,0.1c2.2,1.6,4.2,3.3,6.1,5.1c0.9,0.9,1.8,1.8,2.7,2.7
							c0.5,0.6,0.9,0.9,1.1,1.1c0.4,0.4,0.8,0.7,1.3,0.9c0.5,0.3,1,0.5,1.5,0.5c0.6,0,1,0,1.5-0.3c0.5-0.2,0.8-0.6,1-1.2
							c0-0.1,0.1-0.3,0.1-0.4c-2.9-2.2-5.1-4.1-6.8-5.9c0,0-0.1-0.1-0.1-0.1c-2.3-2.4-4.3-5.2-5.9-8.3c2.1,2.8,4.3,5.4,6.5,7.8
							c1.9,2,3.9,3.8,6,5.5c0.8,0,1.5-0.1,2-0.3c0.4-0.1,0.7-0.3,1-0.5c0.3-0.3,0.5-0.6,0.6-0.9c0.1-0.2,0.1-0.5,0.1-0.9v0h-0.2
							c-4.6-4.9-8.6-9.4-12.1-13.6c1.6,1.1,3.7,3.1,6.3,6c2.6,2.9,4.6,4.9,6.2,6.1c1-0.3,1.8-1,2.4-1.9c0.3-0.5,0.5-0.9,0.6-1.3
							c0,0,0-0.1,0-0.1l-6.9-6.3c-0.8-0.8-1.6-1.5-2.2-2.1c-0.9-0.9-1.7-1.7-2.3-2.4c-0.6-0.7-1.1-1.2-1.5-1.5
							c-0.5-0.4-1-0.5-1.4-0.6c-0.1,0.7-0.4,1.4-0.9,2.1c-0.2,0.3-0.6,0.6-1,1C147.9,306.4,147.8,306.4,147.8,306.5
							C147.8,306.4,147.8,306.5,147.8,306.5 M126.8,301c-0.1,0.2-0.3,0.5-0.4,0.8c-0.1,0.3-0.3,0.6-0.4,1c-0.1,0.4-0.4,1-0.7,1.9
							l-0.2,0.1v0c0.2,0.3,0.4,0.7,0.6,1c0.5,0.6,1.1,1.2,1.8,1.9c0.5,0.4,1.1,0.9,2.1,1.6c2.1,1.8,4.2,4.1,6.4,7
							c1.1-1,2.7-2.4,4.7-4.2l5.1-4.7c0.5-0.5,0.9-0.9,1.3-1.3c0,0,0.1-0.1,0.1-0.1c0.5-0.5,0.9-0.9,1.2-1.3
							c0.4-0.4,0.7-0.9,0.9-1.3c0.4-0.6,0.6-1.2,0.8-1.9l-0.9-0.9c-0.2,0-0.4,0.1-0.6,0.2c-2,0.6-3.9,1.7-5.7,3.1
							c-0.4,0.3-0.7,0.6-0.8,0.6c-0.3,0.2-0.6,0.4-1,0.4c-0.3,0.1-0.6,0.1-1,0c-0.5-0.1-0.8-0.2-1-0.2c-0.1,0-0.7-0.1-1.8-0.3h0
							c0,0,0,0,0,0c-0.7-0.1-1.3-0.3-1.7-0.4c-0.6-0.2-1.3-0.7-1.9-1.3c-0.4-0.4-0.9-0.9-1.6-1.7c-0.7-0.9-1.3-1.4-1.9-1.6
							c-0.6-0.2-1.2-0.1-1.9,0.2c-0.3,0.2-0.6,0.4-0.8,0.6C127.2,300.3,127,300.6,126.8,301C126.8,300.9,126.8,300.9,126.8,301
							 M135.5,292.7c-0.7,0.3-1.4,0.7-1.9,1.3c-0.6,0.6-0.9,1.2-1.1,1.9c-0.3,1.2-0.1,2.5,0.6,3.9c0.7,1.4,1.6,2.5,2.8,3.2
							c0.5,0.3,1.1,0.5,1.6,0.6c0.1,0,0.3,0,0.4,0.1c0.7,0.1,1.4,0,2-0.3c0.4-0.2,1-0.6,1.5-1.1c0.7-0.6,1.2-1,1.4-1.2
							c0.7-0.5,1.6-0.8,2.7-1c0.7-0.1,1.6-0.2,2.9-0.3l0.2-0.1c-0.2-0.3-0.4-0.6-0.6-0.9c0.3-0.3,0.8-0.4,1.4-0.4
							c0.3,0.1,0.9,0.2,1.5,0.5c0.6,0.1,1.3,0.2,2.1,0c0.4-0.1,1.1-0.2,2.1-0.5c0.4-0.1,0.8-0.2,1-0.3c0.3-0.2,0.6-0.4,0.8-0.6
							s0.3-0.7,0.5-1.4c0.1-0.8,0.1-1.4,0.1-2.1h-0.1c-1,1-2.3,1.6-4,1.8c-1.5,0.2-3,0-4.7-0.5c-0.7-0.2-2.2-0.7-4.3-1.6
							c-1.8-0.7-3.3-1.2-4.4-1.4C138.3,292,136.8,292.2,135.5,292.7z"/>
						<path class="st27" d="M129.6,286.8c-0.7,0.1-1.4,0.4-2.1,0.8c-1,0.5-1.8,1.2-2.5,2c-0.7,0.8-1.3,1.8-1.6,2.8
							c-0.3,1-0.4,2.1-0.2,3.2c0.2,1.1,0.6,2.1,1.3,2.9c0.3,0.4,0.5,0.6,0.6,0.6c0.2,0.3,0.3,0.5,0.4,0.8c0,0.1,0,0.3,0,0.4
							c0.1-0.1,0.1-0.2,0.2-0.2c0.2-0.3,0.5-0.6,0.7-0.9c0,0,0,0,0,0c1.9-2.2,3.8-4.4,5.9-6.5c0,0,0,0,0,0c0.7-0.7,1.4-1.5,2.2-2.2
							c0,0,0,0,0.1-0.1l-0.2-0.2c-0.1-0.2-0.1-0.5-0.2-0.7c-0.5-0.6-0.9-1.1-1.1-1.3c-0.4-0.5-0.9-0.8-1.3-1
							C131.1,286.8,130.4,286.7,129.6,286.8z"/>
						<path class="st28" d="M127.4,287.6c0.7-0.4,1.4-0.6,2.1-0.8c0.8-0.1,1.5,0,2.2,0.3c0.5,0.2,0.9,0.5,1.3,1
							c0.2,0.3,0.6,0.7,1.1,1.3c-0.6-2.1-1.1-4.2-1.7-6.1l-0.3,0.1c-0.2-0.1-0.4-0.1-0.8-0.1c-1.5,0-2.9,0.3-4.4,1
							c-1.4,0.7-2.5,1.6-3.6,2.8c-0.9,1.2-1.7,2.5-2.2,4c0,0.1-0.1,0.3-0.1,0.5c0,0,0,0.1,0,0.1c-0.4,1.3-0.6,2.6-0.6,3.9
							c1.3,2,2.6,3.7,4.2,5.1c0,0,0.1,0.1,0.1,0.1c0,0,0,0,0.1,0l0.3-0.1c0.1-0.2,0.3-0.4,0.4-0.6c0-0.1,0-0.3,0-0.4
							c0-0.3-0.2-0.5-0.4-0.8c0-0.1-0.2-0.3-0.6-0.6c-0.7-0.8-1.1-1.8-1.3-2.9c-0.2-1.1-0.1-2.1,0.2-3.2c0.3-1,0.8-1.9,1.6-2.8
							C125.6,288.8,126.5,288.1,127.4,287.6 M122.5,258.3C122.5,258.3,122.5,258.2,122.5,258.3c-0.2-0.9-0.4-1.8-0.6-2.8
							c-0.7,1.7-1.5,3-2.4,4.1c-0.9,1.1-2,1.9-3.3,2.6c1.3-0.2,2.5-0.8,3.7-1.6C121.1,259.8,122,259,122.5,258.3 M122.8,259.3
							l0.1,0.6c-1.4,2-3.7,3.4-6.8,4.2c2.5-0.1,4.9-0.7,7.1-1.9l0.5,1c-1.9,1.4-4,2.3-6.3,2.8c2.5,0.1,4.9-0.5,7.1-1.7
							c-0.2-0.4-0.3-0.8-0.5-1.2c-0.1-0.2-0.1-0.3-0.2-0.5c-0.1-0.2-0.1-0.4-0.2-0.6C123.3,261.2,123,260.3,122.8,259.3z"/>
						<path class="st23" d="M119.2,239.7c-0.3-0.9-0.7-1.7-1.3-2.3c-0.7-0.7-1.4-0.9-2-0.6l-0.3-0.2c-2.3,2.4-4,5.4-5.1,8.9
							c-1.1,3.2-1.5,6.7-1.5,10.4c0,3.2,0.5,6.6,1.3,10.4c0.5,2.4,1.4,5.8,2.6,10.2c1.6,5.8,3.1,10.2,4.4,13.2c1,2.2,2,4.2,3.2,6
							c0-1.4,0.2-2.7,0.6-3.9c0,0,0-0.1,0-0.1c0-0.2,0.1-0.3,0.1-0.5c0.5-1.5,1.2-2.8,2.2-4c1-1.2,2.2-2.2,3.6-2.8
							c1.4-0.7,2.9-1.1,4.4-1c0.4,0,0.6,0,0.8,0.1l0.3-0.1c-1.2-4-2.6-7.5-4-10.6c-1.1-2.2-1.9-3.9-2.4-5c-0.6-1.3-1.1-2.4-1.6-3.4
							c-2.2,1.2-4.6,1.8-7.1,1.7c2.3-0.5,4.4-1.4,6.3-2.8l-0.5-1c-2.2,1.2-4.5,1.8-7.1,1.9c3.1-0.8,5.4-2.2,6.8-4.2l-0.1-0.6
							c0-0.2-0.1-0.4-0.1-0.6c0-0.1-0.1-0.3-0.1-0.4c-0.6,0.7-1.4,1.5-2.6,2.4c-1.2,0.8-2.4,1.4-3.7,1.6c1.3-0.7,2.3-1.6,3.3-2.6
							c1-1.1,1.8-2.4,2.4-4.1c-0.2-1.3-0.5-2.7-0.7-4.3C120.5,245.7,119.8,241.9,119.2,239.7z"/>
					</g>
				</g>
			</g>
			<g transform="matrix( 1, 0, 0, 1, 0,0) ">
				<g>
					<g id="Layer5_0_FILL_7_">
						<path class="st26" d="M40.3,297.1c-0.6-0.3-1.3-0.4-1.9-0.2c-0.6,0.2-1.3,0.7-1.9,1.6c-0.7,0.8-1.2,1.4-1.6,1.7
							c-0.6,0.6-1.3,1-1.9,1.3c-0.5,0.2-1,0.3-1.7,0.4c0,0,0,0,0,0h0c-1.1,0.2-1.7,0.2-1.8,0.3c-0.2,0-0.6,0.1-1,0.2
							c-0.4,0.1-0.7,0.1-1,0c-0.3-0.1-0.6-0.2-1-0.4c-0.1-0.1-0.4-0.3-0.8-0.6c-1.8-1.4-3.7-2.4-5.7-3.1c-0.2-0.1-0.4-0.1-0.6-0.2
							l-0.9,0.9c0.2,0.6,0.5,1.2,0.8,1.9c0.3,0.5,0.6,0.9,0.9,1.3c0.3,0.4,0.7,0.8,1.2,1.3c0,0,0.1,0.1,0.1,0.1
							c0.4,0.4,0.8,0.8,1.3,1.3l5.1,4.7c2.1,1.8,3.7,3.2,4.7,4.2c2.2-2.9,4.3-5.2,6.4-7c0.9-0.7,1.6-1.3,2.1-1.6
							c0.8-0.6,1.4-1.3,1.8-1.9c0.2-0.3,0.4-0.6,0.6-1v0l-0.2-0.1c-0.3-0.8-0.5-1.5-0.7-1.9c-0.1-0.4-0.3-0.7-0.4-1
							c-0.1-0.3-0.3-0.6-0.4-0.8c0,0,0,0,0-0.1c-0.2-0.3-0.4-0.6-0.7-0.8S40.6,297.3,40.3,297.1 M17.4,301.4
							c-0.4,0.3-0.9,0.8-1.5,1.5c-0.6,0.7-1.3,1.5-2.3,2.4c-0.7,0.6-1.4,1.3-2.2,2.1l-6.9,6.3c0,0,0,0.1,0,0.1
							c0.1,0.4,0.3,0.9,0.6,1.3c0.6,0.9,1.4,1.6,2.4,1.9c1.6-1.2,3.6-3.2,6.2-6.1c2.6-2.9,4.7-4.9,6.3-6c-3.5,4.1-7.6,8.6-12.1,13.6
							H7.7v0c0,0.4,0,0.7,0.1,0.9c0.1,0.3,0.3,0.6,0.6,0.9c0.3,0.2,0.6,0.4,1,0.5c0.6,0.2,1.2,0.3,2,0.3c2-1.7,4-3.5,6-5.5
							c2.3-2.4,4.4-4.9,6.5-7.8c-1.7,3.1-3.6,5.9-5.9,8.3c0,0-0.1,0.1-0.1,0.1c-1.6,1.7-3.9,3.7-6.8,5.9c0,0.1,0,0.2,0.1,0.4
							c0.2,0.5,0.5,0.9,1,1.2c0.4,0.2,0.9,0.3,1.5,0.3c0.5,0,1-0.2,1.5-0.5c0.4-0.2,0.8-0.5,1.3-0.9c0.2-0.2,0.6-0.6,1.1-1.1
							c0.9-0.9,1.8-1.9,2.7-2.7c1.9-1.8,3.9-3.5,6.1-5.1c0,0,0.1-0.1,0.2-0.1l-0.1,0.1c-0.4,1.1-1.3,2.6-2.8,4.4
							c-0.6,0.7-1,1.3-1.4,1.9c-0.7,1-1.1,1.8-1.4,2.5c-0.3,0.8-0.4,1.5-0.2,2.1c0.1,0.4,0.2,0.7,0.5,1c0.3,0.3,0.6,0.5,0.9,0.5
							c0.5,0.1,1,0,1.5-0.4c0.4-0.3,0.8-0.7,1.3-1.2c1.8-2.3,3.2-4,4.1-5.1c1.3-1.7,2.4-3.2,3.3-4.7c-1.1-1.2-2.2-2.3-3.3-3.4
							c0,0,0,0,0,0v0c0,0,0,0,0,0h0c0,0,0,0-0.1-0.1c-1.3-1.3-2.7-2.7-4.2-3.9c0,0,0,0,0,0c-1-0.9-2-1.8-3.1-2.7
							c-0.2-0.2-0.4-0.3-0.6-0.5h0c0,0,0,0,0,0c0,0,0,0-0.1-0.1c0,0,0,0-0.1,0c-0.4-0.4-0.8-0.8-1-1c-0.6-0.7-0.9-1.4-0.9-2.1
							C18.3,300.9,17.8,301.1,17.4,301.4 M11.3,291.5h-0.1c0,0.6,0,1.3,0.1,2.1c0.1,0.7,0.3,1.1,0.5,1.4c0.2,0.2,0.4,0.4,0.8,0.6
							c0.2,0.1,0.5,0.2,1,0.3c1,0.3,1.7,0.4,2.1,0.5c0.8,0.1,1.5,0.1,2.1,0c0.7-0.2,1.2-0.4,1.5-0.5c0.6,0,1.1,0.1,1.4,0.4
							c-0.2,0.3-0.4,0.6-0.6,0.9l0.2,0.1c1.3,0.1,2.2,0.2,2.9,0.3c1.1,0.2,1.9,0.5,2.7,1c0.2,0.2,0.7,0.6,1.4,1.2
							c0.6,0.5,1.1,0.9,1.5,1.1c0.6,0.3,1.3,0.4,2,0.3c0.1,0,0.3,0,0.4-0.1c0.6-0.1,1.1-0.3,1.6-0.6c1.1-0.7,2-1.7,2.8-3.2
							c0.7-1.4,0.9-2.7,0.6-3.9c-0.2-0.7-0.6-1.4-1.1-1.9c-0.5-0.6-1.2-1-1.9-1.3c-1.3-0.5-2.7-0.6-4.4-0.4
							c-1.1,0.2-2.6,0.6-4.4,1.4c-2.2,0.8-3.6,1.4-4.3,1.6c-1.6,0.5-3.2,0.7-4.7,0.5C13.6,293.2,12.3,292.5,11.3,291.5z"/>
						<path class="st25" d="M11.4,321.2c-0.2,0.3-0.3,0.7-0.2,1c2.9-2.2,5.1-4.1,6.8-5.9c0,0,0.1-0.1,0.1-0.1
							c2.3-2.4,4.3-5.2,5.9-8.3c-2.1,2.8-4.3,5.4-6.5,7.8C15.5,317.6,13.5,319.5,11.4,321.2C11.5,321.1,11.5,321.1,11.4,321.2
							L11.4,321.2 M7.7,318.5H8c4.6-4.9,8.6-9.4,12.1-13.6c-1.6,1.1-3.7,3.1-6.3,6c-2.6,2.9-4.6,4.9-6.2,6.1c0.1,0,0.2,0.1,0.3,0.1
							c0,0.3,0,0.6-0.1,1.2C7.8,318.4,7.8,318.5,7.7,318.5 M15.8,302.9c0.6-0.7,1.1-1.2,1.5-1.5c0.5-0.4,1-0.5,1.4-0.6
							c0.1,0.7,0.4,1.4,0.9,2.1c0.2,0.3,0.6,0.6,1,1c0,0,0,0,0.1,0c0,0,0,0,0.1,0.1c0,0,0,0,0,0h0c0.2,0.2,0.4,0.3,0.6,0.5
							c1,0.9,2.1,1.8,3.1,2.7c0,0,0,0,0,0c1.4,1.3,2.8,2.6,4.2,3.9c0,0,0,0,0.1,0.1h0c0,0,0,0,0,0v0c0,0,0,0,0,0
							c1.1,1.1,2.2,2.2,3.3,3.4c0.1-0.2,0.2-0.3,0.3-0.5c0-0.1,0-0.2,0-0.3c0,0,0,0,0,0c0,0,0.1-0.1,0.1-0.1c-1.1-1-2.7-2.4-4.7-4.2
							l-5.1-4.7c-0.5-0.5-0.9-0.9-1.3-1.3c0,0-0.1-0.1-0.1-0.1c-0.5-0.5-0.9-0.9-1.2-1.3c-0.4-0.4-0.7-0.9-0.9-1.3
							c-0.4-0.6-0.6-1.2-0.8-1.9c-1.5,1.6-3.4,3.4-5.7,5.4c-4.1,3.4-6.8,6.1-8.2,8c-0.1,0.4-0.1,0.9,0,1.4l6.9-6.3
							c0.8-0.8,1.6-1.5,2.2-2.1C14.5,304.4,15.3,303.6,15.8,302.9 M29.8,286.3c-0.1,0-1.1,0.4-2.9,1c-1.6,0.6-4.2,1.1-7.8,1.6
							c-3.4,0.5-6,1.1-7.7,1.7l-0.2,0c0,0.3,0,0.6-0.1,0.9h0.1c1,1,2.3,1.6,4,1.8c1.5,0.2,3,0,4.7-0.5c0.7-0.2,2.2-0.7,4.3-1.6
							c1.8-0.7,3.3-1.2,4.4-1.4c1.7-0.3,3.2-0.1,4.4,0.4c0.7,0.3,1.4,0.7,1.9,1.3c0.6,0.6,0.9,1.2,1.1,1.9c0.3,1.2,0.1,2.5-0.6,3.9
							c-0.7,1.4-1.6,2.5-2.8,3.2c-0.5,0.3-1.1,0.5-1.6,0.6c-0.1,0-0.3,0-0.4,0.1c-0.7,0.1-1.4,0-2-0.3c-0.4-0.2-0.9-0.6-1.5-1.1
							c-0.7-0.6-1.2-1-1.4-1.2c-0.7-0.5-1.6-0.8-2.7-1c-0.7-0.1-1.6-0.2-2.9-0.3l-0.2-0.1c-0.2,0.3-0.4,0.6-0.7,0.9c0,0,0,0,0,0
							c0,0,0.1,0,0.1,0c0.2,0,0.4,0.1,0.6,0.2c2,0.6,3.9,1.7,5.7,3.1c0.4,0.3,0.7,0.6,0.8,0.6c0.3,0.2,0.6,0.4,1,0.4
							c0.3,0.1,0.6,0.1,1,0c0.5-0.1,0.8-0.2,1-0.2c0.1,0,0.7-0.1,1.8-0.3h0c0,0,0,0,0,0c0.7-0.1,1.3-0.3,1.7-0.4
							c0.6-0.2,1.3-0.7,1.9-1.3c0.4-0.4,0.9-0.9,1.6-1.7c0.7-0.9,1.3-1.4,1.9-1.6c0.6-0.2,1.2-0.1,1.9,0.2c0.3,0.2,0.6,0.4,0.8,0.6
							s0.5,0.5,0.7,0.8c0,0,0,0,0,0.1c0.1,0.2,0.3,0.5,0.4,0.8c0.1,0.3,0.3,0.6,0.4,1c0.1,0.4,0.4,1,0.7,1.9l0.2,0.1
							c0.2-0.5,0.4-0.9,0.5-1.4c0.2-0.8,0.1-1.6-0.2-2.3h0c-0.1,0-0.2,0-0.2-0.1c-0.1,0-0.2-0.1-0.2-0.2c-0.1-0.1-0.2-0.3-0.2-0.4
							c-0.1-0.1-0.1-0.2-0.2-0.2c-0.2-0.3-0.5-0.6-0.7-0.9c0,0,0,0,0,0c-1.9-2.2-3.8-4.4-5.9-6.5c0,0,0,0,0,0
							c-0.7-0.7-1.4-1.5-2.2-2.2c0,0,0,0-0.1-0.1c0,0,0,0,0,0c-0.1-0.1-0.2-0.1-0.2-0.2c-0.4-0.4-0.8-0.8-1.3-1.3
							c-0.1-0.1-0.2-0.1-0.2-0.2C31.6,286,30.8,286.1,29.8,286.3z"/>
						<path class="st27" d="M35.5,285.8c-0.2,0.3-0.6,0.7-1.1,1.3c0,0.2-0.1,0.5-0.2,0.7l-0.2,0.2c0,0,0,0,0.1,0.1
							c0.7,0.7,1.5,1.5,2.2,2.2c0,0,0,0,0,0c2,2.1,4,4.3,5.9,6.5c0,0,0,0,0,0c0.2,0.3,0.5,0.6,0.7,0.9c0.1,0.1,0.1,0.1,0.2,0.2
							c0-0.1,0-0.3,0-0.4c0-0.3,0.2-0.5,0.4-0.8c0-0.1,0.2-0.3,0.6-0.6c0.7-0.8,1.1-1.8,1.3-2.9c0.2-1.1,0.1-2.1-0.2-3.2
							c-0.3-1-0.8-1.9-1.6-2.8c-0.7-0.8-1.6-1.5-2.5-2c-0.7-0.4-1.4-0.6-2.1-0.8c-0.8-0.1-1.5,0-2.2,0.3
							C36.4,285,36,285.3,35.5,285.8z"/>
						<path class="st28" d="M36.5,281.1l-0.3-0.1c-0.6,1.9-1.2,4-1.7,6.1c0.5-0.6,0.9-1.1,1.1-1.3c0.4-0.5,0.9-0.8,1.3-1
							c0.6-0.3,1.4-0.4,2.2-0.3c0.7,0.1,1.4,0.4,2.1,0.8c1,0.5,1.8,1.2,2.5,2c0.7,0.8,1.3,1.8,1.6,2.8c0.3,1,0.4,2.1,0.2,3.2
							c-0.2,1.1-0.6,2.1-1.3,2.9c-0.3,0.4-0.5,0.6-0.6,0.6c-0.2,0.3-0.3,0.5-0.4,0.8c0,0.1,0,0.3,0,0.4c0.1,0.2,0.3,0.4,0.4,0.6
							l0.3,0.1c0,0,0,0,0.1,0c0,0,0.1-0.1,0.1-0.1c1.5-1.5,2.9-3.2,4.2-5.1c0-1.4-0.2-2.7-0.6-3.9c0,0,0-0.1,0-0.1
							c0-0.2-0.1-0.3-0.1-0.5c-0.5-1.5-1.2-2.8-2.2-4c-1-1.2-2.2-2.2-3.6-2.8c-1.4-0.7-2.9-1.1-4.4-1
							C36.9,280.9,36.6,281,36.5,281.1 M44.9,260.8l0.5-1c2.2,1.2,4.5,1.8,7.1,1.9c-3.1-0.8-5.4-2.2-6.8-4.2l0.1-0.6
							c-0.2,1-0.5,1.9-0.8,2.8c-0.1,0.2-0.1,0.4-0.2,0.6c-0.1,0.2-0.1,0.3-0.2,0.5c-0.1,0.4-0.3,0.8-0.5,1.2
							c2.2,1.2,4.6,1.8,7.1,1.7C48.9,263.2,46.8,262.2,44.9,260.8 M52.3,259.8c-1.3-0.7-2.3-1.6-3.3-2.6c-1-1.1-1.8-2.4-2.4-4.1
							c-0.2,1-0.4,1.9-0.6,2.7c0,0,0,0,0,0.1c0.6,0.7,1.4,1.5,2.6,2.4C49.8,259.1,51.1,259.6,52.3,259.8z"/>
						<path class="st23" d="M50.7,235L50.7,235c-0.5,0.5-0.9,1.1-1.1,1.9c-0.1,0.1-0.1,0.3-0.1,0.4c-0.6,2.2-1.3,6.1-2.1,11.6
							c-0.2,1.5-0.5,3-0.7,4.3c0.7,1.7,1.5,3,2.4,4.1c0.9,1.1,2,1.9,3.3,2.6c-1.3-0.2-2.5-0.8-3.7-1.6c-1.2-0.8-2-1.6-2.6-2.4
							c0,0.1-0.1,0.3-0.1,0.4l-0.1,0.6l-0.1,0.6c1.4,2,3.7,3.4,6.8,4.2c-2.5-0.1-4.9-0.7-7.1-1.9l-0.5,1c1.9,1.4,4,2.3,6.3,2.8
							c-2.5,0.1-4.9-0.5-7.1-1.7c-0.4,1-0.9,2.2-1.6,3.4c-0.5,1.1-1.4,2.8-2.4,5c-1.4,3.1-2.8,6.6-4,10.6l0.3,0.1
							c0.2-0.1,0.4-0.1,0.8-0.1c1.5,0,2.9,0.3,4.4,1c1.4,0.7,2.5,1.6,3.6,2.8c0.9,1.2,1.7,2.5,2.2,4c0,0.1,0.1,0.3,0.1,0.5
							c0,0,0,0.1,0,0.1c0.4,1.3,0.6,2.6,0.6,3.9c1.2-1.8,2.2-3.8,3.2-6c1.3-3,2.7-7.4,4.4-13.2c1.3-4.4,2.1-7.8,2.6-10.2
							c0.8-3.8,1.2-7.3,1.3-10.4c0.1-3.7-0.4-7.2-1.5-10.4c-1.1-3.5-2.8-6.5-5.1-8.9l-0.3,0.2C52.1,234.1,51.4,234.3,50.7,235z"/>
					</g>
				</g>
			</g>
			<g transform="matrix( 1, 0, 0, 1, 0,0) ">
				<g>
					<g id="Layer4_0_FILL_7_">
						<path class="st29" d="M72.4,224.2c0.1,0.1,0.3,0.3,0.5,0.5c0.9,0.9,1.6,1.5,2.1,1.7c0.4,0.3,1.2,0.5,2.3,0.8l3,1
							c0,0,0,0,0.1,0h0c0.6,0,1.3,0.1,1.9,0.1c0,0,0,0,0,0c0.3,0,0.6,0,0.9,0c0.9,0,1.9,0,2.8-0.1c0.2,0,0.5,0,0.7,0
							c1.4-0.2,2.7-0.8,4-1.5c1.3-0.8,2.3-1.8,3.1-3c-0.9,0.6-1.7,1.1-2.7,1.5c0,0,0,0-0.1,0c0,0,0,0-0.1,0.1
							c-0.8,0.4-1.7,0.7-2.6,1c0,0-0.1,0-0.1,0c-1.6,0.4-3.3,0.7-5.1,0.7c-0.3,0-0.6,0-0.9,0c-0.7,0-1.4-0.1-2-0.2
							c-0.4-0.1-0.9-0.1-1.3-0.2C76.6,226.3,74.4,225.4,72.4,224.2z"/>
						<path class="st30" d="M61.6,216.1c-3-1.6-5.7-3.9-7.9-7c1.8,3.7,4,6.8,6.6,9.3c0.2,0.1,0.3,0.3,0.5,0.5
							c0.1,0.1,0.2,0.2,0.3,0.2c0.8,0.7,1.5,1.2,2.3,1.7c0.3,0.2,0.6,0.4,1,0.5c0.5,0.2,0.9,0.4,1.4,0.6c1.9,0.6,3.5,0.5,5-0.2
							c0.2,0.5,0.5,1,0.9,1.6c0.2,0.2,0.4,0.5,0.8,0.9c0,0,0,0,0,0v0c2,1.2,4.2,2.1,6.6,2.6c0.4,0.1,0.8,0.1,1.3,0.2
							c0.7,0.1,1.4,0.1,2,0.2c0.3,0,0.6,0,0.9,0c1.8,0,3.5-0.2,5.1-0.7c0,0,0.1,0,0.1,0c0.9-0.3,1.7-0.6,2.6-1c0,0,0,0,0.1-0.1
							c0,0,0,0,0.1,0c0.9-0.4,1.8-1,2.7-1.5c0.1-0.2,0.2-0.3,0.3-0.4c0,0,0-0.1,0-0.1c0,0,0-0.1,0.1-0.1c0.3,0.6,0.9,1,1.7,1.2
							c0.7,0.2,1.4,0.1,2.1-0.1c0.6-0.3,1.2-0.7,1.8-1.2c0-0.1,0.2-0.2,0.4-0.4c0.5-0.6,1.4-1.7,2.6-3.4c-1.2,1.2-2.8,1.8-4.6,2
							c-1.2,0.1-2.2,0-3.2-0.4c-0.1,0-0.1,0-0.2-0.1l-1.5-0.2c-0.1,0.6-0.3,1.2-0.8,1.8l0,0c0,0,0,0,0,0.1c-0.5,0.6-1.2,1.2-2.1,1.5
							c-0.7,0.3-1.5,0.5-2.5,0.6c-0.6,0.1-1.5,0.1-2.6,0.1c-1.1,0-2.1,0-2.9-0.1c-0.4,0-0.7-0.1-1-0.1c-0.7-0.1-1.4-0.2-2-0.3
							c-0.6-0.2-1.2-0.4-1.7-0.6c-1-0.4-1.8-1-2.5-1.8c-0.2-0.2-0.4-0.4-0.5-0.6c-0.2-0.3-0.5-0.7-0.6-1c0,0,0-0.1,0-0.1
							c0,0,0,0,0,0c-0.3-0.8-0.5-1.6-0.4-2.4c-1,0.3-2.1,0.5-3.1,0.5c-2.5,0.2-5.1-0.3-7.6-1.4c-0.2-0.1-0.4-0.2-0.6-0.2
							C62,216.4,61.8,216.2,61.6,216.1z"/>
						<path class="st31" d="M83.2,214.3c-0.3,0-0.7,0-1,0c-1.4,0.2-2.7,0.6-3.8,1.2c-0.9,0.5-1.8,1.2-2.7,2c0,0,0,0,0,0l0,0
							c0,0,0,0-0.1,0.1c0,0,0,0,0,0h0c-0.1,0.1-0.2,0.2-0.3,0.2c-0.1,0.1-0.1,0.1-0.1,0.2l-0.3,0.3c-0.2,0.2-0.3,0.4-0.4,0.7
							c0,0.1-0.1,0.3-0.3,0.8c0,0,0,0,0,0c0,0,0,0,0,0.1c0.2,0.4,0.4,0.7,0.6,1c0.2,0.2,0.3,0.4,0.5,0.6c0.7,0.7,1.5,1.3,2.5,1.8
							c0.5,0.2,1.1,0.5,1.7,0.6c0.6,0.1,1.3,0.3,2,0.3c0.3,0,0.6,0.1,1,0.1c0.8,0,1.7,0.1,2.9,0.1c1.2,0,2,0,2.6-0.1
							c1-0.1,1.8-0.3,2.5-0.6c0.8-0.4,1.5-0.9,2.1-1.5c0,0,0,0,0-0.1l0,0c0.4-0.6,0.7-1.2,0.8-1.8c0-0.2,0-0.3,0-0.5c0,0,0,0,0,0
							c0,0,0,0,0.1,0.1c0-0.1,0-0.1,0-0.3c0-0.1-0.1-0.2-0.1-0.4c0-0.2,0-0.3-0.1-0.6c-0.1-0.3-0.2-0.5-0.4-0.7
							c-2.1-1.8-4.3-3-6.5-3.5c0,0-0.1,0-0.1,0C85.2,214.4,84.2,214.3,83.2,214.3 M87.9,217.3c0.4,0.3,0.7,0.6,0.9,1
							c0.2,0.4,0.2,0.7,0,0.9c-0.2,0.2-0.4,0.3-0.7,0.1c-0.1,0-0.3-0.2-0.6-0.4c-0.7-0.7-1.3-1.2-1.7-1.7c-0.1-0.1-0.2-0.2-0.3-0.3
							c0-0.1,0-0.4,0.1-0.7c0,0,0,0,0-0.1c0.2,0,0.3,0,0.4,0.1c0.1,0,0.2,0.1,0.2,0.1c0.1,0,0.3,0.1,0.5,0.2
							C87.1,216.9,87.6,217.1,87.9,217.3z"/>
						<path class="st32" d="M88.7,218.4c-0.2-0.4-0.5-0.8-0.9-1c-0.3-0.2-0.7-0.5-1.3-0.7c-0.2-0.1-0.3-0.1-0.5-0.2
							c-0.3-0.1-0.5-0.1-0.6-0.1c-0.1,0.3-0.2,0.6-0.1,0.7c0,0,0.1,0.1,0.3,0.3c0.5,0.5,1,1,1.7,1.7c0.3,0.2,0.5,0.4,0.6,0.4
							c0.3,0.1,0.5,0.1,0.7-0.1C88.9,219.1,88.9,218.8,88.7,218.4z"/>
						<path class="st25" d="M82.2,214.3c0.3,0,0.7,0,1,0c1,0,2,0.1,3,0.3c0,0,0.1,0,0.1,0c2.3,0.5,4.4,1.7,6.5,3.5
							c0.1,0.1,0.2,0.1,0.3,0.2c0.2-0.1,0.3-0.3,0.3-0.6c0-0.3,0-0.5-0.1-0.7c-0.2-0.4-0.6-0.7-1.1-1c-1.7-1.1-3-1.8-4.1-2.1
							c-1.3-0.5-3-0.7-5-0.7c-0.2,0-0.3,0-0.5,0c-1.8,0.1-3.3,0.5-4.6,1c-1.6,0.8-2.7,1.9-3.3,3.2c0.1,0.1,0.2,0.2,0.4,0.3
							c0.1,0,0.1,0,0.2,0h0h0c0,0,0.1,0,0.1-0.1l0,0c0,0,0,0,0,0c0.9-0.8,1.8-1.5,2.7-2C79.5,214.9,80.8,214.5,82.2,214.3
							 M115.3,195.5l-0.2-1.3c-0.9,6.9-2.2,11.9-4,14.8c-1.4,2.2-3.1,4.5-4.9,6.8c-0.4,0.4-0.7,0.8-1.1,1.3
							c-0.2,0.3-0.5,0.6-0.8,0.9c-0.5,0.5-1,0.9-1.5,1.3c-1.3,1.7-2.1,2.8-2.6,3.4c-0.2,0.2-0.3,0.3-0.4,0.4c-0.6,0.6-1.2,1-1.8,1.2
							c-0.7,0.3-1.4,0.3-2.1,0.1c-0.8-0.2-1.3-0.6-1.7-1.2c0,0,0,0.1-0.1,0.1c0,0,0,0,0,0.1c-0.1,0.1-0.2,0.3-0.3,0.4
							c-0.8,1.2-1.8,2.2-3.1,3c-1.3,0.8-2.6,1.3-4,1.5c1.6-0.1,3.2-0.3,4.7-0.6c0.9-0.2,1.8-0.4,2.7-0.7v0l0,0c1.5-0.5,3-1,4.3-1.7
							c1.4-0.7,2.8-1.6,4-2.5c2-1.5,3.8-3.3,5.5-5.4c0.3-0.4,0.6-0.8,0.8-1.1C113.4,210.1,115.6,203.2,115.3,195.5z"/>
						<path class="st33" d="M45.1,185.4c0.1-1.6,0.3-3.2,0.5-4.7c-0.2-0.5-0.5-0.9-0.9-1.3l-4.2,1.3
							C41.9,180.6,43.5,182.1,45.1,185.4z"/>
						<path class="st34" d="M41.3,184.2l0.6,4l0.8,5.7c0.8,0.7,1.6,1.2,2.5,1.3c-0.1-1.2-0.1-2.5-0.1-3.7
							C43.4,185.5,42.2,183.1,41.3,184.2z"/>
						<path class="st35" d="M41.9,188.2C41.9,188.2,41.9,188.2,41.9,188.2l-0.6-4c0.9-1.1,2.1,1.3,3.7,7.3c0-0.8-0.1-1.5-0.1-2.2
							c0,0,0-0.1,0-0.1c0,0,0-0.1,0-0.2c0,0,0-0.1,0-0.1c0-1.2,0.1-2.3,0.1-3.5c-1.7-3.3-3.2-4.9-4.6-4.7c0,0-0.1,0-0.1,0.1
							c-0.2,0-0.5,0.1-0.8,0.3c-0.4,1-0.4,2.1,0,3.2C40,185.6,40.8,186.8,41.9,188.2z"/>
						<path class="st36" d="M44.8,179.5c-0.9-1-2.4-1.7-4.4-2.2c-2.4,1.2-3,3.7-1.9,7.5c0.3,1.1,0.8,2.4,1.5,3.8
							c0.8,2.5,1.7,4.3,2.8,5.4l-0.8-5.7c0,0,0,0,0,0c-1.2-1.4-1.9-2.7-2.3-3.8c-0.4-1.2-0.4-2.2,0-3.2c0.3-0.2,0.5-0.3,0.8-0.3
							c0.1,0,0.1,0,0.1-0.1L44.8,179.5z"/>
						<path class="st37" d="M56.5,134.6c0,0,0.1-0.1,0.1-0.1c-2.5,1.5-4.5,3.8-6,6.8c-0.7,1.5-1.3,3.1-1.7,5l-0.5,12.8
							c0.2,1.6,0.3,3.2,0.3,5v0c0,2-0.2,4-0.5,6.1c0,0,0,0,0,0.1c0,0.1,0,0.2-0.1,0.3l0,0.1c0,0.1-0.1,0.2-0.1,0.2
							c-0.5,3.2-1.4,6.4-2.5,9.9c-0.2,1.5-0.4,3.1-0.5,4.7c-0.1,1.1-0.1,2.3-0.1,3.5c0,0,0,0.1,0,0.1c0,0.1,0,0.1,0,0.2
							c0,0,0,0.1,0,0.1c0,0.7,0,1.5,0.1,2.2c0,1.2,0,2.5,0.1,3.7c1,6.1,2.7,11.3,5.1,15.7c2.3,4.2,5.1,7.6,8.6,10.2
							c0.9,0.7,1.9,1.4,3,2h0c0,0,0,0,0,0c0,0,0.1,0.1,0.1,0.1h0c1.6,0.9,3.4,1.8,5.3,2.4c0.6,0.2,1.2,0.4,1.8,0.6
							c0.5,0.1,1,0.3,1.6,0.4c2.9,0.8,6.1,1.3,9.5,1.5l-3-1c-1.1-0.3-1.9-0.6-2.3-0.8c-0.5-0.3-1.2-0.8-2.1-1.7
							c-0.2-0.2-0.3-0.3-0.5-0.5v0c0,0,0,0,0,0c-0.3-0.3-0.6-0.6-0.8-0.9c-0.4-0.6-0.7-1.1-0.9-1.6c-1.4,0.7-3.1,0.8-5,0.2
							c-0.5-0.1-0.9-0.3-1.4-0.6c-0.3-0.1-0.7-0.3-1-0.5c-0.8-0.5-1.5-1-2.3-1.7c-0.1-0.1-0.2-0.2-0.3-0.2c-0.1-0.2-0.3-0.3-0.5-0.5
							c-2.6-2.5-4.8-5.6-6.6-9.3c-0.6-1.2-1.1-2.4-1.6-3.7c-1.5-4-2.9-9.4-4.1-16c0,0,0,0,0-0.1l0,0l0.3,0c-0.1-1.8-0.1-4.2,0.1-7.2
							c0.2-3,0.6-5.2,1.1-6.6c0.6-1.4,1-3,1.3-4.8c0.3-1.9,0.4-3.3,0.2-4.2c-0.1-0.3-0.1-0.6-0.1-0.8c-0.1-1.1,0.1-2.4,0.4-4
							c0-0.2,0.1-0.4,0.1-0.6c0,0,0,0,0,0c0.1-0.7,0.3-1.2,0.3-1.7c0.2-1,0.3-1.5,0.3-1.6c0.2-1.5,0.2-3.8,0-6.8
							c-0.2-3.1-0.2-5.4-0.1-6.8C52.5,140.7,53.9,137.4,56.5,134.6z"/>
						<path class="st38" d="M57.8,123.9C57.7,123.9,57.7,123.9,57.8,123.9c-1.2,0.6-2,1.5-2.7,2.5c0.6,0,1.2,0,1.8,0.2
							c0.5,0.2,1.1,0.4,2,0.8c1.3,0.6,2.2,1.2,2.8,1.6c0,0,0,0,0,0c0.3,0.2,0.6,0.5,0.9,0.8c0.6,0.6,1.2,1.4,1.8,2.4
							c1.5,0,3.1,0,4.9,0.3c-0.5-1.3-1.3-2.4-2.4-3.5c-0.2-0.1-0.3-0.3-0.5-0.5c-0.9-0.8-2.3-1.7-4-2.9c-1-0.7-1.8-1.1-2.6-1.5
							C59.2,124,58.5,123.9,57.8,123.9 M95.4,200c0.1,0.1,0.3,0.2,0.4,0.2c0.2,0,0.3,0,0.4-0.2c0.1-0.1,0.2-0.2,0.2-0.4
							c0-0.2,0-0.3-0.2-0.4c-0.1-0.1-0.2-0.2-0.4-0.2c-0.1,0-0.3,0.1-0.4,0.2c-0.1,0.1-0.2,0.2-0.2,0.4
							C95.2,199.7,95.3,199.9,95.4,200 M110.8,164.7c-0.1-0.1-0.2-0.2-0.4-0.2c-0.2,0-0.3,0-0.4,0.1c-0.1,0.1-0.2,0.2-0.2,0.4
							c0,0.1,0,0.3,0.1,0.4c0.1,0.1,0.2,0.2,0.4,0.2c0.2,0,0.3,0,0.4-0.1c0.1-0.1,0.2-0.2,0.2-0.4
							C110.9,164.9,110.8,164.8,110.8,164.7 M108.9,129C108.8,129,108.8,129,108.9,129c-0.8,0-1.5,0-2.3,0
							c-9.8-16.3-22.7-21.8-38.6-16.6c8.3,0.6,15.1,2.3,20.1,5.1c5.1,2.7,9.1,6.3,12.2,10.9c-3.1-4.6-7.2-8.2-12.2-10.9
							c-5.1-2.7-11.8-4.4-20.1-5.1c-1.8,0.6-3.6,1.3-5.5,2.2c1.6,0.1,3.3,0.3,5,0.6c2,0.3,4.1,0.8,6.1,1.4c0.3,0.1,0.5,0.2,0.8,0.2
							c0.6,0.2,1.3,0.4,1.9,0.6c0,0,0.1,0,0.1,0c3.7,1.3,7.3,3.1,10.6,5.2c2.6,1.8,5.9,4.3,9.9,7.7c-3.9-3.4-7.2-6-9.9-7.7
							c-3.3-2.1-6.9-3.9-10.6-5.2c0,0,0,0-0.1,0c-0.6-0.2-1.2-0.4-1.9-0.6c-0.3-0.1-0.5-0.2-0.8-0.2c-2-0.6-4.1-1.1-6.1-1.4
							c-1.7-0.3-3.4-0.5-5-0.6c-1.9,0.9-3.9,1.9-5.8,3c1.8-0.2,3.6-0.2,5.4,0c1.6,0.1,3.2,0.5,4.8,1c-1.6-0.5-3.2-0.8-4.8-1
							c-1.8-0.2-3.6-0.2-5.4,0c-0.7,0.4-1.5,0.9-2.2,1.4c0,0,0,0,0,0c-2.7,1.7-5.4,3.5-8.1,5.7c-0.1,0.1-0.2,0.3-0.3,0.4
							c0,0.1-0.1,0.2-0.1,0.3c0,0,0,0,0,0c-0.2,0.6-0.5,1.4-0.8,2.4c-0.1,0.2-0.2,0.5-0.3,0.8c-0.7,2.4-1,4.2-1.1,5.5
							c0-1.3,0.4-3.1,1.1-5.5c0.1-0.3,0.2-0.6,0.3-0.8c0.3-1.1,0.6-1.9,0.8-2.4c0,0,0,0,0,0c0-0.1,0.1-0.2,0.1-0.3
							c-0.1,0.1-0.1,0.2-0.2,0.3c-0.5,0.7-1,1.3-1.4,2c-3.2,4.7-5.5,9.7-6.8,14.9c0,0,0,0,0,0.1c-1.6,6.4-1.9,13.2-0.8,20.4
							c0,0,0,0,0,0c0,0,0,0,0,0c0,0,0,0,0,0.1c0,0.3,0.1,0.6,0.1,0.9c0.2,1.1,0.4,2.2,0.6,3.3c0,0,0,0,0,0.1c0.7,3.2,1.6,6.5,2.8,10
							c2,0.5,3.5,1.2,4.4,2.2c0.4,0.4,0.7,0.8,0.9,1.3c1.2-3.4,2-6.7,2.5-9.9c0-0.1,0-0.2,0.1-0.4c0-0.1,0-0.2,0.1-0.3
							c0,0,0-0.1,0-0.1c0.3-2.1,0.4-4.1,0.5-6.1v0c0-1.7-0.1-3.4-0.3-5l0.5-12.8c0.5-1.9,1-3.5,1.7-5c1.4-3.1,3.4-5.4,6-6.8
							c1.1-0.7,2.3-1.2,3.6-1.5h0c1.3-0.4,2.7-0.6,4.3-0.6c-0.6-0.9-1.2-1.7-1.8-2.4c-0.3-0.3-0.6-0.6-0.9-0.8c0,0,0,0,0,0
							c-0.6-0.5-1.5-1-2.8-1.6c-0.9-0.4-1.6-0.7-2-0.8c-0.7-0.2-1.3-0.3-1.8-0.2c-0.1,0.1-0.1,0.2-0.2,0.3c-0.2,0.4-0.4,0.7-0.5,1.1
							c0.3,0,0.7,0.2,1.1,0.4c1,0.4,1.9,0.9,2.8,1.6c0.4,0.3,0.7,0.6,1.1,1c0.2,0.3,0.4,0.5,0.4,0.6c0,0,0.1,0.1,0.1,0.1
							c0.1,0.3,0.2,0.6,0.2,1.2c-0.1-0.5-0.1-0.9-0.2-1.2c0-0.1-0.1-0.1-0.1-0.1c0-0.1-0.2-0.3-0.4-0.6c-0.3-0.4-0.7-0.7-1.1-1
							c-0.9-0.7-1.8-1.2-2.8-1.6c-0.4-0.2-0.8-0.3-1.1-0.4c-0.3,0.9-0.4,1.8-0.2,2.7c-0.2-0.9-0.2-1.8,0.2-2.7
							c-0.3-0.1-0.6-0.1-0.9,0c0.3-0.1,0.6-0.1,0.9,0c0.1-0.4,0.3-0.7,0.5-1.1c0-0.1,0.1-0.2,0.2-0.3c-0.1,0-0.1,0-0.2,0
							c0.1,0,0.1,0,0.2,0c0.7-1.1,1.5-1.9,2.6-2.5c0,0,0,0,0.1,0c-0.3,0-0.5,0-0.7,0c0.2,0,0.5,0,0.7,0c1.1-0.6,2.3-1,3.8-1.2
							c0.7-0.1,1.5-0.2,2.5-0.2c0.4,0,0.9,0,1.5-0.1c0.5,0,0.9,0,1.2,0c0.6,0,1.1,0,1.5,0.1c1,0.1,1.9,0.2,2.7,0.5
							c2.4,0.6,4.3,2,5.9,4.1c0,0,0,0,0.1,0.1c0.8,1,1.3,2.1,1.7,3.2c0.3,1.1,0.5,2.2,0.5,3.4c0-1.2-0.2-2.3-0.5-3.4
							c-0.4-1.1-1-2.2-1.7-3.2c0,0,0,0-0.1-0.1c-1.6-2.1-3.5-3.4-5.9-4.1c-0.8-0.2-1.7-0.4-2.7-0.5c-0.4,0-0.8,0-1.5-0.1
							c-0.4,0-0.8,0-1.2,0c-0.6,0-1,0-1.5,0.1c-1,0-1.9,0.1-2.5,0.2c-1.5,0.2-2.7,0.6-3.8,1.2c0.7,0,1.4,0.1,2.1,0.4
							c0.8,0.3,1.7,0.8,2.6,1.5c1.8,1.1,3.1,2.1,4,2.9c0.1,0.2,0.3,0.3,0.5,0.5c1.1,1.1,1.9,2.3,2.4,3.5c1.4,0.2,2.8,0.5,4.4,0.9
							c0.6,0.1,1.1,0.2,1.7,0.2c0,0,0-0.1,0-0.1c-0.1-1.5-0.6-3.1-1.6-4.5c-0.8-1.3-2.1-2.5-3.7-3.7c-2.2-1.8-4.2-2.5-6-2.2
							c1.8-0.3,3.8,0.4,6,2.2c1.6,1.2,2.8,2.4,3.7,3.7c1,1.5,1.6,3,1.6,4.5c0,0,0,0.1,0,0.1c1.2,0.1,2.5,0.3,3.7,0.3
							c3.2,0.1,6.3,0,9.2-0.5c3.1-0.5,5.9-1.3,8.7-2.4h0c0.6-0.2,1.3-0.5,1.9-0.8c0.6-0.3,1.2-0.6,1.8-0.9l0,0
							c0.2-0.1,0.3-0.1,0.5-0.2c1.5,0.5,2.8,1.1,4.1,2c0.6,0.4,1.1,0.8,1.6,1.3c1.6,1.5,3,3.5,4.1,5.8c1,2.1,1.7,4.6,2.3,7.4
							c0,0,0,0,0,0.1c-1.2,6.2-1.6,12.3-1.3,18.6v0c0.1,2.1,0.3,4.3,0.6,6.4c0,0,0,0.1,0,0.1c0.2,1.2,0.3,2.3,0.5,3.5
							c-0.2,1.1-0.4,2.2-0.6,3.3l0.7,4.6c1.4-2,2.7-3.2,4-3.6c1.2-0.4,2.3,0,3.3,1.2c0.5-3.1,1-6.1,1.3-8.9c0,0,0,0,0-0.1
							c0.4-2.9,0.6-5.7,0.8-8.2v0c0.2-2.9,0.3-5.6,0.3-8.2c0-0.7,0-1.4,0-2l0,0c-0.2-7.6-1.5-13.3-3.9-17.1c0-0.1-0.1-0.1-0.1-0.2
							C116.7,131.2,113.3,129.2,108.9,129 M108.7,130.5c1.4,1.2,2.4,2.2,3.1,2.9c1,1.1,1.8,2.3,2.3,3.4c0.2,0.3,0.4,1,0.7,2
							c0.3,0.9,0.6,1.6,0.8,2c0.4,0.6,0.6,1,0.7,1.2c0.2,0.5,0.3,0.9,0.1,1.2c0,0.2-0.3,0.6-0.6,1.1c-0.2,0.4-0.3,0.7-0.3,1
							c0,0,0,0.1,0,0.1c0.7-1.1,1.3-2.2,1.7-3.4c0,0,0-0.1,0-0.1c0.1-0.3,0.2-0.5,0.2-0.8c0-0.1,0-0.2,0.1-0.4
							c0.4-1.7,0.5-3.4,0.2-5c0.3,1.6,0.2,3.3-0.2,5c0,0.1-0.1,0.2-0.1,0.4c-0.1,0.3-0.1,0.5-0.2,0.8c0,0,0,0.1,0,0.1
							c-0.4,1.2-1,2.3-1.7,3.4c0,0,0-0.1,0-0.1c0-0.3,0.1-0.6,0.3-1c0.4-0.6,0.6-1,0.6-1.1c0.1-0.4,0.1-0.8-0.1-1.2
							c0-0.2-0.3-0.6-0.7-1.2c-0.2-0.5-0.5-1.2-0.8-2c-0.3-1-0.6-1.7-0.7-2c-0.5-1.1-1.3-2.3-2.3-3.4
							C111.1,132.7,110.1,131.7,108.7,130.5 M121,154.9c0.1-0.2,0.2-0.4,0.3-0.6c0.3-0.8,0.6-1.4,0.9-2c-0.2,0.5-0.5,1.2-0.9,2
							C121.2,154.5,121.1,154.7,121,154.9c-0.5,1-1,2.2-1.5,3.5c0,0.4-0.1,0.7-0.1,1.1c0,0-0.1,0.1-0.1,0.1c0,0-0.1-0.1-0.1-0.1
							c0-0.1,0-0.3,0-0.4c0.1-0.2,0.2-0.5,0.3-0.7c0.1-1.4,0.1-2.7,0.1-4.1c0-0.6,0-1.2-0.1-1.9c-0.2-3.4-0.8-6.8-1.7-10.1
							c0.9,3.3,1.5,6.7,1.7,10.1c0,0.6,0,1.2,0.1,1.9c0,1.4,0,2.7-0.1,4.1C120,157.1,120.6,155.9,121,154.9 M115.6,160.7
							c0.1-0.2,0.2-0.4,0.3-0.6C115.8,160.3,115.7,160.5,115.6,160.7c-0.3,0.6-0.7,1.1-1,1.6c-0.5,0.7-1,1.3-1.5,1.9
							c0.6-0.9,1.2-1.8,1.6-2.8c0.6-1.3,1-2.7,1.3-4.2c0.4-2.6,0.3-5.1-0.5-7.5c0.7,2.4,0.9,4.9,0.5,7.5c-0.3,1.5-0.7,2.9-1.3,4.2
							c-0.4,1-1,1.9-1.6,2.8c0.6-0.6,1.1-1.2,1.5-1.9C114.9,161.8,115.3,161.3,115.6,160.7 M119.6,165.4c0.6-1.1,1-2.1,1.3-3.1
							C120.6,163.3,120.1,164.3,119.6,165.4c0.2-0.3,0.2-0.9,0.2-1.5l0.1-3.8l-0.1,3.8C119.8,164.5,119.7,165,119.6,165.4
							 M118.2,165.4c0.1-0.3,0.3-0.9,0.5-1.8C118.5,164.5,118.3,165.1,118.2,165.4c-0.2,0.5-0.6,1.1-1.3,1.9
							c-0.1,0.1-0.2,0.2-0.2,0.3c0,0,0,0.1,0,0.1c-0.5,0.6-0.8,1.1-1,1.5c-0.2,0.4-0.3,0.6-0.3,0.7c-0.2,0.2-0.3,0.4-0.5,0.6
							c0.2-0.8,0.4-1.5,0.8-2.1c0.4-0.6,0.7-1.1,0.8-1.5c0.2-0.3,0.3-0.7,0.3-1.3c0.3-1.8,0.5-3.1,0.7-3.9c-0.1,0.8-0.3,2.1-0.7,3.9
							c-0.1,0.6-0.2,1-0.3,1.3c-0.1,0.4-0.4,0.8-0.8,1.5c-0.4,0.6-0.7,1.4-0.8,2.1c0.2-0.1,0.3-0.3,0.5-0.6c0,0,0.1-0.3,0.3-0.7
							c0.2-0.4,0.5-0.9,1-1.5c0,0,0-0.1,0-0.1c0.1-0.1,0.2-0.2,0.2-0.3C117.5,166.6,118,165.9,118.2,165.4 M114.6,174.2
							c0.1,0.9,0,1.5-0.1,2c-0.2,0.5-0.3,0.9-0.1,1.2c0.1-0.2,0.3-0.5,0.7-0.9c0.3-0.3,0.5-0.6,0.5-0.9c0,0.3-0.2,0.5-0.5,0.9
							c-0.4,0.4-0.6,0.7-0.7,0.9c-0.2-0.3-0.1-0.7,0.1-1.2C114.6,175.8,114.6,175.1,114.6,174.2c0,0,0-0.1,0-0.1
							c0-0.3-0.1-0.6-0.1-0.9c0.1,0.3,0.1,0.6,0.1,0.9C114.6,174.1,114.6,174.2,114.6,174.2 M117.7,174.5c0.4-0.4,0.9-1.1,1.5-2.2
							l1-1.8l-1,1.8C118.6,173.4,118.1,174.1,117.7,174.5c-0.4,0.5-1,1-1.6,1.4c0.5-0.7,0.9-1.7,1.3-3c0.3-0.8,0.5-1.5,0.7-2
							c0.2-0.7,0.2-1.4,0.1-2c0.1,0.6,0,1.3-0.1,2c-0.1,0.5-0.3,1.2-0.7,2c-0.4,1.3-0.8,2.3-1.3,3
							C116.7,175.5,117.3,175,117.7,174.5 M88.2,133c-0.4-0.5-0.9-1-1.5-1.3l-0.8-0.5c-0.3-0.2-0.8-0.5-1.4-1
							c-0.6-0.5-1-0.8-1.2-1.1c-0.1-0.1-0.2-0.2-0.3-0.4c-0.4-0.5-0.9-1.1-1.6-1.9c0.3,0.7,0.6,1.5,0.8,2.4c0.3,1.1,0.6,2.4,0.8,3.8
							c-0.2-1.4-0.5-2.7-0.8-3.8c-0.2-0.8-0.5-1.6-0.8-2.4c0-0.1-0.1-0.1-0.1-0.2c-1-2.2-2.3-3.9-3.9-5c-0.6-0.4-1.3-0.8-2.1-1.1
							c-0.8-0.3-1.6-0.6-2.5-0.8c-1.4-0.3-3.1-0.5-5-0.6c-0.3,0-0.6,0-0.9,0c-0.5,0-0.9,0-1.4,0c-0.6,0-1.1,0-1.6,0.1
							c-0.8,0-1.6,0.1-2.3,0.2c-0.2,0.1-0.4,0.1-0.7,0.1c-1.8,0.3-3.3,0.9-4.6,1.6c-0.1,0.1-0.3,0.1-0.5,0.2
							c-1.3,0.7-2.2,1.5-2.9,2.4c-0.5,0.6-0.8,1.3-1,2c-0.3,1-0.2,2,0.1,3c0.1,0.3,0.2,0.6,0.4,0.8c0.4,0.6,0.9,1.1,1.5,1.4
							c-0.6-0.3-1.1-0.8-1.5-1.4c-1.7,1.6-2.9,3.1-3.8,4.3c0,0,0,0,0,0c-0.1,0.1-0.1,0.1-0.1,0.2c-0.9,1.3-1.5,2.7-1.9,4.1
							c-0.3,1.1-0.5,2.1-0.5,3.2c0,0.3,0,0.7,0,1c0,0.1,0,0.1,0,0.2c0-0.1,0-0.1,0-0.2c0-0.3,0-0.7,0-1c0.1-1.1,0.2-2.2,0.5-3.2
							c0.4-1.5,1.1-2.8,1.9-4.1c0,0,0.1-0.1,0.1-0.2c0,0,0,0,0,0c0.9-1.3,2.1-2.7,3.8-4.3c-0.2-0.2-0.3-0.5-0.4-0.8
							c-0.4-1-0.4-2-0.1-3c0.2-0.7,0.5-1.4,1-2c0.7-0.9,1.6-1.7,2.9-2.4c0.2-0.1,0.3-0.2,0.5-0.2c1.3-0.7,2.9-1.2,4.6-1.6
							c0.2,0,0.5-0.1,0.7-0.1c0.7-0.1,1.5-0.2,2.3-0.2c0.5,0,1-0.1,1.6-0.1c0.4,0,0.9,0,1.4,0c0.3,0,0.6,0,0.9,0
							c2,0.1,3.6,0.3,5,0.6c0.9,0.2,1.7,0.5,2.5,0.8c0.7,0.3,1.4,0.7,2.1,1.1c1.6,1.2,2.9,2.8,3.9,5c0,0.1,0.1,0.1,0.1,0.2
							c0.6,0.8,1.2,1.4,1.6,1.9c0.1,0.1,0.2,0.3,0.3,0.4c0.3,0.3,0.7,0.6,1.2,1.1c0.6,0.5,1.1,0.9,1.4,1l0.8,0.5
							C87.3,132,87.8,132.4,88.2,133 M49.4,140.7c-0.1-1.2-0.2-2.1-0.2-2.6c0-1,0.1-1.9,0.3-2.6c0.1-0.2,0.1-0.3,0.2-0.4
							c0-0.1,0.1-0.2,0.2-0.3c0.1-0.1,0.2-0.1,0.3-0.2c-0.1,0-0.2,0.1-0.3,0.2c-0.1,0.1-0.1,0.2-0.2,0.3c0,0.1-0.1,0.2-0.2,0.4
							c-0.2,0.8-0.3,1.6-0.3,2.6C49.2,138.6,49.3,139.5,49.4,140.7l1-2.4c0.4-1,0.7-1.6,0.9-1.9c0.6-1.1,1.7-2.4,3.3-3.8
							c-1.6,1.5-2.7,2.8-3.3,3.8c-0.2,0.3-0.5,1-0.9,1.9L49.4,140.7 M52.2,123.1c-1.6,1.8-2.8,3.1-3.5,4c-0.6,0.8-1.1,1.5-1.6,2.3
							c-0.5,0.7-0.9,1.5-1.2,2.2c-0.1,0.3-0.4,0.9-0.7,1.5c-0.1,0.3-0.3,0.5-0.4,0.8c-0.1,0.2-0.3,0.4-0.4,0.6
							c0.1-0.2,0.3-0.4,0.4-0.6c0.2-0.2,0.3-0.5,0.4-0.8c0.3-0.7,0.5-1.2,0.7-1.5c0.3-0.7,0.7-1.4,1.2-2.2c0.5-0.7,1-1.5,1.6-2.3
							C49.4,126.2,50.6,124.9,52.2,123.1 M48.1,165c0.1-0.4,0.2-0.7,0.3-1C48.3,164.3,48.2,164.6,48.1,165c-0.1,0.2-0.2,0.5-0.4,0.9
							c-0.1,0.2-0.2,0.4-0.3,0.6c-0.4,0.8-0.7,1.7-1,2.7c0.3-1,0.7-1.9,1-2.7c0.1-0.2,0.2-0.4,0.3-0.6C47.9,165.5,48,165.2,48.1,165
							 M38.9,142.8c-0.1-0.1-0.2-0.2-0.3-0.2c-0.1-0.1-0.2,0-0.3,0.1c0.1-0.1,0.2-0.1,0.3-0.1C38.6,142.6,38.8,142.7,38.9,142.8
							c0.1,0.1,0.1,0.4,0.1,0.8c-0.2,1.5-0.2,2.6,0.1,3.5c0.2,0.6,0.5,1,1,1.4c0.5,0.4,1,0.6,1.6,0.6c-0.2-0.5-0.3-1.1-0.4-1.8
							c0-0.4,0-1,0-1.8c0.1-1.9,0.2-3.2,0.3-4.2c0.2-1.5,0.5-2.9,0.9-4c-0.4,1.2-0.7,2.5-0.9,4c-0.1,0.9-0.2,2.3-0.3,4.2
							c0,0.8,0,1.4,0,1.8c0,0.7,0.2,1.3,0.4,1.8c-0.6,0-1.1-0.2-1.6-0.6c-0.5-0.4-0.8-0.9-1-1.4c-0.3-0.8-0.3-2-0.1-3.5
							C38.9,143.1,38.9,142.9,38.9,142.8 M44.4,137.1c0-0.3,0-0.5,0-0.6c0-0.4,0.2-0.8,0.4-1.2c0-0.1,0.1-0.2,0.1-0.3
							c0.1-0.2,0.3-0.5,0.5-0.8c-0.2,0.3-0.3,0.6-0.5,0.8c-0.1,0.1-0.1,0.2-0.1,0.3c-0.2,0.4-0.4,0.8-0.4,1.2
							C44.4,136.6,44.4,136.8,44.4,137.1c0,0.3,0.1,0.7,0.1,1.2l0.7,4l-0.7-4C44.5,137.8,44.4,137.4,44.4,137.1 M44.7,152.5
							c0.5-0.6,1.1-1.2,1.6-1.7C45.7,151.3,45.2,151.9,44.7,152.5c-0.5,0.5-0.9,1-1.3,1.5c-0.1,0.1-0.2,0.3-0.3,0.4
							c0,0.1-0.1,0.1-0.1,0.2c0,0.1-0.1,0.1-0.1,0.2c0,0,0,0.1,0,0.1c-0.9,1.7-1.5,3.5-2,5.3c-0.1,0.3-0.2,0.6-0.2,1
							c-0.2,0.7-0.3,1.5-0.4,2.2v0c-0.1,1.1-0.2,2.2-0.2,3.3c0-1.1,0.1-2.2,0.2-3.3v0c0.1-0.7,0.2-1.5,0.4-2.2
							c0.1-0.3,0.2-0.6,0.2-1c0.5-1.9,1.1-3.7,2-5.3c0,0,0-0.1,0-0.1c0-0.1,0.1-0.1,0.1-0.2c-0.1,0.1-0.1,0.1-0.2,0.2
							c-1,1.4-1.9,2.8-2.6,4.4c-0.1,0.2-0.2,0.4-0.3,0.6c-0.4,1-0.8,2-1.2,3c0.4-1,0.8-2,1.2-3c0.1-0.2,0.2-0.4,0.3-0.6
							c0.7-1.5,1.6-3,2.6-4.4c0.1-0.1,0.1-0.2,0.2-0.2c0-0.1,0.1-0.1,0.1-0.2c0.1-0.1,0.2-0.3,0.3-0.4
							C43.8,153.5,44.2,153,44.7,152.5 M45.7,146.6c-0.3,0.4-0.7,0.9-1,1.3c-0.6,0.7-1.1,1.4-1.6,2.1c-0.2,0.3-0.4,0.6-0.6,0.8
							c-1,1.5-1.8,2.8-2.3,3.9c-0.5,1.1-0.9,2.4-1.2,3.9c0,0.1,0,0.2-0.1,0.3c-0.2,0.9-0.4,2.1-0.6,3.8c0.2-1.6,0.4-2.9,0.6-3.8
							c0-0.1,0-0.2,0.1-0.3c0.3-1.5,0.7-2.8,1.2-3.9c0.5-1.1,1.3-2.4,2.3-3.9c0.2-0.3,0.4-0.5,0.6-0.8c0.5-0.7,1.1-1.4,1.6-2.1
							C45,147.5,45.3,147.1,45.7,146.6 M44.1,157.8c0,0.1-0.1,0.2-0.1,0.3c-0.3,1.2-0.5,2.4-0.7,3.6c0,0,0,0.1,0,0.1
							c-0.4,2.4-0.5,4.9-0.5,7.5c0,0,0,0,0,0.1c0,0.7,0,1.5,0.1,2.2c0.1,0.1,0.1,0.1,0.2,0c0.1,0,0.1-0.1,0.1-0.2
							c0,0.1,0,0.2-0.1,0.2c-0.1,0.1-0.2,0.1-0.2,0c0-0.7-0.1-1.5-0.1-2.2c0,0,0,0,0-0.1c0-2.5,0.1-5,0.5-7.5c0,0,0-0.1,0-0.1
							c0.2-1.2,0.4-2.4,0.7-3.6c-0.5,0.8-1,1.9-1.5,3.3c0,0.1,0,0.1-0.1,0.2c-0.4,1.2-0.7,1.9-0.8,2.3c0,0.2-0.1,0.3-0.1,0.3
							c-0.4,1-0.8,1.8-1.1,2.5c0.4-0.7,0.8-1.5,1.1-2.5c0,0,0-0.1,0.1-0.3c0.1-0.4,0.4-1.2,0.8-2.3c0-0.1,0.1-0.1,0.1-0.2
							c0.5-1.5,1-2.6,1.5-3.3C44,157.9,44.1,157.8,44.1,157.8c0.2-0.7,0.3-1.4,0.5-2.1C44.4,156.3,44.3,157,44.1,157.8 M45,164.5
							c0.1-0.6,0.3-1.2,0.4-1.7c0-0.1,0.1-0.2,0.1-0.3c0.1-0.2,0.1-0.3,0.2-0.5c-0.1,0.1-0.1,0.3-0.2,0.5c0,0.1-0.1,0.2-0.1,0.3
							l-0.1,2.9c0,0.5,0,0.8,0.1,1c0,0.2,0.2,0.5,0.4,1c0.1,0.3,0.2,0.7,0.3,1.1c0,0.1,0,0.2,0,0.5v0c0,0.2,0,0.4,0.1,0.6
							c0-0.3,0-0.5-0.1-0.6v0c0-0.2,0-0.4,0-0.5c-0.1-0.4-0.2-0.8-0.3-1.1c-0.2-0.5-0.4-0.8-0.4-1c0-0.2-0.1-0.5-0.1-1l0.1-2.9
							C45.2,163.3,45.1,163.9,45,164.5c-0.1,0.5-0.3,1.4-0.5,2.5c-0.2,0.7-0.4,1.5-0.6,2.3c0,0,0,0,0,0c-0.1,0.5-0.3,1-0.5,1.5
							c0.2-0.5,0.3-1,0.5-1.5c0,0,0,0,0,0c0.2-0.8,0.4-1.6,0.6-2.3C44.7,165.8,44.9,165,45,164.5z"/>
						<path class="st39" d="M118.8,184.1c0.5-0.9,0.7-1.6,0.8-2.2c-2.4-0.4-4.3,1-5.6,4.3l1.2,8l0.2,1.3c0.7,0.5,1.4-0.3,2.1-2.2
							c1.3-3.1,2.3-5.7,2.8-7.9l-0.2,0c-0.3,0-0.6,0-0.8,0.1c-0.3,0.1-0.5,0.3-0.6,0.5c-0.1,0.2-0.2,0.6-0.3,1.2
							c-0.2,0.7-0.6,1.3-1,1.7c-0.1,0.2-0.3,0.3-0.5,0.2c-0.1-0.1-0.1-0.2-0.2-0.3c0-0.7,0.3-1.5,1-2.5
							C117.9,185.7,118.3,185,118.8,184.1z"/>
						<path class="st40" d="M120.6,179.7c-1-1.2-2.1-1.6-3.3-1.2c-1.2,0.4-2.5,1.6-4,3.6l0.6,4.1c1.3-3.3,3.2-4.7,5.6-4.3
							c0,0.6-0.3,1.3-0.8,2.2c-0.5,0.8-0.9,1.6-1.3,2.2c-0.7,1-1,1.8-1,2.5c0.1,0.2,0.1,0.3,0.2,0.3c0.2,0,0.4,0,0.5-0.2
							c0.4-0.4,0.7-1,1-1.7c0.1-0.6,0.2-0.9,0.3-1.2c0.1-0.2,0.4-0.4,0.6-0.5c0.3-0.1,0.6-0.2,0.8-0.1l0.2,0
							c0.3-1.3,0.6-2.4,0.6-3.4v0C120.9,181,120.8,180.3,120.6,179.7z"/>
						<path class="st41" d="M107.9,159.3c0-0.4,0.1-0.8,0-1.4l0.5-3.2c0.4-2.8,0.6-5.3,0.6-7.3c0-2.7-0.3-5.1-1-7.2
							c-0.7-2.4-1.9-4.6-3.5-6.4c-1.7-1.8-3.5-3-5.6-3.5c-0.6,0.3-1.3,0.6-1.9,0.8h0c-2.7,1.1-5.6,1.9-8.7,2.4c-3,0.5-6,0.6-9.2,0.5
							c-1.2-0.1-2.4-0.2-3.7-0.3c0,0.1,0,0.2,0,0.3c0-0.1,0-0.2,0-0.3c-0.6-0.1-1.1-0.1-1.7-0.2c-1.5-0.4-3-0.7-4.4-0.9
							c-1.8-0.2-3.4-0.3-4.9-0.3c-1.5,0.1-3,0.3-4.3,0.6h0c-1.3,0.4-2.5,0.9-3.6,1.5c0,0-0.1,0.1-0.1,0.1c-2.5,2.9-4,6.1-4.4,9.7
							c-0.2,1.5-0.1,3.7,0.1,6.8c0.2,3,0.2,5.2,0,6.8c0,0.1-0.1,0.6-0.3,1.6c-0.1,0.4-0.2,1-0.3,1.7c0,0,0,0,0,0
							c0,0.2-0.1,0.4-0.1,0.6c-0.3,1.6-0.5,2.9-0.4,4c0,0.2,0.1,0.5,0.1,0.8c0.2,1,0.1,2.4-0.2,4.2c-0.3,1.8-0.7,3.4-1.3,4.8
							c-0.6,1.4-1,3.6-1.1,6.6c-0.2,3-0.2,5.4-0.1,7.2l-0.3,0l0,0c0,0,0,0,0,0.1c1.2,6.6,2.6,12,4.1,16c0.5,1.3,1,2.5,1.6,3.7
							c2.2,3.1,4.8,5.5,7.9,7c0.2,0.1,0.5,0.2,0.7,0.4c0.2,0.1,0.4,0.2,0.6,0.2c2.5,1.1,5.1,1.6,7.6,1.4c1.1,0,2.1-0.2,3.1-0.5
							c-0.1,0.8,0,1.6,0.4,2.4c0.1-0.5,0.2-0.7,0.3-0.8c0.1-0.3,0.3-0.5,0.4-0.7l0.3-0.3c0,0,0.1-0.1,0.1-0.2
							c0.1-0.1,0.2-0.2,0.3-0.2h0c-0.1,0-0.1,0-0.2,0c-0.2,0-0.3-0.1-0.4-0.3c0.6-1.4,1.7-2.4,3.3-3.2c1.2-0.6,2.7-0.9,4.6-1
							c0.2,0,0.3,0,0.5,0c2,0,3.6,0.2,5,0.7c1,0.3,2.4,1,4.1,2.1c0.5,0.3,0.9,0.6,1.1,1c0.1,0.2,0.2,0.4,0.1,0.7
							c0,0.3-0.1,0.5-0.3,0.6c-0.1-0.1-0.2-0.2-0.3-0.2c0.2,0.2,0.3,0.4,0.4,0.7c0,0.2,0.1,0.4,0.1,0.6c0,0.2,0,0.3,0.1,0.4
							c0,0.1,0,0.2,0,0.3c0,0-0.1,0-0.1-0.1c0,0,0,0,0,0c0,0.2,0,0.4,0,0.5l1.5,0.2c0,0,0.1,0.1,0.2,0.1c1,0.4,2.1,0.5,3.2,0.4
							c1.8-0.1,3.4-0.8,4.6-2c3-3.8,4.8-6.5,5.4-8.2c1-3,1.7-5.6,2.3-7.8c0.6-2.2,1-4.2,1.3-5.8c0.3-1.6,0.3-4-0.1-7
							c-0.3-3-1.1-6.1-2.3-9.2c-1.3-3.2-1.8-5.4-1.6-6.6c0.3-1.9,0.4-3.7,0.2-5.3c0-0.2,0-0.4-0.1-0.6l-0.3,0c0-0.4-0.1-0.7-0.1-1.1
							c0-0.7,0-1.5,0-2.3c0-0.1,0-0.3,0-0.4c0-0.9,0.1-1.8,0.2-2.8C107.6,162,107.7,161,107.9,159.3 M77.3,159.2
							c0.1,0,0.2-0.1,0.3-0.1c0.3-0.1,0.6-0.2,0.8-0.3l0.4-0.1c0.2,0,0.5-0.1,0.9-0.2c0,0,0,0,0,0c0,0,0.1,0,0.1,0l0,0
							c0.5-0.1,0.8-0.1,1-0.1c0,0,0,0,0,0v0c0.2,0,0.4,0,0.7-0.1c0,0,0.1-0.1,0.1-0.1c0,0,0,0.1,0.1,0.1c0,0,0,0,0.1,0
							c1.3-0.1,2.8,0.1,4.2,0.4v0c1,0.3,2,0.7,3,1.2c-0.1,0.2-0.2,0.4-0.3,0.6c-0.1,0.3-0.3,0.6-0.4,0.9c0,0,0,0,0.1,0
							c-0.1,0.1-0.1,0.3-0.2,0.4c-3.5,6.4-3.9,11.7-1.2,15.9c2.6,4.2,4,6.3,4,6.5c0.2,0.1,0.4,0.2,0.6,0.3c0.3,0.2,0.6,0.5,1,0.9
							c0.1,0.1,0.2,0.2,0.2,0.2c0.6,0.6,1,1,1.3,1.1c0.1,0.1,0.4,0.3,0.6,0.4c0.2,0.1,0.5,0.3,0.8,0.4c0.4,0.3,0.7,0.7,0.8,1
							c0.7,1.2,1,2.8,0.8,4.8c-0.2-2-0.9-3.7-2.1-5c-0.6-0.4-1-0.6-1.3-0.6c-0.2,0-0.4,0-0.4,0.1c-0.1,0.1-0.1,0.2-0.1,0.4
							c-0.1,0.6-0.4,1.2-0.9,1.7c-0.4,0.5-0.9,0.8-1.4,1l0,0c0,0.1,0,0.2,0,0.2v0c-0.2,1.1-1.3,1.9-3.1,2.6
							c-0.9,0.3-1.5,0.6-1.9,0.7c-0.2,0-0.4,0.1-0.6,0.1c-0.3,0.7-0.4,1.5-0.4,2.3c0,0.9,0.1,1.7,0.4,2.5c-0.3,0.4-0.6,0.7-1,1
							c-0.7,0.6-1.4,0.7-1.9,0.5c-0.3-0.1-0.6-0.4-0.9-0.8c-0.3-0.4-0.7-0.7-1.1-0.8c0.2-0.2,0.3-0.6,0.5-1c0.1-0.2,0.2-0.6,0.3-1.1
							l0.1-0.6c0,0,0-0.1-0.1-0.1v0l0,0l0-0.1c0,0,0-0.1,0.1-0.1c0.1-0.8,0.1-1.5-0.1-2c-0.1,0-0.3-0.1-0.4-0.1
							c-1.3-0.4-2.4-0.6-3.1-0.6c-0.4,0-0.9,0.1-1.5,0.3c-0.8,0.2-1.4,0.3-1.6,0.3c-1.4,0.2-2.4,0-3.1-0.8c-0.2-0.2-0.4-0.6-0.7-1.2
							c-0.2-0.5-0.4-0.9-0.7-1.1c-0.1-0.1-0.3-0.2-0.7-0.4c-0.1-0.1-0.2-0.1-0.3-0.2c-0.3,0.9-0.6,2-0.7,3.1c-0.1-1.3,0-2.5,0.3-3.5
							c-0.1-0.2-0.2-0.5-0.2-0.7c0-0.3,0.1-0.6,0.3-0.9c0.1-0.3,0.3-0.5,0.6-0.8c0,0,0.3-0.2,0.7-0.7c0,0,0.1-0.1,0.1-0.1
							c0,0,0-0.1,0-0.1c0.1-0.3,0.4-0.7,0.9-1c0.2-0.1,0.4-0.3,0.6-0.5c0,0,0,0,0.1,0c0.2-0.4,0.6-0.7,1.2-1.1c1-0.6,1.9-1.1,3-1.6
							c0.1-0.2,1.1-2.6,3-7.3c2-4.7,1.6-8.6-1.1-11.6c-0.2-0.8-0.5-1.5-0.8-2.3c0-0.1-0.1-0.2-0.1-0.3c-0.3-0.5-0.6-1.1-0.9-1.6
							c0,0,0,0,0,0c0,0,0,0,0,0c0.1,0,0.1-0.1,0.2-0.1C76.7,159.4,77,159.3,77.3,159.2 M95.8,200.2c-0.1,0-0.3-0.1-0.4-0.2
							c-0.1-0.1-0.1-0.2-0.1-0.4c0-0.2,0.1-0.3,0.2-0.4c0.1-0.1,0.3-0.2,0.4-0.2c0.2,0,0.3,0.1,0.4,0.2c0.1,0.1,0.2,0.3,0.2,0.4
							c0,0.1-0.1,0.3-0.2,0.4C96.1,200.1,95.9,200.2,95.8,200.2 M80.9,158.3L80.9,158.3L80.9,158.3
							C80.9,158.3,80.9,158.3,80.9,158.3z"/>
						<path class="st42" d="M69.3,187.7c-0.3,0.2-0.4,0.5-0.6,0.8c-0.2,0.3-0.3,0.6-0.3,0.9c0,0.3,0.1,0.5,0.2,0.7
							c0.3-1.1,0.7-2.1,1.4-3C69.6,187.5,69.3,187.7,69.3,187.7 M80.8,190.4c-1.1-0.5-2.1-0.7-2.8-0.7c-0.2,0-0.3,0.1-0.4,0.2
							c-0.1,0.1-0.2,0.3-0.1,0.5c0.1,0.2,0.2,0.4,0.3,0.6c-0.5-0.1-0.9-0.3-1.3-0.4c0,0,0,0-0.1,0c-0.4,0.3-0.9,0.3-1.5,0.1
							c-0.4-0.2-0.8-0.6-1.3-1c-0.6-0.5-1-1-1.2-1.5c-0.2-0.5-0.2-1.2,0-2c-0.3,0.1-0.7,0.3-1.2,0.5c-1,1.1-1.7,2.4-2.2,3.9
							c0.1,0.1,0.2,0.1,0.3,0.2c0.4,0.2,0.6,0.3,0.7,0.4c0.3,0.2,0.5,0.6,0.7,1.1c0.3,0.6,0.5,1,0.7,1.2c0.6,0.7,1.7,1,3.1,0.8
							c0.2,0,0.8-0.1,1.6-0.3c0.6-0.2,1.1-0.3,1.5-0.3c0.7,0,1.8,0.2,3.1,0.6c0.1,0,0.3,0.1,0.4,0.1c1.2,0.4,2,0.5,2.6,0.6
							c0.5,0,0.9,0,1.5-0.1c0.2,0,0.4-0.1,0.6-0.1c0.4-0.1,1.1-0.3,1.9-0.7c1.9-0.7,2.9-1.6,3.1-2.6l-0.9,0l-0.1-0.1
							c-0.1,0.1-0.2,0.1-0.3,0c-0.1-0.1-0.2-0.2-0.2-0.3c0-0.2,0-0.3,0-0.4c0,0,0-0.1-0.1-0.1c-0.1-0.1-0.2-0.1-0.5-0.1
							c-1.2,0.5-2,0.8-2.6,0.9c-1,0.3-1.9,0.3-2.7,0.2C83,191.3,82.1,191,80.8,190.4z"/>
						<path class="st43" d="M75.8,183.3c0.1-0.2,0.2-0.4,0.2-0.6c-1,0.5-2,1-3,1.6c-0.6,0.4-1,0.7-1.2,1.1c0,0,0,0-0.1,0
							c-0.2,0.2-0.5,0.3-0.6,0.5c-0.4,0.3-0.7,0.7-0.9,1c0,0,0,0.1,0,0.1c0,0-0.1,0-0.1,0.1c-0.7,0.9-1.1,1.9-1.4,3
							c-0.3,1.1-0.4,2.2-0.3,3.5c0.2-1.1,0.4-2.2,0.7-3.1c0.5-1.5,1.3-2.9,2.2-3.9c0.6-0.2,1-0.3,1.2-0.5c-0.2,0.8-0.2,1.5,0,2
							c0.2,0.5,0.6,0.9,1.2,1.5c0.5,0.5,0.9,0.8,1.3,1c0.6,0.2,1.1,0.2,1.5-0.1c-1.6-0.6-2.5-1.5-2.8-2.4c-0.3-1,0.2-2.2,1.5-3.6
							C75.4,184.2,75.6,183.8,75.8,183.3 M89.4,188.5c0.3-0.4,0.5-0.8,0.6-1.1c0-0.2,0-0.5,0-1c-0.1-0.9-0.3-1.6-0.6-1.9
							c0.1,0.6,0,1.2-0.1,1.9c-0.1,0.4-0.3,0.8-0.5,1.3c-0.3,0.7-1.1,1.7-2.3,2.9c0.2-0.1,0.3-0.2,0.5-0.3c0.2-0.2,0.6-0.4,1.1-0.8
							c0.2-0.1,0.4-0.2,0.6-0.3L89.4,188.5z"/>
						<path class="st44" d="M81.2,194.3c0.2,0.5,0.2,1.1,0.1,2c0,0,0,0.1-0.1,0.1l0,0.1l0,0v0c0,0,0,0.1,0.1,0.1l-0.1,0.6
							c-0.1,0.5-0.2,0.9-0.3,1.1c-0.1,0.4-0.3,0.7-0.5,1c0.4,0.1,0.8,0.4,1.1,0.8c0.3,0.5,0.6,0.7,0.9,0.8c0.5,0.2,1.2,0,1.9-0.5
							c0.4-0.3,0.7-0.6,1-1c-0.3-0.8-0.4-1.6-0.4-2.5c0-0.8,0.1-1.5,0.4-2.3c-0.5,0.1-1,0.1-1.5,0.1
							C83.2,194.8,82.4,194.6,81.2,194.3z"/>
						<path class="st45" d="M79.4,188.4c-0.3-0.1-0.7-0.2-1-0.1c-0.4,0-0.7,0.2-0.9,0.4c0,0-0.1,0-0.1,0.1c-0.2,0.2-0.4,0.4-0.5,0.7
							c-0.2,0.3-0.2,0.7-0.2,1.1v0c0.4,0.2,0.8,0.3,1.3,0.4c-0.1-0.2-0.3-0.4-0.3-0.6c-0.1-0.2-0.1-0.4,0.1-0.5
							c0.1-0.1,0.2-0.1,0.4-0.2c0.7,0,1.7,0.2,2.8,0.7c1.3,0.6,2.2,0.9,2.7,1c0.8,0.1,1.7,0.1,2.7-0.2c0.6-0.1,1.4-0.4,2.6-0.9
							c0.3-0.1,0.5,0,0.5,0.1c0,0,0,0.1,0.1,0.1c0,0.1,0,0.2,0,0.4c0,0.1,0.1,0.2,0.2,0.3c0.1,0.1,0.3,0.1,0.3,0l0.1,0.1l0.9,0v0
							c0-0.1,0-0.2,0-0.2l0,0l-0.3-0.2c0,0-0.1,0-0.1,0c-0.1,0-0.1,0-0.1,0c-0.1,0-0.2-0.1-0.3-0.2c-0.2-0.2-0.3-0.4-0.3-0.6l0-0.3
							c0-0.1,0-0.1,0-0.1c0-0.1,0-0.1-0.1-0.2c-0.1-0.1-0.2-0.2-0.5-0.2c-0.2,0-0.4,0-0.6,0.1c-0.2,0.1-0.4,0.2-0.6,0.3
							c-0.5,0.3-0.9,0.6-1.1,0.8c-0.2,0.1-0.3,0.2-0.5,0.3c-0.7,0.3-1.5,0.5-2.4,0.4c-1.1-0.1-2-0.4-2.8-1c-0.4-0.4-0.7-0.7-0.9-0.9
							C80.1,188.7,79.7,188.5,79.4,188.4z"/>
						<path class="st46" d="M77.7,185.7c0.3-0.7,0.5-1.6,0.5-2.6c-1,0.4-2,0.9-3,1.5c-1.3,1.4-1.8,2.6-1.5,3.6
							c0.5,0,0.7,0.1,0.8,0.1c0.3,0,0.5,0,0.7-0.1c0.3-0.1,0.6-0.3,1-0.7C76.9,186.9,77.4,186.3,77.7,185.7z"/>
						<path class="st47" d="M87.9,186.7c-0.9,0.2-1.7,0.4-2.4,0.6c-1.4,0.2-2.7,0.2-3.8,0c-0.6-0.1-1.1-0.3-1.6-0.6
							c-0.6-0.3-0.9-0.7-1.2-1.2c-0.2-0.5-0.2-1.2,0-2.2l-0.7-0.1c0,1.1-0.1,1.9-0.5,2.6c-0.3,0.6-0.9,1.2-1.5,1.8
							c-0.4,0.3-0.7,0.6-1,0.7c-0.2,0-0.4,0.1-0.7,0.1c-0.1,0-0.3,0-0.8-0.1c0.3,1,1.2,1.8,2.8,2.4c0,0,0,0,0.1,0v0
							c0-0.4,0.1-0.7,0.2-1.1c0.1-0.3,0.3-0.6,0.5-0.7c0,0,0.1-0.1,0.1-0.1c0.3-0.2,0.6-0.4,0.9-0.4c0.4-0.1,0.7,0,1,0.1
							c0.3,0.1,0.7,0.3,1,0.7c0.2,0.2,0.5,0.5,0.9,0.9c0.8,0.6,1.7,0.9,2.8,1c0.9,0.1,1.6-0.1,2.4-0.4c1.2-1.2,2-2.2,2.3-2.9
							c0.2-0.4,0.4-0.9,0.5-1.3l-0.3-0.1c0,0,0,0-0.1,0C88.6,186.4,88.2,186.5,87.9,186.7z"/>
						<path class="st48" d="M85.4,187.2c0.7-0.1,1.5-0.3,2.4-0.6c0.4-0.1,0.8-0.2,1.2-0.4c0,0,0,0,0.1,0l0.3,0.1
							c0.2-0.6,0.2-1.3,0.1-1.9l0.5-0.8c-3.5-2-7.4-2.2-11.7-0.6c0,0-0.1,0-0.1,0l0.7,0.1c-0.2,1-0.2,1.7,0,2.2
							c0.2,0.5,0.6,0.9,1.2,1.2c0.5,0.3,1,0.5,1.6,0.6C82.8,187.4,84,187.4,85.4,187.2z"/>
						<path class="st49" d="M90.8,184.1c-0.3-0.2-0.5-0.3-0.8-0.5l-0.5,0.8c0.2,0.3,0.4,0.9,0.6,1.9c0,0.5,0.1,0.8,0,1
							c-0.1,0.4-0.3,0.7-0.6,1.1l-0.7,0.7c0.2-0.1,0.4-0.1,0.6-0.1c0.2,0,0.4,0.1,0.5,0.2c0,0.1,0.1,0.1,0.1,0.2c0,0,0,0.1,0,0.1
							l0,0.3c0,0.2,0.1,0.4,0.3,0.6c0.1,0.1,0.2,0.1,0.3,0.2c0,0,0.1,0,0.1,0c0.4-0.2,0.8-0.6,1.2-1c0.3-0.5,0.6-1,0.7-1.6
							c0.1-0.4,0.1-0.7,0.1-1c0-0.2-0.1-0.5-0.3-0.8c-0.1-0.2-0.3-0.5-0.6-0.8C91.3,184.9,91,184.5,90.8,184.1z"/>
						<path class="st50" d="M92.8,185.5c0-0.1-0.1-0.2-0.2-0.2c-0.4-0.4-0.7-0.6-1-0.9c-0.2-0.1-0.4-0.3-0.6-0.3
							c0,0.1,0.1,0.2,0.1,0.2c-0.1-0.1-0.2-0.1-0.3-0.2c0.2,0.3,0.5,0.8,1,1.4c0.2,0.3,0.4,0.5,0.6,0.8c0.2,0.3,0.3,0.5,0.3,0.8
							c0,0.3,0,0.6-0.1,1c-0.1,0.6-0.4,1.2-0.7,1.6c-0.4,0.5-0.8,0.8-1.2,1c0,0,0.1,0,0.1,0l0.3,0.2c0.5-0.2,1-0.6,1.4-1
							c0.5-0.5,0.7-1.1,0.9-1.7c0-0.2,0-0.3,0.1-0.4c0.1-0.1,0.2-0.1,0.4-0.1c0.3,0,0.7,0.2,1.3,0.6c1.2,1.3,1.9,3,2.1,5
							c0.2-2,0-3.6-0.8-4.8c-0.2-0.3-0.4-0.7-0.8-1c-0.3-0.2-0.6-0.3-0.8-0.4c-0.3-0.1-0.5-0.3-0.6-0.4
							C93.8,186.5,93.4,186.1,92.8,185.5z"/>
						<path class="st51" d="M77.6,159c-0.1,0-0.2,0.1-0.3,0.1c-0.3,0.1-0.7,0.3-1,0.5c-0.1,0-0.1,0.1-0.2,0.1c0,0,0,0,0,0
							c0,0,0,0,0,0c0.3,0.5,0.6,1.1,0.9,1.6c0,0.1,0.1,0.2,0.1,0.3c0.3,0.7,0.6,1.5,0.8,2.3c2.7,3,3.1,6.9,1.1,11.6
							c-1.9,4.7-3,7.1-3,7.3c-0.1,0.2-0.2,0.4-0.2,0.6c-0.2,0.4-0.4,0.8-0.6,1.2c1-0.6,2-1.1,3-1.5c0,0,0.1,0,0.1,0
							c4.3-1.6,8.2-1.4,11.7,0.6c0.3,0.1,0.6,0.3,0.8,0.5c0.1,0.1,0.2,0.1,0.3,0.2c0-0.1-0.1-0.1-0.1-0.2c0-0.1-1.4-2.3-4-6.5
							c-2.7-4.2-2.2-9.5,1.2-15.9c0-0.1,0.1-0.3,0.1-0.4c0.1-0.3,0.3-0.6,0.4-0.9c0.1-0.2,0.2-0.4,0.3-0.6c-1-0.5-2-0.9-3-1.2v0
							c-1.5-0.4-2.9-0.5-4.2-0.4c0,0,0,0-0.1,0c-0.1,0-0.1,0-0.2,0v0c-0.2,0-0.5,0-0.7,0.1v0v0h-0.1c0,0,0,0,0.1,0c0,0,0,0,0,0
							c-0.1,0-0.4,0-1,0.1l0,0c0,0-0.1,0-0.1,0c0,0,0,0,0,0c-0.4,0.1-0.7,0.1-0.9,0.2l-0.4,0.1C78.2,158.8,77.9,158.9,77.6,159z"/>
						<path class="st52" d="M111.3,139.3c-0.1-0.4-0.2-0.7-0.3-1.1c-1.1-2.4-2.5-4.3-4.1-5.8c-0.5-0.5-1.1-0.9-1.6-1.3
							c-1.2-0.9-2.6-1.5-4.1-2c-0.1,0.1-0.3,0.1-0.5,0.2l0,0c-0.6,0.3-1.2,0.6-1.8,0.9c2.1,0.6,4,1.7,5.6,3.5c1.6,1.8,2.8,4,3.5,6.4
							c0.6,2.1,1,4.5,1,7.2c0,2-0.2,4.5-0.6,7.3l-0.5,3.2c0,0.5,0,1,0,1.4c-0.2,1.7-0.3,2.7-0.3,2.7c-0.1,1-0.1,1.9-0.2,2.8
							c0,0.1,0,0.3,0,0.4c0,0.8,0,1.6,0,2.3c0,0.4,0,0.8,0.1,1.1l0.3,0c0,0.2,0.1,0.4,0.1,0.6c0.2,1.6,0.1,3.4-0.2,5.3
							c-0.2,1.3,0.3,3.5,1.6,6.6c1.2,3.2,2,6.2,2.3,9.2c0.3,3,0.4,5.3,0.1,7c-0.3,1.7-0.7,3.6-1.3,5.8c-0.6,2.2-1.3,4.8-2.3,7.8
							c-0.6,1.7-2.3,4.5-5.4,8.2c0.5-0.3,1-0.7,1.5-1.3c0.3-0.3,0.5-0.6,0.8-0.9c0.4-0.4,0.7-0.9,1.1-1.3c1.9-2.3,3.5-4.5,4.9-6.8
							c1.8-2.9,3.1-7.9,4-14.8l-1.2-8l-0.6-4.1l-0.7-4.6c0.2-1.1,0.4-2.2,0.6-3.3c-0.2-1.2-0.4-2.3-0.5-3.5c0,0,0-0.1,0-0.1
							c-0.3-2.1-0.5-4.3-0.6-6.4v0c-0.3-6.2,0.1-12.4,1.3-18.6C112.8,143.4,112.1,141.3,111.3,139.3 M110.4,164.5
							c0.2,0,0.3,0.1,0.4,0.2c0.1,0.1,0.1,0.2,0.1,0.4c0,0.1,0,0.3-0.2,0.4c-0.1,0.1-0.2,0.1-0.4,0.1c-0.1,0-0.3-0.1-0.4-0.2
							c-0.1-0.1-0.1-0.2-0.1-0.4c0-0.2,0.1-0.3,0.2-0.4C110.1,164.5,110.2,164.5,110.4,164.5z"/>
					</g>
				</g>
				<g>
					<path id="Layer4_0_1_STROKES_3_" class="st53" d="M120.6,179.7c0.5-3.1,1-6.1,1.3-8.9c0,0,0,0,0-0.1c0.4-2.9,0.6-5.7,0.8-8.2v0
						c0.2-2.9,0.3-5.6,0.3-8.2c0-0.7,0-1.4,0-2l0,0c-0.2-7.6-1.5-13.3-3.9-17.1c0-0.1-0.1-0.1-0.1-0.2c-2.4-3.8-5.8-5.8-10.3-5.9
						c0,0,0,0-0.1,0c-0.7,0-1.5,0-2.2,0c-9.8-16.3-22.7-21.8-38.6-16.6c8.3,0.6,15.1,2.3,20.1,5.1c5.1,2.7,9.1,6.3,12.2,10.9
						 M108.7,130.5c1.4,1.2,2.4,2.2,3.1,2.9c1,1.1,1.8,2.3,2.3,3.4c0.2,0.3,0.4,1,0.7,2c0.3,0.9,0.6,1.6,0.8,2
						c0.4,0.6,0.6,1,0.7,1.2c0.2,0.5,0.3,0.9,0.1,1.2c0,0.2-0.3,0.6-0.6,1.1c-0.2,0.4-0.3,0.7-0.3,1c0,0,0,0.1,0,0.1
						c0.7-1.1,1.3-2.2,1.7-3.4c0,0,0-0.1,0-0.1c0.1-0.3,0.2-0.5,0.2-0.8c0-0.1,0-0.2,0.1-0.4c0.4-1.7,0.5-3.4,0.2-5 M111,138.2
						c-1.1-2.4-2.5-4.3-4.1-5.8c-0.5-0.5-1.1-0.9-1.6-1.3c-1.2-0.9-2.6-1.5-4.1-2c-0.1,0.1-0.3,0.1-0.5,0.2l0,0
						c-0.6,0.3-1.2,0.6-1.8,0.9 M113.3,182.1l-0.7-4.6c0.2-1.1,0.4-2.2,0.6-3.3c-0.2-1.2-0.4-2.3-0.5-3.5c0,0,0-0.1,0-0.1
						c-0.3-2.1-0.5-4.3-0.6-6.4v0c-0.3-6.2,0.1-12.4,1.3-18.6c0,0,0,0,0-0.1c-0.6-2.8-1.3-5.3-2.3-7.4 M117.8,142.3
						c0.9,3.3,1.5,6.7,1.7,10.1c0,0.6,0,1.2,0.1,1.9c0,1.4,0,2.7-0.1,4.1c0.6-1.3,1.1-2.5,1.5-3.5c0.1-0.2,0.2-0.4,0.3-0.6
						c0.3-0.8,0.6-1.4,0.9-2 M115.4,149.7c0.7,2.4,0.9,4.9,0.5,7.5c-0.3,1.5-0.7,2.9-1.3,4.2c-0.4,1-1,1.9-1.6,2.8
						c0.6-0.6,1.1-1.2,1.5-1.9c0.4-0.5,0.7-1,1-1.6c0.1-0.2,0.2-0.4,0.3-0.6 M119.5,158.4c0,0.4-0.1,0.7-0.1,1.1
						c0,0-0.1,0.1-0.1,0.1c0,0-0.1-0.1-0.1-0.1c0-0.1,0-0.3,0-0.4C119.2,158.8,119.3,158.6,119.5,158.4z M120,160l-0.1,3.8
						c0,0.7-0.1,1.2-0.2,1.5c0.6-1.1,1-2.1,1.3-3.1 M117.4,161.7c-0.1,0.8-0.3,2.1-0.7,3.9c-0.1,0.6-0.2,1-0.3,1.3
						c-0.1,0.4-0.4,0.8-0.8,1.5c-0.4,0.6-0.7,1.4-0.8,2.1c0.2-0.1,0.3-0.3,0.5-0.6c0,0,0.1-0.3,0.3-0.7c0.2-0.4,0.5-0.9,1-1.5
						c0,0,0-0.1,0-0.1c0.1-0.1,0.2-0.2,0.2-0.3c0.7-0.8,1.1-1.4,1.3-1.9c0.1-0.3,0.3-0.9,0.5-1.8 M114.4,173.2
						c0.1,0.3,0.1,0.6,0.1,0.9c0,0,0,0.1,0,0.1c0.1,0.9,0,1.5-0.1,2c-0.2,0.5-0.3,0.9-0.1,1.2c0.1-0.2,0.3-0.5,0.7-0.9
						c0.3-0.3,0.5-0.6,0.5-0.9 M118.2,168.9c0.1,0.6,0,1.3-0.1,2c-0.1,0.5-0.3,1.2-0.7,2c-0.4,1.3-0.8,2.3-1.3,3
						c0.6-0.4,1.2-0.9,1.6-1.4c0.4-0.4,0.9-1.1,1.5-2.2l1-1.8 M113.3,182.1c1.4-2,2.7-3.2,4-3.6c1.2-0.4,2.3,0,3.3,1.2 M40.3,177.3
						c-1.2-3.4-2.1-6.7-2.8-10c0,0,0,0,0-0.1c-0.3-1.1-0.5-2.2-0.6-3.3c0-0.3-0.1-0.6-0.1-0.9c0,0,0,0,0-0.1c0,0,0,0,0,0
						c0,0,0,0,0,0c-1.1-7.3-0.8-14.1,0.8-20.4c0,0,0,0,0-0.1c1.4-5.2,3.6-10.2,6.8-14.9c0.5-0.7,0.9-1.3,1.4-2
						c0.1-0.1,0.1-0.2,0.2-0.3c0.1-0.1,0.2-0.3,0.3-0.4c2.7-2.1,5.4-4,8.1-5.7c0,0,0,0,0,0c0.7-0.5,1.5-0.9,2.2-1.4
						c2-1.2,3.9-2.2,5.8-3c1.9-0.9,3.7-1.6,5.5-2.2 M88.2,133c-0.4-0.5-0.9-1-1.5-1.3l-0.8-0.5c-0.3-0.2-0.8-0.5-1.4-1
						c-0.6-0.5-1-0.8-1.2-1.1c-0.1-0.1-0.2-0.2-0.3-0.4c-0.4-0.5-0.9-1.1-1.6-1.9c0.3,0.7,0.6,1.5,0.8,2.4c0.3,1.1,0.6,2.4,0.8,3.8
						 M57,123.9c0.2,0,0.5,0,0.7,0c1.1-0.6,2.3-1,3.8-1.2c0.7-0.1,1.5-0.2,2.5-0.2c0.4,0,0.9,0,1.5-0.1c0.5,0,0.9,0,1.2,0
						c0.6,0,1.1,0,1.5,0.1c1,0.1,1.9,0.2,2.7,0.5c2.4,0.6,4.3,2,5.9,4.1c0,0,0,0,0.1,0.1c0.8,1,1.3,2.1,1.7,3.2
						c0.3,1.1,0.5,2.2,0.5,3.4 M81.3,126.8c0-0.1-0.1-0.1-0.1-0.2c-1-2.2-2.3-3.9-3.9-5c-0.6-0.4-1.3-0.8-2.1-1.1
						c-0.8-0.3-1.6-0.6-2.5-0.8c-1.4-0.3-3.1-0.5-5-0.6c-0.3,0-0.6,0-0.9,0c-0.5,0-0.9,0-1.4,0c-0.6,0-1.1,0-1.6,0.1
						c-0.8,0-1.6,0.1-2.3,0.2c-0.2,0.1-0.4,0.1-0.7,0.1c-1.8,0.3-3.3,0.9-4.6,1.6c-0.1,0.1-0.3,0.1-0.5,0.2
						c-1.3,0.7-2.2,1.5-2.9,2.4c-0.5,0.6-0.8,1.3-1,2c-0.3,1-0.2,2,0.1,3c0.1,0.3,0.2,0.6,0.4,0.8c0.4,0.6,0.9,1.1,1.5,1.4
						 M75.4,133.7c1.2,0.1,2.5,0.3,3.7,0.3c3.2,0.1,6.3,0,9.2-0.5c3.1-0.5,5.9-1.3,8.7-2.4h0c0.6-0.2,1.3-0.5,1.9-0.8 M96.8,130.6
						c-3.9-3.4-7.2-6-9.9-7.7c-3.3-2.1-6.9-3.9-10.6-5.2c0,0,0,0-0.1,0c-0.6-0.2-1.2-0.4-1.9-0.6c-0.3-0.1-0.5-0.2-0.8-0.2
						c-2-0.6-4.1-1.1-6.1-1.4c-1.7-0.3-3.4-0.5-5-0.6 M54.9,126.4c0.1,0,0.1,0,0.2,0c0.7-1.1,1.5-1.9,2.6-2.5c0,0,0,0,0.1,0
						c0.7,0,1.4,0.1,2.1,0.4c0.8,0.3,1.7,0.8,2.6,1.5c1.8,1.1,3.1,2.1,4,2.9c0.1,0.2,0.3,0.3,0.5,0.5c1.1,1.1,1.9,2.3,2.4,3.5
						c1.4,0.2,2.8,0.5,4.4,0.9c0.6,0.1,1.1,0.2,1.7,0.2c0,0,0-0.1,0-0.1c-0.1-1.5-0.6-3.1-1.6-4.5c-0.8-1.3-2.1-2.5-3.7-3.7
						c-2.2-1.8-4.2-2.5-6-2.2 M66.9,118.7c-1.6-0.5-3.2-0.8-4.8-1c-1.8-0.2-3.6-0.2-5.4,0 M64.5,132.3c-0.6-0.9-1.2-1.7-1.8-2.4
						c-0.3-0.3-0.6-0.6-0.9-0.8c0,0,0,0,0,0c-0.6-0.5-1.5-1-2.8-1.6c-0.9-0.4-1.6-0.7-2-0.8c-0.7-0.2-1.3-0.3-1.8-0.2
						c-0.1,0.1-0.1,0.2-0.2,0.3c-0.2,0.4-0.4,0.7-0.5,1.1c0.3,0,0.7,0.2,1.1,0.4c1,0.4,1.9,0.9,2.8,1.6c0.4,0.3,0.7,0.6,1.1,1
						c0.2,0.3,0.4,0.5,0.4,0.6c0,0,0.1,0.1,0.1,0.1c0.1,0.3,0.2,0.6,0.2,1.2 M69.4,132.6c-1.8-0.2-3.4-0.3-4.9-0.3
						c-1.5,0.1-3,0.3-4.3,0.6h0c-1.3,0.4-2.5,0.9-3.6,1.5 M54.2,130.5c-0.2-0.9-0.2-1.8,0.2-2.7c-0.3-0.1-0.6-0.1-0.9,0 M52.4,129.5
						c-1.7,1.6-2.9,3.1-3.8,4.3c0,0,0,0,0,0c-0.1,0.1-0.1,0.1-0.1,0.2c-0.9,1.3-1.5,2.7-1.9,4.1c-0.3,1.1-0.5,2.1-0.5,3.2
						c0,0.3,0,0.7,0,1c0,0.1,0,0.1,0,0.2 M54.6,132.5c-1.6,1.5-2.7,2.8-3.3,3.8c-0.2,0.3-0.5,1-0.9,1.9l-1,2.4
						c-0.1-1.2-0.2-2.1-0.2-2.6c0-1,0.1-1.9,0.3-2.6c0.1-0.2,0.1-0.3,0.2-0.4c0-0.1,0.1-0.2,0.2-0.3c0.1-0.1,0.2-0.1,0.3-0.2
						 M56.6,134.5c-2.5,1.5-4.5,3.8-6,6.8c-0.7,1.5-1.3,3.1-1.7,5l-0.5,12.8c0.2,1.6,0.3,3.2,0.3,5v0c0,2-0.2,4-0.5,6.1
						c0,0,0,0,0,0.1c0,0.1,0,0.2-0.1,0.3 M48.2,170.9c-0.5,3.2-1.4,6.4-2.5,9.9 M75.4,133.9c0-0.1,0-0.2,0-0.3 M52.2,123.1
						c-1.6,1.8-2.8,3.1-3.5,4c-0.6,0.8-1.1,1.5-1.6,2.3c-0.5,0.7-0.9,1.5-1.2,2.2c-0.1,0.3-0.4,0.9-0.7,1.5
						c-0.1,0.3-0.3,0.5-0.4,0.8c-0.1,0.2-0.3,0.4-0.4,0.6 M46.4,169.2c0.3-1,0.7-1.9,1-2.7c0.1-0.2,0.2-0.4,0.3-0.6
						c0.2-0.4,0.3-0.7,0.4-0.9c0.1-0.4,0.2-0.7,0.3-1 M48.2,170.5c0,0.1,0,0.3-0.1,0.4 M43.7,134.3c0-1.3,0.4-3.1,1.1-5.5
						c0.1-0.3,0.2-0.6,0.3-0.8c0.3-1.1,0.6-1.9,0.8-2.4c0,0,0,0,0,0c0-0.1,0.1-0.2,0.1-0.3 M42.3,137.1c-0.4,1.2-0.7,2.5-0.9,4
						c-0.1,0.9-0.2,2.3-0.3,4.2c0,0.8,0,1.4,0,1.8c0,0.7,0.2,1.3,0.4,1.8c-0.6,0-1.1-0.2-1.6-0.6c-0.5-0.4-0.8-0.9-1-1.4
						c-0.3-0.8-0.3-2-0.1-3.5c0-0.4,0-0.6-0.1-0.8c-0.1-0.1-0.2-0.2-0.3-0.2c-0.1-0.1-0.2,0-0.3,0.1 M45.3,142.3l-0.7-4
						c-0.1-0.5-0.1-0.9-0.1-1.2c0-0.3,0-0.5,0-0.6c0-0.4,0.2-0.8,0.4-1.2c0-0.1,0.1-0.2,0.1-0.3c0.1-0.2,0.3-0.5,0.5-0.8
						 M38.6,162.7c0.4-1,0.8-2,1.2-3c0.1-0.2,0.2-0.4,0.3-0.6c0.7-1.5,1.6-3,2.6-4.4c0.1-0.1,0.1-0.2,0.2-0.2c0-0.1,0.1-0.1,0.1-0.2
						c0.1-0.1,0.2-0.3,0.3-0.4c0.4-0.5,0.8-1,1.3-1.5c0.5-0.6,1.1-1.2,1.6-1.7 M45.7,146.6c-0.3,0.4-0.7,0.9-1,1.3
						c-0.6,0.7-1.1,1.4-1.6,2.1c-0.2,0.3-0.4,0.6-0.6,0.8c-1,1.5-1.8,2.8-2.3,3.9c-0.5,1.1-0.9,2.4-1.2,3.9c0,0.1,0,0.2-0.1,0.3
						c-0.2,0.9-0.4,2.1-0.6,3.8 M43,154.6c0,0.1-0.1,0.1-0.1,0.2c0,0,0,0.1,0,0.1c-0.9,1.7-1.5,3.5-2,5.3c-0.1,0.3-0.2,0.6-0.2,1
						c-0.2,0.7-0.3,1.5-0.4,2.2v0c-0.1,1.1-0.2,2.2-0.2,3.3 M44.6,155.6c-0.2,0.7-0.4,1.4-0.5,2.1c0,0.1-0.1,0.2-0.1,0.3
						c-0.3,1.2-0.5,2.4-0.7,3.6c0,0,0,0.1,0,0.1c-0.4,2.4-0.5,4.9-0.5,7.5c0,0,0,0,0,0.1c0,0.7,0,1.5,0.1,2.2c0.1,0.1,0.1,0.1,0.2,0
						c0.1,0,0.1-0.1,0.1-0.2 M40.4,166.6c0.4-0.7,0.8-1.5,1.1-2.5c0,0,0-0.1,0.1-0.3c0.1-0.4,0.4-1.2,0.8-2.3c0-0.1,0.1-0.1,0.1-0.2
						c0.5-1.5,1-2.6,1.5-3.3 M43.4,170.8c0.2-0.5,0.3-1,0.5-1.5c0,0,0,0,0,0c0.2-0.8,0.4-1.6,0.6-2.3c0.2-1.1,0.4-2,0.5-2.5
						c0.1-0.6,0.3-1.2,0.4-1.7c0-0.1,0.1-0.2,0.1-0.3c0.1-0.2,0.1-0.3,0.2-0.5 M45.4,162.8l-0.1,2.9c0,0.5,0,0.8,0.1,1
						c0,0.2,0.2,0.5,0.4,1c0.1,0.3,0.2,0.7,0.3,1.1c0,0.1,0,0.2,0,0.5v0c0,0.2,0,0.4,0.1,0.6 M40.3,177.3c2,0.5,3.5,1.2,4.4,2.2
						c0.4,0.4,0.7,0.8,0.9,1.3"/>
				</g>
			</g>
			<g transform="matrix( 1, 0, 0, 1, 0,0) ">
				<g>
					<g id="Layer3_0_FILL_7_">
						<path class="st54" d="M75.2,156.4H75c-0.1-0.4-0.3-0.8-0.7-1.1c-0.3-0.3-0.7-0.5-1.2-0.7c-0.6-0.2-1.5-0.2-2.8-0.1
							c-3,0.3-5.8,1-8.4,2c-2.8,1.1-5.3,2.5-7.4,4.2c-1.7,1.5-2.8,3-3.3,4.4c-0.1,0.4-0.2,0.8-0.2,1.2c0,0.4,0.1,0.8,0.3,1.1
							c0.3,0.5,0.9,0.7,1.6,0.8l2-0.3c0.6-0.3,1.4-0.7,2.4-1.3c1.2-0.8,2-1.3,2.3-1.5c1.4-0.8,3.2-1.4,5.3-1.8
							c0.9-0.2,2.7-0.5,5.6-0.8c1.2-0.2,2.1-0.4,2.8-0.7c1-0.4,1.6-1,2-1.7c0.3-0.6,0.4-1.4,0.3-2.3C75.5,157.4,75.3,157,75.2,156.4
							 M67.9,156.7c0.2,0,0.4,0,0.6,0.2c0.2,0.1,0.4,0.3,0.5,0.6c0.1,0,0.1,0,0.2,0c0.1-0.1,0.1-0.2,0.2-0.3
							c0.1-0.3,0.1-0.4,0.2-0.5c0.2-0.2,0.5-0.1,0.8,0.2c0.4,0.3,0.7,0.4,0.8,0.3c0.1,0,0.2-0.1,0.2-0.2c0-0.1,0.1-0.2,0.1-0.3
							c0-0.1,0.1-0.3,0.1-0.3c0.1-0.1,0.2-0.1,0.3-0.1c0.1,0,0.3,0.1,0.3,0.3c0.2,0.3,0.4,0.6,0.7,0.8c0.3,0.1,0.5,0.2,0.8,0.3
							l0,0.2l0.5,0.2l-0.7,2.3c-5.7,0.5-10.6,1.6-14.6,3.3c-2.5,1-4.6,2.2-6.4,3.6l0.9-2.4l4.6-3.5c0.2-0.2,0.5-0.3,0.8-0.4
							l-0.1-0.1l2.1-1.6l0-0.1c0.7-0.4,1.6-0.8,2.6-1.3c0.2,0.2,0.4,0.3,0.5,0.4c0.3,0.2,0.4,0.3,0.5,0.4l-0.1-1l1.7,0.5
							c0.1-0.3,0.1-0.6-0.1-0.8c0.7-0.1,1.4,0,2,0.2L67.9,156.7 M109,166.9c0.7,0,1.3-0.3,1.6-0.8c0.2-0.3,0.3-0.7,0.3-1.1
							c0-0.4-0.1-0.8-0.2-1.2c-0.5-1.4-1.5-2.9-3.3-4.4c-2.1-1.8-4.6-3.2-7.4-4.2c-2.6-1-5.4-1.6-8.4-2c-1.2-0.1-2.2-0.1-2.8,0.1
							c-0.5,0.1-0.9,0.4-1.2,0.7c-0.4,0.3-0.6,0.7-0.7,1.1h-0.2c-0.2,0.5-0.3,1-0.3,1.4c-0.1,0.9-0.1,1.7,0.3,2.3
							c0.4,0.7,1,1.3,2,1.7c0.7,0.3,1.6,0.5,2.8,0.7c2.8,0.4,4.7,0.7,5.6,0.8c2.1,0.4,3.8,1,5.3,1.8c0.4,0.2,1.2,0.7,2.3,1.5
							c1,0.6,1.8,1,2.4,1.3L109,166.9 M108.5,163.4l0.9,2.4c-1.8-1.4-3.9-2.6-6.4-3.6c-4-1.7-8.9-2.8-14.6-3.3l-0.7-2.3l0.5-0.2
							l0-0.2c0.2,0,0.5-0.1,0.8-0.3c0.3-0.2,0.5-0.5,0.7-0.8c0.1-0.2,0.2-0.3,0.3-0.3c0.1-0.1,0.2,0,0.3,0.1
							c0.1,0.1,0.1,0.2,0.1,0.3c0,0.1,0.1,0.2,0.1,0.3c0,0.1,0.1,0.2,0.2,0.2c0.1,0.1,0.4,0,0.8-0.3c0.4-0.3,0.6-0.3,0.8-0.2
							c0,0.1,0.1,0.2,0.2,0.5c0.1,0.1,0.1,0.2,0.2,0.3c0.1,0.1,0.1,0.1,0.2,0c0.1-0.2,0.2-0.4,0.5-0.6c0.2-0.2,0.4-0.2,0.6-0.2
							l-0.1,0.7c0.6-0.2,1.3-0.3,2-0.2c-0.2,0.3-0.2,0.6-0.1,0.8l1.7-0.5l-0.1,1c0,0,0.2-0.1,0.5-0.4c0.1-0.1,0.3-0.2,0.5-0.4
							c1,0.5,1.9,0.9,2.6,1.3l0,0.1l2.1,1.6l-0.1,0.1c0.3,0.1,0.5,0.2,0.8,0.4L108.5,163.4z"/>
						<path class="st55" d="M65.3,159.2c-0.3,0.1-0.5,0.1-0.8,0.2c-0.3,0.1-0.6,0.1-0.8,0.2c-0.3,0.1-0.4,0.2-0.6,0.3
							c-0.2,0.1-0.4,0.2-0.6,0.3c-0.1,0-0.4,0-0.9-0.1c-0.4,0-0.6,0.1-0.8,0.2c0,0-0.1,0.2-0.3,0.3c-0.1,0.1-0.2,0.2-0.3,0.2
							c-0.1,0-0.2,0-0.3,0c-0.2,0-0.4-0.1-0.4-0.1c-0.3-0.1-0.5-0.1-0.8,0c-0.3,0.1-0.5,0.2-0.8,0.4l-4.6,3.5l-0.9,2.4
							c1.8-1.4,3.9-2.6,6.4-3.6c4-1.7,8.9-2.8,14.6-3.3l0.7-2.3l-0.5-0.2c-0.4,0-0.9,0.1-1.5,0.3c-0.7,0.2-1.2,0.4-1.5,0.4l-1.2,0
							c-0.3,0-0.7,0.1-1.2,0.2C67,158.9,66,159,65.3,159.2 M109.4,165.8l-0.9-2.4l-4.6-3.5c-0.2-0.2-0.5-0.3-0.8-0.4
							c-0.3-0.1-0.6-0.1-0.8,0c0,0-0.1,0-0.4,0.1c-0.1,0-0.2,0-0.3,0c-0.1,0-0.3-0.1-0.3-0.2c-0.2-0.2-0.3-0.3-0.3-0.3
							c-0.2-0.1-0.4-0.2-0.8-0.2c-0.5,0-0.8,0.1-0.9,0.1c-0.2,0-0.4-0.1-0.6-0.3c-0.1-0.1-0.3-0.2-0.6-0.3c-0.2-0.1-0.4-0.1-0.8-0.2
							c-0.2,0-0.5-0.1-0.8-0.2c-0.7-0.1-1.7-0.3-3-0.5c-0.4-0.1-0.8-0.2-1.2-0.2l-1.2,0c-0.3,0-0.8-0.2-1.5-0.4
							c-0.6-0.2-1.1-0.3-1.5-0.3l-0.5,0.2l0.7,2.3c5.7,0.5,10.6,1.6,14.6,3.3C105.5,163.2,107.6,164.4,109.4,165.8z"/>
						<path class="st56" d="M68.6,156.9c-0.2-0.2-0.4-0.2-0.6-0.2l0.1,0.7c-0.6-0.2-1.3-0.3-2-0.2c0.2,0.3,0.2,0.6,0.1,0.8l-1.7-0.5
							l0.1,1c0,0-0.2-0.1-0.5-0.4c-0.1-0.1-0.3-0.2-0.5-0.4c-1,0.5-1.9,0.9-2.6,1.3l0,0.1l-2.1,1.6l0.1,0.1c0.3-0.1,0.6-0.1,0.8,0
							c0,0,0.1,0,0.4,0.1c0.1,0,0.2,0,0.3,0c0.1,0,0.3-0.1,0.3-0.2c0.2-0.2,0.3-0.3,0.3-0.3c0.2-0.1,0.4-0.2,0.8-0.2
							c0.5,0,0.8,0.1,0.9,0.1c0.2,0,0.4-0.1,0.6-0.3c0.1-0.1,0.3-0.2,0.6-0.3c0.2-0.1,0.4-0.1,0.8-0.2c0.2,0,0.5-0.1,0.8-0.2
							c0.7-0.1,1.7-0.3,3-0.5c0.4-0.1,0.8-0.2,1.2-0.2l1.2,0c0.3,0,0.8-0.2,1.5-0.4c0.6-0.2,1.1-0.3,1.5-0.3l0-0.2
							c-0.2,0-0.5-0.1-0.8-0.3c-0.3-0.2-0.5-0.5-0.7-0.8c-0.1-0.2-0.2-0.3-0.3-0.3c-0.1-0.1-0.2,0-0.3,0.1c-0.1,0.1-0.1,0.2-0.1,0.3
							c0,0.1-0.1,0.2-0.1,0.3c0,0.1-0.1,0.2-0.2,0.2c-0.1,0.1-0.4,0-0.8-0.3c-0.4-0.3-0.6-0.3-0.8-0.2c0,0.1-0.1,0.2-0.2,0.5
							c-0.1,0.1-0.1,0.2-0.2,0.3c-0.1,0.1-0.1,0.1-0.2,0C69,157.2,68.8,157,68.6,156.9 M98.5,156.5c-0.2,0.2-0.4,0.3-0.5,0.4
							c-0.3,0.2-0.4,0.3-0.5,0.4l0.1-1l-1.7,0.5c-0.1-0.3-0.1-0.6,0.1-0.8c-0.7-0.1-1.4,0-2,0.2l0.1-0.7c-0.2,0-0.4,0-0.6,0.2
							c-0.2,0.1-0.4,0.3-0.5,0.6c-0.1,0-0.1,0-0.2,0c-0.1-0.1-0.1-0.2-0.2-0.3c-0.1-0.3-0.1-0.4-0.2-0.5c-0.2-0.2-0.5-0.1-0.8,0.2
							c-0.4,0.3-0.7,0.4-0.8,0.3c-0.1,0-0.2-0.1-0.2-0.2c0-0.1-0.1-0.2-0.1-0.3c0-0.1-0.1-0.3-0.1-0.3c-0.1-0.1-0.2-0.1-0.3-0.1
							c-0.1,0-0.3,0.1-0.3,0.3c-0.2,0.3-0.4,0.6-0.7,0.8c-0.3,0.1-0.5,0.2-0.8,0.3l0,0.2c0.4,0,0.9,0.1,1.5,0.3
							c0.7,0.2,1.2,0.4,1.5,0.4l1.2,0c0.3,0,0.7,0.1,1.2,0.2c1.3,0.2,2.3,0.4,3,0.5c0.3,0.1,0.5,0.1,0.8,0.2
							c0.3,0.1,0.6,0.1,0.8,0.2c0.3,0.1,0.4,0.2,0.6,0.3c0.2,0.1,0.4,0.2,0.6,0.3c0.1,0,0.4,0,0.9-0.1c0.4,0,0.6,0.1,0.8,0.2
							c0,0,0.1,0.2,0.3,0.3c0.1,0.1,0.2,0.2,0.3,0.2c0.1,0,0.2,0,0.3,0c0.2,0,0.4-0.1,0.4-0.1c0.3-0.1,0.5-0.1,0.8,0l0.1-0.1
							l-2.1-1.6l0-0.1C100.4,157.3,99.5,156.9,98.5,156.5z"/>
					</g>
				</g>
			</g>
			<g transform="matrix( 1, 0, 0, 1, 0,0) ">
				<g>
					<g id="Layer2_0_FILL_7_">
						<path class="st56" d="M87.4,155.7l-0.1,0.4c-0.1,0.8-0.2,1.4-0.2,1.8c0,0.1,0,0.2,0.1,0.2c0.1,0,0.1,0,0.2,0
							c0,0,0.1,0.1,0.1,0.1c0.1,0,0.2,0,0.2-0.1l0.1-0.1l0.1-0.3l0-0.1c0-0.1,0-0.2-0.1-0.2c-0.1,0-0.2,0-0.3,0c0,0,0,0-0.1,0.1
							l0.2-1.5c0-0.1,0-0.2,0-0.2c0-0.1-0.1-0.1-0.1-0.1C87.5,155.6,87.4,155.7,87.4,155.7 M85.8,156.2c0-0.2,0-0.3-0.1-0.3
							c-0.1-0.1-0.3,0-0.3,0.1c0,0-0.1,0.2-0.1,0.4c0,0.2,0,0.4-0.1,0.7c0,0.3,0,0.5,0,0.8c0,0.1,0,0.2,0,0.2
							c0.1,0.1,0.1,0.1,0.2,0.1c0,0,0.1-0.1,0.1-0.2C85.7,157.5,85.8,156.8,85.8,156.2 M87,154.2c0-0.1-0.1-0.1-0.1-0.2l-0.1,0
							c-0.1,0-0.1,0.1-0.1,0.2l-0.3,1.7c-0.1,0.6-0.2,1.1-0.2,1.7L86,158c0,0.1,0,0.2,0.1,0.2c0.1,0,0.1-0.1,0.2-0.2
							c0.1-0.2,0.1-0.3,0.1-0.5L87,154.2 M80.8,156.2c-0.1-0.1-0.2-0.1-0.3-0.1c-0.1,0.1-0.1,0.2-0.1,0.4c0,0.7,0,1.2,0,1.5
							c0,0.2,0,0.3,0.1,0.4c0.1,0.2,0.2,0.2,0.3,0.1c0.1,0,0.1-0.1,0.1-0.3c0-0.5,0-1.1,0-1.8C80.8,156.3,80.8,156.2,80.8,156.2
							 M79.4,156.1c-0.1-0.1-0.2-0.1-0.2,0c-0.1,0.1-0.1,0.2-0.1,0.4v0.6c0,0.2,0,0.4,0.1,0.6c0,0,0.1,0.1,0.1,0.3l0.1,0.1
							c0.1,0,0.1,0,0.1-0.1c0-0.1,0-0.2,0-0.5c0-0.2,0-0.5,0-0.8C79.6,156.3,79.5,156.1,79.4,156.1 M78.6,156.1c0,0-0.1,0-0.1,0
							c-0.1,0-0.1,0-0.2,0.1c-0.1,0.1-0.1,0.3,0,0.5c0,0.2,0.1,0.5,0.1,0.8c0,0.4,0.1,0.6,0.1,0.8c0,0.1,0,0.1,0.1,0.1
							c0.1,0,0.1,0,0.2-0.1c0.2-0.5,0.2-1.1,0-1.9C78.7,156.2,78.7,156.1,78.6,156.1 M83.8,156.2c-0.1,0.1-0.1,0.3,0,0.5
							c0,0.1,0.1,0.4,0.1,0.8c0,0.3,0,0.6,0.1,0.8c0,0.1,0.1,0.2,0.1,0.2c0.1,0.1,0.1,0.1,0.2,0c0,0,0.1-0.1,0.1-0.2
							c0.1-0.8,0.1-1.4-0.1-1.9c0-0.1-0.1-0.1-0.1-0.2c0,0-0.1-0.1-0.2-0.1C83.9,156.2,83.8,156.2,83.8,156.2 M83.1,156.4
							c0,0,0,0.1,0,0.2l0,1.1c0,0.1,0,0.2,0,0.3c0.1,0.1,0.1,0.1,0.2,0.1c0,0,0.1-0.1,0.1-0.1c0.1-0.1,0.1-0.4,0.1-0.6
							c0-0.3,0-0.5,0.1-0.6l0-0.2c0-0.1-0.1-0.2-0.2-0.2C83.2,156.3,83.1,156.3,83.1,156.4 M81.8,156.3c-0.1,0-0.1,0.1-0.1,0.3
							l-0.1,0.9c0,0.1,0,0.2,0.1,0.3c0,0,0,0.1,0.1,0.1c0,0,0.1,0,0.1,0c0,0,0.1-0.1,0.1-0.2l0.1-0.2c0,0,0-0.1,0-0.3l0.1-0.6
							c0-0.2,0-0.3,0-0.3C81.9,156.2,81.8,156.2,81.8,156.3 M77,156.4c-0.1,0-0.1,0.1-0.2,0.3l-0.2,1.2c0,0.1,0,0.2,0.1,0.2
							c0,0,0.1,0,0.1,0c0.1-0.1,0.1-0.2,0.2-0.4l0.2-0.9c0-0.1,0-0.2,0-0.2C77.2,156.4,77.1,156.4,77,156.4 M75.6,156.5l0,0.3
							c0,0.5,0.1,1,0.2,1.4c0,0.2,0.1,0.3,0.2,0.3c0.1,0,0.1,0.1,0.2,0.1c0.1,0,0.1-0.1,0.1-0.2c0-0.2,0-0.4-0.1-0.7
							c-0.1-0.3-0.1-0.6-0.1-0.7c0-0.2,0-0.3,0-0.4c0-0.1-0.1-0.2-0.3-0.2C75.7,156.4,75.7,156.4,75.6,156.5 M74.8,155.5
							c-0.1,0-0.2,0.1-0.3,0.2c0,0,0,0.2,0,0.3c0,0,0,0.3,0,0.8v2l0,0.2c0,0.1,0,0.1,0.1,0.1c0.1,0,0.2,0,0.2-0.1
							c0.1-0.1,0.2-0.3,0.2-0.6l0-0.4l-0.1-0.9c0-0.2,0-0.3,0-0.5L75,156c0-0.1,0-0.2,0-0.3C75,155.6,74.9,155.6,74.8,155.5z"/>
					</g>
				</g>
			</g>
			<g transform="matrix( 1, 0, 0, 1, 0,0) ">
				<g>
					<g id="Layer1_0_FILL_7_">
						<path class="st14" d="M100.8,166.5c-0.2-0.1-0.4-0.2-0.7-0.3c-0.7-0.2-1.5-0.3-2.4-0.3h0c0,0,0,0-0.1,0c0,0-0.1,0-0.2,0
							c-1,0-1.8,0.1-2.6,0.3c-2.6,0.7-4.2,2.8-4.9,6.1c2.5,1.2,5.1,1.8,7.7,2h0c2.8,0.1,5.6-0.3,8.5-1.3c0-0.1-0.1-0.2-0.1-0.2
							c0,0,0-0.1,0-0.1C105,169.5,103.2,167.4,100.8,166.5 M94.8,168.9c0.1-0.2,0.2-0.3,0.4-0.5c0.6-0.6,1.4-1,2.3-1s1.7,0.3,2.3,1
							c0.2,0.2,0.4,0.4,0.5,0.6c0.3,0.5,0.5,1.1,0.5,1.7c0,0,0,0.1,0,0.1c0,0.1,0,0.3,0,0.4l-0.1,0.5c-0.1,0.5-0.4,0.9-0.8,1.3
							c-0.5,0.5-1,0.8-1.7,0.9c-0.2,0-0.4,0.1-0.7,0.1c-0.9,0-1.7-0.3-2.3-1c-0.6-0.6-1-1.4-1-2.3C94.3,170.1,94.5,169.5,94.8,168.9
							 M62.5,166.8c-2.5,0.9-4.2,3-5.2,6.1c0,0,0,0.1,0,0.1c0,0.1-0.1,0.1-0.1,0.2c2.9,1,5.8,1.5,8.5,1.3h0c2.6-0.1,5.2-0.8,7.7-2
							c-0.7-3.3-2.4-5.4-4.9-6.1c-0.8-0.3-1.7-0.4-2.6-0.3c-0.1,0-0.1,0-0.2,0c0,0,0,0-0.1,0h0c-0.9,0-1.7,0.1-2.4,0.3
							C63,166.6,62.7,166.7,62.5,166.8 M62.5,171.5c0-0.1,0-0.2,0-0.4c0,0,0-0.1,0-0.1c0-0.6,0.2-1.2,0.5-1.7
							c0.1-0.2,0.3-0.4,0.5-0.6c0.6-0.6,1.4-1,2.3-1s1.7,0.3,2.3,1c0.2,0.2,0.3,0.3,0.4,0.5c0.4,0.5,0.6,1.1,0.6,1.8
							c0,0.9-0.3,1.7-1,2.3c-0.6,0.6-1.4,1-2.3,1c-0.2,0-0.5,0-0.7-0.1c-0.6-0.1-1.2-0.4-1.7-0.9c-0.4-0.4-0.7-0.8-0.8-1.3
							C62.6,171.8,62.5,171.7,62.5,171.5z"/>
						<path class="st57" d="M95.2,168.4c-0.2,0.2-0.3,0.3-0.4,0.5c-0.4,0.5-0.6,1.1-0.6,1.8c0,0.9,0.3,1.7,1,2.3
							c0.6,0.6,1.4,1,2.3,1c0.2,0,0.5,0,0.7-0.1c0.6-0.1,1.2-0.4,1.7-0.9c0.4-0.4,0.7-0.8,0.8-1.3l0.1-0.5c0-0.1,0-0.2,0-0.4
							c0,0,0-0.1,0-0.1c0-0.6-0.2-1.2-0.5-1.7c-0.1-0.2-0.3-0.4-0.5-0.6c-0.6-0.6-1.4-1-2.3-1S95.9,167.8,95.2,168.4 M97.2,169.4
							c0.1,0,0.2,0,0.4,0c0.4,0,0.7,0.1,1,0.4c0.3,0.3,0.4,0.6,0.4,1c0,0.4-0.2,0.7-0.5,1c-0.3,0.3-0.6,0.4-1,0.4
							c-0.4,0-0.8-0.1-1-0.4c0,0-0.1-0.1-0.2-0.2c-0.1-0.2-0.2-0.5-0.2-0.8c0-0.4,0.1-0.7,0.4-1C96.7,169.6,96.9,169.5,97.2,169.4
							 M62.5,171.1c0,0.1,0,0.3,0,0.4c0,0.2,0.1,0.3,0.1,0.5c0.1,0.5,0.4,0.9,0.8,1.3c0.5,0.5,1,0.8,1.7,0.9c0.2,0,0.4,0.1,0.7,0.1
							c0.9,0,1.7-0.3,2.3-1c0.6-0.6,1-1.4,1-2.3c0-0.7-0.2-1.3-0.6-1.8c-0.1-0.2-0.2-0.3-0.4-0.5c-0.6-0.6-1.4-1-2.3-1
							s-1.7,0.3-2.3,1c-0.2,0.2-0.4,0.4-0.5,0.6c-0.3,0.5-0.5,1.1-0.5,1.7C62.5,171,62.5,171.1,62.5,171.1 M65.8,169.7
							c0.1,0,0.2,0,0.4,0c0.3,0,0.5,0.1,0.7,0.3c0.3,0.3,0.4,0.6,0.4,1c0,0.3,0,0.5-0.2,0.8c-0.1,0.1-0.1,0.2-0.2,0.2
							c-0.3,0.3-0.6,0.4-1,0.4c-0.4,0-0.7-0.1-1-0.4c-0.3-0.2-0.4-0.6-0.5-1c0-0.4,0.1-0.7,0.4-1C65.1,169.8,65.4,169.7,65.8,169.7z
							"/>
						<path class="st58" d="M96.8,170.5c0,0.1,0,0.1,0.1,0.2c0,0,0,0.1,0.1,0.1c0,0,0,0,0.1,0c0,0,0.1,0,0.1-0.1
							c0.1-0.2,0.2-0.4,0.2-0.5c0-0.1,0-0.1,0-0.2c0-0.2-0.1-0.3-0.2-0.5c-0.3,0-0.5,0.1-0.7,0.3c-0.3,0.3-0.4,0.6-0.4,1
							c0,0.3,0,0.5,0.2,0.8c0.1-0.2,0.2-0.3,0.3-0.6C96.7,170.8,96.8,170.6,96.8,170.5 M65.9,170.3c0,0.1,0,0.1,0,0.2
							c0,0.1,0.1,0.2,0.2,0.5c0,0,0.1,0.1,0.1,0.1c0,0,0.1,0,0.1,0c0.1,0,0.1,0,0.1-0.1c0-0.1,0.1-0.1,0.1-0.2
							c0,0.1,0.1,0.3,0.2,0.4c0.1,0.2,0.2,0.4,0.3,0.6c0.1-0.2,0.2-0.5,0.2-0.8c0-0.4-0.1-0.7-0.4-1c-0.2-0.2-0.4-0.3-0.7-0.3
							C66,169.9,65.9,170.1,65.9,170.3z"/>
						<path d="M97.5,169.4c-0.1,0-0.2,0-0.4,0c0.1,0.2,0.2,0.4,0.2,0.5c0,0.1,0,0.1,0,0.2c0,0.1-0.1,0.2-0.2,0.5
							c0,0-0.1,0.1-0.1,0.1c0,0-0.1,0-0.1,0c-0.1,0-0.1,0-0.1-0.1c0-0.1-0.1-0.1-0.1-0.2c0,0.1-0.1,0.3-0.2,0.4
							c-0.1,0.2-0.2,0.4-0.3,0.6c0.1,0.1,0.1,0.2,0.2,0.2c0.3,0.3,0.6,0.4,1,0.4c0.4,0,0.7-0.1,1-0.4c0.3-0.2,0.4-0.6,0.5-1
							c0-0.4-0.1-0.7-0.4-1C98.2,169.6,97.9,169.4,97.5,169.4 M66.1,169.7c-0.1,0-0.2,0-0.4,0c-0.4,0-0.7,0.1-1,0.4
							c-0.3,0.3-0.4,0.6-0.4,1c0,0.4,0.2,0.7,0.5,1c0.3,0.3,0.6,0.4,1,0.4c0.4,0,0.8-0.1,1-0.4c0,0,0.1-0.1,0.2-0.2
							c-0.1-0.2-0.2-0.3-0.3-0.6c-0.1-0.2-0.2-0.3-0.2-0.4c0,0.1,0,0.1-0.1,0.2c0,0,0,0.1-0.1,0.1c0,0,0,0-0.1,0c0,0-0.1,0-0.1-0.1
							c-0.1-0.2-0.2-0.4-0.2-0.5c0-0.1,0-0.1,0-0.2C65.9,170.1,66,169.9,66.1,169.7z"/>
						<path class="st59" d="M91.1,165.2l1,1.3c0.5-0.4,1-0.7,1.7-0.9c0.2-0.1,0.5-0.2,0.7-0.3c2.2-0.6,4.1-0.6,5.8,0.1
							c3.2,0.9,5.1,3.3,5.6,7.2c0,0,0,0.1,0,0.1c0,0.1,0.1,0.1,0.1,0.2l0,1.5l1.4-1.3c-2.1-7-5.1-10.4-9.2-10.3
							C95.3,162.8,92.9,163.6,91.1,165.2 M55.8,173.4l1.4,1.3l0-1.5c0-0.1,0.1-0.2,0.1-0.2c0,0,0-0.1,0-0.1c0.5-3.9,2.4-6.3,5.6-7.2
							c1.7-0.7,3.6-0.7,5.8-0.1c0.2,0.1,0.5,0.2,0.7,0.3c0.6,0.2,1.2,0.5,1.7,0.9l1-1.3c-1.8-1.6-4.2-2.3-7.2-2.3
							C61,163,57.9,166.4,55.8,173.4z"/>
						<path class="st37" d="M89.8,172.3c0.2,0.9,0.6,1.6,1.3,2.1c0.4,0.4,1,0.6,1.7,0.9c4.4,1.3,8.9,1,13.3-0.8l0-1.5
							c-2.9,1-5.8,1.5-8.5,1.3h0C94.9,174.1,92.3,173.5,89.8,172.3 M57.2,173.2l0,1.5c4.4,1.9,8.9,2.1,13.3,0.8
							c0.7-0.2,1.2-0.5,1.7-0.9c0.7-0.6,1.1-1.3,1.3-2.1c-2.5,1.2-5.1,1.8-7.7,2h0C63,174.7,60.1,174.3,57.2,173.2z"/>
						<path class="st60" d="M92.2,166.5c-1.4,1.2-2.2,3.1-2.3,5.8c0.7-3.3,2.4-5.4,4.9-6.1c0.8-0.3,1.7-0.4,2.6-0.3
							c0.1,0,0.1,0,0.2,0c0,0,0,0,0.1,0h0c0.9,0,1.7,0.1,2.4,0.3c0.2,0.1,0.5,0.2,0.7,0.3c2.5,0.9,4.2,3,5.2,6.1
							c-0.5-3.9-2.4-6.3-5.6-7.2c-1.7-0.7-3.6-0.7-5.8-0.1c-0.2,0.1-0.5,0.2-0.7,0.3C93.2,165.8,92.6,166.1,92.2,166.5 M57.3,172.9
							c1-3.1,2.7-5.2,5.2-6.1c0.2-0.1,0.4-0.2,0.7-0.3c0.7-0.2,1.5-0.3,2.4-0.3h0c0,0,0,0,0.1,0c0,0,0.1,0,0.2,0
							c1,0,1.8,0.1,2.6,0.3c2.6,0.7,4.2,2.8,4.9,6.1c-0.1-2.7-0.9-4.7-2.3-5.8c-0.5-0.4-1-0.7-1.7-0.9c-0.2-0.1-0.5-0.2-0.7-0.3
							c-2.2-0.6-4.1-0.6-5.8,0.1C59.8,166.6,57.9,169,57.3,172.9z"/>
						<path class="st61" d="M90.4,165.9c-1,1.5-1.5,3.9-1.7,7.2l2.4,1.4c-0.7-0.6-1.1-1.3-1.3-2.1c0.1-2.7,0.9-4.7,2.3-5.8l-1-1.3
							c0,0-0.1,0.1-0.2,0.1C90.7,165.5,90.6,165.7,90.4,165.9 M72.4,165.6c-0.1,0-0.1-0.1-0.2-0.1l-1,1.3c1.4,1.2,2.2,3.1,2.3,5.8
							c-0.2,0.9-0.6,1.6-1.3,2.1l2.4-1.4c-0.1-3.3-0.7-5.7-1.7-7.2C72.7,166,72.5,165.8,72.4,165.6z"/>
					</g>
				</g>
			</g>
			<g transform="matrix( 1, 0, 0, 1, 0,0) ">
				<g>
					<g id="Layer0_0_FILL_4_">
						<path class="st62" d="M90.1,205.2c0.3-3.2,0.1-5.2-0.6-6c-1.6-1.7-3.2-1.8-4.8-0.2c-1.5,0.7-2.8,0.7-3.8,0
							c-2-1.3-3.5-0.9-4.6,1c-0.8,1.5-1,3.4-0.5,5.7c-0.6,3.8,0.4,6.9,2.8,9.2c2,1,4.2,1.2,6.6,0.6c0.9-0.3,1.9-0.6,2.9-1.2
							C90.2,210.8,90.8,207.8,90.1,205.2 M88.5,203c0.2,0.7,0.4,1.4,0.4,2.2c0,1.4-0.3,2.8-1,4.4c-1.1,1-2.3,1.7-3.5,2
							c-2,0.5-4.1,0-6.3-1.6c-0.6-1.4-1-2.9-1-4.3c0-0.7,0-1.3,0.1-2c0.8-1.2,2.2-1.8,4.3-1.9c1.1,0.6,2,0.6,2.8,0
							C86,201.2,87.3,201.7,88.5,203z"/>
						<path class="st63" d="M88.9,205.2c0-0.8-0.1-1.5-0.4-2.2c-1.2-1.3-2.5-1.7-4.1-1.3c-0.7,0.6-1.7,0.6-2.8,0
							c-2.1,0.1-3.6,0.7-4.3,1.9c-0.1,0.7-0.2,1.4-0.1,2c0,1.5,0.3,2.9,1,4.3c2.2,1.5,4.3,2.1,6.3,1.6c1.2-0.3,2.4-1,3.5-2
							C88.6,208,88.9,206.5,88.9,205.2z"/>
					</g>
				</g>
			</g>
		</g>
	</g>
</g>
</svg>
