<?xml version="1.0" encoding="utf-8"?>
<!-- Generator: Adobe Illustrator 23.0.4, SVG Export Plug-In . SVG Version: 6.00 Build 0)  -->
<svg version="1.1" id="Capa_1" xmlns="http://www.w3.org/2000/svg" xmlns:xlink="http://www.w3.org/1999/xlink" x="0px" y="0px"
	 viewBox="0 0 178.3 50.6" style="enable-background:new 0 0 178.3 50.6;" xml:space="preserve">
<style type="text/css">
	.st0{fill:#1A2D48;}
	.st1{fill:#345AA1;}
	.st2{fill:#FFFFFF;}
</style>
<title>Recurso 4</title>
<g>
	<path class="st0" d="M160.2,46.4H20.7C13.1,46.4,7,40.3,7,32.7V21.6C7,14,13.1,7.8,20.7,7.8h139.5c7.6,0,13.8,6.2,13.8,13.8v11.1
		C174,40.3,167.8,46.4,160.2,46.4z"/>
	<path class="st1" d="M155.9,43.8H16.4c-7.6,0-13.8-6.2-13.8-13.8V19c0-7.6,6.2-13.8,13.8-13.8h139.5c7.6,0,13.8,6.2,13.8,13.8v11.1
		C169.7,37.7,163.5,43.8,155.9,43.8z"/>
	<g>
		<path class="st2" d="M71.6,29.9h-6.8v-2.1h1.9v-7.5h-1.9v-2.1h6.8v2.1h-1.9v7.5h1.9V29.9z"/>
		<path class="st2" d="M82.2,29.9h-9.8v-2.2l5.8-7.2h-5.5v-2.3h9.2v2.2l-5.8,7.2h6.1V29.9z"/>
		<path class="st2" d="M94.2,29.9h-3.1l-0.8-2.4H86l-0.8,2.4h-3l4.3-11.7h3.5L94.2,29.9z M89.5,25.4l-1.4-4.2l-1.4,4.2H89.5z"/>
		<path class="st2" d="M101,26.5c0,0.5-0.1,1-0.3,1.4c-0.2,0.4-0.5,0.8-0.8,1.1c-0.4,0.3-0.8,0.6-1.4,0.8c-0.5,0.2-1.2,0.3-2,0.3
			c-0.5,0-1,0-1.5-0.1c-0.5,0-0.9-0.1-1.3-0.2v-2.4h0.3c0.3,0.1,0.5,0.2,0.8,0.3s0.6,0.1,1,0.1c0.5,0,1-0.1,1.3-0.2s0.5-0.3,0.6-0.6
			c0.1-0.3,0.2-0.5,0.2-0.8c0-0.3,0-0.7,0-1.2v-4.6h-2.7v-2.1h5.7V26.5z"/>
		<path class="st2" d="M111.4,29.9H103V18.2h8.4v2.3H106v2h5v2.3h-5v2.9h5.4V29.9z"/>
	</g>
</g>
</svg>
