<?xml version="1.0" encoding="utf-8"?>
<!-- Generator: Adobe Illustrator 23.0.4, SVG Export Plug-In . SVG Version: 6.00 Build 0)  -->
<svg version="1.1" id="Capa_1" xmlns="http://www.w3.org/2000/svg" xmlns:xlink="http://www.w3.org/1999/xlink" x="0px" y="0px"
	 viewBox="0 0 609.5 412.6" style="enable-background:new 0 0 609.5 412.6;" xml:space="preserve">
<style type="text/css">
	.st0{opacity:0.77;fill:#FFFFFF;enable-background:new    ;}
	.st1{fill:#0C0B0B;}
	.st2{fill:#1A1919;}
	.st3{fill:#1E1E1E;}
	.st4{fill:#0E0E0E;}
	.st5{fill:#544A44;}
	.st6{fill:#322D2A;}
	.st7{fill:#363636;}
	.st8{fill:#1D1D1D;}
	.st9{fill:#34302A;}
	.st10{fill:#282828;}
	.st11{fill:#F0CA30;}
	.st12{fill:#1D3366;}
	.st13{fill:#162845;}
	.st14{fill:#FFFFFF;}
	.st15{fill:#ACACAC;}
	.st16{fill:#D8D8D8;}
	.st17{fill:#C0C7CA;}
	.st18{fill:#F0F0F0;}
	.st19{fill:#B2B2B2;}
	.st20{fill:#D2D2D2;}
	.st21{fill:#9D9D9D;}
	.st22{fill:#D27D57;}
	.st23{fill:#1B3052;}
	.st24{fill:#656565;}
	.st25{fill:#E1B38F;}
	.st26{fill:#F5ECE2;}
	.st27{fill:#E9CAB0;}
	.st28{fill:#E4E6E6;}
	.st29{fill:#EFCCB1;}
	.st30{fill:#E1B28F;}
	.st31{fill:#C28F67;}
	.st32{fill:#ECD2BE;}
	.st33{fill:#F3DCC7;}
	.st34{fill:#BD845F;}
	.st35{fill:#E0B69F;}
	.st36{fill:#C38664;}
	.st37{fill:#D28D5F;}
	.st38{fill:#333333;}
	.st39{fill:#D79C7A;}
	.st40{fill:#F4D7C3;}
	.st41{fill:#E5BE97;}
	.st42{fill:#E6BC9E;}
	.st43{fill:#E7C9B0;}
	.st44{fill:#C27F58;}
	.st45{fill:#B54C2F;}
	.st46{fill:#E3A97E;}
	.st47{fill:#F3E1D3;}
	.st48{fill:#D4AD8E;}
	.st49{fill:#F0D4BD;}
	.st50{fill:#EFD9C7;}
	.st51{fill:#F5EBDF;}
	.st52{fill:none;stroke:#666666;stroke-linecap:round;stroke-linejoin:round;}
	.st53{fill:#F4E2D3;}
	.st54{fill:#34383C;}
	.st55{fill:#505656;}
	.st56{fill:#4F370D;}
	.st57{fill:#CACACA;}
	.st58{fill:#81604A;}
	.st59{fill:#E3B390;}
	.st60{fill:#E3B290;}
	.st61{fill:#422214;}
	.st62{fill:#C8825C;}
	.st63{fill:#D19977;}
	.st64{fill:#B41024;}
	.st65{fill:#ECF1EA;}
	.st66{fill:#B14D36;}
</style>
<title>Recurso 2</title>
<g>
	<g id="contenedor_pregunta">
		<path id="_Rectángulo_" class="st0" d="M140.4,0h449.4c10.9,0,19.7,8.8,19.7,19.6v256.5c0,10.9-8.8,19.6-19.7,19.6H140.4
			c-10.9,0-19.7-8.8-19.7-19.6V19.6C120.8,8.8,129.6,0,140.4,0z"/>
	</g>
	<g>
		<g transform="matrix( 1, 0, 0, 1, 0,0) ">
			<g>
				<g id="Layer8_0_FILL_1_">
					<path class="st1" d="M64.7,395.6l-0.1-2.2c-1.1,0.3-2.2,0.6-3.1,0.9L64.7,395.6z"/>
					<path class="st2" d="M70.6,395l0.1-2.5c-2.2,0.2-4.2,0.5-6,0.9l0.1,2.2C66.7,396,68.6,395.7,70.6,395 M82.8,396.1l0.7,1
						l5.5,1.7h4.9l7.6-3.2c0-0.3,0-0.5,0-0.8l-7.4,2.6h-4.3L82.8,396.1z"/>
					<path class="st3" d="M56.1,391.8c0.5-0.1,1.1-0.2,1.6-0.4c2.2-0.5,4.2-1.7,6.1-3.7c-2.8-1.7-5.7-3.1-8.6-4.2
						c-1.9,1.4-3.4,2.9-4.4,4.8L56.1,391.8 M92.3,386.1H89l-4.6,4.2c4.7-0.8,9.8-0.8,15.3,0.1C97.3,388.2,94.8,386.7,92.3,386.1z"/>
					<path class="st4" d="M57.6,381.9l-2.5,1.6c2.9,1.2,5.8,2.6,8.6,4.2c2.4,1.4,4.7,3,7,4.7c0.3-0.4,0.5-0.9,0.7-1.4L57.6,381.9
						 M89.2,385.1C89.2,385.1,89.2,385.1,89.2,385.1l-6.9,6c0.1,0.2,0.3,0.5,0.4,0.7l1.6-1.5l4.6-4.2h3.2c2.5,0.7,5,2.1,7.4,4.3
						c0.2,0.1,0.3,0.3,0.5,0.4c0.3-0.5,0.5-1,0.4-1.6c-0.7-0.8-1.6-1.7-2.9-2.5c-0.7-0.4-1.4-0.9-2.3-1.3
						C93.3,384.7,91.2,384.5,89.2,385.1z"/>
					<path class="st5" d="M38.1,390.4c0.9,1.5,2.8,2.4,5.7,2.6c3.9,0.1,8-0.3,12.2-1.2l-5.4-3.6C47.1,389.8,42.9,390.5,38.1,390.4
						 M82.8,391.8v1.5c1.5,0.7,3.3,1.1,5.7,1.1h8c2.3-0.1,3.7-0.9,4.4-2.5c-0.2-0.4-0.4-0.8-0.7-1.2c-0.2-0.2-0.3-0.3-0.5-0.4
						c-5.5-0.8-10.6-0.8-15.3-0.1L82.8,391.8z"/>
					<path class="st6" d="M38.1,390.4c-1.2,1.4-1.2,2.8,0,4.3c1.3,0.9,3.1,1.5,5.3,1.8c3.4,0.5,8,0.4,13.7-0.4l4.4-1.8
						c0.9-0.4,2-0.7,3.1-0.9c1.8-0.4,3.8-0.7,6-0.9c-2.3-1.8-4.6-3.3-7-4.7c-1.8,2-3.9,3.2-6.1,3.7c-0.5,0.1-1.1,0.3-1.6,0.4
						c-4.2,0.9-8.3,1.3-12.2,1.2C40.9,392.8,39,391.9,38.1,390.4z"/>
					<path d="M57.2,326.7c0.6,0.2,1,0.5,1.2,0.7c0.4,0.3,0.6,0.8,0.6,1.3c2.4,0.2,4.9,1.9,7.6,5.3c-0.3-0.7-0.6-1.4-0.9-2
						c-1.9-3.6-4.5-5.8-8-6.6c-0.9-0.2-1.9-0.3-3-0.3c-0.4,0-0.7,0-1.1,0c0.1,0.2,0.4,0.5,0.8,0.6c0.2,0.1,0.6,0.2,1,0.3
						C56,326.2,56.6,326.4,57.2,326.7 M58.1,316.1l-0.8-0.2v5.3l-2.6,0.6v0.8l3.4-0.8V316.1z"/>
					<path class="st7" d="M43.9,317.9c-0.1,0.1-0.1,0.2-0.2,0.4c-0.5,2.2,2.3,11.3,8.4,27.3c0.4,1.1,0.9,2.3,1.4,3.5
						c2.9,7.9,5,15.9,6.1,24c3.6,0.2,5.3,1.3,5.1,3.1c-0.7-1.4-2.2-2.2-4.8-2.4c0,0-0.1,0-0.1,0c-0.4,0.1-0.6,0.3-0.6,0.6
						c0,0.1,0.1,0.2,0.2,0.3c2.7,1.3,4.3,2.8,4.8,4.6c-1.6-1.8-3.3-3.1-5.2-3.9c-1.2,1.9-1.6,4.1-1.4,6.6l13.7,9.2
						c0.8-2.6,0.2-6.5-1.8-11.7l-2.4-15.5c-0.9-5.5-2.4-9.7-4.2-12.4c-2.3-7.8-3.6-15.3-4-22.8c0-0.5-0.2-1-0.6-1.3
						c-0.2-0.2-0.7-0.5-1.2-0.7c-0.6-0.3-1.2-0.5-1.8-0.7c-0.5-0.1-0.8-0.2-1-0.3c-0.4-0.2-0.6-0.4-0.8-0.6c0.4,0,0.7,0,1.1,0
						c1.1,0,2.1,0.1,3,0.3c3.5,0.8,6.2,3,8,6.6c-0.9-4-2.3-8-4.3-11.8c-1.1-2.2-2.4-4.3-3.8-6.4l-5.8-10.1H46
						C44.7,308.4,44,313.1,43.9,317.9 M57.2,315.9l0.8,0.2v5.7l-3.4,0.8v-0.8l2.6-0.6V315.9 M81.1,353.7c0.1,0.4,0.1,0.8,0.3,1.2
						c0.1,0.3,0.3,0.6,0.5,0.9c0,0,0,0.1,0.1,0.1c0.2,0.3,0.5,0.6,0.8,0.9c0,0,0,0,0,0c2.7,6.1,4.2,12.5,4.5,19.2
						c0.2,0.1,0.6,0.2,1,0.3c0.6,0.1,0.9,0.2,1.1,0.2c0.2,0.1,0.3,0.2,0.3,0.3c-0.1,0.1-0.1,0.1-0.3,0.1c-0.2,0-0.4,0.1-0.5,0.1
						c-0.1,0-0.2,0-0.2,0.1c-0.1,0-0.1,0.1-0.1,0.1c-0.1,0.2-0.1,0.3-0.1,0.4c0.1,0.5,0.4,1.1,1.1,1.8l-0.1,0.1
						c-0.6,0.6-0.8,1.5-0.8,2.7c0,0.3,0.1,0.8,0.3,1.4c0.1,0.6,0.2,1.1,0.2,1.4c1.9-0.5,4-0.4,6.2,0.4c0.8,0.4,1.6,0.9,2.3,1.3
						c1.2,0.8,2.2,1.6,2.9,2.5c0-1.1-0.7-2.4-2.1-3.9c-1.5-1-3.1-1.8-4.7-2.5c-1.2-0.5-2-0.9-2.5-1.3c-0.2-0.2-0.4-0.4-0.5-0.6
						c-0.1-0.2-0.1-0.5,0-0.6c0.1-0.1,0.4-0.2,0.7-0.3c1.3-0.2,2.6-0.1,3.9,0.3l0.9-1.2c-1.9-13.2-4.9-22.3-9.1-27.2
						c-2.1-8.4-4.6-16.7-7.3-25c-2.9-7.9-5.3-15.7-7.2-23.3H55.8c2.3,3.1,4.1,6.4,5.3,9.9c7.7,11.7,14.3,24.6,20,38.8
						C81.1,352.9,81.1,353.3,81.1,353.7z"/>
					<path class="st8" d="M46,303.7h-9.2c-1,4.6-1.1,9.7-0.4,15.3c0.2,0.3,0.4,0.7,0.7,1.1c5.3,8.6,9.7,17.3,13.1,26.2
						c3.5,9.2,6,18.7,7.3,28.2c-2.3,2.7-3,5.7-2.3,9l2.5-1.6c-0.3-2.5,0.2-4.7,1.4-6.6c1.9,0.8,3.7,2.1,5.2,3.9
						c-0.5-1.8-2.2-3.3-4.8-4.6c-0.1-0.1-0.1-0.2-0.2-0.3c-0.1-0.2,0.1-0.4,0.6-0.6c0,0,0.1,0,0.1,0c2.5,0.3,4.1,1.1,4.8,2.4
						c0.2-1.8-1.5-2.9-5.1-3.1c-1.2-8.1-3.2-16-6.1-24c-0.5-1.2-0.9-2.4-1.4-3.5c-6.1-16-8.9-25-8.4-27.3c0-0.2,0.1-0.3,0.2-0.4
						C44,313.1,44.7,308.4,46,303.7 M77.7,353.9C77.7,353.9,77.7,353.9,77.7,353.9c0.3,0.7,0.6,1.4,0.9,2.2c0.2,0.4,0.3,0.8,0.5,1.3
						c0.1,0.3,0.2,0.5,0.3,0.8c2.9,7.1,4.2,15,3.9,23.8c-0.7,1.4-1.2,2.6-1.5,3.8c-0.5,2.1-0.4,3.8,0.4,5.3l6.8-6c0,0,0.1,0,0.1,0
						c0-0.3-0.1-0.8-0.2-1.4c-0.1-0.7-0.2-1.1-0.3-1.4c-0.1-1.2,0.2-2.1,0.8-2.7l0.1-0.1c-0.7-0.6-1-1.2-1.1-1.8
						c-0.1-0.1,0-0.3,0.1-0.4c0,0,0.1-0.1,0.1-0.1c0,0,0.1,0,0.2-0.1c0.1,0,0.3-0.1,0.5-0.1c0.1,0,0.2,0,0.3-0.1
						c0-0.1-0.1-0.2-0.3-0.3c-0.1,0-0.5-0.1-1.1-0.2c-0.4-0.1-0.8-0.2-1-0.3c-0.3-6.7-1.8-13.1-4.5-19.2c0,0,0,0,0,0
						c-0.3-0.3-0.6-0.6-0.8-0.9c0,0-0.1-0.1-0.1-0.1c-0.2-0.3-0.4-0.6-0.5-0.9c-0.1-0.4-0.2-0.8-0.3-1.2c-0.1-0.4-0.1-0.8,0-1.3
						c-5.6-14.2-12.3-27.2-20-38.8c-1.2-3.5-3-6.8-5.3-9.9h-4l5.8,10.1c1.4,2.1,2.7,4.2,3.8,6.4c2,3.9,3.4,7.8,4.3,11.8
						c0.3,0.6,0.6,1.3,0.9,2C70,338.1,73.7,344.8,77.7,353.9z"/>
					<path class="st9" d="M82.8,396.1l7,1.4h4.3l7.4-2.6c0-1-0.2-2-0.6-2.9c-0.7,1.6-2.2,2.4-4.4,2.5h-8c-2.3-0.1-4.2-0.5-5.7-1.1
						V396.1z"/>
					<path class="st10" d="M93.8,382.8c1.6,0.6,3.2,1.5,4.7,2.5c0.4-2.3-0.6-4-3-4.9c-1.3-0.3-2.6-0.4-3.9-0.3
						c-0.3,0.1-0.6,0.1-0.7,0.3c-0.1,0.2-0.1,0.4,0,0.6c0.1,0.2,0.3,0.4,0.5,0.6C91.8,382,92.6,382.4,93.8,382.8z"/>
				</g>
			</g>
		</g>
		<g transform="matrix( 1, 0, 0, 1, 0,0) ">
			<g>
				<g id="Layer7_0_FILL_1_">
					<path class="st11" d="M54.8,309.2l-3,0.2c-0.3,0.8-0.7,1.6-1,2.3l3.6,3.2L54.8,309.2 M60.4,308.9l-2.1,0.1l0.1,1.9L60.4,308.9
						 M55,305.7l-0.2,3.5l3.5-0.2l-0.2-3.8L55,305.7 M61,304.6c-0.7-1.2-1.4-2.5-2.1-3.7l-1.1,0.2l0.2,4.1L61,304.6 M53.9,303
						c-0.3,1.1-0.6,2.1-0.9,3.1l2-0.4l0.3-4.2l-0.9,0.2C54.2,302.1,54.1,302.6,53.9,303 M56,294.4c-0.1,0.2-0.1,0.4-0.2,0.7
						c0,0.1,0,0.1,0,0.2c0,0.1-0.1,0.3-0.1,0.4l-0.2,0.9c0,0.1,0,0.1,0,0.1l-0.3,4.7l2.6-0.4l-0.2-2.7
						C57.1,297.1,56.6,295.8,56,294.4 M54.8,269.1l-2.2,0.1l-0.1,4.8c0,0,0-0.1,0.1-0.1C53.3,272.3,54,270.7,54.8,269.1 M52.8,261.6
						l-0.1,3.9l3-0.4c0-1.2,0-2.5,0-3.8L52.8,261.6 M50.2,269.4l2.4-0.1l0.1-3.7l-2.9,0.4c0,0.7-0.1,1.3-0.1,2
						C49.8,268.5,50,268.9,50.2,269.4 M49.7,266c0-1.4,0.1-2.7,0.2-4l-2.3,0.3c0.4,1.3,0.8,2.6,1.3,3.9L49.7,266 M50.8,253.9
						l-2.7,0.3c-0.3,1.4-0.6,2.7-0.8,4.1l2.9-0.2C50.4,256.6,50.6,255.2,50.8,253.9 M52.8,261.6l0.1-3.8l-2.6,0.2
						c-0.1,1.3-0.3,2.6-0.4,3.9L52.8,261.6 M56.7,253.3c0.3,1.5,0.6,2.9,0.8,4.1l2.1-0.2c-0.2-1.4-0.5-2.8-0.9-4.1L56.7,253.3
						 M55.4,257.6c-0.1-1.3-0.3-2.7-0.5-4.1l-1.9,0.2l-0.1,4.2L55.4,257.6 M58.3,261l-0.7,0.1c-0.1,1-0.2,1.8-0.4,2.5
						C57.6,262.7,58,261.9,58.3,261 M59.9,257.2l-0.3,0c0,0.2,0.1,0.4,0.1,0.6C59.7,257.6,59.8,257.4,59.9,257.2 M57.5,257.4
						l-2.1,0.2c0.1,1.3,0.2,2.5,0.3,3.7l2-0.2C57.7,260,57.7,258.8,57.5,257.4 M56.1,239.7l-3.3,0.1l0.8,3.2l1.8-0.1L56.1,239.7
						 M59.3,250.5c-0.1-0.3-0.2-0.6-0.3-0.9l-1.5,0.1c0.4,1.1,0.8,2.2,1.1,3.3l1.3-0.1C59.8,252.1,59.6,251.3,59.3,250.5
						 M55.8,249.9l-1.6,0.1c0.2,1.2,0.4,2.4,0.6,3.5l1.9-0.2C56.4,252.2,56.1,251.1,55.8,249.9 M55,244.7c-0.3-0.1-0.6-0.1-0.9-0.1
						c0.3,0.8,0.6,1.7,0.8,2.5c0.3,1,0.6,1.9,0.9,2.9l1.7-0.1c-0.4-0.9-0.8-1.8-1.2-2.7C55.9,246.2,55.5,245.5,55,244.7 M56.1,245.1
						l1-2.2l-1.6,0l-0.4,1.8C55.4,244.8,55.7,244.9,56.1,245.1 M53,250l-1.6,0.1c-0.2,1.2-0.4,2.5-0.6,3.7l2.1-0.2L53,250
						 M49.3,250.2l-2.2,0.1c-0.5,1.2-1,2.5-1.3,4l2.2-0.2C48.4,252.8,48.8,251.5,49.3,250.2 M50.7,246.9c0.3-0.7,0.7-1.4,1.1-2
						c-0.3,0.1-0.7,0.2-1,0.4c-0.6,0.5-1.1,1-1.5,1.6L50.7,246.9 M52,246.9l1.1,0l0.1-2.4c0.3,0,0.6-0.1,0.9,0l-0.4-1.6l-1.9,0
						l0.7,1.8C52.3,245.5,52.1,246.2,52,246.9 M53.7,247l-0.6,0L53,250l1.2-0.1C54.1,249,53.9,248,53.7,247 M52,246.9l-1.3,0
						c-0.5,1.1-1,2.2-1.4,3.3l2.1-0.1C51.6,249.1,51.8,248,52,246.9 M50.3,239.2l0.2,0.6l2.3,0l-0.7-2.4
						C51.5,237.9,50.9,238.5,50.3,239.2 M49.8,239.8c-0.3,0.4-0.6,0.7-0.9,1.1l0.9,2.1l2,0l-1.3-3.2H49.8 M56.8,236.8l-0.7,2.9
						l2.4-0.1C58,238.6,57.5,237.6,56.8,236.8 M59.4,242.2c-0.2-0.9-0.5-1.8-0.9-2.6l-1.4,3.2l1.9-0.1L59.4,242.2z"/>
					<path class="st12" d="M57.9,301.1l1.1-0.2c-0.4-0.8-0.8-1.7-1.2-2.5L57.9,301.1 M58.3,309l-3.5,0.2l-0.4,5.7l4-4L58.3,309
						 M54.6,300.8c-0.1,0.3-0.2,0.6-0.3,0.8l0.9-0.2l0.3-4.7C55.2,298.3,54.9,299.7,54.6,300.8 M57.9,301.1l-2.6,0.4l-0.3,4.2
						l3.1-0.6L57.9,301.1 M53,306.1c-0.4,1.1-0.8,2.2-1.2,3.3l3-0.2l0.2-3.5L53,306.1 M62.4,306.8C62.4,306.8,62.4,306.8,62.4,306.8
						c-0.5-0.8-0.9-1.5-1.4-2.2l-2.9,0.6l0.2,3.8l2.1-0.1L62.4,306.8 M52.6,269.2l-2.4,0.1c0.7,1.7,1.5,3.2,2.2,4.7L52.6,269.2
						 M51.7,270.7c0,0.1-0.1,0.1-0.2,0.1c-0.1,0-0.1,0-0.2-0.1c-0.1,0-0.1-0.1-0.1-0.2c0-0.1,0-0.1,0.1-0.2c0-0.1,0.1-0.1,0.2-0.1
						c0.1,0,0.1,0,0.2,0.1c0.1,0,0.1,0.1,0.1,0.2C51.8,270.6,51.7,270.6,51.7,270.7 M49.7,266l-0.8,0.1c0.2,0.6,0.5,1.3,0.7,1.9
						C49.7,267.3,49.7,266.7,49.7,266 M49.9,262c-0.1,1.3-0.1,2.7-0.2,4l2.9-0.4l0.1-3.9L49.9,262 M51.4,263.9c0,0.1,0,0.2-0.1,0.3
						c-0.1,0.1-0.2,0.1-0.3,0.1c-0.1,0-0.3,0-0.3-0.1c-0.1-0.1-0.1-0.2-0.1-0.3c0-0.1,0-0.3,0.1-0.3c0.1-0.1,0.2-0.1,0.3-0.1
						c0.1,0,0.2,0,0.3,0.1C51.4,263.6,51.4,263.7,51.4,263.9 M46.5,258.3c0.2,0.7,0.4,1.5,0.6,2.2c0.2,0.6,0.3,1.2,0.5,1.7l2.3-0.3
						c0.1-1.3,0.2-2.6,0.4-3.9l-2.9,0.2c0.2-1.4,0.4-2.8,0.8-4.1l-2.2,0.2c-0.1,0.3-0.1,0.6-0.2,0.9C46,256.3,46.2,257.3,46.5,258.3
						 M46.5,255.5c0,0,0.1,0,0.2,0c0.1,0,0.1,0,0.1,0c0,0,0.1,0.1,0.1,0.2c0,0.1,0,0.1-0.1,0.1c0,0-0.1,0-0.1,0c-0.1,0-0.1,0-0.2,0
						c-0.1,0-0.1-0.1-0.1-0.1C46.4,255.6,46.5,255.6,46.5,255.5 M48.5,260c0-0.1,0-0.2,0.1-0.3c0.1-0.1,0.1-0.1,0.2-0.1
						c0.1,0,0.2,0,0.2,0.1c0.1,0.1,0.1,0.2,0.1,0.3s0,0.2-0.1,0.2c-0.1,0.1-0.1,0.1-0.2,0.1c-0.1,0-0.2,0-0.2-0.1
						C48.5,260.2,48.5,260.1,48.5,260 M52.9,253.6l-2.1,0.2c-0.2,1.4-0.4,2.8-0.5,4.2l2.6-0.2L52.9,253.6 M52.1,255.5
						c0,0.1,0,0.1-0.1,0.1c0,0.1-0.1,0.1-0.2,0.1c-0.1,0-0.1,0-0.2-0.1c0,0,0-0.1,0-0.1c0-0.1,0-0.1,0-0.2c0.1-0.1,0.1-0.1,0.2-0.1
						c0.1,0,0.1,0,0.2,0.1C52.1,255.4,52.1,255.5,52.1,255.5 M57.7,261.1l-2,0.2c0,1.3,0.1,2.6,0,3.8l-3,0.4l-0.1,3.7l2.2-0.1
						c0.3-0.6,0.5-1.2,0.8-1.7c0.4-0.8,0.7-1.6,1.1-2.4c0.2-0.5,0.4-0.9,0.6-1.4C57.5,262.9,57.6,262,57.7,261.1 M53.9,267.2
						c-0.1-0.1-0.1-0.1-0.1-0.2c0-0.1,0-0.2,0.1-0.3c0.1-0.1,0.2-0.1,0.3-0.1s0.2,0,0.2,0.1c0.1,0.1,0.1,0.1,0.1,0.3
						c0,0.1,0,0.2-0.1,0.2c-0.1,0.1-0.1,0.1-0.2,0.1S54,267.2,53.9,267.2 M56.5,262.4c0.1-0.1,0.1-0.1,0.2-0.1c0.1,0,0.2,0,0.2,0.1
						c0,0.1,0.1,0.1,0.1,0.2c0,0.1,0,0.1-0.1,0.2c-0.1,0.1-0.1,0.1-0.2,0.1c-0.1,0-0.1,0-0.2-0.1c-0.1-0.1-0.1-0.1-0.1-0.2
						C56.4,262.5,56.4,262.5,56.5,262.4 M57.5,257.4c0.2,1.4,0.2,2.6,0.2,3.7l0.7-0.1c0.4-1.1,0.9-2.2,1.3-3.2
						c0-0.2-0.1-0.4-0.1-0.6L57.5,257.4 M58.2,258.6c0,0,0-0.1,0-0.1c0-0.1,0-0.1,0-0.1c0.1,0,0.1,0,0.2,0c0.1,0,0.1,0,0.1,0
						c0,0,0.1,0.1,0.1,0.1c0,0.1,0,0.1-0.1,0.1c0,0-0.1,0-0.1,0C58.3,258.7,58.3,258.6,58.2,258.6 M55.6,261.3
						c-0.1-1.2-0.2-2.4-0.3-3.7l-2.5,0.2l-0.1,3.8L55.6,261.3 M54.1,259.3c0.1-0.1,0.1-0.1,0.2-0.1c0.1,0,0.2,0,0.3,0.1
						c0.1,0.1,0.1,0.2,0.1,0.3c0,0.1,0,0.2-0.1,0.3c-0.1,0.1-0.2,0.1-0.3,0.1c-0.1,0-0.2,0-0.2-0.1c-0.1-0.1-0.1-0.2-0.1-0.3
						C54,259.4,54,259.4,54.1,259.3 M56.7,253.3l-1.9,0.2c0.2,1.4,0.4,2.8,0.5,4.1l2.1-0.2C57.3,256.2,57,254.8,56.7,253.3
						 M55.7,255.5c0-0.1,0-0.2,0.1-0.3c0.1-0.1,0.1-0.1,0.2-0.1s0.2,0,0.2,0.1c0.1,0.1,0.1,0.1,0.1,0.3c0,0.1,0,0.1-0.1,0.2
						c-0.1,0.1-0.1,0.1-0.2,0.1s-0.2,0-0.2-0.1C55.7,255.7,55.7,255.6,55.7,255.5 M60,252.9l-1.3,0.1c0.4,1.4,0.7,2.7,0.9,4.1l0.3,0
						c0.2-0.5,0.3-0.9,0.5-1.4C60.3,254.8,60.2,253.9,60,252.9 M59.7,254.4c0.1,0,0.1,0,0.2,0.1c0,0.1,0.1,0.1,0.1,0.2
						c0,0.1,0,0.1-0.1,0.2c-0.1,0-0.1,0.1-0.2,0.1c-0.1,0-0.1,0-0.2-0.1s-0.1-0.1-0.1-0.2c0-0.1,0-0.1,0.1-0.2
						C59.6,254.4,59.7,254.4,59.7,254.4 M54.2,250L53,250l-0.1,3.6l1.9-0.2C54.7,252.3,54.5,251.2,54.2,250 M53.5,251.9
						c0,0,0-0.1,0-0.2c0-0.1,0-0.1,0-0.2c0.1,0,0.1,0,0.2,0c0.1,0,0.1,0,0.2,0c0.1,0.1,0.1,0.1,0.1,0.2c0,0.1,0,0.1-0.1,0.2
						c0,0.1-0.1,0.1-0.2,0.1S53.6,252,53.5,251.9 M57.5,249.8l-1.7,0.1c0.3,1.2,0.6,2.3,0.9,3.4l2-0.2C58.3,252,58,250.9,57.5,249.8
						 M57.1,251c0.1,0,0.1,0,0.2,0.1c0.1,0.1,0.1,0.1,0.1,0.2c0,0.1,0,0.2-0.1,0.2c-0.1,0.1-0.1,0.1-0.2,0.1c-0.1,0-0.2,0-0.2-0.1
						c0-0.1-0.1-0.1-0.1-0.2c0-0.1,0-0.1,0.1-0.2C57,251,57.1,251,57.1,251 M54.1,244.6c0.3,0,0.6,0.1,0.9,0.1l0.4-1.8l-1.8,0.1
						L54.1,244.6 M54.6,243.4c0,0,0.1,0.1,0.1,0.1c0,0,0,0.1-0.1,0.1c0,0.1-0.1,0.1-0.1,0.1c0,0-0.1,0-0.1-0.1c0,0,0-0.1,0-0.1
						c0,0,0-0.1,0-0.1c0,0,0.1,0,0.1,0C54.6,243.4,54.6,243.4,54.6,243.4 M57.1,242.8l-1,2.2c-0.3-0.2-0.7-0.3-1-0.4
						c0.4,0.8,0.9,1.6,1.3,2.3c0.5,0.9,0.9,1.8,1.2,2.7l1.5-0.1c-0.4-0.9-0.8-1.8-1.2-2.6c-0.3-0.5-0.6-1-1-1.5l0.9-1.1l1.2-1.6
						L57.1,242.8 M57.4,243.5c0,0,0.1-0.1,0.1-0.1c0.1,0,0.1,0,0.2,0.1c0,0,0.1,0.1,0.1,0.1c0,0.1,0,0.1-0.1,0.2
						c0,0-0.1,0.1-0.2,0.1c0,0-0.1,0-0.1-0.1c-0.1-0.1-0.1-0.1-0.1-0.2C57.4,243.6,57.4,243.5,57.4,243.5 M56.8,245.9
						c0,0.1,0,0.1-0.1,0.1c0,0-0.1,0.1-0.1,0.1c-0.1,0-0.1,0-0.1-0.1c0,0,0-0.1,0-0.1c0-0.1,0-0.1,0-0.1c0,0,0.1,0,0.1,0
						s0.1,0,0.1,0C56.7,245.8,56.8,245.9,56.8,245.9 M57.9,248.1c0,0,0.1,0.1,0.1,0.1c0,0.1,0,0.1-0.1,0.1c0,0.1-0.1,0.1-0.1,0.1
						c-0.1,0-0.1,0-0.1-0.1c-0.1,0-0.1-0.1-0.1-0.1c0-0.1,0-0.1,0.1-0.1c0,0,0.1-0.1,0.1-0.1C57.8,248,57.9,248,57.9,248.1
						 M51.4,250.1l-2.1,0.1c-0.5,1.3-0.9,2.6-1.2,3.9l2.7-0.3C51,252.6,51.2,251.4,51.4,250.1 M49.6,251.9c0-0.1,0-0.1,0.1-0.2
						c0.1-0.1,0.1-0.1,0.2-0.1c0.1,0,0.2,0,0.2,0.1c0.1,0.1,0.1,0.1,0.1,0.2c0,0.1,0,0.1-0.1,0.2c-0.1,0.1-0.1,0.1-0.2,0.1
						c-0.1,0-0.1,0-0.2-0.1C49.6,252,49.6,251.9,49.6,251.9 M47.1,250.3l2.2-0.1c0.4-1.1,0.9-2.2,1.4-3.3l-1.5,0
						C48.4,247.9,47.7,249.1,47.1,250.3 M48.7,248.6c0-0.1,0-0.1,0.1-0.2c0.1-0.1,0.1-0.1,0.2-0.1c0.1,0,0.1,0,0.2,0.1
						c0.1,0,0.1,0.1,0.1,0.2c0,0.1,0,0.1-0.1,0.2c-0.1,0.1-0.1,0.1-0.2,0.1c-0.1,0-0.1,0-0.2-0.1C48.7,248.7,48.7,248.7,48.7,248.6
						 M53.1,247l-1.1,0c-0.2,1.1-0.4,2.1-0.6,3.2L53,250L53.1,247 M52.6,248.8c0,0.1-0.1,0.1-0.2,0.1s-0.1,0-0.2-0.1
						c-0.1,0-0.1-0.1-0.1-0.2c0-0.1,0-0.1,0.1-0.2c0-0.1,0.1-0.1,0.2-0.1c0.1,0,0.1,0,0.2,0.1c0.1,0,0.1,0.1,0.1,0.2
						C52.7,248.7,52.7,248.7,52.6,248.8 M53.1,247l0.6,0c0.2,1,0.4,2,0.6,3l1.6-0.1c-0.3-0.9-0.6-1.9-0.9-2.9
						c-0.3-0.8-0.5-1.6-0.8-2.5c-0.3,0-0.6,0-0.9,0L53.1,247 M54,246c-0.1,0-0.1,0-0.2-0.1c0-0.1,0-0.1,0-0.2c0-0.1,0-0.1,0-0.2
						c0.1,0,0.1-0.1,0.2-0.1c0.1,0,0.1,0,0.2,0.1c0.1,0,0.1,0.1,0.1,0.2c0,0.1,0,0.1-0.1,0.2C54.1,246,54.1,246,54,246 M54.9,248.3
						c0.1,0.1,0.1,0.1,0.1,0.2c0,0.1,0,0.1-0.1,0.2c-0.1,0.1-0.1,0.1-0.2,0.1c-0.1,0-0.1,0-0.2-0.1c-0.1-0.1-0.1-0.1-0.1-0.2
						c0-0.1,0-0.1,0.1-0.2c0.1-0.1,0.1-0.1,0.2-0.1C54.8,248.2,54.8,248.3,54.9,248.3 M50.7,246.9l1.3,0c0.2-0.7,0.3-1.5,0.5-2.2
						l-0.7-1.8l-2,0l1,2.3c0.3-0.2,0.7-0.3,1-0.4C51.4,245.6,51.1,246.2,50.7,246.9 M51.3,243.8c0.1,0,0.1,0,0.2,0
						c0,0,0.1,0.1,0.1,0.2c0,0.1,0,0.1-0.1,0.2c0,0-0.1,0.1-0.2,0.1c-0.1,0-0.1,0-0.2-0.1c0,0-0.1-0.1-0.1-0.2c0-0.1,0-0.1,0.1-0.2
						C51.2,243.8,51.2,243.8,51.3,243.8 M51.5,246.1c0.1,0,0.1,0,0.1,0c0,0,0.1,0,0.1,0c0.1,0.1,0.1,0.1,0.1,0.1c0,0,0,0.1-0.1,0.1
						c0,0.1-0.1,0.1-0.1,0.1c0,0-0.1,0-0.1-0.1c0,0,0,0,0-0.1C51.4,246.2,51.5,246.1,51.5,246.1 M52.8,239.8l-2.3,0l1.3,3.2l1.9,0
						L52.8,239.8 M52,241.2c0-0.1,0-0.2,0.1-0.2c0.1-0.1,0.1-0.1,0.2-0.1c0.1,0,0.2,0,0.2,0.1c0.1,0.1,0.1,0.1,0.1,0.2
						s0,0.2-0.1,0.2c-0.1,0.1-0.1,0.1-0.2,0.1c-0.1,0-0.1,0-0.2-0.1C52.1,241.3,52,241.3,52,241.2 M58.5,239.6l-2.4,0.1l-0.7,3.2
						l1.6,0L58.5,239.6 M57.1,241.3c0,0-0.1,0-0.2,0c-0.1,0-0.1,0-0.2,0c0-0.1-0.1-0.1-0.1-0.2c0-0.1,0-0.1,0.1-0.2
						c0.1,0,0.1-0.1,0.2-0.1c0.1,0,0.1,0,0.2,0.1c0,0,0.1,0.1,0.1,0.2C57.1,241.2,57.1,241.3,57.1,241.3 M56.8,236.8
						c-0.5-0.6-1.1-1.2-1.7-1.8c-1.1,0.7-2.1,1.5-3,2.4l0.7,2.4l3.3-0.1L56.8,236.8 M54.1,237.3c0.1-0.1,0.2-0.1,0.3-0.1
						c0.1,0,0.3,0,0.3,0.1c0.1,0.1,0.1,0.2,0.1,0.3c0,0.1,0,0.2-0.1,0.3c-0.1,0.1-0.2,0.1-0.3,0.1c-0.1,0-0.2,0-0.3-0.1
						c-0.1-0.1-0.1-0.2-0.1-0.3C54,237.5,54.1,237.4,54.1,237.3z"/>
					<path class="st13" d="M34,298.9c0.4,1.7,0.6,3.4,0.8,5.2l13.6-1v-4.2H36.1H34 M70,225.3L70,225.3L70,225.3L70,225.3 M42.2,225
						c-1.4,1.5-2.7,2.9-4,4.4c-1.4,1.6-2.8,3.2-4.1,4.8l-1.8,3.6l5.4,1.8l-6.2,4.3c4.3,18,10.8,29.7,19.7,35.2
						c0.1,0.1,0.2,0.1,0.3,0.2c11.5-9.8,20.1-21.2,25.8-34.1l-5.6-4.8l6.4-3.3c-0.8-2-1.7-3.7-2.8-5.1c-0.1-0.1-0.1-0.2-0.2-0.3
						c-1.5-1.9-3.2-4-5-6.2c-0.7,3.3-1.5,6.2-2.2,8.9c-0.3,1.2-0.6,2.3-0.9,3.4c-1.8,6-4,12-6.4,18.2c-0.2,0.4-0.4,0.9-0.5,1.4
						c-0.1,0.2-0.2,0.4-0.2,0.6c-0.5,1.1-0.9,2.1-1.3,3.2c-0.4,0.9-0.7,1.7-1.1,2.6c-0.2,0.5-0.4,0.9-0.6,1.4
						c-0.3,0.8-0.7,1.6-1.1,2.4c-0.3,0.6-0.5,1.1-0.8,1.7c-0.7,1.6-1.5,3.2-2.2,4.8c0,0.1,0,0.1-0.1,0.1c-0.8-1.5-1.5-3-2.2-4.7
						c-0.2-0.5-0.4-0.9-0.6-1.4c-0.3-0.6-0.5-1.3-0.7-1.9c-0.5-1.3-0.9-2.5-1.3-3.9c-0.2-0.6-0.3-1.1-0.5-1.7
						c-0.2-0.7-0.4-1.5-0.6-2.2c-0.3-1-0.5-2-0.8-3.1c-1-4-1.8-8.4-2.4-13c-0.3-1.9-0.5-3.9-0.7-5.9c0-0.4-0.1-0.8-0.1-1.3
						C42.3,232.3,42.2,229,42.2,225 M84.5,302.7c-0.4-1.7-0.6-3.4-0.8-5.1h-1.5L71,298.9v4.3L84.5,302.7z"/>
					<path class="st14" d="M51.5,270.7c0.1,0,0.1,0,0.2-0.1c0.1,0,0.1-0.1,0.1-0.2c0-0.1,0-0.1-0.1-0.2c0-0.1-0.1-0.1-0.2-0.1
						c-0.1,0-0.1,0-0.2,0.1c-0.1,0-0.1,0.1-0.1,0.2c0,0.1,0,0.1,0.1,0.2C51.4,270.7,51.4,270.7,51.5,270.7 M51.3,264.2
						c0.1-0.1,0.1-0.2,0.1-0.3c0-0.1,0-0.3-0.1-0.3c-0.1-0.1-0.2-0.1-0.3-0.1c-0.1,0-0.3,0-0.3,0.1c-0.1,0.1-0.1,0.2-0.1,0.3
						c0,0.1,0,0.2,0.1,0.3c0.1,0.1,0.2,0.1,0.3,0.1C51.1,264.3,51.2,264.3,51.3,264.2 M48.6,259.7c-0.1,0.1-0.1,0.2-0.1,0.3
						s0,0.2,0.1,0.2c0.1,0.1,0.1,0.1,0.2,0.1c0.1,0,0.2,0,0.2-0.1c0.1-0.1,0.1-0.1,0.1-0.2s0-0.2-0.1-0.3c-0.1-0.1-0.1-0.1-0.2-0.1
						C48.7,259.6,48.6,259.7,48.6,259.7 M46.7,255.5c-0.1,0-0.1,0-0.2,0c-0.1,0-0.1,0.1-0.1,0.2c0,0.1,0,0.1,0.1,0.1
						c0,0,0.1,0,0.2,0c0.1,0,0.1,0,0.1,0c0,0,0.1-0.1,0.1-0.1c0-0.1,0-0.1-0.1-0.2C46.7,255.5,46.7,255.5,46.7,255.5 M52,255.7
						c0.1,0,0.1-0.1,0.1-0.1c0-0.1,0-0.1-0.1-0.2c0-0.1-0.1-0.1-0.2-0.1c-0.1,0-0.1,0-0.2,0.1c0,0.1,0,0.1,0,0.2c0,0.1,0,0.1,0,0.1
						c0.1,0.1,0.1,0.1,0.2,0.1C51.9,255.8,52,255.7,52,255.7 M56.7,262.3c-0.1,0-0.1,0-0.2,0.1c-0.1,0.1-0.1,0.1-0.1,0.2
						c0,0.1,0,0.1,0.1,0.2c0.1,0.1,0.1,0.1,0.2,0.1c0.1,0,0.2,0,0.2-0.1c0-0.1,0.1-0.1,0.1-0.2c0-0.1,0-0.2-0.1-0.2
						C56.8,262.4,56.8,262.3,56.7,262.3 M53.8,266.9c0,0.1,0,0.2,0.1,0.2c0.1,0.1,0.2,0.1,0.3,0.1s0.2,0,0.2-0.1
						c0.1-0.1,0.1-0.1,0.1-0.2c0-0.1,0-0.2-0.1-0.3c-0.1-0.1-0.1-0.1-0.2-0.1s-0.2,0-0.3,0.1C53.9,266.8,53.8,266.8,53.8,266.9
						 M58.2,258.5c0,0.1,0,0.1,0,0.1c0.1,0,0.1,0,0.2,0c0.1,0,0.1,0,0.1,0c0,0,0.1-0.1,0.1-0.1c0-0.1,0-0.1-0.1-0.1c0,0-0.1,0-0.1,0
						c-0.1,0-0.1,0-0.2,0C58.2,258.4,58.2,258.4,58.2,258.5 M54.3,259.2c-0.1,0-0.2,0-0.2,0.1c-0.1,0.1-0.1,0.2-0.1,0.3
						c0,0.1,0,0.2,0.1,0.3c0.1,0.1,0.1,0.1,0.2,0.1c0.1,0,0.2,0,0.3-0.1c0.1-0.1,0.1-0.2,0.1-0.3c0-0.1,0-0.2-0.1-0.3
						C54.5,259.2,54.4,259.2,54.3,259.2 M55.8,255.3c-0.1,0.1-0.1,0.1-0.1,0.3c0,0.1,0,0.1,0.1,0.2c0.1,0.1,0.1,0.1,0.2,0.1
						s0.2,0,0.2-0.1c0.1-0.1,0.1-0.1,0.1-0.2c0-0.1,0-0.2-0.1-0.3c-0.1-0.1-0.1-0.1-0.2-0.1S55.9,255.2,55.8,255.3 M59.9,254.4
						c-0.1,0-0.1-0.1-0.2-0.1c-0.1,0-0.1,0-0.2,0.1c0,0.1-0.1,0.1-0.1,0.2c0,0.1,0,0.1,0.1,0.2s0.1,0.1,0.2,0.1c0.1,0,0.1,0,0.2-0.1
						c0,0,0.1-0.1,0.1-0.2C59.9,254.6,59.9,254.5,59.9,254.4 M53.5,251.7c0,0.1,0,0.1,0,0.2c0.1,0.1,0.1,0.1,0.2,0.1s0.1,0,0.2-0.1
						c0.1,0,0.1-0.1,0.1-0.2c0-0.1,0-0.1-0.1-0.2c0,0-0.1,0-0.2,0c-0.1,0-0.1,0-0.2,0C53.5,251.6,53.5,251.7,53.5,251.7 M57.3,251.1
						c-0.1-0.1-0.1-0.1-0.2-0.1c-0.1,0-0.2,0-0.2,0.1c0,0.1-0.1,0.1-0.1,0.2c0,0.1,0,0.2,0.1,0.2c0.1,0.1,0.2,0.1,0.2,0.1
						c0.1,0,0.1,0,0.2-0.1c0.1-0.1,0.1-0.1,0.1-0.2C57.5,251.2,57.4,251.2,57.3,251.1 M54.7,243.6c0,0,0-0.1-0.1-0.1
						c0,0-0.1,0-0.1,0c0,0-0.1,0-0.1,0c0,0,0,0.1,0,0.1c0,0,0,0.1,0,0.1c0,0.1,0.1,0.1,0.1,0.1C54.6,243.7,54.6,243.7,54.7,243.6
						C54.7,243.6,54.7,243.6,54.7,243.6 M58,248.2c0-0.1,0-0.1-0.1-0.1c0,0-0.1-0.1-0.1-0.1c-0.1,0-0.1,0-0.1,0.1
						c-0.1,0-0.1,0.1-0.1,0.1c0,0.1,0,0.1,0.1,0.1c0,0.1,0.1,0.1,0.1,0.1c0.1,0,0.1,0,0.1-0.1C57.9,248.3,58,248.3,58,248.2
						 M56.7,246c0,0,0.1-0.1,0.1-0.1c0-0.1,0-0.1-0.1-0.1c0,0-0.1,0-0.1,0s-0.1,0-0.1,0c0,0,0,0.1,0,0.1c0,0.1,0,0.1,0,0.1
						c0,0,0.1,0.1,0.1,0.1C56.6,246.1,56.7,246.1,56.7,246 M57.6,243.4c0,0-0.1,0-0.1,0.1c-0.1,0-0.1,0.1-0.1,0.1
						c0,0.1,0,0.1,0.1,0.2c0,0,0.1,0.1,0.1,0.1c0.1,0,0.1,0,0.2-0.1c0-0.1,0.1-0.1,0.1-0.2c0-0.1,0-0.1-0.1-0.1
						C57.7,243.4,57.6,243.4,57.6,243.4 M49.7,251.6c-0.1,0.1-0.1,0.1-0.1,0.2c0,0.1,0,0.1,0.1,0.2c0.1,0.1,0.1,0.1,0.2,0.1
						c0.1,0,0.2,0,0.2-0.1c0.1-0.1,0.1-0.1,0.1-0.2c0-0.1,0-0.1-0.1-0.2c-0.1-0.1-0.1-0.1-0.2-0.1C49.8,251.6,49.7,251.6,49.7,251.6
						 M48.8,248.4c0,0-0.1,0.1-0.1,0.2c0,0.1,0,0.1,0.1,0.2c0.1,0.1,0.1,0.1,0.2,0.1c0.1,0,0.1,0,0.2-0.1c0.1,0,0.1-0.1,0.1-0.2
						c0-0.1,0-0.1-0.1-0.2c-0.1-0.1-0.1-0.1-0.2-0.1C48.9,248.3,48.8,248.4,48.8,248.4 M52.4,248.8c0.1,0,0.1,0,0.2-0.1
						c0.1,0,0.1-0.1,0.1-0.2c0-0.1,0-0.1-0.1-0.2c0-0.1-0.1-0.1-0.2-0.1c-0.1,0-0.1,0-0.2,0.1c-0.1,0-0.1,0.1-0.1,0.2
						c0,0.1,0,0.1,0.1,0.2C52.3,248.8,52.4,248.8,52.4,248.8 M55,248.5c0-0.1,0-0.1-0.1-0.2c-0.1-0.1-0.1-0.1-0.2-0.1
						c-0.1,0-0.1,0-0.2,0.1c-0.1,0.1-0.1,0.1-0.1,0.2c0,0.1,0,0.1,0.1,0.2c0.1,0.1,0.1,0.1,0.2,0.1c0.1,0,0.1,0,0.2-0.1
						C54.9,248.6,55,248.6,55,248.5 M53.8,246c0.1,0,0.1,0.1,0.2,0.1c0.1,0,0.1,0,0.2-0.1c0.1-0.1,0.1-0.1,0.1-0.2
						c0-0.1,0-0.1-0.1-0.2c0,0-0.1-0.1-0.2-0.1c-0.1,0-0.1,0-0.2,0.1c0,0,0,0.1,0,0.2C53.8,245.9,53.8,245.9,53.8,246 M51.6,246
						c0,0-0.1,0-0.1,0c0,0.1,0,0.1,0,0.1c0,0,0,0.1,0,0.1c0.1,0.1,0.1,0.1,0.1,0.1c0,0,0.1,0,0.1-0.1c0.1,0,0.1,0,0.1-0.1
						C51.8,246.2,51.8,246.1,51.6,246C51.7,246.1,51.6,246,51.6,246 M51.4,243.8c0,0-0.1,0-0.2,0c-0.1,0-0.1,0-0.2,0
						c0,0-0.1,0.1-0.1,0.2c0,0.1,0,0.1,0.1,0.2c0.1,0,0.1,0.1,0.2,0.1c0.1,0,0.1,0,0.2-0.1c0,0,0.1-0.1,0.1-0.2
						C51.5,243.9,51.5,243.9,51.4,243.8 M52.1,241c-0.1,0.1-0.1,0.1-0.1,0.2s0,0.2,0.1,0.2c0.1,0.1,0.1,0.1,0.2,0.1
						c0.1,0,0.2,0,0.2-0.1c0.1,0,0.1-0.1,0.1-0.2s0-0.2-0.1-0.2c-0.1-0.1-0.1-0.1-0.2-0.1C52.3,240.9,52.2,240.9,52.1,241
						 M56.9,241.4c0.1,0,0.1,0,0.2,0c0-0.1,0.1-0.1,0.1-0.2c0-0.1,0-0.1-0.1-0.2c0,0-0.1-0.1-0.2-0.1c-0.1,0-0.1,0-0.2,0.1
						c0,0-0.1,0.1-0.1,0.2c0,0.1,0,0.1,0.1,0.2C56.8,241.4,56.9,241.4,56.9,241.4 M54.5,237.1c-0.1,0-0.2,0-0.3,0.1
						c-0.1,0.1-0.1,0.2-0.1,0.3c0,0.1,0,0.2,0.1,0.3c0.1,0.1,0.2,0.1,0.3,0.1c0.1,0,0.3,0,0.3-0.1c0.1-0.1,0.1-0.2,0.1-0.3
						c0-0.1,0-0.3-0.1-0.3C54.7,237.2,54.6,237.1,54.5,237.1z"/>
					<path class="st15" d="M61.1,249.4c-0.5,0.6-1.1,1-1.8,1.2c0.2,0.8,0.4,1.6,0.6,2.4c0.2,0.9,0.4,1.9,0.4,2.9
						c2.4-6.1,4.5-12.2,6.4-18.2l-2.6,3.1c-0.1,1-0.3,2.1-0.7,3.2c-0.3,0.8-0.7,2-1.4,3.4C61.7,248.3,61.4,249,61.1,249.4z"/>
					<path class="st16" d="M58.6,244.3c-0.2,0-0.4,0-0.6,0c-0.1,0-0.2,0.1-0.2,0.1l-0.9,1.1c0.3,0.5,0.7,1,1,1.5
						c0.5,0.8,0.9,1.7,1.2,2.6c0.1,0.3,0.2,0.6,0.3,0.9c0.7-0.2,1.3-0.6,1.8-1.2c0.3-0.4,0.6-1,1-2c0.7-1.5,1.1-2.6,1.4-3.4
						c0.4-1.2,0.6-2.3,0.7-3.2l-4.1,4.8c0-0.2-0.1-0.3-0.1-0.5c0,0-0.1,0.1-0.2,0.3c0,0.2-0.1,0.3-0.2,0.5c-0.1,0.2-0.3,0.4-0.4,0.4
						h-0.1v-0.2c-0.1-0.3-0.1-0.6-0.1-0.8c0-0.3,0-0.5-0.1-0.5C58.8,244.5,58.7,244.4,58.6,244.3z"/>
					<path class="st17" d="M59.4,242.2l-0.4,0.6l-1.2,1.6c0.1,0,0.1-0.1,0.2-0.1c0.2,0,0.4,0,0.6,0c0.1,0.1,0.2,0.3,0.3,0.5
						c0.1,0.1,0.1,0.3,0.1,0.5c0,0.2,0.1,0.4,0.1,0.8v0.2h0.1c0.2,0,0.3-0.2,0.4-0.4c0.1-0.1,0.2-0.3,0.2-0.5
						c0.1-0.2,0.2-0.3,0.2-0.3C59.9,244.1,59.7,243.1,59.4,242.2z"/>
					<path class="st18" d="M61,232.5c-0.9-0.1-1.7-0.1-2.5,0l-3.3,2.4c0.6,0.6,1.2,1.2,1.7,1.8c0.7,0.9,1.2,1.8,1.7,2.9
						c0.4,0.8,0.7,1.7,0.9,2.6c0.2,0.9,0.4,1.9,0.6,2.9c0,0.2,0.1,0.3,0.1,0.5l4.1-4.8l2.6-3.1c0.3-1.1,0.6-2.2,0.9-3.4
						c-0.5-0.4-1.1-0.7-1.9-0.9c-0.6-0.2-1.3-0.3-2.3-0.5C62.4,232.7,61.6,232.6,61,232.5 M51.8,232.2c-1.4,0.2-2.7,0.5-3.9,0.9
						c-2.2,0.7-3.9,1.7-4.9,3.1l3.8,8.1c0.6-1.2,1.3-2.3,2.1-3.3c0.3-0.4,0.6-0.8,0.9-1.1h0.7l-0.2-0.6c0.6-0.7,1.2-1.3,1.9-1.9
						c0.9-0.8,1.9-1.6,3-2.4L51.8,232.2z"/>
					<path class="st19" d="M70,225.3c-0.9,0.3-1.8,0.5-2.7,0.8l-8.7,6.4c0.7-0.1,1.6-0.1,2.5,0c0.6,0.1,1.5,0.2,2.6,0.4
						c1,0.1,1.7,0.3,2.3,0.5c0.7,0.2,1.4,0.5,1.9,0.9C68.5,231.6,69.2,228.6,70,225.3 M44.1,225.6c-0.6-0.2-1.3-0.4-1.9-0.6
						c-0.1,4,0,7.3,0.3,10.1l0.5,1c1-1.4,2.7-2.4,4.9-3.1c1.2-0.4,2.5-0.7,3.9-0.9L44.1,225.6z"/>
					<path class="st20" d="M44.4,242.7c-0.3-0.3-0.7-0.5-1.1-0.5c0.6,4.7,1.4,9,2.4,13c0-0.3,0.1-0.6,0.2-0.9c0.3-1.5,0.7-2.8,1.3-4
						c0.6-1.3,1.2-2.4,2.1-3.4c0.5-0.6,1-1.1,1.5-1.6l-1-2.3c-0.1,0.1-0.3,0.1-0.6,0.1c-0.3,0-0.5,0-0.6,0.1
						c-0.2,0.1-0.4,0.4-0.7,0.8c-0.3,0.5-0.7,0.7-1,0.8c-0.2,0.1-0.5,0.2-0.7,0.1c-0.2,0-0.4-0.1-0.6-0.3c-0.1-0.1-0.2-0.3-0.3-0.5
						c-0.1-0.2-0.2-0.4-0.2-0.5C45,243.3,44.7,243,44.4,242.7z"/>
					<path class="st21" d="M42.5,235.1c0.1,0.4,0.1,0.8,0.1,1.3c0.2,2,0.4,4,0.7,5.9c0.4,0.1,0.8,0.3,1.1,0.5
						c0.3,0.3,0.6,0.6,0.7,0.9c0,0.1,0.1,0.3,0.2,0.5c0.1,0.2,0.2,0.4,0.3,0.5c0.1,0.1,0.3,0.2,0.6,0.3c0.2,0,0.4,0,0.7-0.1
						c0.3-0.1,0.6-0.4,1-0.8c0.3-0.5,0.5-0.8,0.7-0.8c0.1-0.1,0.3-0.1,0.6-0.1c0.3,0,0.5,0,0.6-0.1l-0.9-2.1c-0.8,1-1.5,2.1-2.1,3.3
						l-3.8-8.1L42.5,235.1z"/>
					<path class="st22" d="M42.2,225c0.6,0.2,1.2,0.4,1.9,0.6l7.7,6.6l3.3,2.8l3.3-2.4l8.7-6.4c0.9-0.2,1.8-0.5,2.7-0.8
						c-0.4-0.4-0.8-0.7-1.3-1c-7.4-5.7-15.9-5.7-25.4,0C42.9,224.5,42.6,224.8,42.2,225z"/>
					<path class="st23" d="M92.2,322.1c-3.7-6.3-6.2-12.8-7.6-19.4L71,303.2v-4.3l11.2-1.2c-2.1-13.2-0.7-25.5,4.2-36.8
						c3.9-7.1,6.1-15.2,6.6-24.2c-6.2-3.4-12.2-5.1-18-5.1c0.1,0.1,0.1,0.2,0.2,0.3c1.1,1.5,2,3.2,2.8,5.1l-6.4,3.3l5.6,4.8
						C71.6,258,63,269.4,51.5,279.2c-0.1-0.1-0.2-0.1-0.3-0.2c-8.8-5.5-15.4-17.2-19.7-35.2l6.2-4.3l-5.4-1.8l1.8-3.6
						c1.3-1.6,2.6-3.2,4.1-4.8c-7.8-0.4-14.3,1.4-19.6,5.3c1.1,7.4,3.6,13.8,7.5,19.2c8.7,10.6,12.1,25.6,10.1,45h12.2v4.2l-13.6,1
						c0.3,3.7,0,7.5-0.8,11.5c-1.4,4.2,0,6.4,4.2,6.8c5,0.4,9.2-3.2,12.6-10.7c0.3-0.7,0.7-1.5,1-2.3c0.4-1,0.8-2.1,1.2-3.3
						c0.3-1,0.6-2,0.9-3.1c0.6-1.9,1.1-4,1.6-6.2c0,0,0-0.1,0-0.1l0.2-0.9c0-0.1,0-0.3,0.1-0.4c0-0.1,0-0.1,0-0.2
						c0-0.2,0.1-0.4,0.2-0.7c0.5,1.3,1.1,2.6,1.7,3.9c0.4,0.8,0.8,1.7,1.2,2.5c0.7,1.3,1.3,2.5,2.1,3.7c0.4,0.7,0.9,1.5,1.3,2.2
						c0,0,0,0,0,0c3.6,5.7,7.9,11,13,16C82.4,325.1,88,324.9,92.2,322.1 M58.8,283c0.4,0.4,0.7,0.9,0.7,1.5c0,0.6-0.2,1.1-0.7,1.5
						c-0.4,0.4-0.9,0.6-1.5,0.6c-0.6,0-1.1-0.2-1.5-0.6c-0.4-0.4-0.6-0.9-0.6-1.5c0-0.6,0.2-1.1,0.6-1.5c0.4-0.4,0.9-0.6,1.5-0.6
						C57.9,282.4,58.4,282.6,58.8,283z"/>
					<path class="st24" d="M59.5,284.6c0-0.6-0.2-1.1-0.7-1.5c-0.4-0.4-0.9-0.6-1.5-0.6c-0.6,0-1.1,0.2-1.5,0.6
						c-0.4,0.4-0.6,0.9-0.6,1.5c0,0.6,0.2,1.1,0.6,1.5c0.4,0.4,0.9,0.6,1.5,0.6c0.6,0,1.1-0.2,1.5-0.6
						C59.2,285.7,59.5,285.2,59.5,284.6z"/>
				</g>
			</g>
		</g>
		<g transform="matrix( 1, 0, 0, 1, 0,0) ">
			<g>
				<g id="Layer6_0_FILL_3_">
					<path class="st25" d="M101.4,249.3c0.6,0.9,0.9,1.7,1,2.5c0,0.1,0,0.1,0,0.2c2.6-0.8,5.1-1.9,7.6-3.1
						C107.1,249.3,104.2,249.4,101.4,249.3 M98.4,241.6c-0.1,0.2-0.2,0.4-0.3,0.7c4.6-0.9,8.9-2.1,12.9-3.5
						c-3.3,0.4-5.7,0.6-7.2,0.7c-2.7,0.2-5.1,0.3-7.3,0.2C97,240.3,97.6,241,98.4,241.6 M96.5,228.9c0.1,0.4,0.2,0.8,0.3,1.2v0
						c7.3-1.2,13.1-2.2,17.2-3L96.5,228.9z"/>
					<path class="st13" d="M101.7,252.1c-0.1-0.1-0.3-0.2-0.4-0.3c0,0.5-0.1,0.9-0.2,1.3c-0.2,0.8-0.6,1.6-1.1,2.3
						c-0.5,0.7-1.2,1.3-2,1.7c0.7,0.2,1.3,0.2,1.9-0.1c0.3-0.1,0.5-0.3,0.8-0.6c0.1-0.1,0.5-0.4,1.3-1.1c0-0.3,0.1-0.5,0.1-0.8
						c0.1-0.7,0.2-1.3,0.3-1.7L101.7,252.1 M99.8,251c-0.1-0.1-0.2-0.1-0.3-0.2c-0.2-0.1-0.5-0.4-0.8-0.8c0,0,0,0,0,0
						c-0.1,0.2-0.2,0.5-0.3,0.9c-0.1,0.4-0.2,0.7-0.3,0.9c-0.1,0.2-0.3,0.4-0.6,0.9c-0.5,0.6-0.8,0.9-1,1.1
						c-0.4,0.4-0.8,0.6-1.2,0.8c0.7,0.1,1.3,0,2-0.4c0.6-0.3,1.1-0.8,1.6-1.3C99.3,252.2,99.6,251.6,99.8,251z"/>
					<path class="st23" d="M87.9,238.7c-1.5,1.2-2.6,2.8-3.3,4.7c-0.6,1.6-0.9,3.5-1,5.6c0,1.6,0.1,3.5,0.4,5.7
						c0.4,3.1,1,5.7,1.7,7.9c0,0.1,0,0.1,0.1,0.2c0,0,0.1,0.1,0.1,0.1c2,2.3,4.6,4.2,7.8,6c2.5,1.3,5.7,2.7,9.6,4.1
						c2,0.7,3.6,1.2,4.9,1.5c1.8,0.4,3.5,0.5,5,0.3c2-0.2,4-1,5.8-2.3c1.7-1.2,3.2-2.7,4.5-4.6c1.1-1.6,2.1-3.5,2.9-5.7
						c0.6-1.8,1.2-3.8,1.7-6.2c0.3-1.3,0.3-2.4,0.1-3.4c-0.3-1.2-1-1.9-2-2.1c0.1,0.6,0.1,1.2,0,1.8c-0.2,1.1-0.6,2.3-1.3,3.4
						c-1,1.6-2.4,2.8-4.2,3.7c-0.7,0.3-1.4,0.7-2.1,0.9c-1,0.3-2,0.5-3.1,0.7c-1.5,0.2-3.4,0.3-5.6,0.2c-2,0-3.7-0.3-5-0.9
						c-1.7-0.8-2.7-1.9-3-3.4c-0.1-0.4-0.1-1,0-1.6c-0.8,0.7-1.2,1.1-1.3,1.1c-0.2,0.2-0.5,0.4-0.8,0.6c-0.6,0.3-1.2,0.3-1.9,0.1
						c0.8-0.4,1.4-1,2-1.7c0.6-0.7,0.9-1.5,1.1-2.3c0.1-0.4,0.2-0.8,0.2-1.3c-0.2-0.2-0.5-0.3-0.7-0.4c-0.4-0.1-0.7-0.2-0.9-0.3
						c-0.2,0.7-0.5,1.3-1,1.8c-0.5,0.5-1,1-1.6,1.3c-0.6,0.4-1.3,0.6-2,0.4c0.4-0.2,0.8-0.4,1.2-0.8c0.2-0.2,0.5-0.5,1-1.1
						c0.3-0.4,0.5-0.7,0.6-0.9c0.1-0.2,0.2-0.5,0.3-0.9c0.1-0.4,0.2-0.7,0.3-0.9c-0.1-0.2-0.2-0.3-0.3-0.5c0-0.1,0-0.1-0.1-0.1
						c-0.3-1.1-0.7-2-1-2.7c-0.3-0.5-0.5-0.9-0.7-1.2c-0.3-0.5-0.5-0.9-0.6-1.3c-0.3-0.7-0.5-1.6-0.7-2.7l-0.4-2.8
						c0-0.1-0.1-0.3-0.1-0.4c-0.2-0.5-0.3-0.8-0.5-1c-0.2-0.3-0.4-0.5-0.7-0.6l-0.4,0.1c-0.1,0-0.2,0-0.3,0
						C91.1,236.8,89.5,237.4,87.9,238.7z"/>
					<path class="st26" d="M120.2,197.5l0,0.2c0.4,0.8,0.4,1.8,0.1,3c-0.1,0.2-0.5,1.2-1.2,3c-1,2.4-1.5,5.2-1.4,8.5
						c0.1,2,0.4,4.8,1,8.4c-0.7-0.5-1.2-0.8-1.6-0.9c-0.7-0.3-1.6-0.5-2.5-0.6l-0.1,0.3c-0.2,0.3-0.4,0.6-0.5,1
						c0,0.1-0.1,0.3-0.1,0.4c-0.1,0.3-0.1,0.8-0.2,1.5c-0.1,1-0.2,1.8-0.2,2.4c0,0.8,0.1,1.6,0.4,2.2c0.6,0,1,0.3,1.3,0.9
						c0.3,0.5,0.4,1.1,0.3,1.7c-0.1,0.3-0.2,0.9-0.5,1.6c-0.3,0.7-0.4,1.2-0.5,1.6c-0.1,0.6,0.1,1.4,0.4,2.5c0.3,1.1,0.4,2,0.3,2.5
						c0,0.5-0.2,1.1-0.5,1.9c-0.1,0.1-0.1,0.2-0.2,0.4c-0.4,1-0.6,1.8-0.7,2.3c-0.1,0.6,0,1.2,0.2,2c0.3,1.3,0.5,2,0.5,2
						c0.1,0.8,0.2,1.8,0.2,3.1c0,1.5,0,2.5,0.1,3.1c0.1,1.5,0.6,2.8,1.2,4.1c0.7,1.3,1.6,2.5,2.7,3.5c0.8-0.3,1.5-0.6,2.1-0.9
						c1.7-0.9,3.1-2.1,4.2-3.7c0.7-1.1,1.2-2.3,1.3-3.4c0.1-0.6,0.1-1.2,0-1.8c1.2-4.3,1.9-7.8,2.2-10.5c0.4-4.2-0.2-7.7-1.7-10.7
						c-0.1-0.2-0.8-1.3-2.1-3.4c-0.4-0.6-0.7-1.2-1-1.8c-0.3-0.7-0.6-1.3-0.7-1.8c-0.3-1.1-0.5-2.3-0.4-3.7c0-0.9,0.2-2.2,0.4-3.8
						c0.5-2.7,0.9-5.5,1.4-8.5c0.2-1.5,0.3-2.7,0.3-3.6c-0.1-1.3-0.4-2.4-1-3.2C122.8,198.2,121.7,197.6,120.2,197.5z"/>
					<path class="st27" d="M120.2,197.7l0-0.2c-0.3,0-0.6,0-1,0c-1.8,0.1-3.3,0.8-4.5,2c-1.1,1.1-1.8,2.6-2.3,4.4
						c-0.4,1.4-0.6,3.1-0.7,5.1c-0.1,1.1-0.1,2.8-0.2,5.1c-0.1,1.8-0.4,3.4-0.9,4.7c0,0,0,0,0,0.1c-2.8,0.5-7.2,1.3-13.3,2.5
						c-0.6,1.4-0.9,2.8-1,4.3c-0.1,1.1,0,2.1,0.3,3.2v0l17.6-1.7c-4.2,0.7-9.9,1.7-17.2,3c0,0-0.1,0.1-0.1,0.1
						c-1.2,1.7-1.7,3.6-1.4,5.9c0,0.1,0,0.1,0,0.2c0.1,0.6,0.2,1.1,0.4,1.6c0.2,0.5,0.4,1,0.7,1.5c0,0,0,0.1,0,0.1
						c2.2,0.1,4.6,0.1,7.3-0.2c1.5-0.1,3.9-0.4,7.2-0.7c0.1-0.1,0.2-0.1,0.3-0.1c0-0.1,0-0.1,0,0v0c0,0,0,0.1-0.1,0.1
						c-0.1,0-0.1,0-0.2,0c0,0-0.1,0-0.1,0c-4,1.5-8.3,2.6-12.9,3.5c0,0,0,0,0,0.1c-0.2,0.6-0.1,1.3,0.1,2c0.2,0.8,0.7,1.7,1.4,2.6
						c0.4,0.5,1,1.3,1.8,2.3c0,0.1,0.1,0.1,0.1,0.2c2.8,0.1,5.7-0.1,8.5-0.4c-2.4,1.2-5,2.3-7.6,3.1c0,0.2,0,0.4,0,0.6
						c0,0.5-0.1,1.1-0.3,1.7c-0.1,0.3-0.1,0.6-0.1,0.8c-0.1,0.7-0.1,1.2,0,1.6c0.3,1.5,1.3,2.6,3,3.4c1.4,0.6,3.1,0.9,5,0.9
						c2.2,0.1,4.1,0,5.6-0.2c1.1-0.2,2.2-0.4,3.1-0.7c-1.1-1.1-2.1-2.2-2.7-3.5c-0.7-1.3-1.1-2.7-1.2-4.1c-0.1-0.5-0.1-1.5-0.1-3.1
						c0-1.3-0.1-2.3-0.2-3.1c0,0-0.2-0.7-0.5-2c-0.2-0.8-0.3-1.5-0.2-2c0.1-0.5,0.3-1.3,0.7-2.3c0.1-0.1,0.1-0.3,0.2-0.4
						c0.3-0.8,0.5-1.5,0.5-1.9c0.1-0.6-0.1-1.4-0.3-2.5c-0.3-1.1-0.4-2-0.4-2.5c0.1-0.4,0.2-1,0.5-1.6c0.3-0.7,0.4-1.3,0.5-1.6
						c0.1-0.6,0-1.2-0.3-1.7c-0.3-0.6-0.7-0.9-1.3-0.9c-0.3-0.7-0.4-1.4-0.4-2.2c0-0.6,0-1.4,0.2-2.4c0.1-0.7,0.1-1.2,0.2-1.5
						c0-0.1,0.1-0.3,0.1-0.4c0.1-0.4,0.3-0.7,0.5-1l0.1-0.3c0.9,0.1,1.7,0.3,2.5,0.6c0.4,0.2,0.9,0.5,1.6,0.9c-0.6-3.5-1-6.3-1-8.4
						c-0.1-3.3,0.4-6.1,1.4-8.5c0.8-1.8,1.2-2.8,1.2-3C120.6,199.5,120.6,198.5,120.2,197.7z"/>
				</g>
			</g>
		</g>
		<g transform="matrix( 1, 0, 0, 1, 0,0) ">
			<g>
				<g id="Layer5_0_FILL_2_">
					<path class="st13" d="M38.7,290.9c-0.1-0.1-0.1-0.1-0.2-0.1c-0.3,0.5-0.5,0.8-0.7,1.1c-0.5-0.1-0.9-0.2-1.3-0.2
						c-2.2-0.3-4.1,0-5.7,0.9c-1.8,1-3.2,2.4-4.2,4.2c-0.7,1.3-1,2.7-1.1,4.1c0,0.6,0,1.1,0,1.7c0.2,1.9,0.8,3.5,1.8,5
						c0.1,0.1,0.3,0.3,0.4,0.5c0.6,0.6,1.1,1.1,1.7,1.7c-0.1,1.2,0,2.4,0.2,3.4c0.3,1.5,1,2.7,2,3.6c0.9,0.7,2.2,1.3,4.1,1.6
						c2.2,0.4,3.7,0.8,4.3,1c0,0,0,0,0,0c3.4-3.3,5.9-6.8,7.6-10.6c1.7-3.8,2.6-7,2.7-9.7c-0.5-0.8-1.2-1.5-2.1-2.1
						c-0.5-0.4-1.4-0.9-2.7-1.6c-1.7-0.9-2.9-1.6-3.7-2.1C40.7,292.4,39.6,291.6,38.7,290.9 M31.8,294.3c1.6-1.2,3.3-1.6,4.9-1.3
						c-1.6,1.8-3,3.9-4.2,6.1c-1.5,3.1-2.5,6.3-2.9,9.6c-0.8-1.1-1.4-2.3-1.7-3.6c-0.3-1.3-0.4-2.7-0.2-4c0.2-1.3,0.7-2.6,1.4-3.8
						C29.8,296.1,30.7,295.1,31.8,294.3z"/>
					<path class="st28" d="M36.7,293c-1.6-0.3-3.2,0.1-4.9,1.3c-1.1,0.8-2,1.8-2.7,3c-0.7,1.2-1.2,2.4-1.4,3.8
						c-0.2,1.4-0.1,2.7,0.2,4c0.3,1.3,0.9,2.5,1.7,3.6c0.4-3.3,1.4-6.5,2.9-9.6C33.6,296.9,35,294.8,36.7,293z"/>
					<path class="st23" d="M24.7,236.5c-0.8-0.7-1.7-1.2-3-1.4l-3.4-0.4c-0.9,1.6-1.4,3.4-1.6,5.5c-0.1,1.6,0,3.6,0.4,6.1
						c0.2,1.4,0.5,3.5,1,6.4c0.3,2.4,0.3,4.5,0,6.3c-0.1,0.8-0.4,2.1-0.9,3.7c-0.5,1.7-0.8,2.9-0.9,3.7c-0.3,1.4-0.3,2.7-0.1,3.9
						c0.2,1.4,0.7,2.6,1.5,3.5c-1.4,3-2.1,6.3-2,9.9c0.1,3.4,0.8,6.7,2.2,10c1.2,2.9,2.9,5.9,5.2,8.8c1.2,1.6,2.6,3.2,4.2,4.9
						c-1-1.5-1.6-3.1-1.8-5c-0.1-0.6-0.1-1.2,0-1.7c0.1-1.5,0.4-2.8,1.1-4.1c1-1.8,2.3-3.2,4.2-4.2c1.5-0.9,3.4-1.2,5.7-0.9l0-0.2
						c0-0.2,0-0.5,0-0.7c0-3,0-5.3-0.1-6.9c-0.1-2.8-0.3-5.3-0.6-7.5c-0.6-3.9-1.6-7.8-3.1-11.5c-1.5-3.7-3.4-7-5.9-9.9
						c1-4.5,1.1-8.9,0.3-13c-0.2-1.2-0.5-2.1-0.8-2.9C25.9,238,25.4,237.2,24.7,236.5z"/>
				</g>
			</g>
		</g>
		<g transform="matrix( 1, 0, 0, 1, 0,0) ">
			<g>
				<g id="Layer4_0_FILL_2_">
					<path class="st29" d="M44.6,222.5c0.2,0.2,0.3,0.3,0.5,0.5c1,0.9,1.7,1.5,2.2,1.8c0.4,0.3,1.2,0.6,2.4,0.9l3.1,1.1
						c0,0,0.1,0,0.1,0h0c0.7,0.1,1.3,0.1,2,0.1c0,0,0,0,0,0c0.3,0,0.6,0,1,0c1,0,2,0,3-0.1c0.2,0,0.5,0,0.8,0
						c1.5-0.3,2.9-0.8,4.2-1.6c1.4-0.8,2.4-1.9,3.3-3.1c-0.9,0.6-1.8,1.2-2.8,1.6c0,0,0,0-0.1,0c0,0-0.1,0-0.1,0.1
						c-0.9,0.4-1.8,0.7-2.7,1c0,0-0.1,0-0.1,0c-1.7,0.5-3.5,0.7-5.4,0.7c-0.3,0-0.7,0-0.9,0c-0.7,0-1.4-0.1-2.1-0.2
						c-0.5-0.1-0.9-0.1-1.3-0.2C49.1,224.7,46.8,223.8,44.6,222.5z"/>
					<path class="st30" d="M33.3,214c-3.2-1.6-5.9-4.1-8.2-7.4c1.9,3.9,4.2,7.2,6.9,9.8c0.2,0.2,0.3,0.3,0.5,0.5
						c0.1,0.1,0.2,0.2,0.3,0.3c0.8,0.7,1.6,1.3,2.4,1.8c0.3,0.2,0.7,0.4,1,0.5c0.5,0.2,1,0.4,1.5,0.6c2,0.6,3.7,0.6,5.2-0.2
						c0.2,0.5,0.5,1.1,0.9,1.7c0.2,0.2,0.5,0.5,0.8,0.9c0,0,0,0,0,0v0c2.2,1.3,4.5,2.2,6.9,2.7c0.4,0.1,0.9,0.1,1.3,0.2
						c0.7,0.1,1.4,0.1,2.1,0.2c0.3,0,0.6,0,0.9,0c1.9,0,3.7-0.3,5.4-0.7c0,0,0.1,0,0.1,0c0.9-0.3,1.8-0.6,2.7-1c0,0,0.1,0,0.1-0.1
						c0,0,0,0,0.1,0c1-0.5,1.9-1,2.8-1.6c0.1-0.2,0.2-0.3,0.3-0.5c0,0,0-0.1,0-0.1c0,0,0-0.1,0.1-0.1c0.3,0.6,0.9,1,1.7,1.3
						c0.8,0.2,1.5,0.1,2.2-0.2c0.6-0.3,1.3-0.7,1.9-1.3c0.1-0.1,0.2-0.2,0.4-0.4c0.5-0.6,1.4-1.8,2.8-3.6c-1.3,1.2-2.9,1.9-4.8,2.1
						c-1.2,0.1-2.3,0-3.4-0.4c-0.1,0-0.1,0-0.2-0.1l-1.5-0.2c-0.1,0.7-0.4,1.3-0.8,1.9l0,0c0,0,0,0,0,0.1c-0.6,0.7-1.3,1.2-2.2,1.6
						c-0.7,0.3-1.6,0.6-2.6,0.7c-0.6,0.1-1.6,0.1-2.8,0.1c-1.2,0-2.2,0-3-0.1c-0.4,0-0.7-0.1-1-0.1c-0.7-0.1-1.4-0.2-2.1-0.3
						c-0.7-0.2-1.3-0.4-1.8-0.7c-1-0.5-1.9-1.1-2.6-1.9c-0.2-0.2-0.4-0.4-0.5-0.7c-0.3-0.3-0.5-0.7-0.7-1.1c0,0,0-0.1,0-0.1
						c0,0,0,0,0,0c-0.4-0.8-0.5-1.6-0.4-2.5c-1.1,0.3-2.2,0.5-3.3,0.5c-2.7,0.2-5.3-0.3-8-1.4c-0.2-0.1-0.4-0.2-0.6-0.3
						C33.8,214.3,33.5,214.1,33.3,214z"/>
					<path class="st31" d="M16,181.8c0.1-1.7,0.3-3.3,0.5-4.9c-0.2-0.5-0.5-0.9-0.9-1.3l-4.5,1.4C12.7,176.7,14.3,178.3,16,181.8z"
						/>
					<path class="st32" d="M56,212.1c-0.4,0-0.7,0-1.1,0c-1.5,0.2-2.8,0.6-4,1.3c-0.9,0.6-1.9,1.3-2.9,2.1c0,0,0,0,0,0l0,0
						c0,0-0.1,0-0.1,0.1c0,0,0,0-0.1,0v0h0c-0.1,0.1-0.2,0.2-0.3,0.3c-0.1,0.1-0.1,0.1-0.2,0.2l-0.3,0.3c-0.2,0.2-0.3,0.4-0.4,0.8
						c0,0.1-0.1,0.4-0.3,0.8c0,0,0,0,0,0c0,0,0,0,0,0.1c0.2,0.4,0.4,0.7,0.7,1.1c0.2,0.2,0.3,0.4,0.5,0.7c0.7,0.8,1.6,1.4,2.6,1.9
						c0.5,0.3,1.1,0.5,1.8,0.7c0.6,0.2,1.3,0.3,2.1,0.3c0.3,0,0.7,0.1,1,0.1c0.8,0,1.8,0.1,3,0.1c1.2,0,2.1,0,2.8-0.1
						c1-0.1,1.9-0.3,2.6-0.7c0.9-0.4,1.6-0.9,2.2-1.6c0,0,0,0,0-0.1l0,0c0.4-0.6,0.7-1.3,0.8-1.9c0-0.2,0-0.4,0-0.6c0,0,0,0,0,0
						c0,0,0,0.1,0.1,0.1c0-0.1,0-0.2,0-0.3c-0.1-0.1-0.1-0.2-0.1-0.4c0-0.2,0-0.4-0.1-0.6c-0.1-0.3-0.2-0.5-0.4-0.7
						c-2.2-1.9-4.5-3.1-6.9-3.7c0,0-0.1,0-0.1,0C58.1,212.2,57,212.1,56,212.1 M60.9,215.3c0.4,0.3,0.7,0.7,0.9,1.1
						c0.2,0.4,0.2,0.8,0,0.9c-0.2,0.2-0.4,0.3-0.7,0.1c-0.1,0-0.4-0.2-0.7-0.4c-0.7-0.7-1.3-1.3-1.8-1.8c-0.1-0.2-0.2-0.3-0.3-0.3
						c-0.1-0.2,0-0.4,0.1-0.7c0,0,0,0,0-0.1c0.2,0,0.3,0,0.4,0.1c0.1,0,0.2,0.1,0.2,0.1c0.1,0.1,0.3,0.1,0.5,0.2
						C60.2,214.8,60.6,215.1,60.9,215.3z"/>
					<path class="st33" d="M61.8,216.4c-0.2-0.4-0.5-0.8-0.9-1.1c-0.3-0.2-0.8-0.5-1.3-0.8c-0.2-0.1-0.3-0.1-0.5-0.2
						c-0.3-0.1-0.5-0.1-0.7-0.1c-0.1,0.3-0.2,0.6-0.1,0.7c0,0.1,0.1,0.2,0.3,0.3c0.5,0.5,1.1,1.1,1.8,1.8c0.3,0.3,0.5,0.4,0.7,0.4
						c0.3,0.1,0.5,0.1,0.7-0.1C62,217.1,62,216.8,61.8,216.4z"/>
					<path class="st25" d="M54.9,212.2c0.3,0,0.7,0,1.1,0c1-0.1,2.1,0.1,3.2,0.3c0.1,0,0.1,0,0.1,0c2.4,0.6,4.7,1.8,6.9,3.7
						c0.1,0.1,0.2,0.1,0.3,0.3c0.2-0.1,0.3-0.4,0.3-0.7c0-0.3,0-0.5-0.2-0.8c-0.2-0.4-0.6-0.7-1.2-1c-1.8-1.1-3.2-1.8-4.3-2.2
						c-1.4-0.5-3.1-0.8-5.2-0.7c-0.2,0-0.4,0-0.5,0c-1.9,0.1-3.5,0.5-4.8,1.1c-1.7,0.8-2.8,2-3.4,3.4c0.1,0.2,0.2,0.2,0.4,0.3
						c0.1,0,0.1,0,0.2,0h0h0v0c0,0,0.1,0,0.1-0.1l0,0c0,0,0,0,0,0c1-0.9,1.9-1.6,2.9-2.1C52.1,212.8,53.5,212.3,54.9,212.2
						 M89.7,192.4l-0.2-1.3c-0.9,7.3-2.3,12.5-4.2,15.5c-1.5,2.3-3.2,4.7-5.2,7.1c-0.4,0.4-0.8,0.9-1.1,1.3c-0.3,0.3-0.5,0.6-0.8,1
						c-0.5,0.6-1,1-1.6,1.3c-1.3,1.8-2.2,3-2.8,3.6c-0.2,0.2-0.4,0.3-0.4,0.4c-0.6,0.6-1.3,1-1.9,1.3c-0.7,0.3-1.5,0.3-2.2,0.2
						c-0.8-0.2-1.4-0.6-1.7-1.3c0,0,0,0.1-0.1,0.1c0,0,0,0,0,0.1c-0.1,0.1-0.2,0.3-0.3,0.5c-0.8,1.2-1.9,2.3-3.3,3.1
						c-1.3,0.8-2.7,1.4-4.2,1.6c1.7-0.1,3.4-0.4,5-0.7c1-0.2,1.9-0.5,2.8-0.7v0l0,0c1.6-0.5,3.1-1.1,4.6-1.8
						c1.5-0.8,2.9-1.6,4.2-2.6c2.1-1.6,4-3.5,5.8-5.6c0.3-0.4,0.6-0.8,0.9-1.2C87.8,207.7,90,200.4,89.7,192.4z"/>
					<path class="st34" d="M12,180.5l0.7,4.2l0.8,6c0.8,0.8,1.7,1.2,2.6,1.4c-0.1-1.3-0.2-2.6-0.2-3.9
						C14.2,181.9,12.9,179.3,12,180.5z"/>
					<path class="st35" d="M10.2,180.7c-0.4-1.2-0.4-2.4,0-3.4c0.3-0.2,0.5-0.3,0.8-0.3c0.1,0,0.1,0,0.1-0.1l4.5-1.4
						c-1-1-2.5-1.8-4.7-2.3c-2.5,1.2-3.1,3.9-2,7.9c0.4,1.2,0.9,2.5,1.6,4c0.8,2.6,1.8,4.5,3,5.7l-0.8-6c0,0,0,0,0,0
						C11.5,183.3,10.6,181.9,10.2,180.7z"/>
					<path class="st36" d="M10.3,177.3c-0.4,1-0.4,2.2,0,3.4c0.4,1.2,1.2,2.6,2.4,4c0,0,0,0,0,0l-0.7-4.2c0.9-1.2,2.2,1.4,3.9,7.7
						c-0.1-0.8-0.1-1.6-0.1-2.4c0,0,0-0.1,0-0.1c0-0.1,0-0.1,0-0.2c0,0,0-0.1,0-0.1c0-1.2,0.1-2.5,0.1-3.7c-1.7-3.5-3.4-5.1-4.9-4.9
						c0,0-0.1,0-0.1,0.1C10.8,177,10.5,177.1,10.3,177.3z"/>
					<path class="st37" d="M27.9,128.4c0.1,0,0.1-0.1,0.1-0.1c-2.7,1.6-4.8,4-6.3,7.2c-0.7,1.5-1.3,3.3-1.8,5.2l-0.5,13.4
						c0.2,1.7,0.3,3.4,0.3,5.2v0c0,2.1-0.2,4.2-0.5,6.4c0,0,0,0,0,0.1c0,0.1,0,0.2-0.1,0.3l0,0.1c0,0.1-0.1,0.2-0.1,0.3
						c-0.5,3.3-1.4,6.8-2.7,10.4c-0.2,1.6-0.4,3.3-0.5,4.9c-0.1,1.2-0.1,2.4-0.1,3.7c0,0.1,0,0.1,0,0.1c0,0.1,0,0.1,0,0.2
						c0,0,0,0.1,0,0.1c0,0.8,0,1.5,0.1,2.4c0,1.3,0.1,2.6,0.2,3.9c1,6.4,2.8,11.8,5.3,16.5c2.4,4.4,5.4,7.9,9.1,10.7
						c1,0.8,2,1.5,3.1,2.1h0c0,0,0,0,0,0c0,0,0.1,0.1,0.1,0.1h0c1.7,1,3.5,1.8,5.5,2.6c0.6,0.2,1.2,0.4,1.9,0.7
						c0.5,0.1,1.1,0.3,1.6,0.5c3.1,0.8,6.4,1.4,10,1.6l-3.1-1.1c-1.2-0.3-2-0.6-2.4-0.9c-0.5-0.3-1.2-0.9-2.2-1.8
						c-0.2-0.2-0.3-0.4-0.5-0.5v0c0,0,0,0,0,0c-0.3-0.4-0.6-0.7-0.8-0.9c-0.5-0.6-0.8-1.1-0.9-1.7c-1.5,0.8-3.2,0.8-5.2,0.2
						c-0.5-0.1-1-0.3-1.5-0.6c-0.4-0.2-0.7-0.3-1-0.5c-0.8-0.5-1.6-1.1-2.4-1.8c-0.1-0.1-0.2-0.2-0.3-0.3c-0.2-0.2-0.3-0.3-0.5-0.5
						c-2.7-2.6-5-5.9-6.9-9.8c-0.6-1.2-1.1-2.5-1.7-3.9c-1.6-4.2-3-9.9-4.3-16.8c0,0,0,0,0-0.1l0,0l0.3,0c-0.2-1.9-0.1-4.4,0.1-7.6
						c0.2-3.2,0.6-5.5,1.2-7c0.6-1.5,1.1-3.2,1.4-5.1c0.3-1.9,0.4-3.4,0.2-4.4c-0.1-0.3-0.1-0.6-0.1-0.9c-0.1-1.1,0.1-2.5,0.4-4.2
						c0.1-0.2,0.1-0.4,0.2-0.6c0,0,0,0,0,0c0.1-0.7,0.3-1.3,0.4-1.7c0.2-1,0.3-1.6,0.3-1.7c0.2-1.6,0.2-4,0-7.1
						c-0.2-3.2-0.3-5.6-0.1-7.2C23.7,134.7,25.3,131.4,27.9,128.4z"/>
					<path class="st38" d="M29.3,117.2C29.3,117.2,29.3,117.2,29.3,117.2c-1.2,0.7-2.1,1.5-2.8,2.6c0.6-0.1,1.2,0,1.9,0.2
						c0.5,0.2,1.2,0.5,2.1,0.9c1.4,0.6,2.4,1.2,2.9,1.7c0,0,0,0,0,0c0.3,0.3,0.7,0.5,1,0.9c0.7,0.7,1.3,1.5,1.9,2.5
						c1.6-0.1,3.3,0,5.1,0.3c-0.5-1.3-1.4-2.5-2.5-3.7c-0.2-0.2-0.3-0.3-0.5-0.5c-1-0.8-2.4-1.8-4.2-3c-1-0.7-1.9-1.2-2.8-1.5
						C30.8,117.3,30,117.2,29.3,117.2 M76.6,196.7c0-0.2,0-0.3-0.2-0.4c-0.1-0.1-0.2-0.2-0.4-0.2c-0.2,0-0.3,0.1-0.4,0.2
						c-0.1,0.1-0.2,0.2-0.2,0.4c0,0.2,0,0.3,0.1,0.4c0.1,0.1,0.3,0.2,0.4,0.2c0.2,0,0.3,0,0.4-0.2C76.5,197,76.6,196.8,76.6,196.7
						 M85,160c-0.1-0.1-0.2-0.2-0.4-0.2c-0.2,0-0.3,0.1-0.4,0.2c-0.1,0.1-0.2,0.3-0.2,0.4c0,0.2,0,0.3,0.1,0.4
						c0.1,0.1,0.2,0.2,0.4,0.2c0.2,0,0.3,0,0.4-0.1c0.1-0.1,0.2-0.2,0.2-0.4C85.1,160.2,85.1,160.1,85,160 M83,122.5
						C82.9,122.5,82.9,122.5,83,122.5c-0.8,0-1.6,0-2.4,0C70.2,105.5,56.7,99.7,40,105.2c8.8,0.7,15.8,2.5,21.1,5.3
						c5.3,2.8,9.6,6.7,12.9,11.5c-3.3-4.8-7.6-8.6-12.9-11.5c-5.3-2.9-12.4-4.6-21.1-5.3c-1.9,0.6-3.8,1.4-5.8,2.3
						c1.7,0.1,3.5,0.3,5.3,0.6c2.1,0.4,4.3,0.9,6.4,1.5c0.3,0.1,0.6,0.2,0.8,0.3c0.7,0.2,1.3,0.4,2,0.7c0,0,0.1,0,0.1,0
						c3.9,1.4,7.6,3.3,11.1,5.5c2.8,1.9,6.2,4.6,10.4,8.1c-4.1-3.6-7.6-6.3-10.4-8.1c-3.5-2.3-7.2-4.1-11.1-5.5c0,0,0,0-0.1,0
						c-0.6-0.2-1.3-0.5-2-0.7c-0.3-0.1-0.6-0.2-0.8-0.3c-2.1-0.6-4.3-1.1-6.4-1.5c-1.8-0.3-3.5-0.5-5.3-0.6c-2,0.9-4,2-6.1,3.2
						c1.9-0.2,3.8-0.2,5.6,0c1.7,0.2,3.4,0.5,5.1,1c-1.7-0.5-3.4-0.8-5.1-1c-1.9-0.2-3.8-0.2-5.6,0c-0.8,0.4-1.5,0.9-2.3,1.4
						c0,0,0,0,0,0c-2.8,1.7-5.6,3.7-8.5,6c-0.1,0.1-0.2,0.3-0.3,0.4c0,0.1-0.1,0.3-0.1,0.4c0,0,0,0,0,0c-0.2,0.6-0.5,1.4-0.8,2.5
						c-0.1,0.3-0.2,0.5-0.3,0.9c-0.7,2.5-1.1,4.4-1.1,5.8c0-1.3,0.4-3.3,1.1-5.8c0.1-0.3,0.2-0.6,0.3-0.9c0.3-1.1,0.6-2,0.8-2.5
						c0,0,0,0,0,0c0.1-0.1,0.1-0.2,0.1-0.4c-0.1,0.1-0.1,0.2-0.2,0.3c-0.5,0.7-1,1.4-1.5,2.1c-3.4,4.9-5.8,10.2-7.2,15.7
						c0,0,0,0,0,0.1c-1.7,6.7-2,13.8-0.9,21.5c0,0,0,0,0,0s0,0,0,0c0,0,0,0.1,0,0.1c0,0.3,0.1,0.6,0.1,1c0.2,1.1,0.4,2.3,0.7,3.5
						c0,0,0,0,0,0.1c0.7,3.4,1.7,6.9,3,10.5c2.1,0.5,3.7,1.3,4.7,2.3c0.4,0.4,0.7,0.8,0.9,1.3c1.2-3.6,2.1-7,2.7-10.4
						c0-0.1,0-0.2,0.1-0.4c0-0.1,0-0.2,0.1-0.3c0,0,0-0.1,0-0.1c0.3-2.2,0.5-4.4,0.5-6.4v0c0-1.8-0.1-3.5-0.3-5.2l0.5-13.4
						c0.5-2,1.1-3.7,1.8-5.2c1.5-3.2,3.6-5.6,6.3-7.2c1.1-0.7,2.4-1.2,3.8-1.6h0c1.4-0.4,2.9-0.6,4.5-0.7c-0.6-1-1.2-1.8-1.9-2.5
						c-0.3-0.3-0.7-0.6-1-0.9c0,0,0,0,0,0c-0.6-0.5-1.6-1.1-2.9-1.7c-0.9-0.4-1.7-0.7-2.1-0.9c-0.7-0.2-1.3-0.3-1.9-0.2
						c-0.1,0.1-0.1,0.2-0.2,0.3c-0.2,0.4-0.4,0.8-0.5,1.2c0.4,0.1,0.8,0.2,1.2,0.4c1,0.4,2,1,2.9,1.7c0.4,0.3,0.8,0.7,1.1,1.1
						c0.3,0.3,0.4,0.5,0.4,0.6c0,0,0.1,0.1,0.1,0.2c0.1,0.3,0.2,0.7,0.2,1.2c-0.1-0.5-0.1-0.9-0.2-1.2c0-0.1-0.1-0.1-0.1-0.2
						c0-0.1-0.2-0.3-0.4-0.6c-0.3-0.4-0.7-0.8-1.1-1.1c-0.9-0.7-1.9-1.3-2.9-1.7c-0.4-0.2-0.8-0.3-1.2-0.4c-0.3,0.9-0.4,1.9-0.2,2.8
						c-0.2-0.9-0.2-1.9,0.2-2.8c-0.3-0.1-0.7-0.1-0.9,0c0.3-0.1,0.6-0.1,0.9,0c0.1-0.4,0.3-0.8,0.5-1.2c0.1-0.1,0.1-0.2,0.2-0.3
						c-0.1,0-0.1,0-0.2,0c0.1,0,0.1,0,0.2,0c0.7-1.1,1.6-2,2.8-2.6c0,0,0,0,0.1,0c-0.3,0-0.5,0-0.8,0c0.2,0,0.5-0.1,0.8,0
						c1.1-0.6,2.4-1,4-1.3c0.7-0.1,1.6-0.2,2.7-0.2c0.5,0,1-0.1,1.6-0.1c0.5,0,0.9,0,1.3,0c0.6,0,1.2,0.1,1.5,0.1
						c1.1,0.1,2,0.2,2.8,0.5c2.5,0.7,4.5,2.1,6.2,4.3c0,0,0,0.1,0.1,0.1c0.8,1.1,1.4,2.2,1.8,3.4c0.4,1.1,0.5,2.3,0.5,3.6
						c0-1.2-0.2-2.4-0.5-3.6c-0.4-1.1-1-2.3-1.8-3.4c0,0,0-0.1-0.1-0.1c-1.6-2.2-3.7-3.6-6.2-4.3c-0.8-0.2-1.8-0.4-2.8-0.5
						c-0.4,0-0.9-0.1-1.5-0.1c-0.4,0-0.8,0-1.3,0c-0.6,0-1.1,0.1-1.6,0.1c-1.1,0-2,0.1-2.7,0.2c-1.5,0.2-2.9,0.7-4,1.3
						c0.7,0,1.5,0.1,2.2,0.4c0.8,0.3,1.7,0.8,2.8,1.5c1.9,1.2,3.3,2.2,4.2,3c0.2,0.2,0.3,0.3,0.5,0.5c1.2,1.1,2,2.4,2.5,3.7
						c1.4,0.2,3,0.5,4.6,0.9c0.6,0.1,1.2,0.2,1.8,0.2c0,0,0-0.1,0-0.1c-0.1-1.6-0.7-3.2-1.7-4.8c-0.9-1.3-2.2-2.6-3.8-3.9
						c-2.3-1.8-4.5-2.6-6.3-2.3c1.9-0.3,4,0.5,6.3,2.3c1.7,1.3,3,2.6,3.8,3.9c1.1,1.5,1.6,3.1,1.7,4.8c0,0,0,0.1,0,0.1
						c1.3,0.2,2.6,0.3,3.9,0.3c3.4,0.2,6.6,0,9.7-0.5c3.2-0.5,6.2-1.3,9.1-2.5h0c0.7-0.3,1.4-0.5,2-0.9c0.7-0.3,1.3-0.7,1.9-1l0,0
						c0.2-0.1,0.3-0.2,0.5-0.2c1.6,0.5,3,1.2,4.3,2.1c0.6,0.4,1.2,0.9,1.7,1.4c1.7,1.6,3.1,3.6,4.3,6.1c1,2.2,1.8,4.8,2.4,7.7
						c0,0,0,0,0,0.1c-1.2,6.5-1.6,13-1.3,19.5v0c0.1,2.2,0.3,4.5,0.6,6.7c0,0,0,0.1,0,0.1c0.2,1.2,0.4,2.4,0.6,3.7
						c-0.2,1.1-0.4,2.3-0.6,3.4l0.7,4.8c1.5-2.1,2.9-3.3,4.2-3.7c1.3-0.4,2.5,0,3.5,1.2c0.5-3.3,1-6.4,1.4-9.4c0,0,0-0.1,0-0.1
						c0.4-3.1,0.7-5.9,0.9-8.7v0c0.2-3.1,0.3-5.9,0.3-8.6c0-0.8,0-1.5,0-2.1l0,0c-0.2-7.9-1.6-13.9-4.1-18c0-0.1-0.1-0.1-0.1-0.2
						C91.2,124.8,87.7,122.7,83,122.5 M88.5,130.7c0.2,0.4,0.4,1.1,0.8,2.1c0.3,0.9,0.6,1.6,0.8,2.1c0.4,0.7,0.6,1.1,0.7,1.3
						c0.2,0.5,0.3,0.9,0.2,1.3c-0.1,0.2-0.3,0.6-0.7,1.2c-0.2,0.4-0.3,0.7-0.3,1c0,0.1,0,0.1,0,0.2c0.7-1.1,1.3-2.3,1.7-3.6
						c0,0,0-0.1,0-0.1c0.1-0.3,0.2-0.5,0.2-0.8c0-0.1,0-0.3,0.1-0.4c0.4-1.8,0.5-3.5,0.2-5.3c0.3,1.7,0.2,3.5-0.2,5.3
						c0,0.1-0.1,0.3-0.1,0.4c-0.1,0.3-0.1,0.6-0.2,0.8c0,0,0,0.1,0,0.1c-0.4,1.3-1,2.4-1.7,3.6c0-0.1,0-0.1,0-0.2
						c0-0.3,0.1-0.6,0.3-1c0.4-0.6,0.6-1,0.7-1.2c0.1-0.4,0.1-0.8-0.2-1.3c-0.1-0.2-0.3-0.6-0.7-1.3c-0.3-0.5-0.5-1.2-0.8-2.1
						C88.9,131.8,88.6,131.1,88.5,130.7c-0.5-1.2-1.3-2.4-2.4-3.6c-0.7-0.8-1.8-1.8-3.2-3.1c1.5,1.3,2.5,2.3,3.2,3.1
						C87.1,128.3,87.9,129.5,88.5,130.7 M94.2,149.1c0,1.4,0,2.9-0.1,4.3c0.6-1.4,1.1-2.6,1.6-3.7c0.1-0.2,0.2-0.5,0.3-0.7
						c0.3-0.8,0.7-1.5,0.9-2.1c-0.3,0.6-0.6,1.2-0.9,2.1c-0.1,0.2-0.2,0.4-0.3,0.7c-0.5,1.1-1,2.3-1.6,3.7c-0.1,0.4-0.1,0.8-0.1,1.1
						c0,0.1-0.1,0.1-0.1,0.1c0,0-0.1-0.1-0.1-0.1c-0.1-0.1-0.1-0.3,0-0.4c0.1-0.2,0.2-0.5,0.3-0.7C94.2,152,94.2,150.5,94.2,149.1
						c0-0.6,0-1.3-0.1-2c-0.2-3.6-0.8-7.1-1.8-10.6c1,3.5,1.5,7,1.8,10.6C94.2,147.8,94.2,148.5,94.2,149.1 M90.3,152.1
						c-0.3,1.6-0.7,3-1.3,4.4c-0.5,1-1,2-1.7,2.9c0.6-0.6,1.1-1.3,1.6-2c0.4-0.5,0.7-1.1,1.1-1.7c0.1-0.2,0.2-0.4,0.3-0.6
						c-0.1,0.2-0.2,0.4-0.3,0.6c-0.3,0.6-0.7,1.2-1.1,1.7c-0.5,0.7-1,1.4-1.6,2c0.7-0.9,1.2-1.9,1.7-2.9
						C89.6,155.2,90.1,153.7,90.3,152.1c0.4-2.7,0.3-5.3-0.5-7.9C90.6,146.8,90.8,149.4,90.3,152.1 M91.9,156.8
						c-0.1,0.8-0.4,2.2-0.7,4.1c-0.1,0.6-0.2,1.1-0.4,1.4c-0.1,0.4-0.4,0.9-0.8,1.5c-0.4,0.7-0.7,1.4-0.9,2.2
						c0.2-0.1,0.4-0.3,0.5-0.6c0-0.1,0.1-0.3,0.3-0.7c0.2-0.4,0.5-0.9,1-1.5c0,0,0-0.1,0-0.1c0.1-0.1,0.2-0.2,0.3-0.3
						c0.7-0.8,1.1-1.5,1.4-2c0.2-0.4,0.3-1,0.5-1.9c-0.2,0.9-0.3,1.5-0.5,1.9c-0.2,0.5-0.7,1.2-1.4,2c-0.1,0.1-0.2,0.2-0.3,0.3
						c0,0,0,0.1,0,0.1c-0.5,0.6-0.9,1.1-1,1.5c-0.2,0.4-0.3,0.7-0.3,0.7c-0.2,0.3-0.3,0.5-0.5,0.6c0.2-0.8,0.5-1.5,0.9-2.2
						c0.4-0.6,0.7-1.2,0.8-1.5c0.2-0.3,0.3-0.8,0.4-1.4C91.6,159,91.8,157.7,91.9,156.8 M92.6,166.6c-0.1,0.6-0.4,1.3-0.7,2.1
						c-0.4,1.4-0.9,2.4-1.4,3.1c0.7-0.5,1.2-1,1.7-1.5c0.4-0.5,0.9-1.2,1.6-2.3l1-1.9l-1,1.9c-0.7,1.1-1.2,1.8-1.6,2.3
						c-0.5,0.6-1,1.1-1.7,1.5c0.5-0.7,1-1.8,1.4-3.1C92.3,167.8,92.5,167.1,92.6,166.6c0.2-0.8,0.2-1.5,0.2-2.1
						C92.9,165.1,92.8,165.8,92.6,166.6 M89,169.9c0,0,0,0.1,0,0.1c0.1,0.9,0,1.6-0.1,2.1c-0.3,0.6-0.3,1-0.1,1.3
						c0.1-0.2,0.3-0.5,0.7-0.9c0.3-0.3,0.5-0.6,0.6-0.9c-0.1,0.3-0.2,0.6-0.6,0.9c-0.4,0.4-0.7,0.7-0.7,0.9
						c-0.2-0.3-0.1-0.7,0.1-1.3c0.1-0.5,0.2-1.2,0.1-2.1C89,170,89,169.9,89,169.9c0-0.3-0.1-0.6-0.2-0.9
						C88.9,169.3,88.9,169.6,89,169.9 M94.2,160.7c0.6-1.1,1-2.2,1.4-3.2C95.3,158.5,94.8,159.6,94.2,160.7c0.2-0.4,0.3-0.9,0.3-1.6
						l0.2-4l-0.2,4C94.5,159.8,94.4,160.3,94.2,160.7 M49.8,114.7c-0.7-0.5-1.4-0.8-2.2-1.2c-0.8-0.3-1.7-0.6-2.6-0.8
						c-1.5-0.3-3.2-0.5-5.3-0.6c-0.3,0-0.6,0-0.9,0c-0.5,0-1,0-1.4,0c-0.6,0-1.2,0-1.7,0.1c-0.8,0.1-1.7,0.1-2.4,0.3
						c-0.2,0.1-0.5,0.1-0.7,0.2c-1.8,0.3-3.5,0.9-4.9,1.6c-0.2,0.1-0.3,0.1-0.5,0.3c-1.3,0.8-2.3,1.6-3,2.6c-0.5,0.6-0.8,1.3-1,2.1
						c-0.3,1-0.3,2.1,0.1,3.1c0.1,0.3,0.2,0.6,0.4,0.8c0.4,0.7,0.9,1.2,1.6,1.5c-0.7-0.3-1.2-0.8-1.6-1.5c-1.8,1.7-3.1,3.2-4,4.6
						c0,0,0,0,0,0c-0.1,0.1-0.1,0.1-0.1,0.2c-0.9,1.4-1.6,2.8-2,4.3c-0.3,1.1-0.5,2.2-0.6,3.4c0,0.3,0,0.7,0,1c0,0.1,0,0.2,0,0.2
						c0-0.1,0-0.2,0-0.2c0-0.3,0-0.7,0-1c0.1-1.1,0.3-2.3,0.6-3.4c0.5-1.5,1.1-3,2-4.3c0-0.1,0.1-0.1,0.1-0.2c0,0,0,0,0,0
						c0.9-1.3,2.2-2.8,4-4.6c-0.2-0.3-0.3-0.5-0.4-0.8c-0.4-1-0.4-2.1-0.1-3.1c0.2-0.7,0.6-1.4,1-2.1c0.7-1,1.7-1.8,3-2.6
						c0.2-0.1,0.3-0.2,0.5-0.3c1.4-0.7,3-1.3,4.9-1.6c0.3,0,0.5-0.1,0.7-0.2c0.8-0.1,1.6-0.2,2.4-0.3c0.5-0.1,1.1-0.1,1.7-0.1
						c0.5,0,0.9,0,1.4,0c0.3,0,0.6,0,0.9,0c2.1,0.1,3.8,0.3,5.3,0.6c0.9,0.2,1.8,0.5,2.6,0.8C48.4,113.8,49.2,114.2,49.8,114.7
						c1.7,1.2,3.1,3,4.1,5.3c0,0.1,0.1,0.2,0.1,0.2c0.7,0.8,1.2,1.5,1.6,2c0.1,0.1,0.3,0.3,0.4,0.4c0.3,0.3,0.7,0.7,1.3,1.2
						c0.7,0.5,1.2,0.9,1.5,1.1l0.9,0.5c0.6,0.4,1.1,0.8,1.6,1.4c-0.4-0.6-1-1-1.6-1.4l-0.9-0.5c-0.3-0.2-0.8-0.5-1.5-1.1
						c-0.6-0.5-1-0.9-1.3-1.2c-0.1-0.1-0.2-0.2-0.4-0.4c-0.4-0.5-1-1.1-1.6-2c0.3,0.8,0.6,1.6,0.9,2.5c0.3,1.2,0.6,2.5,0.9,4
						c-0.2-1.5-0.5-2.8-0.9-4c-0.3-0.9-0.5-1.7-0.9-2.5c0-0.1-0.1-0.2-0.1-0.2C52.9,117.7,51.5,115.9,49.8,114.7 M16.2,126.7
						c-0.1,0.3-0.3,0.6-0.4,0.8c-0.1,0.2-0.3,0.4-0.4,0.6c0.2-0.2,0.3-0.4,0.4-0.6C15.9,127.3,16,127,16.2,126.7
						c0.3-0.7,0.6-1.2,0.7-1.6c0.4-0.7,0.8-1.5,1.3-2.3c0.5-0.8,1-1.6,1.7-2.4c0.7-0.9,2-2.3,3.7-4.2c-1.7,1.8-2.9,3.2-3.7,4.2
						c-0.6,0.8-1.2,1.6-1.7,2.4c-0.5,0.8-0.9,1.5-1.3,2.3C16.7,125.5,16.5,126,16.2,126.7 M20.7,129.3c0.1-0.2,0.1-0.3,0.2-0.4
						c0.1-0.1,0.1-0.2,0.2-0.3c0.1-0.1,0.2-0.1,0.3-0.2c-0.1,0-0.2,0.1-0.3,0.2c-0.1,0.1-0.1,0.2-0.2,0.3
						C20.8,129,20.7,129.1,20.7,129.3c-0.2,0.8-0.3,1.7-0.3,2.7c0,0.6,0.1,1.5,0.2,2.8l1-2.5c0.4-1,0.7-1.7,0.9-2
						c0.6-1.1,1.8-2.5,3.5-4c-1.7,1.5-2.9,2.9-3.5,4c-0.2,0.3-0.5,1-0.9,2l-1,2.5c-0.1-1.2-0.2-2.2-0.2-2.8
						C20.3,131,20.4,130.1,20.7,129.3 M15.8,129.1c0-0.1,0.1-0.2,0.2-0.3c0.1-0.2,0.3-0.5,0.5-0.9c-0.2,0.4-0.4,0.7-0.5,0.9
						C15.8,129,15.8,129,15.8,129.1c-0.2,0.4-0.4,0.8-0.4,1.2c0,0.1,0,0.4,0,0.7c0,0.3,0.1,0.8,0.2,1.3l0.7,4.2l-0.7-4.2
						c-0.1-0.5-0.1-0.9-0.2-1.3c0-0.3,0-0.5,0-0.7C15.4,130,15.5,129.6,15.8,129.1 M16.6,141c-0.3,0.5-0.7,0.9-1,1.4
						c-0.6,0.8-1.2,1.5-1.7,2.2c-0.2,0.3-0.4,0.6-0.6,0.8c-1.1,1.5-1.9,2.9-2.4,4.1c-0.5,1.1-0.9,2.5-1.3,4.1c0,0.1,0,0.2-0.1,0.3
						c-0.2,0.9-0.4,2.2-0.7,3.9c0.2-1.7,0.5-3,0.7-3.9c0-0.1,0-0.2,0.1-0.3c0.3-1.6,0.8-2.9,1.3-4.1c0.6-1.2,1.4-2.6,2.4-4.1
						c0.2-0.3,0.4-0.6,0.6-0.8c0.5-0.7,1.1-1.5,1.7-2.2C15.9,141.9,16.2,141.5,16.6,141 M15.5,147.2c0.5-0.6,1.1-1.2,1.7-1.8
						C16.7,146,16.1,146.6,15.5,147.2c-0.5,0.5-0.9,1-1.3,1.5c-0.1,0.1-0.2,0.3-0.4,0.4c-0.1,0.1-0.1,0.1-0.1,0.2
						c-0.1,0.1-0.1,0.1-0.1,0.2c0,0,0,0.1,0,0.1c-0.9,1.8-1.6,3.6-2.1,5.6c-0.1,0.3-0.2,0.7-0.3,1c-0.2,0.8-0.3,1.5-0.4,2.3v0
						c-0.2,1.1-0.2,2.3-0.3,3.4c0-1.2,0.1-2.3,0.3-3.4v0c0.1-0.8,0.2-1.5,0.4-2.3c0.1-0.3,0.2-0.7,0.3-1c0.5-2,1.2-3.8,2.1-5.6
						c0,0,0-0.1,0-0.1c0-0.1,0.1-0.1,0.1-0.2c-0.1,0.1-0.1,0.1-0.2,0.3c-1.1,1.4-2,3-2.8,4.6c-0.1,0.2-0.2,0.4-0.3,0.6
						c-0.5,1-0.9,2.1-1.3,3.1c0.4-1.1,0.8-2.1,1.3-3.1c0.1-0.2,0.2-0.4,0.3-0.6c0.8-1.6,1.7-3.1,2.8-4.6c0.1-0.1,0.1-0.2,0.2-0.3
						c0-0.1,0.1-0.1,0.1-0.2c0.1-0.1,0.3-0.3,0.4-0.4C14.6,148.2,15.1,147.7,15.5,147.2 M19.1,160.3c0.1-0.4,0.2-0.7,0.3-1
						C19.4,159.6,19.3,159.9,19.1,160.3c-0.1,0.2-0.2,0.6-0.4,1c-0.1,0.2-0.2,0.4-0.3,0.6c-0.4,0.9-0.7,1.8-1.1,2.9
						c0.3-1,0.7-2,1.1-2.9c0.1-0.2,0.2-0.4,0.3-0.6C18.9,160.9,19,160.5,19.1,160.3 M15.9,159.8c0.1-0.6,0.3-1.2,0.5-1.7
						c0-0.1,0.1-0.2,0.1-0.3c0.1-0.2,0.2-0.4,0.2-0.5c-0.1,0.2-0.2,0.3-0.2,0.5c-0.1,0.1-0.1,0.2-0.1,0.3l-0.1,3.1
						c0,0.5,0,0.8,0.1,1c0,0.2,0.2,0.5,0.4,1c0.1,0.4,0.2,0.8,0.3,1.2c0,0.1,0,0.2,0,0.5v0c0,0.2,0.1,0.4,0.1,0.7
						c0-0.3-0.1-0.5-0.1-0.7v0c0-0.3,0-0.4,0-0.5c-0.1-0.4-0.2-0.8-0.3-1.2c-0.2-0.5-0.4-0.8-0.4-1c-0.1-0.2-0.1-0.5-0.1-1l0.1-3.1
						C16.2,158.5,16,159.1,15.9,159.8c-0.1,0.6-0.3,1.4-0.5,2.6c-0.2,0.8-0.4,1.6-0.6,2.4c0,0,0,0,0,0c-0.2,0.5-0.3,1.1-0.5,1.6
						c0.2-0.5,0.3-1.1,0.5-1.6c0,0,0,0,0,0c0.2-0.8,0.5-1.6,0.6-2.4C15.6,161.2,15.7,160.3,15.9,159.8 M9.1,136.7
						c-0.1-0.1-0.3,0-0.3,0.1C8.9,136.7,9,136.7,9.1,136.7c0.1,0,0.2,0.1,0.3,0.2c0.1,0.1,0.1,0.4,0.1,0.8c-0.3,1.5-0.2,2.8,0.1,3.7
						c0.2,0.6,0.6,1.1,1.1,1.5c0.5,0.4,1.1,0.6,1.6,0.6c-0.2-0.6-0.4-1.2-0.4-1.9c0-0.4,0-1.1,0-1.9c0.1-1.9,0.2-3.4,0.3-4.4
						c0.2-1.6,0.5-3,0.9-4.2c-0.4,1.2-0.7,2.7-0.9,4.2c-0.1,1-0.2,2.4-0.3,4.4c0,0.9,0,1.5,0,1.9c0.1,0.7,0.2,1.4,0.4,1.9
						c-0.6,0-1.1-0.2-1.6-0.6c-0.5-0.4-0.8-0.9-1.1-1.5c-0.3-0.9-0.3-2.1-0.1-3.7c0-0.4,0-0.7-0.1-0.8
						C9.3,136.9,9.2,136.8,9.1,136.7 M13.3,156.5c0.5-1.5,1.1-2.7,1.6-3.5c0-0.1,0-0.2,0.1-0.3c0.2-0.7,0.4-1.5,0.6-2.2
						c-0.2,0.7-0.4,1.5-0.6,2.2c0,0.1-0.1,0.2-0.1,0.3c-0.3,1.3-0.6,2.5-0.8,3.8c0,0.1,0,0.1,0,0.2c-0.4,2.6-0.6,5.2-0.5,7.8
						c0,0,0,0.1,0,0.1c0,0.8,0,1.5,0.1,2.3c0.1,0.1,0.1,0.1,0.2,0c0.1-0.1,0.1-0.1,0.1-0.3c0,0.1,0,0.2-0.1,0.3
						c-0.1,0.1-0.2,0.1-0.2,0c-0.1-0.8-0.1-1.5-0.1-2.3c0,0,0-0.1,0-0.1c0-2.7,0.2-5.3,0.5-7.8c0-0.1,0-0.1,0-0.2
						c0.2-1.3,0.4-2.5,0.8-3.8C14.3,153.8,13.8,155,13.3,156.5c0,0.1,0,0.1-0.1,0.2c-0.4,1.2-0.7,2-0.8,2.4
						c-0.1,0.2-0.1,0.3-0.1,0.3c-0.4,1-0.8,1.9-1.2,2.6c0.4-0.7,0.8-1.6,1.2-2.6c0,0,0-0.1,0.1-0.3c0.1-0.4,0.4-1.2,0.8-2.4
						C13.2,156.6,13.3,156.6,13.3,156.5z"/>
					<path class="st39" d="M94.9,181.7l-0.3,0c-0.3,0-0.6,0-0.9,0.2c-0.3,0.1-0.5,0.3-0.7,0.6c-0.1,0.2-0.2,0.7-0.3,1.2
						c-0.3,0.7-0.6,1.3-1,1.8c-0.1,0.2-0.3,0.3-0.5,0.3c-0.1-0.1-0.1-0.2-0.2-0.4c0-0.7,0.3-1.6,1-2.6c0.4-0.6,0.8-1.4,1.3-2.3
						c0.5-1,0.8-1.7,0.8-2.3c-2.5-0.4-4.5,1.1-5.9,4.5l1.2,8.4l0.2,1.3c0.8,0.5,1.5-0.3,2.2-2.4C93.3,186.7,94.3,184,94.9,181.7z"/>
					<path class="st40" d="M95.3,175.7c-1.1-1.2-2.2-1.6-3.5-1.2c-1.3,0.4-2.7,1.7-4.2,3.7l0.6,4.3c1.4-3.5,3.4-5,5.9-4.5
						c0,0.6-0.3,1.4-0.8,2.3c-0.5,0.9-0.9,1.6-1.3,2.3c-0.7,1.1-1.1,1.9-1,2.6c0.1,0.2,0.1,0.3,0.2,0.4c0.2,0,0.4,0,0.5-0.3
						c0.4-0.5,0.8-1,1-1.8c0.1-0.6,0.2-1,0.3-1.2c0.2-0.3,0.4-0.4,0.7-0.6c0.3-0.1,0.6-0.2,0.9-0.2l0.3,0c0.4-1.4,0.6-2.6,0.7-3.6v0
						C95.6,177.2,95.5,176.4,95.3,175.7z"/>
					<path class="st27" d="M82.2,134.3c-0.7-2.6-2-4.8-3.7-6.7c-1.8-1.9-3.7-3.1-5.9-3.7c-0.7,0.3-1.3,0.6-2,0.9h0
						c-2.9,1.2-5.9,2-9.1,2.5c-3.1,0.5-6.3,0.6-9.7,0.5c-1.3-0.1-2.6-0.2-3.9-0.3c0,0.1,0,0.2,0,0.3c0-0.1,0-0.2,0-0.3
						c-0.6-0.1-1.2-0.1-1.8-0.2c-1.6-0.4-3.1-0.7-4.6-0.9c-1.8-0.2-3.6-0.3-5.1-0.3c-1.6,0.1-3.1,0.3-4.5,0.7h0
						c-1.4,0.4-2.6,0.9-3.8,1.6c0,0.1-0.1,0.1-0.1,0.1c-2.7,3-4.2,6.4-4.6,10.1c-0.2,1.5-0.2,3.9,0.1,7.2c0.2,3.1,0.2,5.5,0,7.1
						c0,0.1-0.1,0.7-0.3,1.7c-0.1,0.5-0.2,1-0.4,1.7c0,0,0,0,0,0c-0.1,0.2-0.1,0.4-0.2,0.6c-0.3,1.7-0.5,3-0.4,4.2
						c0,0.2,0.1,0.5,0.1,0.9c0.2,1,0.1,2.5-0.2,4.4c-0.3,1.9-0.8,3.6-1.4,5.1c-0.6,1.5-1,3.8-1.2,7c-0.2,3.2-0.2,5.7-0.1,7.6l-0.3,0
						l0,0c0,0,0,0,0,0.1c1.3,7,2.7,12.6,4.3,16.8c0.5,1.3,1.1,2.6,1.7,3.9c2.3,3.3,5.1,5.7,8.2,7.4c0.2,0.1,0.5,0.3,0.8,0.4
						c0.2,0.1,0.4,0.2,0.6,0.3c2.7,1.1,5.3,1.6,8,1.4c1.1-0.1,2.2-0.2,3.3-0.5c-0.1,0.9,0,1.7,0.4,2.5c0.1-0.5,0.2-0.8,0.3-0.8
						c0.1-0.3,0.3-0.6,0.4-0.8l0.3-0.3c0,0,0.1-0.1,0.2-0.2c0.1-0.1,0.2-0.2,0.3-0.3h0c-0.1,0-0.1,0-0.2,0c-0.2,0-0.3-0.1-0.4-0.3
						c0.6-1.4,1.8-2.6,3.4-3.4c1.3-0.6,2.9-0.9,4.8-1.1c0.2,0,0.3,0,0.5,0c2.1,0,3.8,0.2,5.2,0.7c1.1,0.3,2.5,1.1,4.3,2.2
						c0.5,0.3,0.9,0.7,1.2,1c0.1,0.2,0.2,0.5,0.2,0.8c0,0.3-0.1,0.5-0.3,0.7c-0.1-0.1-0.2-0.2-0.3-0.3c0.2,0.2,0.3,0.4,0.4,0.7
						c0.1,0.2,0.1,0.4,0.1,0.6c0,0.2,0,0.3,0.1,0.4c0,0.1,0,0.2,0,0.3c0,0-0.1-0.1-0.1-0.1c0,0,0,0,0,0c0,0.2,0,0.4,0,0.6l1.5,0.2
						c0.1,0,0.1,0.1,0.2,0.1c1.1,0.4,2.2,0.5,3.4,0.4c1.9-0.1,3.5-0.8,4.8-2.1c3.2-4,5.1-6.8,5.7-8.6c1-3.1,1.8-5.8,2.4-8.2
						c0.6-2.3,1-4.4,1.4-6.1c0.3-1.7,0.3-4.2-0.1-7.3c-0.3-3.1-1.1-6.4-2.4-9.7c-1.3-3.3-1.9-5.6-1.7-7c0.3-2,0.4-3.9,0.2-5.6
						c0-0.2,0-0.4-0.1-0.6l-0.3,0c0-0.4-0.1-0.8-0.1-1.2c0-0.8,0-1.6,0-2.4c0-0.2,0-0.3,0-0.4c0-0.9,0.1-1.9,0.2-2.9
						c0-0.1,0.1-1,0.4-2.9c0.1-0.4,0.1-0.9,0-1.4l0.6-3.4c0.4-3,0.6-5.5,0.6-7.7C83.2,139.1,82.9,136.5,82.2,134.3 M62.2,154.9
						c-0.1,0.2-0.2,0.4-0.3,0.7c-0.1,0.3-0.3,0.6-0.4,0.9c0,0,0,0,0.1,0c-0.1,0.1-0.1,0.3-0.2,0.4c-3.7,6.7-4.1,12.3-1.3,16.7
						c2.8,4.4,4.2,6.7,4.2,6.8c0.2,0.1,0.4,0.2,0.6,0.3c0.3,0.2,0.7,0.5,1.1,0.9c0.1,0.1,0.2,0.2,0.2,0.3c0.6,0.6,1.1,1,1.3,1.2
						c0.2,0.1,0.4,0.3,0.7,0.4c0.2,0.1,0.5,0.3,0.9,0.5c0.4,0.4,0.7,0.7,0.9,1.1c0.8,1.3,1.1,3,0.8,5.1c-0.2-2.1-0.9-3.9-2.2-5.3
						c-0.6-0.4-1-0.6-1.3-0.7c-0.2,0-0.4,0-0.5,0.1c-0.1,0.1-0.2,0.2-0.2,0.4c-0.1,0.6-0.5,1.2-0.9,1.8c-0.4,0.5-0.9,0.9-1.5,1.1
						l0,0c0,0.1,0,0.2,0,0.3v0c-0.2,1.1-1.3,2-3.3,2.7c-0.9,0.4-1.6,0.6-2,0.7c-0.2,0.1-0.4,0.1-0.6,0.2c-0.3,0.8-0.4,1.6-0.4,2.4
						c0,0.9,0.1,1.8,0.4,2.6c-0.3,0.4-0.7,0.8-1,1c-0.8,0.6-1.5,0.8-2,0.5c-0.3-0.1-0.6-0.4-0.9-0.9c-0.3-0.4-0.7-0.7-1.2-0.8
						c0.2-0.3,0.4-0.6,0.5-1c0.1-0.3,0.2-0.7,0.3-1.2l0.1-0.7c0,0,0-0.1-0.1-0.1v0l0,0l0-0.1c0,0,0.1-0.1,0.1-0.1
						c0.2-0.9,0.1-1.6-0.1-2.1c-0.1-0.1-0.3-0.1-0.4-0.1c-1.4-0.5-2.5-0.7-3.2-0.6c-0.4,0-1,0.1-1.6,0.3c-0.9,0.2-1.4,0.3-1.7,0.4
						c-1.5,0.2-2.5,0-3.2-0.8c-0.2-0.2-0.4-0.7-0.7-1.3c-0.2-0.5-0.5-0.9-0.7-1.1c-0.1-0.1-0.3-0.2-0.7-0.4
						c-0.1-0.1-0.3-0.2-0.3-0.2c-0.3,1-0.6,2.1-0.8,3.3c-0.1-1.4,0-2.6,0.3-3.7c-0.1-0.2-0.2-0.5-0.2-0.8c0-0.3,0.1-0.6,0.3-0.9
						c0.1-0.3,0.3-0.5,0.6-0.8c0,0,0.3-0.3,0.8-0.7c0,0,0.1-0.1,0.1-0.1c0,0,0-0.1,0-0.1c0.2-0.4,0.5-0.7,0.9-1.1
						c0.2-0.2,0.4-0.3,0.7-0.5c0,0,0,0,0.1,0c0.2-0.4,0.7-0.8,1.3-1.1c1-0.6,2-1.1,3.1-1.7c0.1-0.2,1.1-2.7,3.2-7.7
						c2.1-4.9,1.7-9-1.1-12.2c-0.2-0.8-0.5-1.6-0.9-2.4c-0.1-0.1-0.1-0.2-0.1-0.3c-0.3-0.6-0.6-1.1-0.9-1.7c0,0,0,0,0,0c0,0,0,0,0,0
						c0.1,0,0.1-0.1,0.2-0.1c0.3-0.2,0.7-0.3,1-0.5c0.1-0.1,0.2-0.1,0.3-0.1c0.3-0.1,0.6-0.2,0.9-0.3l0.5-0.1c0.2,0,0.5-0.1,0.9-0.2
						c0,0,0,0,0,0c0.1,0,0.1,0,0.2,0l0,0c0.6-0.1,0.9-0.1,1-0.1c0,0,0,0,0,0v0c0.2,0,0.5,0,0.7-0.1c0.1,0,0.1-0.1,0.1-0.1
						c0,0,0,0.1,0.1,0.1c0,0,0,0,0.1,0c1.4-0.1,2.9,0.1,4.4,0.5v0C60.1,153.9,61.2,154.3,62.2,154.9 M76.4,196.2
						c0.1,0.1,0.2,0.3,0.2,0.4c0,0.2-0.1,0.3-0.2,0.4c-0.1,0.1-0.2,0.2-0.4,0.2c-0.2,0-0.3-0.1-0.4-0.2c-0.1-0.1-0.1-0.3-0.1-0.4
						c0-0.2,0.1-0.3,0.2-0.4c0.1-0.1,0.3-0.2,0.4-0.2C76.2,196.1,76.4,196.1,76.4,196.2 M53.6,153.3L53.6,153.3L53.6,153.3
						C53.6,153.3,53.6,153.3,53.6,153.3z"/>
					<path class="st41" d="M41.5,184.2c-0.3,0.2-0.5,0.5-0.6,0.8c-0.2,0.3-0.3,0.6-0.3,0.9c0,0.3,0.1,0.6,0.2,0.8
						c0.3-1.2,0.8-2.2,1.5-3.2C41.7,183.9,41.5,184.1,41.5,184.2 M62.5,187.5c0-0.2,0-0.3,0-0.4c0-0.1,0-0.1-0.1-0.1
						c-0.1-0.1-0.3-0.1-0.6-0.1c-1.2,0.5-2.1,0.8-2.7,0.9c-1,0.3-1.9,0.3-2.8,0.2c-0.5-0.1-1.5-0.4-2.9-1c-1.2-0.5-2.2-0.8-2.9-0.7
						c-0.2,0-0.4,0.1-0.4,0.2c-0.2,0.1-0.2,0.3-0.1,0.5c0.1,0.2,0.2,0.4,0.3,0.6c-0.5-0.1-0.9-0.3-1.3-0.4c0,0,0,0-0.1,0
						c-0.5,0.3-1,0.3-1.6,0.1c-0.4-0.2-0.9-0.6-1.4-1.1c-0.6-0.6-1.1-1.1-1.2-1.6c-0.2-0.5-0.2-1.3,0-2.1c-0.3,0.1-0.7,0.3-1.3,0.5
						c-1,1.1-1.8,2.5-2.3,4.1c0.1,0.1,0.2,0.2,0.3,0.2c0.4,0.2,0.6,0.4,0.7,0.4c0.3,0.2,0.5,0.6,0.7,1.1c0.3,0.6,0.5,1,0.7,1.3
						c0.7,0.8,1.7,1,3.2,0.8c0.3,0,0.8-0.1,1.7-0.4c0.7-0.2,1.2-0.3,1.6-0.3c0.8,0,1.9,0.2,3.2,0.6c0.2,0,0.3,0.1,0.4,0.1
						c1.2,0.4,2.1,0.6,2.8,0.6c0.5,0,1,0,1.5-0.1c0.2-0.1,0.4-0.1,0.6-0.2c0.4-0.1,1.1-0.4,2-0.7c2-0.7,3.1-1.6,3.3-2.7l-1,0
						l-0.1-0.1c-0.1,0.1-0.2,0.1-0.4,0C62.6,187.7,62.5,187.6,62.5,187.5z"/>
					<path class="st42" d="M53.9,193.3L53.9,193.3L53.9,193.3c0,0.1,0,0.2,0,0.2l-0.1,0.7c-0.1,0.5-0.2,0.9-0.3,1.2
						c-0.1,0.4-0.3,0.7-0.5,1c0.5,0.1,0.8,0.4,1.2,0.8c0.4,0.5,0.7,0.8,0.9,0.9c0.6,0.2,1.2,0.1,2-0.5c0.4-0.3,0.7-0.6,1-1
						c-0.3-0.8-0.5-1.7-0.4-2.6c0-0.8,0.1-1.6,0.4-2.4c-0.5,0.1-1,0.1-1.5,0.1c-0.6,0-1.5-0.2-2.8-0.6c0.2,0.5,0.2,1.2,0.1,2.1
						C54,193.2,53.9,193.2,53.9,193.3L53.9,193.3z"/>
					<path class="st43" d="M47.6,184.7c0.3-0.1,0.7-0.3,1.1-0.7c0.7-0.7,1.2-1.3,1.6-1.9c0.3-0.7,0.5-1.7,0.5-2.8
						c-1,0.4-2.1,0.9-3.2,1.5c-1.3,1.5-1.9,2.7-1.6,3.8c0.5,0,0.8,0.1,0.8,0.1C47.2,184.7,47.4,184.7,47.6,184.7z"/>
					<path class="st44" d="M48.2,179.6c0.1-0.2,0.2-0.4,0.3-0.7c-1.1,0.5-2.1,1.1-3.1,1.7c-0.6,0.4-1,0.8-1.3,1.1c0,0,0,0-0.1,0
						c-0.3,0.2-0.5,0.3-0.7,0.5c-0.5,0.3-0.8,0.7-0.9,1.1c0,0,0,0.1,0,0.1c0,0-0.1,0-0.1,0.1c-0.7,1-1.2,2-1.5,3.2
						c-0.3,1.1-0.4,2.4-0.3,3.7c0.2-1.2,0.4-2.3,0.8-3.3c0.5-1.6,1.3-3,2.3-4.1c0.6-0.2,1-0.4,1.3-0.5c-0.2,0.9-0.2,1.6,0,2.1
						c0.2,0.5,0.6,1,1.2,1.6c0.5,0.5,0.9,0.8,1.4,1.1c0.6,0.2,1.1,0.2,1.6-0.1c-1.7-0.7-2.7-1.5-2.9-2.5c-0.3-1.1,0.2-2.3,1.6-3.8
						C47.8,180.4,48,180,48.2,179.6 M63.2,182.8c-0.1-1-0.3-1.6-0.6-2c0.1,0.6,0,1.3-0.1,2c-0.1,0.4-0.3,0.9-0.6,1.3
						c-0.4,0.7-1.2,1.8-2.4,3c0.2-0.1,0.4-0.2,0.5-0.3c0.2-0.2,0.6-0.4,1.2-0.8c0.2-0.1,0.4-0.2,0.6-0.3l0.7-0.8
						c0.3-0.4,0.5-0.8,0.7-1.2C63.3,183.6,63.2,183.3,63.2,182.8z"/>
					<path class="st45" d="M64.2,187.6l-0.3-0.3c0,0-0.1,0-0.1,0c-0.1,0-0.1,0-0.2,0c-0.1,0-0.2-0.1-0.3-0.2
						c-0.2-0.2-0.3-0.4-0.3-0.6l0-0.4c0-0.1,0-0.1,0-0.2c0-0.1,0-0.1-0.1-0.2c-0.1-0.1-0.3-0.2-0.5-0.2c-0.2,0-0.4,0-0.7,0.1
						c-0.2,0.1-0.4,0.2-0.6,0.3c-0.5,0.4-0.9,0.6-1.2,0.8c-0.2,0.1-0.4,0.2-0.5,0.3c-0.8,0.3-1.6,0.5-2.5,0.4
						c-1.1-0.1-2.1-0.4-2.9-1.1c-0.4-0.4-0.8-0.7-1-0.9c-0.4-0.3-0.8-0.6-1.1-0.7c-0.3-0.1-0.7-0.2-1.1-0.1c-0.4,0.1-0.7,0.2-1,0.4
						c-0.1,0-0.1,0-0.1,0.1c-0.2,0.2-0.4,0.5-0.6,0.8c-0.2,0.3-0.3,0.7-0.3,1.1v0c0.4,0.2,0.8,0.3,1.3,0.4c-0.2-0.2-0.3-0.4-0.3-0.6
						c-0.1-0.3-0.1-0.4,0.1-0.5c0.1-0.1,0.2-0.1,0.4-0.2c0.8,0,1.8,0.2,2.9,0.7c1.4,0.6,2.3,1,2.9,1c0.9,0.1,1.8,0.1,2.8-0.2
						c0.6-0.1,1.5-0.5,2.7-0.9c0.3-0.1,0.5,0,0.6,0.1c0,0,0,0.1,0.1,0.1c0,0.1,0.1,0.2,0,0.4c0,0.1,0.1,0.2,0.2,0.3
						c0.1,0.1,0.3,0.1,0.4,0l0.1,0.1l1,0v0C64.2,187.8,64.2,187.7,64.2,187.6L64.2,187.6z"/>
					<path class="st46" d="M61.9,184.1c0.3-0.5,0.4-0.9,0.6-1.3l-0.3-0.1c0,0,0,0-0.1,0c-0.4,0.1-0.8,0.3-1.2,0.4
						c-1,0.3-1.8,0.5-2.5,0.6c-1.5,0.2-2.8,0.2-4,0c-0.6-0.1-1.2-0.3-1.6-0.7c-0.6-0.3-1-0.8-1.2-1.3c-0.2-0.5-0.2-1.3,0-2.3
						l-0.8-0.1c0,1.1-0.2,2-0.5,2.8c-0.4,0.6-0.9,1.2-1.6,1.9c-0.4,0.3-0.8,0.6-1.1,0.7c-0.2,0.1-0.5,0.1-0.7,0.1
						c-0.1,0-0.4,0-0.8-0.1c0.3,1,1.3,1.9,2.9,2.5c0,0,0,0,0.1,0v0c0-0.4,0.1-0.8,0.3-1.1c0.1-0.3,0.3-0.6,0.6-0.8
						c0,0,0.1-0.1,0.1-0.1c0.3-0.2,0.6-0.4,1-0.4c0.4-0.1,0.8,0,1.1,0.1c0.3,0.1,0.7,0.4,1.1,0.7c0.2,0.2,0.5,0.5,1,0.9
						c0.8,0.6,1.8,1,2.9,1.1c0.9,0.1,1.7-0.1,2.5-0.4C60.8,185.8,61.6,184.8,61.9,184.1z"/>
					<path class="st47" d="M62.5,182.8c0.2-0.7,0.2-1.3,0.1-2l0.6-0.9c-3.7-2.1-7.8-2.3-12.3-0.6c0,0-0.1,0-0.1,0l0.8,0.1
						c-0.2,1-0.2,1.8,0,2.3c0.2,0.5,0.6,1,1.2,1.3c0.5,0.3,1,0.5,1.6,0.7c1.2,0.2,2.5,0.2,4,0c0.7-0.1,1.5-0.3,2.5-0.6
						c0.4-0.1,0.8-0.3,1.2-0.4c0,0,0,0,0.1,0L62.5,182.8z"/>
					<path class="st48" d="M64.4,180.6c-0.1-0.1-0.2-0.1-0.3-0.2c0.2,0.4,0.5,0.9,1,1.5c0.2,0.3,0.4,0.6,0.6,0.8
						c0.2,0.3,0.3,0.6,0.3,0.8c0,0.3,0,0.6-0.1,1c-0.2,0.6-0.4,1.2-0.8,1.7c-0.4,0.5-0.8,0.8-1.3,1.1c0,0,0.1,0,0.1,0l0.3,0.3
						c0.6-0.2,1.1-0.6,1.5-1.1c0.5-0.6,0.8-1.2,0.9-1.8c0-0.2,0.1-0.3,0.2-0.4c0.1-0.1,0.2-0.1,0.5-0.1c0.3,0,0.7,0.2,1.3,0.7
						c1.2,1.4,2,3.1,2.2,5.3c0.2-2.1,0-3.8-0.8-5.1c-0.2-0.4-0.5-0.7-0.9-1.1c-0.3-0.2-0.6-0.3-0.9-0.5c-0.3-0.2-0.5-0.3-0.7-0.4
						c-0.2-0.1-0.7-0.5-1.3-1.2c-0.1-0.1-0.1-0.2-0.2-0.3c-0.4-0.4-0.7-0.7-1.1-0.9c-0.2-0.2-0.4-0.3-0.6-0.3
						C64.3,180.5,64.3,180.5,64.4,180.6z"/>
					<path class="st49" d="M64,180.4c-0.3-0.2-0.6-0.3-0.9-0.5l-0.6,0.9c0.3,0.3,0.5,1,0.6,2c0.1,0.5,0.1,0.9,0,1
						c-0.1,0.4-0.4,0.8-0.7,1.2l-0.7,0.8c0.2-0.1,0.5-0.1,0.7-0.1c0.2,0,0.4,0.1,0.5,0.2c0,0.1,0.1,0.1,0.1,0.2c0,0,0,0.1,0,0.2
						l0,0.4c0,0.2,0.1,0.4,0.3,0.6c0.1,0.1,0.2,0.1,0.3,0.2c0,0,0.1,0,0.2,0c0.5-0.2,0.9-0.6,1.3-1.1c0.4-0.5,0.6-1.1,0.8-1.7
						c0.1-0.4,0.1-0.8,0.1-1c0-0.3-0.1-0.5-0.3-0.8c-0.1-0.3-0.3-0.5-0.6-0.8C64.6,181.3,64.2,180.8,64,180.4z"/>
					<path class="st50" d="M61.9,155.5c0.1-0.2,0.2-0.5,0.3-0.7c-1-0.5-2.1-0.9-3.1-1.2v0c-1.5-0.4-3-0.6-4.4-0.5c0,0,0,0-0.1,0
						c-0.1,0-0.1,0-0.2,0v0c-0.2,0-0.5,0-0.7,0.1v0v0h-0.1c0,0,0,0,0.1,0c0,0,0,0,0,0c-0.1,0-0.5,0-1,0.1l0,0c-0.1,0-0.1,0-0.2,0
						c0,0,0,0,0,0c-0.4,0.1-0.7,0.1-0.9,0.2l-0.5,0.1c-0.3,0.1-0.6,0.2-0.9,0.3c-0.1,0-0.2,0.1-0.3,0.1c-0.3,0.1-0.7,0.3-1,0.5
						c-0.1,0-0.1,0.1-0.2,0.1c0,0,0,0,0,0c0,0,0,0,0,0c0.3,0.6,0.6,1.1,0.9,1.7c0,0.1,0.1,0.2,0.1,0.3c0.3,0.8,0.6,1.6,0.9,2.4
						c2.8,3.2,3.2,7.2,1.1,12.2c-2,4.9-3.1,7.5-3.2,7.7c-0.1,0.2-0.2,0.4-0.3,0.7c-0.2,0.4-0.4,0.8-0.6,1.3c1.1-0.6,2.1-1.1,3.2-1.5
						c0,0,0.1,0,0.1,0c4.5-1.7,8.6-1.5,12.3,0.6c0.3,0.2,0.6,0.3,0.9,0.5c0.1,0.1,0.2,0.1,0.3,0.2c0-0.1-0.1-0.1-0.1-0.2
						c0-0.1-1.4-2.4-4.2-6.8c-2.8-4.4-2.4-10,1.3-16.7c0.1-0.1,0.1-0.3,0.1-0.4C61.6,156.2,61.8,155.9,61.9,155.5z"/>
					<path class="st51" d="M81,126.1c-0.5-0.5-1.1-0.9-1.7-1.4c-1.3-0.9-2.7-1.6-4.3-2.1c-0.2,0.1-0.3,0.2-0.5,0.2l0,0
						c-0.6,0.3-1.2,0.7-1.9,1c2.2,0.6,4.2,1.8,5.9,3.7c1.7,1.9,3,4.2,3.7,6.7c0.7,2.2,1,4.8,1,7.6c0,2.1-0.2,4.7-0.6,7.7l-0.6,3.4
						c0,0.5,0,1,0,1.4c-0.2,1.8-0.4,2.8-0.4,2.9c-0.1,1-0.1,2-0.2,2.9c0,0.1,0,0.3,0,0.4c0,0.8,0,1.6,0,2.4c0,0.4,0,0.8,0.1,1.2
						l0.3,0c0,0.2,0.1,0.4,0.1,0.6c0.2,1.7,0.1,3.5-0.2,5.6c-0.2,1.3,0.4,3.7,1.7,7c1.3,3.3,2.1,6.6,2.4,9.7
						c0.3,3.1,0.4,5.6,0.1,7.3c-0.3,1.8-0.8,3.8-1.4,6.1c-0.6,2.3-1.4,5.1-2.4,8.2c-0.6,1.8-2.5,4.7-5.7,8.6
						c0.6-0.3,1.1-0.8,1.6-1.3c0.3-0.3,0.6-0.7,0.8-1c0.4-0.5,0.8-0.9,1.1-1.3c2-2.4,3.7-4.8,5.2-7.1c1.9-3.1,3.3-8.3,4.2-15.5
						l-1.2-8.4l-0.6-4.3l-0.7-4.8c0.2-1.2,0.4-2.3,0.6-3.4c-0.2-1.2-0.4-2.4-0.6-3.7c0-0.1,0-0.1,0-0.1c-0.3-2.3-0.5-4.5-0.6-6.7v0
						c-0.3-6.6,0.1-13.1,1.3-19.5c-0.6-2.4-1.3-4.6-2.1-6.6c-0.1-0.4-0.2-0.8-0.3-1.2C84.1,129.7,82.7,127.7,81,126.1 M84.6,159.8
						c0.2,0,0.3,0.1,0.4,0.2c0.1,0.1,0.1,0.3,0.1,0.4c0,0.2,0,0.3-0.2,0.4c-0.1,0.1-0.3,0.1-0.4,0.1c-0.2,0-0.3-0.1-0.4-0.2
						c-0.1-0.1-0.1-0.2-0.1-0.4c0-0.2,0.1-0.3,0.2-0.4C84.3,159.8,84.4,159.8,84.6,159.8z"/>
				</g>
			</g>
			<g>
				<path id="Layer4_0_1_STROKES_2_" class="st52" d="M95.3,175.7c0.5-3.3,1-6.4,1.4-9.4c0,0,0-0.1,0-0.1c0.4-3.1,0.7-5.9,0.9-8.7v0
					c0.2-3.1,0.3-5.9,0.3-8.6c0-0.8,0-1.5,0-2.1l0,0c-0.2-7.9-1.6-13.9-4.1-18c0-0.1-0.1-0.1-0.1-0.2c-2.5-4-6.1-6-10.8-6.2
					c0,0-0.1,0-0.1,0c-0.7,0-1.5,0-2.3,0C70.2,105.5,56.7,99.7,40,105.2c8.8,0.7,15.8,2.5,21.1,5.3c5.3,2.8,9.6,6.7,12.9,11.5
					 M72.6,123.9c0.7-0.3,1.3-0.7,1.9-1l0,0c0.2-0.1,0.3-0.2,0.5-0.2c1.6,0.5,3,1.2,4.3,2.1c0.6,0.4,1.2,0.9,1.7,1.4
					c1.7,1.6,3.1,3.6,4.3,6.1c1,2.2,1.8,4.8,2.4,7.7c0,0,0,0,0,0.1c-1.2,6.5-1.6,13-1.3,19.5v0c0.1,2.2,0.3,4.5,0.6,6.7
					c0,0,0,0.1,0,0.1c0.2,1.2,0.4,2.4,0.6,3.7c-0.2,1.1-0.4,2.3-0.6,3.4l0.7,4.8c1.5-2.1,2.9-3.3,4.2-3.7c1.3-0.4,2.5,0,3.5,1.2
					 M11,173.2c-1.2-3.6-2.2-7.1-3-10.5c0,0,0,0,0-0.1c-0.3-1.2-0.5-2.3-0.7-3.5c-0.1-0.3-0.1-0.7-0.1-1c0,0,0-0.1,0-0.1
					c0,0,0,0,0,0s0,0,0,0C6,150.5,6.3,143.3,8,136.6c0,0,0,0,0-0.1c1.4-5.5,3.8-10.7,7.2-15.7c0.5-0.7,1-1.4,1.5-2.1
					c0.1-0.1,0.1-0.2,0.2-0.3c0.1-0.2,0.3-0.3,0.3-0.4c2.9-2.2,5.7-4.2,8.5-6c0,0,0,0,0,0c0.8-0.5,1.6-1,2.3-1.4
					c2.1-1.2,4.1-2.3,6.1-3.2c1.9-0.9,3.9-1.7,5.8-2.3 M82.8,124.1c1.5,1.3,2.5,2.3,3.2,3.1c1.1,1.2,1.9,2.4,2.4,3.6
					c0.2,0.4,0.4,1.1,0.8,2.1c0.3,0.9,0.6,1.6,0.8,2.1c0.4,0.7,0.6,1.1,0.7,1.3c0.2,0.5,0.3,0.9,0.2,1.3c-0.1,0.2-0.3,0.6-0.7,1.2
					c-0.2,0.4-0.3,0.7-0.3,1c0,0.1,0,0.1,0,0.2c0.7-1.1,1.3-2.3,1.7-3.6c0,0,0-0.1,0-0.1c0.1-0.3,0.2-0.5,0.2-0.8
					c0-0.1,0-0.3,0.1-0.4c0.4-1.8,0.5-3.5,0.2-5.3 M72.6,123.9c-0.7,0.3-1.3,0.6-2,0.9h0c-2.9,1.2-5.9,2-9.1,2.5
					c-3.1,0.5-6.3,0.6-9.7,0.5c-1.3-0.1-2.6-0.2-3.9-0.3c0,0.1,0,0.2,0,0.3 M92.4,136.5c1,3.5,1.5,7,1.8,10.6c0,0.7,0,1.3,0.1,2
					c0,1.4,0,2.9-0.1,4.3c0.6-1.4,1.1-2.6,1.6-3.7c0.1-0.2,0.2-0.5,0.3-0.7c0.3-0.8,0.7-1.5,0.9-2.1 M94.1,153.4
					c-0.1,0.4-0.1,0.8-0.1,1.1c0,0.1-0.1,0.1-0.1,0.1c0,0-0.1-0.1-0.1-0.1c-0.1-0.1-0.1-0.3,0-0.4C93.9,153.9,94,153.6,94.1,153.4z
					 M89.9,144.3c0.7,2.5,0.9,5.1,0.5,7.9c-0.3,1.6-0.7,3-1.3,4.4c-0.5,1-1,2-1.7,2.9c0.6-0.6,1.1-1.3,1.6-2
					c0.4-0.5,0.7-1.1,1.1-1.7c0.1-0.2,0.2-0.4,0.3-0.6 M91.9,156.8c-0.1,0.8-0.4,2.2-0.7,4.1c-0.1,0.6-0.2,1.1-0.4,1.4
					c-0.1,0.4-0.4,0.9-0.8,1.5c-0.4,0.7-0.7,1.4-0.9,2.2c0.2-0.1,0.4-0.3,0.5-0.6c0-0.1,0.1-0.3,0.3-0.7c0.2-0.4,0.5-0.9,1-1.5
					c0,0,0-0.1,0-0.1c0.1-0.1,0.2-0.2,0.3-0.3c0.7-0.8,1.1-1.5,1.4-2c0.2-0.4,0.3-1,0.5-1.9 M92.8,164.4c0.1,0.6,0,1.4-0.2,2.1
					c-0.1,0.6-0.4,1.3-0.7,2.1c-0.4,1.4-0.9,2.4-1.4,3.1c0.7-0.5,1.2-1,1.7-1.5c0.4-0.5,0.9-1.2,1.6-2.3l1-1.9 M88.8,168.9
					c0.1,0.3,0.1,0.6,0.2,0.9c0,0,0,0.1,0,0.1c0.1,0.9,0,1.6-0.1,2.1c-0.3,0.6-0.3,1-0.1,1.3c0.1-0.2,0.3-0.5,0.7-0.9
					c0.3-0.3,0.5-0.6,0.6-0.9 M94.7,155.1l-0.2,4c0,0.7-0.1,1.2-0.3,1.6c0.6-1.1,1-2.2,1.4-3.2 M70.3,124.2
					c-4.1-3.6-7.6-6.3-10.4-8.1c-3.5-2.3-7.2-4.1-11.1-5.5c0,0,0,0-0.1,0c-0.6-0.2-1.3-0.5-2-0.7c-0.3-0.1-0.6-0.2-0.8-0.3
					c-2.1-0.6-4.3-1.1-6.4-1.5c-1.8-0.3-3.5-0.5-5.3-0.6 M55.8,126.7c-0.2-1.5-0.5-2.8-0.9-4c-0.3-0.9-0.5-1.7-0.9-2.5
					c0-0.1-0.1-0.2-0.1-0.2c-1-2.3-2.4-4.1-4.1-5.3c-0.7-0.5-1.4-0.8-2.2-1.2c-0.8-0.3-1.7-0.6-2.6-0.8c-1.5-0.3-3.2-0.5-5.3-0.6
					c-0.3,0-0.6,0-0.9,0c-0.5,0-1,0-1.4,0c-0.6,0-1.2,0-1.7,0.1c-0.8,0.1-1.7,0.1-2.4,0.3c-0.2,0.1-0.5,0.1-0.7,0.2
					c-1.8,0.3-3.5,0.9-4.9,1.6c-0.2,0.1-0.3,0.1-0.5,0.3c-1.3,0.8-2.3,1.6-3,2.6c-0.5,0.6-0.8,1.3-1,2.1c-0.3,1-0.3,2.1,0.1,3.1
					c0.1,0.3,0.2,0.6,0.4,0.8c0.4,0.7,0.9,1.2,1.6,1.5 M61.3,126.7c-0.4-0.6-1-1-1.6-1.4l-0.9-0.5c-0.3-0.2-0.8-0.5-1.5-1.1
					c-0.6-0.5-1-0.9-1.3-1.2c-0.1-0.1-0.2-0.2-0.4-0.4c-0.4-0.5-1-1.1-1.6-2 M28.5,117.2c0.2,0,0.5-0.1,0.8,0c1.1-0.6,2.4-1,4-1.3
					c0.7-0.1,1.6-0.2,2.7-0.2c0.5,0,1-0.1,1.6-0.1c0.5,0,0.9,0,1.3,0c0.6,0,1.2,0.1,1.5,0.1c1.1,0.1,2,0.2,2.8,0.5
					c2.5,0.7,4.5,2.1,6.2,4.3c0,0,0,0.1,0.1,0.1c0.8,1.1,1.4,2.2,1.8,3.4c0.4,1.1,0.5,2.3,0.5,3.6 M47.8,127.4
					C47.9,127.4,47.9,127.3,47.8,127.4c-0.1-1.7-0.6-3.3-1.7-4.8c-0.9-1.3-2.2-2.6-3.8-3.9c-2.3-1.8-4.5-2.6-6.3-2.3 M38.9,111.6
					c-1.7-0.5-3.4-0.8-5.1-1c-1.9-0.2-3.8-0.2-5.6,0 M26.3,119.8c0.1,0,0.1,0,0.2,0c0.7-1.1,1.6-2,2.8-2.6c0,0,0,0,0.1,0
					c0.7,0,1.5,0.1,2.2,0.4c0.8,0.3,1.7,0.8,2.8,1.5c1.9,1.2,3.3,2.2,4.2,3c0.2,0.2,0.3,0.3,0.5,0.5c1.2,1.1,2,2.4,2.5,3.7
					c1.4,0.2,3,0.5,4.6,0.9c0.6,0.1,1.2,0.2,1.8,0.2 M36.4,126c-0.6-1-1.2-1.8-1.9-2.5c-0.3-0.3-0.7-0.6-1-0.9c0,0,0,0,0,0
					c-0.6-0.5-1.6-1.1-2.9-1.7c-0.9-0.4-1.7-0.7-2.1-0.9c-0.7-0.2-1.3-0.3-1.9-0.2c-0.1,0.1-0.1,0.2-0.2,0.3
					c-0.2,0.4-0.4,0.8-0.5,1.2c0.4,0.1,0.8,0.2,1.2,0.4c1,0.4,2,1,2.9,1.7c0.4,0.3,0.8,0.7,1.1,1.1c0.3,0.3,0.4,0.5,0.4,0.6
					c0,0,0.1,0.1,0.1,0.2c0.1,0.3,0.2,0.7,0.2,1.2 M25.6,124.1c-0.2-0.9-0.2-1.9,0.2-2.8c-0.3-0.1-0.7-0.1-0.9,0 M14.6,128.1
					c0-1.3,0.4-3.3,1.1-5.8c0.1-0.3,0.2-0.6,0.3-0.9c0.3-1.1,0.6-2,0.8-2.5c0,0,0,0,0,0c0.1-0.1,0.1-0.2,0.1-0.4 M23.4,116.3
					c-1.7,1.8-2.9,3.2-3.7,4.2c-0.6,0.8-1.2,1.6-1.7,2.4c-0.5,0.8-0.9,1.5-1.3,2.3c-0.2,0.4-0.4,0.9-0.7,1.6
					c-0.1,0.3-0.3,0.6-0.4,0.8c-0.1,0.2-0.3,0.4-0.4,0.6 M23.7,123c-1.8,1.7-3.1,3.2-4,4.6c0,0,0,0,0,0c-0.1,0.1-0.1,0.1-0.1,0.2
					c-0.9,1.4-1.6,2.8-2,4.3c-0.3,1.1-0.5,2.2-0.6,3.4c0,0.3,0,0.7,0,1c0,0.1,0,0.2,0,0.2 M26,126.2c-1.7,1.5-2.9,2.9-3.5,4
					c-0.2,0.3-0.5,1-0.9,2l-1,2.5c-0.1-1.2-0.2-2.2-0.2-2.8c0-1,0.1-1.9,0.3-2.7c0.1-0.2,0.1-0.3,0.2-0.4c0.1-0.1,0.1-0.2,0.2-0.3
					c0.1-0.1,0.2-0.1,0.3-0.2 M16.2,136.5l-0.7-4.2c-0.1-0.5-0.1-0.9-0.2-1.3c0-0.3,0-0.5,0-0.7c0.1-0.4,0.2-0.8,0.4-1.2
					c0-0.1,0.1-0.2,0.2-0.3c0.1-0.2,0.3-0.5,0.5-0.9 M28.1,128.2c-2.7,1.6-4.8,4-6.3,7.2c-0.7,1.5-1.3,3.3-1.8,5.2l-0.5,13.4
					c0.2,1.7,0.3,3.4,0.3,5.2v0c0,2.1-0.2,4.2-0.5,6.4c0,0,0,0,0,0.1c0,0.1,0,0.2-0.1,0.3 M19.2,166.5c-0.5,3.3-1.4,6.8-2.7,10.4
					 M41.5,126.3c-1.8-0.2-3.6-0.3-5.1-0.3c-1.6,0.1-3.1,0.3-4.5,0.7h0c-1.4,0.4-2.6,0.9-3.8,1.6 M16.6,141c-0.3,0.5-0.7,0.9-1,1.4
					c-0.6,0.8-1.2,1.5-1.7,2.2c-0.2,0.3-0.4,0.6-0.6,0.8c-1.1,1.5-1.9,2.9-2.4,4.1c-0.5,1.1-0.9,2.5-1.3,4.1c0,0.1,0,0.2-0.1,0.3
					c-0.2,0.9-0.4,2.2-0.7,3.9 M9.2,157.9c0.4-1.1,0.8-2.1,1.3-3.1c0.1-0.2,0.2-0.4,0.3-0.6c0.8-1.6,1.7-3.1,2.8-4.6
					c0.1-0.1,0.1-0.2,0.2-0.3c0-0.1,0.1-0.1,0.1-0.2c0.1-0.1,0.3-0.3,0.4-0.4c0.4-0.5,0.8-1.1,1.3-1.5c0.5-0.6,1.1-1.2,1.7-1.8
					 M17.4,164.8c0.3-1,0.7-2,1.1-2.9c0.1-0.2,0.2-0.4,0.3-0.6c0.2-0.4,0.3-0.7,0.4-1c0.1-0.4,0.2-0.7,0.3-1 M14.2,166.5
					c0.2-0.5,0.3-1.1,0.5-1.6c0,0,0,0,0,0c0.2-0.8,0.5-1.6,0.6-2.4c0.2-1.2,0.4-2.1,0.5-2.6c0.1-0.6,0.3-1.2,0.5-1.7
					c0-0.1,0.1-0.2,0.1-0.3c0.1-0.2,0.2-0.4,0.2-0.5 M16.3,158l-0.1,3.1c0,0.5,0,0.8,0.1,1c0,0.2,0.2,0.5,0.4,1
					c0.1,0.4,0.2,0.8,0.3,1.2c0,0.1,0,0.2,0,0.5v0c0,0.2,0.1,0.4,0.1,0.7 M19.3,166.1c0,0.1,0,0.3-0.1,0.4 M13,131
					c-0.4,1.2-0.7,2.7-0.9,4.2c-0.1,1-0.2,2.4-0.3,4.4c0,0.9,0,1.5,0,1.9c0.1,0.7,0.2,1.4,0.4,1.9c-0.6,0-1.1-0.2-1.6-0.6
					c-0.5-0.4-0.8-0.9-1.1-1.5c-0.3-0.9-0.3-2.1-0.1-3.7c0-0.4,0-0.7-0.1-0.8c-0.1-0.1-0.2-0.2-0.3-0.2c-0.1-0.1-0.3,0-0.3,0.1
					 M13.7,149.3c-0.1,0.1-0.1,0.1-0.1,0.2c0,0,0,0.1,0,0.1c-0.9,1.8-1.6,3.6-2.1,5.6c-0.1,0.3-0.2,0.7-0.3,1
					c-0.2,0.8-0.3,1.5-0.4,2.3v0c-0.2,1.1-0.2,2.3-0.3,3.4 M11.1,162c0.4-0.7,0.8-1.6,1.2-2.6c0,0,0-0.1,0.1-0.3
					c0.1-0.4,0.4-1.2,0.8-2.4c0-0.1,0.1-0.1,0.1-0.2c0.5-1.5,1.1-2.7,1.6-3.5c0-0.1,0-0.2,0.1-0.3c0.2-0.7,0.4-1.5,0.6-2.2
					 M14.9,153c-0.3,1.3-0.6,2.5-0.8,3.8c0,0.1,0,0.1,0,0.2c-0.4,2.6-0.6,5.2-0.5,7.8c0,0,0,0.1,0,0.1c0,0.8,0,1.5,0.1,2.3
					c0.1,0.1,0.1,0.1,0.2,0c0.1-0.1,0.1-0.1,0.1-0.3 M11,173.2c2.1,0.5,3.7,1.3,4.7,2.3c0.4,0.4,0.7,0.8,0.9,1.3"/>
			</g>
		</g>
		<g transform="matrix( 1, 0, 0, 1, 0,0) ">
			<g>
				<g id="Layer3_0_FILL_2_">
					<path class="st53" d="M45.4,149.4c-0.6-0.2-1.6-0.2-2.9-0.1c-3.1,0.3-6.1,1-8.8,2.1c-3,1.1-5.6,2.6-7.8,4.5
						c-1.8,1.6-3,3.2-3.4,4.7c-0.2,0.4-0.2,0.8-0.2,1.2c0,0.4,0.1,0.8,0.3,1.2c0.3,0.5,0.9,0.8,1.7,0.8l2.1-0.4
						c0.7-0.3,1.5-0.7,2.5-1.4c1.2-0.8,2.1-1.3,2.5-1.5c1.5-0.8,3.4-1.4,5.6-1.9c0.9-0.2,2.9-0.5,5.8-0.9c1.2-0.2,2.2-0.4,2.9-0.7
						c1-0.4,1.7-1,2.1-1.8c0.3-0.7,0.4-1.5,0.3-2.5c-0.1-0.4-0.2-0.9-0.4-1.4h-0.2c-0.1-0.5-0.4-0.9-0.7-1.2
						C46.3,149.8,45.9,149.5,45.4,149.4 M32.5,154.1l0-0.1c0.8-0.4,1.7-0.8,2.8-1.3c0.2,0.2,0.4,0.3,0.6,0.4
						c0.3,0.2,0.4,0.4,0.5,0.4l-0.1-1L38,153c0.2-0.3,0.1-0.6-0.1-0.9c0.7-0.1,1.4,0,2.1,0.2l-0.1-0.8c0.2,0,0.5,0.1,0.7,0.2
						c0.2,0.1,0.4,0.3,0.5,0.6c0.1,0,0.2,0,0.2,0s0.1-0.2,0.2-0.3c0.1-0.3,0.1-0.4,0.2-0.5c0.2-0.2,0.5-0.1,0.9,0.2
						c0.4,0.3,0.7,0.4,0.8,0.3c0.1,0,0.2-0.1,0.3-0.2c0-0.1,0.1-0.2,0.1-0.3c0-0.2,0.1-0.3,0.1-0.4c0.1-0.1,0.2-0.1,0.3-0.1
						c0.2,0,0.3,0.1,0.3,0.3c0.2,0.3,0.4,0.6,0.7,0.8c0.3,0.2,0.5,0.2,0.8,0.3l0,0.2l0.5,0.2l-0.7,2.4c-6,0.6-11.1,1.7-15.3,3.5
						c-2.6,1.1-4.8,2.3-6.7,3.8l0.9-2.6l4.9-3.7c0.2-0.2,0.5-0.3,0.8-0.4l-0.1-0.1L32.5,154.1 M77.8,158c0.9,0.7,1.7,1.3,2.4,1.6
						l2.1,0.6c0.8,0,1.4-0.2,1.8-0.7c0.2-0.3,0.4-0.7,0.4-1.1c0.1-0.4,0-0.8-0.1-1.2c-0.3-1.6-1.3-3.2-2.9-5c-2-2.1-4.5-3.8-7.3-5.3
						c-2.6-1.3-5.4-2.3-8.5-3c-1.3-0.3-2.2-0.3-2.9-0.2c-0.5,0.1-0.9,0.3-1.3,0.6c-0.4,0.3-0.7,0.7-0.8,1.1l-0.2,0
						c-0.2,0.5-0.4,1-0.5,1.4c-0.3,1-0.3,1.8,0,2.5c0.3,0.8,0.9,1.5,1.9,2c0.7,0.4,1.6,0.7,2.8,1c2.9,0.7,4.8,1.2,5.7,1.5
						c2.1,0.7,3.9,1.5,5.3,2.5C75.9,156.5,76.7,157.1,77.8,158 M77.7,152.3l4.5,4.2l0.6,2.6c-1.7-1.7-3.8-3.2-6.2-4.5
						c-4-2.2-8.9-3.9-14.9-5.1l-0.5-2.5l0.5-0.1l0-0.2c0.3,0,0.5,0,0.8-0.2c0.3-0.2,0.6-0.4,0.8-0.7c0.1-0.2,0.2-0.3,0.4-0.3
						c0.1-0.1,0.2,0,0.3,0.1c0.1,0.1,0.1,0.2,0.1,0.4c0,0.1,0,0.2,0.1,0.3c0,0.1,0.1,0.2,0.2,0.2c0.1,0.1,0.4,0.1,0.9-0.2
						c0.4-0.2,0.7-0.3,0.9-0.1c0,0.1,0.1,0.2,0.1,0.5c0.1,0.1,0.1,0.2,0.2,0.3c0.1,0.1,0.2,0.1,0.2,0.1c0.1-0.2,0.3-0.4,0.6-0.5
						c0.2-0.1,0.4-0.2,0.7-0.2l-0.1,0.8c0.7-0.2,1.4-0.2,2.1,0c-0.2,0.3-0.3,0.6-0.2,0.9l1.9-0.3l-0.2,1c0,0,0.2-0.1,0.5-0.3
						c0.2-0.1,0.4-0.2,0.6-0.3c1,0.6,1.9,1.1,2.6,1.6l-0.1,0.1l2,1.9l-0.1,0.1C77.2,152,77.5,152.1,77.7,152.3z"/>
					<path class="st54" d="M32.7,155.3c0,0.1-0.1,0.2-0.3,0.4c-0.1,0.1-0.2,0.2-0.4,0.3c-0.1,0-0.2,0-0.3,0
						c-0.2-0.1-0.4-0.1-0.4-0.1c-0.3-0.1-0.6-0.1-0.9,0c-0.3,0.1-0.6,0.3-0.8,0.4l-4.9,3.7l-0.9,2.6c1.9-1.5,4.1-2.8,6.7-3.8
						c4.2-1.8,9.3-2.9,15.3-3.5l0.7-2.4l-0.5-0.2c-0.4,0-0.9,0.1-1.6,0.3c-0.7,0.3-1.3,0.4-1.6,0.4l-1.3,0c-0.4,0-0.8,0.1-1.2,0.2
						c-1.4,0.2-2.4,0.4-3.2,0.5c-0.3,0.1-0.6,0.1-0.8,0.2c-0.3,0.1-0.6,0.2-0.8,0.2c-0.3,0.1-0.5,0.2-0.6,0.3
						c-0.2,0.1-0.4,0.2-0.6,0.3c-0.1,0-0.4,0-0.9-0.1C33.1,155.1,32.8,155.1,32.7,155.3 M82.1,156.5l-4.5-4.2
						c-0.2-0.2-0.5-0.4-0.8-0.5c-0.3-0.2-0.5-0.2-0.8-0.1c0,0-0.1,0-0.4,0c-0.1,0-0.2,0-0.3-0.1c-0.1,0-0.2-0.1-0.3-0.3
						c-0.2-0.2-0.3-0.4-0.3-0.4c-0.2-0.1-0.4-0.2-0.8-0.3c-0.5,0-0.8,0-0.9,0c-0.2-0.1-0.4-0.2-0.6-0.3c-0.1-0.1-0.3-0.2-0.5-0.3
						c-0.2-0.1-0.5-0.2-0.8-0.3c-0.2-0.1-0.5-0.2-0.8-0.3c-0.7-0.2-1.7-0.5-3.1-0.9c-0.4-0.2-0.8-0.3-1.2-0.3l-1.3-0.2
						c-0.3-0.1-0.8-0.3-1.5-0.6c-0.6-0.3-1.2-0.4-1.5-0.5l-0.5,0.1l0.5,2.5c5.9,1.2,10.9,2.9,14.9,5.1c2.5,1.3,4.6,2.9,6.2,4.5
						L82.1,156.5z"/>
					<path class="st55" d="M32.3,155.6c0.2-0.2,0.3-0.3,0.3-0.4c0.2-0.1,0.5-0.2,0.8-0.2c0.5,0,0.9,0.1,0.9,0.1
						c0.2,0,0.4-0.1,0.6-0.3c0.1-0.1,0.3-0.2,0.6-0.3c0.2-0.1,0.5-0.2,0.8-0.2c0.2-0.1,0.5-0.1,0.8-0.2c0.7-0.1,1.8-0.3,3.2-0.5
						c0.5-0.1,0.9-0.2,1.2-0.2l1.3,0c0.3,0,0.9-0.2,1.6-0.4c0.7-0.2,1.2-0.3,1.6-0.3l0-0.2c-0.3,0-0.5-0.1-0.8-0.3
						c-0.3-0.2-0.5-0.5-0.7-0.8c-0.1-0.2-0.2-0.3-0.3-0.3c-0.1-0.1-0.2,0-0.3,0.1c-0.1,0.1-0.1,0.2-0.1,0.4c0,0.1-0.1,0.2-0.1,0.3
						c-0.1,0.1-0.1,0.2-0.3,0.2c-0.1,0.1-0.4,0-0.8-0.3c-0.4-0.3-0.7-0.3-0.9-0.2c-0.1,0.1-0.1,0.2-0.2,0.5
						c-0.1,0.1-0.1,0.2-0.2,0.3s-0.2,0.1-0.2,0c-0.1-0.3-0.3-0.5-0.5-0.6c-0.2-0.2-0.4-0.3-0.7-0.2l0.1,0.8
						c-0.6-0.2-1.3-0.3-2.1-0.2c0.2,0.3,0.2,0.6,0.1,0.9l-1.8-0.5l0.1,1c0,0-0.2-0.2-0.5-0.4c-0.2-0.1-0.3-0.2-0.6-0.4
						c-1.1,0.5-2,0.9-2.8,1.3l0,0.1l-2.2,1.7l0.1,0.1c0.3-0.1,0.6-0.1,0.9,0c0,0,0.1,0,0.4,0.1c0.1,0,0.2,0,0.3,0
						C32.1,155.9,32.2,155.8,32.3,155.6 M63.3,145.8c-0.2,0.3-0.5,0.5-0.8,0.7c-0.3,0.1-0.6,0.2-0.8,0.2l0,0.2
						c0.4,0.1,0.9,0.2,1.5,0.5c0.7,0.3,1.2,0.5,1.5,0.6l1.3,0.2c0.4,0.1,0.8,0.2,1.2,0.3c1.4,0.4,2.4,0.7,3.1,0.9
						c0.3,0.1,0.5,0.2,0.8,0.3c0.3,0.1,0.6,0.2,0.8,0.3c0.3,0.2,0.4,0.3,0.5,0.3c0.2,0.2,0.4,0.3,0.6,0.3c0.1,0,0.4,0,0.9,0
						c0.4,0.1,0.6,0.1,0.8,0.3c0,0.1,0.1,0.2,0.3,0.4c0.1,0.2,0.2,0.3,0.3,0.3c0.1,0,0.2,0,0.3,0.1c0.3,0,0.4,0,0.4,0
						c0.3-0.1,0.6,0,0.8,0.1l0.1-0.1l-2-1.9l0.1-0.1c-0.7-0.5-1.6-1-2.6-1.6c-0.2,0.1-0.4,0.2-0.6,0.3c-0.3,0.2-0.5,0.3-0.5,0.3
						l0.2-1l-1.9,0.3c-0.1-0.3-0.1-0.6,0.2-0.9c-0.7-0.2-1.4-0.2-2.1,0l0.1-0.8c-0.2,0-0.5,0-0.7,0.2c-0.3,0.1-0.4,0.3-0.6,0.5
						c-0.1,0-0.2,0-0.2-0.1c-0.1-0.1-0.1-0.2-0.2-0.3c-0.1-0.3-0.1-0.5-0.1-0.5c-0.2-0.2-0.5-0.2-0.9,0.1c-0.5,0.3-0.8,0.3-0.9,0.2
						c-0.1-0.1-0.2-0.1-0.2-0.2c0-0.1,0-0.2-0.1-0.3c0-0.2,0-0.3-0.1-0.4c-0.1-0.1-0.2-0.1-0.3-0.1
						C63.5,145.5,63.4,145.6,63.3,145.8z"/>
				</g>
			</g>
		</g>
		<g transform="matrix( 1, 0, 0, 1, 0,0) ">
			<g>
				<g id="Layer2_0_FILL_4_">
					<path class="st55" d="M54.8,149.2c0-0.2-0.1-0.3-0.1-0.3c-0.1-0.1-0.2-0.1-0.3,0.1c-0.1,0.1-0.1,0.2,0,0.3l0.2,1
						c0,0.1,0.1,0.2,0.1,0.3c0,0,0.1,0.1,0.1,0.1c0.1,0,0.1,0,0.1,0c0,0,0-0.1,0-0.2v-0.2c0,0,0-0.1-0.1-0.3L54.8,149.2 M56.2,148.9
						l0-0.2c0-0.1-0.1-0.2-0.2-0.2s-0.2,0.1-0.2,0.2c0,0.1,0,0.1,0,0.2l0.3,1.2c0,0.1,0.1,0.2,0.1,0.3c0.1,0.1,0.2,0.1,0.3,0
						c0,0,0-0.1,0-0.2c0-0.2,0-0.4-0.1-0.7C56.3,149.3,56.2,149.1,56.2,148.9 M56.8,148.2c-0.1,0-0.1,0-0.2,0
						c-0.1,0-0.1,0.1-0.2,0.1c-0.1,0.1,0,0.3,0.1,0.5c0.1,0.1,0.2,0.4,0.3,0.8c0.1,0.3,0.2,0.6,0.3,0.8c0.1,0.1,0.1,0.1,0.2,0.2
						c0.1,0,0.2,0,0.2,0c0,0,0-0.1,0-0.2c-0.1-0.8-0.3-1.5-0.6-1.9C56.9,148.4,56.9,148.3,56.8,148.2 M58.1,148
						c0,0.2,0.1,0.4,0.1,0.8c0,0.3,0.1,0.6,0.2,0.8c0,0.1,0.1,0.2,0.1,0.2c0.1,0.1,0.2,0.1,0.2,0c0.1,0,0.1-0.1,0.1-0.2
						c0-0.6-0.1-1.2-0.3-1.9c-0.1-0.2-0.1-0.3-0.2-0.3c-0.2,0-0.3,0-0.3,0.2C58,147.7,58,147.8,58.1,148 M49.9,151.6l-0.1-1
						c0-0.1,0-0.2-0.1-0.2c-0.1-0.1-0.2-0.1-0.3,0c-0.1,0.1-0.1,0.2-0.1,0.3l0.2,1.3c0.1,0.1,0.1,0.1,0.2,0.1c0.1,0,0.1,0,0.1-0.1
						C49.9,152,49.9,151.9,49.9,151.6 M48.1,150.8l0,0.3c0.2,0.5,0.3,1,0.6,1.3c0.1,0.2,0.2,0.3,0.3,0.3c0.1,0,0.1,0,0.2,0
						c0.1-0.1,0.1-0.1,0.1-0.2c0-0.2-0.1-0.4-0.3-0.7c-0.2-0.3-0.3-0.5-0.3-0.7c0-0.2-0.1-0.3-0.1-0.4c-0.1-0.1-0.2-0.2-0.3-0.1
						C48.2,150.6,48.1,150.7,48.1,150.8 M46.8,150.4c0,0.1,0,0.2,0.1,0.4c0,0,0.1,0.3,0.2,0.8l0.3,1l0.2,1l0.1,0.2
						c0,0.1,0.1,0.1,0.2,0.1c0.1,0,0.2,0,0.2-0.2c0.1-0.2,0.1-0.4,0.1-0.7l-0.1-0.4l-0.3-0.9c-0.1-0.2-0.1-0.3-0.2-0.5l-0.2-0.6
						c0-0.1-0.1-0.2-0.1-0.3c-0.1-0.1-0.2-0.1-0.3-0.1C46.9,150.1,46.8,150.2,46.8,150.4 M51.1,149.6c-0.1,0-0.1,0-0.2,0
						c-0.1,0-0.1,0.1-0.1,0.1c-0.1,0.1,0,0.3,0.1,0.5c0.1,0.2,0.2,0.4,0.3,0.8c0.1,0.4,0.2,0.6,0.3,0.8c0,0.1,0.1,0.1,0.1,0.1
						c0.1,0,0.1-0.1,0.1-0.2c0.1-0.6-0.1-1.2-0.5-1.9C51.2,149.7,51.2,149.6,51.1,149.6 M52,149.4c-0.1,0-0.2,0-0.3,0.1
						c-0.1,0.1-0.1,0.2,0,0.4l0.2,0.6c0.1,0.2,0.1,0.4,0.3,0.6c0,0,0.1,0.1,0.2,0.2l0.1,0c0.1,0,0.1-0.1,0.1-0.2
						c0-0.1,0-0.3-0.1-0.5c-0.1-0.2-0.2-0.5-0.2-0.8C52.1,149.5,52.1,149.4,52,149.4 M53,149.1c-0.1,0.1-0.1,0.2,0,0.5
						c0.2,0.7,0.3,1.2,0.4,1.5c0.1,0.2,0.1,0.3,0.2,0.4c0.1,0.1,0.2,0.1,0.3,0c0.1-0.1,0.1-0.2,0-0.3c-0.1-0.5-0.3-1.1-0.5-1.9
						c0-0.1-0.1-0.2-0.1-0.2C53.2,149,53.1,149,53,149.1 M60.4,146.8c-0.1-0.1-0.1-0.1-0.2-0.1c-0.1,0-0.1,0.1-0.1,0.2v0.4
						c0.1,0.8,0.2,1.5,0.3,1.9c0.1,0.1,0.1,0.2,0.2,0.2c0.1,0,0.1,0,0.2-0.1c0.1,0,0.1,0.1,0.2,0.1c0.1,0,0.2,0,0.2-0.1l0-0.1
						l0.1-0.3v-0.1c0-0.1-0.1-0.2-0.2-0.2c-0.1,0-0.2,0-0.3,0c0,0-0.1,0-0.1,0.1l-0.2-1.6C60.4,146.9,60.4,146.8,60.4,146.8
						 M59.2,145.6l0-0.2c-0.1-0.1-0.1-0.1-0.2-0.1l-0.1,0.1c-0.1,0-0.1,0.1-0.1,0.2l0.2,1.9c0.1,0.6,0.1,1.2,0.2,1.8l0,0.3
						c0,0.1,0.1,0.2,0.2,0.2c0.1,0,0.1-0.1,0.1-0.2c0-0.2,0-0.3,0-0.5L59.2,145.6z"/>
				</g>
			</g>
		</g>
		<g transform="matrix( 1, 0, 0, 1, 0,0) ">
			<g>
				<g id="Layer1_0_FILL_4_">
					<path class="st56" d="M41.1,162.2c-0.2-0.1-0.3-0.3-0.5-0.4c-0.8-0.3-1.7-0.4-2.8-0.3c-0.1,0-0.2,0-0.3,0
						c-0.9,0-1.8,0.1-2.5,0.4c-0.3,0.1-0.5,0.2-0.7,0.3c-0.1,0.1-0.2,0.1-0.3,0.2c-1,0.9-1.4,2-1.4,3.3c0,1.3,0.5,2.4,1.5,3.3
						c1,0.9,2.2,1.3,3.5,1.3c1.4,0,2.5-0.5,3.5-1.5c1-0.9,1.4-2,1.4-3.3C42.5,164.2,42,163.1,41.1,162.2 M39.3,164.1
						c0.4,0.4,0.7,0.9,0.7,1.5c0,0.4-0.1,0.8-0.3,1.2c-0.1,0.1-0.2,0.2-0.3,0.3c-0.5,0.4-1,0.6-1.6,0.7c-0.6,0-1.1-0.2-1.5-0.6
						c-0.4-0.4-0.7-0.9-0.7-1.5c0-0.6,0.2-1.1,0.6-1.5c0.4-0.4,0.9-0.6,1.5-0.6c0.2,0,0.4,0,0.6,0C38.7,163.6,39,163.8,39.3,164.1
						 M73.4,161.7c-0.1-0.1-0.1-0.1-0.2-0.2c-0.2-0.1-0.5-0.2-0.7-0.2c-0.8-0.2-1.6-0.3-2.5-0.3c-0.1,0-0.1,0-0.3,0
						c-1,0-1.9,0.1-2.7,0.4c-0.2,0.1-0.3,0.3-0.5,0.4c-1,1-1.4,2.1-1.4,3.4c0,1.3,0.5,2.4,1.5,3.2c1,0.9,2.2,1.4,3.5,1.3
						c1.4,0,2.5-0.5,3.5-1.4c1-0.9,1.4-2,1.4-3.3C74.9,163.7,74.4,162.6,73.4,161.7 M71.4,163.6c0.4,0.4,0.7,0.9,0.7,1.4
						c0,0.6-0.2,1.1-0.6,1.5c-0.4,0.4-0.9,0.6-1.5,0.7c-0.6,0-1.1-0.2-1.6-0.6c-0.1-0.1-0.2-0.2-0.3-0.3c-0.2-0.3-0.4-0.7-0.4-1.1
						c0-0.6,0.2-1.1,0.6-1.5c0.3-0.3,0.6-0.5,1-0.5c0.2-0.1,0.4-0.1,0.5-0.1C70.4,163,70.9,163.2,71.4,163.6z"/>
					<path d="M38.8,165.2c0,0.1,0,0.2-0.1,0.3c0,0.1,0,0.1-0.1,0.2c0,0-0.1,0-0.2-0.1c-0.1,0-0.1-0.1-0.2-0.1
						c-0.2-0.3-0.3-0.6-0.3-0.7c-0.1-0.1-0.1-0.2-0.1-0.3c0-0.2,0.2-0.5,0.4-0.8c-0.2,0-0.4-0.1-0.6,0c-0.6,0-1.1,0.2-1.5,0.6
						c-0.4,0.4-0.6,0.9-0.6,1.5c0,0.6,0.3,1.1,0.7,1.5c0.4,0.4,0.9,0.6,1.5,0.6c0.6,0,1.1-0.2,1.6-0.7c0.1-0.1,0.2-0.2,0.3-0.3
						c-0.2-0.2-0.3-0.5-0.5-0.8C39,165.6,38.9,165.4,38.8,165.2 M72,165c0-0.6-0.2-1-0.7-1.4c-0.4-0.4-0.9-0.6-1.5-0.6
						c-0.2,0-0.4,0-0.5,0.1c0.2,0.3,0.4,0.6,0.4,0.8c0,0.1,0,0.2-0.1,0.4c0,0.1-0.1,0.3-0.3,0.7c0,0.1-0.1,0.1-0.1,0.2
						c-0.1,0-0.1,0.1-0.2,0c-0.1,0-0.1,0-0.1-0.1c-0.1-0.1-0.1-0.2-0.1-0.3c0,0.2-0.1,0.4-0.3,0.7c-0.1,0.3-0.3,0.6-0.4,0.8
						c0.1,0.1,0.2,0.2,0.3,0.3c0.4,0.4,1,0.6,1.6,0.6c0.6,0,1.1-0.2,1.5-0.7C71.8,166.1,72,165.6,72,165z"/>
					<path class="st57" d="M40,165.5c0-0.6-0.2-1.1-0.7-1.5c-0.3-0.3-0.6-0.4-1-0.5c-0.2,0.3-0.3,0.6-0.4,0.8c0,0.1,0,0.2,0.1,0.3
						c0,0.1,0.1,0.3,0.3,0.7c0,0.1,0.1,0.1,0.2,0.1c0.1,0.1,0.1,0.1,0.2,0.1c0.1,0,0.1-0.1,0.1-0.2c0.1-0.1,0.1-0.2,0.1-0.3
						c0,0.2,0.1,0.4,0.3,0.7c0.2,0.3,0.3,0.6,0.5,0.8C39.9,166.4,40,166,40,165.5 M69.7,163.9c-0.1-0.2-0.2-0.5-0.4-0.8
						c-0.4,0.1-0.7,0.3-1,0.5c-0.4,0.4-0.6,0.9-0.6,1.5c0,0.4,0.1,0.8,0.4,1.1c0.2-0.2,0.3-0.5,0.4-0.8c0.2-0.3,0.3-0.5,0.3-0.7
						c0,0.1,0.1,0.2,0.1,0.3c0,0.1,0,0.1,0.1,0.1c0,0,0.1,0,0.2,0c0.1,0,0.1-0.1,0.1-0.2c0.2-0.3,0.3-0.6,0.3-0.7
						C69.6,164.1,69.7,164,69.7,163.9z"/>
					<path class="st58" d="M41.6,161.2c-0.3-0.1-0.5-0.2-0.7-0.3c-2.3-0.6-4.3-0.6-6.1,0.1c-3.4,0.9-5.4,3.5-5.9,7.6
						c1-3.3,2.8-5.4,5.4-6.4c0.2-0.1,0.5-0.2,0.7-0.3c0.8-0.2,1.6-0.3,2.5-0.4c0.1,0,0.1,0,0.3,0c1-0.1,1.9,0.1,2.8,0.3
						c2.7,0.8,4.4,2.9,5.2,6.4c-0.2-2.9-1-4.9-2.4-6.1C42.8,161.8,42.3,161.5,41.6,161.2 M72.5,161.3c0.2,0,0.5,0.1,0.7,0.2
						c2.6,0.9,4.5,3,5.7,6.2c-0.7-4.1-2.8-6.5-6.2-7.3c-1.8-0.6-3.8-0.6-6.1,0.1c-0.3,0.1-0.5,0.2-0.8,0.3c-0.6,0.2-1.2,0.6-1.7,1
						c-1.4,1.3-2.2,3.4-2.2,6.2c0.6-3.5,2.3-5.7,5-6.6c0.8-0.3,1.7-0.4,2.7-0.4c0.1,0,0.2,0,0.3,0C70.8,161,71.7,161.1,72.5,161.3z"
						/>
					<path class="st59" d="M44.6,160.9c-0.1,0-0.1-0.1-0.2-0.1l-1.1,1.4c1.5,1.2,2.3,3.3,2.4,6.1c-0.2,0.9-0.6,1.6-1.3,2.2l2.5-1.4
						c-0.1-3.5-0.7-6-1.7-7.5C45,161.3,44.8,161.1,44.6,160.9 M62.8,160.6c-0.2,0.2-0.4,0.4-0.6,0.6c-1,1.6-1.4,4.1-1.4,7.6l2.5,1.4
						c-0.7-0.6-1.2-1.3-1.4-2.2c0-2.8,0.7-4.9,2.2-6.2l-1.2-1.3C62.9,160.5,62.9,160.6,62.8,160.6z"/>
					<path class="st14" d="M28.9,168.6c0,0,0,0.1,0,0.1c0,0.1-0.1,0.1-0.1,0.2c3.1,1.1,6.1,1.6,9,1.4c2.8-0.2,5.5-0.8,8.1-2.1
						c-0.8-3.5-2.5-5.6-5.2-6.4c0.2,0.1,0.3,0.2,0.5,0.4c1,0.9,1.5,2,1.5,3.3c0,1.3-0.4,2.4-1.4,3.3c-1,1-2.1,1.4-3.5,1.5
						c-1.4,0-2.6-0.4-3.5-1.3c-1-0.9-1.5-2-1.5-3.3c0-1.3,0.4-2.4,1.4-3.3c0.1-0.1,0.1-0.2,0.3-0.2
						C31.7,163.2,29.9,165.3,28.9,168.6 M79,168.1c0-0.1-0.1-0.2-0.1-0.3c0-0.1,0-0.1,0-0.1c-1.1-3.2-3-5.3-5.7-6.2
						c0.1,0.1,0.2,0.1,0.2,0.2c1,0.9,1.5,2,1.5,3.3c0,1.3-0.4,2.4-1.4,3.3c-1,1-2.1,1.4-3.5,1.4c-1.4,0-2.5-0.4-3.5-1.3
						c-1-0.9-1.5-2-1.5-3.2c0-1.3,0.5-2.4,1.4-3.4c0.2-0.1,0.3-0.3,0.5-0.4c-2.7,0.9-4.3,3.1-5,6.6c2.7,1.1,5.4,1.7,8.1,1.8
						C73,169.9,76,169.3,79,168.1z"/>
					<path class="st37" d="M28.7,168.9l0,1.6c4.6,2,9.3,2.3,14,0.9c0.7-0.2,1.3-0.5,1.7-0.9c0.7-0.6,1.2-1.3,1.3-2.2
						c-2.6,1.2-5.3,1.9-8.1,2.1C34.8,170.5,31.8,170,28.7,168.9 M79,169.7l0-1.6c-3,1.2-6,1.8-8.9,1.7c-2.8,0-5.5-0.6-8.1-1.8
						c0.2,0.9,0.6,1.7,1.4,2.2c0.5,0.3,1,0.6,1.7,0.8C69.8,172.3,74.5,171.8,79,169.7z"/>
					<path class="st60" d="M27.3,169.1l1.5,1.4l0-1.6c0-0.1,0.1-0.2,0.1-0.2c0-0.1,0-0.1,0-0.1c0.6-4.1,2.5-6.6,5.9-7.6
						c1.8-0.7,3.8-0.7,6.1-0.1c0.2,0.1,0.5,0.2,0.7,0.3c0.6,0.2,1.2,0.5,1.7,0.9l1.1-1.4c-1.9-1.6-4.4-2.5-7.5-2.5
						C32.7,158.2,29.4,161.8,27.3,169.1 M79,169.7l1.5-1.4c-2.4-7.3-5.8-10.8-10.1-10.4c-3.1,0.1-5.6,1-7.4,2.7l1.2,1.3
						c0.5-0.4,1.1-0.7,1.7-1c0.3-0.1,0.5-0.2,0.8-0.3c2.3-0.7,4.3-0.7,6.1-0.1c3.4,0.8,5.5,3.3,6.2,7.3c0,0,0,0,0,0.1
						c0.1,0.1,0.1,0.2,0.1,0.3L79,169.7z"/>
				</g>
			</g>
		</g>
		<g transform="matrix( 1, 0, 0, 1, 0,0) ">
			<g>
				<g id="Layer0_0_FILL_3_">
					<path class="st61" d="M72.9,197.8c-0.3,0-0.7,0.1-1,0.1c-1.5,0.2-2.8,0.4-4,0.5c-0.1,0-0.2,0-0.2,0c-0.1,0-0.2,0-0.3,0.1
						l0.2,2.6c-1.8,1-3.7,1.8-5.7,2.3c1.5,0.5,2.8,1.3,3.9,2.4C68.1,203.7,70.4,201.1,72.9,197.8 M46.3,206.1c0.7-1,2.3-1.7,4.7-2.1
						c-2.4-0.3-4.8-0.8-7.4-1.6l-2-3.1c-0.1,0-0.2,0-0.3,0c-0.8,0-1.6-0.1-2.5-0.1C41.1,201.7,43.6,204,46.3,206.1z"/>
					<path class="st62" d="M49,211.6L49,211.6c0.1,0,0.1,0.1,0.1,0.1c5.9,4.2,11.3,3.5,16.3-2.2l6.5-10.2c-2.9,4.4-5.4,7.7-7.3,9.8
						c-0.4,0.4-0.7,0.7-1,1c-4.9,3.1-9.6,3.4-14,0.8c-0.6-0.6-1.3-1.1-1.9-1.7c-2.8-2.6-5.4-5.4-7.8-8.2
						C42.3,204.7,45.3,208.2,49,211.6 M59.4,197c-0.2-0.1-0.4,0-0.6,0.1c-0.2,0-0.5,0.2-0.8,0.6c-0.1,0.1-0.2,0.2-0.3,0.3
						c-0.4,0.3-0.9,0.6-1.4,0.8c-1.2,0.1-2.1-0.1-2.5-0.6c-0.5-0.5-0.8-0.8-1-0.8c-0.2-0.1-0.4-0.1-0.7,0c-1.6,0.4-3.2,0.9-4.8,1.6
						c0.5,0,1,0,1.6,0c0.2,0,0.5,0,0.7,0c1.2,0,2.1,0,2.6,0.1c1,0.1,1.7,0.4,2.4,0.9l2.6-0.1c0.6-0.5,1.4-0.9,2.3-1.1
						c0.5-0.1,1.4-0.2,2.6-0.3c0.8-0.1,1.5-0.1,2.3-0.2C62.7,197.6,61.1,197.2,59.4,197z"/>
					<path class="st63" d="M48.8,207.9c-0.8-0.6-1.7-1.2-2.5-1.8c-2.7-2.1-5.2-4.4-7.5-6.9c0.3,0.6,0.7,1.2,1.1,1.8
						c2.4,2.9,5,5.6,7.8,8.2c0.6,0.6,1.2,1.1,1.9,1.7c4.4,2.5,9.1,2.3,14-0.8c0.3-0.3,0.7-0.6,1-1c1.9-2.1,4.4-5.4,7.3-9.8
						c0.3-0.5,0.6-1,0.9-1.5c-2.5,3.2-4.9,5.9-7,8c-0.8,0.8-1.6,1.5-2.3,2.1c-0.1,0-0.1,0.1-0.2,0.1c-5.4,2.3-10.2,2.3-14.4,0
						C48.9,208,48.9,208,48.8,207.9 M58.8,197c0.2-0.1,0.4-0.1,0.6-0.1c1.7,0.2,3.3,0.7,5,1.3c0.5-0.1,0.9-0.1,1.4-0.2
						c0.9-0.1,1.8-0.2,2.6-0.3c-2.5-0.6-5.9-1.3-10.3-2.1c-0.1,0.3-0.2,0.5-0.3,0.7c-0.2,0.3-0.4,0.6-0.7,0.8
						c-0.4,0.3-0.8,0.5-1.4,0.6c0,0-0.1,0-0.1,0c-0.5-0.1-1-0.2-1.4-0.6c-0.5-0.4-0.9-0.8-1.1-1.4c-4.3,1.2-7.7,2.1-10.1,2.9
						c0.2,0,0.4,0,0.6,0l0,0c1.2,0,2.4,0.1,3.5,0.1c1.6-0.7,3.2-1.3,4.8-1.6c0.2-0.1,0.4-0.1,0.7,0c0.2,0,0.5,0.3,1,0.8
						c0.4,0.5,1.2,0.8,2.5,0.6c0.5-0.2,0.9-0.5,1.4-0.8c0.1-0.1,0.2-0.2,0.3-0.3C58.3,197.3,58.5,197.1,58.8,197z"/>
					<path class="st64" d="M46.3,206.1c0.8,0.6,1.6,1.2,2.5,1.8c0.1,0,0.1,0.1,0.2,0.1c4.2,2.3,9,2.3,14.4,0c0.1,0,0.1-0.1,0.2-0.1
						c0.8-0.6,1.5-1.3,2.3-2.1c-1.1-1.1-2.4-1.9-3.9-2.4c-1.5,0.4-3.2,0.7-4.8,0.8c-2,0.1-4,0.1-6.2-0.2
						C48.6,204.5,47.1,205.1,46.3,206.1z"/>
					<path class="st65" d="M56,200.9c-0.6,0.1-1.2,0-1.8-0.2c-0.7-0.3-1.3-0.5-1.6-0.6c-0.8-0.2-2-0.4-3.7-0.5
						c-0.6,0-1.7-0.1-3.4-0.2c-0.5,0-1.1,0-1.7-0.1c-0.7,0-1.5-0.1-2.3-0.1l2,3.1c2.6,0.8,5.1,1.3,7.4,1.6c2.2,0.3,4.2,0.3,6.2,0.2
						c1.7-0.1,3.3-0.4,4.8-0.8c2-0.5,3.9-1.3,5.7-2.3l-0.2-2.6c-0.6,0.1-1.1,0.1-1.6,0.2c-1.5,0.2-2.5,0.3-3.1,0.4
						c-1.6,0.2-2.8,0.5-3.6,0.8c-0.3,0.1-0.8,0.4-1.5,0.7c-0.3,0.1-0.6,0.2-0.8,0.2C56.6,200.9,56.4,200.9,56,200.9
						C56.1,200.8,56.1,200.8,56,200.9z"/>
					<path class="st66" d="M54.2,200.7c0.6,0.2,1.2,0.2,1.8,0.2c0,0,0,0,0.1,0c0.2,0,0.5,0,0.8,0c0.3,0,0.5-0.1,0.8-0.2
						c0.7-0.3,1.2-0.6,1.5-0.7c0.8-0.3,2-0.6,3.6-0.8c0.5-0.1,1.6-0.2,3.1-0.4c0.5-0.1,1-0.1,1.6-0.2c0.1,0,0.2,0,0.3-0.1
						c0.1,0,0.2,0,0.2,0c1.2-0.2,2.5-0.3,4-0.5c0.3-0.1,0.6-0.1,1-0.1c0.2,0.4,0.4,0.7,0.5,0.9c0.3,0.6,0.7,0.9,1.2,1.1
						c-0.4-0.3-0.8-0.9-1.1-2c-0.3-1.2-0.5-2.2-0.6-3c-0.1,0.1-0.1,0.3-0.2,0.5c0,0.2,0,0.4,0,0.5c-0.1,0.2-0.1,0.4-0.1,0.5
						c0,0.1,0,0.3,0,0.5v0.3l0,0.1l0,0l-0.3,0c-1.3,0.2-2.6,0.4-3.9,0.6c-0.9,0.1-1.8,0.2-2.6,0.3c-0.5,0.1-0.9,0.1-1.4,0.2
						c-0.8,0.1-1.6,0.1-2.3,0.2c-1.2,0.1-2.1,0.2-2.6,0.3c-0.9,0.2-1.7,0.6-2.3,1.1l-2.6,0.1c-0.6-0.5-1.4-0.8-2.4-0.9
						c-0.5-0.1-1.4-0.1-2.6-0.1c-0.2,0-0.5,0-0.7,0c-0.5,0-1,0-1.6,0c-1.1,0-2.3-0.1-3.5-0.1l0,0c-0.2,0-0.4,0-0.6,0
						c-1.2-0.1-2.5-0.2-3.9-0.3l-0.3-0.4c0-0.2,0-0.3-0.1-0.4c0-0.1,0-0.3-0.1-0.5c0-0.1-0.1-0.2-0.1-0.5c-0.1-0.2-0.1-0.3-0.2-0.5
						c-0.1,0.8-0.2,1.8-0.4,3c-0.2,1.1-0.5,1.8-0.9,2.1c0.5-0.2,0.8-0.6,1.1-1.2c0.1-0.1,0.2-0.2,0.2-0.4c0.1-0.2,0.1-0.3,0.2-0.5
						c0.9,0,1.7,0.1,2.5,0.1c0.1,0,0.2,0,0.3,0c0.8,0,1.6,0.1,2.3,0.1c0.6,0,1.1,0,1.7,0.1c1.7,0.1,2.9,0.1,3.4,0.2
						c1.6,0.1,2.9,0.3,3.7,0.5C53,200.2,53.5,200.4,54.2,200.7 M38.9,198.5l0-0.1C39,198.5,39,198.5,38.9,198.5L38.9,198.5z"/>
				</g>
			</g>
		</g>
	</g>
</g>
</svg>
