<?xml version="1.0" encoding="UTF-8"?><svg id="Capa_2" xmlns="http://www.w3.org/2000/svg" viewBox="0 0 64.16 64.16"><defs><style>.cls-1{fill:#fff;}.cls-2{fill:#679c40;}</style></defs><g id="Capa_1-2"><g><g><circle class="cls-2" cx="32.08" cy="32.08" r="31.21"/><path class="cls-1" d="M32.08,1.74c16.73,0,30.34,13.61,30.34,30.34s-13.61,30.34-30.34,30.34S1.74,48.81,1.74,32.08,15.35,1.74,32.08,1.74m0-1.74C14.36,0,0,14.36,0,32.08s14.36,32.08,32.08,32.08,32.08-14.36,32.08-32.08S49.79,0,32.08,0h0Z"/></g><path class="cls-1" d="M26.86,37.33c1.44,1.41,3.72,2.16,5.46,2.16,2.22,0,3.36-.9,3.36-2.07s-.84-1.83-3.57-1.83c-.87,0-2.4,.03-2.7,.06v-4.44c.39,.03,1.95,.03,2.7,.03,2.07,0,3.24-.6,3.24-1.71,0-1.26-1.44-1.92-3.36-1.92s-3.63,.75-5.04,1.98l-2.43-3.15c1.68-1.89,4.32-3.24,8.01-3.24,5.1,0,7.95,2.19,7.95,5.49,0,2.34-2.01,4.11-4.38,4.5,2.13,.21,4.71,1.86,4.71,4.74,0,3.51-3.3,5.94-8.28,5.94-3.84,0-6.72-1.35-8.28-3.15l2.61-3.39Z"/></g></g></svg>