<?xml version="1.0" encoding="UTF-8"?><svg id="Capa_2" xmlns="http://www.w3.org/2000/svg" viewBox="0 0 64.16 64.16"><defs><style>.cls-1{fill:#f8ab3c;}.cls-2{fill:#fff;}</style></defs><g id="Capa_1-2"><g><g><circle class="cls-1" cx="32.08" cy="32.08" r="31.21"/><path class="cls-2" d="M32.08,1.74c16.73,0,30.34,13.61,30.34,30.34s-13.61,30.34-30.34,30.34S1.74,48.81,1.74,32.08,15.35,1.74,32.08,1.74m0-1.74C14.36,0,0,14.36,0,32.08s14.36,32.08,32.08,32.08,32.08-14.36,32.08-32.08S49.79,0,32.08,0h0Z"/></g><path class="cls-2" d="M26.01,43.51v-4.02c8.67-6.27,10.29-7.65,10.29-9.63,0-1.38-1.29-2.1-2.85-2.1-2.13,0-3.81,.84-5.25,2.19l-2.85-3.42c2.13-2.34,5.31-3.33,8.1-3.33,4.71,0,8.1,2.64,8.1,6.66,0,3.06-2.19,5.67-7.56,9.15h7.71s0,4.5,0,4.5h-15.69Z"/></g></g></svg>