<?xml version="1.0" encoding="UTF-8"?><svg id="Capa_2" xmlns="http://www.w3.org/2000/svg" viewBox="0 0 64.16 64.16"><defs><style>.cls-1{fill:#fff;}.cls-2{fill:#1294d3;}</style></defs><g id="Capa_1-2"><g><g><circle class="cls-2" cx="32.08" cy="32.08" r="31.21"/><path class="cls-1" d="M32.08,1.74c16.73,0,30.34,13.61,30.34,30.34s-13.61,30.34-30.34,30.34S1.74,48.81,1.74,32.08,15.35,1.74,32.08,1.74m0-1.74C14.36,0,0,14.36,0,32.08s14.36,32.08,32.08,32.08,32.08-14.36,32.08-32.08S49.79,0,32.08,0h0Z"/></g><path class="cls-1" d="M30.54,42.51v-13.41s-3.36,3.39-3.36,3.39l-2.94-3.09,6.99-6.9h4.47s0,20.01,0,20.01h-5.16Z"/></g></g></svg>