<?xml version="1.0" encoding="UTF-8"?><svg id="Capa_2" xmlns="http://www.w3.org/2000/svg" viewBox="0 0 253 232"><defs><style>.cls-1{fill:#fff;}.cls-2{fill:#5d5d62;}</style></defs><g id="Capa_1-2"><g><rect class="cls-1" width="253" height="232" rx="20" ry="20"/><g><path class="cls-2" d="M22.2,30.71v-14.68h1.83v14.68h-1.83Z"/><path class="cls-2" d="M35.09,30.71v-1.58c-.79,1.08-2.09,1.85-3.59,1.85-2.77,0-4.73-2.11-4.73-5.57s1.94-5.59,4.73-5.59c1.43,0,2.73,.71,3.59,1.87v-5.66h1.65v14.68h-1.65Zm0-7.7c-.59-.92-1.87-1.72-3.19-1.72-2.13,0-3.41,1.76-3.41,4.12s1.28,4.09,3.41,4.09c1.32,0,2.6-.75,3.19-1.67v-4.82Z"/><path class="cls-2" d="M44.66,19.82c3.21,0,5.11,2.51,5.11,5.7v.42h-8.6c.13,2,1.54,3.67,3.83,3.67,1.21,0,2.44-.48,3.28-1.34l.79,1.08c-1.06,1.06-2.49,1.63-4.22,1.63-3.15,0-5.41-2.27-5.41-5.59,0-3.08,2.2-5.57,5.24-5.57Zm-3.5,4.91h6.97c-.02-1.58-1.08-3.54-3.5-3.54-2.27,0-3.39,1.91-3.48,3.54Z"/><path class="cls-2" d="M59.6,30.71v-6.95c0-1.87-.95-2.46-2.38-2.46-1.3,0-2.53,.79-3.15,1.65v7.77h-1.65v-10.63h1.65v1.54c.75-.88,2.2-1.8,3.78-1.8,2.22,0,3.39,1.12,3.39,3.43v7.46h-1.65Z"/><path class="cls-2" d="M64.87,28.49v-6.95h-1.76v-1.45h1.76v-2.9h1.65v2.9h2.16v1.45h-2.16v6.6c0,.79,.35,1.36,1.08,1.36,.46,0,.9-.2,1.12-.44l.48,1.23c-.42,.4-1.01,.68-1.98,.68-1.56,0-2.36-.9-2.36-2.49Z"/><path class="cls-2" d="M70.73,17.18c0-.62,.51-1.1,1.1-1.1s1.12,.48,1.12,1.1-.51,1.12-1.12,1.12-1.1-.51-1.1-1.12Zm.29,13.53v-10.63h1.65v10.63h-1.65Z"/><path class="cls-2" d="M78.08,21.53v9.18h-1.65v-9.18h-1.76v-1.45h1.76v-.81c0-2.2,1.23-3.45,3.08-3.45,.62,0,1.19,.11,1.61,.37l-.42,1.23c-.26-.15-.57-.24-.95-.24-1.08,0-1.67,.75-1.67,2.09v.81h2.16v1.45h-2.16Z"/><path class="cls-2" d="M81.86,33.37c.24,.11,.64,.18,.9,.18,.73,0,1.21-.24,1.58-1.12l.7-1.61-4.44-10.74h1.78l3.54,8.71,3.52-8.71h1.8l-5.32,12.78c-.64,1.54-1.72,2.13-3.12,2.16-.35,0-.9-.07-1.21-.15l.26-1.5Z"/><path class="cls-2" d="M98.97,28.49v-6.95h-1.76v-1.45h1.76v-2.9h1.65v2.9h2.16v1.45h-2.16v6.6c0,.79,.35,1.36,1.08,1.36,.46,0,.9-.2,1.12-.44l.48,1.23c-.42,.4-1.01,.68-1.98,.68-1.56,0-2.35-.9-2.35-2.49Z"/><path class="cls-2" d="M112.31,30.71v-7c0-1.87-.97-2.42-2.4-2.42-1.28,0-2.51,.79-3.15,1.65v7.77h-1.65v-14.68h1.65v5.59c.75-.88,2.2-1.8,3.81-1.8,2.22,0,3.39,1.08,3.39,3.39v7.5h-1.65Z"/><path class="cls-2" d="M121.88,19.82c3.21,0,5.1,2.51,5.1,5.7v.42h-8.6c.13,2,1.54,3.67,3.83,3.67,1.21,0,2.44-.48,3.28-1.34l.79,1.08c-1.06,1.06-2.49,1.63-4.22,1.63-3.15,0-5.41-2.27-5.41-5.59,0-3.08,2.2-5.57,5.24-5.57Zm-3.5,4.91h6.98c-.02-1.58-1.08-3.54-3.5-3.54-2.27,0-3.39,1.91-3.48,3.54Z"/><path class="cls-2" d="M148.15,30.71v-7.22c0-1.34-.59-2.2-1.96-2.2-1.1,0-2.27,.79-2.82,1.63v7.79h-1.65v-7.22c0-1.34-.57-2.2-1.96-2.2-1.08,0-2.22,.79-2.79,1.65v7.77h-1.65v-10.63h1.65v1.54c.44-.68,1.87-1.8,3.43-1.8s2.55,.88,2.86,1.98c.59-.97,2.02-1.98,3.56-1.98,1.94,0,2.97,1.08,2.97,3.21v7.68h-1.65Z"/><path class="cls-2" d="M159.74,30.71v-1.21c-.88,.97-2.09,1.47-3.52,1.47-1.8,0-3.72-1.21-3.72-3.52s1.91-3.5,3.72-3.5c1.45,0,2.66,.46,3.52,1.45v-1.92c0-1.43-1.14-2.24-2.68-2.24-1.28,0-2.31,.46-3.26,1.47l-.77-1.14c1.14-1.19,2.51-1.76,4.25-1.76,2.24,0,4.11,1.01,4.11,3.59v7.31h-1.65Zm0-4.25c-.64-.88-1.76-1.32-2.93-1.32-1.54,0-2.62,.97-2.62,2.33s1.08,2.31,2.62,2.31c1.17,0,2.29-.44,2.93-1.32v-2Z"/><path class="cls-2" d="M164.4,17.18c0-.62,.51-1.1,1.1-1.1s1.12,.48,1.12,1.1-.51,1.12-1.12,1.12-1.1-.51-1.1-1.12Zm.29,13.53v-10.63h1.65v10.63h-1.65Z"/><path class="cls-2" d="M176.81,30.71v-6.95c0-1.87-.95-2.46-2.38-2.46-1.3,0-2.53,.79-3.15,1.65v7.77h-1.65v-10.63h1.65v1.54c.75-.88,2.2-1.8,3.79-1.8,2.22,0,3.39,1.12,3.39,3.43v7.46h-1.65Z"/><path class="cls-2" d="M28.64,57.11v-1.21c-.88,.97-2.09,1.47-3.52,1.47-1.8,0-3.72-1.21-3.72-3.52s1.91-3.5,3.72-3.5c1.45,0,2.66,.46,3.52,1.45v-1.91c0-1.43-1.14-2.25-2.68-2.25-1.28,0-2.31,.46-3.26,1.47l-.77-1.14c1.14-1.19,2.51-1.76,4.25-1.76,2.24,0,4.12,1.01,4.12,3.59v7.31h-1.65Zm0-4.25c-.64-.88-1.76-1.32-2.93-1.32-1.54,0-2.62,.97-2.62,2.33s1.08,2.31,2.62,2.31c1.17,0,2.29-.44,2.93-1.32v-2Z"/><path class="cls-2" d="M40.76,57.11v-6.95c0-1.87-.95-2.46-2.38-2.46-1.3,0-2.53,.79-3.15,1.65v7.77h-1.65v-10.63h1.65v1.54c.75-.88,2.2-1.8,3.78-1.8,2.22,0,3.39,1.12,3.39,3.43v7.46h-1.65Z"/><path class="cls-2" d="M46.04,54.88v-6.95h-1.76v-1.45h1.76v-2.9h1.65v2.9h2.16v1.45h-2.16v6.6c0,.79,.35,1.36,1.08,1.36,.46,0,.9-.2,1.12-.44l.48,1.23c-.42,.4-1.01,.68-1.98,.68-1.56,0-2.35-.9-2.35-2.49Z"/><path class="cls-2" d="M59.37,57.11v-7c0-1.87-.97-2.42-2.4-2.42-1.28,0-2.51,.79-3.15,1.65v7.77h-1.65v-14.68h1.65v5.59c.75-.88,2.2-1.8,3.81-1.8,2.22,0,3.39,1.08,3.39,3.39v7.5h-1.65Z"/><path class="cls-2" d="M64.32,57.11v-10.63h1.65v1.72c.86-1.12,2.09-1.94,3.54-1.94v1.69c-.2-.04-.4-.07-.66-.07-1.01,0-2.4,.84-2.88,1.69v7.53h-1.65Z"/><path class="cls-2" d="M70.97,51.78c0-3.08,2.02-5.57,5.26-5.57s5.26,2.49,5.26,5.57-2.02,5.59-5.26,5.59-5.26-2.51-5.26-5.59Zm8.78,0c0-2.16-1.25-4.09-3.52-4.09s-3.54,1.94-3.54,4.09,1.28,4.12,3.54,4.12,3.52-1.94,3.52-4.12Z"/><path class="cls-2" d="M85.82,61.16h-1.65v-14.68h1.65v1.58c.77-1.08,2.09-1.85,3.59-1.85,2.79,0,4.73,2.11,4.73,5.57s-1.94,5.59-4.73,5.59c-1.45,0-2.73-.68-3.59-1.87v5.66Zm3.17-13.47c-1.3,0-2.6,.77-3.17,1.69v4.8c.57,.92,1.87,1.72,3.17,1.72,2.13,0,3.41-1.76,3.41-4.12s-1.28-4.09-3.41-4.09Z"/><path class="cls-2" d="M96.18,51.78c0-3.08,2.02-5.57,5.26-5.57s5.26,2.49,5.26,5.57-2.02,5.59-5.26,5.59-5.26-2.51-5.26-5.59Zm8.78,0c0-2.16-1.25-4.09-3.52-4.09s-3.54,1.94-3.54,4.09,1.28,4.12,3.54,4.12,3.52-1.94,3.52-4.12Z"/><path class="cls-2" d="M110.19,58.6c.88,1.06,1.94,1.45,3.46,1.45,1.76,0,3.41-.86,3.41-3.19v-1.52c-.77,1.08-2.07,1.89-3.56,1.89-2.77,0-4.73-2.07-4.73-5.5s1.94-5.52,4.73-5.52c1.43,0,2.71,.7,3.56,1.87v-1.61h1.65v10.32c0,3.52-2.46,4.62-5.06,4.62-1.8,0-3.04-.35-4.29-1.58l.84-1.23Zm6.87-9.2c-.57-.92-1.85-1.72-3.17-1.72-2.13,0-3.41,1.69-3.41,4.05s1.28,4.05,3.41,4.05c1.32,0,2.6-.81,3.17-1.74v-4.64Z"/><path class="cls-2" d="M126.63,46.22c3.21,0,5.1,2.51,5.1,5.7v.42h-8.6c.13,2,1.54,3.67,3.83,3.67,1.21,0,2.44-.48,3.28-1.34l.79,1.08c-1.06,1.06-2.49,1.63-4.22,1.63-3.15,0-5.41-2.27-5.41-5.59,0-3.08,2.2-5.57,5.24-5.57Zm-3.5,4.91h6.97c-.02-1.58-1.08-3.54-3.5-3.54-2.27,0-3.39,1.91-3.48,3.54Z"/><path class="cls-2" d="M141.57,57.11v-6.95c0-1.87-.95-2.46-2.38-2.46-1.3,0-2.53,.79-3.15,1.65v7.77h-1.65v-10.63h1.65v1.54c.75-.88,2.2-1.8,3.78-1.8,2.22,0,3.39,1.12,3.39,3.43v7.46h-1.65Z"/><path class="cls-2" d="M146.23,43.58c0-.62,.51-1.1,1.1-1.1s1.12,.48,1.12,1.1-.51,1.12-1.12,1.12-1.1-.51-1.1-1.12Zm.29,13.53v-10.63h1.65v10.63h-1.65Z"/><path class="cls-2" d="M156.15,46.22c1.94,0,3.08,.79,3.89,1.85l-1.1,1.01c-.7-.97-1.61-1.39-2.71-1.39-2.27,0-3.67,1.74-3.67,4.09s1.41,4.12,3.67,4.12c1.1,0,2-.44,2.71-1.39l1.1,1.01c-.81,1.06-1.96,1.85-3.89,1.85-3.17,0-5.3-2.42-5.3-5.59s2.13-5.57,5.3-5.57Z"/><path class="cls-2" d="M172.72,46.22c1.94,0,3.08,.79,3.89,1.85l-1.1,1.01c-.71-.97-1.61-1.39-2.71-1.39-2.27,0-3.67,1.74-3.67,4.09s1.41,4.12,3.67,4.12c1.1,0,2-.44,2.71-1.39l1.1,1.01c-.81,1.06-1.96,1.85-3.89,1.85-3.17,0-5.3-2.42-5.3-5.59s2.13-5.57,5.3-5.57Z"/><path class="cls-2" d="M185.56,57.11v-1.21c-.88,.97-2.09,1.47-3.52,1.47-1.8,0-3.72-1.21-3.72-3.52s1.91-3.5,3.72-3.5c1.45,0,2.66,.46,3.52,1.45v-1.91c0-1.43-1.14-2.25-2.68-2.25-1.28,0-2.31,.46-3.26,1.47l-.77-1.14c1.14-1.19,2.51-1.76,4.25-1.76,2.24,0,4.11,1.01,4.11,3.59v7.31h-1.65Zm0-4.25c-.64-.88-1.76-1.32-2.93-1.32-1.54,0-2.62,.97-2.62,2.33s1.08,2.31,2.62,2.31c1.17,0,2.29-.44,2.93-1.32v-2Z"/><path class="cls-2" d="M197.69,57.11v-1.5c-.81,.92-2.2,1.76-3.78,1.76-2.22,0-3.39-1.08-3.39-3.39v-7.5h1.65v7c0,1.87,.95,2.42,2.38,2.42,1.3,0,2.53-.75,3.15-1.61v-7.81h1.65v10.63h-1.65Z"/><path class="cls-2" d="M202.57,54.51c.7,.81,2.05,1.52,3.5,1.52,1.63,0,2.51-.73,2.51-1.76,0-1.17-1.3-1.54-2.73-1.89-1.8-.42-3.85-.9-3.85-3.1,0-1.65,1.43-3.06,3.96-3.06,1.8,0,3.08,.68,3.94,1.54l-.77,1.14c-.64-.77-1.8-1.34-3.17-1.34-1.45,0-2.35,.66-2.35,1.61,0,1.03,1.21,1.36,2.6,1.69,1.85,.42,3.98,.95,3.98,3.3,0,1.78-1.43,3.21-4.18,3.21-1.74,0-3.21-.53-4.29-1.67l.86-1.19Z"/><path class="cls-2" d="M217.49,46.22c3.21,0,5.1,2.51,5.1,5.7v.42h-8.6c.13,2,1.54,3.67,3.83,3.67,1.21,0,2.44-.48,3.28-1.34l.79,1.08c-1.06,1.06-2.49,1.63-4.22,1.63-3.15,0-5.41-2.27-5.41-5.59,0-3.08,2.2-5.57,5.24-5.57Zm-3.5,4.91h6.97c-.02-1.58-1.08-3.54-3.5-3.54-2.27,0-3.39,1.91-3.48,3.54Z"/><path class="cls-2" d="M225.19,54.51c.7,.81,2.05,1.52,3.5,1.52,1.63,0,2.51-.73,2.51-1.76,0-1.17-1.3-1.54-2.73-1.89-1.8-.42-3.85-.9-3.85-3.1,0-1.65,1.43-3.06,3.96-3.06,1.8,0,3.08,.68,3.94,1.54l-.77,1.14c-.64-.77-1.8-1.34-3.17-1.34-1.45,0-2.35,.66-2.35,1.61,0,1.03,1.21,1.36,2.6,1.69,1.85,.42,3.98,.95,3.98,3.3,0,1.78-1.43,3.21-4.18,3.21-1.74,0-3.21-.53-4.29-1.67l.86-1.19Z"/><path class="cls-2" d="M22.19,81.29v-6.95h-1.76v-1.45h1.76v-2.9h1.65v2.9h2.16v1.45h-2.16v6.6c0,.79,.35,1.37,1.08,1.37,.46,0,.9-.2,1.12-.44l.48,1.23c-.42,.4-1.01,.68-1.98,.68-1.56,0-2.35-.9-2.35-2.49Z"/><path class="cls-2" d="M35.53,83.51v-7c0-1.87-.97-2.42-2.4-2.42-1.28,0-2.51,.79-3.15,1.65v7.77h-1.65v-14.68h1.65v5.59c.75-.88,2.2-1.8,3.81-1.8,2.22,0,3.39,1.08,3.39,3.39v7.5h-1.65Z"/><path class="cls-2" d="M47.12,83.51v-1.21c-.88,.97-2.09,1.47-3.52,1.47-1.8,0-3.72-1.21-3.72-3.52s1.91-3.5,3.72-3.5c1.45,0,2.66,.46,3.52,1.45v-1.92c0-1.43-1.14-2.24-2.68-2.24-1.28,0-2.31,.46-3.26,1.47l-.77-1.14c1.14-1.19,2.51-1.76,4.25-1.76,2.24,0,4.12,1.01,4.12,3.59v7.31h-1.65Zm0-4.25c-.64-.88-1.76-1.32-2.93-1.32-1.54,0-2.62,.97-2.62,2.33s1.08,2.31,2.62,2.31c1.17,0,2.29-.44,2.93-1.32v-2Z"/><path class="cls-2" d="M52.4,81.29v-6.95h-1.76v-1.45h1.76v-2.9h1.65v2.9h2.16v1.45h-2.16v6.6c0,.79,.35,1.37,1.08,1.37,.46,0,.9-.2,1.12-.44l.48,1.23c-.42,.4-1.01,.68-1.98,.68-1.56,0-2.35-.9-2.35-2.49Z"/><path class="cls-2" d="M70.86,83.51v-1.21c-.88,.97-2.09,1.47-3.52,1.47-1.8,0-3.72-1.21-3.72-3.52s1.91-3.5,3.72-3.5c1.45,0,2.66,.46,3.52,1.45v-1.92c0-1.43-1.14-2.24-2.68-2.24-1.28,0-2.31,.46-3.26,1.47l-.77-1.14c1.14-1.19,2.51-1.76,4.25-1.76,2.25,0,4.11,1.01,4.11,3.59v7.31h-1.65Zm0-4.25c-.64-.88-1.76-1.32-2.93-1.32-1.54,0-2.62,.97-2.62,2.33s1.08,2.31,2.62,2.31c1.17,0,2.29-.44,2.93-1.32v-2Z"/><path class="cls-2" d="M76.27,83.51v-9.18h-1.76v-1.45h1.76v-.81c0-2.2,1.23-3.45,3.08-3.45,.62,0,1.19,.11,1.61,.37l-.42,1.23c-.26-.15-.57-.24-.95-.24-1.08,0-1.67,.75-1.67,2.09v.81h2.16v1.45h-2.16v9.18h-1.65Zm6.23,0v-9.18h-1.76v-1.45h1.76v-.81c0-2.2,1.23-3.45,3.08-3.45,.62,0,1.19,.11,1.61,.37l-.42,1.23c-.26-.15-.57-.24-.95-.24-1.08,0-1.67,.75-1.67,2.09v.81h2.16v1.45h-2.16v9.18h-1.65Z"/><path class="cls-2" d="M92.88,72.62c3.21,0,5.1,2.51,5.1,5.7v.42h-8.6c.13,2,1.54,3.67,3.83,3.67,1.21,0,2.44-.48,3.28-1.34l.79,1.08c-1.06,1.06-2.49,1.63-4.22,1.63-3.15,0-5.41-2.27-5.41-5.59,0-3.08,2.2-5.57,5.24-5.57Zm-3.5,4.91h6.97c-.02-1.58-1.08-3.54-3.5-3.54-2.27,0-3.39,1.91-3.48,3.54Z"/><path class="cls-2" d="M105.33,72.62c1.94,0,3.08,.79,3.89,1.85l-1.1,1.01c-.7-.97-1.61-1.39-2.71-1.39-2.27,0-3.67,1.74-3.67,4.09s1.41,4.12,3.67,4.12c1.1,0,2-.44,2.71-1.39l1.1,1.01c-.81,1.06-1.96,1.85-3.89,1.85-3.17,0-5.3-2.42-5.3-5.59s2.13-5.57,5.3-5.57Z"/><path class="cls-2" d="M111.86,81.29v-6.95h-1.76v-1.45h1.76v-2.9h1.65v2.9h2.16v1.45h-2.16v6.6c0,.79,.35,1.37,1.08,1.37,.46,0,.9-.2,1.12-.44l.48,1.23c-.42,.4-1.01,.68-1.98,.68-1.56,0-2.35-.9-2.35-2.49Z"/><path class="cls-2" d="M123.68,83.51v-14.68h1.65v5.66c.86-1.17,2.13-1.87,3.59-1.87,2.77,0,4.73,2.2,4.73,5.59s-1.96,5.57-4.73,5.57c-1.5,0-2.79-.77-3.59-1.85v1.58h-1.65Zm1.65-2.88c.57,.92,1.87,1.67,3.17,1.67,2.16,0,3.43-1.74,3.43-4.09s-1.28-4.11-3.43-4.11c-1.3,0-2.6,.79-3.17,1.72v4.82Z"/><path class="cls-2" d="M136.33,83.51v-14.68h1.65v14.68h-1.65Z"/><path class="cls-2" d="M148.45,83.51v-1.5c-.81,.92-2.2,1.76-3.79,1.76-2.22,0-3.39-1.08-3.39-3.39v-7.5h1.65v7c0,1.87,.95,2.42,2.38,2.42,1.3,0,2.53-.75,3.15-1.61v-7.81h1.65v10.63h-1.65Z"/><path class="cls-2" d="M158.02,72.62c3.21,0,5.1,2.51,5.1,5.7v.42h-8.6c.13,2,1.54,3.67,3.83,3.67,1.21,0,2.44-.48,3.28-1.34l.79,1.08c-1.06,1.06-2.49,1.63-4.22,1.63-3.15,0-5.41-2.27-5.41-5.59,0-3.08,2.2-5.57,5.24-5.57Zm-3.5,4.91h6.97c-.02-1.58-1.08-3.54-3.5-3.54-2.27,0-3.39,1.91-3.48,3.54Z"/><path class="cls-2" d="M176.15,72.62c1.94,0,3.08,.79,3.89,1.85l-1.1,1.01c-.7-.97-1.61-1.39-2.71-1.39-2.27,0-3.67,1.74-3.67,4.09s1.41,4.12,3.67,4.12c1.1,0,2-.44,2.71-1.39l1.1,1.01c-.81,1.06-1.96,1.85-3.89,1.85-3.17,0-5.3-2.42-5.3-5.59s2.13-5.57,5.3-5.57Z"/><path class="cls-2" d="M189,83.51v-1.21c-.88,.97-2.09,1.47-3.52,1.47-1.8,0-3.72-1.21-3.72-3.52s1.92-3.5,3.72-3.5c1.45,0,2.66,.46,3.52,1.45v-1.92c0-1.43-1.14-2.24-2.68-2.24-1.28,0-2.31,.46-3.26,1.47l-.77-1.14c1.14-1.19,2.51-1.76,4.25-1.76,2.25,0,4.12,1.01,4.12,3.59v7.31h-1.65Zm0-4.25c-.64-.88-1.76-1.32-2.93-1.32-1.54,0-2.62,.97-2.62,2.33s1.08,2.31,2.62,2.31c1.17,0,2.29-.44,2.93-1.32v-2Z"/><path class="cls-2" d="M193.95,83.51v-10.63h1.65v1.72c.86-1.12,2.09-1.94,3.54-1.94v1.69c-.2-.04-.4-.07-.66-.07-1.01,0-2.4,.84-2.88,1.69v7.53h-1.65Z"/><path class="cls-2" d="M201.2,83.51v-14.68h1.65v5.66c.86-1.17,2.13-1.87,3.59-1.87,2.77,0,4.73,2.2,4.73,5.59s-1.96,5.57-4.73,5.57c-1.5,0-2.79-.77-3.59-1.85v1.58h-1.65Zm1.65-2.88c.57,.92,1.87,1.67,3.17,1.67,2.16,0,3.43-1.74,3.43-4.09s-1.28-4.11-3.43-4.11c-1.3,0-2.6,.79-3.17,1.72v4.82Z"/><path class="cls-2" d="M213.24,78.18c0-3.08,2.02-5.57,5.26-5.57s5.26,2.49,5.26,5.57-2.02,5.59-5.26,5.59-5.26-2.51-5.26-5.59Zm8.78,0c0-2.16-1.25-4.09-3.52-4.09s-3.54,1.94-3.54,4.09,1.28,4.12,3.54,4.12,3.52-1.94,3.52-4.12Z"/><path class="cls-2" d="M233.61,83.51v-6.95c0-1.87-.95-2.46-2.38-2.46-1.3,0-2.53,.79-3.15,1.65v7.77h-1.65v-10.63h1.65v1.54c.75-.88,2.2-1.8,3.78-1.8,2.22,0,3.39,1.12,3.39,3.43v7.46h-1.65Z"/><path class="cls-2" d="M26.35,99.02c3.21,0,5.1,2.51,5.1,5.7v.42h-8.6c.13,2,1.54,3.67,3.83,3.67,1.21,0,2.44-.48,3.28-1.34l.79,1.08c-1.06,1.06-2.49,1.63-4.22,1.63-3.15,0-5.41-2.27-5.41-5.59,0-3.08,2.2-5.57,5.24-5.57Zm-3.5,4.91h6.97c-.02-1.58-1.08-3.54-3.5-3.54-2.27,0-3.39,1.91-3.48,3.54Z"/><path class="cls-2" d="M38.8,99.02c1.94,0,3.08,.79,3.89,1.85l-1.1,1.01c-.7-.97-1.61-1.39-2.71-1.39-2.27,0-3.67,1.74-3.67,4.09s1.41,4.11,3.67,4.11c1.1,0,2-.44,2.71-1.39l1.1,1.01c-.81,1.06-1.96,1.85-3.89,1.85-3.17,0-5.3-2.42-5.3-5.59s2.13-5.57,5.3-5.57Z"/><path class="cls-2" d="M44.39,104.58c0-3.08,2.02-5.57,5.26-5.57s5.26,2.49,5.26,5.57-2.02,5.59-5.26,5.59-5.26-2.51-5.26-5.59Zm8.78,0c0-2.16-1.25-4.09-3.52-4.09s-3.54,1.94-3.54,4.09,1.28,4.11,3.54,4.11,3.52-1.94,3.52-4.11Z"/><path class="cls-2" d="M57.53,107.31c.7,.81,2.05,1.52,3.5,1.52,1.63,0,2.51-.73,2.51-1.76,0-1.17-1.3-1.54-2.73-1.89-1.8-.42-3.85-.9-3.85-3.1,0-1.65,1.43-3.06,3.96-3.06,1.8,0,3.08,.68,3.94,1.54l-.77,1.14c-.64-.77-1.8-1.34-3.17-1.34-1.45,0-2.35,.66-2.35,1.61,0,1.04,1.21,1.37,2.6,1.7,1.85,.42,3.98,.95,3.98,3.3,0,1.78-1.43,3.21-4.18,3.21-1.74,0-3.21-.53-4.29-1.67l.86-1.19Z"/><path class="cls-2" d="M67.49,112.57c.24,.11,.64,.18,.9,.18,.73,0,1.21-.24,1.58-1.12l.7-1.61-4.45-10.74h1.78l3.54,8.71,3.52-8.71h1.8l-5.33,12.78c-.64,1.54-1.72,2.13-3.12,2.16-.35,0-.9-.07-1.21-.15l.26-1.5Z"/><path class="cls-2" d="M78.54,107.31c.7,.81,2.05,1.52,3.5,1.52,1.63,0,2.51-.73,2.51-1.76,0-1.17-1.3-1.54-2.73-1.89-1.8-.42-3.85-.9-3.85-3.1,0-1.65,1.43-3.06,3.96-3.06,1.8,0,3.08,.68,3.94,1.54l-.77,1.14c-.64-.77-1.8-1.34-3.17-1.34-1.45,0-2.35,.66-2.35,1.61,0,1.04,1.21,1.37,2.6,1.7,1.85,.42,3.98,.95,3.98,3.3,0,1.78-1.43,3.21-4.18,3.21-1.74,0-3.21-.53-4.29-1.67l.86-1.19Z"/><path class="cls-2" d="M89.16,107.68v-6.95h-1.76v-1.45h1.76v-2.9h1.65v2.9h2.16v1.45h-2.16v6.6c0,.79,.35,1.36,1.08,1.36,.46,0,.9-.2,1.12-.44l.48,1.23c-.42,.4-1.01,.68-1.98,.68-1.56,0-2.36-.9-2.36-2.49Z"/><path class="cls-2" d="M99.92,99.02c3.21,0,5.1,2.51,5.1,5.7v.42h-8.6c.13,2,1.54,3.67,3.83,3.67,1.21,0,2.44-.48,3.28-1.34l.79,1.08c-1.06,1.06-2.49,1.63-4.22,1.63-3.15,0-5.41-2.27-5.41-5.59,0-3.08,2.2-5.57,5.24-5.57Zm-3.5,4.91h6.97c-.02-1.58-1.08-3.54-3.5-3.54-2.27,0-3.39,1.91-3.48,3.54Z"/><path class="cls-2" d="M120.51,109.91v-7.22c0-1.34-.59-2.2-1.96-2.2-1.1,0-2.27,.79-2.82,1.63v7.79h-1.65v-7.22c0-1.34-.57-2.2-1.96-2.2-1.08,0-2.22,.79-2.79,1.65v7.77h-1.65v-10.63h1.65v1.54c.44-.68,1.87-1.8,3.43-1.8s2.55,.88,2.86,1.98c.59-.97,2.02-1.98,3.56-1.98,1.94,0,2.97,1.08,2.97,3.21v7.68h-1.65Z"/><path class="cls-2" d="M125.39,107.31c.7,.81,2.05,1.52,3.5,1.52,1.63,0,2.51-.73,2.51-1.76,0-1.17-1.3-1.54-2.73-1.89-1.8-.42-3.85-.9-3.85-3.1,0-1.65,1.43-3.06,3.96-3.06,1.8,0,3.08,.68,3.94,1.54l-.77,1.14c-.64-.77-1.8-1.34-3.17-1.34-1.45,0-2.35,.66-2.35,1.61,0,1.04,1.21,1.37,2.6,1.7,1.85,.42,3.98,.95,3.98,3.3,0,1.78-1.43,3.21-4.18,3.21-1.74,0-3.21-.53-4.29-1.67l.86-1.19Z"/><path class="cls-2" d="M148.01,109.91v-1.21c-.88,.97-2.09,1.47-3.52,1.47-1.8,0-3.72-1.21-3.72-3.52s1.92-3.5,3.72-3.5c1.45,0,2.66,.46,3.52,1.45v-1.91c0-1.43-1.14-2.24-2.68-2.24-1.28,0-2.31,.46-3.26,1.47l-.77-1.14c1.14-1.19,2.51-1.76,4.25-1.76,2.24,0,4.11,1.01,4.11,3.59v7.3h-1.65Zm0-4.25c-.64-.88-1.76-1.32-2.93-1.32-1.54,0-2.62,.97-2.62,2.33s1.08,2.31,2.62,2.31c1.17,0,2.29-.44,2.93-1.32v-2Z"/><path class="cls-2" d="M160.13,109.91v-6.95c0-1.87-.95-2.46-2.38-2.46-1.3,0-2.53,.79-3.15,1.65v7.77h-1.65v-10.63h1.65v1.54c.75-.88,2.2-1.8,3.78-1.8,2.22,0,3.39,1.12,3.39,3.43v7.46h-1.65Z"/><path class="cls-2" d="M172.78,109.91v-1.58c-.79,1.08-2.09,1.85-3.59,1.85-2.77,0-4.73-2.11-4.73-5.57s1.94-5.59,4.73-5.59c1.43,0,2.73,.7,3.59,1.87v-5.65h1.65v14.68h-1.65Zm0-7.7c-.59-.92-1.87-1.72-3.19-1.72-2.13,0-3.41,1.76-3.41,4.11s1.28,4.09,3.41,4.09c1.32,0,2.6-.75,3.19-1.67v-4.82Z"/><path class="cls-2" d="M192.61,109.91l-2.77-8.54-2.77,8.54h-1.65l-3.39-10.63h1.72l2.6,8.47,2.79-8.47h1.41l2.79,8.47,2.6-8.47h1.72l-3.39,10.63h-1.65Z"/><path class="cls-2" d="M206.75,109.91v-7c0-1.87-.97-2.42-2.4-2.42-1.28,0-2.51,.79-3.15,1.65v7.77h-1.65v-14.68h1.65v5.59c.75-.88,2.2-1.8,3.81-1.8,2.22,0,3.39,1.08,3.39,3.39v7.5h-1.65Z"/><path class="cls-2" d="M218.34,109.91v-1.21c-.88,.97-2.09,1.47-3.52,1.47-1.8,0-3.72-1.21-3.72-3.52s1.91-3.5,3.72-3.5c1.45,0,2.66,.46,3.52,1.45v-1.91c0-1.43-1.14-2.24-2.68-2.24-1.28,0-2.31,.46-3.26,1.47l-.77-1.14c1.14-1.19,2.51-1.76,4.25-1.76,2.24,0,4.11,1.01,4.11,3.59v7.3h-1.65Zm0-4.25c-.64-.88-1.76-1.32-2.93-1.32-1.54,0-2.62,.97-2.62,2.33s1.08,2.31,2.62,2.31c1.17,0,2.29-.44,2.93-1.32v-2Z"/><path class="cls-2" d="M223.62,107.68v-6.95h-1.76v-1.45h1.76v-2.9h1.65v2.9h2.16v1.45h-2.16v6.6c0,.79,.35,1.36,1.08,1.36,.46,0,.9-.2,1.12-.44l.48,1.23c-.42,.4-1.01,.68-1.98,.68-1.56,0-2.35-.9-2.35-2.49Z"/><path class="cls-2" d="M28.84,136.31l-3.83-4.77-1.76,1.74v3.04h-1.65v-14.68h1.65v9.7l5.59-5.65h2.09l-4.71,4.82,4.73,5.81h-2.11Z"/><path class="cls-2" d="M32.62,122.78c0-.62,.51-1.1,1.1-1.1s1.12,.48,1.12,1.1-.51,1.12-1.12,1.12-1.1-.51-1.1-1.12Zm.29,13.53v-10.63h1.65v10.63h-1.65Z"/><path class="cls-2" d="M45.03,136.31v-6.95c0-1.87-.95-2.46-2.38-2.46-1.3,0-2.53,.79-3.15,1.65v7.77h-1.65v-10.63h1.65v1.54c.75-.88,2.2-1.8,3.79-1.8,2.22,0,3.39,1.12,3.39,3.43v7.46h-1.65Z"/><path class="cls-2" d="M57.68,136.31v-1.58c-.79,1.08-2.09,1.85-3.59,1.85-2.77,0-4.73-2.11-4.73-5.57s1.94-5.59,4.73-5.59c1.43,0,2.73,.7,3.59,1.87v-5.65h1.65v14.68h-1.65Zm0-7.7c-.59-.92-1.87-1.72-3.19-1.72-2.13,0-3.41,1.76-3.41,4.12s1.28,4.09,3.41,4.09c1.32,0,2.6-.75,3.19-1.67v-4.82Z"/><path class="cls-2" d="M67.69,130.98c0-3.08,2.02-5.57,5.26-5.57s5.26,2.49,5.26,5.57-2.02,5.59-5.26,5.59-5.26-2.51-5.26-5.59Zm8.78,0c0-2.16-1.25-4.09-3.52-4.09s-3.54,1.94-3.54,4.09,1.28,4.11,3.54,4.11,3.52-1.94,3.52-4.11Z"/><path class="cls-2" d="M83,127.13v9.18h-1.65v-9.18h-1.76v-1.45h1.76v-.81c0-2.2,1.23-3.46,3.08-3.46,.62,0,1.19,.11,1.61,.38l-.42,1.23c-.26-.15-.57-.24-.95-.24-1.08,0-1.67,.75-1.67,2.09v.81h2.16v1.45h-2.16Z"/><path class="cls-2" d="M99.43,136.31v-1.21c-.88,.97-2.09,1.47-3.52,1.47-1.8,0-3.72-1.21-3.72-3.52s1.91-3.5,3.72-3.5c1.45,0,2.66,.46,3.52,1.45v-1.91c0-1.43-1.14-2.24-2.68-2.24-1.28,0-2.31,.46-3.26,1.47l-.77-1.14c1.14-1.19,2.51-1.76,4.25-1.76,2.24,0,4.11,1.01,4.11,3.59v7.3h-1.65Zm0-4.25c-.64-.88-1.76-1.32-2.93-1.32-1.54,0-2.62,.97-2.62,2.33s1.08,2.31,2.62,2.31c1.17,0,2.29-.44,2.93-1.32v-2Z"/><path class="cls-2" d="M109.07,125.42c1.94,0,3.08,.79,3.89,1.85l-1.1,1.01c-.7-.97-1.61-1.39-2.71-1.39-2.27,0-3.67,1.74-3.67,4.09s1.41,4.11,3.67,4.11c1.1,0,2-.44,2.71-1.39l1.1,1.01c-.81,1.06-1.96,1.85-3.89,1.85-3.17,0-5.3-2.42-5.3-5.59s2.13-5.57,5.3-5.57Z"/><path class="cls-2" d="M115.6,134.08v-6.95h-1.76v-1.45h1.76v-2.91h1.65v2.91h2.16v1.45h-2.16v6.6c0,.79,.35,1.36,1.08,1.36,.46,0,.9-.2,1.12-.44l.48,1.23c-.42,.4-1.01,.68-1.98,.68-1.56,0-2.35-.9-2.35-2.49Z"/><path class="cls-2" d="M121.45,122.78c0-.62,.51-1.1,1.1-1.1s1.12,.48,1.12,1.1-.51,1.12-1.12,1.12-1.1-.51-1.1-1.12Zm.29,13.53v-10.63h1.65v10.63h-1.65Z"/><path class="cls-2" d="M129.53,136.31l-4.42-10.63h1.78l3.54,8.71,3.52-8.71h1.8l-4.42,10.63h-1.8Z"/><path class="cls-2" d="M137.18,122.78c0-.62,.51-1.1,1.1-1.1s1.12,.48,1.12,1.1-.51,1.12-1.12,1.12-1.1-.51-1.1-1.12Zm.29,13.53v-10.63h1.65v10.63h-1.65Z"/><path class="cls-2" d="M142.75,134.08v-6.95h-1.76v-1.45h1.76v-2.91h1.65v2.91h2.16v1.45h-2.16v6.6c0,.79,.35,1.36,1.08,1.36,.46,0,.9-.2,1.12-.44l.48,1.23c-.42,.4-1.01,.68-1.98,.68-1.56,0-2.35-.9-2.35-2.49Z"/><path class="cls-2" d="M148.6,122.78c0-.62,.51-1.1,1.1-1.1s1.12,.48,1.12,1.1-.51,1.12-1.12,1.12-1.1-.51-1.1-1.12Zm.29,13.53v-10.63h1.65v10.63h-1.65Z"/><path class="cls-2" d="M158.46,125.42c3.21,0,5.1,2.51,5.1,5.7v.42h-8.6c.13,2,1.54,3.67,3.83,3.67,1.21,0,2.44-.48,3.28-1.34l.79,1.08c-1.06,1.06-2.49,1.63-4.22,1.63-3.15,0-5.41-2.27-5.41-5.59,0-3.08,2.2-5.57,5.24-5.57Zm-3.5,4.91h6.97c-.02-1.58-1.08-3.54-3.5-3.54-2.27,0-3.39,1.91-3.48,3.54Z"/><path class="cls-2" d="M166.16,133.71c.71,.81,2.05,1.52,3.5,1.52,1.63,0,2.51-.73,2.51-1.76,0-1.17-1.3-1.54-2.73-1.89-1.8-.42-3.85-.9-3.85-3.1,0-1.65,1.43-3.06,3.96-3.06,1.8,0,3.08,.68,3.94,1.54l-.77,1.14c-.64-.77-1.8-1.34-3.17-1.34-1.45,0-2.35,.66-2.35,1.61,0,1.03,1.21,1.36,2.6,1.69,1.85,.42,3.98,.95,3.98,3.3,0,1.78-1.43,3.21-4.18,3.21-1.74,0-3.21-.53-4.29-1.67l.86-1.19Z"/><path class="cls-2" d="M28.11,162.71v-1.21c-.88,.97-2.09,1.47-3.52,1.47-1.8,0-3.72-1.21-3.72-3.52s1.92-3.5,3.72-3.5c1.45,0,2.66,.46,3.52,1.45v-1.92c0-1.43-1.14-2.24-2.68-2.24-1.28,0-2.31,.46-3.26,1.47l-.77-1.14c1.14-1.19,2.51-1.76,4.25-1.76,2.24,0,4.11,1.01,4.11,3.59v7.31h-1.65Zm0-4.25c-.64-.88-1.76-1.32-2.93-1.32-1.54,0-2.62,.97-2.62,2.33s1.08,2.31,2.62,2.31c1.17,0,2.29-.44,2.93-1.32v-2Z"/><path class="cls-2" d="M40.23,162.71v-6.95c0-1.87-.95-2.46-2.38-2.46-1.3,0-2.53,.79-3.15,1.65v7.77h-1.65v-10.63h1.65v1.54c.75-.88,2.2-1.8,3.78-1.8,2.22,0,3.39,1.12,3.39,3.43v7.46h-1.65Z"/><path class="cls-2" d="M52.88,162.71v-1.58c-.79,1.08-2.09,1.85-3.59,1.85-2.77,0-4.73-2.11-4.73-5.57s1.94-5.59,4.73-5.59c1.43,0,2.73,.71,3.59,1.87v-5.66h1.65v14.68h-1.65Zm0-7.7c-.59-.92-1.87-1.72-3.19-1.72-2.13,0-3.41,1.76-3.41,4.12s1.28,4.09,3.41,4.09c1.32,0,2.6-.75,3.19-1.67v-4.82Z"/><path class="cls-2" d="M56.18,163.15l5.21-15.56h1.3l-5.21,15.56h-1.3Z"/><path class="cls-2" d="M63.73,157.38c0-3.08,2.02-5.57,5.26-5.57s5.26,2.49,5.26,5.57-2.02,5.59-5.26,5.59-5.26-2.51-5.26-5.59Zm8.78,0c0-2.16-1.25-4.09-3.52-4.09s-3.54,1.94-3.54,4.09,1.28,4.11,3.54,4.11,3.52-1.94,3.52-4.11Z"/><path class="cls-2" d="M76.93,162.71v-10.63h1.65v1.72c.86-1.12,2.09-1.94,3.54-1.94v1.69c-.2-.04-.4-.07-.66-.07-1.01,0-2.4,.84-2.88,1.69v7.53h-1.65Z"/><path class="cls-2" d="M90.19,160.49v-6.95h-1.76v-1.45h1.76v-2.9h1.65v2.9h2.16v1.45h-2.16v6.6c0,.79,.35,1.36,1.08,1.36,.46,0,.9-.2,1.12-.44l.48,1.23c-.42,.4-1.01,.68-1.98,.68-1.56,0-2.35-.9-2.35-2.49Z"/><path class="cls-2" d="M95.71,157.38c0-3.08,2.02-5.57,5.26-5.57s5.26,2.49,5.26,5.57-2.02,5.59-5.26,5.59-5.26-2.51-5.26-5.59Zm8.78,0c0-2.16-1.25-4.09-3.52-4.09s-3.54,1.94-3.54,4.09,1.28,4.11,3.54,4.11,3.52-1.94,3.52-4.11Z"/><path class="cls-2" d="M108.3,157.38c0-3.08,2.02-5.57,5.26-5.57s5.26,2.49,5.26,5.57-2.02,5.59-5.26,5.59-5.26-2.51-5.26-5.59Zm8.78,0c0-2.16-1.25-4.09-3.52-4.09s-3.54,1.94-3.54,4.09,1.28,4.11,3.54,4.11,3.52-1.94,3.52-4.11Z"/><path class="cls-2" d="M121.5,162.71v-14.68h1.65v14.68h-1.65Z"/><path class="cls-2" d="M126.38,160.11c.7,.81,2.05,1.52,3.5,1.52,1.63,0,2.51-.73,2.51-1.76,0-1.17-1.3-1.54-2.73-1.89-1.8-.42-3.85-.9-3.85-3.1,0-1.65,1.43-3.06,3.96-3.06,1.8,0,3.08,.68,3.94,1.54l-.77,1.14c-.64-.77-1.8-1.34-3.17-1.34-1.45,0-2.35,.66-2.35,1.61,0,1.03,1.21,1.36,2.6,1.69,1.85,.42,3.98,.95,3.98,3.3,0,1.78-1.43,3.21-4.18,3.21-1.74,0-3.21-.53-4.29-1.67l.86-1.19Z"/><path class="cls-2" d="M147.04,151.82c1.94,0,3.08,.79,3.89,1.85l-1.1,1.01c-.7-.97-1.61-1.39-2.71-1.39-2.27,0-3.67,1.74-3.67,4.09s1.41,4.11,3.67,4.11c1.1,0,2-.44,2.71-1.39l1.1,1.01c-.81,1.06-1.96,1.85-3.89,1.85-3.17,0-5.3-2.42-5.3-5.59s2.13-5.57,5.3-5.57Z"/><path class="cls-2" d="M159.89,162.71v-1.21c-.88,.97-2.09,1.47-3.52,1.47-1.8,0-3.72-1.21-3.72-3.52s1.91-3.5,3.72-3.5c1.45,0,2.66,.46,3.52,1.45v-1.92c0-1.43-1.14-2.24-2.68-2.24-1.28,0-2.31,.46-3.26,1.47l-.77-1.14c1.14-1.19,2.51-1.76,4.25-1.76,2.24,0,4.11,1.01,4.11,3.59v7.31h-1.65Zm0-4.25c-.64-.88-1.76-1.32-2.93-1.32-1.54,0-2.62,.97-2.62,2.33s1.08,2.31,2.62,2.31c1.17,0,2.29-.44,2.93-1.32v-2Z"/><path class="cls-2" d="M172.01,162.71v-6.95c0-1.87-.95-2.46-2.38-2.46-1.3,0-2.53,.79-3.15,1.65v7.77h-1.65v-10.63h1.65v1.54c.75-.88,2.2-1.8,3.79-1.8,2.22,0,3.39,1.12,3.39,3.43v7.46h-1.65Z"/><path class="cls-2" d="M26.02,178.22c1.94,0,3.08,.79,3.89,1.85l-1.1,1.01c-.71-.97-1.61-1.39-2.71-1.39-2.27,0-3.67,1.74-3.67,4.09s1.41,4.12,3.67,4.12c1.1,0,2-.44,2.71-1.39l1.1,1.01c-.81,1.06-1.96,1.85-3.89,1.85-3.17,0-5.3-2.42-5.3-5.59s2.13-5.57,5.3-5.57Z"/><path class="cls-2" d="M31.61,183.78c0-3.08,2.02-5.57,5.26-5.57s5.26,2.49,5.26,5.57-2.02,5.59-5.26,5.59-5.26-2.51-5.26-5.59Zm8.78,0c0-2.16-1.25-4.09-3.52-4.09s-3.54,1.94-3.54,4.09,1.28,4.12,3.54,4.12,3.52-1.94,3.52-4.12Z"/><path class="cls-2" d="M51.98,189.11v-6.95c0-1.87-.95-2.46-2.38-2.46-1.3,0-2.53,.79-3.15,1.65v7.77h-1.65v-10.63h1.65v1.54c.75-.88,2.2-1.8,3.78-1.8,2.22,0,3.39,1.12,3.39,3.43v7.46h-1.65Z"/><path class="cls-2" d="M57.26,186.88v-6.95h-1.76v-1.45h1.76v-2.9h1.65v2.9h2.16v1.45h-2.16v6.6c0,.79,.35,1.36,1.08,1.36,.46,0,.9-.2,1.12-.44l.48,1.23c-.42,.4-1.01,.68-1.98,.68-1.56,0-2.36-.9-2.36-2.49Z"/><path class="cls-2" d="M63.4,189.11v-10.63h1.65v1.72c.86-1.12,2.09-1.94,3.54-1.94v1.69c-.2-.04-.4-.07-.66-.07-1.01,0-2.4,.84-2.88,1.69v7.53h-1.65Z"/><path class="cls-2" d="M70.37,175.58c0-.62,.51-1.1,1.1-1.1s1.12,.48,1.12,1.1-.51,1.12-1.12,1.12-1.1-.51-1.1-1.12Zm.29,13.53v-10.63h1.65v10.63h-1.65Z"/><path class="cls-2" d="M75.61,189.11v-14.68h1.65v5.65c.86-1.17,2.13-1.87,3.59-1.87,2.77,0,4.73,2.2,4.73,5.59s-1.96,5.57-4.73,5.57c-1.5,0-2.79-.77-3.59-1.85v1.58h-1.65Zm1.65-2.88c.57,.92,1.87,1.67,3.17,1.67,2.16,0,3.43-1.74,3.43-4.09s-1.28-4.11-3.43-4.11c-1.3,0-2.6,.79-3.17,1.72v4.82Z"/><path class="cls-2" d="M95.43,189.11v-1.5c-.81,.92-2.2,1.76-3.78,1.76-2.22,0-3.39-1.08-3.39-3.39v-7.5h1.65v7c0,1.87,.95,2.42,2.38,2.42,1.3,0,2.53-.75,3.15-1.61v-7.81h1.65v10.63h-1.65Z"/><path class="cls-2" d="M100.71,186.88v-6.95h-1.76v-1.45h1.76v-2.9h1.65v2.9h2.16v1.45h-2.16v6.6c0,.79,.35,1.36,1.08,1.36,.46,0,.9-.2,1.12-.44l.48,1.23c-.42,.4-1.01,.68-1.98,.68-1.56,0-2.35-.9-2.35-2.49Z"/><path class="cls-2" d="M111.47,178.22c3.21,0,5.1,2.51,5.1,5.7v.42h-8.6c.13,2,1.54,3.67,3.83,3.67,1.21,0,2.44-.48,3.28-1.34l.79,1.08c-1.06,1.06-2.49,1.63-4.22,1.63-3.15,0-5.41-2.27-5.41-5.59,0-3.08,2.2-5.57,5.24-5.57Zm-3.5,4.91h6.98c-.02-1.58-1.08-3.54-3.5-3.54-2.27,0-3.39,1.91-3.48,3.54Z"/><path class="cls-2" d="M125.24,186.88v-6.95h-1.76v-1.45h1.76v-2.9h1.65v2.9h2.16v1.45h-2.16v6.6c0,.79,.35,1.36,1.08,1.36,.46,0,.9-.2,1.12-.44l.48,1.23c-.42,.4-1.01,.68-1.98,.68-1.56,0-2.35-.9-2.35-2.49Z"/><path class="cls-2" d="M130.76,183.78c0-3.08,2.02-5.57,5.26-5.57s5.26,2.49,5.26,5.57-2.02,5.59-5.26,5.59-5.26-2.51-5.26-5.59Zm8.78,0c0-2.16-1.25-4.09-3.52-4.09s-3.54,1.94-3.54,4.09,1.28,4.12,3.54,4.12,3.52-1.94,3.52-4.12Z"/><path class="cls-2" d="M154.32,178.22c1.94,0,3.08,.79,3.89,1.85l-1.1,1.01c-.7-.97-1.61-1.39-2.71-1.39-2.27,0-3.67,1.74-3.67,4.09s1.41,4.12,3.67,4.12c1.1,0,2-.44,2.71-1.39l1.1,1.01c-.81,1.06-1.96,1.85-3.89,1.85-3.17,0-5.3-2.42-5.3-5.59s2.13-5.57,5.3-5.57Z"/><path class="cls-2" d="M159.91,183.78c0-3.08,2.02-5.57,5.26-5.57s5.26,2.49,5.26,5.57-2.02,5.59-5.26,5.59-5.26-2.51-5.26-5.59Zm8.78,0c0-2.16-1.25-4.09-3.52-4.09s-3.54,1.94-3.54,4.09,1.28,4.12,3.54,4.12,3.52-1.94,3.52-4.12Z"/><path class="cls-2" d="M180.28,189.11v-6.95c0-1.87-.95-2.46-2.38-2.46-1.3,0-2.53,.79-3.15,1.65v7.77h-1.65v-10.63h1.65v1.54c.75-.88,2.2-1.8,3.79-1.8,2.22,0,3.39,1.12,3.39,3.43v7.46h-1.65Z"/><path class="cls-2" d="M185.16,186.51c.7,.81,2.05,1.52,3.5,1.52,1.63,0,2.51-.73,2.51-1.76,0-1.17-1.3-1.54-2.73-1.89-1.8-.42-3.85-.9-3.85-3.1,0-1.65,1.43-3.06,3.96-3.06,1.8,0,3.08,.68,3.94,1.54l-.77,1.14c-.64-.77-1.8-1.34-3.17-1.34-1.45,0-2.35,.66-2.35,1.61,0,1.03,1.21,1.36,2.6,1.69,1.85,.42,3.98,.95,3.98,3.3,0,1.78-1.43,3.21-4.18,3.21-1.74,0-3.21-.53-4.29-1.67l.86-1.19Z"/><path class="cls-2" d="M200.08,178.22c3.21,0,5.11,2.51,5.11,5.7v.42h-8.6c.13,2,1.54,3.67,3.83,3.67,1.21,0,2.44-.48,3.28-1.34l.79,1.08c-1.06,1.06-2.49,1.63-4.22,1.63-3.15,0-5.41-2.27-5.41-5.59,0-3.08,2.2-5.57,5.24-5.57Zm-3.5,4.91h6.97c-.02-1.58-1.08-3.54-3.5-3.54-2.27,0-3.39,1.91-3.48,3.54Z"/><path class="cls-2" d="M207.85,189.11v-10.63h1.65v1.72c.86-1.12,2.09-1.94,3.54-1.94v1.69c-.2-.04-.4-.07-.66-.07-1.01,0-2.4,.84-2.88,1.69v7.53h-1.65Z"/><path class="cls-2" d="M217.94,189.11l-4.42-10.63h1.78l3.54,8.71,3.52-8.71h1.8l-4.42,10.63h-1.8Z"/><path class="cls-2" d="M230.51,178.22c3.21,0,5.1,2.51,5.1,5.7v.42h-8.6c.13,2,1.54,3.67,3.83,3.67,1.21,0,2.44-.48,3.28-1.34l.79,1.08c-1.06,1.06-2.49,1.63-4.22,1.63-3.15,0-5.41-2.27-5.41-5.59,0-3.08,2.2-5.57,5.24-5.57Zm-3.5,4.91h6.98c-.02-1.58-1.08-3.54-3.5-3.54-2.27,0-3.39,1.91-3.48,3.54Z"/><path class="cls-2" d="M27.84,215.51v-1.21c-.88,.97-2.09,1.47-3.52,1.47-1.8,0-3.72-1.21-3.72-3.52s1.92-3.5,3.72-3.5c1.45,0,2.66,.46,3.52,1.45v-1.92c0-1.43-1.14-2.24-2.68-2.24-1.28,0-2.31,.46-3.26,1.47l-.77-1.14c1.14-1.19,2.51-1.76,4.25-1.76,2.24,0,4.11,1.01,4.11,3.59v7.31h-1.65Zm0-4.25c-.64-.88-1.76-1.32-2.93-1.32-1.54,0-2.62,.97-2.62,2.33s1.08,2.31,2.62,2.31c1.17,0,2.29-.44,2.93-1.32v-2Z"/><path class="cls-2" d="M39.97,215.51v-6.95c0-1.87-.95-2.46-2.38-2.46-1.3,0-2.53,.79-3.15,1.65v7.77h-1.65v-10.63h1.65v1.54c.75-.88,2.2-1.8,3.78-1.8,2.22,0,3.39,1.12,3.39,3.43v7.46h-1.65Z"/><path class="cls-2" d="M52.62,215.51v-1.58c-.79,1.08-2.09,1.85-3.59,1.85-2.77,0-4.73-2.11-4.73-5.57s1.94-5.59,4.73-5.59c1.43,0,2.73,.7,3.59,1.87v-5.66h1.65v14.68h-1.65Zm0-7.7c-.59-.92-1.87-1.72-3.19-1.72-2.13,0-3.41,1.76-3.41,4.11s1.28,4.09,3.41,4.09c1.32,0,2.6-.75,3.19-1.67v-4.82Z"/><path class="cls-2" d="M63.24,215.51v-10.63h1.65v1.72c.86-1.12,2.09-1.94,3.54-1.94v1.69c-.2-.04-.4-.07-.66-.07-1.01,0-2.4,.84-2.88,1.69v7.53h-1.65Z"/><path class="cls-2" d="M75.12,204.62c3.21,0,5.1,2.51,5.1,5.7v.42h-8.6c.13,2,1.54,3.67,3.83,3.67,1.21,0,2.44-.48,3.28-1.34l.79,1.08c-1.06,1.06-2.49,1.63-4.22,1.63-3.15,0-5.41-2.27-5.41-5.59,0-3.08,2.2-5.57,5.24-5.57Zm-3.5,4.91h6.98c-.02-1.58-1.08-3.54-3.5-3.54-2.27,0-3.39,1.91-3.48,3.54Z"/><path class="cls-2" d="M82.82,212.91c.7,.81,2.05,1.52,3.5,1.52,1.63,0,2.51-.73,2.51-1.76,0-1.17-1.3-1.54-2.73-1.89-1.8-.42-3.85-.9-3.85-3.1,0-1.65,1.43-3.06,3.96-3.06,1.8,0,3.08,.68,3.94,1.54l-.77,1.14c-.64-.77-1.8-1.34-3.17-1.34-1.45,0-2.35,.66-2.35,1.61,0,1.03,1.21,1.36,2.6,1.69,1.85,.42,3.98,.95,3.98,3.3,0,1.78-1.43,3.21-4.18,3.21-1.74,0-3.21-.53-4.29-1.67l.86-1.19Z"/><path class="cls-2" d="M93.45,213.29v-6.95h-1.76v-1.45h1.76v-2.9h1.65v2.9h2.16v1.45h-2.16v6.6c0,.79,.35,1.37,1.08,1.37,.46,0,.9-.2,1.12-.44l.48,1.23c-.42,.4-1.01,.68-1.98,.68-1.56,0-2.35-.9-2.35-2.49Z"/><path class="cls-2" d="M98.97,210.18c0-3.08,2.02-5.57,5.26-5.57s5.26,2.49,5.26,5.57-2.02,5.59-5.26,5.59-5.26-2.51-5.26-5.59Zm8.78,0c0-2.16-1.25-4.09-3.52-4.09s-3.54,1.94-3.54,4.09,1.28,4.12,3.54,4.12,3.52-1.94,3.52-4.12Z"/><path class="cls-2" d="M112.17,215.51v-10.63h1.65v1.72c.86-1.12,2.09-1.94,3.54-1.94v1.69c-.2-.04-.4-.07-.66-.07-1.01,0-2.4,.84-2.88,1.69v7.53h-1.65Z"/><path class="cls-2" d="M124.05,204.62c3.21,0,5.11,2.51,5.11,5.7v.42h-8.6c.13,2,1.54,3.67,3.83,3.67,1.21,0,2.44-.48,3.28-1.34l.79,1.08c-1.06,1.06-2.49,1.63-4.22,1.63-3.15,0-5.41-2.27-5.41-5.59,0-3.08,2.2-5.57,5.24-5.57Zm-3.5,4.91h6.97c-.02-1.58-1.08-3.54-3.5-3.54-2.27,0-3.39,1.91-3.48,3.54Z"/><path class="cls-2" d="M137.82,213.29v-6.95h-1.76v-1.45h1.76v-2.9h1.65v2.9h2.16v1.45h-2.16v6.6c0,.79,.35,1.37,1.08,1.37,.46,0,.9-.2,1.12-.44l.48,1.23c-.42,.4-1.01,.68-1.98,.68-1.56,0-2.35-.9-2.35-2.49Z"/><path class="cls-2" d="M151.15,215.51v-7c0-1.87-.97-2.42-2.4-2.42-1.28,0-2.51,.79-3.15,1.65v7.77h-1.65v-14.68h1.65v5.59c.75-.88,2.2-1.8,3.81-1.8,2.22,0,3.39,1.08,3.39,3.39v7.5h-1.65Z"/><path class="cls-2" d="M160.72,204.62c3.21,0,5.1,2.51,5.1,5.7v.42h-8.6c.13,2,1.54,3.67,3.83,3.67,1.21,0,2.44-.48,3.28-1.34l.79,1.08c-1.06,1.06-2.49,1.63-4.22,1.63-3.15,0-5.41-2.27-5.41-5.59,0-3.08,2.2-5.57,5.24-5.57Zm-3.5,4.91h6.98c-.02-1.58-1.08-3.54-3.5-3.54-2.27,0-3.39,1.91-3.48,3.54Z"/><path class="cls-2" d="M181.32,215.51v-7.22c0-1.34-.59-2.2-1.96-2.2-1.1,0-2.27,.79-2.82,1.63v7.79h-1.65v-7.22c0-1.34-.57-2.2-1.96-2.2-1.08,0-2.22,.79-2.79,1.65v7.77h-1.65v-10.63h1.65v1.54c.44-.68,1.87-1.8,3.43-1.8s2.55,.88,2.86,1.98c.59-.97,2.02-1.98,3.56-1.98,1.94,0,2.97,1.08,2.97,3.21v7.68h-1.65Z"/><path class="cls-2" d="M187.14,213.31c.66,0,1.21,.55,1.21,1.21s-.55,1.21-1.21,1.21-1.21-.55-1.21-1.21,.55-1.21,1.21-1.21Z"/></g></g></g></svg>