<?xml version="1.0" encoding="UTF-8"?><svg id="Capa_2" xmlns="http://www.w3.org/2000/svg" viewBox="0 0 253 234"><defs><style>.cls-1{fill:#fff;}.cls-2{fill:#5d5d62;}</style></defs><g id="Capa_1-2"><rect class="cls-1" width="253" height="234" rx="20" ry="20"/><g><path class="cls-2" d="M28.19,14.72c2.6,0,4.4,1.14,5.7,2.75l-1.45,.9c-.92-1.19-2.49-2.02-4.25-2.02-3.21,0-5.66,2.46-5.66,5.96s2.44,5.98,5.66,5.98c1.76,0,3.21-.86,3.94-1.58v-2.99h-5.04v-1.63h6.87v5.3c-1.36,1.52-3.37,2.53-5.76,2.53-4.18,0-7.55-3.06-7.55-7.61s3.37-7.59,7.55-7.59Z"/><path class="cls-2" d="M41.48,18.74c3.21,0,5.1,2.51,5.1,5.7v.42h-8.6c.13,2,1.54,3.67,3.83,3.67,1.21,0,2.44-.48,3.28-1.34l.79,1.08c-1.06,1.06-2.49,1.63-4.22,1.63-3.15,0-5.41-2.27-5.41-5.59,0-3.08,2.2-5.57,5.24-5.57Zm-3.5,4.91h6.97c-.02-1.58-1.08-3.54-3.5-3.54-2.27,0-3.39,1.92-3.48,3.54Z"/><path class="cls-2" d="M56.42,29.63v-6.95c0-1.87-.95-2.46-2.38-2.46-1.3,0-2.53,.79-3.15,1.65v7.77h-1.65v-10.63h1.65v1.54c.75-.88,2.2-1.8,3.79-1.8,2.22,0,3.39,1.12,3.39,3.43v7.46h-1.65Z"/><path class="cls-2" d="M65.99,18.74c3.21,0,5.1,2.51,5.1,5.7v.42h-8.6c.13,2,1.54,3.67,3.83,3.67,1.21,0,2.44-.48,3.28-1.34l.79,1.08c-1.06,1.06-2.49,1.63-4.22,1.63-3.15,0-5.41-2.27-5.41-5.59,0-3.08,2.2-5.57,5.24-5.57Zm-3.5,4.91h6.97c-.02-1.58-1.08-3.54-3.5-3.54-2.27,0-3.39,1.92-3.48,3.54Z"/><path class="cls-2" d="M73.75,29.63v-10.63h1.65v1.72c.86-1.12,2.09-1.94,3.54-1.94v1.7c-.2-.04-.4-.07-.66-.07-1.01,0-2.4,.84-2.88,1.69v7.52h-1.65Z"/><path class="cls-2" d="M87.66,29.63v-1.21c-.88,.97-2.09,1.47-3.52,1.47-1.8,0-3.72-1.21-3.72-3.52s1.91-3.5,3.72-3.5c1.45,0,2.66,.46,3.52,1.45v-1.91c0-1.43-1.14-2.24-2.68-2.24-1.28,0-2.31,.46-3.26,1.47l-.77-1.14c1.14-1.19,2.51-1.76,4.25-1.76,2.24,0,4.12,1.01,4.12,3.59v7.3h-1.65Zm0-4.25c-.64-.88-1.76-1.32-2.93-1.32-1.54,0-2.62,.97-2.62,2.33s1.08,2.31,2.62,2.31c1.17,0,2.29-.44,2.93-1.32v-2Z"/><path class="cls-2" d="M92.94,27.41v-6.95h-1.76v-1.45h1.76v-2.9h1.65v2.9h2.16v1.45h-2.16v6.6c0,.79,.35,1.36,1.08,1.36,.46,0,.9-.2,1.12-.44l.48,1.23c-.42,.4-1.01,.68-1.98,.68-1.56,0-2.35-.9-2.35-2.49Z"/><path class="cls-2" d="M103.69,18.74c3.21,0,5.1,2.51,5.1,5.7v.42h-8.6c.13,2,1.54,3.67,3.83,3.67,1.21,0,2.44-.48,3.28-1.34l.79,1.08c-1.06,1.06-2.49,1.63-4.22,1.63-3.15,0-5.41-2.27-5.41-5.59,0-3.08,2.2-5.57,5.24-5.57Zm-3.5,4.91h6.97c-.02-1.58-1.08-3.54-3.5-3.54-2.27,0-3.39,1.92-3.48,3.54Z"/><path class="cls-2" d="M123.78,29.63v-1.21c-.88,.97-2.09,1.47-3.52,1.47-1.8,0-3.72-1.21-3.72-3.52s1.92-3.5,3.72-3.5c1.45,0,2.66,.46,3.52,1.45v-1.91c0-1.43-1.14-2.24-2.68-2.24-1.28,0-2.31,.46-3.26,1.47l-.77-1.14c1.14-1.19,2.51-1.76,4.25-1.76,2.25,0,4.12,1.01,4.12,3.59v7.3h-1.65Zm0-4.25c-.64-.88-1.76-1.32-2.93-1.32-1.54,0-2.62,.97-2.62,2.33s1.08,2.31,2.62,2.31c1.17,0,2.29-.44,2.93-1.32v-2Z"/><path class="cls-2" d="M136.52,29.63h-1.65v-9.17h-1.76v-1.45h1.76v-.81c0-2.2,1.23-3.45,3.08-3.45,.62,0,1.19,.11,1.61,.37l-.42,1.25c-.24-.15-.53-.26-.95-.26-1.08,0-1.67,.75-1.67,2.09v.81h2.16v1.45h-2.16v9.17Zm3.83-13.53c0-.62,.51-1.1,1.1-1.1s1.12,.48,1.12,1.1-.51,1.12-1.12,1.12-1.1-.51-1.1-1.12Zm.29,13.53v-10.63h1.65v10.63h-1.65Z"/><path class="cls-2" d="M145.6,29.63v-10.63h1.65v1.72c.86-1.12,2.09-1.94,3.54-1.94v1.7c-.2-.04-.4-.07-.66-.07-1.01,0-2.4,.84-2.88,1.69v7.52h-1.65Z"/><path class="cls-2" d="M152.8,27.04c.7,.81,2.05,1.52,3.5,1.52,1.63,0,2.51-.73,2.51-1.76,0-1.17-1.3-1.54-2.73-1.89-1.8-.42-3.85-.9-3.85-3.1,0-1.65,1.43-3.06,3.96-3.06,1.8,0,3.08,.68,3.94,1.54l-.77,1.14c-.64-.77-1.8-1.34-3.17-1.34-1.45,0-2.35,.66-2.35,1.61,0,1.03,1.21,1.36,2.6,1.69,1.85,.42,3.98,.95,3.98,3.3,0,1.78-1.43,3.21-4.18,3.21-1.74,0-3.21-.53-4.29-1.67l.86-1.19Z"/><path class="cls-2" d="M163.42,27.41v-6.95h-1.76v-1.45h1.76v-2.9h1.65v2.9h2.16v1.45h-2.16v6.6c0,.79,.35,1.36,1.08,1.36,.46,0,.9-.2,1.12-.44l.48,1.23c-.42,.4-1.01,.68-1.98,.68-1.56,0-2.35-.9-2.35-2.49Z"/><path class="cls-2" d="M27.82,56.03v-1.21c-.88,.97-2.09,1.47-3.52,1.47-1.8,0-3.72-1.21-3.72-3.52s1.91-3.5,3.72-3.5c1.45,0,2.66,.46,3.52,1.45v-1.91c0-1.43-1.14-2.24-2.68-2.24-1.28,0-2.31,.46-3.26,1.47l-.77-1.14c1.14-1.19,2.51-1.76,4.25-1.76,2.24,0,4.11,1.01,4.11,3.59v7.3h-1.65Zm0-4.25c-.64-.88-1.76-1.32-2.93-1.32-1.54,0-2.62,.97-2.62,2.33s1.08,2.31,2.62,2.31c1.17,0,2.29-.44,2.93-1.32v-2Z"/><path class="cls-2" d="M34.42,60.08h-1.65v-14.68h1.65v1.58c.77-1.08,2.09-1.85,3.59-1.85,2.79,0,4.73,2.11,4.73,5.57s-1.94,5.59-4.73,5.59c-1.45,0-2.73-.68-3.59-1.87v5.66Zm3.17-13.47c-1.3,0-2.6,.77-3.17,1.7v4.8c.57,.92,1.87,1.72,3.17,1.72,2.13,0,3.41-1.76,3.41-4.11s-1.28-4.09-3.41-4.09Z"/><path class="cls-2" d="M47.04,60.08h-1.65v-14.68h1.65v1.58c.77-1.08,2.09-1.85,3.59-1.85,2.79,0,4.73,2.11,4.73,5.57s-1.94,5.59-4.73,5.59c-1.45,0-2.73-.68-3.59-1.87v5.66Zm3.17-13.47c-1.3,0-2.6,.77-3.17,1.7v4.8c.57,.92,1.87,1.72,3.17,1.72,2.13,0,3.41-1.76,3.41-4.11s-1.28-4.09-3.41-4.09Z"/><path class="cls-2" d="M58.02,56.03v-10.63h1.65v1.72c.86-1.12,2.09-1.94,3.54-1.94v1.69c-.2-.04-.4-.07-.66-.07-1.01,0-2.4,.84-2.88,1.69v7.53h-1.65Z"/><path class="cls-2" d="M64.66,50.71c0-3.08,2.02-5.57,5.26-5.57s5.26,2.49,5.26,5.57-2.02,5.59-5.26,5.59-5.26-2.51-5.26-5.59Zm8.78,0c0-2.16-1.25-4.09-3.52-4.09s-3.54,1.94-3.54,4.09,1.28,4.11,3.54,4.11,3.52-1.94,3.52-4.11Z"/><path class="cls-2" d="M84.51,56.03v-1.21c-.88,.97-2.09,1.47-3.52,1.47-1.8,0-3.72-1.21-3.72-3.52s1.92-3.5,3.72-3.5c1.45,0,2.66,.46,3.52,1.45v-1.91c0-1.43-1.14-2.24-2.68-2.24-1.28,0-2.31,.46-3.26,1.47l-.77-1.14c1.14-1.19,2.51-1.76,4.25-1.76,2.25,0,4.12,1.01,4.12,3.59v7.3h-1.65Zm0-4.25c-.64-.88-1.76-1.32-2.93-1.32-1.54,0-2.62,.97-2.62,2.33s1.08,2.31,2.62,2.31c1.17,0,2.29-.44,2.93-1.32v-2Z"/><path class="cls-2" d="M94.15,45.14c1.94,0,3.08,.79,3.89,1.85l-1.1,1.01c-.7-.97-1.61-1.39-2.71-1.39-2.27,0-3.67,1.74-3.67,4.09s1.41,4.11,3.67,4.11c1.1,0,2-.44,2.71-1.39l1.1,1.01c-.81,1.06-1.96,1.85-3.89,1.85-3.17,0-5.3-2.42-5.3-5.59s2.13-5.57,5.3-5.57Z"/><path class="cls-2" d="M107.54,56.03v-7c0-1.87-.97-2.42-2.4-2.42-1.28,0-2.51,.79-3.15,1.65v7.77h-1.65v-14.68h1.65v5.59c.75-.88,2.2-1.8,3.81-1.8,2.22,0,3.39,1.08,3.39,3.39v7.5h-1.65Z"/><path class="cls-2" d="M117.55,50.71c0-3.08,2.02-5.57,5.26-5.57s5.26,2.49,5.26,5.57-2.02,5.59-5.26,5.59-5.26-2.51-5.26-5.59Zm8.78,0c0-2.16-1.25-4.09-3.52-4.09s-3.54,1.94-3.54,4.09,1.28,4.11,3.54,4.11,3.52-1.94,3.52-4.11Z"/><path class="cls-2" d="M132.86,46.86v9.18h-1.65v-9.18h-1.76v-1.45h1.76v-.81c0-2.2,1.23-3.46,3.08-3.46,.62,0,1.19,.11,1.61,.38l-.42,1.23c-.26-.15-.57-.24-.95-.24-1.08,0-1.67,.75-1.67,2.09v.81h2.16v1.45h-2.16Z"/><path class="cls-2" d="M142.98,53.81v-6.95h-1.76v-1.45h1.76v-2.91h1.65v2.91h2.16v1.45h-2.16v6.6c0,.79,.35,1.36,1.08,1.36,.46,0,.9-.2,1.12-.44l.48,1.23c-.42,.4-1.01,.68-1.98,.68-1.56,0-2.35-.9-2.35-2.49Z"/><path class="cls-2" d="M156.32,56.03v-7c0-1.87-.97-2.42-2.4-2.42-1.28,0-2.51,.79-3.15,1.65v7.77h-1.65v-14.68h1.65v5.59c.75-.88,2.2-1.8,3.81-1.8,2.22,0,3.39,1.08,3.39,3.39v7.5h-1.65Z"/><path class="cls-2" d="M165.89,45.14c3.21,0,5.1,2.51,5.1,5.7v.42h-8.6c.13,2,1.54,3.67,3.83,3.67,1.21,0,2.44-.48,3.28-1.34l.79,1.08c-1.06,1.06-2.49,1.63-4.22,1.63-3.15,0-5.41-2.27-5.41-5.59,0-3.08,2.2-5.57,5.24-5.57Zm-3.5,4.91h6.97c-.02-1.58-1.08-3.54-3.5-3.54-2.27,0-3.39,1.91-3.48,3.54Z"/><path class="cls-2" d="M21.11,79.84c.71,.81,2.05,1.52,3.5,1.52,1.63,0,2.51-.73,2.51-1.76,0-1.17-1.3-1.54-2.73-1.89-1.8-.42-3.85-.9-3.85-3.1,0-1.65,1.43-3.06,3.96-3.06,1.8,0,3.08,.68,3.94,1.54l-.77,1.14c-.64-.77-1.8-1.34-3.17-1.34-1.45,0-2.35,.66-2.35,1.61,0,1.03,1.21,1.36,2.6,1.69,1.85,.42,3.98,.95,3.98,3.3,0,1.78-1.43,3.21-4.18,3.21-1.74,0-3.21-.53-4.29-1.67l.86-1.19Z"/><path class="cls-2" d="M31.73,80.21v-6.95h-1.76v-1.45h1.76v-2.9h1.65v2.9h2.16v1.45h-2.16v6.6c0,.79,.35,1.36,1.08,1.36,.46,0,.9-.2,1.12-.44l.48,1.23c-.42,.4-1.01,.68-1.98,.68-1.56,0-2.35-.9-2.35-2.49Z"/><path class="cls-2" d="M45.04,82.43v-1.5c-.81,.92-2.2,1.76-3.79,1.76-2.22,0-3.39-1.08-3.39-3.39v-7.5h1.65v7c0,1.87,.95,2.42,2.38,2.42,1.3,0,2.53-.75,3.15-1.61v-7.81h1.65v10.63h-1.65Z"/><path class="cls-2" d="M57.69,82.43v-1.58c-.79,1.08-2.09,1.85-3.59,1.85-2.77,0-4.73-2.11-4.73-5.57s1.94-5.59,4.73-5.59c1.43,0,2.73,.7,3.59,1.87v-5.65h1.65v14.68h-1.65Zm0-7.7c-.59-.92-1.87-1.72-3.19-1.72-2.13,0-3.41,1.76-3.41,4.12s1.28,4.09,3.41,4.09c1.32,0,2.6-.75,3.19-1.67v-4.82Z"/><path class="cls-2" d="M67.26,71.54c3.21,0,5.11,2.51,5.11,5.7v.42h-8.6c.13,2,1.54,3.67,3.83,3.67,1.21,0,2.44-.48,3.28-1.34l.79,1.08c-1.06,1.06-2.49,1.63-4.22,1.63-3.15,0-5.41-2.27-5.41-5.59,0-3.08,2.2-5.57,5.24-5.57Zm-3.5,4.91h6.97c-.02-1.58-1.08-3.54-3.5-3.54-2.27,0-3.39,1.91-3.48,3.54Z"/><path class="cls-2" d="M82.2,82.43v-6.95c0-1.87-.95-2.46-2.38-2.46-1.3,0-2.53,.79-3.15,1.65v7.77h-1.65v-10.63h1.65v1.54c.75-.88,2.2-1.8,3.78-1.8,2.22,0,3.39,1.12,3.39,3.43v7.46h-1.65Z"/><path class="cls-2" d="M87.48,80.21v-6.95h-1.76v-1.45h1.76v-2.9h1.65v2.9h2.16v1.45h-2.16v6.6c0,.79,.35,1.36,1.08,1.36,.46,0,.9-.2,1.12-.44l.48,1.23c-.42,.4-1.01,.68-1.98,.68-1.56,0-2.35-.9-2.35-2.49Z"/><path class="cls-2" d="M108.49,82.43l-2.77-8.54-2.77,8.54h-1.65l-3.39-10.63h1.72l2.6,8.47,2.79-8.47h1.41l2.79,8.47,2.6-8.47h1.72l-3.39,10.63h-1.65Z"/><path class="cls-2" d="M115.15,68.9c0-.62,.51-1.1,1.1-1.1s1.12,.48,1.12,1.1-.51,1.12-1.12,1.12-1.1-.51-1.1-1.12Zm.29,13.53v-10.63h1.65v10.63h-1.65Z"/><path class="cls-2" d="M120.72,80.21v-6.95h-1.76v-1.45h1.76v-2.9h1.65v2.9h2.16v1.45h-2.16v6.6c0,.79,.35,1.36,1.08,1.36,.46,0,.9-.2,1.12-.44l.48,1.23c-.42,.4-1.01,.68-1.98,.68-1.56,0-2.35-.9-2.35-2.49Z"/><path class="cls-2" d="M134.05,82.43v-7c0-1.87-.97-2.42-2.4-2.42-1.28,0-2.51,.79-3.15,1.65v7.77h-1.65v-14.68h1.65v5.59c.75-.88,2.2-1.8,3.81-1.8,2.22,0,3.39,1.08,3.39,3.39v7.5h-1.65Z"/><path class="cls-2" d="M145.01,80.21v-6.95h-1.76v-1.45h1.76v-2.9h1.65v2.9h2.16v1.45h-2.16v6.6c0,.79,.35,1.36,1.08,1.36,.46,0,.9-.2,1.12-.44l.48,1.23c-.42,.4-1.01,.68-1.98,.68-1.56,0-2.35-.9-2.35-2.49Z"/><path class="cls-2" d="M158.34,82.43v-7c0-1.87-.97-2.42-2.4-2.42-1.28,0-2.51,.79-3.15,1.65v7.77h-1.65v-14.68h1.65v5.59c.75-.88,2.2-1.8,3.81-1.8,2.22,0,3.39,1.08,3.39,3.39v7.5h-1.65Z"/><path class="cls-2" d="M167.91,71.54c3.21,0,5.1,2.51,5.1,5.7v.42h-8.6c.13,2,1.54,3.67,3.83,3.67,1.21,0,2.44-.48,3.28-1.34l.79,1.08c-1.06,1.06-2.49,1.63-4.22,1.63-3.15,0-5.41-2.27-5.41-5.59,0-3.08,2.2-5.57,5.24-5.57Zm-3.5,4.91h6.98c-.02-1.58-1.08-3.54-3.5-3.54-2.27,0-3.39,1.91-3.48,3.54Z"/><path class="cls-2" d="M181.35,82.43v-14.68h1.65v5.65c.86-1.17,2.13-1.87,3.59-1.87,2.77,0,4.73,2.2,4.73,5.59s-1.96,5.57-4.73,5.57c-1.5,0-2.79-.77-3.59-1.85v1.58h-1.65Zm1.65-2.88c.57,.92,1.87,1.67,3.17,1.67,2.16,0,3.43-1.74,3.43-4.09s-1.28-4.12-3.43-4.12c-1.3,0-2.6,.79-3.17,1.72v4.82Z"/><path class="cls-2" d="M200.65,82.43v-1.21c-.88,.97-2.09,1.47-3.52,1.47-1.8,0-3.72-1.21-3.72-3.52s1.92-3.5,3.72-3.5c1.45,0,2.66,.46,3.52,1.45v-1.91c0-1.43-1.14-2.25-2.68-2.25-1.28,0-2.31,.46-3.26,1.47l-.77-1.14c1.14-1.19,2.51-1.76,4.25-1.76,2.24,0,4.11,1.01,4.11,3.59v7.3h-1.65Zm0-4.25c-.64-.88-1.76-1.32-2.93-1.32-1.54,0-2.62,.97-2.62,2.33s1.08,2.31,2.62,2.31c1.17,0,2.29-.44,2.93-1.32v-2Z"/><path class="cls-2" d="M205.53,79.84c.7,.81,2.05,1.52,3.5,1.52,1.63,0,2.51-.73,2.51-1.76,0-1.17-1.3-1.54-2.73-1.89-1.8-.42-3.85-.9-3.85-3.1,0-1.65,1.43-3.06,3.96-3.06,1.8,0,3.08,.68,3.94,1.54l-.77,1.14c-.64-.77-1.8-1.34-3.17-1.34-1.45,0-2.35,.66-2.35,1.61,0,1.03,1.21,1.36,2.6,1.69,1.85,.42,3.98,.95,3.98,3.3,0,1.78-1.43,3.21-4.18,3.21-1.74,0-3.21-.53-4.29-1.67l.86-1.19Z"/><path class="cls-2" d="M215.54,68.9c0-.62,.51-1.1,1.1-1.1s1.12,.48,1.12,1.1-.51,1.12-1.12,1.12-1.1-.51-1.1-1.12Zm.29,13.53v-10.63h1.65v10.63h-1.65Z"/><path class="cls-2" d="M225.46,71.54c1.94,0,3.08,.79,3.89,1.85l-1.1,1.01c-.7-.97-1.61-1.39-2.71-1.39-2.27,0-3.67,1.74-3.67,4.09s1.41,4.11,3.67,4.11c1.1,0,2-.44,2.71-1.39l1.1,1.01c-.81,1.06-1.96,1.85-3.89,1.85-3.17,0-5.3-2.42-5.3-5.59s2.13-5.57,5.3-5.57Z"/><path class="cls-2" d="M25.86,97.94c1.94,0,3.08,.79,3.89,1.85l-1.1,1.01c-.7-.97-1.61-1.39-2.71-1.39-2.27,0-3.67,1.74-3.67,4.09s1.41,4.11,3.67,4.11c1.1,0,2-.44,2.71-1.39l1.1,1.01c-.81,1.06-1.96,1.85-3.89,1.85-3.17,0-5.3-2.42-5.3-5.59s2.13-5.57,5.3-5.57Z"/><path class="cls-2" d="M31.45,103.51c0-3.08,2.02-5.57,5.26-5.57s5.26,2.49,5.26,5.57-2.02,5.59-5.26,5.59-5.26-2.51-5.26-5.59Zm8.78,0c0-2.16-1.25-4.09-3.52-4.09s-3.54,1.94-3.54,4.09,1.28,4.11,3.54,4.11,3.52-1.94,3.52-4.11Z"/><path class="cls-2" d="M51.82,108.83v-6.95c0-1.87-.95-2.46-2.38-2.46-1.3,0-2.53,.79-3.15,1.65v7.77h-1.65v-10.63h1.65v1.54c.75-.88,2.2-1.8,3.78-1.8,2.22,0,3.39,1.12,3.39,3.43v7.46h-1.65Z"/><path class="cls-2" d="M61.45,97.94c1.94,0,3.08,.79,3.89,1.85l-1.1,1.01c-.7-.97-1.61-1.39-2.71-1.39-2.27,0-3.67,1.74-3.67,4.09s1.41,4.11,3.67,4.11c1.1,0,2-.44,2.71-1.39l1.1,1.01c-.81,1.06-1.96,1.85-3.89,1.85-3.17,0-5.3-2.42-5.3-5.59s2.13-5.57,5.3-5.57Z"/><path class="cls-2" d="M72.28,97.94c3.21,0,5.1,2.51,5.1,5.7v.42h-8.6c.13,2,1.54,3.67,3.83,3.67,1.21,0,2.44-.48,3.28-1.34l.79,1.08c-1.06,1.06-2.49,1.63-4.22,1.63-3.15,0-5.41-2.27-5.41-5.59,0-3.08,2.2-5.57,5.24-5.57Zm-3.5,4.91h6.98c-.02-1.58-1.08-3.54-3.5-3.54-2.27,0-3.39,1.92-3.48,3.54Z"/><path class="cls-2" d="M81.69,112.88h-1.65v-14.68h1.65v1.58c.77-1.08,2.09-1.85,3.59-1.85,2.79,0,4.73,2.11,4.73,5.57s-1.94,5.59-4.73,5.59c-1.45,0-2.73-.68-3.59-1.87v5.66Zm3.17-13.47c-1.3,0-2.6,.77-3.17,1.69v4.8c.57,.92,1.87,1.72,3.17,1.72,2.13,0,3.41-1.76,3.41-4.11s-1.28-4.09-3.41-4.09Z"/><path class="cls-2" d="M93,106.61v-6.95h-1.76v-1.45h1.76v-2.91h1.65v2.91h2.16v1.45h-2.16v6.6c0,.79,.35,1.36,1.08,1.36,.46,0,.9-.2,1.12-.44l.48,1.23c-.42,.4-1.01,.68-1.98,.68-1.56,0-2.35-.9-2.35-2.49Z"/><path class="cls-2" d="M99.07,106.24c.7,.81,2.05,1.52,3.5,1.52,1.63,0,2.51-.73,2.51-1.76,0-1.17-1.3-1.54-2.73-1.89-1.8-.42-3.85-.9-3.85-3.1,0-1.65,1.43-3.06,3.96-3.06,1.8,0,3.08,.68,3.94,1.54l-.77,1.14c-.64-.77-1.8-1.34-3.17-1.34-1.45,0-2.35,.66-2.35,1.61,0,1.03,1.21,1.36,2.6,1.69,1.85,.42,3.98,.95,3.98,3.3,0,1.78-1.43,3.21-4.18,3.21-1.74,0-3.21-.53-4.29-1.67l.86-1.19Z"/><path class="cls-2" d="M114.43,103.51c0-3.08,2.02-5.57,5.26-5.57s5.26,2.49,5.26,5.57-2.02,5.59-5.26,5.59-5.26-2.51-5.26-5.59Zm8.78,0c0-2.16-1.25-4.09-3.52-4.09s-3.54,1.94-3.54,4.09,1.28,4.11,3.54,4.11,3.52-1.94,3.52-4.11Z"/><path class="cls-2" d="M129.74,99.66v9.17h-1.65v-9.17h-1.76v-1.45h1.76v-.81c0-2.2,1.23-3.45,3.08-3.45,.62,0,1.19,.11,1.61,.37l-.42,1.23c-.26-.15-.57-.24-.95-.24-1.08,0-1.67,.75-1.67,2.09v.81h2.16v1.45h-2.16Z"/><path class="cls-2" d="M139.53,108.83v-14.68h1.65v5.66c.86-1.17,2.13-1.87,3.59-1.87,2.77,0,4.73,2.2,4.73,5.59s-1.96,5.57-4.73,5.57c-1.5,0-2.79-.77-3.59-1.85v1.58h-1.65Zm1.65-2.88c.57,.92,1.87,1.67,3.17,1.67,2.16,0,3.43-1.74,3.43-4.09s-1.28-4.11-3.43-4.11c-1.3,0-2.6,.79-3.17,1.72v4.82Z"/><path class="cls-2" d="M152.18,108.83v-14.68h1.65v14.68h-1.65Z"/><path class="cls-2" d="M164.3,108.83v-1.5c-.81,.92-2.2,1.76-3.78,1.76-2.22,0-3.39-1.08-3.39-3.39v-7.5h1.65v7c0,1.87,.95,2.42,2.38,2.42,1.3,0,2.53-.75,3.15-1.61v-7.81h1.65v10.63h-1.65Z"/><path class="cls-2" d="M173.87,97.94c3.21,0,5.1,2.51,5.1,5.7v.42h-8.6c.13,2,1.54,3.67,3.83,3.67,1.21,0,2.44-.48,3.28-1.34l.79,1.08c-1.06,1.06-2.49,1.63-4.22,1.63-3.15,0-5.41-2.27-5.41-5.59,0-3.08,2.2-5.57,5.24-5.57Zm-3.5,4.91h6.97c-.02-1.58-1.08-3.54-3.5-3.54-2.27,0-3.39,1.92-3.48,3.54Z"/><path class="cls-2" d="M25.86,124.34c1.94,0,3.08,.79,3.89,1.85l-1.1,1.01c-.7-.97-1.61-1.39-2.71-1.39-2.27,0-3.67,1.74-3.67,4.09s1.41,4.12,3.67,4.12c1.1,0,2-.44,2.71-1.39l1.1,1.01c-.81,1.06-1.96,1.85-3.89,1.85-3.17,0-5.3-2.42-5.3-5.59s2.13-5.57,5.3-5.57Z"/><path class="cls-2" d="M38.71,135.23v-1.21c-.88,.97-2.09,1.47-3.52,1.47-1.8,0-3.72-1.21-3.72-3.52s1.91-3.5,3.72-3.5c1.45,0,2.66,.46,3.52,1.45v-1.91c0-1.43-1.14-2.25-2.68-2.25-1.28,0-2.31,.46-3.26,1.47l-.77-1.14c1.14-1.19,2.51-1.76,4.25-1.76,2.24,0,4.12,1.01,4.12,3.59v7.31h-1.65Zm0-4.25c-.64-.88-1.76-1.32-2.93-1.32-1.54,0-2.62,.97-2.62,2.33s1.08,2.31,2.62,2.31c1.17,0,2.29-.44,2.93-1.32v-2Z"/><path class="cls-2" d="M43.66,135.23v-10.63h1.65v1.72c.86-1.12,2.09-1.94,3.54-1.94v1.69c-.2-.04-.4-.07-.66-.07-1.01,0-2.4,.84-2.88,1.69v7.53h-1.65Z"/><path class="cls-2" d="M50.91,135.23v-14.68h1.65v5.65c.86-1.17,2.13-1.87,3.59-1.87,2.77,0,4.73,2.2,4.73,5.59s-1.96,5.57-4.73,5.57c-1.5,0-2.79-.77-3.59-1.85v1.58h-1.65Zm1.65-2.88c.57,.92,1.87,1.67,3.17,1.67,2.16,0,3.43-1.74,3.43-4.09s-1.28-4.11-3.43-4.11c-1.3,0-2.6,.79-3.17,1.72v4.82Z"/><path class="cls-2" d="M62.95,129.91c0-3.08,2.02-5.57,5.26-5.57s5.26,2.49,5.26,5.57-2.02,5.59-5.26,5.59-5.26-2.51-5.26-5.59Zm8.78,0c0-2.16-1.25-4.09-3.52-4.09s-3.54,1.94-3.54,4.09,1.28,4.12,3.54,4.12,3.52-1.94,3.52-4.12Z"/><path class="cls-2" d="M83.32,135.23v-6.95c0-1.87-.95-2.46-2.38-2.46-1.3,0-2.53,.79-3.15,1.65v7.77h-1.65v-10.63h1.65v1.54c.75-.88,2.2-1.8,3.79-1.8,2.22,0,3.39,1.12,3.39,3.43v7.46h-1.65Z"/><path class="cls-2" d="M87.87,137.35c.7-.46,1.34-1.32,1.43-2.05-.04,.02-.2,.04-.31,.04-.62,0-1.06-.46-1.06-1.12s.51-1.19,1.17-1.19c.73,0,1.39,.62,1.39,1.67,0,1.34-.79,2.6-1.8,3.32l-.81-.68Z"/><path class="cls-2" d="M108.2,135.23l-2.77-8.54-2.77,8.54h-1.65l-3.39-10.63h1.72l2.6,8.47,2.79-8.47h1.41l2.79,8.47,2.6-8.47h1.72l-3.39,10.63h-1.65Z"/><path class="cls-2" d="M122.35,135.23v-7c0-1.87-.97-2.42-2.4-2.42-1.28,0-2.51,.79-3.15,1.65v7.77h-1.65v-14.68h1.65v5.59c.75-.88,2.2-1.8,3.81-1.8,2.22,0,3.39,1.08,3.39,3.39v7.5h-1.65Z"/><path class="cls-2" d="M131.92,124.34c3.21,0,5.1,2.51,5.1,5.7v.42h-8.6c.13,2,1.54,3.67,3.83,3.67,1.21,0,2.44-.48,3.28-1.34l.79,1.08c-1.06,1.06-2.49,1.63-4.22,1.63-3.15,0-5.41-2.27-5.41-5.59,0-3.08,2.2-5.57,5.24-5.57Zm-3.5,4.91h6.98c-.02-1.58-1.08-3.54-3.5-3.54-2.27,0-3.39,1.91-3.48,3.54Z"/><path class="cls-2" d="M139.68,135.23v-10.63h1.65v1.72c.86-1.12,2.09-1.94,3.54-1.94v1.69c-.2-.04-.4-.07-.66-.07-1.01,0-2.4,.84-2.88,1.69v7.53h-1.65Z"/><path class="cls-2" d="M151.56,124.34c3.21,0,5.1,2.51,5.1,5.7v.42h-8.6c.13,2,1.54,3.67,3.83,3.67,1.21,0,2.44-.48,3.28-1.34l.79,1.08c-1.06,1.06-2.49,1.63-4.22,1.63-3.15,0-5.41-2.27-5.41-5.59,0-3.08,2.2-5.57,5.24-5.57Zm-3.5,4.91h6.97c-.02-1.58-1.08-3.54-3.5-3.54-2.27,0-3.39,1.91-3.48,3.54Z"/><path class="cls-2" d="M164.72,121.7c0-.62,.51-1.1,1.1-1.1s1.12,.48,1.12,1.1-.51,1.12-1.12,1.12-1.1-.51-1.1-1.12Zm.29,13.53v-10.63h1.65v10.63h-1.65Z"/><path class="cls-2" d="M170.29,133.01v-6.95h-1.76v-1.45h1.76v-2.9h1.65v2.9h2.16v1.45h-2.16v6.6c0,.79,.35,1.36,1.08,1.36,.46,0,.9-.2,1.12-.44l.48,1.23c-.42,.4-1.01,.68-1.98,.68-1.56,0-2.35-.9-2.35-2.49Z"/><path class="cls-2" d="M181.81,121.7c0-.62,.51-1.1,1.1-1.1s1.12,.48,1.12,1.1-.51,1.12-1.12,1.12-1.1-.51-1.1-1.12Zm.29,13.53v-10.63h1.65v10.63h-1.65Z"/><path class="cls-2" d="M186.98,132.64c.7,.81,2.05,1.52,3.5,1.52,1.63,0,2.51-.73,2.51-1.76,0-1.17-1.3-1.54-2.73-1.89-1.8-.42-3.85-.9-3.85-3.1,0-1.65,1.43-3.06,3.96-3.06,1.8,0,3.08,.68,3.94,1.54l-.77,1.14c-.64-.77-1.8-1.34-3.17-1.34-1.45,0-2.35,.66-2.35,1.61,0,1.03,1.21,1.36,2.6,1.69,1.85,.42,3.98,.95,3.98,3.3,0,1.78-1.43,3.21-4.18,3.21-1.74,0-3.21-.53-4.29-1.67l.86-1.19Z"/><path class="cls-2" d="M23.28,152.46v9.17h-1.65v-9.17h-1.76v-1.45h1.76v-.81c0-2.2,1.23-3.45,3.08-3.45,.62,0,1.19,.11,1.61,.37l-.42,1.23c-.26-.15-.57-.24-.95-.24-1.08,0-1.67,.75-1.67,2.09v.81h2.16v1.45h-2.16Z"/><path class="cls-2" d="M26.78,156.31c0-3.08,2.02-5.57,5.26-5.57s5.26,2.49,5.26,5.57-2.02,5.59-5.26,5.59-5.26-2.51-5.26-5.59Zm8.78,0c0-2.16-1.25-4.09-3.52-4.09s-3.54,1.94-3.54,4.09,1.28,4.12,3.54,4.12,3.52-1.94,3.52-4.12Z"/><path class="cls-2" d="M47.15,161.63v-1.5c-.81,.92-2.2,1.76-3.78,1.76-2.22,0-3.39-1.08-3.39-3.39v-7.5h1.65v7c0,1.87,.95,2.42,2.38,2.42,1.3,0,2.53-.75,3.15-1.61v-7.81h1.65v10.63h-1.65Z"/><path class="cls-2" d="M59.28,161.63v-6.95c0-1.87-.95-2.46-2.38-2.46-1.3,0-2.53,.79-3.15,1.65v7.77h-1.65v-10.63h1.65v1.54c.75-.88,2.2-1.8,3.78-1.8,2.22,0,3.39,1.12,3.39,3.43v7.46h-1.65Z"/><path class="cls-2" d="M71.93,161.63v-1.58c-.79,1.08-2.09,1.85-3.59,1.85-2.77,0-4.73-2.11-4.73-5.57s1.94-5.59,4.73-5.59c1.43,0,2.73,.7,3.59,1.87v-5.66h1.65v14.68h-1.65Zm0-7.7c-.59-.92-1.87-1.72-3.19-1.72-2.13,0-3.41,1.76-3.41,4.11s1.28,4.09,3.41,4.09c1.32,0,2.6-.75,3.19-1.67v-4.82Z"/><path class="cls-2" d="M89.2,161.63v-1.21c-.88,.97-2.09,1.47-3.52,1.47-1.8,0-3.72-1.21-3.72-3.52s1.91-3.5,3.72-3.5c1.45,0,2.66,.46,3.52,1.45v-1.91c0-1.43-1.14-2.24-2.68-2.24-1.28,0-2.31,.46-3.26,1.47l-.77-1.14c1.14-1.19,2.51-1.76,4.25-1.76,2.24,0,4.11,1.01,4.11,3.59v7.3h-1.65Zm0-4.25c-.64-.88-1.76-1.32-2.93-1.32-1.54,0-2.62,.97-2.62,2.33s1.08,2.31,2.62,2.31c1.17,0,2.29-.44,2.93-1.32v-2Z"/><path class="cls-2" d="M101.32,161.63v-6.95c0-1.87-.95-2.46-2.38-2.46-1.3,0-2.53,.79-3.15,1.65v7.77h-1.65v-10.63h1.65v1.54c.75-.88,2.2-1.8,3.79-1.8,2.22,0,3.39,1.12,3.39,3.43v7.46h-1.65Z"/><path class="cls-2" d="M113.97,161.63v-1.58c-.79,1.08-2.09,1.85-3.59,1.85-2.77,0-4.73-2.11-4.73-5.57s1.94-5.59,4.73-5.59c1.43,0,2.73,.7,3.59,1.87v-5.66h1.65v14.68h-1.65Zm0-7.7c-.59-.92-1.87-1.72-3.19-1.72-2.13,0-3.41,1.76-3.41,4.11s1.28,4.09,3.41,4.09c1.32,0,2.6-.75,3.19-1.67v-4.82Z"/><path class="cls-2" d="M124.92,159.41v-6.95h-1.76v-1.45h1.76v-2.9h1.65v2.9h2.16v1.45h-2.16v6.6c0,.79,.35,1.37,1.08,1.37,.46,0,.9-.2,1.12-.44l.48,1.23c-.42,.4-1.01,.68-1.98,.68-1.56,0-2.35-.9-2.35-2.49Z"/><path class="cls-2" d="M138.26,161.63v-7c0-1.87-.97-2.42-2.4-2.42-1.28,0-2.51,.79-3.15,1.65v7.77h-1.65v-14.68h1.65v5.59c.75-.88,2.2-1.8,3.81-1.8,2.22,0,3.39,1.08,3.39,3.39v7.5h-1.65Z"/><path class="cls-2" d="M147.82,150.74c3.21,0,5.11,2.51,5.11,5.7v.42h-8.6c.13,2,1.54,3.67,3.83,3.67,1.21,0,2.44-.48,3.28-1.34l.79,1.08c-1.06,1.06-2.49,1.63-4.22,1.63-3.15,0-5.41-2.27-5.41-5.59,0-3.08,2.2-5.57,5.24-5.57Zm-3.5,4.91h6.97c-.02-1.58-1.08-3.54-3.5-3.54-2.27,0-3.39,1.92-3.48,3.54Z"/><path class="cls-2" d="M161.2,159.04c.7,.81,2.05,1.52,3.5,1.52,1.63,0,2.51-.73,2.51-1.76,0-1.17-1.3-1.54-2.73-1.89-1.8-.42-3.85-.9-3.85-3.1,0-1.65,1.43-3.06,3.96-3.06,1.8,0,3.08,.68,3.94,1.54l-.77,1.14c-.64-.77-1.8-1.34-3.17-1.34-1.45,0-2.35,.66-2.35,1.61,0,1.03,1.21,1.36,2.6,1.69,1.85,.42,3.98,.95,3.98,3.3,0,1.78-1.43,3.21-4.18,3.21-1.74,0-3.21-.53-4.29-1.67l.86-1.19Z"/><path class="cls-2" d="M171.83,159.41v-6.95h-1.76v-1.45h1.76v-2.9h1.65v2.9h2.16v1.45h-2.16v6.6c0,.79,.35,1.37,1.08,1.37,.46,0,.9-.2,1.12-.44l.48,1.23c-.42,.4-1.01,.68-1.98,.68-1.56,0-2.35-.9-2.35-2.49Z"/><path class="cls-2" d="M184.61,161.63v-1.21c-.88,.97-2.09,1.47-3.52,1.47-1.8,0-3.72-1.21-3.72-3.52s1.91-3.5,3.72-3.5c1.45,0,2.66,.46,3.52,1.45v-1.91c0-1.43-1.14-2.24-2.68-2.24-1.28,0-2.31,.46-3.26,1.47l-.77-1.14c1.14-1.19,2.51-1.76,4.25-1.76,2.25,0,4.12,1.01,4.12,3.59v7.3h-1.65Zm0-4.25c-.64-.88-1.76-1.32-2.93-1.32-1.54,0-2.62,.97-2.62,2.33s1.08,2.31,2.62,2.31c1.17,0,2.29-.44,2.93-1.32v-2Z"/><path class="cls-2" d="M189.89,159.41v-6.95h-1.76v-1.45h1.76v-2.9h1.65v2.9h2.16v1.45h-2.16v6.6c0,.79,.35,1.37,1.08,1.37,.46,0,.9-.2,1.12-.44l.48,1.23c-.42,.4-1.01,.68-1.98,.68-1.56,0-2.35-.9-2.35-2.49Z"/><path class="cls-2" d="M200.65,150.74c3.21,0,5.1,2.51,5.1,5.7v.42h-8.6c.13,2,1.54,3.67,3.83,3.67,1.21,0,2.44-.48,3.28-1.34l.79,1.08c-1.06,1.06-2.49,1.63-4.22,1.63-3.15,0-5.41-2.27-5.41-5.59,0-3.08,2.2-5.57,5.24-5.57Zm-3.5,4.91h6.98c-.02-1.58-1.08-3.54-3.5-3.54-2.27,0-3.39,1.92-3.48,3.54Z"/><path class="cls-2" d="M213.47,156.31c0-3.08,2.02-5.57,5.26-5.57s5.26,2.49,5.26,5.57-2.02,5.59-5.26,5.59-5.26-2.51-5.26-5.59Zm8.78,0c0-2.16-1.25-4.09-3.52-4.09s-3.54,1.94-3.54,4.09,1.28,4.12,3.54,4.12,3.52-1.94,3.52-4.12Z"/><path class="cls-2" d="M228.78,152.46v9.17h-1.65v-9.17h-1.76v-1.45h1.76v-.81c0-2.2,1.23-3.45,3.08-3.45,.62,0,1.19,.11,1.61,.37l-.42,1.23c-.26-.15-.57-.24-.95-.24-1.08,0-1.67,.75-1.67,2.09v.81h2.16v1.45h-2.16Z"/><path class="cls-2" d="M21.5,185.81v-6.95h-1.76v-1.45h1.76v-2.9h1.65v2.9h2.16v1.45h-2.16v6.6c0,.79,.35,1.36,1.08,1.36,.46,0,.9-.2,1.12-.44l.48,1.23c-.42,.4-1.01,.68-1.98,.68-1.56,0-2.35-.9-2.35-2.49Z"/><path class="cls-2" d="M34.83,188.03v-7c0-1.87-.97-2.42-2.4-2.42-1.28,0-2.51,.79-3.15,1.65v7.77h-1.65v-14.68h1.65v5.59c.75-.88,2.2-1.8,3.81-1.8,2.22,0,3.39,1.08,3.39,3.39v7.5h-1.65Z"/><path class="cls-2" d="M44.4,177.14c3.21,0,5.1,2.51,5.1,5.7v.42h-8.6c.13,2,1.54,3.68,3.83,3.68,1.21,0,2.44-.48,3.28-1.34l.79,1.08c-1.06,1.06-2.49,1.63-4.22,1.63-3.15,0-5.41-2.27-5.41-5.59,0-3.08,2.2-5.57,5.24-5.57Zm-3.5,4.91h6.98c-.02-1.58-1.08-3.54-3.5-3.54-2.27,0-3.39,1.91-3.48,3.54Z"/><path class="cls-2" d="M64.49,188.03v-1.21c-.88,.97-2.09,1.47-3.52,1.47-1.8,0-3.72-1.21-3.72-3.52s1.91-3.5,3.72-3.5c1.45,0,2.66,.46,3.52,1.45v-1.91c0-1.43-1.14-2.24-2.68-2.24-1.28,0-2.31,.46-3.26,1.47l-.77-1.14c1.14-1.19,2.51-1.76,4.25-1.76,2.24,0,4.12,1.01,4.12,3.59v7.3h-1.65Zm0-4.25c-.64-.88-1.76-1.32-2.93-1.32-1.54,0-2.62,.97-2.62,2.33s1.08,2.31,2.62,2.31c1.17,0,2.29-.44,2.93-1.32v-2Z"/><path class="cls-2" d="M69.44,188.03v-10.63h1.65v1.72c.86-1.12,2.09-1.94,3.54-1.94v1.69c-.2-.04-.4-.07-.66-.07-1.01,0-2.4,.84-2.88,1.69v7.53h-1.65Z"/><path class="cls-2" d="M77.03,185.81v-6.95h-1.76v-1.45h1.76v-2.9h1.65v2.9h2.16v1.45h-2.16v6.6c0,.79,.35,1.36,1.08,1.36,.46,0,.9-.2,1.12-.44l.48,1.23c-.42,.4-1.01,.68-1.98,.68-1.56,0-2.35-.9-2.35-2.49Z"/><path class="cls-2" d="M88.56,174.5c0-.62,.51-1.1,1.1-1.1s1.12,.48,1.12,1.1-.51,1.12-1.12,1.12-1.1-.51-1.1-1.12Zm.29,13.53v-10.63h1.65v10.63h-1.65Z"/><path class="cls-2" d="M100.96,188.03v-6.95c0-1.87-.95-2.46-2.38-2.46-1.3,0-2.53,.79-3.15,1.65v7.77h-1.65v-10.63h1.65v1.54c.75-.88,2.2-1.8,3.78-1.8,2.22,0,3.39,1.12,3.39,3.43v7.46h-1.65Z"/><path class="cls-2" d="M111.52,185.44c.7,.81,2.05,1.52,3.5,1.52,1.63,0,2.51-.73,2.51-1.76,0-1.17-1.3-1.54-2.73-1.89-1.8-.42-3.85-.9-3.85-3.1,0-1.65,1.43-3.06,3.96-3.06,1.8,0,3.08,.68,3.94,1.54l-.77,1.14c-.64-.77-1.8-1.34-3.17-1.34-1.45,0-2.35,.66-2.35,1.61,0,1.03,1.21,1.36,2.6,1.69,1.85,.42,3.98,.95,3.98,3.3,0,1.78-1.43,3.21-4.18,3.21-1.74,0-3.21-.53-4.29-1.67l.86-1.19Z"/><path class="cls-2" d="M126.51,177.14c1.94,0,3.08,.79,3.89,1.85l-1.1,1.01c-.7-.97-1.61-1.39-2.71-1.39-2.27,0-3.67,1.74-3.67,4.09s1.41,4.11,3.67,4.11c1.1,0,2-.44,2.71-1.39l1.1,1.01c-.81,1.06-1.96,1.85-3.89,1.85-3.17,0-5.3-2.42-5.3-5.59s2.13-5.57,5.3-5.57Z"/><path class="cls-2" d="M132.42,174.5c0-.62,.51-1.1,1.1-1.1s1.12,.48,1.12,1.1-.51,1.12-1.12,1.12-1.1-.51-1.1-1.12Zm.29,13.53v-10.63h1.65v10.63h-1.65Z"/><path class="cls-2" d="M142.28,177.14c3.21,0,5.1,2.51,5.1,5.7v.42h-8.6c.13,2,1.54,3.68,3.83,3.68,1.21,0,2.44-.48,3.28-1.34l.79,1.08c-1.06,1.06-2.49,1.63-4.22,1.63-3.15,0-5.41-2.27-5.41-5.59,0-3.08,2.2-5.57,5.24-5.57Zm-3.5,4.91h6.98c-.02-1.58-1.08-3.54-3.5-3.54-2.27,0-3.39,1.91-3.48,3.54Z"/><path class="cls-2" d="M157.22,188.03v-6.95c0-1.87-.95-2.46-2.38-2.46-1.3,0-2.53,.79-3.15,1.65v7.77h-1.65v-10.63h1.65v1.54c.75-.88,2.2-1.8,3.79-1.8,2.22,0,3.39,1.12,3.39,3.43v7.46h-1.65Z"/><path class="cls-2" d="M166.85,177.14c1.94,0,3.08,.79,3.89,1.85l-1.1,1.01c-.7-.97-1.61-1.39-2.71-1.39-2.27,0-3.67,1.74-3.67,4.09s1.41,4.11,3.67,4.11c1.1,0,2-.44,2.71-1.39l1.1,1.01c-.81,1.06-1.96,1.85-3.89,1.85-3.17,0-5.3-2.42-5.3-5.59s2.13-5.57,5.3-5.57Z"/><path class="cls-2" d="M177.68,177.14c3.21,0,5.1,2.51,5.1,5.7v.42h-8.6c.13,2,1.54,3.68,3.83,3.68,1.21,0,2.44-.48,3.28-1.34l.79,1.08c-1.06,1.06-2.49,1.63-4.22,1.63-3.15,0-5.41-2.27-5.41-5.59,0-3.08,2.2-5.57,5.24-5.57Zm-3.5,4.91h6.97c-.02-1.58-1.08-3.54-3.5-3.54-2.27,0-3.39,1.91-3.48,3.54Z"/><path class="cls-2" d="M184.89,190.15c.7-.46,1.34-1.32,1.43-2.05-.04,.02-.2,.04-.31,.04-.62,0-1.06-.46-1.06-1.12s.51-1.19,1.17-1.19c.73,0,1.39,.62,1.39,1.67,0,1.34-.79,2.6-1.8,3.32l-.81-.68Z"/><path class="cls-2" d="M22.82,218.48h-1.65v-14.68h1.65v1.58c.77-1.08,2.09-1.85,3.59-1.85,2.79,0,4.73,2.11,4.73,5.57s-1.94,5.59-4.73,5.59c-1.45,0-2.73-.68-3.59-1.87v5.66Zm3.17-13.47c-1.3,0-2.6,.77-3.17,1.69v4.8c.57,.92,1.87,1.72,3.17,1.72,2.13,0,3.41-1.76,3.41-4.11s-1.28-4.09-3.41-4.09Z"/><path class="cls-2" d="M33.18,209.11c0-3.08,2.02-5.57,5.26-5.57s5.26,2.49,5.26,5.57-2.02,5.59-5.26,5.59-5.26-2.51-5.26-5.59Zm8.78,0c0-2.16-1.25-4.09-3.52-4.09s-3.54,1.94-3.54,4.09,1.28,4.11,3.54,4.11,3.52-1.94,3.52-4.11Z"/><path class="cls-2" d="M46.38,214.43v-14.68h1.65v14.68h-1.65Z"/><path class="cls-2" d="M51.05,200.9c0-.62,.51-1.1,1.1-1.1s1.12,.48,1.12,1.1-.51,1.12-1.12,1.12-1.1-.51-1.1-1.12Zm.29,13.53v-10.63h1.65v10.63h-1.65Z"/><path class="cls-2" d="M60.97,203.54c1.94,0,3.08,.79,3.89,1.85l-1.1,1.01c-.7-.97-1.61-1.39-2.71-1.39-2.27,0-3.67,1.74-3.67,4.09s1.41,4.11,3.67,4.11c1.1,0,2-.44,2.71-1.39l1.1,1.01c-.81,1.06-1.96,1.85-3.89,1.85-3.17,0-5.3-2.42-5.3-5.59s2.13-5.57,5.3-5.57Z"/><path class="cls-2" d="M66.84,217.1c.24,.11,.64,.18,.9,.18,.73,0,1.21-.24,1.58-1.12l.7-1.61-4.44-10.74h1.78l3.54,8.71,3.52-8.71h1.8l-5.32,12.78c-.64,1.54-1.72,2.13-3.12,2.16-.35,0-.9-.07-1.21-.15l.26-1.5Z"/><path class="cls-2" d="M90.27,214.43v-1.21c-.88,.97-2.09,1.47-3.52,1.47-1.8,0-3.72-1.21-3.72-3.52s1.91-3.5,3.72-3.5c1.45,0,2.66,.46,3.52,1.45v-1.92c0-1.43-1.14-2.24-2.68-2.24-1.28,0-2.31,.46-3.26,1.47l-.77-1.14c1.14-1.19,2.51-1.76,4.25-1.76,2.24,0,4.11,1.01,4.11,3.59v7.31h-1.65Zm0-4.25c-.64-.88-1.76-1.32-2.93-1.32-1.54,0-2.62,.97-2.62,2.33s1.08,2.31,2.62,2.31c1.17,0,2.29-.44,2.93-1.32v-2Z"/><path class="cls-2" d="M102.4,214.43v-6.95c0-1.87-.95-2.46-2.38-2.46-1.3,0-2.53,.79-3.15,1.65v7.77h-1.65v-10.63h1.65v1.54c.75-.88,2.2-1.8,3.78-1.8,2.22,0,3.39,1.12,3.39,3.43v7.46h-1.65Z"/><path class="cls-2" d="M115.05,214.43v-1.58c-.79,1.08-2.09,1.85-3.59,1.85-2.77,0-4.73-2.11-4.73-5.57s1.94-5.59,4.73-5.59c1.43,0,2.73,.71,3.59,1.87v-5.66h1.65v14.68h-1.65Zm0-7.7c-.59-.92-1.87-1.72-3.19-1.72-2.13,0-3.41,1.76-3.41,4.12s1.28,4.09,3.41,4.09c1.32,0,2.6-.75,3.19-1.67v-4.82Z"/><path class="cls-2" d="M127.78,214.43h-1.65v-9.18h-1.76v-1.45h1.76v-.81c0-2.2,1.23-3.45,3.08-3.45,.62,0,1.19,.11,1.61,.37l-.42,1.25c-.24-.15-.53-.26-.95-.26-1.08,0-1.67,.75-1.67,2.09v.81h2.16v1.45h-2.16v9.18Zm3.83-13.53c0-.62,.51-1.1,1.1-1.1s1.12,.48,1.12,1.1-.51,1.12-1.12,1.12-1.1-.51-1.1-1.12Zm.29,13.53v-10.63h1.65v10.63h-1.65Z"/><path class="cls-2" d="M144.04,214.43v-6.95c0-1.87-.95-2.46-2.38-2.46-1.3,0-2.53,.79-3.15,1.65v7.77h-1.65v-10.63h1.65v1.54c.75-.88,2.2-1.8,3.78-1.8,2.22,0,3.39,1.12,3.39,3.43v7.46h-1.65Z"/><path class="cls-2" d="M155.63,214.43v-1.21c-.88,.97-2.09,1.47-3.52,1.47-1.8,0-3.72-1.21-3.72-3.52s1.91-3.5,3.72-3.5c1.45,0,2.66,.46,3.52,1.45v-1.92c0-1.43-1.14-2.24-2.68-2.24-1.28,0-2.31,.46-3.26,1.47l-.77-1.14c1.14-1.19,2.51-1.76,4.25-1.76,2.24,0,4.11,1.01,4.11,3.59v7.31h-1.65Zm0-4.25c-.64-.88-1.76-1.32-2.93-1.32-1.54,0-2.62,.97-2.62,2.33s1.08,2.31,2.62,2.31c1.17,0,2.29-.44,2.93-1.32v-2Z"/><path class="cls-2" d="M167.76,214.43v-6.95c0-1.87-.95-2.46-2.38-2.46-1.3,0-2.53,.79-3.15,1.65v7.77h-1.65v-10.63h1.65v1.54c.75-.88,2.2-1.8,3.78-1.8,2.22,0,3.39,1.12,3.39,3.43v7.46h-1.65Z"/><path class="cls-2" d="M177.39,203.54c1.94,0,3.08,.79,3.89,1.85l-1.1,1.01c-.71-.97-1.61-1.39-2.71-1.39-2.27,0-3.67,1.74-3.67,4.09s1.41,4.11,3.67,4.11c1.1,0,2-.44,2.71-1.39l1.1,1.01c-.81,1.06-1.96,1.85-3.89,1.85-3.17,0-5.3-2.42-5.3-5.59s2.13-5.57,5.3-5.57Z"/><path class="cls-2" d="M188.22,203.54c3.21,0,5.1,2.51,5.1,5.7v.42h-8.6c.13,2,1.54,3.67,3.83,3.67,1.21,0,2.44-.48,3.28-1.34l.79,1.08c-1.06,1.06-2.49,1.63-4.22,1.63-3.15,0-5.41-2.27-5.41-5.59,0-3.08,2.2-5.57,5.24-5.57Zm-3.5,4.91h6.98c-.02-1.58-1.08-3.54-3.5-3.54-2.27,0-3.39,1.91-3.48,3.54Z"/><path class="cls-2" d="M196.71,212.23c.66,0,1.21,.55,1.21,1.21s-.55,1.21-1.21,1.21-1.21-.55-1.21-1.21,.55-1.21,1.21-1.21Z"/></g></g></svg>