<?xml version="1.0" encoding="UTF-8"?><svg id="Capa_2" xmlns="http://www.w3.org/2000/svg" viewBox="0 0 253 262"><defs><style>.cls-1{fill:#fff;}.cls-2{fill:#5d5d62;}</style></defs><g id="Capa_1-2"><rect class="cls-1" width="253" height="262" rx="20" ry="20"/><g><path class="cls-2" d="M21.45,31.28v-14.68h5.9c2.95,0,4.6,2.02,4.6,4.42s-1.69,4.42-4.6,4.42h-4.07v5.83h-1.83Zm5.68-13.05h-3.85v5.59h3.85c1.74,0,2.93-1.14,2.93-2.79s-1.19-2.79-2.93-2.79Z"/><path class="cls-2" d="M34.3,31.28v-10.63h1.65v1.72c.86-1.12,2.09-1.94,3.54-1.94v1.69c-.2-.04-.4-.07-.66-.07-1.01,0-2.4,.84-2.88,1.69v7.53h-1.65Z"/><path class="cls-2" d="M40.94,25.96c0-3.08,2.02-5.57,5.26-5.57s5.26,2.49,5.26,5.57-2.02,5.59-5.26,5.59-5.26-2.51-5.26-5.59Zm8.78,0c0-2.16-1.25-4.09-3.52-4.09s-3.54,1.94-3.54,4.09,1.28,4.11,3.54,4.11,3.52-1.94,3.52-4.11Z"/><path class="cls-2" d="M56.98,31.28l-4.42-10.63h1.78l3.54,8.71,3.52-8.71h1.8l-4.42,10.63h-1.8Z"/><path class="cls-2" d="M64.64,17.75c0-.62,.51-1.1,1.1-1.1s1.12,.48,1.12,1.1-.51,1.12-1.12,1.12-1.1-.51-1.1-1.12Zm.29,13.53v-10.63h1.65v10.63h-1.65Z"/><path class="cls-2" d="M77.57,31.28v-1.58c-.79,1.08-2.09,1.85-3.59,1.85-2.77,0-4.73-2.11-4.73-5.57s1.94-5.59,4.73-5.59c1.43,0,2.73,.7,3.59,1.87v-5.65h1.65v14.68h-1.65Zm0-7.7c-.59-.92-1.87-1.72-3.19-1.72-2.13,0-3.41,1.76-3.41,4.12s1.28,4.09,3.41,4.09c1.32,0,2.6-.75,3.19-1.67v-4.82Z"/><path class="cls-2" d="M87.14,20.39c3.21,0,5.1,2.51,5.1,5.7v.42h-8.6c.13,2,1.54,3.67,3.83,3.67,1.21,0,2.44-.48,3.28-1.34l.79,1.08c-1.06,1.06-2.49,1.63-4.22,1.63-3.15,0-5.41-2.27-5.41-5.59,0-3.08,2.2-5.57,5.24-5.57Zm-3.5,4.91h6.98c-.02-1.58-1.08-3.54-3.5-3.54-2.27,0-3.39,1.91-3.48,3.54Z"/><path class="cls-2" d="M100.52,28.68c.7,.81,2.05,1.52,3.5,1.52,1.63,0,2.51-.73,2.51-1.76,0-1.17-1.3-1.54-2.73-1.89-1.8-.42-3.85-.9-3.85-3.1,0-1.65,1.43-3.06,3.96-3.06,1.8,0,3.08,.68,3.94,1.54l-.77,1.14c-.64-.77-1.8-1.34-3.17-1.34-1.45,0-2.35,.66-2.35,1.61,0,1.03,1.21,1.36,2.6,1.69,1.85,.42,3.98,.95,3.98,3.3,0,1.78-1.43,3.21-4.18,3.21-1.74,0-3.21-.53-4.29-1.67l.86-1.19Z"/><path class="cls-2" d="M110.2,25.96c0-3.08,2.02-5.57,5.26-5.57s5.26,2.49,5.26,5.57-2.02,5.59-5.26,5.59-5.26-2.51-5.26-5.59Zm8.78,0c0-2.16-1.25-4.09-3.52-4.09s-3.54,1.94-3.54,4.09,1.28,4.11,3.54,4.11,3.52-1.94,3.52-4.11Z"/><path class="cls-2" d="M136.22,31.28v-7.22c0-1.34-.59-2.2-1.96-2.2-1.1,0-2.27,.79-2.82,1.63v7.79h-1.65v-7.22c0-1.34-.57-2.2-1.96-2.2-1.08,0-2.22,.79-2.79,1.65v7.77h-1.65v-10.63h1.65v1.54c.44-.68,1.87-1.8,3.43-1.8s2.55,.88,2.86,1.98c.59-.97,2.02-1.98,3.56-1.98,1.94,0,2.97,1.08,2.97,3.21v7.68h-1.65Z"/><path class="cls-2" d="M145.79,20.39c3.21,0,5.1,2.51,5.1,5.7v.42h-8.6c.13,2,1.54,3.67,3.83,3.67,1.21,0,2.44-.48,3.28-1.34l.79,1.08c-1.06,1.06-2.49,1.63-4.22,1.63-3.15,0-5.41-2.27-5.41-5.59,0-3.08,2.2-5.57,5.24-5.57Zm-3.5,4.91h6.98c-.02-1.58-1.08-3.54-3.5-3.54-2.27,0-3.39,1.91-3.48,3.54Z"/><path class="cls-2" d="M23.04,61.73h-1.65v-14.68h1.65v1.58c.77-1.08,2.09-1.85,3.59-1.85,2.79,0,4.73,2.11,4.73,5.57s-1.94,5.59-4.73,5.59c-1.45,0-2.73-.68-3.59-1.87v5.66Zm3.17-13.47c-1.3,0-2.6,.77-3.17,1.7v4.8c.57,.92,1.87,1.72,3.17,1.72,2.13,0,3.41-1.76,3.41-4.11s-1.28-4.09-3.41-4.09Z"/><path class="cls-2" d="M34.01,57.68v-10.63h1.65v1.72c.86-1.12,2.09-1.94,3.54-1.94v1.69c-.2-.04-.4-.07-.66-.07-1.01,0-2.4,.84-2.88,1.69v7.53h-1.65Z"/><path class="cls-2" d="M47.92,57.68v-1.21c-.88,.97-2.09,1.47-3.52,1.47-1.8,0-3.72-1.21-3.72-3.52s1.92-3.5,3.72-3.5c1.45,0,2.66,.46,3.52,1.45v-1.91c0-1.43-1.14-2.24-2.68-2.24-1.28,0-2.31,.46-3.26,1.47l-.77-1.14c1.14-1.19,2.51-1.76,4.25-1.76,2.24,0,4.11,1.01,4.11,3.59v7.3h-1.65Zm0-4.25c-.64-.88-1.76-1.32-2.93-1.32-1.54,0-2.62,.97-2.62,2.33s1.08,2.31,2.62,2.31c1.17,0,2.29-.44,2.93-1.32v-2Z"/><path class="cls-2" d="M57.55,46.79c1.94,0,3.08,.79,3.89,1.85l-1.1,1.01c-.7-.97-1.61-1.39-2.71-1.39-2.27,0-3.67,1.74-3.67,4.09s1.41,4.11,3.67,4.11c1.1,0,2-.44,2.71-1.39l1.1,1.01c-.81,1.06-1.96,1.85-3.89,1.85-3.17,0-5.3-2.42-5.3-5.59s2.13-5.57,5.3-5.57Z"/><path class="cls-2" d="M64.09,55.46v-6.95h-1.76v-1.45h1.76v-2.9h1.65v2.9h2.16v1.45h-2.16v6.6c0,.79,.35,1.36,1.08,1.36,.46,0,.9-.2,1.12-.44l.48,1.23c-.42,.4-1.01,.68-1.98,.68-1.56,0-2.35-.9-2.35-2.49Z"/><path class="cls-2" d="M69.94,44.15c0-.62,.51-1.1,1.1-1.1s1.12,.48,1.12,1.1-.51,1.12-1.12,1.12-1.1-.51-1.1-1.12Zm.29,13.53v-10.63h1.65v10.63h-1.65Z"/><path class="cls-2" d="M79.86,46.79c1.94,0,3.08,.79,3.89,1.85l-1.1,1.01c-.7-.97-1.61-1.39-2.71-1.39-2.27,0-3.67,1.74-3.67,4.09s1.41,4.11,3.67,4.11c1.1,0,2-.44,2.71-1.39l1.1,1.01c-.81,1.06-1.96,1.85-3.89,1.85-3.17,0-5.3-2.42-5.3-5.59s2.13-5.57,5.3-5.57Z"/><path class="cls-2" d="M92.71,57.68v-1.21c-.88,.97-2.09,1.47-3.52,1.47-1.8,0-3.72-1.21-3.72-3.52s1.91-3.5,3.72-3.5c1.45,0,2.66,.46,3.52,1.45v-1.91c0-1.43-1.14-2.24-2.68-2.24-1.28,0-2.31,.46-3.26,1.47l-.77-1.14c1.14-1.19,2.51-1.76,4.25-1.76,2.24,0,4.11,1.01,4.11,3.59v7.3h-1.65Zm0-4.25c-.64-.88-1.76-1.32-2.93-1.32-1.54,0-2.62,.97-2.62,2.33s1.08,2.31,2.62,2.31c1.17,0,2.29-.44,2.93-1.32v-2Z"/><path class="cls-2" d="M97.66,57.68v-14.68h1.65v14.68h-1.65Z"/><path class="cls-2" d="M112.9,46.79c3.21,0,5.1,2.51,5.1,5.7v.42h-8.6c.13,2,1.54,3.68,3.83,3.68,1.21,0,2.44-.48,3.28-1.34l.79,1.08c-1.06,1.06-2.49,1.63-4.22,1.63-3.15,0-5.41-2.27-5.41-5.59,0-3.08,2.2-5.57,5.24-5.57Zm-3.5,4.91h6.98c-.02-1.58-1.08-3.54-3.5-3.54-2.27,0-3.39,1.91-3.48,3.54Z"/><path class="cls-2" d="M126.85,57.68l-3.19-4.36-3.19,4.36h-1.89l4.07-5.46-3.85-5.17h1.91l2.95,4.05,2.95-4.05h1.92l-3.85,5.17,4.09,5.46h-1.92Z"/><path class="cls-2" d="M137.3,57.68v-1.21c-.88,.97-2.09,1.47-3.52,1.47-1.8,0-3.72-1.21-3.72-3.52s1.91-3.5,3.72-3.5c1.45,0,2.66,.46,3.52,1.45v-1.91c0-1.43-1.14-2.24-2.68-2.24-1.28,0-2.31,.46-3.26,1.47l-.77-1.14c1.14-1.19,2.51-1.76,4.25-1.76,2.25,0,4.12,1.01,4.12,3.59v7.3h-1.65Zm0-4.25c-.64-.88-1.76-1.32-2.93-1.32-1.54,0-2.62,.97-2.62,2.33s1.08,2.31,2.62,2.31c1.17,0,2.29-.44,2.93-1.32v-2Z"/><path class="cls-2" d="M155.08,57.68v-7.22c0-1.34-.59-2.2-1.96-2.2-1.1,0-2.27,.79-2.82,1.63v7.79h-1.65v-7.22c0-1.34-.57-2.2-1.96-2.2-1.08,0-2.22,.79-2.79,1.65v7.77h-1.65v-10.63h1.65v1.54c.44-.68,1.87-1.8,3.43-1.8s2.55,.88,2.86,1.98c.59-.97,2.02-1.98,3.56-1.98,1.94,0,2.97,1.08,2.97,3.21v7.68h-1.65Z"/><path class="cls-2" d="M161.68,61.73h-1.65v-14.68h1.65v1.58c.77-1.08,2.09-1.85,3.59-1.85,2.79,0,4.73,2.11,4.73,5.57s-1.94,5.59-4.73,5.59c-1.45,0-2.73-.68-3.59-1.87v5.66Zm3.17-13.47c-1.3,0-2.6,.77-3.17,1.7v4.8c.57,.92,1.87,1.72,3.17,1.72,2.13,0,3.41-1.76,3.41-4.11s-1.28-4.09-3.41-4.09Z"/><path class="cls-2" d="M172.65,57.68v-14.68h1.65v14.68h-1.65Z"/><path class="cls-2" d="M182.22,46.79c3.21,0,5.11,2.51,5.11,5.7v.42h-8.6c.13,2,1.54,3.68,3.83,3.68,1.21,0,2.44-.48,3.28-1.34l.79,1.08c-1.06,1.06-2.49,1.63-4.22,1.63-3.15,0-5.41-2.27-5.41-5.59,0-3.08,2.2-5.57,5.24-5.57Zm-3.5,4.91h6.97c-.02-1.58-1.08-3.54-3.5-3.54-2.27,0-3.39,1.91-3.48,3.54Z"/><path class="cls-2" d="M189.92,55.08c.7,.81,2.05,1.52,3.5,1.52,1.63,0,2.51-.73,2.51-1.76,0-1.17-1.3-1.54-2.73-1.89-1.8-.42-3.85-.9-3.85-3.1,0-1.65,1.43-3.06,3.96-3.06,1.8,0,3.08,.68,3.94,1.54l-.77,1.14c-.64-.77-1.8-1.34-3.17-1.34-1.45,0-2.35,.66-2.35,1.61,0,1.03,1.21,1.36,2.6,1.69,1.85,.42,3.98,.95,3.98,3.3,0,1.78-1.43,3.21-4.18,3.21-1.74,0-3.21-.53-4.29-1.67l.86-1.19Z"/><path class="cls-2" d="M205.28,52.36c0-3.08,2.02-5.57,5.26-5.57s5.26,2.49,5.26,5.57-2.02,5.59-5.26,5.59-5.26-2.51-5.26-5.59Zm8.78,0c0-2.16-1.25-4.09-3.52-4.09s-3.54,1.94-3.54,4.09,1.28,4.11,3.54,4.11,3.52-1.94,3.52-4.11Z"/><path class="cls-2" d="M220.59,48.5v9.18h-1.65v-9.18h-1.76v-1.45h1.76v-.81c0-2.2,1.23-3.46,3.08-3.46,.62,0,1.19,.11,1.61,.38l-.42,1.23c-.26-.15-.57-.24-.95-.24-1.08,0-1.67,.75-1.67,2.09v.81h2.16v1.45h-2.16Z"/><path class="cls-2" d="M21.38,84.08v-14.68h1.65v5.66c.86-1.17,2.13-1.87,3.59-1.87,2.77,0,4.73,2.2,4.73,5.59s-1.96,5.57-4.73,5.57c-1.5,0-2.79-.77-3.59-1.85v1.58h-1.65Zm1.65-2.88c.57,.92,1.87,1.67,3.17,1.67,2.16,0,3.43-1.74,3.43-4.09s-1.28-4.12-3.43-4.12c-1.3,0-2.6,.79-3.17,1.72v4.82Z"/><path class="cls-2" d="M34.04,84.08v-14.68h1.65v14.68h-1.65Z"/><path class="cls-2" d="M46.16,84.08v-1.5c-.81,.92-2.2,1.76-3.78,1.76-2.22,0-3.39-1.08-3.39-3.39v-7.5h1.65v7c0,1.87,.95,2.42,2.38,2.42,1.3,0,2.53-.75,3.15-1.61v-7.81h1.65v10.63h-1.65Z"/><path class="cls-2" d="M55.73,73.19c3.21,0,5.1,2.51,5.1,5.7v.42h-8.6c.13,2,1.54,3.67,3.83,3.67,1.21,0,2.44-.48,3.28-1.34l.79,1.08c-1.06,1.06-2.49,1.63-4.22,1.63-3.15,0-5.41-2.27-5.41-5.59,0-3.08,2.2-5.57,5.24-5.57Zm-3.5,4.91h6.98c-.02-1.58-1.08-3.54-3.5-3.54-2.27,0-3.39,1.91-3.48,3.54Z"/><path class="cls-2" d="M73.85,73.19c1.94,0,3.08,.79,3.89,1.85l-1.1,1.01c-.7-.97-1.61-1.39-2.71-1.39-2.27,0-3.67,1.74-3.67,4.09s1.41,4.11,3.67,4.11c1.1,0,2-.44,2.71-1.39l1.1,1.01c-.81,1.06-1.96,1.85-3.89,1.85-3.17,0-5.3-2.42-5.3-5.59s2.13-5.57,5.3-5.57Z"/><path class="cls-2" d="M86.7,84.08v-1.21c-.88,.97-2.09,1.47-3.52,1.47-1.8,0-3.72-1.21-3.72-3.52s1.91-3.5,3.72-3.5c1.45,0,2.66,.46,3.52,1.45v-1.92c0-1.43-1.14-2.24-2.68-2.24-1.28,0-2.31,.46-3.26,1.47l-.77-1.14c1.14-1.19,2.51-1.76,4.25-1.76,2.25,0,4.12,1.01,4.12,3.59v7.31h-1.65Zm0-4.25c-.64-.88-1.76-1.32-2.93-1.32-1.54,0-2.62,.97-2.62,2.33s1.08,2.31,2.62,2.31c1.17,0,2.29-.44,2.93-1.32v-2Z"/><path class="cls-2" d="M91.65,84.08v-10.63h1.65v1.72c.86-1.12,2.09-1.94,3.54-1.94v1.69c-.2-.04-.4-.07-.66-.07-1.01,0-2.4,.84-2.88,1.69v7.53h-1.65Z"/><path class="cls-2" d="M98.91,84.08v-14.68h1.65v5.66c.86-1.17,2.13-1.87,3.59-1.87,2.77,0,4.73,2.2,4.73,5.59s-1.96,5.57-4.73,5.57c-1.5,0-2.79-.77-3.59-1.85v1.58h-1.65Zm1.65-2.88c.57,.92,1.87,1.67,3.17,1.67,2.16,0,3.43-1.74,3.43-4.09s-1.28-4.12-3.43-4.12c-1.3,0-2.6,.79-3.17,1.72v4.82Z"/><path class="cls-2" d="M110.95,78.76c0-3.08,2.02-5.57,5.26-5.57s5.26,2.49,5.26,5.57-2.02,5.59-5.26,5.59-5.26-2.51-5.26-5.59Zm8.78,0c0-2.16-1.25-4.09-3.52-4.09s-3.54,1.94-3.54,4.09,1.28,4.11,3.54,4.11,3.52-1.94,3.52-4.11Z"/><path class="cls-2" d="M131.32,84.08v-6.95c0-1.87-.95-2.46-2.38-2.46-1.3,0-2.53,.79-3.15,1.65v7.77h-1.65v-10.63h1.65v1.54c.75-.88,2.2-1.8,3.78-1.8,2.22,0,3.39,1.12,3.39,3.43v7.46h-1.65Z"/><path class="cls-2" d="M143.59,88.13h-1.65v-14.68h1.65v1.58c.77-1.08,2.09-1.85,3.59-1.85,2.79,0,4.73,2.11,4.73,5.57s-1.94,5.59-4.73,5.59c-1.45,0-2.73-.68-3.59-1.87v5.66Zm3.17-13.47c-1.3,0-2.6,.77-3.17,1.69v4.8c.57,.92,1.87,1.72,3.17,1.72,2.13,0,3.41-1.76,3.41-4.11s-1.28-4.09-3.41-4.09Z"/><path class="cls-2" d="M154.57,84.08v-10.63h1.65v1.72c.86-1.12,2.09-1.94,3.54-1.94v1.69c-.2-.04-.4-.07-.66-.07-1.01,0-2.4,.84-2.88,1.69v7.53h-1.65Z"/><path class="cls-2" d="M161.21,78.76c0-3.08,2.02-5.57,5.26-5.57s5.26,2.49,5.26,5.57-2.02,5.59-5.26,5.59-5.26-2.51-5.26-5.59Zm8.78,0c0-2.16-1.25-4.09-3.52-4.09s-3.54,1.94-3.54,4.09,1.28,4.11,3.54,4.11,3.52-1.94,3.52-4.11Z"/><path class="cls-2" d="M176.06,73.45v11.66c0,2.09-1.12,3.28-3.12,3.28-.46,0-.84-.04-1.19-.15l.22-1.39c.22,.09,.53,.11,.79,.11,.97,0,1.65-.51,1.65-1.85v-11.66h1.65Zm-1.94-2.9c0-.62,.51-1.1,1.1-1.1s1.12,.48,1.12,1.1-.51,1.12-1.12,1.12-1.1-.51-1.1-1.12Z"/><path class="cls-2" d="M183.98,73.19c3.21,0,5.11,2.51,5.11,5.7v.42h-8.6c.13,2,1.54,3.67,3.83,3.67,1.21,0,2.44-.48,3.28-1.34l.79,1.08c-1.06,1.06-2.49,1.63-4.22,1.63-3.15,0-5.41-2.27-5.41-5.59,0-3.08,2.2-5.57,5.24-5.57Zm-3.5,4.91h6.97c-.02-1.58-1.08-3.54-3.5-3.54-2.27,0-3.39,1.91-3.48,3.54Z"/><path class="cls-2" d="M196.44,73.19c1.94,0,3.08,.79,3.89,1.85l-1.1,1.01c-.7-.97-1.61-1.39-2.71-1.39-2.27,0-3.67,1.74-3.67,4.09s1.41,4.11,3.67,4.11c1.1,0,2-.44,2.71-1.39l1.1,1.01c-.81,1.06-1.96,1.85-3.89,1.85-3.17,0-5.3-2.42-5.3-5.59s2.13-5.57,5.3-5.57Z"/><path class="cls-2" d="M202.97,81.86v-6.95h-1.76v-1.45h1.76v-2.9h1.65v2.9h2.16v1.45h-2.16v6.6c0,.79,.35,1.36,1.08,1.36,.46,0,.9-.2,1.12-.44l.48,1.23c-.42,.4-1.01,.68-1.98,.68-1.56,0-2.35-.9-2.35-2.49Z"/><path class="cls-2" d="M209.04,81.48c.7,.81,2.05,1.52,3.5,1.52,1.63,0,2.51-.73,2.51-1.76,0-1.17-1.3-1.54-2.73-1.89-1.8-.42-3.85-.9-3.85-3.1,0-1.65,1.43-3.06,3.96-3.06,1.8,0,3.08,.68,3.94,1.54l-.77,1.14c-.64-.77-1.8-1.34-3.17-1.34-1.45,0-2.35,.66-2.35,1.61,0,1.03,1.21,1.36,2.6,1.69,1.85,.42,3.98,.95,3.98,3.3,0,1.78-1.43,3.21-4.18,3.21-1.74,0-3.21-.53-4.29-1.67l.86-1.19Z"/><path class="cls-2" d="M218.94,86.19c.7-.46,1.34-1.32,1.43-2.05-.04,.02-.2,.04-.31,.04-.62,0-1.06-.46-1.06-1.12s.51-1.19,1.17-1.19c.73,0,1.39,.62,1.39,1.67,0,1.34-.79,2.6-1.8,3.32l-.81-.68Z"/><path class="cls-2" d="M28.03,110.48v-1.21c-.88,.97-2.09,1.47-3.52,1.47-1.8,0-3.72-1.21-3.72-3.52s1.91-3.5,3.72-3.5c1.45,0,2.66,.46,3.52,1.45v-1.91c0-1.43-1.14-2.25-2.68-2.25-1.28,0-2.31,.46-3.26,1.47l-.77-1.14c1.14-1.19,2.51-1.76,4.25-1.76,2.24,0,4.11,1.01,4.11,3.59v7.31h-1.65Zm0-4.25c-.64-.88-1.76-1.32-2.93-1.32-1.54,0-2.62,.97-2.62,2.33s1.08,2.31,2.62,2.31c1.17,0,2.29-.44,2.93-1.32v-2Z"/><path class="cls-2" d="M32.98,110.48v-14.68h1.65v14.68h-1.65Z"/><path class="cls-2" d="M37.31,105.16c0-3.08,2.02-5.57,5.26-5.57s5.26,2.49,5.26,5.57-2.02,5.59-5.26,5.59-5.26-2.51-5.26-5.59Zm8.78,0c0-2.16-1.25-4.09-3.52-4.09s-3.54,1.94-3.54,4.09,1.28,4.12,3.54,4.12,3.52-1.94,3.52-4.12Z"/><path class="cls-2" d="M57.69,110.48v-6.95c0-1.87-.95-2.46-2.38-2.46-1.3,0-2.53,.79-3.15,1.65v7.77h-1.65v-10.63h1.65v1.54c.75-.88,2.2-1.8,3.79-1.8,2.22,0,3.39,1.12,3.39,3.43v7.46h-1.65Z"/><path class="cls-2" d="M63.45,111.98c.88,1.06,1.94,1.45,3.45,1.45,1.76,0,3.41-.86,3.41-3.19v-1.52c-.77,1.08-2.07,1.89-3.56,1.89-2.77,0-4.73-2.07-4.73-5.5s1.94-5.52,4.73-5.52c1.43,0,2.71,.7,3.56,1.87v-1.61h1.65v10.32c0,3.52-2.46,4.62-5.06,4.62-1.8,0-3.04-.35-4.29-1.58l.84-1.23Zm6.87-9.2c-.57-.92-1.85-1.72-3.17-1.72-2.13,0-3.41,1.69-3.41,4.05s1.28,4.05,3.41,4.05c1.32,0,2.6-.81,3.17-1.74v-4.64Z"/><path class="cls-2" d="M90.13,110.48l-2.77-8.54-2.77,8.54h-1.65l-3.39-10.63h1.72l2.6,8.47,2.79-8.47h1.41l2.79,8.47,2.6-8.47h1.72l-3.39,10.63h-1.65Z"/><path class="cls-2" d="M96.8,96.95c0-.62,.51-1.1,1.1-1.1s1.12,.48,1.12,1.1-.51,1.12-1.12,1.12-1.1-.51-1.1-1.12Zm.29,13.53v-10.63h1.65v10.63h-1.65Z"/><path class="cls-2" d="M102.37,108.26v-6.95h-1.76v-1.45h1.76v-2.9h1.65v2.9h2.16v1.45h-2.16v6.6c0,.79,.35,1.36,1.08,1.36,.46,0,.9-.2,1.12-.44l.48,1.23c-.42,.4-1.01,.68-1.98,.68-1.56,0-2.35-.9-2.35-2.49Z"/><path class="cls-2" d="M115.7,110.48v-7c0-1.87-.97-2.42-2.4-2.42-1.28,0-2.51,.79-3.15,1.65v7.77h-1.65v-14.68h1.65v5.59c.75-.88,2.2-1.8,3.81-1.8,2.22,0,3.39,1.08,3.39,3.39v7.5h-1.65Z"/><path class="cls-2" d="M139.15,110.48v-7.22c0-1.34-.59-2.2-1.96-2.2-1.1,0-2.27,.79-2.82,1.63v7.79h-1.65v-7.22c0-1.34-.57-2.2-1.96-2.2-1.08,0-2.22,.79-2.79,1.65v7.77h-1.65v-10.63h1.65v1.54c.44-.68,1.87-1.8,3.43-1.8s2.55,.88,2.86,1.98c.59-.97,2.02-1.98,3.56-1.98,1.94,0,2.97,1.08,2.97,3.21v7.68h-1.65Z"/><path class="cls-2" d="M150.74,110.48v-1.21c-.88,.97-2.09,1.47-3.52,1.47-1.8,0-3.72-1.21-3.72-3.52s1.91-3.5,3.72-3.5c1.45,0,2.66,.46,3.52,1.45v-1.91c0-1.43-1.14-2.25-2.68-2.25-1.28,0-2.31,.46-3.26,1.47l-.77-1.14c1.14-1.19,2.51-1.76,4.25-1.76,2.24,0,4.12,1.01,4.12,3.59v7.31h-1.65Zm0-4.25c-.64-.88-1.76-1.32-2.93-1.32-1.54,0-2.62,.97-2.62,2.33s1.08,2.31,2.62,2.31c1.17,0,2.29-.44,2.93-1.32v-2Z"/><path class="cls-2" d="M156.02,108.26v-6.95h-1.76v-1.45h1.76v-2.9h1.65v2.9h2.16v1.45h-2.16v6.6c0,.79,.35,1.36,1.08,1.36,.46,0,.9-.2,1.12-.44l.48,1.23c-.42,.4-1.01,.68-1.98,.68-1.56,0-2.35-.9-2.35-2.49Z"/><path class="cls-2" d="M166.78,99.59c3.21,0,5.1,2.51,5.1,5.7v.42h-8.6c.13,2,1.54,3.67,3.83,3.67,1.21,0,2.44-.48,3.28-1.34l.79,1.08c-1.06,1.06-2.49,1.63-4.22,1.63-3.15,0-5.41-2.27-5.41-5.59,0-3.08,2.2-5.57,5.24-5.57Zm-3.5,4.91h6.97c-.02-1.58-1.08-3.54-3.5-3.54-2.27,0-3.39,1.91-3.48,3.54Z"/><path class="cls-2" d="M174.55,110.48v-10.63h1.65v1.72c.86-1.12,2.09-1.94,3.54-1.94v1.69c-.2-.04-.4-.07-.66-.07-1.01,0-2.4,.84-2.88,1.7v7.52h-1.65Z"/><path class="cls-2" d="M181.52,96.95c0-.62,.51-1.1,1.1-1.1s1.12,.48,1.12,1.1-.51,1.12-1.12,1.12-1.1-.51-1.1-1.12Zm.29,13.53v-10.63h1.65v10.63h-1.65Z"/><path class="cls-2" d="M193.4,110.48v-1.21c-.88,.97-2.09,1.47-3.52,1.47-1.8,0-3.72-1.21-3.72-3.52s1.91-3.5,3.72-3.5c1.45,0,2.66,.46,3.52,1.45v-1.91c0-1.43-1.14-2.25-2.68-2.25-1.28,0-2.31,.46-3.26,1.47l-.77-1.14c1.14-1.19,2.51-1.76,4.25-1.76,2.24,0,4.11,1.01,4.11,3.59v7.31h-1.65Zm0-4.25c-.64-.88-1.76-1.32-2.93-1.32-1.54,0-2.62,.97-2.62,2.33s1.08,2.31,2.62,2.31c1.17,0,2.29-.44,2.93-1.32v-2Z"/><path class="cls-2" d="M198.35,110.48v-14.68h1.65v14.68h-1.65Z"/><path class="cls-2" d="M208.36,105.16c0-3.08,2.02-5.57,5.26-5.57s5.26,2.49,5.26,5.57-2.02,5.59-5.26,5.59-5.26-2.51-5.26-5.59Zm8.78,0c0-2.16-1.25-4.09-3.52-4.09s-3.54,1.94-3.54,4.09,1.28,4.12,3.54,4.12,3.52-1.94,3.52-4.12Z"/><path class="cls-2" d="M223.67,101.31v9.17h-1.65v-9.17h-1.76v-1.45h1.76v-.81c0-2.2,1.23-3.45,3.08-3.45,.62,0,1.19,.11,1.61,.37l-.42,1.23c-.26-.15-.57-.24-.95-.24-1.08,0-1.67,.75-1.67,2.09v.81h2.16v1.45h-2.16Z"/><path class="cls-2" d="M21.1,123.35c0-.62,.51-1.1,1.1-1.1s1.12,.48,1.12,1.1-.51,1.12-1.12,1.12-1.1-.51-1.1-1.12Zm.29,13.53v-10.63h1.65v10.63h-1.65Z"/><path class="cls-2" d="M33.51,136.88v-6.95c0-1.87-.95-2.46-2.38-2.46-1.3,0-2.53,.79-3.15,1.65v7.77h-1.65v-10.63h1.65v1.54c.75-.88,2.2-1.8,3.79-1.8,2.22,0,3.39,1.12,3.39,3.43v7.46h-1.65Z"/><path class="cls-2" d="M38.79,134.66v-6.95h-1.76v-1.45h1.76v-2.9h1.65v2.9h2.16v1.45h-2.16v6.6c0,.79,.35,1.37,1.08,1.37,.46,0,.9-.2,1.12-.44l.48,1.23c-.42,.4-1.01,.68-1.98,.68-1.56,0-2.35-.9-2.35-2.49Z"/><path class="cls-2" d="M49.54,125.99c3.21,0,5.1,2.51,5.1,5.7v.42h-8.6c.13,2,1.54,3.67,3.83,3.67,1.21,0,2.44-.48,3.28-1.34l.79,1.08c-1.06,1.06-2.49,1.63-4.22,1.63-3.15,0-5.41-2.27-5.41-5.59,0-3.08,2.2-5.57,5.24-5.57Zm-3.5,4.91h6.97c-.02-1.58-1.08-3.54-3.5-3.54-2.27,0-3.39,1.91-3.48,3.54Z"/><path class="cls-2" d="M57.31,136.88v-10.63h1.65v1.72c.86-1.12,2.09-1.94,3.54-1.94v1.7c-.2-.04-.4-.07-.66-.07-1.01,0-2.4,.84-2.88,1.69v7.52h-1.65Z"/><path class="cls-2" d="M69.19,125.99c3.21,0,5.1,2.51,5.1,5.7v.42h-8.6c.13,2,1.54,3.67,3.83,3.67,1.21,0,2.44-.48,3.28-1.34l.79,1.08c-1.06,1.06-2.49,1.63-4.22,1.63-3.15,0-5.41-2.27-5.41-5.59,0-3.08,2.2-5.57,5.24-5.57Zm-3.5,4.91h6.97c-.02-1.58-1.08-3.54-3.5-3.54-2.27,0-3.39,1.91-3.48,3.54Z"/><path class="cls-2" d="M76.89,134.28c.7,.81,2.05,1.52,3.5,1.52,1.63,0,2.51-.73,2.51-1.76,0-1.17-1.3-1.54-2.73-1.89-1.8-.42-3.85-.9-3.85-3.1,0-1.65,1.43-3.06,3.96-3.06,1.8,0,3.08,.68,3.94,1.54l-.77,1.14c-.64-.77-1.8-1.34-3.17-1.34-1.45,0-2.35,.66-2.35,1.61,0,1.04,1.21,1.37,2.6,1.7,1.85,.42,3.98,.95,3.98,3.3,0,1.78-1.43,3.21-4.18,3.21-1.74,0-3.21-.53-4.29-1.67l.86-1.19Z"/><path class="cls-2" d="M87.52,134.66v-6.95h-1.76v-1.45h1.76v-2.9h1.65v2.9h2.16v1.45h-2.16v6.6c0,.79,.35,1.37,1.08,1.37,.46,0,.9-.2,1.12-.44l.48,1.23c-.42,.4-1.01,.68-1.98,.68-1.56,0-2.35-.9-2.35-2.49Z"/><path class="cls-2" d="M99.66,134.66v-6.95h-1.76v-1.45h1.76v-2.9h1.65v2.9h2.16v1.45h-2.16v6.6c0,.79,.35,1.37,1.08,1.37,.46,0,.9-.2,1.12-.44l.48,1.23c-.42,.4-1.01,.68-1.98,.68-1.56,0-2.35-.9-2.35-2.49Z"/><path class="cls-2" d="M112.99,136.88v-7c0-1.87-.97-2.42-2.4-2.42-1.28,0-2.51,.79-3.15,1.65v7.77h-1.65v-14.68h1.65v5.59c.75-.88,2.2-1.8,3.81-1.8,2.22,0,3.39,1.08,3.39,3.39v7.5h-1.65Z"/><path class="cls-2" d="M124.59,136.88v-1.21c-.88,.97-2.09,1.47-3.52,1.47-1.8,0-3.72-1.21-3.72-3.52s1.91-3.5,3.72-3.5c1.45,0,2.66,.46,3.52,1.45v-1.91c0-1.43-1.14-2.24-2.68-2.24-1.28,0-2.31,.46-3.26,1.47l-.77-1.14c1.14-1.19,2.51-1.76,4.25-1.76,2.24,0,4.12,1.01,4.12,3.59v7.3h-1.65Zm0-4.25c-.64-.88-1.76-1.32-2.93-1.32-1.54,0-2.62,.97-2.62,2.33s1.08,2.31,2.62,2.31c1.17,0,2.29-.44,2.93-1.32v-2Z"/><path class="cls-2" d="M129.87,134.66v-6.95h-1.76v-1.45h1.76v-2.9h1.65v2.9h2.16v1.45h-2.16v6.6c0,.79,.35,1.37,1.08,1.37,.46,0,.9-.2,1.12-.44l.48,1.23c-.42,.4-1.01,.68-1.98,.68-1.56,0-2.35-.9-2.35-2.49Z"/><path class="cls-2" d="M141.39,123.35c0-.62,.51-1.1,1.1-1.1s1.12,.48,1.12,1.1-.51,1.12-1.12,1.12-1.1-.51-1.1-1.12Zm.29,13.53v-10.63h1.65v10.63h-1.65Z"/><path class="cls-2" d="M146.56,134.28c.7,.81,2.05,1.52,3.5,1.52,1.63,0,2.51-.73,2.51-1.76,0-1.17-1.3-1.54-2.73-1.89-1.8-.42-3.85-.9-3.85-3.1,0-1.65,1.43-3.06,3.96-3.06,1.8,0,3.08,.68,3.94,1.54l-.77,1.14c-.64-.77-1.8-1.34-3.17-1.34-1.45,0-2.35,.66-2.35,1.61,0,1.04,1.21,1.37,2.6,1.7,1.85,.42,3.98,.95,3.98,3.3,0,1.78-1.43,3.21-4.18,3.21-1.74,0-3.21-.53-4.29-1.67l.86-1.19Z"/><path class="cls-2" d="M169.71,136.88v-1.5c-.81,.92-2.2,1.76-3.79,1.76-2.22,0-3.39-1.08-3.39-3.39v-7.5h1.65v7c0,1.87,.95,2.42,2.38,2.42,1.3,0,2.53-.75,3.15-1.61v-7.81h1.65v10.63h-1.65Z"/><path class="cls-2" d="M174.59,134.28c.7,.81,2.05,1.52,3.5,1.52,1.63,0,2.51-.73,2.51-1.76,0-1.17-1.3-1.54-2.73-1.89-1.8-.42-3.85-.9-3.85-3.1,0-1.65,1.43-3.06,3.96-3.06,1.8,0,3.08,.68,3.94,1.54l-.77,1.14c-.64-.77-1.8-1.34-3.17-1.34-1.45,0-2.35,.66-2.35,1.61,0,1.04,1.21,1.37,2.6,1.7,1.85,.42,3.98,.95,3.98,3.3,0,1.78-1.43,3.21-4.18,3.21-1.74,0-3.21-.53-4.29-1.67l.86-1.19Z"/><path class="cls-2" d="M189.51,125.99c3.21,0,5.1,2.51,5.1,5.7v.42h-8.6c.13,2,1.54,3.67,3.83,3.67,1.21,0,2.44-.48,3.28-1.34l.79,1.08c-1.06,1.06-2.49,1.63-4.22,1.63-3.15,0-5.41-2.27-5.41-5.59,0-3.08,2.2-5.57,5.24-5.57Zm-3.5,4.91h6.98c-.02-1.58-1.08-3.54-3.5-3.54-2.27,0-3.39,1.91-3.48,3.54Z"/><path class="cls-2" d="M199.38,127.71v9.17h-1.65v-9.17h-1.76v-1.45h1.76v-.81c0-2.2,1.23-3.45,3.08-3.45,.62,0,1.19,.11,1.61,.37l-.42,1.23c-.26-.15-.57-.24-.95-.24-1.08,0-1.67,.75-1.67,2.09v.81h2.16v1.45h-2.16Z"/><path class="cls-2" d="M210.67,136.88v-1.5c-.81,.92-2.2,1.76-3.78,1.76-2.22,0-3.39-1.08-3.39-3.39v-7.5h1.65v7c0,1.87,.95,2.42,2.38,2.42,1.3,0,2.53-.75,3.15-1.61v-7.81h1.65v10.63h-1.65Z"/><path class="cls-2" d="M215.62,136.88v-14.68h1.65v14.68h-1.65Z"/><path class="cls-2" d="M21.71,161.06v-6.95h-1.76v-1.45h1.76v-2.9h1.65v2.9h2.16v1.45h-2.16v6.6c0,.79,.35,1.36,1.08,1.36,.46,0,.9-.2,1.12-.44l.48,1.23c-.42,.4-1.01,.68-1.98,.68-1.56,0-2.35-.9-2.35-2.49Z"/><path class="cls-2" d="M27.24,157.96c0-3.08,2.02-5.57,5.26-5.57s5.26,2.49,5.26,5.57-2.02,5.59-5.26,5.59-5.26-2.51-5.26-5.59Zm8.78,0c0-2.16-1.25-4.09-3.52-4.09s-3.54,1.94-3.54,4.09,1.28,4.11,3.54,4.11,3.52-1.94,3.52-4.11Z"/><path class="cls-2" d="M46.44,161.06v-6.95h-1.76v-1.45h1.76v-2.9h1.65v2.9h2.16v1.45h-2.16v6.6c0,.79,.35,1.36,1.08,1.36,.46,0,.9-.2,1.12-.44l.48,1.23c-.42,.4-1.01,.68-1.98,.68-1.56,0-2.35-.9-2.35-2.49Z"/><path class="cls-2" d="M59.78,163.28v-7c0-1.87-.97-2.42-2.4-2.42-1.28,0-2.51,.79-3.15,1.65v7.77h-1.65v-14.68h1.65v5.59c.75-.88,2.2-1.8,3.81-1.8,2.22,0,3.39,1.08,3.39,3.39v7.5h-1.65Z"/><path class="cls-2" d="M69.34,152.39c3.21,0,5.1,2.51,5.1,5.7v.42h-8.6c.13,2,1.54,3.68,3.83,3.68,1.21,0,2.44-.48,3.28-1.34l.79,1.08c-1.06,1.06-2.49,1.63-4.22,1.63-3.15,0-5.41-2.27-5.41-5.59,0-3.08,2.2-5.57,5.24-5.57Zm-3.5,4.91h6.98c-.02-1.58-1.08-3.54-3.5-3.54-2.27,0-3.39,1.91-3.48,3.54Z"/><path class="cls-2" d="M82.72,160.68c.7,.81,2.05,1.52,3.5,1.52,1.63,0,2.51-.73,2.51-1.76,0-1.17-1.3-1.54-2.73-1.89-1.8-.42-3.85-.9-3.85-3.1,0-1.65,1.43-3.06,3.96-3.06,1.8,0,3.08,.68,3.94,1.54l-.77,1.14c-.64-.77-1.8-1.34-3.17-1.34-1.45,0-2.35,.66-2.35,1.61,0,1.03,1.21,1.36,2.6,1.69,1.85,.42,3.98,.95,3.98,3.3,0,1.78-1.43,3.21-4.18,3.21-1.74,0-3.21-.53-4.29-1.67l.86-1.19Z"/><path class="cls-2" d="M93.35,161.06v-6.95h-1.76v-1.45h1.76v-2.9h1.65v2.9h2.16v1.45h-2.16v6.6c0,.79,.35,1.36,1.08,1.36,.46,0,.9-.2,1.12-.44l.48,1.23c-.42,.4-1.01,.68-1.98,.68-1.56,0-2.35-.9-2.35-2.49Z"/><path class="cls-2" d="M106.66,163.28v-1.5c-.81,.92-2.2,1.76-3.79,1.76-2.22,0-3.39-1.08-3.39-3.39v-7.5h1.65v7c0,1.87,.95,2.42,2.38,2.42,1.3,0,2.53-.75,3.15-1.61v-7.81h1.65v10.63h-1.65Z"/><path class="cls-2" d="M119.31,163.28v-1.58c-.79,1.08-2.09,1.85-3.59,1.85-2.77,0-4.73-2.11-4.73-5.57s1.94-5.59,4.73-5.59c1.43,0,2.73,.7,3.59,1.87v-5.65h1.65v14.68h-1.65Zm0-7.7c-.59-.92-1.87-1.72-3.19-1.72-2.13,0-3.41,1.76-3.41,4.12s1.28,4.09,3.41,4.09c1.32,0,2.6-.75,3.19-1.67v-4.82Z"/><path class="cls-2" d="M128.87,152.39c3.21,0,5.11,2.51,5.11,5.7v.42h-8.6c.13,2,1.54,3.68,3.83,3.68,1.21,0,2.44-.48,3.28-1.34l.79,1.08c-1.06,1.06-2.49,1.63-4.22,1.63-3.15,0-5.41-2.27-5.41-5.59,0-3.08,2.2-5.57,5.24-5.57Zm-3.5,4.91h6.97c-.02-1.58-1.08-3.54-3.5-3.54-2.27,0-3.39,1.91-3.48,3.54Z"/><path class="cls-2" d="M143.81,163.28v-6.95c0-1.87-.95-2.46-2.38-2.46-1.3,0-2.53,.79-3.15,1.65v7.77h-1.65v-10.63h1.65v1.54c.75-.88,2.2-1.8,3.78-1.8,2.22,0,3.39,1.12,3.39,3.43v7.46h-1.65Z"/><path class="cls-2" d="M149.09,161.06v-6.95h-1.76v-1.45h1.76v-2.9h1.65v2.9h2.16v1.45h-2.16v6.6c0,.79,.35,1.36,1.08,1.36,.46,0,.9-.2,1.12-.44l.48,1.23c-.42,.4-1.01,.68-1.98,.68-1.56,0-2.35-.9-2.35-2.49Z"/><path class="cls-2" d="M160.62,149.75c0-.62,.51-1.1,1.1-1.1s1.12,.48,1.12,1.1-.51,1.12-1.12,1.12-1.1-.51-1.1-1.12Zm.29,13.53v-10.63h1.65v10.63h-1.65Z"/><path class="cls-2" d="M173.03,163.28v-6.95c0-1.87-.95-2.46-2.38-2.46-1.3,0-2.53,.79-3.15,1.65v7.77h-1.65v-10.63h1.65v1.54c.75-.88,2.2-1.8,3.79-1.8,2.22,0,3.39,1.12,3.39,3.43v7.46h-1.65Z"/><path class="cls-2" d="M183.98,161.06v-6.95h-1.76v-1.45h1.76v-2.9h1.65v2.9h2.16v1.45h-2.16v6.6c0,.79,.35,1.36,1.08,1.36,.46,0,.9-.2,1.12-.44l.48,1.23c-.42,.4-1.01,.68-1.98,.68-1.56,0-2.35-.9-2.35-2.49Z"/><path class="cls-2" d="M197.32,163.28v-7c0-1.87-.97-2.42-2.4-2.42-1.28,0-2.51,.79-3.15,1.65v7.77h-1.65v-14.68h1.65v5.59c.75-.88,2.2-1.8,3.81-1.8,2.22,0,3.39,1.08,3.39,3.39v7.5h-1.65Z"/><path class="cls-2" d="M206.89,152.39c3.21,0,5.1,2.51,5.1,5.7v.42h-8.6c.13,2,1.54,3.68,3.83,3.68,1.21,0,2.44-.48,3.28-1.34l.79,1.08c-1.06,1.06-2.49,1.63-4.22,1.63-3.15,0-5.41-2.27-5.41-5.59,0-3.08,2.2-5.57,5.24-5.57Zm-3.5,4.91h6.98c-.02-1.58-1.08-3.54-3.5-3.54-2.27,0-3.39,1.91-3.48,3.54Z"/><path class="cls-2" d="M214.37,149.75c0-.62,.51-1.1,1.1-1.1s1.12,.48,1.12,1.1-.51,1.12-1.12,1.12-1.1-.51-1.1-1.12Zm.29,13.53v-10.63h1.65v10.63h-1.65Z"/><path class="cls-2" d="M219.6,163.28v-10.63h1.65v1.72c.86-1.12,2.09-1.94,3.54-1.94v1.69c-.2-.04-.4-.07-.66-.07-1.01,0-2.4,.84-2.88,1.69v7.53h-1.65Z"/><path class="cls-2" d="M29.09,189.68v-1.58c-.79,1.08-2.09,1.85-3.59,1.85-2.77,0-4.73-2.11-4.73-5.57s1.94-5.59,4.73-5.59c1.43,0,2.73,.7,3.59,1.87v-5.65h1.65v14.68h-1.65Zm0-7.7c-.59-.92-1.87-1.72-3.19-1.72-2.13,0-3.41,1.76-3.41,4.12s1.28,4.09,3.41,4.09c1.32,0,2.6-.75,3.19-1.67v-4.82Z"/><path class="cls-2" d="M40.68,189.68v-1.21c-.88,.97-2.09,1.47-3.52,1.47-1.8,0-3.72-1.21-3.72-3.52s1.92-3.5,3.72-3.5c1.45,0,2.66,.46,3.52,1.45v-1.91c0-1.43-1.14-2.24-2.68-2.24-1.28,0-2.31,.46-3.26,1.47l-.77-1.14c1.14-1.19,2.51-1.76,4.25-1.76,2.25,0,4.12,1.01,4.12,3.59v7.3h-1.65Zm0-4.25c-.64-.88-1.76-1.32-2.93-1.32-1.54,0-2.62,.97-2.62,2.33s1.08,2.31,2.62,2.31c1.17,0,2.29-.44,2.93-1.32v-2Z"/><path class="cls-2" d="M45.3,192.34c.24,.11,.64,.18,.9,.18,.73,0,1.21-.24,1.58-1.12l.7-1.61-4.44-10.74h1.78l3.54,8.71,3.52-8.71h1.8l-5.33,12.78c-.64,1.54-1.72,2.13-3.12,2.16-.35,0-.9-.07-1.21-.15l.26-1.5Z"/><path class="cls-2" d="M62.41,187.46v-6.95h-1.76v-1.45h1.76v-2.9h1.65v2.9h2.16v1.45h-2.16v6.6c0,.79,.35,1.36,1.08,1.36,.46,0,.9-.2,1.12-.44l.48,1.23c-.42,.4-1.01,.68-1.98,.68-1.56,0-2.35-.9-2.35-2.49Z"/><path class="cls-2" d="M67.94,184.36c0-3.08,2.02-5.57,5.26-5.57s5.26,2.49,5.26,5.57-2.02,5.59-5.26,5.59-5.26-2.51-5.26-5.59Zm8.78,0c0-2.16-1.25-4.09-3.52-4.09s-3.54,1.94-3.54,4.09,1.28,4.11,3.54,4.11,3.52-1.94,3.52-4.11Z"/><path class="cls-2" d="M94.51,189.68v-1.58c-.79,1.08-2.09,1.85-3.59,1.85-2.77,0-4.73-2.11-4.73-5.57s1.94-5.59,4.73-5.59c1.43,0,2.73,.7,3.59,1.87v-5.65h1.65v14.68h-1.65Zm0-7.7c-.59-.92-1.87-1.72-3.19-1.72-2.13,0-3.41,1.76-3.41,4.12s1.28,4.09,3.41,4.09c1.32,0,2.6-.75,3.19-1.67v-4.82Z"/><path class="cls-2" d="M106.11,189.68v-1.21c-.88,.97-2.09,1.47-3.52,1.47-1.8,0-3.72-1.21-3.72-3.52s1.92-3.5,3.72-3.5c1.45,0,2.66,.46,3.52,1.45v-1.91c0-1.43-1.14-2.24-2.68-2.24-1.28,0-2.31,.46-3.26,1.47l-.77-1.14c1.14-1.19,2.51-1.76,4.25-1.76,2.24,0,4.11,1.01,4.11,3.59v7.3h-1.65Zm0-4.25c-.64-.88-1.76-1.32-2.93-1.32-1.54,0-2.62,.97-2.62,2.33s1.08,2.31,2.62,2.31c1.17,0,2.29-.44,2.93-1.32v-2Z"/><path class="cls-2" d="M110.73,192.34c.24,.11,.64,.18,.9,.18,.73,0,1.21-.24,1.58-1.12l.7-1.61-4.44-10.74h1.78l3.54,8.71,3.52-8.71h1.8l-5.33,12.78c-.64,1.54-1.72,2.13-3.12,2.16-.35,0-.9-.07-1.21-.15l.26-1.5Z"/><path class="cls-2" d="M34.21,216.08v-7.22c0-1.34-.59-2.2-1.96-2.2-1.1,0-2.27,.79-2.82,1.63v7.79h-1.65v-7.22c0-1.34-.57-2.2-1.96-2.2-1.08,0-2.22,.79-2.79,1.65v7.77h-1.65v-10.63h1.65v1.54c.44-.68,1.87-1.8,3.43-1.8s2.55,.88,2.86,1.98c.59-.97,2.02-1.98,3.56-1.98,1.94,0,2.97,1.08,2.97,3.21v7.68h-1.65Z"/><path class="cls-2" d="M45.81,216.08v-1.21c-.88,.97-2.09,1.47-3.52,1.47-1.8,0-3.72-1.21-3.72-3.52s1.92-3.5,3.72-3.5c1.45,0,2.66,.46,3.52,1.45v-1.92c0-1.43-1.14-2.24-2.68-2.24-1.28,0-2.31,.46-3.26,1.47l-.77-1.14c1.14-1.19,2.51-1.76,4.25-1.76,2.24,0,4.11,1.01,4.11,3.59v7.31h-1.65Zm0-4.25c-.64-.88-1.76-1.32-2.93-1.32-1.54,0-2.62,.97-2.62,2.33s1.08,2.31,2.62,2.31c1.17,0,2.29-.44,2.93-1.32v-2Z"/><path class="cls-2" d="M57.93,216.08v-6.95c0-1.87-.95-2.46-2.38-2.46-1.3,0-2.53,.79-3.15,1.65v7.77h-1.65v-10.63h1.65v1.54c.75-.88,2.2-1.8,3.78-1.8,2.22,0,3.39,1.12,3.39,3.43v7.46h-1.65Z"/><path class="cls-2" d="M69.52,216.08v-1.21c-.88,.97-2.09,1.47-3.52,1.47-1.8,0-3.72-1.21-3.72-3.52s1.92-3.5,3.72-3.5c1.45,0,2.66,.46,3.52,1.45v-1.92c0-1.43-1.14-2.24-2.68-2.24-1.28,0-2.31,.46-3.26,1.47l-.77-1.14c1.14-1.19,2.51-1.76,4.25-1.76,2.25,0,4.12,1.01,4.12,3.59v7.31h-1.65Zm0-4.25c-.64-.88-1.76-1.32-2.93-1.32-1.54,0-2.62,.97-2.62,2.33s1.08,2.31,2.62,2.31c1.17,0,2.29-.44,2.93-1.32v-2Z"/><path class="cls-2" d="M75.28,217.58c.88,1.06,1.94,1.45,3.46,1.45,1.76,0,3.41-.86,3.41-3.19v-1.52c-.77,1.08-2.07,1.89-3.56,1.89-2.77,0-4.73-2.07-4.73-5.5s1.94-5.52,4.73-5.52c1.43,0,2.71,.71,3.56,1.87v-1.61h1.65v10.32c0,3.52-2.46,4.62-5.06,4.62-1.8,0-3.04-.35-4.29-1.58l.84-1.23Zm6.87-9.2c-.57-.92-1.85-1.72-3.17-1.72-2.13,0-3.41,1.69-3.41,4.05s1.28,4.05,3.41,4.05c1.32,0,2.6-.81,3.17-1.74v-4.64Z"/><path class="cls-2" d="M91.72,205.19c3.21,0,5.1,2.51,5.1,5.7v.42h-8.6c.13,2,1.54,3.67,3.83,3.67,1.21,0,2.44-.48,3.28-1.34l.79,1.08c-1.06,1.06-2.49,1.63-4.22,1.63-3.15,0-5.41-2.27-5.41-5.59,0-3.08,2.2-5.57,5.24-5.57Zm-3.5,4.91h6.97c-.02-1.58-1.08-3.54-3.5-3.54-2.27,0-3.39,1.91-3.48,3.54Z"/><path class="cls-2" d="M112.31,216.08v-7.22c0-1.34-.59-2.2-1.96-2.2-1.1,0-2.27,.79-2.82,1.63v7.79h-1.65v-7.22c0-1.34-.57-2.2-1.96-2.2-1.08,0-2.22,.79-2.79,1.65v7.77h-1.65v-10.63h1.65v1.54c.44-.68,1.87-1.8,3.43-1.8s2.55,.88,2.86,1.98c.59-.97,2.02-1.98,3.57-1.98,1.94,0,2.97,1.08,2.97,3.21v7.68h-1.65Z"/><path class="cls-2" d="M121.88,205.19c3.21,0,5.1,2.51,5.1,5.7v.42h-8.6c.13,2,1.54,3.67,3.83,3.67,1.21,0,2.44-.48,3.28-1.34l.79,1.08c-1.06,1.06-2.49,1.63-4.22,1.63-3.15,0-5.41-2.27-5.41-5.59,0-3.08,2.2-5.57,5.24-5.57Zm-3.5,4.91h6.98c-.02-1.58-1.08-3.54-3.5-3.54-2.27,0-3.39,1.91-3.48,3.54Z"/><path class="cls-2" d="M136.82,216.08v-6.95c0-1.87-.95-2.46-2.38-2.46-1.3,0-2.53,.79-3.15,1.65v7.77h-1.65v-10.63h1.65v1.54c.75-.88,2.2-1.8,3.78-1.8,2.22,0,3.39,1.12,3.39,3.43v7.46h-1.65Z"/><path class="cls-2" d="M142.1,213.86v-6.95h-1.76v-1.45h1.76v-2.9h1.65v2.9h2.16v1.45h-2.16v6.6c0,.79,.35,1.36,1.08,1.36,.46,0,.9-.2,1.12-.44l.48,1.23c-.42,.4-1.01,.68-1.98,.68-1.56,0-2.35-.9-2.35-2.49Z"/><path class="cls-2" d="M153.29,210.76c0-3.08,2.02-5.57,5.26-5.57s5.26,2.49,5.26,5.57-2.02,5.59-5.26,5.59-5.26-2.51-5.26-5.59Zm8.78,0c0-2.16-1.25-4.09-3.52-4.09s-3.54,1.94-3.54,4.09,1.28,4.11,3.54,4.11,3.52-1.94,3.52-4.11Z"/><path class="cls-2" d="M168.61,206.91v9.18h-1.65v-9.18h-1.76v-1.45h1.76v-.81c0-2.2,1.23-3.45,3.08-3.45,.62,0,1.19,.11,1.61,.37l-.42,1.23c-.26-.15-.57-.24-.95-.24-1.08,0-1.67,.75-1.67,2.09v.81h2.16v1.45h-2.16Z"/><path class="cls-2" d="M178.4,216.08v-14.68h1.65v5.66c.86-1.17,2.13-1.87,3.59-1.87,2.77,0,4.73,2.2,4.73,5.59s-1.96,5.57-4.73,5.57c-1.5,0-2.79-.77-3.59-1.85v1.58h-1.65Zm1.65-2.88c.57,.92,1.87,1.67,3.17,1.67,2.16,0,3.43-1.74,3.43-4.09s-1.28-4.12-3.43-4.12c-1.3,0-2.6,.79-3.17,1.72v4.82Z"/><path class="cls-2" d="M191.05,216.08v-14.68h1.65v14.68h-1.65Z"/><path class="cls-2" d="M203.17,216.08v-1.5c-.81,.92-2.2,1.76-3.79,1.76-2.22,0-3.39-1.08-3.39-3.39v-7.5h1.65v7c0,1.87,.95,2.42,2.38,2.42,1.3,0,2.53-.75,3.15-1.61v-7.81h1.65v10.63h-1.65Z"/><path class="cls-2" d="M212.74,205.19c3.21,0,5.1,2.51,5.1,5.7v.42h-8.6c.13,2,1.54,3.67,3.83,3.67,1.21,0,2.44-.48,3.28-1.34l.79,1.08c-1.06,1.06-2.49,1.63-4.22,1.63-3.15,0-5.41-2.27-5.41-5.59,0-3.08,2.2-5.57,5.24-5.57Zm-3.5,4.91h6.98c-.02-1.58-1.08-3.54-3.5-3.54-2.27,0-3.39,1.91-3.48,3.54Z"/><path class="cls-2" d="M26.07,231.59c1.94,0,3.08,.79,3.89,1.85l-1.1,1.01c-.7-.97-1.61-1.39-2.71-1.39-2.27,0-3.67,1.74-3.67,4.09s1.41,4.12,3.67,4.12c1.1,0,2-.44,2.71-1.39l1.1,1.01c-.81,1.06-1.96,1.85-3.89,1.85-3.17,0-5.3-2.42-5.3-5.59s2.13-5.57,5.3-5.57Z"/><path class="cls-2" d="M38.92,242.48v-1.21c-.88,.97-2.09,1.47-3.52,1.47-1.8,0-3.72-1.21-3.72-3.52s1.91-3.5,3.72-3.5c1.45,0,2.66,.46,3.52,1.45v-1.91c0-1.43-1.14-2.25-2.68-2.25-1.28,0-2.31,.46-3.26,1.47l-.77-1.14c1.14-1.19,2.51-1.76,4.25-1.76,2.24,0,4.12,1.01,4.12,3.59v7.31h-1.65Zm0-4.25c-.64-.88-1.76-1.32-2.93-1.32-1.54,0-2.62,.97-2.62,2.33s1.08,2.31,2.62,2.31c1.17,0,2.29-.44,2.93-1.32v-2Z"/><path class="cls-2" d="M43.87,242.48v-10.63h1.65v1.72c.86-1.12,2.09-1.94,3.54-1.94v1.69c-.2-.04-.4-.07-.66-.07-1.01,0-2.4,.84-2.88,1.7v7.52h-1.65Z"/><path class="cls-2" d="M51.13,242.48v-14.68h1.65v5.66c.86-1.17,2.13-1.87,3.59-1.87,2.77,0,4.73,2.2,4.73,5.59s-1.96,5.57-4.73,5.57c-1.5,0-2.79-.77-3.59-1.85v1.58h-1.65Zm1.65-2.88c.57,.92,1.87,1.67,3.17,1.67,2.16,0,3.43-1.74,3.43-4.09s-1.28-4.11-3.43-4.11c-1.3,0-2.6,.79-3.17,1.72v4.82Z"/><path class="cls-2" d="M63.16,237.16c0-3.08,2.02-5.57,5.26-5.57s5.26,2.49,5.26,5.57-2.02,5.59-5.26,5.59-5.26-2.51-5.26-5.59Zm8.78,0c0-2.16-1.25-4.09-3.52-4.09s-3.54,1.94-3.54,4.09,1.28,4.12,3.54,4.12,3.52-1.94,3.52-4.12Z"/><path class="cls-2" d="M83.54,242.48v-6.95c0-1.87-.95-2.46-2.38-2.46-1.3,0-2.53,.79-3.15,1.65v7.77h-1.65v-10.63h1.65v1.54c.75-.88,2.2-1.8,3.79-1.8,2.22,0,3.39,1.12,3.39,3.43v7.46h-1.65Z"/><path class="cls-2" d="M98.78,231.59c3.21,0,5.1,2.51,5.1,5.7v.42h-8.6c.13,2,1.54,3.67,3.83,3.67,1.21,0,2.44-.48,3.28-1.34l.79,1.08c-1.06,1.06-2.49,1.63-4.22,1.63-3.15,0-5.41-2.27-5.41-5.59,0-3.08,2.2-5.57,5.24-5.57Zm-3.5,4.91h6.98c-.02-1.58-1.08-3.54-3.5-3.54-2.27,0-3.39,1.91-3.48,3.54Z"/><path class="cls-2" d="M111.23,231.59c1.94,0,3.08,.79,3.89,1.85l-1.1,1.01c-.7-.97-1.61-1.39-2.71-1.39-2.27,0-3.67,1.74-3.67,4.09s1.41,4.12,3.67,4.12c1.1,0,2-.44,2.71-1.39l1.1,1.01c-.81,1.06-1.96,1.85-3.89,1.85-3.17,0-5.3-2.42-5.3-5.59s2.13-5.57,5.3-5.57Z"/><path class="cls-2" d="M116.82,237.16c0-3.08,2.02-5.57,5.26-5.57s5.26,2.49,5.26,5.57-2.02,5.59-5.26,5.59-5.26-2.51-5.26-5.59Zm8.78,0c0-2.16-1.25-4.09-3.52-4.09s-3.54,1.94-3.54,4.09,1.28,4.12,3.54,4.12,3.52-1.94,3.52-4.12Z"/><path class="cls-2" d="M129.95,239.88c.7,.81,2.05,1.52,3.5,1.52,1.63,0,2.51-.73,2.51-1.76,0-1.17-1.3-1.54-2.73-1.89-1.8-.42-3.85-.9-3.85-3.1,0-1.65,1.43-3.06,3.96-3.06,1.8,0,3.08,.68,3.94,1.54l-.77,1.14c-.64-.77-1.8-1.34-3.17-1.34-1.45,0-2.35,.66-2.35,1.61,0,1.03,1.21,1.36,2.6,1.69,1.85,.42,3.98,.95,3.98,3.3,0,1.78-1.43,3.21-4.18,3.21-1.74,0-3.21-.53-4.29-1.67l.86-1.19Z"/><path class="cls-2" d="M139.92,245.14c.24,.11,.64,.18,.9,.18,.73,0,1.21-.24,1.58-1.12l.7-1.61-4.44-10.74h1.78l3.54,8.71,3.52-8.71h1.8l-5.33,12.78c-.64,1.54-1.72,2.13-3.12,2.16-.35,0-.9-.07-1.21-.15l.26-1.5Z"/><path class="cls-2" d="M150.96,239.88c.7,.81,2.05,1.52,3.5,1.52,1.63,0,2.51-.73,2.51-1.76,0-1.17-1.3-1.54-2.73-1.89-1.8-.42-3.85-.9-3.85-3.1,0-1.65,1.43-3.06,3.96-3.06,1.8,0,3.08,.68,3.94,1.54l-.77,1.14c-.64-.77-1.8-1.34-3.17-1.34-1.45,0-2.35,.66-2.35,1.61,0,1.03,1.21,1.36,2.6,1.69,1.85,.42,3.98,.95,3.98,3.3,0,1.78-1.43,3.21-4.18,3.21-1.74,0-3.21-.53-4.29-1.67l.86-1.19Z"/><path class="cls-2" d="M161.59,240.26v-6.95h-1.76v-1.45h1.76v-2.9h1.65v2.9h2.16v1.45h-2.16v6.6c0,.79,.35,1.36,1.08,1.36,.46,0,.9-.2,1.12-.44l.48,1.23c-.42,.4-1.01,.68-1.98,.68-1.56,0-2.35-.9-2.35-2.49Z"/><path class="cls-2" d="M172.35,231.59c3.21,0,5.1,2.51,5.1,5.7v.42h-8.6c.13,2,1.54,3.67,3.83,3.67,1.21,0,2.44-.48,3.28-1.34l.79,1.08c-1.06,1.06-2.49,1.63-4.22,1.63-3.15,0-5.41-2.27-5.41-5.59,0-3.08,2.2-5.57,5.24-5.57Zm-3.5,4.91h6.98c-.02-1.58-1.08-3.54-3.5-3.54-2.27,0-3.39,1.91-3.48,3.54Z"/><path class="cls-2" d="M192.94,242.48v-7.22c0-1.34-.59-2.2-1.96-2.2-1.1,0-2.27,.79-2.82,1.63v7.79h-1.65v-7.22c0-1.34-.57-2.2-1.96-2.2-1.08,0-2.22,.79-2.79,1.65v7.77h-1.65v-10.63h1.65v1.54c.44-.68,1.87-1.8,3.43-1.8s2.55,.88,2.86,1.98c.59-.97,2.02-1.98,3.56-1.98,1.94,0,2.97,1.08,2.97,3.21v7.68h-1.65Z"/><path class="cls-2" d="M197.82,239.88c.7,.81,2.05,1.52,3.5,1.52,1.63,0,2.51-.73,2.51-1.76,0-1.17-1.3-1.54-2.73-1.89-1.8-.42-3.85-.9-3.85-3.1,0-1.65,1.43-3.06,3.96-3.06,1.8,0,3.08,.68,3.94,1.54l-.77,1.14c-.64-.77-1.8-1.34-3.17-1.34-1.45,0-2.35,.66-2.35,1.61,0,1.03,1.21,1.36,2.6,1.69,1.85,.42,3.98,.95,3.98,3.3,0,1.78-1.43,3.21-4.18,3.21-1.74,0-3.21-.53-4.29-1.67l.86-1.19Z"/><path class="cls-2" d="M209,240.28c.66,0,1.21,.55,1.21,1.21s-.55,1.21-1.21,1.21-1.21-.55-1.21-1.21,.55-1.21,1.21-1.21Z"/></g></g></svg>