<?xml version="1.0" encoding="UTF-8"?><svg xmlns="http://www.w3.org/2000/svg" xmlns:xlink="http://www.w3.org/1999/xlink" viewBox="0 0 1161.37 736.28"><defs><style>.cls-1{fill:url(#linear-gradient);}.cls-2{fill:#e7e7f5;}.cls-3{fill:#fff;}.cls-4{fill:#d8d8d8;}.cls-5{fill:#d36743;}.cls-6{fill:#1294d3;}.cls-7{fill:#0a81c4;}.cls-8{fill:#1b5f99;}.cls-9{fill:#9b9ba1;}.cls-10{fill:#5d5d62;}.cls-11{fill:#81cbed;}.cls-12{mix-blend-mode:multiply;}.cls-13{fill:url(#linear-gradient-2);}.cls-14{isolation:isolate;}.cls-15{fill:none;stroke:#1294d3;stroke-miterlimit:10;stroke-width:4.95px;}</style><linearGradient id="linear-gradient" x1="-839.85" y1="22.64" x2="-906.36" y2="89.15" gradientTransform="translate(-788.21 -.65) rotate(-179.99) scale(1 -1)" gradientUnits="userSpaceOnUse"><stop offset="0" stop-color="#fff"/><stop offset="1" stop-color="#dcdddf"/></linearGradient><linearGradient id="linear-gradient-2" x1="-912.38" y1="78.57" x2="-833.83" y2="33.21" xlink:href="#linear-gradient"/></defs><g class="cls-14"><g id="Capa_2"><g id="Capa_1-2"><rect class="cls-4" y="3.69" width="1161.37" height="732.6" rx="70.67" ry="70.67"/><g><path class="cls-10" d="M152.88,46.98c5.05,0,8.72,3.6,8.72,8.62s-3.67,8.62-8.72,8.62-8.7-3.6-8.7-8.62,3.67-8.62,8.7-8.62Zm0,3.15c-3.07,0-5.05,2.35-5.05,5.47s1.97,5.47,5.05,5.47,5.07-2.38,5.07-5.47-2-5.47-5.07-5.47Z"/><path class="cls-10" d="M164.03,63.92v-16.67h3.17v6.15c.95-1.22,2.3-1.85,3.72-1.85,3.07,0,5.35,2.4,5.35,6.35s-2.3,6.32-5.35,6.32c-1.45,0-2.77-.65-3.72-1.82v1.52h-3.17Zm3.17-3.87c.52,.78,1.7,1.35,2.72,1.35,1.85,0,3.07-1.4,3.07-3.5s-1.22-3.52-3.07-3.52c-1.02,0-2.2,.6-2.72,1.4v4.27Z"/><path class="cls-10" d="M181.86,51.85v12.4c0,2.75-1.4,4.57-4.3,4.57-.57,0-1-.05-1.37-.12l.2-2.6c.2,.05,.5,.08,.7,.08,.92,0,1.6-.58,1.6-1.92v-12.4h3.17Zm-3.5-3.67c0-1.05,.88-1.9,1.9-1.9s1.9,.85,1.9,1.9-.85,1.9-1.9,1.9-1.9-.85-1.9-1.9Z"/><path class="cls-10" d="M190.48,51.55c3.6,0,6.05,2.7,6.05,6.65v.7h-8.97c.2,1.52,1.42,2.8,3.47,2.8,1.12,0,2.45-.45,3.22-1.2l1.4,2.05c-1.22,1.12-3.1,1.67-4.97,1.67-3.67,0-6.45-2.47-6.45-6.35,0-3.5,2.57-6.32,6.25-6.32Zm-2.97,5.2h5.95c-.07-1.15-.87-2.67-2.97-2.67-1.97,0-2.82,1.47-2.97,2.67Z"/><path class="cls-10" d="M199.46,60.92v-6.3h-2v-2.77h2v-3.3h3.2v3.3h2.45v2.77h-2.45v5.45c0,.75,.4,1.32,1.1,1.32,.47,0,.92-.17,1.1-.35l.67,2.4c-.48,.42-1.32,.77-2.65,.77-2.22,0-3.42-1.15-3.42-3.3Z"/><path class="cls-10" d="M206.96,48.18c0-1.05,.88-1.9,1.9-1.9s1.9,.85,1.9,1.9-.85,1.9-1.9,1.9-1.9-.85-1.9-1.9Zm.33,15.75v-12.07h3.17v12.07h-3.17Z"/><path class="cls-10" d="M216.73,63.92l-4.85-12.07h3.4l3.15,8.4,3.15-8.4h3.42l-4.85,12.07h-3.42Z"/><path class="cls-10" d="M231.9,51.55c3.6,0,6.05,2.7,6.05,6.65v.7h-8.97c.2,1.52,1.42,2.8,3.47,2.8,1.12,0,2.45-.45,3.22-1.2l1.4,2.05c-1.22,1.12-3.1,1.67-4.97,1.67-3.67,0-6.45-2.47-6.45-6.35,0-3.5,2.57-6.32,6.25-6.32Zm-2.97,5.2h5.95c-.07-1.15-.87-2.67-2.97-2.67-1.97,0-2.82,1.47-2.97,2.67Z"/><path class="cls-10" d="M240.58,60.12c.88,.83,2.67,1.65,4.17,1.65,1.37,0,2.02-.47,2.02-1.22,0-.85-1.05-1.15-2.42-1.42-2.07-.4-4.75-.9-4.75-3.77,0-2.03,1.77-3.8,4.95-3.8,2.05,0,3.67,.7,4.85,1.65l-1.25,2.17c-.72-.77-2.1-1.4-3.57-1.4-1.15,0-1.9,.42-1.9,1.12,0,.75,.95,1.02,2.3,1.3,2.07,.4,4.85,.95,4.85,3.95,0,2.22-1.87,3.87-5.22,3.87-2.1,0-4.12-.7-5.4-1.87l1.37-2.22Z"/></g><g><g class="cls-12"><path class="cls-9" d="M129.55,72.52c0,5.96-4.83,10.79-10.79,10.79H51.01c-5.96,0-10.79-4.83-10.79-10.8V37.76c0-5.96,4.84-10.79,10.8-10.79H118.77c5.96,0,10.79,4.83,10.79,10.79v34.75Z"/></g><g><path class="cls-1" d="M40.22,72.71c0,5.96,4.83,10.79,10.79,10.79H118.77c5.95,0,10.78-4.83,10.78-10.79V37.96c0-5.96-4.83-10.79-10.78-10.79H51.01c-5.96,0-10.79,4.82-10.79,10.78v34.75Z"/><path class="cls-13" d="M43.04,70.97c0,5.36,4.35,9.71,9.71,9.71H117.02c5.36,0,9.7-4.35,9.7-9.7v-31.26c0-5.37-4.34-9.71-9.7-9.71H52.76c-5.36,0-9.71,4.34-9.71,9.7v31.26Z"/></g><path class="cls-7" d="M84.61,65.1v-13.41s-3.36,3.39-3.36,3.39l-2.94-3.09,6.99-6.9h4.47s0,20.01,0,20.01h-5.16Z"/></g><g><g id="Button"><rect class="cls-8" x="482.64" y="681.31" width="194.89" height="54.87" rx="8.78" ry="8.78"/></g><circle class="cls-11" cx="580.08" cy="683.08" r="20.19"/><g><path class="cls-3" d="M579.7,695.21c-.78,0-1.51-.34-2.02-.94l-3.67-4.34h-1c-2.42,0-4.4-1.97-4.4-4.4v-3.17c0-2.42,1.97-4.4,4.4-4.4h1l3.67-4.34c.5-.59,1.24-.94,2.02-.94,1.45,0,2.64,1.18,2.64,2.64v17.24c0,1.45-1.18,2.64-2.64,2.64Zm-6.68-15.48c-1.45,0-2.64,1.18-2.64,2.64v3.17c0,1.45,1.18,2.64,2.64,2.64h1.41c.26,0,.5,.11,.67,.31l3.93,4.65c.17,.2,.41,.31,.67,.31,.48,0,.88-.39,.88-.88v-17.24c0-.48-.39-.88-.88-.88-.26,0-.5,.11-.67,.31l-3.93,4.65c-.17,.2-.41,.31-.67,.31h-1.41Z"/><path class="cls-3" d="M584.98,690.11c-.49,0-.88-.39-.88-.88s.39-.88,.88-.88c2.42,0,4.4-1.97,4.4-4.4s-1.97-4.4-4.4-4.4c-.49,0-.88-.39-.88-.88s.39-.88,.88-.88c3.39,0,6.16,2.76,6.16,6.16s-2.76,6.16-6.16,6.16Z"/><path class="cls-3" d="M584.98,686.59c-.49,0-.88-.39-.88-.88s.39-.88,.88-.88,.88-.39,.88-.88-.39-.88-.88-.88-.88-.39-.88-.88,.39-.88,.88-.88c1.45,0,2.64,1.18,2.64,2.64s-1.18,2.64-2.64,2.64Z"/><path class="cls-3" d="M574.43,686.42c-.49,0-.88-.39-.88-.88v-3.17c0-.49,.39-.88,.88-.88s.88,.39,.88,.88v3.17c0,.49-.39,.88-.88,.88Z"/></g><g><path class="cls-2" d="M504.03,706.42h.02c.14,0,.25-.08,.25-.17l.35-16.78c0-.1-.11-.18-.24-.18h-.02c-.14,0-.25,.08-.25,.17l-.35,16.78c0,.1,.11,.18,.24,.18Z"/><path class="cls-2" d="M503.02,701.62h.05c.08,0,.15-.05,.16-.11l.19-9.36c0-.06-.07-.11-.15-.11h-.05c-.08,0-.15,.05-.16,.11l-.19,9.36c0,.06,.07,.11,.15,.11Z"/><path class="cls-2" d="M501.95,700.11h.17c.08,0,.15-.04,.15-.1l.13-6.37c0-.06-.06-.1-.14-.1h-.17c-.08,0-.15,.04-.15,.1l-.13,6.37c0,.06,.06,.1,.14,.1Z"/><path class="cls-2" d="M500.96,698.72h.16c.05,0,.1-.03,.1-.07l.08-3.69s-.04-.07-.1-.07h-.16c-.05,0-.1,.03-.1,.07l-.08,3.69s.04,.07,.1,.07Z"/><path class="cls-2" d="M500.2,698.21h.15s.08-.02,.08-.05l.06-2.72s-.03-.05-.07-.05h-.15s-.08,.02-.08,.05l-.06,2.72s.03,.05,.07,.05Z"/><path class="cls-2" d="M505.03,701.68h-.05c-.08,0-.15-.05-.15-.11l.19-9.36c0-.06,.07-.11,.16-.11h.05c.08,0,.15,.05,.15,.11l-.19,9.36c0,.06-.07,.11-.16,.11Z"/><path class="cls-2" d="M506.16,700.2h-.17c-.08,0-.14-.05-.14-.11l.13-6.37c0-.06,.07-.1,.15-.1h.17c.08,0,.14,.05,.14,.11l-.13,6.37c0,.06-.07,.1-.15,.1Z"/><path class="cls-2" d="M507.21,698.84h-.16c-.05,0-.1-.03-.1-.07l.08-3.69s.04-.07,.1-.07h.16c.05,0,.1,.03,.1,.07l-.08,3.69s-.04,.07-.1,.07Z"/><path class="cls-2" d="M507.99,698.35h-.15s-.08-.03-.07-.06l.06-2.72s.04-.05,.08-.05h.15s.08,.03,.07,.06l-.06,2.72s-.04,.05-.08,.05Z"/><path class="cls-2" d="M526.93,703.42h.08c.11,0,.19-.06,.19-.13l.23-11.32c0-.07-.08-.14-.19-.14h-.08c-.11,0-.19,.06-.19,.13l-.23,11.32c0,.07,.08,.14,.19,.14Z"/><path class="cls-2" d="M526.03,700.17h.08c.07,0,.12-.04,.12-.08l.13-6.31s-.05-.08-.12-.09h-.08c-.07,0-.12,.04-.12,.08l-.13,6.31s.05,.08,.12,.09Z"/><path class="cls-2" d="M525.08,699.14h.18c.06,0,.11-.03,.11-.08l.09-4.29s-.05-.08-.11-.08h-.18c-.06,0-.11,.03-.11,.08l-.09,4.29s.05,.08,.11,.08Z"/><path class="cls-2" d="M524.2,698.2h.17s.08-.02,.08-.05l.05-2.49s-.03-.05-.07-.05h-.17s-.08,.02-.08,.05l-.05,2.49s.03,.05,.07,.05Z"/><path class="cls-2" d="M523.53,697.85h.15s.06-.02,.06-.04l.04-1.83s-.03-.04-.06-.04h-.15s-.06,.02-.06,.04l-.04,1.83s.03,.04,.06,.04Z"/><path class="cls-2" d="M527.85,700.21h-.08c-.07,0-.12-.04-.12-.09l.13-6.31s.06-.08,.12-.08h.08c.07,0,.12,.04,.12,.09l-.13,6.31s-.06,.08-.12,.08Z"/><path class="cls-2" d="M528.83,699.21h-.18c-.06,0-.11-.04-.11-.08l.09-4.29s.05-.08,.11-.08h.18c.06,0,.11,.04,.11,.08l-.09,4.29s-.05,.08-.11,.08Z"/><path class="cls-2" d="M529.76,698.29h-.17s-.07-.03-.07-.06l.05-2.49s.03-.05,.08-.05h.17s.07,.03,.07,.06l-.05,2.49s-.03,.05-.08,.05Z"/><path class="cls-2" d="M530.44,697.96h-.15s-.06-.02-.06-.04l.04-1.83s.03-.04,.06-.04h.15s.06,.02,.06,.04l-.04,1.83s-.03,.04-.06,.04Z"/><path class="cls-2" d="M496.15,702.91h.08c.11,0,.19-.06,.19-.13l.23-11.32c0-.07-.08-.14-.19-.14h-.08c-.11,0-.19,.06-.19,.13l-.23,11.32c0,.07,.08,.14,.19,.14Z"/><path class="cls-2" d="M495.24,699.66h.08c.07,0,.12-.04,.12-.08l.13-6.31s-.05-.08-.12-.09h-.08c-.07,0-.12,.04-.12,.08l-.13,6.31s.05,.08,.12,.09Z"/><path class="cls-2" d="M494.3,698.63h.18c.06,0,.11-.03,.11-.08l.09-4.29s-.05-.08-.11-.08h-.18c-.06,0-.11,.03-.11,.08l-.09,4.29s.05,.08,.11,.08Z"/><path class="cls-2" d="M493.41,697.69h.17s.08-.02,.08-.05l.05-2.49s-.03-.05-.07-.05h-.17s-.08,.02-.08,.05l-.05,2.49s.03,.05,.07,.05Z"/><path class="cls-2" d="M492.74,697.34h.15s.06-.02,.06-.04l.04-1.83s-.03-.04-.06-.04h-.15s-.06,.02-.06,.04l-.04,1.83s.03,.04,.06,.04Z"/><path class="cls-2" d="M497.06,699.71h-.08c-.07,0-.12-.04-.12-.09l.13-6.31s.06-.08,.12-.08h.08c.07,0,.12,.04,.12,.09l-.13,6.31s-.06,.08-.12,.08Z"/><path class="cls-2" d="M498.05,698.7h-.18c-.06,0-.11-.04-.11-.08l.09-4.29s.05-.08,.11-.08h.18c.06,0,.11,.04,.11,.08l-.09,4.29s-.05,.08-.11,.08Z"/><path class="cls-2" d="M498.97,697.79h-.17s-.07-.03-.07-.06l.05-2.49s.03-.05,.08-.05h.17s.07,.03,.07,.06l-.05,2.49s-.03,.05-.08,.05Z"/><path class="cls-2" d="M499.66,697.46h-.15s-.06-.02-.06-.04l.04-1.83s.03-.04,.06-.04h.15s.06,.02,.06,.04l-.04,1.83s-.03,.04-.06,.04Z"/><path class="cls-2" d="M512.78,706.53h.02c.14,0,.25-.08,.25-.17l.35-16.78c0-.1-.11-.18-.24-.18h-.02c-.14,0-.25,.08-.25,.17l-.35,16.78c0,.1,.11,.18,.24,.18Z"/><path class="cls-2" d="M511.77,701.74h.05c.08,0,.15-.05,.16-.11l.19-9.36c0-.06-.07-.11-.15-.11h-.05c-.08,0-.15,.05-.16,.11l-.19,9.36c0,.06,.07,.11,.15,.11Z"/><path class="cls-2" d="M510.71,700.22h.17c.08,0,.15-.04,.15-.1l.13-6.37c0-.06-.06-.1-.14-.1h-.17c-.08,0-.15,.04-.15,.1l-.13,6.37c0,.06,.06,.1,.14,.1Z"/><path class="cls-2" d="M509.71,698.83h.16c.05,0,.1-.03,.1-.07l.08-3.69s-.04-.07-.1-.07h-.16c-.05,0-.1,.03-.1,.07l-.08,3.69s.04,.07,.1,.07Z"/><path class="cls-2" d="M508.95,698.32h.15s.08-.02,.08-.05l.06-2.72s-.03-.05-.07-.06h-.15s-.08,.02-.08,.05l-.06,2.72s.03,.05,.07,.05Z"/><path class="cls-2" d="M513.79,701.8h-.05c-.08,0-.15-.05-.15-.11l.19-9.36c0-.06,.07-.11,.16-.11h.05c.08,0,.15,.05,.15,.11l-.19,9.36c0,.06-.07,.11-.16,.11Z"/><path class="cls-2" d="M514.91,700.31h-.17c-.08,0-.14-.05-.14-.11l.13-6.37c0-.06,.07-.1,.15-.1h.17c.08,0,.14,.05,.14,.11l-.13,6.37c0,.06-.07,.1-.15,.1Z"/><path class="cls-2" d="M515.97,698.95h-.16c-.05,0-.1-.03-.1-.07l.08-3.69s.04-.07,.1-.07h.16c.05,0,.1,.03,.1,.07l-.08,3.69s-.04,.07-.1,.07Z"/><path class="cls-2" d="M516.75,698.46h-.15s-.08-.03-.07-.06l.06-2.72s.04-.05,.08-.05h.15s.08,.03,.07,.06l-.06,2.72s-.04,.05-.08,.05Z"/><path class="cls-2" d="M519.66,706.62h.02c.14,0,.25-.08,.25-.17l.35-16.78c0-.1-.11-.18-.24-.18h-.02c-.14,0-.25,.08-.25,.17l-.35,16.78c0,.1,.11,.18,.24,.18Z"/><path class="cls-2" d="M518.65,701.82h.05c.08,0,.15-.05,.16-.11l.19-9.36c0-.06-.07-.11-.15-.11h-.05c-.08,0-.15,.05-.16,.11l-.19,9.36c0,.06,.07,.11,.15,.11Z"/><path class="cls-2" d="M517.59,700.31h.17c.08,0,.15-.04,.15-.1l.13-6.37c0-.06-.06-.1-.14-.1h-.17c-.08,0-.15,.04-.15,.1l-.13,6.37c0,.06,.06,.1,.14,.1Z"/><path class="cls-2" d="M520.67,701.89h-.05c-.08,0-.15-.05-.15-.11l.19-9.36c0-.06,.07-.11,.16-.11h.05c.08,0,.15,.05,.15,.11l-.19,9.36c0,.06-.07,.11-.16,.11Z"/><path class="cls-2" d="M521.79,700.4h-.17c-.08,0-.14-.05-.14-.11l.13-6.37c0-.06,.07-.1,.15-.1h.17c.08,0,.14,.05,.14,.11l-.13,6.37c0,.06-.07,.1-.15,.1Z"/><path class="cls-2" d="M522.84,699.04h-.16c-.05,0-.1-.03-.1-.07l.08-3.69s.04-.07,.1-.07h.16c.05,0,.1,.03,.1,.07l-.08,3.69s-.04,.07-.1,.07Z"/></g><g><path class="cls-2" d="M641.04,705.93h.02c.14,0,.25-.08,.25-.17l.35-16.78c0-.1-.11-.18-.24-.18h-.02c-.14,0-.25,.08-.25,.17l-.35,16.78c0,.1,.11,.18,.24,.18Z"/><path class="cls-2" d="M640.02,701.13h.05c.08,0,.15-.05,.16-.11l.19-9.36c0-.06-.07-.11-.15-.11h-.05c-.08,0-.15,.05-.16,.11l-.19,9.36c0,.06,.07,.11,.15,.11Z"/><path class="cls-2" d="M638.96,699.62h.17c.08,0,.15-.04,.15-.1l.13-6.37c0-.06-.06-.1-.14-.1h-.17c-.08,0-.15,.04-.15,.1l-.13,6.37c0,.06,.06,.1,.14,.1Z"/><path class="cls-2" d="M637.96,698.23h.16c.05,0,.1-.03,.1-.07l.08-3.69s-.04-.07-.1-.07h-.16c-.05,0-.1,.03-.1,.07l-.08,3.69s.04,.07,.1,.07Z"/><path class="cls-2" d="M637.2,697.72h.15s.08-.02,.08-.05l.06-2.72s-.03-.05-.07-.05h-.15s-.08,.02-.08,.05l-.06,2.72s.03,.05,.07,.05Z"/><path class="cls-2" d="M642.04,701.2h-.05c-.08,0-.15-.05-.15-.11l.19-9.36c0-.06,.07-.11,.16-.11h.05c.08,0,.15,.05,.15,.11l-.19,9.36c0,.06-.07,.11-.16,.11Z"/><path class="cls-2" d="M643.16,699.71h-.17c-.08,0-.14-.05-.14-.11l.13-6.37c0-.06,.07-.1,.15-.1h.17c.08,0,.14,.05,.14,.11l-.13,6.37c0,.06-.07,.1-.15,.1Z"/><path class="cls-2" d="M644.22,698.35h-.16c-.05,0-.1-.03-.1-.07l.08-3.69s.04-.07,.1-.07h.16c.05,0,.1,.03,.1,.07l-.08,3.69s-.04,.07-.1,.07Z"/><path class="cls-2" d="M645,697.86h-.15s-.08-.03-.07-.06l.06-2.72s.04-.05,.08-.05h.15s.08,.03,.07,.06l-.06,2.72s-.04,.05-.08,.05Z"/><path class="cls-2" d="M663.94,702.93h.08c.11,0,.19-.06,.19-.13l.23-11.32c0-.07-.08-.14-.19-.14h-.08c-.11,0-.19,.06-.19,.13l-.23,11.32c0,.07,.08,.14,.19,.14Z"/><path class="cls-2" d="M663.03,699.68h.08c.07,0,.12-.04,.12-.08l.13-6.31s-.05-.08-.12-.09h-.08c-.07,0-.12,.04-.12,.08l-.13,6.31s.05,.08,.12,.09Z"/><path class="cls-2" d="M662.09,698.65h.18c.06,0,.11-.03,.11-.08l.09-4.29s-.05-.08-.11-.08h-.18c-.06,0-.11,.03-.11,.08l-.09,4.29s.05,.08,.11,.08Z"/><path class="cls-2" d="M661.2,697.71h.17s.08-.02,.08-.05l.05-2.49s-.03-.05-.07-.05h-.17s-.08,.02-.08,.05l-.05,2.49s.03,.05,.07,.05Z"/><path class="cls-2" d="M660.53,697.36h.15s.06-.02,.06-.04l.04-1.83s-.03-.04-.06-.04h-.15s-.06,.02-.06,.04l-.04,1.83s.03,.04,.06,.04Z"/><path class="cls-2" d="M664.85,699.73h-.08c-.07,0-.12-.04-.12-.09l.13-6.31s.06-.08,.12-.08h.08c.07,0,.12,.04,.12,.09l-.13,6.31s-.06,.08-.12,.08Z"/><path class="cls-2" d="M665.84,698.72h-.18c-.06,0-.11-.04-.11-.08l.09-4.29s.05-.08,.11-.08h.18c.06,0,.11,.04,.11,.08l-.09,4.29s-.05,.08-.11,.08Z"/><path class="cls-2" d="M666.76,697.8h-.17s-.07-.03-.07-.06l.05-2.49s.03-.05,.08-.05h.17s.07,.03,.07,.06l-.05,2.49s-.03,.05-.08,.05Z"/><path class="cls-2" d="M667.45,697.47h-.15s-.06-.02-.06-.04l.04-1.83s.03-.04,.06-.04h.15s.06,.02,.06,.04l-.04,1.83s-.03,.04-.06,.04Z"/><path class="cls-2" d="M633.16,702.42h.08c.11,0,.19-.06,.19-.13l.23-11.32c0-.07-.08-.14-.19-.14h-.08c-.11,0-.19,.06-.19,.13l-.23,11.32c0,.07,.08,.14,.19,.14Z"/><path class="cls-2" d="M632.25,699.17h.08c.07,0,.12-.04,.12-.08l.13-6.31s-.05-.08-.12-.09h-.08c-.07,0-.12,.04-.12,.08l-.13,6.31s.05,.08,.12,.09Z"/><path class="cls-2" d="M631.3,698.14h.18c.06,0,.11-.03,.11-.08l.09-4.29s-.05-.08-.11-.08h-.18c-.06,0-.11,.03-.11,.08l-.09,4.29s.05,.08,.11,.08Z"/><path class="cls-2" d="M630.42,697.2h.17s.08-.02,.08-.05l.05-2.49s-.03-.05-.07-.05h-.17s-.08,.02-.08,.05l-.05,2.49s.03,.05,.07,.05Z"/><path class="cls-2" d="M629.75,696.85h.15s.06-.02,.06-.04l.04-1.83s-.03-.04-.06-.04h-.15s-.06,.02-.06,.04l-.04,1.83s.03,.04,.06,.04Z"/><path class="cls-2" d="M634.07,699.22h-.08c-.07,0-.12-.04-.12-.09l.13-6.31s.06-.08,.12-.08h.08c.07,0,.12,.04,.12,.09l-.13,6.31s-.06,.08-.12,.08Z"/><path class="cls-2" d="M635.06,698.21h-.18c-.06,0-.11-.04-.11-.08l.09-4.29s.05-.08,.11-.08h.18c.06,0,.11,.04,.11,.08l-.09,4.29s-.05,.08-.11,.08Z"/><path class="cls-2" d="M635.98,697.3h-.17s-.07-.03-.07-.06l.05-2.49s.03-.05,.08-.05h.17s.07,.03,.07,.06l-.05,2.49s-.03,.05-.08,.05Z"/><path class="cls-2" d="M636.66,696.97h-.15s-.06-.02-.06-.04l.04-1.83s.03-.04,.06-.04h.15s.06,.02,.06,.04l-.04,1.83s-.03,.04-.06,.04Z"/><path class="cls-2" d="M649.79,706.04h.02c.14,0,.25-.08,.25-.17l.35-16.78c0-.1-.11-.18-.24-.18h-.02c-.14,0-.25,.08-.25,.17l-.35,16.78c0,.1,.11,.18,.24,.18Z"/><path class="cls-2" d="M648.78,701.25h.05c.08,0,.15-.05,.16-.11l.19-9.36c0-.06-.07-.11-.15-.11h-.05c-.08,0-.15,.05-.16,.11l-.19,9.36c0,.06,.07,.11,.15,.11Z"/><path class="cls-2" d="M647.72,699.73h.17c.08,0,.15-.04,.15-.1l.13-6.37c0-.06-.06-.1-.14-.1h-.17c-.08,0-.15,.04-.15,.1l-.13,6.37c0,.06,.06,.1,.14,.1Z"/><path class="cls-2" d="M646.72,698.34h.16c.05,0,.1-.03,.1-.07l.08-3.69s-.04-.07-.1-.07h-.16c-.05,0-.1,.03-.1,.07l-.08,3.69s.04,.07,.1,.07Z"/><path class="cls-2" d="M645.96,697.83h.15s.08-.02,.08-.05l.06-2.72s-.03-.05-.07-.06h-.15s-.08,.02-.08,.05l-.06,2.72s.03,.05,.07,.05Z"/><path class="cls-2" d="M650.8,701.31h-.05c-.08,0-.15-.05-.15-.11l.19-9.36c0-.06,.07-.11,.16-.11h.05c.08,0,.15,.05,.15,.11l-.19,9.36c0,.06-.07,.11-.16,.11Z"/><path class="cls-2" d="M651.92,699.82h-.17c-.08,0-.14-.05-.14-.11l.13-6.37c0-.06,.07-.1,.15-.1h.17c.08,0,.14,.05,.14,.11l-.13,6.37c0,.06-.07,.1-.15,.1Z"/><path class="cls-2" d="M652.97,698.46h-.16c-.05,0-.1-.03-.1-.07l.08-3.69s.04-.07,.1-.07h.16c.05,0,.1,.03,.1,.07l-.08,3.69s-.04,.07-.1,.07Z"/><path class="cls-2" d="M653.75,697.97h-.15s-.08-.03-.07-.06l.06-2.72s.04-.05,.08-.05h.15s.08,.03,.07,.06l-.06,2.72s-.04,.05-.08,.05Z"/><path class="cls-2" d="M656.67,706.13h.02c.14,0,.25-.08,.25-.17l.35-16.78c0-.1-.11-.18-.24-.18h-.02c-.14,0-.25,.08-.25,.17l-.35,16.78c0,.1,.11,.18,.24,.18Z"/><path class="cls-2" d="M655.65,701.33h.05c.08,0,.15-.05,.16-.11l.19-9.36c0-.06-.07-.11-.15-.11h-.05c-.08,0-.15,.05-.16,.11l-.19,9.36c0,.06,.07,.11,.15,.11Z"/><path class="cls-2" d="M654.59,699.82h.17c.08,0,.15-.04,.15-.1l.13-6.37c0-.06-.06-.1-.14-.1h-.17c-.08,0-.15,.04-.15,.1l-.13,6.37c0,.06,.06,.1,.14,.1Z"/><path class="cls-2" d="M657.67,701.4h-.05c-.08,0-.15-.05-.15-.11l.19-9.36c0-.06,.07-.11,.16-.11h.05c.08,0,.15,.05,.15,.11l-.19,9.36c0,.06-.07,.11-.16,.11Z"/><path class="cls-2" d="M658.79,699.91h-.17c-.08,0-.14-.05-.14-.11l.13-6.37c0-.06,.07-.1,.15-.1h.17c.08,0,.14,.05,.14,.11l-.13,6.37c0,.06-.07,.1-.15,.1Z"/><path class="cls-2" d="M659.85,698.55h-.16c-.05,0-.1-.03-.1-.07l.08-3.69s.04-.07,.1-.07h.16c.05,0,.1,.03,.1,.07l-.08,3.69s-.04,.07-.1,.07Z"/></g><g><path class="cls-3" d="M528.46,725.41v-8.12h4.07c1.83,0,2.83,1.23,2.83,2.7s-1,2.67-2.83,2.67h-1.97v2.75h-2.09Zm3.79-6.36h-1.69v1.83h1.69c.56,0,.97-.35,.97-.9s-.41-.92-.97-.92Z"/><path class="cls-3" d="M536.2,725.41v-8.12h2.09v6.29h3.26v1.83h-5.36Z"/><path class="cls-3" d="M548.47,725.41l-.41-1.23h-3.37l-.41,1.23h-2.28l3.06-8.12h2.63l3.07,8.12h-2.28Zm-2.11-6.3l-1.13,3.3h2.28l-1.14-3.3Z"/><path class="cls-3" d="M552.72,725.41v-3.28l-3.08-4.85h2.36l1.77,3,1.74-3h2.37l-3.07,4.85v3.28h-2.09Z"/><path class="cls-3" d="M563.42,725.41v-6.3h-2.28v-1.83h6.64v1.83h-2.26v6.3h-2.09Z"/><path class="cls-3" d="M574.06,725.41v-3.26h-3.37v3.26h-2.09v-8.12h2.09v3.03h3.37v-3.03h2.09v8.12h-2.09Z"/><path class="cls-3" d="M577.68,725.41v-8.12h5.96v1.77h-3.86v1.35h3.77v1.78h-3.77v1.46h3.86v1.77h-5.96Z"/><path class="cls-3" d="M593.59,725.41l-.41-1.23h-3.37l-.41,1.23h-2.28l3.06-8.12h2.63l3.07,8.12h-2.28Zm-2.11-6.3l-1.13,3.3h2.28l-1.14-3.3Z"/><path class="cls-3" d="M596.18,717.29h2.13v4.76c0,.96,.51,1.66,1.64,1.66s1.63-.69,1.63-1.66v-4.76h2.13v4.82c0,2.02-1.16,3.45-3.76,3.45s-3.77-1.44-3.77-3.43v-4.83Z"/><path class="cls-3" d="M605.21,725.41v-8.12h3.41c2.56,0,4.4,1.53,4.4,4.05s-1.84,4.07-4.38,4.07h-3.42Zm2.09-1.83h1.31c1.42,0,2.25-1.03,2.25-2.24s-.75-2.23-2.24-2.23h-1.33v4.47Z"/><path class="cls-3" d="M614.11,725.41v-8.12h2.09v8.12h-2.09Z"/><path class="cls-3" d="M621.63,717.15c2.48,0,4.33,1.73,4.33,4.2s-1.85,4.2-4.33,4.2-4.35-1.73-4.35-4.2,1.86-4.2,4.35-4.2Zm0,1.85c-1.35,0-2.22,1.02-2.22,2.35s.86,2.35,2.22,2.35,2.2-1.04,2.2-2.35-.86-2.35-2.2-2.35Z"/></g></g><g><path class="cls-10" d="M381.84,625.44c2.34,0,4.22,1.02,5.24,2.86l-1.1,.5c-.92-1.66-2.5-2.32-4.22-2.32-3.04,0-6.08,2.68-6.08,6.94,0,2.86,1.86,4.78,4.82,4.78,1.3,0,2.58-.48,3.76-1.52l.82,.68c-1.36,1.3-3.04,1.88-4.64,1.88-3.5,0-6-2.3-6-5.78,0-4.86,3.66-8.02,7.4-8.02Z"/><path class="cls-10" d="M387.08,639l2.94-13.34h1.04l-2.94,13.34h-1.04Z"/><path class="cls-10" d="M391.36,639l2.14-9.66h1.04l-2.14,9.66h-1.04Zm3.26-12.9c.42,0,.74,.32,.74,.7,0,.56-.5,.9-.9,.9s-.74-.32-.74-.7c0-.56,.5-.9,.9-.9Z"/><path class="cls-10" d="M401.38,629.1c1.66,0,2.8,.64,3.46,1.76l-.8,.6c-.56-.98-1.56-1.42-2.62-1.42-2.66,0-4.3,2.4-4.3,4.94,0,2.2,1.42,3.32,3.3,3.32,1.08,0,2-.5,2.62-1.24l.6,.72c-.84,.88-1.86,1.46-3.32,1.46-2.48,0-4.3-1.54-4.3-4.28,0-3.18,2.34-5.86,5.36-5.86Z"/><path class="cls-10" d="M412.34,639l-2.9-4.66-2.24,1.76-.64,2.9h-1.04l2.94-13.34h1.04l-2.02,9.12,6.84-5.44h1.46l-5.48,4.36,3.32,5.3h-1.28Z"/><path class="cls-10" d="M426.48,629.1c2.6,0,4.26,1.68,4.26,4.24,0,3.06-2.26,5.9-5.32,5.9-2.6,0-4.26-1.68-4.26-4.24,0-3.06,2.26-5.9,5.32-5.9Zm-.02,.94c-2.42,0-4.16,2.42-4.16,4.92,0,2.02,1.16,3.34,3.14,3.34,2.42,0,4.16-2.42,4.16-4.92,0-2.02-1.16-3.34-3.14-3.34Z"/><path class="cls-10" d="M438.74,639l1.44-6.56c.04-.18,.12-.46,.12-.7,0-1.2-.92-1.7-2.1-1.7-1.26,0-2.5,.82-3.34,1.68l-1.6,7.28h-1.04l2.14-9.66h1.04l-.32,1.46c.86-.84,2.12-1.7,3.48-1.7,1.64,0,2.82,.78,2.82,2.36,0,.18-.06,.6-.12,.82l-1.48,6.72h-1.04Z"/><path class="cls-10" d="M453.94,629.1c2.58,0,4.1,1.82,4.1,4.18,0,.42-.1,.98-.16,1.22h-8.16c-.02,.12-.04,.38-.04,.56,0,1.78,1.18,3.28,3.54,3.28,.98,0,2.08-.34,2.92-1.04l.4,.76c-.86,.66-2.1,1.18-3.36,1.18-2.9,0-4.6-1.74-4.6-4.26,0-3.22,2.36-5.88,5.36-5.88Zm3.08,4.58c.02-.1,.02-.32,.02-.44,0-1.88-1.14-3.24-3.22-3.24-1.94,0-3.66,1.7-4,3.68h7.2Z"/><path class="cls-10" d="M468.8,629.34h1.06l-2.14,9.66h-1.06l.34-1.46c-.8,1.02-1.94,1.7-3.32,1.7-2.22,0-3.78-1.46-3.78-3.96,0-3.26,2.02-6.18,5.08-6.18,1.58,0,2.82,.78,3.48,1.88l.34-1.64Zm-4.84,8.96c1.36,0,2.62-.86,3.28-1.86l1.02-4.64c-.48-.96-1.64-1.76-3.2-1.76-2.42,0-4.02,2.5-4.02,5.06,0,1.98,1.16,3.2,2.92,3.2Z"/><path class="cls-10" d="M476.7,629.1c1.66,0,2.8,.64,3.46,1.76l-.8,.6c-.56-.98-1.56-1.42-2.62-1.42-2.66,0-4.3,2.4-4.3,4.94,0,2.2,1.42,3.32,3.3,3.32,1.08,0,2-.5,2.62-1.24l.6,.72c-.84,.88-1.86,1.46-3.32,1.46-2.48,0-4.3-1.54-4.3-4.28,0-3.18,2.34-5.86,5.36-5.86Z"/><path class="cls-10" d="M487.36,639l1.44-6.56c.04-.18,.12-.54,.12-.7,0-1.2-.92-1.7-2.16-1.7s-2.44,.84-3.28,1.7l-1.6,7.26h-1.04l2.94-13.34h1.04l-1.12,5.14c.86-.84,2.12-1.7,3.48-1.7,1.64,0,2.82,.78,2.82,2.36,0,.16-.06,.6-.12,.82l-1.48,6.72h-1.04Z"/><path class="cls-10" d="M497.86,639h-1.04l2.94-13.34h1.04l-1.12,5.14c.78-1.02,1.94-1.7,3.32-1.7,2.2,0,3.76,1.48,3.76,3.98,0,3.22-2.02,6.16-5.06,6.16-1.6,0-2.82-.78-3.48-1.88l-.36,1.64Zm4.84-8.96c-1.36,0-2.6,.86-3.28,1.86l-1.02,4.64c.48,.96,1.64,1.76,3.2,1.76,2.44,0,4.02-2.5,4.02-5.04,0-1.98-1.16-3.22-2.92-3.22Z"/><path class="cls-10" d="M511.42,629.34l-1.44,6.54c-.04,.2-.12,.5-.12,.72,0,1.2,.92,1.7,2.14,1.7s2.46-.84,3.28-1.7l1.62-7.26h1.04l-2.14,9.66h-1.04l.32-1.46c-.86,.84-2.12,1.7-3.48,1.7-1.64,0-2.82-.78-2.82-2.36,0-.2,.06-.6,.12-.82l1.48-6.72h1.04Z"/><path class="cls-10" d="M519.66,637.1l1.52-6.84h-1.6l.2-.92h1.6l.58-2.64h1.06l-.58,2.64h1.96l-.22,.92h-1.96l-1.48,6.7c-.02,.1-.04,.24-.04,.42,0,.58,.34,.92,.98,.92,.38,0,.78-.18,1.02-.36l.2,.84c-.36,.28-.82,.46-1.38,.46-1.2,0-1.92-.5-1.92-1.62,0-.08,.02-.32,.06-.52Z"/><path class="cls-10" d="M525.16,637.1l1.52-6.84h-1.6l.2-.92h1.6l.58-2.64h1.06l-.58,2.64h1.96l-.22,.92h-1.96l-1.48,6.7c-.02,.1-.04,.24-.04,.42,0,.58,.34,.92,.98,.92,.38,0,.78-.18,1.02-.36l.2,.84c-.36,.28-.82,.46-1.38,.46-1.2,0-1.92-.5-1.92-1.62,0-.08,.02-.32,.06-.52Z"/><path class="cls-10" d="M535.72,629.1c2.6,0,4.26,1.68,4.26,4.24,0,3.06-2.26,5.9-5.32,5.9-2.6,0-4.26-1.68-4.26-4.24,0-3.06,2.26-5.9,5.32-5.9Zm-.02,.94c-2.42,0-4.16,2.42-4.16,4.92,0,2.02,1.16,3.34,3.14,3.34,2.42,0,4.16-2.42,4.16-4.92,0-2.02-1.16-3.34-3.14-3.34Z"/><path class="cls-10" d="M547.98,639l1.44-6.56c.04-.18,.12-.46,.12-.7,0-1.2-.92-1.7-2.1-1.7-1.26,0-2.5,.82-3.34,1.68l-1.6,7.28h-1.04l2.14-9.66h1.04l-.32,1.46c.86-.84,2.12-1.7,3.48-1.7,1.64,0,2.82,.78,2.82,2.36,0,.18-.06,.6-.12,.82l-1.48,6.72h-1.04Z"/><path class="cls-10" d="M558.06,637.1l1.52-6.84h-1.6l.2-.92h1.6l.58-2.64h1.06l-.58,2.64h1.96l-.22,.92h-1.96l-1.48,6.7c-.02,.1-.04,.24-.04,.42,0,.58,.34,.92,.98,.92,.38,0,.78-.18,1.02-.36l.2,.84c-.36,.28-.82,.46-1.38,.46-1.2,0-1.92-.5-1.92-1.62,0-.08,.02-.32,.06-.52Z"/><path class="cls-10" d="M568.62,629.1c2.6,0,4.26,1.68,4.26,4.24,0,3.06-2.26,5.9-5.32,5.9-2.6,0-4.26-1.68-4.26-4.24,0-3.06,2.26-5.9,5.32-5.9Zm-.02,.94c-2.42,0-4.16,2.42-4.16,4.92,0,2.02,1.16,3.34,3.14,3.34,2.42,0,4.16-2.42,4.16-4.92,0-2.02-1.16-3.34-3.14-3.34Z"/><path class="cls-10" d="M585.28,629.1c2.58,0,4.1,1.82,4.1,4.18,0,.42-.1,.98-.16,1.22h-8.16c-.02,.12-.04,.38-.04,.56,0,1.78,1.18,3.28,3.54,3.28,.98,0,2.08-.34,2.92-1.04l.4,.76c-.86,.66-2.1,1.18-3.36,1.18-2.9,0-4.6-1.74-4.6-4.26,0-3.22,2.36-5.88,5.36-5.88Zm3.08,4.58c.02-.1,.02-.32,.02-.44,0-1.88-1.14-3.24-3.22-3.24-1.94,0-3.66,1.7-4,3.68h7.2Z"/><path class="cls-10" d="M596.8,639l-2.26-4.26-4.14,4.26h-1.32l4.9-4.96-2.54-4.7h1.18l2.1,3.98,3.86-3.98h1.32l-4.66,4.7,2.74,4.96h-1.18Z"/><path class="cls-10" d="M600.16,642.68h-1.04l2.96-13.34h1.04l-.32,1.46c.78-1.02,1.94-1.7,3.32-1.7,2.2,0,3.76,1.48,3.76,3.98,0,3.22-2.02,6.16-5.06,6.16-1.6,0-2.82-.78-3.48-1.88l-1.18,5.32Zm5.66-12.64c-1.36,0-2.6,.86-3.28,1.86l-1.02,4.64c.48,.96,1.64,1.76,3.2,1.76,2.44,0,4.02-2.5,4.02-5.04,0-1.98-1.16-3.22-2.92-3.22Z"/><path class="cls-10" d="M620.54,629.34h1.06l-2.14,9.66h-1.06l.34-1.46c-.8,1.02-1.94,1.7-3.32,1.7-2.22,0-3.78-1.46-3.78-3.96,0-3.26,2.02-6.18,5.08-6.18,1.58,0,2.82,.78,3.48,1.88l.34-1.64Zm-4.84,8.96c1.36,0,2.62-.86,3.28-1.86l1.02-4.64c-.48-.96-1.64-1.76-3.2-1.76-2.42,0-4.02,2.5-4.02,5.06,0,1.98,1.16,3.2,2.92,3.2Z"/><path class="cls-10" d="M629.22,639l1.44-6.56c.04-.18,.12-.46,.12-.7,0-1.2-.92-1.7-2.1-1.7-1.26,0-2.5,.82-3.34,1.68l-1.6,7.28h-1.04l2.14-9.66h1.04l-.32,1.46c.86-.84,2.12-1.7,3.48-1.7,1.64,0,2.82,.78,2.82,2.36,0,.18-.06,.6-.12,.82l-1.48,6.72h-1.04Z"/><path class="cls-10" d="M643.58,625.66h1.06l-2.96,13.34h-1.06l.34-1.46c-.8,1.02-1.94,1.7-3.32,1.7-2.22,0-3.78-1.46-3.78-3.96,0-3.26,2.02-6.18,5.08-6.18,1.58,0,2.82,.78,3.48,1.88l1.16-5.32Zm-5.66,12.64c1.36,0,2.62-.86,3.28-1.86l1.02-4.64c-.48-.96-1.64-1.76-3.2-1.76-2.42,0-4.02,2.5-4.02,5.06,0,1.98,1.16,3.2,2.92,3.2Z"/><path class="cls-10" d="M650.72,637.1l1.52-6.84h-1.6l.2-.92h1.6l.58-2.64h1.06l-.58,2.64h1.96l-.22,.92h-1.96l-1.48,6.7c-.02,.1-.04,.24-.04,.42,0,.58,.34,.92,.98,.92,.38,0,.78-.18,1.02-.36l.2,.84c-.36,.28-.82,.46-1.38,.46-1.2,0-1.92-.5-1.92-1.62,0-.08,.02-.32,.06-.52Z"/><path class="cls-10" d="M662.12,639l1.44-6.56c.04-.18,.12-.54,.12-.7,0-1.2-.92-1.7-2.16-1.7s-2.44,.84-3.28,1.7l-1.6,7.26h-1.04l2.94-13.34h1.04l-1.12,5.14c.86-.84,2.12-1.7,3.48-1.7,1.64,0,2.82,.78,2.82,2.36,0,.16-.06,.6-.12,.82l-1.48,6.72h-1.04Z"/><path class="cls-10" d="M672.14,629.1c2.58,0,4.1,1.82,4.1,4.18,0,.42-.1,.98-.16,1.22h-8.16c-.02,.12-.04,.38-.04,.56,0,1.78,1.18,3.28,3.54,3.28,.98,0,2.08-.34,2.92-1.04l.4,.76c-.86,.66-2.1,1.18-3.36,1.18-2.9,0-4.6-1.74-4.6-4.26,0-3.22,2.36-5.88,5.36-5.88Zm3.08,4.58c.02-.1,.02-.32,.02-.44,0-1.88-1.14-3.24-3.22-3.24-1.94,0-3.66,1.7-4,3.68h7.2Z"/><path class="cls-10" d="M682.92,639l2.14-9.66h1.04l-2.14,9.66h-1.04Zm3.26-12.9c.42,0,.74,.32,.74,.7,0,.56-.5,.9-.9,.9s-.74-.32-.74-.7c0-.56,.5-.9,.9-.9Z"/><path class="cls-10" d="M693.72,639l1.44-6.56c.04-.18,.12-.46,.12-.7,0-1.2-.92-1.7-2.1-1.7-1.26,0-2.5,.82-3.34,1.68l-1.6,7.28h-1.04l2.14-9.66h1.04l-.32,1.46c.86-.84,2.12-1.7,3.48-1.7,1.64,0,2.82,.78,2.82,2.36,0,.18-.06,.6-.12,.82l-1.48,6.72h-1.04Z"/><path class="cls-10" d="M701.32,630.26l-1.94,8.74h-1.04l1.94-8.74h-1.6l.2-.92h1.6l.18-.88c.42-1.9,1.38-3,3-3,.58,0,1.04,.1,1.52,.42l-.44,.76c-.3-.22-.68-.28-1.06-.28-1.1,0-1.66,.76-1.96,2.1l-.2,.88h1.96l-.2,.92h-1.96Z"/><path class="cls-10" d="M708.98,629.1c2.6,0,4.26,1.68,4.26,4.24,0,3.06-2.26,5.9-5.32,5.9-2.6,0-4.26-1.68-4.26-4.24,0-3.06,2.26-5.9,5.32-5.9Zm-.02,.94c-2.42,0-4.16,2.42-4.16,4.92,0,2.02,1.16,3.34,3.14,3.34,2.42,0,4.16-2.42,4.16-4.92,0-2.02-1.16-3.34-3.14-3.34Z"/><path class="cls-10" d="M714.72,639l2.14-9.66h1.04l-.36,1.56c1-1.16,1.94-1.76,3.66-1.76l-.24,1.12c-.12-.02-.36-.06-.7-.06-1.18,0-2.32,.88-2.94,1.76l-1.56,7.04h-1.04Z"/><path class="cls-10" d="M732.56,639l1.48-6.72c.02-.08,.08-.34,.08-.58,0-1.06-.82-1.66-1.76-1.66-1.02,0-2.16,.8-2.9,1.68l-1.6,7.28h-1.06l1.5-6.72c.04-.3,.08-.4,.08-.7-.02-.86-.64-1.54-1.8-1.54-1,0-2.1,.8-2.88,1.68l-1.6,7.28h-1.04l2.14-9.66h1.04l-.32,1.46c.54-.62,1.68-1.7,3.08-1.7,1.62,0,2.42,1.16,2.42,1.86v.06c.76-.96,1.96-1.92,3.34-1.92,1.3,0,2.44,.82,2.44,2.36,0,.2-.06,.54-.12,.82l-1.48,6.72h-1.04Z"/><path class="cls-10" d="M746.1,629.34h1.06l-2.14,9.66h-1.06l.34-1.46c-.8,1.02-1.94,1.7-3.32,1.7-2.22,0-3.78-1.46-3.78-3.96,0-3.26,2.02-6.18,5.08-6.18,1.58,0,2.82,.78,3.48,1.88l.34-1.64Zm-4.84,8.96c1.36,0,2.62-.86,3.28-1.86l1.02-4.64c-.48-.96-1.64-1.76-3.2-1.76-2.42,0-4.02,2.5-4.02,5.06,0,1.98,1.16,3.2,2.92,3.2Z"/><path class="cls-10" d="M748.88,637.1l1.52-6.84h-1.6l.2-.92h1.6l.58-2.64h1.06l-.58,2.64h1.96l-.22,.92h-1.96l-1.48,6.7c-.02,.1-.04,.24-.04,.42,0,.58,.34,.92,.98,.92,.38,0,.78-.18,1.02-.36l.2,.84c-.36,.28-.82,.46-1.38,.46-1.2,0-1.92-.5-1.92-1.62,0-.08,.02-.32,.06-.52Z"/><path class="cls-10" d="M753.76,639l2.14-9.66h1.04l-2.14,9.66h-1.04Zm3.26-12.9c.42,0,.74,.32,.74,.7,0,.56-.5,.9-.9,.9s-.74-.32-.74-.7c0-.56,.5-.9,.9-.9Z"/><path class="cls-10" d="M763.72,629.1c2.6,0,4.26,1.68,4.26,4.24,0,3.06-2.26,5.9-5.32,5.9-2.6,0-4.26-1.68-4.26-4.24,0-3.06,2.26-5.9,5.32-5.9Zm-.02,.94c-2.42,0-4.16,2.42-4.16,4.92,0,2.02,1.16,3.34,3.14,3.34,2.42,0,4.16-2.42,4.16-4.92,0-2.02-1.16-3.34-3.14-3.34Z"/><path class="cls-10" d="M775.98,639l1.44-6.56c.04-.18,.12-.46,.12-.7,0-1.2-.92-1.7-2.1-1.7-1.26,0-2.5,.82-3.34,1.68l-1.6,7.28h-1.04l2.14-9.66h1.04l-.32,1.46c.86-.84,2.12-1.7,3.48-1.7,1.64,0,2.82,.78,2.82,2.36,0,.18-.06,.6-.12,.82l-1.48,6.72h-1.04Z"/><path class="cls-10" d="M781.05,637.44c.44,0,.8,.36,.8,.82,0,.52-.44,.94-.96,.94-.46,0-.8-.36-.8-.82,0-.52,.42-.94,.96-.94Z"/></g><g><rect class="cls-6" x="1036.6" width="52" height="9"/><g><path class="cls-15" d="M1042.55,100.51c-12.65-6.84-21.52-19.94-22.27-35.36-1.13-23.44,16.95-43.37,40.4-44.5,23.44-1.13,43.37,16.95,44.5,40.4,.8,16.66-8.09,31.54-21.72,39.16"/><g><path class="cls-6" d="M1050.24,76.58c.5,0,.91-.41,.91-.91v-3.08h3.08c.5,0,.91-.41,.91-.91s-.41-.91-.91-.91h-3.99c-.5,0-.91,.41-.91,.91v3.99c0,.5,.41,.91,.91,.91Z"/><path class="cls-6" d="M1068.97,72.59h3.08v3.08c0,.5,.41,.91,.91,.91s.91-.41,.91-.91v-3.99c0-.5-.41-.91-.91-.91h-3.99c-.5,0-.91,.41-.91,.91s.41,.91,.91,.91h0Z"/><path class="cls-6" d="M1055.14,94.41c0-.5-.41-.91-.91-.91h-3.08v-3.08c0-.5-.41-.91-.91-.91s-.91,.41-.91,.91v3.99c0,.5,.41,.91,.91,.91h3.99c.5,0,.91-.41,.91-.91Z"/><path class="cls-6" d="M1072.97,89.51c-.5,0-.91,.41-.91,.91v3.08h-3.08c-.5,0-.91,.41-.91,.91s.41,.91,.91,.91h3.99c.5,0,.91-.41,.91-.91v-3.99c0-.5-.41-.91-.91-.91h0Z"/><path class="cls-6" d="M1075.41,98.58c-.63,0-1.21,.19-1.7,.52-.56-.93-1.59-1.56-2.75-1.56-.77,0-1.48,.27-2.04,.73-.59-.78-1.52-1.28-2.57-1.28-.5,0-.97,.11-1.39,.32v-4.42c4.21-1.44,7.03-5.37,7.03-9.84,0-4.03-2.36-7.73-6.01-9.43-.46-.21-1-.02-1.21,.44-.21,.46-.02,1,.44,1.21,3.01,1.4,4.96,4.46,4.96,7.78s-2.06,6.55-5.21,7.89v-.27c0-.83-.3-1.59-.8-2.17,2.04-.97,3.46-3.05,3.46-5.45,0-3.32-2.7-6.03-6.03-6.03s-6.03,2.7-6.03,6.03c0,2.41,1.42,4.49,3.46,5.45-.5,.59-.8,1.34-.8,2.17v.27c-3.15-1.34-5.21-4.42-5.21-7.89s1.95-6.37,4.96-7.78c.46-.21,.65-.75,.44-1.21-.21-.46-.75-.65-1.21-.44-3.65,1.7-6.01,5.4-6.01,9.43,0,4.47,2.82,8.4,7.03,9.84v9.14l-1.26-2.38c-.42-.79-1.13-1.37-2-1.62-.86-.25-1.77-.14-2.55,.32h-.01c-1.34,.78-1.96,2.41-1.47,3.88l1.56,4.7c1.28,3.88,3.53,7.41,6.48,10.22,.18,.17,.4,.25,.63,.25,.24,0,.48-.09,.66-.28,.35-.36,.33-.94-.03-1.29-2.74-2.61-4.82-5.88-6.01-9.48l-1.56-4.7c-.22-.65,.06-1.38,.65-1.72h.01c.35-.21,.75-.26,1.13-.15,.38,.11,.7,.37,.89,.72l3.45,6.49c.24,.44,.79,.61,1.23,.38,.44-.24,.61-.79,.38-1.23l-.36-.68v-14.79c0-.85,.69-1.54,1.54-1.54s1.54,.69,1.54,1.54v14.51c0,.5,.41,.91,.91,.91s.91-.41,.91-.91v-4.98c0-.77,.62-1.39,1.39-1.39s1.39,.62,1.39,1.39v4.98c0,.5,.41,.91,.91,.91s.91-.41,.91-.91v-4.43c0-.77,.62-1.39,1.39-1.39s1.39,.62,1.39,1.39v4.43c0,.5,.41,.91,.91,.91s.91-.41,.91-.91v-3.54c0-.68,.55-1.24,1.24-1.24s1.24,.55,1.24,1.24v8.85c0,1.97-.61,3.86-1.76,5.47-.29,.41-.2,.98,.21,1.27,.16,.12,.35,.17,.53,.17,.28,0,.56-.13,.74-.38,1.37-1.92,2.1-4.17,2.1-6.53v-8.85c0-1.69-1.37-3.06-3.06-3.06h0Zm-18.01-15.53c0-2.32,1.89-4.2,4.2-4.2s4.2,1.89,4.2,4.2-1.89,4.2-4.2,4.2c-2.32,0-4.2-1.89-4.2-4.2h0Z"/><circle class="cls-6" cx="1061.6" cy="73.56" r=".91"/></g><g><path class="cls-6" d="M1032.97,61.62v-8.61h1.83v8.61h-1.83Z"/><path class="cls-6" d="M1040.67,61.62v-3.77c0-.86-.45-1.16-1.15-1.16-.65,0-1.15,.36-1.42,.74v4.2h-1.64v-6.24h1.64v.81c.4-.48,1.16-.97,2.18-.97,1.37,0,2.03,.77,2.03,1.99v4.4h-1.64Z"/><path class="cls-6" d="M1044.27,60.07v-3.25h-1.03v-1.43h1.03v-1.7h1.65v1.7h1.27v1.43h-1.27v2.81c0,.39,.21,.68,.57,.68,.25,0,.48-.09,.57-.18l.35,1.24c-.25,.22-.68,.4-1.37,.4-1.15,0-1.77-.59-1.77-1.7Z"/><path class="cls-6" d="M1051.13,55.23c1.86,0,3.12,1.39,3.12,3.43v.36h-4.63c.1,.79,.74,1.45,1.79,1.45,.58,0,1.26-.23,1.67-.62l.72,1.06c-.63,.58-1.6,.87-2.57,.87-1.9,0-3.33-1.28-3.33-3.28,0-1.81,1.33-3.27,3.23-3.27Zm-1.54,2.68h3.07c-.04-.59-.45-1.38-1.54-1.38-1.02,0-1.46,.76-1.54,1.38Z"/><path class="cls-6" d="M1055.45,61.62v-6.24h1.64v.85c.44-.56,1.21-.99,1.99-.99v1.6c-.12-.03-.27-.04-.45-.04-.54,0-1.26,.3-1.54,.7v4.12h-1.64Z"/><path class="cls-6" d="M1063.84,61.62v-.65c-.43,.5-1.16,.8-1.98,.8-.99,0-2.17-.67-2.17-2.07s1.17-1.99,2.17-1.99c.83,0,1.56,.26,1.98,.76v-.87c0-.63-.54-1.05-1.37-1.05-.67,0-1.29,.25-1.82,.74l-.62-1.1c.76-.67,1.74-.98,2.72-.98,1.42,0,2.72,.57,2.72,2.36v4.03h-1.64Zm0-2.27c-.27-.36-.79-.54-1.32-.54-.65,0-1.17,.35-1.17,.94s.53,.92,1.17,.92c.53,0,1.05-.18,1.32-.54v-.78Z"/><path class="cls-6" d="M1070.01,55.23c1.28,0,2.05,.55,2.47,1.14l-1.07,.99c-.3-.43-.75-.67-1.32-.67-.99,0-1.69,.72-1.69,1.81s.7,1.82,1.69,1.82c.57,0,1.02-.26,1.32-.67l1.07,.99c-.41,.58-1.19,1.14-2.47,1.14-1.92,0-3.3-1.36-3.3-3.28s1.38-3.27,3.3-3.27Z"/><path class="cls-6" d="M1073.88,60.07v-3.25h-1.03v-1.43h1.03v-1.7h1.65v1.7h1.26v1.43h-1.26v2.81c0,.39,.21,.68,.57,.68,.25,0,.48-.09,.57-.18l.35,1.24c-.25,.22-.68,.4-1.37,.4-1.15,0-1.77-.59-1.77-1.7Z"/><path class="cls-6" d="M1077.75,53.48c0-.54,.45-.98,.98-.98s.98,.44,.98,.98-.44,.98-.98,.98-.98-.44-.98-.98Zm.17,8.13v-6.24h1.64v6.24h-1.64Z"/><path class="cls-6" d="M1082.8,61.62l-2.5-6.24h1.76l1.63,4.34,1.63-4.34h1.77l-2.5,6.24h-1.77Z"/><path class="cls-6" d="M1090.64,55.23c1.86,0,3.12,1.39,3.12,3.43v.36h-4.63c.1,.79,.74,1.45,1.79,1.45,.58,0,1.27-.23,1.67-.62l.72,1.06c-.63,.58-1.6,.87-2.57,.87-1.9,0-3.33-1.28-3.33-3.28,0-1.81,1.33-3.27,3.23-3.27Zm-1.54,2.68h3.07c-.04-.59-.45-1.38-1.54-1.38-1.02,0-1.46,.76-1.54,1.38Z"/></g></g></g><circle class="cls-5" cx="580.06" cy="385.66" r="200.66" transform="translate(-102.81 523.12) rotate(-45)"/><circle class="cls-3" cx="580.06" cy="385.66" r="155.93"/><circle class="cls-5" cx="580.06" cy="385.66" r="103.04" transform="translate(-73.09 143.59) rotate(-13.28)"/><circle class="cls-3" cx="580.06" cy="385.66" r="63.46" transform="translate(1.78 773.98) rotate(-67.5)"/><path class="cls-5" d="M604.43,385.66c0-13.46-10.91-24.37-24.37-24.37s-24.37,10.91-24.37,24.37,10.91,24.37,24.37,24.37,24.37-10.91,24.37-24.37Z"/><g><path class="cls-10" d="M280.84,37.63v-14.68h1.83v14.68h-1.83Z"/><path class="cls-10" d="M293.2,37.63v-6.95c0-1.87-.95-2.46-2.38-2.46-1.3,0-2.53,.79-3.15,1.65v7.77h-1.65v-10.63h1.65v1.54c.75-.88,2.2-1.8,3.78-1.8,2.22,0,3.39,1.12,3.39,3.43v7.46h-1.65Z"/><path class="cls-10" d="M298.48,35.41v-6.95h-1.76v-1.45h1.76v-2.9h1.65v2.9h2.16v1.45h-2.16v6.6c0,.79,.35,1.36,1.08,1.36,.46,0,.9-.2,1.12-.44l.48,1.23c-.42,.4-1.01,.68-1.98,.68-1.56,0-2.35-.9-2.35-2.49Z"/><path class="cls-10" d="M304.62,37.63v-10.63h1.65v1.72c.86-1.12,2.09-1.94,3.54-1.94v1.69c-.2-.04-.4-.07-.66-.07-1.01,0-2.4,.84-2.88,1.69v7.53h-1.65Z"/><path class="cls-10" d="M311.26,32.31c0-3.08,2.02-5.57,5.26-5.57s5.26,2.49,5.26,5.57-2.02,5.59-5.26,5.59-5.26-2.51-5.26-5.59Zm8.78,0c0-2.16-1.25-4.09-3.52-4.09s-3.54,1.94-3.54,4.09,1.28,4.12,3.54,4.12,3.52-1.94,3.52-4.12Z"/><path class="cls-10" d="M332.16,37.63v-1.58c-.79,1.08-2.09,1.85-3.59,1.85-2.77,0-4.73-2.11-4.73-5.57s1.94-5.59,4.73-5.59c1.43,0,2.73,.7,3.59,1.87v-5.65h1.65v14.68h-1.65Zm0-7.7c-.59-.92-1.87-1.72-3.19-1.72-2.13,0-3.41,1.76-3.41,4.11s1.28,4.09,3.41,4.09c1.32,0,2.6-.75,3.19-1.67v-4.82Z"/><path class="cls-10" d="M344.28,37.63v-1.5c-.81,.92-2.2,1.76-3.78,1.76-2.22,0-3.39-1.08-3.39-3.39v-7.5h1.65v7c0,1.87,.95,2.42,2.38,2.42,1.3,0,2.53-.75,3.15-1.61v-7.81h1.65v10.63h-1.65Z"/><path class="cls-10" d="M353.92,26.74c1.94,0,3.08,.79,3.89,1.85l-1.1,1.01c-.7-.97-1.61-1.39-2.71-1.39-2.27,0-3.67,1.74-3.67,4.09s1.41,4.12,3.67,4.12c1.1,0,2-.44,2.71-1.39l1.1,1.01c-.81,1.06-1.96,1.85-3.89,1.85-3.17,0-5.3-2.42-5.3-5.59s2.13-5.57,5.3-5.57Z"/><path class="cls-10" d="M364.74,26.74c3.21,0,5.1,2.51,5.1,5.7v.42h-8.6c.13,2,1.54,3.67,3.83,3.67,1.21,0,2.44-.48,3.28-1.34l.79,1.08c-1.06,1.06-2.49,1.63-4.22,1.63-3.15,0-5.41-2.27-5.41-5.59,0-3.08,2.2-5.57,5.24-5.57Zm-3.5,4.91h6.98c-.02-1.58-1.08-3.54-3.5-3.54-2.27,0-3.39,1.91-3.48,3.54Z"/><path class="cls-10" d="M378.52,35.41v-6.95h-1.76v-1.45h1.76v-2.9h1.65v2.9h2.16v1.45h-2.16v6.6c0,.79,.35,1.36,1.08,1.36,.46,0,.9-.2,1.12-.44l.48,1.23c-.42,.4-1.01,.68-1.98,.68-1.56,0-2.35-.9-2.35-2.49Z"/><path class="cls-10" d="M391.85,37.63v-7c0-1.87-.97-2.42-2.4-2.42-1.28,0-2.51,.79-3.15,1.65v7.77h-1.65v-14.68h1.65v5.59c.75-.88,2.2-1.8,3.81-1.8,2.22,0,3.39,1.08,3.39,3.39v7.5h-1.65Z"/><path class="cls-10" d="M401.42,26.74c3.21,0,5.1,2.51,5.1,5.7v.42h-8.6c.13,2,1.54,3.67,3.83,3.67,1.21,0,2.44-.48,3.28-1.34l.79,1.08c-1.06,1.06-2.49,1.63-4.22,1.63-3.15,0-5.41-2.27-5.41-5.59,0-3.08,2.2-5.57,5.24-5.57Zm-3.5,4.91h6.98c-.02-1.58-1.08-3.54-3.5-3.54-2.27,0-3.39,1.91-3.48,3.54Z"/><path class="cls-10" d="M414.79,35.04c.7,.81,2.05,1.52,3.5,1.52,1.63,0,2.51-.73,2.51-1.76,0-1.17-1.3-1.54-2.73-1.89-1.8-.42-3.85-.9-3.85-3.1,0-1.65,1.43-3.06,3.96-3.06,1.8,0,3.08,.68,3.94,1.54l-.77,1.14c-.64-.77-1.8-1.34-3.17-1.34-1.45,0-2.35,.66-2.35,1.61,0,1.03,1.21,1.36,2.6,1.69,1.85,.42,3.98,.95,3.98,3.3,0,1.78-1.43,3.21-4.18,3.21-1.74,0-3.21-.53-4.29-1.67l.86-1.19Z"/><path class="cls-10" d="M425.42,35.41v-6.95h-1.76v-1.45h1.76v-2.9h1.65v2.9h2.16v1.45h-2.16v6.6c0,.79,.35,1.36,1.08,1.36,.46,0,.9-.2,1.12-.44l.48,1.23c-.42,.4-1.01,.68-1.98,.68-1.56,0-2.35-.9-2.35-2.49Z"/><path class="cls-10" d="M438.73,37.63v-1.5c-.81,.92-2.2,1.76-3.78,1.76-2.22,0-3.39-1.08-3.39-3.39v-7.5h1.65v7c0,1.87,.95,2.42,2.38,2.42,1.3,0,2.53-.75,3.15-1.61v-7.81h1.65v10.63h-1.65Z"/><path class="cls-10" d="M451.38,37.63v-1.58c-.79,1.08-2.09,1.85-3.59,1.85-2.77,0-4.73-2.11-4.73-5.57s1.94-5.59,4.73-5.59c1.43,0,2.73,.7,3.59,1.87v-5.65h1.65v14.68h-1.65Zm0-7.7c-.59-.92-1.87-1.72-3.19-1.72-2.13,0-3.41,1.76-3.41,4.11s1.28,4.09,3.41,4.09c1.32,0,2.6-.75,3.19-1.67v-4.82Z"/><path class="cls-10" d="M460.95,26.74c3.21,0,5.1,2.51,5.1,5.7v.42h-8.6c.13,2,1.54,3.67,3.83,3.67,1.21,0,2.44-.48,3.28-1.34l.79,1.08c-1.06,1.06-2.49,1.63-4.22,1.63-3.15,0-5.41-2.27-5.41-5.59,0-3.08,2.2-5.57,5.24-5.57Zm-3.5,4.91h6.98c-.02-1.58-1.08-3.54-3.5-3.54-2.27,0-3.39,1.91-3.48,3.54Z"/><path class="cls-10" d="M475.89,37.63v-6.95c0-1.87-.95-2.46-2.38-2.46-1.3,0-2.53,.79-3.15,1.65v7.77h-1.65v-10.63h1.65v1.54c.75-.88,2.2-1.8,3.78-1.8,2.22,0,3.39,1.12,3.39,3.43v7.46h-1.65Z"/><path class="cls-10" d="M481.17,35.41v-6.95h-1.76v-1.45h1.76v-2.9h1.65v2.9h2.16v1.45h-2.16v6.6c0,.79,.35,1.36,1.08,1.36,.46,0,.9-.2,1.12-.44l.48,1.23c-.42,.4-1.01,.68-1.98,.68-1.56,0-2.35-.9-2.35-2.49Z"/><path class="cls-10" d="M493.31,35.41v-6.95h-1.76v-1.45h1.76v-2.9h1.65v2.9h2.16v1.45h-2.16v6.6c0,.79,.35,1.36,1.08,1.36,.46,0,.9-.2,1.12-.44l.48,1.23c-.42,.4-1.01,.68-1.98,.68-1.56,0-2.35-.9-2.35-2.49Z"/><path class="cls-10" d="M498.83,32.31c0-3.08,2.02-5.57,5.26-5.57s5.26,2.49,5.26,5.57-2.02,5.59-5.26,5.59-5.26-2.51-5.26-5.59Zm8.78,0c0-2.16-1.25-4.09-3.52-4.09s-3.54,1.94-3.54,4.09,1.28,4.12,3.54,4.12,3.52-1.94,3.52-4.12Z"/><path class="cls-10" d="M518.04,35.41v-6.95h-1.76v-1.45h1.76v-2.9h1.65v2.9h2.16v1.45h-2.16v6.6c0,.79,.35,1.36,1.08,1.36,.46,0,.9-.2,1.12-.44l.48,1.23c-.42,.4-1.01,.68-1.98,.68-1.56,0-2.35-.9-2.35-2.49Z"/><path class="cls-10" d="M531.37,37.63v-7c0-1.87-.97-2.42-2.4-2.42-1.28,0-2.51,.79-3.15,1.65v7.77h-1.65v-14.68h1.65v5.59c.75-.88,2.2-1.8,3.81-1.8,2.22,0,3.39,1.08,3.39,3.39v7.5h-1.65Z"/><path class="cls-10" d="M540.94,26.74c3.21,0,5.11,2.51,5.11,5.7v.42h-8.6c.13,2,1.54,3.67,3.83,3.67,1.21,0,2.44-.48,3.28-1.34l.79,1.08c-1.06,1.06-2.49,1.63-4.22,1.63-3.15,0-5.41-2.27-5.41-5.59,0-3.08,2.2-5.57,5.24-5.57Zm-3.5,4.91h6.97c-.02-1.58-1.08-3.54-3.5-3.54-2.27,0-3.39,1.91-3.48,3.54Z"/><path class="cls-10" d="M561.55,37.63v-1.5c-.81,.92-2.2,1.76-3.78,1.76-2.22,0-3.39-1.08-3.39-3.39v-7.5h1.65v7c0,1.87,.95,2.42,2.38,2.42,1.3,0,2.53-.75,3.15-1.61v-7.81h1.65v10.63h-1.65Z"/><path class="cls-10" d="M573.67,37.63v-6.95c0-1.87-.95-2.46-2.38-2.46-1.3,0-2.53,.79-3.15,1.65v7.77h-1.65v-10.63h1.65v1.54c.75-.88,2.2-1.8,3.78-1.8,2.22,0,3.39,1.12,3.39,3.43v7.46h-1.65Z"/><path class="cls-10" d="M586.32,37.63v-1.58c-.79,1.08-2.09,1.85-3.59,1.85-2.77,0-4.73-2.11-4.73-5.57s1.94-5.59,4.73-5.59c1.43,0,2.73,.7,3.59,1.87v-5.65h1.65v14.68h-1.65Zm0-7.7c-.59-.92-1.87-1.72-3.19-1.72-2.13,0-3.41,1.76-3.41,4.11s1.28,4.09,3.41,4.09c1.32,0,2.6-.75,3.19-1.67v-4.82Z"/><path class="cls-10" d="M595.89,26.74c3.21,0,5.1,2.51,5.1,5.7v.42h-8.6c.13,2,1.54,3.67,3.83,3.67,1.21,0,2.44-.48,3.28-1.34l.79,1.08c-1.06,1.06-2.49,1.63-4.22,1.63-3.15,0-5.41-2.27-5.41-5.59,0-3.08,2.2-5.57,5.24-5.57Zm-3.5,4.91h6.98c-.02-1.58-1.08-3.54-3.5-3.54-2.27,0-3.39,1.91-3.48,3.54Z"/><path class="cls-10" d="M603.66,37.63v-10.63h1.65v1.72c.86-1.12,2.09-1.94,3.54-1.94v1.69c-.2-.04-.4-.07-.66-.07-1.01,0-2.4,.84-2.88,1.69v7.53h-1.65Z"/><path class="cls-10" d="M610.85,35.04c.7,.81,2.05,1.52,3.5,1.52,1.63,0,2.51-.73,2.51-1.76,0-1.17-1.3-1.54-2.73-1.89-1.8-.42-3.85-.9-3.85-3.1,0-1.65,1.43-3.06,3.96-3.06,1.8,0,3.08,.68,3.94,1.54l-.77,1.14c-.64-.77-1.8-1.34-3.17-1.34-1.45,0-2.35,.66-2.35,1.61,0,1.03,1.21,1.36,2.6,1.69,1.85,.42,3.98,.95,3.98,3.3,0,1.78-1.43,3.21-4.18,3.21-1.74,0-3.21-.53-4.29-1.67l.86-1.19Z"/><path class="cls-10" d="M621.48,35.41v-6.95h-1.76v-1.45h1.76v-2.9h1.65v2.9h2.16v1.45h-2.16v6.6c0,.79,.35,1.36,1.08,1.36,.46,0,.9-.2,1.12-.44l.48,1.23c-.42,.4-1.01,.68-1.98,.68-1.56,0-2.35-.9-2.35-2.49Z"/><path class="cls-10" d="M634.26,37.63v-1.21c-.88,.97-2.09,1.47-3.52,1.47-1.8,0-3.72-1.21-3.72-3.52s1.92-3.5,3.72-3.5c1.45,0,2.66,.46,3.52,1.45v-1.91c0-1.43-1.14-2.25-2.68-2.25-1.28,0-2.31,.46-3.26,1.47l-.77-1.14c1.14-1.19,2.51-1.76,4.25-1.76,2.25,0,4.12,1.01,4.12,3.59v7.31h-1.65Zm0-4.25c-.64-.88-1.76-1.32-2.93-1.32-1.54,0-2.62,.97-2.62,2.33s1.08,2.31,2.62,2.31c1.17,0,2.29-.44,2.93-1.32v-2Z"/><path class="cls-10" d="M646.38,37.63v-6.95c0-1.87-.95-2.46-2.38-2.46-1.3,0-2.53,.79-3.15,1.65v7.77h-1.65v-10.63h1.65v1.54c.75-.88,2.2-1.8,3.78-1.8,2.22,0,3.39,1.12,3.39,3.43v7.46h-1.65Z"/><path class="cls-10" d="M659.03,37.63v-1.58c-.79,1.08-2.09,1.85-3.59,1.85-2.77,0-4.73-2.11-4.73-5.57s1.94-5.59,4.73-5.59c1.43,0,2.73,.7,3.59,1.87v-5.65h1.65v14.68h-1.65Zm0-7.7c-.59-.92-1.87-1.72-3.19-1.72-2.13,0-3.41,1.76-3.41,4.11s1.28,4.09,3.41,4.09c1.32,0,2.6-.75,3.19-1.67v-4.82Z"/><path class="cls-10" d="M663.7,24.1c0-.62,.51-1.1,1.1-1.1s1.12,.48,1.12,1.1-.51,1.12-1.12,1.12-1.1-.51-1.1-1.12Zm.29,13.53v-10.63h1.65v10.63h-1.65Z"/><path class="cls-10" d="M676.11,37.63v-6.95c0-1.87-.95-2.46-2.38-2.46-1.3,0-2.53,.79-3.15,1.65v7.77h-1.65v-10.63h1.65v1.54c.75-.88,2.2-1.8,3.79-1.8,2.22,0,3.39,1.12,3.39,3.43v7.46h-1.65Z"/><path class="cls-10" d="M681.87,39.13c.88,1.06,1.94,1.45,3.46,1.45,1.76,0,3.41-.86,3.41-3.19v-1.52c-.77,1.08-2.07,1.89-3.56,1.89-2.77,0-4.73-2.07-4.73-5.5s1.94-5.52,4.73-5.52c1.43,0,2.71,.7,3.56,1.87v-1.61h1.65v10.32c0,3.52-2.46,4.62-5.06,4.62-1.8,0-3.04-.35-4.29-1.58l.84-1.23Zm6.87-9.2c-.57-.92-1.85-1.72-3.17-1.72-2.13,0-3.41,1.69-3.41,4.05s1.28,4.05,3.41,4.05c1.32,0,2.6-.81,3.17-1.74v-4.64Z"/><path class="cls-10" d="M698.74,32.31c0-3.08,2.02-5.57,5.26-5.57s5.26,2.49,5.26,5.57-2.02,5.59-5.26,5.59-5.26-2.51-5.26-5.59Zm8.78,0c0-2.16-1.25-4.09-3.52-4.09s-3.54,1.94-3.54,4.09,1.28,4.12,3.54,4.12,3.52-1.94,3.52-4.12Z"/><path class="cls-10" d="M714.05,28.46v9.17h-1.65v-9.17h-1.76v-1.45h1.76v-.81c0-2.2,1.23-3.46,3.08-3.46,.62,0,1.19,.11,1.61,.37l-.42,1.23c-.26-.15-.57-.24-.95-.24-1.08,0-1.67,.75-1.67,2.09v.81h2.16v1.45h-2.16Z"/><path class="cls-10" d="M725.96,28.46v9.17h-1.65v-9.17h-1.76v-1.45h1.76v-.81c0-2.2,1.23-3.46,3.08-3.46,.62,0,1.19,.11,1.61,.37l-.42,1.23c-.26-.15-.57-.24-.95-.24-1.08,0-1.67,.75-1.67,2.09v.81h2.16v1.45h-2.16Z"/><path class="cls-10" d="M737.24,37.63v-1.5c-.81,.92-2.2,1.76-3.78,1.76-2.22,0-3.39-1.08-3.39-3.39v-7.5h1.65v7c0,1.87,.95,2.42,2.38,2.42,1.3,0,2.53-.75,3.15-1.61v-7.81h1.65v10.63h-1.65Z"/><path class="cls-10" d="M749.36,37.63v-6.95c0-1.87-.95-2.46-2.38-2.46-1.3,0-2.53,.79-3.15,1.65v7.77h-1.65v-10.63h1.65v1.54c.75-.88,2.2-1.8,3.78-1.8,2.22,0,3.39,1.12,3.39,3.43v7.46h-1.65Z"/><path class="cls-10" d="M762.01,37.63v-1.58c-.79,1.08-2.09,1.85-3.59,1.85-2.77,0-4.73-2.11-4.73-5.57s1.94-5.59,4.73-5.59c1.43,0,2.73,.7,3.59,1.87v-5.65h1.65v14.68h-1.65Zm0-7.7c-.59-.92-1.87-1.72-3.19-1.72-2.13,0-3.41,1.76-3.41,4.11s1.28,4.09,3.41,4.09c1.32,0,2.6-.75,3.19-1.67v-4.82Z"/><path class="cls-10" d="M773.61,37.63v-1.21c-.88,.97-2.09,1.47-3.52,1.47-1.8,0-3.72-1.21-3.72-3.52s1.91-3.5,3.72-3.5c1.45,0,2.66,.46,3.52,1.45v-1.91c0-1.43-1.14-2.25-2.68-2.25-1.28,0-2.31,.46-3.26,1.47l-.77-1.14c1.14-1.19,2.51-1.76,4.25-1.76,2.24,0,4.11,1.01,4.11,3.59v7.31h-1.65Zm0-4.25c-.64-.88-1.76-1.32-2.93-1.32-1.54,0-2.62,.97-2.62,2.33s1.08,2.31,2.62,2.31c1.17,0,2.29-.44,2.93-1.32v-2Z"/><path class="cls-10" d="M791.38,37.63v-7.22c0-1.34-.59-2.2-1.96-2.2-1.1,0-2.27,.79-2.82,1.63v7.79h-1.65v-7.22c0-1.34-.57-2.2-1.96-2.2-1.08,0-2.22,.79-2.79,1.65v7.77h-1.65v-10.63h1.65v1.54c.44-.68,1.87-1.8,3.43-1.8s2.55,.88,2.86,1.98c.59-.97,2.02-1.98,3.56-1.98,1.94,0,2.97,1.08,2.97,3.21v7.68h-1.65Z"/><path class="cls-10" d="M800.95,26.74c3.21,0,5.1,2.51,5.1,5.7v.42h-8.6c.13,2,1.54,3.67,3.83,3.67,1.21,0,2.44-.48,3.28-1.34l.79,1.08c-1.06,1.06-2.49,1.63-4.22,1.63-3.15,0-5.41-2.27-5.41-5.59,0-3.08,2.2-5.57,5.24-5.57Zm-3.5,4.91h6.97c-.02-1.58-1.08-3.54-3.5-3.54-2.27,0-3.39,1.91-3.48,3.54Z"/><path class="cls-10" d="M815.89,37.63v-6.95c0-1.87-.95-2.46-2.38-2.46-1.3,0-2.53,.79-3.15,1.65v7.77h-1.65v-10.63h1.65v1.54c.75-.88,2.2-1.8,3.78-1.8,2.22,0,3.39,1.12,3.39,3.43v7.46h-1.65Z"/><path class="cls-10" d="M821.17,35.41v-6.95h-1.76v-1.45h1.76v-2.9h1.65v2.9h2.16v1.45h-2.16v6.6c0,.79,.35,1.36,1.08,1.36,.46,0,.9-.2,1.12-.44l.48,1.23c-.42,.4-1.01,.68-1.98,.68-1.56,0-2.35-.9-2.35-2.49Z"/><path class="cls-10" d="M833.95,37.63v-1.21c-.88,.97-2.09,1.47-3.52,1.47-1.8,0-3.72-1.21-3.72-3.52s1.91-3.5,3.72-3.5c1.45,0,2.66,.46,3.52,1.45v-1.91c0-1.43-1.14-2.25-2.68-2.25-1.28,0-2.31,.46-3.26,1.47l-.77-1.14c1.14-1.19,2.51-1.76,4.25-1.76,2.24,0,4.12,1.01,4.12,3.59v7.31h-1.65Zm0-4.25c-.64-.88-1.76-1.32-2.93-1.32-1.54,0-2.62,.97-2.62,2.33s1.08,2.31,2.62,2.31c1.17,0,2.29-.44,2.93-1.32v-2Z"/><path class="cls-10" d="M838.9,37.63v-14.68h1.65v14.68h-1.65Z"/><path class="cls-10" d="M854.21,26.74c1.94,0,3.08,.79,3.89,1.85l-1.1,1.01c-.7-.97-1.61-1.39-2.71-1.39-2.27,0-3.67,1.74-3.67,4.09s1.41,4.12,3.67,4.12c1.1,0,2-.44,2.71-1.39l1.1,1.01c-.81,1.06-1.96,1.85-3.89,1.85-3.17,0-5.3-2.42-5.3-5.59s2.13-5.57,5.3-5.57Z"/><path class="cls-10" d="M859.8,32.31c0-3.08,2.02-5.57,5.26-5.57s5.26,2.49,5.26,5.57-2.02,5.59-5.26,5.59-5.26-2.51-5.26-5.59Zm8.78,0c0-2.16-1.25-4.09-3.52-4.09s-3.54,1.94-3.54,4.09,1.28,4.12,3.54,4.12,3.52-1.94,3.52-4.12Z"/><path class="cls-10" d="M880.17,37.63v-6.95c0-1.87-.95-2.46-2.38-2.46-1.3,0-2.53,.79-3.15,1.65v7.77h-1.65v-10.63h1.65v1.54c.75-.88,2.2-1.8,3.78-1.8,2.22,0,3.39,1.12,3.39,3.43v7.46h-1.65Z"/><path class="cls-10" d="M889.81,26.74c1.94,0,3.08,.79,3.89,1.85l-1.1,1.01c-.7-.97-1.61-1.39-2.71-1.39-2.27,0-3.67,1.74-3.67,4.09s1.41,4.12,3.67,4.12c1.1,0,2-.44,2.71-1.39l1.1,1.01c-.81,1.06-1.96,1.85-3.89,1.85-3.17,0-5.3-2.42-5.3-5.59s2.13-5.57,5.3-5.57Z"/><path class="cls-10" d="M900.63,26.74c3.21,0,5.1,2.51,5.1,5.7v.42h-8.6c.13,2,1.54,3.67,3.83,3.67,1.21,0,2.44-.48,3.28-1.34l.79,1.08c-1.06,1.06-2.49,1.63-4.22,1.63-3.15,0-5.41-2.27-5.41-5.59,0-3.08,2.2-5.57,5.24-5.57Zm-3.5,4.91h6.97c-.02-1.58-1.08-3.54-3.5-3.54-2.27,0-3.39,1.91-3.48,3.54Z"/><path class="cls-10" d="M910.05,41.68h-1.65v-14.68h1.65v1.58c.77-1.08,2.09-1.85,3.59-1.85,2.79,0,4.73,2.11,4.73,5.57s-1.94,5.59-4.73,5.59c-1.45,0-2.73-.68-3.59-1.87v5.66Zm3.17-13.47c-1.3,0-2.6,.77-3.17,1.69v4.8c.57,.92,1.87,1.72,3.17,1.72,2.13,0,3.41-1.76,3.41-4.12s-1.28-4.09-3.41-4.09Z"/><path class="cls-10" d="M921.36,35.41v-6.95h-1.76v-1.45h1.76v-2.9h1.65v2.9h2.16v1.45h-2.16v6.6c0,.79,.35,1.36,1.08,1.36,.46,0,.9-.2,1.12-.44l.48,1.23c-.42,.4-1.01,.68-1.98,.68-1.56,0-2.35-.9-2.35-2.49Z"/><path class="cls-10" d="M927.43,35.04c.7,.81,2.05,1.52,3.5,1.52,1.63,0,2.51-.73,2.51-1.76,0-1.17-1.3-1.54-2.73-1.89-1.8-.42-3.85-.9-3.85-3.1,0-1.65,1.43-3.06,3.96-3.06,1.8,0,3.08,.68,3.94,1.54l-.77,1.14c-.64-.77-1.8-1.34-3.17-1.34-1.45,0-2.35,.66-2.35,1.61,0,1.03,1.21,1.36,2.6,1.69,1.85,.42,3.98,.95,3.98,3.3,0,1.78-1.43,3.21-4.18,3.21-1.74,0-3.21-.53-4.29-1.67l.86-1.19Z"/><path class="cls-10" d="M280.16,58.71c0-3.08,2.02-5.57,5.26-5.57s5.26,2.49,5.26,5.57-2.02,5.59-5.26,5.59-5.26-2.51-5.26-5.59Zm8.78,0c0-2.16-1.25-4.09-3.52-4.09s-3.54,1.94-3.54,4.09,1.28,4.11,3.54,4.11,3.52-1.94,3.52-4.11Z"/><path class="cls-10" d="M295.47,54.86v9.17h-1.65v-9.17h-1.76v-1.45h1.76v-.81c0-2.2,1.23-3.45,3.08-3.45,.62,0,1.19,.11,1.61,.37l-.42,1.23c-.26-.15-.57-.24-.95-.24-1.08,0-1.67,.75-1.67,2.09v.81h2.16v1.45h-2.16Z"/><path class="cls-10" d="M305.26,64.03v-14.68h1.65v5.66c.86-1.17,2.13-1.87,3.59-1.87,2.77,0,4.73,2.2,4.73,5.59s-1.96,5.57-4.73,5.57c-1.5,0-2.79-.77-3.59-1.85v1.58h-1.65Zm1.65-2.88c.57,.92,1.87,1.67,3.17,1.67,2.16,0,3.43-1.74,3.43-4.09s-1.28-4.11-3.43-4.11c-1.3,0-2.6,.79-3.17,1.72v4.82Z"/><path class="cls-10" d="M317.91,64.03v-14.68h1.65v14.68h-1.65Z"/><path class="cls-10" d="M330.03,64.03v-1.5c-.81,.92-2.2,1.76-3.78,1.76-2.22,0-3.39-1.08-3.39-3.39v-7.5h1.65v7c0,1.87,.95,2.42,2.38,2.42,1.3,0,2.53-.75,3.15-1.61v-7.81h1.65v10.63h-1.65Z"/><path class="cls-10" d="M339.6,53.14c3.21,0,5.1,2.51,5.1,5.7v.42h-8.6c.13,2,1.54,3.67,3.83,3.67,1.21,0,2.44-.48,3.28-1.34l.79,1.08c-1.06,1.06-2.49,1.63-4.22,1.63-3.15,0-5.41-2.27-5.41-5.59,0-3.08,2.2-5.57,5.24-5.57Zm-3.5,4.91h6.97c-.02-1.58-1.08-3.54-3.5-3.54-2.27,0-3.39,1.92-3.48,3.54Z"/><path class="cls-10" d="M357.73,53.14c1.94,0,3.08,.79,3.89,1.85l-1.1,1.01c-.7-.97-1.61-1.39-2.71-1.39-2.27,0-3.67,1.74-3.67,4.09s1.41,4.11,3.67,4.11c1.1,0,2-.44,2.71-1.39l1.1,1.01c-.81,1.06-1.96,1.85-3.89,1.85-3.17,0-5.3-2.42-5.3-5.59s2.13-5.57,5.3-5.57Z"/><path class="cls-10" d="M370.57,64.03v-1.21c-.88,.97-2.09,1.47-3.52,1.47-1.8,0-3.72-1.21-3.72-3.52s1.91-3.5,3.72-3.5c1.45,0,2.66,.46,3.52,1.45v-1.91c0-1.43-1.14-2.24-2.68-2.24-1.28,0-2.31,.46-3.26,1.47l-.77-1.14c1.14-1.19,2.51-1.76,4.25-1.76,2.24,0,4.11,1.01,4.11,3.59v7.3h-1.65Zm0-4.25c-.64-.88-1.76-1.32-2.93-1.32-1.54,0-2.62,.97-2.62,2.33s1.08,2.31,2.62,2.31c1.17,0,2.29-.44,2.93-1.32v-2Z"/><path class="cls-10" d="M375.52,64.03v-10.63h1.65v1.72c.86-1.12,2.09-1.94,3.54-1.94v1.7c-.2-.04-.4-.07-.66-.07-1.01,0-2.4,.84-2.88,1.69v7.52h-1.65Z"/><path class="cls-10" d="M382.78,64.03v-14.68h1.65v5.66c.86-1.17,2.13-1.87,3.59-1.87,2.77,0,4.73,2.2,4.73,5.59s-1.96,5.57-4.73,5.57c-1.5,0-2.79-.77-3.59-1.85v1.58h-1.65Zm1.65-2.88c.57,.92,1.87,1.67,3.17,1.67,2.16,0,3.43-1.74,3.43-4.09s-1.28-4.11-3.43-4.11c-1.3,0-2.6,.79-3.17,1.72v4.82Z"/><path class="cls-10" d="M394.82,58.71c0-3.08,2.02-5.57,5.26-5.57s5.26,2.49,5.26,5.57-2.02,5.59-5.26,5.59-5.26-2.51-5.26-5.59Zm8.78,0c0-2.16-1.25-4.09-3.52-4.09s-3.54,1.94-3.54,4.09,1.28,4.11,3.54,4.11,3.52-1.94,3.52-4.11Z"/><path class="cls-10" d="M415.19,64.03v-6.95c0-1.87-.95-2.46-2.38-2.46-1.3,0-2.53,.79-3.15,1.65v7.77h-1.65v-10.63h1.65v1.54c.75-.88,2.2-1.8,3.78-1.8,2.22,0,3.39,1.12,3.39,3.43v7.46h-1.65Z"/><path class="cls-10" d="M430.44,53.14c3.21,0,5.1,2.51,5.1,5.7v.42h-8.6c.13,2,1.54,3.67,3.83,3.67,1.21,0,2.44-.48,3.28-1.34l.79,1.08c-1.06,1.06-2.49,1.63-4.22,1.63-3.15,0-5.41-2.27-5.41-5.59,0-3.08,2.2-5.57,5.24-5.57Zm-3.5,4.91h6.98c-.02-1.58-1.08-3.54-3.5-3.54-2.27,0-3.39,1.92-3.48,3.54Z"/><path class="cls-10" d="M442.89,53.14c1.94,0,3.08,.79,3.89,1.85l-1.1,1.01c-.7-.97-1.61-1.39-2.71-1.39-2.27,0-3.67,1.74-3.67,4.09s1.41,4.11,3.67,4.11c1.1,0,2-.44,2.71-1.39l1.1,1.01c-.81,1.06-1.96,1.85-3.89,1.85-3.17,0-5.3-2.42-5.3-5.59s2.13-5.57,5.3-5.57Z"/><path class="cls-10" d="M448.47,58.71c0-3.08,2.02-5.57,5.26-5.57s5.26,2.49,5.26,5.57-2.02,5.59-5.26,5.59-5.26-2.51-5.26-5.59Zm8.78,0c0-2.16-1.25-4.09-3.52-4.09s-3.54,1.94-3.54,4.09,1.28,4.11,3.54,4.11,3.52-1.94,3.52-4.11Z"/><path class="cls-10" d="M461.61,61.44c.7,.81,2.05,1.52,3.5,1.52,1.63,0,2.51-.73,2.51-1.76,0-1.17-1.3-1.54-2.73-1.89-1.8-.42-3.85-.9-3.85-3.1,0-1.65,1.43-3.06,3.96-3.06,1.8,0,3.08,.68,3.94,1.54l-.77,1.14c-.64-.77-1.8-1.34-3.17-1.34-1.45,0-2.35,.66-2.35,1.61,0,1.03,1.21,1.36,2.6,1.69,1.85,.42,3.98,.95,3.98,3.3,0,1.78-1.43,3.21-4.18,3.21-1.74,0-3.21-.53-4.29-1.67l.86-1.19Z"/><path class="cls-10" d="M471.57,66.7c.24,.11,.64,.18,.9,.18,.73,0,1.21-.24,1.58-1.12l.7-1.61-4.44-10.74h1.78l3.54,8.71,3.52-8.71h1.8l-5.33,12.78c-.64,1.54-1.72,2.13-3.12,2.16-.35,0-.9-.07-1.21-.15l.26-1.5Z"/><path class="cls-10" d="M482.62,61.44c.7,.81,2.05,1.52,3.5,1.52,1.63,0,2.51-.73,2.51-1.76,0-1.17-1.3-1.54-2.73-1.89-1.8-.42-3.85-.9-3.85-3.1,0-1.65,1.43-3.06,3.96-3.06,1.8,0,3.08,.68,3.94,1.54l-.77,1.14c-.64-.77-1.8-1.34-3.17-1.34-1.45,0-2.35,.66-2.35,1.61,0,1.03,1.21,1.36,2.6,1.69,1.85,.42,3.98,.95,3.98,3.3,0,1.78-1.43,3.21-4.18,3.21-1.74,0-3.21-.53-4.29-1.67l.86-1.19Z"/><path class="cls-10" d="M493.24,61.81v-6.95h-1.76v-1.45h1.76v-2.9h1.65v2.9h2.16v1.45h-2.16v6.6c0,.79,.35,1.36,1.08,1.36,.46,0,.9-.2,1.12-.44l.48,1.23c-.42,.4-1.01,.68-1.98,.68-1.56,0-2.35-.9-2.35-2.49Z"/><path class="cls-10" d="M504,53.14c3.21,0,5.11,2.51,5.11,5.7v.42h-8.6c.13,2,1.54,3.67,3.83,3.67,1.21,0,2.44-.48,3.28-1.34l.79,1.08c-1.06,1.06-2.49,1.63-4.22,1.63-3.15,0-5.41-2.27-5.41-5.59,0-3.08,2.2-5.57,5.24-5.57Zm-3.5,4.91h6.97c-.02-1.58-1.08-3.54-3.5-3.54-2.27,0-3.39,1.92-3.48,3.54Z"/><path class="cls-10" d="M524.6,64.03v-7.22c0-1.34-.59-2.2-1.96-2.2-1.1,0-2.27,.79-2.82,1.63v7.79h-1.65v-7.22c0-1.34-.57-2.2-1.96-2.2-1.08,0-2.22,.79-2.79,1.65v7.77h-1.65v-10.63h1.65v1.54c.44-.68,1.87-1.8,3.43-1.8s2.55,.88,2.86,1.98c.59-.97,2.02-1.98,3.56-1.98,1.94,0,2.97,1.08,2.97,3.21v7.68h-1.65Z"/><path class="cls-10" d="M529.48,61.44c.7,.81,2.05,1.52,3.5,1.52,1.63,0,2.51-.73,2.51-1.76,0-1.17-1.3-1.54-2.73-1.89-1.8-.42-3.85-.9-3.85-3.1,0-1.65,1.43-3.06,3.96-3.06,1.8,0,3.08,.68,3.94,1.54l-.77,1.14c-.64-.77-1.8-1.34-3.17-1.34-1.45,0-2.35,.66-2.35,1.61,0,1.03,1.21,1.36,2.6,1.69,1.85,.42,3.98,.95,3.98,3.3,0,1.78-1.43,3.21-4.18,3.21-1.74,0-3.21-.53-4.29-1.67l.86-1.19Z"/><path class="cls-10" d="M552.09,64.03v-1.21c-.88,.97-2.09,1.47-3.52,1.47-1.8,0-3.72-1.21-3.72-3.52s1.91-3.5,3.72-3.5c1.45,0,2.66,.46,3.52,1.45v-1.91c0-1.43-1.14-2.24-2.68-2.24-1.28,0-2.31,.46-3.26,1.47l-.77-1.14c1.14-1.19,2.51-1.76,4.25-1.76,2.24,0,4.11,1.01,4.11,3.59v7.3h-1.65Zm0-4.25c-.64-.88-1.76-1.32-2.93-1.32-1.54,0-2.62,.97-2.62,2.33s1.08,2.31,2.62,2.31c1.17,0,2.29-.44,2.93-1.32v-2Z"/><path class="cls-10" d="M564.22,64.03v-6.95c0-1.87-.95-2.46-2.38-2.46-1.3,0-2.53,.79-3.15,1.65v7.77h-1.65v-10.63h1.65v1.54c.75-.88,2.2-1.8,3.78-1.8,2.22,0,3.39,1.12,3.39,3.43v7.46h-1.65Z"/><path class="cls-10" d="M576.87,64.03v-1.58c-.79,1.08-2.09,1.85-3.59,1.85-2.77,0-4.73-2.11-4.73-5.57s1.94-5.59,4.73-5.59c1.43,0,2.73,.7,3.59,1.87v-5.66h1.65v14.68h-1.65Zm0-7.7c-.59-.92-1.87-1.72-3.19-1.72-2.13,0-3.41,1.76-3.41,4.11s1.28,4.09,3.41,4.09c1.32,0,2.6-.75,3.19-1.67v-4.82Z"/><path class="cls-10" d="M587.82,61.81v-6.95h-1.76v-1.45h1.76v-2.9h1.65v2.9h2.16v1.45h-2.16v6.6c0,.79,.35,1.36,1.08,1.36,.46,0,.9-.2,1.12-.44l.48,1.23c-.42,.4-1.01,.68-1.98,.68-1.56,0-2.35-.9-2.35-2.49Z"/><path class="cls-10" d="M601.15,64.03v-7c0-1.87-.97-2.42-2.4-2.42-1.28,0-2.51,.79-3.15,1.65v7.77h-1.65v-14.68h1.65v5.59c.75-.88,2.2-1.8,3.81-1.8,2.22,0,3.39,1.08,3.39,3.39v7.5h-1.65Z"/><path class="cls-10" d="M610.72,53.14c3.21,0,5.1,2.51,5.1,5.7v.42h-8.6c.13,2,1.54,3.67,3.83,3.67,1.21,0,2.44-.48,3.28-1.34l.79,1.08c-1.06,1.06-2.49,1.63-4.22,1.63-3.15,0-5.41-2.27-5.41-5.59,0-3.08,2.2-5.57,5.24-5.57Zm-3.5,4.91h6.97c-.02-1.58-1.08-3.54-3.5-3.54-2.27,0-3.39,1.92-3.48,3.54Z"/><path class="cls-10" d="M618.2,50.5c0-.62,.51-1.1,1.1-1.1s1.12,.48,1.12,1.1-.51,1.12-1.12,1.12-1.1-.51-1.1-1.12Zm.29,13.53v-10.63h1.65v10.63h-1.65Z"/><path class="cls-10" d="M623.44,64.03v-10.63h1.65v1.72c.86-1.12,2.09-1.94,3.54-1.94v1.7c-.2-.04-.4-.07-.66-.07-1.01,0-2.4,.84-2.88,1.69v7.52h-1.65Z"/><path class="cls-10" d="M636.09,50.5c0-.62,.51-1.1,1.1-1.1s1.12,.48,1.12,1.1-.51,1.12-1.12,1.12-1.1-.51-1.1-1.12Zm.29,13.53v-10.63h1.65v10.63h-1.65Z"/><path class="cls-10" d="M654.15,64.03v-7.22c0-1.34-.59-2.2-1.96-2.2-1.1,0-2.27,.79-2.82,1.63v7.79h-1.65v-7.22c0-1.34-.57-2.2-1.96-2.2-1.08,0-2.22,.79-2.79,1.65v7.77h-1.65v-10.63h1.65v1.54c.44-.68,1.87-1.8,3.43-1.8s2.55,.88,2.86,1.98c.59-.97,2.02-1.98,3.56-1.98,1.94,0,2.97,1.08,2.97,3.21v7.68h-1.65Z"/><path class="cls-10" d="M660.75,68.08h-1.65v-14.68h1.65v1.58c.77-1.08,2.09-1.85,3.59-1.85,2.79,0,4.73,2.11,4.73,5.57s-1.94,5.59-4.73,5.59c-1.45,0-2.73-.68-3.59-1.87v5.65Zm3.17-13.47c-1.3,0-2.6,.77-3.17,1.69v4.8c.57,.92,1.87,1.72,3.17,1.72,2.13,0,3.41-1.76,3.41-4.11s-1.28-4.09-3.41-4.09Z"/><path class="cls-10" d="M671.11,58.71c0-3.08,2.02-5.57,5.26-5.57s5.26,2.49,5.26,5.57-2.02,5.59-5.26,5.59-5.26-2.51-5.26-5.59Zm8.78,0c0-2.16-1.25-4.09-3.52-4.09s-3.54,1.94-3.54,4.09,1.28,4.11,3.54,4.11,3.52-1.94,3.52-4.11Z"/><path class="cls-10" d="M684.31,64.03v-10.63h1.65v1.72c.86-1.12,2.09-1.94,3.54-1.94v1.7c-.2-.04-.4-.07-.66-.07-1.01,0-2.4,.84-2.88,1.69v7.52h-1.65Z"/><path class="cls-10" d="M691.9,61.81v-6.95h-1.76v-1.45h1.76v-2.9h1.65v2.9h2.16v1.45h-2.16v6.6c0,.79,.35,1.36,1.08,1.36,.46,0,.9-.2,1.12-.44l.48,1.23c-.42,.4-1.01,.68-1.98,.68-1.56,0-2.35-.9-2.35-2.49Z"/><path class="cls-10" d="M704.68,64.03v-1.21c-.88,.97-2.09,1.47-3.52,1.47-1.8,0-3.72-1.21-3.72-3.52s1.91-3.5,3.72-3.5c1.45,0,2.66,.46,3.52,1.45v-1.91c0-1.43-1.14-2.24-2.68-2.24-1.28,0-2.31,.46-3.26,1.47l-.77-1.14c1.14-1.19,2.51-1.76,4.25-1.76,2.24,0,4.11,1.01,4.11,3.59v7.3h-1.65Zm0-4.25c-.64-.88-1.76-1.32-2.93-1.32-1.54,0-2.62,.97-2.62,2.33s1.08,2.31,2.62,2.31c1.17,0,2.29-.44,2.93-1.32v-2Z"/><path class="cls-10" d="M716.8,64.03v-6.95c0-1.87-.95-2.46-2.38-2.46-1.3,0-2.53,.79-3.15,1.65v7.77h-1.65v-10.63h1.65v1.54c.75-.88,2.2-1.8,3.78-1.8,2.22,0,3.39,1.12,3.39,3.43v7.46h-1.65Z"/><path class="cls-10" d="M726.44,53.14c1.94,0,3.08,.79,3.89,1.85l-1.1,1.01c-.7-.97-1.61-1.39-2.71-1.39-2.27,0-3.67,1.74-3.67,4.09s1.41,4.11,3.67,4.11c1.1,0,2-.44,2.71-1.39l1.1,1.01c-.81,1.06-1.96,1.85-3.89,1.85-3.17,0-5.3-2.42-5.3-5.59s2.13-5.57,5.3-5.57Z"/><path class="cls-10" d="M737.26,53.14c3.21,0,5.1,2.51,5.1,5.7v.42h-8.6c.13,2,1.54,3.67,3.83,3.67,1.21,0,2.44-.48,3.28-1.34l.79,1.08c-1.06,1.06-2.49,1.63-4.22,1.63-3.15,0-5.41-2.27-5.41-5.59,0-3.08,2.2-5.57,5.24-5.57Zm-3.5,4.91h6.98c-.02-1.58-1.08-3.54-3.5-3.54-2.27,0-3.39,1.92-3.48,3.54Z"/><path class="cls-10" d="M750.42,50.5c0-.62,.51-1.1,1.1-1.1s1.12,.48,1.12,1.1-.51,1.12-1.12,1.12-1.1-.51-1.1-1.12Zm.29,13.53v-10.63h1.65v10.63h-1.65Z"/><path class="cls-10" d="M762.83,64.03v-6.95c0-1.87-.95-2.46-2.38-2.46-1.3,0-2.53,.79-3.15,1.65v7.77h-1.65v-10.63h1.65v1.54c.75-.88,2.2-1.8,3.78-1.8,2.22,0,3.39,1.12,3.39,3.43v7.46h-1.65Z"/><path class="cls-10" d="M773.45,64.03v-10.63h1.65v1.72c.86-1.12,2.09-1.94,3.54-1.94v1.7c-.2-.04-.4-.07-.66-.07-1.01,0-2.4,.84-2.88,1.69v7.52h-1.65Z"/><path class="cls-10" d="M785.33,53.14c3.21,0,5.11,2.51,5.11,5.7v.42h-8.6c.13,2,1.54,3.67,3.83,3.67,1.21,0,2.44-.48,3.28-1.34l.79,1.08c-1.06,1.06-2.49,1.63-4.22,1.63-3.15,0-5.41-2.27-5.41-5.59,0-3.08,2.2-5.57,5.24-5.57Zm-3.5,4.91h6.97c-.02-1.58-1.08-3.54-3.5-3.54-2.27,0-3.39,1.92-3.48,3.54Z"/><path class="cls-10" d="M793.1,64.03v-14.68h1.65v14.68h-1.65Z"/><path class="cls-10" d="M804.69,64.03v-1.21c-.88,.97-2.09,1.47-3.52,1.47-1.8,0-3.72-1.21-3.72-3.52s1.91-3.5,3.72-3.5c1.45,0,2.66,.46,3.52,1.45v-1.91c0-1.43-1.14-2.24-2.68-2.24-1.28,0-2.31,.46-3.26,1.47l-.77-1.14c1.14-1.19,2.51-1.76,4.25-1.76,2.25,0,4.12,1.01,4.12,3.59v7.3h-1.65Zm0-4.25c-.64-.88-1.76-1.32-2.93-1.32-1.54,0-2.62,.97-2.62,2.33s1.08,2.31,2.62,2.31c1.17,0,2.29-.44,2.93-1.32v-2Z"/><path class="cls-10" d="M809.97,61.81v-6.95h-1.76v-1.45h1.76v-2.9h1.65v2.9h2.16v1.45h-2.16v6.6c0,.79,.35,1.36,1.08,1.36,.46,0,.9-.2,1.12-.44l.48,1.23c-.42,.4-1.01,.68-1.98,.68-1.56,0-2.35-.9-2.35-2.49Z"/><path class="cls-10" d="M815.82,50.5c0-.62,.51-1.1,1.1-1.1s1.12,.48,1.12,1.1-.51,1.12-1.12,1.12-1.1-.51-1.1-1.12Zm.29,13.53v-10.63h1.65v10.63h-1.65Z"/><path class="cls-10" d="M820.44,58.71c0-3.08,2.02-5.57,5.26-5.57s5.26,2.49,5.26,5.57-2.02,5.59-5.26,5.59-5.26-2.51-5.26-5.59Zm8.78,0c0-2.16-1.25-4.09-3.52-4.09s-3.54,1.94-3.54,4.09,1.28,4.11,3.54,4.11,3.52-1.94,3.52-4.11Z"/><path class="cls-10" d="M840.82,64.03v-6.95c0-1.87-.95-2.46-2.38-2.46-1.3,0-2.53,.79-3.15,1.65v7.77h-1.65v-10.63h1.65v1.54c.75-.88,2.2-1.8,3.78-1.8,2.22,0,3.39,1.12,3.39,3.43v7.46h-1.65Z"/><path class="cls-10" d="M851.77,61.81v-6.95h-1.76v-1.45h1.76v-2.9h1.65v2.9h2.16v1.45h-2.16v6.6c0,.79,.35,1.36,1.08,1.36,.46,0,.9-.2,1.12-.44l.48,1.23c-.42,.4-1.01,.68-1.98,.68-1.56,0-2.35-.9-2.35-2.49Z"/><path class="cls-10" d="M857.29,58.71c0-3.08,2.02-5.57,5.26-5.57s5.26,2.49,5.26,5.57-2.02,5.59-5.26,5.59-5.26-2.51-5.26-5.59Zm8.78,0c0-2.16-1.25-4.09-3.52-4.09s-3.54,1.94-3.54,4.09,1.28,4.11,3.54,4.11,3.52-1.94,3.52-4.11Z"/><path class="cls-10" d="M876.5,61.81v-6.95h-1.76v-1.45h1.76v-2.9h1.65v2.9h2.16v1.45h-2.16v6.6c0,.79,.35,1.36,1.08,1.36,.46,0,.9-.2,1.12-.44l.48,1.23c-.42,.4-1.01,.68-1.98,.68-1.56,0-2.35-.9-2.35-2.49Z"/><path class="cls-10" d="M889.83,64.03v-7c0-1.87-.97-2.42-2.4-2.42-1.28,0-2.51,.79-3.15,1.65v7.77h-1.65v-14.68h1.65v5.59c.75-.88,2.2-1.8,3.81-1.8,2.22,0,3.39,1.08,3.39,3.39v7.5h-1.65Z"/><path class="cls-10" d="M899.4,53.14c3.21,0,5.1,2.51,5.1,5.7v.42h-8.6c.13,2,1.54,3.67,3.83,3.67,1.21,0,2.44-.48,3.28-1.34l.79,1.08c-1.06,1.06-2.49,1.63-4.22,1.63-3.15,0-5.41-2.27-5.41-5.59,0-3.08,2.2-5.57,5.24-5.57Zm-3.5,4.91h6.97c-.02-1.58-1.08-3.54-3.5-3.54-2.27,0-3.39,1.92-3.48,3.54Z"/><path class="cls-10" d="M912.84,64.03v-10.63h1.65v1.72c.86-1.12,2.09-1.94,3.54-1.94v1.7c-.2-.04-.4-.07-.66-.07-1.01,0-2.4,.84-2.88,1.69v7.52h-1.65Z"/><path class="cls-10" d="M919.49,58.71c0-3.08,2.02-5.57,5.26-5.57s5.26,2.49,5.26,5.57-2.03,5.59-5.26,5.59-5.26-2.51-5.26-5.59Zm8.78,0c0-2.16-1.25-4.09-3.52-4.09s-3.54,1.94-3.54,4.09,1.28,4.11,3.54,4.11,3.52-1.94,3.52-4.11Z"/><path class="cls-10" d="M932.69,64.03v-14.68h1.65v14.68h-1.65Z"/><path class="cls-10" d="M942.26,53.14c3.21,0,5.11,2.51,5.11,5.7v.42h-8.6c.13,2,1.54,3.67,3.83,3.67,1.21,0,2.44-.48,3.28-1.34l.79,1.08c-1.06,1.06-2.49,1.63-4.22,1.63-3.15,0-5.41-2.27-5.41-5.59,0-3.08,2.2-5.57,5.24-5.57Zm-3.5,4.91h6.97c-.02-1.58-1.08-3.54-3.5-3.54-2.27,0-3.39,1.92-3.48,3.54Z"/><path class="cls-10" d="M281.1,88.21v-6.95h-1.76v-1.45h1.76v-2.9h1.65v2.9h2.16v1.45h-2.16v6.6c0,.79,.35,1.36,1.08,1.36,.46,0,.9-.2,1.12-.44l.48,1.23c-.42,.4-1.01,.68-1.98,.68-1.56,0-2.35-.9-2.35-2.49Z"/><path class="cls-10" d="M294.43,90.43v-7c0-1.87-.97-2.42-2.4-2.42-1.28,0-2.51,.79-3.15,1.65v7.77h-1.65v-14.68h1.65v5.59c.75-.88,2.2-1.8,3.81-1.8,2.22,0,3.39,1.08,3.39,3.39v7.5h-1.65Z"/><path class="cls-10" d="M304,79.54c3.21,0,5.1,2.51,5.1,5.7v.42h-8.6c.13,2,1.54,3.67,3.83,3.67,1.21,0,2.44-.48,3.28-1.34l.79,1.08c-1.06,1.06-2.49,1.63-4.22,1.63-3.15,0-5.41-2.27-5.41-5.59,0-3.08,2.2-5.57,5.24-5.57Zm-3.5,4.91h6.97c-.02-1.58-1.08-3.54-3.5-3.54-2.27,0-3.39,1.91-3.48,3.54Z"/><path class="cls-10" d="M311.44,93.1c.24,.11,.64,.18,.9,.18,.73,0,1.21-.24,1.58-1.12l.7-1.61-4.44-10.74h1.78l3.54,8.71,3.52-8.71h1.8l-5.32,12.78c-.64,1.54-1.72,2.13-3.12,2.16-.35,0-.9-.07-1.21-.15l.26-1.5Z"/><path class="cls-10" d="M329.87,94.48h-1.65v-14.68h1.65v1.58c.77-1.08,2.09-1.85,3.59-1.85,2.79,0,4.73,2.11,4.73,5.57s-1.94,5.59-4.73,5.59c-1.45,0-2.73-.68-3.59-1.87v5.65Zm3.17-13.47c-1.3,0-2.6,.77-3.17,1.69v4.8c.57,.92,1.87,1.72,3.17,1.72,2.13,0,3.41-1.76,3.41-4.11s-1.28-4.09-3.41-4.09Z"/><path class="cls-10" d="M340.85,90.43v-14.68h1.65v14.68h-1.65Z"/><path class="cls-10" d="M352.45,90.43v-1.21c-.88,.97-2.09,1.47-3.52,1.47-1.8,0-3.72-1.21-3.72-3.52s1.91-3.5,3.72-3.5c1.45,0,2.66,.46,3.52,1.45v-1.91c0-1.43-1.14-2.24-2.68-2.24-1.28,0-2.31,.46-3.26,1.47l-.77-1.14c1.14-1.19,2.51-1.76,4.25-1.76,2.24,0,4.11,1.01,4.11,3.59v7.3h-1.65Zm0-4.25c-.64-.88-1.76-1.32-2.93-1.32-1.54,0-2.62,.97-2.62,2.33s1.08,2.31,2.62,2.31c1.17,0,2.29-.44,2.93-1.32v-2Z"/><path class="cls-10" d="M357.07,93.1c.24,.11,.64,.18,.9,.18,.73,0,1.21-.24,1.58-1.12l.7-1.61-4.44-10.74h1.78l3.54,8.71,3.52-8.71h1.8l-5.33,12.78c-.64,1.54-1.72,2.13-3.12,2.16-.35,0-.9-.07-1.21-.15l.26-1.5Z"/><path class="cls-10" d="M373.57,76.9c0-.62,.51-1.1,1.1-1.1s1.12,.48,1.12,1.1-.51,1.12-1.12,1.12-1.1-.51-1.1-1.12Zm.29,13.53v-10.63h1.65v10.63h-1.65Z"/><path class="cls-10" d="M385.97,90.43v-6.95c0-1.87-.95-2.46-2.38-2.46-1.3,0-2.53,.79-3.15,1.65v7.77h-1.65v-10.63h1.65v1.54c.75-.88,2.2-1.8,3.78-1.8,2.22,0,3.39,1.12,3.39,3.43v7.46h-1.65Z"/><path class="cls-10" d="M396.93,88.21v-6.95h-1.76v-1.45h1.76v-2.9h1.65v2.9h2.16v1.45h-2.16v6.6c0,.79,.35,1.36,1.08,1.36,.46,0,.9-.2,1.12-.44l.48,1.23c-.42,.4-1.01,.68-1.98,.68-1.56,0-2.35-.9-2.35-2.49Z"/><path class="cls-10" d="M410.26,90.43v-7c0-1.87-.97-2.42-2.4-2.42-1.28,0-2.51,.79-3.15,1.65v7.77h-1.65v-14.68h1.65v5.59c.75-.88,2.2-1.8,3.81-1.8,2.22,0,3.39,1.08,3.39,3.39v7.5h-1.65Z"/><path class="cls-10" d="M419.83,79.54c3.21,0,5.1,2.51,5.1,5.7v.42h-8.6c.13,2,1.54,3.67,3.83,3.67,1.21,0,2.44-.48,3.28-1.34l.79,1.08c-1.06,1.06-2.49,1.63-4.22,1.63-3.15,0-5.41-2.27-5.41-5.59,0-3.08,2.2-5.57,5.24-5.57Zm-3.5,4.91h6.98c-.02-1.58-1.08-3.54-3.5-3.54-2.27,0-3.39,1.91-3.48,3.54Z"/><path class="cls-10" d="M435.38,81.26v9.17h-1.65v-9.17h-1.76v-1.45h1.76v-.81c0-2.2,1.23-3.46,3.08-3.46,.62,0,1.19,.11,1.61,.38l-.42,1.23c-.26-.15-.57-.24-.95-.24-1.08,0-1.67,.75-1.67,2.09v.81h2.16v1.45h-2.16Z"/><path class="cls-10" d="M446.14,90.43v-1.21c-.88,.97-2.09,1.47-3.52,1.47-1.8,0-3.72-1.21-3.72-3.52s1.91-3.5,3.72-3.5c1.45,0,2.66,.46,3.52,1.45v-1.91c0-1.43-1.14-2.24-2.68-2.24-1.28,0-2.31,.46-3.26,1.47l-.77-1.14c1.14-1.19,2.51-1.76,4.25-1.76,2.24,0,4.11,1.01,4.11,3.59v7.3h-1.65Zm0-4.25c-.64-.88-1.76-1.32-2.93-1.32-1.54,0-2.62,.97-2.62,2.33s1.08,2.31,2.62,2.31c1.17,0,2.29-.44,2.93-1.32v-2Z"/><path class="cls-10" d="M455.78,79.54c1.94,0,3.08,.79,3.89,1.85l-1.1,1.01c-.7-.97-1.61-1.39-2.71-1.39-2.27,0-3.67,1.74-3.67,4.09s1.41,4.11,3.67,4.11c1.1,0,2-.44,2.71-1.39l1.1,1.01c-.81,1.06-1.96,1.85-3.89,1.85-3.17,0-5.3-2.42-5.3-5.59s2.13-5.57,5.3-5.57Z"/><path class="cls-10" d="M466.6,79.54c3.21,0,5.1,2.51,5.1,5.7v.42h-8.6c.13,2,1.54,3.67,3.83,3.67,1.21,0,2.44-.48,3.28-1.34l.79,1.08c-1.06,1.06-2.49,1.63-4.22,1.63-3.15,0-5.41-2.27-5.41-5.59,0-3.08,2.2-5.57,5.24-5.57Zm-3.5,4.91h6.98c-.02-1.58-1.08-3.54-3.5-3.54-2.27,0-3.39,1.91-3.48,3.54Z"/><path class="cls-10" d="M479.43,85.11c0-3.08,2.02-5.57,5.26-5.57s5.26,2.49,5.26,5.57-2.02,5.59-5.26,5.59-5.26-2.51-5.26-5.59Zm8.78,0c0-2.16-1.25-4.09-3.52-4.09s-3.54,1.94-3.54,4.09,1.28,4.11,3.54,4.11,3.52-1.94,3.52-4.11Z"/><path class="cls-10" d="M494.74,81.26v9.17h-1.65v-9.17h-1.76v-1.45h1.76v-.81c0-2.2,1.23-3.46,3.08-3.46,.62,0,1.19,.11,1.61,.38l-.42,1.23c-.26-.15-.57-.24-.95-.24-1.08,0-1.67,.75-1.67,2.09v.81h2.16v1.45h-2.16Z"/><path class="cls-10" d="M509.21,79.54c1.94,0,3.08,.79,3.89,1.85l-1.1,1.01c-.7-.97-1.61-1.39-2.71-1.39-2.27,0-3.67,1.74-3.67,4.09s1.41,4.11,3.67,4.11c1.1,0,2-.44,2.71-1.39l1.1,1.01c-.81,1.06-1.96,1.85-3.89,1.85-3.17,0-5.3-2.42-5.3-5.59s2.13-5.57,5.3-5.57Z"/><path class="cls-10" d="M515.42,90.43v-14.68h1.65v14.68h-1.65Z"/><path class="cls-10" d="M520.08,76.9c0-.62,.51-1.1,1.1-1.1s1.12,.48,1.12,1.1-.51,1.12-1.12,1.12-1.1-.51-1.1-1.12Zm.29,13.53v-10.63h1.65v10.63h-1.65Z"/><path class="cls-10" d="M538.15,90.43v-7.22c0-1.34-.59-2.2-1.96-2.2-1.1,0-2.27,.79-2.82,1.63v7.79h-1.65v-7.22c0-1.34-.57-2.2-1.96-2.2-1.08,0-2.22,.79-2.79,1.65v7.77h-1.65v-10.63h1.65v1.54c.44-.68,1.87-1.8,3.43-1.8s2.55,.88,2.86,1.98c.59-.97,2.02-1.98,3.56-1.98,1.94,0,2.97,1.08,2.97,3.21v7.68h-1.65Z"/><path class="cls-10" d="M549.74,90.43v-1.21c-.88,.97-2.09,1.47-3.52,1.47-1.8,0-3.72-1.21-3.72-3.52s1.91-3.5,3.72-3.5c1.45,0,2.66,.46,3.52,1.45v-1.91c0-1.43-1.14-2.24-2.68-2.24-1.28,0-2.31,.46-3.26,1.47l-.77-1.14c1.14-1.19,2.51-1.76,4.25-1.76,2.25,0,4.12,1.01,4.12,3.59v7.3h-1.65Zm0-4.25c-.64-.88-1.76-1.32-2.93-1.32-1.54,0-2.62,.97-2.62,2.33s1.08,2.31,2.62,2.31c1.17,0,2.29-.44,2.93-1.32v-2Z"/><path class="cls-10" d="M555.02,88.21v-6.95h-1.76v-1.45h1.76v-2.9h1.65v2.9h2.16v1.45h-2.16v6.6c0,.79,.35,1.36,1.08,1.36,.46,0,.9-.2,1.12-.44l.48,1.23c-.42,.4-1.01,.68-1.98,.68-1.56,0-2.35-.9-2.35-2.49Z"/><path class="cls-10" d="M565.78,79.54c3.21,0,5.1,2.51,5.1,5.7v.42h-8.6c.13,2,1.54,3.67,3.83,3.67,1.21,0,2.44-.48,3.28-1.34l.79,1.08c-1.06,1.06-2.49,1.63-4.22,1.63-3.15,0-5.41-2.27-5.41-5.59,0-3.08,2.2-5.57,5.24-5.57Zm-3.5,4.91h6.98c-.02-1.58-1.08-3.54-3.5-3.54-2.27,0-3.39,1.91-3.48,3.54Z"/><path class="cls-10" d="M583.9,79.54c1.94,0,3.08,.79,3.89,1.85l-1.1,1.01c-.7-.97-1.61-1.39-2.71-1.39-2.27,0-3.67,1.74-3.67,4.09s1.41,4.11,3.67,4.11c1.1,0,2-.44,2.71-1.39l1.1,1.01c-.81,1.06-1.96,1.85-3.89,1.85-3.17,0-5.3-2.42-5.3-5.59s2.13-5.57,5.3-5.57Z"/><path class="cls-10" d="M597.3,90.43v-7c0-1.87-.97-2.42-2.4-2.42-1.28,0-2.51,.79-3.15,1.65v7.77h-1.65v-14.68h1.65v5.59c.75-.88,2.2-1.8,3.81-1.8,2.22,0,3.39,1.08,3.39,3.39v7.5h-1.65Z"/><path class="cls-10" d="M608.9,90.43v-1.21c-.88,.97-2.09,1.47-3.52,1.47-1.8,0-3.72-1.21-3.72-3.52s1.91-3.5,3.72-3.5c1.45,0,2.66,.46,3.52,1.45v-1.91c0-1.43-1.14-2.24-2.68-2.24-1.28,0-2.31,.46-3.26,1.47l-.77-1.14c1.14-1.19,2.51-1.76,4.25-1.76,2.24,0,4.11,1.01,4.11,3.59v7.3h-1.65Zm0-4.25c-.64-.88-1.76-1.32-2.93-1.32-1.54,0-2.62,.97-2.62,2.33s1.08,2.31,2.62,2.31c1.17,0,2.29-.44,2.93-1.32v-2Z"/><path class="cls-10" d="M621.02,90.43v-6.95c0-1.87-.95-2.46-2.38-2.46-1.3,0-2.53,.79-3.15,1.65v7.77h-1.65v-10.63h1.65v1.54c.75-.88,2.2-1.8,3.78-1.8,2.22,0,3.39,1.12,3.39,3.43v7.46h-1.65Z"/><path class="cls-10" d="M626.78,91.93c.88,1.06,1.94,1.45,3.45,1.45,1.76,0,3.41-.86,3.41-3.19v-1.52c-.77,1.08-2.07,1.89-3.56,1.89-2.77,0-4.73-2.07-4.73-5.5s1.94-5.52,4.73-5.52c1.43,0,2.71,.7,3.56,1.87v-1.61h1.65v10.32c0,3.52-2.46,4.62-5.06,4.62-1.8,0-3.04-.35-4.29-1.58l.84-1.23Zm6.86-9.2c-.57-.92-1.85-1.72-3.17-1.72-2.13,0-3.41,1.69-3.41,4.05s1.28,4.05,3.41,4.05c1.32,0,2.6-.81,3.17-1.74v-4.64Z"/><path class="cls-10" d="M643.21,79.54c3.21,0,5.11,2.51,5.11,5.7v.42h-8.6c.13,2,1.54,3.67,3.83,3.67,1.21,0,2.44-.48,3.28-1.34l.79,1.08c-1.06,1.06-2.49,1.63-4.22,1.63-3.15,0-5.41-2.27-5.41-5.59,0-3.08,2.2-5.57,5.24-5.57Zm-3.5,4.91h6.97c-.02-1.58-1.08-3.54-3.5-3.54-2.27,0-3.39,1.91-3.48,3.54Z"/><path class="cls-10" d="M651.71,88.23c.66,0,1.21,.55,1.21,1.21s-.55,1.21-1.21,1.21-1.21-.55-1.21-1.21,.55-1.21,1.21-1.21Z"/></g></g></g></g></svg>