<?xml version="1.0" encoding="UTF-8"?><svg id="Capa_2" xmlns="http://www.w3.org/2000/svg" viewBox="0 0 934 282"><defs><style>.cls-1{fill:#1b5f99;}.cls-2{fill:#5d5d62;}.cls-3{fill:#fff;opacity:.85;stroke:#1b5f99;stroke-miterlimit:10;stroke-width:3px;}</style></defs><g id="Capa_1-2"><rect class="cls-3" x="1.5" y="1.5" width="931" height="279" rx="20" ry="20"/><g><path class="cls-2" d="M154.55,136.8v-17.2h-6.12v-2.15h14.68v2.15h-6.15v17.2h-2.41Z"/><path class="cls-2" d="M175.69,136.8v-9.22c0-2.46-1.28-3.19-3.16-3.19-1.68,0-3.31,1.04-4.15,2.18v10.24h-2.18v-19.35h2.18v7.37c.99-1.16,2.9-2.38,5.02-2.38,2.93,0,4.47,1.42,4.47,4.47v9.89h-2.18Z"/><path class="cls-2" d="M181.84,118.96c0-.81,.67-1.45,1.45-1.45s1.48,.64,1.48,1.45-.67,1.48-1.48,1.48-1.45-.67-1.45-1.48Zm.38,17.84v-14.01h2.18v14.01h-2.18Z"/><path class="cls-2" d="M188.65,133.38c.93,1.07,2.7,2,4.61,2,2.15,0,3.31-.96,3.31-2.32,0-1.54-1.71-2.03-3.6-2.49-2.38-.55-5.08-1.19-5.08-4.09,0-2.18,1.89-4.03,5.22-4.03,2.38,0,4.06,.9,5.19,2.03l-1.01,1.51c-.84-1.02-2.38-1.77-4.18-1.77-1.91,0-3.1,.87-3.1,2.12,0,1.36,1.6,1.8,3.42,2.23,2.44,.55,5.25,1.25,5.25,4.35,0,2.35-1.89,4.23-5.51,4.23-2.29,0-4.24-.7-5.66-2.2l1.13-1.57Z"/><path class="cls-2" d="M209.33,118.96c0-.81,.67-1.45,1.45-1.45s1.48,.64,1.48,1.45-.67,1.48-1.48,1.48-1.45-.67-1.45-1.48Zm.38,17.84v-14.01h2.18v14.01h-2.18Z"/><path class="cls-2" d="M216.14,133.38c.93,1.07,2.7,2,4.61,2,2.15,0,3.31-.96,3.31-2.32,0-1.54-1.71-2.03-3.6-2.49-2.38-.55-5.08-1.19-5.08-4.09,0-2.18,1.89-4.03,5.22-4.03,2.38,0,4.06,.9,5.19,2.03l-1.02,1.51c-.84-1.02-2.38-1.77-4.18-1.77-1.92,0-3.1,.87-3.1,2.12,0,1.36,1.59,1.8,3.42,2.23,2.44,.55,5.25,1.25,5.25,4.35,0,2.35-1.89,4.23-5.51,4.23-2.29,0-4.24-.7-5.66-2.2l1.13-1.57Z"/><path class="cls-2" d="M236.76,140.31c.32,.14,.84,.23,1.19,.23,.96,0,1.59-.32,2.09-1.48l.93-2.12-5.86-14.15h2.35l4.67,11.49,4.64-11.49h2.38l-7.02,16.85c-.84,2.03-2.26,2.81-4.12,2.84-.46,0-1.19-.09-1.6-.2l.35-1.97Z"/><path class="cls-2" d="M250.59,129.78c0-4.06,2.67-7.34,6.93-7.34s6.93,3.28,6.93,7.34-2.67,7.37-6.93,7.37-6.93-3.31-6.93-7.37Zm11.57,0c0-2.84-1.65-5.4-4.64-5.4s-4.67,2.55-4.67,5.4,1.68,5.42,4.67,5.42,4.64-2.55,4.64-5.42Z"/><path class="cls-2" d="M277.45,136.8v-1.97c-1.07,1.22-2.9,2.32-4.99,2.32-2.93,0-4.47-1.42-4.47-4.47v-9.89h2.18v9.22c0,2.47,1.25,3.19,3.13,3.19,1.71,0,3.34-.99,4.15-2.12v-10.3h2.18v14.01h-2.18Z"/><path class="cls-2" d="M283.97,136.8v-14.01h2.17v2.26c1.13-1.48,2.76-2.55,4.67-2.55v2.23c-.26-.06-.52-.09-.87-.09-1.33,0-3.16,1.1-3.8,2.23v9.92h-2.17Z"/><path class="cls-2" d="M301.02,136.8v-19.35h2.18v19.35h-2.18Z"/><path class="cls-2" d="M307.17,118.96c0-.81,.67-1.45,1.45-1.45s1.48,.64,1.48,1.45-.67,1.48-1.48,1.48-1.45-.67-1.45-1.48Zm.38,17.84v-14.01h2.17v14.01h-2.17Z"/><path class="cls-2" d="M314.07,136.8v-19.35h2.18v7.46c1.13-1.54,2.81-2.47,4.73-2.47,3.66,0,6.24,2.9,6.24,7.37s-2.58,7.34-6.24,7.34c-1.97,0-3.68-1.01-4.73-2.44v2.09h-2.18Zm2.18-3.8c.75,1.22,2.47,2.2,4.18,2.2,2.84,0,4.53-2.29,4.53-5.39s-1.68-5.42-4.53-5.42c-1.71,0-3.42,1.04-4.18,2.26v6.35Z"/><path class="cls-2" d="M330.75,136.8v-14.01h2.18v2.26c1.13-1.48,2.76-2.55,4.67-2.55v2.23c-.26-.06-.52-.09-.87-.09-1.33,0-3.16,1.1-3.8,2.23v9.92h-2.18Z"/><path class="cls-2" d="M349.08,136.8v-1.6c-1.16,1.28-2.76,1.94-4.64,1.94-2.38,0-4.9-1.59-4.9-4.64s2.52-4.61,4.9-4.61c1.92,0,3.51,.61,4.64,1.92v-2.52c0-1.89-1.51-2.96-3.54-2.96-1.68,0-3.05,.61-4.29,1.94l-1.02-1.51c1.51-1.57,3.31-2.32,5.6-2.32,2.96,0,5.42,1.33,5.42,4.73v9.63h-2.18Zm0-5.6c-.84-1.16-2.32-1.74-3.86-1.74-2.03,0-3.45,1.28-3.45,3.08s1.42,3.04,3.45,3.04c1.54,0,3.02-.58,3.86-1.74v-2.64Z"/><path class="cls-2" d="M355.6,136.8v-14.01h2.18v2.26c1.13-1.48,2.75-2.55,4.67-2.55v2.23c-.26-.06-.52-.09-.87-.09-1.33,0-3.16,1.1-3.8,2.23v9.92h-2.18Z"/><path class="cls-2" d="M364.74,140.31c.32,.14,.84,.23,1.19,.23,.96,0,1.6-.32,2.09-1.48l.93-2.12-5.86-14.15h2.35l4.67,11.49,4.64-11.49h2.38l-7.02,16.85c-.84,2.03-2.26,2.81-4.12,2.84-.46,0-1.19-.09-1.6-.2l.35-1.97Z"/><path class="cls-2" d="M378.89,133.9c.87,0,1.59,.72,1.59,1.59s-.72,1.6-1.59,1.6-1.6-.73-1.6-1.6,.73-1.59,1.6-1.59Z"/><path class="cls-2" d="M397.59,136.8v-8.18l-7.63-11.17h2.81l6,8.99,6-8.99h2.81l-7.6,11.17v8.18h-2.41Z"/><path class="cls-2" d="M405.54,129.78c0-4.06,2.67-7.34,6.93-7.34s6.93,3.28,6.93,7.34-2.67,7.37-6.93,7.37-6.93-3.31-6.93-7.37Zm11.57,0c0-2.84-1.65-5.4-4.64-5.4s-4.67,2.55-4.67,5.4,1.68,5.42,4.67,5.42,4.64-2.55,4.64-5.42Z"/><path class="cls-2" d="M432.39,136.8v-1.97c-1.07,1.22-2.9,2.32-4.99,2.32-2.93,0-4.47-1.42-4.47-4.47v-9.89h2.18v9.22c0,2.47,1.25,3.19,3.13,3.19,1.71,0,3.34-.99,4.15-2.12v-10.3h2.18v14.01h-2.18Z"/><path class="cls-2" d="M458.52,136.8l-3.66-11.25-3.65,11.25h-2.18l-4.47-14.01h2.26l3.42,11.17,3.68-11.17h1.86l3.68,11.17,3.42-11.17h2.26l-4.47,14.01h-2.18Z"/><path class="cls-2" d="M467.31,118.96c0-.81,.67-1.45,1.45-1.45s1.48,.64,1.48,1.45-.67,1.48-1.48,1.48-1.45-.67-1.45-1.48Zm.38,17.84v-14.01h2.17v14.01h-2.17Z"/><path class="cls-2" d="M474.21,136.8v-19.35h2.18v19.35h-2.18Z"/><path class="cls-2" d="M480.73,136.8v-19.35h2.18v19.35h-2.18Z"/><path class="cls-2" d="M497.53,136.8h-2.18v-12.1h-2.32v-1.91h2.32v-1.07c0-2.9,1.62-4.55,4.06-4.55,.81,0,1.57,.15,2.12,.49l-.55,1.65c-.32-.2-.7-.35-1.25-.35-1.42,0-2.2,.99-2.2,2.76v1.07h2.84v1.91h-2.84v12.1Zm5.05-17.84c0-.81,.67-1.45,1.45-1.45s1.48,.64,1.48,1.45-.67,1.48-1.48,1.48-1.45-.67-1.45-1.48Zm.38,17.84v-14.01h2.18v14.01h-2.18Z"/><path class="cls-2" d="M518.96,136.8v-9.17c0-2.47-1.25-3.25-3.13-3.25-1.71,0-3.34,1.04-4.15,2.18v10.24h-2.18v-14.01h2.18v2.03c.99-1.16,2.9-2.38,4.99-2.38,2.93,0,4.47,1.48,4.47,4.53v9.83h-2.18Z"/><path class="cls-2" d="M535.63,136.8v-2.09c-1.04,1.42-2.76,2.44-4.73,2.44-3.66,0-6.24-2.78-6.24-7.34s2.55-7.37,6.24-7.37c1.89,0,3.6,.93,4.73,2.47v-7.46h2.17v19.35h-2.17Zm0-10.15c-.78-1.22-2.47-2.26-4.21-2.26-2.81,0-4.5,2.32-4.5,5.42s1.68,5.39,4.5,5.39c1.74,0,3.42-.99,4.21-2.2v-6.35Z"/><path class="cls-2" d="M559.09,136.8v-1.97c-1.07,1.22-2.9,2.32-4.99,2.32-2.93,0-4.47-1.42-4.47-4.47v-9.89h2.18v9.22c0,2.47,1.25,3.19,3.13,3.19,1.71,0,3.34-.99,4.15-2.12v-10.3h2.18v14.01h-2.18Z"/><path class="cls-2" d="M565.53,133.38c.93,1.07,2.7,2,4.61,2,2.15,0,3.31-.96,3.31-2.32,0-1.54-1.71-2.03-3.6-2.49-2.38-.55-5.08-1.19-5.08-4.09,0-2.18,1.89-4.03,5.22-4.03,2.38,0,4.06,.9,5.19,2.03l-1.01,1.51c-.84-1.02-2.38-1.77-4.18-1.77-1.92,0-3.1,.87-3.1,2.12,0,1.36,1.6,1.8,3.42,2.23,2.44,.55,5.25,1.25,5.25,4.35,0,2.35-1.88,4.23-5.51,4.23-2.29,0-4.24-.7-5.66-2.2l1.13-1.57Z"/><path class="cls-2" d="M585.19,122.44c4.24,0,6.73,3.31,6.73,7.51v.55h-11.34c.17,2.64,2.03,4.84,5.05,4.84,1.6,0,3.22-.64,4.32-1.77l1.04,1.42c-1.39,1.39-3.28,2.15-5.57,2.15-4.15,0-7.14-2.99-7.14-7.37,0-4.06,2.9-7.34,6.9-7.34Zm-4.61,6.47h9.2c-.03-2.09-1.42-4.67-4.61-4.67-2.99,0-4.47,2.52-4.58,4.67Z"/><path class="cls-2" d="M598.21,124.71v12.1h-2.18v-12.1h-2.32v-1.91h2.32v-1.07c0-2.9,1.62-4.55,4.06-4.55,.81,0,1.57,.15,2.12,.49l-.55,1.62c-.35-.2-.75-.32-1.25-.32-1.42,0-2.2,.99-2.2,2.76v1.07h2.84v1.91h-2.84Z"/><path class="cls-2" d="M613.09,136.8v-1.97c-1.07,1.22-2.9,2.32-4.99,2.32-2.93,0-4.47-1.42-4.47-4.47v-9.89h2.18v9.22c0,2.47,1.25,3.19,3.13,3.19,1.71,0,3.33-.99,4.15-2.12v-10.3h2.18v14.01h-2.18Z"/><path class="cls-2" d="M619.61,136.8v-19.35h2.18v19.35h-2.18Z"/><path class="cls-2" d="M643.77,136.8v-2.09c-1.04,1.42-2.76,2.44-4.73,2.44-3.66,0-6.24-2.78-6.24-7.34s2.55-7.37,6.24-7.37c1.88,0,3.6,.93,4.73,2.47v-7.46h2.18v19.35h-2.18Zm0-10.15c-.78-1.22-2.46-2.26-4.21-2.26-2.81,0-4.5,2.32-4.5,5.42s1.68,5.39,4.5,5.39c1.74,0,3.42-.99,4.21-2.2v-6.35Z"/><path class="cls-2" d="M649.48,129.78c0-4.06,2.67-7.34,6.93-7.34s6.93,3.28,6.93,7.34-2.67,7.37-6.93,7.37-6.93-3.31-6.93-7.37Zm11.57,0c0-2.84-1.65-5.4-4.64-5.4s-4.67,2.55-4.67,5.4,1.68,5.42,4.67,5.42,4.64-2.55,4.64-5.42Z"/><path class="cls-2" d="M673.06,122.44c2.55,0,4.06,1.04,5.13,2.44l-1.45,1.33c-.93-1.28-2.12-1.83-3.57-1.83-2.99,0-4.84,2.29-4.84,5.4s1.86,5.42,4.84,5.42c1.45,0,2.64-.58,3.57-1.83l1.45,1.33c-1.07,1.39-2.58,2.44-5.13,2.44-4.18,0-6.99-3.19-6.99-7.37s2.81-7.34,6.99-7.34Z"/><path class="cls-2" d="M690.69,136.8v-1.97c-1.07,1.22-2.9,2.32-4.99,2.32-2.93,0-4.47-1.42-4.47-4.47v-9.89h2.17v9.22c0,2.47,1.25,3.19,3.13,3.19,1.71,0,3.34-.99,4.15-2.12v-10.3h2.18v14.01h-2.18Z"/><path class="cls-2" d="M714.13,136.8v-9.51c0-1.77-.78-2.9-2.58-2.9-1.45,0-2.99,1.04-3.71,2.15v10.27h-2.17v-9.51c0-1.77-.75-2.9-2.58-2.9-1.42,0-2.93,1.04-3.68,2.18v10.24h-2.18v-14.01h2.18v2.03c.58-.9,2.47-2.38,4.52-2.38s3.37,1.16,3.77,2.61c.78-1.28,2.67-2.61,4.7-2.61,2.55,0,3.92,1.42,3.92,4.24v10.12h-2.18Z"/><path class="cls-2" d="M726.74,122.44c4.24,0,6.73,3.31,6.73,7.51v.55h-11.34c.17,2.64,2.03,4.84,5.05,4.84,1.6,0,3.22-.64,4.32-1.77l1.04,1.42c-1.39,1.39-3.28,2.15-5.57,2.15-4.15,0-7.14-2.99-7.14-7.37,0-4.06,2.9-7.34,6.9-7.34Zm-4.61,6.47h9.2c-.03-2.09-1.42-4.67-4.61-4.67-2.99,0-4.47,2.52-4.58,4.67Z"/><path class="cls-2" d="M746.43,136.8v-9.17c0-2.47-1.25-3.25-3.13-3.25-1.71,0-3.34,1.04-4.15,2.18v10.24h-2.18v-14.01h2.18v2.03c.99-1.16,2.9-2.38,4.99-2.38,2.93,0,4.47,1.48,4.47,4.53v9.83h-2.18Z"/><path class="cls-2" d="M753.39,133.87v-9.17h-2.32v-1.91h2.32v-3.83h2.18v3.83h2.84v1.91h-2.84v8.7c0,1.04,.46,1.8,1.42,1.8,.61,0,1.19-.26,1.48-.58l.64,1.62c-.55,.52-1.33,.9-2.61,.9-2.06,0-3.1-1.19-3.1-3.28Z"/><path class="cls-2" d="M761.39,133.38c.93,1.07,2.7,2,4.61,2,2.15,0,3.31-.96,3.31-2.32,0-1.54-1.71-2.03-3.6-2.49-2.38-.55-5.08-1.19-5.08-4.09,0-2.18,1.89-4.03,5.22-4.03,2.38,0,4.06,.9,5.19,2.03l-1.01,1.51c-.84-1.02-2.38-1.77-4.18-1.77-1.92,0-3.1,.87-3.1,2.12,0,1.36,1.59,1.8,3.42,2.23,2.44,.55,5.25,1.25,5.25,4.35,0,2.35-1.89,4.23-5.51,4.23-2.29,0-4.24-.7-5.66-2.2l1.13-1.57Z"/><path class="cls-2" d="M774.44,139.59c.93-.61,1.77-1.74,1.89-2.7-.06,.03-.26,.06-.41,.06-.81,0-1.39-.61-1.39-1.48s.67-1.57,1.54-1.57c.96,0,1.83,.81,1.83,2.2,0,1.77-1.04,3.42-2.38,4.38l-1.07-.9Z"/><path class="cls-2" d="M149.68,171.6v-14.01h2.18v2.26c1.13-1.48,2.75-2.55,4.67-2.55v2.23c-.26-.06-.52-.09-.87-.09-1.33,0-3.16,1.1-3.8,2.23v9.92h-2.18Z"/><path class="cls-2" d="M165.34,157.24c4.23,0,6.73,3.31,6.73,7.51v.55h-11.34c.17,2.64,2.03,4.84,5.05,4.84,1.6,0,3.22-.64,4.32-1.77l1.04,1.42c-1.39,1.39-3.28,2.15-5.57,2.15-4.15,0-7.14-2.99-7.14-7.37,0-4.06,2.9-7.34,6.9-7.34Zm-4.61,6.47h9.2c-.03-2.09-1.42-4.67-4.61-4.67-2.99,0-4.47,2.52-4.58,4.67Z"/><path class="cls-2" d="M178.36,159.51v12.1h-2.18v-12.1h-2.32v-1.91h2.32v-1.07c0-2.9,1.62-4.55,4.06-4.55,.81,0,1.57,.15,2.12,.49l-.55,1.62c-.35-.2-.75-.32-1.25-.32-1.42,0-2.2,.99-2.2,2.76v1.07h2.84v1.91h-2.84Z"/><path class="cls-2" d="M189.87,157.24c4.23,0,6.73,3.31,6.73,7.51v.55h-11.34c.17,2.64,2.03,4.84,5.05,4.84,1.6,0,3.22-.64,4.32-1.77l1.04,1.42c-1.39,1.39-3.28,2.15-5.57,2.15-4.15,0-7.14-2.99-7.14-7.37,0-4.06,2.9-7.34,6.9-7.34Zm-4.61,6.47h9.2c-.03-2.09-1.42-4.67-4.61-4.67-2.99,0-4.47,2.52-4.58,4.67Z"/><path class="cls-2" d="M200.11,171.6v-14.01h2.17v2.26c1.13-1.48,2.76-2.55,4.67-2.55v2.23c-.26-.06-.52-.09-.87-.09-1.33,0-3.16,1.1-3.8,2.23v9.92h-2.17Z"/><path class="cls-2" d="M215.77,157.24c4.24,0,6.73,3.31,6.73,7.51v.55h-11.34c.17,2.64,2.03,4.84,5.05,4.84,1.6,0,3.22-.64,4.32-1.77l1.04,1.42c-1.39,1.39-3.28,2.15-5.57,2.15-4.15,0-7.14-2.99-7.14-7.37,0-4.06,2.9-7.34,6.9-7.34Zm-4.61,6.47h9.2c-.03-2.09-1.42-4.67-4.61-4.67-2.99,0-4.47,2.52-4.58,4.67Z"/><path class="cls-2" d="M235.46,171.6v-9.17c0-2.47-1.25-3.25-3.13-3.25-1.71,0-3.34,1.04-4.15,2.18v10.24h-2.18v-14.01h2.18v2.03c.99-1.16,2.9-2.38,4.99-2.38,2.93,0,4.47,1.48,4.47,4.53v9.83h-2.17Z"/><path class="cls-2" d="M248.16,157.24c2.55,0,4.06,1.04,5.13,2.44l-1.45,1.33c-.93-1.28-2.12-1.83-3.57-1.83-2.99,0-4.84,2.29-4.84,5.4s1.86,5.42,4.84,5.42c1.45,0,2.64-.58,3.57-1.83l1.45,1.33c-1.07,1.39-2.58,2.44-5.13,2.44-4.18,0-6.99-3.19-6.99-7.37s2.81-7.34,6.99-7.34Z"/><path class="cls-2" d="M262.43,157.24c4.23,0,6.73,3.31,6.73,7.51v.55h-11.34c.17,2.64,2.03,4.84,5.05,4.84,1.6,0,3.22-.64,4.32-1.77l1.04,1.42c-1.39,1.39-3.28,2.15-5.57,2.15-4.15,0-7.14-2.99-7.14-7.37,0-4.06,2.9-7.34,6.9-7.34Zm-4.61,6.47h9.2c-.03-2.09-1.42-4.67-4.61-4.67-2.99,0-4.47,2.52-4.58,4.67Z"/><path class="cls-2" d="M272.57,168.18c.93,1.07,2.7,2,4.61,2,2.15,0,3.31-.96,3.31-2.32,0-1.54-1.71-2.03-3.6-2.5-2.38-.55-5.08-1.19-5.08-4.09,0-2.18,1.89-4.03,5.22-4.03,2.38,0,4.06,.9,5.19,2.03l-1.02,1.51c-.84-1.02-2.38-1.77-4.18-1.77-1.92,0-3.1,.87-3.1,2.12,0,1.36,1.6,1.8,3.42,2.23,2.44,.55,5.25,1.25,5.25,4.35,0,2.35-1.89,4.24-5.51,4.24-2.29,0-4.23-.7-5.66-2.21l1.13-1.57Z"/><path class="cls-2" d="M302.39,171.6v-1.59c-1.16,1.28-2.76,1.94-4.64,1.94-2.38,0-4.9-1.6-4.9-4.64s2.52-4.61,4.9-4.61c1.92,0,3.51,.61,4.64,1.92v-2.52c0-1.88-1.51-2.96-3.54-2.96-1.68,0-3.05,.61-4.29,1.94l-1.02-1.51c1.51-1.57,3.31-2.32,5.6-2.32,2.96,0,5.42,1.33,5.42,4.73v9.63h-2.18Zm0-5.6c-.84-1.16-2.32-1.74-3.86-1.74-2.03,0-3.45,1.28-3.45,3.08s1.42,3.05,3.45,3.05c1.54,0,3.02-.58,3.86-1.74v-2.64Z"/><path class="cls-2" d="M318.37,171.6v-9.17c0-2.47-1.25-3.25-3.13-3.25-1.71,0-3.34,1.04-4.15,2.18v10.24h-2.18v-14.01h2.18v2.03c.99-1.16,2.9-2.38,4.99-2.38,2.93,0,4.47,1.48,4.47,4.53v9.83h-2.18Z"/><path class="cls-2" d="M335.04,171.6v-2.09c-1.04,1.42-2.76,2.44-4.73,2.44-3.66,0-6.24-2.79-6.24-7.34s2.55-7.37,6.24-7.37c1.89,0,3.6,.93,4.73,2.47v-7.46h2.17v19.35h-2.17Zm0-10.15c-.78-1.22-2.47-2.26-4.21-2.26-2.81,0-4.5,2.32-4.5,5.42s1.68,5.4,4.5,5.4c1.74,0,3.42-.99,4.21-2.21v-6.35Z"/><path class="cls-2" d="M348.23,164.58c0-4.06,2.67-7.34,6.93-7.34s6.93,3.28,6.93,7.34-2.67,7.37-6.93,7.37-6.93-3.31-6.93-7.37Zm11.57,0c0-2.84-1.65-5.4-4.64-5.4s-4.67,2.55-4.67,5.4,1.68,5.42,4.67,5.42,4.64-2.55,4.64-5.42Z"/><path class="cls-2" d="M366.07,168.67v-9.17h-2.32v-1.91h2.32v-3.83h2.18v3.83h2.84v1.91h-2.84v8.7c0,1.04,.46,1.8,1.42,1.8,.61,0,1.19-.26,1.48-.58l.64,1.62c-.55,.52-1.33,.9-2.61,.9-2.06,0-3.1-1.19-3.1-3.28Z"/><path class="cls-2" d="M383.65,171.6v-9.22c0-2.47-1.28-3.19-3.16-3.19-1.68,0-3.31,1.04-4.15,2.18v10.24h-2.18v-19.35h2.18v7.37c.99-1.16,2.9-2.38,5.02-2.38,2.93,0,4.47,1.42,4.47,4.47v9.89h-2.18Z"/><path class="cls-2" d="M396.26,157.24c4.23,0,6.73,3.31,6.73,7.51v.55h-11.34c.17,2.64,2.03,4.84,5.05,4.84,1.6,0,3.22-.64,4.32-1.77l1.04,1.42c-1.39,1.39-3.28,2.15-5.57,2.15-4.15,0-7.14-2.99-7.14-7.37,0-4.06,2.9-7.34,6.9-7.34Zm-4.61,6.47h9.2c-.03-2.09-1.42-4.67-4.61-4.67-2.99,0-4.47,2.52-4.58,4.67Z"/><path class="cls-2" d="M406.49,171.6v-14.01h2.18v2.26c1.13-1.48,2.76-2.55,4.67-2.55v2.23c-.26-.06-.52-.09-.87-.09-1.33,0-3.16,1.1-3.8,2.23v9.92h-2.18Z"/><path class="cls-2" d="M423.46,168.18c.93,1.07,2.7,2,4.61,2,2.15,0,3.31-.96,3.31-2.32,0-1.54-1.71-2.03-3.6-2.5-2.38-.55-5.08-1.19-5.08-4.09,0-2.18,1.88-4.03,5.22-4.03,2.38,0,4.06,.9,5.19,2.03l-1.01,1.51c-.84-1.02-2.38-1.77-4.18-1.77-1.91,0-3.1,.87-3.1,2.12,0,1.36,1.6,1.8,3.42,2.23,2.44,.55,5.25,1.25,5.25,4.35,0,2.35-1.88,4.24-5.51,4.24-2.29,0-4.24-.7-5.66-2.21l1.13-1.57Z"/><path class="cls-2" d="M446.49,171.6v-1.97c-1.07,1.22-2.9,2.32-4.99,2.32-2.93,0-4.47-1.42-4.47-4.47v-9.89h2.18v9.22c0,2.47,1.25,3.19,3.13,3.19,1.71,0,3.34-.99,4.15-2.12v-10.3h2.18v14.01h-2.18Z"/><path class="cls-2" d="M455.19,176.94h-2.18v-19.35h2.18v2.09c1.02-1.42,2.76-2.44,4.73-2.44,3.68,0,6.24,2.79,6.24,7.34s-2.55,7.37-6.24,7.37c-1.92,0-3.6-.9-4.73-2.47v7.45Zm4.18-17.75c-1.71,0-3.42,1.02-4.18,2.23v6.32c.75,1.22,2.47,2.26,4.18,2.26,2.81,0,4.5-2.32,4.5-5.42s-1.68-5.4-4.5-5.4Z"/><path class="cls-2" d="M471.83,176.94h-2.18v-19.35h2.18v2.09c1.02-1.42,2.76-2.44,4.73-2.44,3.68,0,6.24,2.79,6.24,7.34s-2.55,7.37-6.24,7.37c-1.92,0-3.6-.9-4.73-2.47v7.45Zm4.18-17.75c-1.71,0-3.42,1.02-4.18,2.23v6.32c.75,1.22,2.47,2.26,4.18,2.26,2.81,0,4.5-2.32,4.5-5.42s-1.68-5.4-4.5-5.4Z"/><path class="cls-2" d="M486.3,171.6v-19.35h2.17v19.35h-2.17Z"/><path class="cls-2" d="M498.92,157.24c4.23,0,6.73,3.31,6.73,7.51v.55h-11.34c.17,2.64,2.03,4.84,5.05,4.84,1.6,0,3.22-.64,4.32-1.77l1.04,1.42c-1.39,1.39-3.28,2.15-5.57,2.15-4.15,0-7.14-2.99-7.14-7.37,0-4.06,2.9-7.34,6.9-7.34Zm-4.61,6.47h9.2c-.03-2.09-1.42-4.67-4.61-4.67-2.99,0-4.47,2.52-4.58,4.67Z"/><path class="cls-2" d="M526.06,171.6v-9.51c0-1.77-.78-2.9-2.58-2.9-1.45,0-2.99,1.04-3.71,2.15v10.27h-2.18v-9.51c0-1.77-.75-2.9-2.58-2.9-1.42,0-2.93,1.04-3.68,2.18v10.24h-2.18v-14.01h2.18v2.03c.58-.9,2.47-2.38,4.53-2.38s3.37,1.16,3.77,2.61c.78-1.28,2.67-2.61,4.7-2.61,2.55,0,3.92,1.42,3.92,4.24v10.12h-2.18Z"/><path class="cls-2" d="M538.68,157.24c4.24,0,6.73,3.31,6.73,7.51v.55h-11.34c.17,2.64,2.03,4.84,5.05,4.84,1.6,0,3.22-.64,4.32-1.77l1.04,1.42c-1.39,1.39-3.28,2.15-5.57,2.15-4.15,0-7.14-2.99-7.14-7.37,0-4.06,2.9-7.34,6.9-7.34Zm-4.61,6.47h9.2c-.03-2.09-1.42-4.67-4.61-4.67-2.99,0-4.47,2.52-4.58,4.67Z"/><path class="cls-2" d="M558.37,171.6v-9.17c0-2.47-1.25-3.25-3.13-3.25-1.71,0-3.34,1.04-4.15,2.18v10.24h-2.18v-14.01h2.18v2.03c.99-1.16,2.9-2.38,4.99-2.38,2.93,0,4.47,1.48,4.47,4.53v9.83h-2.17Z"/><path class="cls-2" d="M565.33,168.67v-9.17h-2.32v-1.91h2.32v-3.83h2.18v3.83h2.84v1.91h-2.84v8.7c0,1.04,.46,1.8,1.42,1.8,.61,0,1.19-.26,1.48-.58l.64,1.62c-.55,.52-1.33,.9-2.61,.9-2.06,0-3.1-1.19-3.1-3.28Z"/><path class="cls-2" d="M582.18,171.6v-1.59c-1.16,1.28-2.75,1.94-4.64,1.94-2.38,0-4.9-1.6-4.9-4.64s2.52-4.61,4.9-4.61c1.91,0,3.51,.61,4.64,1.92v-2.52c0-1.88-1.51-2.96-3.54-2.96-1.68,0-3.05,.61-4.29,1.94l-1.02-1.51c1.51-1.57,3.31-2.32,5.6-2.32,2.96,0,5.42,1.33,5.42,4.73v9.63h-2.18Zm0-5.6c-.84-1.16-2.32-1.74-3.86-1.74-2.03,0-3.45,1.28-3.45,3.08s1.42,3.05,3.45,3.05c1.54,0,3.02-.58,3.86-1.74v-2.64Z"/><path class="cls-2" d="M588.7,171.6v-14.01h2.18v2.26c1.13-1.48,2.75-2.55,4.67-2.55v2.23c-.26-.06-.52-.09-.87-.09-1.33,0-3.16,1.1-3.8,2.23v9.92h-2.18Z"/><path class="cls-2" d="M597.83,175.11c.32,.15,.84,.23,1.19,.23,.96,0,1.6-.32,2.09-1.48l.93-2.12-5.86-14.16h2.35l4.67,11.49,4.64-11.49h2.38l-7.02,16.85c-.84,2.03-2.26,2.81-4.12,2.84-.46,0-1.19-.09-1.6-.2l.35-1.97Z"/><path class="cls-2" d="M636.87,171.6v-9.51c0-1.77-.78-2.9-2.58-2.9-1.45,0-2.99,1.04-3.71,2.15v10.27h-2.18v-9.51c0-1.77-.75-2.9-2.58-2.9-1.42,0-2.93,1.04-3.68,2.18v10.24h-2.18v-14.01h2.18v2.03c.58-.9,2.47-2.38,4.53-2.38s3.36,1.16,3.77,2.61c.78-1.28,2.67-2.61,4.7-2.61,2.55,0,3.92,1.42,3.92,4.24v10.12h-2.18Z"/><path class="cls-2" d="M652.15,171.6v-1.59c-1.16,1.28-2.76,1.94-4.64,1.94-2.38,0-4.9-1.6-4.9-4.64s2.52-4.61,4.9-4.61c1.91,0,3.51,.61,4.64,1.92v-2.52c0-1.88-1.51-2.96-3.54-2.96-1.68,0-3.05,.61-4.29,1.94l-1.02-1.51c1.51-1.57,3.31-2.32,5.6-2.32,2.96,0,5.42,1.33,5.42,4.73v9.63h-2.18Zm0-5.6c-.84-1.16-2.32-1.74-3.86-1.74-2.03,0-3.45,1.28-3.45,3.08s1.42,3.05,3.45,3.05c1.54,0,3.02-.58,3.86-1.74v-2.64Z"/><path class="cls-2" d="M659.11,168.67v-9.17h-2.32v-1.91h2.32v-3.83h2.17v3.83h2.84v1.91h-2.84v8.7c0,1.04,.46,1.8,1.42,1.8,.61,0,1.19-.26,1.48-.58l.64,1.62c-.55,.52-1.33,.9-2.61,.9-2.06,0-3.1-1.19-3.1-3.28Z"/><path class="cls-2" d="M673.29,157.24c4.24,0,6.73,3.31,6.73,7.51v.55h-11.34c.17,2.64,2.03,4.84,5.05,4.84,1.59,0,3.22-.64,4.32-1.77l1.04,1.42c-1.39,1.39-3.28,2.15-5.57,2.15-4.15,0-7.14-2.99-7.14-7.37,0-4.06,2.9-7.34,6.9-7.34Zm-4.61,6.47h9.2c-.03-2.09-1.42-4.67-4.61-4.67-2.99,0-4.47,2.52-4.58,4.67Z"/><path class="cls-2" d="M683.53,171.6v-14.01h2.18v2.26c1.13-1.48,2.76-2.55,4.67-2.55v2.23c-.26-.06-.52-.09-.87-.09-1.33,0-3.16,1.1-3.8,2.23v9.92h-2.18Z"/><path class="cls-2" d="M692.72,153.76c0-.81,.67-1.45,1.45-1.45s1.48,.64,1.48,1.45-.67,1.48-1.48,1.48-1.45-.67-1.45-1.48Zm.38,17.84v-14.01h2.18v14.01h-2.18Z"/><path class="cls-2" d="M708.38,171.6v-1.59c-1.16,1.28-2.76,1.94-4.64,1.94-2.38,0-4.9-1.6-4.9-4.64s2.52-4.61,4.9-4.61c1.91,0,3.51,.61,4.64,1.92v-2.52c0-1.88-1.51-2.96-3.54-2.96-1.68,0-3.05,.61-4.29,1.94l-1.01-1.51c1.51-1.57,3.31-2.32,5.6-2.32,2.96,0,5.42,1.33,5.42,4.73v9.63h-2.18Zm0-5.6c-.84-1.16-2.32-1.74-3.86-1.74-2.03,0-3.45,1.28-3.45,3.08s1.42,3.05,3.45,3.05c1.54,0,3.02-.58,3.86-1.74v-2.64Z"/><path class="cls-2" d="M714.9,171.6v-19.35h2.18v19.35h-2.18Z"/><path class="cls-2" d="M738.4,171.6v-9.22c0-2.47-1.28-3.19-3.16-3.19-1.68,0-3.31,1.04-4.15,2.18v10.24h-2.18v-19.35h2.18v7.37c.99-1.16,2.9-2.38,5.02-2.38,2.93,0,4.47,1.42,4.47,4.47v9.89h-2.18Z"/><path class="cls-2" d="M751.01,157.24c4.23,0,6.73,3.31,6.73,7.51v.55h-11.34c.17,2.64,2.03,4.84,5.05,4.84,1.6,0,3.22-.64,4.32-1.77l1.04,1.42c-1.39,1.39-3.28,2.15-5.57,2.15-4.15,0-7.14-2.99-7.14-7.37,0-4.06,2.9-7.34,6.9-7.34Zm-4.61,6.47h9.2c-.03-2.09-1.42-4.67-4.61-4.67-2.99,0-4.47,2.52-4.58,4.67Z"/><path class="cls-2" d="M761.25,171.6v-14.01h2.17v2.26c1.13-1.48,2.76-2.55,4.67-2.55v2.23c-.26-.06-.52-.09-.87-.09-1.33,0-3.16,1.1-3.8,2.23v9.92h-2.17Z"/><path class="cls-2" d="M776.91,157.24c4.24,0,6.73,3.31,6.73,7.51v.55h-11.34c.17,2.64,2.03,4.84,5.05,4.84,1.6,0,3.22-.64,4.32-1.77l1.04,1.42c-1.39,1.39-3.28,2.15-5.57,2.15-4.15,0-7.14-2.99-7.14-7.37,0-4.06,2.9-7.34,6.9-7.34Zm-4.61,6.47h9.2c-.03-2.09-1.42-4.67-4.61-4.67-2.99,0-4.47,2.52-4.58,4.67Z"/><path class="cls-2" d="M788.1,168.7c.87,0,1.6,.73,1.6,1.59s-.73,1.6-1.6,1.6-1.6-.72-1.6-1.6,.73-1.59,1.6-1.59Z"/></g><g><path class="cls-1" d="M95.25,118.79h-20.16c-1.39,0-2.52,1.13-2.52,2.52s1.13,2.52,2.52,2.52h20.16c1.39,0,2.52-1.13,2.52-2.52s-1.13-2.52-2.52-2.52Z"/><path class="cls-1" d="M95.25,128.86h-20.16c-1.39,0-2.52,1.13-2.52,2.52s1.13,2.52,2.52,2.52h20.16c1.39,0,2.52-1.13,2.52-2.52s-1.13-2.52-2.52-2.52Z"/><path class="cls-1" d="M95.25,138.94H54.93c-1.39,0-2.52,1.13-2.52,2.52s1.13,2.52,2.52,2.52h40.31c1.39,0,2.52-1.13,2.52-2.52s-1.13-2.52-2.52-2.52Z"/><path class="cls-1" d="M86.11,149.02h-31.18c-1.39,0-2.52,1.13-2.52,2.52s1.13,2.52,2.52,2.52h31.18c1.39,0,2.52-1.13,2.52-2.52s-1.13-2.52-2.52-2.52Z"/><path class="cls-1" d="M108.01,149.02v-37.96c0-4.18-3.54-7.56-7.73-7.56h-35.27c-.64,0-1.3,.25-1.79,.75l-20.16,20.32c-.46,.47-.73,1.12-.73,1.77v55.6c0,4.17,3.39,7.56,7.56,7.56,5.32,0,7.08,0,7.07,0h51.04c11.13,0,20.32-9.16,20.32-20.32s-9.12-20.16-20.32-20.16Zm-45.52-36.88v11.69h-11.59l11.59-11.69Zm-12.6,72.32c-1.39,0-2.52-1.13-2.52-2.52v-53.08h17.64c1.39,0,2.52-1.13,2.52-2.52v-17.8h32.75c1.43,0,2.69,1.18,2.69,2.52v38.59c-5.35,1.36-9.85,4.82-12.56,9.45H54.93c-1.39,0-2.52,1.13-2.52,2.52s1.13,2.52,2.52,2.52h33.4c-.42,1.61-.64,3.3-.64,5.04H54.93c-1.39,0-2.52,1.13-2.52,2.52s1.13,2.52,2.52,2.52h33.39c1.02,3.94,3.22,7.49,6.36,10.25H49.89Zm58.12,0c-8.29,0-15.29-7-15.29-15.29s6.86-15.12,15.29-15.12,15.29,6.78,15.29,15.12-7,15.29-15.29,15.29Z"/><path class="cls-1" d="M117.53,164.89c-.98-.99-2.57-1.01-3.56-.03l-8.49,8.35-3.44-3.33c-1-.97-2.59-.94-3.56,.06-.97,1-.94,2.59,.06,3.56l5.21,5.04c.98,.95,2.54,.94,3.52-.01l10.25-10.08c.99-.98,1.01-2.57,.03-3.56Z"/></g></g></svg>