<?xml version="1.0" encoding="UTF-8"?><svg id="Capa_2" xmlns="http://www.w3.org/2000/svg" viewBox="0 0 934 282"><defs><style>.cls-1{fill:#1b5f99;}.cls-2{fill:#5d5d62;}.cls-3{fill:#fff;opacity:.85;stroke:#1b5f99;stroke-miterlimit:10;stroke-width:3px;}</style></defs><g id="Capa_1-2"><rect class="cls-3" x="1.5" y="1.5" width="931" height="279" rx="20" ry="20"/><g><path class="cls-2" d="M193.07,101.8v-17.2h-6.12v-2.15h14.68v2.15h-6.15v17.2h-2.41Z"/><path class="cls-2" d="M200.29,94.78c0-4.06,2.67-7.34,6.93-7.34s6.93,3.28,6.93,7.34-2.67,7.37-6.93,7.37-6.93-3.31-6.93-7.37Zm11.57,0c0-2.84-1.65-5.4-4.64-5.4s-4.67,2.55-4.67,5.4,1.68,5.42,4.67,5.42,4.64-2.55,4.64-5.42Z"/><path class="cls-2" d="M225.03,98.87v-9.17h-2.32v-1.92h2.32v-3.83h2.17v3.83h2.84v1.92h-2.84v8.7c0,1.04,.46,1.8,1.42,1.8,.61,0,1.19-.26,1.48-.58l.64,1.62c-.55,.52-1.33,.9-2.61,.9-2.06,0-3.1-1.19-3.1-3.28Z"/><path class="cls-2" d="M241.59,101.8v-1.6c-1.16,1.28-2.76,1.94-4.64,1.94-2.38,0-4.9-1.6-4.9-4.64s2.52-4.61,4.9-4.61c1.92,0,3.51,.61,4.64,1.91v-2.52c0-1.88-1.51-2.96-3.54-2.96-1.68,0-3.05,.61-4.29,1.94l-1.02-1.51c1.51-1.57,3.31-2.32,5.6-2.32,2.96,0,5.42,1.33,5.42,4.73v9.63h-2.18Zm0-5.6c-.84-1.16-2.32-1.74-3.86-1.74-2.03,0-3.45,1.28-3.45,3.08s1.42,3.05,3.45,3.05c1.54,0,3.02-.58,3.86-1.74v-2.64Z"/><path class="cls-2" d="M257.36,101.8l-5.05-6.29-2.32,2.29v4h-2.18v-19.35h2.18v12.79l7.37-7.46h2.76l-6.21,6.35,6.24,7.66h-2.79Z"/><path class="cls-2" d="M267.86,87.44c4.23,0,6.73,3.31,6.73,7.51v.55h-11.34c.17,2.64,2.03,4.84,5.05,4.84,1.6,0,3.22-.64,4.32-1.77l1.04,1.42c-1.39,1.39-3.28,2.15-5.57,2.15-4.15,0-7.14-2.99-7.14-7.37,0-4.06,2.9-7.34,6.9-7.34Zm-4.61,6.47h9.2c-.03-2.09-1.42-4.67-4.61-4.67-2.99,0-4.47,2.52-4.58,4.67Z"/><path class="cls-2" d="M287.78,89.71v12.1h-2.18v-12.1h-2.32v-1.92h2.32v-1.07c0-2.9,1.62-4.55,4.06-4.55,.81,0,1.57,.14,2.12,.49l-.55,1.62c-.35-.2-.75-.32-1.25-.32-1.42,0-2.2,.99-2.2,2.76v1.07h2.84v1.92h-2.84Z"/><path class="cls-2" d="M302.37,101.8v-1.97c-1.07,1.22-2.9,2.32-4.99,2.32-2.93,0-4.47-1.42-4.47-4.47v-9.89h2.17v9.22c0,2.47,1.25,3.19,3.13,3.19,1.71,0,3.34-.99,4.15-2.12v-10.3h2.18v14.01h-2.18Z"/><path class="cls-2" d="M308.6,101.8v-19.35h2.18v19.35h-2.18Z"/><path class="cls-2" d="M314.84,101.8v-19.35h2.18v19.35h-2.18Z"/><path class="cls-2" d="M337.03,101.8v-1.6c-1.16,1.28-2.76,1.94-4.64,1.94-2.38,0-4.9-1.6-4.9-4.64s2.52-4.61,4.9-4.61c1.92,0,3.51,.61,4.64,1.91v-2.52c0-1.88-1.51-2.96-3.54-2.96-1.68,0-3.05,.61-4.29,1.94l-1.02-1.51c1.51-1.57,3.31-2.32,5.6-2.32,2.96,0,5.42,1.33,5.42,4.73v9.63h-2.18Zm0-5.6c-.84-1.16-2.32-1.74-3.86-1.74-2.03,0-3.45,1.28-3.45,3.08s1.42,3.05,3.45,3.05c1.54,0,3.02-.58,3.86-1.74v-2.64Z"/><path class="cls-2" d="M353.41,101.8v-2.09c-1.04,1.42-2.76,2.44-4.73,2.44-3.65,0-6.24-2.79-6.24-7.34s2.55-7.37,6.24-7.37c1.89,0,3.6,.93,4.73,2.47v-7.46h2.18v19.35h-2.18Zm0-10.15c-.78-1.22-2.47-2.26-4.21-2.26-2.81,0-4.5,2.32-4.5,5.42s1.68,5.4,4.5,5.4c1.74,0,3.42-.99,4.21-2.2v-6.35Z"/><path class="cls-2" d="M363.38,101.8l-5.83-14.01h2.35l4.67,11.49,4.64-11.49h2.38l-5.83,14.01h-2.38Z"/><path class="cls-2" d="M382.32,101.8v-1.6c-1.16,1.28-2.76,1.94-4.64,1.94-2.38,0-4.9-1.6-4.9-4.64s2.52-4.61,4.9-4.61c1.91,0,3.51,.61,4.64,1.91v-2.52c0-1.88-1.51-2.96-3.54-2.96-1.68,0-3.04,.61-4.29,1.94l-1.01-1.51c1.51-1.57,3.31-2.32,5.6-2.32,2.96,0,5.42,1.33,5.42,4.73v9.63h-2.18Zm0-5.6c-.84-1.16-2.32-1.74-3.86-1.74-2.03,0-3.45,1.28-3.45,3.08s1.42,3.05,3.45,3.05c1.54,0,3.02-.58,3.86-1.74v-2.64Z"/><path class="cls-2" d="M398.01,101.8v-9.17c0-2.47-1.25-3.25-3.13-3.25-1.71,0-3.34,1.04-4.15,2.18v10.24h-2.17v-14.01h2.17v2.03c.99-1.16,2.9-2.38,4.99-2.38,2.93,0,4.47,1.48,4.47,4.53v9.83h-2.18Z"/><path class="cls-2" d="M404.68,98.87v-9.17h-2.32v-1.92h2.32v-3.83h2.17v3.83h2.84v1.92h-2.84v8.7c0,1.04,.46,1.8,1.42,1.8,.61,0,1.19-.26,1.48-.58l.64,1.62c-.55,.52-1.33,.9-2.61,.9-2.06,0-3.1-1.19-3.1-3.28Z"/><path class="cls-2" d="M421.24,101.8v-1.6c-1.16,1.28-2.76,1.94-4.64,1.94-2.38,0-4.9-1.6-4.9-4.64s2.52-4.61,4.9-4.61c1.92,0,3.51,.61,4.64,1.91v-2.52c0-1.88-1.51-2.96-3.54-2.96-1.68,0-3.05,.61-4.29,1.94l-1.02-1.51c1.51-1.57,3.31-2.32,5.6-2.32,2.96,0,5.42,1.33,5.42,4.73v9.63h-2.18Zm0-5.6c-.84-1.16-2.32-1.74-3.86-1.74-2.03,0-3.45,1.28-3.45,3.08s1.42,3.05,3.45,3.05c1.54,0,3.02-.58,3.86-1.74v-2.64Z"/><path class="cls-2" d="M428.55,103.78c1.16,1.39,2.55,1.91,4.55,1.91,2.32,0,4.5-1.13,4.5-4.21v-2c-1.01,1.42-2.73,2.49-4.7,2.49-3.66,0-6.24-2.73-6.24-7.25s2.55-7.28,6.24-7.28c1.88,0,3.57,.93,4.7,2.47v-2.12h2.18v13.6c0,4.64-3.25,6.09-6.67,6.09-2.38,0-4-.46-5.66-2.09l1.1-1.62Zm9.05-12.12c-.75-1.22-2.44-2.26-4.18-2.26-2.81,0-4.5,2.23-4.5,5.34s1.68,5.34,4.5,5.34c1.74,0,3.42-1.07,4.18-2.29v-6.12Z"/><path class="cls-2" d="M449.92,87.44c4.24,0,6.73,3.31,6.73,7.51v.55h-11.34c.17,2.64,2.03,4.84,5.05,4.84,1.59,0,3.22-.64,4.32-1.77l1.04,1.42c-1.39,1.39-3.28,2.15-5.57,2.15-4.15,0-7.14-2.99-7.14-7.37,0-4.06,2.9-7.34,6.9-7.34Zm-4.61,6.47h9.2c-.03-2.09-1.42-4.67-4.61-4.67-2.99,0-4.47,2.52-4.58,4.67Z"/><path class="cls-2" d="M466.25,94.78c0-4.06,2.67-7.34,6.93-7.34s6.93,3.28,6.93,7.34-2.67,7.37-6.93,7.37-6.93-3.31-6.93-7.37Zm11.57,0c0-2.84-1.65-5.4-4.64-5.4s-4.67,2.55-4.67,5.4,1.68,5.42,4.67,5.42,4.64-2.55,4.64-5.42Z"/><path class="cls-2" d="M486.14,89.71v12.1h-2.18v-12.1h-2.32v-1.92h2.32v-1.07c0-2.9,1.62-4.55,4.06-4.55,.81,0,1.57,.14,2.12,.49l-.55,1.62c-.35-.2-.75-.32-1.25-.32-1.42,0-2.2,.99-2.2,2.76v1.07h2.84v1.92h-2.84Z"/><path class="cls-2" d="M507.22,101.8v-1.6c-1.16,1.28-2.76,1.94-4.64,1.94-2.38,0-4.9-1.6-4.9-4.64s2.52-4.61,4.9-4.61c1.92,0,3.51,.61,4.64,1.91v-2.52c0-1.88-1.51-2.96-3.54-2.96-1.68,0-3.05,.61-4.29,1.94l-1.01-1.51c1.51-1.57,3.31-2.32,5.6-2.32,2.96,0,5.42,1.33,5.42,4.73v9.63h-2.18Zm0-5.6c-.84-1.16-2.32-1.74-3.86-1.74-2.03,0-3.45,1.28-3.45,3.08s1.42,3.05,3.45,3.05c1.54,0,3.02-.58,3.86-1.74v-2.64Z"/><path class="cls-2" d="M513.46,101.8v-19.35h2.18v19.35h-2.18Z"/><path class="cls-2" d="M519.69,101.8v-19.35h2.18v19.35h-2.18Z"/><path class="cls-2" d="M533.55,98.87v-9.17h-2.32v-1.92h2.32v-3.83h2.18v3.83h2.84v1.92h-2.84v8.7c0,1.04,.46,1.8,1.42,1.8,.61,0,1.19-.26,1.48-.58l.64,1.62c-.55,.52-1.33,.9-2.61,.9-2.06,0-3.1-1.19-3.1-3.28Z"/><path class="cls-2" d="M550.84,101.8v-9.22c0-2.47-1.28-3.19-3.16-3.19-1.68,0-3.31,1.04-4.15,2.18v10.24h-2.18v-19.35h2.18v7.37c.99-1.16,2.9-2.38,5.02-2.38,2.93,0,4.47,1.42,4.47,4.47v9.89h-2.18Z"/><path class="cls-2" d="M563.16,87.44c4.24,0,6.73,3.31,6.73,7.51v.55h-11.34c.17,2.64,2.03,4.84,5.05,4.84,1.6,0,3.22-.64,4.32-1.77l1.04,1.42c-1.39,1.39-3.28,2.15-5.57,2.15-4.15,0-7.14-2.99-7.14-7.37,0-4.06,2.9-7.34,6.9-7.34Zm-4.61,6.47h9.2c-.03-2.09-1.42-4.67-4.61-4.67-2.99,0-4.47,2.52-4.58,4.67Z"/><path class="cls-2" d="M580.3,101.8v-14.01h2.17v2.26c1.13-1.48,2.76-2.55,4.67-2.55v2.23c-.26-.06-.52-.09-.87-.09-1.33,0-3.16,1.1-3.8,2.23v9.92h-2.17Z"/><path class="cls-2" d="M595.67,87.44c4.23,0,6.73,3.31,6.73,7.51v.55h-11.34c.17,2.64,2.03,4.84,5.05,4.84,1.6,0,3.22-.64,4.32-1.77l1.04,1.42c-1.39,1.39-3.28,2.15-5.57,2.15-4.15,0-7.14-2.99-7.14-7.37,0-4.06,2.9-7.34,6.9-7.34Zm-4.61,6.47h9.2c-.03-2.09-1.42-4.67-4.61-4.67-2.99,0-4.47,2.52-4.58,4.67Z"/><path class="cls-2" d="M605.53,98.38c.93,1.07,2.7,2,4.61,2,2.15,0,3.31-.96,3.31-2.32,0-1.54-1.71-2.03-3.6-2.49-2.38-.55-5.08-1.19-5.08-4.09,0-2.18,1.89-4.03,5.22-4.03,2.38,0,4.06,.9,5.19,2.03l-1.01,1.51c-.84-1.02-2.38-1.77-4.18-1.77-1.92,0-3.1,.87-3.1,2.12,0,1.36,1.6,1.8,3.42,2.23,2.44,.55,5.25,1.25,5.25,4.35,0,2.35-1.89,4.24-5.51,4.24-2.29,0-4.24-.7-5.66-2.21l1.13-1.57Z"/><path class="cls-2" d="M618,94.78c0-4.06,2.67-7.34,6.93-7.34s6.93,3.28,6.93,7.34-2.67,7.37-6.93,7.37-6.93-3.31-6.93-7.37Zm11.57,0c0-2.84-1.65-5.4-4.64-5.4s-4.67,2.55-4.67,5.4,1.68,5.42,4.67,5.42,4.64-2.55,4.64-5.42Z"/><path class="cls-2" d="M644.56,101.8v-1.97c-1.07,1.22-2.9,2.32-4.99,2.32-2.93,0-4.47-1.42-4.47-4.47v-9.89h2.18v9.22c0,2.47,1.25,3.19,3.13,3.19,1.71,0,3.33-.99,4.15-2.12v-10.3h2.18v14.01h-2.18Z"/><path class="cls-2" d="M650.8,101.8v-14.01h2.18v2.26c1.13-1.48,2.76-2.55,4.67-2.55v2.23c-.26-.06-.52-.09-.87-.09-1.33,0-3.16,1.1-3.8,2.23v9.92h-2.18Z"/><path class="cls-2" d="M666.26,87.44c2.55,0,4.06,1.04,5.13,2.44l-1.45,1.33c-.93-1.28-2.12-1.83-3.57-1.83-2.99,0-4.84,2.29-4.84,5.4s1.86,5.42,4.84,5.42c1.45,0,2.64-.58,3.57-1.83l1.45,1.33c-1.07,1.39-2.58,2.44-5.13,2.44-4.18,0-6.99-3.19-6.99-7.37s2.81-7.34,6.99-7.34Z"/><path class="cls-2" d="M680.23,87.44c4.23,0,6.73,3.31,6.73,7.51v.55h-11.34c.17,2.64,2.03,4.84,5.05,4.84,1.6,0,3.22-.64,4.32-1.77l1.04,1.42c-1.39,1.39-3.28,2.15-5.57,2.15-4.15,0-7.14-2.99-7.14-7.37,0-4.06,2.9-7.34,6.9-7.34Zm-4.61,6.47h9.2c-.03-2.09-1.42-4.67-4.61-4.67-2.99,0-4.47,2.52-4.58,4.67Z"/><path class="cls-2" d="M690.09,98.38c.93,1.07,2.7,2,4.61,2,2.15,0,3.31-.96,3.31-2.32,0-1.54-1.71-2.03-3.6-2.49-2.38-.55-5.08-1.19-5.08-4.09,0-2.18,1.89-4.03,5.22-4.03,2.38,0,4.06,.9,5.19,2.03l-1.02,1.51c-.84-1.02-2.38-1.77-4.18-1.77-1.92,0-3.1,.87-3.1,2.12,0,1.36,1.59,1.8,3.42,2.23,2.44,.55,5.25,1.25,5.25,4.35,0,2.35-1.89,4.24-5.51,4.24-2.29,0-4.24-.7-5.66-2.21l1.13-1.57Z"/><path class="cls-2" d="M711,98.87v-9.17h-2.32v-1.92h2.32v-3.83h2.18v3.83h2.84v1.92h-2.84v8.7c0,1.04,.46,1.8,1.42,1.8,.61,0,1.19-.26,1.48-.58l.64,1.62c-.55,.52-1.33,.9-2.61,.9-2.06,0-3.1-1.19-3.1-3.28Z"/><path class="cls-2" d="M728.29,101.8v-9.22c0-2.47-1.28-3.19-3.16-3.19-1.68,0-3.31,1.04-4.15,2.18v10.24h-2.18v-19.35h2.18v7.37c.99-1.16,2.9-2.38,5.02-2.38,2.93,0,4.47,1.42,4.47,4.47v9.89h-2.18Z"/><path class="cls-2" d="M734.14,83.96c0-.81,.67-1.45,1.45-1.45s1.48,.64,1.48,1.45-.67,1.48-1.48,1.48-1.45-.67-1.45-1.48Zm.38,17.84v-14.01h2.18v14.01h-2.18Z"/><path class="cls-2" d="M740.67,98.38c.93,1.07,2.7,2,4.61,2,2.15,0,3.31-.96,3.31-2.32,0-1.54-1.71-2.03-3.6-2.49-2.38-.55-5.08-1.19-5.08-4.09,0-2.18,1.88-4.03,5.22-4.03,2.38,0,4.06,.9,5.19,2.03l-1.01,1.51c-.84-1.02-2.38-1.77-4.18-1.77-1.91,0-3.1,.87-3.1,2.12,0,1.36,1.6,1.8,3.42,2.23,2.44,.55,5.25,1.25,5.25,4.35,0,2.35-1.88,4.24-5.51,4.24-2.29,0-4.24-.7-5.66-2.21l1.13-1.57Z"/><path class="cls-2" d="M767.32,87.44c2.55,0,4.06,1.04,5.13,2.44l-1.45,1.33c-.93-1.28-2.12-1.83-3.57-1.83-2.99,0-4.84,2.29-4.84,5.4s1.86,5.42,4.84,5.42c1.45,0,2.64-.58,3.57-1.83l1.45,1.33c-1.07,1.39-2.58,2.44-5.13,2.44-4.18,0-6.99-3.19-6.99-7.37s2.81-7.34,6.99-7.34Z"/><path class="cls-2" d="M774.39,94.78c0-4.06,2.67-7.34,6.93-7.34s6.93,3.28,6.93,7.34-2.67,7.37-6.93,7.37-6.93-3.31-6.93-7.37Zm11.57,0c0-2.84-1.65-5.4-4.64-5.4s-4.67,2.55-4.67,5.4,1.68,5.42,4.67,5.42,4.64-2.55,4.64-5.42Z"/><path class="cls-2" d="M800.96,101.8v-1.97c-1.07,1.22-2.9,2.32-4.99,2.32-2.93,0-4.47-1.42-4.47-4.47v-9.89h2.18v9.22c0,2.47,1.25,3.19,3.13,3.19,1.71,0,3.34-.99,4.15-2.12v-10.3h2.18v14.01h-2.18Z"/><path class="cls-2" d="M807.19,101.8v-14.01h2.18v2.26c1.13-1.48,2.75-2.55,4.67-2.55v2.23c-.26-.06-.52-.09-.87-.09-1.33,0-3.16,1.1-3.8,2.23v9.92h-2.18Z"/><path class="cls-2" d="M816.38,98.38c.93,1.07,2.7,2,4.61,2,2.15,0,3.31-.96,3.31-2.32,0-1.54-1.71-2.03-3.6-2.49-2.38-.55-5.08-1.19-5.08-4.09,0-2.18,1.89-4.03,5.22-4.03,2.38,0,4.06,.9,5.19,2.03l-1.02,1.51c-.84-1.02-2.38-1.77-4.18-1.77-1.91,0-3.1,.87-3.1,2.12,0,1.36,1.59,1.8,3.42,2.23,2.44,.55,5.25,1.25,5.25,4.35,0,2.35-1.88,4.24-5.51,4.24-2.29,0-4.23-.7-5.66-2.21l1.13-1.57Z"/><path class="cls-2" d="M835.76,87.44c4.23,0,6.73,3.31,6.73,7.51v.55h-11.34c.17,2.64,2.03,4.84,5.05,4.84,1.59,0,3.22-.64,4.32-1.77l1.04,1.42c-1.39,1.39-3.28,2.15-5.57,2.15-4.15,0-7.14-2.99-7.14-7.37,0-4.06,2.9-7.34,6.9-7.34Zm-4.61,6.47h9.2c-.03-2.09-1.42-4.67-4.61-4.67-2.99,0-4.47,2.52-4.58,4.67Z"/><path class="cls-2" d="M187.38,129.58c0-4.06,2.67-7.34,6.93-7.34s6.93,3.28,6.93,7.34-2.67,7.37-6.93,7.37-6.93-3.31-6.93-7.37Zm11.57,0c0-2.84-1.65-5.4-4.64-5.4s-4.67,2.55-4.67,5.4,1.68,5.42,4.67,5.42,4.64-2.55,4.64-5.42Z"/><path class="cls-2" d="M205.1,136.6v-12.1h-2.32v-1.91h2.32v-1.07c0-2.9,1.62-4.55,4.06-4.55,.81,0,1.57,.15,2.12,.49l-.55,1.62c-.35-.2-.75-.32-1.25-.32-1.42,0-2.21,.99-2.21,2.75v1.07h2.84v1.91h-2.84v12.1h-2.17Zm8.21,0v-12.1h-2.32v-1.91h2.32v-1.07c0-2.9,1.62-4.55,4.06-4.55,.81,0,1.57,.15,2.12,.49l-.55,1.62c-.35-.2-.75-.32-1.25-.32-1.42,0-2.21,.99-2.21,2.75v1.07h2.84v1.91h-2.84v12.1h-2.17Z"/><path class="cls-2" d="M226.71,122.24c4.24,0,6.73,3.31,6.73,7.51v.55h-11.34c.17,2.64,2.03,4.84,5.05,4.84,1.6,0,3.22-.64,4.32-1.77l1.04,1.42c-1.39,1.39-3.28,2.15-5.57,2.15-4.15,0-7.14-2.99-7.14-7.37,0-4.06,2.9-7.34,6.9-7.34Zm-4.61,6.47h9.19c-.03-2.09-1.42-4.67-4.61-4.67-2.99,0-4.47,2.52-4.58,4.67Z"/><path class="cls-2" d="M236.66,136.6v-14.01h2.18v2.26c1.13-1.48,2.76-2.55,4.67-2.55v2.23c-.26-.06-.52-.09-.87-.09-1.33,0-3.16,1.1-3.8,2.23v9.92h-2.18Z"/><path class="cls-2" d="M245.85,133.18c.93,1.07,2.7,2,4.61,2,2.15,0,3.31-.96,3.31-2.32,0-1.54-1.71-2.03-3.6-2.49-2.38-.55-5.08-1.19-5.08-4.09,0-2.18,1.89-4.03,5.22-4.03,2.38,0,4.06,.9,5.19,2.03l-1.02,1.51c-.84-1.01-2.38-1.77-4.18-1.77-1.92,0-3.1,.87-3.1,2.12,0,1.36,1.6,1.8,3.42,2.23,2.44,.55,5.25,1.25,5.25,4.35,0,2.35-1.89,4.24-5.51,4.24-2.29,0-4.24-.7-5.66-2.21l1.13-1.57Z"/><path class="cls-2" d="M258.61,139.39c.93-.61,1.77-1.74,1.89-2.7-.06,.03-.26,.06-.41,.06-.81,0-1.39-.61-1.39-1.48s.67-1.57,1.54-1.57c.96,0,1.83,.81,1.83,2.21,0,1.77-1.04,3.42-2.38,4.38l-1.07-.9Z"/><path class="cls-2" d="M274.88,141.94h-2.18v-19.35h2.18v2.09c1.02-1.42,2.76-2.44,4.73-2.44,3.68,0,6.24,2.79,6.24,7.34s-2.55,7.37-6.24,7.37c-1.92,0-3.6-.9-4.73-2.47v7.46Zm4.18-17.75c-1.71,0-3.42,1.02-4.18,2.23v6.32c.75,1.22,2.47,2.26,4.18,2.26,2.81,0,4.5-2.32,4.5-5.42s-1.68-5.4-4.5-5.4Z"/><path class="cls-2" d="M289.06,136.6v-19.35h2.18v19.35h-2.18Z"/><path class="cls-2" d="M301.38,122.24c4.24,0,6.73,3.31,6.73,7.51v.55h-11.34c.17,2.64,2.03,4.84,5.05,4.84,1.6,0,3.22-.64,4.32-1.77l1.04,1.42c-1.39,1.39-3.28,2.15-5.57,2.15-4.15,0-7.13-2.99-7.13-7.37,0-4.06,2.9-7.34,6.9-7.34Zm-4.61,6.47h9.2c-.03-2.09-1.42-4.67-4.61-4.67-2.99,0-4.47,2.52-4.58,4.67Z"/><path class="cls-2" d="M320.09,136.6v-1.6c-1.16,1.28-2.76,1.94-4.64,1.94-2.38,0-4.9-1.6-4.9-4.64s2.52-4.61,4.9-4.61c1.91,0,3.51,.61,4.64,1.91v-2.52c0-1.89-1.51-2.96-3.54-2.96-1.68,0-3.05,.61-4.29,1.94l-1.01-1.51c1.51-1.57,3.31-2.32,5.6-2.32,2.96,0,5.42,1.33,5.42,4.73v9.63h-2.18Zm0-5.6c-.84-1.16-2.32-1.74-3.86-1.74-2.03,0-3.45,1.28-3.45,3.08s1.42,3.05,3.45,3.05c1.54,0,3.02-.58,3.86-1.74v-2.64Z"/><path class="cls-2" d="M326.23,133.18c.93,1.07,2.7,2,4.61,2,2.15,0,3.31-.96,3.31-2.32,0-1.54-1.71-2.03-3.6-2.49-2.38-.55-5.08-1.19-5.08-4.09,0-2.18,1.89-4.03,5.22-4.03,2.38,0,4.06,.9,5.19,2.03l-1.01,1.51c-.84-1.01-2.38-1.77-4.18-1.77-1.91,0-3.1,.87-3.1,2.12,0,1.36,1.6,1.8,3.42,2.23,2.44,.55,5.25,1.25,5.25,4.35,0,2.35-1.89,4.24-5.51,4.24-2.29,0-4.24-.7-5.66-2.21l1.13-1.57Z"/><path class="cls-2" d="M345.61,122.24c4.23,0,6.73,3.31,6.73,7.51v.55h-11.34c.17,2.64,2.03,4.84,5.05,4.84,1.6,0,3.22-.64,4.32-1.77l1.04,1.42c-1.39,1.39-3.28,2.15-5.57,2.15-4.15,0-7.14-2.99-7.14-7.37,0-4.06,2.9-7.34,6.9-7.34Zm-4.61,6.47h9.2c-.03-2.09-1.42-4.67-4.61-4.67-2.99,0-4.47,2.52-4.58,4.67Z"/><path class="cls-2" d="M365.53,124.51v12.1h-2.17v-12.1h-2.32v-1.91h2.32v-1.07c0-2.9,1.62-4.55,4.06-4.55,.81,0,1.57,.15,2.12,.49l-.55,1.62c-.35-.2-.75-.32-1.25-.32-1.42,0-2.21,.99-2.21,2.75v1.07h2.84v1.91h-2.84Z"/><path class="cls-2" d="M379.42,136.6v-1.6c-1.16,1.28-2.76,1.94-4.64,1.94-2.38,0-4.9-1.6-4.9-4.64s2.52-4.61,4.9-4.61c1.91,0,3.51,.61,4.64,1.91v-2.52c0-1.89-1.51-2.96-3.54-2.96-1.68,0-3.04,.61-4.29,1.94l-1.01-1.51c1.51-1.57,3.31-2.32,5.6-2.32,2.96,0,5.42,1.33,5.42,4.73v9.63h-2.18Zm0-5.6c-.84-1.16-2.32-1.74-3.86-1.74-2.03,0-3.45,1.28-3.45,3.08s1.42,3.05,3.45,3.05c1.54,0,3.02-.58,3.86-1.74v-2.64Z"/><path class="cls-2" d="M402.57,136.6v-9.51c0-1.77-.78-2.9-2.58-2.9-1.45,0-2.99,1.04-3.71,2.15v10.27h-2.18v-9.51c0-1.77-.75-2.9-2.58-2.9-1.42,0-2.93,1.04-3.68,2.18v10.24h-2.18v-14.01h2.18v2.03c.58-.9,2.47-2.38,4.53-2.38s3.36,1.16,3.77,2.61c.78-1.28,2.67-2.61,4.7-2.61,2.55,0,3.92,1.42,3.92,4.24v10.12h-2.18Z"/><path class="cls-2" d="M408.42,118.76c0-.81,.67-1.45,1.45-1.45s1.48,.64,1.48,1.45-.67,1.48-1.48,1.48-1.45-.67-1.45-1.48Zm.38,17.84v-14.01h2.18v14.01h-2.18Z"/><path class="cls-2" d="M415.03,136.6v-19.35h2.18v19.35h-2.18Z"/><path class="cls-2" d="M420.89,118.76c0-.81,.67-1.45,1.45-1.45s1.48,.64,1.48,1.45-.67,1.48-1.48,1.48-1.45-.67-1.45-1.48Zm.38,17.84v-14.01h2.17v14.01h-2.17Z"/><path class="cls-2" d="M436.26,136.6v-1.6c-1.16,1.28-2.75,1.94-4.64,1.94-2.38,0-4.9-1.6-4.9-4.64s2.52-4.61,4.9-4.61c1.91,0,3.51,.61,4.64,1.91v-2.52c0-1.89-1.51-2.96-3.54-2.96-1.68,0-3.05,.61-4.29,1.94l-1.02-1.51c1.51-1.57,3.31-2.32,5.6-2.32,2.96,0,5.42,1.33,5.42,4.73v9.63h-2.18Zm0-5.6c-.84-1.16-2.32-1.74-3.86-1.74-2.03,0-3.45,1.28-3.45,3.08s1.42,3.05,3.45,3.05c1.54,0,3.02-.58,3.86-1.74v-2.64Z"/><path class="cls-2" d="M442.49,136.6v-14.01h2.18v2.26c1.13-1.48,2.75-2.55,4.67-2.55v2.23c-.26-.06-.52-.09-.87-.09-1.33,0-3.16,1.1-3.8,2.23v9.92h-2.18Z"/><path class="cls-2" d="M451.4,118.76c0-.81,.67-1.45,1.45-1.45s1.48,.64,1.48,1.45-.67,1.48-1.48,1.48-1.45-.67-1.45-1.48Zm.38,17.84v-14.01h2.18v14.01h-2.18Z"/><path class="cls-2" d="M457.34,136.6v-1.68l7.72-10.41h-7.72v-1.91h10.56v1.65l-7.77,10.47h7.89v1.88h-10.67Z"/><path class="cls-2" d="M477.5,122.24c4.24,0,6.73,3.31,6.73,7.51v.55h-11.34c.17,2.64,2.03,4.84,5.05,4.84,1.59,0,3.22-.64,4.32-1.77l1.04,1.42c-1.39,1.39-3.28,2.15-5.57,2.15-4.15,0-7.14-2.99-7.14-7.37,0-4.06,2.9-7.34,6.9-7.34Zm-4.61,6.47h9.2c-.03-2.09-1.42-4.67-4.61-4.67-2.99,0-4.47,2.52-4.58,4.67Z"/><path class="cls-2" d="M494.2,140.11c.32,.15,.84,.23,1.19,.23,.96,0,1.6-.32,2.09-1.48l.93-2.12-5.86-14.16h2.35l4.67,11.49,4.64-11.49h2.38l-7.02,16.85c-.84,2.03-2.26,2.81-4.12,2.84-.46,0-1.19-.09-1.59-.2l.35-1.97Z"/><path class="cls-2" d="M507.74,129.58c0-4.06,2.67-7.34,6.93-7.34s6.93,3.28,6.93,7.34-2.67,7.37-6.93,7.37-6.93-3.31-6.93-7.37Zm11.57,0c0-2.84-1.65-5.4-4.64-5.4s-4.67,2.55-4.67,5.4,1.68,5.42,4.67,5.42,4.64-2.55,4.64-5.42Z"/><path class="cls-2" d="M534.31,136.6v-1.97c-1.07,1.22-2.9,2.32-4.99,2.32-2.93,0-4.47-1.42-4.47-4.47v-9.89h2.18v9.22c0,2.47,1.25,3.19,3.13,3.19,1.71,0,3.34-.99,4.15-2.12v-10.3h2.17v14.01h-2.17Z"/><path class="cls-2" d="M540.54,136.6v-14.01h2.17v2.26c1.13-1.48,2.76-2.55,4.67-2.55v2.23c-.26-.06-.52-.09-.87-.09-1.33,0-3.16,1.1-3.8,2.23v9.92h-2.17Z"/><path class="cls-2" d="M549.73,133.18c.93,1.07,2.7,2,4.61,2,2.15,0,3.31-.96,3.31-2.32,0-1.54-1.71-2.03-3.6-2.49-2.38-.55-5.08-1.19-5.08-4.09,0-2.18,1.88-4.03,5.22-4.03,2.38,0,4.06,.9,5.19,2.03l-1.02,1.51c-.84-1.01-2.38-1.77-4.18-1.77-1.91,0-3.1,.87-3.1,2.12,0,1.36,1.6,1.8,3.42,2.23,2.44,.55,5.25,1.25,5.25,4.35,0,2.35-1.88,4.24-5.51,4.24-2.29,0-4.23-.7-5.66-2.21l1.13-1.57Z"/><path class="cls-2" d="M569.11,122.24c4.24,0,6.73,3.31,6.73,7.51v.55h-11.34c.17,2.64,2.03,4.84,5.05,4.84,1.59,0,3.22-.64,4.32-1.77l1.04,1.42c-1.39,1.39-3.28,2.15-5.57,2.15-4.15,0-7.14-2.99-7.14-7.37,0-4.06,2.9-7.34,6.9-7.34Zm-4.61,6.47h9.2c-.03-2.09-1.42-4.67-4.61-4.67-2.99,0-4.47,2.52-4.58,4.67Z"/><path class="cls-2" d="M579.05,136.6v-19.35h2.18v19.35h-2.18Z"/><path class="cls-2" d="M588.07,124.51v12.1h-2.18v-12.1h-2.32v-1.91h2.32v-1.07c0-2.9,1.62-4.55,4.06-4.55,.81,0,1.57,.15,2.12,.49l-.55,1.62c-.35-.2-.75-.32-1.25-.32-1.42,0-2.2,.99-2.2,2.75v1.07h2.84v1.91h-2.84Z"/><path class="cls-2" d="M612.52,136.6l-3.65-11.25-3.66,11.25h-2.17l-4.47-14.01h2.26l3.42,11.17,3.68-11.17h1.86l3.68,11.17,3.42-11.17h2.26l-4.47,14.01h-2.18Z"/><path class="cls-2" d="M621.01,118.76c0-.81,.67-1.45,1.45-1.45s1.48,.64,1.48,1.45-.67,1.48-1.48,1.48-1.45-.67-1.45-1.48Zm.38,17.84v-14.01h2.18v14.01h-2.18Z"/><path class="cls-2" d="M628.06,133.67v-9.17h-2.32v-1.91h2.32v-3.83h2.18v3.83h2.84v1.91h-2.84v8.7c0,1.04,.46,1.8,1.42,1.8,.61,0,1.19-.26,1.48-.58l.64,1.62c-.55,.52-1.33,.9-2.61,.9-2.06,0-3.1-1.19-3.1-3.28Z"/><path class="cls-2" d="M645.35,136.6v-9.22c0-2.47-1.28-3.19-3.16-3.19-1.68,0-3.31,1.04-4.15,2.18v10.24h-2.18v-19.35h2.18v7.37c.99-1.16,2.9-2.38,5.02-2.38,2.93,0,4.47,1.42,4.47,4.47v9.89h-2.18Z"/><path class="cls-2" d="M659.21,133.67v-9.17h-2.32v-1.91h2.32v-3.83h2.18v3.83h2.84v1.91h-2.84v8.7c0,1.04,.46,1.8,1.42,1.8,.61,0,1.19-.26,1.48-.58l.64,1.62c-.55,.52-1.33,.9-2.61,.9-2.06,0-3.1-1.19-3.1-3.28Z"/><path class="cls-2" d="M676.49,136.6v-9.22c0-2.47-1.28-3.19-3.16-3.19-1.68,0-3.31,1.04-4.15,2.18v10.24h-2.17v-19.35h2.17v7.37c.99-1.16,2.9-2.38,5.02-2.38,2.93,0,4.47,1.42,4.47,4.47v9.89h-2.17Z"/><path class="cls-2" d="M688.82,122.24c4.24,0,6.73,3.31,6.73,7.51v.55h-11.34c.17,2.64,2.03,4.84,5.05,4.84,1.59,0,3.22-.64,4.32-1.77l1.04,1.42c-1.39,1.39-3.28,2.15-5.57,2.15-4.15,0-7.14-2.99-7.14-7.37,0-4.06,2.9-7.34,6.9-7.34Zm-4.61,6.47h9.2c-.03-2.09-1.42-4.67-4.61-4.67-2.99,0-4.47,2.52-4.58,4.67Z"/><path class="cls-2" d="M714.71,136.6v-1.6c-1.16,1.28-2.76,1.94-4.64,1.94-2.38,0-4.9-1.6-4.9-4.64s2.52-4.61,4.9-4.61c1.92,0,3.51,.61,4.64,1.91v-2.52c0-1.89-1.51-2.96-3.54-2.96-1.68,0-3.05,.61-4.29,1.94l-1.02-1.51c1.51-1.57,3.31-2.32,5.6-2.32,2.96,0,5.42,1.33,5.42,4.73v9.63h-2.18Zm0-5.6c-.84-1.16-2.32-1.74-3.86-1.74-2.03,0-3.45,1.28-3.45,3.08s1.42,3.05,3.45,3.05c1.54,0,3.02-.58,3.86-1.74v-2.64Z"/><path class="cls-2" d="M724.69,136.6l-5.83-14.01h2.35l4.67,11.49,4.64-11.49h2.38l-5.83,14.01h-2.38Z"/><path class="cls-2" d="M743.63,136.6v-1.6c-1.16,1.28-2.76,1.94-4.64,1.94-2.38,0-4.9-1.6-4.9-4.64s2.52-4.61,4.9-4.61c1.91,0,3.51,.61,4.64,1.91v-2.52c0-1.89-1.51-2.96-3.54-2.96-1.68,0-3.04,.61-4.29,1.94l-1.01-1.51c1.51-1.57,3.31-2.32,5.6-2.32,2.96,0,5.42,1.33,5.42,4.73v9.63h-2.18Zm0-5.6c-.84-1.16-2.32-1.74-3.86-1.74-2.03,0-3.45,1.28-3.45,3.08s1.42,3.05,3.45,3.05c1.54,0,3.02-.58,3.86-1.74v-2.64Z"/><path class="cls-2" d="M749.48,118.76c0-.81,.67-1.45,1.45-1.45s1.48,.64,1.48,1.45-.67,1.48-1.48,1.48-1.45-.67-1.45-1.48Zm.38,17.84v-14.01h2.17v14.01h-2.17Z"/><path class="cls-2" d="M756.09,136.6v-19.35h2.17v19.35h-2.17Z"/><path class="cls-2" d="M771.09,136.6v-1.6c-1.16,1.28-2.76,1.94-4.64,1.94-2.38,0-4.9-1.6-4.9-4.64s2.52-4.61,4.9-4.61c1.92,0,3.51,.61,4.64,1.91v-2.52c0-1.89-1.51-2.96-3.54-2.96-1.68,0-3.05,.61-4.29,1.94l-1.02-1.51c1.51-1.57,3.31-2.32,5.6-2.32,2.96,0,5.42,1.33,5.42,4.73v9.63h-2.17Zm0-5.6c-.84-1.16-2.32-1.74-3.86-1.74-2.03,0-3.45,1.28-3.45,3.08s1.42,3.05,3.45,3.05c1.54,0,3.02-.58,3.86-1.74v-2.64Z"/><path class="cls-2" d="M777.32,136.6v-19.35h2.18v7.46c1.13-1.54,2.81-2.47,4.73-2.47,3.66,0,6.24,2.9,6.24,7.37s-2.58,7.34-6.24,7.34c-1.97,0-3.68-1.02-4.73-2.44v2.09h-2.18Zm2.18-3.8c.75,1.22,2.46,2.2,4.18,2.2,2.84,0,4.52-2.29,4.52-5.39s-1.68-5.42-4.52-5.42c-1.71,0-3.42,1.04-4.18,2.26v6.35Z"/><path class="cls-2" d="M793.71,136.6v-19.35h2.18v19.35h-2.18Z"/><path class="cls-2" d="M806.03,122.24c4.23,0,6.73,3.31,6.73,7.51v.55h-11.34c.17,2.64,2.03,4.84,5.05,4.84,1.6,0,3.22-.64,4.32-1.77l1.04,1.42c-1.39,1.39-3.28,2.15-5.57,2.15-4.15,0-7.14-2.99-7.14-7.37,0-4.06,2.9-7.34,6.9-7.34Zm-4.61,6.47h9.2c-.03-2.09-1.42-4.67-4.61-4.67-2.99,0-4.47,2.52-4.58,4.67Z"/><path class="cls-2" d="M823.6,133.67v-9.17h-2.32v-1.91h2.32v-3.83h2.18v3.83h2.84v1.91h-2.84v8.7c0,1.04,.46,1.8,1.42,1.8,.61,0,1.19-.26,1.48-.58l.64,1.62c-.55,.52-1.33,.9-2.61,.9-2.06,0-3.1-1.19-3.1-3.28Z"/><path class="cls-2" d="M830.59,129.58c0-4.06,2.67-7.34,6.93-7.34s6.93,3.28,6.93,7.34-2.67,7.37-6.93,7.37-6.93-3.31-6.93-7.37Zm11.57,0c0-2.84-1.65-5.4-4.64-5.4s-4.67,2.55-4.67,5.4,1.68,5.42,4.67,5.42,4.64-2.55,4.64-5.42Z"/><path class="cls-2" d="M846.89,129.58c0-4.06,2.67-7.34,6.93-7.34s6.93,3.28,6.93,7.34-2.67,7.37-6.93,7.37-6.93-3.31-6.93-7.37Zm11.57,0c0-2.84-1.65-5.4-4.64-5.4s-4.67,2.55-4.67,5.4,1.68,5.42,4.67,5.42,4.64-2.55,4.64-5.42Z"/><path class="cls-2" d="M864,136.6v-19.35h2.18v19.35h-2.18Z"/><path class="cls-2" d="M870.15,133.18c.93,1.07,2.7,2,4.61,2,2.15,0,3.31-.96,3.31-2.32,0-1.54-1.71-2.03-3.6-2.49-2.38-.55-5.08-1.19-5.08-4.09,0-2.18,1.88-4.03,5.22-4.03,2.38,0,4.06,.9,5.19,2.03l-1.01,1.51c-.84-1.01-2.38-1.77-4.18-1.77-1.91,0-3.1,.87-3.1,2.12,0,1.36,1.6,1.8,3.42,2.23,2.44,.55,5.25,1.25,5.25,4.35,0,2.35-1.89,4.24-5.51,4.24-2.29,0-4.24-.7-5.66-2.21l1.13-1.57Z"/><path class="cls-2" d="M884.59,133.7c.87,0,1.59,.72,1.59,1.6s-.72,1.59-1.59,1.59-1.6-.72-1.6-1.59,.73-1.6,1.6-1.6Z"/><path class="cls-2" d="M187.01,196.54c0-5.95,4.5-10.01,10.15-10.01,4.41,0,6.88,2.32,8.24,4.73l-3.54,1.74c-.81-1.57-2.55-2.81-4.7-2.81-3.36,0-5.92,2.7-5.92,6.35s2.55,6.35,5.92,6.35c2.15,0,3.89-1.22,4.7-2.81l3.54,1.71c-1.39,2.41-3.83,4.76-8.24,4.76-5.66,0-10.15-4.06-10.15-10.01Z"/><path class="cls-2" d="M207.77,206.2v-19.35h3.68v19.35h-3.68Z"/><path class="cls-2" d="M214.73,187.93c0-1.22,1.02-2.21,2.21-2.21s2.2,.99,2.2,2.21-.99,2.2-2.2,2.2-2.21-.99-2.21-2.2Zm.38,18.27v-14.01h3.68v14.01h-3.68Z"/><path class="cls-2" d="M228.97,191.85c2.87,0,4.61,1.25,5.54,2.55l-2.41,2.23c-.67-.96-1.68-1.51-2.96-1.51-2.23,0-3.8,1.62-3.8,4.06s1.57,4.09,3.8,4.09c1.28,0,2.29-.58,2.96-1.51l2.41,2.23c-.93,1.31-2.67,2.55-5.54,2.55-4.32,0-7.43-3.05-7.43-7.37s3.1-7.34,7.43-7.34Z"/><path class="cls-2" d="M246,206.2l-3.71-5.39-1.68,1.8v3.6h-3.68v-19.35h3.68v11.57l5.31-6.24h4.53l-5.54,6.35,5.71,7.66h-4.61Z"/><path class="cls-2" d="M258.96,199.18c0-3.97,2.79-7.34,7.4-7.34s7.43,3.36,7.43,7.34-2.79,7.37-7.43,7.37-7.4-3.36-7.4-7.37Zm10.99,0c0-2.18-1.31-4.06-3.6-4.06s-3.57,1.88-3.57,4.06,1.28,4.09,3.57,4.09,3.6-1.88,3.6-4.09Z"/><path class="cls-2" d="M285.96,206.2v-8.47c0-1.94-1.02-2.61-2.58-2.61-1.45,0-2.58,.81-3.19,1.65v9.43h-3.68v-14.01h3.68v1.83c.9-1.07,2.61-2.17,4.9-2.17,3.07,0,4.55,1.74,4.55,4.47v9.89h-3.68Z"/><path class="cls-2" d="M307.07,191.85c4.18,0,7.02,3.13,7.02,7.71v.81h-10.41c.23,1.77,1.65,3.25,4.03,3.25,1.31,0,2.84-.52,3.74-1.39l1.62,2.38c-1.42,1.31-3.6,1.94-5.77,1.94-4.26,0-7.48-2.87-7.48-7.37,0-4.06,2.99-7.34,7.25-7.34Zm-3.45,6.03h6.9c-.09-1.33-1.01-3.1-3.45-3.1-2.29,0-3.28,1.71-3.45,3.1Z"/><path class="cls-2" d="M325.16,206.2v-1.45c-.96,1.13-2.61,1.8-4.44,1.8-2.23,0-4.87-1.51-4.87-4.64s2.64-4.47,4.87-4.47c1.86,0,3.51,.58,4.44,1.71v-1.94c0-1.42-1.22-2.35-3.07-2.35-1.51,0-2.9,.55-4.09,1.65l-1.39-2.47c1.71-1.51,3.92-2.2,6.12-2.2,3.19,0,6.12,1.28,6.12,5.31v9.05h-3.68Zm0-5.1c-.61-.81-1.77-1.22-2.96-1.22-1.45,0-2.64,.78-2.64,2.12s1.19,2.06,2.64,2.06c1.19,0,2.35-.41,2.96-1.22v-1.74Z"/><path class="cls-2" d="M339.03,191.85c2.87,0,4.61,1.25,5.54,2.55l-2.41,2.23c-.67-.96-1.68-1.51-2.96-1.51-2.23,0-3.8,1.62-3.8,4.06s1.57,4.09,3.8,4.09c1.28,0,2.29-.58,2.96-1.51l2.41,2.23c-.93,1.31-2.67,2.55-5.54,2.55-4.32,0-7.43-3.05-7.43-7.37s3.1-7.34,7.43-7.34Z"/><path class="cls-2" d="M356.46,206.2v-8.53c0-1.94-1.01-2.55-2.61-2.55-1.42,0-2.55,.81-3.19,1.65v9.43h-3.68v-19.35h3.68v7.17c.9-1.07,2.64-2.17,4.93-2.17,3.08,0,4.55,1.68,4.55,4.41v9.95h-3.68Z"/><path class="cls-2" d="M370.31,199.18c0-3.97,2.78-7.34,7.4-7.34s7.43,3.36,7.43,7.34-2.78,7.37-7.43,7.37-7.4-3.36-7.4-7.37Zm10.99,0c0-2.18-1.3-4.06-3.6-4.06s-3.57,1.88-3.57,4.06,1.28,4.09,3.57,4.09,3.6-1.88,3.6-4.09Z"/><path class="cls-2" d="M392.38,195.41v10.79h-3.71v-10.79h-2.32v-3.22h2.32v-.75c0-3.05,1.97-4.87,4.73-4.87,1.04,0,2,.23,2.67,.58l-.75,2.61c-.32-.2-.75-.29-1.19-.29-1.04,0-1.74,.7-1.74,2.03v.7h2.84v3.22h-2.84Z"/><path class="cls-2" d="M405.49,202.72v-7.31h-2.32v-3.22h2.32v-3.83h3.71v3.83h2.84v3.22h-2.84v6.32c0,.87,.46,1.54,1.28,1.54,.55,0,1.07-.2,1.28-.41l.78,2.78c-.55,.49-1.54,.9-3.08,.9-2.58,0-3.97-1.33-3.97-3.83Z"/><path class="cls-2" d="M424.05,206.2v-8.53c0-1.94-1.02-2.55-2.61-2.55-1.42,0-2.55,.81-3.19,1.65v9.43h-3.68v-19.35h3.68v7.17c.9-1.07,2.64-2.17,4.93-2.17,3.07,0,4.55,1.68,4.55,4.41v9.95h-3.68Z"/><path class="cls-2" d="M437.74,191.85c4.18,0,7.02,3.13,7.02,7.71v.81h-10.41c.23,1.77,1.65,3.25,4.03,3.25,1.31,0,2.84-.52,3.74-1.39l1.62,2.38c-1.42,1.31-3.6,1.94-5.77,1.94-4.26,0-7.48-2.87-7.48-7.37,0-4.06,2.99-7.34,7.25-7.34Zm-3.45,6.03h6.9c-.09-1.33-1.02-3.1-3.45-3.1-2.29,0-3.28,1.71-3.45,3.1Z"/><path class="cls-2" d="M463.26,206.2v-1.45c-.96,1.13-2.61,1.8-4.44,1.8-2.23,0-4.87-1.51-4.87-4.64s2.64-4.47,4.87-4.47c1.86,0,3.51,.58,4.44,1.71v-1.94c0-1.42-1.22-2.35-3.08-2.35-1.51,0-2.9,.55-4.09,1.65l-1.39-2.47c1.71-1.51,3.92-2.2,6.12-2.2,3.19,0,6.12,1.28,6.12,5.31v9.05h-3.68Zm0-5.1c-.61-.81-1.77-1.22-2.96-1.22-1.45,0-2.64,.78-2.64,2.12s1.19,2.06,2.64,2.06c1.19,0,2.35-.41,2.96-1.22v-1.74Z"/><path class="cls-2" d="M470.6,206.2v-14.01h3.68v1.91c.99-1.25,2.73-2.23,4.47-2.23v3.6c-.26-.06-.61-.09-1.01-.09-1.22,0-2.84,.67-3.45,1.57v9.25h-3.68Z"/><path class="cls-2" d="M481.04,206.2v-14.01h3.68v1.91c.99-1.25,2.73-2.23,4.47-2.23v3.6c-.26-.06-.61-.09-1.01-.09-1.22,0-2.84,.67-3.45,1.57v9.25h-3.68Z"/><path class="cls-2" d="M490.58,199.18c0-3.97,2.79-7.34,7.4-7.34s7.43,3.36,7.43,7.34-2.78,7.37-7.43,7.37-7.4-3.36-7.4-7.37Zm10.99,0c0-2.18-1.31-4.06-3.6-4.06s-3.57,1.88-3.57,4.06,1.28,4.09,3.57,4.09,3.6-1.88,3.6-4.09Z"/><path class="cls-2" d="M520.42,206.2l-2.96-9.54-2.96,9.54h-3.95l-4.26-14.01h3.83l2.61,9.43,3.07-9.43h3.28l3.08,9.43,2.61-9.43h3.83l-4.26,14.01h-3.92Z"/><path class="cls-2" d="M530.8,201.79c1.01,.96,3.1,1.91,4.84,1.91,1.6,0,2.35-.55,2.35-1.42,0-.99-1.22-1.33-2.81-1.65-2.41-.46-5.51-1.04-5.51-4.38,0-2.35,2.06-4.41,5.74-4.41,2.38,0,4.26,.81,5.63,1.91l-1.45,2.52c-.84-.9-2.44-1.62-4.15-1.62-1.33,0-2.21,.49-2.21,1.3,0,.87,1.1,1.19,2.67,1.51,2.41,.46,5.63,1.1,5.63,4.58,0,2.58-2.18,4.5-6.06,4.5-2.44,0-4.79-.81-6.27-2.18l1.6-2.58Z"/><path class="cls-2" d="M552.4,202.72v-7.31h-2.32v-3.22h2.32v-3.83h3.71v3.83h2.84v3.22h-2.84v6.32c0,.87,.46,1.54,1.28,1.54,.55,0,1.07-.2,1.28-.41l.78,2.78c-.55,.49-1.54,.9-3.08,.9-2.58,0-3.97-1.33-3.97-3.83Z"/><path class="cls-2" d="M560.58,199.18c0-3.97,2.79-7.34,7.4-7.34s7.43,3.36,7.43,7.34-2.79,7.37-7.43,7.37-7.4-3.36-7.4-7.37Zm10.99,0c0-2.18-1.31-4.06-3.6-4.06s-3.57,1.88-3.57,4.06,1.28,4.09,3.57,4.09,3.6-1.88,3.6-4.09Z"/><path class="cls-2" d="M593.96,206.2v-1.45c-.96,1.13-2.61,1.8-4.44,1.8-2.23,0-4.87-1.51-4.87-4.64s2.64-4.47,4.87-4.47c1.86,0,3.51,.58,4.44,1.71v-1.94c0-1.42-1.22-2.35-3.08-2.35-1.51,0-2.9,.55-4.09,1.65l-1.39-2.47c1.71-1.51,3.92-2.2,6.12-2.2,3.19,0,6.12,1.28,6.12,5.31v9.05h-3.68Zm0-5.1c-.61-.81-1.77-1.22-2.96-1.22-1.45,0-2.64,.78-2.64,2.12s1.19,2.06,2.64,2.06c1.19,0,2.35-.41,2.96-1.22v-1.74Z"/><path class="cls-2" d="M607.82,191.85c2.87,0,4.61,1.25,5.54,2.55l-2.41,2.23c-.67-.96-1.68-1.51-2.96-1.51-2.23,0-3.8,1.62-3.8,4.06s1.57,4.09,3.8,4.09c1.28,0,2.29-.58,2.96-1.51l2.41,2.23c-.93,1.31-2.67,2.55-5.54,2.55-4.32,0-7.43-3.05-7.43-7.37s3.1-7.34,7.43-7.34Z"/><path class="cls-2" d="M622.29,191.85c2.87,0,4.61,1.25,5.54,2.55l-2.41,2.23c-.67-.96-1.68-1.51-2.96-1.51-2.23,0-3.8,1.62-3.8,4.06s1.57,4.09,3.8,4.09c1.28,0,2.29-.58,2.96-1.51l2.41,2.23c-.93,1.31-2.67,2.55-5.54,2.55-4.32,0-7.43-3.05-7.43-7.37s3.1-7.34,7.43-7.34Z"/><path class="cls-2" d="M636.59,191.85c4.18,0,7.02,3.13,7.02,7.71v.81h-10.41c.23,1.77,1.65,3.25,4.03,3.25,1.31,0,2.84-.52,3.74-1.39l1.62,2.38c-1.42,1.31-3.6,1.94-5.77,1.94-4.26,0-7.48-2.87-7.48-7.37,0-4.06,2.99-7.34,7.25-7.34Zm-3.45,6.03h6.9c-.09-1.33-1.02-3.1-3.45-3.1-2.29,0-3.28,1.71-3.45,3.1Z"/><path class="cls-2" d="M646.65,201.79c1.01,.96,3.1,1.91,4.84,1.91,1.6,0,2.35-.55,2.35-1.42,0-.99-1.22-1.33-2.81-1.65-2.41-.46-5.51-1.04-5.51-4.38,0-2.35,2.06-4.41,5.74-4.41,2.38,0,4.26,.81,5.63,1.91l-1.45,2.52c-.84-.9-2.44-1.62-4.15-1.62-1.33,0-2.2,.49-2.2,1.3,0,.87,1.1,1.19,2.67,1.51,2.41,.46,5.63,1.1,5.63,4.58,0,2.58-2.18,4.5-6.06,4.5-2.44,0-4.79-.81-6.27-2.18l1.6-2.58Z"/><path class="cls-2" d="M660.48,201.79c1.02,.96,3.1,1.91,4.84,1.91,1.59,0,2.35-.55,2.35-1.42,0-.99-1.22-1.33-2.81-1.65-2.41-.46-5.51-1.04-5.51-4.38,0-2.35,2.06-4.41,5.74-4.41,2.38,0,4.26,.81,5.63,1.91l-1.45,2.52c-.84-.9-2.44-1.62-4.15-1.62-1.33,0-2.2,.49-2.2,1.3,0,.87,1.1,1.19,2.67,1.51,2.41,.46,5.63,1.1,5.63,4.58,0,2.58-2.18,4.5-6.06,4.5-2.44,0-4.79-.81-6.27-2.18l1.59-2.58Z"/><path class="cls-2" d="M682.09,202.72v-7.31h-2.32v-3.22h2.32v-3.83h3.71v3.83h2.84v3.22h-2.84v6.32c0,.87,.46,1.54,1.28,1.54,.55,0,1.07-.2,1.28-.41l.78,2.78c-.55,.49-1.54,.9-3.08,.9-2.58,0-3.97-1.33-3.97-3.83Z"/><path class="cls-2" d="M700.65,206.2v-8.53c0-1.94-1.01-2.55-2.61-2.55-1.42,0-2.55,.81-3.19,1.65v9.43h-3.68v-19.35h3.68v7.17c.9-1.07,2.64-2.17,4.93-2.17,3.08,0,4.55,1.68,4.55,4.41v9.95h-3.68Z"/><path class="cls-2" d="M714.34,191.85c4.18,0,7.02,3.13,7.02,7.71v.81h-10.41c.23,1.77,1.65,3.25,4.03,3.25,1.31,0,2.84-.52,3.74-1.39l1.62,2.38c-1.42,1.31-3.6,1.94-5.77,1.94-4.26,0-7.48-2.87-7.48-7.37,0-4.06,2.99-7.34,7.25-7.34Zm-3.45,6.03h6.9c-.09-1.33-1.01-3.1-3.45-3.1-2.29,0-3.28,1.71-3.45,3.1Z"/><path class="cls-2" d="M741.08,206.2v-1.77c-1.1,1.36-2.64,2.12-4.32,2.12-3.54,0-6.21-2.67-6.21-7.34s2.64-7.37,6.21-7.37c1.65,0,3.22,.72,4.32,2.15v-7.14h3.71v19.35h-3.71Zm0-9.48c-.64-.93-1.94-1.6-3.19-1.6-2.09,0-3.54,1.65-3.54,4.09s1.45,4.06,3.54,4.06c1.25,0,2.55-.67,3.19-1.59v-4.96Z"/><path class="cls-2" d="M754.79,191.85c4.18,0,7.02,3.13,7.02,7.71v.81h-10.41c.23,1.77,1.65,3.25,4.03,3.25,1.3,0,2.84-.52,3.74-1.39l1.62,2.38c-1.42,1.31-3.6,1.94-5.77,1.94-4.26,0-7.48-2.87-7.48-7.37,0-4.06,2.99-7.34,7.25-7.34Zm-3.45,6.03h6.9c-.09-1.33-1.02-3.1-3.45-3.1-2.29,0-3.28,1.71-3.45,3.1Z"/><path class="cls-2" d="M764.85,201.79c1.02,.96,3.1,1.91,4.84,1.91,1.59,0,2.35-.55,2.35-1.42,0-.99-1.22-1.33-2.81-1.65-2.41-.46-5.51-1.04-5.51-4.38,0-2.35,2.06-4.41,5.74-4.41,2.38,0,4.26,.81,5.63,1.91l-1.45,2.52c-.84-.9-2.44-1.62-4.15-1.62-1.33,0-2.21,.49-2.21,1.3,0,.87,1.1,1.19,2.67,1.51,2.41,.46,5.63,1.1,5.63,4.58,0,2.58-2.17,4.5-6.06,4.5-2.44,0-4.79-.81-6.27-2.18l1.59-2.58Z"/><path class="cls-2" d="M784.84,191.85c2.87,0,4.61,1.25,5.54,2.55l-2.41,2.23c-.67-.96-1.68-1.51-2.96-1.51-2.23,0-3.8,1.62-3.8,4.06s1.57,4.09,3.8,4.09c1.28,0,2.29-.58,2.96-1.51l2.41,2.23c-.93,1.31-2.67,2.55-5.54,2.55-4.32,0-7.43-3.05-7.43-7.37s3.1-7.34,7.43-7.34Z"/><path class="cls-2" d="M792.78,206.2v-14.01h3.68v1.91c.99-1.25,2.73-2.23,4.47-2.23v3.6c-.26-.06-.61-.09-1.01-.09-1.22,0-2.84,.67-3.45,1.57v9.25h-3.68Z"/><path class="cls-2" d="M802.84,187.93c0-1.22,1.01-2.21,2.2-2.21s2.2,.99,2.2,2.21-.99,2.2-2.2,2.2-2.2-.99-2.2-2.2Zm.38,18.27v-14.01h3.68v14.01h-3.68Z"/><path class="cls-2" d="M814.24,211.54h-3.68v-19.35h3.68v1.77c1.07-1.36,2.61-2.12,4.32-2.12,3.6,0,6.21,2.67,6.21,7.34s-2.61,7.37-6.21,7.37c-1.65,0-3.19-.7-4.32-2.15v7.14Zm3.16-16.42c-1.19,0-2.55,.7-3.16,1.6v4.96c.61,.87,1.97,1.59,3.16,1.59,2.12,0,3.54-1.65,3.54-4.09s-1.42-4.06-3.54-4.06Z"/><path class="cls-2" d="M828.25,202.72v-7.31h-2.32v-3.22h2.32v-3.83h3.71v3.83h2.84v3.22h-2.84v6.32c0,.87,.46,1.54,1.28,1.54,.55,0,1.07-.2,1.28-.41l.78,2.78c-.55,.49-1.54,.9-3.08,.9-2.58,0-3.97-1.33-3.97-3.83Z"/><path class="cls-2" d="M836.95,187.93c0-1.22,1.01-2.21,2.2-2.21s2.2,.99,2.2,2.21-.99,2.2-2.2,2.2-2.2-.99-2.2-2.2Zm.38,18.27v-14.01h3.68v14.01h-3.68Z"/><path class="cls-2" d="M843.76,199.18c0-3.97,2.78-7.34,7.4-7.34s7.43,3.36,7.43,7.34-2.79,7.37-7.43,7.37-7.4-3.36-7.4-7.37Zm10.99,0c0-2.18-1.31-4.06-3.6-4.06s-3.57,1.88-3.57,4.06,1.28,4.09,3.57,4.09,3.6-1.88,3.6-4.09Z"/><path class="cls-2" d="M870.76,206.2v-8.47c0-1.94-1.01-2.61-2.58-2.61-1.45,0-2.58,.81-3.19,1.65v9.43h-3.68v-14.01h3.68v1.83c.9-1.07,2.61-2.17,4.9-2.17,3.07,0,4.55,1.74,4.55,4.47v9.89h-3.68Z"/><path class="cls-2" d="M879.98,201.82c1.28,0,2.35,1.07,2.35,2.35s-1.07,2.35-2.35,2.35-2.35-1.07-2.35-2.35,1.07-2.35,2.35-2.35Z"/></g><g><path class="cls-1" d="M161.72,169.87s-.02-.04-.03-.06l-40.78-72.96c-4.95-8.98-13.75-14.34-23.54-14.35-9.79,0-18.6,5.34-23.56,14.31l-41.09,72.95s-.03,.05-.04,.07c-5,9.07-5.05,19.93-.14,29.05,4.92,9.15,13.79,14.61,23.71,14.61h81.89c20.74,.37,34.36-24.74,23.59-43.62Zm-14.93,19.85c-.86,1.6-3.43,5.32-8.65,5.32H56.24c-5.23,0-7.8-3.73-8.66-5.33-.85-1.59-2.56-5.78,.03-10.52l41.08-72.94s.03-.05,.04-.07c2.61-4.73,6.88-5.23,8.62-5.23,1.72,0,6.01,.52,8.61,5.25,.01,.02,.02,.04,.03,.06l40.77,72.95c2.59,4.74,.88,8.93,.03,10.52Z"/><path class="cls-1" d="M96.97,163.22c5.99,0,10.84,5.16,10.84,11.53-.57,15.3-21.11,15.29-21.68,0,0-6.37,4.85-11.53,10.84-11.53Z"/><path class="cls-1" d="M105.64,145.69v-15.68c-.46-12.24-16.89-12.23-17.34,0v15.68c0,5.09,3.88,9.23,8.67,9.23s8.67-4.13,8.67-9.23Z"/></g></g></svg>