<?xml version="1.0" encoding="UTF-8"?><svg xmlns="http://www.w3.org/2000/svg" xmlns:xlink="http://www.w3.org/1999/xlink" viewBox="0 0 109.96 600.86"><defs><style>.cls-1{fill:url(#radial-gradient-3);}.cls-1,.cls-2{mix-blend-mode:multiply;}.cls-3,.cls-4{fill:#fff;}.cls-5{fill:#1e8fe5;}.cls-6{fill:#a2bad2;}.cls-7{fill:#5c5c61;}.cls-8{fill:url(#radial-gradient-2);mix-blend-mode:screen;}.cls-9{fill:url(#radial-gradient);}.cls-4{fill-rule:evenodd;}.cls-10{isolation:isolate;}.cls-11{fill:none;stroke:#fff;stroke-miterlimit:10;stroke-width:.89px;}</style><radialGradient id="radial-gradient" cx="46.43" cy="64.62" fx="46.43" fy="64.62" r="23.57" gradientTransform="translate(98.65 4.58) rotate(76.72)" gradientUnits="userSpaceOnUse"><stop offset=".64" stop-color="#fff"/><stop offset=".8" stop-color="#fdfdfd"/><stop offset=".85" stop-color="#f6f6f6"/><stop offset=".89" stop-color="#eaeaea"/><stop offset=".93" stop-color="#dad9d9"/><stop offset=".95" stop-color="#c4c3c4"/><stop offset=".98" stop-color="#aaa9a9"/><stop offset="1" stop-color="#8c8a8b"/></radialGradient><radialGradient id="radial-gradient-2" cx="46.43" cy="64.62" fx="46.43" fy="64.62" r="35.93" gradientTransform="matrix(1, 0, 0, 1, 0, 0)" gradientUnits="userSpaceOnUse"><stop offset=".27" stop-color="#fff"/><stop offset=".32" stop-color="#e5e5e5"/><stop offset=".51" stop-color="#848484"/><stop offset=".67" stop-color="#3d3d3d"/><stop offset=".78" stop-color="#101010"/><stop offset=".84" stop-color="#000"/></radialGradient><radialGradient id="radial-gradient-3" cx="46.74" cy="14434.91" fx="46.74" fy="14434.91" r="29.63" gradientTransform="translate(0 -2811.3) scale(1 .2)" gradientUnits="userSpaceOnUse"><stop offset="0" stop-color="#cdcdcd"/><stop offset="1" stop-color="#fff"/></radialGradient></defs><g class="cls-10"><g id="Capa_2"><g id="Capa_1-2"><g><path class="cls-7" d="M70.6,272.07h61.49c6.54,0,11.85,5.31,11.85,11.85v5.38H58.76v-5.38c0-6.54,5.31-11.85,11.85-11.85Z" transform="translate(382.03 179.33) rotate(90)"/><g><polygon class="cls-3" points="99.24 281.83 102.78 275.11 106.18 275.11 105.09 277.18 102.64 281.83 105 286.32 106.18 288.56 102.78 288.56 102.77 288.55 99.24 281.83"/><polygon class="cls-3" points="94.28 281.83 97.82 275.11 101.23 275.11 101.22 275.12 101.18 275.21 97.69 281.83 101.23 288.56 97.82 288.56 94.34 281.94 94.28 281.83"/></g></g><rect class="cls-7" width="92.86" height="600.86" rx="20.59" ry="20.59"/><g id="_0"><g><g><path class="cls-6" d="M46.43,28.68c-19.85,0-35.93,16.09-35.93,35.93s16.09,35.93,35.93,35.93,35.93-16.09,35.93-35.93S66.27,28.68,46.43,28.68Zm0,60.05c-13.32,0-24.12-10.8-24.12-24.12s10.8-24.12,24.12-24.12,24.12,10.8,24.12,24.12-10.8,24.12-24.12,24.12Z"/><g class="cls-2"><circle class="cls-9" cx="46.43" cy="64.62" r="24.12" transform="translate(-27.12 94.96) rotate(-76.72)"/></g><path class="cls-5" d="M46.43,28.68c-.12,0-.23,0-.35,0v11.82c.12,0,.23,0,.35,0,13.32,0,24.12,10.8,24.12,24.12,0,2.42-.36,4.75-1.02,6.95l11.26,3.6c1.02-3.34,1.57-6.88,1.57-10.55,0-19.85-16.09-35.93-35.93-35.93Z"/><path class="cls-8" d="M46.43,28.68c-19.85,0-35.93,16.09-35.93,35.93s16.09,35.93,35.93,35.93,35.93-16.09,35.93-35.93S66.27,28.68,46.43,28.68Zm0,60.05c-13.32,0-24.12-10.8-24.12-24.12s10.8-24.12,24.12-24.12,24.12,10.8,24.12,24.12-10.8,24.12-24.12,24.12Z"/></g><ellipse class="cls-1" cx="46.74" cy="110.24" rx="32.69" ry="9.43"/></g><g><path class="cls-3" d="M35.9,64.33h1.35c.85-.01,1.52-.24,2.01-.67,.49-.44,.73-1.02,.73-1.76,0-1.66-.83-2.49-2.48-2.49-.78,0-1.4,.22-1.87,.67-.46,.44-.7,1.03-.7,1.77h-1.8c0-1.12,.41-2.06,1.23-2.8,.82-.74,1.87-1.12,3.13-1.12,1.34,0,2.39,.35,3.15,1.06,.76,.71,1.14,1.69,1.14,2.95,0,.62-.2,1.21-.6,1.79-.4,.58-.94,1.01-1.63,1.3,.78,.25,1.38,.66,1.81,1.23,.43,.57,.64,1.27,.64,2.09,0,1.27-.42,2.28-1.25,3.03-.83,.75-1.91,1.12-3.24,1.12s-2.41-.36-3.25-1.08c-.83-.72-1.25-1.67-1.25-2.85h1.81c0,.75,.24,1.34,.73,1.79,.49,.45,1.14,.67,1.96,.67,.87,0,1.54-.23,2-.68,.46-.45,.69-1.11,.69-1.96s-.25-1.46-.76-1.9c-.51-.44-1.24-.67-2.19-.68h-1.35v-1.47Z"/><path class="cls-3" d="M53.38,66.25c0,2.11-.36,3.68-1.08,4.71-.72,1.03-1.85,1.54-3.38,1.54s-2.63-.5-3.36-1.51c-.73-1-1.1-2.5-1.13-4.5v-2.41c0-2.09,.36-3.63,1.08-4.65,.72-1.01,1.85-1.52,3.39-1.52s2.65,.49,3.37,1.47c.72,.98,1.09,2.49,1.11,4.53v2.34Zm-1.8-2.47c0-1.53-.21-2.64-.64-3.34-.43-.7-1.11-1.05-2.04-1.05s-1.59,.35-2.02,1.04c-.42,.7-.64,1.76-.65,3.21v2.88c0,1.53,.22,2.66,.67,3.4,.44,.73,1.12,1.1,2.02,1.1s1.55-.34,1.98-1.03c.43-.69,.66-1.77,.68-3.25v-2.95Z"/><path class="cls-3" d="M55.19,64.67c0-.57,.18-1.03,.54-1.4s.83-.55,1.39-.55,1.04,.19,1.4,.56c.36,.37,.54,.85,.54,1.44v.46c0,.57-.18,1.04-.54,1.4s-.82,.54-1.38,.54-1.03-.18-1.4-.54-.55-.84-.55-1.45v-.45Zm.9,.5c0,.34,.1,.62,.29,.84,.19,.22,.45,.33,.77,.33s.56-.11,.74-.32c.19-.21,.28-.5,.28-.87v-.48c0-.34-.09-.62-.28-.84-.19-.22-.44-.33-.76-.33s-.57,.11-.76,.33c-.19,.22-.28,.51-.28,.87v.48Zm1.33,6.43l-.68-.43,4.62-7.39,.68,.43-4.62,7.39Zm2.38-1.6c0-.57,.18-1.03,.54-1.4s.83-.55,1.39-.55,1.03,.18,1.4,.55c.36,.36,.55,.85,.55,1.45v.46c0,.57-.18,1.03-.54,1.4-.36,.37-.82,.55-1.39,.55s-1.03-.18-1.4-.54-.55-.84-.55-1.45v-.47Zm.9,.5c0,.34,.1,.62,.29,.84,.19,.22,.45,.33,.77,.33s.56-.11,.75-.32c.19-.21,.28-.51,.28-.88v-.48c0-.34-.09-.62-.28-.84-.19-.22-.44-.33-.76-.33s-.56,.11-.75,.32c-.19,.21-.29,.5-.29,.87v.48Z"/></g></g><g><path class="cls-3" d="M44.18,390.13l-6.69,6c-.89,.8-.96,2.16-.17,3.05,.8,.89,2.16,.96,3.05,.17l5.25-4.71,5.25,4.71c.89,.8,2.25,.72,3.05-.17,.37-.41,.55-.93,.55-1.44,0-.59-.24-1.18-.72-1.61l-6.69-6c-.82-.74-2.06-.74-2.88,0Z"/><path class="cls-3" d="M44.18,397.59l-6.69,6c-.89,.8-.96,2.16-.17,3.05,.8,.89,2.16,.96,3.05,.17l5.25-4.71,5.25,4.71c.89,.8,2.25,.72,3.05-.17,.37-.41,.55-.93,.55-1.44,0-.59-.24-1.18-.72-1.61l-6.69-6c-.82-.73-2.06-.73-2.88,0Z"/></g><g><path class="cls-3" d="M46.86,471.37l6.69-5.81c.89-.77,.96-2.09,.17-2.95-.8-.86-2.16-.93-3.05-.16l-5.25,4.56-5.25-4.56c-.89-.77-2.25-.7-3.05,.16-.37,.4-.55,.9-.55,1.39,0,.57,.24,1.15,.72,1.56l6.69,5.81c.82,.71,2.06,.71,2.88,0Z"/><path class="cls-3" d="M46.86,464.14l6.69-5.81c.89-.77,.96-2.09,.17-2.96-.8-.86-2.16-.93-3.05-.16l-5.25,4.56-5.25-4.56c-.89-.77-2.25-.7-3.05,.16-.37,.4-.55,.9-.55,1.4,0,.57,.24,1.15,.72,1.56l6.69,5.81c.82,.71,2.06,.71,2.88,0Z"/></g><line class="cls-11" x1="15.56" y1="365.27" x2="81.87" y2="365.27"/><g><path class="cls-7" d="M92.9,138.1h0v-13.57c0,11.65-9.49,13.34-12.79,13.57H32.15c-10.24,0-18.61,8.35-18.61,18.55v5.15c0,10.2,8.37,18.55,18.61,18.55h47.02c13.05,0,13.7,11.73,13.73,13.55v-55.8Z"/><path class="cls-3" d="M93.9,198.73v.24s0-.09,0-.24Z"/></g><g><path class="cls-3" d="M50.47,194.31h-6c-.41,0-.75,.34-.75,.75s.34,.75,.75,.75h6c.41,0,.75-.34,.75-.75s-.34-.75-.75-.75Z"/><path class="cls-3" d="M50.47,197.31h-6c-.41,0-.75,.34-.75,.75s.34,.75,.75,.75h6c.41,0,.75-.34,.75-.75s-.34-.75-.75-.75Z"/><path class="cls-3" d="M50.47,200.31h-12c-.41,0-.75,.34-.75,.75s.34,.75,.75,.75h12c.41,0,.75-.34,.75-.75s-.34-.75-.75-.75Z"/><path class="cls-3" d="M47.76,203.31h-9.28c-.41,0-.75,.34-.75,.75s.34,.75,.75,.75h9.28c.41,0,.75-.34,.75-.75s-.34-.75-.75-.75Z"/><path class="cls-3" d="M54.27,203.31v-11.3c0-1.24-1.05-2.25-2.3-2.25h-10.5c-.19,0-.39,.08-.53,.22l-6,6.05c-.14,.14-.22,.33-.22,.53v16.55c0,1.24,1.01,2.25,2.25,2.25h17.3c3.31,0,6.05-2.73,6.05-6.05s-2.71-6-6.05-6Zm-13.55-10.98v3.48h-3.45l3.45-3.48Zm-3.75,21.53c-.41,0-.75-.34-.75-.75v-15.8h5.25c.41,0,.75-.34,.75-.75v-5.3h9.75c.43,0,.8,.35,.8,.75v11.49c-1.59,.4-2.93,1.44-3.74,2.81h-10.56c-.41,0-.75,.34-.75,.75s.34,.75,.75,.75h9.94c-.12,.48-.19,.98-.19,1.5h-9.75c-.41,0-.75,.34-.75,.75s.34,.75,.75,.75h9.94c.3,1.17,.96,2.23,1.89,3.05h-13.33Zm17.3,0c-2.47,0-4.55-2.08-4.55-4.55s2.04-4.5,4.55-4.5,4.55,2.02,4.55,4.5-2.08,4.55-4.55,4.55Z"/><path class="cls-3" d="M57.11,208.03c-.29-.3-.77-.3-1.06,0l-2.53,2.49-1.02-.99c-.3-.29-.77-.28-1.06,.02s-.28,.77,.02,1.06l1.55,1.5c.29,.28,.76,.28,1.05,0l3.05-3c.3-.29,.3-.77,0-1.06Z"/></g><g><path class="cls-3" d="M18.9,437.6v-8.01l-1.82,1.87-1.34-1.41,3.48-3.49h2.05v11.04h-2.37Z"/><path class="cls-3" d="M24.46,434.55c.76,.78,1.79,1.19,2.95,1.19,1.31,0,2.05-.75,2.05-1.66,0-1.01-.73-1.69-1.99-1.69-.91,0-1.66,.28-2.32,.91l-1.64-.45v-6.31h7.58v2.02h-5.28v2.76c.58-.51,1.47-.91,2.48-.91,1.87,0,3.54,1.33,3.54,3.56s-1.75,3.81-4.42,3.81c-1.92,0-3.31-.63-4.25-1.66l1.29-1.59Z"/><path class="cls-3" d="M43.2,437.6v-1.01c-.63,.78-1.51,1.21-2.47,1.21-2.02,0-3.54-1.52-3.54-4.19s1.51-4.21,3.54-4.21c.94,0,1.84,.41,2.47,1.23v-4.07h2.12v11.04h-2.12Zm0-5.41c-.36-.53-1.11-.91-1.82-.91-1.19,0-2.02,.94-2.02,2.33s.83,2.32,2.02,2.32c.71,0,1.46-.38,1.82-.91v-2.83Z"/><path class="cls-3" d="M51.03,429.4c2.38,0,4.01,1.79,4.01,4.4v.46h-5.94c.13,1.01,.94,1.85,2.3,1.85,.75,0,1.62-.3,2.14-.79l.93,1.36c-.81,.74-2.05,1.11-3.29,1.11-2.43,0-4.27-1.64-4.27-4.21,0-2.32,1.71-4.19,4.14-4.19Zm-1.97,3.44h3.94c-.05-.76-.58-1.77-1.97-1.77-1.31,0-1.87,.98-1.97,1.77Z"/><path class="cls-3" d="M61.3,434.48c.76,.79,1.97,1.26,3.05,1.26,1.34,0,2.09-.58,2.09-1.42,0-.89-.68-1.31-2.22-1.31-.46,0-1.21,0-1.37,.02v-2.05c.2,.02,.94,.02,1.37,.02,1.23,0,2.04-.4,2.04-1.23,0-.88-.89-1.32-2.05-1.32-1.08,0-2.04,.41-2.81,1.16l-1.16-1.46c.89-1.01,2.28-1.75,4.22-1.75,2.58,0,4.17,1.16,4.17,3,0,1.39-1.19,2.3-2.42,2.52,1.13,.12,2.58,.99,2.58,2.65,0,1.9-1.71,3.24-4.35,3.24-2.04,0-3.54-.78-4.35-1.77l1.23-1.54Z"/><path class="cls-3" d="M74.59,426.39c3.15,0,4.57,2.85,4.57,5.7s-1.42,5.71-4.57,5.71-4.57-2.86-4.57-5.71,1.41-5.7,4.57-5.7Zm0,2.09c-1.59,0-2.18,1.57-2.18,3.61s.6,3.62,2.18,3.62,2.17-1.59,2.17-3.62-.6-3.61-2.17-3.61Z"/></g><g><path class="cls-3" d="M40.73,578.6v-9.6l-3.76,9.6h-1.24l-3.76-9.6v9.6h-2.84v-13.34h3.98l3.24,8.32,3.24-8.32h4v13.34h-2.86Z"/><path class="cls-3" d="M51.97,578.6v-1c-.66,.78-1.8,1.24-3.06,1.24-1.54,0-3.36-1.04-3.36-3.2s1.82-3.08,3.36-3.08c1.28,0,2.42,.4,3.06,1.18v-1.34c0-.98-.84-1.62-2.12-1.62-1.04,0-2,.38-2.82,1.14l-.96-1.7c1.18-1.04,2.7-1.52,4.22-1.52,2.2,0,4.22,.88,4.22,3.66v6.24h-2.54Zm0-3.52c-.42-.56-1.22-.84-2.04-.84-1,0-1.82,.54-1.82,1.46s.82,1.42,1.82,1.42c.82,0,1.62-.28,2.04-.84v-1.2Zm-.82-7.6h-1.78l2.68-2.88h2.34l-3.24,2.88Z"/><path class="cls-3" d="M57.29,575.55c.7,.66,2.14,1.32,3.34,1.32,1.1,0,1.62-.38,1.62-.98,0-.68-.84-.92-1.94-1.14-1.66-.32-3.8-.72-3.8-3.02,0-1.62,1.42-3.04,3.96-3.04,1.64,0,2.94,.56,3.88,1.32l-1,1.74c-.58-.62-1.68-1.12-2.86-1.12-.92,0-1.52,.34-1.52,.9,0,.6,.76,.82,1.84,1.04,1.66,.32,3.88,.76,3.88,3.16,0,1.78-1.5,3.1-4.18,3.1-1.68,0-3.3-.56-4.32-1.5l1.1-1.78Z"/></g><path class="cls-3" d="M60.24,514.97l-13.18-13.26s-.03-.03-.05-.05c-1.44-1.29-3.61-1.3-5.06-.01-.02,.02-.04,.03-.05,.05l-13.3,13.27c-.49,.49-.5,1.29,0,1.79,.49,.49,1.29,.5,1.79,0l1-1v10.92c0,2.79,2.27,5.06,5.06,5.06h4.55c.7,0,1.26-.57,1.26-1.26v-10.31h4.43v10.31c0,.7,.57,1.26,1.26,1.26h4.43c2.79,0,5.06-2.27,5.06-5.06,0-.7-.57-1.26-1.26-1.26s-1.26,.57-1.26,1.26c0,1.39-1.13,2.53-2.53,2.53h-3.16v-10.31c0-.7-.57-1.26-1.26-1.26h-6.96c-.7,0-1.26,.57-1.26,1.26v10.31h-3.29c-1.39,0-2.53-1.13-2.53-2.53v-13.44l9.73-9.72c.47-.4,1.17-.4,1.64,0l9.62,9.68v7.15c0,.7,.57,1.26,1.26,1.26s1.26-.57,1.26-1.26v-4.6l1,1.01c.25,.25,.57,.37,.9,.37s.64-.12,.89-.37c.5-.49,.5-1.29,0-1.79Z"/><g><path class="cls-3" d="M60.13,249.71c-.1-.1-.24-.15-.38-.15h-.03l-2.73,.13c-3.56,.17-7.07,.88-10.43,2.1-3.36-1.22-6.87-1.93-10.43-2.1l-2.73-.13h-.03c-.14,0-.28,.05-.38,.15-.11,.1-.17,.25-.17,.4v19.76c0,.15,.06,.3,.17,.4,.1,.1,.24,.16,.39,.16h.08c.64-.02,1.26-.04,1.86-.04,3.65,0,6.65,.42,9.75,1.35,.12,.04,.38,.14,.61,.23,.28,.11,.54,.22,.71,.27,.04,.01,.08,.02,.12,.02h.1s.08,0,.12-.02c.17-.05,.43-.16,.71-.27,.23-.09,.49-.2,.61-.23,3.1-.93,6.1-1.35,9.75-1.35,.6,0,1.22,.01,1.86,.03h.08c.14,0,.28-.05,.39-.15,.11-.1,.17-.25,.17-.4v-19.76c0-.15-.06-.3-.17-.4Zm-14.13,21.19c-.24-.1-.46-.18-.61-.23-3.21-.96-6.31-1.4-10.07-1.4-.45,0-.92,0-1.39,.02v-18.6l2.14,.1c3.38,.16,6.72,.82,9.92,1.97v18.14Zm13.19-1.6c-.47-.01-.94-.02-1.39-.02-3.76,0-6.86,.44-10.07,1.4-.15,.04-.37,.13-.61,.23v-18.14c3.2-1.14,6.54-1.8,9.92-1.97l2.14-.1v18.6Z"/><path class="cls-3" d="M61.42,252.4c-.31,0-.56,.25-.56,.56v18.65h-10.91c-.21,0-.4,.12-.49,.3,0,0-.02,.02-.04,.05-.52,.65-1.3,1.02-2.14,1.02h-1.44c-.84,0-1.62-.37-2.14-1.02-.02-.02-.03-.04-.04-.05-.09-.18-.28-.3-.49-.3h-10.91v-18.65c0-.31-.25-.56-.56-.56s-.56,.25-.56,.56v19.2c0,.31,.25,.56,.56,.56h11.19c.73,.87,1.8,1.36,2.95,1.36h1.44c1.15,0,2.22-.5,2.95-1.36h11.19c.31,0,.56-.25,.56-.56v-19.2c0-.31-.25-.56-.56-.56Z"/><path class="cls-3" d="M39.2,262.92h1.52l.24,1.06h1.5l-1.69-6.36h-1.62l-1.69,6.36h1.47l.25-1.06Zm.74-3.84h.02c.11,.85,.27,1.75,.49,2.7h-.99c.21-.92,.37-1.82,.48-2.7Z"/><polygon class="cls-3" points="55.18 263.98 55.18 262.62 53.16 262.62 55.37 257.62 51.27 257.62 51.27 258.98 53.15 258.98 50.95 263.98 55.18 263.98"/></g><g><path class="cls-4" d="M59.9,313.61h-.56v-.49c0-.68-.27-1.33-.75-1.81-.49-.49-1.13-.76-1.82-.76h0l-17.07,.02c-.12,0-.25,0-.38,0-.86,0-1.75-.02-2.48,.3-.88,.38-1.37,1.17-1.45,2.35v22.31s0,.06,0,.08,0,.05,0,.08h0c.04,1.1,.9,2.18,2.49,2.18h18.91c1.4,0,2.54-1.15,2.54-2.57v-12.04h.56c.94,0,1.71-.77,1.71-1.71v-6.25c0-.94-.77-1.71-1.71-1.71Zm-20.6-2.23v21.95h-1.42c-.71,0-1.27,.22-1.68,.56v-20.62c.12-1.81,1.26-1.9,3.1-1.89Zm21.5,10.19c0,.5-.4,.9-.9,.9h-7.98c-.22,0-.4,.18-.4,.4s.18,.4,.4,.4h6.62v8.28c0,.97-.79,1.76-1.77,1.76h-8.49c-.22,0-.4,.18-.4,.4s.18,.4,.4,.4h8.49c.68,0,1.3-.27,1.76-.7v1.89c0,.97-.78,1.76-1.73,1.76h-18.91c-1.12,0-1.65-.68-1.68-1.38v-.15c.03-.7,.56-1.42,1.68-1.42h1.69s.09,.02,.13,.02,.09,0,.13-.02h6.59c.22,0,.4-.18,.4-.4s-.18-.4-.4-.4h-6.32v-21.94l16.67-.02c.47,0,.91,.18,1.25,.52,.33,.33,.52,.77,.52,1.24v.49h-14.6c-.94,0-1.71,.77-1.71,1.71v6.25c0,.94,.77,1.71,1.71,1.71h6.13c.22,0,.4-.18,.4-.4s-.18-.4-.4-.4h-6.13c-.5,0-.9-.4-.9-.9v-6.25c0-.5,.4-.9,.9-.9h15.97c.5,0,.9,.4,.9,.9v6.25Z"/><path class="cls-4" d="M52.54,316.86c-.39,0-.73,.13-1,.41-.28,.29-.39,.65-.39,1.05s.11,.77,.39,1.06c.27,.28,.61,.42,1,.42s.73-.13,1-.42c.27-.29,.39-.65,.39-1.05s-.11-.76-.39-1.05c-.27-.28-.6-.42-.99-.42Zm.46,2.07c-.12,.15-.27,.22-.46,.22s-.34-.07-.46-.22c-.13-.17-.18-.39-.18-.6s.05-.42,.18-.59c.12-.14,.27-.22,.46-.22s.34,.07,.46,.22c.13,.17,.18,.38,.18,.6s-.05,.42-.18,.59Z"/><path class="cls-4" d="M45.87,319.23c-.07-.07-.15-.1-.24-.1h-.64v-.43h.56c.09,0,.18-.03,.25-.1,.06-.06,.1-.14,.1-.23s-.03-.17-.1-.23-.15-.1-.24-.1h-.56v-.42h.63c.09,0,.17-.03,.23-.1h0c.06-.07,.09-.15,.09-.24s-.03-.17-.1-.23c-.06-.07-.14-.1-.23-.1h-.99c-.1,0-.19,.04-.26,.11-.07,.07-.11,.16-.11,.26v2.11c0,.1,.03,.19,.11,.26,.07,.07,.16,.1,.26,.1h1c.09,0,.17-.03,.24-.09,.06-.06,.1-.14,.1-.23,0-.05,0-.09-.03-.13-.02-.04-.04-.07-.07-.1Z"/><path class="cls-4" d="M58.82,318.28l.76-.74c.07-.07,.11-.16,.11-.26s-.04-.18-.1-.25c-.07-.07-.15-.1-.25-.1-.11,0-.2,.06-.27,.13l-.83,.88v-.66c0-.1-.04-.18-.11-.25-.07-.07-.16-.11-.25-.11s-.19,.04-.26,.11c-.07,.07-.11,.15-.11,.25v2.18c0,.1,.04,.19,.11,.26,.07,.07,.15,.11,.25,.11s.19-.04,.26-.11c.07-.07,.1-.16,.1-.26v-.8l.94,1.03c.08,.08,.17,.13,.28,.13,.1,0,.19-.03,.25-.1,.07-.07,.1-.16,.1-.26s-.04-.18-.1-.25l-.89-.93Z"/><path class="cls-4" d="M55.64,316.9c-.39,0-.73,.13-1,.41-.28,.29-.39,.65-.39,1.05s.11,.77,.39,1.06c.27,.28,.61,.42,1,.42s.73-.13,1-.42c.27-.29,.39-.65,.39-1.05s-.12-.76-.39-1.05c-.27-.28-.6-.42-.99-.42Zm.46,2.07c-.12,.15-.27,.22-.46,.22s-.34-.07-.46-.22c-.14-.17-.18-.39-.18-.6s.05-.42,.18-.59c.12-.15,.27-.22,.46-.22s.34,.07,.46,.22c.13,.17,.18,.38,.18,.6,0,.21-.05,.42-.18,.59Z"/><path class="cls-4" d="M50.37,318.24s.07-.05,.1-.08c.05-.05,.08-.12,.11-.18,.03-.08,.04-.17,.04-.25,0-.22-.08-.41-.24-.56-.18-.16-.41-.21-.64-.21h-.65c-.1,0-.19,.03-.26,.1-.07,.07-.11,.16-.11,.26v2.1c0,.1,.03,.2,.11,.27,.07,.07,.17,.1,.27,.1h.84c.25,0,.48-.07,.66-.24,.18-.17,.26-.38,.26-.62,0-.35-.16-.58-.47-.69Zm-.94-.64h.24c.06,0,.12,.02,.16,.06,.04,.04,.07,.09,.07,.15s-.02,.11-.07,.15c-.05,.04-.1,.06-.17,.06h-.23v-.42h0Zm.6,1.47c-.05,.05-.11,.07-.18,.07h-.42v-.48h.43c.07,0,.13,.02,.18,.07,.05,.05,.07,.11,.07,.18,0,.07-.03,.12-.07,.16Z"/><path class="cls-4" d="M47.58,318.11h-.49c-.18,0-.33,.15-.33,.33s.15,.33,.33,.33h.49c.18,0,.33-.15,.33-.33s-.15-.33-.33-.33Z"/></g><g><path class="cls-3" d="M61.33,135.06c-.46-.45-1.08-.73-1.78-.73h-14.9c-1.39,0-2.52,1.13-2.52,2.52v.92c0,1.39,1.13,2.52,2.52,2.52h14.9c1.39,0,2.52-1.13,2.52-2.52v-.92c0-.7-.29-1.33-.75-1.79Z"/><path class="cls-3" d="M37.31,134.33h-.92c-1.39,0-2.52,1.13-2.52,2.52v.92c0,1.39,1.13,2.52,2.52,2.52h.92c1.39,0,2.52-1.13,2.52-2.52v-.92c0-.7-.28-1.33-.74-1.78-.46-.46-1.09-.74-1.78-.74Z"/><path class="cls-3" d="M59.55,142.59h-14.9c-1.39,0-2.52,1.13-2.52,2.52v.92c0,1.39,1.13,2.52,2.52,2.52h14.9c1.39,0,2.52-1.13,2.52-2.52v-.92c0-.7-.29-1.33-.75-1.79-.46-.45-1.08-.73-1.78-.73Z"/><path class="cls-3" d="M37.31,142.59h-.92c-1.39,0-2.52,1.13-2.52,2.52v.92c0,1.39,1.13,2.52,2.52,2.52h.92c1.39,0,2.52-1.13,2.52-2.52v-.92c0-.7-.28-1.33-.74-1.78-.46-.46-1.09-.74-1.78-.74Z"/><path class="cls-3" d="M59.55,150.84h-14.9c-1.39,0-2.52,1.13-2.52,2.52v.92c0,1.39,1.13,2.52,2.52,2.52h14.9c1.39,0,2.52-1.13,2.52-2.52v-.92c0-.7-.29-1.33-.75-1.79-.46-.45-1.08-.73-1.78-.73Z"/><path class="cls-3" d="M37.31,150.84h-.92c-1.39,0-2.52,1.13-2.52,2.52v.92c0,1.39,1.13,2.52,2.52,2.52h.92c1.39,0,2.52-1.13,2.52-2.52v-.92c0-.7-.28-1.33-.74-1.78-.46-.46-1.09-.74-1.78-.74Z"/></g></g></g></g></svg>