<?xml version="1.0" encoding="UTF-8"?><svg id="Capa_2" xmlns="http://www.w3.org/2000/svg" viewBox="0 0 17.22 85.19"><defs><style>.cls-1{fill:#fff;}.cls-2{fill:#ff9926;}</style></defs><g id="Capa_1-2"><g><path class="cls-2" d="M-22.13,33.98H39.36c6.54,0,11.85,5.31,11.85,11.85v5.38H-33.98v-5.38c0-6.54,5.31-11.85,11.85-11.85Z" transform="translate(51.21 33.98) rotate(90)"/><g><polygon class="cls-1" points="6.5 43.75 10.04 37.02 13.44 37.02 12.36 39.09 9.9 43.75 12.26 48.23 13.44 50.47 10.04 50.47 10.04 50.46 6.5 43.75"/><polygon class="cls-1" points="1.54 43.75 5.09 37.02 8.49 37.02 8.49 37.03 8.44 37.12 4.95 43.75 8.49 50.47 5.09 50.47 1.6 43.85 1.54 43.75"/></g></g></g></svg>