<?xml version="1.0" encoding="UTF-8"?><svg id="Capa_2" xmlns="http://www.w3.org/2000/svg" viewBox="0 0 934 282"><defs><style>.cls-1{fill:#1b5f99;}.cls-2{fill:#5d5d62;}.cls-3{fill:#fff;opacity:.85;stroke:#1b5f99;stroke-miterlimit:10;stroke-width:3px;}</style></defs><g id="Capa_1-2"><rect class="cls-3" x="1.5" y="1.5" width="931" height="279" rx="20" ry="20"/><g><path class="cls-2" d="M152.76,136.8v-19.35h2.41v19.35h-2.41Z"/><path class="cls-2" d="M169.06,136.8v-9.17c0-2.47-1.25-3.25-3.13-3.25-1.71,0-3.34,1.04-4.15,2.18v10.24h-2.18v-14.01h2.18v2.03c.99-1.16,2.9-2.38,4.99-2.38,2.93,0,4.47,1.48,4.47,4.53v9.83h-2.18Z"/><path class="cls-2" d="M183.5,133.87v-9.17h-2.32v-1.91h2.32v-3.83h2.18v3.83h2.84v1.91h-2.84v8.7c0,1.04,.46,1.8,1.42,1.8,.61,0,1.19-.26,1.48-.58l.64,1.62c-.55,.52-1.33,.9-2.61,.9-2.06,0-3.1-1.19-3.1-3.28Z"/><path class="cls-2" d="M201.08,136.8v-9.22c0-2.46-1.28-3.19-3.16-3.19-1.68,0-3.31,1.04-4.15,2.18v10.24h-2.18v-19.35h2.18v7.37c.99-1.16,2.9-2.38,5.02-2.38,2.93,0,4.47,1.42,4.47,4.47v9.89h-2.18Z"/><path class="cls-2" d="M207.22,118.96c0-.81,.67-1.45,1.45-1.45s1.48,.64,1.48,1.45-.67,1.48-1.48,1.48-1.45-.67-1.45-1.48Zm.38,17.84v-14.01h2.18v14.01h-2.18Z"/><path class="cls-2" d="M214.04,133.38c.93,1.07,2.7,2,4.61,2,2.15,0,3.31-.96,3.31-2.32,0-1.54-1.71-2.03-3.6-2.49-2.38-.55-5.08-1.19-5.08-4.09,0-2.18,1.89-4.03,5.22-4.03,2.38,0,4.06,.9,5.19,2.03l-1.01,1.51c-.84-1.02-2.38-1.77-4.18-1.77-1.91,0-3.1,.87-3.1,2.12,0,1.36,1.6,1.8,3.42,2.23,2.44,.55,5.25,1.25,5.25,4.35,0,2.35-1.88,4.23-5.51,4.23-2.29,0-4.24-.7-5.66-2.2l1.13-1.57Z"/><path class="cls-2" d="M235.27,124.85s-.78-5.95-.78-6.35c0-.72,.58-1.33,1.31-1.33s1.33,.61,1.33,1.33c0,.41-.78,6.35-.78,6.35h-1.07Zm4.21,0s-.78-5.95-.78-6.35c0-.72,.58-1.33,1.33-1.33s1.3,.61,1.3,1.33c0,.41-.78,6.35-.78,6.35h-1.07Z"/><path class="cls-2" d="M254.21,117.14c3.42,0,5.8,1.51,7.51,3.63l-1.91,1.19c-1.22-1.57-3.28-2.67-5.6-2.67-4.24,0-7.46,3.25-7.46,7.86s3.22,7.89,7.46,7.89c2.32,0,4.24-1.13,5.19-2.09v-3.95h-6.64v-2.15h9.05v6.99c-1.8,2-4.44,3.34-7.6,3.34-5.51,0-9.95-4.03-9.95-10.04s4.44-10.01,9.95-10.01Z"/><path class="cls-2" d="M265.63,136.8v-19.35h2.18v19.35h-2.18Z"/><path class="cls-2" d="M271.34,129.78c0-4.06,2.67-7.34,6.93-7.34s6.93,3.28,6.93,7.34-2.67,7.37-6.93,7.37-6.93-3.31-6.93-7.37Zm11.57,0c0-2.84-1.65-5.4-4.64-5.4s-4.67,2.55-4.67,5.4,1.68,5.42,4.67,5.42,4.64-2.55,4.64-5.42Z"/><path class="cls-2" d="M288.65,133.38c.93,1.07,2.7,2,4.61,2,2.15,0,3.31-.96,3.31-2.32,0-1.54-1.71-2.03-3.6-2.49-2.38-.55-5.08-1.19-5.08-4.09,0-2.18,1.88-4.03,5.22-4.03,2.38,0,4.06,.9,5.19,2.03l-1.01,1.51c-.84-1.02-2.38-1.77-4.18-1.77-1.91,0-3.1,.87-3.1,2.12,0,1.36,1.6,1.8,3.42,2.23,2.44,.55,5.25,1.25,5.25,4.35,0,2.35-1.88,4.23-5.51,4.23-2.29,0-4.24-.7-5.66-2.2l1.13-1.57Z"/><path class="cls-2" d="M302.14,133.38c.93,1.07,2.7,2,4.61,2,2.15,0,3.31-.96,3.31-2.32,0-1.54-1.71-2.03-3.6-2.49-2.38-.55-5.08-1.19-5.08-4.09,0-2.18,1.89-4.03,5.22-4.03,2.38,0,4.06,.9,5.19,2.03l-1.02,1.51c-.84-1.02-2.38-1.77-4.18-1.77-1.92,0-3.1,.87-3.1,2.12,0,1.36,1.59,1.8,3.42,2.23,2.44,.55,5.25,1.25,5.25,4.35,0,2.35-1.89,4.23-5.51,4.23-2.29,0-4.23-.7-5.66-2.2l1.13-1.57Z"/><path class="cls-2" d="M324.47,136.8v-1.6c-1.16,1.28-2.76,1.94-4.64,1.94-2.38,0-4.9-1.59-4.9-4.64s2.52-4.61,4.9-4.61c1.91,0,3.51,.61,4.64,1.92v-2.52c0-1.89-1.51-2.96-3.54-2.96-1.68,0-3.05,.61-4.29,1.94l-1.02-1.51c1.51-1.57,3.31-2.32,5.6-2.32,2.96,0,5.42,1.33,5.42,4.73v9.63h-2.17Zm0-5.6c-.84-1.16-2.32-1.74-3.86-1.74-2.03,0-3.45,1.28-3.45,3.08s1.42,3.04,3.45,3.04c1.54,0,3.02-.58,3.86-1.74v-2.64Z"/><path class="cls-2" d="M330.99,136.8v-14.01h2.18v2.26c1.13-1.48,2.75-2.55,4.67-2.55v2.23c-.26-.06-.52-.09-.87-.09-1.33,0-3.16,1.1-3.8,2.23v9.92h-2.18Z"/><path class="cls-2" d="M340.13,140.31c.32,.14,.84,.23,1.19,.23,.96,0,1.6-.32,2.09-1.48l.93-2.12-5.86-14.15h2.35l4.67,11.49,4.64-11.49h2.38l-7.02,16.85c-.84,2.03-2.26,2.81-4.12,2.84-.46,0-1.19-.09-1.6-.2l.35-1.97Z"/><path class="cls-2" d="M354.95,124.85s-.78-5.95-.78-6.35c0-.72,.58-1.33,1.31-1.33s1.33,.61,1.33,1.33c0,.41-.78,6.35-.78,6.35h-1.07Zm4.21,0s-.78-5.95-.78-6.35c0-.72,.58-1.33,1.33-1.33s1.31,.61,1.31,1.33c0,.41-.78,6.35-.78,6.35h-1.07Z"/><path class="cls-2" d="M372.2,136.8v-19.35h2.17v7.46c1.13-1.54,2.81-2.47,4.73-2.47,3.66,0,6.24,2.9,6.24,7.37s-2.58,7.34-6.24,7.34c-1.97,0-3.68-1.01-4.73-2.44v2.09h-2.17Zm2.17-3.8c.75,1.22,2.47,2.2,4.18,2.2,2.84,0,4.52-2.29,4.52-5.39s-1.68-5.42-4.52-5.42c-1.71,0-3.42,1.04-4.18,2.26v6.35Z"/><path class="cls-2" d="M398.33,136.8v-1.97c-1.07,1.22-2.9,2.32-4.99,2.32-2.93,0-4.47-1.42-4.47-4.47v-9.89h2.18v9.22c0,2.47,1.25,3.19,3.13,3.19,1.71,0,3.34-.99,4.15-2.12v-10.3h2.18v14.01h-2.18Z"/><path class="cls-2" d="M405.29,133.87v-9.17h-2.32v-1.91h2.32v-3.83h2.18v3.83h2.84v1.91h-2.84v8.7c0,1.04,.46,1.8,1.42,1.8,.61,0,1.19-.26,1.48-.58l.64,1.62c-.55,.52-1.33,.9-2.61,.9-2.06,0-3.1-1.19-3.1-3.28Z"/><path class="cls-2" d="M413.82,133.87v-9.17h-2.32v-1.91h2.32v-3.83h2.18v3.83h2.84v1.91h-2.84v8.7c0,1.04,.46,1.8,1.42,1.8,.61,0,1.19-.26,1.48-.58l.64,1.62c-.55,.52-1.33,.9-2.61,.9-2.06,0-3.1-1.19-3.1-3.28Z"/><path class="cls-2" d="M421.09,129.78c0-4.06,2.67-7.34,6.93-7.34s6.93,3.28,6.93,7.34-2.67,7.37-6.93,7.37-6.93-3.31-6.93-7.37Zm11.57,0c0-2.84-1.65-5.4-4.64-5.4s-4.67,2.55-4.67,5.4,1.68,5.42,4.67,5.42,4.64-2.55,4.64-5.42Z"/><path class="cls-2" d="M447.95,136.8v-9.17c0-2.47-1.25-3.25-3.13-3.25-1.71,0-3.34,1.04-4.15,2.18v10.24h-2.17v-14.01h2.17v2.03c.99-1.16,2.9-2.38,4.99-2.38,2.93,0,4.47,1.48,4.47,4.53v9.83h-2.18Z"/><path class="cls-2" d="M453.95,139.59c.93-.61,1.77-1.74,1.88-2.7-.06,.03-.26,.06-.41,.06-.81,0-1.39-.61-1.39-1.48s.67-1.57,1.54-1.57c.96,0,1.83,.81,1.83,2.2,0,1.77-1.04,3.42-2.38,4.38l-1.07-.9Z"/><path class="cls-2" d="M468.19,140.31c.32,.14,.84,.23,1.19,.23,.96,0,1.6-.32,2.09-1.48l.93-2.12-5.86-14.15h2.35l4.67,11.49,4.64-11.49h2.38l-7.02,16.85c-.84,2.03-2.26,2.81-4.12,2.84-.46,0-1.19-.09-1.59-.2l.35-1.97Z"/><path class="cls-2" d="M482.02,129.78c0-4.06,2.67-7.34,6.93-7.34s6.93,3.28,6.93,7.34-2.67,7.37-6.93,7.37-6.93-3.31-6.93-7.37Zm11.57,0c0-2.84-1.65-5.4-4.64-5.4s-4.67,2.55-4.67,5.4,1.68,5.42,4.67,5.42,4.64-2.55,4.64-5.42Z"/><path class="cls-2" d="M508.88,136.8v-1.97c-1.07,1.22-2.9,2.32-4.99,2.32-2.93,0-4.47-1.42-4.47-4.47v-9.89h2.18v9.22c0,2.47,1.25,3.19,3.13,3.19,1.71,0,3.34-.99,4.15-2.12v-10.3h2.18v14.01h-2.18Z"/><path class="cls-2" d="M529.06,122.44c2.55,0,4.06,1.04,5.13,2.44l-1.45,1.33c-.93-1.28-2.12-1.83-3.57-1.83-2.99,0-4.84,2.29-4.84,5.4s1.86,5.42,4.84,5.42c1.45,0,2.64-.58,3.57-1.83l1.45,1.33c-1.07,1.39-2.58,2.44-5.13,2.44-4.18,0-6.99-3.19-6.99-7.37s2.81-7.34,6.99-7.34Z"/><path class="cls-2" d="M546,136.8v-1.6c-1.16,1.28-2.76,1.94-4.64,1.94-2.38,0-4.9-1.59-4.9-4.64s2.52-4.61,4.9-4.61c1.92,0,3.51,.61,4.64,1.92v-2.52c0-1.89-1.51-2.96-3.54-2.96-1.68,0-3.05,.61-4.29,1.94l-1.02-1.51c1.51-1.57,3.31-2.32,5.6-2.32,2.96,0,5.42,1.33,5.42,4.73v9.63h-2.17Zm0-5.6c-.84-1.16-2.32-1.74-3.86-1.74-2.03,0-3.45,1.28-3.45,3.08s1.42,3.04,3.45,3.04c1.54,0,3.02-.58,3.86-1.74v-2.64Z"/><path class="cls-2" d="M561.98,136.8v-9.17c0-2.47-1.25-3.25-3.13-3.25-1.71,0-3.34,1.04-4.15,2.18v10.24h-2.18v-14.01h2.18v2.03c.99-1.16,2.9-2.38,4.99-2.38,2.93,0,4.47,1.48,4.47,4.53v9.83h-2.17Z"/><path class="cls-2" d="M578.77,136.8h-2.18v-12.1h-2.32v-1.91h2.32v-1.07c0-2.9,1.62-4.55,4.06-4.55,.81,0,1.57,.15,2.12,.49l-.55,1.65c-.32-.2-.7-.35-1.25-.35-1.42,0-2.2,.99-2.2,2.76v1.07h2.84v1.91h-2.84v12.1Zm5.05-17.84c0-.81,.67-1.45,1.45-1.45s1.48,.64,1.48,1.45-.67,1.48-1.48,1.48-1.45-.67-1.45-1.48Zm.38,17.84v-14.01h2.18v14.01h-2.18Z"/><path class="cls-2" d="M600.2,136.8v-9.17c0-2.47-1.25-3.25-3.13-3.25-1.71,0-3.34,1.04-4.15,2.18v10.24h-2.17v-14.01h2.17v2.03c.99-1.16,2.9-2.38,4.99-2.38,2.93,0,4.47,1.48,4.47,4.53v9.83h-2.18Z"/><path class="cls-2" d="M616.87,136.8v-2.09c-1.04,1.42-2.75,2.44-4.73,2.44-3.66,0-6.24-2.78-6.24-7.34s2.55-7.37,6.24-7.37c1.88,0,3.6,.93,4.73,2.47v-7.46h2.18v19.35h-2.18Zm0-10.15c-.78-1.22-2.47-2.26-4.21-2.26-2.81,0-4.5,2.32-4.5,5.42s1.68,5.39,4.5,5.39c1.74,0,3.42-.99,4.21-2.2v-6.35Z"/><path class="cls-2" d="M637.06,122.44c2.55,0,4.06,1.04,5.13,2.44l-1.45,1.33c-.93-1.28-2.12-1.83-3.57-1.83-2.99,0-4.84,2.29-4.84,5.4s1.86,5.42,4.84,5.42c1.45,0,2.64-.58,3.57-1.83l1.45,1.33c-1.07,1.39-2.58,2.44-5.13,2.44-4.18,0-6.99-3.19-6.99-7.37s2.81-7.34,6.99-7.34Z"/><path class="cls-2" d="M644.42,129.78c0-4.06,2.67-7.34,6.93-7.34s6.93,3.28,6.93,7.34-2.67,7.37-6.93,7.37-6.93-3.31-6.93-7.37Zm11.57,0c0-2.84-1.65-5.4-4.64-5.4s-4.67,2.55-4.67,5.4,1.68,5.42,4.67,5.42,4.64-2.55,4.64-5.42Z"/><path class="cls-2" d="M671.28,136.8v-1.97c-1.07,1.22-2.9,2.32-4.99,2.32-2.93,0-4.47-1.42-4.47-4.47v-9.89h2.18v9.22c0,2.47,1.25,3.19,3.13,3.19,1.71,0,3.33-.99,4.15-2.12v-10.3h2.18v14.01h-2.18Z"/><path class="cls-2" d="M677.8,136.8v-14.01h2.18v2.26c1.13-1.48,2.76-2.55,4.67-2.55v2.23c-.26-.06-.52-.09-.87-.09-1.33,0-3.16,1.1-3.8,2.23v9.92h-2.18Z"/><path class="cls-2" d="M687.28,133.38c.93,1.07,2.7,2,4.61,2,2.15,0,3.31-.96,3.31-2.32,0-1.54-1.71-2.03-3.6-2.49-2.38-.55-5.08-1.19-5.08-4.09,0-2.18,1.89-4.03,5.22-4.03,2.38,0,4.06,.9,5.19,2.03l-1.01,1.51c-.84-1.02-2.38-1.77-4.18-1.77-1.92,0-3.1,.87-3.1,2.12,0,1.36,1.6,1.8,3.42,2.23,2.44,.55,5.25,1.25,5.25,4.35,0,2.35-1.89,4.23-5.51,4.23-2.29,0-4.24-.7-5.66-2.2l1.13-1.57Z"/><path class="cls-2" d="M706.95,122.44c4.23,0,6.73,3.31,6.73,7.51v.55h-11.34c.17,2.64,2.03,4.84,5.05,4.84,1.6,0,3.22-.64,4.32-1.77l1.04,1.42c-1.39,1.39-3.28,2.15-5.57,2.15-4.15,0-7.14-2.99-7.14-7.37,0-4.06,2.9-7.34,6.9-7.34Zm-4.61,6.47h9.2c-.03-2.09-1.42-4.67-4.61-4.67-2.99,0-4.47,2.52-4.58,4.67Z"/><path class="cls-2" d="M725.1,133.87v-9.17h-2.32v-1.91h2.32v-3.83h2.18v3.83h2.84v1.91h-2.84v8.7c0,1.04,.46,1.8,1.42,1.8,.61,0,1.19-.26,1.48-.58l.64,1.62c-.55,.52-1.33,.9-2.61,.9-2.06,0-3.1-1.19-3.1-3.28Z"/><path class="cls-2" d="M739.28,122.44c4.24,0,6.73,3.31,6.73,7.51v.55h-11.34c.17,2.64,2.03,4.84,5.05,4.84,1.6,0,3.22-.64,4.32-1.77l1.04,1.42c-1.39,1.39-3.28,2.15-5.57,2.15-4.15,0-7.13-2.99-7.13-7.37,0-4.06,2.9-7.34,6.9-7.34Zm-4.61,6.47h9.2c-.03-2.09-1.42-4.67-4.61-4.67-2.99,0-4.47,2.52-4.58,4.67Z"/><path class="cls-2" d="M749.52,136.8v-14.01h2.18v2.26c1.13-1.48,2.75-2.55,4.67-2.55v2.23c-.26-.06-.52-.09-.87-.09-1.33,0-3.16,1.1-3.8,2.23v9.92h-2.18Z"/><path class="cls-2" d="M776,136.8v-9.51c0-1.77-.78-2.9-2.58-2.9-1.45,0-2.99,1.04-3.71,2.15v10.27h-2.17v-9.51c0-1.77-.75-2.9-2.58-2.9-1.42,0-2.93,1.04-3.68,2.18v10.24h-2.18v-14.01h2.18v2.03c.58-.9,2.47-2.38,4.53-2.38s3.36,1.16,3.77,2.61c.78-1.28,2.67-2.61,4.7-2.61,2.55,0,3.92,1.42,3.92,4.24v10.12h-2.18Z"/><path class="cls-2" d="M782.43,133.38c.93,1.07,2.7,2,4.61,2,2.15,0,3.31-.96,3.31-2.32,0-1.54-1.71-2.03-3.6-2.49-2.38-.55-5.08-1.19-5.08-4.09,0-2.18,1.89-4.03,5.22-4.03,2.38,0,4.06,.9,5.19,2.03l-1.02,1.51c-.84-1.02-2.38-1.77-4.18-1.77-1.92,0-3.1,.87-3.1,2.12,0,1.36,1.6,1.8,3.42,2.23,2.44,.55,5.25,1.25,5.25,4.35,0,2.35-1.89,4.23-5.51,4.23-2.29,0-4.23-.7-5.66-2.2l1.13-1.57Z"/><path class="cls-2" d="M815.61,136.8l-3.66-11.25-3.66,11.25h-2.18l-4.47-14.01h2.26l3.42,11.17,3.68-11.17h1.86l3.68,11.17,3.42-11.17h2.26l-4.47,14.01h-2.17Z"/><path class="cls-2" d="M824.39,118.96c0-.81,.67-1.45,1.45-1.45s1.48,.64,1.48,1.45-.67,1.48-1.48,1.48-1.45-.67-1.45-1.48Zm.38,17.84v-14.01h2.18v14.01h-2.18Z"/><path class="cls-2" d="M831.73,133.87v-9.17h-2.32v-1.91h2.32v-3.83h2.18v3.83h2.84v1.91h-2.84v8.7c0,1.04,.46,1.8,1.42,1.8,.61,0,1.19-.26,1.48-.58l.64,1.62c-.55,.52-1.33,.9-2.61,.9-2.06,0-3.1-1.19-3.1-3.28Z"/><path class="cls-2" d="M849.31,136.8v-9.22c0-2.46-1.28-3.19-3.16-3.19-1.68,0-3.31,1.04-4.15,2.18v10.24h-2.18v-19.35h2.18v7.37c.99-1.16,2.9-2.38,5.02-2.38,2.93,0,4.47,1.42,4.47,4.47v9.89h-2.17Z"/><path class="cls-2" d="M153.11,168.67v-9.17h-2.32v-1.91h2.32v-3.83h2.18v3.83h2.84v1.91h-2.84v8.7c0,1.04,.46,1.8,1.42,1.8,.61,0,1.19-.26,1.48-.58l.64,1.62c-.55,.52-1.33,.9-2.61,.9-2.06,0-3.1-1.19-3.1-3.28Z"/><path class="cls-2" d="M170.69,171.6v-9.22c0-2.47-1.28-3.19-3.16-3.19-1.68,0-3.31,1.04-4.15,2.18v10.24h-2.18v-19.35h2.18v7.37c.99-1.16,2.9-2.38,5.02-2.38,2.93,0,4.47,1.42,4.47,4.47v9.89h-2.18Z"/><path class="cls-2" d="M183.3,157.24c4.23,0,6.73,3.31,6.73,7.51v.55h-11.34c.17,2.64,2.03,4.84,5.05,4.84,1.6,0,3.22-.64,4.32-1.77l1.04,1.42c-1.39,1.39-3.28,2.15-5.57,2.15-4.15,0-7.14-2.99-7.14-7.37,0-4.06,2.9-7.34,6.9-7.34Zm-4.61,6.47h9.2c-.03-2.09-1.42-4.67-4.61-4.67-2.99,0-4.47,2.52-4.58,4.67Z"/><path class="cls-2" d="M193.16,153.76c0-.81,.67-1.45,1.45-1.45s1.48,.64,1.48,1.45-.67,1.48-1.48,1.48-1.45-.67-1.45-1.48Zm.38,17.84v-14.01h2.18v14.01h-2.18Z"/><path class="cls-2" d="M200.06,171.6v-14.01h2.18v2.26c1.13-1.48,2.75-2.55,4.67-2.55v2.23c-.26-.06-.52-.09-.87-.09-1.33,0-3.16,1.1-3.8,2.23v9.92h-2.18Z"/><path class="cls-2" d="M223.29,157.24c2.55,0,4.06,1.04,5.13,2.44l-1.45,1.33c-.93-1.28-2.12-1.83-3.57-1.83-2.99,0-4.84,2.29-4.84,5.4s1.86,5.42,4.84,5.42c1.45,0,2.64-.58,3.57-1.83l1.45,1.33c-1.07,1.39-2.58,2.44-5.13,2.44-4.18,0-6.99-3.19-6.99-7.37s2.81-7.34,6.99-7.34Z"/><path class="cls-2" d="M230.65,164.58c0-4.06,2.67-7.34,6.93-7.34s6.93,3.28,6.93,7.34-2.67,7.37-6.93,7.37-6.93-3.31-6.93-7.37Zm11.57,0c0-2.84-1.65-5.4-4.64-5.4s-4.67,2.55-4.67,5.4,1.68,5.42,4.67,5.42,4.64-2.55,4.64-5.42Z"/><path class="cls-2" d="M248.05,171.6v-14.01h2.18v2.26c1.13-1.48,2.75-2.55,4.67-2.55v2.23c-.26-.06-.52-.09-.87-.09-1.33,0-3.16,1.1-3.8,2.23v9.92h-2.18Z"/><path class="cls-2" d="M257.62,171.6v-14.01h2.18v2.26c1.13-1.48,2.75-2.55,4.67-2.55v2.23c-.26-.06-.52-.09-.87-.09-1.33,0-3.16,1.1-3.8,2.23v9.92h-2.18Z"/><path class="cls-2" d="M273.29,157.24c4.23,0,6.73,3.31,6.73,7.51v.55h-11.34c.17,2.64,2.03,4.84,5.05,4.84,1.59,0,3.22-.64,4.32-1.77l1.04,1.42c-1.39,1.39-3.28,2.15-5.57,2.15-4.15,0-7.14-2.99-7.14-7.37,0-4.06,2.9-7.34,6.9-7.34Zm-4.61,6.47h9.2c-.03-2.09-1.42-4.67-4.61-4.67-2.99,0-4.47,2.52-4.58,4.67Z"/><path class="cls-2" d="M283.43,168.18c.93,1.07,2.7,2,4.61,2,2.15,0,3.31-.96,3.31-2.32,0-1.54-1.71-2.03-3.6-2.5-2.38-.55-5.08-1.19-5.08-4.09,0-2.18,1.89-4.03,5.22-4.03,2.38,0,4.06,.9,5.19,2.03l-1.02,1.51c-.84-1.02-2.38-1.77-4.18-1.77-1.91,0-3.1,.87-3.1,2.12,0,1.36,1.59,1.8,3.42,2.23,2.44,.55,5.25,1.25,5.25,4.35,0,2.35-1.89,4.24-5.51,4.24-2.29,0-4.23-.7-5.66-2.21l1.13-1.57Z"/><path class="cls-2" d="M299.18,176.94h-2.18v-19.35h2.18v2.09c1.02-1.42,2.76-2.44,4.73-2.44,3.68,0,6.24,2.79,6.24,7.34s-2.55,7.37-6.24,7.37c-1.92,0-3.6-.9-4.73-2.47v7.45Zm4.18-17.75c-1.71,0-3.42,1.02-4.18,2.23v6.32c.75,1.22,2.47,2.26,4.18,2.26,2.81,0,4.5-2.32,4.5-5.42s-1.68-5.4-4.5-5.4Z"/><path class="cls-2" d="M312.84,164.58c0-4.06,2.67-7.34,6.93-7.34s6.93,3.28,6.93,7.34-2.67,7.37-6.93,7.37-6.93-3.31-6.93-7.37Zm11.57,0c0-2.84-1.65-5.4-4.64-5.4s-4.67,2.55-4.67,5.4,1.68,5.42,4.67,5.42,4.64-2.55,4.64-5.42Z"/><path class="cls-2" d="M339.7,171.6v-9.17c0-2.47-1.25-3.25-3.13-3.25-1.71,0-3.34,1.04-4.15,2.18v10.24h-2.18v-14.01h2.18v2.03c.99-1.16,2.9-2.38,4.99-2.38,2.93,0,4.47,1.48,4.47,4.53v9.83h-2.17Z"/><path class="cls-2" d="M356.37,171.6v-2.09c-1.04,1.42-2.76,2.44-4.73,2.44-3.65,0-6.24-2.79-6.24-7.34s2.55-7.37,6.24-7.37c1.89,0,3.6,.93,4.73,2.47v-7.46h2.17v19.35h-2.17Zm0-10.15c-.78-1.22-2.47-2.26-4.21-2.26-2.81,0-4.5,2.32-4.5,5.42s1.68,5.4,4.5,5.4c1.74,0,3.42-.99,4.21-2.21v-6.35Z"/><path class="cls-2" d="M362.52,153.76c0-.81,.67-1.45,1.45-1.45s1.48,.64,1.48,1.45-.67,1.48-1.48,1.48-1.45-.67-1.45-1.48Zm.38,17.84v-14.01h2.18v14.01h-2.18Z"/><path class="cls-2" d="M378.87,171.6v-9.17c0-2.47-1.25-3.25-3.13-3.25-1.71,0-3.33,1.04-4.15,2.18v10.24h-2.18v-14.01h2.18v2.03c.99-1.16,2.9-2.38,4.99-2.38,2.93,0,4.47,1.48,4.47,4.53v9.83h-2.18Z"/><path class="cls-2" d="M386.47,173.58c1.16,1.39,2.55,1.92,4.55,1.92,2.32,0,4.5-1.13,4.5-4.21v-2c-1.02,1.42-2.73,2.5-4.7,2.5-3.65,0-6.24-2.73-6.24-7.25s2.55-7.28,6.24-7.28c1.89,0,3.57,.93,4.7,2.47v-2.12h2.18v13.6c0,4.64-3.25,6.09-6.67,6.09-2.38,0-4-.46-5.66-2.09l1.1-1.62Zm9.05-12.12c-.75-1.22-2.44-2.26-4.18-2.26-2.81,0-4.5,2.23-4.5,5.34s1.68,5.34,4.5,5.34c1.74,0,3.42-1.07,4.18-2.29v-6.12Z"/><path class="cls-2" d="M419.68,171.6v-2.09c-1.04,1.42-2.76,2.44-4.73,2.44-3.66,0-6.24-2.79-6.24-7.34s2.55-7.37,6.24-7.37c1.88,0,3.6,.93,4.73,2.47v-7.46h2.18v19.35h-2.18Zm0-10.15c-.78-1.22-2.46-2.26-4.21-2.26-2.81,0-4.5,2.32-4.5,5.42s1.68,5.4,4.5,5.4c1.74,0,3.42-.99,4.21-2.21v-6.35Z"/><path class="cls-2" d="M432.29,157.24c4.24,0,6.73,3.31,6.73,7.51v.55h-11.34c.17,2.64,2.03,4.84,5.05,4.84,1.6,0,3.22-.64,4.32-1.77l1.04,1.42c-1.39,1.39-3.28,2.15-5.57,2.15-4.15,0-7.14-2.99-7.14-7.37,0-4.06,2.9-7.34,6.9-7.34Zm-4.61,6.47h9.2c-.03-2.09-1.42-4.67-4.61-4.67-2.99,0-4.47,2.52-4.58,4.67Z"/><path class="cls-2" d="M445.31,171.6h-2.17v-12.1h-2.32v-1.91h2.32v-1.07c0-2.9,1.62-4.55,4.06-4.55,.81,0,1.57,.15,2.12,.49l-.55,1.65c-.32-.2-.7-.35-1.25-.35-1.42,0-2.21,.99-2.21,2.76v1.07h2.84v1.91h-2.84v12.1Zm5.05-17.84c0-.81,.67-1.45,1.45-1.45s1.48,.64,1.48,1.45-.67,1.48-1.48,1.48-1.45-.67-1.45-1.48Zm.38,17.84v-14.01h2.18v14.01h-2.18Z"/><path class="cls-2" d="M466.74,171.6v-9.17c0-2.47-1.25-3.25-3.13-3.25-1.71,0-3.34,1.04-4.15,2.18v10.24h-2.17v-14.01h2.17v2.03c.99-1.16,2.9-2.38,4.99-2.38,2.93,0,4.47,1.48,4.47,4.53v9.83h-2.18Z"/><path class="cls-2" d="M472.89,153.76c0-.81,.67-1.45,1.45-1.45s1.48,.64,1.48,1.45-.67,1.48-1.48,1.48-1.45-.67-1.45-1.48Zm.38,17.84v-14.01h2.18v14.01h-2.18Z"/><path class="cls-2" d="M480.22,168.67v-9.17h-2.32v-1.91h2.32v-3.83h2.18v3.83h2.84v1.91h-2.84v8.7c0,1.04,.46,1.8,1.42,1.8,.61,0,1.19-.26,1.48-.58l.64,1.62c-.55,.52-1.33,.9-2.61,.9-2.06,0-3.1-1.19-3.1-3.28Z"/><path class="cls-2" d="M487.94,153.76c0-.81,.67-1.45,1.45-1.45s1.48,.64,1.48,1.45-.67,1.48-1.48,1.48-1.45-.67-1.45-1.48Zm.38,17.84v-14.01h2.18v14.01h-2.18Z"/><path class="cls-2" d="M494.03,164.58c0-4.06,2.67-7.34,6.93-7.34s6.93,3.28,6.93,7.34-2.67,7.37-6.93,7.37-6.93-3.31-6.93-7.37Zm11.57,0c0-2.84-1.65-5.4-4.64-5.4s-4.67,2.55-4.67,5.4,1.68,5.42,4.67,5.42,4.64-2.55,4.64-5.42Z"/><path class="cls-2" d="M520.88,171.6v-9.17c0-2.47-1.25-3.25-3.13-3.25-1.71,0-3.33,1.04-4.15,2.18v10.24h-2.18v-14.01h2.18v2.03c.99-1.16,2.9-2.38,4.99-2.38,2.93,0,4.47,1.48,4.47,4.53v9.83h-2.18Z"/><path class="cls-2" d="M528.57,168.7c.87,0,1.59,.73,1.59,1.59s-.72,1.6-1.59,1.6-1.6-.72-1.6-1.6,.73-1.59,1.6-1.59Z"/></g><g><path class="cls-1" d="M122.84,108.43c-.3-.29-.7-.44-1.11-.44-.02,0-.05,0-.08,0l-7.84,.38c-10.24,.49-20.33,2.52-30,6.03-9.67-3.51-19.76-5.54-30-6.03l-7.84-.38s-.05,0-.08,0c-.41,0-.81,.16-1.11,.44-.32,.3-.5,.72-.5,1.16v56.82c0,.43,.18,.85,.49,1.15,.3,.29,.7,.45,1.11,.45h.24c1.84-.07,3.62-.1,5.35-.1,10.5,0,19.12,1.21,28.05,3.88,.35,.1,1.1,.41,1.76,.68,.8,.32,1.55,.63,2.05,.78,.11,.03,.22,.05,.34,.06,.03,0,.05,0,.08,0,.01,0,.03,0,.04,0,0,0,.01,0,.02,0,0,0,.01,0,.02,0,.02,0,.03,0,.05,0,.03,0,.05,0,.08,0,.11,0,.23-.02,.34-.06,.49-.15,1.25-.45,2.05-.78,.66-.27,1.41-.57,1.76-.68,8.92-2.67,17.55-3.88,28.05-3.88,1.73,0,3.51,.03,5.35,.1h.18s.05,0,.05,0c.41,0,.81-.16,1.11-.45,.31-.3,.49-.72,.49-1.15v-56.82c0-.44-.18-.86-.5-1.16Zm-40.64,60.94c-.68-.28-1.31-.53-1.74-.66-9.24-2.76-18.14-4.01-28.95-4.01-1.3,0-2.64,.02-4,.05v-53.49l6.17,.3c9.73,.47,19.32,2.37,28.53,5.65v52.16Zm37.94-4.61c-1.36-.04-2.7-.05-4-.05-10.81,0-19.72,1.25-28.95,4.01-.43,.13-1.06,.38-1.74,.66v-52.16c9.21-3.29,18.8-5.19,28.53-5.65l6.17-.3v53.49Z"/><path class="cls-1" d="M126.54,116.15c-.88,0-1.6,.72-1.6,1.6v53.62h-31.37c-.6,0-1.15,.34-1.42,.86-.02,.02-.05,.07-.1,.13-1.49,1.86-3.73,2.92-6.15,2.92h-4.13c-2.42,0-4.66-1.07-6.15-2.92-.05-.07-.08-.11-.1-.13-.27-.53-.82-.86-1.42-.86h-31.37v-53.62c0-.88-.72-1.6-1.6-1.6s-1.6,.72-1.6,1.6v55.22c0,.88,.72,1.6,1.6,1.6h32.17c2.1,2.5,5.18,3.92,8.49,3.92h4.13c3.31,0,6.39-1.43,8.49-3.92h32.17c.88,0,1.6-.72,1.6-1.6v-55.22c0-.88-.72-1.6-1.6-1.6Z"/><path class="cls-1" d="M62.63,146.41h4.38l.7,3.05h4.31l-4.85-18.28h-4.66l-4.85,18.28h4.23l.73-3.05Zm2.14-11.05h.05c.31,2.46,.78,5.04,1.4,7.76h-2.83c.59-2.65,1.05-5.24,1.38-7.76Z"/><polygon class="cls-1" points="108.58 149.47 108.58 145.56 102.77 145.56 109.14 131.18 97.34 131.18 97.34 135.1 102.75 135.1 96.43 149.47 108.58 149.47"/></g></g></svg>