<?xml version="1.0" encoding="UTF-8"?><svg id="Capa_2" xmlns="http://www.w3.org/2000/svg" viewBox="0 0 934 282"><defs><style>.cls-1{fill:#1b5f99;}.cls-2{fill:#5d5d62;}.cls-3{fill:#fff;opacity:.85;stroke:#1b5f99;stroke-miterlimit:10;stroke-width:3px;}</style></defs><g id="Capa_1-2"><rect class="cls-3" x="1.5" y="1.5" width="931" height="279" rx="20" ry="20"/><g><path class="cls-2" d="M159.55,157.84v-17.2h-6.12v-2.15h14.68v2.15h-6.15v17.2h-2.41Z"/><path class="cls-2" d="M176.92,157.84v-1.59c-1.16,1.28-2.76,1.94-4.64,1.94-2.38,0-4.9-1.6-4.9-4.64s2.52-4.61,4.9-4.61c1.92,0,3.51,.61,4.64,1.91v-2.52c0-1.89-1.51-2.96-3.54-2.96-1.68,0-3.05,.61-4.29,1.94l-1.02-1.51c1.51-1.57,3.31-2.32,5.6-2.32,2.96,0,5.42,1.33,5.42,4.73v9.63h-2.18Zm0-5.6c-.84-1.16-2.32-1.74-3.86-1.74-2.03,0-3.45,1.28-3.45,3.07s1.42,3.05,3.45,3.05c1.54,0,3.02-.58,3.86-1.74v-2.64Z"/><path class="cls-2" d="M192.7,157.84l-5.05-6.29-2.32,2.29v4h-2.18v-19.35h2.18v12.79l7.37-7.46h2.76l-6.21,6.35,6.24,7.66h-2.79Z"/><path class="cls-2" d="M203.19,143.48c4.23,0,6.73,3.31,6.73,7.51v.55h-11.34c.17,2.64,2.03,4.84,5.05,4.84,1.6,0,3.22-.64,4.32-1.77l1.04,1.42c-1.39,1.39-3.28,2.15-5.57,2.15-4.15,0-7.14-2.99-7.14-7.37,0-4.06,2.9-7.34,6.9-7.34Zm-4.61,6.47h9.2c-.03-2.09-1.42-4.67-4.61-4.67-2.99,0-4.47,2.52-4.58,4.67Z"/><path class="cls-2" d="M213.05,154.42c.93,1.07,2.7,2,4.61,2,2.15,0,3.31-.96,3.31-2.32,0-1.54-1.71-2.03-3.6-2.5-2.38-.55-5.08-1.19-5.08-4.09,0-2.18,1.89-4.03,5.22-4.03,2.38,0,4.06,.9,5.19,2.03l-1.01,1.51c-.84-1.01-2.38-1.77-4.18-1.77-1.91,0-3.1,.87-3.1,2.12,0,1.36,1.6,1.8,3.42,2.23,2.44,.55,5.25,1.25,5.25,4.35,0,2.35-1.89,4.24-5.51,4.24-2.29,0-4.24-.7-5.66-2.2l1.13-1.57Z"/><path class="cls-2" d="M233.09,161.35c.32,.15,.84,.23,1.19,.23,.96,0,1.6-.32,2.09-1.48l.93-2.12-5.86-14.16h2.35l4.67,11.49,4.64-11.49h2.38l-7.02,16.85c-.84,2.03-2.26,2.81-4.12,2.84-.46,0-1.19-.09-1.59-.2l.35-1.97Z"/><path class="cls-2" d="M246.63,150.82c0-4.06,2.67-7.34,6.93-7.34s6.93,3.28,6.93,7.34-2.67,7.37-6.93,7.37-6.93-3.31-6.93-7.37Zm11.57,0c0-2.84-1.65-5.39-4.64-5.39s-4.67,2.55-4.67,5.39,1.68,5.42,4.67,5.42,4.64-2.55,4.64-5.42Z"/><path class="cls-2" d="M273.2,157.84v-1.97c-1.07,1.22-2.9,2.32-4.99,2.32-2.93,0-4.47-1.42-4.47-4.47v-9.89h2.18v9.22c0,2.46,1.25,3.19,3.13,3.19,1.71,0,3.34-.99,4.15-2.12v-10.3h2.18v14.01h-2.18Z"/><path class="cls-2" d="M286.62,157.84v-19.35h2.18v7.46c1.13-1.54,2.81-2.46,4.73-2.46,3.65,0,6.24,2.9,6.24,7.37s-2.58,7.34-6.24,7.34c-1.97,0-3.68-1.02-4.73-2.44v2.09h-2.18Zm2.18-3.8c.75,1.22,2.47,2.2,4.18,2.2,2.84,0,4.53-2.29,4.53-5.4s-1.68-5.42-4.53-5.42c-1.71,0-3.42,1.04-4.18,2.26v6.35Z"/><path class="cls-2" d="M311.77,157.84v-1.59c-1.16,1.28-2.76,1.94-4.64,1.94-2.38,0-4.9-1.6-4.9-4.64s2.52-4.61,4.9-4.61c1.91,0,3.51,.61,4.64,1.91v-2.52c0-1.89-1.51-2.96-3.54-2.96-1.68,0-3.05,.61-4.29,1.94l-1.02-1.51c1.51-1.57,3.31-2.32,5.6-2.32,2.96,0,5.42,1.33,5.42,4.73v9.63h-2.17Zm0-5.6c-.84-1.16-2.32-1.74-3.86-1.74-2.03,0-3.45,1.28-3.45,3.07s1.42,3.05,3.45,3.05c1.54,0,3.02-.58,3.86-1.74v-2.64Z"/><path class="cls-2" d="M324.18,143.48c2.55,0,4.06,1.04,5.13,2.44l-1.45,1.33c-.93-1.28-2.12-1.83-3.57-1.83-2.99,0-4.84,2.29-4.84,5.39s1.86,5.42,4.84,5.42c1.45,0,2.64-.58,3.57-1.83l1.45,1.33c-1.07,1.39-2.58,2.44-5.13,2.44-4.18,0-6.99-3.19-6.99-7.37s2.81-7.34,6.99-7.34Z"/><path class="cls-2" d="M341.61,157.84l-5.05-6.29-2.32,2.29v4h-2.18v-19.35h2.18v12.79l7.37-7.46h2.75l-6.21,6.35,6.24,7.66h-2.78Z"/><path class="cls-2" d="M354.31,154.91v-9.17h-2.32v-1.91h2.32v-3.83h2.18v3.83h2.84v1.91h-2.84v8.7c0,1.04,.46,1.8,1.42,1.8,.61,0,1.19-.26,1.48-.58l.64,1.62c-.55,.52-1.33,.9-2.61,.9-2.06,0-3.1-1.19-3.1-3.28Z"/><path class="cls-2" d="M361.3,150.82c0-4.06,2.67-7.34,6.93-7.34s6.93,3.28,6.93,7.34-2.67,7.37-6.93,7.37-6.93-3.31-6.93-7.37Zm11.57,0c0-2.84-1.65-5.39-4.64-5.39s-4.67,2.55-4.67,5.39,1.68,5.42,4.67,5.42,4.64-2.55,4.64-5.42Z"/><path class="cls-2" d="M386.03,154.91v-9.17h-2.32v-1.91h2.32v-3.83h2.17v3.83h2.84v1.91h-2.84v8.7c0,1.04,.46,1.8,1.42,1.8,.61,0,1.19-.26,1.48-.58l.64,1.62c-.55,.52-1.33,.9-2.61,.9-2.06,0-3.1-1.19-3.1-3.28Z"/><path class="cls-2" d="M403.32,157.84v-9.22c0-2.47-1.28-3.19-3.16-3.19-1.68,0-3.31,1.04-4.15,2.17v10.24h-2.18v-19.35h2.18v7.37c.99-1.16,2.9-2.38,5.02-2.38,2.93,0,4.47,1.42,4.47,4.47v9.89h-2.18Z"/><path class="cls-2" d="M415.64,143.48c4.24,0,6.73,3.31,6.73,7.51v.55h-11.34c.17,2.64,2.03,4.84,5.05,4.84,1.6,0,3.22-.64,4.32-1.77l1.04,1.42c-1.39,1.39-3.28,2.15-5.57,2.15-4.15,0-7.13-2.99-7.13-7.37,0-4.06,2.9-7.34,6.9-7.34Zm-4.61,6.47h9.2c-.03-2.09-1.42-4.67-4.61-4.67-2.99,0-4.47,2.52-4.58,4.67Z"/><path class="cls-2" d="M442.27,157.84v-9.22c0-2.47-1.28-3.19-3.16-3.19-1.68,0-3.31,1.04-4.15,2.17v10.24h-2.18v-19.35h2.18v7.37c.99-1.16,2.9-2.38,5.02-2.38,2.93,0,4.47,1.42,4.47,4.47v9.89h-2.18Z"/><path class="cls-2" d="M447.69,150.82c0-4.06,2.67-7.34,6.93-7.34s6.93,3.28,6.93,7.34-2.67,7.37-6.93,7.37-6.93-3.31-6.93-7.37Zm11.57,0c0-2.84-1.65-5.39-4.64-5.39s-4.67,2.55-4.67,5.39,1.68,5.42,4.67,5.42,4.64-2.55,4.64-5.42Z"/><path class="cls-2" d="M481.71,157.84v-9.51c0-1.77-.78-2.9-2.58-2.9-1.45,0-2.99,1.04-3.71,2.15v10.27h-2.17v-9.51c0-1.77-.75-2.9-2.58-2.9-1.42,0-2.93,1.04-3.68,2.17v10.24h-2.18v-14.01h2.18v2.03c.58-.9,2.47-2.38,4.52-2.38s3.37,1.16,3.77,2.61c.78-1.28,2.67-2.61,4.7-2.61,2.55,0,3.92,1.42,3.92,4.23v10.12h-2.18Z"/><path class="cls-2" d="M494.03,143.48c4.24,0,6.73,3.31,6.73,7.51v.55h-11.34c.17,2.64,2.03,4.84,5.05,4.84,1.59,0,3.22-.64,4.32-1.77l1.04,1.42c-1.39,1.39-3.28,2.15-5.57,2.15-4.15,0-7.14-2.99-7.14-7.37,0-4.06,2.9-7.34,6.9-7.34Zm-4.61,6.47h9.2c-.03-2.09-1.42-4.67-4.61-4.67-2.99,0-4.47,2.52-4.58,4.67Z"/><path class="cls-2" d="M513.34,163.18h-2.17v-19.35h2.17v2.09c1.02-1.42,2.76-2.44,4.73-2.44,3.68,0,6.24,2.78,6.24,7.34s-2.55,7.37-6.24,7.37c-1.91,0-3.6-.9-4.73-2.47v7.46Zm4.18-17.75c-1.71,0-3.42,1.01-4.18,2.23v6.32c.75,1.22,2.47,2.26,4.18,2.26,2.81,0,4.5-2.32,4.5-5.42s-1.68-5.39-4.5-5.39Z"/><path class="cls-2" d="M536.28,157.84v-1.59c-1.16,1.28-2.76,1.94-4.64,1.94-2.38,0-4.9-1.6-4.9-4.64s2.52-4.61,4.9-4.61c1.91,0,3.51,.61,4.64,1.91v-2.52c0-1.89-1.51-2.96-3.54-2.96-1.68,0-3.04,.61-4.29,1.94l-1.01-1.51c1.51-1.57,3.31-2.32,5.6-2.32,2.96,0,5.42,1.33,5.42,4.73v9.63h-2.18Zm0-5.6c-.84-1.16-2.32-1.74-3.86-1.74-2.03,0-3.45,1.28-3.45,3.07s1.42,3.05,3.45,3.05c1.54,0,3.02-.58,3.86-1.74v-2.64Z"/><path class="cls-2" d="M543.59,159.81c1.16,1.39,2.55,1.92,4.55,1.92,2.32,0,4.5-1.13,4.5-4.21v-2c-1.02,1.42-2.73,2.5-4.7,2.5-3.66,0-6.24-2.73-6.24-7.25s2.55-7.28,6.24-7.28c1.88,0,3.57,.93,4.7,2.46v-2.12h2.18v13.6c0,4.64-3.25,6.09-6.67,6.09-2.38,0-4-.46-5.66-2.09l1.1-1.62Zm9.05-12.12c-.75-1.22-2.44-2.26-4.18-2.26-2.81,0-4.5,2.23-4.5,5.34s1.68,5.34,4.5,5.34c1.74,0,3.42-1.07,4.18-2.29v-6.12Z"/><path class="cls-2" d="M564.96,143.48c4.24,0,6.73,3.31,6.73,7.51v.55h-11.34c.17,2.64,2.03,4.84,5.05,4.84,1.6,0,3.22-.64,4.32-1.77l1.04,1.42c-1.39,1.39-3.28,2.15-5.57,2.15-4.15,0-7.14-2.99-7.14-7.37,0-4.06,2.9-7.34,6.9-7.34Zm-4.61,6.47h9.19c-.03-2.09-1.42-4.67-4.61-4.67-2.99,0-4.47,2.52-4.58,4.67Z"/><path class="cls-2" d="M575.87,154.94c.87,0,1.6,.73,1.6,1.6s-.73,1.6-1.6,1.6-1.6-.73-1.6-1.6,.73-1.6,1.6-1.6Z"/></g><path class="cls-1" d="M128.41,138.88l-38.94-39.2c-.05-.05-.1-.1-.15-.15-4.25-3.82-10.68-3.83-14.95-.03-.05,.05-.1,.1-.15,.15l-39.3,39.22c-1.46,1.46-1.46,3.82,0,5.29,1.46,1.46,3.82,1.46,5.29,0l2.97-2.96v32.27c0,8.24,6.71,14.95,14.95,14.95h13.45c2.06,0,3.74-1.67,3.74-3.74v-30.46h13.08v30.46c0,2.06,1.67,3.74,3.74,3.74h13.08c8.24,0,14.95-6.71,14.95-14.95,0-2.06-1.67-3.74-3.74-3.74s-3.74,1.67-3.74,3.74c0,4.12-3.35,7.47-7.47,7.47h-9.34v-30.46c0-2.06-1.67-3.74-3.74-3.74h-20.56c-2.06,0-3.74,1.67-3.74,3.74v30.46h-9.72c-4.12,0-7.47-3.35-7.47-7.47v-39.62s0-.07,0-.11l28.77-28.71c1.4-1.19,3.45-1.18,4.85,.01l28.42,28.61v21.13c0,2.06,1.67,3.74,3.74,3.74s3.74-1.67,3.74-3.74v-13.61l2.95,2.97c.73,.74,1.69,1.1,2.65,1.1s1.91-.36,2.63-1.09c1.46-1.45,1.47-3.82,.02-5.29Z"/></g></svg>