<?xml version="1.0" encoding="UTF-8"?><svg xmlns="http://www.w3.org/2000/svg" xmlns:xlink="http://www.w3.org/1999/xlink" viewBox="0 0 934 282"><defs><style>.cls-1{fill:#a3bbd2;}.cls-2{fill:#398aca;}.cls-3{fill:#5d5d62;}.cls-4{mix-blend-mode:multiply;}.cls-5{fill:url(#radial-gradient-2);mix-blend-mode:screen;}.cls-6{fill:#fff;opacity:.85;stroke:#1b5f99;stroke-miterlimit:10;stroke-width:3px;}.cls-7{fill:url(#radial-gradient);}.cls-8{isolation:isolate;}</style><radialGradient id="radial-gradient" cx="79.42" cy="124.63" fx="79.42" fy="124.63" r="34.19" gradientTransform="translate(182.47 18.7) rotate(76.72)" gradientUnits="userSpaceOnUse"><stop offset=".64" stop-color="#fff"/><stop offset=".8" stop-color="#fdfdfd"/><stop offset=".85" stop-color="#f6f6f6"/><stop offset=".89" stop-color="#eaeaea"/><stop offset=".93" stop-color="#dad9d9"/><stop offset=".95" stop-color="#c4c3c4"/><stop offset=".98" stop-color="#aaa9a9"/><stop offset="1" stop-color="#8c8a8b"/></radialGradient><radialGradient id="radial-gradient-2" cx="79.42" cy="124.63" fx="79.42" fy="124.63" r="52.13" gradientUnits="userSpaceOnUse"><stop offset=".27" stop-color="#fff"/><stop offset=".32" stop-color="#e6e6e6"/><stop offset=".51" stop-color="#858585"/><stop offset=".67" stop-color="#3e3e3e"/><stop offset=".78" stop-color="#111"/><stop offset=".84" stop-color="#010101"/></radialGradient></defs><g class="cls-8"><g id="Capa_2"><g id="Capa_1-2"><rect class="cls-6" x="1.5" y="1.5" width="931" height="279" rx="20" ry="20"/><g><path class="cls-3" d="M158.55,137.25c1.28,1.42,3.37,2.76,6.09,2.76,3.45,0,4.55-1.86,4.55-3.34,0-2.32-2.35-2.96-4.9-3.65-3.1-.81-6.56-1.68-6.56-5.48,0-3.19,2.84-5.37,6.64-5.37,2.96,0,5.25,.99,6.87,2.7l-1.45,1.77c-1.45-1.59-3.48-2.32-5.6-2.32-2.32,0-3.97,1.25-3.97,3.08,0,1.94,2.23,2.52,4.7,3.19,3.16,.84,6.76,1.83,6.76,5.89,0,2.81-1.91,5.69-7.14,5.69-3.37,0-5.83-1.28-7.43-3.07l1.42-1.83Z"/><path class="cls-3" d="M184.68,141.8v-9.22c0-2.46-1.28-3.19-3.16-3.19-1.68,0-3.31,1.04-4.15,2.18v10.24h-2.18v-19.35h2.18v7.37c.99-1.16,2.9-2.38,5.02-2.38,2.93,0,4.47,1.42,4.47,4.47v9.89h-2.17Z"/><path class="cls-3" d="M190.39,134.78c0-4.06,2.67-7.34,6.93-7.34s6.93,3.28,6.93,7.34-2.67,7.37-6.93,7.37-6.93-3.31-6.93-7.37Zm11.57,0c0-2.84-1.65-5.4-4.64-5.4s-4.67,2.55-4.67,5.4,1.68,5.42,4.67,5.42,4.64-2.55,4.64-5.42Z"/><path class="cls-3" d="M219.91,141.8l-3.65-11.25-3.66,11.25h-2.18l-4.47-14.01h2.26l3.42,11.17,3.68-11.17h1.86l3.68,11.17,3.42-11.17h2.26l-4.47,14.01h-2.18Z"/><path class="cls-3" d="M228.99,138.38c.93,1.07,2.7,2,4.61,2,2.15,0,3.31-.96,3.31-2.32,0-1.54-1.71-2.03-3.6-2.49-2.38-.55-5.08-1.19-5.08-4.09,0-2.18,1.88-4.03,5.22-4.03,2.38,0,4.06,.9,5.19,2.03l-1.02,1.51c-.84-1.02-2.38-1.77-4.18-1.77-1.91,0-3.1,.87-3.1,2.12,0,1.36,1.6,1.8,3.42,2.23,2.44,.55,5.25,1.25,5.25,4.35,0,2.35-1.88,4.23-5.51,4.23-2.29,0-4.23-.7-5.66-2.2l1.13-1.57Z"/><path class="cls-3" d="M249.6,145.31c.32,.14,.84,.23,1.19,.23,.96,0,1.6-.32,2.09-1.48l.93-2.12-5.86-14.15h2.35l4.67,11.49,4.64-11.49h2.38l-7.02,16.85c-.84,2.03-2.26,2.81-4.12,2.84-.46,0-1.19-.09-1.6-.2l.35-1.97Z"/><path class="cls-3" d="M263.44,134.78c0-4.06,2.67-7.34,6.93-7.34s6.93,3.28,6.93,7.34-2.67,7.37-6.93,7.37-6.93-3.31-6.93-7.37Zm11.57,0c0-2.84-1.65-5.4-4.64-5.4s-4.67,2.55-4.67,5.4,1.68,5.42,4.67,5.42,4.64-2.55,4.64-5.42Z"/><path class="cls-3" d="M290.29,141.8v-1.97c-1.07,1.22-2.9,2.32-4.99,2.32-2.93,0-4.47-1.42-4.47-4.47v-9.89h2.17v9.22c0,2.47,1.25,3.19,3.13,3.19,1.71,0,3.34-.99,4.15-2.12v-10.3h2.18v14.01h-2.18Z"/><path class="cls-3" d="M296.82,141.8v-14.01h2.18v2.26c1.13-1.48,2.75-2.55,4.67-2.55v2.23c-.26-.06-.52-.09-.87-.09-1.33,0-3.16,1.1-3.8,2.23v9.92h-2.18Z"/><path class="cls-3" d="M316.04,147.14h-2.18v-19.35h2.18v2.09c1.01-1.42,2.75-2.44,4.73-2.44,3.68,0,6.24,2.78,6.24,7.34s-2.55,7.37-6.24,7.37c-1.91,0-3.6-.9-4.73-2.46v7.46Zm4.18-17.75c-1.71,0-3.42,1.02-4.18,2.23v6.32c.75,1.22,2.46,2.26,4.18,2.26,2.81,0,4.5-2.32,4.5-5.42s-1.68-5.4-4.5-5.4Z"/><path class="cls-3" d="M330.51,141.8v-14.01h2.18v2.26c1.13-1.48,2.75-2.55,4.67-2.55v2.23c-.26-.06-.52-.09-.87-.09-1.33,0-3.16,1.1-3.8,2.23v9.92h-2.18Z"/><path class="cls-3" d="M339.27,134.78c0-4.06,2.67-7.34,6.93-7.34s6.93,3.28,6.93,7.34-2.67,7.37-6.93,7.37-6.93-3.31-6.93-7.37Zm11.57,0c0-2.84-1.65-5.4-4.64-5.4s-4.67,2.55-4.67,5.4,1.68,5.42,4.67,5.42,4.64-2.55,4.64-5.42Z"/><path class="cls-3" d="M357.74,143.78c1.16,1.39,2.55,1.91,4.55,1.91,2.32,0,4.5-1.13,4.5-4.21v-2c-1.01,1.42-2.73,2.49-4.7,2.49-3.66,0-6.24-2.73-6.24-7.25s2.55-7.28,6.24-7.28c1.88,0,3.57,.93,4.7,2.47v-2.12h2.18v13.6c0,4.64-3.25,6.09-6.67,6.09-2.38,0-4-.46-5.66-2.09l1.1-1.62Zm9.05-12.12c-.75-1.22-2.44-2.26-4.18-2.26-2.81,0-4.5,2.23-4.5,5.34s1.68,5.34,4.5,5.34c1.74,0,3.42-1.07,4.18-2.29v-6.12Z"/><path class="cls-3" d="M373.32,141.8v-14.01h2.18v2.26c1.13-1.48,2.76-2.55,4.67-2.55v2.23c-.26-.06-.52-.09-.87-.09-1.33,0-3.16,1.1-3.8,2.23v9.92h-2.18Z"/><path class="cls-3" d="M388.98,127.44c4.24,0,6.73,3.31,6.73,7.51v.55h-11.34c.17,2.64,2.03,4.84,5.05,4.84,1.6,0,3.22-.64,4.32-1.77l1.04,1.42c-1.39,1.39-3.28,2.15-5.57,2.15-4.15,0-7.14-2.99-7.14-7.37,0-4.06,2.9-7.34,6.9-7.34Zm-4.61,6.47h9.19c-.03-2.09-1.42-4.67-4.61-4.67-2.99,0-4.47,2.52-4.58,4.67Z"/><path class="cls-3" d="M399.13,138.38c.93,1.07,2.7,2,4.61,2,2.15,0,3.31-.96,3.31-2.32,0-1.54-1.71-2.03-3.6-2.49-2.38-.55-5.08-1.19-5.08-4.09,0-2.18,1.88-4.03,5.22-4.03,2.38,0,4.06,.9,5.19,2.03l-1.01,1.51c-.84-1.02-2.38-1.77-4.18-1.77-1.91,0-3.1,.87-3.1,2.12,0,1.36,1.6,1.8,3.42,2.23,2.44,.55,5.25,1.25,5.25,4.35,0,2.35-1.88,4.23-5.51,4.23-2.29,0-4.24-.7-5.66-2.2l1.13-1.57Z"/><path class="cls-3" d="M412.61,138.38c.93,1.07,2.7,2,4.61,2,2.15,0,3.31-.96,3.31-2.32,0-1.54-1.71-2.03-3.6-2.49-2.38-.55-5.08-1.19-5.08-4.09,0-2.18,1.89-4.03,5.22-4.03,2.38,0,4.06,.9,5.19,2.03l-1.02,1.51c-.84-1.02-2.38-1.77-4.18-1.77-1.92,0-3.1,.87-3.1,2.12,0,1.36,1.6,1.8,3.42,2.23,2.44,.55,5.25,1.25,5.25,4.35,0,2.35-1.89,4.23-5.51,4.23-2.29,0-4.23-.7-5.66-2.2l1.13-1.57Z"/><path class="cls-3" d="M445.79,141.8l-3.65-11.25-3.66,11.25h-2.18l-4.47-14.01h2.26l3.42,11.17,3.68-11.17h1.86l3.68,11.17,3.42-11.17h2.26l-4.47,14.01h-2.18Z"/><path class="cls-3" d="M454.57,123.96c0-.81,.67-1.45,1.45-1.45s1.48,.64,1.48,1.45-.67,1.48-1.48,1.48-1.45-.67-1.45-1.48Zm.38,17.84v-14.01h2.18v14.01h-2.18Z"/><path class="cls-3" d="M461.91,138.87v-9.17h-2.32v-1.91h2.32v-3.83h2.18v3.83h2.84v1.91h-2.84v8.7c0,1.04,.46,1.8,1.42,1.8,.61,0,1.19-.26,1.48-.58l.64,1.62c-.55,.52-1.33,.9-2.61,.9-2.06,0-3.1-1.19-3.1-3.28Z"/><path class="cls-3" d="M479.49,141.8v-9.22c0-2.46-1.28-3.19-3.16-3.19-1.68,0-3.31,1.04-4.15,2.18v10.24h-2.18v-19.35h2.18v7.37c.99-1.16,2.9-2.38,5.02-2.38,2.93,0,4.47,1.42,4.47,4.47v9.89h-2.17Z"/><path class="cls-3" d="M485.63,123.96c0-.81,.67-1.45,1.45-1.45s1.48,.64,1.48,1.45-.67,1.48-1.48,1.48-1.45-.67-1.45-1.48Zm.38,17.84v-14.01h2.17v14.01h-2.17Z"/><path class="cls-3" d="M501.99,141.8v-9.17c0-2.47-1.25-3.25-3.13-3.25-1.71,0-3.34,1.04-4.15,2.18v10.24h-2.18v-14.01h2.18v2.03c.99-1.16,2.9-2.38,4.99-2.38,2.93,0,4.47,1.48,4.47,4.53v9.83h-2.18Z"/><path class="cls-3" d="M522.08,127.44c4.24,0,6.73,3.31,6.73,7.51v.55h-11.34c.17,2.64,2.03,4.84,5.05,4.84,1.6,0,3.22-.64,4.32-1.77l1.04,1.42c-1.39,1.39-3.28,2.15-5.57,2.15-4.15,0-7.14-2.99-7.14-7.37,0-4.06,2.9-7.34,6.9-7.34Zm-4.61,6.47h9.2c-.03-2.09-1.42-4.67-4.61-4.67-2.99,0-4.47,2.52-4.58,4.67Z"/><path class="cls-3" d="M541.08,141.8v-1.6c-1.16,1.28-2.76,1.94-4.64,1.94-2.38,0-4.9-1.59-4.9-4.64s2.52-4.61,4.9-4.61c1.92,0,3.51,.61,4.64,1.92v-2.52c0-1.89-1.51-2.96-3.54-2.96-1.68,0-3.05,.61-4.29,1.94l-1.02-1.51c1.51-1.57,3.31-2.32,5.6-2.32,2.96,0,5.42,1.33,5.42,4.73v9.63h-2.17Zm0-5.6c-.84-1.16-2.32-1.74-3.86-1.74-2.03,0-3.45,1.28-3.45,3.08s1.42,3.04,3.45,3.04c1.54,0,3.02-.58,3.86-1.74v-2.64Z"/><path class="cls-3" d="M553.78,127.44c2.55,0,4.06,1.04,5.13,2.44l-1.45,1.33c-.93-1.28-2.12-1.83-3.57-1.83-2.99,0-4.84,2.29-4.84,5.4s1.86,5.42,4.84,5.42c1.45,0,2.64-.58,3.57-1.83l1.45,1.33c-1.07,1.39-2.58,2.44-5.13,2.44-4.18,0-6.99-3.19-6.99-7.37s2.81-7.34,6.99-7.34Z"/><path class="cls-3" d="M571.44,141.8v-9.22c0-2.46-1.28-3.19-3.16-3.19-1.68,0-3.31,1.04-4.15,2.18v10.24h-2.18v-19.35h2.18v7.37c.99-1.16,2.9-2.38,5.02-2.38,2.93,0,4.47,1.42,4.47,4.47v9.89h-2.18Z"/><path class="cls-3" d="M602.36,141.8v-9.51c0-1.77-.78-2.9-2.58-2.9-1.45,0-2.99,1.04-3.71,2.15v10.27h-2.18v-9.51c0-1.77-.75-2.9-2.58-2.9-1.42,0-2.93,1.04-3.68,2.18v10.24h-2.17v-14.01h2.17v2.03c.58-.9,2.47-2.38,4.53-2.38s3.36,1.16,3.77,2.61c.78-1.28,2.67-2.61,4.7-2.61,2.55,0,3.92,1.42,3.92,4.24v10.12h-2.18Z"/><path class="cls-3" d="M608.07,134.78c0-4.06,2.67-7.34,6.93-7.34s6.93,3.28,6.93,7.34-2.67,7.37-6.93,7.37-6.93-3.31-6.93-7.37Zm11.57,0c0-2.84-1.65-5.4-4.64-5.4s-4.67,2.55-4.67,5.4,1.68,5.42,4.67,5.42,4.64-2.55,4.64-5.42Z"/><path class="cls-3" d="M635.62,141.8v-2.09c-1.04,1.42-2.76,2.44-4.73,2.44-3.65,0-6.24-2.78-6.24-7.34s2.55-7.37,6.24-7.37c1.89,0,3.6,.93,4.73,2.47v-7.46h2.18v19.35h-2.18Zm0-10.15c-.78-1.22-2.47-2.26-4.21-2.26-2.81,0-4.5,2.32-4.5,5.42s1.68,5.39,4.5,5.39c1.74,0,3.42-.99,4.21-2.2v-6.35Z"/><path class="cls-3" d="M651.6,141.8v-1.97c-1.07,1.22-2.9,2.32-4.99,2.32-2.93,0-4.47-1.42-4.47-4.47v-9.89h2.18v9.22c0,2.47,1.25,3.19,3.13,3.19,1.71,0,3.34-.99,4.15-2.12v-10.3h2.18v14.01h-2.18Z"/><path class="cls-3" d="M658.12,141.8v-19.35h2.18v19.35h-2.18Z"/><path class="cls-3" d="M670.74,127.44c4.24,0,6.73,3.31,6.73,7.51v.55h-11.34c.17,2.64,2.03,4.84,5.05,4.84,1.6,0,3.22-.64,4.32-1.77l1.04,1.42c-1.39,1.39-3.28,2.15-5.57,2.15-4.15,0-7.14-2.99-7.14-7.37,0-4.06,2.9-7.34,6.9-7.34Zm-4.61,6.47h9.19c-.03-2.09-1.42-4.67-4.61-4.67-2.99,0-4.47,2.52-4.58,4.67Z"/><path class="cls-3" d="M681.93,138.9c.87,0,1.59,.72,1.59,1.59s-.72,1.6-1.59,1.6-1.6-.73-1.6-1.6,.73-1.59,1.6-1.59Z"/></g><g id="_30"><g><path class="cls-1" d="M79.42,72.5c-28.79,0-52.13,23.34-52.13,52.13s23.34,52.13,52.13,52.13,52.13-23.34,52.13-52.13-23.34-52.13-52.13-52.13Zm0,87.12c-19.33,0-34.99-15.67-34.99-34.99s15.67-34.99,34.99-34.99,34.99,15.67,34.99,34.99-15.67,34.99-34.99,34.99Z"/><g class="cls-4"><circle class="cls-7" cx="79.42" cy="124.63" r="34.99" transform="translate(-60.12 173.3) rotate(-76.72)"/></g><path class="cls-2" d="M79.42,72.5c-.17,0-.34,0-.5,0v17.14c.17,0,.33,0,.5,0,19.33,0,34.99,15.67,34.99,34.99,0,3.51-.52,6.89-1.48,10.08l16.33,5.22c1.48-4.84,2.29-9.98,2.29-15.31,0-28.79-23.34-52.13-52.13-52.13Z"/><path class="cls-5" d="M79.42,72.5c-28.79,0-52.13,23.34-52.13,52.13s23.34,52.13,52.13,52.13,52.13-23.34,52.13-52.13-23.34-52.13-52.13-52.13Zm0,87.12c-19.33,0-34.99-15.67-34.99-34.99s15.67-34.99,34.99-34.99,34.99,15.67,34.99,34.99-15.67,34.99-34.99,34.99Z"/></g><g><path class="cls-3" d="M64.14,124.23h1.96c1.23-.02,2.21-.34,2.91-.98,.71-.63,1.06-1.48,1.06-2.56,0-2.41-1.2-3.62-3.6-3.62-1.13,0-2.03,.32-2.71,.97-.67,.65-1.01,1.5-1.01,2.57h-2.62c0-1.63,.6-2.98,1.79-4.06,1.19-1.08,2.71-1.62,4.54-1.62,1.94,0,3.46,.51,4.57,1.54,1.1,1.03,1.65,2.45,1.65,4.28,0,.9-.29,1.76-.87,2.6-.58,.84-1.37,1.47-2.37,1.88,1.13,.36,2,.95,2.62,1.78,.62,.83,.93,1.84,.93,3.04,0,1.85-.6,3.31-1.81,4.4-1.21,1.08-2.78,1.63-4.71,1.63s-3.5-.52-4.71-1.57c-1.21-1.05-1.82-2.43-1.82-4.14h2.63c0,1.08,.35,1.95,1.06,2.6,.71,.65,1.65,.98,2.84,.98,1.26,0,2.23-.33,2.9-.99,.67-.66,1-1.61,1-2.84s-.37-2.12-1.1-2.76c-.74-.64-1.8-.97-3.18-.99h-1.96v-2.13Z"/><path class="cls-3" d="M89.5,127.01c0,3.06-.52,5.34-1.57,6.83-1.05,1.49-2.68,2.23-4.91,2.23s-3.82-.73-4.88-2.18c-1.06-1.46-1.6-3.63-1.64-6.52v-3.49c0-3.03,.52-5.27,1.57-6.74,1.05-1.47,2.69-2.21,4.92-2.21s3.85,.71,4.89,2.13c1.05,1.42,1.58,3.61,1.61,6.57v3.39Zm-2.62-3.58c0-2.21-.31-3.83-.93-4.84-.62-1.01-1.61-1.52-2.95-1.52s-2.31,.5-2.93,1.51c-.61,1.01-.93,2.56-.95,4.65v4.18c0,2.22,.32,3.87,.97,4.93,.65,1.06,1.62,1.59,2.93,1.59s2.25-.5,2.88-1.5c.63-1,.95-2.57,.98-4.72v-4.28Z"/><path class="cls-3" d="M92.13,124.71c0-.82,.26-1.5,.79-2.04s1.2-.8,2.02-.8,1.51,.27,2.03,.81c.52,.54,.78,1.23,.78,2.09v.67c0,.83-.26,1.51-.79,2.03s-1.19,.79-2,.79-1.49-.26-2.03-.79-.8-1.22-.8-2.1v-.66Zm1.3,.72c0,.49,.14,.9,.41,1.21,.28,.32,.65,.48,1.11,.48s.81-.15,1.08-.46c.27-.31,.41-.73,.41-1.27v-.69c0-.49-.14-.9-.41-1.22-.27-.32-.64-.48-1.1-.48s-.83,.16-1.1,.48c-.27,.32-.41,.74-.41,1.26v.69Zm1.92,9.32l-.99-.62,6.7-10.72,.99,.62-6.7,10.72Zm3.46-2.33c0-.82,.26-1.5,.79-2.03,.52-.53,1.2-.8,2.02-.8s1.5,.26,2.03,.79c.53,.53,.79,1.23,.79,2.1v.67c0,.82-.26,1.5-.79,2.03-.52,.53-1.2,.8-2.01,.8s-1.49-.26-2.03-.79c-.53-.52-.8-1.22-.8-2.1v-.68Zm1.3,.73c0,.5,.14,.91,.41,1.22,.28,.32,.65,.48,1.11,.48s.81-.16,1.08-.47c.27-.31,.41-.74,.41-1.27v-.7c0-.5-.14-.9-.41-1.22-.27-.31-.64-.47-1.1-.47s-.81,.16-1.09,.47c-.28,.31-.42,.73-.42,1.26v.7Z"/></g></g></g></g></g></svg>