<?xml version="1.0" encoding="UTF-8"?><svg id="Capa_2" xmlns="http://www.w3.org/2000/svg" viewBox="0 0 934 282"><defs><style>.cls-1{fill:#5d5d62;}.cls-2{fill:#fff;opacity:.85;stroke:#1b5f99;stroke-miterlimit:10;stroke-width:3px;}</style></defs><g id="Capa_1-2"><rect class="cls-2" x="1.5" y="1.5" width="931" height="279" rx="20" ry="20"/><g><path class="cls-1" d="M227.43,131.14c5.71,0,9.6,4.29,9.6,10.01s-3.89,10.01-9.6,10.01-9.6-4.29-9.6-10.01,3.86-10.01,9.6-10.01Zm0,2.15c-4.35,0-7.11,3.34-7.11,7.86s2.75,7.86,7.11,7.86,7.11-3.37,7.11-7.86-2.78-7.86-7.11-7.86Z"/><path class="cls-1" d="M242.89,156.14h-2.18v-19.35h2.18v2.09c1.02-1.42,2.76-2.44,4.73-2.44,3.68,0,6.24,2.78,6.24,7.34s-2.55,7.37-6.24,7.37c-1.92,0-3.6-.9-4.73-2.47v7.46Zm4.18-17.75c-1.71,0-3.42,1.01-4.18,2.23v6.32c.75,1.22,2.47,2.26,4.18,2.26,2.81,0,4.5-2.32,4.5-5.42s-1.68-5.39-4.5-5.39Z"/><path class="cls-1" d="M263.45,136.45c4.24,0,6.73,3.31,6.73,7.51v.55h-11.34c.17,2.64,2.03,4.84,5.05,4.84,1.6,0,3.22-.64,4.32-1.77l1.04,1.42c-1.39,1.39-3.28,2.15-5.57,2.15-4.15,0-7.14-2.99-7.14-7.37,0-4.06,2.9-7.34,6.9-7.34Zm-4.61,6.47h9.19c-.03-2.09-1.42-4.67-4.61-4.67-2.99,0-4.47,2.52-4.58,4.67Z"/><path class="cls-1" d="M283.14,150.8v-9.17c0-2.46-1.25-3.25-3.13-3.25-1.71,0-3.34,1.04-4.15,2.17v10.24h-2.18v-14.01h2.18v2.03c.99-1.16,2.9-2.38,4.99-2.38,2.93,0,4.47,1.48,4.47,4.52v9.83h-2.17Z"/><path class="cls-1" d="M305.9,150.8v-1.59c-1.16,1.28-2.76,1.94-4.64,1.94-2.38,0-4.9-1.6-4.9-4.64s2.52-4.61,4.9-4.61c1.91,0,3.51,.61,4.64,1.91v-2.52c0-1.89-1.51-2.96-3.54-2.96-1.68,0-3.04,.61-4.29,1.94l-1.01-1.51c1.51-1.57,3.31-2.32,5.6-2.32,2.96,0,5.42,1.33,5.42,4.73v9.63h-2.18Zm0-5.6c-.84-1.16-2.32-1.74-3.86-1.74-2.03,0-3.45,1.28-3.45,3.07s1.42,3.05,3.45,3.05c1.54,0,3.02-.58,3.86-1.74v-2.64Z"/><path class="cls-1" d="M321.88,150.8v-9.17c0-2.46-1.25-3.25-3.13-3.25-1.71,0-3.34,1.04-4.15,2.17v10.24h-2.17v-14.01h2.17v2.03c.99-1.16,2.9-2.38,4.99-2.38,2.93,0,4.47,1.48,4.47,4.52v9.83h-2.17Z"/><path class="cls-1" d="M338.56,150.8v-2.09c-1.04,1.42-2.76,2.44-4.73,2.44-3.65,0-6.24-2.78-6.24-7.34s2.55-7.37,6.24-7.37c1.89,0,3.6,.93,4.73,2.46v-7.46h2.18v19.35h-2.18Zm0-10.15c-.78-1.22-2.47-2.26-4.21-2.26-2.81,0-4.5,2.32-4.5,5.42s1.68,5.4,4.5,5.4c1.74,0,3.42-.99,4.21-2.2v-6.35Z"/><path class="cls-1" d="M358.74,136.45c2.55,0,4.06,1.04,5.13,2.44l-1.45,1.33c-.93-1.28-2.12-1.83-3.57-1.83-2.99,0-4.84,2.29-4.84,5.39s1.86,5.42,4.84,5.42c1.45,0,2.64-.58,3.57-1.83l1.45,1.33c-1.07,1.39-2.58,2.44-5.13,2.44-4.18,0-6.99-3.19-6.99-7.37s2.81-7.34,6.99-7.34Z"/><path class="cls-1" d="M366.92,150.8v-19.35h2.18v19.35h-2.18Z"/><path class="cls-1" d="M372.63,143.78c0-4.06,2.67-7.34,6.93-7.34s6.93,3.28,6.93,7.34-2.67,7.37-6.93,7.37-6.93-3.31-6.93-7.37Zm11.57,0c0-2.84-1.65-5.39-4.64-5.39s-4.67,2.55-4.67,5.39,1.68,5.42,4.67,5.42,4.64-2.55,4.64-5.42Z"/><path class="cls-1" d="M389.94,147.38c.93,1.07,2.7,2,4.61,2,2.15,0,3.31-.96,3.31-2.32,0-1.54-1.71-2.03-3.6-2.5-2.38-.55-5.08-1.19-5.08-4.09,0-2.18,1.88-4.03,5.22-4.03,2.38,0,4.06,.9,5.19,2.03l-1.01,1.51c-.84-1.01-2.38-1.77-4.18-1.77-1.91,0-3.1,.87-3.1,2.12,0,1.36,1.6,1.8,3.42,2.23,2.44,.55,5.25,1.25,5.25,4.35,0,2.35-1.88,4.24-5.51,4.24-2.29,0-4.24-.7-5.66-2.2l1.13-1.57Z"/><path class="cls-1" d="M409.61,136.45c4.24,0,6.73,3.31,6.73,7.51v.55h-11.34c.17,2.64,2.03,4.84,5.05,4.84,1.59,0,3.22-.64,4.32-1.77l1.04,1.42c-1.39,1.39-3.28,2.15-5.57,2.15-4.15,0-7.14-2.99-7.14-7.37,0-4.06,2.9-7.34,6.9-7.34Zm-4.61,6.47h9.2c-.03-2.09-1.42-4.67-4.61-4.67-2.99,0-4.47,2.52-4.58,4.67Z"/><path class="cls-1" d="M427.76,147.87v-9.17h-2.32v-1.91h2.32v-3.83h2.18v3.83h2.84v1.91h-2.84v8.7c0,1.04,.46,1.8,1.42,1.8,.61,0,1.19-.26,1.48-.58l.64,1.62c-.55,.52-1.33,.9-2.61,.9-2.06,0-3.1-1.19-3.1-3.28Z"/><path class="cls-1" d="M445.33,150.8v-9.22c0-2.47-1.28-3.19-3.16-3.19-1.68,0-3.31,1.04-4.15,2.17v10.24h-2.18v-19.35h2.18v7.37c.99-1.16,2.9-2.38,5.02-2.38,2.93,0,4.47,1.42,4.47,4.47v9.89h-2.17Z"/><path class="cls-1" d="M457.95,136.45c4.24,0,6.73,3.31,6.73,7.51v.55h-11.34c.17,2.64,2.03,4.84,5.05,4.84,1.59,0,3.22-.64,4.32-1.77l1.04,1.42c-1.39,1.39-3.28,2.15-5.57,2.15-4.15,0-7.14-2.99-7.14-7.37,0-4.06,2.9-7.34,6.9-7.34Zm-4.61,6.47h9.2c-.03-2.09-1.42-4.67-4.61-4.67-2.99,0-4.47,2.52-4.58,4.67Z"/><path class="cls-1" d="M475.84,138.85s-.78-5.95-.78-6.35c0-.73,.58-1.33,1.3-1.33s1.33,.61,1.33,1.33c0,.41-.78,6.35-.78,6.35h-1.07Zm4.21,0s-.78-5.95-.78-6.35c0-.73,.58-1.33,1.33-1.33s1.31,.61,1.31,1.33c0,.41-.78,6.35-.78,6.35h-1.07Z"/><path class="cls-1" d="M499.39,150.8l-11.28-15.61v15.61h-2.41v-19.35h2.47l11.14,15.29v-15.29h2.41v19.35h-2.32Z"/><path class="cls-1" d="M514.9,150.8v-1.59c-1.16,1.28-2.76,1.94-4.64,1.94-2.38,0-4.9-1.6-4.9-4.64s2.52-4.61,4.9-4.61c1.92,0,3.51,.61,4.64,1.91v-2.52c0-1.89-1.51-2.96-3.54-2.96-1.68,0-3.05,.61-4.29,1.94l-1.02-1.51c1.51-1.57,3.31-2.32,5.6-2.32,2.96,0,5.42,1.33,5.42,4.73v9.63h-2.18Zm0-5.6c-.84-1.16-2.32-1.74-3.86-1.74-2.03,0-3.45,1.28-3.45,3.07s1.42,3.05,3.45,3.05c1.54,0,3.02-.58,3.86-1.74v-2.64Z"/><path class="cls-1" d="M525.17,150.8l-5.83-14.01h2.35l4.67,11.49,4.64-11.49h2.38l-5.83,14.01h-2.38Z"/><path class="cls-1" d="M535.26,132.96c0-.81,.67-1.45,1.45-1.45s1.48,.64,1.48,1.45-.67,1.48-1.48,1.48-1.45-.67-1.45-1.48Zm.38,17.84v-14.01h2.18v14.01h-2.18Z"/><path class="cls-1" d="M543.23,152.78c1.16,1.39,2.55,1.92,4.55,1.92,2.32,0,4.5-1.13,4.5-4.21v-2c-1.02,1.42-2.73,2.5-4.7,2.5-3.66,0-6.24-2.73-6.24-7.25s2.55-7.28,6.24-7.28c1.88,0,3.57,.93,4.7,2.46v-2.12h2.17v13.6c0,4.64-3.25,6.09-6.67,6.09-2.38,0-4-.46-5.66-2.09l1.1-1.62Zm9.05-12.12c-.75-1.22-2.44-2.26-4.18-2.26-2.81,0-4.5,2.23-4.5,5.34s1.68,5.34,4.5,5.34c1.74,0,3.42-1.07,4.18-2.29v-6.12Z"/><path class="cls-1" d="M567.57,150.8v-1.59c-1.16,1.28-2.76,1.94-4.64,1.94-2.38,0-4.9-1.6-4.9-4.64s2.52-4.61,4.9-4.61c1.92,0,3.51,.61,4.64,1.91v-2.52c0-1.89-1.51-2.96-3.54-2.96-1.68,0-3.05,.61-4.29,1.94l-1.02-1.51c1.51-1.57,3.31-2.32,5.6-2.32,2.96,0,5.42,1.33,5.42,4.73v9.63h-2.17Zm0-5.6c-.84-1.16-2.32-1.74-3.86-1.74-2.03,0-3.45,1.28-3.45,3.07s1.42,3.05,3.45,3.05c1.54,0,3.02-.58,3.86-1.74v-2.64Z"/><path class="cls-1" d="M574.53,147.87v-9.17h-2.32v-1.91h2.32v-3.83h2.17v3.83h2.84v1.91h-2.84v8.7c0,1.04,.46,1.8,1.42,1.8,.61,0,1.19-.26,1.48-.58l.64,1.62c-.55,.52-1.33,.9-2.61,.9-2.06,0-3.1-1.19-3.1-3.28Z"/><path class="cls-1" d="M582.24,132.96c0-.81,.67-1.45,1.45-1.45s1.48,.64,1.48,1.45-.67,1.48-1.48,1.48-1.45-.67-1.45-1.48Zm.38,17.84v-14.01h2.18v14.01h-2.18Z"/><path class="cls-1" d="M588.33,143.78c0-4.06,2.67-7.34,6.93-7.34s6.93,3.28,6.93,7.34-2.67,7.37-6.93,7.37-6.93-3.31-6.93-7.37Zm11.57,0c0-2.84-1.65-5.39-4.64-5.39s-4.67,2.55-4.67,5.39,1.68,5.42,4.67,5.42,4.64-2.55,4.64-5.42Z"/><path class="cls-1" d="M615.18,150.8v-9.17c0-2.46-1.25-3.25-3.13-3.25-1.71,0-3.34,1.04-4.15,2.17v10.24h-2.17v-14.01h2.17v2.03c.99-1.16,2.9-2.38,4.99-2.38,2.93,0,4.47,1.48,4.47,4.52v9.83h-2.17Z"/><path class="cls-1" d="M645.81,150.8v-16.1l-6.58,16.1h-.99l-6.56-16.1v16.1h-2.41v-19.35h3.45l6,14.74,6.03-14.74h3.45v19.35h-2.41Z"/><path class="cls-1" d="M658.74,136.45c4.24,0,6.73,3.31,6.73,7.51v.55h-11.34c.17,2.64,2.03,4.84,5.05,4.84,1.6,0,3.22-.64,4.32-1.77l1.04,1.42c-1.39,1.39-3.28,2.15-5.57,2.15-4.15,0-7.13-2.99-7.13-7.37,0-4.06,2.9-7.34,6.9-7.34Zm-4.61,6.47h9.2c-.03-2.09-1.42-4.67-4.61-4.67-2.99,0-4.47,2.52-4.58,4.67Z"/><path class="cls-1" d="M678.43,150.8v-9.17c0-2.46-1.25-3.25-3.13-3.25-1.71,0-3.34,1.04-4.15,2.17v10.24h-2.18v-14.01h2.18v2.03c.99-1.16,2.9-2.38,4.99-2.38,2.93,0,4.47,1.48,4.47,4.52v9.83h-2.18Z"/><path class="cls-1" d="M694.41,150.8v-1.97c-1.07,1.22-2.9,2.32-4.99,2.32-2.93,0-4.47-1.42-4.47-4.47v-9.89h2.18v9.22c0,2.46,1.25,3.19,3.13,3.19,1.71,0,3.34-.99,4.15-2.12v-10.3h2.18v14.01h-2.18Z"/><path class="cls-1" d="M701.11,138.85s-.78-5.95-.78-6.35c0-.73,.58-1.33,1.31-1.33s1.33,.61,1.33,1.33c0,.41-.78,6.35-.78,6.35h-1.07Zm4.21,0s-.78-5.95-.78-6.35c0-.73,.58-1.33,1.33-1.33s1.3,.61,1.3,1.33c0,.41-.78,6.35-.78,6.35h-1.07Z"/><path class="cls-1" d="M709.84,147.9c.87,0,1.6,.73,1.6,1.6s-.73,1.6-1.6,1.6-1.59-.73-1.59-1.6,.72-1.6,1.59-1.6Z"/></g></g></svg>