<?xml version="1.0" encoding="UTF-8"?><svg id="Capa_2" xmlns="http://www.w3.org/2000/svg" viewBox="0 0 934 282"><defs><style>.cls-1{fill:#1b5f99;}.cls-2{fill:#5d5d62;}.cls-3{fill:#fff;opacity:.85;stroke:#1b5f99;stroke-miterlimit:10;stroke-width:3px;}</style></defs><g id="Capa_1-2"><rect class="cls-3" x="1.5" y="1.5" width="931" height="279" rx="20" ry="20"/><g><path class="cls-2" d="M119.55,134.8v-17.2h-6.12v-2.15h14.68v2.15h-6.15v17.2h-2.41Z"/><path class="cls-2" d="M140.69,134.8v-9.22c0-2.47-1.28-3.19-3.16-3.19-1.68,0-3.31,1.04-4.15,2.17v10.24h-2.18v-19.35h2.18v7.37c.99-1.16,2.9-2.38,5.02-2.38,2.93,0,4.47,1.42,4.47,4.47v9.89h-2.18Z"/><path class="cls-2" d="M146.84,116.96c0-.81,.67-1.45,1.45-1.45s1.48,.64,1.48,1.45-.67,1.48-1.48,1.48-1.45-.67-1.45-1.48Zm.38,17.84v-14.01h2.18v14.01h-2.18Z"/><path class="cls-2" d="M153.65,131.38c.93,1.07,2.7,2,4.61,2,2.15,0,3.31-.96,3.31-2.32,0-1.54-1.71-2.03-3.6-2.5-2.38-.55-5.08-1.19-5.08-4.09,0-2.18,1.89-4.03,5.22-4.03,2.38,0,4.06,.9,5.19,2.03l-1.01,1.51c-.84-1.01-2.38-1.77-4.18-1.77-1.91,0-3.1,.87-3.1,2.12,0,1.36,1.6,1.8,3.42,2.23,2.44,.55,5.25,1.25,5.25,4.35,0,2.35-1.89,4.24-5.51,4.24-2.29,0-4.24-.7-5.66-2.2l1.13-1.57Z"/><path class="cls-2" d="M175.14,131.87v-9.17h-2.32v-1.91h2.32v-3.83h2.17v3.83h2.84v1.91h-2.84v8.7c0,1.04,.46,1.8,1.42,1.8,.61,0,1.19-.26,1.48-.58l.64,1.62c-.55,.52-1.33,.9-2.61,.9-2.06,0-3.1-1.19-3.1-3.28Z"/><path class="cls-2" d="M189.32,120.45c4.24,0,6.73,3.31,6.73,7.51v.55h-11.34c.17,2.64,2.03,4.84,5.05,4.84,1.59,0,3.22-.64,4.32-1.77l1.04,1.42c-1.39,1.39-3.28,2.15-5.57,2.15-4.15,0-7.14-2.99-7.14-7.37,0-4.06,2.9-7.34,6.9-7.34Zm-4.61,6.47h9.2c-.03-2.09-1.42-4.67-4.61-4.67-2.99,0-4.47,2.52-4.58,4.67Z"/><path class="cls-2" d="M199.56,134.8v-19.35h2.18v19.35h-2.18Z"/><path class="cls-2" d="M206.08,134.8v-19.35h2.17v19.35h-2.17Z"/><path class="cls-2" d="M212.52,131.38c.93,1.07,2.7,2,4.61,2,2.15,0,3.31-.96,3.31-2.32,0-1.54-1.71-2.03-3.6-2.5-2.38-.55-5.08-1.19-5.08-4.09,0-2.18,1.88-4.03,5.22-4.03,2.38,0,4.06,.9,5.19,2.03l-1.02,1.51c-.84-1.01-2.38-1.77-4.18-1.77-1.91,0-3.1,.87-3.1,2.12,0,1.36,1.6,1.8,3.42,2.23,2.44,.55,5.25,1.25,5.25,4.35,0,2.35-1.89,4.24-5.51,4.24-2.29,0-4.24-.7-5.66-2.2l1.13-1.57Z"/><path class="cls-2" d="M233.14,138.31c.32,.15,.84,.23,1.19,.23,.96,0,1.6-.32,2.09-1.48l.93-2.12-5.86-14.16h2.35l4.67,11.49,4.64-11.49h2.38l-7.02,16.85c-.84,2.03-2.26,2.81-4.12,2.84-.46,0-1.19-.09-1.59-.2l.35-1.97Z"/><path class="cls-2" d="M246.97,127.78c0-4.06,2.67-7.34,6.93-7.34s6.93,3.28,6.93,7.34-2.67,7.37-6.93,7.37-6.93-3.31-6.93-7.37Zm11.57,0c0-2.84-1.65-5.39-4.64-5.39s-4.67,2.55-4.67,5.39,1.68,5.42,4.67,5.42,4.64-2.55,4.64-5.42Z"/><path class="cls-2" d="M273.83,134.8v-1.97c-1.07,1.22-2.9,2.32-4.99,2.32-2.93,0-4.47-1.42-4.47-4.47v-9.89h2.18v9.22c0,2.46,1.25,3.19,3.13,3.19,1.71,0,3.34-.99,4.15-2.12v-10.3h2.17v14.01h-2.17Z"/><path class="cls-2" d="M299.96,134.8l-3.66-11.25-3.65,11.25h-2.18l-4.47-14.01h2.26l3.42,11.17,3.68-11.17h1.86l3.68,11.17,3.42-11.17h2.26l-4.47,14.01h-2.18Z"/><path class="cls-2" d="M318.6,134.8v-9.22c0-2.47-1.28-3.19-3.16-3.19-1.68,0-3.31,1.04-4.15,2.17v10.24h-2.18v-19.35h2.18v7.37c.99-1.16,2.9-2.38,5.02-2.38,2.93,0,4.47,1.42,4.47,4.47v9.89h-2.17Z"/><path class="cls-2" d="M331.22,120.45c4.24,0,6.73,3.31,6.73,7.51v.55h-11.34c.17,2.64,2.03,4.84,5.05,4.84,1.59,0,3.22-.64,4.32-1.77l1.04,1.42c-1.39,1.39-3.28,2.15-5.57,2.15-4.15,0-7.14-2.99-7.14-7.37,0-4.06,2.9-7.34,6.9-7.34Zm-4.61,6.47h9.2c-.03-2.09-1.42-4.67-4.61-4.67-2.99,0-4.47,2.52-4.58,4.67Z"/><path class="cls-2" d="M341.45,134.8v-14.01h2.18v2.26c1.13-1.48,2.76-2.55,4.67-2.55v2.23c-.26-.06-.52-.09-.87-.09-1.33,0-3.16,1.1-3.8,2.23v9.92h-2.18Z"/><path class="cls-2" d="M357.11,120.45c4.24,0,6.73,3.31,6.73,7.51v.55h-11.34c.17,2.64,2.03,4.84,5.05,4.84,1.6,0,3.22-.64,4.32-1.77l1.04,1.42c-1.39,1.39-3.28,2.15-5.57,2.15-4.15,0-7.14-2.99-7.14-7.37,0-4.06,2.9-7.34,6.9-7.34Zm-4.61,6.47h9.2c-.03-2.09-1.42-4.67-4.61-4.67-2.99,0-4.47,2.52-4.58,4.67Z"/><path class="cls-2" d="M374.45,116.96c0-.81,.67-1.45,1.45-1.45s1.48,.64,1.48,1.45-.67,1.48-1.48,1.48-1.45-.67-1.45-1.48Zm.38,17.84v-14.01h2.18v14.01h-2.18Z"/><path class="cls-2" d="M390.81,134.8v-9.17c0-2.46-1.25-3.25-3.13-3.25-1.71,0-3.34,1.04-4.15,2.17v10.24h-2.17v-14.01h2.17v2.03c.99-1.16,2.9-2.38,4.99-2.38,2.93,0,4.47,1.48,4.47,4.52v9.83h-2.18Z"/><path class="cls-2" d="M405.25,131.87v-9.17h-2.32v-1.91h2.32v-3.83h2.18v3.83h2.84v1.91h-2.84v8.7c0,1.04,.46,1.8,1.42,1.8,.61,0,1.19-.26,1.48-.58l.64,1.62c-.55,.52-1.33,.9-2.61,.9-2.06,0-3.1-1.19-3.1-3.28Z"/><path class="cls-2" d="M422.83,134.8v-9.22c0-2.47-1.28-3.19-3.16-3.19-1.68,0-3.31,1.04-4.15,2.17v10.24h-2.18v-19.35h2.18v7.37c.99-1.16,2.9-2.38,5.02-2.38,2.93,0,4.47,1.42,4.47,4.47v9.89h-2.18Z"/><path class="cls-2" d="M435.44,120.45c4.24,0,6.73,3.31,6.73,7.51v.55h-11.34c.17,2.64,2.03,4.84,5.05,4.84,1.6,0,3.22-.64,4.32-1.77l1.04,1.42c-1.39,1.39-3.28,2.15-5.57,2.15-4.15,0-7.14-2.99-7.14-7.37,0-4.06,2.9-7.34,6.9-7.34Zm-4.61,6.47h9.19c-.03-2.09-1.42-4.67-4.61-4.67-2.99,0-4.47,2.52-4.58,4.67Z"/><path class="cls-2" d="M470.07,134.8v-9.51c0-1.77-.78-2.9-2.58-2.9-1.45,0-2.99,1.04-3.71,2.15v10.27h-2.18v-9.51c0-1.77-.75-2.9-2.58-2.9-1.42,0-2.93,1.04-3.68,2.17v10.24h-2.18v-14.01h2.18v2.03c.58-.9,2.47-2.38,4.53-2.38s3.37,1.16,3.77,2.61c.78-1.28,2.67-2.61,4.7-2.61,2.55,0,3.92,1.42,3.92,4.23v10.12h-2.18Z"/><path class="cls-2" d="M475.78,127.78c0-4.06,2.67-7.34,6.93-7.34s6.93,3.28,6.93,7.34-2.67,7.37-6.93,7.37-6.93-3.31-6.93-7.37Zm11.57,0c0-2.84-1.65-5.39-4.64-5.39s-4.67,2.55-4.67,5.39,1.68,5.42,4.67,5.42,4.64-2.55,4.64-5.42Z"/><path class="cls-2" d="M503.33,134.8v-2.09c-1.04,1.42-2.76,2.44-4.73,2.44-3.65,0-6.24-2.78-6.24-7.34s2.55-7.37,6.24-7.37c1.89,0,3.6,.93,4.73,2.46v-7.46h2.17v19.35h-2.17Zm0-10.15c-.78-1.22-2.47-2.26-4.21-2.26-2.81,0-4.5,2.32-4.5,5.42s1.68,5.4,4.5,5.4c1.74,0,3.42-.99,4.21-2.2v-6.35Z"/><path class="cls-2" d="M519.31,134.8v-1.97c-1.07,1.22-2.9,2.32-4.99,2.32-2.93,0-4.47-1.42-4.47-4.47v-9.89h2.18v9.22c0,2.46,1.25,3.19,3.13,3.19,1.71,0,3.33-.99,4.15-2.12v-10.3h2.18v14.01h-2.18Z"/><path class="cls-2" d="M525.83,134.8v-19.35h2.18v19.35h-2.18Z"/><path class="cls-2" d="M538.45,120.45c4.24,0,6.73,3.31,6.73,7.51v.55h-11.34c.17,2.64,2.03,4.84,5.05,4.84,1.59,0,3.22-.64,4.32-1.77l1.04,1.42c-1.39,1.39-3.28,2.15-5.57,2.15-4.15,0-7.14-2.99-7.14-7.37,0-4.06,2.9-7.34,6.9-7.34Zm-4.61,6.47h9.2c-.03-2.09-1.42-4.67-4.61-4.67-2.99,0-4.47,2.52-4.58,4.67Z"/><path class="cls-2" d="M555.73,138.31c.32,.15,.84,.23,1.19,.23,.96,0,1.6-.32,2.09-1.48l.93-2.12-5.86-14.16h2.35l4.67,11.49,4.64-11.49h2.38l-7.02,16.85c-.84,2.03-2.26,2.81-4.12,2.84-.46,0-1.19-.09-1.59-.2l.35-1.97Z"/><path class="cls-2" d="M569.56,127.78c0-4.06,2.67-7.34,6.93-7.34s6.93,3.28,6.93,7.34-2.67,7.37-6.93,7.37-6.93-3.31-6.93-7.37Zm11.57,0c0-2.84-1.65-5.39-4.64-5.39s-4.67,2.55-4.67,5.39,1.68,5.42,4.67,5.42,4.64-2.55,4.64-5.42Z"/><path class="cls-2" d="M596.42,134.8v-1.97c-1.07,1.22-2.9,2.32-4.99,2.32-2.93,0-4.47-1.42-4.47-4.47v-9.89h2.18v9.22c0,2.46,1.25,3.19,3.13,3.19,1.71,0,3.34-.99,4.15-2.12v-10.3h2.18v14.01h-2.18Z"/><path class="cls-2" d="M619.18,134.8v-1.59c-1.16,1.28-2.76,1.94-4.64,1.94-2.38,0-4.9-1.6-4.9-4.64s2.52-4.61,4.9-4.61c1.91,0,3.51,.61,4.64,1.91v-2.52c0-1.89-1.51-2.96-3.54-2.96-1.68,0-3.04,.61-4.29,1.94l-1.01-1.51c1.51-1.57,3.31-2.32,5.6-2.32,2.96,0,5.42,1.33,5.42,4.73v9.63h-2.18Zm0-5.6c-.84-1.16-2.32-1.74-3.86-1.74-2.03,0-3.45,1.28-3.45,3.07s1.42,3.05,3.45,3.05c1.54,0,3.02-.58,3.86-1.74v-2.64Z"/><path class="cls-2" d="M625.71,134.8v-14.01h2.17v2.26c1.13-1.48,2.76-2.55,4.67-2.55v2.23c-.26-.06-.52-.09-.87-.09-1.33,0-3.16,1.1-3.8,2.23v9.92h-2.17Z"/><path class="cls-2" d="M641.37,120.45c4.24,0,6.73,3.31,6.73,7.51v.55h-11.34c.17,2.64,2.03,4.84,5.05,4.84,1.6,0,3.22-.64,4.32-1.77l1.04,1.42c-1.39,1.39-3.28,2.15-5.57,2.15-4.15,0-7.14-2.99-7.14-7.37,0-4.06,2.9-7.34,6.9-7.34Zm-4.61,6.47h9.2c-.03-2.09-1.42-4.67-4.61-4.67-2.99,0-4.47,2.52-4.58,4.67Z"/><path class="cls-2" d="M667.84,134.8v-1.59c-1.16,1.28-2.76,1.94-4.64,1.94-2.38,0-4.9-1.6-4.9-4.64s2.52-4.61,4.9-4.61c1.91,0,3.51,.61,4.64,1.91v-2.52c0-1.89-1.51-2.96-3.54-2.96-1.68,0-3.05,.61-4.29,1.94l-1.01-1.51c1.51-1.57,3.31-2.32,5.6-2.32,2.96,0,5.42,1.33,5.42,4.73v9.63h-2.18Zm0-5.6c-.84-1.16-2.32-1.74-3.86-1.74-2.03,0-3.45,1.28-3.45,3.07s1.42,3.05,3.45,3.05c1.54,0,3.02-.58,3.86-1.74v-2.64Z"/><path class="cls-2" d="M683.82,134.8v-9.17c0-2.46-1.25-3.25-3.13-3.25-1.71,0-3.34,1.04-4.15,2.17v10.24h-2.18v-14.01h2.18v2.03c.99-1.16,2.9-2.38,4.99-2.38,2.93,0,4.47,1.48,4.47,4.52v9.83h-2.17Z"/><path class="cls-2" d="M700.5,134.8v-2.09c-1.04,1.42-2.76,2.44-4.73,2.44-3.65,0-6.24-2.78-6.24-7.34s2.55-7.37,6.24-7.37c1.89,0,3.6,.93,4.73,2.46v-7.46h2.17v19.35h-2.17Zm0-10.15c-.78-1.22-2.47-2.26-4.21-2.26-2.81,0-4.5,2.32-4.5,5.42s1.68,5.4,4.5,5.4c1.74,0,3.42-.99,4.21-2.2v-6.35Z"/><path class="cls-2" d="M714.94,131.87v-9.17h-2.32v-1.91h2.32v-3.83h2.17v3.83h2.84v1.91h-2.84v8.7c0,1.04,.46,1.8,1.42,1.8,.61,0,1.19-.26,1.48-.58l.64,1.62c-.55,.52-1.33,.9-2.61,.9-2.06,0-3.1-1.19-3.1-3.28Z"/><path class="cls-2" d="M732.51,134.8v-9.22c0-2.47-1.28-3.19-3.16-3.19-1.68,0-3.31,1.04-4.15,2.17v10.24h-2.17v-19.35h2.17v7.37c.99-1.16,2.9-2.38,5.02-2.38,2.93,0,4.47,1.42,4.47,4.47v9.89h-2.18Z"/><path class="cls-2" d="M745.13,120.45c4.24,0,6.73,3.31,6.73,7.51v.55h-11.34c.17,2.64,2.03,4.84,5.05,4.84,1.6,0,3.22-.64,4.32-1.77l1.04,1.42c-1.39,1.39-3.28,2.15-5.57,2.15-4.15,0-7.14-2.99-7.14-7.37,0-4.06,2.9-7.34,6.9-7.34Zm-4.61,6.47h9.2c-.03-2.09-1.42-4.67-4.61-4.67-2.99,0-4.47,2.52-4.58,4.67Z"/><path class="cls-2" d="M779.75,134.8v-9.51c0-1.77-.78-2.9-2.58-2.9-1.45,0-2.99,1.04-3.71,2.15v10.27h-2.17v-9.51c0-1.77-.75-2.9-2.58-2.9-1.42,0-2.93,1.04-3.68,2.17v10.24h-2.18v-14.01h2.18v2.03c.58-.9,2.47-2.38,4.53-2.38s3.36,1.16,3.77,2.61c.78-1.28,2.67-2.61,4.7-2.61,2.55,0,3.92,1.42,3.92,4.23v10.12h-2.18Z"/><path class="cls-2" d="M785.46,127.78c0-4.06,2.67-7.34,6.93-7.34s6.93,3.28,6.93,7.34-2.67,7.37-6.93,7.37-6.93-3.31-6.93-7.37Zm11.57,0c0-2.84-1.65-5.39-4.64-5.39s-4.67,2.55-4.67,5.39,1.68,5.42,4.67,5.42,4.64-2.55,4.64-5.42Z"/><path class="cls-2" d="M813.01,134.8v-2.09c-1.04,1.42-2.75,2.44-4.73,2.44-3.66,0-6.24-2.78-6.24-7.34s2.55-7.37,6.24-7.37c1.88,0,3.6,.93,4.73,2.46v-7.46h2.18v19.35h-2.18Zm0-10.15c-.78-1.22-2.47-2.26-4.21-2.26-2.81,0-4.5,2.32-4.5,5.42s1.68,5.4,4.5,5.4c1.74,0,3.42-.99,4.21-2.2v-6.35Z"/><path class="cls-2" d="M828.99,134.8v-1.97c-1.07,1.22-2.9,2.32-4.99,2.32-2.93,0-4.47-1.42-4.47-4.47v-9.89h2.18v9.22c0,2.46,1.25,3.19,3.13,3.19,1.71,0,3.34-.99,4.15-2.12v-10.3h2.17v14.01h-2.17Z"/><path class="cls-2" d="M835.52,134.8v-19.35h2.18v19.35h-2.18Z"/><path class="cls-2" d="M848.13,120.45c4.23,0,6.73,3.31,6.73,7.51v.55h-11.34c.17,2.64,2.03,4.84,5.05,4.84,1.59,0,3.22-.64,4.32-1.77l1.04,1.42c-1.39,1.39-3.28,2.15-5.57,2.15-4.15,0-7.14-2.99-7.14-7.37,0-4.06,2.9-7.34,6.9-7.34Zm-4.61,6.47h9.2c-.03-2.09-1.42-4.67-4.61-4.67-2.99,0-4.47,2.52-4.58,4.67Z"/><path class="cls-2" d="M858.46,122.85s-.78-5.95-.78-6.35c0-.73,.58-1.33,1.3-1.33s1.33,.61,1.33,1.33c0,.41-.78,6.35-.78,6.35h-1.07Z"/><path class="cls-2" d="M863.09,131.38c.93,1.07,2.7,2,4.61,2,2.15,0,3.31-.96,3.31-2.32,0-1.54-1.71-2.03-3.6-2.5-2.38-.55-5.08-1.19-5.08-4.09,0-2.18,1.89-4.03,5.22-4.03,2.38,0,4.06,.9,5.19,2.03l-1.02,1.51c-.84-1.01-2.38-1.77-4.18-1.77-1.92,0-3.1,.87-3.1,2.12,0,1.36,1.59,1.8,3.42,2.23,2.44,.55,5.25,1.25,5.25,4.35,0,2.35-1.89,4.24-5.51,4.24-2.29,0-4.23-.7-5.66-2.2l1.13-1.57Z"/><path class="cls-2" d="M115.11,166.67v-9.17h-2.32v-1.92h2.32v-3.83h2.18v3.83h2.84v1.92h-2.84v8.7c0,1.04,.46,1.8,1.42,1.8,.61,0,1.19-.26,1.48-.58l.64,1.62c-.55,.52-1.33,.9-2.61,.9-2.06,0-3.1-1.19-3.1-3.28Z"/><path class="cls-2" d="M122.39,162.58c0-4.06,2.67-7.34,6.93-7.34s6.93,3.28,6.93,7.34-2.67,7.37-6.93,7.37-6.93-3.31-6.93-7.37Zm11.57,0c0-2.84-1.65-5.4-4.64-5.4s-4.67,2.55-4.67,5.4,1.68,5.42,4.67,5.42,4.64-2.55,4.64-5.42Z"/><path class="cls-2" d="M140.22,166.67v-9.17h-2.32v-1.92h2.32v-3.83h2.17v3.83h2.84v1.92h-2.84v8.7c0,1.04,.46,1.8,1.42,1.8,.61,0,1.19-.26,1.48-.58l.64,1.62c-.55,.52-1.33,.9-2.61,.9-2.06,0-3.1-1.19-3.1-3.28Z"/><path class="cls-2" d="M157.08,169.6v-1.6c-1.16,1.28-2.76,1.94-4.64,1.94-2.38,0-4.9-1.6-4.9-4.64s2.52-4.61,4.9-4.61c1.92,0,3.51,.61,4.64,1.91v-2.52c0-1.89-1.51-2.96-3.54-2.96-1.68,0-3.05,.61-4.29,1.94l-1.02-1.51c1.51-1.57,3.31-2.32,5.6-2.32,2.96,0,5.42,1.33,5.42,4.73v9.63h-2.17Zm0-5.6c-.84-1.16-2.32-1.74-3.86-1.74-2.03,0-3.45,1.28-3.45,3.08s1.42,3.04,3.45,3.04c1.54,0,3.02-.58,3.86-1.74v-2.64Z"/><path class="cls-2" d="M163.6,169.6v-19.35h2.18v19.35h-2.18Z"/><path class="cls-2" d="M177.6,169.6v-19.35h2.17v19.35h-2.17Z"/><path class="cls-2" d="M190.22,155.25c4.23,0,6.73,3.31,6.73,7.51v.55h-11.34c.17,2.64,2.03,4.84,5.05,4.84,1.6,0,3.22-.64,4.32-1.77l1.04,1.42c-1.39,1.39-3.28,2.15-5.57,2.15-4.15,0-7.14-2.99-7.14-7.37,0-4.06,2.9-7.34,6.9-7.34Zm-4.61,6.47h9.2c-.03-2.09-1.42-4.67-4.61-4.67-2.99,0-4.47,2.52-4.58,4.67Z"/><path class="cls-2" d="M209.91,169.6v-9.17c0-2.47-1.25-3.25-3.13-3.25-1.71,0-3.34,1.04-4.15,2.17v10.24h-2.17v-14.01h2.17v2.03c.99-1.16,2.9-2.38,4.99-2.38,2.93,0,4.47,1.48,4.47,4.52v9.83h-2.18Z"/><path class="cls-2" d="M217.51,171.58c1.16,1.39,2.55,1.91,4.55,1.91,2.32,0,4.5-1.13,4.5-4.21v-2c-1.01,1.42-2.73,2.49-4.7,2.49-3.66,0-6.24-2.73-6.24-7.25s2.55-7.28,6.24-7.28c1.88,0,3.57,.93,4.7,2.47v-2.12h2.18v13.6c0,4.64-3.25,6.09-6.67,6.09-2.38,0-4-.46-5.66-2.09l1.1-1.62Zm9.05-12.12c-.75-1.22-2.44-2.26-4.18-2.26-2.81,0-4.5,2.23-4.5,5.34s1.68,5.34,4.5,5.34c1.74,0,3.42-1.07,4.18-2.29v-6.12Z"/><path class="cls-2" d="M233.52,166.67v-9.17h-2.32v-1.92h2.32v-3.83h2.18v3.83h2.84v1.92h-2.84v8.7c0,1.04,.46,1.8,1.42,1.8,.61,0,1.19-.26,1.48-.58l.64,1.62c-.55,.52-1.33,.9-2.61,.9-2.06,0-3.1-1.19-3.1-3.28Z"/><path class="cls-2" d="M251.09,169.6v-9.22c0-2.46-1.28-3.19-3.16-3.19-1.68,0-3.31,1.04-4.15,2.17v10.24h-2.17v-19.35h2.17v7.37c.99-1.16,2.9-2.38,5.02-2.38,2.93,0,4.47,1.42,4.47,4.47v9.89h-2.17Z"/><path class="cls-2" d="M258.77,166.7c.87,0,1.6,.72,1.6,1.59s-.72,1.6-1.6,1.6-1.59-.73-1.59-1.6,.72-1.59,1.59-1.59Z"/></g><g><g><path class="cls-1" d="M64.45,94.17l-7.64,6.84c-1.01,.91-1.1,2.47-.19,3.48,.91,1.01,2.47,1.1,3.48,.19l6-5.37,6,5.37c1.01,.91,2.57,.82,3.48-.19,.42-.47,.63-1.06,.63-1.64,0-.68-.28-1.35-.82-1.84l-7.64-6.84c-.94-.84-2.35-.84-3.29,0Z"/><path class="cls-1" d="M64.45,102.69l-7.64,6.84c-1.01,.91-1.1,2.47-.19,3.48,.91,1.01,2.47,1.1,3.48,.19l6-5.37,6,5.37c1.01,.91,2.57,.82,3.48-.19,.42-.47,.63-1.06,.63-1.64,0-.68-.28-1.35-.82-1.84l-7.64-6.84c-.94-.84-2.35-.84-3.29,0Z"/></g><g><path class="cls-1" d="M67.52,186.89l7.64-6.63c1.01-.88,1.1-2.39,.19-3.37-.91-.98-2.47-1.06-3.48-.18l-6,5.2-6-5.2c-1.01-.88-2.57-.8-3.48,.19-.42,.45-.63,1.02-.63,1.59,0,.66,.28,1.31,.82,1.78l7.64,6.63c.94,.81,2.35,.81,3.29,0Z"/><path class="cls-1" d="M67.52,178.64l7.64-6.63c1.01-.88,1.1-2.39,.19-3.37-.91-.98-2.47-1.06-3.48-.18l-6,5.21-6-5.21c-1.01-.88-2.57-.8-3.48,.18-.42,.46-.63,1.03-.63,1.59,0,.65,.28,1.31,.82,1.78l7.64,6.63c.94,.81,2.35,.81,3.29,0Z"/></g><g><path class="cls-1" d="M35.6,148.35v-9.14l-2.08,2.13-1.53-1.61,3.97-3.99h2.34v12.6h-2.7Z"/><path class="cls-1" d="M41.95,144.87c.87,.89,2.04,1.36,3.36,1.36,1.49,0,2.34-.85,2.34-1.89,0-1.15-.83-1.93-2.27-1.93-1.04,0-1.89,.32-2.64,1.04l-1.87-.51v-7.2h8.65v2.3h-6.03v3.15c.66-.59,1.68-1.04,2.83-1.04,2.13,0,4.04,1.51,4.04,4.06s-2,4.34-5.04,4.34c-2.19,0-3.78-.72-4.85-1.89l1.47-1.81Z"/><path class="cls-1" d="M63.33,148.35v-1.15c-.72,.89-1.72,1.38-2.81,1.38-2.3,0-4.04-1.74-4.04-4.78s1.72-4.8,4.04-4.8c1.08,0,2.1,.47,2.81,1.4v-4.65h2.42v12.6h-2.42Zm0-6.18c-.42-.6-1.27-1.04-2.08-1.04-1.36,0-2.3,1.08-2.3,2.66s.94,2.64,2.3,2.64c.81,0,1.66-.43,2.08-1.04v-3.23Z"/><path class="cls-1" d="M72.26,139c2.72,0,4.57,2.04,4.57,5.02v.53h-6.78c.15,1.15,1.08,2.12,2.63,2.12,.85,0,1.85-.34,2.44-.91l1.06,1.55c-.93,.85-2.34,1.27-3.76,1.27-2.78,0-4.87-1.87-4.87-4.8,0-2.64,1.95-4.78,4.72-4.78Zm-2.25,3.93h4.5c-.06-.87-.66-2.02-2.25-2.02-1.49,0-2.13,1.12-2.25,2.02Z"/><path class="cls-1" d="M83.99,144.79c.87,.91,2.25,1.44,3.48,1.44,1.53,0,2.38-.66,2.38-1.62,0-1.02-.77-1.49-2.53-1.49-.53,0-1.38,0-1.57,.02v-2.34c.23,.02,1.08,.02,1.57,.02,1.4,0,2.32-.45,2.32-1.4,0-1-1.02-1.51-2.34-1.51-1.23,0-2.32,.47-3.21,1.32l-1.32-1.66c1.02-1.15,2.61-2,4.82-2,2.95,0,4.76,1.32,4.76,3.42,0,1.59-1.36,2.62-2.76,2.87,1.28,.13,2.95,1.13,2.95,3.02,0,2.17-1.95,3.7-4.97,3.7-2.32,0-4.04-.89-4.97-2.02l1.4-1.76Z"/><path class="cls-1" d="M99.16,135.56c3.59,0,5.21,3.25,5.21,6.5s-1.62,6.52-5.21,6.52-5.21-3.27-5.21-6.52,1.61-6.5,5.21-6.5Zm0,2.38c-1.81,0-2.49,1.79-2.49,4.12s.68,4.14,2.49,4.14,2.47-1.81,2.47-4.14-.68-4.12-2.47-4.12Z"/></g></g></g></svg>