<?xml version="1.0" encoding="UTF-8"?><svg id="Capa_2" xmlns="http://www.w3.org/2000/svg" viewBox="0 0 934 282"><defs><style>.cls-1{fill:#5d5d62;}.cls-2{fill:#fff;opacity:.85;stroke:#1b5f99;stroke-miterlimit:10;stroke-width:3px;}.cls-3{fill:#1b5f99;fill-rule:evenodd;}</style></defs><g id="Capa_1-2"><rect class="cls-2" x="1.5" y="1.5" width="931" height="279" rx="20" ry="20"/><g><path class="cls-1" d="M159.58,90.14c5.71,0,9.6,4.29,9.6,10.01s-3.89,10.01-9.6,10.01-9.6-4.29-9.6-10.01,3.86-10.01,9.6-10.01Zm0,2.15c-4.35,0-7.11,3.34-7.11,7.86s2.76,7.86,7.11,7.86,7.11-3.36,7.11-7.86-2.79-7.86-7.11-7.86Z"/><path class="cls-1" d="M182.32,109.8v-9.17c0-2.47-1.25-3.25-3.13-3.25-1.71,0-3.34,1.04-4.15,2.18v10.24h-2.18v-14.01h2.18v2.03c.99-1.16,2.9-2.38,4.99-2.38,2.93,0,4.47,1.48,4.47,4.53v9.83h-2.18Z"/><path class="cls-1" d="M195.02,95.44c2.55,0,4.06,1.04,5.13,2.44l-1.45,1.33c-.93-1.28-2.12-1.83-3.57-1.83-2.99,0-4.84,2.29-4.84,5.4s1.86,5.42,4.84,5.42c1.45,0,2.64-.58,3.57-1.83l1.45,1.33c-1.07,1.39-2.58,2.44-5.13,2.44-4.18,0-6.99-3.19-6.99-7.37s2.81-7.34,6.99-7.34Z"/><path class="cls-1" d="M209.29,95.44c4.24,0,6.73,3.31,6.73,7.51v.55h-11.34c.17,2.64,2.03,4.84,5.05,4.84,1.6,0,3.22-.64,4.32-1.77l1.04,1.42c-1.39,1.39-3.28,2.15-5.57,2.15-4.15,0-7.14-2.99-7.14-7.37,0-4.06,2.9-7.34,6.9-7.34Zm-4.61,6.47h9.2c-.03-2.09-1.42-4.67-4.61-4.67-2.99,0-4.47,2.52-4.58,4.67Z"/><path class="cls-1" d="M233.18,95.44c2.55,0,4.06,1.04,5.13,2.44l-1.45,1.33c-.93-1.28-2.12-1.83-3.57-1.83-2.99,0-4.84,2.29-4.84,5.4s1.86,5.42,4.84,5.42c1.45,0,2.64-.58,3.57-1.83l1.45,1.33c-1.07,1.39-2.58,2.44-5.13,2.44-4.18,0-6.99-3.19-6.99-7.37s2.81-7.34,6.99-7.34Z"/><path class="cls-1" d="M240.55,102.78c0-4.06,2.67-7.34,6.93-7.34s6.93,3.28,6.93,7.34-2.67,7.37-6.93,7.37-6.93-3.31-6.93-7.37Zm11.57,0c0-2.84-1.65-5.4-4.64-5.4s-4.67,2.55-4.67,5.4,1.68,5.42,4.67,5.42,4.64-2.55,4.64-5.42Z"/><path class="cls-1" d="M274.86,109.8v-9.51c0-1.77-.78-2.9-2.58-2.9-1.45,0-2.99,1.04-3.71,2.15v10.27h-2.17v-9.51c0-1.77-.75-2.9-2.58-2.9-1.42,0-2.93,1.04-3.68,2.18v10.24h-2.18v-14.01h2.18v2.03c.58-.9,2.46-2.38,4.52-2.38s3.37,1.16,3.77,2.61c.78-1.28,2.67-2.61,4.7-2.61,2.55,0,3.92,1.42,3.92,4.24v10.12h-2.18Z"/><path class="cls-1" d="M283.55,115.14h-2.18v-19.35h2.18v2.09c1.02-1.42,2.76-2.44,4.73-2.44,3.68,0,6.24,2.78,6.24,7.34s-2.55,7.37-6.24,7.37c-1.92,0-3.6-.9-4.73-2.46v7.46Zm4.18-17.75c-1.71,0-3.42,1.02-4.18,2.23v6.32c.75,1.22,2.47,2.26,4.18,2.26,2.81,0,4.5-2.32,4.5-5.42s-1.68-5.4-4.5-5.4Z"/><path class="cls-1" d="M298.02,109.8v-19.35h2.17v19.35h-2.17Z"/><path class="cls-1" d="M310.64,95.44c4.23,0,6.73,3.31,6.73,7.51v.55h-11.34c.17,2.64,2.03,4.84,5.05,4.84,1.6,0,3.22-.64,4.32-1.77l1.04,1.42c-1.39,1.39-3.28,2.15-5.57,2.15-4.15,0-7.14-2.99-7.14-7.37,0-4.06,2.9-7.34,6.9-7.34Zm-4.61,6.47h9.2c-.03-2.09-1.42-4.67-4.61-4.67-2.99,0-4.47,2.52-4.58,4.67Z"/><path class="cls-1" d="M321.31,106.87v-9.17h-2.32v-1.91h2.32v-3.83h2.18v3.83h2.84v1.91h-2.84v8.7c0,1.04,.46,1.8,1.42,1.8,.61,0,1.19-.26,1.48-.58l.64,1.62c-.55,.52-1.33,.9-2.61,.9-2.06,0-3.1-1.19-3.1-3.28Z"/><path class="cls-1" d="M335.49,95.44c4.23,0,6.73,3.31,6.73,7.51v.55h-11.34c.17,2.64,2.03,4.84,5.05,4.84,1.6,0,3.22-.64,4.32-1.77l1.04,1.42c-1.39,1.39-3.28,2.15-5.57,2.15-4.15,0-7.14-2.99-7.14-7.37,0-4.06,2.9-7.34,6.9-7.34Zm-4.61,6.47h9.2c-.03-2.09-1.42-4.67-4.61-4.67-2.99,0-4.47,2.52-4.58,4.67Z"/><path class="cls-1" d="M355.88,109.8v-2.09c-1.04,1.42-2.75,2.44-4.73,2.44-3.66,0-6.24-2.78-6.24-7.34s2.55-7.37,6.24-7.37c1.89,0,3.6,.93,4.73,2.47v-7.46h2.18v19.35h-2.18Zm0-10.15c-.78-1.22-2.46-2.26-4.21-2.26-2.81,0-4.5,2.32-4.5,5.42s1.68,5.39,4.5,5.39c1.74,0,3.42-.99,4.21-2.2v-6.35Z"/><path class="cls-1" d="M361.88,112.59c.93-.61,1.77-1.74,1.89-2.7-.06,.03-.26,.06-.41,.06-.81,0-1.39-.61-1.39-1.48s.67-1.57,1.54-1.57c.96,0,1.83,.81,1.83,2.2,0,1.77-1.04,3.42-2.38,4.38l-1.07-.9Z"/><path class="cls-1" d="M382.65,95.44c4.23,0,6.73,3.31,6.73,7.51v.55h-11.34c.17,2.64,2.03,4.84,5.05,4.84,1.6,0,3.22-.64,4.32-1.77l1.04,1.42c-1.39,1.39-3.28,2.15-5.57,2.15-4.15,0-7.14-2.99-7.14-7.37,0-4.06,2.9-7.34,6.9-7.34Zm-4.61,6.47h9.2c-.03-2.09-1.42-4.67-4.61-4.67-2.99,0-4.47,2.52-4.58,4.67Z"/><path class="cls-1" d="M401.64,109.8v-1.6c-1.16,1.28-2.76,1.94-4.64,1.94-2.38,0-4.9-1.59-4.9-4.64s2.52-4.61,4.9-4.61c1.92,0,3.51,.61,4.64,1.92v-2.52c0-1.89-1.51-2.96-3.54-2.96-1.68,0-3.05,.61-4.29,1.94l-1.02-1.51c1.51-1.57,3.31-2.32,5.6-2.32,2.96,0,5.42,1.33,5.42,4.73v9.63h-2.18Zm0-5.6c-.84-1.16-2.32-1.74-3.86-1.74-2.03,0-3.45,1.28-3.45,3.08s1.42,3.04,3.45,3.04c1.54,0,3.02-.58,3.86-1.74v-2.64Z"/><path class="cls-1" d="M414.34,95.44c2.55,0,4.06,1.04,5.13,2.44l-1.45,1.33c-.93-1.28-2.12-1.83-3.57-1.83-2.99,0-4.84,2.29-4.84,5.4s1.86,5.42,4.84,5.42c1.45,0,2.64-.58,3.57-1.83l1.45,1.33c-1.07,1.39-2.58,2.44-5.13,2.44-4.18,0-6.99-3.19-6.99-7.37s2.81-7.34,6.99-7.34Z"/><path class="cls-1" d="M432,109.8v-9.22c0-2.46-1.28-3.19-3.16-3.19-1.68,0-3.31,1.04-4.15,2.18v10.24h-2.18v-19.35h2.18v7.37c.99-1.16,2.9-2.38,5.02-2.38,2.93,0,4.47,1.42,4.47,4.47v9.89h-2.18Z"/><path class="cls-1" d="M462.92,109.8v-9.51c0-1.77-.78-2.9-2.58-2.9-1.45,0-2.99,1.04-3.71,2.15v10.27h-2.18v-9.51c0-1.77-.75-2.9-2.58-2.9-1.42,0-2.93,1.04-3.68,2.18v10.24h-2.18v-14.01h2.18v2.03c.58-.9,2.46-2.38,4.52-2.38s3.37,1.16,3.77,2.61c.78-1.28,2.67-2.61,4.7-2.61,2.55,0,3.92,1.42,3.92,4.24v10.12h-2.17Z"/><path class="cls-1" d="M468.63,102.78c0-4.06,2.67-7.34,6.93-7.34s6.93,3.28,6.93,7.34-2.67,7.37-6.93,7.37-6.93-3.31-6.93-7.37Zm11.57,0c0-2.84-1.65-5.4-4.64-5.4s-4.67,2.55-4.67,5.4,1.68,5.42,4.67,5.42,4.64-2.55,4.64-5.42Z"/><path class="cls-1" d="M496.18,109.8v-2.09c-1.04,1.42-2.76,2.44-4.73,2.44-3.65,0-6.24-2.78-6.24-7.34s2.55-7.37,6.24-7.37c1.89,0,3.6,.93,4.73,2.47v-7.46h2.18v19.35h-2.18Zm0-10.15c-.78-1.22-2.47-2.26-4.21-2.26-2.81,0-4.5,2.32-4.5,5.42s1.68,5.39,4.5,5.39c1.74,0,3.42-.99,4.21-2.2v-6.35Z"/><path class="cls-1" d="M512.16,109.8v-1.97c-1.07,1.22-2.9,2.32-4.99,2.32-2.93,0-4.47-1.42-4.47-4.47v-9.89h2.18v9.22c0,2.47,1.25,3.19,3.13,3.19,1.71,0,3.34-.99,4.15-2.12v-10.3h2.18v14.01h-2.18Z"/><path class="cls-1" d="M518.68,109.8v-19.35h2.17v19.35h-2.17Z"/><path class="cls-1" d="M531.3,95.44c4.24,0,6.73,3.31,6.73,7.51v.55h-11.34c.17,2.64,2.03,4.84,5.05,4.84,1.6,0,3.22-.64,4.32-1.77l1.04,1.42c-1.39,1.39-3.28,2.15-5.57,2.15-4.15,0-7.14-2.99-7.14-7.37,0-4.06,2.9-7.34,6.9-7.34Zm-4.61,6.47h9.2c-.03-2.09-1.42-4.67-4.61-4.67-2.99,0-4.47,2.52-4.58,4.67Z"/><path class="cls-1" d="M555.19,95.44c2.55,0,4.06,1.04,5.13,2.44l-1.45,1.33c-.93-1.28-2.12-1.83-3.57-1.83-2.99,0-4.84,2.29-4.84,5.4s1.86,5.42,4.84,5.42c1.45,0,2.64-.58,3.57-1.83l1.45,1.33c-1.07,1.39-2.58,2.44-5.13,2.44-4.18,0-6.99-3.19-6.99-7.37s2.81-7.34,6.99-7.34Z"/><path class="cls-1" d="M572.13,109.8v-1.6c-1.16,1.28-2.75,1.94-4.64,1.94-2.38,0-4.9-1.59-4.9-4.64s2.52-4.61,4.9-4.61c1.91,0,3.51,.61,4.64,1.92v-2.52c0-1.89-1.51-2.96-3.54-2.96-1.68,0-3.05,.61-4.29,1.94l-1.02-1.51c1.51-1.57,3.31-2.32,5.6-2.32,2.96,0,5.42,1.33,5.42,4.73v9.63h-2.18Zm0-5.6c-.84-1.16-2.32-1.74-3.86-1.74-2.03,0-3.45,1.28-3.45,3.08s1.42,3.04,3.45,3.04c1.54,0,3.02-.58,3.86-1.74v-2.64Z"/><path class="cls-1" d="M588.11,109.8v-9.17c0-2.47-1.25-3.25-3.13-3.25-1.71,0-3.34,1.04-4.15,2.18v10.24h-2.18v-14.01h2.18v2.03c.99-1.16,2.9-2.38,4.99-2.38,2.93,0,4.47,1.48,4.47,4.53v9.83h-2.18Z"/><path class="cls-1" d="M602.11,109.8v-19.35h2.17v7.46c1.13-1.54,2.81-2.47,4.73-2.47,3.65,0,6.24,2.9,6.24,7.37s-2.58,7.34-6.24,7.34c-1.97,0-3.68-1.01-4.73-2.44v2.09h-2.17Zm2.17-3.8c.75,1.22,2.47,2.2,4.18,2.2,2.84,0,4.53-2.29,4.53-5.39s-1.68-5.42-4.53-5.42c-1.71,0-3.42,1.04-4.18,2.26v6.35Z"/><path class="cls-1" d="M624.88,95.44c4.24,0,6.73,3.31,6.73,7.51v.55h-11.34c.17,2.64,2.03,4.84,5.05,4.84,1.6,0,3.22-.64,4.32-1.77l1.04,1.42c-1.39,1.39-3.28,2.15-5.57,2.15-4.15,0-7.14-2.99-7.14-7.37,0-4.06,2.9-7.34,6.9-7.34Zm-4.61,6.47h9.19c-.03-2.09-1.42-4.67-4.61-4.67-2.99,0-4.47,2.52-4.58,4.67Z"/><path class="cls-1" d="M651.36,109.8v-1.6c-1.16,1.28-2.76,1.94-4.64,1.94-2.38,0-4.9-1.59-4.9-4.64s2.52-4.61,4.9-4.61c1.92,0,3.51,.61,4.64,1.92v-2.52c0-1.89-1.51-2.96-3.54-2.96-1.68,0-3.05,.61-4.29,1.94l-1.02-1.51c1.51-1.57,3.31-2.32,5.6-2.32,2.96,0,5.42,1.33,5.42,4.73v9.63h-2.17Zm0-5.6c-.84-1.16-2.32-1.74-3.86-1.74-2.03,0-3.45,1.28-3.45,3.08s1.42,3.04,3.45,3.04c1.54,0,3.02-.58,3.86-1.74v-2.64Z"/><path class="cls-1" d="M664.06,95.44c2.55,0,4.06,1.04,5.13,2.44l-1.45,1.33c-.93-1.28-2.12-1.83-3.57-1.83-2.99,0-4.84,2.29-4.84,5.4s1.86,5.42,4.84,5.42c1.45,0,2.64-.58,3.57-1.83l1.45,1.33c-1.07,1.39-2.58,2.44-5.13,2.44-4.18,0-6.99-3.19-6.99-7.37s2.81-7.34,6.99-7.34Z"/><path class="cls-1" d="M678.41,95.44c2.55,0,4.06,1.04,5.13,2.44l-1.45,1.33c-.93-1.28-2.12-1.83-3.57-1.83-2.99,0-4.84,2.29-4.84,5.4s1.86,5.42,4.84,5.42c1.45,0,2.64-.58,3.57-1.83l1.45,1.33c-1.07,1.39-2.58,2.44-5.13,2.44-4.18,0-6.99-3.19-6.99-7.37s2.81-7.34,6.99-7.34Z"/><path class="cls-1" d="M692.68,95.44c4.24,0,6.73,3.31,6.73,7.51v.55h-11.34c.17,2.64,2.03,4.84,5.05,4.84,1.6,0,3.22-.64,4.32-1.77l1.04,1.42c-1.39,1.39-3.28,2.15-5.57,2.15-4.15,0-7.14-2.99-7.14-7.37,0-4.06,2.9-7.34,6.9-7.34Zm-4.61,6.47h9.2c-.03-2.09-1.42-4.67-4.61-4.67-2.99,0-4.47,2.52-4.58,4.67Z"/><path class="cls-1" d="M702.83,106.38c.93,1.07,2.7,2,4.61,2,2.15,0,3.31-.96,3.31-2.32,0-1.54-1.71-2.03-3.6-2.49-2.38-.55-5.08-1.19-5.08-4.09,0-2.18,1.89-4.03,5.22-4.03,2.38,0,4.06,.9,5.19,2.03l-1.01,1.51c-.84-1.02-2.38-1.77-4.18-1.77-1.91,0-3.1,.87-3.1,2.12,0,1.36,1.6,1.8,3.42,2.23,2.44,.55,5.25,1.25,5.25,4.35,0,2.35-1.89,4.23-5.51,4.23-2.29,0-4.24-.7-5.66-2.2l1.13-1.57Z"/><path class="cls-1" d="M716.31,106.38c.93,1.07,2.7,2,4.61,2,2.15,0,3.31-.96,3.31-2.32,0-1.54-1.71-2.03-3.6-2.49-2.38-.55-5.08-1.19-5.08-4.09,0-2.18,1.89-4.03,5.22-4.03,2.38,0,4.06,.9,5.19,2.03l-1.02,1.51c-.84-1.02-2.38-1.77-4.18-1.77-1.91,0-3.1,.87-3.1,2.12,0,1.36,1.59,1.8,3.42,2.23,2.44,.55,5.25,1.25,5.25,4.35,0,2.35-1.89,4.23-5.51,4.23-2.29,0-4.23-.7-5.66-2.2l1.13-1.57Z"/><path class="cls-1" d="M735.98,95.44c4.24,0,6.73,3.31,6.73,7.51v.55h-11.34c.17,2.64,2.03,4.84,5.05,4.84,1.59,0,3.22-.64,4.32-1.77l1.04,1.42c-1.39,1.39-3.28,2.15-5.57,2.15-4.15,0-7.14-2.99-7.14-7.37,0-4.06,2.9-7.34,6.9-7.34Zm-4.61,6.47h9.2c-.03-2.09-1.42-4.67-4.61-4.67-2.99,0-4.47,2.52-4.58,4.67Z"/><path class="cls-1" d="M756.36,109.8v-2.09c-1.04,1.42-2.76,2.44-4.73,2.44-3.65,0-6.24-2.78-6.24-7.34s2.55-7.37,6.24-7.37c1.89,0,3.6,.93,4.73,2.47v-7.46h2.18v19.35h-2.18Zm0-10.15c-.78-1.22-2.47-2.26-4.21-2.26-2.81,0-4.5,2.32-4.5,5.42s1.68,5.39,4.5,5.39c1.74,0,3.42-.99,4.21-2.2v-6.35Z"/><path class="cls-1" d="M779.13,109.8v-1.6c-1.16,1.28-2.76,1.94-4.64,1.94-2.38,0-4.9-1.59-4.9-4.64s2.52-4.61,4.9-4.61c1.92,0,3.51,.61,4.64,1.92v-2.52c0-1.89-1.51-2.96-3.54-2.96-1.68,0-3.05,.61-4.29,1.94l-1.02-1.51c1.51-1.57,3.31-2.32,5.6-2.32,2.96,0,5.42,1.33,5.42,4.73v9.63h-2.18Zm0-5.6c-.84-1.16-2.32-1.74-3.86-1.74-2.03,0-3.45,1.28-3.45,3.08s1.42,3.04,3.45,3.04c1.54,0,3.02-.58,3.86-1.74v-2.64Z"/><path class="cls-1" d="M785.56,106.38c.93,1.07,2.7,2,4.61,2,2.15,0,3.31-.96,3.31-2.32,0-1.54-1.71-2.03-3.6-2.49-2.38-.55-5.08-1.19-5.08-4.09,0-2.18,1.88-4.03,5.22-4.03,2.38,0,4.06,.9,5.19,2.03l-1.01,1.51c-.84-1.02-2.38-1.77-4.18-1.77-1.91,0-3.1,.87-3.1,2.12,0,1.36,1.6,1.8,3.42,2.23,2.44,.55,5.25,1.25,5.25,4.35,0,2.35-1.89,4.23-5.51,4.23-2.29,0-4.24-.7-5.66-2.2l1.13-1.57Z"/><path class="cls-1" d="M815.38,109.8v-1.6c-1.16,1.28-2.75,1.94-4.64,1.94-2.38,0-4.9-1.59-4.9-4.64s2.52-4.61,4.9-4.61c1.91,0,3.51,.61,4.64,1.92v-2.52c0-1.89-1.51-2.96-3.54-2.96-1.68,0-3.05,.61-4.29,1.94l-1.02-1.51c1.51-1.57,3.31-2.32,5.6-2.32,2.96,0,5.42,1.33,5.42,4.73v9.63h-2.18Zm0-5.6c-.84-1.16-2.32-1.74-3.86-1.74-2.03,0-3.45,1.28-3.45,3.08s1.42,3.04,3.45,3.04c1.54,0,3.02-.58,3.86-1.74v-2.64Z"/><path class="cls-1" d="M831.36,109.8v-9.17c0-2.47-1.25-3.25-3.13-3.25-1.71,0-3.34,1.04-4.15,2.18v10.24h-2.18v-14.01h2.18v2.03c.99-1.16,2.9-2.38,4.99-2.38,2.93,0,4.47,1.48,4.47,4.53v9.83h-2.18Z"/><path class="cls-1" d="M156.77,130.24c4.24,0,6.73,3.31,6.73,7.51v.55h-11.34c.17,2.64,2.03,4.84,5.05,4.84,1.6,0,3.22-.64,4.32-1.77l1.04,1.42c-1.39,1.39-3.28,2.15-5.57,2.15-4.15,0-7.14-2.99-7.14-7.37,0-4.06,2.9-7.34,6.9-7.34Zm-4.61,6.47h9.19c-.03-2.09-1.42-4.67-4.61-4.67-2.99,0-4.47,2.52-4.58,4.67Z"/><path class="cls-1" d="M165.7,138.54v-1.91h6.96v1.91h-6.96Z"/><path class="cls-1" d="M175.7,144.6v-19.35h2.17v7.46c1.13-1.54,2.81-2.47,4.73-2.47,3.66,0,6.24,2.9,6.24,7.37s-2.58,7.34-6.24,7.34c-1.97,0-3.68-1.02-4.73-2.44v2.09h-2.17Zm2.17-3.8c.75,1.22,2.47,2.21,4.18,2.21,2.84,0,4.52-2.29,4.52-5.4s-1.68-5.42-4.52-5.42c-1.71,0-3.42,1.04-4.18,2.26v6.35Z"/><path class="cls-1" d="M191.56,137.58c0-4.06,2.67-7.34,6.93-7.34s6.93,3.28,6.93,7.34-2.67,7.37-6.93,7.37-6.93-3.31-6.93-7.37Zm11.57,0c0-2.84-1.65-5.4-4.64-5.4s-4.67,2.55-4.67,5.4,1.68,5.42,4.67,5.42,4.64-2.55,4.64-5.42Z"/><path class="cls-1" d="M208.15,137.58c0-4.06,2.67-7.34,6.93-7.34s6.93,3.28,6.93,7.34-2.67,7.37-6.93,7.37-6.93-3.31-6.93-7.37Zm11.57,0c0-2.84-1.65-5.4-4.64-5.4s-4.67,2.55-4.67,5.4,1.68,5.42,4.67,5.42,4.64-2.55,4.64-5.42Z"/><path class="cls-1" d="M235.1,144.6l-5.05-6.29-2.32,2.29v4h-2.17v-19.35h2.17v12.79l7.37-7.45h2.76l-6.21,6.35,6.24,7.66h-2.79Z"/><path class="cls-1" d="M257.42,144.6v-9.22c0-2.47-1.28-3.19-3.16-3.19-1.68,0-3.31,1.04-4.15,2.18v10.24h-2.18v-19.35h2.18v7.37c.99-1.16,2.9-2.38,5.02-2.38,2.93,0,4.47,1.42,4.47,4.47v9.89h-2.18Z"/><path class="cls-1" d="M270.04,130.24c4.23,0,6.73,3.31,6.73,7.51v.55h-11.34c.17,2.64,2.03,4.84,5.05,4.84,1.59,0,3.22-.64,4.32-1.77l1.04,1.42c-1.39,1.39-3.28,2.15-5.57,2.15-4.15,0-7.14-2.99-7.14-7.37,0-4.06,2.9-7.34,6.9-7.34Zm-4.61,6.47h9.2c-.03-2.09-1.42-4.67-4.61-4.67-2.99,0-4.47,2.52-4.58,4.67Z"/><path class="cls-1" d="M280.27,144.6v-14.01h2.17v2.26c1.13-1.48,2.76-2.55,4.67-2.55v2.23c-.26-.06-.52-.09-.87-.09-1.33,0-3.16,1.1-3.8,2.23v9.92h-2.17Z"/><path class="cls-1" d="M295.94,130.24c4.23,0,6.73,3.31,6.73,7.51v.55h-11.34c.17,2.64,2.03,4.84,5.05,4.84,1.6,0,3.22-.64,4.32-1.77l1.04,1.42c-1.39,1.39-3.28,2.15-5.57,2.15-4.15,0-7.14-2.99-7.14-7.37,0-4.06,2.9-7.34,6.9-7.34Zm-4.61,6.47h9.2c-.03-2.09-1.42-4.67-4.61-4.67-2.99,0-4.47,2.52-4.58,4.67Z"/><path class="cls-1" d="M307.13,141.7c.87,0,1.6,.73,1.6,1.59s-.73,1.6-1.6,1.6-1.59-.72-1.59-1.6,.72-1.59,1.59-1.59Z"/><path class="cls-1" d="M325.83,144.6v-8.18l-7.63-11.17h2.81l6,8.99,6-8.99h2.81l-7.6,11.17v8.18h-2.41Z"/><path class="cls-1" d="M333.78,137.58c0-4.06,2.67-7.34,6.93-7.34s6.93,3.28,6.93,7.34-2.67,7.37-6.93,7.37-6.93-3.31-6.93-7.37Zm11.57,0c0-2.84-1.65-5.4-4.64-5.4s-4.67,2.55-4.67,5.4,1.68,5.42,4.67,5.42,4.64-2.55,4.64-5.42Z"/><path class="cls-1" d="M360.63,144.6v-1.97c-1.07,1.22-2.9,2.32-4.99,2.32-2.93,0-4.47-1.42-4.47-4.47v-9.89h2.18v9.22c0,2.47,1.25,3.19,3.13,3.19,1.71,0,3.34-.99,4.15-2.12v-10.3h2.18v14.01h-2.18Z"/><path class="cls-1" d="M380.82,130.24c2.55,0,4.06,1.04,5.13,2.44l-1.45,1.33c-.93-1.28-2.12-1.83-3.57-1.83-2.99,0-4.84,2.29-4.84,5.4s1.86,5.42,4.84,5.42c1.45,0,2.64-.58,3.57-1.83l1.45,1.33c-1.07,1.39-2.58,2.44-5.13,2.44-4.18,0-6.99-3.19-6.99-7.37s2.81-7.34,6.99-7.34Z"/><path class="cls-1" d="M397.75,144.6v-1.59c-1.16,1.28-2.76,1.94-4.64,1.94-2.38,0-4.9-1.6-4.9-4.64s2.52-4.61,4.9-4.61c1.91,0,3.51,.61,4.64,1.92v-2.52c0-1.88-1.51-2.96-3.54-2.96-1.68,0-3.04,.61-4.29,1.94l-1.01-1.51c1.51-1.57,3.31-2.32,5.6-2.32,2.96,0,5.42,1.33,5.42,4.73v9.63h-2.18Zm0-5.6c-.84-1.16-2.32-1.74-3.86-1.74-2.03,0-3.45,1.28-3.45,3.08s1.42,3.05,3.45,3.05c1.54,0,3.02-.58,3.86-1.74v-2.64Z"/><path class="cls-1" d="M413.73,144.6v-9.17c0-2.47-1.25-3.25-3.13-3.25-1.71,0-3.34,1.04-4.15,2.18v10.24h-2.18v-14.01h2.18v2.03c.99-1.16,2.9-2.38,4.99-2.38,2.93,0,4.47,1.48,4.47,4.53v9.83h-2.17Z"/><path class="cls-1" d="M437.89,144.6v-2.09c-1.04,1.42-2.76,2.44-4.73,2.44-3.66,0-6.24-2.79-6.24-7.34s2.55-7.37,6.24-7.37c1.88,0,3.6,.93,4.73,2.47v-7.46h2.18v19.35h-2.18Zm0-10.15c-.78-1.22-2.47-2.26-4.21-2.26-2.81,0-4.5,2.32-4.5,5.42s1.68,5.4,4.5,5.4c1.74,0,3.42-.99,4.21-2.21v-6.35Z"/><path class="cls-1" d="M443.6,137.58c0-4.06,2.67-7.34,6.93-7.34s6.93,3.28,6.93,7.34-2.67,7.37-6.93,7.37-6.93-3.31-6.93-7.37Zm11.57,0c0-2.84-1.65-5.4-4.64-5.4s-4.67,2.55-4.67,5.4,1.68,5.42,4.67,5.42,4.64-2.55,4.64-5.42Z"/><path class="cls-1" d="M473.13,144.6l-3.66-11.25-3.65,11.25h-2.18l-4.47-14.01h2.26l3.42,11.17,3.68-11.17h1.86l3.68,11.17,3.42-11.17h2.26l-4.47,14.01h-2.18Z"/><path class="cls-1" d="M491.74,144.6v-9.17c0-2.47-1.25-3.25-3.13-3.25-1.71,0-3.34,1.04-4.15,2.18v10.24h-2.17v-14.01h2.17v2.03c.99-1.16,2.9-2.38,4.99-2.38,2.93,0,4.47,1.48,4.47,4.53v9.83h-2.18Z"/><path class="cls-1" d="M498.26,144.6v-19.35h2.18v19.35h-2.18Z"/><path class="cls-1" d="M503.98,137.58c0-4.06,2.67-7.34,6.93-7.34s6.93,3.28,6.93,7.34-2.67,7.37-6.93,7.37-6.93-3.31-6.93-7.37Zm11.57,0c0-2.84-1.65-5.4-4.64-5.4s-4.67,2.55-4.67,5.4,1.68,5.42,4.67,5.42,4.64-2.55,4.64-5.42Z"/><path class="cls-1" d="M530.14,144.6v-1.59c-1.16,1.28-2.76,1.94-4.64,1.94-2.38,0-4.9-1.6-4.9-4.64s2.52-4.61,4.9-4.61c1.92,0,3.51,.61,4.64,1.92v-2.52c0-1.88-1.51-2.96-3.54-2.96-1.68,0-3.05,.61-4.29,1.94l-1.02-1.51c1.51-1.57,3.31-2.32,5.6-2.32,2.96,0,5.42,1.33,5.42,4.73v9.63h-2.17Zm0-5.6c-.84-1.16-2.32-1.74-3.86-1.74-2.03,0-3.45,1.28-3.45,3.08s1.42,3.05,3.45,3.05c1.54,0,3.02-.58,3.86-1.74v-2.64Z"/><path class="cls-1" d="M546.81,144.6v-2.09c-1.04,1.42-2.76,2.44-4.73,2.44-3.65,0-6.24-2.79-6.24-7.34s2.55-7.37,6.24-7.37c1.89,0,3.6,.93,4.73,2.47v-7.46h2.18v19.35h-2.18Zm0-10.15c-.78-1.22-2.47-2.26-4.21-2.26-2.81,0-4.5,2.32-4.5,5.42s1.68,5.4,4.5,5.4c1.74,0,3.42-.99,4.21-2.21v-6.35Z"/><path class="cls-1" d="M561.25,141.67v-9.17h-2.32v-1.91h2.32v-3.83h2.18v3.83h2.84v1.91h-2.84v8.7c0,1.04,.46,1.8,1.42,1.8,.61,0,1.19-.26,1.48-.58l.64,1.62c-.55,.52-1.33,.9-2.61,.9-2.06,0-3.1-1.19-3.1-3.28Z"/><path class="cls-1" d="M578.83,144.6v-9.22c0-2.47-1.28-3.19-3.16-3.19-1.68,0-3.31,1.04-4.15,2.18v10.24h-2.18v-19.35h2.18v7.37c.99-1.16,2.9-2.38,5.02-2.38,2.93,0,4.47,1.42,4.47,4.47v9.89h-2.18Z"/><path class="cls-1" d="M591.44,130.24c4.24,0,6.73,3.31,6.73,7.51v.55h-11.34c.17,2.64,2.03,4.84,5.05,4.84,1.6,0,3.22-.64,4.32-1.77l1.04,1.42c-1.39,1.39-3.28,2.15-5.57,2.15-4.15,0-7.14-2.99-7.14-7.37,0-4.06,2.9-7.34,6.9-7.34Zm-4.61,6.47h9.2c-.03-2.09-1.42-4.67-4.61-4.67-2.99,0-4.47,2.52-4.58,4.67Z"/><path class="cls-1" d="M615.25,130.24c4.24,0,6.73,3.31,6.73,7.51v.55h-11.34c.17,2.64,2.03,4.84,5.05,4.84,1.6,0,3.22-.64,4.32-1.77l1.04,1.42c-1.39,1.39-3.28,2.15-5.57,2.15-4.15,0-7.14-2.99-7.14-7.37,0-4.06,2.9-7.34,6.9-7.34Zm-4.61,6.47h9.19c-.03-2.09-1.42-4.67-4.61-4.67-2.99,0-4.47,2.52-4.58,4.67Z"/><path class="cls-1" d="M624.18,138.54v-1.91h6.96v1.91h-6.96Z"/><path class="cls-1" d="M634.19,144.6v-19.35h2.17v7.46c1.13-1.54,2.81-2.47,4.73-2.47,3.66,0,6.24,2.9,6.24,7.37s-2.58,7.34-6.24,7.34c-1.97,0-3.68-1.02-4.73-2.44v2.09h-2.17Zm2.17-3.8c.75,1.22,2.47,2.21,4.18,2.21,2.84,0,4.52-2.29,4.52-5.4s-1.68-5.42-4.52-5.42c-1.71,0-3.42,1.04-4.18,2.26v6.35Z"/><path class="cls-1" d="M650.05,137.58c0-4.06,2.67-7.34,6.93-7.34s6.93,3.28,6.93,7.34-2.67,7.37-6.93,7.37-6.93-3.31-6.93-7.37Zm11.57,0c0-2.84-1.65-5.4-4.64-5.4s-4.67,2.55-4.67,5.4,1.68,5.42,4.67,5.42,4.64-2.55,4.64-5.42Z"/><path class="cls-1" d="M666.64,137.58c0-4.06,2.67-7.34,6.93-7.34s6.93,3.28,6.93,7.34-2.67,7.37-6.93,7.37-6.93-3.31-6.93-7.37Zm11.57,0c0-2.84-1.65-5.4-4.64-5.4s-4.67,2.55-4.67,5.4,1.68,5.42,4.67,5.42,4.64-2.55,4.64-5.42Z"/><path class="cls-1" d="M693.58,144.6l-5.05-6.29-2.32,2.29v4h-2.18v-19.35h2.18v12.79l7.37-7.45h2.76l-6.21,6.35,6.24,7.66h-2.78Z"/><path class="cls-1" d="M715.18,144.6v-1.59c-1.16,1.28-2.76,1.94-4.64,1.94-2.38,0-4.9-1.6-4.9-4.64s2.52-4.61,4.9-4.61c1.92,0,3.51,.61,4.64,1.92v-2.52c0-1.88-1.51-2.96-3.54-2.96-1.68,0-3.05,.61-4.29,1.94l-1.02-1.51c1.51-1.57,3.31-2.32,5.6-2.32,2.96,0,5.42,1.33,5.42,4.73v9.63h-2.18Zm0-5.6c-.84-1.16-2.32-1.74-3.86-1.74-2.03,0-3.45,1.28-3.45,3.08s1.42,3.05,3.45,3.05c1.54,0,3.02-.58,3.86-1.74v-2.64Z"/><path class="cls-1" d="M731.16,144.6v-9.17c0-2.47-1.25-3.25-3.13-3.25-1.71,0-3.34,1.04-4.15,2.18v10.24h-2.18v-14.01h2.18v2.03c.99-1.16,2.9-2.38,4.99-2.38,2.93,0,4.47,1.48,4.47,4.53v9.83h-2.18Z"/><path class="cls-1" d="M747.84,144.6v-2.09c-1.04,1.42-2.76,2.44-4.73,2.44-3.66,0-6.24-2.79-6.24-7.34s2.55-7.37,6.24-7.37c1.88,0,3.6,.93,4.73,2.47v-7.46h2.17v19.35h-2.17Zm0-10.15c-.78-1.22-2.47-2.26-4.21-2.26-2.81,0-4.5,2.32-4.5,5.42s1.68,5.4,4.5,5.4c1.74,0,3.42-.99,4.21-2.21v-6.35Z"/><path class="cls-1" d="M771.3,144.6v-1.97c-1.07,1.22-2.9,2.32-4.99,2.32-2.93,0-4.47-1.42-4.47-4.47v-9.89h2.18v9.22c0,2.47,1.25,3.19,3.13,3.19,1.71,0,3.33-.99,4.15-2.12v-10.3h2.18v14.01h-2.18Z"/><path class="cls-1" d="M777.73,141.18c.93,1.07,2.7,2,4.61,2,2.15,0,3.31-.96,3.31-2.32,0-1.54-1.71-2.03-3.6-2.5-2.38-.55-5.08-1.19-5.08-4.09,0-2.18,1.89-4.03,5.22-4.03,2.38,0,4.06,.9,5.19,2.03l-1.02,1.51c-.84-1.02-2.38-1.77-4.18-1.77-1.91,0-3.1,.87-3.1,2.12,0,1.36,1.59,1.8,3.42,2.23,2.44,.55,5.25,1.25,5.25,4.35,0,2.35-1.88,4.24-5.51,4.24-2.29,0-4.23-.7-5.66-2.21l1.13-1.57Z"/><path class="cls-1" d="M797.4,130.24c4.24,0,6.73,3.31,6.73,7.51v.55h-11.34c.17,2.64,2.03,4.84,5.05,4.84,1.59,0,3.22-.64,4.32-1.77l1.04,1.42c-1.39,1.39-3.28,2.15-5.57,2.15-4.15,0-7.14-2.99-7.14-7.37,0-4.06,2.9-7.34,6.9-7.34Zm-4.61,6.47h9.2c-.03-2.09-1.42-4.67-4.61-4.67-2.99,0-4.47,2.52-4.58,4.67Z"/><path class="cls-1" d="M814.74,126.76c0-.81,.67-1.45,1.45-1.45s1.48,.64,1.48,1.45-.67,1.48-1.48,1.48-1.45-.67-1.45-1.48Zm.38,17.84v-14.01h2.18v14.01h-2.18Z"/><path class="cls-1" d="M822.07,141.67v-9.17h-2.32v-1.91h2.32v-3.83h2.18v3.83h2.84v1.91h-2.84v8.7c0,1.04,.46,1.8,1.42,1.8,.61,0,1.19-.26,1.48-.58l.64,1.62c-.55,.52-1.33,.9-2.61,.9-2.06,0-3.1-1.19-3.1-3.28Z"/><path class="cls-1" d="M838.08,141.67v-9.17h-2.32v-1.91h2.32v-3.83h2.18v3.83h2.84v1.91h-2.84v8.7c0,1.04,.46,1.8,1.42,1.8,.61,0,1.19-.26,1.48-.58l.64,1.62c-.55,.52-1.33,.9-2.61,.9-2.06,0-3.1-1.19-3.1-3.28Z"/><path class="cls-1" d="M845.36,137.58c0-4.06,2.67-7.34,6.93-7.34s6.93,3.28,6.93,7.34-2.67,7.37-6.93,7.37-6.93-3.31-6.93-7.37Zm11.57,0c0-2.84-1.65-5.4-4.64-5.4s-4.67,2.55-4.67,5.4,1.68,5.42,4.67,5.42,4.64-2.55,4.64-5.42Z"/><path class="cls-1" d="M152.85,184.74h-2.18v-19.35h2.18v2.09c1.01-1.42,2.75-2.44,4.73-2.44,3.68,0,6.24,2.78,6.24,7.34s-2.55,7.37-6.24,7.37c-1.91,0-3.6-.9-4.73-2.47v7.46Zm4.18-17.75c-1.71,0-3.42,1.01-4.18,2.23v6.32c.75,1.22,2.46,2.26,4.18,2.26,2.81,0,4.5-2.32,4.5-5.42s-1.68-5.39-4.5-5.39Z"/><path class="cls-1" d="M167.32,179.4v-14.01h2.18v2.26c1.13-1.48,2.75-2.55,4.67-2.55v2.23c-.26-.06-.52-.09-.87-.09-1.33,0-3.16,1.1-3.8,2.23v9.92h-2.18Z"/><path class="cls-1" d="M182.98,165.05c4.23,0,6.73,3.31,6.73,7.51v.55h-11.34c.17,2.64,2.03,4.84,5.05,4.84,1.59,0,3.22-.64,4.32-1.77l1.04,1.42c-1.39,1.39-3.28,2.15-5.57,2.15-4.15,0-7.14-2.99-7.14-7.37,0-4.06,2.9-7.34,6.9-7.34Zm-4.61,6.47h9.2c-.03-2.09-1.42-4.67-4.61-4.67-2.99,0-4.47,2.52-4.58,4.67Z"/><path class="cls-1" d="M195.39,184.74h-2.17v-19.35h2.17v2.09c1.02-1.42,2.76-2.44,4.73-2.44,3.68,0,6.24,2.78,6.24,7.34s-2.55,7.37-6.24,7.37c-1.91,0-3.6-.9-4.73-2.47v7.46Zm4.18-17.75c-1.71,0-3.42,1.01-4.18,2.23v6.32c.75,1.22,2.47,2.26,4.18,2.26,2.81,0,4.5-2.32,4.5-5.42s-1.68-5.39-4.5-5.39Z"/><path class="cls-1" d="M218.62,179.4v-1.59c-1.16,1.28-2.76,1.94-4.64,1.94-2.38,0-4.9-1.6-4.9-4.64s2.52-4.61,4.9-4.61c1.91,0,3.51,.61,4.64,1.91v-2.52c0-1.89-1.51-2.96-3.54-2.96-1.68,0-3.04,.61-4.29,1.94l-1.01-1.51c1.51-1.57,3.31-2.32,5.6-2.32,2.96,0,5.42,1.33,5.42,4.73v9.63h-2.18Zm0-5.6c-.84-1.16-2.32-1.74-3.86-1.74-2.03,0-3.45,1.28-3.45,3.07s1.42,3.05,3.45,3.05c1.54,0,3.02-.58,3.86-1.74v-2.64Z"/><path class="cls-1" d="M225.15,179.4v-14.01h2.17v2.26c1.13-1.48,2.76-2.55,4.67-2.55v2.23c-.26-.06-.52-.09-.87-.09-1.33,0-3.16,1.1-3.8,2.23v9.92h-2.17Z"/><path class="cls-1" d="M240.81,165.05c4.24,0,6.73,3.31,6.73,7.51v.55h-11.34c.17,2.64,2.03,4.84,5.05,4.84,1.6,0,3.22-.64,4.32-1.77l1.04,1.42c-1.39,1.39-3.28,2.15-5.57,2.15-4.15,0-7.14-2.99-7.14-7.37,0-4.06,2.9-7.34,6.9-7.34Zm-4.61,6.47h9.2c-.03-2.09-1.42-4.67-4.61-4.67-2.99,0-4.47,2.52-4.58,4.67Z"/><path class="cls-1" d="M261.31,167.31v12.1h-2.18v-12.1h-2.32v-1.91h2.32v-1.07c0-2.9,1.62-4.55,4.06-4.55,.81,0,1.57,.14,2.12,.49l-.55,1.62c-.35-.2-.75-.32-1.25-.32-1.42,0-2.21,.99-2.21,2.76v1.07h2.84v1.91h-2.84Z"/><path class="cls-1" d="M265.92,172.38c0-4.06,2.67-7.34,6.93-7.34s6.93,3.28,6.93,7.34-2.67,7.37-6.93,7.37-6.93-3.31-6.93-7.37Zm11.57,0c0-2.84-1.65-5.39-4.64-5.39s-4.67,2.55-4.67,5.39,1.68,5.42,4.67,5.42,4.64-2.55,4.64-5.42Z"/><path class="cls-1" d="M283.32,179.4v-14.01h2.18v2.26c1.13-1.48,2.76-2.55,4.67-2.55v2.23c-.26-.06-.52-.09-.87-.09-1.33,0-3.16,1.1-3.8,2.23v9.92h-2.18Z"/><path class="cls-1" d="M300.8,176.47v-9.17h-2.32v-1.91h2.32v-3.83h2.18v3.83h2.84v1.91h-2.84v8.7c0,1.04,.46,1.8,1.42,1.8,.61,0,1.19-.26,1.48-.58l.64,1.62c-.55,.52-1.33,.9-2.61,.9-2.06,0-3.1-1.19-3.1-3.28Z"/><path class="cls-1" d="M318.38,179.4v-9.22c0-2.47-1.28-3.19-3.16-3.19-1.68,0-3.31,1.04-4.15,2.17v10.24h-2.18v-19.35h2.18v7.37c.99-1.16,2.9-2.38,5.02-2.38,2.93,0,4.47,1.42,4.47,4.47v9.89h-2.18Z"/><path class="cls-1" d="M331,165.05c4.23,0,6.73,3.31,6.73,7.51v.55h-11.34c.17,2.64,2.03,4.84,5.05,4.84,1.6,0,3.22-.64,4.32-1.77l1.04,1.42c-1.39,1.39-3.28,2.15-5.57,2.15-4.15,0-7.14-2.99-7.14-7.37,0-4.06,2.9-7.34,6.9-7.34Zm-4.61,6.47h9.2c-.03-2.09-1.42-4.67-4.61-4.67-2.99,0-4.47,2.52-4.58,4.67Z"/><path class="cls-1" d="M365.62,179.4v-9.51c0-1.77-.78-2.9-2.58-2.9-1.45,0-2.99,1.04-3.71,2.15v10.27h-2.17v-9.51c0-1.77-.75-2.9-2.58-2.9-1.42,0-2.93,1.04-3.68,2.17v10.24h-2.18v-14.01h2.18v2.03c.58-.9,2.47-2.38,4.52-2.38s3.37,1.16,3.77,2.61c.78-1.28,2.67-2.61,4.7-2.61,2.55,0,3.92,1.42,3.92,4.23v10.12h-2.18Z"/><path class="cls-1" d="M371.33,172.38c0-4.06,2.67-7.34,6.93-7.34s6.93,3.28,6.93,7.34-2.67,7.37-6.93,7.37-6.93-3.31-6.93-7.37Zm11.57,0c0-2.84-1.65-5.39-4.64-5.39s-4.67,2.55-4.67,5.39,1.68,5.42,4.67,5.42,4.64-2.55,4.64-5.42Z"/><path class="cls-1" d="M398.88,179.4v-2.09c-1.04,1.42-2.75,2.44-4.73,2.44-3.66,0-6.24-2.78-6.24-7.34s2.55-7.37,6.24-7.37c1.88,0,3.6,.93,4.73,2.46v-7.46h2.18v19.35h-2.18Zm0-10.15c-.78-1.22-2.47-2.26-4.21-2.26-2.81,0-4.5,2.32-4.5,5.42s1.68,5.4,4.5,5.4c1.74,0,3.42-.99,4.21-2.2v-6.35Z"/><path class="cls-1" d="M414.86,179.4v-1.97c-1.07,1.22-2.9,2.32-4.99,2.32-2.93,0-4.47-1.42-4.47-4.47v-9.89h2.18v9.22c0,2.46,1.25,3.19,3.13,3.19,1.71,0,3.34-.99,4.15-2.12v-10.3h2.17v14.01h-2.17Z"/><path class="cls-1" d="M421.39,179.4v-19.35h2.17v19.35h-2.17Z"/><path class="cls-1" d="M434,165.05c4.23,0,6.73,3.31,6.73,7.51v.55h-11.34c.17,2.64,2.03,4.84,5.05,4.84,1.6,0,3.22-.64,4.32-1.77l1.04,1.42c-1.39,1.39-3.28,2.15-5.57,2.15-4.15,0-7.14-2.99-7.14-7.37,0-4.06,2.9-7.34,6.9-7.34Zm-4.61,6.47h9.2c-.03-2.09-1.42-4.67-4.61-4.67-2.99,0-4.47,2.52-4.58,4.67Z"/><path class="cls-1" d="M457.81,165.05c4.23,0,6.73,3.31,6.73,7.51v.55h-11.34c.17,2.64,2.03,4.84,5.05,4.84,1.6,0,3.22-.64,4.32-1.77l1.04,1.42c-1.39,1.39-3.28,2.15-5.57,2.15-4.15,0-7.14-2.99-7.14-7.37,0-4.06,2.9-7.34,6.9-7.34Zm-4.61,6.47h9.2c-.03-2.09-1.42-4.67-4.61-4.67-2.99,0-4.47,2.52-4.58,4.67Z"/><path class="cls-1" d="M476.2,179.4l-4.21-5.74-4.21,5.74h-2.49l5.37-7.19-5.08-6.82h2.52l3.89,5.34,3.89-5.34h2.52l-5.08,6.82,5.4,7.19h-2.52Z"/><path class="cls-1" d="M489.97,179.4v-1.59c-1.16,1.28-2.76,1.94-4.64,1.94-2.38,0-4.9-1.6-4.9-4.64s2.52-4.61,4.9-4.61c1.91,0,3.51,.61,4.64,1.91v-2.52c0-1.89-1.51-2.96-3.54-2.96-1.68,0-3.05,.61-4.29,1.94l-1.02-1.51c1.51-1.57,3.31-2.32,5.6-2.32,2.96,0,5.42,1.33,5.42,4.73v9.63h-2.17Zm0-5.6c-.84-1.16-2.32-1.74-3.86-1.74-2.03,0-3.45,1.28-3.45,3.07s1.42,3.05,3.45,3.05c1.54,0,3.02-.58,3.86-1.74v-2.64Z"/><path class="cls-1" d="M513.41,179.4v-9.51c0-1.77-.78-2.9-2.58-2.9-1.45,0-2.99,1.04-3.71,2.15v10.27h-2.17v-9.51c0-1.77-.75-2.9-2.58-2.9-1.42,0-2.93,1.04-3.68,2.17v10.24h-2.18v-14.01h2.18v2.03c.58-.9,2.46-2.38,4.52-2.38s3.37,1.16,3.77,2.61c.78-1.28,2.67-2.61,4.7-2.61,2.55,0,3.92,1.42,3.92,4.23v10.12h-2.17Z"/><path class="cls-1" d="M521.09,176.5c.87,0,1.6,.73,1.6,1.6s-.72,1.6-1.6,1.6-1.59-.73-1.59-1.6,.72-1.6,1.59-1.6Z"/></g><g><path class="cls-3" d="M123.27,103.57h-1.95v-1.73c0-2.39-.93-4.64-2.63-6.34-1.7-1.71-3.96-2.65-6.36-2.65h0l-59.73,.08c-.43,0-.87,0-1.31,0-3.01-.03-6.11-.05-8.69,1.05-3.09,1.33-4.8,4.1-5.07,8.23,0,.03,0,.06,0,.09v77.98c0,.1,0,.19,0,.29s0,.19,0,.29h0s0,.01,0,.01c.15,3.84,3.13,7.62,8.71,7.62H112.41c4.9,0,8.89-4.03,8.89-8.99v-13.13s.01-28.99,.01-28.99h1.96c3.3,0,5.98-2.68,5.98-5.97v-21.87c0-3.29-2.68-5.98-5.98-5.98Zm-72.08-7.82v76.79h-4.95c-2.48,0-4.45,.76-5.89,1.95V102.35c.44-6.34,4.4-6.65,10.84-6.6Zm75.23,35.67c0,1.74-1.41,3.15-3.15,3.15h-27.93c-.78,0-1.41,.63-1.41,1.41s.63,1.41,1.41,1.41h23.15v28.99c-.01,3.4-2.78,6.16-6.18,6.16h-29.7c-.78,0-1.41,.63-1.41,1.41s.63,1.41,1.41,1.41h29.7c2.39,0,4.56-.93,6.17-2.46v6.6c0,3.4-2.72,6.17-6.07,6.17H46.24c-3.93,0-5.76-2.39-5.89-4.84v-.52c.12-2.43,1.97-4.96,5.89-4.96h5.9c.15,.05,.3,.08,.46,.08s.32-.03,.46-.08h23.07c.78,0,1.41-.63,1.41-1.41s-.63-1.41-1.41-1.41h-22.13V95.75l58.32-.08c1.64,0,3.19,.65,4.36,1.82,1.17,1.17,1.81,2.71,1.81,4.35v1.73h-51.1c-3.3,0-5.98,2.68-5.98,5.98v21.87c0,3.29,2.68,5.98,5.98,5.98h21.47c.78,0,1.41-.63,1.41-1.41s-.63-1.41-1.41-1.41h-21.47c-1.74,0-3.15-1.41-3.15-3.15v-21.87c0-1.74,1.41-3.15,3.15-3.15h55.87c1.74,0,3.15,1.41,3.15,3.15v21.87Z"/><path class="cls-3" d="M97.52,114.97c-1.37,0-2.56,.44-3.5,1.44-.97,1.02-1.37,2.29-1.37,3.67s.4,2.69,1.37,3.72c.94,1,2.12,1.46,3.48,1.46s2.55-.46,3.49-1.47c.95-1.02,1.36-2.28,1.36-3.67s-.4-2.66-1.36-3.69c-.94-1-2.11-1.46-3.48-1.46Zm1.6,7.24c-.41,.52-.95,.77-1.61,.77s-1.21-.24-1.62-.76c-.47-.6-.62-1.37-.62-2.11s.16-1.48,.64-2.06c.41-.5,.94-.76,1.6-.76s1.2,.24,1.62,.76c.47,.59,.62,1.34,.62,2.09s-.16,1.48-.63,2.08Z"/><path class="cls-3" d="M74.18,123.24c-.24-.23-.51-.35-.84-.35h-2.25v-1.52h1.94c.33,0,.62-.11,.86-.34,.22-.22,.34-.5,.34-.81s-.12-.59-.34-.81c-.23-.23-.52-.35-.85-.35h-1.96v-1.46h2.2c.31,0,.58-.12,.8-.34h0s0-.01,0-.01c.21-.23,.32-.51,.32-.83s-.11-.59-.33-.81c-.22-.23-.49-.34-.8-.34h-3.45c-.35,0-.66,.13-.9,.39-.24,.25-.37,.55-.37,.89v7.37c0,.35,.12,.66,.38,.91,.25,.25,.56,.36,.91,.36h3.5c.32,0,.61-.11,.84-.33,.22-.22,.34-.5,.34-.81,0-.16-.03-.32-.1-.47-.06-.13-.15-.25-.25-.36Z"/><path class="cls-3" d="M119.49,119.93l2.66-2.61c.23-.25,.37-.56,.37-.9s-.13-.64-.37-.88c-.24-.24-.54-.37-.88-.37-.38,0-.7,.2-.96,.47l-2.91,3.08v-2.3c0-.34-.13-.64-.37-.88-.24-.24-.55-.38-.89-.38s-.65,.13-.9,.38c-.24,.24-.38,.53-.38,.87v7.62c0,.35,.13,.67,.39,.92,.24,.24,.54,.37,.88,.37s.66-.13,.9-.39c.23-.25,.36-.55,.36-.89v-2.81l3.3,3.61c.27,.28,.6,.47,1,.47,.35,0,.65-.12,.89-.36,.24-.25,.36-.56,.36-.91s-.13-.61-.35-.86l-3.1-3.25Z"/><path class="cls-3" d="M108.37,115.1c-1.37,0-2.56,.45-3.51,1.44-.96,1.02-1.37,2.29-1.37,3.68s.4,2.68,1.37,3.71c.94,1,2.12,1.46,3.48,1.46s2.56-.46,3.49-1.47c.96-1.02,1.37-2.28,1.37-3.67s-.4-2.66-1.37-3.69c-.93-1-2.11-1.46-3.47-1.46Zm1.59,7.24c-.41,.52-.95,.77-1.61,.77s-1.2-.24-1.61-.76c-.48-.6-.63-1.37-.63-2.11s.16-1.48,.64-2.06c.42-.51,.94-.76,1.6-.76s1.2,.24,1.62,.76c.47,.59,.62,1.34,.62,2.09,0,.75-.16,1.48-.63,2.08Z"/><path class="cls-3" d="M89.92,119.77c.13-.08,.24-.17,.34-.28,.17-.18,.29-.41,.37-.65,.1-.29,.14-.58,.14-.88,0-.78-.26-1.45-.85-1.96-.63-.55-1.42-.73-2.24-.73h-2.28c-.35,0-.66,.12-.91,.36-.26,.24-.38,.56-.38,.92v7.36c0,.36,.12,.68,.38,.93,.26,.25,.58,.37,.94,.37h2.94c.87,0,1.66-.25,2.3-.85,.61-.59,.9-1.32,.9-2.17,0-1.23-.58-2.03-1.65-2.41Zm-3.27-2.23h.85c.22,0,.41,.07,.57,.22,.15,.15,.23,.31,.23,.52s-.08,.37-.24,.51c-.17,.15-.36,.22-.58,.22h-.82v-1.47h0Zm2.09,5.15c-.18,.17-.39,.25-.64,.25h-1.47v-1.69h1.49c.24,0,.44,.08,.61,.25,.17,.18,.26,.38,.26,.62,0,.23-.09,.41-.25,.57Z"/><path class="cls-3" d="M80.14,119.32h-1.71c-.63,0-1.14,.51-1.14,1.14s.51,1.14,1.14,1.14h1.71c.62,0,1.14-.51,1.14-1.14s-.51-1.14-1.14-1.14Z"/></g></g></svg>