<svg xmlns="http://www.w3.org/2000/svg" viewBox="0 0 154.33 33.64"><defs><style>.cls-1{fill:#335a9b;}</style></defs><title>plantilla_iconoCerrar</title><g id="Capa_2" data-name="Capa 2"><g id="Capa_4" data-name="Capa 4"><path class="cls-1" d="M6.29.25A51.16,51.16,0,0,0,4.65,9q-.45,4.51-.45,9.08a56.47,56.47,0,0,0,.55,8.08,61.35,61.35,0,0,0,1.54,7.47H4.89a22.73,22.73,0,0,1-2.15-3.85A27.61,27.61,0,0,1,1.23,25.5a33.81,33.81,0,0,1-.92-4.4A29.16,29.16,0,0,1,0,16.94a29.47,29.47,0,0,1,.33-4.32,32.16,32.16,0,0,1,1-4.44A27.9,27.9,0,0,1,4.89.25Z"/><path class="cls-1" d="M14.64,29.53l5.92-15.34L15.09.25h4.44L22.7,8.92,25.91.25h4.44L24.76,14.19l6,15.34H26.36L22.7,19.66l-3.62,9.87Z"/><path class="cls-1" d="M53.66,21.18V23a6.58,6.58,0,0,1-.51,2.57,7.1,7.1,0,0,1-1.42,2.16,6.8,6.8,0,0,1-2.12,1.5,6.2,6.2,0,0,1-2.61.55,9.33,9.33,0,0,1-2.42-.33,5.61,5.61,0,0,1-2.22-1.15,6.38,6.38,0,0,1-1.63-2.12,7.53,7.53,0,0,1-.64-3.31V6.74a7.12,7.12,0,0,1,.5-2.67A6.31,6.31,0,0,1,42,1.93,6.66,6.66,0,0,1,44.14.51,7.36,7.36,0,0,1,46.92,0a6.35,6.35,0,0,1,4.81,1.93,6.9,6.9,0,0,1,1.42,2.24A7.68,7.68,0,0,1,53.66,7V8.64H49.47V7.24a3.38,3.38,0,0,0-.7-2.14,2.29,2.29,0,0,0-1.89-.91,2.14,2.14,0,0,0-2.08,1,5.23,5.23,0,0,0-.51,2.45v15a3.83,3.83,0,0,0,.55,2.13,2.19,2.19,0,0,0,2,.87,2.9,2.9,0,0,0,.88-.15,2.16,2.16,0,0,0,1.5-1.37,3.61,3.61,0,0,0,.25-1.44V21.18Z"/><path class="cls-1" d="M57.08,29.53V.25h12.5V4.19H61.27v8.6h7.24v3.95H61.27v8.59h8.31v4.2Z"/><path class="cls-1" d="M72.29,29.53V.25H79q7.39,0,7.4,8.59a10.88,10.88,0,0,1-.8,4.4,6.25,6.25,0,0,1-2.82,2.92l4.52,13.37H82.9L79,17H76.49v12.5Zm4.2-25.34v9.13h2.38a4.34,4.34,0,0,0,1.77-.3,2.42,2.42,0,0,0,1-.89,4,4,0,0,0,.45-1.42,14,14,0,0,0,.12-2,14,14,0,0,0-.12-1.95,3.93,3.93,0,0,0-.49-1.46,3.33,3.33,0,0,0-3-1.16Z"/><path class="cls-1" d="M89.81,29.53V.25h6.74Q104,.25,104,8.84a10.88,10.88,0,0,1-.8,4.4,6.25,6.25,0,0,1-2.82,2.92l4.52,13.37h-4.44L96.51,17H94v12.5ZM94,4.19v9.13h2.39a4.34,4.34,0,0,0,1.77-.3,2.42,2.42,0,0,0,1-.89,4,4,0,0,0,.45-1.42,14,14,0,0,0,.12-2,14,14,0,0,0-.12-1.95,3.93,3.93,0,0,0-.49-1.46,3.35,3.35,0,0,0-3-1.16Z"/><path class="cls-1" d="M105.44,29.53,112,.25h3.49L122,29.53h-4.2l-1.23-6.3h-5.71l-1.24,6.3ZM115.8,19.29,113.74,8.68h-.08l-2,10.61Z"/><path class="cls-1" d="M124.07,29.53V.25h6.74q7.4,0,7.4,8.59a10.88,10.88,0,0,1-.8,4.4,6.16,6.16,0,0,1-2.82,2.92l4.53,13.37h-4.44L130.77,17h-2.51v12.5Zm4.19-25.34v9.13h2.39a4.29,4.29,0,0,0,1.76-.3,2.36,2.36,0,0,0,1-.89,4,4,0,0,0,.45-1.42,12.47,12.47,0,0,0,.13-2,12.47,12.47,0,0,0-.13-1.95,3.76,3.76,0,0,0-.49-1.46,3.33,3.33,0,0,0-3-1.16Z"/><path class="cls-1" d="M148,33.64a51.34,51.34,0,0,0,1.64-8.76,89,89,0,0,0,.46-9.09,56.54,56.54,0,0,0-.56-8.08A61.58,61.58,0,0,0,148,.25h1.4a28.24,28.24,0,0,1,2.16,3.88,29.92,29.92,0,0,1,1.54,4.26,39.36,39.36,0,0,1,.88,4.4,29,29,0,0,1,.31,4.15,29.37,29.37,0,0,1-.33,4.32,37,37,0,0,1-.94,4.44,29.9,29.9,0,0,1-3.62,7.94Z"/></g></g></svg>