<svg xmlns="http://www.w3.org/2000/svg" viewBox="0 0 29.72 39.25"><defs><style>.cls-1{fill:#aec944;}</style></defs><title>plantilla_iconoActividades</title><g id="Capa_2" data-name="Capa 2"><g id="Layer_7" data-name="Layer 7"><path class="cls-1" d="M29.72,28.66V20.55s0-.07,0-.11V9.85H18.85a1.68,1.68,0,0,1-.75-2.43c1.47-2.34,1.81-5.22-.92-6.81a4.79,4.79,0,0,0-6.47,1.77c-1,1.84-.18,3.45.77,5.1a1.67,1.67,0,0,1-.79,2.37H0V20.33a1.7,1.7,0,0,0,2.55,1c2.36-1.45,5.28-1.78,6.88.92a4.67,4.67,0,0,1-1.92,6.35c-1.85,1-3.34.19-5-.71a1.6,1.6,0,0,0-2.49,1V39.23H7.51v0H23.63v0h6.05V28.76A1,1,0,0,1,29.72,28.66Z"/></g></g></svg>