<svg xmlns="http://www.w3.org/2000/svg" viewBox="0 0 50.01 52.84"><defs><style>.cls-1{fill:#aec944;}.cls-2{fill:#fff;}.cls-3{fill:#edbe85;stroke:#035aa6;stroke-miterlimit:10;}</style></defs><title>plantilla_iconoInteractividades</title><g id="Capa_2" data-name="Capa 2"><g id="Layer_7" data-name="Layer 7"><path class="cls-1" d="M40.47,20.23a20.17,20.17,0,0,1-5.95,14.33A19.77,19.77,0,0,1,30.1,37.9a18.63,18.63,0,0,1-1.9.94,20.13,20.13,0,0,1-8,1.63,20.37,20.37,0,0,1-6-.9,18,18,0,0,1-1.9-.7A20.09,20.09,0,0,1,7,35.53c-.47-.42-.93-.85-1.36-1.3A20.26,20.26,0,0,1,4,32.29,22,22,0,0,1,2.62,30.2a20.26,20.26,0,0,1-2-14.9c.13-.52.27-1,.44-1.52a19.87,19.87,0,0,1,1.56-3.49,19.65,19.65,0,0,1,1.3-2,19.45,19.45,0,0,1,1.71-2c.43-.45.89-.89,1.36-1.3A20.22,20.22,0,0,1,36.79,8.6c.07.09.13.19.19.28.31.45.6.91.87,1.39A20.1,20.1,0,0,1,40.47,20.23Z"/><polygon class="cls-2" points="14.78 10.27 33.26 20.94 14.78 31.61 14.78 10.27"/><path class="cls-3" d="M38.93,52.16l-.69-1.27a5,5,0,0,1-4.5-.78L21.19,40.75a3.45,3.45,0,0,1-.92-.94,2.52,2.52,0,0,1,.1-2.6,2.19,2.19,0,0,1,2.28-.56,5,5,0,0,1,2.09,1.1l2.64,1.78,1.17.7L23,30l-5.21-9.69s-.57-1.81.26-2.71a2.07,2.07,0,0,1,2-.7,2.6,2.6,0,0,1,1.88,1.31l3.33,6.13L31.5,36.05A42.1,42.1,0,0,1,29.16,31s-.25-2.09,1.22-2.68a2.44,2.44,0,0,1,2.76.28s.92.38,1.84,2.73l1.26,2.25a33.56,33.56,0,0,1-2.07-4.16,2.31,2.31,0,0,1,1.2-2.45,2.4,2.4,0,0,1,2.54.38s.24,0,.89,1.17l1.41,2.45a17.87,17.87,0,0,1-1.39-2.74s-.18-1.56.73-2.06a1.64,1.64,0,0,1,2-.26s.79.06,1.57,1.63l3.66,7.39s2.92,6.35,1.86,10.3l.7,1.33Z"/></g></g></svg>