<svg xmlns="http://www.w3.org/2000/svg" viewBox="0 0 46.06 49.08"><defs><style>.cls-1{fill:#dfa62c;}.cls-2{fill:#b4c751;}</style></defs><title>plantilla_botonSiguiente</title><g id="Capa_2" data-name="Capa 2"><g id="Capa_4" data-name="Capa 4"><path class="cls-1" d="M17.92,47.69h0a4.72,4.72,0,0,1,0-6.67l12-12a6.38,6.38,0,0,0,0-9l-12-12a4.73,4.73,0,0,1,0-6.68h0a4.73,4.73,0,0,1,6.68,0L44.87,21.66a4.07,4.07,0,0,1,0,5.76L24.6,47.69A4.71,4.71,0,0,1,17.92,47.69Z"/><path class="cls-2" d="M1.38,38.3h0a4.72,4.72,0,0,1,0-6.67l3.85-3.86a4.57,4.57,0,0,0,0-6.47L1.38,17.45a4.73,4.73,0,0,1,0-6.68h0a4.73,4.73,0,0,1,6.68,0L18.94,21.66a4.06,4.06,0,0,1,0,5.76L8.06,38.3A4.71,4.71,0,0,1,1.38,38.3Z"/></g></g></svg>