<svg xmlns="http://www.w3.org/2000/svg" viewBox="0 0 44.68 47.06"><defs><style>.cls-1{fill:#034372;}.cls-2{fill:#2c2e36;}.cls-3{fill:#fff;}.cls-4{fill:#231f20;}.cls-5{fill:#525760;}.cls-6{fill:#424242;}.cls-7{fill:#fffce8;}.cls-8{fill:#ededee;}.cls-9{fill:#fbe1ba;}</style></defs><title>plantilla_iconoVideo</title><g id="Capa_2" data-name="Capa 2"><g id="Layer_7" data-name="Layer 7"><path class="cls-1" d="M44.68,14.8H11.77l0-.07-1.14-1.31,2.07-.36,5.4-1,5.09-.9,5.4-1,5.08-.89L39,8.42l5-.89v0L43.28,3h0L43.2,2.5h0l-.05-.27-4.73.84L33.33,4l-5.4,1-5.08.89-5.4,1-5.09.9L7,8.6l-1.18.21a2,2,0,0,0-.59,0l-1.27.08a2,2,0,0,0-1.15.49l-.9.15h0L2,10.55a2.49,2.49,0,0,0-.08.61v7.11A2.34,2.34,0,0,0,2.72,20v.15h.21a2,2,0,0,0,.83.31V45.75a1.31,1.31,0,0,0,1.3,1.31H42.11a1.31,1.31,0,0,0,1.31-1.31V20.44a1.09,1.09,0,0,0,0-.26h1.29Z"/><rect class="cls-2" x="1.93" y="16.9" width="39.66" height="27.92" rx="1.3"/><rect class="cls-3" x="6.52" y="39.39" width="29.62" height="0.41"/><rect class="cls-3" x="28.12" y="39.8" width="0.42" height="3.31"/><rect class="cls-3" x="14.12" y="39.8" width="0.41" height="3.31"/><path class="cls-4" d="M21.43,21.63A7.55,7.55,0,1,0,29,29.18,7.55,7.55,0,0,0,21.43,21.63Zm0,14.08A6.53,6.53,0,1,1,28,29.18,6.53,6.53,0,0,1,21.43,35.71Z"/><path class="cls-3" d="M14,29.18a7.41,7.41,0,1,0,7.41-7.41A7.41,7.41,0,0,0,14,29.18Zm.74,0a6.67,6.67,0,1,1,6.67,6.67A6.67,6.67,0,0,1,14.76,29.18Z"/><path class="cls-5" d="M40.28,17.89H3.23a.31.31,0,0,0-.31.31V43.52a.32.32,0,0,0,.19.29A29.76,29.76,0,0,1,13.62,29a7.82,7.82,0,0,1,7.81-7.63A7.72,7.72,0,0,1,26.16,23a36.86,36.86,0,0,1,9.06-1.13,38.17,38.17,0,0,1,5.38.39v-4A.32.32,0,0,0,40.28,17.89Z"/><path class="cls-6" d="M18.33,25.44a.73.73,0,0,1,1.16-.67l.59.34a35.76,35.76,0,0,1,4.05-1.57,6.24,6.24,0,0,0-8.79,4.22c1-.64,2-1.24,3-1.79Z"/><path class="cls-4" d="M25.82,29.61a.45.45,0,0,0,0-.86l-2.49-1.44-1.49-.86L19.35,25c-.41-.24-.74,0-.74.43v7.47c0,.48.33.67.74.43l2.49-1.43,1.49-.86Z"/><path class="cls-3" d="M18.89,25.08a.41.41,0,0,0-.15.36v7.47a.43.43,0,0,0,.15.37.44.44,0,0,0,.39-.05l2.49-1.44,4-2.3c.16-.09.24-.2.24-.31a.37.37,0,0,0-.24-.31l-6.46-3.74A.4.4,0,0,0,18.89,25.08Z"/><path class="cls-3" d="M14.05,28.55l.83-.59a6.67,6.67,0,0,1,6.55-5.45,6.58,6.58,0,0,1,3.21.83l1-.28a7.41,7.41,0,0,0-11.56,5.49Z"/><path class="cls-3" d="M18.89,25.08a.41.41,0,0,0-.15.36v.24l.81-.4-.26-.15A.4.4,0,0,0,18.89,25.08Z"/><polygon class="cls-7" points="36.59 0.83 42.25 5.26 42.25 5.3 37.2 6.18 31.5 1.73 36.59 0.83"/><polygon class="cls-7" points="15.62 4.52 21.32 8.98 16.23 9.88 10.53 5.42 15.62 4.52"/><polygon class="cls-7" points="5.13 6.37 10.83 10.82 5.74 11.72 0.04 7.26 5.13 6.37"/><polygon class="cls-7" points="26.1 2.68 31.8 7.13 26.72 8.03 21.02 3.57 26.1 2.68"/><polygon class="cls-2" points="41.32 0 42.25 5.26 36.59 0.83 41.32 0"/><polygon class="cls-2" points="31.5 1.73 37.2 6.18 31.8 7.13 26.1 2.68 31.5 1.73"/><polygon class="cls-2" points="21.02 3.57 26.72 8.03 21.32 8.98 15.62 4.52 21.02 3.57"/><polygon class="cls-2" points="10.53 5.42 16.23 9.88 10.83 10.82 5.13 6.37 10.53 5.42"/><polygon class="cls-2" points="0 7.27 0.04 7.26 5.74 11.72 0.93 12.57 0 7.27"/><polygon class="cls-7" points="36.89 1.06 37.39 1.45 32.3 2.34 31.8 1.95 36.89 1.06"/><polygon class="cls-7" points="26.4 2.9 26.9 3.29 21.81 4.19 21.32 3.8 26.4 2.9"/><polygon class="cls-7" points="15.92 4.75 16.41 5.14 11.33 6.03 10.83 5.64 15.92 4.75"/><polygon class="cls-8" points="5.43 6.59 5.93 6.98 0.84 7.88 0.34 7.49 5.43 6.59"/><polygon class="cls-5" points="41.37 0.27 41.45 0.73 37.39 1.45 36.89 1.06 41.37 0.27"/><polygon class="cls-5" points="31.8 1.95 32.3 2.34 26.9 3.29 26.4 2.9 31.8 1.95"/><polygon class="cls-5" points="21.32 3.8 21.81 4.19 16.41 5.14 15.92 4.75 21.32 3.8"/><polygon class="cls-5" points="10.83 5.64 11.33 6.03 5.93 6.98 5.43 6.59 10.83 5.64"/><polygon class="cls-5" points="0.84 7.88 0.13 8 0.05 7.54 0.34 7.49 0.84 7.88"/><polygon class="cls-3" points="5.7 12.57 0.89 17.91 0.89 17.95 6.02 17.95 10.86 12.57 5.7 12.57"/><polygon class="cls-3" points="26.99 12.57 22.15 17.95 27.32 17.95 32.16 12.57 26.99 12.57"/><polygon class="cls-3" points="37.64 12.57 32.8 17.95 37.96 17.95 42.81 12.57 37.64 12.57"/><polygon class="cls-3" points="16.35 12.57 11.5 17.95 16.67 17.95 21.51 12.57 16.35 12.57"/><polygon class="cls-2" points="10.86 12.57 6.02 17.95 11.5 17.95 16.35 12.57 10.86 12.57"/><polygon class="cls-2" points="21.51 12.57 16.67 17.95 22.15 17.95 26.99 12.57 21.51 12.57"/><polygon class="cls-2" points="32.16 12.57 27.32 17.95 32.8 17.95 37.64 12.57 32.16 12.57"/><polygon class="cls-2" points="42.85 12.57 42.81 12.57 37.96 17.95 42.85 17.95 42.85 12.57"/><polygon class="cls-8" points="5.44 12.84 5.02 13.31 10.18 13.31 10.61 12.84 5.44 12.84"/><polygon class="cls-7" points="16.09 12.84 15.67 13.31 20.83 13.31 21.25 12.84 16.09 12.84"/><polygon class="cls-7" points="26.74 12.84 26.32 13.31 31.48 13.31 31.9 12.84 26.74 12.84"/><polygon class="cls-7" points="37.38 12.84 36.96 13.31 42.13 13.31 42.55 12.84 37.38 12.84"/><polygon class="cls-5" points="10.61 12.84 10.18 13.31 15.67 13.31 16.09 12.84 10.61 12.84"/><polygon class="cls-5" points="21.25 12.84 20.83 13.31 26.32 13.31 26.74 12.84 21.25 12.84"/><polygon class="cls-5" points="31.9 12.84 31.48 13.31 36.96 13.31 37.38 12.84 31.9 12.84"/><polygon class="cls-5" points="42.13 13.31 42.85 13.31 42.85 12.84 42.55 12.84 42.13 13.31"/><path class="cls-5" d="M3.34,6.53l-1.27.09a2.26,2.26,0,0,0-2,2.31V16a2.14,2.14,0,0,0,2,2.23h6.5a2.15,2.15,0,0,0,2-2.23v-.67a6.29,6.29,0,0,0-.76-2.79l-.05-.08L5.79,7.79l.1.15A3,3,0,0,0,3.34,6.53Z"/><path class="cls-2" d="M2.13,7.63A1.29,1.29,0,0,0,1,8.93V16a1.18,1.18,0,0,0,1.12,1.22h6.5A1.17,1.17,0,0,0,9.75,16v-.67a5.1,5.1,0,0,0-.61-2.24l-4-4.64A2,2,0,0,0,3.4,7.55Z"/><path class="cls-7" d="M3.82,9.47a.78.78,0,0,1-.74.81.81.81,0,0,1,0-1.62A.77.77,0,0,1,3.82,9.47Z"/><path class="cls-7" d="M3.82,15.55a.77.77,0,0,1-.74.81.81.81,0,0,1,0-1.62A.78.78,0,0,1,3.82,15.55Z"/><path class="cls-7" d="M8.73,15.55A.74.74,0,1,1,8,14.74.77.77,0,0,1,8.73,15.55Z"/><rect class="cls-3" x="6.52" y="19.12" width="29.11" height="0.26"/><path class="cls-9" d="M3.35,9.33A.38.38,0,0,1,3,9.74a.41.41,0,0,1,0-.81A.38.38,0,0,1,3.35,9.33Z"/><path class="cls-9" d="M3.28,15.41a.32.32,0,0,1-.3.34.32.32,0,0,1-.29-.34A.32.32,0,0,1,3,15.07.32.32,0,0,1,3.28,15.41Z"/><path class="cls-9" d="M8.23,15.4a.34.34,0,1,1-.67,0,.34.34,0,0,1,.67,0Z"/></g></g></svg>