<svg xmlns="http://www.w3.org/2000/svg" xmlns:xlink="http://www.w3.org/1999/xlink" viewBox="0 0 197 407.7"><defs><style>.cls-1{fill:none;}.cls-2{clip-path:url(#clip-path);}.cls-3{fill:#002845;}.cls-4{fill:#e6e8e8;}.cls-5{fill:#003052;}.cls-6{fill:#656565;}.cls-7{fill:#363636;}.cls-8{fill:#1d1d1d;}.cls-9{fill:#fc0;}.cls-10{fill:#036;}.cls-11{fill:#fff;}.cls-12{fill:#c2c9cc;}.cls-13{fill:#d4d4d4;}.cls-14{fill:#9f9f9f;}.cls-15{fill:#b4b4b4;}.cls-16{fill:#f2f2f2;}.cls-17{fill:#aeaeae;}.cls-18{fill:#dadada;}.cls-19{fill:#d47d57;}.cls-20{fill:#544a44;}.cls-21{fill:#1e1e1e;}.cls-22{fill:#0f0f0f;}.cls-23{fill:#1a1919;}.cls-24{fill:#322d2a;}.cls-25{fill:#0b0a0a;}.cls-26{fill:#34302a;}.cls-27{fill:#282828;}</style><clipPath id="clip-path" transform="translate(-74.44 -50.46)"><rect class="cls-1" width="306" height="228"/></clipPath></defs><title>slide3_personaje1</title><g id="Capa_2" data-name="Capa 2"><g id="PERSONAJE"><g class="cls-2"><g id="Layer0_0_FILL" data-name="Layer0 0 FILL"><path class="cls-3" d="M121.76,213.8l-.4-.05q-7.67-1-13,2a23.56,23.56,0,0,0-9.56,9.65,23,23,0,0,0-2.51,9.39,28.83,28.83,0,0,0,.09,3.92,23.38,23.38,0,0,0,4.1,11.42c.32.32.66.67,1,1q1.89,2,4,4a26.21,26.21,0,0,0,.48,7.76,14.45,14.45,0,0,0,4.54,8.2,14.23,14.23,0,0,0,4.28,2.33,28.57,28.57,0,0,0,5,1.41,72,72,0,0,1,9.87,2.34s0-.06.09-.09a80.59,80.59,0,0,0,17.46-24.24q5.81-13,6.17-22a17.19,17.19,0,0,0-4.81-4.89q-1.8-1.28-6.21-3.75-5.73-3.09-8.47-4.76a58.87,58.87,0,0,1-7.49-5.29,3.25,3.25,0,0,0-.35-.31,13.74,13.74,0,0,1-1.68,2.47q-1.35-.3-2.64-.48M112.33,231a64.66,64.66,0,0,0-6.61,21.81,21.89,21.89,0,0,1-3.84-8.28,23.84,23.84,0,0,1-.4-9.21,22.91,22.91,0,0,1,3.13-8.6,24.06,24.06,0,0,1,6.13-6.74q5.55-3.94,10.93-3l.18,0-.22.22a65.47,65.47,0,0,0-9.3,13.8m116.87-3.78h-3.53L200.11,230v9.82L231,238.76Q229.73,233,229,227.21M209.82,77.34a4.65,4.65,0,0,0-.48-.66q-5.07-6.57-11.51-14.11Q195.37,73.73,192.77,83q-1.07,4.09-2.16,7.76-6.27,20.4-14.55,41.43c-.41,1-.81,2-1.19,3.13a8.65,8.65,0,0,0-.53,1.32q-1.54,3.66-3,7.36-1.28,3-2.51,5.91c-.47,1.09-1,2.16-1.46,3.22q-1.19,2.73-2.42,5.5c-.59,1.3-1.18,2.61-1.76,3.93q-2.47,5.51-5.12,11l-.13.26q-2.68-5-5.11-10.71c-.44-1-.87-2.09-1.28-3.17-.59-1.44-1.15-2.88-1.67-4.32q-1.59-4.32-3-8.82c-.38-1.26-.77-2.57-1.15-3.92q-.75-2.48-1.41-5c-.59-2.3-1.16-4.63-1.72-7q-3.26-13.75-5.46-29.75-.89-6.52-1.54-13.4c-.09-1-.2-1.94-.31-2.91a204,204,0,0,1-.71-23q-4.8,5-9.12,10-4.94,5.46-9.3,10.84l-4.19,8.16,12.3,4.1-14.11,9.82q14.64,61.49,44.87,80.31c.24.15.46.29.66.44q39.45-33.63,58.8-77.88L201.62,96.69l14.59-7.63a48.32,48.32,0,0,0-6.39-11.72M197.46,62.41l0,0h0Z" transform="translate(-74.44 -50.46)"/><path class="cls-4" d="M105.72,252.8A64.66,64.66,0,0,1,112.33,231a65.47,65.47,0,0,1,9.3-13.8l.22-.22-.18,0q-5.39-.9-10.93,3a24.06,24.06,0,0,0-6.13,6.74,22.91,22.91,0,0,0-3.13,8.6,23.84,23.84,0,0,0,.4,9.21A21.89,21.89,0,0,0,105.72,252.8Z" transform="translate(-74.44 -50.46)"/><path class="cls-5" d="M209.2,77.09a6.42,6.42,0,0,1,.48.65,48.34,48.34,0,0,1,6.37,11.68L201.51,97l12.78,10.88Q195,152,155.72,185.48c-.2-.15-.42-.29-.65-.44q-30.12-18.75-44.7-80l14-9.79-12.25-4.08,4.17-8.12q4.35-5.36,9.27-10.8Q99.14,71,81,84.33a.14.14,0,0,1,0,.09l-.57,0a28.36,28.36,0,0,0-3.6,12.56,68.49,68.49,0,0,0,.92,14q.75,4.74,2.24,14.44A54,54,0,0,1,80,139.6a70,70,0,0,1-2.11,8.48,81,81,0,0,0-2.15,8.51,25,25,0,0,0-.27,8.83,15.24,15.24,0,0,0,3.43,7.86,48.73,48.73,0,0,0-4.48,22.56,62.46,62.46,0,0,0,5.05,22.79,89.53,89.53,0,0,0,11.76,20,139.27,139.27,0,0,0,9.53,11.19,23.38,23.38,0,0,1-4.08-11.37,28.65,28.65,0,0,1-.09-3.91,23.2,23.2,0,0,1,2.5-9.35,23.51,23.51,0,0,1,9.53-9.61q5.27-2.94,12.91-2l.08-.39v-1.58q0-10.32-.21-15.68-.3-7.89-1.1-14.4a178.24,178.24,0,0,1,1.62,32.1q1.29.18,2.64.48a14,14,0,0,0,1.66-2.46,3.31,3.31,0,0,1,.36.31,59,59,0,0,0,7.46,5.27q2.71,1.66,8.43,4.74,4.4,2.46,6.19,3.73a17,17,0,0,1,4.78,4.87q-.34,9-6.14,21.95A80.15,80.15,0,0,1,130,276.71q-.09,0-.09.09a72.22,72.22,0,0,0-9.83-2.33,29.5,29.5,0,0,1-5-1.4q-1,9.66,10.62,10.62h.53a20.15,20.15,0,0,0,12.29-3.38q8.82-5.69,15.76-20.9c.73-1.66,1.48-3.42,2.24-5.26q1.36-3.53,2.68-7.42a5.33,5.33,0,0,0,.17-.66q.8-2.35,1.54-4.88c.15-.5.29-1,.44-1.53q1.89-6.63,3.64-14.18c0-.09.06-.19.09-.31l.44-2.15a4.59,4.59,0,0,1,.18-.88,4.79,4.79,0,0,1,.08-.48c.09-.5.21-1,.35-1.5q1.8,4.49,3.87,8.92c.91,1.9,1.84,3.8,2.81,5.7,1.12,2.17,2.28,4.3,3.47,6.41l1.23,2.07q1.48,2.53,3,5a.14.14,0,0,0,.05.09,196,196,0,0,0,29.59,36.35,76.78,76.78,0,0,0,8.08,2.2q18.27,3.93,30-3.95a148.74,148.74,0,0,1-17.39-44L200.11,240v-9.79l25.46-2.76q-7.2-45.09,9.57-83.59,13.17-24.33,15-55.06Q228.87,77.22,209.2,77.09M168.92,192.82a5,5,0,0,1,5,5,4.68,4.68,0,0,1-1.5,3.48,4.74,4.74,0,0,1-3.48,1.45,4.81,4.81,0,0,1-3.53-1.45,4.74,4.74,0,0,1-1.45-3.48,5,5,0,0,1,5-5m-68.36-61.36L99.37,130v-.09C99.78,130.44,100.17,131,100.56,131.46Z" transform="translate(-74.44 -50.46)"/><path class="cls-6" d="M172.4,194.27a4.74,4.74,0,0,0-3.48-1.45,5,5,0,0,0-5,5,4.74,4.74,0,0,0,1.45,3.48,4.81,4.81,0,0,0,3.53,1.45,4.74,4.74,0,0,0,3.48-1.45,4.68,4.68,0,0,0,1.5-3.48A4.74,4.74,0,0,0,172.4,194.27Z" transform="translate(-74.44 -50.46)"/><path class="cls-7" d="M168,261.44l-5.55,5.64-8.24-7.36q-7,15.27-15.83,21Q141,295,157.06,336.9q1.45,3.92,3.09,8.07a267.32,267.32,0,0,1,14,54.69q12.3.79,11.68,7.06-2.25-4.64-10.89-5.51l-.22.08c-1,.3-1.42.72-1.27,1.28a1.66,1.66,0,0,0,.39.66q9.21,4.36,11.07,10.49a32.45,32.45,0,0,0-11.95-8.9,22.92,22.92,0,0,0-3.17,15l31.29,20.93q2.73-9-4-26.75l-5.51-35.35q-3.21-19-9.7-28.21a225,225,0,0,1-9-51.92,3.19,3.19,0,0,0-1.32-2.95,9.69,9.69,0,0,0-2.78-1.63,37.57,37.57,0,0,0-4.19-1.55,17.26,17.26,0,0,1-2.38-.75,3.72,3.72,0,0,1-1.72-1.41c.86-.05,1.69-.08,2.52-.08a31.88,31.88,0,0,1,6.83.7q11.94,2.64,18.33,15.07a109.07,109.07,0,0,0-9.74-27,132.81,132.81,0,0,0-8.72-14.54l-1.68-3m1.22,7.8,1.85.44v13l-7.93,2V282.8l6.17-1.37V269.52m11.3-20.9L176,253.24l-2,2.08a82,82,0,0,1,3.7,8.81,485.23,485.23,0,0,1,45.58,88.59,13,13,0,0,0,0,2.87,11.87,11.87,0,0,0,.66,2.64,10.6,10.6,0,0,0,1.15,2.07.67.67,0,0,0,.17.27,13.07,13.07,0,0,0,1.94,2.11,0,0,0,0,0,.05.05,122.11,122.11,0,0,1,10.18,43.81,8.1,8.1,0,0,0,2.33.7l2.43.49c.5.2.72.4.66.57a.61.61,0,0,1-.57.31c-.5.09-.87.16-1.11.22l-.44.13a.49.49,0,0,0-.31.22,1,1,0,0,0-.22,1,7.66,7.66,0,0,0,2.52,4l-.22.22c-1.3,1.36-1.88,3.4-1.77,6.13a28.09,28.09,0,0,0,.58,3.31c.26,1.41.44,2.51.53,3.3a22.93,22.93,0,0,1,14.19.88,55.35,55.35,0,0,1,5.24,3,27.59,27.59,0,0,1,6.57,5.64q-.14-3.89-4.72-9a64.08,64.08,0,0,0-10.79-5.6,21.58,21.58,0,0,1-5.73-2.86,3.79,3.79,0,0,1-1.11-1.28,1.43,1.43,0,0,1,.09-1.45,2.93,2.93,0,0,1,1.68-.67,23.85,23.85,0,0,1,9,.67l2.16-2.69q-6.34-45.31-20.72-62-7.23-28.72-16.7-57-1.35-3.71-2.65-7.4a78,78,0,0,1-8.11-2.21A196.68,196.68,0,0,1,180.56,248.62Z" transform="translate(-74.44 -50.46)"/><path d="M171.11,269.68l-1.85-.44v12.19l-6.17,1.37v1.89l7.93-2V269.52m-8.89,22.11a17.26,17.26,0,0,0,2.38.75,37.57,37.57,0,0,1,4.19,1.55,9.69,9.69,0,0,1,2.78,1.63,3.19,3.19,0,0,1,1.32,2.95q8.07.66,17.32,12a46,46,0,0,0-2-4.59q-6.39-12.42-18.33-15.07a31.88,31.88,0,0,0-6.83-.7c-.83,0-1.66,0-2.52.08A3.72,3.72,0,0,0,162.13,291.63Z" transform="translate(-74.44 -50.46)"/><path class="cls-8" d="M138.33,280.7A20.31,20.31,0,0,1,126,284.1a342.46,342.46,0,0,1,26.62,54.47A301.72,301.72,0,0,1,169.36,403q-7.76,9.34-5.33,20.58l5.73-3.74a22.92,22.92,0,0,1,3.17-15,32.45,32.45,0,0,1,11.95,8.9q-1.86-6.12-11.07-10.49a1.66,1.66,0,0,1-.39-.66c-.15-.56.28-1,1.27-1.28l.22-.08q8.64.87,10.89,5.51.62-6.27-11.68-7.06a267.32,267.32,0,0,0-14-54.69q-1.64-4.16-3.09-8.07Q141,295,138.33,280.7m35.33-25.38-2.51,2.55-3.52,3.57,1.67,3A134.51,134.51,0,0,1,178,278.94a109.48,109.48,0,0,1,9.74,27,48.44,48.44,0,0,1,2,4.59q11.67,14.28,25.29,45.53v.09q1.07,2.33,2.12,4.85c.38.94.78,1.89,1.19,2.86.26.62.53,1.25.79,1.9q9.88,24.15,8.95,54.21a39.83,39.83,0,0,0-3.35,8.72c-1.14,4.74-.81,8.78,1,12.13l15.55-13.62a.41.41,0,0,1,.18-.05c-.09-.79-.26-1.89-.53-3.3a29.77,29.77,0,0,1-.57-3.31q-.18-4.1,1.76-6.13l.22-.22a7.63,7.63,0,0,1-2.51-4,1,1,0,0,1,.22-1c0-.08.13-.16.31-.22l.44-.13c.23-.06.6-.13,1.1-.22a.59.59,0,0,0,.57-.31c.06-.17-.16-.37-.66-.57l-2.42-.49a8.18,8.18,0,0,1-2.34-.7A121.9,121.9,0,0,0,227,362.73v0a12.59,12.59,0,0,1-2-2.14.71.71,0,0,1-.18-.27,10.55,10.55,0,0,1-1.14-2.07,11.37,11.37,0,0,1-.67-2.64,13.68,13.68,0,0,1,0-2.87,484.58,484.58,0,0,0-45.57-88.59A82,82,0,0,0,173.66,255.32Z" transform="translate(-74.44 -50.46)"/><path class="cls-9" d="M171.26,253.55l-.49-8.77-7.05,1.32-.49,7.94,8-.49m.22,4.32,2.51-2.55,2-2.08-4.76.31.22,4.32m-15.08-3.44q-1.14,2.79-2.24,5.29l8.24,7.36.83-13-6.83.39m7.89-18-2.07.35c-.32,1.06-.65,2.1-1,3.13-.15.52-.29,1-.44,1.54q-.75,2.53-1.54,4.89c-.05.23-.11.45-.18.67l4.63-.89.57-9.69m1.77-16.09a13.61,13.61,0,0,0-.36,1.5q0,.23-.09.48a5.58,5.58,0,0,0-.17.89l-.44,2.15a3.09,3.09,0,0,1-.09.31l-.62,10.76,6-1-.36-6.12q-2.07-4.46-3.87-9m11.41,23.18-1.23-2.07q-1.8-3.18-3.49-6.43l-2.46.39.48,9.39,6.7-1.28m-14.32-81-4.94.26-.31,11,.13-.26q2.66-5.52,5.12-11m-11.92-7.14c-.09,1.5-.13,3-.13,4.54.41,1.08.83,2.14,1.28,3.17l5.42-.31.13-8.42-6.7,1m.81-9.21-5.2.61q1.41,4.5,3,8.82l1.8-.22q.13-4.64.4-9.21m13.13-1.55,4.63-.53a49.5,49.5,0,0,0-.39-8.33l-4.9.4q.41,4.41.66,8.46m-6.56.8.17-8.77-5.9.52q-.49,4.5-.84,9l6.57-.75M171.3,144l-1.5.13a23.83,23.83,0,0,1-1,5.78q1.23-3,2.51-5.91m-6.13.66-6.56.8-.27,8.94,6.92-1q0-4.14-.09-8.73m9.7-9.34-.75,0c.06.41.13.84.22,1.28a8.65,8.65,0,0,1,.53-1.32m-2.78-9.39-4.49.44q1.18,5.16,1.81,9.43l4.71-.44c-.53-3.17-1.2-6.31-2-9.43m-8.77.84-4.36.44-.18,9.48,5.73-.49q-.48-4.55-1.19-9.43M162,118.81c.5,2.74.94,5.38,1.32,7.94l4.28-.4c-.59-2.44-1.27-5-2-7.76l-3.57.22M160.68,112l-1.32,0-.14,7,2.78-.14q-.62-3.34-1.32-6.78m12.3,6.12-3.49.18c1,2.5,1.84,5,2.6,7.58l3-.31q-.62-2.86-1.41-5.46c-.24-.68-.46-1.34-.66-2m-18.91,9.52-6.09.62a74.49,74.49,0,0,0-1.76,9.43l6.66-.53q.48-4.75,1.19-9.52m1.41-8.5q-.79,4.27-1.41,8.5l4.89-.48.26-8.24-3.74.22m-9.7.48a43.57,43.57,0,0,0-2.86,9.13l5.06-.49a79.49,79.49,0,0,1,2.74-8.86l-4.94.22m5-7.92,3.24,0q1.1-2.34,2.42-4.63a20.35,20.35,0,0,0-2.33.88,34.3,34.3,0,0,0-3.53,3.7m6.38,0-2.94,0a74.89,74.89,0,0,0-3.26,7.58l4.76-.27q.61-3.61,1.36-7.27m-3.45-15.87h-1.57a31.85,31.85,0,0,0-2,2.56l2,4.76,4.5-.09-2.87-7.23M153,94.5l.53,1.36,5.2-.08-1.49-5.56A45.1,45.1,0,0,0,153,94.5m19.88,7.87,1-1.27a33.33,33.33,0,0,0-2.07-5.87l-3.26,7.28,4.36-.14m-9,4.41a11.25,11.25,0,0,0-2.16-.31c.64,1.91,1.28,3.78,1.89,5.6.74,2.23,1.41,4.41,2,6.52l3.92-.26q-1.28-3.09-2.82-6.21c-.91-1.8-1.86-3.57-2.86-5.34m.92-4.19-.92,4.19a10.35,10.35,0,0,1,2.33.84l2.34-5.11-3.75.08m-5.2,4a12.54,12.54,0,0,1,2.12-.09l-1-3.74-4.27.09,1.59,4c-.39,1.7-.75,3.39-1.11,5.06l2.52.09.17-5.42M166.61,95l-7.92.13,1.94,7.23,4.1-.13L166.32,95m5.42.25a35.54,35.54,0,0,0-3.88-6.56l-1.54,6.7Z" transform="translate(-74.44 -50.46)"/><path class="cls-10" d="M171.48,257.87l-.22-4.32-8,.49-.83,13,5.55-5.64,3.53-3.57m-7.76-11.77-4.63.89q-1.32,3.91-2.69,7.44l6.83-.39.49-7.94m6.57-10.71-6,1-.57,9.69,7.05-1.32-.48-9.39m0,0,2.46-.39c-1-1.91-1.91-3.82-2.82-5.73l.36,6.12m-7.5-.52q-.25,1-.57,1.89l2.07-.35.62-10.76c-.74,3.53-1.44,6.6-2.12,9.22m17.72,13.66c-1-1.65-2-3.32-3-5l-6.7,1.28.49,8.77,4.76-.31,4.54-4.62a.14.14,0,0,1-.05-.09m-22.3-85.73-5.42.31q2.42,5.69,5.11,10.71l.31-11m-2.47,3.44a.39.39,0,0,1-.35-.22.36.36,0,0,1-.18-.35.62.62,0,0,1,.53-.53.35.35,0,0,1,.35.17.4.4,0,0,1,.22.36.34.34,0,0,1-.22.35.33.33,0,0,1-.35.22m2.87-20.8-6.57.75q-.27,4.58-.4,9.21l6.7-1,.27-8.94m-3,5.11a1,1,0,0,1-.26.7,1,1,0,0,1-.75.31,1.07,1.07,0,0,1-.8-.31,1,1,0,0,1-.26-.7,1.19,1.19,0,0,1,.26-.79,1.07,1.07,0,0,1,.8-.31,1,1,0,0,1,.75.31,1.19,1.19,0,0,1,.26.79m-4,4.85-1.8.22c.52,1.44,1.08,2.88,1.67,4.32,0-1.53,0-3,.13-4.54m17.48-5.51a23.8,23.8,0,0,0,1-5.78l-4.63.53q.13,4.59.09,8.73l-6.92,1-.13,8.42,4.93-.26q.89-2,1.77-3.93,1.23-2.78,2.42-5.5c.5-1.06,1-2.13,1.45-3.22m-2.18-2.21a.69.69,0,0,1,.17-.48.6.6,0,0,1,.44-.18.66.66,0,0,1,.49.18.78.78,0,0,1,.13.48.8.8,0,0,1-.13.44.66.66,0,0,1-.49.18.6.6,0,0,1-.44-.18.72.72,0,0,1-.17-.44M161.25,158a.65.65,0,0,1-.18-.48.89.89,0,0,1,.18-.58,1.08,1.08,0,0,1,.57-.17.84.84,0,0,1,.53.17.89.89,0,0,1,.18.58.65.65,0,0,1-.18.48.69.69,0,0,1-.53.22.87.87,0,0,1-.57-.22m3.26-21.86-5.73.49-.17,8.77,6.56-.8q-.25-4-.66-8.46m-2.82,3.88a.83.83,0,0,1,.53-.18,1,1,0,0,1,.57.18.86.86,0,0,1,0,1.15,1,1,0,0,1-.57.17.88.88,0,0,1-.53-.17.86.86,0,0,1,0-1.15m12.65-3.44c-.09-.44-.16-.87-.22-1.28l-4.71.44a49.5,49.5,0,0,1,.39,8.33l1.5-.13q1.5-3.71,3-7.36m-3.3,1.94a.43.43,0,0,1-.09-.31.54.54,0,0,1,.09-.31.72.72,0,0,1,.35-.08c.15,0,.23,0,.26.08a.43.43,0,0,1,.14.31.34.34,0,0,1-.14.31c0,.06-.11.09-.26.09a.73.73,0,0,1-.35-.09M159,127.19l-4.89.48q-.7,4.77-1.19,9.52l5.9-.52.18-9.48m-2.07,3.88a.58.58,0,0,1,.17.44.37.37,0,0,1-.17.31.35.35,0,0,1-.35.22.68.68,0,0,1-.45-.22.62.62,0,0,1-.08-.31,1.12,1.12,0,0,1,.08-.44.72.72,0,0,1,.45-.18.36.36,0,0,1,.35.18m10.71-4.72-4.28.4q.7,4.89,1.19,9.43l4.9-.4q-.63-4.28-1.81-9.43m-2,5.69a.67.67,0,0,1-.22-.49.77.77,0,0,1,.22-.57.87.87,0,0,1,1.06,0,.88.88,0,0,1,.17.57.75.75,0,0,1-.17.49.91.91,0,0,1-1.06,0m2-5.69,4.49-.44c-.76-2.56-1.63-5.08-2.6-7.58l-3.92.26c.76,2.74,1.44,5.32,2,7.76m1.45-4.93a.6.6,0,0,1,.27.48.53.53,0,0,1-.27.48.59.59,0,0,1-.44.18,1,1,0,0,1-.53-.18.74.74,0,0,1-.13-.48.86.86,0,0,1,.13-.48.85.85,0,0,1,.53-.23.54.54,0,0,1,.44.23m6,4.18-3,.31c.83,3.12,1.5,6.26,2,9.43l.75,0c.38-1.09.78-2.13,1.19-3.13a51.29,51.29,0,0,0-1-6.57M174,129.44a.64.64,0,0,1,.13-.4.48.48,0,0,1,.35-.13.46.46,0,0,1,.53.53.48.48,0,0,1-.13.35.64.64,0,0,1-.4.13.45.45,0,0,1-.48-.48m-12-10.63-2.78.14-.26,8.24,4.36-.44c-.38-2.56-.82-5.2-1.32-7.94m-.84,3.62a.62.62,0,0,1,.22.44.33.33,0,0,1-.22.35.41.41,0,0,1-.35.18.7.7,0,0,1-.44-.18.49.49,0,0,1-.09-.35.41.41,0,0,1,.53-.53.61.61,0,0,1,.35.09m-4.32-10.54q-.75,3.66-1.36,7.28l3.74-.22.14-7-2.52-.09m1,4.37a.45.45,0,0,1-.4-.22.42.42,0,0,1-.18-.35.46.46,0,0,1,.18-.4.43.43,0,0,1,.4-.22.41.41,0,0,1,.39.22.46.46,0,0,1,.18.4.42.42,0,0,1-.18.35.43.43,0,0,1-.39.22m-2.38,2.91-4.76.26a79.49,79.49,0,0,0-2.74,8.86l6.09-.62q.62-4.23,1.41-8.5M152,122.43a.58.58,0,0,1,.48.22.64.64,0,0,1,0,1,.65.65,0,0,1-.48.18.9.9,0,0,1-.49-.18.74.74,0,0,1,0-1,.78.78,0,0,1,.49-.22m-4,5.86-5.06.49q-.22,1-.36,2.07c.56,2.38,1.13,4.71,1.72,7q.66,2.55,1.41,5c.38,1.35.77,2.66,1.15,3.92l5.2-.61q.35-4.5.84-9l-6.66.53a74.49,74.49,0,0,1,1.76-9.43m-2.9,3.62a.41.41,0,0,1-.14.3.34.34,0,0,1-.26.09.58.58,0,0,1-.35-.09.37.37,0,0,1-.18-.3.43.43,0,0,1,.18-.36.58.58,0,0,1,.35-.09.34.34,0,0,1,.26.09.49.49,0,0,1,.14.36m5.33,9.78a.66.66,0,0,1-.27.53.69.69,0,0,1-.52.22.61.61,0,0,1-.53-.22.71.71,0,0,1-.22-.53.83.83,0,0,1,.22-.57.61.61,0,0,1,.53-.22.69.69,0,0,1,.52.22.77.77,0,0,1,.27.57m3.86-30-3.73,0a33.91,33.91,0,0,0-4.76,7.84l4.94-.22a76.89,76.89,0,0,1,3.26-7.58m-4.45,3.56a.53.53,0,0,1,.39-.18.55.55,0,0,1,.4.18.46.46,0,0,1,.18.4.42.42,0,0,1-.18.35.54.54,0,0,1-.4.17.52.52,0,0,1-.39-.17.48.48,0,0,1-.14-.35.54.54,0,0,1,.14-.4m8.42-8.58-1.59-4-4.5.08,2.21,5.2a22.41,22.41,0,0,1,2.33-.88q-1.32,2.3-2.42,4.63l2.86,0c.36-1.68.72-3.37,1.11-5.07m-2.74-2a.64.64,0,0,1,.36.09.58.58,0,0,1,.13.4.52.52,0,0,1-.13.35.48.48,0,0,1-.36.13.61.61,0,0,1-.39-.13.48.48,0,0,1-.14-.35.54.54,0,0,1,.14-.4.83.83,0,0,1,.39-.09m1,5.25a.47.47,0,0,1,.18.3q0,.13-.18.18c-.06.12-.12.18-.17.18a.48.48,0,0,1-.31-.18.18.18,0,0,1-.09-.18.67.67,0,0,1,.09-.3.71.71,0,0,1,.31-.09.26.26,0,0,1,.17.09m12.3-7.45,3.26-7.28-5.42.14-1.59,7.22,3.75-.08m0-4.15a.4.4,0,0,1,.13.36.61.61,0,0,1-.13.39.72.72,0,0,1-.4.09.79.79,0,0,1-.35-.09.61.61,0,0,1-.13-.39.4.4,0,0,1,.13-.36.66.66,0,0,1,.35-.13.58.58,0,0,1,.4.13m-7.85,4.73-1.94-7.23-5.2.09,2.87,7.23,4.27-.09m-2.33-4.33a.51.51,0,0,1-.18.44.66.66,0,0,1-.53.27.72.72,0,0,1-.48-.27.51.51,0,0,1-.18-.44.62.62,0,0,1,.18-.48.87.87,0,0,1,.48-.18.81.81,0,0,1,.53.18.62.62,0,0,1,.18.48m7.84,8.86a10.35,10.35,0,0,0-2.33-.84c1,1.77,1.95,3.54,2.86,5.34q1.54,3.12,2.82,6.21l3.49-.18a47.93,47.93,0,0,0-2.78-6c-.71-1.21-1.44-2.37-2.21-3.48l2-2.6,2.82-3.71-4.36.14-2.34,5.11m3.4-2.82a.43.43,0,0,1-.27-.13.55.55,0,0,1-.17-.36.38.38,0,0,1,.17-.3.4.4,0,0,1,.27-.14.48.48,0,0,1,.35.14.39.39,0,0,1,.13.3.59.59,0,0,1-.13.36.52.52,0,0,1-.35.13m-1.94,4.49a.43.43,0,0,1,.13.31.45.45,0,0,1-.4.4.39.39,0,0,1-.3-.13.37.37,0,0,1-.09-.27.56.56,0,0,1,.09-.31.58.58,0,0,1,.3-.08.41.41,0,0,1,.27.08m2.73,5.82a.36.36,0,0,1-.62,0,.4.4,0,0,1-.17-.31.38.38,0,0,1,.17-.3.41.41,0,0,1,.62,0,.39.39,0,0,1,.13.3.42.42,0,0,1-.13.31m-9.7-12.38,1,3.74a11.25,11.25,0,0,1,2.16.31l.92-4.19-4.1.14m1.77,1.67a.29.29,0,0,1-.09-.22.45.45,0,0,1,.09-.26.29.29,0,0,1,.22-.09.34.34,0,0,1,.26.09.36.36,0,0,1,.13.26.25.25,0,0,1-.13.22.28.28,0,0,1-.26.18c-.09,0-.16-.06-.22-.18m-.75,2.07a12.54,12.54,0,0,0-2.12.09l-.17,5.42,1.32,0q.7,3.43,1.32,6.78l3.57-.22c-.62-2.11-1.29-4.29-2-6.52-.61-1.82-1.25-3.69-1.89-5.6m-.62,2.47a.72.72,0,0,1,.44-.13.45.45,0,0,1,.35.13.46.46,0,0,1,.18.4.55.55,0,0,1-.18.4.48.48,0,0,1-.35.13.79.79,0,0,1-.44-.13.87.87,0,0,1-.09-.4.72.72,0,0,1,.09-.4m2,7.1a.68.68,0,0,1-.44-.18.59.59,0,0,1-.18-.44.67.67,0,0,1,.18-.4.72.72,0,0,1,.44-.17.54.54,0,0,1,.39.17.67.67,0,0,1,.18.4.59.59,0,0,1-.18.44.51.51,0,0,1-.39.18m-4.38-20.18,7.64-.13,1.54-6.7A45,45,0,0,0,164,84.89a55.91,55.91,0,0,0-6.83,5.42l1.49,5.55m4.59-6a.94.94,0,0,1,.31.75,1.06,1.06,0,0,1-.31.75,1,1,0,0,1-.75.3,1.18,1.18,0,0,1-.79-.3,1.25,1.25,0,0,1-.22-.75,1.1,1.1,0,0,1,.22-.75,1.14,1.14,0,0,1,.79-.31A.93.93,0,0,1,163.28,89.86Z" transform="translate(-74.44 -50.46)"/><path class="cls-11" d="M155.39,166a.39.39,0,0,0,.35.22.33.33,0,0,0,.35-.22.34.34,0,0,0,.22-.35.4.4,0,0,0-.22-.36.35.35,0,0,0-.35-.17.62.62,0,0,0-.53.53.36.36,0,0,0,.18.35m0-14.77a1,1,0,0,0,.26-.7,1.19,1.19,0,0,0-.26-.79,1,1,0,0,0-.75-.31,1.07,1.07,0,0,0-.8.31,1.19,1.19,0,0,0-.26.79,1,1,0,0,0,.26.7,1.07,1.07,0,0,0,.8.31,1,1,0,0,0,.75-.31m5.72,6.31a.65.65,0,0,0,.18.48.87.87,0,0,0,.57.22.69.69,0,0,0,.53-.22.65.65,0,0,0,.18-.48.89.89,0,0,0-.18-.58.84.84,0,0,0-.53-.17,1.08,1.08,0,0,0-.57.17.89.89,0,0,0-.18.58m6-10.36a.69.69,0,0,0-.17.48.72.72,0,0,0,.17.44.6.6,0,0,0,.44.18.66.66,0,0,0,.49-.18.8.8,0,0,0,.13-.44.78.78,0,0,0-.13-.48.66.66,0,0,0-.49-.18.6.6,0,0,0-.44.18m-4.89-7.32a.83.83,0,0,0-.53.18.86.86,0,0,0,0,1.15.88.88,0,0,0,.53.17,1,1,0,0,0,.57-.17.86.86,0,0,0,0-1.15,1,1,0,0,0-.57-.18m8.73-1.63a.43.43,0,0,0,.09.31.73.73,0,0,0,.35.09c.15,0,.23,0,.26-.09a.34.34,0,0,0,.14-.31.43.43,0,0,0-.14-.31c0-.06-.11-.08-.26-.08a.72.72,0,0,0-.35.08.54.54,0,0,0-.09.31m-13.89-6.74a.58.58,0,0,0-.17-.44.36.36,0,0,0-.35-.18.72.72,0,0,0-.45.18,1.12,1.12,0,0,0-.08.44.62.62,0,0,0,.08.31.68.68,0,0,0,.45.22.35.35,0,0,0,.35-.22.37.37,0,0,0,.17-.31m8.29,0a.67.67,0,0,0,.22.49.91.91,0,0,0,1.06,0,.75.75,0,0,0,.17-.49.88.88,0,0,0-.17-.57.87.87,0,0,0-1.06,0,.77.77,0,0,0-.22.57m4-9.65a.6.6,0,0,0-.27-.48.54.54,0,0,0-.44-.23.85.85,0,0,0-.53.23.86.86,0,0,0-.13.48.74.74,0,0,0,.13.48,1,1,0,0,0,.53.18.59.59,0,0,0,.44-.18.53.53,0,0,0,.27-.48m4.8,7.14a.64.64,0,0,0-.13.4.45.45,0,0,0,.48.48.64.64,0,0,0,.4-.13.48.48,0,0,0,.13-.35.46.46,0,0,0-.53-.53.48.48,0,0,0-.35.13m-12.74-6.17a.62.62,0,0,0-.22-.44.61.61,0,0,0-.35-.09.41.41,0,0,0-.53.53.49.49,0,0,0,.09.35.7.7,0,0,0,.44.18.41.41,0,0,0,.35-.18.33.33,0,0,0,.22-.35M157.46,116a.45.45,0,0,0,.4.22.43.43,0,0,0,.39-.22.42.42,0,0,0,.18-.35.46.46,0,0,0-.18-.4.41.41,0,0,0-.39-.22.43.43,0,0,0-.4.22.46.46,0,0,0-.18.4.42.42,0,0,0,.18.35m-5,6.61a.58.58,0,0,0-.48-.22.78.78,0,0,0-.49.22.74.74,0,0,0,0,1,.9.9,0,0,0,.49.18.65.65,0,0,0,.48-.18.64.64,0,0,0,0-1m-2.34,19.57a.66.66,0,0,0,.27-.53.77.77,0,0,0-.27-.57.69.69,0,0,0-.52-.22.61.61,0,0,0-.53.22.83.83,0,0,0-.22.57.71.71,0,0,0,.22.53.61.61,0,0,0,.53.22.69.69,0,0,0,.52-.22m-5.2-10a.41.41,0,0,0,.14-.3.49.49,0,0,0-.14-.36.34.34,0,0,0-.26-.09.58.58,0,0,0-.35.09.43.43,0,0,0-.18.36.37.37,0,0,0,.18.3.58.58,0,0,0,.35.09.34.34,0,0,0,.26-.09m5-17.1a.53.53,0,0,0-.39.18.54.54,0,0,0-.14.4.48.48,0,0,0,.14.35.52.52,0,0,0,.39.17.54.54,0,0,0,.4-.17.42.42,0,0,0,.18-.35.46.46,0,0,0-.18-.4.55.55,0,0,0-.4-.18m6.44-4.85a.47.47,0,0,0-.18-.3.26.26,0,0,0-.17-.09.71.71,0,0,0-.31.09.67.67,0,0,0-.09.3.18.18,0,0,0,.09.18.48.48,0,0,0,.31.18c.05,0,.11-.06.17-.18s.18-.09.18-.18m-.79-5.46a.64.64,0,0,0-.36-.09.83.83,0,0,0-.39.09.54.54,0,0,0-.14.4.48.48,0,0,0,.14.35.61.61,0,0,0,.39.13.48.48,0,0,0,.36-.13.52.52,0,0,0,.13-.35.58.58,0,0,0-.13-.4m13-6.08a.4.4,0,0,0-.13-.36.58.58,0,0,0-.4-.13.66.66,0,0,0-.35.13.4.4,0,0,0-.13.36.61.61,0,0,0,.13.39.79.79,0,0,0,.35.09.72.72,0,0,0,.4-.09.61.61,0,0,0,.13-.39m-10.49.48a.51.51,0,0,0,.18-.44.62.62,0,0,0-.18-.48.81.81,0,0,0-.53-.18.87.87,0,0,0-.48.18.62.62,0,0,0-.18.48.51.51,0,0,0,.18.44.72.72,0,0,0,.48.27.66.66,0,0,0,.53-.27M170,115.29a.38.38,0,0,0,.31-.18.42.42,0,0,0,.13-.31.39.39,0,0,0-.13-.3.41.41,0,0,0-.62,0,.38.38,0,0,0-.17.3.4.4,0,0,0,.17.31.38.38,0,0,0,.31.18m-2.29-5.69a.43.43,0,0,0-.13-.31.41.41,0,0,0-.27-.08.58.58,0,0,0-.3.08.56.56,0,0,0-.09.31.37.37,0,0,0,.09.27.39.39,0,0,0,.3.13.45.45,0,0,0,.4-.4m1.54-4.93a.43.43,0,0,0,.27.13.52.52,0,0,0,.35-.13.59.59,0,0,0,.13-.36.39.39,0,0,0-.13-.3.48.48,0,0,0-.35-.14.4.4,0,0,0-.27.14.38.38,0,0,0-.17.3.55.55,0,0,0,.17.36m-7-.49a.29.29,0,0,0,.09.22c.06.12.13.18.22.18a.28.28,0,0,0,.26-.18.25.25,0,0,0,.13-.22.36.36,0,0,0-.13-.26.34.34,0,0,0-.26-.09.29.29,0,0,0-.22.09.45.45,0,0,0-.09.26m.31,11.68a.68.68,0,0,0,.44.18.51.51,0,0,0,.39-.18.59.59,0,0,0,.18-.44.67.67,0,0,0-.18-.4.54.54,0,0,0-.39-.17.72.72,0,0,0-.44.17.67.67,0,0,0-.18.4.59.59,0,0,0,.18.44m-1.15-7a.43.43,0,0,0-.53.53.87.87,0,0,0,.09.4.79.79,0,0,0,.44.13.48.48,0,0,0,.35-.13.55.55,0,0,0,.18-.4.46.46,0,0,0-.18-.4.45.45,0,0,0-.35-.13m2.12-18.2a1.06,1.06,0,0,0-1.06-1.06,1.14,1.14,0,0,0-.79.31,1.1,1.1,0,0,0-.22.75,1.25,1.25,0,0,0,.22.75,1.18,1.18,0,0,0,.79.3,1,1,0,0,0,.75-.3A1.06,1.06,0,0,0,163.59,90.61Z" transform="translate(-74.44 -50.46)"/><path class="cls-12" d="M173.58,100.71l-1,1.28-2.82,3.7.52-.22a3.07,3.07,0,0,1,1.28,0,3.08,3.08,0,0,1,.93,2.29c.06.42.14,1,.26,1.81v.4h.27A1.57,1.57,0,0,0,174,109a3,3,0,0,0,.44-1.06c.21-.47.36-.7.44-.7A50.94,50.94,0,0,0,173.58,100.71Z" transform="translate(-74.44 -50.46)"/><path class="cls-13" d="M139.52,102.33a4.79,4.79,0,0,0-2.42-1.23q2.21,16,5.46,29.75.13-1,.36-2.07a43.57,43.57,0,0,1,2.86-9.13,33.91,33.91,0,0,1,4.76-7.84,34.4,34.4,0,0,1,3.53-3.71l-2.21-5.2a4.06,4.06,0,0,1-1.36.18,3.16,3.16,0,0,0-1.37.22,4.22,4.22,0,0,0-1.63,1.9,5.37,5.37,0,0,1-2.2,1.93,2.42,2.42,0,0,1-1.55.27,2.22,2.22,0,0,1-1.27-.62,3.07,3.07,0,0,1-.8-1.06c-.23-.55-.39-1-.48-1.23A5.67,5.67,0,0,0,139.52,102.33Z" transform="translate(-74.44 -50.46)"/><path class="cls-14" d="M137.1,101.1a4.79,4.79,0,0,1,2.42,1.23,5.67,5.67,0,0,1,1.68,2.16c.09.26.25.68.48,1.23a3.07,3.07,0,0,0,.8,1.06,2.22,2.22,0,0,0,1.27.62,2.42,2.42,0,0,0,1.55-.27,5.37,5.37,0,0,0,2.2-1.93,4.22,4.22,0,0,1,1.63-1.9,3.16,3.16,0,0,1,1.37-.22,4.06,4.06,0,0,0,1.36-.18l-2-4.76a54.48,54.48,0,0,0-4.76,7.58l-8.69-18.55-1.14-2.38c.11,1,.22,1.94.31,2.91Q136.22,94.57,137.1,101.1Z" transform="translate(-74.44 -50.46)"/><path class="cls-15" d="M147.59,80.16a46.56,46.56,0,0,1,8.9-2l-17.67-15c-1.47-.41-2.9-.87-4.28-1.36a204,204,0,0,0,.71,23l1.14,2.38q3.53-4.68,11.2-7m29.75-1.23c1.35.14,3.32.44,5.9.88a35.83,35.83,0,0,1,5.25,1.06A13.48,13.48,0,0,1,192.77,83q2.59-9.26,5.06-20.41c-2,.65-4.07,1.25-6.21,1.81L171.65,79A27.49,27.49,0,0,1,177.34,78.93Z" transform="translate(-74.44 -50.46)"/><path class="cls-16" d="M164,84.8l-7.54-6.35a47.34,47.34,0,0,0-8.9,2q-7.67,2.32-11.2,7L145.08,106a54.48,54.48,0,0,1,4.76-7.58,31.85,31.85,0,0,1,2-2.56h1.67L153,94.5a45.1,45.1,0,0,1,4.24-4.28A56.88,56.88,0,0,1,164,84.8m19.21-5c-2.58-.44-4.55-.74-5.9-.88a27.49,27.49,0,0,0-5.69,0L164,84.52a46.48,46.48,0,0,1,3.83,4.15,35.54,35.54,0,0,1,3.88,6.56,33.33,33.33,0,0,1,2.07,5.87,48.83,48.83,0,0,1,1.28,6.56c.06.42.12.8.18,1.15l9.43-11.06,5.91-7q1.09-3.66,2.16-7.76a13.48,13.48,0,0,0-4.28-2.11A35.83,35.83,0,0,0,183.24,79.81Z" transform="translate(-74.44 -50.46)"/><path class="cls-17" d="M180,113a23,23,0,0,1-2.38,4.45,7.34,7.34,0,0,1-4,2.74q.8,2.6,1.41,5.46a51.29,51.29,0,0,1,1,6.57q8.28-21,14.55-41.43l-5.91,7a31.45,31.45,0,0,1-1.5,7.4C182.58,107,181.53,109.6,180,113Z" transform="translate(-74.44 -50.46)"/><path class="cls-18" d="M177.41,117a22.75,22.75,0,0,0,2.38-4.45q2.25-5,3.17-7.8a30.55,30.55,0,0,0,1.5-7.41L175,108.43c-.06-.36-.12-.74-.18-1.15-.08,0-.23.23-.44.7A3,3,0,0,1,174,109a1.57,1.57,0,0,1-.92.93h-.27v-.4c-.12-.79-.2-1.39-.26-1.81a3.08,3.08,0,0,0-.93-2.29,3.07,3.07,0,0,0-1.28,0l-.52.22-2,2.6c.76,1.12,1.5,2.28,2.2,3.49a45.93,45.93,0,0,1,2.78,6q.3,1,.66,2A7.28,7.28,0,0,0,177.41,117Z" transform="translate(-74.44 -50.46)"/><path class="cls-19" d="M197.83,62.57A33.56,33.56,0,0,0,195,60.24q-25.4-19.58-57.92,0c-.85.5-1.69,1-2.51,1.55,1.38.49,2.81,1,4.28,1.36l17.67,15L164,84.52,171.65,79l20-14.59C193.76,63.82,195.84,63.22,197.83,62.57Z" transform="translate(-74.44 -50.46)"/><path class="cls-20" d="M125.2,439.33q3,5.21,13.09,5.95a120.3,120.3,0,0,0,27.9-2.69l-12.26-8.15q-12.24,5.28-28.73,4.89m143.45,3.5a17.45,17.45,0,0,0-1.5-2.74l-1.1-1a110.87,110.87,0,0,0-34.87-.13l-3.74,3.39v3.53a33.41,33.41,0,0,0,12.91,2.6h18.2Q266.31,448.16,268.65,442.83Z" transform="translate(-74.44 -50.46)"/><path class="cls-21" d="M164,423.55a35.54,35.54,0,0,0-10.1,10.89l12.26,8.15c1.2-.26,2.42-.54,3.66-.83q7.53-1.72,13.84-8.51a139.38,139.38,0,0,0-19.66-9.7m101.72,15.31q-8.33-7.41-17-9.79h-7.4l-10.49,9.66A110.81,110.81,0,0,1,265.75,438.86Z" transform="translate(-74.44 -50.46)"/><path class="cls-22" d="M199.55,444a11.58,11.58,0,0,0,1.5-3.26l-31.29-20.93L164,423.55a139.38,139.38,0,0,1,19.66,9.7A158.19,158.19,0,0,1,199.55,444m61.75-13.34a55.38,55.38,0,0,0-5.24-3,22.86,22.86,0,0,0-14.19-.88.39.39,0,0,0-.18,0l-15.56,13.62a13.29,13.29,0,0,0,1,1.63l3.75-3.39,10.49-9.66h7.4q8.64,2.39,17,9.79l1.11,1a6.16,6.16,0,0,0,1-3.57A27.59,27.59,0,0,0,261.3,430.66Z" transform="translate(-74.44 -50.46)"/><path class="cls-23" d="M199.55,444a90.66,90.66,0,0,0-13.75,2.07l.13,5.07a23.88,23.88,0,0,0,13.4-1.45l.22-5.69m52.89,14.16,17.28-7c0-.59,0-1.16,0-1.72l-16.88,6H243l-15.87-3.27,1.55,2.29,12.56,3.62Z" transform="translate(-74.44 -50.46)"/><path class="cls-24" d="M178.75,448.19a53,53,0,0,1,7.05-2.12A90.66,90.66,0,0,1,199.55,444a158.19,158.19,0,0,0-15.86-10.75q-6.31,6.78-13.84,8.51c-1.24.29-2.46.57-3.66.83a120.3,120.3,0,0,1-27.9,2.69q-10.14-.75-13.09-5.95-4.11,4.73,0,9.79c2.91,2,7,3.32,12.16,4.05q11.77,1.68,31.34-.88Z" transform="translate(-74.44 -50.46)"/><path class="cls-25" d="M178.75,448.19l7.18,2.95-.13-5.07A53,53,0,0,0,178.75,448.19Z" transform="translate(-74.44 -50.46)"/><path class="cls-26" d="M271.43,449.42a19,19,0,0,0-1.45-6.78q-2.42,5.5-10.42,5.83H240.77q-8.19-.27-13.33-2.69v6.51l16.37,3.23H254Z" transform="translate(-74.44 -50.46)"/><path class="cls-27" d="M256.28,416.46a23.85,23.85,0,0,0-9-.67,2.93,2.93,0,0,0-1.68.67,1.43,1.43,0,0,0-.09,1.45,3.79,3.79,0,0,0,1.11,1.28,21.58,21.58,0,0,0,5.73,2.86,64.08,64.08,0,0,1,10.79,5.6Q264.52,419.72,256.28,416.46Z" transform="translate(-74.44 -50.46)"/></g></g></g></g></svg>