<svg xmlns="http://www.w3.org/2000/svg" viewBox="0 0 203.11 159.61"><defs><style>.cls-1{fill:#f7eee4;}.cls-2{fill:#002945;}.cls-3{fill:#e6e8e8;}.cls-4{fill:#003052;}.cls-5{fill:#ebccb2;}.cls-6{fill:#e3b591;}</style></defs><title>slide3_personaje2</title><g id="Capa_2" data-name="Capa 2"><g id="PERSONAJE"><g id="Layer0_0_FILL" data-name="Layer0 0 FILL"><path class="cls-1" d="M97.33,92.63a12,12,0,0,0-6.39-2.34,15.43,15.43,0,0,0-9.17,1.24l-.53.26a12.7,12.7,0,0,0-1.19,8c.09,1,.31,2.51.67,4.45a38.67,38.67,0,0,1,.66,4.36q0,.4.08,7.14a19.59,19.59,0,0,0,1.11,6.92A14.75,14.75,0,0,0,87.5,124l.62.08c.44,0,.94,0,1.5,0,1.29,0,2.83,0,4.63-.09l6.17-.35h0l0-.53a72,72,0,0,0,2.07-12.7l.09-1.49a33.68,33.68,0,0,0-.88-8.25,26.43,26.43,0,0,0-.84-2.69,11.92,11.92,0,0,0-3.53-5.37M93.07,9.13a32.15,32.15,0,0,0-2.27-4A11.14,11.14,0,0,0,87.63,2,12.49,12.49,0,0,0,82.5.43a34.36,34.36,0,0,0-5.6,0l-.19.32Q78,3.2,83.48,12a74.57,74.57,0,0,1,6.16,11.78,33.48,33.48,0,0,1,1.11,3.34,29.56,29.56,0,0,1,1,9.86,18.27,18.27,0,0,1-5,11.78q-.18.18-3.53,2.94a13.83,13.83,0,0,0-3.08,3.39,11.87,11.87,0,0,0-1.51,6,25.36,25.36,0,0,0,0,2.59q.23,3,.81,9.19,0,2-.27,6.11a10,10,0,0,0,1.29,5.57,9.15,9.15,0,0,0,3.7,3.13A25.8,25.8,0,0,0,89,89.33c.74.21,1.45.39,2.14.54a17.15,17.15,0,0,0,4.77.35c2.53-.21,4.25-1.17,5.18-2.9a56.86,56.86,0,0,0,1.82-10.48c.09-1.1.14-2.18.14-3.26a24.74,24.74,0,0,1,.22-2.81,6.11,6.11,0,0,1,1-2.54c1-1.25,3-1.87,5.8-1.87h3.21a7,7,0,0,0,3-.8,6,6,0,0,0,2.36-2.15,14.88,14.88,0,0,0,1.43-3,25.89,25.89,0,0,0,1.38-12.58h0l-20.21-.36a80,80,0,0,0-1.56-19c-.21-1.1-.45-2.19-.71-3.26a78.59,78.59,0,0,0-5.76-16.1m56.4,91.79,1.27.27q1.09-5.32,2.74-13.29l-.82-.19a245.78,245.78,0,0,0-38.94-.18q-4.56.36-9.06.87h0a57.11,57.11,0,0,0,.91,9.92,3.93,3.93,0,0,0,.41,1.46,2.17,2.17,0,0,0,.73.91,3,3,0,0,0,2.14.28c.18,0,.38-.08.59-.14a20.34,20.34,0,0,1,3.37-.09h.55c.76.06,2.06.19,3.92.41a137.69,137.69,0,0,0,32.24-.23m-1.23,8.63c.15-.7.34-1.63.57-2.77a40.45,40.45,0,0,0-12.12-1c-2.44.29-4.29.5-5.55.61a23.45,23.45,0,0,1-5.6,0q-.84-.13-8-2.34l-.62-.17a17.3,17.3,0,0,0-3.57-.71,10.5,10.5,0,0,0-3.48.13.87.87,0,0,0-.4.09,5.64,5.64,0,0,0-1.85,3.4,7.33,7.33,0,0,0-.09,2.29,7.84,7.84,0,0,0,.53,2.25q1.27,3.17,5.73,7l4.63,3.61,0,.89h.09l15.82-.89a38.87,38.87,0,0,0,4.85-.53,9,9,0,0,0,7.5-6.3,30.37,30.37,0,0,0,1.54-5.51m7.76-40c.29,0,.6.07.93.13l.08.71A38.61,38.61,0,0,1,167.06,70c2.35.14,5.85.5,10.49,1.06a45.17,45.17,0,0,0,10.58-.23,20.64,20.64,0,0,0,9.48-3.74,13.39,13.39,0,0,0,5.29-8.9q1-5.82-2.78-9.3-34.47-.45-75.59-1.15l-.09,6.57a13.74,13.74,0,0,0,3.75,6q4.19,4.25,12.56,6.4,5.69,1.41,15.25,2.86m-4.32,16,1.54.31q1.32-6.62,3.08-14.9l-.79-.18q-7.37-.87-15.25-1.49-10.75-.89-22.43-1.37a28.25,28.25,0,0,0-4.59.09,13.23,13.23,0,0,0-3.44.79,0,0,0,0,0,0,0,10.54,10.54,0,0,0-4.45,4.4,11.77,11.77,0,0,0-1.19,3.13,10.33,10.33,0,0,0-.27,3c0,2.59.81,4.45,2.43,5.6.23.17.5.35.79.53a8,8,0,0,0,3,.75,29.43,29.43,0,0,0,4-.18A187.12,187.12,0,0,1,151.68,85.56Z"/><path class="cls-2" d="M44.31,111.34c-.77-.5-1.5-1-2.2-1.54a22,22,0,0,0-7.45,5.6A14.12,14.12,0,0,0,31,123.69a30.14,30.14,0,0,1,5.82-7.19,35.3,35.3,0,0,1,7.49-5.16m3.35,1.41a4.07,4.07,0,0,1-2.12-.61l0,0a21.55,21.55,0,0,0-3.88,7.67,21.08,21.08,0,0,0-.7,8.77q1-2.07,3.21-7.84a60.86,60.86,0,0,1,3.53-7.94m2.12-1.85a8.86,8.86,0,0,0-.88,1,21.27,21.27,0,0,0,6.3,13.18,19.2,19.2,0,0,0-.88-3c-.12-.29-.22-.57-.31-.83v0c-.35-.91-.62-1.61-.79-2.11A37.55,37.55,0,0,1,52,114.34c-.06-.38-.4-2-1-4.94q-.7.8-1.23,1.5M59.7,99.59a18.87,18.87,0,0,0-2.83,4.89,14.94,14.94,0,0,0-.74,9.74,16.07,16.07,0,0,0,2.42,4.9,27.21,27.21,0,0,0,3.61,4.1l.8.7a36.8,36.8,0,0,0,8.94,5.69,29.34,29.34,0,0,0,10.23,2.47,24.53,24.53,0,0,0,9.12-1.37c.21-.09.4-.16.58-.22l.79-.35a19.49,19.49,0,0,0,7.93-6.09,3.19,3.19,0,0,0,.31-.44,6.59,6.59,0,0,1-.75,0h0L93.9,124c-1.79.09-3.34.12-4.63.09a5,5,0,0,1-1,.7l-.58.27a7.54,7.54,0,0,1-3.13.48,13.89,13.89,0,0,1-3.13-.53c-1.35-.41-2.36-.7-3-.88q-3.34-.75-5-1.14a18.89,18.89,0,0,1-4.71-1.72,11.69,11.69,0,0,1-2.74-1.9,14.86,14.86,0,0,1-2.24-2.64,15.41,15.41,0,0,1-2.52-6.26,20.92,20.92,0,0,1,.75-10v-.05c.15-.47.31-.92.49-1.36,1.14-1.68,1.59-2.62,1.32-2.82s-.79,0-1.59.7A20.83,20.83,0,0,0,59.7,99.59Z"/><path class="cls-3" d="M64.58,98s-.06-.06,0-.08v0l-1.81,1.54a3.37,3.37,0,0,1-.84,1.37v0a25.75,25.75,0,0,0-.4,10.05,15.34,15.34,0,0,0,2.51,6.26,15.8,15.8,0,0,0,2.25,2.65A12,12,0,0,0,69,121.7a18.5,18.5,0,0,0,4.71,1.72q1.64.4,5,1.15c.68.17,1.69.47,3,.88a14.48,14.48,0,0,0,3.13.53,7.54,7.54,0,0,0,3.13-.49c.21-.09.4-.17.57-.26a5.13,5.13,0,0,0,1-.71c-.56,0-1.06,0-1.5,0l-.62-.09a15,15,0,0,1-4.93-1.32c-.42-.24-.81-.47-1.19-.71q-4.2-2.86-5.95-10.13l-.44.08q-2.61-3-6.84-8.37a18.73,18.73,0,0,1-3.21-4.85S64.82,98.71,64.58,98Z"/><path class="cls-4" d="M18.93,77.38a4.8,4.8,0,0,0-3.09-2.25c-2.17-.26-4.19,1.2-6,4.41Q1,93.64.11,107.66A42.13,42.13,0,0,0,1.69,122.6a34.67,34.67,0,0,0,7,13.05q5.55,6.39,15.82,11.06,1.11.53,18.56,7.09,8.64,3.22,9.78,3.62A40.56,40.56,0,0,0,63,159.53a30.42,30.42,0,0,0,13.8-2.33,36,36,0,0,0,11.77-7.89q9.56-9.57,12.69-25l-.05-.61h-.39a5.14,5.14,0,0,1-.31.44,19.62,19.62,0,0,1-7.93,6.08l-.8.35-.57.22a24.33,24.33,0,0,1-9.12,1.37,29.34,29.34,0,0,1-10.23-2.47,36.81,36.81,0,0,1-9-5.68l-.79-.71a26.73,26.73,0,0,1-3.61-4.1,16.18,16.18,0,0,1-2.43-4.89,15,15,0,0,1,.75-9.74,19,19,0,0,1,2.82-4.89Q54.06,105.33,51,109c.62,2.91,1,4.56,1,4.94a38,38,0,0,0,1.19,4.72c.17.5.44,1.2.79,2.11v0c.09.26.19.54.31.83a19.43,19.43,0,0,1,.88,3,21.22,21.22,0,0,1-6.3-13.17l-.09.08a2.28,2.28,0,0,1-1.1.67l-.44.08a59.54,59.54,0,0,0-3.53,7.94q-2.16,5.77-3.22,7.84a22.58,22.58,0,0,1,4.59-16.44,4.57,4.57,0,0,1-.71-.44,2.25,2.25,0,0,0-.35-.22.48.48,0,0,1-.13-.09,35,35,0,0,0-7.5,5.16,29.81,29.81,0,0,0-5.81,7.18A14.17,14.17,0,0,1,34.26,115a22.14,22.14,0,0,1,7.45-5.6A56.57,56.57,0,0,1,30.12,98.18a61.31,61.31,0,0,1-9.43-17A15.61,15.61,0,0,0,18.93,77.38Z"/><path class="cls-5" d="M74,77.89l-.88-.1A20.18,20.18,0,0,0,66,88.14q-2,6.42-1.8,8.08a6.92,6.92,0,0,0,.37,1.8v0l.09.1c.25.7.37,1.07.37,1.1a19.35,19.35,0,0,0,3.37,5.08q4.44,5.59,7.16,8.78L76,113q-.33-1.42-.6-3-.73-4.2-1.16-8.91v-.18a162.67,162.67,0,0,1-.5-18.2C73.81,81.75,73.88,80.13,74,77.89Z"/><path class="cls-6" d="M156.52,70a1,1,0,0,1,.31,0l-.08-.7c-.33-.06-.64-.11-.94-.14q-9.62-1.45-15.33-2.88-8.43-2.17-12.64-6.43a13.82,13.82,0,0,1-3.77-6.07,10.51,10.51,0,0,1,0-6.61c-1,0-2,0-3.06,0a25.67,25.67,0,0,1-1.37,12.5,14.8,14.8,0,0,1-1.42,3,5.87,5.87,0,0,1-2.35,2.13,6.9,6.9,0,0,1-2.92.8h-3.2q-4.25,0-5.76,1.86a5.88,5.88,0,0,0-1,2.53,23.3,23.3,0,0,0-.23,2.79c0,1.06,0,2.14-.13,3.23a56.14,56.14,0,0,1-1.82,10.42C99.93,88,98.21,89,95.7,89.19A17,17,0,0,1,91,88.84c-.68-.15-1.39-.33-2.13-.53a25.23,25.23,0,0,1-4.74-1.69,9,9,0,0,1-3.68-3.1A9.92,9.92,0,0,1,79.12,78q.27-4.08.27-6.07c-.39-4.08-.65-7.13-.8-9.14a24.94,24.94,0,0,1,0-2.57,11.74,11.74,0,0,1,1.5-5.94,13.45,13.45,0,0,1,3.06-3.37c2.22-1.83,3.39-2.81,3.5-2.92a18.21,18.21,0,0,0,5-11.71,29.13,29.13,0,0,0-1-9.79,30.13,30.13,0,0,0-1.1-3.33,74.85,74.85,0,0,0-6.12-11.7Q77.62,2.17,76.51,0a11,11,0,0,0-4.66,1.2,3.73,3.73,0,0,0-1.51,2.08,2.8,2.8,0,0,0,0,1.46,1.77,1.77,0,0,0,.22.67,2.48,2.48,0,0,0,.13.35A92.93,92.93,0,0,1,75,30.19a234.76,234.76,0,0,1-.48,26.24c-.09,1.22-.17,2.38-.22,3.51q-.81,12.32-1.11,18.35C73,80.45,73,82,72.92,82.94a157.07,157.07,0,0,0,.48,17.47v.51q.41,4.58,1.13,8.66c.18,1,.37,2,.58,2.92q1.8,7.41,6.06,10.33l1.21.72a20.32,20.32,0,0,1-1.12-7q0-6.87-.09-7.28a38.35,38.35,0,0,0-.67-4.44c-.36-2-.59-3.49-.68-4.54A12.91,12.91,0,0,1,81,92.12l.54-.27a15.71,15.71,0,0,1,9.34-1.26A12.31,12.31,0,0,1,97.43,93,12.14,12.14,0,0,1,101,98.45a24.37,24.37,0,0,1,.85,2.74,33.8,33.8,0,0,1,.9,8.39l-.09,1.53A72.33,72.33,0,0,1,100.57,124l.05.54a6.8,6.8,0,0,0,.76,0h.4l13-.72c1.44-.09,2.83-.16,4.18-.22l0-.9L114.18,119q-4.53-3.86-5.84-7.09a8.72,8.72,0,0,1-.45-4.63,5.69,5.69,0,0,1,1.89-3.45.87.87,0,0,1,.4-.09,10.63,10.63,0,0,1,3.55-.14,18.1,18.1,0,0,1,3.64.72l.63.18q7.32,2.25,8.17,2.38a23.77,23.77,0,0,0,5.7,0c1.29-.12,3.18-.32,5.66-.62a41.67,41.67,0,0,1,12.35,1h0q.45-2.43,1.25-6.1l-1.26-.27a136,136,0,0,1-31.79.22c-1.83-.21-3.12-.34-3.87-.4h-.81a20.19,20.19,0,0,0-3.36.09l-.6.14a3,3,0,0,1-2.14-.28,2.25,2.25,0,0,1-.73-.91,3.93,3.93,0,0,1-.41-1.46,57.11,57.11,0,0,1-.91-9.92h0q4.38-.5,8.82-.85a239.8,239.8,0,0,1,37.9.18l.8.18c.15-.77.31-1.54.49-2.31a.12.12,0,0,1,0-.09l-1.55-.31a188.47,188.47,0,0,0-37.81.54,29.34,29.34,0,0,1-4.08.17,7.9,7.9,0,0,1-3-.75,9.26,9.26,0,0,1-.8-.53q-2.45-1.72-2.44-5.63a10.13,10.13,0,0,1,.27-3,11.83,11.83,0,0,1,1.19-3.14,10.71,10.71,0,0,1,4.48-4.44s0,0,0,0a12.71,12.71,0,0,1,3.45-.8,28.5,28.5,0,0,1,4.61-.09q11.76.5,22.57,1.38,7.94.62,15.34,1.5l.8.18Z"/></g></g></g></svg>