<svg xmlns="http://www.w3.org/2000/svg" viewBox="0 0 681.43 421.55"><defs><style>.cls-1{fill:#263238;}.cls-2{fill:#455a64;}.cls-3{fill:#ebebeb;}.cls-4{fill:#fafafa;}</style></defs><title>slide3_computador</title><g id="Capa_2" data-name="Capa 2"><g id="MAC"><rect class="cls-1" x="26.3" width="628.96" height="415.92" rx="22.81"/><path class="cls-1" d="M0,385.16H681.43a0,0,0,0,1,0,0v8.53a27.86,27.86,0,0,1-27.86,27.86H27.86A27.86,27.86,0,0,1,0,393.69v-8.53A0,0,0,0,1,0,385.16Z"/><rect class="cls-2" x="43.18" y="16.52" width="593.43" height="351.24"/><polygon class="cls-2" points="278.78 385.16 287.23 398.61 406.22 398.61 414.07 385.16 278.78 385.16"/><rect class="cls-3" x="55.41" y="28.42" width="570.21" height="338.23" rx="5.12"/><rect class="cls-4" x="55.41" y="53.2" width="570.21" height="313.44"/><path class="cls-2" d="M102.17,41.48a4.55,4.55,0,1,1-4.55-4.56A4.55,4.55,0,0,1,102.17,41.48Z"/><path class="cls-2" d="M74.57,41.48A4.55,4.55,0,1,1,70,36.92,4.55,4.55,0,0,1,74.57,41.48Z"/><path class="cls-2" d="M87.82,41.48a4.56,4.56,0,1,1-4.55-4.56A4.55,4.55,0,0,1,87.82,41.48Z"/><path class="cls-2" d="M649.85,385.16c0,.23-139.59.41-311.76.41s-311.79-.18-311.79-.41,139.57-.41,311.79-.41S649.85,384.94,649.85,385.16Z"/><path class="cls-2" d="M106.17,264.29c0,.23-3,.41-6.8.41s-6.79-.18-6.79-.41,3-.41,6.79-.41S106.17,264.07,106.17,264.29Z"/><path class="cls-2" d="M113.38,242.69c.23,0,.41,3.6.41,8.05s-.18,8.06-.41,8.06-.4-3.6-.4-8.06S113.16,242.69,113.38,242.69Z"/><path class="cls-2" d="M121.07,263.77c0-.22,3-.4,6.8-.4s6.79.18,6.79.4-3,.41-6.79.41S121.07,264,121.07,263.77Z"/><path class="cls-2" d="M113.85,285.38c-.22,0-.4-3.61-.4-8.06s.18-8.06.4-8.06.41,3.61.41,8.06S114.08,285.38,113.85,285.38Z"/><path class="cls-2" d="M124.84,276.11c-.19.13-1.42-1.28-2.75-3.14s-2.27-3.49-2.08-3.62,1.41,1.28,2.74,3.14S125,276,124.84,276.11Z"/><path class="cls-2" d="M124.2,251.61c.17.15-.81,1.59-2.19,3.22s-2.65,2.84-2.82,2.7.81-1.59,2.19-3.23S124,251.47,124.2,251.61Z"/><path class="cls-2" d="M108.63,257.85c-.16.16-1.36-.75-2.68-2s-2.26-2.45-2.1-2.61,1.35.75,2.67,2S108.78,257.69,108.63,257.85Z"/><path class="cls-2" d="M108,268.65c.18.14-.69,1.56-2,3.17s-2.42,2.81-2.6,2.67.7-1.56,2-3.17S107.84,268.51,108,268.65Z"/><path class="cls-2" d="M467.24,119.56c0,.22-2,.41-4.54.41s-4.55-.19-4.55-.41,2-.41,4.55-.41S467.24,119.33,467.24,119.56Z"/><path class="cls-2" d="M472.07,107.2c.22,0,.4,2.06.4,4.61s-.18,4.61-.4,4.61-.41-2.07-.41-4.61S471.84,107.2,472.07,107.2Z"/><path class="cls-2" d="M477.21,119.26c0-.22,2-.41,4.54-.41s4.55.19,4.55.41-2,.41-4.55.41S477.21,119.49,477.21,119.26Z"/><path class="cls-2" d="M472.38,131.62c-.22,0-.41-2.06-.41-4.61s.19-4.61.41-4.61.41,2.07.41,4.61S472.61,131.62,472.38,131.62Z"/><path class="cls-2" d="M479.73,126.32c-.18.15-1-.6-1.93-1.67s-1.48-2.05-1.31-2.2,1,.61,1.93,1.68S479.9,126.18,479.73,126.32Z"/><path class="cls-2" d="M479.3,112.3c.16.16-.46,1-1.39,2s-1.8,1.56-2,1.41.46-1,1.38-2S479.14,112.14,479.3,112.3Z"/><path class="cls-2" d="M468.88,115.87c-.14.18-1-.28-1.85-1s-1.48-1.47-1.34-1.64,1,.28,1.86,1S469,115.7,468.88,115.87Z"/><path class="cls-2" d="M468.48,122.05c.16.15-.39,1-1.23,2s-1.65,1.55-1.82,1.39.38-1,1.22-1.94S468.31,121.9,468.48,122.05Z"/><path class="cls-2" d="M406.86,140l.42,1a7.13,7.13,0,0,0,3.9,3.86l1.09.44-1,.43a7.09,7.09,0,0,0-3.93,3.93l-.29.74-.44-.92a7.16,7.16,0,0,0-4-3.61l-.95-.35,1.24-.6a7.14,7.14,0,0,0,3.47-3.67Z"/><path class="cls-2" d="M94.58,128.7l.44,1.07a7.64,7.64,0,0,0,4.16,4.12l1.16.47-1.12.45A7.62,7.62,0,0,0,95,139l-.32.78-.47-1A7.6,7.6,0,0,0,90,135l-1-.37,1.33-.64A7.59,7.59,0,0,0,94,130Z"/><path class="cls-2" d="M178.14,171.44l.22.54a3.8,3.8,0,0,0,2.08,2.05l.58.24-.56.23a3.76,3.76,0,0,0-2.09,2.09l-.16.4-.23-.5a3.81,3.81,0,0,0-2.12-1.92l-.51-.18.66-.32a3.8,3.8,0,0,0,1.85-2Z"/><path class="cls-2" d="M418.69,62.63l.45,1.07a7.56,7.56,0,0,0,4.15,4.12l1.17.47-1.12.46a7.56,7.56,0,0,0-4.19,4.19l-.31.78-.47-1a7.6,7.6,0,0,0-4.25-3.84l-1-.37,1.33-.65A7.57,7.57,0,0,0,418.13,64Z"/></g></g></svg>