<svg xmlns="http://www.w3.org/2000/svg" viewBox="0 0 209.52 283.48"><defs><style>.cls-1{fill:#e3b591;}.cls-2{fill:#eed4c0;}.cls-3{fill:#f5dec9;}.cls-4{fill:#ca845c;}.cls-5{fill:#d39b77;}.cls-6{fill:#e8bea0;}.cls-7{fill:#ebccb2;}.cls-8{fill:#333;}.cls-9{fill:#422214;}.cls-10{fill:#b61024;}.cls-11{fill:#eef3ec;}.cls-12{fill:#b34d36;}.cls-13{fill:#e7c099;}.cls-14{fill:#e9cbb2;}.cls-15{fill:#c48058;}.cls-16{fill:#b74c2f;}.cls-17{fill:#d6af90;}.cls-18{fill:#f2d6bf;}.cls-19{fill:#e5ab7e;}.cls-20{fill:#f5e3d5;}.cls-21{fill:#f1dbc9;}.cls-22{fill:#f6e4d5;}.cls-23{fill:#505656;}.cls-24{fill:#34383c;}.cls-25{fill:#d48f5f;}.cls-26{fill:#f7ede1;}.cls-27{fill:#d99e7a;}.cls-28{fill:#f1ceb3;}.cls-29{fill:#bf865f;}.cls-30{fill:#e3b491;}.cls-31{fill:#c49167;}.cls-32{fill:#e2b8a1;}.cls-33{fill:#c58864;}.cls-34{fill:#f5d9c5;}.cls-35{fill:none;stroke:#666;stroke-linecap:round;stroke-linejoin:round;}</style></defs><title>slide3_personaje3</title><g id="Capa_2" data-name="Capa 2"><g id="PERSONAJE"><g id="Layer0_0_FILL" data-name="Layer0 0 FILL"><path class="cls-1" d="M137.66,256.06a7.69,7.69,0,0,0-2.64-2.38,59.68,59.68,0,0,0-6.88-3.87,23.29,23.29,0,0,1-2.95,1.85,39.92,39.92,0,0,1,11.37,7,3.91,3.91,0,0,1,.75.57,2,2,0,0,0,.7-1.5,3.35,3.35,0,0,0-.35-1.72M95,257.59h0a1,1,0,0,1,.27-.18l0,0a.12.12,0,0,1,0-.09,42.62,42.62,0,0,1,6.53-4.89q.69-.4,1.41-.75c-1.06-.52-2.14-1.1-3.22-1.77a15.25,15.25,0,0,0-6.61,7.06,1.2,1.2,0,0,0,.92.61.89.89,0,0,0,.49,0H95m44.87,13.64-.66,1a24.74,24.74,0,0,1-7.49,7.14,26.25,26.25,0,0,1-9.52,3.71,95.44,95.44,0,0,0,11.37-1.55q3.3-.75,6.39-1.63v0l0,0a61.9,61.9,0,0,0,10.41-4.15,68.26,68.26,0,0,0,9.69-6,78.74,78.74,0,0,0,13.14-12.83c.67-.91,1.35-1.81,2-2.69a75.49,75.49,0,0,0,15.43-49.71l-.44-3q-3.18,24.94-9.61,35.48a166.37,166.37,0,0,1-11.85,16.22c-.86,1-1.72,2-2.61,3-.58.7-1.21,1.44-1.89,2.2a14.92,14.92,0,0,1-3.57,3q-4.54,6.12-6.3,8.11c-.5.47-.81.78-.93.92a15,15,0,0,1-4.36,3,8.37,8.37,0,0,1-5.07.35,5.7,5.7,0,0,1-4-2.87,1.38,1.38,0,0,1-.13.22S139.89,271.14,139.86,271.23Z"/><path class="cls-2" d="M93.1,259.26a4.73,4.73,0,0,0-1,1.72c-.08.18-.29.82-.61,1.94V263a.38.38,0,0,1,.08.17,16.11,16.11,0,0,0,1.5,2.47c.39.5.8,1,1.24,1.5a17.53,17.53,0,0,0,6,4.28,28.75,28.75,0,0,0,4.1,1.54,36.06,36.06,0,0,0,4.76.79l2.34.27c1.88.09,4.18.13,6.92.13a45,45,0,0,0,6.3-.13,18.82,18.82,0,0,0,6-1.5,13.21,13.21,0,0,0,4.94-3.7.56.56,0,0,0,.09-.14l0,0a9.85,9.85,0,0,0,1.81-4.36,9.09,9.09,0,0,0,0-1.28.12.12,0,0,1,0-.09.51.51,0,0,0,.18.18,2.11,2.11,0,0,1,0-.62,1.67,1.67,0,0,1-.13-1,5.75,5.75,0,0,0-.18-1.32,5,5,0,0,0-.92-1.68,40.55,40.55,0,0,0-11.38-7q-10.46,5.8-22,.18-.72.35-1.41.75a42.57,42.57,0,0,0-6.52,4.89.12.12,0,0,0,0,.09l-.05,0a.43.43,0,0,0-.17.18.06.06,0,0,0-.09,0h-.09a2.09,2.09,0,0,0-.66.57,1.69,1.69,0,0,1-.35.4l-.75.7M121.53,255a25.53,25.53,0,0,1,3,1.76,6,6,0,0,1,2.07,2.51c.5,1,.49,1.72,0,2.16a1.25,1.25,0,0,1-1.63.31,4.84,4.84,0,0,1-1.55-1q-2.51-2.38-4.14-4c-.32-.36-.53-.59-.62-.71a2.76,2.76,0,0,1,.27-1.67.2.2,0,0,1,0-.14,5.78,5.78,0,0,1,.93.14,1.35,1.35,0,0,1,.53.26Z"/><path class="cls-3" d="M124.57,256.77a25.53,25.53,0,0,0-3-1.76l-1.1-.4a3.92,3.92,0,0,0-1.5-.26,2.76,2.76,0,0,0-.27,1.67c.09.12.3.35.62.71q1.64,1.66,4.14,4a4.84,4.84,0,0,0,1.55,1,1.25,1.25,0,0,0,1.63-.31c.53-.44.54-1.16,0-2.16A6,6,0,0,0,124.57,256.77Z"/><path class="cls-4" d="M102.66,248.84a32.93,32.93,0,0,1-3.87-1.9q-2.21-1.94-4.28-3.88a198.37,198.37,0,0,1-17.89-18.77,124.41,124.41,0,0,0,20.8,24l.09,0a1.42,1.42,0,0,1,.22.18c.77.55,1.53,1.06,2.29,1.54,1.08.66,2.16,1.25,3.22,1.76q11.48,5.64,22-.17a23.29,23.29,0,0,0,2.95-1.85,40.69,40.69,0,0,0,6.88-6.22l14.8-23.31q-10.08,15.19-16.66,22.39c-.82.88-1.6,1.66-2.33,2.33a43.92,43.92,0,0,1-6.48,3.4,34.37,34.37,0,0,1-4.94,1.63,26.87,26.87,0,0,1-12,.26,28.81,28.81,0,0,1-4.76-1.45m17-33.72a3.63,3.63,0,0,0-1.85,1.28,6.42,6.42,0,0,0-.71.61A15.09,15.09,0,0,1,114,219c-2.85.27-4.74-.22-5.65-1.45-1.08-1.24-1.83-1.87-2.24-1.9a1.79,1.79,0,0,0-1.5.05,65.12,65.12,0,0,0-11,3.74c1.2,0,2.39,0,3.57.05a9.77,9.77,0,0,1,1.63-.05,43.59,43.59,0,0,1,6,.22,10.83,10.83,0,0,1,5.38,2.12l5.86-.22a11.91,11.91,0,0,1,5.25-2.51,45.72,45.72,0,0,1,6-.71l5.29-.44A56.67,56.67,0,0,0,121.13,215,1.9,1.9,0,0,0,119.68,215.12Z"/><path class="cls-5" d="M96.93,240c-1.93-1.32-3.82-2.7-5.64-4.14A134.37,134.37,0,0,1,74.1,220.14c.8,1.38,1.63,2.77,2.52,4.15a198.37,198.37,0,0,0,17.89,18.77q2.07,2,4.28,3.88a32.93,32.93,0,0,0,3.87,1.9,28.81,28.81,0,0,0,4.76,1.45,26.87,26.87,0,0,0,12-.26,34.37,34.37,0,0,0,4.94-1.63,43.92,43.92,0,0,0,6.48-3.4c.73-.67,1.51-1.45,2.33-2.33q6.57-7.18,16.66-22.39l2.16-3.35a176.57,176.57,0,0,1-16,18.29q-2.73,2.68-5.33,4.8l-.35.27q-18.43,8-32.93,0a4.62,4.62,0,0,0-.4-.27m10.32-27.41-.09-.18q-14.85,4-23,6.61l1.46.09,0,0c2.73.06,5.39.14,8,.22a65.12,65.12,0,0,1,11-3.74,1.79,1.79,0,0,1,1.5-.05c.41,0,1.16.66,2.24,1.9.91,1.23,2.8,1.72,5.65,1.45a15.09,15.09,0,0,0,3.08-1.94,6.42,6.42,0,0,1,.71-.61,3.63,3.63,0,0,1,1.85-1.28,1.9,1.9,0,0,1,1.45-.13,56.67,56.67,0,0,1,11.42,2.86l3.21-.35c2-.24,4-.5,6-.79q-8.46-2-23.53-4.72c-.07.26-.14.51-.22.75a7.07,7.07,0,0,1-.4.92,11.31,11.31,0,0,1-1.5,1.86,6.63,6.63,0,0,1-3.08,1.45.8.8,0,0,0-.31,0,6,6,0,0,1-3.13-1.28c-.16-.12-.32-.25-.49-.4a4.88,4.88,0,0,0-.7-.66A7.05,7.05,0,0,1,107.25,212.61Z"/><path class="cls-6" d="M114.61,202.82a26,26,0,0,1-6.31-1.32,8.75,8.75,0,0,1,.18,4.72,1.06,1.06,0,0,0-.18.22l0,.17,0,.09v.09a.46.46,0,0,0,.13.26L108,208.6c-.24,1.23-.44,2.14-.62,2.73a7.29,7.29,0,0,1-.48,1.28,7.05,7.05,0,0,0,1.19,2,4.88,4.88,0,0,1,.7.66,5.74,5.74,0,0,0,.49.4,6,6,0,0,0,3.13,1.28.8.8,0,0,1,.31,0,6.63,6.63,0,0,0,3.08-1.45,11.31,11.31,0,0,0,1.5-1.86,7.07,7.07,0,0,0,.4-.92,15,15,0,0,1-.62-4.81,14.1,14.1,0,0,1,1-5.42A16,16,0,0,1,114.61,202.82Z"/><path class="cls-7" d="M151.19,48.45q-2.3,1.09-4.63,2h1.7A91.7,91.7,0,0,1,127,56.28a114.23,114.23,0,0,1-22.62,1.12q-4.45-.23-9-.76a2.5,2.5,0,0,1,0,.67,2.5,2.5,0,0,0,0-.67c-1.35-.15-2.72-.33-4.1-.54A107,107,0,0,0,80.66,54a73,73,0,0,0-12-.68,46.34,46.34,0,0,0-10.43,1.53h-.05a33.87,33.87,0,0,0-8.81,3.73.91.91,0,0,1-.32.27A42.19,42.19,0,0,0,38.3,82.45q-.63,5.35.18,16.69.81,11,0,16.55c0,.24-.3,1.55-.81,3.91-.24,1.08-.53,2.43-.86,4.05v-2L36.46,123a35.66,35.66,0,0,0-.93,9.48,11.28,11.28,0,0,0,.22,1.55,7.06,7.06,0,0,1,.49-2.65q1.63-5.16,7.86-10.68A62.93,62.93,0,0,1,62,110.51a82.74,82.74,0,0,1,20.19-4.72,18.44,18.44,0,0,1,6.67.22,7,7,0,0,1,2.87,1.63,5.28,5.28,0,0,1,1.68,2.74h.45q.57,1.94.84,3.3a8.89,8.89,0,0,1-.67,5.61,8.52,8.52,0,0,1-4.77,4.06A25,25,0,0,1,82.59,125c-6.81.91-11.25,1.58-13.35,2a45.62,45.62,0,0,0-12.72,4.23q-1.37.71-5.61,3.49a38.76,38.76,0,0,1-5.79,3.13l-4.82.84a4.79,4.79,0,0,1-3.88-1.9A3.7,3.7,0,0,1,36,136a40.22,40.22,0,0,1-.66,8.65,51.29,51.29,0,0,1-3.19,11.6q-2.12,5-2.74,15.89a128,128,0,0,0-.13,17.3l-.66,0-.05,0a.36.36,0,0,0,.05.13Q33,213.42,38.45,228q1.81,4.59,3.8,8.82a52.06,52.06,0,0,0,18.86,16.86c.53.29,1.11.59,1.73.88.47.18,1,.37,1.46.58a39.52,39.52,0,0,0,18.33,3.31,33.43,33.43,0,0,0,7.56-1.24,11,11,0,0,0,.93,5.74c.32-1.12.53-1.77.61-1.95a4.81,4.81,0,0,1,1-1.72l.75-.7a1.67,1.67,0,0,0,.36-.4,1.89,1.89,0,0,1,.66-.57h0a.86.86,0,0,1-.48,0,1.24,1.24,0,0,1-.93-.61,15.22,15.22,0,0,1,6.63-7.07c-.76-.48-1.53-1-2.3-1.54a1.42,1.42,0,0,0-.22-.18l-.09,0a124.59,124.59,0,0,1-20.85-24c-.89-1.38-1.73-2.77-2.52-4.15-.15.41-.31.81-.49,1.19a4.36,4.36,0,0,1-.53.89,5.41,5.41,0,0,1-2.47,2.73c.82-.65,1.5-2.23,2-4.76q.61-4.24.84-6.93a5.26,5.26,0,0,1,.44,1.1,3.12,3.12,0,0,0,.18,1.06,3.86,3.86,0,0,1,.22,1.1,1.87,1.87,0,0,1,.13,1l.8,1,8.92.58q8.18-2.61,23.07-6.62a.75.75,0,0,0,.08.18,7.28,7.28,0,0,0,.49-1.28c.18-.59.38-1.5.62-2.74l.31-1.54a.49.49,0,0,1-.13-.27v.17l.35-.09,0-.17a1.06,1.06,0,0,1,.18-.22,8.75,8.75,0,0,0-.18-4.72,9.93,9.93,0,0,0-1-.31,23.3,23.3,0,0,0-7.4-1.45,20.68,20.68,0,0,0-3.71.75,36.43,36.43,0,0,1-3.83.83q-5,.84-7.32-1.8a18.89,18.89,0,0,1-1.63-2.87,6.51,6.51,0,0,0-1.67-2.6,11.18,11.18,0,0,0-1.68-1,5.13,5.13,0,0,1-.79-.53A37.87,37.87,0,0,0,77.81,200a27,27,0,0,1,.75-8.51,3.13,3.13,0,0,1-.49-1.76,4,4,0,0,1,.75-2.12,5.46,5.46,0,0,1,1.37-1.81s.61-.58,1.76-1.58a.38.38,0,0,1,.26-.13l.09-.27a6.27,6.27,0,0,1,2.12-2.42A18.91,18.91,0,0,1,86,180.25a.17.17,0,0,0,.13,0,9.51,9.51,0,0,1,3-2.6q3.45-2,7.15-3.79.25-.62,7.27-17.5t-2.6-27.77a47.87,47.87,0,0,0-2-5.46,6,6,0,0,1-.31-.62c-.65-1.29-1.34-2.57-2.07-3.83,0,0,0,0,0,0a.15.15,0,0,1,.08,0,3.61,3.61,0,0,1,.44-.22c.8-.41,1.59-.78,2.38-1.1.27-.12.52-.23.75-.31.71-.24,1.38-.46,2-.66l1.06-.31c.41-.06,1.1-.19,2.07-.38h.09a2.35,2.35,0,0,1,.35-.11l0,0c1.26-.18,2-.27,2.29-.27,0,0,.06,0,1.19,0v0c-.57-.06,0-.11.53-.13a3.13,3.13,0,0,1,.31-.22s.13-.16.13-.16h.46a31.76,31.76,0,0,1,10,1.06v-.09a35.06,35.06,0,0,1,7.1,2.78,8.5,8.5,0,0,0-.7,1.54c-.32.71-.62,1.43-.91,2.16a.23.23,0,0,0,.17,0l-.48.92q-12.37,23-2.92,38.08t9.46,15.47a4.34,4.34,0,0,1,1.35.75,23.08,23.08,0,0,1,2.39,2.07,2,2,0,0,1,.48.58,19.63,19.63,0,0,0,3,2.69,9.54,9.54,0,0,0,1.48,1c.55.33,1.2.68,2,1.06a7.47,7.47,0,0,1,2,2.47q2.67,4.36,1.88,11.59a20.68,20.68,0,0,0-4.88-12,7.71,7.71,0,0,0-3-1.49,1.43,1.43,0,0,0-1,.22,1.12,1.12,0,0,0-.35.88,9.57,9.57,0,0,1-5.49,6.65l0,.09a2.37,2.37,0,0,1-.08.57v.45q-.79,3.78-7.48,6.24-3.17,1.23-4.66,1.63l-1.36.35a14,14,0,0,0-1,5.41,15.11,15.11,0,0,0,.61,4.79,5.09,5.09,0,0,0,.22-.75q15,2.78,23.49,4.71,4.26-.57,8.79-1.28l.75,0,0-.09,0-.31v-.68a3.12,3.12,0,0,1,0-1.06,4.79,4.79,0,0,1,.18-1.06,4.2,4.2,0,0,0,.08-1.05,4.52,4.52,0,0,1,.36-1.11c.29,1.74.78,4,1.45,6.84.65,2.43,1.47,3.95,2.47,4.54a5,5,0,0,1-2.73-2.56,12,12,0,0,1-1.19-2l-2.16,3.35-14.81,23.31a40.69,40.69,0,0,1-6.88,6.22,59.68,59.68,0,0,1,6.88,3.87,7.69,7.69,0,0,1,2.64,2.38,3.25,3.25,0,0,1,.35,1.72,2,2,0,0,1-.7,1.5,3.91,3.91,0,0,0-.75-.57,5.23,5.23,0,0,1,.93,1.67,6.29,6.29,0,0,1,.17,1.33,1.76,1.76,0,0,0,.13,1,2,2,0,0,0,0,.61.55.55,0,0,1-.17-.17.15.15,0,0,0,0,.08,9.09,9.09,0,0,1,0,1.28l3.53.49a1,1,0,0,0,.44.17,17.72,17.72,0,0,0,7.76,1,17.17,17.17,0,0,0,11-4.71q10.92-13.53,12.91-19.7Q176.71,231,178.78,223t3.09-14q1-5.91-.18-16.66a86.83,86.83,0,0,0-5.55-22.13q-4.5-11.37-3.84-15.91a49.76,49.76,0,0,0,.44-12.74,13.37,13.37,0,0,0-.17-1.45l-.8,0c-.09-.88-.14-1.79-.17-2.73-.09-1.77-.11-3.6,0-5.51a6,6,0,0,1,0-1.2l0,0-2.91-.83a40.45,40.45,0,0,1-5.42-3.75c-2.58-2.14-4.3-3.5-5.16-4a44.75,44.75,0,0,0-12.2-5.6q-3-1-13-3.44a27.46,27.46,0,0,1-6.43-2.38,8.76,8.76,0,0,1-4.28-4.58,9,9,0,0,1,0-5.65,29.22,29.22,0,0,1,1.19-3.17l.44,0a5.52,5.52,0,0,1,1.94-2.55,6.79,6.79,0,0,1,3-1.28,18.11,18.11,0,0,1,6.66.49,80.88,80.88,0,0,1,19.48,6.87,63.06,63.06,0,0,1,16.66,12c.46.52.9,1,1.32,1.55l1.28-7.72a144.61,144.61,0,0,0,1.36-17.49A60.07,60.07,0,0,0,173.18,72a38.79,38.79,0,0,0-8.46-15.34,28,28,0,0,0-13.49-8.46m9.17,166.17a1.06,1.06,0,0,1-.48.88,1,1,0,0,1-.93.39,1.45,1.45,0,0,1-1-.39,1.58,1.58,0,0,1-.31-1,1.45,1.45,0,0,1,.4-.93,1.5,1.5,0,0,1,1-.44,1.45,1.45,0,0,1,.89.44,1.26,1.26,0,0,1,.39,1m-85.94,4,0,.27.13,0a.36.36,0,0,0-.08-.31m33.76-102.67a.33.33,0,0,0-.14,0h.14Z"/><path class="cls-8" d="M159.92,215.21a1.06,1.06,0,0,0,.48-.88,1.26,1.26,0,0,0-.39-1,1.45,1.45,0,0,0-.89-.44,1.5,1.5,0,0,0-1,.44,1.45,1.45,0,0,0-.4.93,1.58,1.58,0,0,0,.31,1,1.45,1.45,0,0,0,1,.39,1,1,0,0,0,.93-.39m19.57-84.67a1.33,1.33,0,0,0-.93-.44,1.21,1.21,0,0,0-.92.35,1.3,1.3,0,0,0-.4,1,1.26,1.26,0,0,0,.31.88,1.11,1.11,0,0,0,.88.4,1.27,1.27,0,0,0,1-.31,1,1,0,0,0,.4-.88,1.56,1.56,0,0,0-.31-1M80.27,53.63a24.2,24.2,0,0,0-5.73-8.42c-.38-.35-.75-.72-1.1-1.1a89.19,89.19,0,0,0-9.69-6.88,32.18,32.18,0,0,0-6.31-3.48,15.44,15.44,0,0,0-5-.93.36.36,0,0,1-.13,0,17.31,17.31,0,0,0-6.35,6,11.88,11.88,0,0,1,4.41.53q1.68.57,4.89,2A31.71,31.71,0,0,1,62,45.3s.05,0,.05,0a21.34,21.34,0,0,1,2.24,2A30,30,0,0,1,68.55,53a71.14,71.14,0,0,1,11.72.66m94.15-8.55c-1.71-.06-3.49,0-5.34.08Q133.79-13.37,76.61,5.45q30,2.34,48.22,12.17A81.49,81.49,0,0,1,154.19,43.8a81.49,81.49,0,0,0-29.36-26.18Q106.64,7.78,76.61,5.45A113.65,113.65,0,0,0,63.48,10.7a101,101,0,0,1,12,1.45,117.23,117.23,0,0,1,14.59,3.44l1.94.57c1.52.5,3,1,4.45,1.54a.43.43,0,0,1,.17.09A124.76,124.76,0,0,1,122,30.35a258.28,258.28,0,0,1,23.71,18.56A258.28,258.28,0,0,0,122,30.35,124.76,124.76,0,0,0,96.62,17.79a.43.43,0,0,0-.17-.09c-1.44-.52-2.93-1-4.45-1.54l-1.94-.57a117.23,117.23,0,0,0-14.59-3.44,101,101,0,0,0-12-1.45,154.86,154.86,0,0,0-14,7.27,62.91,62.91,0,0,1,12.87,0A57.57,57.57,0,0,1,74,20.26,57.57,57.57,0,0,0,62.38,18a62.91,62.91,0,0,0-12.87,0q-2.61,1.5-5.29,3.26a.18.18,0,0,0-.09,0A229.34,229.34,0,0,0,24.69,34.89a5.2,5.2,0,0,1-.75,1,3.74,3.74,0,0,1-.26.84,0,0,0,0,0-.05,0c-.49,1.32-1.13,3.26-1.89,5.81a17.18,17.18,0,0,0-.66,2,59.12,59.12,0,0,0-2.56,13.18,59.12,59.12,0,0,1,2.56-13.18,17.18,17.18,0,0,1,.66-2c.76-2.55,1.4-4.49,1.89-5.81a0,0,0,0,1,.05,0,3.74,3.74,0,0,0,.26-.84c-.14.24-.31.47-.48.71-1.21,1.62-2.35,3.22-3.44,4.8A114.18,114.18,0,0,0,3.62,77.12a.3.3,0,0,1,0,.13q-5.82,22.88-2,49v-.09l.09.18c.09.71.2,1.46.31,2.23q.63,3.88,1.57,8a.3.3,0,0,0,0,.13,213.09,213.09,0,0,0,6.83,24.19q7.41,1.79,10.8,5.41a9,9,0,0,1,2.14,3,146,146,0,0,0,6.16-23.92c0-.27.08-.57.14-.9s.07-.43.13-.67v-.12s1-9.95.88-14.68v0a65.69,65.69,0,0,0-.52-11.91l1.1-30.63a65.06,65.06,0,0,1,4.14-11.94q5.12-11.07,14.28-16.4c2.62-1.58,8.64-3.28,8.64-3.28h0A63.67,63.67,0,0,1,68.55,53a30,30,0,0,0-4.28-5.69,21.34,21.34,0,0,0-2.24-2s0,0-.05,0a31.71,31.71,0,0,0-6.7-3.88q-3.21-1.45-4.89-2A11.88,11.88,0,0,0,46,38.86c-.14.24-.28.47-.39.71a12,12,0,0,0-1.24,2.64,9.82,9.82,0,0,1,2.74.88A27.48,27.48,0,0,1,53.74,47a18.76,18.76,0,0,1,2.56,2.42,6.05,6.05,0,0,1,1,1.33,1,1,0,0,1,.22.35,14.9,14.9,0,0,1,.53,2.78,14.9,14.9,0,0,0-.53-2.78,1,1,0,0,0-.22-.35,6.05,6.05,0,0,0-1-1.33A18.76,18.76,0,0,0,53.74,47a27.48,27.48,0,0,0-6.65-3.88,9.82,9.82,0,0,0-2.74-.88A11.27,11.27,0,0,0,44,48.65a11.27,11.27,0,0,1,.39-6.44,4.9,4.9,0,0,0-2.16,0,4.9,4.9,0,0,1,2.16,0,12,12,0,0,1,1.24-2.64c.11-.24.25-.47.39-.71a2.8,2.8,0,0,1-.48,0,2.8,2.8,0,0,0,.48,0,17.31,17.31,0,0,1,6.35-6,.36.36,0,0,0,.13,0,8.48,8.48,0,0,0-1.76.09,8.48,8.48,0,0,1,1.76-.09,28,28,0,0,1,9-2.91,49.81,49.81,0,0,1,6.08-.53l3.57-.17c1.09,0,2.07,0,2.95.09,1.47.06,2.63.11,3.49.17a32.14,32.14,0,0,1,6.47,1.1,25.32,25.32,0,0,1,14.06,9.75.55.55,0,0,1,.14.17,30,30,0,0,1,4.1,7.67,25.78,25.78,0,0,1,1.19,8.11,25.78,25.78,0,0,0-1.19-8.11,30,30,0,0,0-4.1-7.67.55.55,0,0,0-.14-.17,25.32,25.32,0,0,0-14.06-9.75,32.14,32.14,0,0,0-6.47-1.1c-.86-.06-2-.11-3.49-.17-.88-.06-1.86-.09-2.95-.09l-3.57.17a49.81,49.81,0,0,0-6.08.53,28,28,0,0,0-9,2.91,15.44,15.44,0,0,1,5,.93,32.18,32.18,0,0,1,6.31,3.48,89.19,89.19,0,0,1,9.69,6.88c.35.38.72.75,1.1,1.1a24.2,24.2,0,0,1,5.73,8.42A105.69,105.69,0,0,1,90.72,55.7c1.35.2,2.69.38,4,.53a.69.69,0,0,0,0-.22,20.58,20.58,0,0,0-3.92-10.85,36.3,36.3,0,0,0-8.77-8.9Q74.06,30,67.62,31,74.05,30,82.08,36.26a36.3,36.3,0,0,1,8.77,8.9A20.58,20.58,0,0,1,94.77,56a.69.69,0,0,1,0,.22q4.45.52,8.82.75a112.11,112.11,0,0,0,22.17-1.11,105.81,105.81,0,0,0,20.8-5.44h0c1.56-.87,3.1-1.53,4.63-2.27s2.94-1.48,4.32-2.25l0-.09c.39-.17.75-.35,1.11-.52a34.16,34.16,0,0,1,9.78,4.76,39.83,39.83,0,0,1,3.92,3.13,44.11,44.11,0,0,1,9.79,13.92,94.58,94.58,0,0,1,5.64,17.68v.13c-2.94,14.75-2.65,44.56-2.65,44.56v.11a154.42,154.42,0,0,0,1.4,15.38,1.24,1.24,0,0,0,.05.31q.57,4.14,1.27,8.33c-.44,2.59-.91,5.2-1.4,7.85l1.66,10.93q5-7,9.41-8.55t8,2.78q1.83-11.25,3.15-21.38a.39.39,0,0,1,0-.18q1.32-10.44,2-19.74v0q.78-10.48.74-19.57c0-1.73-.06-3.35-.09-4.85l0,0q-.75-27.19-9.19-41a2,2,0,0,0-.31-.4q-8.49-13.58-24.43-14.24h-1.15m7.58,10.47a29.44,29.44,0,0,1,5.51,8.2q.57,1.23,1.76,4.85a38.9,38.9,0,0,0,1.94,4.89,16.67,16.67,0,0,1,1.59,3,4.09,4.09,0,0,1,.35,3,14.24,14.24,0,0,1-1.5,2.74,3.91,3.91,0,0,0-.66,2.33.8.8,0,0,0,.09.36,34.48,34.48,0,0,0,4-8.11,1.23,1.23,0,0,1,.09-.22c.2-.62.38-1.25.53-1.9a3.91,3.91,0,0,1,.17-.88,31.62,31.62,0,0,0,.49-12,31.62,31.62,0,0,1-.49,12,3.91,3.91,0,0,0-.17.88c-.15.65-.33,1.28-.53,1.9a1.23,1.23,0,0,0-.09.22,34.48,34.48,0,0,1-4,8.11.8.8,0,0,1-.09-.36,3.91,3.91,0,0,1,.66-2.33,14.24,14.24,0,0,0,1.5-2.74,4.09,4.09,0,0,0-.35-3,16.67,16.67,0,0,0-1.59-3,38.9,38.9,0,0,1-1.94-4.89Q188,65,187.42,63.81a29.44,29.44,0,0,0-5.51-8.2,96.76,96.76,0,0,0-7.36-7,96.76,96.76,0,0,1,7.36,7M204,107.18c.23-.53.47-1.05.7-1.54q1.2-2.83,2.07-4.72-.87,1.89-2.07,4.72c-.23.49-.47,1-.7,1.54q-1.64,3.66-3.7,8.37c-.12.85-.21,1.72-.27,2.6a.37.37,0,0,1-.26.18c-.09,0-.18-.13-.27-.31a1.12,1.12,0,0,1,0-.88,13.12,13.12,0,0,1,.8-1.59q.3-4.93.17-9.83c0-1.47-.07-3-.13-4.45a120.34,120.34,0,0,0-4-24.28,120.34,120.34,0,0,1,4,24.28c.06,1.5.1,3,.13,4.45q.13,4.89-.17,9.83,2.07-4.71,3.7-8.37M185,129.39a33.54,33.54,0,0,0,3.62-4.49A38.33,38.33,0,0,0,191,121c.2-.41.41-.87.61-1.37-.2.5-.41,1-.61,1.37a38.33,38.33,0,0,1-2.47,3.88,33.54,33.54,0,0,1-3.62,4.49,39.84,39.84,0,0,0,3.79-6.65,44.38,44.38,0,0,0,3-10.1,40.5,40.5,0,0,0-1.1-17.94,40.5,40.5,0,0,1,1.1,17.94,44.38,44.38,0,0,1-3,10.1,39.84,39.84,0,0,1-3.79,6.65m16.62-10-.35,9.12a8.87,8.87,0,0,1-.58,3.66,52.63,52.63,0,0,0,3.18-7.36,52.63,52.63,0,0,1-3.18,7.36,8.87,8.87,0,0,0,.58-3.66l.35-9.12m-4.23,21.33a14.55,14.55,0,0,1-.35,4.9,37.76,37.76,0,0,1-1.59,4.8,25.74,25.74,0,0,1-3.13,7.1,17.34,17.34,0,0,0,3.83-3.44,47.79,47.79,0,0,0,3.62-5.16l2.38-4.36L199.72,149a47.79,47.79,0,0,1-3.62,5.16,17.34,17.34,0,0,1-3.83,3.44,25.74,25.74,0,0,0,3.13-7.1,37.76,37.76,0,0,0,1.59-4.8,14.55,14.55,0,0,0,.35-4.9m-6.26.62a15.69,15.69,0,0,1,2.38-3.48.42.42,0,0,1,.09-.22,6.16,6.16,0,0,1,.57-.75,18.12,18.12,0,0,0,3.09-4.54,24.81,24.81,0,0,0,1.14-4.28,24.81,24.81,0,0,1-1.14,4.28,18.12,18.12,0,0,1-3.09,4.54,6.16,6.16,0,0,0-.57.75.42.42,0,0,0-.09.22,15.69,15.69,0,0,0-2.38,3.48c-.47,1-.74,1.56-.79,1.68a5.85,5.85,0,0,1-1.19,1.36,17.73,17.73,0,0,1,2-5.07,20.52,20.52,0,0,0,1.89-3.48,9,9,0,0,0,.84-3.17q1.16-6.43,1.59-9.35-.43,2.91-1.59,9.35a9,9,0,0,1-.84,3.17,20.52,20.52,0,0,1-1.89,3.48,17.73,17.73,0,0,0-2,5.07,5.85,5.85,0,0,0,1.19-1.36c.05-.12.32-.68.79-1.68m-2.65,12.08a14.18,14.18,0,0,1-.22,4.85c-.59,1.26-.69,2.23-.31,2.9a7.66,7.66,0,0,1,1.68-2.11,4.54,4.54,0,0,0,1.28-2.07,4.54,4.54,0,0,1-1.28,2.07,7.66,7.66,0,0,0-1.68,2.11c-.38-.67-.28-1.64.31-2.9a14.18,14.18,0,0,0,.22-4.85v-.31c-.09-.68-.2-1.38-.35-2.12.15.74.26,1.44.35,2.12v.42M109.23,39.79a3.49,3.49,0,0,0-.22-.53,29.24,29.24,0,0,0-9.43-12.08,30.37,30.37,0,0,0-4.94-2.73,39.53,39.53,0,0,0-6-1.94,64.36,64.36,0,0,0-12-1.41c-.71,0-1.41-.05-2.12-.05-1.14,0-2.25,0-3.3,0a38.09,38.09,0,0,0-3.84.18c-1.94.12-3.77.31-5.51.57a11.91,11.91,0,0,1-1.63.36A39,39,0,0,0,49.15,25.9a7.85,7.85,0,0,0-1.1.58,22.45,22.45,0,0,0-6.92,5.86,15.2,15.2,0,0,0-2.38,4.76A11.42,11.42,0,0,0,39,44.24a7.26,7.26,0,0,0,.88,1.94,8.14,8.14,0,0,0,3.61,3.39,8.14,8.14,0,0,1-3.61-3.39,71.36,71.36,0,0,0-9.08,10.4.14.14,0,0,0-.05.09,1.78,1.78,0,0,0-.3.39,36.07,36.07,0,0,0-4.63,9.88,36.53,36.53,0,0,0-1.28,7.71L24.47,77v0l.09-2.38a36.53,36.53,0,0,1,1.28-7.71,36.07,36.07,0,0,1,4.63-9.88,1.78,1.78,0,0,1,.3-.39.14.14,0,0,1,.05-.09,71.36,71.36,0,0,1,9.08-10.4A7.26,7.26,0,0,1,39,44.24a11.42,11.42,0,0,1-.27-7.14,15.2,15.2,0,0,1,2.38-4.76,22.45,22.45,0,0,1,6.92-5.86,7.85,7.85,0,0,1,1.1-.58,39,39,0,0,1,11.11-3.74,11.91,11.91,0,0,0,1.63-.36c1.74-.26,3.57-.45,5.51-.57a38.09,38.09,0,0,1,3.84-.18c1.05,0,2.16,0,3.3,0,.71,0,1.41,0,2.12.05a64.36,64.36,0,0,1,12,1.41,39.53,39.53,0,0,1,6,1.94,30.37,30.37,0,0,1,4.94,2.73A29.24,29.24,0,0,1,109,39.26a3.49,3.49,0,0,1,.22.53q2.3,2.77,3.75,4.45c.29.32.57.62.83.88a26.42,26.42,0,0,0,3,2.64,31.87,31.87,0,0,0,3.39,2.47l2,1.15a13.7,13.7,0,0,1,3.57,3.17,13.7,13.7,0,0,0-3.57-3.17l-2-1.15a31.87,31.87,0,0,1-3.39-2.47,26.42,26.42,0,0,1-3-2.64c-.26-.26-.54-.56-.83-.88q-1.45-1.68-3.75-4.45a58.15,58.15,0,0,1,2,5.73,73.28,73.28,0,0,1,2,9.12,73.28,73.28,0,0,0-2-9.12,58.15,58.15,0,0,0-2-5.73M24.08,51.07c-.35.82-.9,2-1.63,3.66a11.3,11.3,0,0,1-1,1.85,10.64,10.64,0,0,1-1,1.41,10.64,10.64,0,0,0,1-1.41,11.3,11.3,0,0,0,1-1.85c.73-1.62,1.28-2.84,1.63-3.66.82-1.68,1.78-3.39,2.86-5.16s2.38-3.58,3.79-5.46q2.56-3.18,8.33-9.48-5.78,6.3-8.33,9.48-2.11,2.82-3.79,5.46c-1.08,1.77-2,3.48-2.86,5.16m-2.56,9.08c.09-.18.21-.38.35-.62q.4-.75,1.11-2-.7,1.23-1.11,2c-.14.24-.26.44-.35.62a8,8,0,0,0-1,2.82,7.15,7.15,0,0,0-.05,1.5,22.29,22.29,0,0,0,.36,2.91L22.45,77l-1.63-9.61a22.29,22.29,0,0,1-.36-2.91,7.15,7.15,0,0,1,.05-1.5,8,8,0,0,1,1-2.82m12-1.37a1.49,1.49,0,0,1,.67-.39,1.49,1.49,0,0,0-.67.39,3,3,0,0,0-.44.75c-.11.24-.25.55-.39.93A21.46,21.46,0,0,0,32,66.72c0,1.35.17,3.45.44,6.3l2.29-5.73a32.12,32.12,0,0,1,2.16-4.63q2.12-3.91,7.93-9.21Q39,58.74,36.86,62.66a32.12,32.12,0,0,0-2.16,4.63L32.41,73c-.27-2.85-.41-5-.44-6.3a21.46,21.46,0,0,1,.75-6.26c.14-.38.28-.69.39-.93a3,3,0,0,1,.44-.75M6.36,77.52a.6.6,0,0,0-.79.13.6.6,0,0,1,.79-.13,1.76,1.76,0,0,1,.75.52,4.75,4.75,0,0,1,.18,1.86q-.88,5.28.13,8.33a7.75,7.75,0,0,0,2.42,3.39A5.46,5.46,0,0,0,13.59,93a15,15,0,0,1-.93-4.41c-.06-.94-.07-2.41,0-4.41q.26-6.66.62-10a45.63,45.63,0,0,1,2.07-9.7,45.63,45.63,0,0,0-2.07,9.7q-.36,3.3-.62,10c0,2,0,3.47,0,4.41A15,15,0,0,0,13.59,93a5.46,5.46,0,0,1-3.75-1.37,7.75,7.75,0,0,1-2.42-3.39q-1-3-.13-8.33A4.75,4.75,0,0,0,7.11,78a1.76,1.76,0,0,0-.75-.52m14.81,23.84q1.84-2.11,3.92-4.1-2.07,2-3.92,4.1a33.33,33.33,0,0,0-3,3.53c-.27.32-.54.64-.84,1a1.54,1.54,0,0,0-.26.44,1.58,1.58,0,0,0-.27.44.42.42,0,0,0-.09.22,61.61,61.61,0,0,0-4.8,12.78c-.2.76-.4,1.53-.57,2.29-.41,1.76-.74,3.53-1,5.29v0a62.12,62.12,0,0,0-.57,7.85,62.12,62.12,0,0,1,.57-7.85v0c.23-1.76.56-3.53,1-5.29.17-.76.37-1.53.57-2.29A61.61,61.61,0,0,1,16.71,107a.42.42,0,0,1,.09-.22,1.58,1.58,0,0,1,.27-.44,2.15,2.15,0,0,0-.49.57,63.25,63.25,0,0,0-6.34,10.45,8.17,8.17,0,0,0-.67,1.36,75.8,75.8,0,0,0-2.86,7.19,75.8,75.8,0,0,1,2.86-7.19,8.17,8.17,0,0,1,.67-1.36,63.25,63.25,0,0,1,6.34-10.45,2.15,2.15,0,0,1,.49-.57,1.54,1.54,0,0,1,.26-.44c.3-.33.57-.65.84-1a33.33,33.33,0,0,1,3-3.53m-4-5.91c-.47.68-.94,1.33-1.41,1.94a62.52,62.52,0,0,0-5.55,9.35A47.05,47.05,0,0,0,7.37,116a5.73,5.73,0,0,0-.13.7q-.71,3.14-1.5,9,.79-5.85,1.5-9a5.73,5.73,0,0,1,.13-.7,47.05,47.05,0,0,1,2.87-9.3,62.52,62.52,0,0,1,5.55-9.35c.47-.61.94-1.26,1.41-1.94q1.86-2.46,3.88-5.06,1.14-1.55,2.34-3.09-1.2,1.55-2.34,3.09-2,2.6-3.88,5.06M13.76,128.6q.49-1.36,1.9-5.56a1.26,1.26,0,0,0,.17-.44,37.33,37.33,0,0,1,3.71-8,1.49,1.49,0,0,1,.13-.61c.38-1.71.81-3.41,1.28-5.12-.47,1.71-.9,3.41-1.28,5.12a1.49,1.49,0,0,0-.13.61q-1.07,4.36-1.72,8.73a1.41,1.41,0,0,1-.05.35,112.63,112.63,0,0,0-1.23,17.9v.17c0,1.77.06,3.53.17,5.29a.35.35,0,0,0,.53,0,.42.42,0,0,0,.22-.58.42.42,0,0,1-.22.58.35.35,0,0,1-.53,0c-.11-1.76-.17-3.52-.17-5.29v-.17a112.63,112.63,0,0,1,1.23-17.9,1.41,1.41,0,0,0,.05-.35q.66-4.36,1.72-8.73a37.33,37.33,0,0,0-3.71,8,1.26,1.26,0,0,1-.17.44q-1.41,4.2-1.9,5.56a3.83,3.83,0,0,1-.22.66,58.86,58.86,0,0,1-2.73,6,58.86,58.86,0,0,0,2.73-6,3.83,3.83,0,0,0,.22-.66m9-2.51a3,3,0,0,1,.26-.75c.18-.44.35-.84.53-1.19-.18.35-.35.75-.53,1.19a3,3,0,0,0-.26.75l-.22,7a9.11,9.11,0,0,0,.13,2.3,12.42,12.42,0,0,0,1,2.38,16.9,16.9,0,0,1,.7,2.68q0,.23.09,1.11v0c.06.41.12.93.18,1.54-.06-.61-.12-1.13-.18-1.54v0q-.09-.88-.09-1.11a16.9,16.9,0,0,0-.7-2.68,12.42,12.42,0,0,1-1-2.38,9.11,9.11,0,0,1-.13-2.3l.22-7a28.92,28.92,0,0,0-1.06,4c-.29,1.3-.68,3.29-1.15,6q-.57,2.69-1.41,5.55s0,0,0,.09c-.35,1.23-.74,2.45-1.15,3.66.41-1.21.8-2.43,1.15-3.66,0-.06,0-.09,0-.09q.84-2.86,1.41-5.55c.47-2.71.86-4.7,1.15-6a28.92,28.92,0,0,1,1.06-4m6.39,5.2a10.85,10.85,0,0,0,.62-2.29,10.85,10.85,0,0,1-.62,2.29,22,22,0,0,1-.88,2.2c-.21.47-.41,1-.62,1.46q-1.28,3-2.47,6.56,1.2-3.57,2.47-6.56c.21-.5.41-1,.62-1.46A22,22,0,0,0,29.19,131.29Z"/><path class="cls-9" d="M91.29,235.88q2.56-3.36,10.67-4.72a101.89,101.89,0,0,1-17-3.7l-4.58-7.05a4.13,4.13,0,0,0-.58,0c-1.85-.06-3.76-.13-5.73-.22a134.37,134.37,0,0,0,17.19,15.74m48.79-17.08a5.58,5.58,0,0,0-.57.13l.53,6a54.17,54.17,0,0,1-13,5.33,20.91,20.91,0,0,1,8.86,5.38,176.57,176.57,0,0,0,16-18.29,21.21,21.21,0,0,0-2.24.26l-9.13,1.19Z"/><path class="cls-10" d="M102,231.16q-8.11,1.36-10.67,4.72c1.82,1.44,3.71,2.82,5.64,4.14a4.62,4.62,0,0,1,.4.27q14.51,8,32.93,0l.35-.27q2.59-2.11,5.33-4.8a20.91,20.91,0,0,0-8.86-5.38,60.35,60.35,0,0,1-11,1.76A71,71,0,0,1,102,231.16Z"/><path class="cls-11" d="M97.24,221.07q-2,0-7.84-.35c-1.18-.06-2.44-.11-3.79-.14l-5.2-.17L85,227.46a101.89,101.89,0,0,0,17,3.7,71,71,0,0,0,14.1.44,60.35,60.35,0,0,0,11-1.76,54.17,54.17,0,0,0,13-5.33l-.53-6c-1.29.18-2.48.33-3.57.44-3.41.44-5.73.74-7,.88a37.25,37.25,0,0,0-8.2,1.81c-.76.32-1.93.88-3.48,1.68a9.3,9.3,0,0,1-1.9.53,6.48,6.48,0,0,1-1.76,0c-.09,0-.15,0-.18,0a9.65,9.65,0,0,1-4.14-.35l-3.7-1.37A44.59,44.59,0,0,0,97.24,221.07Z"/><path class="cls-12" d="M139.55,218.93a5.18,5.18,0,0,1,.58-.13h.52l9.13-1.19a21.1,21.1,0,0,1,2.25-.26,12,12,0,0,0,1.19,2,5,5,0,0,0,2.73,2.56q-1.5-.88-2.47-4.54c-.67-2.82-1.16-5.1-1.45-6.84a4.52,4.52,0,0,0-.36,1.11,4.2,4.2,0,0,1-.08,1,4.79,4.79,0,0,0-.18,1.06,3.12,3.12,0,0,0,0,1.06v.71l0,.3,0,.09-.75,0c-3,.47-6,.89-8.82,1.28-2,.29-4,.55-6,.79l-3.22.35-5.29.44a46,46,0,0,0-6,.71,12.07,12.07,0,0,0-5.25,2.51l-5.86.22a10.83,10.83,0,0,0-5.37-2.12,45.58,45.58,0,0,0-6-.22,11,11,0,0,0-1.63.05c-1.17,0-2.36-.05-3.57-.05-2.59-.08-5.24-.16-8-.22l0,0-1.46-.09c-2.85-.17-5.81-.37-8.9-.57l-.79-1a2,2,0,0,0-.13-1,3.86,3.86,0,0,0-.22-1.1,3.12,3.12,0,0,1-.18-1.06,5.86,5.86,0,0,0-.44-1.1q-.23,2.69-.84,6.92c-.53,2.52-1.2,4.11-2,4.76a5.41,5.41,0,0,0,2.47-2.73,4.36,4.36,0,0,0,.53-.89,12.85,12.85,0,0,0,.49-1.19c2,.09,3.87.17,5.72.22a4.13,4.13,0,0,1,.58.05l5.2.17c1.35,0,2.61.08,3.79.14q5.86.3,7.84.35a44.47,44.47,0,0,1,8.38,1.1l3.7,1.37a9.66,9.66,0,0,0,4.14.35c0-.06.09-.07.18,0a6.48,6.48,0,0,0,1.76,0,9.3,9.3,0,0,0,1.9-.53c1.56-.8,2.72-1.35,3.48-1.68a36.92,36.92,0,0,1,8.2-1.8l7-.89c1.09-.11,2.28-.26,3.57-.44m-65.14-.37,0-.27a.36.36,0,0,1,.08.31Z"/><path class="cls-13" d="M78.82,187.57a4,4,0,0,0-.75,2.12,3.13,3.13,0,0,0,.49,1.76A20.17,20.17,0,0,1,82,184.18c-1.15,1-1.73,1.53-1.76,1.58a5.46,5.46,0,0,0-1.37,1.81M128,192.2c-.14-.27-.57-.32-1.27-.18a49.87,49.87,0,0,1-6.13,2.16,15.12,15.12,0,0,1-6.44.44,29.88,29.88,0,0,1-6.56-2.38,15.77,15.77,0,0,0-6.7-1.63,1.57,1.57,0,0,0-1,.4c-.35.23-.39.65-.13,1.23a6.55,6.55,0,0,0,.75,1.46,20.59,20.59,0,0,1-3-1s-.07,0-.13,0a3.7,3.7,0,0,1-3.61.18,14.89,14.89,0,0,1-3.13-2.42,9.87,9.87,0,0,1-2.82-3.57,10.09,10.09,0,0,1,0-4.9c-.62.27-1.6.64-3,1.11a26.72,26.72,0,0,0-5.29,9.43,5.13,5.13,0,0,0,.79.53,11.18,11.18,0,0,1,1.68,1,6.51,6.51,0,0,1,1.67,2.6,18.89,18.89,0,0,0,1.63,2.87q2.3,2.64,7.32,1.8a36.43,36.43,0,0,0,3.83-.83,20.68,20.68,0,0,1,3.71-.75,23.3,23.3,0,0,1,7.4,1.45,9.93,9.93,0,0,1,1,.31,26,26,0,0,0,6.31,1.32,15.94,15.94,0,0,0,3.48-.31l1.37-.35c1-.26,2.55-.81,4.67-1.63q6.69-2.47,7.49-6.26l-2.2,0-.22-.14a.78.78,0,0,1-.84,0,1.06,1.06,0,0,1-.49-.62,2.54,2.54,0,0,0-.08-1Z"/><path class="cls-14" d="M90.63,186.87c1.12.08,1.76.14,1.94.17a5.79,5.79,0,0,0,1.68-.13,8.26,8.26,0,0,0,2.42-1.59,22.73,22.73,0,0,0,3.66-4.32,14.62,14.62,0,0,0,1.14-6.34,53.74,53.74,0,0,0-7.22,3.52Q89.66,183.25,90.63,186.87Z"/><path class="cls-15" d="M94.25,178.18c.47-.94.92-1.89,1.36-2.86.21-.5.4-1,.58-1.5q-3.7,1.77-7.15,3.79a9.51,9.51,0,0,0-3,2.6.17.17,0,0,1-.13,0,18.91,18.91,0,0,0-1.54,1.11,6.27,6.27,0,0,0-2.12,2.42l-.09.27a.38.38,0,0,0-.26.13,20.17,20.17,0,0,0-3.39,7.27,27,27,0,0,0-.75,8.51,37.87,37.87,0,0,1,1.76-7.45,26.72,26.72,0,0,1,5.29-9.43c1.35-.47,2.33-.84,3-1.11a10.09,10.09,0,0,0,0,4.9,9.87,9.87,0,0,0,2.82,3.57,14.89,14.89,0,0,0,3.13,2.42,3.7,3.7,0,0,0,3.61-.18q-5.73-2.33-6.7-5.81t3.62-8.69m33.89,4.37a13.49,13.49,0,0,1-1.28,3,30.33,30.33,0,0,1-5.51,6.92l1.24-.62,2.68-1.81a13.94,13.94,0,0,1,1.46-.7l1.59-1.76a9.76,9.76,0,0,0,1.54-2.69,11.86,11.86,0,0,0-.09-2.38c-.29-2.27-.73-3.76-1.32-4.5A11.33,11.33,0,0,1,128.14,182.55Z"/><path class="cls-16" d="M129.6,190.13a.93.93,0,0,0-.13-.44,1.32,1.32,0,0,0-1.1-.53,4.2,4.2,0,0,0-1.54.22,13,13,0,0,0-1.45.71c-1.23.82-2.13,1.42-2.68,1.8l-1.23.61a11.34,11.34,0,0,1-5.68,1,11.89,11.89,0,0,1-6.59-2.42L107,189a8.41,8.41,0,0,0-2.5-1.59,4.88,4.88,0,0,0-2.51-.22,4.41,4.41,0,0,0-2.24,1,.44.44,0,0,0-.27.18,4.7,4.7,0,0,0-1.27,1.76,5.62,5.62,0,0,0-.57,2.55v0a20.47,20.47,0,0,0,3,1,6.5,6.5,0,0,1-.75-1.45c-.26-.59-.22-1,.13-1.23a1.54,1.54,0,0,1,1-.4,15.78,15.78,0,0,1,6.68,1.63,29.5,29.5,0,0,0,6.56,2.37,15,15,0,0,0,6.41-.44,50,50,0,0,0,6.11-2.15c.71-.15,1.13-.09,1.28.18l.13.26a2.31,2.31,0,0,1,.09,1,1.06,1.06,0,0,0,.48.61.8.8,0,0,0,.84.05l.22.13,2.2,0v0a2.51,2.51,0,0,0,.08-.57l0-.09-.62-.57a1.11,1.11,0,0,0-.26.09,3.12,3.12,0,0,1-.35,0,2.62,2.62,0,0,1-.7-.4,1.69,1.69,0,0,1-.66-1.4l.08-.84A1.82,1.82,0,0,0,129.6,190.13Z"/><path class="cls-17" d="M135.32,182.5a4.54,4.54,0,0,1,.67,1.85,10.37,10.37,0,0,1-2,6.31,9,9,0,0,1-2.91,2.42l.27-.09.61.58a9.75,9.75,0,0,0,3.44-2.52,9.64,9.64,0,0,0,2.12-4.14,1.12,1.12,0,0,1,.35-.88,1.49,1.49,0,0,1,1.06-.22,8.07,8.07,0,0,1,3,1.5,20.5,20.5,0,0,1,4.93,12q.8-7.23-1.89-11.6a7.61,7.61,0,0,0-2-2.46c-.76-.39-1.43-.74-2-1.06a10.08,10.08,0,0,1-1.5-1,19.33,19.33,0,0,1-3-2.69A2.14,2.14,0,0,0,136,180a22.16,22.16,0,0,0-2.43-2.08,4.09,4.09,0,0,0-1.37-.74,4.12,4.12,0,0,0,.27.52,5.31,5.31,0,0,1-.75-.48c.47.82,1.23,2,2.29,3.44A12.17,12.17,0,0,1,135.32,182.5Z"/><path class="cls-18" d="M136,184.35a4.54,4.54,0,0,0-.67-1.85,12.17,12.17,0,0,0-1.32-1.89c-1.06-1.47-1.82-2.62-2.29-3.44-.65-.41-1.31-.79-2-1.15l-1.28,2c.59.74,1,2.23,1.32,4.5a11.86,11.86,0,0,1,.09,2.38,9.76,9.76,0,0,1-1.54,2.69l-1.59,1.76a4,4,0,0,1,1.54-.22,1.27,1.27,0,0,1,1.1.53.82.82,0,0,1,.14.44,1.93,1.93,0,0,1,0,.35l-.09.84a1.68,1.68,0,0,0,.67,1.41,2.73,2.73,0,0,0,.7.39,1.7,1.7,0,0,0,.35,0,9,9,0,0,0,2.91-2.42,10.37,10.37,0,0,0,2-6.31Z"/><path class="cls-19" d="M103.37,175.17l-1.72-.22a14.47,14.47,0,0,1-1.15,6.34,23.36,23.36,0,0,1-3.66,4.32,8.34,8.34,0,0,1-2.42,1.59,5.79,5.79,0,0,1-1.68.13c-.17,0-.82-.09-1.93-.18q1,3.49,6.7,5.82a.1.1,0,0,1,.13,0v0a5.69,5.69,0,0,1,.57-2.56,4.69,4.69,0,0,1,1.28-1.76.44.44,0,0,1,.26-.18,4.48,4.48,0,0,1,2.25-1,4.87,4.87,0,0,1,2.51.22,8.69,8.69,0,0,1,2.52,1.59l2.2,2.07a12,12,0,0,0,6.61,2.43,11.62,11.62,0,0,0,5.69-1,30.62,30.62,0,0,0,5.51-6.92,14.11,14.11,0,0,0,1.27-3l-.61-.18h-.14c-1,.29-1.93.59-2.82.88q-3.39.89-5.77,1.32a25.82,25.82,0,0,1-9,0,9.69,9.69,0,0,1-3.74-1.5,6.36,6.36,0,0,1-2.78-3Q102.66,178.66,103.37,175.17Z"/><path class="cls-20" d="M101.69,174.9a.82.82,0,0,0-.22,0l1.72.22a9.28,9.28,0,0,0,0,5.24,6.33,6.33,0,0,0,2.77,3,9.73,9.73,0,0,0,3.75,1.5,25.82,25.82,0,0,0,9,0c1.58-.29,3.51-.73,5.77-1.32.88-.29,1.82-.59,2.82-.88h.13l.62.18a11.33,11.33,0,0,0,.31-4.5l1.28-2Q117.07,169,101.69,174.9Z"/><path class="cls-21" d="M120.56,116.13v.08a55.09,55.09,0,0,0-10.36-1.43h-.13c-.15.38-.09.42-.09.42v0s-1.45.07-1.76.13v-.51h-.35c0,.57.1.55.13.55a.06.06,0,0,0-.09,0c-.27,0-1,.09-2.29.27l0,0-.35.11h-.09s-1.66.32-2.07.38l-1.06.31c-.65.2-1.32.42-2,.66-.23.08-.48.19-.75.31-.79.32-1.58.69-2.38,1.1a3.61,3.61,0,0,0-.44.22.15.15,0,0,0-.08,0s0,0,0,0c.73,1.26,1.42,2.54,2.07,3.83a6,6,0,0,0,.31.62,47.87,47.87,0,0,1,2,5.46q9.69,10.89,2.6,27.77t-7.27,17.5c-.18.5-.37,1-.58,1.5-.44,1-.89,1.92-1.36,2.86a53.74,53.74,0,0,1,7.22-3.52.82.82,0,0,1,.22,0q15.39-5.9,28,1.41c.67.36,1.33.74,2,1.15a5.31,5.31,0,0,0,.75.48,4.12,4.12,0,0,1-.27-.52q-.12-.4-9.56-15.47t3-38.09c.12-.32.22-.64.31-1,.3-.73.6-1.45.93-2.16a8.14,8.14,0,0,1,.7-1.54A39.66,39.66,0,0,0,120.56,116.13Z"/><path class="cls-22" d="M62.42,110.51a62.9,62.9,0,0,0-17.85,10.18q-6.21,5.5-7.84,10.67a7,7,0,0,0-.49,2.64v.13a4.81,4.81,0,0,0,.27,1.81,4.12,4.12,0,0,0,.39.88,4.8,4.8,0,0,0,3.88,1.9l4.81-.84a38.72,38.72,0,0,0,5.77-3.13q4.23-2.77,5.6-3.48A45.39,45.39,0,0,1,69.65,127q3.13-.67,13.31-2a24.26,24.26,0,0,0,6.66-1.68,8.51,8.51,0,0,0,4.76-4,8.94,8.94,0,0,0,.66-5.6q-.27-1.37-.84-3.3h-.44a5.36,5.36,0,0,0-1.67-2.74A7.2,7.2,0,0,0,89.22,106a18.58,18.58,0,0,0-6.65-.22,83,83,0,0,0-20.15,4.72m-20.4,20,11.1-8.33a8,8,0,0,1,1.81-1l-.22-.22,5.07-3.79-.09-.27q2.64-1.36,6.35-3a13.11,13.11,0,0,0,1.28.88c.64.53,1,.82,1.1.88l-.18-2.34,4.14,1.19a1.85,1.85,0,0,0-.13-2A10,10,0,0,1,77,113l-.13-1.72a2,2,0,0,1,1.54.53,2.54,2.54,0,0,1,1.1,1.37.48.48,0,0,0,.53-.09,1.94,1.94,0,0,0,.48-.66,4.09,4.09,0,0,1,.45-1.15c.47-.38,1.14-.25,2,.4s1.62,1,1.94.66a.9.9,0,0,0,.57-.49,3.52,3.52,0,0,0,.23-.75,1.38,1.38,0,0,1,.3-.83c.27-.24.5-.28.71-.14s.6.3.75.8A6.14,6.14,0,0,0,89,112.82a4.65,4.65,0,0,0,1.81.62l-.09.44,1.11.44-1.68,5.46q-20.62,1.91-35,7.89a61,61,0,0,0-15.3,8.73L42,130.54m103.79-14.06a44.69,44.69,0,0,1,12.21,5.6c.86.55,2.57,1.91,5.16,4a39.82,39.82,0,0,0,5.42,3.75l2.91.83,1.81.53a4.77,4.77,0,0,0,4-1.5,4.9,4.9,0,0,0,1-2.6,7.25,7.25,0,0,0-.18-2.77q-1-4.66-5.33-10c-.42-.52-.86-1-1.32-1.55a63.22,63.22,0,0,0-16.66-12A80.81,80.81,0,0,0,135.32,94a18.05,18.05,0,0,0-6.65-.49,6.79,6.79,0,0,0-3,1.28,5.52,5.52,0,0,0-1.94,2.55l-.44,0a29.22,29.22,0,0,0-1.19,3.17,8.94,8.94,0,0,0,0,5.65,8.76,8.76,0,0,0,4.28,4.58,27.29,27.29,0,0,0,6.43,2.38q10,2.43,13,3.44m-1.27-13,4.23-.75-.44,2.34,1.19-.8a8.45,8.45,0,0,0,1.36-.7q3.48,2,6,3.66l-.14.26,4.63,4.28-.26.22a8,8,0,0,1,1.72,1.14L173,122.6l1.41,6c-.85-.84-1.74-1.68-2.69-2.51a65.2,65.2,0,0,0-11.55-7.85q-13.67-7.48-33.94-11.63l-1.1-5.6,1.19-.31,0-.48a3.9,3.9,0,0,0,1.85-.4A6.72,6.72,0,0,0,130,98.23c.2-.5.48-.73.83-.7.21-.15.43-.09.67.17a1.28,1.28,0,0,1,.22.88,5.31,5.31,0,0,0,.13.75,1,1,0,0,0,.48.53c.3.32,1,.18,2-.44s1.63-.59,2.07-.18a4.89,4.89,0,0,1,.31,1.19,1.92,1.92,0,0,0,.4.71.42.42,0,0,0,.53.13,2.46,2.46,0,0,1,1.27-1.23,2.09,2.09,0,0,1,1.55-.36l-.31,1.72a10.08,10.08,0,0,1,4.76,0A1.85,1.85,0,0,0,144.54,103.43Z"/><path class="cls-23" d="M65.6,119a7.87,7.87,0,0,1,1.32-.66,12.61,12.61,0,0,1,1.85-.53l1.81-.4q2.46-.43,7.23-1.23a23.31,23.31,0,0,1,2.77-.49l3,0a17.3,17.3,0,0,0,3.65-1,14.39,14.39,0,0,1,3.57-.75l.09-.44a4.49,4.49,0,0,1-1.81-.62A6,6,0,0,1,87.46,111c-.15-.5-.4-.76-.75-.79s-.44-.1-.71.13a1.44,1.44,0,0,0-.3.84,3.93,3.93,0,0,1-.23.75.92.92,0,0,1-.57.48c-.32.3-1,.08-1.94-.66s-1.55-.78-2-.4a4.09,4.09,0,0,0-.45,1.15,1.85,1.85,0,0,1-.48.66.45.45,0,0,1-.53.09,2.57,2.57,0,0,0-1.1-1.37,2,2,0,0,0-1.54-.53l.13,1.72a10,10,0,0,0-4.72-.48,1.87,1.87,0,0,1,.13,2l-4.14-1.19.18,2.33c-.09-.06-.46-.35-1.1-.88A11.54,11.54,0,0,1,66,114q-3.71,1.64-6.35,3l.09.26L54.71,121l.22.22a3,3,0,0,1,2-.09,3.28,3.28,0,0,1,.89.14,4.79,4.79,0,0,0,.7,0,1.37,1.37,0,0,0,.84-.57q.61-.66.75-.84a3.29,3.29,0,0,1,1.89-.44q1.86.14,2.16.18A4.75,4.75,0,0,0,65.6,119m83.17-16.29-4.23.75a1.85,1.85,0,0,1,.35-2,10.08,10.08,0,0,0-4.76,0l.31-1.72a2.09,2.09,0,0,0-1.55.36,2.46,2.46,0,0,0-1.27,1.23.42.42,0,0,1-.53-.13,1.92,1.92,0,0,1-.4-.71,4.89,4.89,0,0,0-.31-1.19q-.66-.61-2.07.18c-1.06.62-1.73.76-2,.44a1,1,0,0,1-.48-.53,5.31,5.31,0,0,1-.13-.75,1.28,1.28,0,0,0-.22-.88c-.24-.26-.46-.32-.67-.17-.35,0-.63.2-.83.7a6.72,6.72,0,0,1-1.81,1.63,3.9,3.9,0,0,1-1.85.4l0,.48a15.37,15.37,0,0,1,3.48,1.1,14.91,14.91,0,0,0,3.49,1.37l2.95.4a20.06,20.06,0,0,1,2.69.79c3.11.85,5.48,1.51,7.09,2,.65.24,1.22.45,1.72.62a19.19,19.19,0,0,1,1.81.71,13.27,13.27,0,0,1,1.23.79,4.18,4.18,0,0,0,1.42.75l2.11,0a3.7,3.7,0,0,1,1.85.66,9.45,9.45,0,0,0,.66.93,1.38,1.38,0,0,0,.75.66,4.3,4.3,0,0,0,.71.13,3.42,3.42,0,0,1,.92,0,2.57,2.57,0,0,1,1.9.31l.26-.22-4.63-4.28.14-.26q-2.52-1.64-6-3.66a8.45,8.45,0,0,1-1.36.7l-1.19.8Z"/><path class="cls-24" d="M53.12,122.28,42,130.61l-2.12,5.86a61,61,0,0,1,15.3-8.73q14.35-6,35-7.89l1.68-5.46L90.76,114a13.85,13.85,0,0,0-3.57.74,16.69,16.69,0,0,1-3.65,1l-3,0a25.31,25.31,0,0,0-2.77.48q-4.77.8-7.23,1.24c-.71.14-1.31.28-1.81.39a14,14,0,0,0-1.85.53,9.81,9.81,0,0,0-1.32.66,4.52,4.52,0,0,1-1.46.62q-.3,0-2.16-.18a3.21,3.21,0,0,0-1.89.45c-.09.11-.34.39-.75.83a1.34,1.34,0,0,1-.84.58,4.9,4.9,0,0,1-.7,0,3,3,0,0,0-.89-.13,2.83,2.83,0,0,0-2,.09,7.61,7.61,0,0,0-1.81,1m96.44-14.57a19.19,19.19,0,0,0-1.81-.71c-.5-.17-1.07-.38-1.72-.62-1.61-.47-4-1.13-7.09-2a20.06,20.06,0,0,0-2.69-.79l-2.95-.4a14.91,14.91,0,0,1-3.49-1.37,15.37,15.37,0,0,0-3.48-1.1l-1.19.31,1.1,5.6q20.28,4.14,33.94,11.63a65.2,65.2,0,0,1,11.55,7.85c1,.83,1.84,1.67,2.69,2.51l-1.41-6-10.18-9.52a8,8,0,0,0-1.72-1.14,2.57,2.57,0,0,0-1.9-.31,3.42,3.42,0,0,0-.92,0,4.3,4.3,0,0,1-.71-.13,1.38,1.38,0,0,1-.75-.66,9.45,9.45,0,0,1-.66-.93,3.7,3.7,0,0,0-1.85-.66l-2.11,0a4.18,4.18,0,0,1-1.42-.75A13.27,13.27,0,0,0,149.56,107.71Z"/><path class="cls-25" d="M35,74.52A66.85,66.85,0,0,0,31,86.46L30,117.09A90.24,90.24,0,0,1,30.64,129v0l-.88,14.68V144c-.06.24-.1.46-.13.66l.09.31a2.8,2.8,0,0,0-.22.57,144.43,144.43,0,0,1-6.12,23.63q-.84,5.51-1.2,11.28-.27,4.09-.31,8.33a.54.54,0,0,0,0,.31,2,2,0,0,0,0,.4v.26c0,1.73,0,3.53.13,5.38,0,2.94.12,5.87.36,8.81q3.54,21.78,12.18,37.56A75.73,75.73,0,0,0,55.29,266a58,58,0,0,0,7.22,4.85h-.17s0,0,0,0,.15.16.26.86h0c3.88,1.62,8.08,3.58,12.6,5.22,1.41.47,2.84,1,4.28,1.5,1.23.32,2.48.68,3.75,1.06A111.09,111.09,0,0,0,106.15,283L99,280.53a22.72,22.72,0,0,1-5.46-2,27.71,27.71,0,0,1-5-4.14,4.38,4.38,0,0,0-1.46-1.19v0c.32,0,.31,0,.31-.05-.76-.82-1.37-1.51-1.81-2.07a12.16,12.16,0,0,1-2.11-3.83q-5.16,2.64-11.9.48a17.41,17.41,0,0,1-3.35-1.32,17.33,17.33,0,0,1-2.38-1.24,36.17,36.17,0,0,1-5.56-4.05,4,4,0,0,0-.7-.57c-.35-.39-.72-.75-1.1-1.11A78.28,78.28,0,0,1,42.72,237q-2-4.23-3.79-8.81-5.46-14.55-9.78-38.39a.36.36,0,0,1,0-.13l0-.05.66.05a127.66,127.66,0,0,1,.13-17.28q.61-10.89,2.73-15.87A51.74,51.74,0,0,0,35.85,145a40.09,40.09,0,0,0,.66-8.64,4.81,4.81,0,0,1-.27-1.81v-.13a11.15,11.15,0,0,1-.22-1.54,35.66,35.66,0,0,1,.93-9.48,3.52,3.52,0,0,0-.14-1.36v-.09c.31-1.59.58-2.91.8-4,.48-2.32.73-3.6.76-3.83q.75-5.47,0-16.22a100.52,100.52,0,0,1-.17-16.35A42.29,42.29,0,0,1,48.27,58.39a1,1,0,0,0,.3-.27Q39.84,63.46,35,74.52Z"/><path class="cls-26" d="M170,53.19a39.83,39.83,0,0,0-3.92-3.13,34.09,34.09,0,0,0-9.79-4.76l-1.1.52,0,.09q-2.08,1.16-4.32,2.25a28,28,0,0,1,13.48,8.46A38.94,38.94,0,0,1,172.79,72a60.42,60.42,0,0,1,2.29,17.24,146.94,146.94,0,0,1-1.37,17.49l-1.28,7.72c2.92,3.53,4.69,6.85,5.34,10a7.45,7.45,0,0,1,.17,2.77,4.9,4.9,0,0,1-1,2.6,4.76,4.76,0,0,1-4,1.5l-1.8-.53v.22a5.79,5.79,0,0,0,0,1c-.06,1.91,0,3.74,0,5.51q0,1.41.18,2.73l.79,0a11.26,11.26,0,0,1,.18,1.45,49.8,49.8,0,0,1-.45,12.74q-.66,4.54,3.84,15.91a86.42,86.42,0,0,1,5.55,22.13q1.2,10.76.18,16.66c-.74,4-1.76,8.65-3.09,14s-3.21,11.58-5.51,18.69q-2,6.17-12.91,19.7a14.92,14.92,0,0,0,3.57-3c.68-.76,1.31-1.5,1.9-2.2.88-1,1.74-2,2.6-3a166.37,166.37,0,0,0,11.85-16.22q6.44-10.55,9.61-35.48l-2.82-19.27-1.41-9.87-1.68-10.93c.5-2.64,1-5.26,1.41-7.84-.47-2.8-.89-5.57-1.27-8.34a1.25,1.25,0,0,1-.05-.3c-.73-5.15-1.2-10.27-1.41-15.39v0a189.21,189.21,0,0,1,3-44.56,99.46,99.46,0,0,0-4.8-15.12,27.1,27.1,0,0,1-.67-2.69A43.93,43.93,0,0,0,170,53.19m8.55,76.91a1.33,1.33,0,0,1,.93.44,1.56,1.56,0,0,1,.31,1,1,1,0,0,1-.4.88,1.27,1.27,0,0,1-1,.31,1.11,1.11,0,0,1-.88-.4,1.26,1.26,0,0,1-.31-.88,1.3,1.3,0,0,1,.4-1A1.21,1.21,0,0,1,178.56,130.1Z"/><path class="cls-27" d="M202.14,180.17l-.57-.09a4,4,0,0,0-2,.35,3.13,3.13,0,0,0-1.5,1.28,13.5,13.5,0,0,0-.79,2.82,11.3,11.3,0,0,1-2.34,4.1,1.12,1.12,0,0,1-1.19.57,2.89,2.89,0,0,1-.48-.84q-.09-2.42,2.38-6,1.37-2.16,3-5.16a12.53,12.53,0,0,0,1.81-5.33q-8.59-1.5-13.45,10.35l2.83,19.27.44,3q2.6,1.71,5-5.38A139,139,0,0,0,202.14,180.17Z"/><path class="cls-28" d="M132.42,276.1a.33.33,0,0,1-.14,0,.7.7,0,0,1-.17.14,59.35,59.35,0,0,1-6.22,2.29l-.22.09a48.32,48.32,0,0,1-12.34,1.63c-.76,0-1.48,0-2.16,0-1.64-.06-3.28-.19-4.89-.4-1.06-.14-2.07-.31-3-.48a48.67,48.67,0,0,1-15.83-6.13c.36.35.72.75,1.11,1.19a28.34,28.34,0,0,0,5,4.15,23.27,23.27,0,0,0,5.46,2l7.19,2.51h.22c1.52.12,3.07.19,4.62.22a.14.14,0,0,0,.09.05c.71,0,1.44,0,2.21,0,2.26.06,4.51,0,6.74-.13l1.76-.09a26.34,26.34,0,0,0,9.52-3.7,24.9,24.9,0,0,0,7.5-7.14A48.79,48.79,0,0,1,132.42,276.1Z"/><path class="cls-29" d="M13,177.43l1.5,9.61,1.9,13.71a10.6,10.6,0,0,0,5.9,3.09Q22,199.43,22,195,16.1,173.38,13,177.43Z"/><path class="cls-30" d="M90.54,257.39A33.72,33.72,0,0,1,83,258.62a39.32,39.32,0,0,1-18.29-3.3c-.5-.21-1-.4-1.46-.58s-1.19-.59-1.72-.88A51.8,51.8,0,0,1,42.72,237a78.28,78.28,0,0,0,15.74,22.39c.38.36.75.72,1.1,1.11a4,4,0,0,1,.7.57,36.17,36.17,0,0,0,5.56,4.05,17.33,17.33,0,0,0,2.38,1.24,17.41,17.41,0,0,0,3.35,1.32q6.74,2.16,11.9-.48a12.16,12.16,0,0,0,2.11,3.83c.44.56,1,1.25,1.81,2.07,0,0,0,.05-.31.05v0a53.86,53.86,0,0,0,16.18,6.13c1,.17,2,.33,3,.48,1.61.21,3.25.34,4.89.4.68,0,1.4,0,2.16-.05a47.88,47.88,0,0,0,12.34-1.63l.22-.09a57.18,57.18,0,0,0,6.22-2.29.64.64,0,0,0,.17-.13.33.33,0,0,0,.14,0,48.86,48.86,0,0,0,6.39-3.71q.34-.57.66-1c0-.09.06-.14.09-.14l.13-.22a5.65,5.65,0,0,0,4,2.87,8.36,8.36,0,0,0,5.07-.35,15,15,0,0,0,4.37-3,12.16,12.16,0,0,1,.92-.92q1.77-2,6.3-8.11a17.15,17.15,0,0,1-11,4.71,17.7,17.7,0,0,1-7.76-1,1,1,0,0,1-.44-.17l-3.53-.49a9.77,9.77,0,0,1-1.81,4.37l0,0a.48.48,0,0,1-.09.13,13.28,13.28,0,0,1-4.93,3.71,18.7,18.7,0,0,1-6,1.49,44.7,44.7,0,0,1-6.3.14q-4.09,0-6.92-.14c-.85-.08-1.63-.17-2.34-.26a37.79,37.79,0,0,1-4.76-.79,27.59,27.59,0,0,1-4.1-1.55,17.47,17.47,0,0,1-6-4.27q-.66-.75-1.23-1.5a15.08,15.08,0,0,1-1.5-2.47.49.49,0,0,0-.09-.18v-.08A11.14,11.14,0,0,1,90.54,257.39Z"/><path class="cls-31" d="M23.37,169.06a8.92,8.92,0,0,0-2.11-3l-10.18,3.13q5.15-.84,11.1,11.15Q22.54,174.57,23.37,169.06Z"/><path class="cls-32" d="M10.77,169.32a.64.64,0,0,0,.31-.13l10.18-3.13q-3.36-3.57-10.67-5.33Q2.13,165,6.1,178.67a68.84,68.84,0,0,0,3.57,9.12q2.78,8.86,6.74,13L14.51,187s0,0,0,0a29.82,29.82,0,0,1-5.55-9.17,10.84,10.84,0,0,1,0-7.76A4.54,4.54,0,0,1,10.77,169.32Z"/><path class="cls-33" d="M11.07,169.19a.6.6,0,0,1-.31.13,4.5,4.5,0,0,0-1.8.75,10.84,10.84,0,0,0-.05,7.76,29.71,29.71,0,0,0,5.6,9.21h0L13,177.43q3.09-4.05,9,17.59c-.12-1.85-.16-3.64-.13-5.38v-.26a2,2,0,0,1,0-.4.54.54,0,0,1,0-.31c0-2.82.13-5.59.31-8.33Q16.23,168.36,11.07,169.19Z"/><path class="cls-34" d="M194.87,163.77q-4.41,1.5-9.48,8.55l1.41,9.87q4.84-11.85,13.44-10.35a12.49,12.49,0,0,1-1.8,5.33q-1.68,3-3,5.16-2.47,3.61-2.38,6a2.49,2.49,0,0,0,.48.84,1.12,1.12,0,0,0,1.19-.57,11.3,11.3,0,0,0,2.34-4.1,13.5,13.5,0,0,1,.79-2.82,3,3,0,0,1,1.5-1.28,4,4,0,0,1,2-.35l.57.09a48.2,48.2,0,0,0,1.5-8.11V172a13.77,13.77,0,0,0-.53-5.42Q199.27,162.32,194.87,163.77Z"/></g><path id="Layer0_0_1_STROKES" data-name="Layer0 0 1 STROKES" class="cls-35" d="M10.71,160.36A209.72,209.72,0,0,1,4,136.47a.45.45,0,0,1,0-.13q-.93-4.07-1.54-7.89c-.12-.77-.22-1.5-.31-2.21L2,126.07v-.18q-3.78-26.13,2-49a.3.3,0,0,0,0-.13A114,114,0,0,1,20.44,41c1.09-1.59,2.23-3.19,3.44-4.8.17-.24.33-.47.48-.71a6.23,6.23,0,0,0,.75-1A229.14,229.14,0,0,1,44.53,20.9a.09.09,0,0,1,.08,0c1.79-1.18,3.55-2.26,5.29-3.26a153.42,153.42,0,0,1,14-7.28A116,116,0,0,1,77,5.08q57.11-18.83,92.38,39.71a53.15,53.15,0,0,1,5.32-.09h.18q16,.66,24.57,14.24a2.5,2.5,0,0,1,.31.4q8.49,13.83,9.24,41l0,0c0,1.5.06,3.12.09,4.85q0,9.09-.75,19.57v0q-.71,9.3-2,19.74a.39.39,0,0,0,0,.18q-1.32,10.14-3.17,21.37M10.59,160.73q7.32,1.76,10.67,5.33a8.92,8.92,0,0,1,2.11,3,145.13,145.13,0,0,0,6.09-23.62,8.7,8.7,0,0,1,.13-.89c0-.2.07-.42.61-.66v-.17c.22-5.06.59-9.95.88-14.68v0c-.23-4.12-.46-8.09-1-11.91l1.1-30.63a65.06,65.06,0,0,1,4.14-11.94q5.12-11.07,14.28-16.4a36.47,36.47,0,0,1,8.64-3.72h0A49.2,49.2,0,0,1,68.55,53a30,30,0,0,0-4.28-5.69,21.34,21.34,0,0,0-2.24-2s0,0-.05,0a31.71,31.71,0,0,0-6.7-3.88q-3.21-1.45-4.89-2A11.88,11.88,0,0,0,46,38.86c-.14.24-.28.47-.39.71a12,12,0,0,0-1.24,2.64,9.82,9.82,0,0,1,2.74.88A27.48,27.48,0,0,1,53.74,47a18.76,18.76,0,0,1,2.56,2.42,6.05,6.05,0,0,1,1,1.33,1,1,0,0,1,.22.35,14.9,14.9,0,0,1,.53,2.78M180.15,67.11a44.11,44.11,0,0,0-9.79-13.92,39.83,39.83,0,0,0-3.92-3.13,34.16,34.16,0,0,0-9.78-4.76c-.36.17-.72.35-1.11.52l0,.09q-2.07,1.16-4.32,2.25M185.7,172.32,184,161.39c.49-2.64,1-5.26,1.41-7.84-.47-2.8-.9-5.57-1.28-8.34a1.25,1.25,0,0,1,0-.3c-.73-5.15-1.2-10.27-1.41-15.39v0a189.21,189.21,0,0,1,3-44.56m-5.82-17.81a83.14,83.14,0,0,1,5.47,17.68v.46M151.19,48q-2.3,1.1-4.63,2h0a89.26,89.26,0,0,1-20.8,5.73,111.37,111.37,0,0,1-22.17,1.1q-4.36-.21-8.82-.75a2.5,2.5,0,0,1,0,.67m79.82-8.09a96.76,96.76,0,0,1,7.36,7,29.44,29.44,0,0,1,5.51,8.2q.57,1.23,1.76,4.85a38.9,38.9,0,0,0,1.94,4.89,16.67,16.67,0,0,1,1.59,3,4.09,4.09,0,0,1,.35,3,14.24,14.24,0,0,1-1.5,2.74,3.91,3.91,0,0,0-.66,2.33.8.8,0,0,0,.09.36,34.48,34.48,0,0,0,4-8.11,1.23,1.23,0,0,1,.09-.22c.2-.62.38-1.25.53-1.9a3.91,3.91,0,0,1,.17-.88,31.62,31.62,0,0,0,.49-12M196.37,77a120.34,120.34,0,0,1,4,24.28c.06,1.5.1,3,.13,4.45q.13,4.89-.17,9.83,2.07-4.71,3.7-8.37c.23-.53.47-1.05.7-1.54q1.2-2.83,2.07-4.72M190.64,94.7a40.5,40.5,0,0,1,1.1,17.94,44.38,44.38,0,0,1-3,10.1,39.84,39.84,0,0,1-3.79,6.65,33.54,33.54,0,0,0,3.62-4.49A38.33,38.33,0,0,0,191,121c.2-.41.41-.87.61-1.37m9.92-.22-.35,9.12a8.87,8.87,0,0,1-.58,3.66,52.63,52.63,0,0,0,3.18-7.36m-3.48-9.3c-.12.85-.21,1.72-.27,2.6a.37.37,0,0,1-.26.18c-.09,0-.18-.13-.27-.31a1.12,1.12,0,0,1,0-.88A13.12,13.12,0,0,1,200.34,115.55Zm-3,25.21a14.55,14.55,0,0,1-.35,4.9,37.76,37.76,0,0,1-1.59,4.8,25.74,25.74,0,0,1-3.13,7.1,17.34,17.34,0,0,0,3.83-3.44,47.79,47.79,0,0,0,3.62-5.16l2.38-4.36m-6.7-21.25q-.43,2.91-1.59,9.35a9,9,0,0,1-.84,3.17,20.52,20.52,0,0,1-1.89,3.48,17.73,17.73,0,0,0-2,5.07,5.85,5.85,0,0,0,1.19-1.36c.05-.12.32-.68.79-1.68a15.69,15.69,0,0,1,2.38-3.48.42.42,0,0,1,.09-.22,6.16,6.16,0,0,1,.57-.75,18.12,18.12,0,0,0,3.09-4.54,24.81,24.81,0,0,0,1.14-4.28M188.52,151c.15.74.27,1.44.35,2.12v.31a14.18,14.18,0,0,1-.22,4.85c-.58,1.26-.69,2.23-.31,2.9A7.66,7.66,0,0,1,190,159.1,4.54,4.54,0,0,0,191.3,157m11.81,9.52q-3.62-4.23-8-2.78t-9.48,8.55M112.89,54.64a75.21,75.21,0,0,0-2-9.12,55.65,55.65,0,0,0-2-5.73,3.49,3.49,0,0,0-.22-.53,29.16,29.16,0,0,0-9.43-12.08,30,30,0,0,0-4.94-2.73,39.53,39.53,0,0,0-6-1.94,64.36,64.36,0,0,0-12-1.41c-.7,0-1.41-.05-2.11-.05-1.15,0-2.25,0-3.31,0a37.74,37.74,0,0,0-3.83.18q-2.91.18-5.51.57a12.25,12.25,0,0,1-1.63.36A38.82,38.82,0,0,0,48.85,25.9a7.85,7.85,0,0,0-1.1.58,22.22,22.22,0,0,0-6.92,5.86,15,15,0,0,0-2.38,4.76,11.42,11.42,0,0,0,.26,7.14,7.59,7.59,0,0,0,.88,1.94,8.17,8.17,0,0,0,3.62,3.39M146,48.91a258.28,258.28,0,0,0-23.71-18.56A124.76,124.76,0,0,0,96.93,17.79a.36.36,0,0,0-.17-.09c-1.44-.52-2.93-1-4.45-1.54l-1.94-.57a117.23,117.23,0,0,0-14.59-3.44,101,101,0,0,0-12-1.45M50.7,32.91a8.48,8.48,0,0,1,1.76-.09,28,28,0,0,1,9-2.91,49.81,49.81,0,0,1,6.08-.53l3.57-.17c1.09,0,2.07,0,2.95.09,1.47.06,2.63.11,3.49.17a32.14,32.14,0,0,1,6.47,1.1,25.32,25.32,0,0,1,14.06,9.75.55.55,0,0,1,.14.17,30,30,0,0,1,4.1,7.67,25.78,25.78,0,0,1,1.19,8.11m-8.82,0a.69.69,0,0,0,0-.22,20.58,20.58,0,0,0-3.92-10.85,36.3,36.3,0,0,0-8.77-8.9Q74.06,30,67.62,31M94.73,56.23c-1.32-.15-2.66-.33-4-.53a105.69,105.69,0,0,0-10.45-2.07A71.14,71.14,0,0,0,68.55,53m11.72.66a24.2,24.2,0,0,0-5.73-8.42c-.38-.35-.75-.72-1.1-1.1a89.19,89.19,0,0,0-9.69-6.88,32.18,32.18,0,0,0-6.31-3.48,15.44,15.44,0,0,0-5-.93.36.36,0,0,1-.13,0,17.31,17.31,0,0,0-6.35,6,2.8,2.8,0,0,1-.48,0m80,15.64a13.7,13.7,0,0,0-3.57-3.17l-2-1.15a34.11,34.11,0,0,1-3.39-2.47,26.13,26.13,0,0,1-2.95-2.64c-.27-.26-.55-.56-.84-.88q-1.45-1.68-3.75-4.45m45.58,4a81.49,81.49,0,0,0-29.36-26.18Q106.95,7.78,76.92,5.45M44,48.65a11.27,11.27,0,0,1,.39-6.44,4.9,4.9,0,0,0-2.16,0m32.09-22A57.57,57.57,0,0,0,62.69,18a62.91,62.91,0,0,0-12.87,0m-31,39.76a59.12,59.12,0,0,1,2.56-13.18,19.33,19.33,0,0,1,.66-2c.76-2.55,1.4-4.49,1.9-5.81,0,0,0,0,0,0a3.29,3.29,0,0,0,.26-.84M39.06,31q-5.78,6.3-8.33,9.48-2.11,2.82-3.79,5.46c-1.08,1.77-2,3.48-2.86,5.16-.35.82-.9,2-1.63,3.66a11.3,11.3,0,0,1-1,1.85,10.64,10.64,0,0,1-1,1.41m2,19-1.63-9.61a22.29,22.29,0,0,1-.36-2.91,7.15,7.15,0,0,1,.05-1.5,8,8,0,0,1,1-2.82c.09-.18.21-.38.35-.62q.4-.75,1.11-2m21.81-4.1Q39,58.74,36.86,62.66a32.12,32.12,0,0,0-2.16,4.63L32.41,73c-.27-2.85-.41-5-.44-6.3a21.46,21.46,0,0,1,.75-6.26c.14-.38.28-.69.39-.93a3,3,0,0,1,.44-.75,1.49,1.49,0,0,1,.67-.39m5.24-12.21a71.36,71.36,0,0,0-9.08,10.4.14.14,0,0,0-.05.09,1.51,1.51,0,0,0-.3.39,36.07,36.07,0,0,0-4.63,9.88,36.53,36.53,0,0,0-1.28,7.71L24,77v.29M15.31,64.51a45.63,45.63,0,0,0-2.07,9.7q-.36,3.3-.62,10c0,2,0,3.47,0,4.41A15,15,0,0,0,13.59,93a5.46,5.46,0,0,1-3.75-1.37,7.75,7.75,0,0,1-2.42-3.39q-1-3-.13-8.33A4.75,4.75,0,0,0,7.11,78a1.76,1.76,0,0,0-.75-.52.6.6,0,0,0-.79.13m1,48.22a75.8,75.8,0,0,1,2.86-7.19,8.17,8.17,0,0,1,.67-1.36,63.25,63.25,0,0,1,6.34-10.45,2.15,2.15,0,0,1,.49-.57,1.54,1.54,0,0,1,.26-.44c.3-.33.58-.65.84-1a33.33,33.33,0,0,1,3-3.53q1.84-2.11,3.92-4.1m-1.54-10q-1.2,1.55-2.34,3.09-2,2.6-3.88,5.06c-.47.68-.94,1.33-1.41,1.94a62.52,62.52,0,0,0-5.55,9.35A47.05,47.05,0,0,0,7.37,116a5.73,5.73,0,0,0-.13.7q-.71,3.14-1.5,9M16.63,106.3a1.58,1.58,0,0,0-.27.44.42.42,0,0,0-.09.22,61.61,61.61,0,0,0-4.8,12.78c-.21.76-.4,1.53-.57,2.29-.41,1.76-.74,3.53-1,5.29v0a62.12,62.12,0,0,0-.58,7.85m1.46,0a58.86,58.86,0,0,0,2.73-6,3,3,0,0,0,.22-.66q.49-1.36,1.9-5.56a1.28,1.28,0,0,0,.18-.44,36.9,36.9,0,0,1,3.7-8,1.49,1.49,0,0,1,.13-.61c.38-1.71.81-3.41,1.28-5.12m-1,5.73q-1.07,4.36-1.72,8.73a1.41,1.41,0,0,1-.05.35A112.63,112.63,0,0,0,17,141.56v.17c0,1.77.06,3.53.18,5.29a.34.34,0,0,0,.52,0,.42.42,0,0,0,.22-.58m.14-1.14c.41-1.21.79-2.43,1.15-3.66,0-.06,0-.09,0-.09q.84-2.86,1.41-5.55c.47-2.71.85-4.7,1.15-6a29,29,0,0,1,1.05-4,3,3,0,0,1,.27-.75,12.35,12.35,0,0,1,.53-1.19m1.58,17.36q1.2-3.57,2.47-6.56c.21-.5.41-1,.62-1.46a22,22,0,0,0,.88-2.2,10.85,10.85,0,0,0,.62-2.29m-6.57-2.91-.22,7a9.11,9.11,0,0,0,.13,2.3,12.42,12.42,0,0,0,1,2.38,16.9,16.9,0,0,1,.7,2.68q0,.23.09,1.11v0c.06.41.12.93.18,1.54"/></g></g></svg>