<svg xmlns="http://www.w3.org/2000/svg" xmlns:xlink="http://www.w3.org/1999/xlink" viewBox="0 0 900.05 533.11"><defs><style>.cls-1,.cls-11,.cls-13,.cls-15,.cls-17,.cls-3{mask:url(#mask);}.cls-1{filter:url(#luminosity-noclip-10);}.cls-10,.cls-12,.cls-14,.cls-16,.cls-18,.cls-2,.cls-21,.cls-4,.cls-6,.cls-60,.cls-62,.cls-64,.cls-66,.cls-68,.cls-70,.cls-8{mix-blend-mode:multiply;}.cls-2{fill:url(#linear-gradient);}.cls-3{filter:url(#luminosity-noclip-15);}.cls-4{fill:url(#linear-gradient-2);}.cls-5{mask:url(#mask-3);filter:url(#luminosity-noclip-16);}.cls-6{fill:url(#linear-gradient-3);}.cls-7{mask:url(#mask-4);filter:url(#luminosity-noclip-17);}.cls-8{fill:url(#radial-gradient);}.cls-9{mask:url(#mask-5);filter:url(#luminosity-noclip-18);}.cls-10{fill:url(#radial-gradient-2);}.cls-11{filter:url(#luminosity-noclip-11);}.cls-12{fill:url(#linear-gradient-4);}.cls-13{filter:url(#luminosity-noclip-12);}.cls-14{fill:url(#linear-gradient-5);}.cls-15{filter:url(#luminosity-noclip-13);}.cls-16{fill:url(#linear-gradient-6);}.cls-17{filter:url(#luminosity-noclip-14);}.cls-18{fill:url(#linear-gradient-7);}.cls-19{isolation:isolate;}.cls-20{fill:#135699;}.cls-22{fill:#fff;}.cls-23{fill:#fefefe;}.cls-24{fill:#fdfdfd;}.cls-25{fill:#fbfbfc;}.cls-26{fill:#f9f9fa;}.cls-27{fill:#f7f8f8;}.cls-28{fill:#f5f6f7;}.cls-29{fill:#f3f4f5;}.cls-30{fill:#f1f2f4;}.cls-31{fill:#eff0f2;}.cls-32{fill:#eeeef0;}.cls-33{fill:#ececef;}.cls-34{fill:#eaeaed;}.cls-35{fill:#e7e8eb;}.cls-36{fill:#e5e7e9;}.cls-37{fill:#e3e5e8;}.cls-38{fill:#e1e3e6;}.cls-39{fill:#dfe0e4;}.cls-40{fill:#dddee2;}.cls-41{fill:#dbdce0;}.cls-42{fill:#d9dade;}.cls-43{fill:#d7d8dc;}.cls-44{fill:#d5d6da;}.cls-45{fill:#d3d4d8;}.cls-46{fill:#d1d2d6;}.cls-47{fill:#cfd0d5;}.cls-48{fill:#cdced3;}.cls-49{fill:#cbccd1;}.cls-50{fill:#c8cacf;}.cls-51{fill:#c6c8cd;}.cls-52{fill:#c4c5cb;}.cls-53{fill:#c2c3c9;}.cls-54{fill:#ccc;}.cls-55{fill:#191818;}.cls-56{fill:#be263d;}.cls-57{fill:#d4802d;}.cls-58{fill:#7ead39;}.cls-59{mask:url(#mask-10);}.cls-60{fill:url(#linear-gradient-8);}.cls-61{mask:url(#mask-11);}.cls-62{fill:url(#linear-gradient-9);}.cls-63{mask:url(#mask-12);}.cls-64{fill:url(#linear-gradient-10);}.cls-65{mask:url(#mask-13);}.cls-66{fill:url(#linear-gradient-11);}.cls-67{mask:url(#mask-14);}.cls-68{fill:url(#linear-gradient-12);}.cls-69{mask:url(#mask-15);}.cls-70{fill:url(#linear-gradient-13);}.cls-71{mask:url(#mask-16);}.cls-72{fill:url(#linear-gradient-14);}.cls-73{fill:url(#radial-gradient-3);}.cls-74{fill:url(#radial-gradient-4);}.cls-75{mask:url(#mask-17);}.cls-76{mix-blend-mode:lighten;fill:url(#radial-gradient-5);}.cls-77{fill:#5b5b5f;}.cls-78{mask:url(#mask-18);}.cls-79{fill:url(#radial-gradient-6);}.cls-80{fill:url(#linear-gradient-15);}.cls-81{fill:url(#linear-gradient-16);}.cls-82{fill:url(#linear-gradient-17);}.cls-83{fill:url(#linear-gradient-18);}.cls-84{fill:url(#linear-gradient-19);}.cls-85{fill:url(#radial-gradient-7);}.cls-86{fill:#444242;}.cls-87{fill:url(#radial-gradient-8);}.cls-88{fill:#434457;}.cls-89{fill:#d8d9dd;}.cls-90{fill:#f0dcb7;}.cls-91{fill:#d4b59b;}.cls-92{fill:#303140;}.cls-93{filter:url(#luminosity-noclip-5);}.cls-94{filter:url(#luminosity-noclip-4);}.cls-95{filter:url(#luminosity-noclip-3);}.cls-96{filter:url(#luminosity-noclip);}</style><filter id="luminosity-noclip" x="103.85" y="-8753.04" width="170.73" height="32766" filterUnits="userSpaceOnUse" color-interpolation-filters="sRGB"><feFlood flood-color="#fff" result="bg"/><feBlend in="SourceGraphic" in2="bg"/></filter><mask id="mask" x="103.85" y="-8753.04" width="170.73" height="32766" maskUnits="userSpaceOnUse"><g class="cls-96"/></mask><linearGradient id="linear-gradient" x1="189.22" y1="214.74" x2="189.22" y2="219.47" gradientUnits="userSpaceOnUse"><stop offset="0" stop-color="#999"/><stop offset="1" stop-color="#1a1a1a"/></linearGradient><linearGradient id="linear-gradient-2" x1="189.22" y1="318.59" x2="189.22" y2="323.33" xlink:href="#linear-gradient"/><filter id="luminosity-noclip-3" x="274.58" y="-8753.04" width="111.92" height="32766" filterUnits="userSpaceOnUse" color-interpolation-filters="sRGB"><feFlood flood-color="#fff" result="bg"/><feBlend in="SourceGraphic" in2="bg"/></filter><mask id="mask-3" x="274.58" y="-8753.04" width="111.92" height="32766" maskUnits="userSpaceOnUse"><g class="cls-95"/></mask><linearGradient id="linear-gradient-3" x1="274.58" y1="266.55" x2="386.5" y2="266.55" gradientUnits="userSpaceOnUse"><stop offset="0" stop-color="#141414"/><stop offset="1" stop-color="#141414"/></linearGradient><filter id="luminosity-noclip-4" x="79.81" y="-8753.04" width="44.58" height="32766" filterUnits="userSpaceOnUse" color-interpolation-filters="sRGB"><feFlood flood-color="#fff" result="bg"/><feBlend in="SourceGraphic" in2="bg"/></filter><mask id="mask-4" x="79.81" y="-8753.04" width="44.58" height="32766" maskUnits="userSpaceOnUse"><g class="cls-94"/></mask><radialGradient id="radial-gradient" cx="10059.8" cy="320.83" r="66.15" gradientTransform="matrix(-0.34, 0, 0, 0.34, 3492.25, 85.03)" gradientUnits="userSpaceOnUse"><stop offset="0" stop-color="#a6a6a6"/><stop offset="0.12" stop-color="#878787"/><stop offset="0.33" stop-color="#575757"/><stop offset="0.53" stop-color="#313131"/><stop offset="0.71" stop-color="#161616"/><stop offset="0.88" stop-color="#060606"/><stop offset="1"/></radialGradient><filter id="luminosity-noclip-5" x="77.41" y="-8753.04" width="51.31" height="32766" filterUnits="userSpaceOnUse" color-interpolation-filters="sRGB"><feFlood flood-color="#fff" result="bg"/><feBlend in="SourceGraphic" in2="bg"/></filter><mask id="mask-5" x="77.41" y="-8753.04" width="51.31" height="32766" maskUnits="userSpaceOnUse"><g class="cls-93"/></mask><radialGradient id="radial-gradient-2" cx="102.77" cy="195" r="31.25" gradientUnits="userSpaceOnUse"><stop offset="0" stop-color="#1a1a1a"/><stop offset="0.23" stop-color="#1d1d1d"/><stop offset="0.41" stop-color="#272727"/><stop offset="0.56" stop-color="#373737"/><stop offset="0.7" stop-color="#4d4d4d"/><stop offset="0.84" stop-color="#6b6b6b"/><stop offset="0.97" stop-color="#8e8e8e"/><stop offset="1" stop-color="#999"/></radialGradient><linearGradient id="linear-gradient-4" x1="189.22" y1="235.51" x2="189.22" y2="240.24" xlink:href="#linear-gradient"/><linearGradient id="linear-gradient-5" x1="189.22" y1="256.28" x2="189.22" y2="261.01" xlink:href="#linear-gradient"/><linearGradient id="linear-gradient-6" x1="189.22" y1="277.05" x2="189.22" y2="281.79" xlink:href="#linear-gradient"/><linearGradient id="linear-gradient-7" x1="189.22" y1="297.82" x2="189.22" y2="302.56" xlink:href="#linear-gradient"/><filter id="luminosity-noclip-10" x="103.85" y="214.63" width="170.73" height="4.72" filterUnits="userSpaceOnUse" color-interpolation-filters="sRGB"><feFlood flood-color="#fff" result="bg"/><feBlend in="SourceGraphic" in2="bg"/></filter><mask id="mask-10" x="103.85" y="214.63" width="170.73" height="4.72" maskUnits="userSpaceOnUse"><g class="cls-1"><rect class="cls-2" x="103.85" y="214.63" width="170.73" height="4.72"/></g></mask><linearGradient id="linear-gradient-8" x1="189.22" y1="214.74" x2="189.22" y2="219.47" gradientUnits="userSpaceOnUse"><stop offset="0" stop-color="gray"/><stop offset="1" stop-color="#fff"/></linearGradient><filter id="luminosity-noclip-11" x="103.85" y="235.4" width="170.73" height="4.72" filterUnits="userSpaceOnUse" color-interpolation-filters="sRGB"><feFlood flood-color="#fff" result="bg"/><feBlend in="SourceGraphic" in2="bg"/></filter><mask id="mask-11" x="103.85" y="235.4" width="170.73" height="4.72" maskUnits="userSpaceOnUse"><g class="cls-11"><rect class="cls-12" x="103.85" y="235.4" width="170.73" height="4.72"/></g></mask><linearGradient id="linear-gradient-9" x1="189.22" y1="235.51" x2="189.22" y2="240.24" xlink:href="#linear-gradient-8"/><filter id="luminosity-noclip-12" x="103.85" y="256.17" width="170.73" height="4.72" filterUnits="userSpaceOnUse" color-interpolation-filters="sRGB"><feFlood flood-color="#fff" result="bg"/><feBlend in="SourceGraphic" in2="bg"/></filter><mask id="mask-12" x="103.85" y="256.17" width="170.73" height="4.72" maskUnits="userSpaceOnUse"><g class="cls-13"><rect class="cls-14" x="103.85" y="256.17" width="170.73" height="4.72"/></g></mask><linearGradient id="linear-gradient-10" x1="189.22" y1="256.28" x2="189.22" y2="261.01" xlink:href="#linear-gradient-8"/><filter id="luminosity-noclip-13" x="103.85" y="276.94" width="170.73" height="4.72" filterUnits="userSpaceOnUse" color-interpolation-filters="sRGB"><feFlood flood-color="#fff" result="bg"/><feBlend in="SourceGraphic" in2="bg"/></filter><mask id="mask-13" x="103.85" y="276.94" width="170.73" height="4.72" maskUnits="userSpaceOnUse"><g class="cls-15"><rect class="cls-16" x="103.85" y="276.94" width="170.73" height="4.72"/></g></mask><linearGradient id="linear-gradient-11" x1="189.22" y1="277.05" x2="189.22" y2="281.79" xlink:href="#linear-gradient-8"/><filter id="luminosity-noclip-14" x="103.85" y="297.71" width="170.73" height="4.72" filterUnits="userSpaceOnUse" color-interpolation-filters="sRGB"><feFlood flood-color="#fff" result="bg"/><feBlend in="SourceGraphic" in2="bg"/></filter><mask id="mask-14" x="103.85" y="297.71" width="170.73" height="4.72" maskUnits="userSpaceOnUse"><g class="cls-17"><rect class="cls-18" x="103.85" y="297.71" width="170.73" height="4.72"/></g></mask><linearGradient id="linear-gradient-12" x1="189.22" y1="297.82" x2="189.22" y2="302.56" xlink:href="#linear-gradient-8"/><filter id="luminosity-noclip-15" x="103.85" y="318.48" width="170.73" height="4.72" filterUnits="userSpaceOnUse" color-interpolation-filters="sRGB"><feFlood flood-color="#fff" result="bg"/><feBlend in="SourceGraphic" in2="bg"/></filter><mask id="mask-15" x="103.85" y="318.48" width="170.73" height="4.72" maskUnits="userSpaceOnUse"><g class="cls-3"><rect class="cls-4" x="103.85" y="318.48" width="170.73" height="4.72"/></g></mask><linearGradient id="linear-gradient-13" x1="189.22" y1="318.59" x2="189.22" y2="323.33" xlink:href="#linear-gradient-8"/><filter id="luminosity-noclip-16" x="274.58" y="0" width="111.92" height="533.11" filterUnits="userSpaceOnUse" color-interpolation-filters="sRGB"><feFlood flood-color="#fff" result="bg"/><feBlend in="SourceGraphic" in2="bg"/></filter><mask id="mask-16" x="274.58" y="0" width="111.92" height="533.11" maskUnits="userSpaceOnUse"><g class="cls-5"><polygon class="cls-6" points="274.58 193.86 274.58 339.25 386.5 533.11 386.5 0 274.58 193.86"/></g></mask><linearGradient id="linear-gradient-14" x1="274.58" y1="266.55" x2="386.5" y2="266.55" gradientUnits="userSpaceOnUse"><stop offset="0" stop-color="#fff"/><stop offset="1" stop-color="#fff"/></linearGradient><radialGradient id="radial-gradient-3" cx="898.92" cy="2235.36" r="199.96" gradientTransform="translate(1120.45 -1882.99) rotate(45)" gradientUnits="userSpaceOnUse"><stop offset="0" stop-color="#bfbfbf"/><stop offset="1" stop-color="#f2f2f2"/></radialGradient><radialGradient id="radial-gradient-4" cx="701.28" cy="2279.15" r="152.18" gradientTransform="translate(1140.93 -1840.03) rotate(45) scale(0.97)" gradientUnits="userSpaceOnUse"><stop offset="0" stop-color="#bababa"/><stop offset="0.32" stop-color="#d1d1d1"/><stop offset="0.74" stop-color="#e9e9e9"/><stop offset="1" stop-color="#f2f2f2"/></radialGradient><filter id="luminosity-noclip-17" x="79.81" y="170.86" width="44.58" height="44.58" filterUnits="userSpaceOnUse" color-interpolation-filters="sRGB"><feFlood flood-color="#fff" result="bg"/><feBlend in="SourceGraphic" in2="bg"/></filter><mask id="mask-17" x="79.81" y="170.86" width="44.58" height="44.58" maskUnits="userSpaceOnUse"><g class="cls-7"><path class="cls-8" d="M79.81,193.15a22.29,22.29,0,1,0,22.29-22.29A22.29,22.29,0,0,0,79.81,193.15Z"/></g></mask><radialGradient id="radial-gradient-5" cx="10059.8" cy="320.83" r="66.15" gradientTransform="matrix(-0.34, 0, 0, 0.34, 3492.25, 85.03)" gradientUnits="userSpaceOnUse"><stop offset="0" stop-color="#fefde6"/><stop offset="0.07" stop-color="#fefde9"/><stop offset="0.6" stop-color="#fffff9"/><stop offset="1" stop-color="#fff"/></radialGradient><filter id="luminosity-noclip-18" x="77.41" y="169.58" width="51.31" height="51.31" filterUnits="userSpaceOnUse" color-interpolation-filters="sRGB"><feFlood flood-color="#fff" result="bg"/><feBlend in="SourceGraphic" in2="bg"/></filter><mask id="mask-18" x="77.41" y="169.58" width="51.31" height="51.31" maskUnits="userSpaceOnUse"><g class="cls-9"><circle class="cls-10" cx="103.07" cy="195.24" r="25.66"/></g></mask><radialGradient id="radial-gradient-6" cx="102.77" cy="195" r="31.25" gradientUnits="userSpaceOnUse"><stop offset="0" stop-color="#fffef3"/><stop offset="0.37" stop-color="#fffef0"/><stop offset="0.65" stop-color="#fffde7"/><stop offset="0.89" stop-color="#fefbd6"/><stop offset="1" stop-color="#fefacd"/></radialGradient><linearGradient id="linear-gradient-15" x1="92.38" y1="228.82" x2="113.76" y2="228.82" gradientUnits="userSpaceOnUse"><stop offset="0" stop-color="#a2a2a2"/><stop offset="0.1" stop-color="#fff"/><stop offset="0.15" stop-color="#f4f4f4"/><stop offset="0.28" stop-color="#d9dada"/><stop offset="0.41" stop-color="#c9cbcb"/><stop offset="0.5" stop-color="#c3c5c5"/><stop offset="0.59" stop-color="#c9cbcb"/><stop offset="0.72" stop-color="#d9dada"/><stop offset="0.85" stop-color="#f4f4f4"/><stop offset="0.9" stop-color="#fff"/><stop offset="1" stop-color="#a2a2a2"/></linearGradient><linearGradient id="linear-gradient-16" x1="91.31" y1="227.39" x2="114.83" y2="227.39" gradientUnits="userSpaceOnUse"><stop offset="0" stop-color="#989797"/><stop offset="0.1" stop-color="#f7f7f8"/><stop offset="0.12" stop-color="#f3f3f4"/><stop offset="0.27" stop-color="#d5d7d7"/><stop offset="0.4" stop-color="#c3c5c5"/><stop offset="0.5" stop-color="#bdbfbf"/><stop offset="0.6" stop-color="#c3c5c5"/><stop offset="0.72" stop-color="#d3d4d5"/><stop offset="0.86" stop-color="#eeeeef"/><stop offset="0.9" stop-color="#f7f7f8"/><stop offset="1" stop-color="#989797"/></linearGradient><linearGradient id="linear-gradient-17" x1="91.31" y1="231.81" x2="114.83" y2="231.81" xlink:href="#linear-gradient-16"/><linearGradient id="linear-gradient-18" x1="91.31" y1="222.97" x2="114.83" y2="222.97" xlink:href="#linear-gradient-16"/><linearGradient id="linear-gradient-19" x1="91.31" y1="236.23" x2="114.83" y2="236.23" xlink:href="#linear-gradient-16"/><radialGradient id="radial-gradient-7" cx="97.53" cy="-536.03" r="10.91" gradientTransform="translate(0 835.56) scale(1 1.11)" gradientUnits="userSpaceOnUse"><stop offset="0" stop-color="#bcbaba"/><stop offset="1" stop-color="#545551"/></radialGradient><radialGradient id="radial-gradient-8" cx="87.86" cy="236.71" r="0" gradientTransform="translate(0 -54.67) scale(1 1.32)" gradientUnits="userSpaceOnUse"><stop offset="0" stop-color="#d1d1d1"/><stop offset="0.49" stop-color="#cbcbcb"/><stop offset="1" stop-color="#bfbfbf"/></radialGradient></defs><title>slide6_organizador_1</title><g class="cls-19"><g id="Capa_2" data-name="Capa 2"><g id="Capa_1-2" data-name="Capa 1"><polygon class="cls-20" points="386.5 456.95 274.58 318.48 103.85 318.48 103.85 339.25 274.58 339.25 386.5 533.11 746.16 533.11 790.13 456.95 386.5 456.95"/><g class="cls-21"><polygon class="cls-22" points="274.58 318.48 274.58 323.2 386.5 474.26 780.13 474.26 790.13 456.95 386.5 456.95 274.58 318.48"/><polygon class="cls-23" points="274.58 318.48 274.58 323.06 386.5 473.71 780.45 473.71 790.13 456.95 386.5 456.95 274.58 318.48"/><polygon class="cls-24" points="274.58 318.48 274.58 322.93 386.49 473.16 780.76 473.16 790.13 456.95 386.5 456.95 274.58 318.48"/><polygon class="cls-25" points="274.58 318.48 274.58 322.8 386.49 472.62 781.08 472.62 790.13 456.95 386.5 456.95 274.58 318.48"/><polygon class="cls-26" points="274.58 318.48 274.58 322.66 386.48 472.07 781.4 472.07 790.13 456.95 386.5 456.95 274.58 318.48"/><polygon class="cls-27" points="274.58 318.48 274.58 322.53 386.48 471.52 781.71 471.52 790.13 456.95 386.5 456.95 274.58 318.48"/><polygon class="cls-28" points="274.58 318.48 274.58 322.39 386.47 470.97 782.03 470.97 790.13 456.95 386.5 456.95 274.58 318.48"/><polygon class="cls-29" points="274.58 318.48 274.58 322.26 386.47 470.43 782.34 470.43 790.13 456.95 386.5 456.95 274.58 318.48"/><polygon class="cls-30" points="274.58 318.48 274.58 322.12 386.46 469.88 782.66 469.88 790.13 456.95 386.5 456.95 274.58 318.48"/><polygon class="cls-31" points="274.58 318.48 274.58 321.99 386.46 469.33 782.98 469.33 790.13 456.95 386.5 456.95 274.58 318.48"/><polygon class="cls-32" points="274.58 318.48 274.58 321.86 386.45 468.79 783.29 468.79 790.13 456.95 386.5 456.95 274.58 318.48"/><polygon class="cls-33" points="274.58 318.48 274.58 321.72 386.45 468.24 783.61 468.24 790.13 456.95 386.5 456.95 274.58 318.48"/><polygon class="cls-34" points="274.58 318.48 274.58 321.59 386.44 467.69 783.92 467.69 790.13 456.95 386.5 456.95 274.58 318.48"/><polygon class="cls-35" points="274.58 318.48 274.58 321.45 386.44 467.14 784.24 467.14 790.13 456.95 386.5 456.95 274.58 318.48"/><polygon class="cls-36" points="274.58 318.48 274.58 321.32 386.43 466.6 784.55 466.6 790.13 456.95 386.5 456.95 274.58 318.48"/><polygon class="cls-37" points="274.58 318.48 274.58 321.18 386.43 466.05 784.87 466.05 790.13 456.95 386.5 456.95 274.58 318.48"/><polygon class="cls-38" points="274.58 318.48 274.58 321.05 386.42 465.5 785.19 465.5 790.13 456.95 386.5 456.95 274.58 318.48"/><polygon class="cls-39" points="274.58 318.48 274.58 320.91 386.41 464.95 785.5 464.95 790.13 456.95 386.5 456.95 274.58 318.48"/><polygon class="cls-40" points="274.58 318.48 274.58 320.78 386.41 464.41 785.82 464.41 790.13 456.95 386.5 456.95 274.58 318.48"/><polygon class="cls-41" points="274.58 318.48 274.58 320.64 386.4 463.86 786.13 463.86 790.13 456.95 386.5 456.95 274.58 318.48"/><polygon class="cls-42" points="274.58 318.48 274.58 320.51 386.4 463.31 786.45 463.31 790.13 456.95 386.5 456.95 274.58 318.48"/><polygon class="cls-43" points="274.58 318.48 274.58 320.38 386.39 462.77 786.77 462.77 790.13 456.95 386.5 456.95 274.58 318.48"/><polygon class="cls-44" points="274.58 318.48 274.58 320.24 386.39 462.22 787.08 462.22 790.13 456.95 386.5 456.95 274.58 318.48"/><polygon class="cls-45" points="274.58 318.48 274.58 320.11 386.38 461.67 787.4 461.67 790.13 456.95 386.5 456.95 274.58 318.48"/><polygon class="cls-46" points="274.58 318.48 274.58 319.97 386.38 461.13 787.72 461.13 790.13 456.95 386.5 456.95 274.58 318.48"/><polygon class="cls-47" points="274.58 318.48 274.58 319.84 386.37 460.58 788.03 460.58 790.13 456.95 386.5 456.95 274.58 318.48"/><polygon class="cls-48" points="274.58 318.48 274.58 319.7 386.37 460.03 788.35 460.03 790.13 456.95 386.5 456.95 274.58 318.48"/><polygon class="cls-49" points="274.58 318.48 274.58 319.57 386.36 459.48 788.66 459.48 790.13 456.95 386.5 456.95 274.58 318.48"/><polygon class="cls-50" points="274.58 318.48 274.58 319.43 386.36 458.94 788.98 458.94 790.13 456.95 386.5 456.95 274.58 318.48"/><polygon class="cls-51" points="274.58 318.48 274.58 319.3 386.35 458.39 789.29 458.39 790.13 456.95 386.5 456.95 274.58 318.48"/><polygon class="cls-52" points="274.58 318.48 274.58 319.17 386.35 457.84 789.61 457.84 790.13 456.95 386.5 456.95 274.58 318.48"/><polygon class="cls-53" points="274.58 318.48 274.58 319.03 386.34 457.3 789.93 457.3 790.13 456.95 386.5 456.95 274.58 318.48"/></g><polygon class="cls-54" points="386.5 380.79 274.58 297.71 103.85 297.71 103.85 318.48 274.58 318.48 386.5 456.95 790.13 456.95 834.1 380.79 386.5 380.79"/><g class="cls-21"><polygon class="cls-22" points="274.58 297.71 274.58 302.43 386.5 398.1 824.1 398.1 834.1 380.79 386.5 380.79 274.58 297.71"/><polygon class="cls-23" points="274.58 297.71 274.58 302.29 386.5 397.55 824.42 397.55 834.1 380.79 386.5 380.79 274.58 297.71"/><polygon class="cls-24" points="274.58 297.71 274.58 302.15 386.5 397 824.73 397 834.1 380.79 386.5 380.79 274.58 297.71"/><polygon class="cls-25" points="274.58 297.71 274.58 302.01 386.49 396.46 825.05 396.46 834.1 380.79 386.5 380.79 274.58 297.71"/><polygon class="cls-26" points="274.58 297.71 274.58 301.88 386.49 395.91 825.37 395.91 834.1 380.79 386.5 380.79 274.58 297.71"/><polygon class="cls-27" points="274.58 297.71 274.58 301.74 386.49 395.36 825.68 395.36 834.1 380.79 386.5 380.79 274.58 297.71"/><polygon class="cls-28" points="274.58 297.71 274.58 301.6 386.48 394.82 826 394.82 834.1 380.79 386.5 380.79 274.58 297.71"/><polygon class="cls-29" points="274.58 297.71 274.58 301.46 386.48 394.27 826.31 394.27 834.1 380.79 386.5 380.79 274.58 297.71"/><polygon class="cls-30" points="274.58 297.71 274.58 301.32 386.48 393.72 826.63 393.72 834.1 380.79 386.5 380.79 274.58 297.71"/><polygon class="cls-31" points="274.58 297.71 274.58 301.18 386.47 393.18 826.95 393.18 834.1 380.79 386.5 380.79 274.58 297.71"/><polygon class="cls-32" points="274.58 297.71 274.58 301.05 386.47 392.63 827.26 392.63 834.1 380.79 386.5 380.79 274.58 297.71"/><polygon class="cls-33" points="274.58 297.71 274.58 300.91 386.46 392.08 827.58 392.08 834.1 380.79 386.5 380.79 274.58 297.71"/><polygon class="cls-34" points="274.58 297.71 274.58 300.77 386.46 391.53 827.89 391.53 834.1 380.79 386.5 380.79 274.58 297.71"/><polygon class="cls-35" points="274.58 297.71 274.58 300.63 386.46 390.99 828.21 390.99 834.1 380.79 386.5 380.79 274.58 297.71"/><polygon class="cls-36" points="274.58 297.71 274.58 300.49 386.45 390.44 828.52 390.44 834.1 380.79 386.5 380.79 274.58 297.71"/><polygon class="cls-37" points="274.58 297.71 274.58 300.35 386.45 389.89 828.84 389.89 834.1 380.79 386.5 380.79 274.58 297.71"/><polygon class="cls-38" points="274.58 297.71 274.58 300.22 386.45 389.34 829.16 389.34 834.1 380.79 386.5 380.79 274.58 297.71"/><polygon class="cls-39" points="274.58 297.71 274.58 300.08 386.44 388.8 829.47 388.8 834.1 380.79 386.5 380.79 274.58 297.71"/><polygon class="cls-40" points="274.58 297.71 274.58 299.94 386.44 388.25 829.79 388.25 834.1 380.79 386.5 380.79 274.58 297.71"/><polygon class="cls-41" points="274.58 297.71 274.58 299.8 386.44 387.7 830.11 387.7 834.1 380.79 386.5 380.79 274.58 297.71"/><polygon class="cls-42" points="274.58 297.71 274.58 299.66 386.43 387.16 830.42 387.16 834.1 380.79 386.5 380.79 274.58 297.71"/><polygon class="cls-43" points="274.58 297.71 274.58 299.52 386.43 386.61 830.74 386.61 834.1 380.79 386.5 380.79 274.58 297.71"/><polygon class="cls-44" points="274.58 297.71 274.58 299.38 386.42 386.06 831.05 386.06 834.1 380.79 386.5 380.79 274.58 297.71"/><polygon class="cls-45" points="274.58 297.71 274.58 299.25 386.42 385.51 831.37 385.51 834.1 380.79 386.5 380.79 274.58 297.71"/><polygon class="cls-46" points="274.58 297.71 274.58 299.11 386.42 384.97 831.68 384.97 834.1 380.79 386.5 380.79 274.58 297.71"/><polygon class="cls-47" points="274.58 297.71 274.58 298.97 386.41 384.42 832 384.42 834.1 380.79 386.5 380.79 274.58 297.71"/><polygon class="cls-48" points="274.58 297.71 274.58 298.83 386.41 383.87 832.32 383.87 834.1 380.79 386.5 380.79 274.58 297.71"/><polygon class="cls-49" points="274.58 297.71 274.58 298.69 386.4 383.33 832.63 383.33 834.1 380.79 386.5 380.79 274.58 297.71"/><polygon class="cls-50" points="274.58 297.71 274.58 298.56 386.4 382.78 832.95 382.78 834.1 380.79 386.5 380.79 274.58 297.71"/><polygon class="cls-51" points="274.58 297.71 274.58 298.42 386.4 382.23 833.26 382.23 834.1 380.79 386.5 380.79 274.58 297.71"/><polygon class="cls-52" points="274.58 297.71 274.58 298.28 386.39 381.68 833.58 381.68 834.1 380.79 386.5 380.79 274.58 297.71"/><polygon class="cls-53" points="274.58 297.71 274.58 298.14 386.39 381.14 833.9 381.14 834.1 380.79 386.5 380.79 274.58 297.71"/></g><polygon class="cls-55" points="386.5 304.63 274.58 276.94 103.85 276.94 103.85 297.71 274.58 297.71 386.5 380.79 834.1 380.79 878.07 304.63 386.5 304.63"/><g class="cls-21"><polygon class="cls-22" points="274.58 276.94 274.58 281.66 386.5 321.94 868.07 321.94 878.07 304.63 386.5 304.63 274.58 276.94"/><polygon class="cls-23" points="274.58 276.94 274.58 281.52 386.5 321.39 868.39 321.39 878.07 304.63 386.5 304.63 274.58 276.94"/><polygon class="cls-24" points="274.58 276.94 274.58 281.38 386.5 320.85 868.7 320.85 878.07 304.63 386.5 304.63 274.58 276.94"/><polygon class="cls-25" points="274.58 276.94 274.58 281.24 386.5 320.3 869.02 320.3 878.07 304.63 386.5 304.63 274.58 276.94"/><polygon class="cls-26" points="274.58 276.94 274.58 281.1 386.5 319.75 869.34 319.75 878.07 304.63 386.5 304.63 274.58 276.94"/><polygon class="cls-27" points="274.58 276.94 274.58 280.95 386.5 319.2 869.65 319.2 878.07 304.63 386.5 304.63 274.58 276.94"/><polygon class="cls-28" points="274.58 276.94 274.58 280.81 386.5 318.66 869.97 318.66 878.07 304.63 386.5 304.63 274.58 276.94"/><polygon class="cls-29" points="274.58 276.94 274.58 280.67 386.5 318.11 870.28 318.11 878.07 304.63 386.5 304.63 274.58 276.94"/><polygon class="cls-30" points="274.58 276.94 274.58 280.53 386.49 317.56 870.6 317.56 878.07 304.63 386.5 304.63 274.58 276.94"/><polygon class="cls-31" points="274.58 276.94 274.58 280.39 386.49 317.02 870.92 317.02 878.07 304.63 386.5 304.63 274.58 276.94"/><polygon class="cls-32" points="274.58 276.94 274.58 280.25 386.49 316.47 871.23 316.47 878.07 304.63 386.5 304.63 274.58 276.94"/><polygon class="cls-33" points="274.58 276.94 274.58 280.11 386.49 315.92 871.55 315.92 878.07 304.63 386.5 304.63 274.58 276.94"/><polygon class="cls-34" points="274.58 276.94 274.58 279.97 386.49 315.38 871.86 315.38 878.07 304.63 386.5 304.63 274.58 276.94"/><polygon class="cls-35" points="274.58 276.94 274.58 279.83 386.49 314.83 872.18 314.83 878.07 304.63 386.5 304.63 274.58 276.94"/><polygon class="cls-36" points="274.58 276.94 274.58 279.69 386.49 314.28 872.5 314.28 878.07 304.63 386.5 304.63 274.58 276.94"/><polygon class="cls-37" points="274.58 276.94 274.58 279.55 386.48 313.73 872.81 313.73 878.07 304.63 386.5 304.63 274.58 276.94"/><polygon class="cls-38" points="274.58 276.94 274.58 279.41 386.48 313.19 873.13 313.19 878.07 304.63 386.5 304.63 274.58 276.94"/><polygon class="cls-39" points="274.58 276.94 274.58 279.27 386.48 312.64 873.44 312.64 878.07 304.63 386.5 304.63 274.58 276.94"/><polygon class="cls-40" points="274.58 276.94 274.58 279.13 386.48 312.09 873.76 312.09 878.07 304.63 386.5 304.63 274.58 276.94"/><polygon class="cls-41" points="274.58 276.94 274.58 278.99 386.48 311.55 874.08 311.55 878.07 304.63 386.5 304.63 274.58 276.94"/><polygon class="cls-42" points="274.58 276.94 274.58 278.84 386.48 311 874.39 311 878.07 304.63 386.5 304.63 274.58 276.94"/><polygon class="cls-43" points="274.58 276.94 274.58 278.7 386.48 310.45 874.71 310.45 878.07 304.63 386.5 304.63 274.58 276.94"/><polygon class="cls-44" points="274.58 276.94 274.58 278.56 386.48 309.9 875.02 309.9 878.07 304.63 386.5 304.63 274.58 276.94"/><polygon class="cls-45" points="274.58 276.94 274.58 278.42 386.47 309.36 875.34 309.36 878.07 304.63 386.5 304.63 274.58 276.94"/><polygon class="cls-46" points="274.58 276.94 274.58 278.28 386.47 308.81 875.65 308.81 878.07 304.63 386.5 304.63 274.58 276.94"/><polygon class="cls-47" points="274.58 276.94 274.58 278.14 386.47 308.26 875.97 308.26 878.07 304.63 386.5 304.63 274.58 276.94"/><polygon class="cls-48" points="274.58 276.94 274.58 278 386.47 307.71 876.29 307.71 878.07 304.63 386.5 304.63 274.58 276.94"/><polygon class="cls-49" points="274.58 276.94 274.58 277.86 386.47 307.17 876.6 307.17 878.07 304.63 386.5 304.63 274.58 276.94"/><polygon class="cls-50" points="274.58 276.94 274.58 277.72 386.47 306.62 876.92 306.62 878.07 304.63 386.5 304.63 274.58 276.94"/><polygon class="cls-51" points="274.58 276.94 274.58 277.58 386.46 306.07 877.23 306.07 878.07 304.63 386.5 304.63 274.58 276.94"/><polygon class="cls-52" points="274.58 276.94 274.58 277.44 386.46 305.53 877.55 305.53 878.07 304.63 386.5 304.63 274.58 276.94"/><polygon class="cls-53" points="274.58 276.94 274.58 277.3 386.46 304.98 877.87 304.98 878.07 304.63 386.5 304.63 274.58 276.94"/></g><polygon class="cls-56" points="878.07 228.47 386.5 228.47 274.58 256.17 103.85 256.17 103.85 276.94 274.58 276.94 386.5 304.63 878.07 304.63 900.05 266.55 878.07 228.47"/><g class="cls-21"><polygon class="cls-22" points="888.06 245.78 883.06 237.13 878.07 228.47 632.28 228.47 386.5 228.47 330.54 242.32 274.58 256.17 274.58 260.89 386.5 245.78 637.28 245.78 888.06 245.78"/><polygon class="cls-23" points="386.5 228.47 330.54 242.32 274.71 256.14 274.58 260.41 274.58 260.75 274.58 260.75 334.14 252.51 386.28 245.29 393.73 245.24 636.71 245.24 650.17 245.24 887.14 245.24 882.61 236.86 878.26 228.81 878.07 228.47 632.28 228.47 386.5 228.47"/><polygon class="cls-24" points="386.5 228.47 330.54 242.32 274.83 256.11 274.58 260.27 274.58 260.61 274.58 260.61 334.03 252.18 386.06 244.8 393.49 244.69 636.13 244.69 649.58 244.69 886.22 244.69 882.16 236.59 878.26 228.81 878.07 228.47 632.28 228.47 386.5 228.47"/><polygon class="cls-25" points="386.5 228.47 330.54 242.32 274.96 256.07 274.58 260.13 274.58 260.46 274.58 260.46 333.91 251.85 385.83 244.31 393.25 244.14 635.56 244.14 648.98 244.14 885.3 244.14 881.71 236.32 878.26 228.81 878.07 228.47 632.28 228.47 386.5 228.47"/><polygon class="cls-26" points="386.5 228.47 330.54 242.32 275.08 256.04 274.58 259.99 274.58 260.32 274.59 260.32 333.79 251.52 385.61 243.82 393.01 243.59 634.99 243.59 648.39 243.59 884.38 243.59 881.26 236.06 878.26 228.81 878.07 228.47 632.28 228.47 386.5 228.47"/><polygon class="cls-27" points="386.5 228.47 330.54 242.32 275.21 256.01 274.58 259.85 274.58 260.18 274.59 260.18 333.67 251.19 385.39 243.32 392.77 243.05 634.41 243.05 647.8 243.05 883.46 243.05 880.8 235.79 878.26 228.81 878.07 228.47 632.28 228.47 386.5 228.47"/><polygon class="cls-28" points="386.5 228.47 330.54 242.32 275.33 255.98 274.58 259.7 274.58 260.04 274.59 260.04 333.55 250.87 385.17 242.83 392.53 242.5 633.84 242.5 647.21 242.5 882.54 242.5 880.35 235.52 878.26 228.81 878.07 228.47 632.28 228.47 386.5 228.47"/><polygon class="cls-29" points="386.5 228.47 330.54 242.32 275.46 255.95 274.58 259.56 274.58 259.9 274.59 259.9 333.43 250.54 384.94 242.34 392.29 241.95 633.26 241.95 646.62 241.95 881.63 241.95 879.9 235.25 878.26 228.81 878.07 228.47 632.28 228.47 386.5 228.47"/><polygon class="cls-30" points="386.5 228.47 330.54 242.32 275.58 255.92 274.58 259.42 274.58 259.76 274.59 259.76 333.31 250.21 384.72 241.85 392.05 241.41 632.69 241.41 646.02 241.41 880.71 241.41 879.45 234.99 878.26 228.81 878.07 228.47 632.28 228.47 386.5 228.47"/><polygon class="cls-31" points="386.5 228.47 330.54 242.32 275.71 255.89 274.58 259.28 274.58 259.62 274.59 259.62 333.2 249.88 384.5 241.36 391.81 240.86 632.12 240.86 645.43 240.86 879.79 240.86 879 234.72 878.26 228.81 878.07 228.47 632.28 228.47 386.5 228.47"/><polygon class="cls-32" points="386.5 228.47 330.54 242.32 275.83 255.86 274.58 259.14 274.58 259.48 274.6 259.48 333.08 249.55 384.27 240.87 391.57 240.31 631.54 240.31 644.84 240.31 878.87 240.31 878.55 234.45 878.26 228.81 878.07 228.47 632.28 228.47 386.5 228.47"/><polygon class="cls-33" points="386.5 228.47 330.54 242.32 275.96 255.83 274.58 259 274.58 259.34 274.6 259.34 332.96 249.23 384.05 240.38 391.33 239.76 630.97 239.76 644.25 239.76 877.95 239.76 878.1 234.18 878.26 228.81 878.07 228.47 632.28 228.47 386.5 228.47"/><polygon class="cls-34" points="386.5 228.47 330.54 242.32 276.08 255.8 274.58 258.86 274.58 259.19 274.6 259.19 332.84 248.9 383.83 239.88 391.09 239.22 630.39 239.22 643.65 239.22 877.03 239.22 877.65 233.91 878.26 228.81 878.07 228.47 632.28 228.47 386.5 228.47"/><polygon class="cls-35" points="386.5 228.47 330.54 242.32 276.21 255.77 274.58 258.71 274.58 259.05 274.6 259.05 332.72 248.57 383.6 239.39 390.85 238.67 629.82 238.67 643.06 238.67 876.11 238.67 877.19 233.65 878.26 228.81 878.07 228.47 632.28 228.47 386.5 228.47"/><polygon class="cls-36" points="386.5 228.47 330.54 242.32 276.33 255.74 274.58 258.57 274.58 258.91 274.6 258.91 332.6 248.24 383.38 238.9 390.62 238.12 629.25 238.12 642.47 238.12 875.19 238.12 876.74 233.38 878.26 228.81 878.07 228.47 632.28 228.47 386.5 228.47"/><polygon class="cls-37" points="386.5 228.47 330.54 242.32 276.46 255.7 274.58 258.43 274.58 258.77 274.6 258.77 332.48 247.91 383.16 238.41 390.38 237.57 628.67 237.57 641.88 237.57 874.27 237.57 876.29 233.11 878.26 228.82 878.07 228.47 632.28 228.47 386.5 228.47"/><polygon class="cls-38" points="386.5 228.47 330.54 242.32 276.58 255.67 274.58 258.29 274.58 258.63 274.6 258.63 332.37 247.59 382.93 237.92 390.14 237.03 628.1 237.03 641.29 237.03 873.36 237.03 875.84 232.84 878.26 228.82 878.07 228.47 632.28 228.47 386.5 228.47"/><polygon class="cls-39" points="386.5 228.47 330.54 242.32 276.71 255.64 274.58 258.15 274.58 258.49 274.6 258.49 332.25 247.26 382.71 237.43 389.9 236.48 627.52 236.48 640.7 236.48 872.44 236.48 875.39 232.57 878.26 228.82 878.07 228.47 632.28 228.47 386.5 228.47"/><polygon class="cls-40" points="386.5 228.47 330.54 242.32 276.83 255.61 274.58 258.01 274.58 258.35 274.61 258.35 332.13 246.93 382.49 236.93 389.66 235.93 626.95 235.93 640.1 235.93 871.52 235.93 874.94 232.31 878.26 228.82 878.07 228.47 632.28 228.47 386.5 228.47"/><polygon class="cls-41" points="386.5 228.47 330.54 242.32 276.96 255.58 274.58 257.87 274.58 258.21 274.61 258.21 332.01 246.6 382.26 236.44 389.42 235.39 626.38 235.39 639.51 235.39 870.6 235.39 874.49 232.04 878.26 228.82 878.07 228.47 632.28 228.47 386.5 228.47"/><polygon class="cls-42" points="386.5 228.47 330.54 242.32 277.08 255.55 274.58 257.72 274.58 258.07 274.61 258.07 331.89 246.28 382.04 235.95 389.18 234.84 625.8 234.84 638.92 234.84 869.68 234.84 874.03 231.77 878.26 228.82 878.07 228.47 632.28 228.47 386.5 228.47"/><polygon class="cls-43" points="386.5 228.47 330.54 242.32 277.21 255.52 274.58 257.58 274.58 257.93 274.61 257.93 331.77 245.95 381.82 235.46 388.94 234.29 625.23 234.29 638.33 234.29 868.76 234.29 873.58 231.5 878.26 228.82 878.07 228.47 632.28 228.47 386.5 228.47"/><polygon class="cls-44" points="386.5 228.47 330.54 242.32 277.33 255.49 274.58 257.44 274.58 257.78 274.61 257.78 331.65 245.62 381.6 234.97 388.7 233.75 624.65 233.75 637.74 233.75 867.84 233.75 873.13 231.23 878.26 228.82 878.07 228.47 632.28 228.47 386.5 228.47"/><polygon class="cls-45" points="386.5 228.47 330.54 242.32 277.46 255.46 274.58 257.3 274.58 257.64 274.61 257.64 331.53 245.29 381.37 234.48 388.46 233.2 624.08 233.2 637.14 233.2 866.92 233.2 872.68 230.97 878.26 228.82 878.07 228.47 632.28 228.47 386.5 228.47"/><polygon class="cls-46" points="386.5 228.47 330.54 242.32 277.58 255.43 274.58 257.16 274.58 257.5 274.61 257.5 331.42 244.96 381.15 233.98 388.22 232.65 623.51 232.65 636.55 232.65 866 232.65 872.23 230.7 878.26 228.82 878.07 228.47 632.28 228.47 386.5 228.47"/><polygon class="cls-47" points="386.5 228.47 330.54 242.32 277.71 255.39 274.58 257.02 274.58 257.36 274.62 257.36 331.3 244.63 380.93 233.49 387.98 232.1 622.93 232.1 635.96 232.1 865.09 232.1 871.78 230.43 878.26 228.82 878.07 228.47 632.28 228.47 386.5 228.47"/><polygon class="cls-48" points="386.5 228.47 330.54 242.32 277.83 255.36 274.58 256.88 274.58 257.22 274.62 257.22 331.18 244.31 380.7 233 387.74 231.56 622.36 231.56 635.37 231.56 864.17 231.56 871.33 230.16 878.26 228.82 878.07 228.47 632.28 228.47 386.5 228.47"/><polygon class="cls-49" points="386.5 228.47 330.54 242.32 277.96 255.33 274.58 256.73 274.58 257.08 274.62 257.08 331.06 243.98 380.48 232.51 387.5 231.01 621.78 231.01 634.77 231.01 863.25 231.01 870.88 229.89 878.26 228.82 878.07 228.47 632.28 228.47 386.5 228.47"/><polygon class="cls-50" points="386.5 228.47 330.54 242.32 278.08 255.3 274.58 256.59 274.58 256.94 274.62 256.94 330.94 243.65 380.26 232.02 387.26 230.46 621.21 230.46 634.18 230.46 862.33 230.46 870.42 229.63 878.26 228.82 878.07 228.47 632.28 228.47 386.5 228.47"/><polygon class="cls-51" points="386.5 228.47 330.54 242.32 278.21 255.27 274.58 256.45 274.58 256.8 274.62 256.8 330.82 243.32 380.03 231.53 387.03 229.91 620.64 229.91 633.59 229.91 861.41 229.91 869.97 229.36 878.26 228.82 878.07 228.47 632.28 228.47 386.5 228.47"/><polygon class="cls-52" points="386.5 228.47 330.54 242.32 278.34 255.24 274.58 256.31 274.58 256.66 274.62 256.66 330.7 243 379.81 231.03 386.79 229.37 620.06 229.37 633 229.37 860.49 229.37 869.52 229.09 878.26 228.82 878.07 228.47 632.28 228.47 386.5 228.47"/><polygon class="cls-53" points="386.5 228.47 330.54 242.32 274.58 256.17 274.58 256.51 274.62 256.51 330.58 242.67 386.55 228.82 632.41 228.82 878.26 228.82 878.07 228.47 632.28 228.47 386.5 228.47"/></g><polygon class="cls-57" points="834.1 152.32 386.5 152.32 274.58 235.4 103.85 235.4 103.85 256.17 274.58 256.17 386.5 228.47 878.07 228.47 834.1 152.32"/><g class="cls-21"><polygon class="cls-22" points="844.09 169.63 834.1 152.32 610.3 152.32 386.5 152.32 330.54 193.86 274.58 235.4 274.58 240.12 330.54 204.87 386.5 169.63 615.3 169.63 844.09 169.63"/><polygon class="cls-23" points="386.5 152.32 330.54 193.86 274.69 235.32 274.58 239.65 274.58 239.98 274.64 239.94 330.39 204.64 335.66 201.31 386.2 169.31 398.53 169.08 614.64 169.08 630.59 169.08 843.16 169.08 834.29 152.65 834.1 152.32 610.3 152.32 386.5 152.32"/><polygon class="cls-24" points="386.5 152.32 330.54 193.86 274.79 235.24 274.58 239.51 274.58 239.84 274.65 239.8 330.24 204.41 335.49 201.07 385.89 168.99 398.13 168.53 613.99 168.53 629.92 168.53 842.24 168.53 834.29 152.65 834.1 152.32 610.3 152.32 386.5 152.32"/><polygon class="cls-25" points="386.5 152.32 330.54 193.86 274.9 235.16 274.58 239.36 274.58 239.69 274.65 239.66 330.09 204.19 335.32 200.84 385.58 168.68 397.74 167.98 613.34 167.98 629.25 167.98 841.32 167.98 834.29 152.65 834.1 152.32 610.3 152.32 386.5 152.32"/><polygon class="cls-26" points="386.5 152.32 330.54 193.86 275 235.09 274.58 239.22 274.58 239.55 274.65 239.52 329.93 203.96 335.16 200.6 385.27 168.36 397.34 167.44 612.69 167.44 628.58 167.44 840.39 167.44 834.29 152.65 834.1 152.32 610.3 152.32 386.5 152.32"/><polygon class="cls-27" points="386.5 152.32 330.54 193.86 275.11 235.01 274.58 239.08 274.58 239.41 274.65 239.38 329.78 203.73 334.99 200.36 384.97 168.04 396.94 166.89 612.03 166.89 627.91 166.89 839.47 166.89 834.29 152.65 834.1 152.32 610.3 152.32 386.5 152.32"/><polygon class="cls-28" points="386.5 152.32 330.54 193.86 275.21 234.93 274.58 238.94 274.58 239.27 274.65 239.24 329.63 203.5 334.82 200.13 384.66 167.73 396.54 166.34 611.38 166.34 627.24 166.34 838.55 166.34 834.29 152.65 834.1 152.32 610.3 152.32 386.5 152.32"/><polygon class="cls-29" points="386.5 152.32 330.54 193.86 275.32 234.85 274.58 238.8 274.58 239.13 274.65 239.1 329.48 203.27 334.66 199.89 384.35 167.41 396.15 165.79 610.73 165.79 626.57 165.79 837.63 165.79 834.29 152.65 834.1 152.32 610.3 152.32 386.5 152.32"/><polygon class="cls-30" points="386.5 152.32 330.54 193.86 275.42 234.77 274.58 238.66 274.58 238.99 274.66 238.96 329.32 203.04 334.49 199.65 384.05 167.09 395.75 165.25 610.08 165.25 625.9 165.25 836.7 165.25 834.29 152.65 834.1 152.32 610.3 152.32 386.5 152.32"/><polygon class="cls-31" points="386.5 152.32 330.54 193.86 275.53 234.69 274.58 238.51 274.58 238.85 274.66 238.82 329.17 202.82 334.32 199.41 383.74 166.78 395.35 164.7 609.42 164.7 625.22 164.7 835.78 164.7 834.29 152.65 834.1 152.32 610.3 152.32 386.5 152.32"/><polygon class="cls-32" points="386.5 152.32 330.54 193.86 275.63 234.62 274.58 238.37 274.58 238.71 274.66 238.68 329.02 202.59 334.16 199.18 383.43 166.46 394.96 164.15 608.77 164.15 624.55 164.15 834.86 164.15 834.29 152.65 834.1 152.32 610.3 152.32 386.5 152.32"/><polygon class="cls-33" points="386.5 152.32 330.54 193.86 275.74 234.54 274.58 238.23 274.58 238.57 274.66 238.54 328.87 202.36 333.99 198.94 383.12 166.15 394.56 163.61 608.12 163.61 623.88 163.61 833.93 163.61 834.29 152.65 834.1 152.32 610.3 152.32 386.5 152.32"/><polygon class="cls-34" points="386.5 152.32 330.54 193.86 275.85 234.46 274.58 238.09 274.58 238.43 274.66 238.4 328.71 202.13 333.82 198.7 382.82 165.83 394.16 163.06 607.46 163.06 623.21 163.06 833.01 163.06 834.29 152.65 834.1 152.32 610.3 152.32 386.5 152.32"/><polygon class="cls-35" points="386.5 152.32 330.54 193.86 275.95 234.38 274.58 237.95 274.58 238.28 274.67 238.26 328.56 201.9 333.66 198.47 382.51 165.51 393.76 162.51 606.81 162.51 622.54 162.51 832.09 162.51 834.29 152.65 834.1 152.32 610.3 152.32 386.5 152.32"/><polygon class="cls-36" points="386.5 152.32 330.54 193.86 276.06 234.3 274.58 237.81 274.58 238.14 274.67 238.12 328.41 201.68 333.49 198.23 382.2 165.2 393.37 161.96 606.16 161.96 621.87 161.96 831.16 161.96 834.29 152.65 834.1 152.32 610.3 152.32 386.5 152.32"/><polygon class="cls-37" points="386.5 152.32 330.54 193.86 276.16 234.22 274.58 237.66 274.58 238 274.67 237.98 328.26 201.45 333.32 197.99 381.89 164.88 392.97 161.42 605.51 161.42 621.2 161.42 830.24 161.42 834.29 152.65 834.1 152.32 610.3 152.32 386.5 152.32"/><polygon class="cls-38" points="386.5 152.32 330.54 193.86 276.27 234.15 274.58 237.52 274.58 237.86 274.67 237.84 328.11 201.22 333.16 197.76 381.59 164.56 392.57 160.87 604.85 160.87 620.53 160.87 829.31 160.87 834.29 152.65 834.1 152.32 610.3 152.32 386.5 152.32"/><polygon class="cls-39" points="386.5 152.32 330.54 193.86 276.37 234.07 274.58 237.38 274.58 237.72 274.67 237.7 327.95 200.99 332.99 197.52 381.28 164.25 392.18 160.32 604.2 160.32 619.86 160.32 828.39 160.32 834.29 152.66 834.1 152.32 610.3 152.32 386.5 152.32"/><polygon class="cls-40" points="386.5 152.32 330.54 193.86 276.48 233.99 274.58 237.24 274.58 237.58 274.67 237.56 327.8 200.76 332.82 197.28 380.97 163.93 391.78 159.78 603.55 159.78 619.18 159.78 827.47 159.78 834.29 152.66 834.1 152.32 610.3 152.32 386.5 152.32"/><polygon class="cls-41" points="386.5 152.32 330.54 193.86 276.58 233.91 274.58 237.1 274.58 237.44 274.68 237.42 327.65 200.53 332.66 197.05 380.67 163.62 391.38 159.23 602.89 159.23 618.51 159.23 826.54 159.23 834.29 152.66 834.1 152.32 610.3 152.32 386.5 152.32"/><polygon class="cls-42" points="386.5 152.32 330.54 193.86 276.69 233.83 274.58 236.96 274.58 237.3 274.68 237.28 327.5 200.31 332.49 196.81 380.36 163.3 390.99 158.68 602.24 158.68 617.84 158.68 825.62 158.68 834.29 152.66 834.1 152.32 610.3 152.32 386.5 152.32"/><polygon class="cls-43" points="386.5 152.32 330.54 193.86 276.79 233.76 274.58 236.81 274.58 237.16 274.68 237.14 327.34 200.08 332.32 196.57 380.05 162.98 390.59 158.13 601.59 158.13 617.17 158.13 824.7 158.13 834.29 152.66 834.1 152.32 610.3 152.32 386.5 152.32"/><polygon class="cls-44" points="386.5 152.32 330.54 193.86 276.9 233.68 274.58 236.67 274.58 237.01 274.68 237 327.19 199.85 332.16 196.34 379.74 162.67 390.19 157.59 600.94 157.59 616.5 157.59 823.77 157.59 834.29 152.66 834.1 152.32 610.3 152.32 386.5 152.32"/><polygon class="cls-45" points="386.5 152.32 330.54 193.86 277 233.6 274.58 236.53 274.58 236.87 274.68 236.86 327.04 199.62 331.99 196.1 379.44 162.35 389.8 157.04 600.28 157.04 615.83 157.04 822.85 157.04 834.29 152.66 834.1 152.32 610.3 152.32 386.5 152.32"/><polygon class="cls-46" points="386.5 152.32 330.54 193.86 277.11 233.52 274.58 236.39 274.58 236.73 274.68 236.72 326.89 199.39 331.82 195.86 379.13 162.03 389.4 156.49 599.63 156.49 615.16 156.49 821.93 156.49 834.29 152.66 834.1 152.32 610.3 152.32 386.5 152.32"/><polygon class="cls-47" points="386.5 152.32 330.54 193.86 277.21 233.44 274.58 236.25 274.58 236.59 274.69 236.58 326.74 199.16 331.66 195.62 378.82 161.72 389 155.94 598.98 155.94 614.49 155.94 821 155.94 834.29 152.66 834.1 152.32 610.3 152.32 386.5 152.32"/><polygon class="cls-48" points="386.5 152.32 330.54 193.86 277.32 233.37 274.58 236.11 274.58 236.45 274.69 236.44 326.58 198.94 331.49 195.39 378.51 161.4 388.6 155.4 598.33 155.4 613.81 155.4 820.08 155.4 834.29 152.66 834.1 152.32 610.3 152.32 386.5 152.32"/><polygon class="cls-49" points="386.5 152.32 330.54 193.86 277.43 233.29 274.58 235.96 274.58 236.31 274.69 236.3 326.43 198.71 331.32 195.15 378.21 161.09 388.21 154.85 597.67 154.85 613.14 154.85 819.16 154.85 834.29 152.66 834.1 152.32 610.3 152.32 386.5 152.32"/><polygon class="cls-50" points="386.5 152.32 330.54 193.86 277.53 233.21 274.58 235.82 274.58 236.17 274.69 236.16 326.28 198.48 331.16 194.91 377.9 160.77 387.81 154.3 597.02 154.3 612.47 154.3 818.23 154.3 834.29 152.66 834.1 152.32 610.3 152.32 386.5 152.32"/><polygon class="cls-51" points="386.5 152.32 330.54 193.86 277.63 233.13 274.58 235.68 274.58 236.03 274.69 236.02 326.13 198.25 330.99 194.68 377.59 160.45 387.41 153.76 596.37 153.76 611.8 153.76 817.31 153.76 834.29 152.66 834.1 152.32 610.3 152.32 386.5 152.32"/><polygon class="cls-52" points="386.5 152.32 330.54 193.86 277.74 233.05 274.58 235.54 274.58 235.88 274.69 235.88 325.97 198.02 330.82 194.44 377.28 160.14 387.02 153.21 595.72 153.21 611.13 153.21 816.39 153.21 834.29 152.66 834.1 152.32 610.3 152.32 386.5 152.32"/><polygon class="cls-53" points="386.5 152.32 330.54 193.86 274.58 235.4 274.58 235.74 274.7 235.74 330.66 194.2 386.62 152.66 610.46 152.66 834.3 152.66 834.1 152.32 610.3 152.32 386.5 152.32"/></g><polygon class="cls-58" points="790.13 76.16 386.5 76.16 274.58 214.63 103.85 214.63 103.85 235.4 274.58 235.4 386.5 152.32 834.1 152.32 790.13 76.16"/><g class="cls-21"><polygon class="cls-22" points="800.12 93.47 790.13 76.16 588.32 76.16 386.5 76.16 330.54 145.39 274.58 214.63 274.58 219.35 330.54 156.41 386.5 93.47 593.31 93.47 800.12 93.47"/><polygon class="cls-23" points="386.5 76.16 330.54 145.39 274.67 214.52 274.58 218.88 274.58 219.21 274.67 219.12 330.39 156.26 335.63 150.34 386.2 93.3 401.74 92.92 592.61 92.92 610.21 92.92 799.19 92.92 790.32 76.49 790.13 76.16 588.32 76.16 386.5 76.16"/><polygon class="cls-24" points="386.5 76.16 330.54 145.39 274.75 214.42 274.58 218.74 274.58 219.07 274.67 218.98 330.24 156.1 335.47 150.19 385.9 93.14 401.24 92.37 591.9 92.37 609.49 92.37 798.27 92.37 790.32 76.49 790.13 76.16 588.32 76.16 386.5 76.16"/><polygon class="cls-25" points="386.5 76.16 330.54 145.39 274.83 214.32 274.58 218.6 274.58 218.93 274.67 218.84 330.09 155.95 335.31 150.04 385.59 92.97 400.74 91.83 591.2 91.83 608.77 91.83 797.34 91.83 790.32 76.49 790.13 76.16 588.32 76.16 386.5 76.16"/><polygon class="cls-26" points="386.5 76.16 330.54 145.39 274.92 214.21 274.58 218.46 274.58 218.78 274.68 218.7 329.94 155.8 335.14 149.88 385.29 92.81 400.24 91.28 590.49 91.28 608.04 91.28 796.42 91.28 790.32 76.49 790.13 76.16 588.32 76.16 386.5 76.16"/><polygon class="cls-27" points="386.5 76.16 330.54 145.39 275 214.11 274.58 218.31 274.58 218.64 274.68 218.56 329.79 155.65 334.98 149.73 384.99 92.64 399.73 90.73 589.78 90.73 607.32 90.73 795.49 90.73 790.32 76.49 790.13 76.16 588.32 76.16 386.5 76.16"/><polygon class="cls-28" points="386.5 76.16 330.54 145.39 275.08 214.01 274.58 218.17 274.58 218.5 274.68 218.43 329.64 155.5 334.81 149.58 384.68 92.48 399.23 90.18 589.08 90.18 606.6 90.18 794.57 90.18 790.32 76.49 790.13 76.16 588.32 76.16 386.5 76.16"/><polygon class="cls-29" points="386.5 76.16 330.54 145.39 275.17 213.9 274.58 218.03 274.58 218.36 274.68 218.29 329.49 155.34 334.65 149.42 384.38 92.31 398.73 89.64 588.37 89.64 605.87 89.64 793.64 89.64 790.32 76.49 790.13 76.16 588.32 76.16 386.5 76.16"/><polygon class="cls-30" points="386.5 76.16 330.54 145.39 275.25 213.8 274.58 217.89 274.58 218.22 274.69 218.15 329.34 155.19 334.49 149.27 384.07 92.15 398.23 89.09 587.67 89.09 605.15 89.09 792.72 89.09 790.32 76.49 790.13 76.16 588.32 76.16 386.5 76.16"/><polygon class="cls-31" points="386.5 76.16 330.54 145.39 275.33 213.7 274.58 217.75 274.58 218.08 274.69 218.01 329.19 155.04 334.32 149.12 383.77 91.98 397.72 88.54 586.96 88.54 604.42 88.54 791.79 88.54 790.32 76.49 790.13 76.16 588.32 76.16 386.5 76.16"/><polygon class="cls-32" points="386.5 76.16 330.54 145.39 275.42 213.59 274.58 217.61 274.58 217.94 274.69 217.87 329.04 154.89 334.16 148.96 383.47 91.82 397.22 88 586.26 88 603.7 88 790.87 88 790.32 76.49 790.13 76.16 588.32 76.16 386.5 76.16"/><polygon class="cls-33" points="386.5 76.16 330.54 145.39 275.5 213.49 274.58 217.46 274.58 217.8 274.69 217.74 328.89 154.74 333.99 148.81 383.16 91.66 396.72 87.45 585.55 87.45 602.98 87.45 789.95 87.45 790.32 76.49 790.13 76.16 588.32 76.16 386.5 76.16"/><polygon class="cls-34" points="386.5 76.16 330.54 145.39 275.58 213.39 274.58 217.32 274.58 217.66 274.7 217.6 328.74 154.59 333.83 148.66 382.86 91.49 396.22 86.9 584.85 86.9 602.25 86.9 789.02 86.9 790.32 76.49 790.13 76.16 588.32 76.16 386.5 76.16"/><polygon class="cls-35" points="386.5 76.16 330.54 145.39 275.67 213.28 274.58 217.18 274.58 217.51 274.7 217.46 328.59 154.43 333.66 148.5 382.55 91.33 395.71 86.35 584.14 86.35 601.53 86.35 788.1 86.35 790.32 76.49 790.13 76.16 588.32 76.16 386.5 76.16"/><polygon class="cls-36" points="386.5 76.16 330.54 145.39 275.75 213.18 274.58 217.04 274.58 217.37 274.7 217.32 328.44 154.28 333.5 148.35 382.25 91.16 395.21 85.81 583.43 85.81 600.8 85.81 787.17 85.81 790.32 76.5 790.13 76.16 588.32 76.16 386.5 76.16"/><polygon class="cls-37" points="386.5 76.16 330.54 145.39 275.84 213.08 274.58 216.9 274.58 217.23 274.7 217.18 328.29 154.13 333.34 148.19 381.95 91 394.71 85.26 582.73 85.26 600.08 85.26 786.25 85.26 790.32 76.5 790.13 76.16 588.32 76.16 386.5 76.16"/><polygon class="cls-38" points="386.5 76.16 330.54 145.39 275.92 212.97 274.58 216.75 274.58 217.09 274.71 217.04 328.14 153.98 333.17 148.04 381.64 90.83 394.21 84.71 582.02 84.71 599.36 84.71 785.32 84.71 790.32 76.5 790.13 76.16 588.32 76.16 386.5 76.16"/><polygon class="cls-39" points="386.5 76.16 330.54 145.39 276 212.87 274.58 216.61 274.58 216.95 274.71 216.91 327.99 153.83 333.01 147.89 381.34 90.67 393.7 84.17 581.32 84.17 598.63 84.17 784.39 84.17 790.32 76.5 790.13 76.16 588.32 76.16 386.5 76.16"/><polygon class="cls-40" points="386.5 76.16 330.54 145.39 276.09 212.76 274.58 216.47 274.58 216.81 274.71 216.77 327.84 153.67 332.84 147.73 381.03 90.5 393.2 83.62 580.61 83.62 597.91 83.62 783.47 83.62 790.32 76.5 790.13 76.16 588.32 76.16 386.5 76.16"/><polygon class="cls-41" points="386.5 76.16 330.54 145.39 276.17 212.66 274.58 216.33 274.58 216.67 274.71 216.63 327.69 153.52 332.68 147.58 380.73 90.34 392.7 83.07 579.91 83.07 597.18 83.07 782.54 83.07 790.32 76.5 790.13 76.16 588.32 76.16 386.5 76.16"/><polygon class="cls-42" points="386.5 76.16 330.54 145.39 276.25 212.56 274.58 216.19 274.58 216.53 274.72 216.49 327.54 153.37 332.51 147.43 380.43 90.17 392.2 82.52 579.2 82.52 596.46 82.52 781.62 82.52 790.32 76.5 790.13 76.16 588.32 76.16 386.5 76.16"/><polygon class="cls-43" points="386.5 76.16 330.54 145.39 276.34 212.46 274.58 216.05 274.58 216.38 274.72 216.35 327.39 153.22 332.35 147.27 380.12 90.01 391.69 81.98 578.5 81.98 595.74 81.98 780.7 81.98 790.32 76.5 790.13 76.16 588.32 76.16 386.5 76.16"/><polygon class="cls-44" points="386.5 76.16 330.54 145.39 276.42 212.35 274.58 215.9 274.58 216.24 274.72 216.22 327.24 153.07 332.19 147.12 379.82 89.85 391.19 81.43 577.79 81.43 595.01 81.43 779.77 81.43 790.32 76.5 790.13 76.16 588.32 76.16 386.5 76.16"/><polygon class="cls-45" points="386.5 76.16 330.54 145.39 276.5 212.25 274.58 215.76 274.58 216.1 274.73 216.08 327.09 152.91 332.02 146.97 379.51 89.68 390.69 80.88 577.09 80.88 594.29 80.88 778.85 80.88 790.32 76.5 790.13 76.16 588.32 76.16 386.5 76.16"/><polygon class="cls-46" points="386.5 76.16 330.54 145.39 276.59 212.15 274.58 215.62 274.58 215.96 274.73 215.94 326.94 152.76 331.86 146.81 379.21 89.52 390.19 80.33 576.38 80.33 593.57 80.33 777.92 80.33 790.32 76.5 790.13 76.16 588.32 76.16 386.5 76.16"/><polygon class="cls-47" points="386.5 76.16 330.54 145.39 276.67 212.04 274.58 215.48 274.58 215.82 274.73 215.8 326.79 152.61 331.69 146.66 378.91 89.35 389.69 79.79 575.67 79.79 592.84 79.79 777 79.79 790.32 76.5 790.13 76.16 588.32 76.16 386.5 76.16"/><polygon class="cls-48" points="386.5 76.16 330.54 145.39 276.75 211.94 274.58 215.34 274.58 215.68 274.73 215.66 326.64 152.46 331.53 146.51 378.6 89.19 389.18 79.24 574.97 79.24 592.12 79.24 776.07 79.24 790.32 76.5 790.13 76.16 588.32 76.16 386.5 76.16"/><polygon class="cls-49" points="386.5 76.16 330.54 145.39 276.84 211.83 274.58 215.19 274.58 215.54 274.74 215.53 326.49 152.31 331.37 146.35 378.3 89.02 388.68 78.69 574.26 78.69 591.39 78.69 775.14 78.69 790.32 76.5 790.13 76.16 588.32 76.16 386.5 76.16"/><polygon class="cls-50" points="386.5 76.16 330.54 145.39 276.92 211.73 274.58 215.05 274.58 215.4 274.74 215.39 326.34 152.16 331.2 146.2 378 88.86 388.18 78.15 573.56 78.15 590.67 78.15 774.22 78.15 790.33 76.5 790.13 76.16 588.32 76.16 386.5 76.16"/><polygon class="cls-51" points="386.5 76.16 330.54 145.39 277.01 211.63 274.58 214.91 274.58 215.26 274.74 215.25 326.19 152 331.04 146.05 377.69 88.69 387.68 77.6 572.85 77.6 589.95 77.6 773.29 77.6 790.33 76.5 790.13 76.16 588.32 76.16 386.5 76.16"/><polygon class="cls-52" points="386.5 76.16 330.54 145.39 277.09 211.52 274.58 214.77 274.58 215.12 274.74 215.11 326.04 151.85 330.87 145.89 377.39 88.53 387.17 77.05 572.15 77.05 589.22 77.05 772.37 77.05 790.33 76.5 790.13 76.16 588.32 76.16 386.5 76.16"/><polygon class="cls-53" points="386.5 76.16 330.54 145.39 274.58 214.63 274.58 214.97 274.75 214.97 330.71 145.74 386.67 76.5 588.5 76.5 790.33 76.5 790.13 76.16 588.32 76.16 386.5 76.16"/></g><polygon class="cls-20" points="746.16 0 386.5 0 274.58 193.86 103.85 193.86 103.85 214.63 274.58 214.63 386.5 76.16 790.13 76.16 746.16 0"/><path class="cls-22" d="M436.92,266.53c0,3.66-.73,6.4-2.17,8.24q-2.73,3.5-9.41,3.49-6.9,0-9.68-3.41c-1.46-1.8-2.2-4.58-2.2-8.32s.74-6.5,2.2-8.3q2.76-3.39,9.68-3.39t9.5,3.4C436.23,260,436.92,262.77,436.92,266.53Zm-2.23,0q0-5.25-1.38-7.32-2-3-8-3t-8.16,3q-1.49,2.14-1.49,7.34t1.51,7.35c1.41,2,4.12,3,8.14,3s6.63-1,8-3.06C434.23,272.43,434.69,270,434.69,266.5Z"/><path class="cls-22" d="M462.69,271.45h-4.85v6.42H455.7v-6.42H442.32c-2.13,0-3.19-.44-3.19-1.31a2.07,2.07,0,0,1,.82-1.48l15.47-13.82h2.42v15.42h4.85Zm-7-1.19V256.77l-13.89,12.49a.72.72,0,0,0-.29.58c0,.28.46.42,1.39.42Z"/><path class="cls-22" d="M437.13,418.85q0,5.47-2.17,8.24-2.73,3.5-9.41,3.49-6.89,0-9.68-3.42-2.19-2.7-2.19-8.31c0-3.74.73-6.5,2.19-8.31q2.76-3.37,9.68-3.38t9.51,3.4Q437.13,413.2,437.13,418.85Zm-2.23,0q0-5.25-1.38-7.32c-1.35-2-4-3-8-3s-6.77,1-8.16,3c-1,1.43-1.48,3.88-1.48,7.33s.5,5.9,1.5,7.36c1.41,2,4.13,3.05,8.14,3.05s6.63-1,8-3.07Q434.9,424.05,434.9,418.81Z"/><path class="cls-22" d="M462.48,422.23q0,4-4,6.2a15.78,15.78,0,0,1-7.61,1.74,15.59,15.59,0,0,1-7.59-1.76q-4-2.16-4-6.18a6.07,6.07,0,0,1,.6-2.67l-.06,0,7.5-12.33h2.11l-5.07,8.36a15.61,15.61,0,0,1,6.48-1.26,15.77,15.77,0,0,1,7.6,1.74Q462.48,418.21,462.48,422.23Zm-2.07,0a5.72,5.72,0,0,0-3.2-5.23,12.76,12.76,0,0,0-6.32-1.47A12.53,12.53,0,0,0,444.6,417a5.89,5.89,0,0,0,0,10.46,14.3,14.3,0,0,0,12.63,0A5.74,5.74,0,0,0,460.41,422.26Z"/><path class="cls-22" d="M438.87,114.21q0,5.49-2.17,8.24-2.73,3.49-9.41,3.5-6.89,0-9.68-3.42-2.19-2.7-2.19-8.32t2.19-8.3q2.76-3.39,9.68-3.38t9.51,3.4Q438.87,108.57,438.87,114.21Zm-2.23,0q0-5.25-1.38-7.32c-1.35-2-4-3-8-3s-6.77,1-8.16,3c-1,1.44-1.48,3.88-1.48,7.34s.5,5.9,1.5,7.36c1.41,2,4.13,3,8.14,3s6.63-1,8-3.07Q436.64,119.42,436.64,114.18Z"/><path class="cls-22" d="M460.74,109.07a5.53,5.53,0,0,1-3.09,5,11.61,11.61,0,0,1-6,1.51h-.15a11.44,11.44,0,0,0-4.71.9,4.9,4.9,0,0,0-3,3.46v3c0,.79.64,1.25,1.93,1.38h14v1.29H446a6.55,6.55,0,0,1-2.73-.53,2.28,2.28,0,0,1-1.5-2.12v-2.12a5.51,5.51,0,0,1,2.7-4.75,11.12,11.12,0,0,1,5-1.71h.24A16,16,0,0,0,456,113a4.38,4.38,0,0,0,2.65-3.94A4.43,4.43,0,0,0,456,104.9a10.92,10.92,0,0,0-5.11-1.08q-6.94,0-7.83,5h-2a6.36,6.36,0,0,1,3.61-5,13.29,13.29,0,0,1,6.26-1.34,14,14,0,0,1,6.45,1.34A5.54,5.54,0,0,1,460.74,109.07Z"/><path class="cls-22" d="M438.89,190.37q0,5.49-2.16,8.24-2.75,3.49-9.41,3.5-6.9,0-9.68-3.42c-1.47-1.8-2.2-4.58-2.2-8.32s.73-6.5,2.2-8.3q2.75-3.39,9.68-3.39t9.5,3.4Q438.89,184.74,438.89,190.37Zm-2.23,0q0-5.25-1.37-7.32-2-3-8-3t-8.16,3c-1,1.44-1.49,3.88-1.49,7.34s.5,5.9,1.5,7.35q2.11,3.06,8.15,3.06c4,0,6.63-1,8-3.07Q436.66,195.58,436.66,190.34Z"/><path class="cls-22" d="M457.06,183.87c0-1.34-.85-2.37-2.54-3.08a13.57,13.57,0,0,0-5.3-.92,12.09,12.09,0,0,0-5.68,1.25L442,180.3a15.59,15.59,0,0,1,7.2-1.57A16.22,16.22,0,0,1,456,180c2.13,1,3.19,2.26,3.19,3.85,0,2.06-1.67,3.57-5,4.5a11.53,11.53,0,0,1,4.43,2.22,5.49,5.49,0,0,1,2.14,4.28q0,3.69-4.16,5.63a17.09,17.09,0,0,1-7.37,1.51,14.86,14.86,0,0,1-8.08-2.14l1.45-.84a12,12,0,0,0,6.63,1.78,13.82,13.82,0,0,0,6-1.24q3.3-1.59,3.3-4.73a4.91,4.91,0,0,0-2.65-4.35,11.83,11.83,0,0,0-5.16-1.55h-4.51v-1.12h4.46Q457.06,187.29,457.06,183.87Z"/><path class="cls-22" d="M438.58,342.69c0,3.66-.73,6.4-2.17,8.24q-2.73,3.49-9.41,3.49-6.9,0-9.68-3.41c-1.46-1.81-2.2-4.58-2.2-8.32s.74-6.5,2.2-8.3Q420.08,331,427,331t9.5,3.4Q438.59,337,438.58,342.69Zm-2.23,0q0-5.25-1.38-7.33-2-3-8-3c-4.05,0-6.77,1-8.16,3q-1.48,2.15-1.49,7.34c0,3.44.5,5.9,1.51,7.35q2.11,3,8.14,3.05c4,0,6.63-1,8-3.07Q436.35,347.89,436.35,342.66Z"/><path class="cls-22" d="M461,347.35c0,2.41-1.27,4.19-3.82,5.36a16.77,16.77,0,0,1-7,1.32h-1.63a16.15,16.15,0,0,1-7.8-1.63l1.44-1a11.26,11.26,0,0,0,6,1.35h1.62q8.92,0,8.93-5.38a4.53,4.53,0,0,0-2.89-4.29,12.63,12.63,0,0,0-5.46-1.05h-8.79V331.38h17v1.2H443.8v8.23h6.3a17.79,17.79,0,0,1,7,1.21C459.74,343.13,461,344.91,461,347.35Z"/><path class="cls-22" d="M445.11,38.06q0,5.47-2.17,8.24-2.73,3.5-9.41,3.49-6.9,0-9.68-3.42-2.19-2.7-2.19-8.31c0-3.74.73-6.5,2.19-8.31q2.76-3.37,9.68-3.38t9.51,3.4Q445.11,32.41,445.11,38.06Zm-2.23,0q0-5.25-1.38-7.32c-1.35-2-4-3-8-3s-6.77,1-8.16,3c-1,1.43-1.49,3.88-1.49,7.33s.51,5.9,1.51,7.36q2.12,3,8.14,3c4,0,6.63-1,8-3.07Q442.88,43.26,442.88,38Z"/><path class="cls-22" d="M454.5,49.39h-1.94V29l-5.24,1.88V29.43l7.18-2.68Z"/><path class="cls-22" d="M437,495q0,5.49-2.17,8.24-2.73,3.5-9.41,3.5-6.88,0-9.68-3.42-2.19-2.7-2.19-8.32t2.19-8.3q2.76-3.37,9.68-3.38t9.51,3.4Q437,489.36,437,495Zm-2.23,0q0-5.25-1.38-7.32c-1.35-2-4-3-8-3s-6.77,1-8.16,3c-1,1.44-1.48,3.88-1.48,7.34s.5,5.9,1.5,7.36c1.41,2,4.13,3.05,8.14,3.05s6.63-1,8-3.07Q434.75,500.21,434.75,495Z"/><path class="cls-22" d="M462.63,485.2a2.47,2.47,0,0,1-.51,1.22L449,506.34h-2.24l13.47-20.27a1.36,1.36,0,0,0,.24-.75c0-.28-.38-.42-1.13-.42h-20.1v-1.2h20.25C461.57,483.7,462.63,484.2,462.63,485.2Z"/><g class="cls-59"><rect class="cls-60" x="103.85" y="214.63" width="170.73" height="4.72"/></g><g class="cls-61"><rect class="cls-62" x="103.85" y="235.4" width="170.73" height="4.72"/></g><g class="cls-63"><rect class="cls-64" x="103.85" y="256.17" width="170.73" height="4.72"/></g><g class="cls-65"><rect class="cls-66" x="103.85" y="276.94" width="170.73" height="4.72"/></g><g class="cls-67"><rect class="cls-68" x="103.85" y="297.71" width="170.73" height="4.72"/></g><g class="cls-69"><rect class="cls-70" x="103.85" y="318.48" width="170.73" height="4.72"/></g><g class="cls-71"><polygon class="cls-72" points="274.58 193.86 274.58 339.25 386.5 533.11 386.5 0 274.58 193.86"/></g><circle class="cls-73" cx="103.85" cy="266.55" r="103.85"/><circle class="cls-74" cx="103.85" cy="266.55" r="77.89"/><g class="cls-75"><path class="cls-76" d="M79.81,193.15a22.29,22.29,0,1,0,22.29-22.29A22.29,22.29,0,0,0,79.81,193.15Z"/></g><polygon class="cls-77" points="98.6 227.05 98.69 227.05 98.69 208.05 92.46 195.7 92.38 195.8 98.6 208.1 98.6 227.05"/><polygon class="cls-77" points="107.05 227.05 106.95 227.05 106.95 208.05 113.19 195.7 113.26 195.8 107.05 208.1 107.05 227.05"/><g class="cls-78"><circle class="cls-79" cx="103.07" cy="195.24" r="25.66"/></g><path class="cls-22" d="M77.63,195.45a25.66,25.66,0,0,1,43.69-18.25A25.66,25.66,0,1,0,85,213.49,25.6,25.6,0,0,1,77.63,195.45Z"/><rect class="cls-80" x="92.38" y="218.57" width="21.38" height="20.5"/><rect class="cls-22" x="92.38" y="218.57" width="0.21" height="20.5"/><path class="cls-81" d="M114.83,227.39a1.6,1.6,0,0,1-1.6,1.6H92.92a1.61,1.61,0,0,1-1.61-1.6h0a1.61,1.61,0,0,1,1.61-1.61h20.31a1.61,1.61,0,0,1,1.6,1.61Z"/><path class="cls-82" d="M114.83,231.81a1.6,1.6,0,0,1-1.6,1.6H92.92a1.61,1.61,0,0,1-1.61-1.6h0a1.61,1.61,0,0,1,1.61-1.61h20.31a1.61,1.61,0,0,1,1.6,1.61Z"/><path class="cls-83" d="M114.83,223a1.6,1.6,0,0,1-1.6,1.6H92.92a1.61,1.61,0,0,1-1.61-1.6h0a1.6,1.6,0,0,1,1.61-1.6h20.31a1.6,1.6,0,0,1,1.6,1.6Z"/><path class="cls-84" d="M114.83,236.23a1.6,1.6,0,0,1-1.6,1.6H92.92a1.61,1.61,0,0,1-1.61-1.6h0a1.61,1.61,0,0,1,1.61-1.61h20.31a1.61,1.61,0,0,1,1.6,1.61Z"/><path class="cls-85" d="M97.73,244.41h10.69a5.34,5.34,0,0,0,5.34-5.34H92.38A5.34,5.34,0,0,0,97.73,244.41Z"/><path class="cls-22" d="M91.53,223.18a1.6,1.6,0,0,1,1.6-1.6h20.31a1.57,1.57,0,0,1,1,.37,1.58,1.58,0,0,0-1.23-.58H92.92a1.6,1.6,0,0,0-1.61,1.6,1.63,1.63,0,0,0,.58,1.24A1.61,1.61,0,0,1,91.53,223.18Z"/><path class="cls-22" d="M91.53,236.44a1.59,1.59,0,0,1,1.6-1.6h20.31a1.57,1.57,0,0,1,1,.36,1.61,1.61,0,0,0-1.23-.58H92.92a1.6,1.6,0,0,0-1,2.84A1.59,1.59,0,0,1,91.53,236.44Z"/><path class="cls-22" d="M91.53,227.6a1.6,1.6,0,0,1,1.6-1.6h20.31a1.57,1.57,0,0,1,1,.37,1.59,1.59,0,0,0-1.23-.59H92.92a1.6,1.6,0,0,0-1,2.84A1.57,1.57,0,0,1,91.53,227.6Z"/><path class="cls-22" d="M91.53,232a1.59,1.59,0,0,1,1.6-1.6h20.31a1.62,1.62,0,0,1,1,.36,1.61,1.61,0,0,0-1.23-.58H92.92a1.6,1.6,0,0,0-1,2.84A1.59,1.59,0,0,1,91.53,232Z"/><path class="cls-86" d="M93.88,196.75a3.73,3.73,0,0,0-.29.46.82.82,0,0,0-.1.34.24.24,0,0,0,.06.18.42.42,0,0,0,.22.05,1.74,1.74,0,0,0,.83-.36,10.77,10.77,0,0,0,1.3-1.08c.31-.29.62-.6.92-.93a3,3,0,0,1,.5-.51.11.11,0,0,1,.08,0,.09.09,0,0,1,0,.07c0,.08-.11.24-.33.49s-.55.6-1,1a10.31,10.31,0,0,1-1.43,1.18,2,2,0,0,1-1,.4.64.64,0,0,1-.72-.72c0-.5.57-1.49,1.71-3v0a2.49,2.49,0,0,0,.17-.21,1.15,1.15,0,0,1,.88-.57.88.88,0,0,1,.26,0,.11.11,0,0,1,.09.1.47.47,0,0,1,0,.16,1.37,1.37,0,0,1-.13.2Zm2.6-3.77a.36.36,0,0,1-.24-.09.32.32,0,0,1-.09-.24.55.55,0,0,1,.51-.51.32.32,0,0,1,.24.09.27.27,0,0,1,.09.21.52.52,0,0,1-.16.38A.46.46,0,0,1,96.48,193Z"/><path class="cls-86" d="M98.9,196.86a6.7,6.7,0,0,1-1.18.95,1.94,1.94,0,0,1-1,.32.82.82,0,0,1-.63-.24,1,1,0,0,1-.21-.67,2.25,2.25,0,0,1,.36-1.11,5.69,5.69,0,0,1,1-1.25,5,5,0,0,1,1.37-1,3.37,3.37,0,0,1,1.39-.34,1,1,0,0,1,.6.17.6.6,0,0,1,.21.48l3.22-4.27a1.29,1.29,0,0,1,.28-.29.5.5,0,0,1,.27-.07h.4a.17.17,0,0,1,.12,0,.11.11,0,0,1,0,.09.58.58,0,0,1-.17.33h0l-5.11,6.65a3.7,3.7,0,0,0-.34.5.76.76,0,0,0-.11.32.25.25,0,0,0,.07.21.27.27,0,0,0,.2.06,1.8,1.8,0,0,0,.93-.42,11.09,11.09,0,0,0,1.45-1.25c.25-.24.49-.5.74-.78a2.36,2.36,0,0,1,.43-.43.1.1,0,0,1,.08,0,.14.14,0,0,1,0,.07,1.08,1.08,0,0,1-.3.47c-.2.23-.53.57-1,1a10,10,0,0,1-1.44,1.22,2,2,0,0,1-1,.38.85.85,0,0,1-.61-.21.81.81,0,0,1-.22-.59s0-.1,0-.16S98.87,197,98.9,196.86Zm-1.85.9a1.56,1.56,0,0,0,.84-.38,9.61,9.61,0,0,0,1.24-1.13,12.29,12.29,0,0,0,1.12-1.31,1.5,1.5,0,0,0,.33-.76.29.29,0,0,0-.13-.25.53.53,0,0,0-.34-.1,1.51,1.51,0,0,0-.78.32,7.87,7.87,0,0,0-1.13.95,10.13,10.13,0,0,0-1.15,1.33,1.78,1.78,0,0,0-.41.92.41.41,0,0,0,.1.31A.4.4,0,0,0,97.05,197.76Z"/><path class="cls-86" d="M103.25,196.45a2,2,0,0,0-.17.43,1.92,1.92,0,0,0,0,.41.54.54,0,0,0,.15.4.57.57,0,0,0,.42.15,2.7,2.7,0,0,0,1.26-.47,11.22,11.22,0,0,0,1.71-1.38,10,10,0,0,0,.7-.73c.25-.28.41-.42.49-.42l0,0a.13.13,0,0,1,0,.08,1.42,1.42,0,0,1-.3.43c-.2.23-.46.5-.79.83a10.43,10.43,0,0,1-1.82,1.43,3,3,0,0,1-1.43.5,1,1,0,0,1-.83-.36,1.41,1.41,0,0,1-.31-1,2.44,2.44,0,0,1,.44-1.32,4.67,4.67,0,0,1,1.2-1.24,4.53,4.53,0,0,1,.94-.54,2.39,2.39,0,0,1,.83-.19.61.61,0,0,1,.42.14.45.45,0,0,1,.15.37,1.8,1.8,0,0,1-.84,1.3A7,7,0,0,1,103.25,196.45Zm.11-.34a6.19,6.19,0,0,0,1.91-1c.49-.39.74-.75.74-1.09a.23.23,0,0,0-.09-.18.32.32,0,0,0-.21-.08c-.21,0-.54.22-1,.65A9.65,9.65,0,0,0,103.36,196.11Z"/><path class="cls-86" d="M109.51,196.74a6.83,6.83,0,0,1-1.21,1,1.92,1.92,0,0,1-1,.35.85.85,0,0,1-.67-.27,1.08,1.08,0,0,1-.24-.74,2.44,2.44,0,0,1,.39-1.22,4.9,4.9,0,0,1,1.06-1.25,5,5,0,0,1,1.36-.82,3.58,3.58,0,0,1,1.38-.3.84.84,0,0,1,.53.15.5.5,0,0,1,.21.39,1.71,1.71,0,0,1,.4-.43.89.89,0,0,1,.42-.08.76.76,0,0,1,.25,0,.14.14,0,0,1,.08.11.34.34,0,0,1,0,.16.69.69,0,0,1-.13.2l-2,2.65a3.73,3.73,0,0,0-.29.46.82.82,0,0,0-.1.36.21.21,0,0,0,.06.17.34.34,0,0,0,.22,0,1.86,1.86,0,0,0,.91-.42,12.78,12.78,0,0,0,1.44-1.25c.24-.23.48-.49.72-.77s.39-.42.44-.42a.09.09,0,0,1,.07,0,.14.14,0,0,1,0,.07c0,.09-.14.29-.41.6a13.9,13.9,0,0,1-1.09,1.09,8.91,8.91,0,0,1-1.39,1.1,2.08,2.08,0,0,1-1,.34.73.73,0,0,1-.47-.14.51.51,0,0,1-.16-.4,1.33,1.33,0,0,1,.07-.45A1.62,1.62,0,0,1,109.51,196.74Zm-2.05,1.12a1.52,1.52,0,0,0,.79-.34,5.51,5.51,0,0,0,1-.91,20.1,20.1,0,0,0,1.35-1.59,2,2,0,0,0,.48-.86.32.32,0,0,0-.12-.27.53.53,0,0,0-.34-.09,1.84,1.84,0,0,0-.94.32,5.74,5.74,0,0,0-1.12.91,8.83,8.83,0,0,0-1.13,1.38,2.14,2.14,0,0,0-.39,1,.4.4,0,0,0,.1.3A.35.35,0,0,0,107.46,197.86Z"/><polygon class="cls-87" points="87.86 258.69 87.86 258.69 87.86 258.69 87.86 258.69"/><polygon class="cls-88" points="69.24 258.99 82.62 272.39 89 266 75.61 252.62 69.24 258.99"/><rect class="cls-22" x="81.99" y="250.77" width="2.15" height="15.55" transform="translate(-158.59 134.66) rotate(-45.05)"/><rect class="cls-89" x="85.02" y="258.08" width="2.15" height="7" transform="translate(-159.92 137.83) rotate(-45.08)"/><path class="cls-90" d="M118.64,245.8l-6.31,6.29H98a2.34,2.34,0,0,1,2.34-2.35H108a2.35,2.35,0,0,0,0-4.7H88.43l-8.68,8.68,2.94,2.94L86,260l3.31-3.3h21.78L122,245.8A2.35,2.35,0,0,0,118.64,245.8Z"/><path class="cls-91" d="M122,245.8l-10.86,10.86H89.31L86,260l1.68,1.67,2-2h21.77l3-2.95,7.53-7.54A2.34,2.34,0,0,0,122,245.8Z"/><polygon class="cls-92" points="88.45 266.55 82.3 260.42 76.48 266.24 82.62 272.39 88.45 266.55"/><circle class="cls-22" cx="81.02" cy="264.95" r="1.3"/><path class="cls-22" d="M109.77,247.39a1.74,1.74,0,0,0-1.73-1.73H106v3.46H108a1.74,1.74,0,0,0,1.73-1.73Z"/><rect class="cls-54" x="129.99" y="315.71" width="12.68" height="5.73"/><rect class="cls-55" x="117.31" y="315.71" width="12.68" height="5.73"/><rect class="cls-56" x="104.63" y="315.71" width="12.68" height="5.73"/><rect class="cls-57" x="91.95" y="315.71" width="12.68" height="5.73"/><rect class="cls-58" x="79.27" y="315.71" width="12.68" height="5.73"/><rect class="cls-20" x="66.59" y="315.71" width="12.68" height="5.73"/></g></g></g></svg>