<svg xmlns="http://www.w3.org/2000/svg" viewBox="0 0 124.98 34.12"><defs><style>.cls-1{fill:#4f3708;}.cls-2{fill:#ccc;}.cls-3{fill:#fff;}.cls-4{fill:#83604a;}.cls-5{fill:#d48f5f;}.cls-6{fill:#e5b492;}.cls-7{fill:#e5b592;}</style></defs><title>slide3_personajeOjos1</title><g id="Capa_2" data-name="Capa 2"><g id="PERSONAJE"><g id="Layer0_0_FILL" data-name="Layer0 0 FILL"><path class="cls-1" d="M32.14,10.58c-.36-.31-.72-.59-1.09-.87a17.94,17.94,0,0,0-6.49-.77,1.92,1.92,0,0,0-.59,0,24.51,24.51,0,0,0-6,.87,11.76,11.76,0,0,0-1.68.63,1.6,1.6,0,0,0-.59.5,10.08,10.08,0,0,0-3.27,7.76A10.31,10.31,0,0,0,16,26.42a11.91,11.91,0,0,0,16.48-.36,9.94,9.94,0,0,0,3.27-7.72,10.6,10.6,0,0,0-3.59-7.76m-7.85,3a4.74,4.74,0,0,1,1.31.09A4.4,4.4,0,0,1,28,14.89a4.58,4.58,0,0,1,1.54,3.45,4.61,4.61,0,0,1-.72,2.72,3.66,3.66,0,0,1-.64.73,5.42,5.42,0,0,1-3.72,1.54,4.72,4.72,0,0,1-3.59-1.4,4.66,4.66,0,0,1-1.59-3.45A4.47,4.47,0,0,1,20.75,15a4.88,4.88,0,0,1,3.54-1.41m83.4-4.72A6.1,6.1,0,0,0,106,8.35a23.75,23.75,0,0,0-6-.72,4.83,4.83,0,0,0-.59,0,20.8,20.8,0,0,0-6.45.95c-.39.31-.77.63-1.13,1a10.65,10.65,0,0,0-3.32,7.9,9.85,9.85,0,0,0,3.59,7.62,11.1,11.1,0,0,0,8.26,3.14,11.38,11.38,0,0,0,8.17-3.41,10,10,0,0,0,3.23-7.76,10,10,0,0,0-3.54-7.72,1.56,1.56,0,0,0-.5-.45m-9.22,3.63a4.64,4.64,0,0,1,1.27-.18,5,5,0,0,1,3.63,1.31,4.46,4.46,0,0,1,1.55,3.41,4.55,4.55,0,0,1-1.37,3.45,5.07,5.07,0,0,1-3.63,1.54A5.42,5.42,0,0,1,96.2,20.7a5.81,5.81,0,0,1-.64-.77,4.57,4.57,0,0,1-.9-2.68,4.49,4.49,0,0,1,1.45-3.45A4.46,4.46,0,0,1,98.47,12.53Z"/><path class="cls-2" d="M25.6,13.71a5.18,5.18,0,0,0-.86,1.91,2.21,2.21,0,0,0,.18.81A8.05,8.05,0,0,0,25.65,18a.74.74,0,0,0,.36.32c.21.15.35.2.41.14a.29.29,0,0,0,.27-.37,1.44,1.44,0,0,0,.23-.63,4,4,0,0,0,.77,1.59,15.17,15.17,0,0,0,1.14,2,4.61,4.61,0,0,0,.72-2.72A4.58,4.58,0,0,0,28,14.89a4.4,4.4,0,0,0-2.41-1.18m73.82.68a5.28,5.28,0,0,0-1-1.86,4.46,4.46,0,0,0-2.36,1.27,4.49,4.49,0,0,0-1.45,3.45,4.57,4.57,0,0,0,.9,2.68,9.78,9.78,0,0,0,1-2,3.17,3.17,0,0,0,.72-1.63,2.57,2.57,0,0,0,.28.72c0,.19.07.28.31.28.06,0,.2,0,.41-.09a.59.59,0,0,0,.28-.37,7.81,7.81,0,0,0,.72-1.59A6.35,6.35,0,0,0,99.42,14.39Z"/><path d="M25.6,13.71a4.74,4.74,0,0,0-1.31-.09A4.88,4.88,0,0,0,20.75,15a4.47,4.47,0,0,0-1.46,3.45,4.66,4.66,0,0,0,1.59,3.45,4.72,4.72,0,0,0,3.59,1.4,5.42,5.42,0,0,0,3.72-1.54,3.66,3.66,0,0,0,.64-.73,15.17,15.17,0,0,1-1.14-2,4,4,0,0,1-.77-1.59,1.44,1.44,0,0,1-.23.63.29.29,0,0,1-.27.37c-.06.06-.2,0-.41-.14a.74.74,0,0,1-.36-.32,8.05,8.05,0,0,1-.73-1.59,2.21,2.21,0,0,1-.18-.81,5.18,5.18,0,0,1,.86-1.91m74.14-1.36a4.64,4.64,0,0,0-1.27.18,5.28,5.28,0,0,1,1,1.86,6.35,6.35,0,0,1-.18.86,7.81,7.81,0,0,1-.72,1.59.59.59,0,0,1-.28.37c-.21.09-.35.12-.41.09-.24,0-.34-.09-.31-.28a2.57,2.57,0,0,1-.28-.72,3.17,3.17,0,0,1-.72,1.63,9.78,9.78,0,0,1-1,2,5.81,5.81,0,0,0,.64.77,5.42,5.42,0,0,0,3.72,1.36,5.07,5.07,0,0,0,3.63-1.54,4.55,4.55,0,0,0,1.37-3.45,4.46,4.46,0,0,0-1.55-3.41A5,5,0,0,0,99.74,12.35Z"/><path class="cls-3" d="M31.05,9.71c.37.28.73.56,1.09.87a10.6,10.6,0,0,1,3.59,7.76,9.94,9.94,0,0,1-3.27,7.72A11.91,11.91,0,0,1,16,26.42a10.31,10.31,0,0,1-3.54-7.72,10.08,10.08,0,0,1,3.27-7.76,1.6,1.6,0,0,1,.59-.5Q7.07,13.89,3.49,25.51a1.31,1.31,0,0,0-.09.28,4.51,4.51,0,0,0-.27.54,54,54,0,0,0,21.11,3.31,50.53,50.53,0,0,0,19-4.9q-2.67-12.34-12.21-15m89.94,14c0-.12,0-.19,0-.22q-4-11.44-13.3-14.62a1.56,1.56,0,0,1,.5.45,10,10,0,0,1,3.54,7.72,10,10,0,0,1-3.23,7.76,11.38,11.38,0,0,1-8.17,3.41,11.1,11.1,0,0,1-8.26-3.14,9.85,9.85,0,0,1-3.59-7.62,10.65,10.65,0,0,1,3.32-7.9c.36-.33.74-.65,1.13-1q-9.48,3-11.67,15.49a49.5,49.5,0,0,0,19.07,4.17,52,52,0,0,0,21-4A1.62,1.62,0,0,0,121,23.74Z"/><path class="cls-4" d="M43.26,24.74q-.54-10.12-5.72-14.39a15.63,15.63,0,0,0-4.08-2.18c-.61-.21-1.18-.42-1.73-.63q-8.07-2.24-14.3.22-12,3.32-13.94,17.75Q7.09,13.9,16.3,10.44A11.76,11.76,0,0,1,18,9.81a24.51,24.51,0,0,1,6-.87,1.92,1.92,0,0,1,.59,0,17.94,17.94,0,0,1,6.49.77q9.54,2.68,12.21,15M106,8.35a6.1,6.1,0,0,1,1.73.55Q117,12.08,121,23.52,118.53,9.16,106.46,6.26,100.15,4,92.2,6.49c-.6.27-1.22.53-1.86.77a14,14,0,0,0-4,2.27q-5.08,4.55-5.13,14.58Q83.45,11.66,92.93,8.62a20.8,20.8,0,0,1,6.45-.95,4.83,4.83,0,0,1,.59,0A23.75,23.75,0,0,1,106,8.35Z"/><path class="cls-5" d="M40.45,30a8.63,8.63,0,0,0,3.13-5.27,50.53,50.53,0,0,1-19,4.9A54,54,0,0,1,3.45,26.33l0,3.72a47.8,47.8,0,0,0,32.86,2.09A12.83,12.83,0,0,0,40.45,30m81-2,0-3.68a51.93,51.93,0,0,1-21,4A49.5,49.5,0,0,1,81.4,24.11a8.54,8.54,0,0,0,3.27,5.26,12.65,12.65,0,0,0,4.09,1.95A47.83,47.83,0,0,0,121.49,28Z"/><path class="cls-6" d="M37.82,10.35l2.59-3.22Q33.69,1.31,22.75,1.36,7.63.82,0,26.78l3.45,3.27L3.4,26.33c.1-.21.19-.39.28-.54a1.31,1.31,0,0,1,.09-.28q2-14.43,13.94-17.75Q23.92,5.32,32,7.54c.54.21,1.12.42,1.72.63a15.69,15.69,0,0,1,4.09,2.18m83.35,13.17s0,.1,0,.22a1.62,1.62,0,0,1,.32.59l0,3.68,3.45-3.4Q116.45-1,101.29,0,90.34.41,83.85,6.4l2.73,3.13a13.83,13.83,0,0,1,4-2.27c.63-.24,1.25-.5,1.86-.77q7.94-2.49,14.25-.23Q118.72,9.17,121.17,23.52Z"/><path class="cls-7" d="M40.54,7.44a2.1,2.1,0,0,1-.41-.31l-2.59,3.22q5.18,4.28,5.72,14.39A8.63,8.63,0,0,1,40.13,30L46,26.65Q45.54,14.4,41.9,8.94c-.42-.51-.88-1-1.36-1.5m43.13-1-.36.36c-.49.49-.94,1-1.37,1.5q-3.36,5.63-3.35,17.89l5.94,3.22a8.63,8.63,0,0,1-3.27-5.26q0-10,5.13-14.58Z"/></g></g></g></svg>