
<svg xmlns="http://www.w3.org/2000/svg" version="1.1" xmlns:xlink="http://www.w3.org/1999/xlink" preserveAspectRatio="none" x="0px" y="0px" width="960px" height="640px" viewBox="0 0 960 640">
<defs>
<g id="Layer0_0_FILL">
<path fill="#999999" stroke="none" d="
M 545.65 586.6
Q 546.9763671875 590.1740234375 551.9 592.05 570.326171875 596.392578125 584.35 583
L 611.25 547.7 610.3 537.05
Q 594.7193359375 557.8755859375 572.75 541.45
L 551.9 569.1
Q 543.36640625 580.4017578125 545.65 586.6 Z"/>

<path fill="#3F3931" stroke="none" d="
M 545.65 586.6
Q 543.5029296875 589.0716796875 544.8 592.5 546.9763671875 597.7490234375 556.35 597.6 577.9396484375 596.7794921875 586.55 587.6 595.8447265625 579.1994140625 600 566.45 607.7271484375 568.1439453125 611.25 563.15
L 611.25 547.7 584.35 583
Q 570.326171875 596.392578125 551.9 592.05 546.9763671875 590.1740234375 545.65 586.6
M 558.3 519.7
L 531.6 532.95
Q 527.3908203125 535.613671875 523.4 537.25
L 523.4 537.3
Q 510.244921875 541.93046875 504.6 539 504.1318359375 547.611328125 523.4 542.25 528.4099609375 541.0181640625 534.7 538.9 545.8759765625 531.12578125 561.15 527.45
L 561.15 530.95 573.25 530.95
Q 576.04921875 523.3486328125 577.75 515.1
L 558.3 519.7 Z"/>

<path fill="#979797" stroke="none" d="
M 531.6 532.95
L 558.3 519.7 577.75 515.1
Q 578.905078125 509.51796875 579.55 503.65 560.640625 515.9130859375 539.1 506.25
L 539.6 498.15
Q 530.555078125 500.5712890625 523.4 504
L 523.4 504.05
Q 504.5197265625 513.3505859375 500.7 527.2 499.4474609375 536.3279296875 504.6 539 510.244921875 541.93046875 523.4 537.3
L 523.4 537.25
Q 527.3908203125 535.613671875 531.6 532.95 Z"/>

<path fill="#67656D" stroke="none" d="
M 622.1 479.3
Q 623.6494140625 468.883984375 624.2 456.45
L 569.95 432.4
Q 572.74375 439.8720703125 575.8 447.4 582.394921875 478.20390625 579.55 503.65 578.905078125 509.51796875 577.75 515.1 576.04921875 523.3486328125 573.25 530.95 571.7150390625 535.1533203125 569.85 539.15 571.308203125 540.3775390625 572.75 541.45 594.7193359375 557.8755859375 610.3 537.05 611.4275390625 535.6083984375 612.5 533.95
L 622.1 479.3
M 548.3 318
Q 545.8060546875 316.847265625 544 315.4 546.1923828125 348.7197265625 554.7 383.1
L 569.5 350.7 598 363.8 601.85 365.05
Q 603.461328125 358.9611328125 612.35 353.45
L 617.65 348 623.15 283.5
Q 614.41953125 318.9150390625 559.35 321.15 552.7369140625 320.0328125 548.3 318 Z"/>

<path fill="#FAD8C4" stroke="none" d="
M 636.5 385.9
Q 637.3396484375 384.4337890625 637.85 382.4 640.0244140625 374.246484375 637.35 356.95 622.991015625 361.64375 612.35 353.45 603.461328125 358.9611328125 601.85 365.05
L 610.55 369.55
Q 614.577734375 381.2078125 610.05 398.9 612.237109375 401.76484375 617.35 399.15
L 636.5 385.9
M 542.5 70.25
Q 540.2603515625 77.5224609375 542.5 84.6
L 533.75 95.3
Q 531.20234375 98.6142578125 538.05 100.95
L 538.05 115.2
Q 538.4990234375 116.747265625 539.75 117.9 542.5609375 120.6072265625 549.45 121.4 552.3638671875 121.7466796875 556 121.75 557.3138671875 121.9505859375 558.55 122.05 576.7572265625 123.946484375 578.8 109.95 584.5091796875 114.1083984375 592.1 107.15 593.3927734375 96.079296875 582.15 101.25 570.5234375 108.879296875 572.2 98 561.079296875 92.723828125 564.35 83.85 561.641015625 71.959375 542.5 70.25 Z"/>

<path fill="#FCFCFC" stroke="none" d="
M 636.2 350.7
Q 634.0068359375 351.1240234375 632 351.3 622.84609375 352.1228515625 617.65 348
L 612.35 353.45
Q 622.991015625 361.64375 637.35 356.95
L 638.55 350.2
Q 637.3453125 350.490234375 636.2 350.7 Z"/>

<path fill="#242424" stroke="none" d="
M 632 351.3
Q 634.0068359375 351.1240234375 636.2 350.7
L 636.2 327.2 632 351.3
M 593.9 175.95
Q 588.09140625 183.987890625 582.75 192.95
L 597.1 201.15
Q 602.9712890625 206.1193359375 597.1 212.85 584.6 216.9845703125 572.1 212.8 558.2353515625 241.4892578125 548.4 277.85 547.9755859375 281.080078125 547.1 284.3 545.8439453125 289.15234375 543.6 294 542.43046875 296.52578125 541 299.05 536.766796875 309.59609375 544 315.4 545.8060546875 316.847265625 548.3 318 552.7369140625 320.0328125 559.35 321.15 614.41953125 318.9150390625 623.15 283.5
L 615.75 241.5
Q 603.3119140625 198.8564453125 617.35 169.15 622.7052734375 157.7677734375 636.25 155.2
L 615.85 135.25 608.5 148.6 608.5 159.8 586.1 162.2 593.9 175.95
M 549.45 121.4
Q 542.5609375 120.6072265625 539.75 117.9 532.0138671875 134.923828125 528.15 152.3 526.8958984375 157.9052734375 526.05 163.55 523.1185546875 178.7234375 523.15 193 523.1919921875 206.976953125 526.05 220.1
L 511.15 282.85
Q 509.7513671875 289.103125 511.6 294 513.6275390625 299.327734375 519.5 303.05 533.980859375 308.2841796875 537.75 294 539.048828125 289.150390625 539.1 282.05 535.1013671875 275.13671875 533.8 267.35
L 537.95 208.55
Q 538.1693359375 205.8828125 538.55 203.25 537.6451171875 186.32109375 533.25 166.6
L 542.3 154.85
Q 538.65234375 153.73984375 536.45 152.3 530.5130859375 148.4365234375 534.95 142.2
L 549.45 121.4 Z"/>

<path fill="#FFFFFF" stroke="none" d="
M 598 363.8
L 569.5 350.7 554.7 383.1 538.55 418.45 569.95 432.4 624.2 456.45 642.2 464.45 670.75 397.2 637.85 382.4
Q 637.3396484375 384.4337890625 636.5 385.9
L 617.35 399.15
Q 612.237109375 401.76484375 610.05 398.9 614.577734375 381.2078125 610.55 369.55
L 601.85 365.05 598 363.8 Z"/>

<path fill="#4B4447" stroke="none" d="
M 542.85 287.6
Q 540.745703125 284.899609375 539.1 282.05 539.048828125 289.150390625 537.75 294 533.980859375 308.2841796875 519.5 303.05 517.9798828125 314.6498046875 523.4 365.4 545.8486328125 436.6125 539.6 498.15
L 539.1 506.25
Q 560.640625 515.9130859375 579.55 503.65 582.394921875 478.20390625 575.8 447.4 572.74375 439.8720703125 569.95 432.4
L 538.55 418.45 554.7 383.1
Q 546.1923828125 348.7197265625 544 315.4 536.766796875 309.59609375 541 299.05 542.43046875 296.52578125 543.6 294 545.8439453125 289.15234375 547.1 284.3 545.7326171875 287.067578125 542.85 287.6 Z"/>

<path fill="#000000" stroke="none" d="
M 572.1 212.8
Q 584.6 216.9845703125 597.1 212.85 602.9712890625 206.1193359375 597.1 201.15
L 582.75 192.95
Q 577.165625 202.3763671875 572.1 212.8 Z"/>

<path fill="#3C3B3B" stroke="none" d="
M 615.85 135.25
L 611.1 129
Q 614.8458984375 122.856640625 600.8 110.75 599.4369140625 112.4029296875 597.85 114
L 597.9 114.05
Q 605.8234375 113.915234375 606.7 121.9 591.476953125 132.28671875 581.2 143.95 577.218359375 147.1017578125 573.7 152.3 553.991796875 181.3669921875 548.6 274.4
L 548.6 274.45
Q 548.5982421875 274.517578125 548.6 274.55 548.490234375 276.1923828125 548.4 277.85 558.2353515625 241.4892578125 572.1 212.8 577.165625 202.3763671875 582.75 192.95 588.09140625 183.987890625 593.9 175.95
L 586.1 162.2 608.5 159.8 608.5 148.6 615.85 135.25
M 558.55 122.1
L 558.55 122.05
Q 557.3138671875 121.9505859375 556 121.75 552.3638671875 121.7466796875 549.45 121.4
L 534.95 142.2
Q 530.5130859375 148.4365234375 536.45 152.3 538.65234375 153.73984375 542.3 154.85
L 533.25 166.6
Q 537.6451171875 186.32109375 538.55 203.25 540.291015625 190.8958984375 545.4 179.4
L 551 152.6
Q 550.9826171875 152.449609375 550.95 152.3 548.0796875 126.7169921875 558.55 122.1 Z"/>

<path fill="#ED3833" stroke="none" d="
M 552.55 189.5
Q 559.087109375 176.1287109375 560.85 162.05 565.841015625 161.113671875 565.6 153.55 565.448828125 152.9009765625 565.25 152.3 563.159765625 146.156640625 555.55 145.05
L 555.55 161.85
Q 549.4248046875 170.361328125 545.4 179.4 540.291015625 190.8958984375 538.55 203.25 538.1693359375 205.8828125 537.95 208.55
L 533.8 267.35
Q 535.1013671875 275.13671875 539.1 282.05 540.745703125 284.899609375 542.85 287.6 545.7326171875 287.067578125 547.1 284.3 547.9755859375 281.080078125 548.4 277.85 548.490234375 276.1923828125 548.6 274.55 548.5982421875 274.517578125 548.6 274.45
L 548.6 274.4
Q 543.844140625 232.1982421875 552.55 189.5
M 542.5 70.25
Q 561.641015625 71.959375 564.35 83.85 561.079296875 92.723828125 572.2 98 570.5234375 108.879296875 582.15 101.25 593.3927734375 96.079296875 592.1 107.15 586.0884765625 115.9744140625 595.55 116.35 596.760546875 115.202734375 597.85 114 599.4369140625 112.4029296875 600.8 110.75 618.271875 89.9462890625 609.35 62.95 596.5150390625 37.903125 564.55 46.7 537.2171875 52.7146484375 542.5 70.25 Z"/>

<path fill="#FEFEF6" stroke="none" d="
M 565.7 146.2
Q 561.3146484375 144.4099609375 561.1 139.9 561.1271484375 128.402734375 558.55 122.1 548.0796875 126.7169921875 550.95 152.3 550.9826171875 152.449609375 551 152.6
L 545.4 179.4
Q 549.4248046875 170.361328125 555.55 161.85
L 555.55 145.05
Q 563.159765625 146.156640625 565.25 152.3 565.448828125 152.9009765625 565.6 153.55 565.841015625 161.113671875 560.85 162.05 559.087109375 176.1287109375 552.55 189.5 543.844140625 232.1982421875 548.6 274.4 553.991796875 181.3669921875 573.7 152.3 577.218359375 147.1017578125 581.2 143.95 591.476953125 132.28671875 606.7 121.9 605.8234375 113.915234375 597.9 114.05
L 602.3 120.4
Q 595.021875 120.494140625 589.8 127.1 575.805859375 132.085546875 565.7 146.2 Z"/>

<path fill="#E99575" stroke="none" d="
M 558.55 122.05
L 558.55 122.1
Q 561.1271484375 128.402734375 561.1 139.9 561.3146484375 144.4099609375 565.7 146.2 575.805859375 132.085546875 589.8 127.1 595.021875 120.494140625 602.3 120.4
L 597.9 114.05 597.85 114
Q 596.760546875 115.202734375 595.55 116.35 586.0884765625 115.9744140625 592.1 107.15 584.5091796875 114.1083984375 578.8 109.95 576.7572265625 123.946484375 558.55 122.05 Z"/>

<path fill="#3C3B3C" stroke="none" d="
M 654.85 283.45
Q 657.9814453125 256.675 651.2 229.9 653.0181640625 209.5 645.7 189.1 647.275390625 170.05 636.25 155.2 622.7052734375 157.7677734375 617.35 169.15 603.3119140625 198.8564453125 615.75 241.5
L 623.15 283.5 617.65 348
Q 622.84609375 352.1228515625 632 351.3
L 636.2 327.2 636.2 350.7
Q 637.3453125 350.490234375 638.55 350.2 639.3587890625 350.0220703125 640.2 349.8
L 654.85 283.45 Z"/>
</g>
</defs>

<g transform="matrix( 1, 0, 0, 1, 0,0) ">
<use xlink:href="#Layer0_0_FILL"/>
</g>
</svg>
