<svg xmlns="http://www.w3.org/2000/svg" viewBox="0 0 370.54 97.74"><defs><style>.cls-1{fill:#6ba9cf;}.cls-2{fill:#d6a133;}.cls-3{fill:#a0bbd9;}.cls-4{fill:#acbe52;}.cls-5{fill:#325691;}.cls-6{fill:#3d4549;}</style></defs><title>slide6_logo</title><g id="Capa_2" data-name="Capa 2"><g id="Capa_1-2" data-name="Capa 1"><path class="cls-1" d="M128.37,57.43l.78,0a21,21,0,0,0,20.24-21H139.28a12.43,12.43,0,0,1-10.91,10.94Z"/><path class="cls-2" d="M114.57,36.48h-10c0,.26,0,.52,0,.78a21,21,0,0,0,21,20.24V47.39a12.44,12.44,0,0,1-10.93-10.91"/><path class="cls-3" d="M125.48,22.69V12.59l-.78,0a21,21,0,0,0-20.24,21h10.12a12.43,12.43,0,0,1,10.9-10.88"/><path class="cls-4" d="M139.28,33.59h10.05c0-.25,0-.51,0-.77a21,21,0,0,0-21-20.24V22.69a12.43,12.43,0,0,1,10.93,10.9"/><path class="cls-5" d="M93.46,94.44c-6,0-9.86-6.29-9.86-13.31V81c0-7.07,3.76-13.22,9.77-13.22s9.82,6.29,9.82,13.31v.09c0,7-3.72,13.22-9.73,13.22m-.09,3.3c8.26,0,13.58-7.62,13.58-16.61V81c0-9-5.23-16.52-13.49-16.52S79.84,72.14,79.84,81.13v.09c0,9,5.23,16.52,13.53,16.52m-38.95-.55H76.85v-3.3h-17l8.58-7.62c5.64-4.91,8.12-7.8,8.12-12.48V73.7c0-5.23-4.17-9.09-10-9.09S57.9,67.14,55,71.45l2.66,1.93c2.57-3.58,5-5.51,8.63-5.51,3.49,0,6.47,2.39,6.47,6.15,0,3.21-1.79,5.69-6.7,10.09L54.42,94.39ZM39.05,94.44c-6,0-9.87-6.29-9.87-13.31V81c0-7.07,3.76-13.22,9.77-13.22s9.82,6.29,9.82,13.31v.09c0,7-3.71,13.22-9.72,13.22m-.1,3.3c8.26,0,13.59-7.62,13.59-16.61V81c0-9-5.23-16.52-13.49-16.52S25.42,72.14,25.42,81.13v.09c0,9,5.23,16.52,13.53,16.52M0,97.19H22.44v-3.3h-17L14,86.27c5.65-4.91,8.13-7.8,8.13-12.48V73.7c0-5.23-4.18-9.09-10-9.09S3.49,67.14.6,71.45l2.66,1.93c2.57-3.58,5-5.51,8.62-5.51,3.49,0,6.47,2.39,6.47,6.15,0,3.21-1.79,5.69-6.7,10.09L0,94.39Z"/><path class="cls-6" d="M117.14,76.78v1.5H116v-11h1.17V72a3.52,3.52,0,0,1,3-1.75,3.82,3.82,0,0,1,3.73,4.06v0a3.82,3.82,0,0,1-3.73,4.07A3.51,3.51,0,0,1,117.14,76.78Zm5.54-2.39v0a2.82,2.82,0,0,0-2.76-3,2.92,2.92,0,0,0-2.83,3v0a2.91,2.91,0,0,0,2.83,3A2.76,2.76,0,0,0,122.68,74.39Z"/><path class="cls-6" d="M131.21,70.45h1.25l-3.29,8.08c-.66,1.62-1.42,2.21-2.6,2.21a3.55,3.55,0,0,1-1.67-.39l.4-.92a2.5,2.5,0,0,0,1.22.28c.7,0,1.14-.36,1.61-1.46l-3.56-7.8h1.29L128.7,77Z"/><path class="cls-6" d="M138.66,76.2V71.48h-1.09v-1h1.09V68.09h1.17v2.36h2.48v1h-2.48v4.57a1.16,1.16,0,0,0,1.31,1.3,2.41,2.41,0,0,0,1.14-.27v1a3,3,0,0,1-1.41.33A2,2,0,0,1,138.66,76.2Z"/><path class="cls-6" d="M144.37,67.23h1.16v4.58a3,3,0,0,1,2.68-1.53,2.87,2.87,0,0,1,3,3.14v4.86H150V73.71a2.09,2.09,0,0,0-2.16-2.37,2.31,2.31,0,0,0-2.35,2.46v4.48h-1.16Z"/><path class="cls-6" d="M153.21,74.39v0A3.86,3.86,0,0,1,157,70.28c2.32,0,3.65,1.85,3.65,4.14a2.36,2.36,0,0,1,0,.38h-6.2a2.72,2.72,0,0,0,2.75,2.64,3.26,3.26,0,0,0,2.47-1.1l.73.65a4.06,4.06,0,0,1-3.23,1.47A3.88,3.88,0,0,1,153.21,74.39Zm6.22-.46a2.58,2.58,0,0,0-2.5-2.66,2.69,2.69,0,0,0-2.54,2.66Z"/><path class="cls-6" d="M167.21,67.68h1.19v10.6h-1.19Z"/><path class="cls-6" d="M171.31,70.45h1.16v1.36a3,3,0,0,1,2.68-1.53,2.86,2.86,0,0,1,3,3.14v4.86H177V73.71a2.09,2.09,0,0,0-2.16-2.37,2.31,2.31,0,0,0-2.35,2.46v4.48h-1.16Z"/><path class="cls-6" d="M181,76.2V71.48H180v-1H181V68.09h1.17v2.36h2.48v1h-2.48v4.57a1.16,1.16,0,0,0,1.31,1.3,2.41,2.41,0,0,0,1.14-.27v1a3,3,0,0,1-1.41.33A2,2,0,0,1,181,76.2Z"/><path class="cls-6" d="M186.05,74.39v0a3.86,3.86,0,0,1,3.75-4.08c2.32,0,3.65,1.85,3.65,4.14,0,.15,0,.24,0,.38h-6.21A2.73,2.73,0,0,0,190,77.44a3.24,3.24,0,0,0,2.46-1.1l.73.65A4,4,0,0,1,190,78.46,3.89,3.89,0,0,1,186.05,74.39Zm6.22-.46a2.58,2.58,0,0,0-2.5-2.66,2.69,2.69,0,0,0-2.54,2.66Z"/><path class="cls-6" d="M195.5,70.45h1.16v2a3.36,3.36,0,0,1,3.19-2.18v1.26h-.09c-1.71,0-3.1,1.23-3.1,3.59v3.12H195.5Z"/><path class="cls-6" d="M201.63,70.45h1.16v1.36a3,3,0,0,1,2.68-1.53,2.87,2.87,0,0,1,3,3.14v4.86H207.3V73.71a2.09,2.09,0,0,0-2.16-2.37,2.31,2.31,0,0,0-2.35,2.46v4.48h-1.16Z"/><path class="cls-6" d="M210.36,76v0c0-1.65,1.36-2.53,3.34-2.53a8.25,8.25,0,0,1,2.41.33v-.27c0-1.41-.86-2.14-2.33-2.14a5.53,5.53,0,0,0-2.38.58l-.34-1a6.36,6.36,0,0,1,2.84-.65,3.42,3.42,0,0,1,2.53.86,3.07,3.07,0,0,1,.8,2.28v4.79h-1.12V77.1a3.42,3.42,0,0,1-2.83,1.34C211.83,78.44,210.36,77.61,210.36,76Zm5.77-.61v-.76a8.49,8.49,0,0,0-2.31-.33c-1.46,0-2.28.64-2.28,1.62v0c0,1,.91,1.56,2,1.56A2.37,2.37,0,0,0,216.13,75.4Z"/><path class="cls-6" d="M220.05,76.2V71.48H219v-1h1.09V68.09h1.16v2.36h2.48v1h-2.48v4.57a1.16,1.16,0,0,0,1.32,1.3,2.4,2.4,0,0,0,1.13-.27v1a2.93,2.93,0,0,1-1.4.33A2,2,0,0,1,220.05,76.2Z"/><path class="cls-6" d="M225.78,67.45h1.33v1.29h-1.33Zm.08,3H227v7.83h-1.16Z"/><path class="cls-6" d="M229.25,74.4v0a4.08,4.08,0,0,1,8.16,0v0a4.07,4.07,0,0,1-4.11,4.09A4,4,0,0,1,229.25,74.4Zm7,0v0a3,3,0,0,0-2.91-3.06,2.89,2.89,0,0,0-2.86,3v0a2.93,2.93,0,0,0,2.89,3A2.89,2.89,0,0,0,236.21,74.4Z"/><path class="cls-6" d="M239.51,70.45h1.17v1.36a3,3,0,0,1,2.67-1.53,2.86,2.86,0,0,1,3,3.14v4.86h-1.16V73.71A2.09,2.09,0,0,0,243,71.34a2.3,2.3,0,0,0-2.34,2.46v4.48h-1.17Z"/><path class="cls-6" d="M248.24,76v0c0-1.65,1.37-2.53,3.35-2.53a8.25,8.25,0,0,1,2.41.33v-.27c0-1.41-.87-2.14-2.34-2.14a5.45,5.45,0,0,0-2.37.58l-.35-1a6.37,6.37,0,0,1,2.85-.65,3.39,3.39,0,0,1,2.52.86,3.07,3.07,0,0,1,.8,2.28v4.79H254V77.1a3.45,3.45,0,0,1-2.84,1.34C249.71,78.44,248.24,77.61,248.24,76ZM254,75.4v-.76a8.47,8.47,0,0,0-2.3-.33c-1.47,0-2.29.64-2.29,1.62v0c0,1,.91,1.56,2,1.56A2.37,2.37,0,0,0,254,75.4Z"/><path class="cls-6" d="M257.42,67.23h1.16v11h-1.16Z"/><path class="cls-6" d="M115.7,90.23v0a5.34,5.34,0,0,1,5.36-5.48,5.51,5.51,0,0,1,4.13,1.68l-.82.88A4.59,4.59,0,0,0,121,85.82a4.16,4.16,0,0,0-4.1,4.35v0a4.18,4.18,0,0,0,4.1,4.37A4.58,4.58,0,0,0,124.46,93l.79.77A5.51,5.51,0,0,1,121,95.68,5.29,5.29,0,0,1,115.7,90.23Z"/><path class="cls-6" d="M127.14,84.45h1.17V89A3,3,0,0,1,131,87.5a2.86,2.86,0,0,1,3,3.14v4.85h-1.16V90.92a2.09,2.09,0,0,0-2.16-2.36A2.31,2.31,0,0,0,128.31,91v4.48h-1.17Z"/><path class="cls-6" d="M135.88,93.22v0c0-1.65,1.36-2.52,3.34-2.52a8.25,8.25,0,0,1,2.41.33v-.27c0-1.41-.86-2.14-2.33-2.14a5.5,5.5,0,0,0-2.38.58l-.35-1a6.54,6.54,0,0,1,2.85-.65,3.44,3.44,0,0,1,2.53.87,3.07,3.07,0,0,1,.8,2.28v4.78h-1.12V94.31a3.41,3.41,0,0,1-2.83,1.35C137.34,95.66,135.88,94.83,135.88,93.22Zm5.76-.6v-.76a8.34,8.34,0,0,0-2.3-.33c-1.47,0-2.28.63-2.28,1.62v0c0,1,.91,1.56,2,1.56A2.36,2.36,0,0,0,141.64,92.62Z"/><path class="cls-6" d="M145.23,87.67h1.17V89a2.84,2.84,0,0,1,2.52-1.49,2.66,2.66,0,0,1,2.52,1.56,3.12,3.12,0,0,1,2.75-1.56c1.8,0,2.91,1.21,2.91,3.15v4.84h-1.17V90.92c0-1.51-.76-2.36-2-2.36A2.18,2.18,0,0,0,151.75,91v4.51h-1.16v-4.6c0-1.46-.77-2.33-2-2.33A2.26,2.26,0,0,0,146.4,91v4.46h-1.17Z"/><path class="cls-6" d="M160.5,94v1.49h-1.16v-11h1.16v4.79a3.52,3.52,0,0,1,3-1.74,3.82,3.82,0,0,1,3.74,4.06v0a3.83,3.83,0,0,1-3.74,4.07A3.56,3.56,0,0,1,160.5,94ZM166,91.6v0a2.81,2.81,0,0,0-2.75-3,2.91,2.91,0,0,0-2.83,3v0a2.91,2.91,0,0,0,2.83,3A2.76,2.76,0,0,0,166,91.6Z"/><path class="cls-6" d="M168.9,91.6v0a3.86,3.86,0,0,1,3.76-4.07c2.31,0,3.64,1.85,3.64,4.13,0,.16,0,.25,0,.38h-6.21a2.74,2.74,0,0,0,2.76,2.65,3.28,3.28,0,0,0,2.47-1.1l.72.65a4,4,0,0,1-3.22,1.47A3.9,3.9,0,0,1,168.9,91.6Zm6.22-.45a2.57,2.57,0,0,0-2.49-2.66,2.7,2.7,0,0,0-2.55,2.66Z"/><path class="cls-6" d="M178.35,87.67h1.16v2a3.36,3.36,0,0,1,3.2-2.18v1.26h-.09c-1.71,0-3.11,1.23-3.11,3.59v3.11h-1.16Z"/><path class="cls-6" d="M187.94,91.62v0a4.08,4.08,0,0,1,8.16,0v0a4.07,4.07,0,0,1-4.1,4.09A4,4,0,0,1,187.94,91.62Zm7,0v0A3,3,0,0,0,192,88.53a2.89,2.89,0,0,0-2.86,3v0a2.93,2.93,0,0,0,2.89,3A2.89,2.89,0,0,0,194.91,91.62Z"/><path class="cls-6" d="M198.64,88.7h-1.07v-1h1.07V87a2.76,2.76,0,0,1,.69-2,2.3,2.3,0,0,1,1.68-.6,3.68,3.68,0,0,1,1.28.19v1a3.9,3.9,0,0,0-1.13-.2c-.91,0-1.37.54-1.37,1.66v.64h2.49v1h-2.47v6.79h-1.17Z"/><path class="cls-6" d="M207.74,90.23v0a5.34,5.34,0,0,1,5.36-5.48,5.51,5.51,0,0,1,4.13,1.68l-.82.88a4.59,4.59,0,0,0-3.33-1.46,4.16,4.16,0,0,0-4.1,4.35v0a4.18,4.18,0,0,0,4.1,4.37A4.58,4.58,0,0,0,216.5,93l.79.77a5.51,5.51,0,0,1-4.24,1.87A5.29,5.29,0,0,1,207.74,90.23Z"/><path class="cls-6" d="M218.26,91.62v0a4.08,4.08,0,0,1,8.16,0v0a4.07,4.07,0,0,1-4.1,4.09A4,4,0,0,1,218.26,91.62Zm7,0v0a3,3,0,0,0-2.9-3.06,2.89,2.89,0,0,0-2.86,3v0a2.93,2.93,0,0,0,2.89,3A2.88,2.88,0,0,0,225.22,91.62Z"/><path class="cls-6" d="M228.22,87.67h1.16V89a2.87,2.87,0,0,1,2.53-1.49,2.65,2.65,0,0,1,2.51,1.56,3.14,3.14,0,0,1,2.76-1.56c1.8,0,2.91,1.21,2.91,3.15v4.84h-1.17V90.92c0-1.51-.76-2.36-2-2.36A2.18,2.18,0,0,0,234.74,91v4.51h-1.16v-4.6c0-1.46-.77-2.33-2-2.33A2.27,2.27,0,0,0,229.38,91v4.46h-1.16Z"/><path class="cls-6" d="M242.61,87.67h1.17V89a2.84,2.84,0,0,1,2.53-1.49,2.65,2.65,0,0,1,2.51,1.56,3.12,3.12,0,0,1,2.75-1.56c1.8,0,2.91,1.21,2.91,3.15v4.84h-1.17V90.92c0-1.51-.75-2.36-2-2.36A2.18,2.18,0,0,0,249.14,91v4.51H248v-4.6c0-1.46-.77-2.33-2-2.33A2.27,2.27,0,0,0,243.78,91v4.46h-1.17Z"/><path class="cls-6" d="M256.52,91.6v0a3.86,3.86,0,0,1,3.76-4.07c2.31,0,3.64,1.85,3.64,4.13,0,.16,0,.25,0,.38H257.7a2.74,2.74,0,0,0,2.76,2.65,3.28,3.28,0,0,0,2.47-1.1l.72.65a4,4,0,0,1-3.22,1.47A3.9,3.9,0,0,1,256.52,91.6Zm6.22-.45a2.57,2.57,0,0,0-2.49-2.66,2.7,2.7,0,0,0-2.55,2.66Z"/><path class="cls-6" d="M266,87.67h1.16v2a3.36,3.36,0,0,1,3.2-2.18v1.26h-.09c-1.71,0-3.11,1.23-3.11,3.59v3.11H266Z"/><path class="cls-6" d="M271.3,91.62v0a4.07,4.07,0,0,1,7.14-2.69l-.77.81a3.17,3.17,0,0,0-2.38-1.18,2.89,2.89,0,0,0-2.8,3v0a2.92,2.92,0,0,0,2.88,3,3.24,3.24,0,0,0,2.39-1.16l.74.69a4,4,0,0,1-7.2-2.54Z"/><path class="cls-6" d="M279.71,91.6v0a3.86,3.86,0,0,1,3.75-4.07c2.32,0,3.65,1.85,3.65,4.13,0,.16,0,.25,0,.38h-6.21a2.73,2.73,0,0,0,2.76,2.65,3.24,3.24,0,0,0,2.46-1.1l.73.65a4,4,0,0,1-3.22,1.47A3.9,3.9,0,0,1,279.71,91.6Zm6.22-.45a2.58,2.58,0,0,0-2.5-2.66,2.69,2.69,0,0,0-2.54,2.66Z"/><path class="cls-6" d="M291.3,91.15c0-2.78,1.5-5,4.2-6.48l.5.77c-2.3,1.47-3.51,3.29-3.51,5.71s1.21,4.24,3.51,5.71l-.5.77C292.8,96.12,291.3,93.94,291.3,91.15Z"/><path class="cls-6" d="M298.15,84.9h1.19V95.49h-1.19Z"/><path class="cls-6" d="M301.37,90.23v0a5.34,5.34,0,0,1,5.36-5.48,5.51,5.51,0,0,1,4.13,1.68l-.82.88a4.59,4.59,0,0,0-3.33-1.46,4.16,4.16,0,0,0-4.1,4.35v0a4.18,4.18,0,0,0,4.1,4.37A4.58,4.58,0,0,0,310.13,93l.79.77a5.52,5.52,0,0,1-4.24,1.87A5.29,5.29,0,0,1,301.37,90.23Z"/><path class="cls-6" d="M312,90.23v0a5.34,5.34,0,0,1,5.36-5.48,5.51,5.51,0,0,1,4.13,1.68l-.82.88a4.59,4.59,0,0,0-3.33-1.46,4.16,4.16,0,0,0-4.1,4.35v0a4.18,4.18,0,0,0,4.1,4.37A4.58,4.58,0,0,0,320.71,93l.79.77a5.54,5.54,0,0,1-4.24,1.87A5.28,5.28,0,0,1,312,90.23Z"/><path class="cls-6" d="M322.94,96.86c2.3-1.47,3.51-3.29,3.51-5.71s-1.21-4.24-3.51-5.71l.5-.77c2.69,1.52,4.19,3.7,4.19,6.48s-1.5,5-4.19,6.48Z"/><path class="cls-5" d="M9.88,56.53V0H0V56.53Zm9.16,0h9.72V32.46c0-6.62,3.94-10.57,9.56-10.57,5.79,0,9.08,3.79,9.08,10.41V56.53h9.72V29.31C57.12,19.46,51.58,13,42,13c-6.59,0-10.53,3.48-13.26,7.43V13.89H19Zm65.32,1c8.27,0,13.17-3.31,17.35-8l-5.87-5.81c-3,3.15-6.42,5.25-11,5.25-7.47,0-12.7-6.06-12.7-13.65v-.16c0-7.43,5.23-13.57,12.3-13.57,4.82,0,8,2.18,10.92,5.33l6.11-6.54c-4-4.36-9-7.35-17-7.35a22,22,0,0,0-22.1,22.29v.16a21.72,21.72,0,0,0,21.94,22m85.81-.24a16.66,16.66,0,0,0,8.75-2.19v-8a13,13,0,0,1-6,1.45c-3.3,0-5.23-1.53-5.23-5.33V22.29h11.41v-8.4H167.67V2.18H158V13.89h-5.38v8.4H158V44.74c0,9.37,5.06,12.52,12.22,12.52m33.9.24a21.39,21.39,0,0,0,17.35-8l-5.7-5.09c-3.37,3.32-6.75,5.09-11.49,5.09-6.27,0-11.17-3.87-12.21-10.82h31.17c.08-1,.16-1.86.16-2.74C223.35,23.66,216.52,13,203,13c-12.14,0-20.73,10-20.73,22.21v.16c0,13.16,9.48,22.13,21.77,22.13M191.94,32.22C192.82,25.6,197,21,202.94,21c6.43,0,10.13,4.92,10.77,11.22Zm37.11,24.31h9.72V40.3c0-11.31,5.95-16.88,14.47-16.88h.56V13.08c-7.47-.32-12.38,4-15,10.42V13.89h-9.72Zm31.66,0h9.72V32.46c0-6.54,3.69-10.57,9.08-10.57s8.6,3.71,8.6,10.33V56.53h9.72V32.46c0-6.86,3.77-10.57,9.08-10.57s8.59,3.63,8.59,10.41V56.53h9.72V29.31C325.22,18.9,319.6,13,310.36,13c-6.43,0-10.93,3-14.3,7.51C293.81,16,289.47,13,283.36,13c-6.5,0-10.2,3.55-12.93,7.35V13.89h-9.72Zm88.37.81c8.84,0,15.75-4.45,15.75-13.41v-.16c0-7.67-7-10.5-13.18-12.44-5-1.61-9.56-2.9-9.56-6v-.16c0-2.43,2.17-4.2,6-4.2,3.53,0,7.87,1.53,12,4L363.86,18a29.25,29.25,0,0,0-15.58-4.85c-8.44,0-15.11,4.93-15.11,13v.17c0,8.15,7,10.74,13.26,12.51,5,1.54,9.48,2.67,9.48,6V45c0,2.83-2.41,4.6-6.59,4.6-4.34,0-9.24-1.77-13.9-5.25L331.08,51a29.72,29.72,0,0,0,18,6.38m16.82-45a4.67,4.67,0,0,0,4.64-4.69v0a4.64,4.64,0,1,0-9.27,0v0a4.63,4.63,0,0,0,4.63,4.66m0-.51a4.08,4.08,0,0,1-4.1-4.15v0a4.11,4.11,0,1,1,8.21,0v0a4.13,4.13,0,0,1-4.11,4.18m-1.81-1.9H365V8.3h1l1.12,1.63h1.09l-1.25-1.8A1.42,1.42,0,0,0,368,6.69c0-1-.78-1.5-1.82-1.5h-2.13ZM365,7.55V6h1.14c.62,0,1,.27,1,.78s-.34.78-1,.78Z"/></g></g></svg>