<svg xmlns="http://www.w3.org/2000/svg" viewBox="0 0 112.85 157.59"><defs><style>.cls-1{fill:#345aa1;}.cls-2{fill:#005ca7;}.cls-3{fill:#fde6ca;}.cls-4{fill:#e1a76d;}.cls-5{fill:#683736;}.cls-6{fill:#fdc4b4;}.cls-7{fill:#8a3b07;}.cls-8{fill:#ff8819;}.cls-9{fill:#d55811;}.cls-10{fill:#0088c2;}.cls-11{fill:#482b24;}.cls-12{fill:#e5b588;}.cls-13{fill:#bcced5;}.cls-14{fill:#9db2b8;}.cls-15{fill:#111717;}.cls-16{fill:#2e84ad;}.cls-17{fill:#1f4b5b;}.cls-18{fill:#267188;}.cls-19{fill:#d6e7ed;}.cls-20{fill:#214248;}.cls-21{fill:#28313d;}.cls-22{fill:#c7dced;}.cls-23{fill:#2d83ac;}.cls-24{fill:#164f6b;}.cls-25{fill:#307d9f;}.cls-26{fill:#2d82ac;}.cls-27{fill:#174d68;}.cls-28{fill:#0f4d67;}.cls-29{fill:#246e8a;}.cls-30{fill:#135364;}.cls-31{fill:#000003;}</style></defs><title>slide1_personas_1</title><g id="Capa_2" data-name="Capa 2"><g id="Capa_1-2" data-name="Capa 1"><ellipse class="cls-1" cx="88.28" cy="143.89" rx="24.57" ry="13.7"/><g id="Layer0_0_FILL" data-name="Layer0 0 FILL"><path class="cls-2" d="M76.62,67.4c.17.19.35.37.52.54A7,7,0,0,0,85,69.53q4.74-11.12-1.88-15.88-3.06,2.12-4.9,7.17a39.23,39.23,0,0,0-1.64,6.58M81.7,39.5q.84.31,1.86.6c.65.17,1.36.34,2.13.49q-3.93-2.48-2.06-7.72C80,32.66,78.15,33.69,78,36q0,2.12,3.72,3.52m20,21.85,1.25-1a27.46,27.46,0,0,0-5.66-10c-.83,0-1.65,0-2.48,0a27.57,27.57,0,0,1,4.72,12.83Z"/><path class="cls-3" d="M71.64,59l4.72,2.84L76.44,69l.7-1c-.17-.17-.35-.35-.52-.54a39.23,39.23,0,0,1,1.64-6.58q1.83-5.05,4.9-7.17l1.62-.7c.21-.63.76-1,1.67-1v-.86l-1-.62L71.64,59m3.13,12.51L76.44,69l-4.88-2.74-2.4,2,5.61,3.31m-10.48-17,3.07,1.93,14.66-8-3.37-1.93-14.36,8m0,7.56V58.37l-5.9,3.5L65,65.78l2-2.06Z"/><path class="cls-4" d="M76.36,61.87,71.64,59l0,4-4.33-2.45v-4l-3.07-1.93v7.56l2.76,1.57,4.51,2.53L76.44,69l-.08-7.12m.13,14.89-10,2.16L76.7,84.63l3.26-2c.47-2.41,1-4.82,1.51-7.25a29.75,29.75,0,0,1-5,1.41m-7.2-3.89,5.48-1.33-5.61-3.31.13,4.64m-10.9-11-.2,12.28c.22-.21.65-.18,1.3.08a4.45,4.45,0,0,1-.73-2.43,4.74,4.74,0,0,1,2.87,2.82l.28,0,5.77-1.41L65,71.75v-6l0,0Z"/><path class="cls-5" d="M65,65.78l0,0v6l2.64,1.51,1.61-.39-.13-4.64,2.4-2-4.51-2.53-2,2.06m2.34-9.26v4L71.69,63l0-4,13.77-8.58-3.39-2Z"/><path class="cls-6" d="M58.19,74.15a.38.38,0,0,0-.13.21.86.86,0,0,0,.18.91c1.14,2,2.3,3.22,3.47,3.7a4.71,4.71,0,0,0,2.34.34,20.59,20.59,0,0,0,2.4-.39l10-2.16a29.75,29.75,0,0,0,5-1.41,10.62,10.62,0,0,0,1.3-.6l1.33-3.13c.35-.71.67-1.41.94-2.09a7,7,0,0,1-7.9-1.59l-.7,1-1.67,2.55-5.48,1.33-1.61.39-5.77,1.41-.28,0a4.74,4.74,0,0,0-2.87-2.82,4.45,4.45,0,0,0,.73,2.43c-.65-.26-1.08-.29-1.3-.08m41.32-11,.26,9.93q5.39,2.72,1.91-11.73l-2.17,1.8m-10.09-21a6.63,6.63,0,0,1-1.64-.6,11,11,0,0,1-1.62-.71L84.75,44h-1l-.23-3.93q-1-.29-1.86-.6v5.63q.47,3.12,4.75,3.39v3.41a28.86,28.86,0,0,1,6.6-1.48l.49-.06-.1-2a4.33,4.33,0,0,1-3.84.75Q85.88,46.9,89.42,42.16Z"/><path class="cls-7" d="M70.6,145.49q-3.41,2.31,3.49,7.06A22.68,22.68,0,0,0,82,155.39q5.7-1.48,2.58-6.62-5,3.85-9.39-1.17l0-1.41c-2-1.15-3.56-1.39-4.64-.7m22.26-6.76-.26-2a8.21,8.21,0,0,0-4.25-.28q-3.63,2.66,3.26,6.46l7,3q5.57-.63,3-6.1Q96.4,142.8,92.86,138.73Z"/><path class="cls-8" d="M100.87,85.52a15.74,15.74,0,0,1-6.15,2.63,49.4,49.4,0,0,1-8.77.37,15.9,15.9,0,0,1-6.72-2.12q-2,11.11-3.18,22l-.81,37.78,0,1.41q4.4,5,9.39,1.17a15.27,15.27,0,0,0,1.33-1.17L87.13,114l2.34-12.38v11.26l3.13,23.83.26,2q3.52,4.07,8.71,1.1c.28-.16.55-.33.84-.52a247.8,247.8,0,0,1-1.31-27.43,152.11,152.11,0,0,0-.23-26.36M93.54,50.39l-.49.06a11.18,11.18,0,0,1,2.71,6.25l-4,1.13a9,9,0,0,0-5.34-5.9c-.91,0-1.46.39-1.67,1q4.31,1.26,5.11,6.41,2,16-7.14,15.47l0-.08a10.62,10.62,0,0,1-1.3.6c-.54,2.43-1,4.84-1.51,7.25l-.21,1q8.91,4.55,20.83-.26c-.18-1.28-.38-2.48-.62-3.63l-.19-6.62-.26-9.93a27.57,27.57,0,0,0-4.72-12.83C94.38,50.33,94,50.36,93.54,50.39Z"/><path class="cls-9" d="M94.72,88.15a15.74,15.74,0,0,0,6.15-2.63c-.08-.75-.18-1.48-.29-2.19q-11.91,4.82-20.83.26c-.17.94-.35,1.88-.52,2.81A15.9,15.9,0,0,0,86,88.52,49.4,49.4,0,0,0,94.72,88.15Z"/><path class="cls-10" d="M84.78,53l-1.62.7Q89.78,58.42,85,69.53c-.27.68-.59,1.38-.94,2.09l-1.33,3.13,0,.08q9.14.56,7.14-15.47-.81-5.14-5.11-6.41m7,4.88,4-1.13a11.18,11.18,0,0,0-2.71-6.25,28.86,28.86,0,0,0-6.6,1.48,9,9,0,0,1,5.34,5.9m-4-16.27a6.63,6.63,0,0,0,1.64.6,16.76,16.76,0,0,0,7.69-.6q1.65-8.91-4.25-11.4-6.26-1.76-9.23,2.71-1.86,5.25,2.06,7.72l.32.18.15.08A11,11,0,0,0,87.78,41.56Z"/><path class="cls-11" d="M89.42,42.16q-3.54,4.74.18,6.93a4.33,4.33,0,0,0,3.84-.75q2.48-1.86,3.67-6.78a16.76,16.76,0,0,1-7.69.6m-3.26-1.31L86,40.77l-.32-.18c-.77-.15-1.48-.32-2.13-.49L83.79,44h1Z"/></g><ellipse class="cls-1" cx="24.57" cy="121.98" rx="24.57" ry="13.7"/><g id="Layer0_0_FILL-2" data-name="Layer0 0 FILL"><path class="cls-12" d="M32.44,95.69c.79-3.71,1.38-6.52,1.77-8.41a1.48,1.48,0,0,1-.49.32L25.84,90c-.26.08-.53.16-.8.22a9.06,9.06,0,0,1-2.53.21h0l-.31,0h-.14a8.33,8.33,0,0,1-1.37-.28l-.23-.08-.15.43a8.93,8.93,0,0,0-2.38,5.13,22.42,22.42,0,0,0-.21,2.86q0,1,0,2.88a66.1,66.1,0,0,1-1.16,12.75l-.08.71-.56,5.48q0,.53-.09,1c-.06,1-.08,1.84-.05,2.57a10.11,10.11,0,0,0,.14,1,2.86,2.86,0,0,0,.39,1,3,3,0,0,0,1.21,1.1,10.11,10.11,0,0,0,1.59.67,5.62,5.62,0,0,0,.55.15.71.71,0,0,0,.53-.1c.3-.14.46-.48.49-1a16.1,16.1,0,0,0-.13-3.59,17.49,17.49,0,0,1-.13-3.6h.06a26.35,26.35,0,0,1,1.2-9.52q.87-2.92,3.58-9.41c.23-.57.45-1.11.65-1.62A46.81,46.81,0,0,1,27,106.49a13.76,13.76,0,0,1,0,1.81,5.11,5.11,0,0,1-.29,1.33,2.06,2.06,0,0,0-.23.37.8.8,0,0,0-.08.16,2.25,2.25,0,0,0-.12,1.37,11.53,11.53,0,0,0,.61,1.89,17.15,17.15,0,0,1,1,3.16l.27,1.26h0l0,.17a11.47,11.47,0,0,0,.42,1.43,3.7,3.7,0,0,0,1.86,2.18,2.41,2.41,0,0,0,1.45.21,1.71,1.71,0,0,0,1.19-.69h0q-2.88-7-2-16.88c.24-2.45.68-5.3,1.33-8.57M45,45.6,42.33,46,40.15,48.9l.81.63a6.2,6.2,0,0,0,4-3.93M30.61,54.2a.55.55,0,0,0-.05-.22.62.62,0,0,0-.38-.31c-.21.34-.77.29-1.67-.15a3.76,3.76,0,0,0-1.61-.37,4.42,4.42,0,0,0-1.36.21,2.54,2.54,0,0,0-.67.46,2.27,2.27,0,0,0-.4.79,1.83,1.83,0,0,0-.08.87c0,.1.05.2.08.3A3.53,3.53,0,0,0,25.23,57,4.15,4.15,0,0,0,27,58.24a2.74,2.74,0,0,0,2.05,0,4.79,4.79,0,0,0,1.34-.93,15.5,15.5,0,0,0,2.38-3s0,0,0,0a3.31,3.31,0,0,0-2.09.4.73.73,0,0,1-.08-.36.76.76,0,0,0,0-.15m2-43.21a.77.77,0,0,1,.22-.28l.24-.24a.83.83,0,0,0,.2-.66.82.82,0,0,0-.35-.57L25.54,5.83q-5.28,8.5-2,18.65L21.06,23a8.57,8.57,0,0,0,1,1.26,5.5,5.5,0,0,0,1,.77l.06,0,.06,0a4.69,4.69,0,0,0,2.55.61,2.37,2.37,0,0,0,1.41-.4,2.32,2.32,0,0,0,.78-1.05A7.29,7.29,0,0,0,28.31,23H27.14a21.79,21.79,0,0,0,.41-3.31,3.21,3.21,0,0,1,1.21.08,2.3,2.3,0,0,0,1.22,0,1.35,1.35,0,0,0,.66-.6A5.38,5.38,0,0,0,31,18.3l1.5-4.12A10.22,10.22,0,0,0,32.87,13a2,2,0,0,0-.08-1.14c-.09-.19-.16-.34-.2-.44A.6.6,0,0,1,32.56,11Z"/><path class="cls-13" d="M22.32,67.4,21,67.67q.5,7.11,1.42,20.91c0,.55.08,1.11.11,1.68l0,.21h0A9.06,9.06,0,0,0,25,90.26c.27-.06.54-.14.8-.22l7.88-2.44a1.48,1.48,0,0,0,.49-.32.17.17,0,0,0,.06-.06A6.71,6.71,0,0,0,35.65,84a31.8,31.8,0,0,1-8.18,3.79,26.53,26.53,0,0,1-2.86.71A105.6,105.6,0,0,0,22.32,67.4Z"/><path class="cls-14" d="M18.59,67.3,18,67.2h0a6.1,6.1,0,0,1-3.24-1.56,29,29,0,0,0,1.61,9.6,35.39,35.39,0,0,1,2.21,11.09c-.1,2,.55,3.25,1.93,3.73l.23.08a8.33,8.33,0,0,0,1.37.28h.14l.31,0,0-.21c0-.57-.07-1.13-.11-1.68Q21.48,74.78,21,67.67l0-.25a5.94,5.94,0,0,1-1.89,0A4.1,4.1,0,0,1,18.59,67.3Z"/><path class="cls-15" d="M33.22,121.29a.26.26,0,0,1-.13-.14,1.71,1.71,0,0,1-1.19.69,2.41,2.41,0,0,1-1.45-.21,3.7,3.7,0,0,1-1.86-2.18,11.47,11.47,0,0,1-.42-1.43l0-.17h0l-.27-1.26a17.15,17.15,0,0,0-1-3.16,11.53,11.53,0,0,1-.61-1.89,2.25,2.25,0,0,1,.12-1.37l-.2-.07a1.27,1.27,0,0,0-.88.41,2.07,2.07,0,0,0-.54.87,5.37,5.37,0,0,0-.11,2c.06,1.19.09,2.37.09,3.53,0,1.61,0,3.18-.13,4.72h1.63a37.6,37.6,0,0,1,.2-4.72,5.19,5.19,0,0,1,.39,1.21c.11.54.21,1.21.3,2a5.23,5.23,0,0,0,1.05,3,3.82,3.82,0,0,0,1.06.74c.24.12.64.27,1.21.48,1.39.48,2.28.79,2.69.92a1.54,1.54,0,0,0,1.27,0,.88.88,0,0,0,.37-.77,2.32,2.32,0,0,0-.22-.94,9.37,9.37,0,0,0-1.34-2.31m-16.75-6.47c-.68,0-1,1-1.12,2.83l-.62,8.73a1.89,1.89,0,0,0,.8,2.05l3.24,2.69a2.2,2.2,0,0,0,2.32,0,19.14,19.14,0,0,0,.08-4.48c-.11-1.82-.34-4.12-.67-6.9l0-.26h-.06a17.49,17.49,0,0,0,.13,3.6,16.1,16.1,0,0,1,.13,3.59c0,.53-.19.87-.49,1a.71.71,0,0,1-.53.1,5.62,5.62,0,0,1-.55-.15,10.11,10.11,0,0,1-1.59-.67,3,3,0,0,1-1.21-1.1,2.86,2.86,0,0,1-.39-1,10.11,10.11,0,0,1-.14-1c0-.73,0-1.59.05-2.57q0-.5.09-1Z"/><path class="cls-16" d="M36.05,59.63l-.25-6.79-2.69,1.73.19,6.8,2.75-1.74M33.14,36.88l-.53.17-.46.17a3.53,3.53,0,0,0-.5.28c.06.53.12,1.06.18,1.61v.11c0,.2.05.41.07.62q.29,3.07.51,6.58c0,.75.09,1.52.12,2.3s.09,1.68.13,2.55L35,49.15a6,6,0,0,0-1.28-2.8V36.79h-.2l-.4.09m.21-3.08.39-.17q2.64-2.31,1.87-4.36a12.06,12.06,0,0,0-2.4-5.34,7.45,7.45,0,0,1-1.88-4.28L28.49,23a45.88,45.88,0,0,1,2.83,11.77l.66-.43a.81.81,0,0,1,.38-.21,2.25,2.25,0,0,1,.37-.12A2.47,2.47,0,0,0,33.35,33.8Z"/><path class="cls-17" d="M38.91,45.64l-.11-.12c0,.06-.14.08-.29,0-.35-.18-.61-.31-.79-.38-1.62-.73-2.95-1.38-4-2v2.19L37.37,47Z"/><path class="cls-18" d="M38.8,45.52l.11.12.81-.73.6-.3-6.58-5.55v4.16c1,.57,2.36,1.22,4,2,.18.07.44.2.79.38C38.66,45.6,38.76,45.58,38.8,45.52Z"/><path class="cls-19" d="M31.37,56.27l-.12,6.41a31.88,31.88,0,0,1-9,4.5l.05.22a105.6,105.6,0,0,1,2.29,21.06,26.53,26.53,0,0,0,2.86-.71A31.8,31.8,0,0,0,35.65,84q1.41-6.49.4-24.33L33.3,61.37l-.19-6.8-.34-.23a13.73,13.73,0,0,1-1.4,1.93m.53-16.43c0-.21,0-.42-.07-.62v-.11c-.06-.55-.12-1.08-.18-1.61-.1-.94-.22-1.84-.33-2.71A45.88,45.88,0,0,0,28.49,23h-.18a7.29,7.29,0,0,1-.37,1.27,2.32,2.32,0,0,1-.78,1.05,2.37,2.37,0,0,1-1.41.4,4.69,4.69,0,0,1-2.55-.61l-.06,0-.06,0a5.5,5.5,0,0,1-1-.77,8.57,8.57,0,0,1-1-1.26L19.28,22v2.88c.44.37.88.75,1.31,1.14a38.26,38.26,0,0,1,8.14,10.64c.45.87.88,1.75,1.28,2.66h0l0,.09.21.48.06.12s0,.1,0,.14a52.75,52.75,0,0,1,1.24,8.64c.06,1,.1,2,.11,2.94l.25.27.73-.71c0-.87-.08-1.72-.13-2.55s-.08-1.55-.12-2.3Q32.19,42.91,31.9,39.84Z"/><path class="cls-20" d="M24.87,53.82a2.54,2.54,0,0,1,.67-.46,4.42,4.42,0,0,1,1.36-.21l.46-.46a2.78,2.78,0,0,0-3.1,0c-.16.15-.31.3-.45.46h0a2.56,2.56,0,0,0-.61,2.58l1.2-.26a1.83,1.83,0,0,1,.08-.87A2.27,2.27,0,0,1,24.87,53.82Z"/><path class="cls-21" d="M30.61,54.2a.76.76,0,0,1,0,.15.73.73,0,0,0,.08.36,3.31,3.31,0,0,1,2.09-.4s0,0,0,0l.34.23,2.69-1.73L41,49.53l-.81-.63L42.33,46,45,45.6l7.55-7L40.22,45.67Z"/><path class="cls-22" d="M30.56,54a.55.55,0,0,1,.05.22l9.61-8.53L52.5,38.61l-12.18,6-.6.3-.81.73L37.37,47,35,49.15l-2.36,2.12-.73.71-1.75,1.69A.62.62,0,0,1,30.56,54Z"/><path class="cls-23" d="M22.35,59a20,20,0,0,1-1.3,2.71,26.61,26.61,0,0,0-1.34,2.73,8.13,8.13,0,0,0-.64,2.92,5.94,5.94,0,0,0,1.89,0,8.28,8.28,0,0,0,1.31-.24,31.88,31.88,0,0,0,9-4.5l.12-6.41a13.71,13.71,0,0,1-1,1,4.79,4.79,0,0,1-1.34.93,2.74,2.74,0,0,1-2.05,0A4.15,4.15,0,0,1,25.23,57a3.53,3.53,0,0,1-.76-1.22c0-.1-.06-.2-.08-.3l-1.2.26-.12-.07-.26.46A7,7,0,0,1,22.35,59Z"/><path class="cls-24" d="M21.86,55.08l.05-.09c-1.48-.89-2.82-1.74-4-2.53h0a14.84,14.84,0,0,0-4,7.67,11.61,11.61,0,0,0,0,4.55,4.88,4.88,0,0,0,.78,1,6.1,6.1,0,0,0,3.24,1.56h0l.07-.43a12.57,12.57,0,0,1,1.53-6.06c.34-.61.87-1.52,1.6-2.74a6,6,0,0,0,.67-2A3.72,3.72,0,0,0,21.86,55.08Z"/><path class="cls-25" d="M21.91,55l-.05.09a3.72,3.72,0,0,1,0,.88,6,6,0,0,1-.67,2c-.73,1.22-1.26,2.13-1.6,2.74A12.57,12.57,0,0,0,18,66.77L18,67.2l.62.1a4.1,4.1,0,0,0,.48.1,8.13,8.13,0,0,1,.64-2.92,26.61,26.61,0,0,1,1.34-2.73A20,20,0,0,0,22.35,59a7,7,0,0,0,.46-2.91l.26-.46Z"/><path class="cls-26" d="M30,39.39l0-.09-.29.13a18.79,18.79,0,0,1-5.65,3.28,2.26,2.26,0,0,0-.87.49,1.06,1.06,0,0,0-.23.56,3.51,3.51,0,0,0,0,.65l0,5.13,4.41,3.15-.46.46a3.76,3.76,0,0,1,1.61.37c.9.44,1.46.49,1.67.15L31.93,52l-.25-.27c0-1-.05-2-.11-2.94a52.75,52.75,0,0,0-1.24-8.64s0-.09,0-.14l-.06-.12L30,39.39M19.28,22l-.51-.3L14,25q4.07,1,4.29,6.3c.05.68.09,1.33.1,2q0,.49,0,1c0,.3.07.54.11.73a10.85,10.85,0,0,0,.39,1.67,4.75,4.75,0,0,0,1.95,2.69,4.2,4.2,0,0,0,2.11.61,5.39,5.39,0,0,0,2.18-.4,9.51,9.51,0,0,0,3.44-2.76l.12-.07A38.26,38.26,0,0,0,20.59,26c-.43-.39-.87-.77-1.31-1.14Z"/><path class="cls-27" d="M20.88,39.25a4.75,4.75,0,0,1-1.95-2.69,10.85,10.85,0,0,1-.39-1.67c0-.19-.07-.43-.11-.73,0,.25,0,.5,0,.73-.14,3.07-.87,5.28-2.21,6.65q2.81.81,2.35,4.86L23,49.54l0-5.13a3.51,3.51,0,0,1,0-.65,1.06,1.06,0,0,1,.23-.56,2.26,2.26,0,0,1,.87-.49,18.79,18.79,0,0,0,5.65-3.28L30,39.3h0c-.4-.91-.83-1.79-1.28-2.66l-.12.07a9.51,9.51,0,0,1-3.44,2.76,5.39,5.39,0,0,1-2.18.4A4.2,4.2,0,0,1,20.88,39.25Z"/><path class="cls-28" d="M12.82,26.44l-.3-.2Q10.06,29.78,11,43.4v2.75c.43,1.34,2.44,3.25,6,5.71h0l.85.58h0c1.19.79,2.53,1.64,4,2.53l1.16.68.12.07a2.56,2.56,0,0,1,.61-2.58h0l-.09-.1a39.45,39.45,0,0,1-4.59-2.47c-.3-.19-.58-.38-.83-.56a10.78,10.78,0,0,1-3.71-4.53l0-.09a1.59,1.59,0,0,1-.07-.2A10.51,10.51,0,0,1,14,41.54a18.24,18.24,0,0,1,.34-2.89c.32-1.43.55-2.51.71-3.22a18.08,18.08,0,0,0,.43-3.25,8.09,8.09,0,0,0-.61-3.26A5.05,5.05,0,0,0,12.82,26.44Z"/><path class="cls-29" d="M12.52,26.24l.3.2a5.05,5.05,0,0,1,2,2.48,8.09,8.09,0,0,1,.61,3.26A18.08,18.08,0,0,1,15,35.43c-.16.71-.39,1.79-.71,3.22A18.24,18.24,0,0,0,14,41.54a10.51,10.51,0,0,0,.54,3.66,1.59,1.59,0,0,0,.07.2l0,.09A10.78,10.78,0,0,0,18.3,50c.25.18.53.37.83.56a39.45,39.45,0,0,0,4.59,2.47l.09.1c.14-.16.29-.31.45-.46a2.78,2.78,0,0,1,3.1,0L23,49.54l-4.4-3.14L16.2,44.72V41.54c1.34-1.37,2.07-3.58,2.21-6.65,0-.23,0-.48,0-.73s0-.63,0-1c0-.62-.05-1.27-.1-2Q18.11,26,14,25L13,25.71A3.39,3.39,0,0,0,12.52,26.24Z"/><path class="cls-30" d="M33.74,33.63l-.39.17a2.47,2.47,0,0,1-.62.23,2.25,2.25,0,0,0-.37.12.81.81,0,0,0-.38.21l-.66.43c.11.87.23,1.77.33,2.71a3.53,3.53,0,0,1,.5-.28l.46-.17.53-.17.4-.09h.2Z"/><path class="cls-31" d="M34.08,9.24c0-.18,0-.36,0-.55A8.29,8.29,0,0,0,30.5,1.94a8.36,8.36,0,0,0-9-1.14q-5.1,2.66-5.73,10-.54,6.78,3,10.91l.51.3L21.06,23l2.45,1.45q-3.26-10.14,2-18.65l7.33,3.41a.82.82,0,0,1,.35.57.83.83,0,0,1-.2.66l-.24.24a.77.77,0,0,0-.22.28.6.6,0,0,0,0,.45c0,.1.11.25.2.44A2,2,0,0,1,32.87,13a10.22,10.22,0,0,1-.34,1.16L31,18.3a5.38,5.38,0,0,1-.39.87,1.35,1.35,0,0,1-.66.6,2.3,2.3,0,0,1-1.22,0,3.21,3.21,0,0,0-1.21-.08A21.79,21.79,0,0,1,27.14,23h1.35l2.84-3.37,0-.08s0,0,0,0a20.31,20.31,0,0,0,2.72-9.75C34.09,9.62,34.09,9.43,34.08,9.24Z"/></g></g></g></svg>