<svg xmlns="http://www.w3.org/2000/svg" viewBox="0 0 124.89 34.13"><defs><style>.cls-1{fill:#83604a;}.cls-2{fill:#ccc;}.cls-3{fill:#4f3708;}.cls-4{fill:#d48f5f;}.cls-5{fill:#fff;}.cls-6{fill:#e5b492;}.cls-7{fill:#e5b592;}</style></defs><title>slide3_personajeOjos2_1</title><g id="Capa_2" data-name="Capa 2"><g id="PERSONAJE"><g id="Layer0_0_FILL" data-name="Layer0 0 FILL"><path class="cls-1" d="M3.84,25.53c.19-.63.39-1.23.59-1.82a4,4,0,0,1-.37.23c-.08.52-.15,1-.22,1.59M43.56,24.3a.38.38,0,0,0-.09-.09c.05.18.1.37.14.54,0-.15,0-.3,0-.45m38-.91c0-.18.06-.35.09-.5l-.09.05v.35m39.56-.72a2.32,2.32,0,0,1-.36-.22,16,16,0,0,1,.63,1.81A13.88,13.88,0,0,0,121.1,22.57Z"/><path class="cls-2" d="M25.49,17.08c.13.26.3.57.5,1a.7.7,0,0,0,.36.32c.22.15.35.2.41.14a.29.29,0,0,0,.28-.36,1.52,1.52,0,0,0,.22-.64A4,4,0,0,0,28,19.08a16.57,16.57,0,0,0,1.14,2,4.67,4.67,0,0,0,.73-2.73,3,3,0,0,0-.1-.77,29,29,0,0,0-4.31-.5m73.73-.41a8.19,8.19,0,0,0,.45-1,26,26,0,0,0-4.31.54,6.06,6.06,0,0,0,0,.73A4.61,4.61,0,0,0,96,19.71a15.17,15.17,0,0,0,1.14-2A4,4,0,0,0,98,16.13a1.33,1.33,0,0,0,.23.63.29.29,0,0,0,.27.37c.06.06.2,0,.41-.14A.74.74,0,0,0,99.22,16.67Z"/><path d="M19.64,18.49a4.68,4.68,0,0,0,1.58,3.45,4.73,4.73,0,0,0,3.59,1.41,5.43,5.43,0,0,0,3.72-1.55,3.55,3.55,0,0,0,.64-.72,16.57,16.57,0,0,1-1.14-2,4,4,0,0,1-.77-1.59,1.52,1.52,0,0,1-.22.64.29.29,0,0,1-.28.36c-.06.06-.19,0-.41-.14A.7.7,0,0,1,26,18c-.2-.38-.37-.69-.5-1a28.14,28.14,0,0,0-5.76.36,4.56,4.56,0,0,0-.09,1m80-2.77a8.19,8.19,0,0,1-.45,1,.74.74,0,0,1-.36.32c-.21.15-.35.2-.41.14a.29.29,0,0,1-.27-.37,1.33,1.33,0,0,1-.23-.63,4,4,0,0,1-.77,1.59,15.17,15.17,0,0,1-1.14,2,3.66,3.66,0,0,0,.64.73A5.42,5.42,0,0,0,100.4,22a4.72,4.72,0,0,0,3.59-1.4,4.66,4.66,0,0,0,1.59-3.45,6,6,0,0,0-.09-1.05A27.12,27.12,0,0,0,99.67,15.72Z"/><path class="cls-3" d="M21.22,21.94a4.68,4.68,0,0,1-1.58-3.45,4.56,4.56,0,0,1,.09-1,36.13,36.13,0,0,0-7,1.91,10.41,10.41,0,0,0,3.54,7.08,11.89,11.89,0,0,0,16.48-.36A9.88,9.88,0,0,0,36,19.62a29.78,29.78,0,0,0-6.22-2,3,3,0,0,1,.1.77,4.67,4.67,0,0,1-.73,2.73,3.55,3.55,0,0,1-.64.72,5.43,5.43,0,0,1-3.72,1.55,4.73,4.73,0,0,1-3.59-1.41M96,19.71A4.61,4.61,0,0,1,95.32,17a6.06,6.06,0,0,1,0-.73,29.41,29.41,0,0,0-6.17,2,10,10,0,0,0,3.22,6.45,11.91,11.91,0,0,0,16.48.36,10.36,10.36,0,0,0,3.5-7,32.88,32.88,0,0,0-6.9-2,6,6,0,0,1,.09,1.05A4.66,4.66,0,0,1,104,20.58,4.72,4.72,0,0,1,100.4,22a5.42,5.42,0,0,1-3.72-1.54A3.66,3.66,0,0,1,96,19.71Z"/><path class="cls-4" d="M40.45,30a8.63,8.63,0,0,0,3.13-5.27,50.73,50.73,0,0,1-19,4.91A54,54,0,0,1,3.45,26.34l0,3.73a47.8,47.8,0,0,0,32.86,2.08A12.83,12.83,0,0,0,40.45,30m81-1.32,0-3.72a54,54,0,0,1-21.11,3.31,50.58,50.58,0,0,1-19-4.9,8.68,8.68,0,0,0,3.13,5.27,12.83,12.83,0,0,0,4.09,2.13A47.83,47.83,0,0,0,121.49,28.7Z"/><path class="cls-5" d="M43.61,24.75c0-.17-.09-.36-.14-.54A36.32,36.32,0,0,0,36,19.62a9.88,9.88,0,0,1-3.22,6.45,11.89,11.89,0,0,1-16.48.36,10.41,10.41,0,0,1-3.54-7.08,49.66,49.66,0,0,0-8.35,4.36c-.2.59-.4,1.19-.59,1.82a1.39,1.39,0,0,0-.09.27,3.37,3.37,0,0,0-.28.54,54,54,0,0,0,21.11,3.32,50.83,50.83,0,0,0,19-4.91m77.13-2.4A45.9,45.9,0,0,0,112.39,18a10.36,10.36,0,0,1-3.5,7,11.91,11.91,0,0,1-16.48-.36,10,10,0,0,1-3.22-6.45,36.2,36.2,0,0,0-7.49,4.63c0,.15-.06.32-.09.5a50.53,50.53,0,0,0,19,4.9A54,54,0,0,0,121.74,25a4.51,4.51,0,0,0-.27-.54.88.88,0,0,0-.1-.28A16,16,0,0,0,120.74,22.35Z"/><path class="cls-6" d="M37.82,10.36l2.59-3.22Q33.69,1.32,22.75,1.37,7.63.83,0,26.8l3.45,3.27L3.4,26.34c.1-.21.19-.39.28-.54a1.39,1.39,0,0,1,.09-.27c.07-.54.15-1.07.23-1.59l.36-.23a50,50,0,0,1,8.35-4.36,36.13,36.13,0,0,1,7-1.91,28.14,28.14,0,0,1,5.76-.36,29.29,29.29,0,0,1,4.32.5,30,30,0,0,1,6.22,2,36.53,36.53,0,0,1,7.44,4.59.19.19,0,0,1,.09.09q-.62-9.77-5.67-13.94M112.14,18a45.9,45.9,0,0,1,8.35,4.32,2.32,2.32,0,0,0,.36.22c.12.52.21,1.05.28,1.59a1.31,1.31,0,0,1,.09.28,4.51,4.51,0,0,1,.27.54l0,3.72,3.45-3.27Q117.27-.54,102.15,0q-11,0-17.66,5.77L87.08,9q-5,4.17-5.72,13.94l.09-.05a36.2,36.2,0,0,1,7.49-4.63,29.41,29.41,0,0,1,6.17-2,26,26,0,0,1,4.31-.54,27.12,27.12,0,0,1,5.82.36A32.88,32.88,0,0,1,112.14,18Z"/><path class="cls-7" d="M40.88,7.46a2.15,2.15,0,0,1-.41-.32l-2.58,3.22q5.05,4.17,5.67,13.94c0,.15,0,.3,0,.45A8.7,8.7,0,0,1,40.47,30l5.86-3.36Q45.88,14.4,42.24,9a18.87,18.87,0,0,0-1.36-1.49M84.67,5.78a2.1,2.1,0,0,1-.41.31c-.48.49-.94,1-1.36,1.5Q79.27,13,78.81,25.3l5.86,3.36a8.66,8.66,0,0,1-3.09-5.06l0-.67Q82.21,13.18,87.26,9Z"/></g></g></g></svg>