<svg xmlns="http://www.w3.org/2000/svg" viewBox="0 0 601.95 530.68"><defs><style>.cls-1{fill:#cc123c;}.cls-2,.cls-3,.cls-4,.cls-5,.cls-6,.cls-7{fill:none;stroke:#cc123c;stroke-miterlimit:10;}.cls-3,.cls-4,.cls-5,.cls-6,.cls-7{stroke-width:4px;}.cls-4{stroke-dasharray:11.82 11.82;}.cls-5{stroke-dasharray:12.1 12.1;}.cls-6{stroke-dasharray:11.9 11.9;}.cls-7{stroke-dasharray:12;}</style></defs><title>slide1_lineas</title><g id="Capa_2" data-name="Capa 2"><g id="Capa_1-2" data-name="Capa 1"><ellipse class="cls-1" cx="589.4" cy="243.83" rx="6.14" ry="5.15" transform="translate(-33.95 108.63) rotate(-10.24)"/><ellipse class="cls-2" cx="589.5" cy="243.76" rx="12.01" ry="10.08" transform="translate(-33.94 108.64) rotate(-10.24)"/><ellipse class="cls-1" cx="533.57" cy="291.78" rx="6.14" ry="5.15" transform="translate(-43.36 99.47) rotate(-10.24)"/><ellipse class="cls-2" cx="533.67" cy="291.71" rx="12.01" ry="10.08" transform="translate(-43.35 99.48) rotate(-10.24)"/><ellipse class="cls-1" cx="358.62" cy="174.87" rx="6.14" ry="5.15" transform="translate(-25.37 66.52) rotate(-10.24)"/><ellipse class="cls-2" cx="358.72" cy="174.79" rx="12.01" ry="10.08" transform="translate(-25.35 66.53) rotate(-10.24)"/><ellipse class="cls-1" cx="235.92" cy="373.24" rx="6.14" ry="5.15" transform="translate(-62.57 47.87) rotate(-10.24)"/><ellipse class="cls-2" cx="236.02" cy="373.16" rx="12.01" ry="10.08" transform="translate(-62.56 47.88) rotate(-10.24)"/><ellipse class="cls-1" cx="13.51" cy="106.97" rx="6.14" ry="5.15" transform="translate(-18.8 4.1) rotate(-10.24)"/><ellipse class="cls-2" cx="13.6" cy="106.9" rx="12.01" ry="10.08" transform="translate(-18.78 4.12) rotate(-10.24)"/><ellipse class="cls-1" cx="44.28" cy="233.6" rx="6.14" ry="5.15" transform="translate(-40.81 11.59) rotate(-10.24)"/><ellipse class="cls-2" cx="44.38" cy="233.52" rx="12.01" ry="10.08" transform="translate(-40.79 11.6) rotate(-10.24)"/><path class="cls-3" d="M6.93,97s1.1-1.86,3.22-5.06"/><path class="cls-4" d="M17,82.29C53,33.76,182.68-103.89,346.15,154.16"/><path class="cls-3" d="M349.3,159.17q1.57,2.54,3.15,5.11"/><path class="cls-3" d="M58.07,229.32a54.29,54.29,0,0,1,5.78-1.58"/><path class="cls-5" d="M75.82,226.07c28.87-1.67,80.86,12.57,61.15,144.29-9.13,61,29.24,241.18,211.89,113.76,86.79-60.56,111.55-162.47,174.76-180.23"/><path class="cls-3" d="M529.52,302.5q2.91-.56,5.94-.88"/><path class="cls-3" d="M243.18,365.37s1.75-1.43,4.43-4.05"/><path class="cls-6" d="M255.62,352.54c9.71-11.87,21.13-31,18.35-52.9-7.72-60.95-87.78-183.23,115.35-82.09,146.37,72.89,179.6,55.45,186.74,40"/><path class="cls-3" d="M577.71,251.87a19.6,19.6,0,0,0,0-6"/><path class="cls-7" d="M16.46,116c-32.22,28.17-3.27,93.2,16.1,119.64"/></g></g></svg>