
<svg xmlns="http://www.w3.org/2000/svg" version="1.1" xmlns:xlink="http://www.w3.org/1999/xlink" preserveAspectRatio="none" x="0px" y="0px" width="960px" height="640px" viewBox="0 0 960 640">
<defs>
<g id="S_mbolo_1_0_Layer0_0_FILL">
<path fill="#C5A143" stroke="none" d="
M 21 502.75
Q 31.3 514.3 35.55 525.9 41.45 541.8 53.8 548.7 84.95 556.4 81.5 539.2 80.65 527.6 58.5 493.6 55.25 508.3 36.95 506.45 26.75 506.2 21 502.75
M 140.15 486.95
L 114.75 464.05
Q 93.45 484.85 69.6 468.65 68.75 474.05 71.75 478.75 82.25 485.05 98.05 489.2 111.2 493.8 120 502.75 125.7 510.55 135.3 508.7
L 160.85 503.45
Q 161.25 489.15 140.15 486.95
M 102.45 135.05
Q 98.45 125.95 92.3 117.45
L 92.3 100.65
Q 83.95 101.85 82.25 109.15 82 116.7 87 117.65 88.75 131.75 95.3 145.1 99.7 166.8 100.7 188.4 101.4 202.2 100.4 216.85 100 223.45 99.25 230.05
L 99.25 230.15
Q 99.35 231.8 99.45 233.45 99.85 236.7 100.7 239.9 102.1 242.65 105 243.2 107.1 240.5 108.75 237.65 112.75 230.75 114.05 222.95
L 109.9 164.15
Q 109.7 161.5 109.3 158.85 107.55 146.5 102.45 135.05 Z"/>

<path fill="#5F6455" stroke="none" d="
M 22.75 519.9
Q 33.35 524.1 40 542.9 44.85 550.05 55.25 553.3 67.4 557.8 79.55 554.8 86.25 551.85 81.5 539.2 84.95 556.4 53.8 548.7 41.45 541.8 35.55 525.9 31.3 514.3 21 502.75 19.35 501.75 18.1 500.5 15.45 509.3 22.75 519.9
M 71.75 478.75
Q 70.4 485.95 74.75 494.25
L 90.4 498.95
Q 95.6 492.9 100.5 494.75
L 120.5 509.55
Q 127.1 515.05 140 513
L 162.95 508
Q 162.9 505.35 160.85 503.45
L 135.3 508.7
Q 125.7 510.55 120 502.75 111.2 493.8 98.05 489.2 82.25 485.05 71.75 478.75 Z"/>

<path fill="#716E5A" stroke="none" d="
M 20.9 240.75
Q 18.75 259 18.7 278.35 19.1 300.2 21.9 329.1 21.9 329.25 21.95 329.45 22.2 332 22.45 334.6 29.05 371.1 14 398.3 11.5 407.25 12.85 420.25 13.8 431.45 16.85 450.05 19.85 468.65 14 482.6 11.9 494.5 18.1 500.5 19.35 501.75 21 502.75 26.75 506.2 36.95 506.45 55.25 508.3 58.5 493.6 46.9 433.15 58.5 397.85 62.4 389.5 65.8 380.7 83.6 334.6 88.5 276.75 33.5 274.5 20.9 240.75
M 30.5 124.75
Q 25.15 113.35 11.6 110.8 -1.35 118.1 0.15 138.65
L 0.15 188.4 2.85 215.3
Q 16.95 224.1 24.35 218.65 31 213.75 32.1 197.1 44.55 154.45 30.5 124.75
M 109.8 63.65
L 109.8 70.8
Q 109.35 72.35 108.1 73.55 116.8 92.65 120.65 112.25 121.3 115.7 121.8 119.15 124.75 134.3 124.7 148.65 124.65 162.6 121.8 175.7
L 136.7 238.45
Q 137.4 241.7 137.3 244.6 136.8 253.3 128.35 258.65 128 266.35 127.5 273.95
L 138.4 268.45 139.45 209.25 137.75 181.05
Q 133.85 127 126.3 97.3 118.6 67.25 109.8 63.65 Z"/>

<path fill="#F8D4C1" stroke="none" d="
M 139.4 274.5
L 127.15 278.85
Q 125.8 296.85 123.55 314.25 138.95 309.1 139.4 274.5 Z"/>

<path fill="#FEFEFF" stroke="none" d="
M 127.15 278.85
L 139.4 274.5 141.65 273.7 141.45 266.9 138.4 268.45 127.5 273.95
Q 127.35 276.4 127.15 278.85 Z"/>

<path fill="#493628" stroke="none" d="
M 108.75 237.65
Q 107.1 240.5 105 243.2 102.1 242.65 100.7 239.9 102.65 247.3 106.85 254.65 111.1 265.2 103.85 271 102.05 272.45 99.5 273.6 95.1 275.65 88.5 276.75 83.6 334.6 65.8 380.7 83.2 418.85 60.85 461.55 65.25 465.7 69.6 468.65 93.45 484.85 114.75 464.05 115.95 462.8 117.15 461.5 100.7 428.1 108.9 387.75 118.5 352.5 123.55 314.25 125.8 296.85 127.15 278.85 127.35 276.4 127.5 273.95 128 266.35 128.35 258.65 108.95 265.65 108.75 237.65 Z"/>

<path fill="#000000" stroke="none" d="
M 75.75 168.45
Q 70.7 158 65.05 148.55
L 50.75 156.75
Q 44.9 161.7 50.75 168.45 63.25 172.6 75.75 168.45 Z"/>

<path fill="#494632" stroke="none" d="
M 53.95 131.55
L 61.75 117.8 39.35 115.4 39.35 104.2 32 90.85 11.6 110.8
Q 25.15 113.35 30.5 124.75 44.55 154.45 32.1 197.1 31 213.75 24.35 218.65
L 22.45 229.25
Q 21.55 234.9 20.9 240.65
L 20.85 240.65
Q 20.85 240.7 20.9 240.75 33.5 274.5 88.5 276.75 95.1 275.65 99.5 273.6 102.05 272.45 103.85 271 111.1 265.2 106.85 254.65 102.65 247.3 100.7 239.9 99.85 236.7 99.45 233.45 97.4 225.85 95.2 218.6 94.95 217.95 94.8 217.35
L 88.75 199.45 88.75 199.4
Q 82.75 182.95 75.75 168.45 63.25 172.6 50.75 168.45 44.9 161.7 50.75 156.75
L 65.05 148.55
Q 59.75 139.6 53.95 131.55
M 98.4 77
L 112.9 97.8
Q 119 106.35 105.55 110.45
L 114.6 122.2
Q 110.2 141.9 109.3 158.85 109.7 161.5 109.9 164.15
L 114.05 222.95
Q 112.75 230.75 108.75 237.65 108.95 265.65 128.35 258.65 136.8 253.3 137.3 244.6 137.4 241.7 136.7 238.45
L 121.8 175.7
Q 124.65 162.6 124.7 148.65 124.75 134.3 121.8 119.15 121.3 115.7 120.65 112.25 116.8 92.65 108.1 73.55 105.3 76.2 98.4 77 Z"/>

<path fill="#493A2B" stroke="none" d="
M 36.75 84.6
L 32 90.85 39.35 104.2 39.35 115.4 61.75 117.8 53.95 131.55
Q 59.75 139.6 65.05 148.55 70.7 158 75.75 168.45 82.75 182.95 88.75 199.4
L 88.75 199.45 94.8 217.35 96.2 192.1
Q 88 116.4 66.65 99.55 56.35 87.9 41.15 77.5 42.05 69.5 49.95 69.65 48.4 68 47 66.35 33 78.45 36.75 84.6
M 98.4 77
Q 95.5 77.35 91.85 77.35 90.55 77.55 89.3 77.7 99.85 82.35 96.85 108.2
L 102.45 135.05
Q 107.55 146.5 109.3 158.85 110.2 141.9 114.6 122.2
L 105.55 110.45
Q 119 106.35 112.9 97.8
L 98.4 77 Z"/>

<path fill="#E99575" stroke="none" d="
M 86.75 95.5
Q 86.7 84 89.3 77.7 71.1 79.55 69.05 65.55 63.35 69.7 55.75 62.75 61.75 71.55 52.3 71.95 51.1 70.8 49.95 69.65
L 45.55 76
Q 52.85 76.1 58.05 82.7 72.05 87.7 82.15 101.8 86.55 100 86.75 95.5 Z"/>

<path fill="#FEFEF6" stroke="none" d="
M 89.3 77.7
Q 86.7 84 86.75 95.5 86.55 100 82.15 101.8 72.05 87.7 58.05 82.7 52.85 76.1 45.55 76
L 49.95 69.65
Q 42.05 69.5 41.15 77.5 56.35 87.9 66.65 99.55 88 116.4 96.2 192.1
L 94.8 217.35
Q 94.95 217.95 95.2 218.6 97.4 225.85 99.45 233.45 99.35 231.8 99.25 230.15
L 99.25 230.05
Q 100 223.45 100.4 216.85 101.4 202.2 100.7 188.4 99.7 166.8 95.3 145.1 88.75 131.75 87 117.65 82 116.7 82.25 109.15 83.95 101.85 92.3 100.65
L 92.3 117.45
Q 98.45 125.95 102.45 135.05
L 96.85 108.2
Q 99.85 82.35 89.3 77.7 Z"/>

<path fill="#5A3110" stroke="none" d="
M 83.5 39.45
Q 86.2 27.55 105.35 25.85 110.65 8.3 83.3 2.3 51.35 -6.5 38.5 18.55 29.6 45.55 47 66.35 48.4 68 49.95 69.65 51.1 70.8 52.3 71.95 61.75 71.55 55.75 62.75 54.45 51.7 65.7 56.85 77.35 64.5 75.65 53.6 86.75 48.3 83.5 39.45 Z"/>

<path fill="#FAD8C4" stroke="none" d="
M 105.35 40.2
Q 107.6 33.1 105.35 25.85 86.2 27.55 83.5 39.45 86.75 48.3 75.65 53.6 77.35 64.5 65.7 56.85 54.45 51.7 55.75 62.75 63.35 69.7 69.05 65.55 71.1 79.55 89.3 77.7 90.55 77.55 91.85 77.35 95.5 77.35 98.4 77 105.3 76.2 108.1 73.55 109.35 72.35 109.8 70.8
L 109.8 63.65 109.8 56.55
Q 116.65 54.2 114.1 50.9
L 105.35 40.2 Z"/>
</g>
</defs>

<g transform="matrix( 1, 0, 0, 1, 399,42.5) ">
<g transform="matrix( 1, 0, 0, 1, 0,0) ">
<use xlink:href="#S_mbolo_1_0_Layer0_0_FILL"/>
</g>
</g>
</svg>
