
<svg xmlns="http://www.w3.org/2000/svg" version="1.1" xmlns:xlink="http://www.w3.org/1999/xlink" preserveAspectRatio="none" x="0px" y="0px" width="960px" height="640px" viewBox="0 0 960 640">
<defs>
<g id="Layer0_0_FILL">
<path fill="#3C3B3C" stroke="none" d="
M 427.15 365.5
L 433.85 368.35 437.45 379.9 435.85 385.55 490.3 356.7 527.8 331.95
Q 613.4 264.4 542.7 239.85 527.85 268.2 509.9 291.2 502.45 300.8 494.45 309.45 492 312.1 489.5 314.65
L 427.15 365.5 Z"/>

<path fill="#FFFFFF" stroke="none" d="
M 427.15 375.1
L 430.7 389.35 435.85 385.55 437.45 379.9 433.85 368.35 427.15 365.5 422.8 365.75 427.15 375.1 Z"/>

<path fill="#EE9476" stroke="none" d="
M 399.65 381.6
L 388 389.75
Q 381.45 403.85 398.55 400.6
L 430.7 389.35 427.15 375.1 422.8 365.75 419.25 364.7 400.55 372.45
Q 399.65 373.3 398.9 374.15 396.3 377 395.2 380.15 395.9 382.2 399.4 381.65 399.55 381.6 399.65 381.6 Z"/>
</g>
</defs>

<g transform="matrix( 1, 0, 0, 1, 0,0) ">
<use xlink:href="#Layer0_0_FILL"/>
</g>
</svg>
