
<svg xmlns="http://www.w3.org/2000/svg" version="1.1" xmlns:xlink="http://www.w3.org/1999/xlink" preserveAspectRatio="none" x="0px" y="0px" width="960px" height="640px" viewBox="0 0 960 640">
<defs>
<g id="Layer0_0_FILL">
<path fill="#FEFEFF" stroke="none" d="
M 494.8 315.15
Q 494.75 315.05 494.75 314.95
L 489.05 310.65 489.05 338.1 493.85 333.45 494.8 315.15 Z"/>

<path fill="#E8C4A4" stroke="none" d="
M 550.4 317.15
L 550.85 314.75 531 314.05 533.95 317.05 550.4 317.15 Z"/>

<path fill="#F8D4C1" stroke="none" d="
M 549.6 321.6
L 550.4 317.15 533.95 317.05 531 314.05 550.85 314.75 552.1 307.95 546.05 307.35 529.7 307.45 519.45 304.7 536.1 297.85
Q 532.55 296.3 528.95 296 523.25 295.45 517.2 297.85 512.05 299.85 506.7 303.95 504.45 305.6 502.2 307.65 498.55 310.85 494.8 315
L 494.75 314.95
Q 494.75 315.05 494.8 315.15
L 493.85 333.45 506.4 332.4 530.25 336.3 549.6 321.6 Z"/>

<path fill="#716E5A" stroke="none" d="
M 438.1 312.65
Q 414.25 313.2 408.85 330.85
L 409.3 335.2
Q 415.2 346.85 428.45 344.8
L 489.05 338.1 489.05 310.65 438.1 312.65 Z"/>
</g>
</defs>

<g transform="matrix( 1, 0, 0, 1, 0,0) ">
<use xlink:href="#Layer0_0_FILL"/>
</g>
</svg>
