<?xml version="1.0" encoding="UTF-8"?><svg id="Capa_2" xmlns="http://www.w3.org/2000/svg" viewBox="0 0 199 247.37"><defs><style>.cls-1{fill:#f7f6f5;}.cls-2{fill:#f29b87;}.cls-3{fill:#ec7920;}.cls-4{fill:#e8e8e8;}.cls-5{fill:#6c2413;}.cls-6{fill:#b55722;}.cls-7{fill:#cdcccc;}.cls-8{fill:#dcdcdb;}.cls-9{fill:#435264;}.cls-10{fill:#2e3e52;}</style></defs><g id="Capa_1-2"><g><rect class="cls-7" x=".61" y="25.72" width="198.39" height="221.66" rx="12" ry="12"/><path class="cls-1" d="m14.45,25.72h170.7c7.64,0,13.84,6.2,13.84,13.84v182.51c0,5.18-4.2,9.38-9.38,9.38H8.97c-4.62,0-8.36-3.75-8.36-8.36V39.56c0-7.64,6.2-13.84,13.84-13.84Z"/><rect class="cls-6" x=".61" y="94.3" width="198.39" height="8.57"/><path class="cls-4" d="m0,196.55h28.9c3.65,0,6.61,2.96,6.61,6.61v28.9H8.59C3.85,232.06,0,228.21,0,223.47v-26.92H0Z"/><path class="cls-8" d="m.12,196.55h-.12v24.99c0,5.81,4.71,10.52,10.52,10.52h24.99v-1.06L.12,196.55Z"/><path class="cls-3" d="m182.05,22.66H17.56C8.24,22.66.61,30.62.61,40.36v53.93h198.39v-53.93c0-9.74-7.63-17.71-16.95-17.71Z"/><g><circle class="cls-2" cx="47.15" cy="42.86" r="12.25"/><circle class="cls-5" cx="47.15" cy="42.86" r="9.8"/><rect class="cls-10" x="38.58" width="15.92" height="50.21" rx="6.5" ry="6.5"/><path class="cls-9" d="m45.92.03c-4.09.32-7.35,3.76-7.35,7.93v34.29c0,4.17,3.25,7.61,7.35,7.93V.03Z"/></g><g><circle class="cls-2" cx="152.46" cy="42.86" r="12.25"/><circle class="cls-5" cx="152.46" cy="42.86" r="9.8"/><rect class="cls-10" x="143.89" width="15.92" height="50.21" rx="6.5" ry="6.5"/><path class="cls-9" d="m151.24.03c-4.09.32-7.35,3.76-7.35,7.93v34.29c0,4.17,3.25,7.61,7.35,7.93V.03Z"/></g></g></g></svg>