<?xml version="1.0" encoding="UTF-8"?><svg id="Capa_2" xmlns="http://www.w3.org/2000/svg" viewBox="0 0 198.67 38.69"><defs><style>.cls-1{fill:#ffd30f;}.cls-2{fill:#1f3359;}</style></defs><g id="Capa_1-2"><rect class="cls-1" width="121" height="38.69"/><g><path class="cls-2" d="m32.54,9.61v4.02h-6.26v3.22h5.87v3.86h-5.87v7.77h-4.92V9.61h11.18Z"/><path class="cls-2" d="m42.37,9.61l4.6,18.87h-5.23l-.5-3.3h-3.91l-.5,3.3h-5.15l4.52-18.87h6.18Zm-3.12,3.86l-1.35,8.01h2.75l-1.35-8.01h-.05Z"/><path class="cls-2" d="m52.7,9.61v14.85h6.05v4.02h-10.97V9.61h4.92Z"/><path class="cls-2" d="m56.9,13.79v-4.18h12.26v4.18h-3.7v14.69h-4.92v-14.69h-3.65Z"/><path class="cls-2" d="m78.1,9.61l4.6,18.87h-5.23l-.5-3.3h-3.91l-.5,3.3h-5.15l4.52-18.87h6.18Zm-3.12,3.86l-1.35,8.01h2.75l-1.35-8.01h-.05Z"/><path class="cls-2" d="m89.01,9.61l3.17,11.63h.05v-11.63h4.6v18.87h-5.39l-3.28-11.65h-.05v11.65h-4.6V9.61h5.5Z"/></g><polyline class="cls-2" points="177.86 35.51 177.86 2.37 198.67 17.92"/></g></svg>