<?xml version="1.0" encoding="UTF-8"?><svg id="Capa_2" xmlns="http://www.w3.org/2000/svg" viewBox="0 0 722.5 544.19"><defs><style>.cls-1{fill:#add0db;}.cls-2{fill:#cad323;}.cls-3{fill:#1f3359;}.cls-4{fill:#1d7d38;}.cls-5{fill:none;stroke:#fff;stroke-dasharray:0 5;stroke-width:4px;}.cls-5,.cls-6{stroke-miterlimit:10;}.cls-6{fill:#fff;stroke:#e11e21;stroke-width:3.37px;}</style></defs><g id="Capa_1-2"><circle class="cls-1" cx="347" cy="267.5" r="267.5"/><g><polygon class="cls-4" points="722.5 539.08 684.61 502.87 655.71 498.09 647.71 474.18 597.15 430.45 584.85 382.62 539.76 332.06 505.6 252.81 491.93 256.91 460.5 202.25 472.8 256.91 460.5 257.49 445.47 273.3 438.64 297.9 449.57 300.63 438.64 337.82 412.68 352.56 429.08 382.62 398.46 411.6 399.01 445.48 373.73 461.48 373.73 514.74 338.88 539.08 722.5 539.08"/><polygon class="cls-2" points="460.5 202.25 434.54 217.28 422.24 252.81 390.81 276.04 378.52 317.03 364.85 310.2 333.42 379.89 316.32 370.66 295.16 433.18 278.76 441.38 278.76 475.02 263.73 461.88 218.83 539.08 338.88 539.08 373.73 514.74 373.73 461.48 399.01 445.48 398.46 411.6 429.08 382.62 412.68 352.56 438.64 337.82 449.57 300.63 438.64 297.9 445.47 273.3 460.5 257.49 472.8 256.91 460.5 202.25"/><polygon class="cls-1" points="309.52 539.08 326.59 506.97 326.59 476.21 345.82 454.87 355.29 418.15 390.81 366.22 338.88 411.6 334.79 444.11 306.78 469.1 301.99 520.64 270.38 539.08 309.52 539.08"/><path class="cls-4" d="m399.7,190.63l-29.69-10.93-18.82-81.31-32.8-19.13-11.62-22.9,6.3,29.5-16.55,2.96,10.25,56.48-10.25,25.5,8.2,28.7-28.7,31.43-17.76-10.93,4.1,35.53,16.4,27.33s-31.43,51.93-34.16,51.93h-25.77l12.1,45.09-25.79-9.22v91.32l-20.67,5.36s-30.06,32.8-31.43,32.8-16.69,38.94-16.69,38.94h82.48l44.9-77.21,15.03,13.15v-33.64l16.4-8.2,21.16-62.52,17.1,9.22,31.43-69.69,13.66,6.83,12.3-40.99,31.43-23.23,9.55-27.58-32.09-34.59Z"/><path class="cls-3" d="m431.79,225.23l-32.09-34.59-8.88,9.24v25.36l-17.08,8.45-17.76,41.68-12.3-17.76,10.93-20.5-5.47-28.7-18.54-17.76-3.88-36.21,9.44-31.43-9.44-23.93v-17.79l-19.94-32.02,7.52,43.68,4.1,46.46-5.47,31.43,10.93,23.23,1.37,25.96-8.2,13.66v34.16l13.57,12.68v48.03l-32.7,25.37v52.91s-26.33,27.85-27.51,28.46-28.46,0-28.46,0l-10.98,33.41v37.15h-22.23l-13.64,33.22h23.77l44.9-77.21,15.03,13.15v-33.64l16.4-8.2,21.16-62.52,17.1,9.22,31.43-69.69,13.66,6.83,12.3-40.99,31.43-23.23,9.55-27.58Z"/><polygon class="cls-3" points="373.73 539.08 416.09 488.52 416.09 454.26 440.88 411.6 450.81 376.45 460.5 416.78 486.47 445.48 472.8 512.44 550.69 476.91 573.92 445.48 616.28 526.1 665.48 515.17 722.5 539.08 373.73 539.08"/><polygon class="cls-2" points="306.78 49.24 280.81 100.44 278.08 93.61 257.58 167.4 241.7 167.4 209.75 241.19 195.07 228.31 162.61 325.23 136.36 334.21 114.73 395.94 75.62 411.6 68.32 455.05 38.26 502.87 0 542.5 136.36 539.08 153.05 500.14 184.47 467.34 205.15 461.98 205.15 370.66 230.94 379.89 218.83 334.79 244.6 334.79 278.76 282.87 262.36 255.54 258.26 220.01 276.03 230.94 304.73 199.51 296.53 170.81 306.78 142.86 296.53 88.83 313.08 85.86 306.78 49.24"/><polygon class="cls-1" points="96.34 539.08 141.21 457.77 136.36 429.89 182.13 395.94 173.1 395.94 195.07 363.1 209.07 311.56 218.83 272.84 245.97 256.91 248.7 209.08 266.46 185.85 289.84 128.7 289.69 107.96 273.3 151.69 241.87 204.98 237.77 251.44 210.44 273.3 185.84 340.26 176.28 333.43 153.84 395.94 136.36 392.58 117.52 427.72 119.54 457.77 91.55 487.84 66.96 524.74 49.14 541.27 96.34 539.08"/></g><path class="cls-5" d="m642.35,535s-15.78-25-19.82-30-100.04-6-100.04-6l-7.83-30.7-160.59-10.54-58.92-24.59-100.09-11.12,20.53-45.61,82.3-10.23,75.84-20.22,44.98-36.23-39.21-49.77-77.5,7.5-69.5-26.5,57.34-47.59,16.93-50.55,8.71-36.35-8.71-57.26"/><circle class="cls-6" cx="642.34" cy="529.57" r="12.93"/><circle class="cls-6" cx="596.37" cy="496.71" r="12.93"/><circle class="cls-6" cx="535.17" cy="496.72" r="12.93"/><circle class="cls-6" cx="480.07" cy="468.12" r="12.93"/><circle class="cls-6" cx="397.62" cy="457.99" r="12.93"/><circle class="cls-6" cx="338.79" cy="451.37" r="12.93"/><circle class="cls-6" cx="271.47" cy="431.38" r="12.93"/><circle class="cls-6" cx="218.64" cy="428.89" r="12.93"/><circle class="cls-6" cx="218.93" cy="379.53" r="12.93"/><circle class="cls-6" cx="284.3" cy="366.68" r="12.93"/><circle class="cls-6" cx="359.64" cy="344.94" r="12.93"/><circle class="cls-6" cx="410.58" cy="297.45" r="12.93"/><circle class="cls-6" cx="354.28" cy="267.59" r="12.93"/><circle class="cls-6" cx="292.78" cy="260.14" r="12.93"/><circle class="cls-6" cx="267.07" cy="218.4" r="12.93"/><circle class="cls-6" cx="305.64" cy="126.16" r="12.93"/><circle class="cls-6" cx="305.48" cy="61.93" r="12.93"/></g></svg>